<?xml version="1.0" encoding="UTF-8" standalone="no"?>
<!DOCTYPE svg PUBLIC "-//W3C//DTD SVG 1.1//EN"
 "http://www.w3.org/Graphics/SVG/1.1/DTD/svg11.dtd">
<!-- Generated by graphviz version 13.1.1 (20250719.2154)
 -->
<!-- Title: C:/Users/user/Perforce/alz7_CobaltbruWorkspace_00/KPT/Source/KPT/GAS/Abilities/Minion/MinionAbilityTask/AbilityTask_ExecuteTaskOnTick.cpp Pages: 1 -->
<svg width="528pt" height="212pt"
 viewBox="0.00 0.00 528.00 212.00" xmlns="http://www.w3.org/2000/svg" xmlns:xlink="http://www.w3.org/1999/xlink">
<g id="graph0" class="graph" transform="scale(1 1) rotate(0) translate(4 208)">
<title>C:/Users/user/Perforce/alz7_CobaltbruWorkspace_00/KPT/Source/KPT/GAS/Abilities/Minion/MinionAbilityTask/AbilityTask_ExecuteTaskOnTick.cpp</title>
<!-- Node1 -->
<g id="Node000001" class="node">
<title>Node1</title>
<g id="a_Node000001"><a xlink:title=" ">
<polygon fill="#999999" stroke="#666666" points="410.5,-204 232.5,-204 232.5,-136 410.5,-136 410.5,-204"/>
<text xml:space="preserve" text-anchor="start" x="240.5" y="-190.5" font-family="Helvetica,sans-Serif" font-size="10.00">C:/Users/user/Perforce</text>
<text xml:space="preserve" text-anchor="start" x="240.5" y="-178.5" font-family="Helvetica,sans-Serif" font-size="10.00">/alz7_CobaltbruWorkspace</text>
<text xml:space="preserve" text-anchor="start" x="240.5" y="-166.5" font-family="Helvetica,sans-Serif" font-size="10.00">_00/KPT/Source/KPT/GAS/Abilities</text>
<text xml:space="preserve" text-anchor="start" x="240.5" y="-154.5" font-family="Helvetica,sans-Serif" font-size="10.00">/Minion/MinionAbilityTask/AbilityTask</text>
<text xml:space="preserve" text-anchor="middle" x="321.5" y="-142.5" font-family="Helvetica,sans-Serif" font-size="10.00">_ExecuteTaskOnTick.cpp</text>
</a>
</g>
</g>
<!-- Node2 -->
<g id="Node000002" class="node">
<title>Node2</title>
<g id="a_Node000002"><a xlink:href="_ability_task___execute_task_on_tick_8h.html" target="_top" xlink:title=" ">
<polygon fill="white" stroke="#666666" points="236,-100 97,-100 97,-68 236,-68 236,-100"/>
<text xml:space="preserve" text-anchor="start" x="105" y="-86.5" font-family="Helvetica,sans-Serif" font-size="10.00">AbilityTask_ExecuteTaskOn</text>
<text xml:space="preserve" text-anchor="middle" x="166.5" y="-74.5" font-family="Helvetica,sans-Serif" font-size="10.00">Tick.h</text>
</a>
</g>
</g>
<!-- Node1&#45;&gt;Node2 -->
<g id="edge1_Node000001_Node000002" class="edge">
<title>Node1&#45;&gt;Node2</title>
<g id="a_edge1_Node000001_Node000002"><a xlink:title=" ">
<path fill="none" stroke="#63b8ff" d="M259.79,-135.56C241.2,-125.48 221.33,-114.72 204.74,-105.72"/>
<polygon fill="#63b8ff" stroke="#63b8ff" points="206.65,-102.78 196.19,-101.09 203.32,-108.93 206.65,-102.78"/>
</a>
</g>
</g>
<!-- Node6 -->
<g id="Node000006" class="node">
<title>Node6</title>
<g id="a_Node000006"><a xlink:title=" ">
<polygon fill="#e0e0e0" stroke="#999999" points="388.75,-94 254.25,-94 254.25,-74 388.75,-74 388.75,-94"/>
<text xml:space="preserve" text-anchor="middle" x="321.5" y="-80.5" font-family="Helvetica,sans-Serif" font-size="10.00">Curves/CurveLinearColor.h</text>
</a>
</g>
</g>
<!-- Node1&#45;&gt;Node6 -->
<g id="edge5_Node000001_Node000006" class="edge">
<title>Node1&#45;&gt;Node6</title>
<g id="a_edge5_Node000001_Node000006"><a xlink:title=" ">
<path fill="none" stroke="#63b8ff" d="M321.5,-135.8C321.5,-125.58 321.5,-114.63 321.5,-105.52"/>
<polygon fill="#63b8ff" stroke="#63b8ff" points="325,-105.65 321.5,-95.65 318,-105.65 325,-105.65"/>
</a>
</g>
</g>
<!-- Node7 -->
<g id="Node000007" class="node">
<title>Node7</title>
<g id="a_Node000007"><a xlink:title=" ">
<polygon fill="#e0e0e0" stroke="#999999" points="519.88,-94 407.12,-94 407.12,-74 519.88,-74 519.88,-94"/>
<text xml:space="preserve" text-anchor="middle" x="463.5" y="-80.5" font-family="Helvetica,sans-Serif" font-size="10.00">Curves/CurveVector.h</text>
</a>
</g>
</g>
<!-- Node1&#45;&gt;Node7 -->
<g id="edge6_Node000001_Node000007" class="edge">
<title>Node1&#45;&gt;Node7</title>
<g id="a_edge6_Node000001_Node000007"><a xlink:title=" ">
<path fill="none" stroke="#63b8ff" d="M378.03,-135.56C398.78,-123.28 421.26,-109.99 437.95,-100.11"/>
<polygon fill="#63b8ff" stroke="#63b8ff" points="439.4,-103.32 446.22,-95.22 435.84,-97.3 439.4,-103.32"/>
</a>
</g>
</g>
<!-- Node3 -->
<g id="Node000003" class="node">
<title>Node3</title>
<g id="a_Node000003"><a xlink:title=" ">
<polygon fill="#e0e0e0" stroke="#999999" points="79,-26 0,-26 0,-6 79,-6 79,-26"/>
<text xml:space="preserve" text-anchor="middle" x="39.5" y="-12.5" font-family="Helvetica,sans-Serif" font-size="10.00">CoreMinimal.h</text>
</a>
</g>
</g>
<!-- Node2&#45;&gt;Node3 -->
<g id="edge2_Node000002_Node000003" class="edge">
<title>Node2&#45;&gt;Node3</title>
<g id="a_edge2_Node000002_Node000003"><a xlink:title=" ">
<path fill="none" stroke="#63b8ff" d="M136.72,-67.53C115.87,-56.69 88.18,-42.3 67.69,-31.65"/>
<polygon fill="#63b8ff" stroke="#63b8ff" points="69.53,-28.66 59.05,-27.16 66.31,-34.88 69.53,-28.66"/>
</a>
</g>
</g>
<!-- Node4 -->
<g id="Node000004" class="node">
<title>Node4</title>
<g id="a_Node000004"><a xlink:title=" ">
<polygon fill="#e0e0e0" stroke="#999999" points="236,-26 97,-26 97,-6 236,-6 236,-26"/>
<text xml:space="preserve" text-anchor="middle" x="166.5" y="-12.5" font-family="Helvetica,sans-Serif" font-size="10.00">Abilities/Tasks/AbilityTask.h</text>
</a>
</g>
</g>
<!-- Node2&#45;&gt;Node4 -->
<g id="edge3_Node000002_Node000004" class="edge">
<title>Node2&#45;&gt;Node4</title>
<g id="a_edge3_Node000002_Node000004"><a xlink:title=" ">
<path fill="none" stroke="#63b8ff" d="M166.5,-67.69C166.5,-58.8 166.5,-47.46 166.5,-37.77"/>
<polygon fill="#63b8ff" stroke="#63b8ff" points="170,-37.83 166.5,-27.83 163,-37.83 170,-37.83"/>
</a>
</g>
</g>
<!-- Node5 -->
<g id="Node000005" class="node">
<title>Node5</title>
<g id="a_Node000005"><a xlink:title=" ">
<polygon fill="#e0e0e0" stroke="#999999" points="393,-32 254,-32 254,0 393,0 393,-32"/>
<text xml:space="preserve" text-anchor="start" x="262" y="-18.5" font-family="Helvetica,sans-Serif" font-size="10.00">AbilityTask_ExecuteTaskOn</text>
<text xml:space="preserve" text-anchor="middle" x="323.5" y="-6.5" font-family="Helvetica,sans-Serif" font-size="10.00">Tick.generated.h</text>
</a>
</g>
</g>
<!-- Node2&#45;&gt;Node5 -->
<g id="edge4_Node000002_Node000005" class="edge">
<title>Node2&#45;&gt;Node5</title>
<g id="a_edge4_Node000002_Node000005"><a xlink:title=" ">
<path fill="none" stroke="#63b8ff" d="M203.31,-67.53C225.08,-58.37 252.88,-46.69 276.26,-36.86"/>
<polygon fill="#63b8ff" stroke="#63b8ff" points="277.39,-40.18 285.25,-33.08 274.68,-33.73 277.39,-40.18"/>
</a>
</g>
</g>
</g>
</svg>
