<?xml version="1.0" encoding="UTF-8" standalone="no"?>
<!DOCTYPE svg PUBLIC "-//W3C//DTD SVG 1.1//EN"
 "http://www.w3.org/Graphics/SVG/1.1/DTD/svg11.dtd">
<!-- Generated by graphviz version 13.1.1 (20250719.2154)
 -->
<!-- Title: C:/Users/user/Perforce/alz7_CobaltbruWorkspace_00/KPT/Source/KPT/Skill/Ability/TargetData/AbilityTask_WaitDirectionData.cpp Pages: 1 -->
<svg width="984pt" height="212pt"
 viewBox="0.00 0.00 984.00 212.00" xmlns="http://www.w3.org/2000/svg" xmlns:xlink="http://www.w3.org/1999/xlink">
<g id="graph0" class="graph" transform="scale(1 1) rotate(0) translate(4 208)">
<title>C:/Users/user/Perforce/alz7_CobaltbruWorkspace_00/KPT/Source/KPT/Skill/Ability/TargetData/AbilityTask_WaitDirectionData.cpp</title>
<!-- Node1 -->
<g id="Node000001" class="node">
<title>Node1</title>
<g id="a_Node000001"><a xlink:title=" ">
<polygon fill="#999999" stroke="#666666" points="574.38,-204 426.38,-204 426.38,-136 574.38,-136 574.38,-204"/>
<text xml:space="preserve" text-anchor="start" x="434.38" y="-190.5" font-family="Helvetica,sans-Serif" font-size="10.00">C:/Users/user/Perforce</text>
<text xml:space="preserve" text-anchor="start" x="434.38" y="-178.5" font-family="Helvetica,sans-Serif" font-size="10.00">/alz7_CobaltbruWorkspace</text>
<text xml:space="preserve" text-anchor="start" x="434.38" y="-166.5" font-family="Helvetica,sans-Serif" font-size="10.00">_00/KPT/Source/KPT/Skill</text>
<text xml:space="preserve" text-anchor="start" x="434.38" y="-154.5" font-family="Helvetica,sans-Serif" font-size="10.00">/Ability/TargetData/AbilityTask</text>
<text xml:space="preserve" text-anchor="middle" x="500.38" y="-142.5" font-family="Helvetica,sans-Serif" font-size="10.00">_WaitDirectionData.cpp</text>
</a>
</g>
</g>
<!-- Node2 -->
<g id="Node000002" class="node">
<title>Node2</title>
<g id="a_Node000002"><a xlink:href="_ability_task___wait_direction_data_8h.html" target="_top" xlink:title=" ">
<polygon fill="white" stroke="#666666" points="325.38,-100 165.38,-100 165.38,-68 325.38,-68 325.38,-100"/>
<text xml:space="preserve" text-anchor="start" x="173.38" y="-86.5" font-family="Helvetica,sans-Serif" font-size="10.00">Skill/Ability/TargetData</text>
<text xml:space="preserve" text-anchor="middle" x="245.38" y="-74.5" font-family="Helvetica,sans-Serif" font-size="10.00">/AbilityTask_WaitDirectionData.h</text>
</a>
</g>
</g>
<!-- Node1&#45;&gt;Node2 -->
<g id="edge1_Node000001_Node000002" class="edge">
<title>Node1&#45;&gt;Node2</title>
<g id="a_edge1_Node000001_Node000002"><a xlink:title=" ">
<path fill="none" stroke="#63b8ff" d="M425.93,-144.48C386.77,-131.58 339.47,-115.99 303.11,-104.02"/>
<polygon fill="#63b8ff" stroke="#63b8ff" points="304.23,-100.7 293.63,-100.9 302.04,-107.35 304.23,-100.7"/>
</a>
</g>
</g>
<!-- Node6 -->
<g id="Node000006" class="node">
<title>Node6</title>
<g id="a_Node000006"><a xlink:title=" ">
<polygon fill="#e0e0e0" stroke="#999999" points="496,-94 360.75,-94 360.75,-74 496,-74 496,-94"/>
<text xml:space="preserve" text-anchor="middle" x="428.38" y="-80.5" font-family="Helvetica,sans-Serif" font-size="10.00">AbilitySystemComponent.h</text>
</a>
</g>
</g>
<!-- Node1&#45;&gt;Node6 -->
<g id="edge5_Node000001_Node000006" class="edge">
<title>Node1&#45;&gt;Node6</title>
<g id="a_edge5_Node000001_Node000006"><a xlink:title=" ">
<path fill="none" stroke="#63b8ff" d="M471.92,-135.8C462.25,-124.52 451.82,-112.35 443.59,-102.75"/>
<polygon fill="#63b8ff" stroke="#63b8ff" points="446.36,-100.6 437.19,-95.29 441.04,-105.16 446.36,-100.6"/>
</a>
</g>
</g>
<!-- Node7 -->
<g id="Node000007" class="node">
<title>Node7</title>
<g id="a_Node000007"><a xlink:href="_f_direction_target_data_8h.html" target="_top" xlink:title=" ">
<polygon fill="white" stroke="#666666" points="631,-94 513.75,-94 513.75,-74 631,-74 631,-94"/>
<text xml:space="preserve" text-anchor="middle" x="572.38" y="-80.5" font-family="Helvetica,sans-Serif" font-size="10.00">FDirectionTargetData.h</text>
</a>
</g>
</g>
<!-- Node1&#45;&gt;Node7 -->
<g id="edge6_Node000001_Node000007" class="edge">
<title>Node1&#45;&gt;Node7</title>
<g id="a_edge6_Node000001_Node000007"><a xlink:title=" ">
<path fill="none" stroke="#63b8ff" d="M528.83,-135.8C538.5,-124.52 548.93,-112.35 557.16,-102.75"/>
<polygon fill="#63b8ff" stroke="#63b8ff" points="559.71,-105.16 563.56,-95.29 554.39,-100.6 559.71,-105.16"/>
</a>
</g>
</g>
<!-- Node12 -->
<g id="Node000012" class="node">
<title>Node12</title>
<g id="a_Node000012"><a xlink:title=" ">
<polygon fill="#e0e0e0" stroke="#999999" points="793.88,-94 648.88,-94 648.88,-74 793.88,-74 793.88,-94"/>
<text xml:space="preserve" text-anchor="middle" x="721.38" y="-80.5" font-family="Helvetica,sans-Serif" font-size="10.00">GameFramework/Character.h</text>
</a>
</g>
</g>
<!-- Node1&#45;&gt;Node12 -->
<g id="edge12_Node000001_Node000012" class="edge">
<title>Node1&#45;&gt;Node12</title>
<g id="a_edge12_Node000001_Node000012"><a xlink:title=" ">
<path fill="none" stroke="#63b8ff" d="M574.58,-140.8C612.05,-126.55 655.79,-109.93 685.71,-98.56"/>
<polygon fill="#63b8ff" stroke="#63b8ff" points="686.94,-101.83 695.05,-95.01 684.45,-95.29 686.94,-101.83"/>
</a>
</g>
</g>
<!-- Node3 -->
<g id="Node000003" class="node">
<title>Node3</title>
<g id="a_Node000003"><a xlink:title=" ">
<polygon fill="#e0e0e0" stroke="#999999" points="372.88,-26 293.88,-26 293.88,-6 372.88,-6 372.88,-26"/>
<text xml:space="preserve" text-anchor="middle" x="333.38" y="-12.5" font-family="Helvetica,sans-Serif" font-size="10.00">CoreMinimal.h</text>
</a>
</g>
</g>
<!-- Node2&#45;&gt;Node3 -->
<g id="edge2_Node000002_Node000003" class="edge">
<title>Node2&#45;&gt;Node3</title>
<g id="a_edge2_Node000002_Node000003"><a xlink:title=" ">
<path fill="none" stroke="#63b8ff" d="M265.79,-67.69C279.65,-57.3 297.94,-43.57 312,-33.03"/>
<polygon fill="#63b8ff" stroke="#63b8ff" points="313.84,-36.02 319.74,-27.22 309.64,-30.42 313.84,-36.02"/>
</a>
</g>
</g>
<!-- Node4 -->
<g id="Node000004" class="node">
<title>Node4</title>
<g id="a_Node000004"><a xlink:title=" ">
<polygon fill="#e0e0e0" stroke="#999999" points="130.75,-32 0,-32 0,0 130.75,0 130.75,-32"/>
<text xml:space="preserve" text-anchor="start" x="8" y="-18.5" font-family="Helvetica,sans-Serif" font-size="10.00">Abilities/Tasks/AbilityTask</text>
<text xml:space="preserve" text-anchor="middle" x="65.38" y="-6.5" font-family="Helvetica,sans-Serif" font-size="10.00">_WaitTargetData.h</text>
</a>
</g>
</g>
<!-- Node2&#45;&gt;Node4 -->
<g id="edge3_Node000002_Node000004" class="edge">
<title>Node2&#45;&gt;Node4</title>
<g id="a_edge3_Node000002_Node000004"><a xlink:title=" ">
<path fill="none" stroke="#63b8ff" d="M203.17,-67.53C177.76,-58.21 145.19,-46.27 118.1,-36.33"/>
<polygon fill="#63b8ff" stroke="#63b8ff" points="119.64,-33.17 109.05,-33.01 117.23,-39.74 119.64,-33.17"/>
</a>
</g>
</g>
<!-- Node5 -->
<g id="Node000005" class="node">
<title>Node5</title>
<g id="a_Node000005"><a xlink:title=" ">
<polygon fill="#e0e0e0" stroke="#999999" points="276.25,-32 148.5,-32 148.5,0 276.25,0 276.25,-32"/>
<text xml:space="preserve" text-anchor="start" x="156.5" y="-18.5" font-family="Helvetica,sans-Serif" font-size="10.00">AbilityTask_WaitDirection</text>
<text xml:space="preserve" text-anchor="middle" x="212.38" y="-6.5" font-family="Helvetica,sans-Serif" font-size="10.00">Data.generated.h</text>
</a>
</g>
</g>
<!-- Node2&#45;&gt;Node5 -->
<g id="edge4_Node000002_Node000005" class="edge">
<title>Node2&#45;&gt;Node5</title>
<g id="a_edge4_Node000002_Node000005"><a xlink:title=" ">
<path fill="none" stroke="#63b8ff" d="M237.72,-67.69C233.97,-60.2 229.36,-50.97 225.1,-42.45"/>
<polygon fill="#63b8ff" stroke="#63b8ff" points="228.27,-40.96 220.66,-33.58 222.01,-44.09 228.27,-40.96"/>
</a>
</g>
</g>
<!-- Node7&#45;&gt;Node3 -->
<g id="edge7_Node000007_Node000003" class="edge">
<title>Node7&#45;&gt;Node3</title>
<g id="a_edge7_Node000007_Node000003"><a xlink:title=" ">
<path fill="none" stroke="#63b8ff" d="M535.49,-73.51C497.13,-63.54 435.39,-47.22 382.38,-32 379.81,-31.26 377.18,-30.5 374.53,-29.71"/>
<polygon fill="#63b8ff" stroke="#63b8ff" points="375.68,-26.4 365.1,-26.88 373.67,-33.11 375.68,-26.4"/>
</a>
</g>
</g>
<!-- Node8 -->
<g id="Node000008" class="node">
<title>Node8</title>
<g id="a_Node000008"><a xlink:title=" ">
<polygon fill="#e0e0e0" stroke="#999999" points="509.38,-26 391.38,-26 391.38,-6 509.38,-6 509.38,-26"/>
<text xml:space="preserve" text-anchor="middle" x="450.38" y="-12.5" font-family="Helvetica,sans-Serif" font-size="10.00">GameplayAbilitySpec.h</text>
</a>
</g>
</g>
<!-- Node7&#45;&gt;Node8 -->
<g id="edge8_Node000007_Node000008" class="edge">
<title>Node7&#45;&gt;Node8</title>
<g id="a_edge8_Node000007_Node000008"><a xlink:title=" ">
<path fill="none" stroke="#63b8ff" d="M554.9,-73.54C534.78,-62.66 501.5,-44.66 477.9,-31.89"/>
<polygon fill="#63b8ff" stroke="#63b8ff" points="479.61,-28.84 469.15,-27.16 476.28,-35 479.61,-28.84"/>
</a>
</g>
</g>
<!-- Node9 -->
<g id="Node000009" class="node">
<title>Node9</title>
<g id="a_Node000009"><a xlink:title=" ">
<polygon fill="#e0e0e0" stroke="#999999" points="651.75,-32 527,-32 527,0 651.75,0 651.75,-32"/>
<text xml:space="preserve" text-anchor="start" x="535" y="-18.5" font-family="Helvetica,sans-Serif" font-size="10.00">Abilities/GameplayAbility</text>
<text xml:space="preserve" text-anchor="middle" x="589.38" y="-6.5" font-family="Helvetica,sans-Serif" font-size="10.00">TargetDataFilter.h</text>
</a>
</g>
</g>
<!-- Node7&#45;&gt;Node9 -->
<g id="edge9_Node000007_Node000009" class="edge">
<title>Node7&#45;&gt;Node9</title>
<g id="a_edge9_Node000007_Node000009"><a xlink:title=" ">
<path fill="none" stroke="#63b8ff" d="M574.81,-73.54C576.85,-65.64 579.85,-53.97 582.6,-43.29"/>
<polygon fill="#63b8ff" stroke="#63b8ff" points="585.95,-44.32 585.06,-33.77 579.17,-42.58 585.95,-44.32"/>
</a>
</g>
</g>
<!-- Node10 -->
<g id="Node000010" class="node">
<title>Node10</title>
<g id="a_Node000010"><a xlink:title=" ">
<polygon fill="#e0e0e0" stroke="#999999" points="794.75,-32 670,-32 670,0 794.75,0 794.75,-32"/>
<text xml:space="preserve" text-anchor="start" x="678" y="-18.5" font-family="Helvetica,sans-Serif" font-size="10.00">Abilities/GameplayAbility</text>
<text xml:space="preserve" text-anchor="middle" x="732.38" y="-6.5" font-family="Helvetica,sans-Serif" font-size="10.00">TargetTypes.h</text>
</a>
</g>
</g>
<!-- Node7&#45;&gt;Node10 -->
<g id="edge10_Node000007_Node000010" class="edge">
<title>Node7&#45;&gt;Node10</title>
<g id="a_edge10_Node000007_Node000010"><a xlink:title=" ">
<path fill="none" stroke="#63b8ff" d="M595.3,-73.54C618.46,-63.99 654.95,-48.94 684.46,-36.77"/>
<polygon fill="#63b8ff" stroke="#63b8ff" points="685.67,-40.05 693.57,-33.01 683,-33.58 685.67,-40.05"/>
</a>
</g>
</g>
<!-- Node11 -->
<g id="Node000011" class="node">
<title>Node11</title>
<g id="a_Node000011"><a xlink:title=" ">
<polygon fill="#e0e0e0" stroke="#999999" points="975.88,-26 812.88,-26 812.88,-6 975.88,-6 975.88,-26"/>
<text xml:space="preserve" text-anchor="middle" x="894.38" y="-12.5" font-family="Helvetica,sans-Serif" font-size="10.00">FDirectionTargetData.generated.h</text>
</a>
</g>
</g>
<!-- Node7&#45;&gt;Node11 -->
<g id="edge11_Node000007_Node000011" class="edge">
<title>Node7&#45;&gt;Node11</title>
<g id="a_edge11_Node000007_Node000011"><a xlink:title=" ">
<path fill="none" stroke="#63b8ff" d="M614.79,-73.51C623.26,-71.66 632.09,-69.74 640.38,-68 706.86,-53.99 783.34,-38.76 834.85,-28.62"/>
<polygon fill="#63b8ff" stroke="#63b8ff" points="835.48,-32.06 844.61,-26.7 834.13,-25.2 835.48,-32.06"/>
</a>
</g>
</g>
</g>
</svg>
