<?xml version="1.0" encoding="UTF-8" standalone="no"?>
<!DOCTYPE svg PUBLIC "-//W3C//DTD SVG 1.1//EN"
 "http://www.w3.org/Graphics/SVG/1.1/DTD/svg11.dtd">
<!-- Generated by graphviz version 13.1.1 (20250719.2154)
 -->
<!-- Title: C:/Users/user/Perforce/alz7_CobaltbruWorkspace_00/KPT/Source/KPT/AI/Boss/Abilities/AbilityTasks/AbilityTask_Trace.cpp Pages: 1 -->
<svg width="936pt" height="200pt"
 viewBox="0.00 0.00 936.00 200.00" xmlns="http://www.w3.org/2000/svg" xmlns:xlink="http://www.w3.org/1999/xlink">
<g id="graph0" class="graph" transform="scale(1 1) rotate(0) translate(4 196)">
<title>C:/Users/user/Perforce/alz7_CobaltbruWorkspace_00/KPT/Source/KPT/AI/Boss/Abilities/AbilityTasks/AbilityTask_Trace.cpp</title>
<!-- Node1 -->
<g id="Node000001" class="node">
<title>Node1</title>
<g id="a_Node000001"><a xlink:title=" ">
<polygon fill="#999999" stroke="#666666" points="625.88,-192 465.12,-192 465.12,-124 625.88,-124 625.88,-192"/>
<text xml:space="preserve" text-anchor="start" x="473.12" y="-178.5" font-family="Helvetica,sans-Serif" font-size="10.00">C:/Users/user/Perforce</text>
<text xml:space="preserve" text-anchor="start" x="473.12" y="-166.5" font-family="Helvetica,sans-Serif" font-size="10.00">/alz7_CobaltbruWorkspace</text>
<text xml:space="preserve" text-anchor="start" x="473.12" y="-154.5" font-family="Helvetica,sans-Serif" font-size="10.00">_00/KPT/Source/KPT/AI/Boss</text>
<text xml:space="preserve" text-anchor="start" x="473.12" y="-142.5" font-family="Helvetica,sans-Serif" font-size="10.00">/Abilities/AbilityTasks/AbilityTask</text>
<text xml:space="preserve" text-anchor="middle" x="545.5" y="-130.5" font-family="Helvetica,sans-Serif" font-size="10.00">_Trace.cpp</text>
</a>
</g>
</g>
<!-- Node2 -->
<g id="Node000002" class="node">
<title>Node2</title>
<g id="a_Node000002"><a xlink:href="_ability_task___trace_8h.html" target="_top" xlink:title=" ">
<polygon fill="white" stroke="#666666" points="232.25,-88 100.75,-88 100.75,-56 232.25,-56 232.25,-88"/>
<text xml:space="preserve" text-anchor="start" x="108.75" y="-74.5" font-family="Helvetica,sans-Serif" font-size="10.00">AI/Boss/Abilities/Ability</text>
<text xml:space="preserve" text-anchor="middle" x="166.5" y="-62.5" font-family="Helvetica,sans-Serif" font-size="10.00">Tasks/AbilityTask_Trace.h</text>
</a>
</g>
</g>
<!-- Node1&#45;&gt;Node2 -->
<g id="edge1_Node000001_Node000002" class="edge">
<title>Node1&#45;&gt;Node2</title>
<g id="a_edge1_Node000001_Node000002"><a xlink:title=" ">
<path fill="none" stroke="#63b8ff" d="M464.66,-139.08C399.31,-124.6 307.91,-104.34 243.59,-90.09"/>
<polygon fill="#63b8ff" stroke="#63b8ff" points="244.7,-86.75 234.18,-88 243.19,-93.58 244.7,-86.75"/>
</a>
</g>
</g>
<!-- Node6 -->
<g id="Node000006" class="node">
<title>Node6</title>
<g id="a_Node000006"><a xlink:title=" ">
<polygon fill="#e0e0e0" stroke="#999999" points="385.12,-82 249.88,-82 249.88,-62 385.12,-62 385.12,-82"/>
<text xml:space="preserve" text-anchor="middle" x="317.5" y="-68.5" font-family="Helvetica,sans-Serif" font-size="10.00">AbilitySystemComponent.h</text>
</a>
</g>
</g>
<!-- Node1&#45;&gt;Node6 -->
<g id="edge5_Node000001_Node000006" class="edge">
<title>Node1&#45;&gt;Node6</title>
<g id="a_edge5_Node000001_Node000006"><a xlink:title=" ">
<path fill="none" stroke="#63b8ff" d="M464.79,-127.27C426.97,-113.33 383.78,-97.42 354,-86.45"/>
<polygon fill="#63b8ff" stroke="#63b8ff" points="355.29,-83.19 344.7,-83.02 352.87,-89.76 355.29,-83.19"/>
</a>
</g>
</g>
<!-- Node7 -->
<g id="Node000007" class="node">
<title>Node7</title>
<g id="a_Node000007"><a xlink:title=" ">
<polygon fill="#e0e0e0" stroke="#999999" points="554,-82 403,-82 403,-62 554,-62 554,-82"/>
<text xml:space="preserve" text-anchor="middle" x="478.5" y="-68.5" font-family="Helvetica,sans-Serif" font-size="10.00">Kismet/KismetSystemLibrary.h</text>
</a>
</g>
</g>
<!-- Node1&#45;&gt;Node7 -->
<g id="edge6_Node000001_Node000007" class="edge">
<title>Node1&#45;&gt;Node7</title>
<g id="a_edge6_Node000001_Node000007"><a xlink:title=" ">
<path fill="none" stroke="#63b8ff" d="M519.02,-123.8C510.12,-112.64 500.52,-100.61 492.9,-91.05"/>
<polygon fill="#63b8ff" stroke="#63b8ff" points="495.71,-88.96 486.73,-83.32 490.23,-93.32 495.71,-88.96"/>
</a>
</g>
</g>
<!-- Node8 -->
<g id="Node000008" class="node">
<title>Node8</title>
<g id="a_Node000008"><a xlink:title=" ">
<polygon fill="#e0e0e0" stroke="#999999" points="654.5,-82 572.5,-82 572.5,-62 654.5,-62 654.5,-82"/>
<text xml:space="preserve" text-anchor="middle" x="613.5" y="-68.5" font-family="Helvetica,sans-Serif" font-size="10.00">Engine/World.h</text>
</a>
</g>
</g>
<!-- Node1&#45;&gt;Node8 -->
<g id="edge7_Node000001_Node000008" class="edge">
<title>Node1&#45;&gt;Node8</title>
<g id="a_edge7_Node000001_Node000008"><a xlink:title=" ">
<path fill="none" stroke="#63b8ff" d="M572.38,-123.8C581.41,-112.64 591.15,-100.61 598.88,-91.05"/>
<polygon fill="#63b8ff" stroke="#63b8ff" points="601.58,-93.29 605.15,-83.32 596.14,-88.89 601.58,-93.29"/>
</a>
</g>
</g>
<!-- Node9 -->
<g id="Node000009" class="node">
<title>Node9</title>
<g id="a_Node000009"><a xlink:title=" ">
<polygon fill="#e0e0e0" stroke="#999999" points="758.75,-82 672.25,-82 672.25,-62 758.75,-62 758.75,-82"/>
<text xml:space="preserve" text-anchor="middle" x="715.5" y="-68.5" font-family="Helvetica,sans-Serif" font-size="10.00">TimerManager.h</text>
</a>
</g>
</g>
<!-- Node1&#45;&gt;Node9 -->
<g id="edge8_Node000001_Node000009" class="edge">
<title>Node1&#45;&gt;Node9</title>
<g id="a_edge8_Node000001_Node000009"><a xlink:title=" ">
<path fill="none" stroke="#63b8ff" d="M613.18,-123.56C638.61,-110.99 666.2,-97.36 686.31,-87.42"/>
<polygon fill="#63b8ff" stroke="#63b8ff" points="687.61,-90.69 695.02,-83.12 684.51,-84.41 687.61,-90.69"/>
</a>
</g>
</g>
<!-- Node10 -->
<g id="Node000010" class="node">
<title>Node10</title>
<g id="a_Node000010"><a xlink:title=" ">
<polygon fill="#e0e0e0" stroke="#999999" points="928.38,-82 776.62,-82 776.62,-62 928.38,-62 928.38,-82"/>
<text xml:space="preserve" text-anchor="middle" x="852.5" y="-68.5" font-family="Helvetica,sans-Serif" font-size="10.00">AbilitySystemBlueprintLibrary.h</text>
</a>
</g>
</g>
<!-- Node1&#45;&gt;Node10 -->
<g id="edge9_Node000001_Node000010" class="edge">
<title>Node1&#45;&gt;Node10</title>
<g id="a_edge9_Node000001_Node000010"><a xlink:title=" ">
<path fill="none" stroke="#63b8ff" d="M626.16,-134.93C683.89,-119.13 759.51,-98.44 807.06,-85.43"/>
<polygon fill="#63b8ff" stroke="#63b8ff" points="807.75,-88.87 816.47,-82.86 805.9,-82.12 807.75,-88.87"/>
</a>
</g>
</g>
<!-- Node3 -->
<g id="Node000003" class="node">
<title>Node3</title>
<g id="a_Node000003"><a xlink:title=" ">
<polygon fill="#e0e0e0" stroke="#999999" points="79,-20 0,-20 0,0 79,0 79,-20"/>
<text xml:space="preserve" text-anchor="middle" x="39.5" y="-6.5" font-family="Helvetica,sans-Serif" font-size="10.00">CoreMinimal.h</text>
</a>
</g>
</g>
<!-- Node2&#45;&gt;Node3 -->
<g id="edge2_Node000002_Node000003" class="edge">
<title>Node2&#45;&gt;Node3</title>
<g id="a_edge2_Node000002_Node000003"><a xlink:title=" ">
<path fill="none" stroke="#63b8ff" d="M133.79,-55.55C114.04,-46.22 89.05,-34.41 69.75,-25.29"/>
<polygon fill="#63b8ff" stroke="#63b8ff" points="71.32,-22.16 60.78,-21.05 68.33,-28.49 71.32,-22.16"/>
</a>
</g>
</g>
<!-- Node4 -->
<g id="Node000004" class="node">
<title>Node4</title>
<g id="a_Node000004"><a xlink:title=" ">
<polygon fill="#e0e0e0" stroke="#999999" points="236,-20 97,-20 97,0 236,0 236,-20"/>
<text xml:space="preserve" text-anchor="middle" x="166.5" y="-6.5" font-family="Helvetica,sans-Serif" font-size="10.00">Abilities/Tasks/AbilityTask.h</text>
</a>
</g>
</g>
<!-- Node2&#45;&gt;Node4 -->
<g id="edge3_Node000002_Node000004" class="edge">
<title>Node2&#45;&gt;Node4</title>
<g id="a_edge3_Node000002_Node000004"><a xlink:title=" ">
<path fill="none" stroke="#63b8ff" d="M166.5,-55.55C166.5,-48.34 166.5,-39.66 166.5,-31.88"/>
<polygon fill="#63b8ff" stroke="#63b8ff" points="170,-31.92 166.5,-21.92 163,-31.92 170,-31.92"/>
</a>
</g>
</g>
<!-- Node5 -->
<g id="Node000005" class="node">
<title>Node5</title>
<g id="a_Node000005"><a xlink:title=" ">
<polygon fill="#e0e0e0" stroke="#999999" points="402.5,-20 254.5,-20 254.5,0 402.5,0 402.5,-20"/>
<text xml:space="preserve" text-anchor="middle" x="328.5" y="-6.5" font-family="Helvetica,sans-Serif" font-size="10.00">AbilityTask_Trace.generated.h</text>
</a>
</g>
</g>
<!-- Node2&#45;&gt;Node5 -->
<g id="edge4_Node000002_Node000005" class="edge">
<title>Node2&#45;&gt;Node5</title>
<g id="a_edge4_Node000002_Node000005"><a xlink:title=" ">
<path fill="none" stroke="#63b8ff" d="M208.22,-55.55C234.35,-45.87 267.68,-33.53 292.63,-24.29"/>
<polygon fill="#63b8ff" stroke="#63b8ff" points="293.52,-27.69 301.68,-20.93 291.09,-21.12 293.52,-27.69"/>
</a>
</g>
</g>
</g>
</svg>
