<?xml version="1.0" encoding="UTF-8" standalone="no"?>
<!DOCTYPE svg PUBLIC "-//W3C//DTD SVG 1.1//EN"
 "http://www.w3.org/Graphics/SVG/1.1/DTD/svg11.dtd">
<!-- Generated by graphviz version 13.1.1 (20250719.2154)
 -->
<!-- Title: C:/Users/user/Perforce/alz7_CobaltbruWorkspace_00/KPT/Source/KPT/Skill/Projectile/ActiveProjectile.h Pages: 1 -->
<svg width="614pt" height="244pt"
 viewBox="0.00 0.00 614.00 244.00" xmlns="http://www.w3.org/2000/svg" xmlns:xlink="http://www.w3.org/1999/xlink">
<g id="graph0" class="graph" transform="scale(1 1) rotate(0) translate(4 240)">
<title>C:/Users/user/Perforce/alz7_CobaltbruWorkspace_00/KPT/Source/KPT/Skill/Projectile/ActiveProjectile.h</title>
<!-- Node1 -->
<g id="Node000001" class="node">
<title>Node1</title>
<g id="a_Node000001"><a xlink:title=" ">
<polygon fill="#999999" stroke="#666666" points="209,-236 70,-236 70,-180 209,-180 209,-236"/>
<text xml:space="preserve" text-anchor="start" x="78" y="-222.5" font-family="Helvetica,sans-Serif" font-size="10.00">C:/Users/user/Perforce</text>
<text xml:space="preserve" text-anchor="start" x="78" y="-210.5" font-family="Helvetica,sans-Serif" font-size="10.00">/alz7_CobaltbruWorkspace</text>
<text xml:space="preserve" text-anchor="start" x="78" y="-198.5" font-family="Helvetica,sans-Serif" font-size="10.00">_00/KPT/Source/KPT/Skill</text>
<text xml:space="preserve" text-anchor="middle" x="139.5" y="-186.5" font-family="Helvetica,sans-Serif" font-size="10.00">/Projectile/ActiveProjectile.h</text>
</a>
</g>
</g>
<!-- Node2 -->
<g id="Node000002" class="node">
<title>Node2</title>
<g id="a_Node000002"><a xlink:title=" ">
<polygon fill="#e0e0e0" stroke="#999999" points="79,-20 0,-20 0,0 79,0 79,-20"/>
<text xml:space="preserve" text-anchor="middle" x="39.5" y="-6.5" font-family="Helvetica,sans-Serif" font-size="10.00">CoreMinimal.h</text>
</a>
</g>
</g>
<!-- Node1&#45;&gt;Node2 -->
<g id="edge1_Node000001_Node000002" class="edge">
<title>Node1&#45;&gt;Node2</title>
<g id="a_edge1_Node000001_Node000002"><a xlink:title=" ">
<path fill="none" stroke="#63b8ff" d="M101.24,-179.63C89.57,-169.6 77.68,-157.39 69.5,-144 47.88,-108.6 41.8,-59.34 40.12,-31.79"/>
<polygon fill="#63b8ff" stroke="#63b8ff" points="43.62,-31.81 39.67,-21.98 36.63,-32.13 43.62,-31.81"/>
</a>
</g>
</g>
<!-- Node3 -->
<g id="Node000003" class="node">
<title>Node3</title>
<g id="a_Node000003"><a xlink:href="_projectile_base_8h.html" target="_top" xlink:title=" ">
<polygon fill="white" stroke="#666666" points="200.38,-144 78.62,-144 78.62,-112 200.38,-112 200.38,-144"/>
<text xml:space="preserve" text-anchor="start" x="86.62" y="-130.5" font-family="Helvetica,sans-Serif" font-size="10.00">Skill/Projectile/Projectile</text>
<text xml:space="preserve" text-anchor="middle" x="139.5" y="-118.5" font-family="Helvetica,sans-Serif" font-size="10.00">Base.h</text>
</a>
</g>
</g>
<!-- Node1&#45;&gt;Node3 -->
<g id="edge2_Node000001_Node000003" class="edge">
<title>Node1&#45;&gt;Node3</title>
<g id="a_edge2_Node000001_Node000003"><a xlink:title=" ">
<path fill="none" stroke="#63b8ff" d="M139.5,-179.72C139.5,-171.88 139.5,-163.34 139.5,-155.54"/>
<polygon fill="#63b8ff" stroke="#63b8ff" points="143,-155.62 139.5,-145.62 136,-155.62 143,-155.62"/>
</a>
</g>
</g>
<!-- Node11 -->
<g id="Node000011" class="node">
<title>Node11</title>
<g id="a_Node000011"><a xlink:title=" ">
<polygon fill="#e0e0e0" stroke="#999999" points="356.62,-138 218.38,-138 218.38,-118 356.62,-118 356.62,-138"/>
<text xml:space="preserve" text-anchor="middle" x="287.5" y="-124.5" font-family="Helvetica,sans-Serif" font-size="10.00">ActiveProjectile.generated.h</text>
</a>
</g>
</g>
<!-- Node1&#45;&gt;Node11 -->
<g id="edge12_Node000001_Node000011" class="edge">
<title>Node1&#45;&gt;Node11</title>
<g id="a_edge12_Node000001_Node000011"><a xlink:title=" ">
<path fill="none" stroke="#63b8ff" d="M191.68,-179.5C214.46,-167.49 240.28,-153.89 259.37,-143.82"/>
<polygon fill="#63b8ff" stroke="#63b8ff" points="260.94,-146.96 268.15,-139.2 257.67,-140.76 260.94,-146.96"/>
</a>
</g>
</g>
<!-- Node3&#45;&gt;Node2 -->
<g id="edge3_Node000003_Node000002" class="edge">
<title>Node3&#45;&gt;Node2</title>
<g id="a_edge3_Node000003_Node000002"><a xlink:title=" ">
<path fill="none" stroke="#63b8ff" d="M110.64,-111.65C96.16,-102.79 79.26,-90.52 67.5,-76 56.74,-62.71 49.4,-44.65 44.94,-30.94"/>
<polygon fill="#63b8ff" stroke="#63b8ff" points="48.4,-30.28 42.19,-21.69 41.69,-32.27 48.4,-30.28"/>
</a>
</g>
</g>
<!-- Node4 -->
<g id="Node000004" class="node">
<title>Node4</title>
<g id="a_Node000004"><a xlink:title=" ">
<polygon fill="#e0e0e0" stroke="#999999" points="202.25,-76 76.75,-76 76.75,-56 202.25,-56 202.25,-76"/>
<text xml:space="preserve" text-anchor="middle" x="139.5" y="-62.5" font-family="Helvetica,sans-Serif" font-size="10.00">GameFramework/Actor.h</text>
</a>
</g>
</g>
<!-- Node3&#45;&gt;Node4 -->
<g id="edge4_Node000003_Node000004" class="edge">
<title>Node3&#45;&gt;Node4</title>
<g id="a_edge4_Node000003_Node000004"><a xlink:title=" ">
<path fill="none" stroke="#63b8ff" d="M139.5,-111.55C139.5,-104.34 139.5,-95.66 139.5,-87.88"/>
<polygon fill="#63b8ff" stroke="#63b8ff" points="143,-87.92 139.5,-77.92 136,-87.92 143,-87.92"/>
</a>
</g>
</g>
<!-- Node5 -->
<g id="Node000005" class="node">
<title>Node5</title>
<g id="a_Node000005"><a xlink:href="_skill_data_8h.html" target="_top" xlink:title=" ">
<polygon fill="white" stroke="#666666" points="330.38,-76 220.62,-76 220.62,-56 330.38,-56 330.38,-76"/>
<text xml:space="preserve" text-anchor="middle" x="275.5" y="-62.5" font-family="Helvetica,sans-Serif" font-size="10.00">Skill/Data/SkillData.h</text>
</a>
</g>
</g>
<!-- Node3&#45;&gt;Node5 -->
<g id="edge5_Node000003_Node000005" class="edge">
<title>Node3&#45;&gt;Node5</title>
<g id="a_edge5_Node000003_Node000005"><a xlink:title=" ">
<path fill="none" stroke="#63b8ff" d="M174.52,-111.55C195.87,-102.13 222.94,-90.19 243.68,-81.04"/>
<polygon fill="#63b8ff" stroke="#63b8ff" points="245.05,-84.26 252.79,-77.02 242.23,-77.85 245.05,-84.26"/>
</a>
</g>
</g>
<!-- Node10 -->
<g id="Node000010" class="node">
<title>Node10</title>
<g id="a_Node000010"><a xlink:title=" ">
<polygon fill="#e0e0e0" stroke="#999999" points="481,-76 348,-76 348,-56 481,-56 481,-76"/>
<text xml:space="preserve" text-anchor="middle" x="414.5" y="-62.5" font-family="Helvetica,sans-Serif" font-size="10.00">ProjectileBase.generated.h</text>
</a>
</g>
</g>
<!-- Node3&#45;&gt;Node10 -->
<g id="edge11_Node000003_Node000010" class="edge">
<title>Node3&#45;&gt;Node10</title>
<g id="a_edge11_Node000003_Node000010"><a xlink:title=" ">
<path fill="none" stroke="#63b8ff" d="M200.87,-113.61C248.59,-103.2 314.18,-88.89 360.04,-78.88"/>
<polygon fill="#63b8ff" stroke="#63b8ff" points="360.75,-82.31 369.78,-76.76 359.26,-75.47 360.75,-82.31"/>
</a>
</g>
</g>
<!-- Node5&#45;&gt;Node2 -->
<g id="edge6_Node000005_Node000002" class="edge">
<title>Node5&#45;&gt;Node2</title>
<g id="a_edge6_Node000005_Node000002"><a xlink:title=" ">
<path fill="none" stroke="#63b8ff" d="M234.12,-55.53C194.08,-46.37 133.29,-32.46 90.32,-22.63"/>
<polygon fill="#63b8ff" stroke="#63b8ff" points="91.26,-19.25 80.73,-20.43 89.7,-26.08 91.26,-19.25"/>
</a>
</g>
</g>
<!-- Node6 -->
<g id="Node000006" class="node">
<title>Node6</title>
<g id="a_Node000006"><a xlink:title=" ">
<polygon fill="#e0e0e0" stroke="#999999" points="198.25,-20 96.75,-20 96.75,0 198.25,0 198.25,-20"/>
<text xml:space="preserve" text-anchor="middle" x="147.5" y="-6.5" font-family="Helvetica,sans-Serif" font-size="10.00">Engine/DataTable.h</text>
</a>
</g>
</g>
<!-- Node5&#45;&gt;Node6 -->
<g id="edge7_Node000005_Node000006" class="edge">
<title>Node5&#45;&gt;Node6</title>
<g id="a_edge7_Node000005_Node000006"><a xlink:title=" ">
<path fill="none" stroke="#63b8ff" d="M253.2,-55.59C233.14,-47.13 203.38,-34.58 180.55,-24.94"/>
<polygon fill="#63b8ff" stroke="#63b8ff" points="181.94,-21.73 171.36,-21.07 179.22,-28.18 181.94,-21.73"/>
</a>
</g>
</g>
<!-- Node7 -->
<g id="Node000007" class="node">
<title>Node7</title>
<g id="a_Node000007"><a xlink:title=" ">
<polygon fill="#e0e0e0" stroke="#999999" points="334.5,-20 216.5,-20 216.5,0 334.5,0 334.5,-20"/>
<text xml:space="preserve" text-anchor="middle" x="275.5" y="-6.5" font-family="Helvetica,sans-Serif" font-size="10.00">GameplayAbilitySpec.h</text>
</a>
</g>
</g>
<!-- Node5&#45;&gt;Node7 -->
<g id="edge8_Node000005_Node000007" class="edge">
<title>Node5&#45;&gt;Node7</title>
<g id="a_edge8_Node000005_Node000007"><a xlink:title=" ">
<path fill="none" stroke="#63b8ff" d="M275.5,-55.59C275.5,-49.01 275.5,-39.96 275.5,-31.73"/>
<polygon fill="#63b8ff" stroke="#63b8ff" points="279,-31.81 275.5,-21.81 272,-31.81 279,-31.81"/>
</a>
</g>
</g>
<!-- Node8 -->
<g id="Node000008" class="node">
<title>Node8</title>
<g id="a_Node000008"><a xlink:title=" ">
<polygon fill="#e0e0e0" stroke="#999999" points="478.62,-20 352.38,-20 352.38,0 478.62,0 478.62,-20"/>
<text xml:space="preserve" text-anchor="middle" x="415.5" y="-6.5" font-family="Helvetica,sans-Serif" font-size="10.00">GameplayTagContainer.h</text>
</a>
</g>
</g>
<!-- Node5&#45;&gt;Node8 -->
<g id="edge9_Node000005_Node000008" class="edge">
<title>Node5&#45;&gt;Node8</title>
<g id="a_edge9_Node000005_Node000008"><a xlink:title=" ">
<path fill="none" stroke="#63b8ff" d="M299.89,-55.59C322.13,-47.01 355.27,-34.23 380.37,-24.55"/>
<polygon fill="#63b8ff" stroke="#63b8ff" points="381.44,-27.89 389.51,-21.02 378.92,-21.36 381.44,-27.89"/>
</a>
</g>
</g>
<!-- Node9 -->
<g id="Node000009" class="node">
<title>Node9</title>
<g id="a_Node000009"><a xlink:title=" ">
<polygon fill="#e0e0e0" stroke="#999999" points="606.38,-20 496.62,-20 496.62,0 606.38,0 606.38,-20"/>
<text xml:space="preserve" text-anchor="middle" x="551.5" y="-6.5" font-family="Helvetica,sans-Serif" font-size="10.00">SkillData.generated.h</text>
</a>
</g>
</g>
<!-- Node5&#45;&gt;Node9 -->
<g id="edge10_Node000005_Node000009" class="edge">
<title>Node5&#45;&gt;Node9</title>
<g id="a_edge10_Node000005_Node000009"><a xlink:title=" ">
<path fill="none" stroke="#63b8ff" d="M323.89,-55.53C370.75,-46.36 441.89,-32.45 492.14,-22.61"/>
<polygon fill="#63b8ff" stroke="#63b8ff" points="492.54,-26.1 501.68,-20.75 491.19,-19.23 492.54,-26.1"/>
</a>
</g>
</g>
</g>
</svg>
