<?xml version="1.0" encoding="UTF-8" standalone="no"?>
<!DOCTYPE svg PUBLIC "-//W3C//DTD SVG 1.1//EN"
 "http://www.w3.org/Graphics/SVG/1.1/DTD/svg11.dtd">
<!-- Generated by graphviz version 13.1.1 (20250719.2154)
 -->
<!-- Title: C:/Users/user/Perforce/alz7_CobaltbruWorkspace_00/KPT/Source/KPT/Skill/Ability/ActiveAbilityBase.h Pages: 1 -->
<!--zoomable 248 -->

<svg id="main" version="1.1" xmlns="http://www.w3.org/2000/svg" xmlns:xlink="http://www.w3.org/1999/xlink" xml:space="preserve" onload="init(evt)">

<style type="text/css"><![CDATA[
.node, .edge {opacity: 0.7;}
.node.selected, .edge.selected {opacity: 1;}
.edge:hover path { stroke: red; }
.edge:hover polygon { stroke: red; fill: red; }
]]></style>

<defs>
  <circle id="rim" cx="0" cy="0" r="7"/>
  <circle id="rim2" cx="0" cy="0" r="3.5"/>
  <g id="zoomPlus">
    <use xlink:href="#rim" fill="#404040"><set attributeName="fill" to="#808080" begin="zoomplus.mouseover" end="zoomplus.mouseout"/></use>
    <path d="M-4,0h8M0,-4v8" fill="none" stroke="white" stroke-width="1.5" pointer-events="none"/>
  </g>
  <g id="zoomMin">
    <use xlink:href="#rim" fill="#404040"><set attributeName="fill" to="#808080" begin="zoomminus.mouseover" end="zoomminus.mouseout"/></use>
    <path d="M-4,0h8" fill="none" stroke="white" stroke-width="1.5" pointer-events="none"/>
  </g>
  <g id="arrowUp" transform="translate(30 24)">
    <use xlink:href="#rim"/>
    <path pointer-events="none" fill="none" stroke="white" stroke-width="1.5" d="M0,-3.0v7 M-2.5,-0.5L0,-3.0L2.5,-0.5"/>
  </g>
  <g id="arrowRight" transform="rotate(90) translate(36 -43)">
    <use xlink:href="#rim"/>
    <path pointer-events="none" fill="none" stroke="white" stroke-width="1.5" d="M0,-3.0v7 M-2.5,-0.5L0,-3.0L2.5,-0.5"/>
  </g>
  <g id="arrowDown" transform="rotate(180) translate(-30 -48)">
    <use xlink:href="#rim"/>
    <path pointer-events="none" fill="none" stroke="white" stroke-width="1.5" d="M0,-3.0v7 M-2.5,-0.5L0,-3.0L2.5,-0.5"/>
  </g>
  <g id="arrowLeft" transform="rotate(270) translate(-36 17)">
    <use xlink:href="#rim"/>
    <path pointer-events="none" fill="none" stroke="white" stroke-width="1.5" d="M0,-3.0v7 M-2.5,-0.5L0,-3.0L2.5,-0.5"/>
  </g>
  <g id="resetDef">
    <use xlink:href="#rim2" fill="#404040"><set attributeName="fill" to="#808080" begin="reset.mouseover" end="reset.mouseout"/></use>
  </g>
</defs>
<script type="application/ecmascript">
var viewWidth = 858;
var viewHeight = 248;
var sectionId = 'dynsection-1';
</script>
<script type="application/ecmascript" xlink:href="svg.min.js"/>
<svg id="graph" class="graph">
<g id="viewport">
<title>C:/Users/user/Perforce/alz7_CobaltbruWorkspace_00/KPT/Source/KPT/Skill/Ability/ActiveAbilityBase.h</title>
<!-- Node1 -->
<g id="Node000001" class="node">
<title>Node1</title>
<g id="a_Node000001"><a xlink:title=" ">
<polygon fill="#999999" stroke="#666666" points="506.88,-240 372.38,-240 372.38,-184 506.88,-184 506.88,-240"/>
<text xml:space="preserve" text-anchor="start" x="380.38" y="-226.5" font-family="Helvetica,sans-Serif" font-size="10.00">C:/Users/user/Perforce</text>
<text xml:space="preserve" text-anchor="start" x="380.38" y="-214.5" font-family="Helvetica,sans-Serif" font-size="10.00">/alz7_CobaltbruWorkspace</text>
<text xml:space="preserve" text-anchor="start" x="380.38" y="-202.5" font-family="Helvetica,sans-Serif" font-size="10.00">_00/KPT/Source/KPT/Skill</text>
<text xml:space="preserve" text-anchor="middle" x="439.62" y="-190.5" font-family="Helvetica,sans-Serif" font-size="10.00">/Ability/ActiveAbilityBase.h</text>
</a>
</g>
</g>
<!-- Node2 -->
<g id="Node000002" class="node">
<title>Node2</title>
<g id="a_Node000002"><a xlink:href="_k_p_t_ability_system_component_8cpp.html" target="_top" xlink:title=" ">
<polygon fill="white" stroke="#666666" points="183.25,-148 0,-148 0,-92 183.25,-92 183.25,-148"/>
<text xml:space="preserve" text-anchor="start" x="8" y="-134.5" font-family="Helvetica,sans-Serif" font-size="10.00">C:/Users/user/Perforce</text>
<text xml:space="preserve" text-anchor="start" x="8" y="-122.5" font-family="Helvetica,sans-Serif" font-size="10.00">/alz7_CobaltbruWorkspace</text>
<text xml:space="preserve" text-anchor="start" x="8" y="-110.5" font-family="Helvetica,sans-Serif" font-size="10.00">_00/KPT/Source/KPT/GAS/KPTAbility</text>
<text xml:space="preserve" text-anchor="middle" x="91.62" y="-98.5" font-family="Helvetica,sans-Serif" font-size="10.00">SystemComponent.cpp</text>
</a>
</g>
</g>
<!-- Node1&#45;&gt;Node2 -->
<g id="edge1_Node000001_Node000002" class="edge">
<title>Node1&#45;&gt;Node2</title>
<g id="a_edge1_Node000001_Node000002"><a xlink:title=" ">
<path fill="none" stroke="#63b8ff" d="M360.89,-191.16C312.35,-178.87 248.83,-162.68 192.62,-148 189.64,-147.22 186.61,-146.43 183.54,-145.62"/>
<polygon fill="#63b8ff" stroke="#63b8ff" points="359.93,-194.53 370.48,-193.59 361.65,-187.74 359.93,-194.53"/>
</a>
</g>
</g>
<!-- Node3 -->
<g id="Node000003" class="node">
<title>Node3</title>
<g id="a_Node000003"><a xlink:href="_active_ability_base_8cpp.html" target="_top" xlink:title=" ">
<polygon fill="white" stroke="#666666" points="346.12,-148 201.12,-148 201.12,-92 346.12,-92 346.12,-148"/>
<text xml:space="preserve" text-anchor="start" x="209.12" y="-134.5" font-family="Helvetica,sans-Serif" font-size="10.00">C:/Users/user/Perforce</text>
<text xml:space="preserve" text-anchor="start" x="209.12" y="-122.5" font-family="Helvetica,sans-Serif" font-size="10.00">/alz7_CobaltbruWorkspace</text>
<text xml:space="preserve" text-anchor="start" x="209.12" y="-110.5" font-family="Helvetica,sans-Serif" font-size="10.00">_00/KPT/Source/KPT/Skill</text>
<text xml:space="preserve" text-anchor="middle" x="273.62" y="-98.5" font-family="Helvetica,sans-Serif" font-size="10.00">/Ability/ActiveAbilityBase.cpp</text>
</a>
</g>
</g>
<!-- Node1&#45;&gt;Node3 -->
<g id="edge2_Node000001_Node000003" class="edge">
<title>Node1&#45;&gt;Node3</title>
<g id="a_edge2_Node000001_Node000003"><a xlink:title=" ">
<path fill="none" stroke="#63b8ff" d="M378.85,-178.05C360.93,-168.34 341.52,-157.81 324.31,-148.48"/>
<polygon fill="#63b8ff" stroke="#63b8ff" points="377.13,-181.1 387.59,-182.79 380.46,-174.94 377.13,-181.1"/>
</a>
</g>
</g>
<!-- Node4 -->
<g id="Node000004" class="node">
<title>Node4</title>
<g id="a_Node000004"><a xlink:href="_active_ability___counter_8h.html" target="_top" xlink:title=" ">
<polygon fill="white" stroke="#666666" points="515.5,-148 363.75,-148 363.75,-92 515.5,-92 515.5,-148"/>
<text xml:space="preserve" text-anchor="start" x="371.75" y="-134.5" font-family="Helvetica,sans-Serif" font-size="10.00">C:/Users/user/Perforce</text>
<text xml:space="preserve" text-anchor="start" x="371.75" y="-122.5" font-family="Helvetica,sans-Serif" font-size="10.00">/alz7_CobaltbruWorkspace</text>
<text xml:space="preserve" text-anchor="start" x="371.75" y="-110.5" font-family="Helvetica,sans-Serif" font-size="10.00">_00/KPT/Source/KPT/Skill</text>
<text xml:space="preserve" text-anchor="middle" x="439.62" y="-98.5" font-family="Helvetica,sans-Serif" font-size="10.00">/Ability/ActiveAbility_Counter.h</text>
</a>
</g>
</g>
<!-- Node1&#45;&gt;Node4 -->
<g id="edge3_Node000001_Node000004" class="edge">
<title>Node1&#45;&gt;Node4</title>
<g id="a_edge3_Node000001_Node000004"><a xlink:title=" ">
<path fill="none" stroke="#63b8ff" d="M439.62,-172.09C439.62,-164.08 439.62,-155.81 439.62,-148.32"/>
<polygon fill="#63b8ff" stroke="#63b8ff" points="436.13,-171.99 439.63,-181.99 443.13,-171.99 436.13,-171.99"/>
</a>
</g>
</g>
<!-- Node6 -->
<g id="Node000006" class="node">
<title>Node6</title>
<g id="a_Node000006"><a xlink:href="_active_ability___dash_8h.html" target="_top" xlink:title=" ">
<polygon fill="white" stroke="#666666" points="673.88,-148 533.38,-148 533.38,-92 673.88,-92 673.88,-148"/>
<text xml:space="preserve" text-anchor="start" x="541.38" y="-134.5" font-family="Helvetica,sans-Serif" font-size="10.00">C:/Users/user/Perforce</text>
<text xml:space="preserve" text-anchor="start" x="541.38" y="-122.5" font-family="Helvetica,sans-Serif" font-size="10.00">/alz7_CobaltbruWorkspace</text>
<text xml:space="preserve" text-anchor="start" x="541.38" y="-110.5" font-family="Helvetica,sans-Serif" font-size="10.00">_00/KPT/Source/KPT/Skill</text>
<text xml:space="preserve" text-anchor="middle" x="603.62" y="-98.5" font-family="Helvetica,sans-Serif" font-size="10.00">/Ability/ActiveAbility_Dash.h</text>
</a>
</g>
</g>
<!-- Node1&#45;&gt;Node6 -->
<g id="edge5_Node000001_Node000006" class="edge">
<title>Node1&#45;&gt;Node6</title>
<g id="a_edge5_Node000001_Node000006"><a xlink:title=" ">
<path fill="none" stroke="#63b8ff" d="M499.42,-178.19C517.19,-168.43 536.47,-157.86 553.55,-148.48"/>
<polygon fill="#63b8ff" stroke="#63b8ff" points="498.13,-174.9 491.05,-182.78 501.5,-181.04 498.13,-174.9"/>
</a>
</g>
</g>
<!-- Node8 -->
<g id="Node000008" class="node">
<title>Node8</title>
<g id="a_Node000008"><a xlink:href="_active_ability___slash_8h.html" target="_top" xlink:title=" ">
<polygon fill="white" stroke="#666666" points="839.62,-148 697.62,-148 697.62,-92 839.62,-92 839.62,-148"/>
<text xml:space="preserve" text-anchor="start" x="705.62" y="-134.5" font-family="Helvetica,sans-Serif" font-size="10.00">C:/Users/user/Perforce</text>
<text xml:space="preserve" text-anchor="start" x="705.62" y="-122.5" font-family="Helvetica,sans-Serif" font-size="10.00">/alz7_CobaltbruWorkspace</text>
<text xml:space="preserve" text-anchor="start" x="705.62" y="-110.5" font-family="Helvetica,sans-Serif" font-size="10.00">_00/KPT/Source/KPT/Skill</text>
<text xml:space="preserve" text-anchor="middle" x="768.62" y="-98.5" font-family="Helvetica,sans-Serif" font-size="10.00">/Ability/ActiveAbility_Slash.h</text>
</a>
</g>
</g>
<!-- Node1&#45;&gt;Node8 -->
<g id="edge7_Node000001_Node000008" class="edge">
<title>Node1&#45;&gt;Node8</title>
<g id="a_edge7_Node000001_Node000008"><a xlink:title=" ">
<path fill="none" stroke="#63b8ff" d="M518.06,-191.73C565.8,-179.74 627.92,-163.67 682.62,-148 687.44,-146.62 692.39,-145.17 697.38,-143.67"/>
<polygon fill="#63b8ff" stroke="#63b8ff" points="517.49,-188.27 508.64,-194.09 519.19,-195.06 517.49,-188.27"/>
</a>
</g>
</g>
<!-- Node5 -->
<g id="Node000005" class="node">
<title>Node5</title>
<g id="a_Node000005"><a xlink:href="_active_ability___counter_8cpp.html" target="_top" xlink:title=" ">
<polygon fill="white" stroke="#666666" points="509.75,-56 347.5,-56 347.5,0 509.75,0 509.75,-56"/>
<text xml:space="preserve" text-anchor="start" x="355.5" y="-42.5" font-family="Helvetica,sans-Serif" font-size="10.00">C:/Users/user/Perforce</text>
<text xml:space="preserve" text-anchor="start" x="355.5" y="-30.5" font-family="Helvetica,sans-Serif" font-size="10.00">/alz7_CobaltbruWorkspace</text>
<text xml:space="preserve" text-anchor="start" x="355.5" y="-18.5" font-family="Helvetica,sans-Serif" font-size="10.00">_00/KPT/Source/KPT/Skill</text>
<text xml:space="preserve" text-anchor="middle" x="428.62" y="-6.5" font-family="Helvetica,sans-Serif" font-size="10.00">/Ability/ActiveAbility_Counter.cpp</text>
</a>
</g>
</g>
<!-- Node4&#45;&gt;Node5 -->
<g id="edge4_Node000004_Node000005" class="edge">
<title>Node4&#45;&gt;Node5</title>
<g id="a_edge4_Node000004_Node000005"><a xlink:title=" ">
<path fill="none" stroke="#63b8ff" d="M434.87,-80.09C433.89,-72.08 432.88,-63.81 431.96,-56.32"/>
<polygon fill="#63b8ff" stroke="#63b8ff" points="431.39,-80.5 436.08,-90.01 438.34,-79.65 431.39,-80.5"/>
</a>
</g>
</g>
<!-- Node7 -->
<g id="Node000007" class="node">
<title>Node7</title>
<g id="a_Node000007"><a xlink:href="_active_ability___dash_8cpp.html" target="_top" xlink:title=" ">
<polygon fill="white" stroke="#666666" points="679.12,-56 528.12,-56 528.12,0 679.12,0 679.12,-56"/>
<text xml:space="preserve" text-anchor="start" x="536.12" y="-42.5" font-family="Helvetica,sans-Serif" font-size="10.00">C:/Users/user/Perforce</text>
<text xml:space="preserve" text-anchor="start" x="536.12" y="-30.5" font-family="Helvetica,sans-Serif" font-size="10.00">/alz7_CobaltbruWorkspace</text>
<text xml:space="preserve" text-anchor="start" x="536.12" y="-18.5" font-family="Helvetica,sans-Serif" font-size="10.00">_00/KPT/Source/KPT/Skill</text>
<text xml:space="preserve" text-anchor="middle" x="603.62" y="-6.5" font-family="Helvetica,sans-Serif" font-size="10.00">/Ability/ActiveAbility_Dash.cpp</text>
</a>
</g>
</g>
<!-- Node6&#45;&gt;Node7 -->
<g id="edge6_Node000006_Node000007" class="edge">
<title>Node6&#45;&gt;Node7</title>
<g id="a_edge6_Node000006_Node000007"><a xlink:title=" ">
<path fill="none" stroke="#63b8ff" d="M603.62,-80.09C603.62,-72.08 603.62,-63.81 603.62,-56.32"/>
<polygon fill="#63b8ff" stroke="#63b8ff" points="600.13,-79.99 603.63,-89.99 607.13,-79.99 600.13,-79.99"/>
</a>
</g>
</g>
<!-- Node9 -->
<g id="Node000009" class="node">
<title>Node9</title>
<g id="a_Node000009"><a xlink:href="_active_ability___slash_8cpp.html" target="_top" xlink:title=" ">
<polygon fill="white" stroke="#666666" points="849.88,-56 697.38,-56 697.38,0 849.88,0 849.88,-56"/>
<text xml:space="preserve" text-anchor="start" x="705.38" y="-42.5" font-family="Helvetica,sans-Serif" font-size="10.00">C:/Users/user/Perforce</text>
<text xml:space="preserve" text-anchor="start" x="705.38" y="-30.5" font-family="Helvetica,sans-Serif" font-size="10.00">/alz7_CobaltbruWorkspace</text>
<text xml:space="preserve" text-anchor="start" x="705.38" y="-18.5" font-family="Helvetica,sans-Serif" font-size="10.00">_00/KPT/Source/KPT/Skill</text>
<text xml:space="preserve" text-anchor="middle" x="773.62" y="-6.5" font-family="Helvetica,sans-Serif" font-size="10.00">/Ability/ActiveAbility_Slash.cpp</text>
</a>
</g>
</g>
<!-- Node8&#45;&gt;Node9 -->
<g id="edge8_Node000008_Node000009" class="edge">
<title>Node8&#45;&gt;Node9</title>
<g id="a_edge8_Node000008_Node000009"><a xlink:title=" ">
<path fill="none" stroke="#63b8ff" d="M770.79,-80.09C771.23,-72.08 771.69,-63.81 772.11,-56.32"/>
<polygon fill="#63b8ff" stroke="#63b8ff" points="767.3,-79.82 770.24,-90 774.29,-80.21 767.3,-79.82"/>
</a>
</g>
</g>
</g>
</svg>

<g id="navigator" transform="translate(0 0)" fill="#404254">
  <rect fill="#f2f5e9" fill-opacity="0.5" stroke="#606060" stroke-width=".5" x="0" y="0" width="60" height="60"/>
  <use id="zoomplus" xlink:href="#zoomPlus" x="17" y="9" onmousedown="handleZoom(evt,'in')"/>
  <use id="zoomminus" xlink:href="#zoomMin" x="42" y="9" onmousedown="handleZoom(evt,'out')"/>
  <use id="reset" xlink:href="#resetDef" x="30" y="36" onmousedown="handleReset()"/>
   <use id="arrowup" xlink:href="#arrowUp" x="0" y="0" onmousedown="handlePan(0,-1)"/>
  <use id="arrowright" xlink:href="#arrowRight" x="0" y="0" onmousedown="handlePan(1,0)"/>
  <use id="arrowdown" xlink:href="#arrowDown" x="0" y="0" onmousedown="handlePan(0,1)"/>
  <use id="arrowleft" xlink:href="#arrowLeft" x="0" y="0" onmousedown="handlePan(-1,0)"/>
</g>
<svg viewBox="0 0 15 15" width="100%" height="30px" preserveAspectRatio="xMaxYMin meet">
 <g id="arrow_out" transform="scale(0.3 0.3)">
  <a xlink:href="_active_ability_base_8h__dep__incl_org.svg" target="_base">
   <rect id="button" ry="5" rx="5" y="6" x="6" height="38" width="38"
        fill="#f2f5e9" fill-opacity="0.5" stroke="#606060" stroke-width="1.0"/>
   <path id="arrow"
     d="M 11.500037,31.436501 C 11.940474,20.09759 22.043105,11.32322 32.158766,21.979434 L 37.068811,17.246167 C 37.068811,17.246167 37.088388,32 37.088388,32 L 22.160133,31.978069 C 22.160133,31.978069 26.997745,27.140456 26.997745,27.140456 C 18.528582,18.264221 13.291696,25.230495 11.500037,31.436501 z"
     style="fill:#404040;"/>
  </a>
 </g>
</svg>

<style type='text/css'>
<![CDATA[
[data-mouse-over-selected='false'] { opacity: 0.7; }
[data-mouse-over-selected='true']  { opacity: 1.0; }
]]>
</style>
<script type="application/ecmascript"><![CDATA[
document.addEventListener('DOMContentLoaded', (event) => {
  highlightEdges();
  highlightAdjacentNodes();
});
]]></script>
</svg>
