<?xml version="1.0" encoding="UTF-8" standalone="no"?>
<!DOCTYPE svg PUBLIC "-//W3C//DTD SVG 1.1//EN"
 "http://www.w3.org/Graphics/SVG/1.1/DTD/svg11.dtd">
<!-- Generated by graphviz version 13.1.1 (20250719.2154)
 -->
<!-- Title: C:/Users/user/Perforce/alz7_CobaltbruWorkspace_00/KPT/Source/KPT/Animation/AnimNotifyState_MotionTrail.cpp Pages: 1 -->
<svg width="891pt" height="188pt"
 viewBox="0.00 0.00 891.00 188.00" xmlns="http://www.w3.org/2000/svg" xmlns:xlink="http://www.w3.org/1999/xlink">
<g id="graph0" class="graph" transform="scale(1 1) rotate(0) translate(4 184)">
<title>C:/Users/user/Perforce/alz7_CobaltbruWorkspace_00/KPT/Source/KPT/Animation/AnimNotifyState_MotionTrail.cpp</title>
<!-- Node1 -->
<g id="Node000001" class="node">
<title>Node1</title>
<g id="a_Node000001"><a xlink:title=" ">
<polygon fill="#999999" stroke="#666666" points="601.88,-180 438.88,-180 438.88,-124 601.88,-124 601.88,-180"/>
<text xml:space="preserve" text-anchor="start" x="446.88" y="-166.5" font-family="Helvetica,sans-Serif" font-size="10.00">C:/Users/user/Perforce</text>
<text xml:space="preserve" text-anchor="start" x="446.88" y="-154.5" font-family="Helvetica,sans-Serif" font-size="10.00">/alz7_CobaltbruWorkspace</text>
<text xml:space="preserve" text-anchor="start" x="446.88" y="-142.5" font-family="Helvetica,sans-Serif" font-size="10.00">_00/KPT/Source/KPT/Animation</text>
<text xml:space="preserve" text-anchor="middle" x="520.38" y="-130.5" font-family="Helvetica,sans-Serif" font-size="10.00">/AnimNotifyState_MotionTrail.cpp</text>
</a>
</g>
</g>
<!-- Node2 -->
<g id="Node000002" class="node">
<title>Node2</title>
<g id="a_Node000002"><a xlink:href="_anim_notify_state___motion_trail_8h.html" target="_top" xlink:title=" ">
<polygon fill="white" stroke="#666666" points="376.12,-88 226.62,-88 226.62,-68 376.12,-68 376.12,-88"/>
<text xml:space="preserve" text-anchor="middle" x="301.38" y="-74.5" font-family="Helvetica,sans-Serif" font-size="10.00">AnimNotifyState_MotionTrail.h</text>
</a>
</g>
</g>
<!-- Node1&#45;&gt;Node2 -->
<g id="edge1_Node000001_Node000002" class="edge">
<title>Node1&#45;&gt;Node2</title>
<g id="a_edge1_Node000001_Node000002"><a xlink:title=" ">
<path fill="none" stroke="#63b8ff" d="M438.52,-124.09C405.09,-113.1 368,-100.9 340.82,-91.97"/>
<polygon fill="#63b8ff" stroke="#63b8ff" points="342.22,-88.74 331.63,-88.95 340.03,-95.39 342.22,-88.74"/>
</a>
</g>
</g>
<!-- Node6 -->
<g id="Node000006" class="node">
<title>Node6</title>
<g id="a_Node000006"><a xlink:href="_motion_trail_actor_8h.html" target="_top" xlink:title=" ">
<polygon fill="white" stroke="#666666" points="497.12,-88 401.62,-88 401.62,-68 497.12,-68 497.12,-88"/>
<text xml:space="preserve" text-anchor="middle" x="449.38" y="-74.5" font-family="Helvetica,sans-Serif" font-size="10.00">MotionTrailActor.h</text>
</a>
</g>
</g>
<!-- Node1&#45;&gt;Node6 -->
<g id="edge5_Node000001_Node000006" class="edge">
<title>Node1&#45;&gt;Node6</title>
<g id="a_edge5_Node000001_Node000006"><a xlink:title=" ">
<path fill="none" stroke="#63b8ff" d="M493.53,-123.78C484.54,-114.66 474.75,-104.73 466.68,-96.55"/>
<polygon fill="#63b8ff" stroke="#63b8ff" points="469.29,-94.21 459.78,-89.55 464.31,-99.13 469.29,-94.21"/>
</a>
</g>
</g>
<!-- Node9 -->
<g id="Node000009" class="node">
<title>Node9</title>
<g id="a_Node000009"><a xlink:title=" ">
<polygon fill="#e0e0e0" stroke="#999999" points="668,-88 514.75,-88 514.75,-68 668,-68 668,-88"/>
<text xml:space="preserve" text-anchor="middle" x="591.38" y="-74.5" font-family="Helvetica,sans-Serif" font-size="10.00">Animation/SkeletalMeshActor.h</text>
</a>
</g>
</g>
<!-- Node1&#45;&gt;Node9 -->
<g id="edge9_Node000001_Node000009" class="edge">
<title>Node1&#45;&gt;Node9</title>
<g id="a_edge9_Node000001_Node000009"><a xlink:title=" ">
<path fill="none" stroke="#63b8ff" d="M547.22,-123.78C556.21,-114.66 566,-104.73 574.07,-96.55"/>
<polygon fill="#63b8ff" stroke="#63b8ff" points="576.44,-99.13 580.97,-89.55 571.46,-94.21 576.44,-99.13"/>
</a>
</g>
</g>
<!-- Node10 -->
<g id="Node000010" class="node">
<title>Node10</title>
<g id="a_Node000010"><a xlink:title=" ">
<polygon fill="#e0e0e0" stroke="#999999" points="883.12,-88 685.62,-88 685.62,-68 883.12,-68 883.12,-88"/>
<text xml:space="preserve" text-anchor="middle" x="784.38" y="-74.5" font-family="Helvetica,sans-Serif" font-size="10.00">Components/PoseableMeshComponent.h</text>
</a>
</g>
</g>
<!-- Node1&#45;&gt;Node10 -->
<g id="edge10_Node000001_Node000010" class="edge">
<title>Node1&#45;&gt;Node10</title>
<g id="a_edge10_Node000001_Node000010"><a xlink:title=" ">
<path fill="none" stroke="#63b8ff" d="M602.1,-128.71C646.97,-116.47 700.97,-101.75 738.49,-91.51"/>
<polygon fill="#63b8ff" stroke="#63b8ff" points="739.39,-94.9 748.11,-88.89 737.55,-88.14 739.39,-94.9"/>
</a>
</g>
</g>
<!-- Node3 -->
<g id="Node000003" class="node">
<title>Node3</title>
<g id="a_Node000003"><a xlink:title=" ">
<polygon fill="#e0e0e0" stroke="#999999" points="428.88,-26 349.88,-26 349.88,-6 428.88,-6 428.88,-26"/>
<text xml:space="preserve" text-anchor="middle" x="389.38" y="-12.5" font-family="Helvetica,sans-Serif" font-size="10.00">CoreMinimal.h</text>
</a>
</g>
</g>
<!-- Node2&#45;&gt;Node3 -->
<g id="edge2_Node000002_Node000003" class="edge">
<title>Node2&#45;&gt;Node3</title>
<g id="a_edge2_Node000002_Node000003"><a xlink:title=" ">
<path fill="none" stroke="#63b8ff" d="M315.12,-67.62C328.82,-58.29 350.08,-43.79 366.35,-32.7"/>
<polygon fill="#63b8ff" stroke="#63b8ff" points="368.18,-35.69 374.47,-27.16 364.24,-29.9 368.18,-35.69"/>
</a>
</g>
</g>
<!-- Node4 -->
<g id="Node000004" class="node">
<title>Node4</title>
<g id="a_Node000004"><a xlink:title=" ">
<polygon fill="#e0e0e0" stroke="#999999" points="118.75,-32 0,-32 0,0 118.75,0 118.75,-32"/>
<text xml:space="preserve" text-anchor="start" x="8" y="-18.5" font-family="Helvetica,sans-Serif" font-size="10.00">Animation/AnimNotifies</text>
<text xml:space="preserve" text-anchor="middle" x="59.38" y="-6.5" font-family="Helvetica,sans-Serif" font-size="10.00">/AnimNotifyState.h</text>
</a>
</g>
</g>
<!-- Node2&#45;&gt;Node4 -->
<g id="edge3_Node000002_Node000004" class="edge">
<title>Node2&#45;&gt;Node4</title>
<g id="a_edge3_Node000002_Node000004"><a xlink:title=" ">
<path fill="none" stroke="#63b8ff" d="M263.3,-67.56C227.66,-58.72 173.55,-45.31 130.01,-34.51"/>
<polygon fill="#63b8ff" stroke="#63b8ff" points="130.92,-31.13 120.38,-32.12 129.24,-37.93 130.92,-31.13"/>
</a>
</g>
</g>
<!-- Node5 -->
<g id="Node000005" class="node">
<title>Node5</title>
<g id="a_Node000005"><a xlink:title=" ">
<polygon fill="#e0e0e0" stroke="#999999" points="332,-26 136.75,-26 136.75,-6 332,-6 332,-26"/>
<text xml:space="preserve" text-anchor="middle" x="234.38" y="-12.5" font-family="Helvetica,sans-Serif" font-size="10.00">AnimNotifyState_MotionTrail.generated.h</text>
</a>
</g>
</g>
<!-- Node2&#45;&gt;Node5 -->
<g id="edge4_Node000002_Node000005" class="edge">
<title>Node2&#45;&gt;Node5</title>
<g id="a_edge4_Node000002_Node000005"><a xlink:title=" ">
<path fill="none" stroke="#63b8ff" d="M290.91,-67.62C280.82,-58.59 265.33,-44.72 253.11,-33.78"/>
<polygon fill="#63b8ff" stroke="#63b8ff" points="255.46,-31.19 245.68,-27.12 250.79,-36.4 255.46,-31.19"/>
</a>
</g>
</g>
<!-- Node6&#45;&gt;Node3 -->
<g id="edge6_Node000006_Node000003" class="edge">
<title>Node6&#45;&gt;Node3</title>
<g id="a_edge6_Node000006_Node000003"><a xlink:title=" ">
<path fill="none" stroke="#63b8ff" d="M440,-67.62C431.05,-58.68 417.36,-44.99 406.48,-34.1"/>
<polygon fill="#63b8ff" stroke="#63b8ff" points="409.1,-31.78 399.56,-27.18 404.15,-36.73 409.1,-31.78"/>
</a>
</g>
</g>
<!-- Node7 -->
<g id="Node000007" class="node">
<title>Node7</title>
<g id="a_Node000007"><a xlink:title=" ">
<polygon fill="#e0e0e0" stroke="#999999" points="572.12,-26 446.62,-26 446.62,-6 572.12,-6 572.12,-26"/>
<text xml:space="preserve" text-anchor="middle" x="509.38" y="-12.5" font-family="Helvetica,sans-Serif" font-size="10.00">GameFramework/Actor.h</text>
</a>
</g>
</g>
<!-- Node6&#45;&gt;Node7 -->
<g id="edge7_Node000006_Node000007" class="edge">
<title>Node6&#45;&gt;Node7</title>
<g id="a_edge7_Node000006_Node000007"><a xlink:title=" ">
<path fill="none" stroke="#63b8ff" d="M458.75,-67.62C467.7,-58.68 481.39,-44.99 492.27,-34.1"/>
<polygon fill="#63b8ff" stroke="#63b8ff" points="494.6,-36.73 499.19,-27.18 489.65,-31.78 494.6,-36.73"/>
</a>
</g>
</g>
<!-- Node8 -->
<g id="Node000008" class="node">
<title>Node8</title>
<g id="a_Node000008"><a xlink:title=" ">
<polygon fill="#e0e0e0" stroke="#999999" points="731,-26 589.75,-26 589.75,-6 731,-6 731,-26"/>
<text xml:space="preserve" text-anchor="middle" x="660.38" y="-12.5" font-family="Helvetica,sans-Serif" font-size="10.00">MotionTrailActor.generated.h</text>
</a>
</g>
</g>
<!-- Node6&#45;&gt;Node8 -->
<g id="edge8_Node000006_Node000008" class="edge">
<title>Node6&#45;&gt;Node8</title>
<g id="a_edge8_Node000006_Node000008"><a xlink:title=" ">
<path fill="none" stroke="#63b8ff" d="M482.34,-67.62C518.39,-57.37 576.34,-40.9 616.28,-29.54"/>
<polygon fill="#63b8ff" stroke="#63b8ff" points="617.17,-32.92 625.83,-26.82 615.26,-26.19 617.17,-32.92"/>
</a>
</g>
</g>
</g>
</svg>
