<?xml version="1.0" encoding="UTF-8" standalone="no"?>
<!DOCTYPE svg PUBLIC "-//W3C//DTD SVG 1.1//EN"
 "http://www.w3.org/Graphics/SVG/1.1/DTD/svg11.dtd">
<!-- Generated by graphviz version 13.1.1 (20250719.2154)
 -->
<!-- Title: C:/Users/user/Perforce/alz7_CobaltbruWorkspace_00/KPT/Source/KPT/Skill/Ability/AreaAttack/AreaHazard.cpp Pages: 1 -->
<svg width="1437pt" height="188pt"
 viewBox="0.00 0.00 1437.00 188.00" xmlns="http://www.w3.org/2000/svg" xmlns:xlink="http://www.w3.org/1999/xlink">
<g id="graph0" class="graph" transform="scale(1 1) rotate(0) translate(4 184)">
<title>C:/Users/user/Perforce/alz7_CobaltbruWorkspace_00/KPT/Source/KPT/Skill/Ability/AreaAttack/AreaHazard.cpp</title>
<!-- Node1 -->
<g id="Node000001" class="node">
<title>Node1</title>
<g id="a_Node000001"><a xlink:title=" ">
<polygon fill="#999999" stroke="#666666" points="946.12,-180 774.88,-180 774.88,-124 946.12,-124 946.12,-180"/>
<text xml:space="preserve" text-anchor="start" x="782.88" y="-166.5" font-family="Helvetica,sans-Serif" font-size="10.00">C:/Users/user/Perforce</text>
<text xml:space="preserve" text-anchor="start" x="782.88" y="-154.5" font-family="Helvetica,sans-Serif" font-size="10.00">/alz7_CobaltbruWorkspace</text>
<text xml:space="preserve" text-anchor="start" x="782.88" y="-142.5" font-family="Helvetica,sans-Serif" font-size="10.00">_00/KPT/Source/KPT/Skill</text>
<text xml:space="preserve" text-anchor="middle" x="860.5" y="-130.5" font-family="Helvetica,sans-Serif" font-size="10.00">/Ability/AreaAttack/AreaHazard.cpp</text>
</a>
</g>
</g>
<!-- Node2 -->
<g id="Node000002" class="node">
<title>Node2</title>
<g id="a_Node000002"><a xlink:href="_area_hazard_8h.html" target="_top" xlink:title=" ">
<polygon fill="white" stroke="#666666" points="290.75,-88 174.25,-88 174.25,-56 290.75,-56 290.75,-88"/>
<text xml:space="preserve" text-anchor="start" x="182.25" y="-74.5" font-family="Helvetica,sans-Serif" font-size="10.00">Skill/Ability/AreaAttack</text>
<text xml:space="preserve" text-anchor="middle" x="232.5" y="-62.5" font-family="Helvetica,sans-Serif" font-size="10.00">/AreaHazard.h</text>
</a>
</g>
</g>
<!-- Node1&#45;&gt;Node2 -->
<g id="edge1_Node000001_Node000002" class="edge">
<title>Node1&#45;&gt;Node2</title>
<g id="a_edge1_Node000001_Node000002"><a xlink:title=" ">
<path fill="none" stroke="#63b8ff" d="M774.56,-144.26C666.45,-135.14 474.97,-116.81 301.99,-88.31"/>
<polygon fill="#63b8ff" stroke="#63b8ff" points="302.82,-84.9 292.39,-86.71 301.67,-91.81 302.82,-84.9"/>
</a>
</g>
</g>
<!-- Node7 -->
<g id="Node000007" class="node">
<title>Node7</title>
<g id="a_Node000007"><a xlink:title=" ">
<polygon fill="#e0e0e0" stroke="#999999" points="416.62,-82 308.38,-82 308.38,-62 416.62,-62 416.62,-82"/>
<text xml:space="preserve" text-anchor="middle" x="362.5" y="-68.5" font-family="Helvetica,sans-Serif" font-size="10.00">NiagaraComponent.h</text>
</a>
</g>
</g>
<!-- Node1&#45;&gt;Node7 -->
<g id="edge6_Node000001_Node000007" class="edge">
<title>Node1&#45;&gt;Node7</title>
<g id="a_edge6_Node000001_Node000007"><a xlink:title=" ">
<path fill="none" stroke="#63b8ff" d="M774.69,-140.89C686.68,-129.97 545.99,-111.02 425.5,-88 420.65,-87.07 415.61,-86.02 410.58,-84.92"/>
<polygon fill="#63b8ff" stroke="#63b8ff" points="411.69,-81.58 401.17,-82.78 410.14,-88.41 411.69,-81.58"/>
</a>
</g>
</g>
<!-- Node8 -->
<g id="Node000008" class="node">
<title>Node8</title>
<g id="a_Node000008"><a xlink:title=" ">
<polygon fill="#e0e0e0" stroke="#999999" points="592.75,-82 434.25,-82 434.25,-62 592.75,-62 592.75,-82"/>
<text xml:space="preserve" text-anchor="middle" x="513.5" y="-68.5" font-family="Helvetica,sans-Serif" font-size="10.00">Components/DecalComponent.h</text>
</a>
</g>
</g>
<!-- Node1&#45;&gt;Node8 -->
<g id="edge7_Node000001_Node000008" class="edge">
<title>Node1&#45;&gt;Node8</title>
<g id="a_edge7_Node000001_Node000008"><a xlink:title=" ">
<path fill="none" stroke="#63b8ff" d="M774.72,-131.72C709.57,-117.07 622.02,-97.39 566.67,-84.95"/>
<polygon fill="#63b8ff" stroke="#63b8ff" points="567.71,-81.6 557.18,-82.82 566.17,-88.43 567.71,-81.6"/>
</a>
</g>
</g>
<!-- Node9 -->
<g id="Node000009" class="node">
<title>Node9</title>
<g id="a_Node000009"><a xlink:title=" ">
<polygon fill="#e0e0e0" stroke="#999999" points="774.38,-82 610.62,-82 610.62,-62 774.38,-62 774.38,-82"/>
<text xml:space="preserve" text-anchor="middle" x="692.5" y="-68.5" font-family="Helvetica,sans-Serif" font-size="10.00">Components/SphereComponent.h</text>
</a>
</g>
</g>
<!-- Node1&#45;&gt;Node9 -->
<g id="edge8_Node000001_Node000009" class="edge">
<title>Node1&#45;&gt;Node9</title>
<g id="a_edge8_Node000001_Node000009"><a xlink:title=" ">
<path fill="none" stroke="#63b8ff" d="M801.27,-123.5C774.92,-111.27 745.01,-97.38 723.23,-87.27"/>
<polygon fill="#63b8ff" stroke="#63b8ff" points="724.86,-84.16 714.31,-83.13 721.91,-90.51 724.86,-84.16"/>
</a>
</g>
</g>
<!-- Node10 -->
<g id="Node000010" class="node">
<title>Node10</title>
<g id="a_Node000010"><a xlink:title=" ">
<polygon fill="#e0e0e0" stroke="#999999" points="928.12,-82 792.88,-82 792.88,-62 928.12,-62 928.12,-82"/>
<text xml:space="preserve" text-anchor="middle" x="860.5" y="-68.5" font-family="Helvetica,sans-Serif" font-size="10.00">AbilitySystemComponent.h</text>
</a>
</g>
</g>
<!-- Node1&#45;&gt;Node10 -->
<g id="edge9_Node000001_Node000010" class="edge">
<title>Node1&#45;&gt;Node10</title>
<g id="a_edge9_Node000001_Node000010"><a xlink:title=" ">
<path fill="none" stroke="#63b8ff" d="M860.5,-123.72C860.5,-113.81 860.5,-102.79 860.5,-93.56"/>
<polygon fill="#63b8ff" stroke="#63b8ff" points="864,-93.87 860.5,-83.87 857,-93.87 864,-93.87"/>
</a>
</g>
</g>
<!-- Node11 -->
<g id="Node000011" class="node">
<title>Node11</title>
<g id="a_Node000011"><a xlink:title=" ">
<polygon fill="#e0e0e0" stroke="#999999" points="1098.38,-82 946.62,-82 946.62,-62 1098.38,-62 1098.38,-82"/>
<text xml:space="preserve" text-anchor="middle" x="1022.5" y="-68.5" font-family="Helvetica,sans-Serif" font-size="10.00">AbilitySystemBlueprintLibrary.h</text>
</a>
</g>
</g>
<!-- Node1&#45;&gt;Node11 -->
<g id="edge10_Node000001_Node000011" class="edge">
<title>Node1&#45;&gt;Node11</title>
<g id="a_edge10_Node000001_Node000011"><a xlink:title=" ">
<path fill="none" stroke="#63b8ff" d="M917.62,-123.5C942.9,-111.32 971.6,-97.51 992.58,-87.41"/>
<polygon fill="#63b8ff" stroke="#63b8ff" points="993.93,-90.64 1001.43,-83.15 990.9,-84.33 993.93,-90.64"/>
</a>
</g>
</g>
<!-- Node12 -->
<g id="Node000012" class="node">
<title>Node12</title>
<g id="a_Node000012"><a xlink:title=" ">
<polygon fill="#e0e0e0" stroke="#999999" points="1202.75,-82 1116.25,-82 1116.25,-62 1202.75,-62 1202.75,-82"/>
<text xml:space="preserve" text-anchor="middle" x="1159.5" y="-68.5" font-family="Helvetica,sans-Serif" font-size="10.00">TimerManager.h</text>
</a>
</g>
</g>
<!-- Node1&#45;&gt;Node12 -->
<g id="edge11_Node000001_Node000012" class="edge">
<title>Node1&#45;&gt;Node12</title>
<g id="a_edge11_Node000001_Node000012"><a xlink:title=" ">
<path fill="none" stroke="#63b8ff" d="M946.4,-129.79C993.98,-117.86 1054.12,-102.5 1107.5,-88 1110.42,-87.21 1113.42,-86.38 1116.45,-85.53"/>
<polygon fill="#63b8ff" stroke="#63b8ff" points="1117.24,-88.94 1125.91,-82.85 1115.34,-82.21 1117.24,-88.94"/>
</a>
</g>
</g>
<!-- Node13 -->
<g id="Node000013" class="node">
<title>Node13</title>
<g id="a_Node000013"><a xlink:title=" ">
<polygon fill="#e0e0e0" stroke="#999999" points="1302.5,-82 1220.5,-82 1220.5,-62 1302.5,-62 1302.5,-82"/>
<text xml:space="preserve" text-anchor="middle" x="1261.5" y="-68.5" font-family="Helvetica,sans-Serif" font-size="10.00">Engine/World.h</text>
</a>
</g>
</g>
<!-- Node1&#45;&gt;Node13 -->
<g id="edge12_Node000001_Node000013" class="edge">
<title>Node1&#45;&gt;Node13</title>
<g id="a_edge12_Node000001_Node000013"><a xlink:title=" ">
<path fill="none" stroke="#63b8ff" d="M946.53,-138.36C1017.94,-127.2 1121.93,-109.4 1211.5,-88 1214.64,-87.25 1217.87,-86.42 1221.12,-85.54"/>
<polygon fill="#63b8ff" stroke="#63b8ff" points="1221.92,-88.95 1230.58,-82.86 1220.01,-82.22 1221.92,-88.95"/>
</a>
</g>
</g>
<!-- Node14 -->
<g id="Node000014" class="node">
<title>Node14</title>
<g id="a_Node000014"><a xlink:title=" ">
<polygon fill="#e0e0e0" stroke="#999999" points="1428.62,-82 1320.38,-82 1320.38,-62 1428.62,-62 1428.62,-82"/>
<text xml:space="preserve" text-anchor="middle" x="1374.5" y="-68.5" font-family="Helvetica,sans-Serif" font-size="10.00">Net/UnrealNetwork.h</text>
</a>
</g>
</g>
<!-- Node1&#45;&gt;Node14 -->
<g id="edge13_Node000001_Node000014" class="edge">
<title>Node1&#45;&gt;Node14</title>
<g id="a_edge13_Node000001_Node000014"><a xlink:title=" ">
<path fill="none" stroke="#63b8ff" d="M946.52,-141.45C1037.56,-130.76 1185.25,-111.79 1311.5,-88 1316.35,-87.09 1321.4,-86.04 1326.42,-84.94"/>
<polygon fill="#63b8ff" stroke="#63b8ff" points="1326.86,-88.43 1335.84,-82.81 1325.31,-81.61 1326.86,-88.43"/>
</a>
</g>
</g>
<!-- Node3 -->
<g id="Node000003" class="node">
<title>Node3</title>
<g id="a_Node000003"><a xlink:title=" ">
<polygon fill="#e0e0e0" stroke="#999999" points="79,-20 0,-20 0,0 79,0 79,-20"/>
<text xml:space="preserve" text-anchor="middle" x="39.5" y="-6.5" font-family="Helvetica,sans-Serif" font-size="10.00">CoreMinimal.h</text>
</a>
</g>
</g>
<!-- Node2&#45;&gt;Node3 -->
<g id="edge2_Node000002_Node000003" class="edge">
<title>Node2&#45;&gt;Node3</title>
<g id="a_edge2_Node000002_Node000003"><a xlink:title=" ">
<path fill="none" stroke="#63b8ff" d="M182.8,-55.55C151.21,-45.73 110.78,-33.16 80.93,-23.88"/>
<polygon fill="#63b8ff" stroke="#63b8ff" points="82.08,-20.57 71.49,-20.95 80,-27.26 82.08,-20.57"/>
</a>
</g>
</g>
<!-- Node4 -->
<g id="Node000004" class="node">
<title>Node4</title>
<g id="a_Node000004"><a xlink:title=" ">
<polygon fill="#e0e0e0" stroke="#999999" points="223.62,-20 97.38,-20 97.38,0 223.62,0 223.62,-20"/>
<text xml:space="preserve" text-anchor="middle" x="160.5" y="-6.5" font-family="Helvetica,sans-Serif" font-size="10.00">GameplayTagContainer.h</text>
</a>
</g>
</g>
<!-- Node2&#45;&gt;Node4 -->
<g id="edge3_Node000002_Node000004" class="edge">
<title>Node2&#45;&gt;Node4</title>
<g id="a_edge3_Node000002_Node000004"><a xlink:title=" ">
<path fill="none" stroke="#63b8ff" d="M213.96,-55.55C203.75,-47.04 191.07,-36.48 180.62,-27.77"/>
<polygon fill="#63b8ff" stroke="#63b8ff" points="182.88,-25.09 172.95,-21.38 178.39,-30.47 182.88,-25.09"/>
</a>
</g>
</g>
<!-- Node5 -->
<g id="Node000005" class="node">
<title>Node5</title>
<g id="a_Node000005"><a xlink:title=" ">
<polygon fill="#e0e0e0" stroke="#999999" points="367.25,-20 241.75,-20 241.75,0 367.25,0 367.25,-20"/>
<text xml:space="preserve" text-anchor="middle" x="304.5" y="-6.5" font-family="Helvetica,sans-Serif" font-size="10.00">GameFramework/Actor.h</text>
</a>
</g>
</g>
<!-- Node2&#45;&gt;Node5 -->
<g id="edge4_Node000002_Node000005" class="edge">
<title>Node2&#45;&gt;Node5</title>
<g id="a_edge4_Node000002_Node000005"><a xlink:title=" ">
<path fill="none" stroke="#63b8ff" d="M251.04,-55.55C261.25,-47.04 273.93,-36.48 284.38,-27.77"/>
<polygon fill="#63b8ff" stroke="#63b8ff" points="286.61,-30.47 292.05,-21.38 282.12,-25.09 286.61,-30.47"/>
</a>
</g>
</g>
<!-- Node6 -->
<g id="Node000006" class="node">
<title>Node6</title>
<g id="a_Node000006"><a xlink:title=" ">
<polygon fill="#e0e0e0" stroke="#999999" points="507.38,-20 385.62,-20 385.62,0 507.38,0 507.38,-20"/>
<text xml:space="preserve" text-anchor="middle" x="446.5" y="-6.5" font-family="Helvetica,sans-Serif" font-size="10.00">AreaHazard.generated.h</text>
</a>
</g>
</g>
<!-- Node2&#45;&gt;Node6 -->
<g id="edge5_Node000002_Node000006" class="edge">
<title>Node2&#45;&gt;Node6</title>
<g id="a_edge5_Node000002_Node000006"><a xlink:title=" ">
<path fill="none" stroke="#63b8ff" d="M287.61,-55.55C323.1,-45.6 368.65,-32.83 401.87,-23.51"/>
<polygon fill="#63b8ff" stroke="#63b8ff" points="402.49,-26.97 411.17,-20.9 400.6,-20.23 402.49,-26.97"/>
</a>
</g>
</g>
</g>
</svg>
