<?xml version="1.0" encoding="UTF-8" standalone="no"?>
<!DOCTYPE svg PUBLIC "-//W3C//DTD SVG 1.1//EN"
 "http://www.w3.org/Graphics/SVG/1.1/DTD/svg11.dtd">
<!-- Generated by graphviz version 13.1.1 (20250719.2154)
 -->
<!-- Title: C:/Users/user/Perforce/alz7_CobaltbruWorkspace_00/KPT/Source/KPT/Sound/BGMManager.h Pages: 1 -->
<svg width="650pt" height="176pt"
 viewBox="0.00 0.00 650.00 176.00" xmlns="http://www.w3.org/2000/svg" xmlns:xlink="http://www.w3.org/1999/xlink">
<g id="graph0" class="graph" transform="scale(1 1) rotate(0) translate(4 172)">
<title>C:/Users/user/Perforce/alz7_CobaltbruWorkspace_00/KPT/Source/KPT/Sound/BGMManager.h</title>
<!-- Node1 -->
<g id="Node000001" class="node">
<title>Node1</title>
<g id="a_Node000001"><a xlink:title=" ">
<polygon fill="#999999" stroke="#666666" points="289.12,-168 147.88,-168 147.88,-112 289.12,-112 289.12,-168"/>
<text xml:space="preserve" text-anchor="start" x="155.88" y="-154.5" font-family="Helvetica,sans-Serif" font-size="10.00">C:/Users/user/Perforce</text>
<text xml:space="preserve" text-anchor="start" x="155.88" y="-142.5" font-family="Helvetica,sans-Serif" font-size="10.00">/alz7_CobaltbruWorkspace</text>
<text xml:space="preserve" text-anchor="start" x="155.88" y="-130.5" font-family="Helvetica,sans-Serif" font-size="10.00">_00/KPT/Source/KPT/Sound</text>
<text xml:space="preserve" text-anchor="middle" x="218.5" y="-118.5" font-family="Helvetica,sans-Serif" font-size="10.00">/BGMManager.h</text>
</a>
</g>
</g>
<!-- Node2 -->
<g id="Node000002" class="node">
<title>Node2</title>
<g id="a_Node000002"><a xlink:title=" ">
<polygon fill="#e0e0e0" stroke="#999999" points="79,-20 0,-20 0,0 79,0 79,-20"/>
<text xml:space="preserve" text-anchor="middle" x="39.5" y="-6.5" font-family="Helvetica,sans-Serif" font-size="10.00">CoreMinimal.h</text>
</a>
</g>
</g>
<!-- Node1&#45;&gt;Node2 -->
<g id="edge1_Node000001_Node000002" class="edge">
<title>Node1&#45;&gt;Node2</title>
<g id="a_edge1_Node000001_Node000002"><a xlink:title=" ">
<path fill="none" stroke="#63b8ff" d="M180.1,-111.54C143.92,-85.67 90.99,-47.82 61.47,-26.71"/>
<polygon fill="#63b8ff" stroke="#63b8ff" points="63.82,-24.08 53.64,-21.11 59.74,-29.78 63.82,-24.08"/>
</a>
</g>
</g>
<!-- Node3 -->
<g id="Node000003" class="node">
<title>Node3</title>
<g id="a_Node000003"><a xlink:title=" ">
<polygon fill="#e0e0e0" stroke="#999999" points="198.25,-20 96.75,-20 96.75,0 198.25,0 198.25,-20"/>
<text xml:space="preserve" text-anchor="middle" x="147.5" y="-6.5" font-family="Helvetica,sans-Serif" font-size="10.00">Engine/DataTable.h</text>
</a>
</g>
</g>
<!-- Node1&#45;&gt;Node3 -->
<g id="edge2_Node000001_Node000003" class="edge">
<title>Node1&#45;&gt;Node3</title>
<g id="a_edge2_Node000001_Node000003"><a xlink:title=" ">
<path fill="none" stroke="#63b8ff" d="M177.16,-111.74C165.75,-101.94 154.79,-89.84 148.5,-76 142.2,-62.14 142.26,-44.84 143.73,-31.57"/>
<polygon fill="#63b8ff" stroke="#63b8ff" points="147.17,-32.24 145.18,-21.83 140.25,-31.2 147.17,-32.24"/>
</a>
</g>
</g>
<!-- Node4 -->
<g id="Node000004" class="node">
<title>Node4</title>
<g id="a_Node000004"><a xlink:href="_b_g_m_data_8h.html" target="_top" xlink:title=" ">
<polygon fill="white" stroke="#666666" points="279.75,-76 157.25,-76 157.25,-56 279.75,-56 279.75,-76"/>
<text xml:space="preserve" text-anchor="middle" x="218.5" y="-62.5" font-family="Helvetica,sans-Serif" font-size="10.00">Sound/Data/BGMData.h</text>
</a>
</g>
</g>
<!-- Node1&#45;&gt;Node4 -->
<g id="edge3_Node000001_Node000004" class="edge">
<title>Node1&#45;&gt;Node4</title>
<g id="a_edge3_Node000001_Node000004"><a xlink:title=" ">
<path fill="none" stroke="#63b8ff" d="M218.5,-111.78C218.5,-103.82 218.5,-95.25 218.5,-87.76"/>
<polygon fill="#63b8ff" stroke="#63b8ff" points="222,-87.99 218.5,-77.99 215,-87.99 222,-87.99"/>
</a>
</g>
</g>
<!-- Node7 -->
<g id="Node000007" class="node">
<title>Node7</title>
<g id="a_Node000007"><a xlink:title=" ">
<polygon fill="#e0e0e0" stroke="#999999" points="493.12,-76 297.88,-76 297.88,-56 493.12,-56 493.12,-76"/>
<text xml:space="preserve" text-anchor="middle" x="395.5" y="-62.5" font-family="Helvetica,sans-Serif" font-size="10.00">Subsystems/GameInstanceSubsystem.h</text>
</a>
</g>
</g>
<!-- Node1&#45;&gt;Node7 -->
<g id="edge8_Node000001_Node000007" class="edge">
<title>Node1&#45;&gt;Node7</title>
<g id="a_edge8_Node000001_Node000007"><a xlink:title=" ">
<path fill="none" stroke="#63b8ff" d="M285.92,-111.57C311.88,-101.02 340.4,-89.41 361.84,-80.69"/>
<polygon fill="#63b8ff" stroke="#63b8ff" points="363.01,-84 370.95,-76.99 360.37,-77.51 363.01,-84"/>
</a>
</g>
</g>
<!-- Node8 -->
<g id="Node000008" class="node">
<title>Node8</title>
<g id="a_Node000008"><a xlink:title=" ">
<polygon fill="#e0e0e0" stroke="#999999" points="641.5,-76 511.5,-76 511.5,-56 641.5,-56 641.5,-76"/>
<text xml:space="preserve" text-anchor="middle" x="576.5" y="-62.5" font-family="Helvetica,sans-Serif" font-size="10.00">BGMManager.generated.h</text>
</a>
</g>
</g>
<!-- Node1&#45;&gt;Node8 -->
<g id="edge9_Node000001_Node000008" class="edge">
<title>Node1&#45;&gt;Node8</title>
<g id="a_edge9_Node000001_Node000008"><a xlink:title=" ">
<path fill="none" stroke="#63b8ff" d="M289.23,-124.78C356.18,-111.31 455.5,-91.34 518.07,-78.75"/>
<polygon fill="#63b8ff" stroke="#63b8ff" points="518.72,-82.19 527.83,-76.79 517.34,-75.33 518.72,-82.19"/>
</a>
</g>
</g>
<!-- Node4&#45;&gt;Node2 -->
<g id="edge4_Node000004_Node000002" class="edge">
<title>Node4&#45;&gt;Node2</title>
<g id="a_edge4_Node000004_Node000002"><a xlink:title=" ">
<path fill="none" stroke="#63b8ff" d="M187.32,-55.59C158.11,-46.78 114.22,-33.54 81.85,-23.78"/>
<polygon fill="#63b8ff" stroke="#63b8ff" points="82.96,-20.45 72.37,-20.92 80.93,-27.16 82.96,-20.45"/>
</a>
</g>
</g>
<!-- Node4&#45;&gt;Node3 -->
<g id="edge5_Node000004_Node000003" class="edge">
<title>Node4&#45;&gt;Node3</title>
<g id="a_edge5_Node000004_Node000003"><a xlink:title=" ">
<path fill="none" stroke="#63b8ff" d="M206.13,-55.59C195.85,-47.77 180.98,-36.46 168.79,-27.19"/>
<polygon fill="#63b8ff" stroke="#63b8ff" points="171.01,-24.48 160.93,-21.21 166.77,-30.05 171.01,-24.48"/>
</a>
</g>
</g>
<!-- Node5 -->
<g id="Node000005" class="node">
<title>Node5</title>
<g id="a_Node000005"><a xlink:title=" ">
<polygon fill="#e0e0e0" stroke="#999999" points="321.12,-20 215.88,-20 215.88,0 321.12,0 321.12,-20"/>
<text xml:space="preserve" text-anchor="middle" x="268.5" y="-6.5" font-family="Helvetica,sans-Serif" font-size="10.00">Sound/SoundBase.h</text>
</a>
</g>
</g>
<!-- Node4&#45;&gt;Node5 -->
<g id="edge6_Node000004_Node000005" class="edge">
<title>Node4&#45;&gt;Node5</title>
<g id="a_edge6_Node000004_Node000005"><a xlink:title=" ">
<path fill="none" stroke="#63b8ff" d="M227.21,-55.59C234.09,-48.16 243.89,-37.58 252.22,-28.58"/>
<polygon fill="#63b8ff" stroke="#63b8ff" points="254.64,-31.12 258.86,-21.41 249.5,-26.37 254.64,-31.12"/>
</a>
</g>
</g>
<!-- Node6 -->
<g id="Node000006" class="node">
<title>Node6</title>
<g id="a_Node000006"><a xlink:title=" ">
<polygon fill="#e0e0e0" stroke="#999999" points="452.25,-20 338.75,-20 338.75,0 452.25,0 452.25,-20"/>
<text xml:space="preserve" text-anchor="middle" x="395.5" y="-6.5" font-family="Helvetica,sans-Serif" font-size="10.00">BGMData.generated.h</text>
</a>
</g>
</g>
<!-- Node4&#45;&gt;Node6 -->
<g id="edge7_Node000004_Node000006" class="edge">
<title>Node4&#45;&gt;Node6</title>
<g id="a_edge7_Node000004_Node000006"><a xlink:title=" ">
<path fill="none" stroke="#63b8ff" d="M249.33,-55.59C278.21,-46.78 321.61,-33.54 353.62,-23.78"/>
<polygon fill="#63b8ff" stroke="#63b8ff" points="354.44,-27.19 362.98,-20.92 352.39,-20.49 354.44,-27.19"/>
</a>
</g>
</g>
</g>
</svg>
