<?xml version="1.0" encoding="UTF-8" standalone="no"?>
<!DOCTYPE svg PUBLIC "-//W3C//DTD SVG 1.1//EN"
 "http://www.w3.org/Graphics/SVG/1.1/DTD/svg11.dtd">
<!-- Generated by graphviz version 13.1.1 (20250719.2154)
 -->
<!-- Title: C:/Users/user/Perforce/alz7_CobaltbruWorkspace_00/KPT/Source/KPT/AI/Boss/Tasks/BTTask_AttackTask.cpp Pages: 1 -->
<svg width="424pt" height="188pt"
 viewBox="0.00 0.00 424.00 188.00" xmlns="http://www.w3.org/2000/svg" xmlns:xlink="http://www.w3.org/1999/xlink">

<svg id="main" version="1.1" xmlns="http://www.w3.org/2000/svg" xmlns:xlink="http://www.w3.org/1999/xlink" xml:space="preserve">

<style type="text/css"><![CDATA[
.node, .edge {opacity: 0.7;}
.node.selected, .edge.selected {opacity: 1;}
.edge:hover path { stroke: red; }
.edge:hover polygon { stroke: red; fill: red; }
]]></style>
<script type="application/ecmascript" xlink:href="svg.min.js"/>
<svg id="graph" class="graph">
<g id="graph0" class="graph" transform="scale(1 1) rotate(0) translate(4 184)">
<title>C:/Users/user/Perforce/alz7_CobaltbruWorkspace_00/KPT/Source/KPT/AI/Boss/Tasks/BTTask_AttackTask.cpp</title>
<!-- Node1 -->
<g id="Node000001" class="node">
<title>Node1</title>
<g id="a_Node000001"><a xlink:title=" ">
<polygon fill="#999999" stroke="#666666" points="246.25,-180 90.75,-180 90.75,-124 246.25,-124 246.25,-180"/>
<text xml:space="preserve" text-anchor="start" x="98.75" y="-166.5" font-family="Helvetica,sans-Serif" font-size="10.00">C:/Users/user/Perforce</text>
<text xml:space="preserve" text-anchor="start" x="98.75" y="-154.5" font-family="Helvetica,sans-Serif" font-size="10.00">/alz7_CobaltbruWorkspace</text>
<text xml:space="preserve" text-anchor="start" x="98.75" y="-142.5" font-family="Helvetica,sans-Serif" font-size="10.00">_00/KPT/Source/KPT/AI/Boss</text>
<text xml:space="preserve" text-anchor="middle" x="168.5" y="-130.5" font-family="Helvetica,sans-Serif" font-size="10.00">/Tasks/BTTask_AttackTask.cpp</text>
</a>
</g>
</g>
<!-- Node2 -->
<g id="Node000002" class="node">
<title>Node2</title>
<g id="a_Node000002"><a xlink:href="_b_t_task___attack_task_8h.html" target="_top" xlink:title=" ">
<polygon fill="white" stroke="#666666" points="227.12,-88 109.88,-88 109.88,-56 227.12,-56 227.12,-88"/>
<text xml:space="preserve" text-anchor="start" x="117.88" y="-74.5" font-family="Helvetica,sans-Serif" font-size="10.00">AI/Boss/Tasks/BTTask</text>
<text xml:space="preserve" text-anchor="middle" x="168.5" y="-62.5" font-family="Helvetica,sans-Serif" font-size="10.00">_AttackTask.h</text>
</a>
</g>
</g>
<!-- Node1&#45;&gt;Node2 -->
<g id="edge1_Node000001_Node000002" class="edge">
<title>Node1&#45;&gt;Node2</title>
<g id="a_edge1_Node000001_Node000002"><a xlink:title=" ">
<path fill="none" stroke="#63b8ff" d="M168.5,-123.72C168.5,-115.88 168.5,-107.34 168.5,-99.54"/>
<polygon fill="#63b8ff" stroke="#63b8ff" points="172,-99.62 168.5,-89.62 165,-99.62 172,-99.62"/>
</a>
</g>
</g>
<!-- Node3 -->
<g id="Node000003" class="node">
<title>Node3</title>
<g id="a_Node000003"><a xlink:title=" ">
<polygon fill="#e0e0e0" stroke="#999999" points="79,-20 0,-20 0,0 79,0 79,-20"/>
<text xml:space="preserve" text-anchor="middle" x="39.5" y="-6.5" font-family="Helvetica,sans-Serif" font-size="10.00">CoreMinimal.h</text>
</a>
</g>
</g>
<!-- Node2&#45;&gt;Node3 -->
<g id="edge2_Node000002_Node000003" class="edge">
<title>Node2&#45;&gt;Node3</title>
<g id="a_edge2_Node000002_Node000003"><a xlink:title=" ">
<path fill="none" stroke="#63b8ff" d="M135.28,-55.55C115.12,-46.17 89.59,-34.3 69.96,-25.17"/>
<polygon fill="#63b8ff" stroke="#63b8ff" points="71.64,-22.09 61.1,-21.05 68.69,-28.44 71.64,-22.09"/>
</a>
</g>
</g>
<!-- Node4 -->
<g id="Node000004" class="node">
<title>Node4</title>
<g id="a_Node000004"><a xlink:title=" ">
<polygon fill="#e0e0e0" stroke="#999999" points="239.5,-20 97.5,-20 97.5,0 239.5,0 239.5,-20"/>
<text xml:space="preserve" text-anchor="middle" x="168.5" y="-6.5" font-family="Helvetica,sans-Serif" font-size="10.00">BehaviorTree/BTTaskNode.h</text>
</a>
</g>
</g>
<!-- Node2&#45;&gt;Node4 -->
<g id="edge3_Node000002_Node000004" class="edge">
<title>Node2&#45;&gt;Node4</title>
<g id="a_edge3_Node000002_Node000004"><a xlink:title=" ">
<path fill="none" stroke="#63b8ff" d="M168.5,-55.55C168.5,-48.34 168.5,-39.66 168.5,-31.88"/>
<polygon fill="#63b8ff" stroke="#63b8ff" points="172,-31.92 168.5,-21.92 165,-31.92 172,-31.92"/>
</a>
</g>
</g>
<!-- Node5 -->
<g id="Node000005" class="node">
<title>Node5</title>
<g id="a_Node000005"><a xlink:title=" ">
<polygon fill="#e0e0e0" stroke="#999999" points="415.75,-20 257.25,-20 257.25,0 415.75,0 415.75,-20"/>
<text xml:space="preserve" text-anchor="middle" x="336.5" y="-6.5" font-family="Helvetica,sans-Serif" font-size="10.00">BTTask_AttackTask.generated.h</text>
</a>
</g>
</g>
<!-- Node2&#45;&gt;Node5 -->
<g id="edge4_Node000002_Node000005" class="edge">
<title>Node2&#45;&gt;Node5</title>
<g id="a_edge4_Node000002_Node000005"><a xlink:title=" ">
<path fill="none" stroke="#63b8ff" d="M211.76,-55.55C238.99,-45.83 273.74,-33.41 299.64,-24.16"/>
<polygon fill="#63b8ff" stroke="#63b8ff" points="300.49,-27.58 308.73,-20.92 298.14,-20.98 300.49,-27.58"/>
</a>
</g>
</g>
</g>
</svg>
</svg>

<style type='text/css'>
<![CDATA[
[data-mouse-over-selected='false'] { opacity: 0.7; }
[data-mouse-over-selected='true']  { opacity: 1.0; }
]]>
</style>
<script type="application/ecmascript"><![CDATA[
document.addEventListener('DOMContentLoaded', (event) => {
  highlightEdges();
  highlightAdjacentNodes();
});
]]></script>
</svg>
