<?xml version="1.0" encoding="UTF-8" standalone="no"?>
<!DOCTYPE svg PUBLIC "-//W3C//DTD SVG 1.1//EN"
 "http://www.w3.org/Graphics/SVG/1.1/DTD/svg11.dtd">
<!-- Generated by graphviz version 13.1.1 (20250719.2154)
 -->
<!-- Title: C:/Users/user/Perforce/alz7_CobaltbruWorkspace_00/KPT/Source/KPT/Skill/Ability/LazerAttack/BaseLaserAttackAbility.cpp Pages: 1 -->
<svg width="1420pt" height="200pt"
 viewBox="0.00 0.00 1420.00 200.00" xmlns="http://www.w3.org/2000/svg" xmlns:xlink="http://www.w3.org/1999/xlink">
<g id="graph0" class="graph" transform="scale(1 1) rotate(0) translate(4 196)">
<title>C:/Users/user/Perforce/alz7_CobaltbruWorkspace_00/KPT/Source/KPT/Skill/Ability/LazerAttack/BaseLaserAttackAbility.cpp</title>
<!-- Node1 -->
<g id="Node000001" class="node">
<title>Node1</title>
<g id="a_Node000001"><a xlink:title=" ">
<polygon fill="#999999" stroke="#666666" points="971.5,-192 792,-192 792,-124 971.5,-124 971.5,-192"/>
<text xml:space="preserve" text-anchor="start" x="800" y="-178.5" font-family="Helvetica,sans-Serif" font-size="10.00">C:/Users/user/Perforce</text>
<text xml:space="preserve" text-anchor="start" x="800" y="-166.5" font-family="Helvetica,sans-Serif" font-size="10.00">/alz7_CobaltbruWorkspace</text>
<text xml:space="preserve" text-anchor="start" x="800" y="-154.5" font-family="Helvetica,sans-Serif" font-size="10.00">_00/KPT/Source/KPT/Skill</text>
<text xml:space="preserve" text-anchor="start" x="800" y="-142.5" font-family="Helvetica,sans-Serif" font-size="10.00">/Ability/LazerAttack/BaseLaserAttack</text>
<text xml:space="preserve" text-anchor="middle" x="881.75" y="-130.5" font-family="Helvetica,sans-Serif" font-size="10.00">Ability.cpp</text>
</a>
</g>
</g>
<!-- Node2 -->
<g id="Node000002" class="node">
<title>Node2</title>
<g id="a_Node000002"><a xlink:href="_base_laser_attack_ability_8h.html" target="_top" xlink:title=" ">
<polygon fill="white" stroke="#666666" points="713,-88 584.5,-88 584.5,-56 713,-56 713,-88"/>
<text xml:space="preserve" text-anchor="start" x="592.5" y="-74.5" font-family="Helvetica,sans-Serif" font-size="10.00">Skill/Ability/LazerAttack</text>
<text xml:space="preserve" text-anchor="middle" x="648.75" y="-62.5" font-family="Helvetica,sans-Serif" font-size="10.00">/BaseLaserAttackAbility.h</text>
</a>
</g>
</g>
<!-- Node1&#45;&gt;Node2 -->
<g id="edge1_Node000001_Node000002" class="edge">
<title>Node1&#45;&gt;Node2</title>
<g id="a_edge1_Node000001_Node000002"><a xlink:title=" ">
<path fill="none" stroke="#63b8ff" d="M791.67,-124.52C761.39,-113.61 728.6,-101.79 702.08,-92.22"/>
<polygon fill="#63b8ff" stroke="#63b8ff" points="703.51,-89.02 692.91,-88.92 701.14,-95.61 703.51,-89.02"/>
</a>
</g>
</g>
<!-- Node6 -->
<g id="Node000006" class="node">
<title>Node6</title>
<g id="a_Node000006"><a xlink:href="_laser_beam_8h.html" target="_top" xlink:title=" ">
<polygon fill="white" stroke="#666666" points="404.88,-88 284.62,-88 284.62,-56 404.88,-56 404.88,-88"/>
<text xml:space="preserve" text-anchor="start" x="292.62" y="-74.5" font-family="Helvetica,sans-Serif" font-size="10.00">Skill/Ability/LazerAttack</text>
<text xml:space="preserve" text-anchor="middle" x="344.75" y="-62.5" font-family="Helvetica,sans-Serif" font-size="10.00">/LaserBeam.h</text>
</a>
</g>
</g>
<!-- Node1&#45;&gt;Node6 -->
<g id="edge5_Node000001_Node000006" class="edge">
<title>Node1&#45;&gt;Node6</title>
<g id="a_edge5_Node000001_Node000006"><a xlink:title=" ">
<path fill="none" stroke="#63b8ff" d="M791.8,-143.09C702.28,-129.22 561,-107.27 438.75,-88 431.54,-86.86 424.02,-85.67 416.51,-84.48"/>
<polygon fill="#63b8ff" stroke="#63b8ff" points="417.09,-81.03 406.67,-82.91 415.99,-87.94 417.09,-81.03"/>
</a>
</g>
</g>
<!-- Node10 -->
<g id="Node000010" class="node">
<title>Node10</title>
<g id="a_Node000010"><a xlink:title=" ">
<polygon fill="#e0e0e0" stroke="#999999" points="876.25,-82 731.25,-82 731.25,-62 876.25,-62 876.25,-82"/>
<text xml:space="preserve" text-anchor="middle" x="803.75" y="-68.5" font-family="Helvetica,sans-Serif" font-size="10.00">GameFramework/Character.h</text>
</a>
</g>
</g>
<!-- Node1&#45;&gt;Node10 -->
<g id="edge10_Node000001_Node000010" class="edge">
<title>Node1&#45;&gt;Node10</title>
<g id="a_edge10_Node000001_Node000010"><a xlink:title=" ">
<path fill="none" stroke="#63b8ff" d="M850.92,-123.8C840.34,-112.4 828.91,-100.1 819.96,-90.45"/>
<polygon fill="#63b8ff" stroke="#63b8ff" points="822.64,-88.19 813.27,-83.25 817.51,-92.96 822.64,-88.19"/>
</a>
</g>
</g>
<!-- Node11 -->
<g id="Node000011" class="node">
<title>Node11</title>
<g id="a_Node000011"><a xlink:title=" ">
<polygon fill="#e0e0e0" stroke="#999999" points="1027.25,-82 894.25,-82 894.25,-62 1027.25,-62 1027.25,-82"/>
<text xml:space="preserve" text-anchor="middle" x="960.75" y="-68.5" font-family="Helvetica,sans-Serif" font-size="10.00">Kismet/GameplayStatics.h</text>
</a>
</g>
</g>
<!-- Node1&#45;&gt;Node11 -->
<g id="edge11_Node000001_Node000011" class="edge">
<title>Node1&#45;&gt;Node11</title>
<g id="a_edge11_Node000001_Node000011"><a xlink:title=" ">
<path fill="none" stroke="#63b8ff" d="M912.97,-123.8C923.69,-112.4 935.26,-100.1 944.33,-90.45"/>
<polygon fill="#63b8ff" stroke="#63b8ff" points="946.82,-92.92 951.12,-83.24 941.72,-88.13 946.82,-92.92"/>
</a>
</g>
</g>
<!-- Node12 -->
<g id="Node000012" class="node">
<title>Node12</title>
<g id="a_Node000012"><a xlink:title=" ">
<polygon fill="#e0e0e0" stroke="#999999" points="1132,-82 1045.5,-82 1045.5,-62 1132,-62 1132,-82"/>
<text xml:space="preserve" text-anchor="middle" x="1088.75" y="-68.5" font-family="Helvetica,sans-Serif" font-size="10.00">TimerManager.h</text>
</a>
</g>
</g>
<!-- Node1&#45;&gt;Node12 -->
<g id="edge12_Node000001_Node000012" class="edge">
<title>Node1&#45;&gt;Node12</title>
<g id="a_edge12_Node000001_Node000012"><a xlink:title=" ">
<path fill="none" stroke="#63b8ff" d="M964.16,-123.56C995.83,-110.7 1030.27,-96.73 1054.89,-86.74"/>
<polygon fill="#63b8ff" stroke="#63b8ff" points="1056.11,-90.02 1064.06,-83.02 1053.48,-83.53 1056.11,-90.02"/>
</a>
</g>
</g>
<!-- Node13 -->
<g id="Node000013" class="node">
<title>Node13</title>
<g id="a_Node000013"><a xlink:title=" ">
<polygon fill="#e0e0e0" stroke="#999999" points="1285.38,-82 1150.12,-82 1150.12,-62 1285.38,-62 1285.38,-82"/>
<text xml:space="preserve" text-anchor="middle" x="1217.75" y="-68.5" font-family="Helvetica,sans-Serif" font-size="10.00">AbilitySystemComponent.h</text>
</a>
</g>
</g>
<!-- Node1&#45;&gt;Node13 -->
<g id="edge13_Node000001_Node000013" class="edge">
<title>Node1&#45;&gt;Node13</title>
<g id="a_edge13_Node000001_Node000013"><a xlink:title=" ">
<path fill="none" stroke="#63b8ff" d="M971.79,-134.49C1035.04,-118.68 1117.24,-98.13 1168.76,-85.25"/>
<polygon fill="#63b8ff" stroke="#63b8ff" points="1169.57,-88.65 1178.43,-82.83 1167.88,-81.86 1169.57,-88.65"/>
</a>
</g>
</g>
<!-- Node14 -->
<g id="Node000014" class="node">
<title>Node14</title>
<g id="a_Node000014"><a xlink:title=" ">
<polygon fill="#e0e0e0" stroke="#999999" points="1411.88,-82 1303.62,-82 1303.62,-62 1411.88,-62 1411.88,-82"/>
<text xml:space="preserve" text-anchor="middle" x="1357.75" y="-68.5" font-family="Helvetica,sans-Serif" font-size="10.00">Net/UnrealNetwork.h</text>
</a>
</g>
</g>
<!-- Node1&#45;&gt;Node14 -->
<g id="edge14_Node000001_Node000014" class="edge">
<title>Node1&#45;&gt;Node14</title>
<g id="a_edge14_Node000001_Node000014"><a xlink:title=" ">
<path fill="none" stroke="#63b8ff" d="M971.9,-143.75C1055.79,-130.99 1184.13,-110.38 1294.75,-88 1299.34,-87.07 1304.1,-86.05 1308.86,-84.99"/>
<polygon fill="#63b8ff" stroke="#63b8ff" points="1309.42,-88.45 1318.39,-82.8 1307.86,-81.62 1309.42,-88.45"/>
</a>
</g>
</g>
<!-- Node15 -->
<g id="Node000015" class="node">
<title>Node15</title>
<g id="a_Node000015"><a xlink:href="_square_indicator_actor_8h.html" target="_top" xlink:title=" ">
<polygon fill="white" stroke="#666666" points="566.12,-88 447.38,-88 447.38,-56 566.12,-56 566.12,-88"/>
<text xml:space="preserve" text-anchor="start" x="455.38" y="-74.5" font-family="Helvetica,sans-Serif" font-size="10.00">Skill/Ability/Indicator</text>
<text xml:space="preserve" text-anchor="middle" x="506.75" y="-62.5" font-family="Helvetica,sans-Serif" font-size="10.00">/SquareIndicatorActor.h</text>
</a>
</g>
</g>
<!-- Node1&#45;&gt;Node15 -->
<g id="edge15_Node000001_Node000015" class="edge">
<title>Node1&#45;&gt;Node15</title>
<g id="a_edge15_Node000001_Node000015"><a xlink:title=" ">
<path fill="none" stroke="#63b8ff" d="M791.93,-136.88C726.25,-122.17 638.37,-102.48 577.61,-88.87"/>
<polygon fill="#63b8ff" stroke="#63b8ff" points="578.59,-85.51 568.07,-86.74 577.06,-92.34 578.59,-85.51"/>
</a>
</g>
</g>
<!-- Node3 -->
<g id="Node000003" class="node">
<title>Node3</title>
<g id="a_Node000003"><a xlink:title=" ">
<polygon fill="#e0e0e0" stroke="#999999" points="684.25,-20 605.25,-20 605.25,0 684.25,0 684.25,-20"/>
<text xml:space="preserve" text-anchor="middle" x="644.75" y="-6.5" font-family="Helvetica,sans-Serif" font-size="10.00">CoreMinimal.h</text>
</a>
</g>
</g>
<!-- Node2&#45;&gt;Node3 -->
<g id="edge2_Node000002_Node000003" class="edge">
<title>Node2&#45;&gt;Node3</title>
<g id="a_edge2_Node000002_Node000003"><a xlink:title=" ">
<path fill="none" stroke="#63b8ff" d="M647.72,-55.55C647.24,-48.34 646.66,-39.66 646.14,-31.88"/>
<polygon fill="#63b8ff" stroke="#63b8ff" points="649.64,-31.66 645.48,-21.92 642.65,-32.13 649.64,-31.66"/>
</a>
</g>
</g>
<!-- Node4 -->
<g id="Node000004" class="node">
<title>Node4</title>
<g id="a_Node000004"><a xlink:title=" ">
<polygon fill="#e0e0e0" stroke="#999999" points="1023.88,-20 891.62,-20 891.62,0 1023.88,0 1023.88,-20"/>
<text xml:space="preserve" text-anchor="middle" x="957.75" y="-6.5" font-family="Helvetica,sans-Serif" font-size="10.00">Abilities/GameplayAbility.h</text>
</a>
</g>
</g>
<!-- Node2&#45;&gt;Node4 -->
<g id="edge3_Node000002_Node000004" class="edge">
<title>Node2&#45;&gt;Node4</title>
<g id="a_edge3_Node000002_Node000004"><a xlink:title=" ">
<path fill="none" stroke="#63b8ff" d="M713.32,-57.87C716.51,-57.23 719.66,-56.61 722.75,-56 781.49,-44.42 848.57,-31.62 895.98,-22.64"/>
<polygon fill="#63b8ff" stroke="#63b8ff" points="896.63,-26.08 905.81,-20.78 895.33,-19.2 896.63,-26.08"/>
</a>
</g>
</g>
<!-- Node5 -->
<g id="Node000005" class="node">
<title>Node5</title>
<g id="a_Node000005"><a xlink:title=" ">
<polygon fill="#e0e0e0" stroke="#999999" points="873.38,-20 702.12,-20 702.12,0 873.38,0 873.38,-20"/>
<text xml:space="preserve" text-anchor="middle" x="787.75" y="-6.5" font-family="Helvetica,sans-Serif" font-size="10.00">BaseLaserAttackAbility.generated.h</text>
</a>
</g>
</g>
<!-- Node2&#45;&gt;Node5 -->
<g id="edge4_Node000002_Node000005" class="edge">
<title>Node2&#45;&gt;Node5</title>
<g id="a_edge4_Node000002_Node000005"><a xlink:title=" ">
<path fill="none" stroke="#63b8ff" d="M684.55,-55.55C706.47,-46.09 734.29,-34.08 755.52,-24.91"/>
<polygon fill="#63b8ff" stroke="#63b8ff" points="756.77,-28.18 764.57,-21.01 754,-21.76 756.77,-28.18"/>
</a>
</g>
</g>
<!-- Node6&#45;&gt;Node3 -->
<g id="edge6_Node000006_Node000003" class="edge">
<title>Node6&#45;&gt;Node3</title>
<g id="a_edge6_Node000006_Node000003"><a xlink:title=" ">
<path fill="none" stroke="#63b8ff" d="M405.1,-58.93C460.57,-47.84 541.89,-31.57 594.07,-21.14"/>
<polygon fill="#63b8ff" stroke="#63b8ff" points="594.46,-24.63 603.58,-19.23 593.09,-17.76 594.46,-24.63"/>
</a>
</g>
</g>
<!-- Node7 -->
<g id="Node000007" class="node">
<title>Node7</title>
<g id="a_Node000007"><a xlink:title=" ">
<polygon fill="#e0e0e0" stroke="#999999" points="407.5,-20 282,-20 282,0 407.5,0 407.5,-20"/>
<text xml:space="preserve" text-anchor="middle" x="344.75" y="-6.5" font-family="Helvetica,sans-Serif" font-size="10.00">GameFramework/Actor.h</text>
</a>
</g>
</g>
<!-- Node6&#45;&gt;Node7 -->
<g id="edge7_Node000006_Node000007" class="edge">
<title>Node6&#45;&gt;Node7</title>
<g id="a_edge7_Node000006_Node000007"><a xlink:title=" ">
<path fill="none" stroke="#63b8ff" d="M344.75,-55.55C344.75,-48.34 344.75,-39.66 344.75,-31.88"/>
<polygon fill="#63b8ff" stroke="#63b8ff" points="348.25,-31.92 344.75,-21.92 341.25,-31.92 348.25,-31.92"/>
</a>
</g>
</g>
<!-- Node8 -->
<g id="Node000008" class="node">
<title>Node8</title>
<g id="a_Node000008"><a xlink:title=" ">
<polygon fill="#e0e0e0" stroke="#999999" points="263.88,-20 137.62,-20 137.62,0 263.88,0 263.88,-20"/>
<text xml:space="preserve" text-anchor="middle" x="200.75" y="-6.5" font-family="Helvetica,sans-Serif" font-size="10.00">GameplayTagContainer.h</text>
</a>
</g>
</g>
<!-- Node6&#45;&gt;Node8 -->
<g id="edge8_Node000006_Node000008" class="edge">
<title>Node6&#45;&gt;Node8</title>
<g id="a_edge8_Node000006_Node000008"><a xlink:title=" ">
<path fill="none" stroke="#63b8ff" d="M307.67,-55.55C284.85,-46.04 255.87,-33.97 233.84,-24.79"/>
<polygon fill="#63b8ff" stroke="#63b8ff" points="235.3,-21.61 224.73,-20.99 232.61,-28.07 235.3,-21.61"/>
</a>
</g>
</g>
<!-- Node9 -->
<g id="Node000009" class="node">
<title>Node9</title>
<g id="a_Node000009"><a xlink:title=" ">
<polygon fill="#e0e0e0" stroke="#999999" points="119.5,-20 0,-20 0,0 119.5,0 119.5,-20"/>
<text xml:space="preserve" text-anchor="middle" x="59.75" y="-6.5" font-family="Helvetica,sans-Serif" font-size="10.00">LaserBeam.generated.h</text>
</a>
</g>
</g>
<!-- Node6&#45;&gt;Node9 -->
<g id="edge9_Node000006_Node000009" class="edge">
<title>Node6&#45;&gt;Node9</title>
<g id="a_edge9_Node000006_Node000009"><a xlink:title=" ">
<path fill="none" stroke="#63b8ff" d="M284.31,-58.28C234.54,-47.8 164.52,-33.06 115.95,-22.83"/>
<polygon fill="#63b8ff" stroke="#63b8ff" points="116.69,-19.41 106.18,-20.78 115.25,-26.26 116.69,-19.41"/>
</a>
</g>
</g>
<!-- Node15&#45;&gt;Node3 -->
<g id="edge16_Node000015_Node000003" class="edge">
<title>Node15&#45;&gt;Node3</title>
<g id="a_edge16_Node000015_Node000003"><a xlink:title=" ">
<path fill="none" stroke="#63b8ff" d="M542.29,-55.55C564.05,-46.09 591.67,-34.08 612.75,-24.91"/>
<polygon fill="#63b8ff" stroke="#63b8ff" points="613.95,-28.21 621.72,-21.01 611.16,-21.79 613.95,-28.21"/>
</a>
</g>
</g>
<!-- Node15&#45;&gt;Node7 -->
<g id="edge17_Node000015_Node000007" class="edge">
<title>Node15&#45;&gt;Node7</title>
<g id="a_edge17_Node000015_Node000007"><a xlink:title=" ">
<path fill="none" stroke="#63b8ff" d="M465.03,-55.55C438.9,-45.87 405.57,-33.53 380.62,-24.29"/>
<polygon fill="#63b8ff" stroke="#63b8ff" points="382.16,-21.12 371.57,-20.93 379.73,-27.69 382.16,-21.12"/>
</a>
</g>
</g>
<!-- Node16 -->
<g id="Node000016" class="node">
<title>Node16</title>
<g id="a_Node000016"><a xlink:title=" ">
<polygon fill="#e0e0e0" stroke="#999999" points="587.5,-20 426,-20 426,0 587.5,0 587.5,-20"/>
<text xml:space="preserve" text-anchor="middle" x="506.75" y="-6.5" font-family="Helvetica,sans-Serif" font-size="10.00">SquareIndicatorActor.generated.h</text>
</a>
</g>
</g>
<!-- Node15&#45;&gt;Node16 -->
<g id="edge18_Node000015_Node000016" class="edge">
<title>Node15&#45;&gt;Node16</title>
<g id="a_edge18_Node000015_Node000016"><a xlink:title=" ">
<path fill="none" stroke="#63b8ff" d="M506.75,-55.55C506.75,-48.34 506.75,-39.66 506.75,-31.88"/>
<polygon fill="#63b8ff" stroke="#63b8ff" points="510.25,-31.92 506.75,-21.92 503.25,-31.92 510.25,-31.92"/>
</a>
</g>
</g>
</g>
</svg>
