<?xml version="1.0" encoding="UTF-8" standalone="no"?>
<!DOCTYPE svg PUBLIC "-//W3C//DTD SVG 1.1//EN"
 "http://www.w3.org/Graphics/SVG/1.1/DTD/svg11.dtd">
<!-- Generated by graphviz version 13.1.1 (20250719.2154)
 -->
<!-- Title: C:/Users/user/Perforce/alz7_CobaltbruWorkspace_00/KPT/Source/KPT/Skill/Ability/AreaAttack/BaseSpawnActorAbility.cpp Pages: 1 -->
<svg width="428pt" height="200pt"
 viewBox="0.00 0.00 428.00 200.00" xmlns="http://www.w3.org/2000/svg" xmlns:xlink="http://www.w3.org/1999/xlink">
<g id="graph0" class="graph" transform="scale(1 1) rotate(0) translate(4 196)">
<title>C:/Users/user/Perforce/alz7_CobaltbruWorkspace_00/KPT/Source/KPT/Skill/Ability/AreaAttack/BaseSpawnActorAbility.cpp</title>
<!-- Node1 -->
<g id="Node000001" class="node">
<title>Node1</title>
<g id="a_Node000001"><a xlink:title=" ">
<polygon fill="#999999" stroke="#666666" points="251.75,-192 75.25,-192 75.25,-124 251.75,-124 251.75,-192"/>
<text xml:space="preserve" text-anchor="start" x="83.25" y="-178.5" font-family="Helvetica,sans-Serif" font-size="10.00">C:/Users/user/Perforce</text>
<text xml:space="preserve" text-anchor="start" x="83.25" y="-166.5" font-family="Helvetica,sans-Serif" font-size="10.00">/alz7_CobaltbruWorkspace</text>
<text xml:space="preserve" text-anchor="start" x="83.25" y="-154.5" font-family="Helvetica,sans-Serif" font-size="10.00">_00/KPT/Source/KPT/Skill</text>
<text xml:space="preserve" text-anchor="start" x="83.25" y="-142.5" font-family="Helvetica,sans-Serif" font-size="10.00">/Ability/AreaAttack/BaseSpawnActor</text>
<text xml:space="preserve" text-anchor="middle" x="163.5" y="-130.5" font-family="Helvetica,sans-Serif" font-size="10.00">Ability.cpp</text>
</a>
</g>
</g>
<!-- Node2 -->
<g id="Node000002" class="node">
<title>Node2</title>
<g id="a_Node000002"><a xlink:href="_base_spawn_actor_ability_8h.html" target="_top" xlink:title=" ">
<polygon fill="white" stroke="#666666" points="228.12,-88 98.88,-88 98.88,-56 228.12,-56 228.12,-88"/>
<text xml:space="preserve" text-anchor="start" x="106.88" y="-74.5" font-family="Helvetica,sans-Serif" font-size="10.00">Skill/Ability/AreaAttack</text>
<text xml:space="preserve" text-anchor="middle" x="163.5" y="-62.5" font-family="Helvetica,sans-Serif" font-size="10.00">/BaseSpawnActorAbility.h</text>
</a>
</g>
</g>
<!-- Node1&#45;&gt;Node2 -->
<g id="edge1_Node000001_Node000002" class="edge">
<title>Node1&#45;&gt;Node2</title>
<g id="a_edge1_Node000001_Node000002"><a xlink:title=" ">
<path fill="none" stroke="#63b8ff" d="M163.5,-123.8C163.5,-115.74 163.5,-107.22 163.5,-99.51"/>
<polygon fill="#63b8ff" stroke="#63b8ff" points="167,-99.76 163.5,-89.76 160,-99.76 167,-99.76"/>
</a>
</g>
</g>
<!-- Node3 -->
<g id="Node000003" class="node">
<title>Node3</title>
<g id="a_Node000003"><a xlink:title=" ">
<polygon fill="#e0e0e0" stroke="#999999" points="79,-20 0,-20 0,0 79,0 79,-20"/>
<text xml:space="preserve" text-anchor="middle" x="39.5" y="-6.5" font-family="Helvetica,sans-Serif" font-size="10.00">CoreMinimal.h</text>
</a>
</g>
</g>
<!-- Node2&#45;&gt;Node3 -->
<g id="edge2_Node000002_Node000003" class="edge">
<title>Node2&#45;&gt;Node3</title>
<g id="a_edge2_Node000002_Node000003"><a xlink:title=" ">
<path fill="none" stroke="#63b8ff" d="M131.57,-55.55C112.37,-46.26 88.1,-34.52 69.3,-25.42"/>
<polygon fill="#63b8ff" stroke="#63b8ff" points="70.83,-22.27 60.31,-21.07 67.78,-28.57 70.83,-22.27"/>
</a>
</g>
</g>
<!-- Node4 -->
<g id="Node000004" class="node">
<title>Node4</title>
<g id="a_Node000004"><a xlink:title=" ">
<polygon fill="#e0e0e0" stroke="#999999" points="229.62,-20 97.38,-20 97.38,0 229.62,0 229.62,-20"/>
<text xml:space="preserve" text-anchor="middle" x="163.5" y="-6.5" font-family="Helvetica,sans-Serif" font-size="10.00">Abilities/GameplayAbility.h</text>
</a>
</g>
</g>
<!-- Node2&#45;&gt;Node4 -->
<g id="edge3_Node000002_Node000004" class="edge">
<title>Node2&#45;&gt;Node4</title>
<g id="a_edge3_Node000002_Node000004"><a xlink:title=" ">
<path fill="none" stroke="#63b8ff" d="M163.5,-55.55C163.5,-48.34 163.5,-39.66 163.5,-31.88"/>
<polygon fill="#63b8ff" stroke="#63b8ff" points="167,-31.92 163.5,-21.92 160,-31.92 167,-31.92"/>
</a>
</g>
</g>
<!-- Node5 -->
<g id="Node000005" class="node">
<title>Node5</title>
<g id="a_Node000005"><a xlink:title=" ">
<polygon fill="#e0e0e0" stroke="#999999" points="419.5,-20 247.5,-20 247.5,0 419.5,0 419.5,-20"/>
<text xml:space="preserve" text-anchor="middle" x="333.5" y="-6.5" font-family="Helvetica,sans-Serif" font-size="10.00">BaseSpawnActorAbility.generated.h</text>
</a>
</g>
</g>
<!-- Node2&#45;&gt;Node5 -->
<g id="edge4_Node000002_Node000005" class="edge">
<title>Node2&#45;&gt;Node5</title>
<g id="a_edge4_Node000002_Node000005"><a xlink:title=" ">
<path fill="none" stroke="#63b8ff" d="M207.28,-55.55C234.74,-45.86 269.77,-33.49 295.96,-24.25"/>
<polygon fill="#63b8ff" stroke="#63b8ff" points="296.9,-27.63 305.17,-21 294.57,-21.03 296.9,-27.63"/>
</a>
</g>
</g>
</g>
</svg>
