<?xml version="1.0" encoding="UTF-8" standalone="no"?>
<!DOCTYPE svg PUBLIC "-//W3C//DTD SVG 1.1//EN"
 "http://www.w3.org/Graphics/SVG/1.1/DTD/svg11.dtd">
<!-- Generated by graphviz version 13.1.1 (20250719.2154)
 -->
<!-- Title: C:/Users/user/Perforce/alz7_CobaltbruWorkspace_00/KPT/Source/KPT/AI/Boss/BossAIController.h Pages: 1 -->
<svg width="460pt" height="120pt"
 viewBox="0.00 0.00 460.00 120.00" xmlns="http://www.w3.org/2000/svg" xmlns:xlink="http://www.w3.org/1999/xlink">
<g id="graph0" class="graph" transform="scale(1 1) rotate(0) translate(4 116)">
<title>C:/Users/user/Perforce/alz7_CobaltbruWorkspace_00/KPT/Source/KPT/AI/Boss/BossAIController.h</title>
<!-- Node1 -->
<g id="Node000001" class="node">
<title>Node1</title>
<g id="a_Node000001"><a xlink:title=" ">
<polygon fill="#999999" stroke="#666666" points="261.88,-112 113.12,-112 113.12,-56 261.88,-56 261.88,-112"/>
<text xml:space="preserve" text-anchor="start" x="121.12" y="-98.5" font-family="Helvetica,sans-Serif" font-size="10.00">C:/Users/user/Perforce</text>
<text xml:space="preserve" text-anchor="start" x="121.12" y="-86.5" font-family="Helvetica,sans-Serif" font-size="10.00">/alz7_CobaltbruWorkspace</text>
<text xml:space="preserve" text-anchor="start" x="121.12" y="-74.5" font-family="Helvetica,sans-Serif" font-size="10.00">_00/KPT/Source/KPT/AI/Boss</text>
<text xml:space="preserve" text-anchor="middle" x="187.5" y="-62.5" font-family="Helvetica,sans-Serif" font-size="10.00">/BossAIController.h</text>
</a>
</g>
</g>
<!-- Node2 -->
<g id="Node000002" class="node">
<title>Node2</title>
<g id="a_Node000002"><a xlink:title=" ">
<polygon fill="#e0e0e0" stroke="#999999" points="79,-20 0,-20 0,0 79,0 79,-20"/>
<text xml:space="preserve" text-anchor="middle" x="39.5" y="-6.5" font-family="Helvetica,sans-Serif" font-size="10.00">CoreMinimal.h</text>
</a>
</g>
</g>
<!-- Node1&#45;&gt;Node2 -->
<g id="edge1_Node000001_Node000002" class="edge">
<title>Node1&#45;&gt;Node2</title>
<g id="a_edge1_Node000001_Node000002"><a xlink:title=" ">
<path fill="none" stroke="#63b8ff" d="M131.13,-55.57C110.02,-45.31 86.88,-34.05 69.14,-25.42"/>
<polygon fill="#63b8ff" stroke="#63b8ff" points="70.74,-22.3 60.21,-21.08 67.68,-28.6 70.74,-22.3"/>
</a>
</g>
</g>
<!-- Node3 -->
<g id="Node000003" class="node">
<title>Node3</title>
<g id="a_Node000003"><a xlink:title=" ">
<polygon fill="#e0e0e0" stroke="#999999" points="173.5,-20 97.5,-20 97.5,0 173.5,0 173.5,-20"/>
<text xml:space="preserve" text-anchor="middle" x="135.5" y="-6.5" font-family="Helvetica,sans-Serif" font-size="10.00">AIController.h</text>
</a>
</g>
</g>
<!-- Node1&#45;&gt;Node3 -->
<g id="edge2_Node000001_Node000003" class="edge">
<title>Node1&#45;&gt;Node3</title>
<g id="a_edge2_Node000001_Node000003"><a xlink:title=" ">
<path fill="none" stroke="#63b8ff" d="M167.84,-55.78C161.53,-47.04 154.69,-37.57 148.93,-29.6"/>
<polygon fill="#63b8ff" stroke="#63b8ff" points="151.92,-27.76 143.23,-21.7 146.25,-31.86 151.92,-27.76"/>
</a>
</g>
</g>
<!-- Node4 -->
<g id="Node000004" class="node">
<title>Node4</title>
<g id="a_Node000004"><a xlink:href="_boss_black_board_8h.html" target="_top" xlink:title=" ">
<polygon fill="white" stroke="#666666" points="289,-20 192,-20 192,0 289,0 289,-20"/>
<text xml:space="preserve" text-anchor="middle" x="240.5" y="-6.5" font-family="Helvetica,sans-Serif" font-size="10.00">BossBlackBoard.h</text>
</a>
</g>
</g>
<!-- Node1&#45;&gt;Node4 -->
<g id="edge3_Node000001_Node000004" class="edge">
<title>Node1&#45;&gt;Node4</title>
<g id="a_edge3_Node000001_Node000004"><a xlink:title=" ">
<path fill="none" stroke="#63b8ff" d="M207.54,-55.78C213.97,-47.04 220.94,-37.57 226.81,-29.6"/>
<polygon fill="#63b8ff" stroke="#63b8ff" points="229.52,-31.82 232.63,-21.69 223.88,-27.67 229.52,-31.82"/>
</a>
</g>
</g>
<!-- Node5 -->
<g id="Node000005" class="node">
<title>Node5</title>
<g id="a_Node000005"><a xlink:title=" ">
<polygon fill="#e0e0e0" stroke="#999999" points="451.62,-20 307.38,-20 307.38,0 451.62,0 451.62,-20"/>
<text xml:space="preserve" text-anchor="middle" x="379.5" y="-6.5" font-family="Helvetica,sans-Serif" font-size="10.00">BossAIController.generated.h</text>
</a>
</g>
</g>
<!-- Node1&#45;&gt;Node5 -->
<g id="edge4_Node000001_Node000005" class="edge">
<title>Node1&#45;&gt;Node5</title>
<g id="a_edge4_Node000001_Node000005"><a xlink:title=" ">
<path fill="none" stroke="#63b8ff" d="M260.63,-55.57C289.05,-44.92 320.3,-33.2 343.63,-24.45"/>
<polygon fill="#63b8ff" stroke="#63b8ff" points="344.84,-27.73 352.98,-20.95 342.38,-21.18 344.84,-27.73"/>
</a>
</g>
</g>
</g>
</svg>
