<?xml version="1.0" encoding="UTF-8" standalone="no"?>
<!DOCTYPE svg PUBLIC "-//W3C//DTD SVG 1.1//EN"
 "http://www.w3.org/Graphics/SVG/1.1/DTD/svg11.dtd">
<!-- Generated by graphviz version 13.1.1 (20250719.2154)
 -->
<!-- Title: C:/Users/user/Perforce/alz7_CobaltbruWorkspace_00/KPT/Source/KPT/AI/Boss/BossMonsterBase.cpp Pages: 1 -->
<svg width="3716pt" height="256pt"
 viewBox="0.00 0.00 3716.00 256.00" xmlns="http://www.w3.org/2000/svg" xmlns:xlink="http://www.w3.org/1999/xlink">
<g id="graph0" class="graph" transform="scale(1 1) rotate(0) translate(4 252)">
<title>C:/Users/user/Perforce/alz7_CobaltbruWorkspace_00/KPT/Source/KPT/AI/Boss/BossMonsterBase.cpp</title>
<!-- Node1 -->
<g id="Node000001" class="node">
<title>Node1</title>
<g id="a_Node000001"><a xlink:title=" ">
<polygon fill="#999999" stroke="#666666" points="2486.25,-248 2337.5,-248 2337.5,-192 2486.25,-192 2486.25,-248"/>
<text xml:space="preserve" text-anchor="start" x="2345.5" y="-234.5" font-family="Helvetica,sans-Serif" font-size="10.00">C:/Users/user/Perforce</text>
<text xml:space="preserve" text-anchor="start" x="2345.5" y="-222.5" font-family="Helvetica,sans-Serif" font-size="10.00">/alz7_CobaltbruWorkspace</text>
<text xml:space="preserve" text-anchor="start" x="2345.5" y="-210.5" font-family="Helvetica,sans-Serif" font-size="10.00">_00/KPT/Source/KPT/AI/Boss</text>
<text xml:space="preserve" text-anchor="middle" x="2411.88" y="-198.5" font-family="Helvetica,sans-Serif" font-size="10.00">/BossMonsterBase.cpp</text>
</a>
</g>
</g>
<!-- Node2 -->
<g id="Node000002" class="node">
<title>Node2</title>
<g id="a_Node000002"><a xlink:href="_boss_monster_base_8h.html" target="_top" xlink:title=" ">
<polygon fill="white" stroke="#666666" points="2798.12,-150 2693.62,-150 2693.62,-130 2798.12,-130 2798.12,-150"/>
<text xml:space="preserve" text-anchor="middle" x="2745.88" y="-136.5" font-family="Helvetica,sans-Serif" font-size="10.00">BossMonsterBase.h</text>
</a>
</g>
</g>
<!-- Node1&#45;&gt;Node2 -->
<g id="edge1_Node000001_Node000002" class="edge">
<title>Node1&#45;&gt;Node2</title>
<g id="a_edge1_Node000001_Node000002"><a xlink:title=" ">
<path fill="none" stroke="#63b8ff" d="M2486.42,-201.59C2549.73,-186.81 2638.93,-165.97 2694.53,-152.99"/>
<polygon fill="#63b8ff" stroke="#63b8ff" points="2695.11,-156.45 2704.05,-150.77 2693.52,-149.63 2695.11,-156.45"/>
</a>
</g>
</g>
<!-- Node13 -->
<g id="Node000013" class="node">
<title>Node13</title>
<g id="a_Node000013"><a xlink:href="_k_p_t_ability_system_component_8h.html" target="_top" xlink:title=" ">
<polygon fill="white" stroke="#666666" points="415.88,-82 237.88,-82 237.88,-62 415.88,-62 415.88,-82"/>
<text xml:space="preserve" text-anchor="middle" x="326.88" y="-68.5" font-family="Helvetica,sans-Serif" font-size="10.00">GAS/KPTAbilitySystemComponent.h</text>
</a>
</g>
</g>
<!-- Node1&#45;&gt;Node13 -->
<g id="edge15_Node000001_Node000013" class="edge">
<title>Node1&#45;&gt;Node13</title>
<g id="a_edge15_Node000001_Node000013"><a xlink:title=" ">
<path fill="none" stroke="#63b8ff" d="M2337.34,-219.16C2111.62,-218.96 1415.91,-213.38 842.88,-156 675.43,-139.23 479.78,-103.2 384.68,-84.61"/>
<polygon fill="#63b8ff" stroke="#63b8ff" points="385.56,-81.22 375.07,-82.73 384.21,-88.09 385.56,-81.22"/>
</a>
</g>
</g>
<!-- Node16 -->
<g id="Node000016" class="node">
<title>Node16</title>
<g id="a_Node000016"><a xlink:href="_u_i_manager_subsystem_8h.html" target="_top" xlink:title=" ">
<polygon fill="white" stroke="#666666" points="1284,-150 1121.75,-150 1121.75,-130 1284,-130 1284,-150"/>
<text xml:space="preserve" text-anchor="middle" x="1202.88" y="-136.5" font-family="Helvetica,sans-Serif" font-size="10.00">Manager/UIManagerSubsystem.h</text>
</a>
</g>
</g>
<!-- Node1&#45;&gt;Node16 -->
<g id="edge19_Node000001_Node000016" class="edge">
<title>Node1&#45;&gt;Node16</title>
<g id="a_edge19_Node000001_Node000016"><a xlink:title=" ">
<path fill="none" stroke="#63b8ff" d="M2337.16,-214.18C2126.3,-200.58 1526.91,-161.91 1295.56,-146.98"/>
<polygon fill="#63b8ff" stroke="#63b8ff" points="1295.88,-143.49 1285.67,-146.34 1295.43,-150.48 1295.88,-143.49"/>
</a>
</g>
</g>
<!-- Node32 -->
<g id="Node000032" class="node">
<title>Node32</title>
<g id="a_Node000032"><a xlink:title=" ">
<polygon fill="#e0e0e0" stroke="#999999" points="2999.12,-156 2816.62,-156 2816.62,-124 2999.12,-124 2999.12,-156"/>
<text xml:space="preserve" text-anchor="start" x="2824.62" y="-142.5" font-family="Helvetica,sans-Serif" font-size="10.00">GameFramework/CharacterMovement</text>
<text xml:space="preserve" text-anchor="middle" x="2907.88" y="-130.5" font-family="Helvetica,sans-Serif" font-size="10.00">Component.h</text>
</a>
</g>
</g>
<!-- Node1&#45;&gt;Node32 -->
<g id="edge38_Node000001_Node000032" class="edge">
<title>Node1&#45;&gt;Node32</title>
<g id="a_edge38_Node000001_Node000032"><a xlink:title=" ">
<path fill="none" stroke="#63b8ff" d="M2486.67,-207.24C2571.45,-193.91 2710.16,-172.09 2805.08,-157.17"/>
<polygon fill="#63b8ff" stroke="#63b8ff" points="2805.6,-160.63 2814.93,-155.62 2804.51,-153.71 2805.6,-160.63"/>
</a>
</g>
</g>
<!-- Node33 -->
<g id="Node000033" class="node">
<title>Node33</title>
<g id="a_Node000033"><a xlink:title=" ">
<polygon fill="#e0e0e0" stroke="#999999" points="3186.38,-150 3017.38,-150 3017.38,-130 3186.38,-130 3186.38,-150"/>
<text xml:space="preserve" text-anchor="middle" x="3101.88" y="-136.5" font-family="Helvetica,sans-Serif" font-size="10.00">Components/CapsuleComponent.h</text>
</a>
</g>
</g>
<!-- Node1&#45;&gt;Node33 -->
<g id="edge39_Node000001_Node000033" class="edge">
<title>Node1&#45;&gt;Node33</title>
<g id="a_edge39_Node000001_Node000033"><a xlink:title=" ">
<path fill="none" stroke="#63b8ff" d="M2486.36,-212.4C2599.33,-202.11 2820.66,-180.81 3007.88,-156 3016.51,-154.85 3025.58,-153.55 3034.54,-152.19"/>
<polygon fill="#63b8ff" stroke="#63b8ff" points="3034.93,-155.67 3044.28,-150.68 3033.87,-148.75 3034.93,-155.67"/>
</a>
</g>
</g>
<!-- Node34 -->
<g id="Node000034" class="node">
<title>Node34</title>
<g id="a_Node000034"><a xlink:title=" ">
<polygon fill="#e0e0e0" stroke="#999999" points="3280.88,-150 3204.88,-150 3204.88,-130 3280.88,-130 3280.88,-150"/>
<text xml:space="preserve" text-anchor="middle" x="3242.88" y="-136.5" font-family="Helvetica,sans-Serif" font-size="10.00">AIController.h</text>
</a>
</g>
</g>
<!-- Node1&#45;&gt;Node34 -->
<g id="edge40_Node000001_Node000034" class="edge">
<title>Node1&#45;&gt;Node34</title>
<g id="a_edge40_Node000001_Node000034"><a xlink:title=" ">
<path fill="none" stroke="#63b8ff" d="M2486.69,-218.65C2627.07,-216.75 2938.98,-206.62 3195.88,-156 3199.21,-155.34 3202.65,-154.53 3206.07,-153.62"/>
<polygon fill="#63b8ff" stroke="#63b8ff" points="3206.73,-157.07 3215.35,-150.91 3204.77,-150.35 3206.73,-157.07"/>
</a>
</g>
</g>
<!-- Node35 -->
<g id="Node000035" class="node">
<title>Node35</title>
<g id="a_Node000035"><a xlink:title=" ">
<polygon fill="#e0e0e0" stroke="#999999" points="3396.38,-150 3299.38,-150 3299.38,-130 3396.38,-130 3396.38,-150"/>
<text xml:space="preserve" text-anchor="middle" x="3347.88" y="-136.5" font-family="Helvetica,sans-Serif" font-size="10.00">BrainComponent.h</text>
</a>
</g>
</g>
<!-- Node1&#45;&gt;Node35 -->
<g id="edge41_Node000001_Node000035" class="edge">
<title>Node1&#45;&gt;Node35</title>
<g id="a_edge41_Node000001_Node000035"><a xlink:title=" ">
<path fill="none" stroke="#63b8ff" d="M2486.7,-218.19C2638.93,-215.55 2995.22,-204.26 3289.88,-156 3294.61,-155.22 3299.52,-154.24 3304.39,-153.15"/>
<polygon fill="#63b8ff" stroke="#63b8ff" points="3305.2,-156.56 3314.11,-150.81 3303.57,-149.75 3305.2,-156.56"/>
</a>
</g>
</g>
<!-- Node36 -->
<g id="Node000036" class="node">
<title>Node36</title>
<g id="a_Node000036"><a xlink:href="_k_p_t_in_game_mode_8h.html" target="_top" xlink:title=" ">
<polygon fill="white" stroke="#666666" points="2161,-150 2034.75,-150 2034.75,-130 2161,-130 2161,-150"/>
<text xml:space="preserve" text-anchor="middle" x="2097.88" y="-136.5" font-family="Helvetica,sans-Serif" font-size="10.00">Core/KPTInGameMode.h</text>
</a>
</g>
</g>
<!-- Node1&#45;&gt;Node36 -->
<g id="edge42_Node000001_Node000036" class="edge">
<title>Node1&#45;&gt;Node36</title>
<g id="a_edge42_Node000001_Node000036"><a xlink:title=" ">
<path fill="none" stroke="#63b8ff" d="M2337.06,-200.42C2278.21,-185.8 2197.89,-165.84 2146.95,-153.19"/>
<polygon fill="#63b8ff" stroke="#63b8ff" points="2147.94,-149.83 2137.39,-150.81 2146.25,-156.62 2147.94,-149.83"/>
</a>
</g>
</g>
<!-- Node39 -->
<g id="Node000039" class="node">
<title>Node39</title>
<g id="a_Node000039"><a xlink:href="_pool_sub_system_8h.html" target="_top" xlink:title=" ">
<polygon fill="white" stroke="#666666" points="2498.25,-150 2325.5,-150 2325.5,-130 2498.25,-130 2498.25,-150"/>
<text xml:space="preserve" text-anchor="middle" x="2411.88" y="-136.5" font-family="Helvetica,sans-Serif" font-size="10.00">Core/SubSystem/PoolSubSystem.h</text>
</a>
</g>
</g>
<!-- Node1&#45;&gt;Node39 -->
<g id="edge46_Node000001_Node000039" class="edge">
<title>Node1&#45;&gt;Node39</title>
<g id="a_edge46_Node000001_Node000039"><a xlink:title=" ">
<path fill="none" stroke="#63b8ff" d="M2411.88,-191.72C2411.88,-181.81 2411.88,-170.79 2411.88,-161.56"/>
<polygon fill="#63b8ff" stroke="#63b8ff" points="2415.38,-161.87 2411.88,-151.87 2408.38,-161.87 2415.38,-161.87"/>
</a>
</g>
</g>
<!-- Node42 -->
<g id="Node000042" class="node">
<title>Node42</title>
<g id="a_Node000042"><a xlink:href="_k_p_t_base_attribute_set_8h.html" target="_top" xlink:title=" ">
<polygon fill="white" stroke="#666666" points="606.88,-82 464.88,-82 464.88,-62 606.88,-62 606.88,-82"/>
<text xml:space="preserve" text-anchor="middle" x="535.88" y="-68.5" font-family="Helvetica,sans-Serif" font-size="10.00">GAS/KPTBaseAttributeSet.h</text>
</a>
</g>
</g>
<!-- Node1&#45;&gt;Node42 -->
<g id="edge50_Node000001_Node000042" class="edge">
<title>Node1&#45;&gt;Node42</title>
<g id="a_edge50_Node000001_Node000042"><a xlink:title=" ">
<path fill="none" stroke="#63b8ff" d="M2337.03,-217.66C2137.63,-213.6 1577.14,-198.94 1112.88,-156 890.88,-135.47 835.95,-123.67 615.88,-88 609.18,-86.92 602.19,-85.71 595.24,-84.47"/>
<polygon fill="#63b8ff" stroke="#63b8ff" points="595.99,-81.05 585.52,-82.7 594.73,-87.93 595.99,-81.05"/>
</a>
</g>
</g>
<!-- Node44 -->
<g id="Node000044" class="node">
<title>Node44</title>
<g id="a_Node000044"><a xlink:href="_gold_8h.html" target="_top" xlink:title=" ">
<polygon fill="white" stroke="#666666" points="1740.38,-150 1673.38,-150 1673.38,-130 1740.38,-130 1740.38,-150"/>
<text xml:space="preserve" text-anchor="middle" x="1706.88" y="-136.5" font-family="Helvetica,sans-Serif" font-size="10.00">Item/Gold.h</text>
</a>
</g>
</g>
<!-- Node1&#45;&gt;Node44 -->
<g id="edge55_Node000001_Node000044" class="edge">
<title>Node1&#45;&gt;Node44</title>
<g id="a_edge55_Node000001_Node000044"><a xlink:title=" ">
<path fill="none" stroke="#63b8ff" d="M2337.1,-210.73C2190.65,-194.52 1870.06,-159.05 1751.83,-145.97"/>
<polygon fill="#63b8ff" stroke="#63b8ff" points="1752.53,-142.53 1742.21,-144.91 1751.76,-149.49 1752.53,-142.53"/>
</a>
</g>
</g>
<!-- Node3 -->
<g id="Node000003" class="node">
<title>Node3</title>
<g id="a_Node000003"><a xlink:title=" ">
<polygon fill="#e0e0e0" stroke="#999999" points="1914.38,-20 1835.38,-20 1835.38,0 1914.38,0 1914.38,-20"/>
<text xml:space="preserve" text-anchor="middle" x="1874.88" y="-6.5" font-family="Helvetica,sans-Serif" font-size="10.00">CoreMinimal.h</text>
</a>
</g>
</g>
<!-- Node2&#45;&gt;Node3 -->
<g id="edge2_Node000002_Node000003" class="edge">
<title>Node2&#45;&gt;Node3</title>
<g id="a_edge2_Node000002_Node000003"><a xlink:title=" ">
<path fill="none" stroke="#63b8ff" d="M2741.42,-129.61C2732.26,-111.52 2709.41,-72.22 2676.88,-56 2604.38,-19.86 2046.29,-29.04 1925.74,-19.93"/>
<polygon fill="#63b8ff" stroke="#63b8ff" points="1926.41,-16.48 1916.13,-19.03 1925.76,-23.45 1926.41,-16.48"/>
</a>
</g>
</g>
<!-- Node4 -->
<g id="Node000004" class="node">
<title>Node4</title>
<g id="a_Node000004"><a xlink:title=" ">
<polygon fill="#e0e0e0" stroke="#999999" points="3519.5,-82 3396.25,-82 3396.25,-62 3519.5,-62 3519.5,-82"/>
<text xml:space="preserve" text-anchor="middle" x="3457.88" y="-68.5" font-family="Helvetica,sans-Serif" font-size="10.00">AbilitySystemInterface.h</text>
</a>
</g>
</g>
<!-- Node2&#45;&gt;Node4 -->
<g id="edge3_Node000002_Node000004" class="edge">
<title>Node2&#45;&gt;Node4</title>
<g id="a_edge3_Node000002_Node000004"><a xlink:title=" ">
<path fill="none" stroke="#63b8ff" d="M2780.42,-129.51C2789.31,-127.38 2798.9,-125.35 2807.88,-124 3062.82,-85.54 3131.4,-122.74 3386.88,-88 3393.43,-87.11 3400.29,-85.95 3407.04,-84.67"/>
<polygon fill="#63b8ff" stroke="#63b8ff" points="3407.64,-88.12 3416.76,-82.74 3406.27,-81.26 3407.64,-88.12"/>
</a>
</g>
</g>
<!-- Node5 -->
<g id="Node000005" class="node">
<title>Node5</title>
<g id="a_Node000005"><a xlink:title=" ">
<polygon fill="#e0e0e0" stroke="#999999" points="3707.75,-82 3538,-82 3538,-62 3707.75,-62 3707.75,-82"/>
<text xml:space="preserve" text-anchor="middle" x="3622.88" y="-68.5" font-family="Helvetica,sans-Serif" font-size="10.00">Components/TimelineComponent.h</text>
</a>
</g>
</g>
<!-- Node2&#45;&gt;Node5 -->
<g id="edge4_Node000002_Node000005" class="edge">
<title>Node2&#45;&gt;Node5</title>
<g id="a_edge4_Node000002_Node000005"><a xlink:title=" ">
<path fill="none" stroke="#63b8ff" d="M2780.09,-129.51C2789.06,-127.36 2798.78,-125.32 2807.88,-124 3125.41,-78.07 3209.77,-121.33 3528.88,-88 3538.55,-86.99 3548.74,-85.65 3558.7,-84.19"/>
<polygon fill="#63b8ff" stroke="#63b8ff" points="3558.96,-87.69 3568.32,-82.72 3557.91,-80.77 3558.96,-87.69"/>
</a>
</g>
</g>
<!-- Node6 -->
<g id="Node000006" class="node">
<title>Node6</title>
<g id="a_Node000006"><a xlink:href="_combat_interface_8h.html" target="_top" xlink:title=" ">
<polygon fill="white" stroke="#666666" points="3378,-82 3215.75,-82 3215.75,-62 3378,-62 3378,-82"/>
<text xml:space="preserve" text-anchor="middle" x="3296.88" y="-68.5" font-family="Helvetica,sans-Serif" font-size="10.00">Core/Interface/CombatInterface.h</text>
</a>
</g>
</g>
<!-- Node2&#45;&gt;Node6 -->
<g id="edge5_Node000002_Node000006" class="edge">
<title>Node2&#45;&gt;Node6</title>
<g id="a_edge5_Node000002_Node000006"><a xlink:title=" ">
<path fill="none" stroke="#63b8ff" d="M2781.1,-129.53C2789.8,-127.45 2799.13,-125.44 2807.88,-124 2983.55,-94.99 3030.27,-110.65 3206.88,-88 3215.29,-86.92 3224.12,-85.64 3232.82,-84.28"/>
<polygon fill="#63b8ff" stroke="#63b8ff" points="3233.33,-87.74 3242.65,-82.71 3232.23,-80.83 3233.33,-87.74"/>
</a>
</g>
</g>
<!-- Node9 -->
<g id="Node000009" class="node">
<title>Node9</title>
<g id="a_Node000009"><a xlink:href="_k_p_t_pausable_interface_8h.html" target="_top" xlink:title=" ">
<polygon fill="white" stroke="#666666" points="3197.5,-88 3056.25,-88 3056.25,-56 3197.5,-56 3197.5,-88"/>
<text xml:space="preserve" text-anchor="start" x="3064.25" y="-74.5" font-family="Helvetica,sans-Serif" font-size="10.00">Core/Interface/KPTPausable</text>
<text xml:space="preserve" text-anchor="middle" x="3126.88" y="-62.5" font-family="Helvetica,sans-Serif" font-size="10.00">Interface.h</text>
</a>
</g>
</g>
<!-- Node2&#45;&gt;Node9 -->
<g id="edge9_Node000002_Node000009" class="edge">
<title>Node2&#45;&gt;Node9</title>
<g id="a_edge9_Node000002_Node000009"><a xlink:title=" ">
<path fill="none" stroke="#63b8ff" d="M2782.8,-129.5C2791.03,-127.55 2799.72,-125.6 2807.88,-124 2909.79,-104.04 2939.03,-105.76 3044.64,-88.33"/>
<polygon fill="#63b8ff" stroke="#63b8ff" points="3045.02,-91.81 3054.31,-86.71 3043.87,-84.91 3045.02,-91.81"/>
</a>
</g>
</g>
<!-- Node11 -->
<g id="Node000011" class="node">
<title>Node11</title>
<g id="a_Node000011"><a xlink:title=" ">
<polygon fill="#e0e0e0" stroke="#999999" points="2869.38,-82 2724.38,-82 2724.38,-62 2869.38,-62 2869.38,-82"/>
<text xml:space="preserve" text-anchor="middle" x="2796.88" y="-68.5" font-family="Helvetica,sans-Serif" font-size="10.00">GameFramework/Character.h</text>
</a>
</g>
</g>
<!-- Node2&#45;&gt;Node11 -->
<g id="edge13_Node000002_Node000011" class="edge">
<title>Node2&#45;&gt;Node11</title>
<g id="a_edge13_Node000002_Node000011"><a xlink:title=" ">
<path fill="none" stroke="#63b8ff" d="M2753.18,-129.54C2760.83,-119.64 2773.04,-103.84 2782.61,-91.46"/>
<polygon fill="#63b8ff" stroke="#63b8ff" points="2785.31,-93.69 2788.66,-83.64 2779.77,-89.41 2785.31,-93.69"/>
</a>
</g>
</g>
<!-- Node12 -->
<g id="Node000012" class="node">
<title>Node12</title>
<g id="a_Node000012"><a xlink:title=" ">
<polygon fill="#e0e0e0" stroke="#999999" points="3038,-82 2887.75,-82 2887.75,-62 3038,-62 3038,-82"/>
<text xml:space="preserve" text-anchor="middle" x="2962.88" y="-68.5" font-family="Helvetica,sans-Serif" font-size="10.00">BossMonsterBase.generated.h</text>
</a>
</g>
</g>
<!-- Node2&#45;&gt;Node12 -->
<g id="edge14_Node000002_Node000012" class="edge">
<title>Node2&#45;&gt;Node12</title>
<g id="a_edge14_Node000002_Node000012"><a xlink:title=" ">
<path fill="none" stroke="#63b8ff" d="M2776.97,-129.54C2814.75,-118.05 2878.68,-98.61 2920.83,-85.79"/>
<polygon fill="#63b8ff" stroke="#63b8ff" points="2921.85,-89.14 2930.39,-82.88 2919.81,-82.44 2921.85,-89.14"/>
</a>
</g>
</g>
<!-- Node6&#45;&gt;Node3 -->
<g id="edge6_Node000006_Node000003" class="edge">
<title>Node6&#45;&gt;Node3</title>
<g id="a_edge6_Node000006_Node000003"><a xlink:title=" ">
<path fill="none" stroke="#63b8ff" d="M3247.52,-61.52C3234.36,-59.34 3220.12,-57.28 3206.88,-56 2642.39,-1.31 2492.49,-79.75 1925.95,-20.15"/>
<polygon fill="#63b8ff" stroke="#63b8ff" points="1926.44,-16.69 1916.12,-19.11 1925.7,-23.65 1926.44,-16.69"/>
</a>
</g>
</g>
<!-- Node7 -->
<g id="Node000007" class="node">
<title>Node7</title>
<g id="a_Node000007"><a xlink:title=" ">
<polygon fill="#e0e0e0" stroke="#999999" points="3024.62,-20 2923.12,-20 2923.12,0 3024.62,0 3024.62,-20"/>
<text xml:space="preserve" text-anchor="middle" x="2973.88" y="-6.5" font-family="Helvetica,sans-Serif" font-size="10.00">UObject/Interface.h</text>
</a>
</g>
</g>
<!-- Node6&#45;&gt;Node7 -->
<g id="edge7_Node000006_Node000007" class="edge">
<title>Node6&#45;&gt;Node7</title>
<g id="a_edge7_Node000006_Node000007"><a xlink:title=" ">
<path fill="none" stroke="#63b8ff" d="M3246.05,-61.56C3189.19,-51 3097.05,-33.88 3035.96,-22.53"/>
<polygon fill="#63b8ff" stroke="#63b8ff" points="3036.89,-19.15 3026.42,-20.76 3035.62,-26.03 3036.89,-19.15"/>
</a>
</g>
</g>
<!-- Node8 -->
<g id="Node000008" class="node">
<title>Node8</title>
<g id="a_Node000008"><a xlink:title=" ">
<polygon fill="#e0e0e0" stroke="#999999" points="3372.25,-20 3229.5,-20 3229.5,0 3372.25,0 3372.25,-20"/>
<text xml:space="preserve" text-anchor="middle" x="3300.88" y="-6.5" font-family="Helvetica,sans-Serif" font-size="10.00">CombatInterface.generated.h</text>
</a>
</g>
</g>
<!-- Node6&#45;&gt;Node8 -->
<g id="edge8_Node000006_Node000008" class="edge">
<title>Node6&#45;&gt;Node8</title>
<g id="a_edge8_Node000006_Node000008"><a xlink:title=" ">
<path fill="none" stroke="#63b8ff" d="M3297.5,-61.62C3298.04,-53.56 3298.83,-41.65 3299.51,-31.41"/>
<polygon fill="#63b8ff" stroke="#63b8ff" points="3302.99,-31.83 3300.17,-21.62 3296.01,-31.37 3302.99,-31.83"/>
</a>
</g>
</g>
<!-- Node9&#45;&gt;Node3 -->
<g id="edge10_Node000009_Node000003" class="edge">
<title>Node9&#45;&gt;Node3</title>
<g id="a_edge10_Node000009_Node000003"><a xlink:title=" ">
<path fill="none" stroke="#63b8ff" d="M3055.86,-57.1C3052.83,-56.69 3049.82,-56.32 3046.88,-56 2553.77,-2.2 2421.73,-73.12 1926.02,-20.17"/>
<polygon fill="#63b8ff" stroke="#63b8ff" points="1926.44,-16.7 1916.12,-19.1 1925.69,-23.65 1926.44,-16.7"/>
</a>
</g>
</g>
<!-- Node9&#45;&gt;Node7 -->
<g id="edge11_Node000009_Node000007" class="edge">
<title>Node9&#45;&gt;Node7</title>
<g id="a_edge11_Node000009_Node000007"><a xlink:title=" ">
<path fill="none" stroke="#63b8ff" d="M3087.47,-55.55C3063.01,-45.96 3031.88,-33.75 3008.39,-24.54"/>
<polygon fill="#63b8ff" stroke="#63b8ff" points="3009.86,-21.35 2999.27,-20.96 3007.31,-27.87 3009.86,-21.35"/>
</a>
</g>
</g>
<!-- Node10 -->
<g id="Node000010" class="node">
<title>Node10</title>
<g id="a_Node000010"><a xlink:title=" ">
<polygon fill="#e0e0e0" stroke="#999999" points="3211,-20 3042.75,-20 3042.75,0 3211,0 3211,-20"/>
<text xml:space="preserve" text-anchor="middle" x="3126.88" y="-6.5" font-family="Helvetica,sans-Serif" font-size="10.00">KPTPausableInterface.generated.h</text>
</a>
</g>
</g>
<!-- Node9&#45;&gt;Node10 -->
<g id="edge12_Node000009_Node000010" class="edge">
<title>Node9&#45;&gt;Node10</title>
<g id="a_edge12_Node000009_Node000010"><a xlink:title=" ">
<path fill="none" stroke="#63b8ff" d="M3126.88,-55.55C3126.88,-48.34 3126.88,-39.66 3126.88,-31.88"/>
<polygon fill="#63b8ff" stroke="#63b8ff" points="3130.38,-31.92 3126.88,-21.92 3123.38,-31.92 3130.38,-31.92"/>
</a>
</g>
</g>
<!-- Node13&#45;&gt;Node3 -->
<g id="edge16_Node000013_Node000003" class="edge">
<title>Node13&#45;&gt;Node3</title>
<g id="a_edge16_Node000013_Node000003"><a xlink:title=" ">
<path fill="none" stroke="#63b8ff" d="M398.41,-61.53C417.09,-59.37 437.21,-57.33 455.88,-56 1059.73,-13.04 1218.14,-82.35 1823.89,-20"/>
<polygon fill="#63b8ff" stroke="#63b8ff" points="1824.01,-23.51 1833.6,-19 1823.29,-16.55 1824.01,-23.51"/>
</a>
</g>
</g>
<!-- Node14 -->
<g id="Node000014" class="node">
<title>Node14</title>
<g id="a_Node000014"><a xlink:title=" ">
<polygon fill="#e0e0e0" stroke="#999999" points="353.5,-20 218.25,-20 218.25,0 353.5,0 353.5,-20"/>
<text xml:space="preserve" text-anchor="middle" x="285.88" y="-6.5" font-family="Helvetica,sans-Serif" font-size="10.00">AbilitySystemComponent.h</text>
</a>
</g>
</g>
<!-- Node13&#45;&gt;Node14 -->
<g id="edge17_Node000013_Node000014" class="edge">
<title>Node13&#45;&gt;Node14</title>
<g id="a_edge17_Node000013_Node000014"><a xlink:title=" ">
<path fill="none" stroke="#63b8ff" d="M320.47,-61.62C314.6,-53.03 305.74,-40.07 298.45,-29.41"/>
<polygon fill="#63b8ff" stroke="#63b8ff" points="301.49,-27.64 292.96,-21.36 295.71,-31.59 301.49,-27.64"/>
</a>
</g>
</g>
<!-- Node15 -->
<g id="Node000015" class="node">
<title>Node15</title>
<g id="a_Node000015"><a xlink:title=" ">
<polygon fill="#e0e0e0" stroke="#999999" points="199.75,-20 0,-20 0,0 199.75,0 199.75,-20"/>
<text xml:space="preserve" text-anchor="middle" x="99.88" y="-6.5" font-family="Helvetica,sans-Serif" font-size="10.00">KPTAbilitySystemComponent.generated.h</text>
</a>
</g>
</g>
<!-- Node13&#45;&gt;Node15 -->
<g id="edge18_Node000013_Node000015" class="edge">
<title>Node13&#45;&gt;Node15</title>
<g id="a_edge18_Node000013_Node000015"><a xlink:title=" ">
<path fill="none" stroke="#63b8ff" d="M291.16,-61.56C252.19,-51.26 189.65,-34.73 146.76,-23.39"/>
<polygon fill="#63b8ff" stroke="#63b8ff" points="147.79,-20.04 137.22,-20.87 146,-26.81 147.79,-20.04"/>
</a>
</g>
</g>
<!-- Node16&#45;&gt;Node3 -->
<g id="edge20_Node000016_Node000003" class="edge">
<title>Node16&#45;&gt;Node3</title>
<g id="a_edge20_Node000016_Node000003"><a xlink:title=" ">
<path fill="none" stroke="#63b8ff" d="M1284.3,-130.06C1352.74,-121.74 1452.88,-107.64 1538.88,-88 1586.02,-77.23 1595.96,-67.73 1642.88,-56 1660.16,-51.68 1760.79,-32.51 1823.71,-20.62"/>
<polygon fill="#63b8ff" stroke="#63b8ff" points="1824.32,-24.07 1833.5,-18.78 1823.03,-17.19 1824.32,-24.07"/>
</a>
</g>
</g>
<!-- Node17 -->
<g id="Node000017" class="node">
<title>Node17</title>
<g id="a_Node000017"><a xlink:title=" ">
<polygon fill="#e0e0e0" stroke="#999999" points="807.12,-82 624.62,-82 624.62,-62 807.12,-62 807.12,-82"/>
<text xml:space="preserve" text-anchor="middle" x="715.88" y="-68.5" font-family="Helvetica,sans-Serif" font-size="10.00">Subsystems/LocalPlayerSubsystem.h</text>
</a>
</g>
</g>
<!-- Node16&#45;&gt;Node17 -->
<g id="edge21_Node000016_Node000017" class="edge">
<title>Node16&#45;&gt;Node17</title>
<g id="a_edge21_Node000016_Node000017"><a xlink:title=" ">
<path fill="none" stroke="#63b8ff" d="M1127.91,-129.52C1049.91,-119.57 924.25,-103.27 815.88,-88 807.26,-86.79 798.23,-85.48 789.27,-84.16"/>
<polygon fill="#63b8ff" stroke="#63b8ff" points="789.9,-80.72 779.49,-82.72 788.87,-87.64 789.9,-80.72"/>
</a>
</g>
</g>
<!-- Node18 -->
<g id="Node000018" class="node">
<title>Node18</title>
<g id="a_Node000018"><a xlink:title=" ">
<polygon fill="#e0e0e0" stroke="#999999" points="928.38,-82 825.38,-82 825.38,-62 928.38,-62 928.38,-82"/>
<text xml:space="preserve" text-anchor="middle" x="876.88" y="-68.5" font-family="Helvetica,sans-Serif" font-size="10.00">Containers/Queue.h</text>
</a>
</g>
</g>
<!-- Node16&#45;&gt;Node18 -->
<g id="edge22_Node000016_Node000018" class="edge">
<title>Node16&#45;&gt;Node18</title>
<g id="a_edge22_Node000016_Node000018"><a xlink:title=" ">
<path fill="none" stroke="#63b8ff" d="M1149.42,-129.54C1095.78,-119.85 1010.87,-103.99 937.88,-88 933.62,-87.07 929.21,-86.06 924.8,-85.03"/>
<polygon fill="#63b8ff" stroke="#63b8ff" points="925.91,-81.7 915.37,-82.78 924.29,-88.5 925.91,-81.7"/>
</a>
</g>
</g>
<!-- Node19 -->
<g id="Node000019" class="node">
<title>Node19</title>
<g id="a_Node000019"><a xlink:href="_level_u_i_data_asset_8h.html" target="_top" xlink:title=" ">
<polygon fill="white" stroke="#666666" points="1529.88,-82 1387.88,-82 1387.88,-62 1529.88,-62 1529.88,-82"/>
<text xml:space="preserve" text-anchor="middle" x="1458.88" y="-68.5" font-family="Helvetica,sans-Serif" font-size="10.00">UI/Data/LevelUIDataAsset.h</text>
</a>
</g>
</g>
<!-- Node16&#45;&gt;Node19 -->
<g id="edge23_Node000016_Node000019" class="edge">
<title>Node16&#45;&gt;Node19</title>
<g id="a_edge23_Node000016_Node000019"><a xlink:title=" ">
<path fill="none" stroke="#63b8ff" d="M1239.55,-129.54C1284.7,-117.9 1361.48,-98.11 1411.17,-85.3"/>
<polygon fill="#63b8ff" stroke="#63b8ff" points="1411.99,-88.7 1420.8,-82.82 1410.24,-81.92 1411.99,-88.7"/>
</a>
</g>
</g>
<!-- Node23 -->
<g id="Node000023" class="node">
<title>Node23</title>
<g id="a_Node000023"><a xlink:title=" ">
<polygon fill="#e0e0e0" stroke="#999999" points="1184.25,-82 1053.5,-82 1053.5,-62 1184.25,-62 1184.25,-82"/>
<text xml:space="preserve" text-anchor="middle" x="1118.88" y="-68.5" font-family="Helvetica,sans-Serif" font-size="10.00">UObject/NoExportTypes.h</text>
</a>
</g>
</g>
<!-- Node16&#45;&gt;Node23 -->
<g id="edge28_Node000016_Node000023" class="edge">
<title>Node16&#45;&gt;Node23</title>
<g id="a_edge28_Node000016_Node000023"><a xlink:title=" ">
<path fill="none" stroke="#63b8ff" d="M1190.84,-129.54C1177.49,-119.06 1155.72,-101.95 1139.61,-89.29"/>
<polygon fill="#63b8ff" stroke="#63b8ff" points="1142.1,-86.8 1132.08,-83.37 1137.78,-92.3 1142.1,-86.8"/>
</a>
</g>
</g>
<!-- Node24 -->
<g id="Node000024" class="node">
<title>Node24</title>
<g id="a_Node000024"><a xlink:href="_item_base_8h.html" target="_top" xlink:title=" ">
<polygon fill="white" stroke="#666666" points="1035.25,-82 946.5,-82 946.5,-62 1035.25,-62 1035.25,-82"/>
<text xml:space="preserve" text-anchor="middle" x="990.88" y="-68.5" font-family="Helvetica,sans-Serif" font-size="10.00">Item/ItemBase.h</text>
</a>
</g>
</g>
<!-- Node16&#45;&gt;Node24 -->
<g id="edge29_Node000016_Node000024" class="edge">
<title>Node16&#45;&gt;Node24</title>
<g id="a_edge29_Node000016_Node000024"><a xlink:title=" ">
<path fill="none" stroke="#63b8ff" d="M1172.5,-129.54C1135.58,-118.05 1073.13,-98.61 1031.95,-85.79"/>
<polygon fill="#63b8ff" stroke="#63b8ff" points="1033.23,-82.52 1022.64,-82.89 1031.15,-89.2 1033.23,-82.52"/>
</a>
</g>
</g>
<!-- Node31 -->
<g id="Node000031" class="node">
<title>Node31</title>
<g id="a_Node000031"><a xlink:title=" ">
<polygon fill="#e0e0e0" stroke="#999999" points="1369.62,-82 1202.12,-82 1202.12,-62 1369.62,-62 1369.62,-82"/>
<text xml:space="preserve" text-anchor="middle" x="1285.88" y="-68.5" font-family="Helvetica,sans-Serif" font-size="10.00">UIManagerSubsystem.generated.h</text>
</a>
</g>
</g>
<!-- Node16&#45;&gt;Node31 -->
<g id="edge37_Node000016_Node000031" class="edge">
<title>Node16&#45;&gt;Node31</title>
<g id="a_edge37_Node000016_Node000031"><a xlink:title=" ">
<path fill="none" stroke="#63b8ff" d="M1214.77,-129.54C1227.96,-119.06 1249.47,-101.95 1265.39,-89.29"/>
<polygon fill="#63b8ff" stroke="#63b8ff" points="1267.17,-92.34 1272.82,-83.38 1262.82,-86.87 1267.17,-92.34"/>
</a>
</g>
</g>
<!-- Node19&#45;&gt;Node3 -->
<g id="edge24_Node000019_Node000003" class="edge">
<title>Node19&#45;&gt;Node3</title>
<g id="a_edge24_Node000019_Node000003"><a xlink:title=" ">
<path fill="none" stroke="#63b8ff" d="M1510.05,-61.56C1521.18,-59.62 1532.91,-57.67 1543.88,-56 1665.25,-37.55 1699.13,-39.3 1823.91,-20.22"/>
<polygon fill="#63b8ff" stroke="#63b8ff" points="1824.22,-23.72 1833.56,-18.73 1823.15,-16.8 1824.22,-23.72"/>
</a>
</g>
</g>
<!-- Node20 -->
<g id="Node000020" class="node">
<title>Node20</title>
<g id="a_Node000020"><a xlink:title=" ">
<polygon fill="#e0e0e0" stroke="#999999" points="1369.75,-20 1266,-20 1266,0 1369.75,0 1369.75,-20"/>
<text xml:space="preserve" text-anchor="middle" x="1317.88" y="-6.5" font-family="Helvetica,sans-Serif" font-size="10.00">Engine/DataAsset.h</text>
</a>
</g>
</g>
<!-- Node19&#45;&gt;Node20 -->
<g id="edge25_Node000019_Node000020" class="edge">
<title>Node19&#45;&gt;Node20</title>
<g id="a_edge25_Node000019_Node000020"><a xlink:title=" ">
<path fill="none" stroke="#63b8ff" d="M1436.84,-61.62C1413.56,-51.72 1376.61,-35.99 1350.07,-24.7"/>
<polygon fill="#63b8ff" stroke="#63b8ff" points="1351.72,-21.6 1341.14,-20.9 1348.98,-28.04 1351.72,-21.6"/>
</a>
</g>
</g>
<!-- Node21 -->
<g id="Node000021" class="node">
<title>Node21</title>
<g id="a_Node000021"><a xlink:title=" ">
<polygon fill="#e0e0e0" stroke="#999999" points="1505.5,-20 1388.25,-20 1388.25,0 1505.5,0 1505.5,-20"/>
<text xml:space="preserve" text-anchor="middle" x="1446.88" y="-6.5" font-family="Helvetica,sans-Serif" font-size="10.00">Blueprint/UserWidget.h</text>
</a>
</g>
</g>
<!-- Node19&#45;&gt;Node21 -->
<g id="edge26_Node000019_Node000021" class="edge">
<title>Node19&#45;&gt;Node21</title>
<g id="a_edge26_Node000019_Node000021"><a xlink:title=" ">
<path fill="none" stroke="#63b8ff" d="M1457,-61.62C1455.37,-53.48 1452.95,-41.39 1450.89,-31.07"/>
<polygon fill="#63b8ff" stroke="#63b8ff" points="1454.39,-30.72 1448.99,-21.6 1447.52,-32.09 1454.39,-30.72"/>
</a>
</g>
</g>
<!-- Node22 -->
<g id="Node000022" class="node">
<title>Node22</title>
<g id="a_Node000022"><a xlink:title=" ">
<polygon fill="#e0e0e0" stroke="#999999" points="1817,-20 1666.75,-20 1666.75,0 1817,0 1817,-20"/>
<text xml:space="preserve" text-anchor="middle" x="1741.88" y="-6.5" font-family="Helvetica,sans-Serif" font-size="10.00">LevelUIDataAsset.generated.h</text>
</a>
</g>
</g>
<!-- Node19&#45;&gt;Node22 -->
<g id="edge27_Node000019_Node000022" class="edge">
<title>Node19&#45;&gt;Node22</title>
<g id="a_edge27_Node000019_Node000022"><a xlink:title=" ">
<path fill="none" stroke="#63b8ff" d="M1503.41,-61.56C1552.81,-51.08 1632.62,-34.16 1686.14,-22.82"/>
<polygon fill="#63b8ff" stroke="#63b8ff" points="1686.6,-26.3 1695.66,-20.8 1685.15,-19.45 1686.6,-26.3"/>
</a>
</g>
</g>
<!-- Node24&#45;&gt;Node3 -->
<g id="edge30_Node000024_Node000003" class="edge">
<title>Node24&#45;&gt;Node3</title>
<g id="a_edge30_Node000024_Node000003"><a xlink:title=" ">
<path fill="none" stroke="#63b8ff" d="M1020.32,-61.53C1028.22,-59.35 1036.8,-57.29 1044.88,-56 1384.31,-1.74 1478.63,-58.24 1823.76,-20.05"/>
<polygon fill="#63b8ff" stroke="#63b8ff" points="1824.05,-23.54 1833.59,-18.94 1823.26,-16.58 1824.05,-23.54"/>
</a>
</g>
</g>
<!-- Node25 -->
<g id="Node000025" class="node">
<title>Node25</title>
<g id="a_Node000025"><a xlink:title=" ">
<polygon fill="#e0e0e0" stroke="#999999" points="800.12,-20 647.62,-20 647.62,0 800.12,0 800.12,-20"/>
<text xml:space="preserve" text-anchor="middle" x="723.88" y="-6.5" font-family="Helvetica,sans-Serif" font-size="10.00">ActiveGameplayEffectHandle.h</text>
</a>
</g>
</g>
<!-- Node24&#45;&gt;Node25 -->
<g id="edge31_Node000024_Node000025" class="edge">
<title>Node24&#45;&gt;Node25</title>
<g id="a_edge31_Node000024_Node000025"><a xlink:title=" ">
<path fill="none" stroke="#63b8ff" d="M958.12,-61.55C951.13,-59.63 943.78,-57.69 936.88,-56 885.64,-43.49 826.98,-31.25 784.21,-22.7"/>
<polygon fill="#63b8ff" stroke="#63b8ff" points="785.12,-19.31 774.63,-20.79 783.75,-26.17 785.12,-19.31"/>
</a>
</g>
</g>
<!-- Node26 -->
<g id="Node000026" class="node">
<title>Node26</title>
<g id="a_Node000026"><a xlink:title=" ">
<polygon fill="#e0e0e0" stroke="#999999" points="629.88,-20 553.88,-20 553.88,0 629.88,0 629.88,-20"/>
<text xml:space="preserve" text-anchor="middle" x="591.88" y="-6.5" font-family="Helvetica,sans-Serif" font-size="10.00">AttributeSet.h</text>
</a>
</g>
</g>
<!-- Node24&#45;&gt;Node26 -->
<g id="edge32_Node000024_Node000026" class="edge">
<title>Node24&#45;&gt;Node26</title>
<g id="a_edge32_Node000024_Node000026"><a xlink:title=" ">
<path fill="none" stroke="#63b8ff" d="M959.94,-61.55C952.44,-59.49 944.42,-57.49 936.88,-56 809.59,-30.78 772.69,-40.01 641.6,-20.32"/>
<polygon fill="#63b8ff" stroke="#63b8ff" points="642.22,-16.87 631.81,-18.81 641.16,-23.79 642.22,-16.87"/>
</a>
</g>
</g>
<!-- Node27 -->
<g id="Node000027" class="node">
<title>Node27</title>
<g id="a_Node000027"><a xlink:title=" ">
<polygon fill="#e0e0e0" stroke="#999999" points="967.25,-20 818.5,-20 818.5,0 967.25,0 967.25,-20"/>
<text xml:space="preserve" text-anchor="middle" x="892.88" y="-6.5" font-family="Helvetica,sans-Serif" font-size="10.00">GameplayAbilitySpecHandle.h</text>
</a>
</g>
</g>
<!-- Node24&#45;&gt;Node27 -->
<g id="edge33_Node000024_Node000027" class="edge">
<title>Node24&#45;&gt;Node27</title>
<g id="a_edge33_Node000024_Node000027"><a xlink:title=" ">
<path fill="none" stroke="#63b8ff" d="M975.56,-61.62C960.1,-52.16 935.96,-37.38 917.75,-26.23"/>
<polygon fill="#63b8ff" stroke="#63b8ff" points="919.73,-23.34 909.37,-21.1 916.07,-29.31 919.73,-23.34"/>
</a>
</g>
</g>
<!-- Node28 -->
<g id="Node000028" class="node">
<title>Node28</title>
<g id="a_Node000028"><a xlink:title=" ">
<polygon fill="#e0e0e0" stroke="#999999" points="1118,-20 985.75,-20 985.75,0 1118,0 1118,-20"/>
<text xml:space="preserve" text-anchor="middle" x="1051.88" y="-6.5" font-family="Helvetica,sans-Serif" font-size="10.00">Abilities/GameplayAbility.h</text>
</a>
</g>
</g>
<!-- Node24&#45;&gt;Node28 -->
<g id="edge34_Node000024_Node000028" class="edge">
<title>Node24&#45;&gt;Node28</title>
<g id="a_edge34_Node000024_Node000028"><a xlink:title=" ">
<path fill="none" stroke="#63b8ff" d="M1000.41,-61.62C1009.5,-52.68 1023.42,-38.99 1034.49,-28.1"/>
<polygon fill="#63b8ff" stroke="#63b8ff" points="1036.86,-30.68 1041.53,-21.17 1031.95,-25.69 1036.86,-30.68"/>
</a>
</g>
</g>
<!-- Node29 -->
<g id="Node000029" class="node">
<title>Node29</title>
<g id="a_Node000029"><a xlink:title=" ">
<polygon fill="#e0e0e0" stroke="#999999" points="1648.62,-20 1523.12,-20 1523.12,0 1648.62,0 1648.62,-20"/>
<text xml:space="preserve" text-anchor="middle" x="1585.88" y="-6.5" font-family="Helvetica,sans-Serif" font-size="10.00">GameFramework/Actor.h</text>
</a>
</g>
</g>
<!-- Node24&#45;&gt;Node29 -->
<g id="edge35_Node000024_Node000029" class="edge">
<title>Node24&#45;&gt;Node29</title>
<g id="a_edge35_Node000024_Node000029"><a xlink:title=" ">
<path fill="none" stroke="#63b8ff" d="M1020.91,-61.54C1028.65,-59.41 1037.02,-57.38 1044.88,-56 1247.6,-20.43 1304.46,-40.45 1511.53,-20.28"/>
<polygon fill="#63b8ff" stroke="#63b8ff" points="1511.68,-23.79 1521.29,-19.31 1510.99,-16.82 1511.68,-23.79"/>
</a>
</g>
</g>
<!-- Node30 -->
<g id="Node000030" class="node">
<title>Node30</title>
<g id="a_Node000030"><a xlink:title=" ">
<polygon fill="#e0e0e0" stroke="#999999" points="1247.88,-20 1135.88,-20 1135.88,0 1247.88,0 1247.88,-20"/>
<text xml:space="preserve" text-anchor="middle" x="1191.88" y="-6.5" font-family="Helvetica,sans-Serif" font-size="10.00">ItemBase.generated.h</text>
</a>
</g>
</g>
<!-- Node24&#45;&gt;Node30 -->
<g id="edge36_Node000024_Node000030" class="edge">
<title>Node24&#45;&gt;Node30</title>
<g id="a_edge36_Node000024_Node000030"><a xlink:title=" ">
<path fill="none" stroke="#63b8ff" d="M1022.28,-61.62C1056.55,-51.4 1111.59,-34.97 1149.63,-23.61"/>
<polygon fill="#63b8ff" stroke="#63b8ff" points="1150.33,-27.06 1158.91,-20.84 1148.32,-20.35 1150.33,-27.06"/>
</a>
</g>
</g>
<!-- Node36&#45;&gt;Node3 -->
<g id="edge43_Node000036_Node000003" class="edge">
<title>Node36&#45;&gt;Node3</title>
<g id="a_edge43_Node000036_Node000003"><a xlink:title=" ">
<path fill="none" stroke="#63b8ff" d="M2034.25,-137.42C1955.57,-133.96 1828.38,-122.96 1798.88,-88 1789.7,-77.13 1791.83,-68.36 1798.88,-56 1806.74,-42.2 1820.69,-32.2 1834.5,-25.18"/>
<polygon fill="#63b8ff" stroke="#63b8ff" points="1835.94,-28.38 1843.56,-21.02 1833.02,-22.01 1835.94,-28.38"/>
</a>
</g>
</g>
<!-- Node37 -->
<g id="Node000037" class="node">
<title>Node37</title>
<g id="a_Node000037"><a xlink:title=" ">
<polygon fill="#e0e0e0" stroke="#999999" points="2258.12,-82 2105.62,-82 2105.62,-62 2258.12,-62 2258.12,-82"/>
<text xml:space="preserve" text-anchor="middle" x="2181.88" y="-68.5" font-family="Helvetica,sans-Serif" font-size="10.00">GameFramework/GameMode.h</text>
</a>
</g>
</g>
<!-- Node36&#45;&gt;Node37 -->
<g id="edge44_Node000036_Node000037" class="edge">
<title>Node36&#45;&gt;Node37</title>
<g id="a_edge44_Node000036_Node000037"><a xlink:title=" ">
<path fill="none" stroke="#63b8ff" d="M2109.91,-129.54C2123.26,-119.06 2145.03,-101.95 2161.14,-89.29"/>
<polygon fill="#63b8ff" stroke="#63b8ff" points="2162.97,-92.3 2168.67,-83.37 2158.65,-86.8 2162.97,-92.3"/>
</a>
</g>
</g>
<!-- Node38 -->
<g id="Node000038" class="node">
<title>Node38</title>
<g id="a_Node000038"><a xlink:title=" ">
<polygon fill="#e0e0e0" stroke="#999999" points="2087.88,-82 1939.88,-82 1939.88,-62 2087.88,-62 2087.88,-82"/>
<text xml:space="preserve" text-anchor="middle" x="2013.88" y="-68.5" font-family="Helvetica,sans-Serif" font-size="10.00">KPTInGameMode.generated.h</text>
</a>
</g>
</g>
<!-- Node36&#45;&gt;Node38 -->
<g id="edge45_Node000036_Node000038" class="edge">
<title>Node36&#45;&gt;Node38</title>
<g id="a_edge45_Node000036_Node000038"><a xlink:title=" ">
<path fill="none" stroke="#63b8ff" d="M2085.84,-129.54C2072.49,-119.06 2050.72,-101.95 2034.61,-89.29"/>
<polygon fill="#63b8ff" stroke="#63b8ff" points="2037.1,-86.8 2027.08,-83.37 2032.78,-92.3 2037.1,-86.8"/>
</a>
</g>
</g>
<!-- Node39&#45;&gt;Node3 -->
<g id="edge47_Node000039_Node000003" class="edge">
<title>Node39&#45;&gt;Node3</title>
<g id="a_edge47_Node000039_Node000003"><a xlink:title=" ">
<path fill="none" stroke="#63b8ff" d="M2387.57,-129.52C2365.26,-120.33 2331.69,-105.28 2304.88,-88 2286.31,-76.04 2287.19,-64.64 2266.88,-56 2128.73,2.75 2077.4,-40.07 1925.74,-20.25"/>
<polygon fill="#63b8ff" stroke="#63b8ff" points="1926.53,-16.83 1916.15,-18.92 1925.57,-23.76 1926.53,-16.83"/>
</a>
</g>
</g>
<!-- Node40 -->
<g id="Node000040" class="node">
<title>Node40</title>
<g id="a_Node000040"><a xlink:title=" ">
<polygon fill="#e0e0e0" stroke="#999999" points="2509.5,-82 2314.25,-82 2314.25,-62 2509.5,-62 2509.5,-82"/>
<text xml:space="preserve" text-anchor="middle" x="2411.88" y="-68.5" font-family="Helvetica,sans-Serif" font-size="10.00">Subsystems/GameInstanceSubsystem.h</text>
</a>
</g>
</g>
<!-- Node39&#45;&gt;Node40 -->
<g id="edge48_Node000039_Node000040" class="edge">
<title>Node39&#45;&gt;Node40</title>
<g id="a_edge48_Node000039_Node000040"><a xlink:title=" ">
<path fill="none" stroke="#63b8ff" d="M2411.88,-129.54C2411.88,-120.23 2411.88,-105.7 2411.88,-93.7"/>
<polygon fill="#63b8ff" stroke="#63b8ff" points="2415.38,-93.95 2411.88,-83.95 2408.38,-93.95 2415.38,-93.95"/>
</a>
</g>
</g>
<!-- Node41 -->
<g id="Node000041" class="node">
<title>Node41</title>
<g id="a_Node000041"><a xlink:title=" ">
<polygon fill="#e0e0e0" stroke="#999999" points="2668.12,-82 2527.62,-82 2527.62,-62 2668.12,-62 2668.12,-82"/>
<text xml:space="preserve" text-anchor="middle" x="2597.88" y="-68.5" font-family="Helvetica,sans-Serif" font-size="10.00">PoolSubSystem.generated.h</text>
</a>
</g>
</g>
<!-- Node39&#45;&gt;Node41 -->
<g id="edge49_Node000039_Node000041" class="edge">
<title>Node39&#45;&gt;Node41</title>
<g id="a_edge49_Node000039_Node000041"><a xlink:title=" ">
<path fill="none" stroke="#63b8ff" d="M2438.52,-129.54C2470.57,-118.17 2524.54,-99.02 2560.68,-86.2"/>
<polygon fill="#63b8ff" stroke="#63b8ff" points="2561.59,-89.59 2569.85,-82.94 2559.25,-82.99 2561.59,-89.59"/>
</a>
</g>
</g>
<!-- Node42&#45;&gt;Node3 -->
<g id="edge51_Node000042_Node000003" class="edge">
<title>Node42&#45;&gt;Node3</title>
<g id="a_edge51_Node000042_Node000003"><a xlink:title=" ">
<path fill="none" stroke="#63b8ff" d="M579.71,-61.51C591.4,-59.33 604.07,-57.27 615.88,-56 1147.13,1.35 1288.93,-75.69 1824,-20"/>
<polygon fill="#63b8ff" stroke="#63b8ff" points="1824.02,-23.51 1833.6,-18.99 1823.29,-16.55 1824.02,-23.51"/>
</a>
</g>
</g>
<!-- Node42&#45;&gt;Node14 -->
<g id="edge52_Node000042_Node000014" class="edge">
<title>Node42&#45;&gt;Node14</title>
<g id="a_edge52_Node000042_Node000014"><a xlink:title=" ">
<path fill="none" stroke="#63b8ff" d="M496.54,-61.56C453.26,-51.17 383.57,-34.45 336.31,-23.1"/>
<polygon fill="#63b8ff" stroke="#63b8ff" points="337.41,-19.77 326.87,-20.84 335.77,-26.58 337.41,-19.77"/>
</a>
</g>
</g>
<!-- Node42&#45;&gt;Node26 -->
<g id="edge53_Node000042_Node000026" class="edge">
<title>Node42&#45;&gt;Node26</title>
<g id="a_edge53_Node000042_Node000026"><a xlink:title=" ">
<path fill="none" stroke="#63b8ff" d="M544.62,-61.62C552.89,-52.77 565.5,-39.26 575.61,-28.43"/>
<polygon fill="#63b8ff" stroke="#63b8ff" points="578.07,-30.92 582.34,-21.22 572.96,-26.14 578.07,-30.92"/>
</a>
</g>
</g>
<!-- Node43 -->
<g id="Node000043" class="node">
<title>Node43</title>
<g id="a_Node000043"><a xlink:title=" ">
<polygon fill="#e0e0e0" stroke="#999999" points="535.75,-20 372,-20 372,0 535.75,0 535.75,-20"/>
<text xml:space="preserve" text-anchor="middle" x="453.88" y="-6.5" font-family="Helvetica,sans-Serif" font-size="10.00">KPTBaseAttributeSet.generated.h</text>
</a>
</g>
</g>
<!-- Node42&#45;&gt;Node43 -->
<g id="edge54_Node000042_Node000043" class="edge">
<title>Node42&#45;&gt;Node43</title>
<g id="a_edge54_Node000042_Node000043"><a xlink:title=" ">
<path fill="none" stroke="#63b8ff" d="M523.06,-61.62C510.43,-52.38 490.86,-38.07 475.76,-27.01"/>
<polygon fill="#63b8ff" stroke="#63b8ff" points="477.96,-24.28 467.82,-21.2 473.82,-29.93 477.96,-24.28"/>
</a>
</g>
</g>
<!-- Node44&#45;&gt;Node3 -->
<g id="edge56_Node000044_Node000003" class="edge">
<title>Node44&#45;&gt;Node3</title>
<g id="a_edge56_Node000044_Node000003"><a xlink:title=" ">
<path fill="none" stroke="#63b8ff" d="M1692.79,-129.59C1670.72,-113.7 1632.53,-80.89 1652.88,-56 1655.61,-52.66 1759.16,-32.71 1823.86,-20.52"/>
<polygon fill="#63b8ff" stroke="#63b8ff" points="1824.39,-23.98 1833.57,-18.69 1823.1,-17.1 1824.39,-23.98"/>
</a>
</g>
</g>
<!-- Node44&#45;&gt;Node29 -->
<g id="edge61_Node000044_Node000029" class="edge">
<title>Node44&#45;&gt;Node29</title>
<g id="a_edge61_Node000044_Node000029"><a xlink:title=" ">
<path fill="none" stroke="#63b8ff" d="M1682.31,-129.58C1663.15,-121.17 1637,-107.21 1619.88,-88 1605.24,-71.59 1596.06,-47.87 1590.98,-31.1"/>
<polygon fill="#63b8ff" stroke="#63b8ff" points="1594.44,-30.48 1588.4,-21.78 1587.7,-32.35 1594.44,-30.48"/>
</a>
</g>
</g>
<!-- Node45 -->
<g id="Node000045" class="node">
<title>Node45</title>
<g id="a_Node000045"><a xlink:href="_poolable_8h.html" target="_top" xlink:title=" ">
<polygon fill="white" stroke="#666666" points="1921.62,-88 1808.12,-88 1808.12,-56 1921.62,-56 1921.62,-88"/>
<text xml:space="preserve" text-anchor="start" x="1816.12" y="-74.5" font-family="Helvetica,sans-Serif" font-size="10.00">Core/Interface/Pooling</text>
<text xml:space="preserve" text-anchor="middle" x="1864.88" y="-62.5" font-family="Helvetica,sans-Serif" font-size="10.00">/Poolable.h</text>
</a>
</g>
</g>
<!-- Node44&#45;&gt;Node45 -->
<g id="edge57_Node000044_Node000045" class="edge">
<title>Node44&#45;&gt;Node45</title>
<g id="a_edge57_Node000044_Node000045"><a xlink:title=" ">
<path fill="none" stroke="#63b8ff" d="M1729.51,-129.54C1752.39,-119.99 1788.42,-104.94 1817.56,-92.77"/>
<polygon fill="#63b8ff" stroke="#63b8ff" points="1818.67,-96.1 1826.55,-89.01 1815.97,-89.64 1818.67,-96.1"/>
</a>
</g>
</g>
<!-- Node47 -->
<g id="Node000047" class="node">
<title>Node47</title>
<g id="a_Node000047"><a xlink:title=" ">
<polygon fill="#e0e0e0" stroke="#999999" points="1752,-82 1661.75,-82 1661.75,-62 1752,-62 1752,-82"/>
<text xml:space="preserve" text-anchor="middle" x="1706.88" y="-68.5" font-family="Helvetica,sans-Serif" font-size="10.00">Gold.generated.h</text>
</a>
</g>
</g>
<!-- Node44&#45;&gt;Node47 -->
<g id="edge62_Node000044_Node000047" class="edge">
<title>Node44&#45;&gt;Node47</title>
<g id="a_edge62_Node000044_Node000047"><a xlink:title=" ">
<path fill="none" stroke="#63b8ff" d="M1706.88,-129.54C1706.88,-120.23 1706.88,-105.7 1706.88,-93.7"/>
<polygon fill="#63b8ff" stroke="#63b8ff" points="1710.38,-93.95 1706.88,-83.95 1703.38,-93.95 1710.38,-93.95"/>
</a>
</g>
</g>
<!-- Node45&#45;&gt;Node3 -->
<g id="edge58_Node000045_Node000003" class="edge">
<title>Node45&#45;&gt;Node3</title>
<g id="a_edge58_Node000045_Node000003"><a xlink:title=" ">
<path fill="none" stroke="#63b8ff" d="M1867.45,-55.55C1868.67,-48.26 1870.13,-39.45 1871.44,-31.6"/>
<polygon fill="#63b8ff" stroke="#63b8ff" points="1874.87,-32.34 1873.06,-21.9 1867.96,-31.19 1874.87,-32.34"/>
</a>
</g>
</g>
<!-- Node45&#45;&gt;Node7 -->
<g id="edge59_Node000045_Node000007" class="edge">
<title>Node45&#45;&gt;Node7</title>
<g id="a_edge59_Node000045_Node000007"><a xlink:title=" ">
<path fill="none" stroke="#63b8ff" d="M1922,-57.35C1924.99,-56.85 1927.96,-56.39 1930.88,-56 2122.1,-30.36 2716.63,-16.24 2911.4,-12.22"/>
<polygon fill="#63b8ff" stroke="#63b8ff" points="2911.39,-15.72 2921.32,-12.01 2911.25,-8.72 2911.39,-15.72"/>
</a>
</g>
</g>
<!-- Node46 -->
<g id="Node000046" class="node">
<title>Node46</title>
<g id="a_Node000046"><a xlink:title=" ">
<polygon fill="#e0e0e0" stroke="#999999" points="2039.62,-20 1932.12,-20 1932.12,0 2039.62,0 2039.62,-20"/>
<text xml:space="preserve" text-anchor="middle" x="1985.88" y="-6.5" font-family="Helvetica,sans-Serif" font-size="10.00">Poolable.generated.h</text>
</a>
</g>
</g>
<!-- Node45&#45;&gt;Node46 -->
<g id="edge60_Node000045_Node000046" class="edge">
<title>Node45&#45;&gt;Node46</title>
<g id="a_edge60_Node000045_Node000046"><a xlink:title=" ">
<path fill="none" stroke="#63b8ff" d="M1896.04,-55.55C1914.77,-46.26 1938.45,-34.52 1956.79,-25.42"/>
<polygon fill="#63b8ff" stroke="#63b8ff" points="1958.14,-28.66 1965.55,-21.08 1955.03,-22.39 1958.14,-28.66"/>
</a>
</g>
</g>
</g>
</svg>
