<?xml version="1.0" encoding="UTF-8" standalone="no"?>
<!DOCTYPE svg PUBLIC "-//W3C//DTD SVG 1.1//EN"
 "http://www.w3.org/Graphics/SVG/1.1/DTD/svg11.dtd">
<!-- Generated by graphviz version 13.1.1 (20250719.2154)
 -->
<!-- Title: C:/Users/user/Perforce/alz7_CobaltbruWorkspace_00/KPT/Source/KPT/AI/Boss/BossMonsterBase.h Pages: 1 -->
<svg width="1195pt" height="188pt"
 viewBox="0.00 0.00 1195.00 188.00" xmlns="http://www.w3.org/2000/svg" xmlns:xlink="http://www.w3.org/1999/xlink">
<g id="graph0" class="graph" transform="scale(1 1) rotate(0) translate(4 184)">
<title>C:/Users/user/Perforce/alz7_CobaltbruWorkspace_00/KPT/Source/KPT/AI/Boss/BossMonsterBase.h</title>
<!-- Node1 -->
<g id="Node000001" class="node">
<title>Node1</title>
<g id="a_Node000001"><a xlink:title=" ">
<polygon fill="#999999" stroke="#666666" points="680.5,-180 531.75,-180 531.75,-124 680.5,-124 680.5,-180"/>
<text xml:space="preserve" text-anchor="start" x="539.75" y="-166.5" font-family="Helvetica,sans-Serif" font-size="10.00">C:/Users/user/Perforce</text>
<text xml:space="preserve" text-anchor="start" x="539.75" y="-154.5" font-family="Helvetica,sans-Serif" font-size="10.00">/alz7_CobaltbruWorkspace</text>
<text xml:space="preserve" text-anchor="start" x="539.75" y="-142.5" font-family="Helvetica,sans-Serif" font-size="10.00">_00/KPT/Source/KPT/AI/Boss</text>
<text xml:space="preserve" text-anchor="middle" x="606.12" y="-130.5" font-family="Helvetica,sans-Serif" font-size="10.00">/BossMonsterBase.h</text>
</a>
</g>
</g>
<!-- Node2 -->
<g id="Node000002" class="node">
<title>Node2</title>
<g id="a_Node000002"><a xlink:title=" ">
<polygon fill="#e0e0e0" stroke="#999999" points="384.62,-20 305.62,-20 305.62,0 384.62,0 384.62,-20"/>
<text xml:space="preserve" text-anchor="middle" x="345.12" y="-6.5" font-family="Helvetica,sans-Serif" font-size="10.00">CoreMinimal.h</text>
</a>
</g>
</g>
<!-- Node1&#45;&gt;Node2 -->
<g id="edge1_Node000001_Node000002" class="edge">
<title>Node1&#45;&gt;Node2</title>
<g id="a_edge1_Node000001_Node000002"><a xlink:title=" ">
<path fill="none" stroke="#63b8ff" d="M531.5,-141.61C466.25,-131.79 378.38,-114.14 355.12,-88 341.64,-72.84 340.55,-48.88 341.95,-31.71"/>
<polygon fill="#63b8ff" stroke="#63b8ff" points="345.41,-32.25 343.12,-21.91 338.46,-31.42 345.41,-32.25"/>
</a>
</g>
</g>
<!-- Node3 -->
<g id="Node000003" class="node">
<title>Node3</title>
<g id="a_Node000003"><a xlink:title=" ">
<polygon fill="#e0e0e0" stroke="#999999" points="667.75,-82 544.5,-82 544.5,-62 667.75,-62 667.75,-82"/>
<text xml:space="preserve" text-anchor="middle" x="606.12" y="-68.5" font-family="Helvetica,sans-Serif" font-size="10.00">AbilitySystemInterface.h</text>
</a>
</g>
</g>
<!-- Node1&#45;&gt;Node3 -->
<g id="edge2_Node000001_Node000003" class="edge">
<title>Node1&#45;&gt;Node3</title>
<g id="a_edge2_Node000001_Node000003"><a xlink:title=" ">
<path fill="none" stroke="#63b8ff" d="M606.12,-123.72C606.12,-113.81 606.12,-102.79 606.12,-93.56"/>
<polygon fill="#63b8ff" stroke="#63b8ff" points="609.63,-93.87 606.13,-83.87 602.63,-93.87 609.63,-93.87"/>
</a>
</g>
</g>
<!-- Node4 -->
<g id="Node000004" class="node">
<title>Node4</title>
<g id="a_Node000004"><a xlink:title=" ">
<polygon fill="#e0e0e0" stroke="#999999" points="856,-82 686.25,-82 686.25,-62 856,-62 856,-82"/>
<text xml:space="preserve" text-anchor="middle" x="771.12" y="-68.5" font-family="Helvetica,sans-Serif" font-size="10.00">Components/TimelineComponent.h</text>
</a>
</g>
</g>
<!-- Node1&#45;&gt;Node4 -->
<g id="edge3_Node000001_Node000004" class="edge">
<title>Node1&#45;&gt;Node4</title>
<g id="a_edge3_Node000001_Node000004"><a xlink:title=" ">
<path fill="none" stroke="#63b8ff" d="M664.3,-123.5C690.06,-111.32 719.29,-97.51 740.65,-87.41"/>
<polygon fill="#63b8ff" stroke="#63b8ff" points="742.14,-90.58 749.68,-83.14 739.14,-84.25 742.14,-90.58"/>
</a>
</g>
</g>
<!-- Node5 -->
<g id="Node000005" class="node">
<title>Node5</title>
<g id="a_Node000005"><a xlink:href="_combat_interface_8h.html" target="_top" xlink:title=" ">
<polygon fill="white" stroke="#666666" points="526.25,-82 364,-82 364,-62 526.25,-62 526.25,-82"/>
<text xml:space="preserve" text-anchor="middle" x="445.12" y="-68.5" font-family="Helvetica,sans-Serif" font-size="10.00">Core/Interface/CombatInterface.h</text>
</a>
</g>
</g>
<!-- Node1&#45;&gt;Node5 -->
<g id="edge4_Node000001_Node000005" class="edge">
<title>Node1&#45;&gt;Node5</title>
<g id="a_edge4_Node000001_Node000005"><a xlink:title=" ">
<path fill="none" stroke="#63b8ff" d="M549.36,-123.5C524.23,-111.32 495.71,-97.51 474.86,-87.41"/>
<polygon fill="#63b8ff" stroke="#63b8ff" points="476.6,-84.36 466.08,-83.15 473.55,-90.66 476.6,-84.36"/>
</a>
</g>
</g>
<!-- Node8 -->
<g id="Node000008" class="node">
<title>Node8</title>
<g id="a_Node000008"><a xlink:href="_k_p_t_pausable_interface_8h.html" target="_top" xlink:title=" ">
<polygon fill="white" stroke="#666666" points="307.75,-88 166.5,-88 166.5,-56 307.75,-56 307.75,-88"/>
<text xml:space="preserve" text-anchor="start" x="174.5" y="-74.5" font-family="Helvetica,sans-Serif" font-size="10.00">Core/Interface/KPTPausable</text>
<text xml:space="preserve" text-anchor="middle" x="237.12" y="-62.5" font-family="Helvetica,sans-Serif" font-size="10.00">Interface.h</text>
</a>
</g>
</g>
<!-- Node1&#45;&gt;Node8 -->
<g id="edge8_Node000001_Node000008" class="edge">
<title>Node1&#45;&gt;Node8</title>
<g id="a_edge8_Node000001_Node000008"><a xlink:title=" ">
<path fill="none" stroke="#63b8ff" d="M531.45,-135.22C469.97,-122.22 382.89,-103.81 319.41,-90.39"/>
<polygon fill="#63b8ff" stroke="#63b8ff" points="320.23,-86.99 309.72,-88.35 318.78,-93.84 320.23,-86.99"/>
</a>
</g>
</g>
<!-- Node10 -->
<g id="Node000010" class="node">
<title>Node10</title>
<g id="a_Node000010"><a xlink:title=" ">
<polygon fill="#e0e0e0" stroke="#999999" points="1018.62,-82 873.62,-82 873.62,-62 1018.62,-62 1018.62,-82"/>
<text xml:space="preserve" text-anchor="middle" x="946.12" y="-68.5" font-family="Helvetica,sans-Serif" font-size="10.00">GameFramework/Character.h</text>
</a>
</g>
</g>
<!-- Node1&#45;&gt;Node10 -->
<g id="edge12_Node000001_Node000010" class="edge">
<title>Node1&#45;&gt;Node10</title>
<g id="a_edge12_Node000001_Node000010"><a xlink:title=" ">
<path fill="none" stroke="#63b8ff" d="M680.74,-133.88C745.25,-119.08 836.85,-98.07 893.82,-85"/>
<polygon fill="#63b8ff" stroke="#63b8ff" points="894.29,-88.48 903.26,-82.83 892.73,-81.66 894.29,-88.48"/>
</a>
</g>
</g>
<!-- Node11 -->
<g id="Node000011" class="node">
<title>Node11</title>
<g id="a_Node000011"><a xlink:title=" ">
<polygon fill="#e0e0e0" stroke="#999999" points="1187.25,-82 1037,-82 1037,-62 1187.25,-62 1187.25,-82"/>
<text xml:space="preserve" text-anchor="middle" x="1112.12" y="-68.5" font-family="Helvetica,sans-Serif" font-size="10.00">BossMonsterBase.generated.h</text>
</a>
</g>
</g>
<!-- Node1&#45;&gt;Node11 -->
<g id="edge13_Node000001_Node000011" class="edge">
<title>Node1&#45;&gt;Node11</title>
<g id="a_edge13_Node000001_Node000011"><a xlink:title=" ">
<path fill="none" stroke="#63b8ff" d="M680.93,-140.49C765.36,-128.47 906.78,-107.89 1028.12,-88 1035.03,-86.87 1042.25,-85.64 1049.43,-84.4"/>
<polygon fill="#63b8ff" stroke="#63b8ff" points="1049.9,-87.87 1059.14,-82.7 1048.69,-80.97 1049.9,-87.87"/>
</a>
</g>
</g>
<!-- Node5&#45;&gt;Node2 -->
<g id="edge5_Node000005_Node000002" class="edge">
<title>Node5&#45;&gt;Node2</title>
<g id="a_edge5_Node000005_Node000002"><a xlink:title=" ">
<path fill="none" stroke="#63b8ff" d="M429.5,-61.62C413.72,-52.16 389.09,-37.38 370.51,-26.23"/>
<polygon fill="#63b8ff" stroke="#63b8ff" points="372.31,-23.23 361.94,-21.09 368.71,-29.23 372.31,-23.23"/>
</a>
</g>
</g>
<!-- Node6 -->
<g id="Node000006" class="node">
<title>Node6</title>
<g id="a_Node000006"><a xlink:title=" ">
<polygon fill="#e0e0e0" stroke="#999999" points="287.88,-20 186.38,-20 186.38,0 287.88,0 287.88,-20"/>
<text xml:space="preserve" text-anchor="middle" x="237.12" y="-6.5" font-family="Helvetica,sans-Serif" font-size="10.00">UObject/Interface.h</text>
</a>
</g>
</g>
<!-- Node5&#45;&gt;Node6 -->
<g id="edge6_Node000005_Node000006" class="edge">
<title>Node5&#45;&gt;Node6</title>
<g id="a_edge6_Node000005_Node000006"><a xlink:title=" ">
<path fill="none" stroke="#63b8ff" d="M412.62,-61.62C377.09,-51.37 319.96,-34.9 280.59,-23.54"/>
<polygon fill="#63b8ff" stroke="#63b8ff" points="281.77,-20.24 271.19,-20.83 279.83,-26.96 281.77,-20.24"/>
</a>
</g>
</g>
<!-- Node7 -->
<g id="Node000007" class="node">
<title>Node7</title>
<g id="a_Node000007"><a xlink:title=" ">
<polygon fill="#e0e0e0" stroke="#999999" points="545.5,-20 402.75,-20 402.75,0 545.5,0 545.5,-20"/>
<text xml:space="preserve" text-anchor="middle" x="474.12" y="-6.5" font-family="Helvetica,sans-Serif" font-size="10.00">CombatInterface.generated.h</text>
</a>
</g>
</g>
<!-- Node5&#45;&gt;Node7 -->
<g id="edge7_Node000005_Node000007" class="edge">
<title>Node5&#45;&gt;Node7</title>
<g id="a_edge7_Node000005_Node000007"><a xlink:title=" ">
<path fill="none" stroke="#63b8ff" d="M449.66,-61.62C453.68,-53.3 459.69,-40.86 464.75,-30.4"/>
<polygon fill="#63b8ff" stroke="#63b8ff" points="467.86,-32 469.06,-21.48 461.56,-28.96 467.86,-32"/>
</a>
</g>
</g>
<!-- Node8&#45;&gt;Node2 -->
<g id="edge9_Node000008_Node000002" class="edge">
<title>Node8&#45;&gt;Node2</title>
<g id="a_edge9_Node000008_Node000002"><a xlink:title=" ">
<path fill="none" stroke="#63b8ff" d="M264.94,-55.55C281.34,-46.43 302,-34.96 318.25,-25.93"/>
<polygon fill="#63b8ff" stroke="#63b8ff" points="319.83,-29.06 326.87,-21.14 316.43,-22.94 319.83,-29.06"/>
</a>
</g>
</g>
<!-- Node8&#45;&gt;Node6 -->
<g id="edge10_Node000008_Node000006" class="edge">
<title>Node8&#45;&gt;Node6</title>
<g id="a_edge10_Node000008_Node000006"><a xlink:title=" ">
<path fill="none" stroke="#63b8ff" d="M237.12,-55.55C237.12,-48.34 237.12,-39.66 237.12,-31.88"/>
<polygon fill="#63b8ff" stroke="#63b8ff" points="240.63,-31.92 237.13,-21.92 233.63,-31.92 240.63,-31.92"/>
</a>
</g>
</g>
<!-- Node9 -->
<g id="Node000009" class="node">
<title>Node9</title>
<g id="a_Node000009"><a xlink:title=" ">
<polygon fill="#e0e0e0" stroke="#999999" points="168.25,-20 0,-20 0,0 168.25,0 168.25,-20"/>
<text xml:space="preserve" text-anchor="middle" x="84.12" y="-6.5" font-family="Helvetica,sans-Serif" font-size="10.00">KPTPausableInterface.generated.h</text>
</a>
</g>
</g>
<!-- Node8&#45;&gt;Node9 -->
<g id="edge11_Node000008_Node000009" class="edge">
<title>Node8&#45;&gt;Node9</title>
<g id="a_edge11_Node000008_Node000009"><a xlink:title=" ">
<path fill="none" stroke="#63b8ff" d="M197.72,-55.55C173.26,-45.96 142.13,-33.75 118.64,-24.54"/>
<polygon fill="#63b8ff" stroke="#63b8ff" points="120.11,-21.35 109.52,-20.96 117.56,-27.87 120.11,-21.35"/>
</a>
</g>
</g>
</g>
</svg>
