<?xml version="1.0" encoding="UTF-8" standalone="no"?>
<!DOCTYPE svg PUBLIC "-//W3C//DTD SVG 1.1//EN"
 "http://www.w3.org/Graphics/SVG/1.1/DTD/svg11.dtd">
<!-- Generated by graphviz version 13.1.1 (20250719.2154)
 -->
<!-- Title: C:/Users/user/Perforce/alz7_CobaltbruWorkspace_00/KPT/Source/KPT/Skill/GameplayEffect/BuffGameplayEffectBase.cpp Pages: 1 -->
<svg width="397pt" height="200pt"
 viewBox="0.00 0.00 397.00 200.00" xmlns="http://www.w3.org/2000/svg" xmlns:xlink="http://www.w3.org/1999/xlink">
<g id="graph0" class="graph" transform="scale(1 1) rotate(0) translate(4 196)">
<title>C:/Users/user/Perforce/alz7_CobaltbruWorkspace_00/KPT/Source/KPT/Skill/GameplayEffect/BuffGameplayEffectBase.cpp</title>
<!-- Node1 -->
<g id="Node000001" class="node">
<title>Node1</title>
<g id="a_Node000001"><a xlink:title=" ">
<polygon fill="#999999" stroke="#666666" points="233.88,-192 55.12,-192 55.12,-124 233.88,-124 233.88,-192"/>
<text xml:space="preserve" text-anchor="start" x="63.12" y="-178.5" font-family="Helvetica,sans-Serif" font-size="10.00">C:/Users/user/Perforce</text>
<text xml:space="preserve" text-anchor="start" x="63.12" y="-166.5" font-family="Helvetica,sans-Serif" font-size="10.00">/alz7_CobaltbruWorkspace</text>
<text xml:space="preserve" text-anchor="start" x="63.12" y="-154.5" font-family="Helvetica,sans-Serif" font-size="10.00">_00/KPT/Source/KPT/Skill</text>
<text xml:space="preserve" text-anchor="start" x="63.12" y="-142.5" font-family="Helvetica,sans-Serif" font-size="10.00">/GameplayEffect/BuffGameplayEffect</text>
<text xml:space="preserve" text-anchor="middle" x="144.5" y="-130.5" font-family="Helvetica,sans-Serif" font-size="10.00">Base.cpp</text>
</a>
</g>
</g>
<!-- Node2 -->
<g id="Node000002" class="node">
<title>Node2</title>
<g id="a_Node000002"><a xlink:href="_buff_gameplay_effect_base_8h.html" target="_top" xlink:title=" ">
<polygon fill="white" stroke="#666666" points="212.88,-88 76.12,-88 76.12,-56 212.88,-56 212.88,-88"/>
<text xml:space="preserve" text-anchor="start" x="84.12" y="-74.5" font-family="Helvetica,sans-Serif" font-size="10.00">Skill/GameplayEffect</text>
<text xml:space="preserve" text-anchor="middle" x="144.5" y="-62.5" font-family="Helvetica,sans-Serif" font-size="10.00">/BuffGameplayEffectBase.h</text>
</a>
</g>
</g>
<!-- Node1&#45;&gt;Node2 -->
<g id="edge1_Node000001_Node000002" class="edge">
<title>Node1&#45;&gt;Node2</title>
<g id="a_edge1_Node000001_Node000002"><a xlink:title=" ">
<path fill="none" stroke="#63b8ff" d="M144.5,-123.8C144.5,-115.74 144.5,-107.22 144.5,-99.51"/>
<polygon fill="#63b8ff" stroke="#63b8ff" points="148,-99.76 144.5,-89.76 141,-99.76 148,-99.76"/>
</a>
</g>
</g>
<!-- Node3 -->
<g id="Node000003" class="node">
<title>Node3</title>
<g id="a_Node000003"><a xlink:title=" ">
<polygon fill="#e0e0e0" stroke="#999999" points="79,-20 0,-20 0,0 79,0 79,-20"/>
<text xml:space="preserve" text-anchor="middle" x="39.5" y="-6.5" font-family="Helvetica,sans-Serif" font-size="10.00">CoreMinimal.h</text>
</a>
</g>
</g>
<!-- Node2&#45;&gt;Node3 -->
<g id="edge2_Node000002_Node000003" class="edge">
<title>Node2&#45;&gt;Node3</title>
<g id="a_edge2_Node000002_Node000003"><a xlink:title=" ">
<path fill="none" stroke="#63b8ff" d="M117.46,-55.55C101.51,-46.43 81.42,-34.96 65.63,-25.93"/>
<polygon fill="#63b8ff" stroke="#63b8ff" points="67.7,-23.08 57.28,-21.16 64.22,-29.16 67.7,-23.08"/>
</a>
</g>
</g>
<!-- Node4 -->
<g id="Node000004" class="node">
<title>Node4</title>
<g id="a_Node000004"><a xlink:title=" ">
<polygon fill="#e0e0e0" stroke="#999999" points="191.5,-20 97.5,-20 97.5,0 191.5,0 191.5,-20"/>
<text xml:space="preserve" text-anchor="middle" x="144.5" y="-6.5" font-family="Helvetica,sans-Serif" font-size="10.00">GameplayEffect.h</text>
</a>
</g>
</g>
<!-- Node2&#45;&gt;Node4 -->
<g id="edge3_Node000002_Node000004" class="edge">
<title>Node2&#45;&gt;Node4</title>
<g id="a_edge3_Node000002_Node000004"><a xlink:title=" ">
<path fill="none" stroke="#63b8ff" d="M144.5,-55.55C144.5,-48.34 144.5,-39.66 144.5,-31.88"/>
<polygon fill="#63b8ff" stroke="#63b8ff" points="148,-31.92 144.5,-21.92 141,-31.92 148,-31.92"/>
</a>
</g>
</g>
<!-- Node5 -->
<g id="Node000005" class="node">
<title>Node5</title>
<g id="a_Node000005"><a xlink:title=" ">
<polygon fill="#e0e0e0" stroke="#999999" points="389.25,-20 209.75,-20 209.75,0 389.25,0 389.25,-20"/>
<text xml:space="preserve" text-anchor="middle" x="299.5" y="-6.5" font-family="Helvetica,sans-Serif" font-size="10.00">BuffGameplayEffectBase.generated.h</text>
</a>
</g>
</g>
<!-- Node2&#45;&gt;Node5 -->
<g id="edge4_Node000002_Node000005" class="edge">
<title>Node2&#45;&gt;Node5</title>
<g id="a_edge4_Node000002_Node000005"><a xlink:title=" ">
<path fill="none" stroke="#63b8ff" d="M184.42,-55.55C209.2,-45.96 240.74,-33.75 264.53,-24.54"/>
<polygon fill="#63b8ff" stroke="#63b8ff" points="265.72,-27.83 273.78,-20.95 263.2,-21.3 265.72,-27.83"/>
</a>
</g>
</g>
</g>
</svg>
