<?xml version="1.0" encoding="UTF-8" standalone="no"?>
<!DOCTYPE svg PUBLIC "-//W3C//DTD SVG 1.1//EN"
 "http://www.w3.org/Graphics/SVG/1.1/DTD/svg11.dtd">
<!-- Generated by graphviz version 13.1.1 (20250719.2154)
 -->
<!-- Title: C:/Users/user/Perforce/alz7_CobaltbruWorkspace_00/KPT/Source/KPT/UI/Flat/ButtonFlatBase.cpp Pages: 1 -->
<!--zoomable 344 -->

<svg id="main" version="1.1" xmlns="http://www.w3.org/2000/svg" xmlns:xlink="http://www.w3.org/1999/xlink" xml:space="preserve" onload="init(evt)">

<style type="text/css"><![CDATA[
.node, .edge {opacity: 0.7;}
.node.selected, .edge.selected {opacity: 1;}
.edge:hover path { stroke: red; }
.edge:hover polygon { stroke: red; fill: red; }
]]></style>

<defs>
  <circle id="rim" cx="0" cy="0" r="7"/>
  <circle id="rim2" cx="0" cy="0" r="3.5"/>
  <g id="zoomPlus">
    <use xlink:href="#rim" fill="#404040"><set attributeName="fill" to="#808080" begin="zoomplus.mouseover" end="zoomplus.mouseout"/></use>
    <path d="M-4,0h8M0,-4v8" fill="none" stroke="white" stroke-width="1.5" pointer-events="none"/>
  </g>
  <g id="zoomMin">
    <use xlink:href="#rim" fill="#404040"><set attributeName="fill" to="#808080" begin="zoomminus.mouseover" end="zoomminus.mouseout"/></use>
    <path d="M-4,0h8" fill="none" stroke="white" stroke-width="1.5" pointer-events="none"/>
  </g>
  <g id="arrowUp" transform="translate(30 24)">
    <use xlink:href="#rim"/>
    <path pointer-events="none" fill="none" stroke="white" stroke-width="1.5" d="M0,-3.0v7 M-2.5,-0.5L0,-3.0L2.5,-0.5"/>
  </g>
  <g id="arrowRight" transform="rotate(90) translate(36 -43)">
    <use xlink:href="#rim"/>
    <path pointer-events="none" fill="none" stroke="white" stroke-width="1.5" d="M0,-3.0v7 M-2.5,-0.5L0,-3.0L2.5,-0.5"/>
  </g>
  <g id="arrowDown" transform="rotate(180) translate(-30 -48)">
    <use xlink:href="#rim"/>
    <path pointer-events="none" fill="none" stroke="white" stroke-width="1.5" d="M0,-3.0v7 M-2.5,-0.5L0,-3.0L2.5,-0.5"/>
  </g>
  <g id="arrowLeft" transform="rotate(270) translate(-36 17)">
    <use xlink:href="#rim"/>
    <path pointer-events="none" fill="none" stroke="white" stroke-width="1.5" d="M0,-3.0v7 M-2.5,-0.5L0,-3.0L2.5,-0.5"/>
  </g>
  <g id="resetDef">
    <use xlink:href="#rim2" fill="#404040"><set attributeName="fill" to="#808080" begin="reset.mouseover" end="reset.mouseout"/></use>
  </g>
</defs>
<script type="application/ecmascript">
var viewWidth = 1609;
var viewHeight = 344;
var sectionId = 'dynsection-0';
</script>
<script type="application/ecmascript" xlink:href="svg.min.js"/>
<svg id="graph" class="graph">
<g id="viewport">
<title>C:/Users/user/Perforce/alz7_CobaltbruWorkspace_00/KPT/Source/KPT/UI/Flat/ButtonFlatBase.cpp</title>
<!-- Node1 -->
<g id="Node000001" class="node">
<title>Node1</title>
<g id="a_Node000001"><a xlink:title=" ">
<polygon fill="#999999" stroke="#666666" points="593.38,-336 449.88,-336 449.88,-280 593.38,-280 593.38,-336"/>
<text xml:space="preserve" text-anchor="start" x="457.88" y="-322.5" font-family="Helvetica,sans-Serif" font-size="10.00">C:/Users/user/Perforce</text>
<text xml:space="preserve" text-anchor="start" x="457.88" y="-310.5" font-family="Helvetica,sans-Serif" font-size="10.00">/alz7_CobaltbruWorkspace</text>
<text xml:space="preserve" text-anchor="start" x="457.88" y="-298.5" font-family="Helvetica,sans-Serif" font-size="10.00">_00/KPT/Source/KPT/UI/Flat</text>
<text xml:space="preserve" text-anchor="middle" x="521.62" y="-286.5" font-family="Helvetica,sans-Serif" font-size="10.00">/ButtonFlatBase.cpp</text>
</a>
</g>
</g>
<!-- Node2 -->
<g id="Node000002" class="node">
<title>Node2</title>
<g id="a_Node000002"><a xlink:href="_button_flat_base_8h.html" target="_top" xlink:title=" ">
<polygon fill="white" stroke="#666666" points="380,-244 255.25,-244 255.25,-224 380,-224 380,-244"/>
<text xml:space="preserve" text-anchor="middle" x="317.62" y="-230.5" font-family="Helvetica,sans-Serif" font-size="10.00">UI/Flat/ButtonFlatBase.h</text>
</a>
</g>
</g>
<!-- Node1&#45;&gt;Node2 -->
<g id="edge1_Node000001_Node000002" class="edge">
<title>Node1&#45;&gt;Node2</title>
<g id="a_edge1_Node000001_Node000002"><a xlink:title=" ">
<path fill="none" stroke="#63b8ff" d="M449.42,-281.51C417.52,-270.26 381.37,-257.5 355.01,-248.19"/>
<polygon fill="#63b8ff" stroke="#63b8ff" points="356.37,-244.96 345.78,-244.94 354.04,-251.57 356.37,-244.96"/>
</a>
</g>
</g>
<!-- Node23 -->
<g id="Node000023" class="node">
<title>Node23</title>
<g id="a_Node000023"><a xlink:title=" ">
<polygon fill="#e0e0e0" stroke="#999999" points="509.25,-244 398,-244 398,-224 509.25,-224 509.25,-244"/>
<text xml:space="preserve" text-anchor="middle" x="453.62" y="-230.5" font-family="Helvetica,sans-Serif" font-size="10.00">Components/Button.h</text>
</a>
</g>
</g>
<!-- Node1&#45;&gt;Node23 -->
<g id="edge28_Node000001_Node000023" class="edge">
<title>Node1&#45;&gt;Node23</title>
<g id="a_edge28_Node000001_Node000023"><a xlink:title=" ">
<path fill="none" stroke="#63b8ff" d="M495.92,-279.78C487.39,-270.75 478.12,-260.94 470.44,-252.81"/>
<polygon fill="#63b8ff" stroke="#63b8ff" points="473.02,-250.44 463.61,-245.57 467.93,-255.25 473.02,-250.44"/>
</a>
</g>
</g>
<!-- Node24 -->
<g id="Node000024" class="node">
<title>Node24</title>
<g id="a_Node000024"><a xlink:title=" ">
<polygon fill="#e0e0e0" stroke="#999999" points="653.75,-244 527.5,-244 527.5,-224 653.75,-224 653.75,-244"/>
<text xml:space="preserve" text-anchor="middle" x="590.62" y="-230.5" font-family="Helvetica,sans-Serif" font-size="10.00">Components/TextBlock.h</text>
</a>
</g>
</g>
<!-- Node1&#45;&gt;Node24 -->
<g id="edge29_Node000001_Node000024" class="edge">
<title>Node1&#45;&gt;Node24</title>
<g id="a_edge29_Node000001_Node000024"><a xlink:title=" ">
<path fill="none" stroke="#63b8ff" d="M547.71,-279.78C556.46,-270.66 565.97,-260.73 573.81,-252.55"/>
<polygon fill="#63b8ff" stroke="#63b8ff" points="576.11,-255.21 580.5,-245.57 571.05,-250.36 576.11,-255.21"/>
</a>
</g>
</g>
<!-- Node25 -->
<g id="Node000025" class="node">
<title>Node25</title>
<g id="a_Node000025"><a xlink:title=" ">
<polygon fill="#e0e0e0" stroke="#999999" points="791.38,-244 671.88,-244 671.88,-224 791.38,-224 791.38,-244"/>
<text xml:space="preserve" text-anchor="middle" x="731.62" y="-230.5" font-family="Helvetica,sans-Serif" font-size="10.00">Components/SizeBox.h</text>
</a>
</g>
</g>
<!-- Node1&#45;&gt;Node25 -->
<g id="edge30_Node000001_Node000025" class="edge">
<title>Node1&#45;&gt;Node25</title>
<g id="a_edge30_Node000001_Node000025"><a xlink:title=" ">
<path fill="none" stroke="#63b8ff" d="M593.6,-282.32C626.99,-270.87 665.35,-257.72 693.14,-248.2"/>
<polygon fill="#63b8ff" stroke="#63b8ff" points="694.23,-251.52 702.55,-244.97 691.96,-244.9 694.23,-251.52"/>
</a>
</g>
</g>
<!-- Node3 -->
<g id="Node000003" class="node">
<title>Node3</title>
<g id="a_Node000003"><a xlink:title=" ">
<polygon fill="#e0e0e0" stroke="#999999" points="745.12,-20 666.12,-20 666.12,0 745.12,0 745.12,-20"/>
<text xml:space="preserve" text-anchor="middle" x="705.62" y="-6.5" font-family="Helvetica,sans-Serif" font-size="10.00">CoreMinimal.h</text>
</a>
</g>
</g>
<!-- Node2&#45;&gt;Node3 -->
<g id="edge2_Node000002_Node000003" class="edge">
<title>Node2&#45;&gt;Node3</title>
<g id="a_edge2_Node000002_Node000003"><a xlink:title=" ">
<path fill="none" stroke="#63b8ff" d="M313.02,-223.84C299.25,-194.96 261.91,-104.91 305.62,-56 328.49,-30.41 551.77,-17.6 654.44,-13.02"/>
<polygon fill="#63b8ff" stroke="#63b8ff" points="654.41,-16.52 664.25,-12.59 654.1,-9.53 654.41,-16.52"/>
</a>
</g>
</g>
<!-- Node4 -->
<g id="Node000004" class="node">
<title>Node4</title>
<g id="a_Node000004"><a xlink:href="_u_i_base_8h.html" target="_top" xlink:title=" ">
<polygon fill="white" stroke="#666666" points="412,-188 341.25,-188 341.25,-168 412,-168 412,-188"/>
<text xml:space="preserve" text-anchor="middle" x="376.62" y="-174.5" font-family="Helvetica,sans-Serif" font-size="10.00">UI/UIBase.h</text>
</a>
</g>
</g>
<!-- Node2&#45;&gt;Node4 -->
<g id="edge3_Node000002_Node000004" class="edge">
<title>Node2&#45;&gt;Node4</title>
<g id="a_edge3_Node000002_Node000004"><a xlink:title=" ">
<path fill="none" stroke="#63b8ff" d="M327.9,-223.59C336.19,-216.01 348.07,-205.13 358.03,-196.02"/>
<polygon fill="#63b8ff" stroke="#63b8ff" points="360.34,-198.65 365.35,-189.32 355.61,-193.49 360.34,-198.65"/>
</a>
</g>
</g>
<!-- Node5 -->
<g id="Node000005" class="node">
<title>Node5</title>
<g id="a_Node000005"><a xlink:title=" ">
<polygon fill="#e0e0e0" stroke="#999999" points="117.25,-20 0,-20 0,0 117.25,0 117.25,-20"/>
<text xml:space="preserve" text-anchor="middle" x="58.62" y="-6.5" font-family="Helvetica,sans-Serif" font-size="10.00">Blueprint/UserWidget.h</text>
</a>
</g>
</g>
<!-- Node2&#45;&gt;Node5 -->
<g id="edge26_Node000002_Node000005" class="edge">
<title>Node2&#45;&gt;Node5</title>
<g id="a_edge26_Node000002_Node000005"><a xlink:title=" ">
<path fill="none" stroke="#63b8ff" d="M294.94,-223.52C248.83,-203.16 143.43,-150.95 83.62,-76 73.23,-62.98 66.78,-45.14 63.05,-31.44"/>
<polygon fill="#63b8ff" stroke="#63b8ff" points="66.45,-30.65 60.69,-21.76 59.65,-32.3 66.45,-30.65"/>
</a>
</g>
</g>
<!-- Node22 -->
<g id="Node000022" class="node">
<title>Node22</title>
<g id="a_Node000022"><a xlink:title=" ">
<polygon fill="#e0e0e0" stroke="#999999" points="567.38,-188 429.88,-188 429.88,-168 567.38,-168 567.38,-188"/>
<text xml:space="preserve" text-anchor="middle" x="498.62" y="-174.5" font-family="Helvetica,sans-Serif" font-size="10.00">ButtonFlatBase.generated.h</text>
</a>
</g>
</g>
<!-- Node2&#45;&gt;Node22 -->
<g id="edge27_Node000002_Node000022" class="edge">
<title>Node2&#45;&gt;Node22</title>
<g id="a_edge27_Node000002_Node000022"><a xlink:title=" ">
<path fill="none" stroke="#63b8ff" d="M349.15,-223.59C378.82,-214.74 423.46,-201.43 456.23,-191.65"/>
<polygon fill="#63b8ff" stroke="#63b8ff" points="456.82,-195.13 465.4,-188.91 454.82,-188.42 456.82,-195.13"/>
</a>
</g>
</g>
<!-- Node4&#45;&gt;Node3 -->
<g id="edge4_Node000004_Node000003" class="edge">
<title>Node4&#45;&gt;Node3</title>
<g id="a_edge4_Node000004_Node000003"><a xlink:title=" ">
<path fill="none" stroke="#63b8ff" d="M412.12,-169.47C414.99,-168.95 417.85,-168.45 420.62,-168 546.86,-147.63 908.1,-175.32 988.62,-76 1035.36,-18.35 1150.52,-85.89 756.65,-20.29"/>
<polygon fill="#63b8ff" stroke="#63b8ff" points="757.39,-16.87 746.95,-18.67 756.23,-23.77 757.39,-16.87"/>
</a>
</g>
</g>
<!-- Node4&#45;&gt;Node5 -->
<g id="edge5_Node000004_Node000005" class="edge">
<title>Node4&#45;&gt;Node5</title>
<g id="a_edge5_Node000004_Node000005"><a xlink:title=" ">
<path fill="none" stroke="#63b8ff" d="M340.87,-170.29C286.2,-158.63 180.54,-130.51 107.62,-76 91.21,-63.73 77.67,-44.5 69.01,-30.13"/>
<polygon fill="#63b8ff" stroke="#63b8ff" points="72.14,-28.55 64.13,-21.61 66.06,-32.02 72.14,-28.55"/>
</a>
</g>
</g>
<!-- Node6 -->
<g id="Node000006" class="node">
<title>Node6</title>
<g id="a_Node000006"><a xlink:href="_u_i_manager_subsystem_8h.html" target="_top" xlink:title=" ">
<polygon fill="white" stroke="#666666" points="714.75,-132 552.5,-132 552.5,-112 714.75,-112 714.75,-132"/>
<text xml:space="preserve" text-anchor="middle" x="633.62" y="-118.5" font-family="Helvetica,sans-Serif" font-size="10.00">Manager/UIManagerSubsystem.h</text>
</a>
</g>
</g>
<!-- Node4&#45;&gt;Node6 -->
<g id="edge6_Node000004_Node000006" class="edge">
<title>Node4&#45;&gt;Node6</title>
<g id="a_edge6_Node000004_Node000006"><a xlink:title=" ">
<path fill="none" stroke="#63b8ff" d="M412.36,-169.49C455.19,-160.49 527.45,-145.31 577.69,-134.75"/>
<polygon fill="#63b8ff" stroke="#63b8ff" points="578.15,-138.23 587.21,-132.75 576.71,-131.38 578.15,-138.23"/>
</a>
</g>
</g>
<!-- Node21 -->
<g id="Node000021" class="node">
<title>Node21</title>
<g id="a_Node000021"><a xlink:title=" ">
<polygon fill="#e0e0e0" stroke="#999999" points="456.12,-132 353.12,-132 353.12,-112 456.12,-112 456.12,-132"/>
<text xml:space="preserve" text-anchor="middle" x="404.62" y="-118.5" font-family="Helvetica,sans-Serif" font-size="10.00">UIBase.generated.h</text>
</a>
</g>
</g>
<!-- Node4&#45;&gt;Node21 -->
<g id="edge25_Node000004_Node000021" class="edge">
<title>Node4&#45;&gt;Node21</title>
<g id="a_edge25_Node000004_Node000021"><a xlink:title=" ">
<path fill="none" stroke="#63b8ff" d="M381.5,-167.59C385.12,-160.63 390.17,-150.89 394.62,-142.29"/>
<polygon fill="#63b8ff" stroke="#63b8ff" points="397.61,-144.13 399.11,-133.64 391.4,-140.91 397.61,-144.13"/>
</a>
</g>
</g>
<!-- Node6&#45;&gt;Node3 -->
<g id="edge7_Node000006_Node000003" class="edge">
<title>Node6&#45;&gt;Node3</title>
<g id="a_edge7_Node000006_Node000003"><a xlink:title=" ">
<path fill="none" stroke="#63b8ff" d="M715.11,-121.56C801.66,-120.2 930.27,-111.95 961.62,-76 1006.48,-24.57 1086.8,-78.52 756.38,-20.29"/>
<polygon fill="#63b8ff" stroke="#63b8ff" points="757.41,-16.92 746.96,-18.61 756.19,-23.81 757.41,-16.92"/>
</a>
</g>
</g>
<!-- Node7 -->
<g id="Node000007" class="node">
<title>Node7</title>
<g id="a_Node000007"><a xlink:title=" ">
<polygon fill="#e0e0e0" stroke="#999999" points="496.88,-76 314.38,-76 314.38,-56 496.88,-56 496.88,-76"/>
<text xml:space="preserve" text-anchor="middle" x="405.62" y="-62.5" font-family="Helvetica,sans-Serif" font-size="10.00">Subsystems/LocalPlayerSubsystem.h</text>
</a>
</g>
</g>
<!-- Node6&#45;&gt;Node7 -->
<g id="edge8_Node000006_Node000007" class="edge">
<title>Node6&#45;&gt;Node7</title>
<g id="a_edge8_Node000006_Node000007"><a xlink:title=" ">
<path fill="none" stroke="#63b8ff" d="M593.65,-111.53C555.51,-102.5 497.9,-88.85 456.5,-79.05"/>
<polygon fill="#63b8ff" stroke="#63b8ff" points="457.56,-75.7 447.03,-76.81 455.95,-82.52 457.56,-75.7"/>
</a>
</g>
</g>
<!-- Node8 -->
<g id="Node000008" class="node">
<title>Node8</title>
<g id="a_Node000008"><a xlink:title=" ">
<polygon fill="#e0e0e0" stroke="#999999" points="618.12,-76 515.12,-76 515.12,-56 618.12,-56 618.12,-76"/>
<text xml:space="preserve" text-anchor="middle" x="566.62" y="-62.5" font-family="Helvetica,sans-Serif" font-size="10.00">Containers/Queue.h</text>
</a>
</g>
</g>
<!-- Node6&#45;&gt;Node8 -->
<g id="edge9_Node000006_Node000008" class="edge">
<title>Node6&#45;&gt;Node8</title>
<g id="a_edge9_Node000006_Node000008"><a xlink:title=" ">
<path fill="none" stroke="#63b8ff" d="M621.95,-111.59C612.35,-103.85 598.5,-92.69 587.06,-83.47"/>
<polygon fill="#63b8ff" stroke="#63b8ff" points="589.32,-80.8 579.34,-77.25 584.93,-86.25 589.32,-80.8"/>
</a>
</g>
</g>
<!-- Node9 -->
<g id="Node000009" class="node">
<title>Node9</title>
<g id="a_Node000009"><a xlink:href="_level_u_i_data_asset_8h.html" target="_top" xlink:title=" ">
<polygon fill="white" stroke="#666666" points="258.62,-76 116.62,-76 116.62,-56 258.62,-56 258.62,-76"/>
<text xml:space="preserve" text-anchor="middle" x="187.62" y="-62.5" font-family="Helvetica,sans-Serif" font-size="10.00">UI/Data/LevelUIDataAsset.h</text>
</a>
</g>
</g>
<!-- Node6&#45;&gt;Node9 -->
<g id="edge10_Node000006_Node000009" class="edge">
<title>Node6&#45;&gt;Node9</title>
<g id="a_edge10_Node000006_Node000009"><a xlink:title=" ">
<path fill="none" stroke="#63b8ff" d="M555.17,-111.5C475.2,-101.82 351.65,-86.86 270.21,-77"/>
<polygon fill="#63b8ff" stroke="#63b8ff" points="270.86,-73.55 260.51,-75.83 270.02,-80.5 270.86,-73.55"/>
</a>
</g>
</g>
<!-- Node12 -->
<g id="Node000012" class="node">
<title>Node12</title>
<g id="a_Node000012"><a xlink:title=" ">
<polygon fill="#e0e0e0" stroke="#999999" points="767,-76 636.25,-76 636.25,-56 767,-56 767,-76"/>
<text xml:space="preserve" text-anchor="middle" x="701.62" y="-62.5" font-family="Helvetica,sans-Serif" font-size="10.00">UObject/NoExportTypes.h</text>
</a>
</g>
</g>
<!-- Node6&#45;&gt;Node12 -->
<g id="edge15_Node000006_Node000012" class="edge">
<title>Node6&#45;&gt;Node12</title>
<g id="a_edge15_Node000006_Node000012"><a xlink:title=" ">
<path fill="none" stroke="#63b8ff" d="M645.47,-111.59C655.32,-103.77 669.56,-92.46 681.23,-83.19"/>
<polygon fill="#63b8ff" stroke="#63b8ff" points="683.08,-86.2 688.73,-77.24 678.72,-80.72 683.08,-86.2"/>
</a>
</g>
</g>
<!-- Node13 -->
<g id="Node000013" class="node">
<title>Node13</title>
<g id="a_Node000013"><a xlink:href="_item_base_8h.html" target="_top" xlink:title=" ">
<polygon fill="white" stroke="#666666" points="1135,-76 1046.25,-76 1046.25,-56 1135,-56 1135,-76"/>
<text xml:space="preserve" text-anchor="middle" x="1090.62" y="-62.5" font-family="Helvetica,sans-Serif" font-size="10.00">Item/ItemBase.h</text>
</a>
</g>
</g>
<!-- Node6&#45;&gt;Node13 -->
<g id="edge16_Node000006_Node000013" class="edge">
<title>Node6&#45;&gt;Node13</title>
<g id="a_edge16_Node000006_Node000013"><a xlink:title=" ">
<path fill="none" stroke="#63b8ff" d="M714.01,-111.5C806.04,-100.63 954.39,-83.1 1034.68,-73.61"/>
<polygon fill="#63b8ff" stroke="#63b8ff" points="1035,-77.1 1044.52,-72.45 1034.18,-70.15 1035,-77.1"/>
</a>
</g>
</g>
<!-- Node20 -->
<g id="Node000020" class="node">
<title>Node20</title>
<g id="a_Node000020"><a xlink:title=" ">
<polygon fill="#e0e0e0" stroke="#999999" points="952.38,-76 784.88,-76 784.88,-56 952.38,-56 952.38,-76"/>
<text xml:space="preserve" text-anchor="middle" x="868.62" y="-62.5" font-family="Helvetica,sans-Serif" font-size="10.00">UIManagerSubsystem.generated.h</text>
</a>
</g>
</g>
<!-- Node6&#45;&gt;Node20 -->
<g id="edge24_Node000006_Node000020" class="edge">
<title>Node6&#45;&gt;Node20</title>
<g id="a_edge24_Node000006_Node000020"><a xlink:title=" ">
<path fill="none" stroke="#63b8ff" d="M674.83,-111.53C714.22,-102.48 773.77,-88.8 816.46,-78.99"/>
<polygon fill="#63b8ff" stroke="#63b8ff" points="817.03,-82.45 825.99,-76.8 815.46,-75.62 817.03,-82.45"/>
</a>
</g>
</g>
<!-- Node9&#45;&gt;Node3 -->
<g id="edge11_Node000009_Node000003" class="edge">
<title>Node9&#45;&gt;Node3</title>
<g id="a_edge11_Node000009_Node000003"><a xlink:title=" ">
<path fill="none" stroke="#63b8ff" d="M259.04,-57.43C263.64,-56.94 268.2,-56.46 272.62,-56 410.54,-41.53 573.18,-24.69 654.27,-16.3"/>
<polygon fill="#63b8ff" stroke="#63b8ff" points="654.53,-19.8 664.12,-15.29 653.81,-12.83 654.53,-19.8"/>
</a>
</g>
</g>
<!-- Node9&#45;&gt;Node5 -->
<g id="edge13_Node000009_Node000005" class="edge">
<title>Node9&#45;&gt;Node5</title>
<g id="a_edge13_Node000009_Node000005"><a xlink:title=" ">
<path fill="none" stroke="#63b8ff" d="M165.15,-55.59C144.84,-47.09 114.67,-34.46 91.62,-24.81"/>
<polygon fill="#63b8ff" stroke="#63b8ff" points="93.24,-21.7 82.67,-21.06 90.54,-28.15 93.24,-21.7"/>
</a>
</g>
</g>
<!-- Node10 -->
<g id="Node000010" class="node">
<title>Node10</title>
<g id="a_Node000010"><a xlink:title=" ">
<polygon fill="#e0e0e0" stroke="#999999" points="239.5,-20 135.75,-20 135.75,0 239.5,0 239.5,-20"/>
<text xml:space="preserve" text-anchor="middle" x="187.62" y="-6.5" font-family="Helvetica,sans-Serif" font-size="10.00">Engine/DataAsset.h</text>
</a>
</g>
</g>
<!-- Node9&#45;&gt;Node10 -->
<g id="edge12_Node000009_Node000010" class="edge">
<title>Node9&#45;&gt;Node10</title>
<g id="a_edge12_Node000009_Node000010"><a xlink:title=" ">
<path fill="none" stroke="#63b8ff" d="M187.62,-55.59C187.62,-49.01 187.62,-39.96 187.62,-31.73"/>
<polygon fill="#63b8ff" stroke="#63b8ff" points="191.13,-31.81 187.63,-21.81 184.13,-31.81 191.13,-31.81"/>
</a>
</g>
</g>
<!-- Node11 -->
<g id="Node000011" class="node">
<title>Node11</title>
<g id="a_Node000011"><a xlink:title=" ">
<polygon fill="#e0e0e0" stroke="#999999" points="407.75,-20 257.5,-20 257.5,0 407.75,0 407.75,-20"/>
<text xml:space="preserve" text-anchor="middle" x="332.62" y="-6.5" font-family="Helvetica,sans-Serif" font-size="10.00">LevelUIDataAsset.generated.h</text>
</a>
</g>
</g>
<!-- Node9&#45;&gt;Node11 -->
<g id="edge14_Node000009_Node000011" class="edge">
<title>Node9&#45;&gt;Node11</title>
<g id="a_edge14_Node000009_Node000011"><a xlink:title=" ">
<path fill="none" stroke="#63b8ff" d="M212.88,-55.59C236.03,-46.97 270.55,-34.12 296.59,-24.42"/>
<polygon fill="#63b8ff" stroke="#63b8ff" points="297.6,-27.78 305.75,-21.01 295.16,-21.22 297.6,-27.78"/>
</a>
</g>
</g>
<!-- Node13&#45;&gt;Node3 -->
<g id="edge17_Node000013_Node000003" class="edge">
<title>Node13&#45;&gt;Node3</title>
<g id="a_edge17_Node000013_Node000003"><a xlink:title=" ">
<path fill="none" stroke="#63b8ff" d="M1045.99,-57.96C1041.48,-57.28 1036.96,-56.62 1032.62,-56 912.89,-38.96 879.64,-39.23 756.81,-20.27"/>
<polygon fill="#63b8ff" stroke="#63b8ff" points="757.36,-16.81 746.94,-18.73 756.28,-23.72 757.36,-16.81"/>
</a>
</g>
</g>
<!-- Node14 -->
<g id="Node000014" class="node">
<title>Node14</title>
<g id="a_Node000014"><a xlink:title=" ">
<polygon fill="#e0e0e0" stroke="#999999" points="1600.88,-20 1448.38,-20 1448.38,0 1600.88,0 1600.88,-20"/>
<text xml:space="preserve" text-anchor="middle" x="1524.62" y="-6.5" font-family="Helvetica,sans-Serif" font-size="10.00">ActiveGameplayEffectHandle.h</text>
</a>
</g>
</g>
<!-- Node13&#45;&gt;Node14 -->
<g id="edge18_Node000013_Node000014" class="edge">
<title>Node13&#45;&gt;Node14</title>
<g id="a_edge18_Node000013_Node000014"><a xlink:title=" ">
<path fill="none" stroke="#63b8ff" d="M1135.44,-59.42C1206.43,-50.59 1346.07,-33.22 1437.34,-21.86"/>
<polygon fill="#63b8ff" stroke="#63b8ff" points="1437.51,-25.37 1447,-20.66 1436.64,-18.42 1437.51,-25.37"/>
</a>
</g>
</g>
<!-- Node15 -->
<g id="Node000015" class="node">
<title>Node15</title>
<g id="a_Node000015"><a xlink:title=" ">
<polygon fill="#e0e0e0" stroke="#999999" points="839.62,-20 763.62,-20 763.62,0 839.62,0 839.62,-20"/>
<text xml:space="preserve" text-anchor="middle" x="801.62" y="-6.5" font-family="Helvetica,sans-Serif" font-size="10.00">AttributeSet.h</text>
</a>
</g>
</g>
<!-- Node13&#45;&gt;Node15 -->
<g id="edge19_Node000013_Node000015" class="edge">
<title>Node13&#45;&gt;Node15</title>
<g id="a_edge19_Node000013_Node000015"><a xlink:title=" ">
<path fill="none" stroke="#63b8ff" d="M1046.01,-56.78C999.72,-48.23 924.92,-34.37 850.99,-20.44"/>
<polygon fill="#63b8ff" stroke="#63b8ff" points="852.06,-17.08 841.58,-18.66 850.76,-23.96 852.06,-17.08"/>
</a>
</g>
</g>
<!-- Node16 -->
<g id="Node000016" class="node">
<title>Node16</title>
<g id="a_Node000016"><a xlink:title=" ">
<polygon fill="#e0e0e0" stroke="#999999" points="1006,-20 857.25,-20 857.25,0 1006,0 1006,-20"/>
<text xml:space="preserve" text-anchor="middle" x="931.62" y="-6.5" font-family="Helvetica,sans-Serif" font-size="10.00">GameplayAbilitySpecHandle.h</text>
</a>
</g>
</g>
<!-- Node13&#45;&gt;Node16 -->
<g id="edge20_Node000013_Node000016" class="edge">
<title>Node13&#45;&gt;Node16</title>
<g id="a_edge20_Node000013_Node000016"><a xlink:title=" ">
<path fill="none" stroke="#63b8ff" d="M1062.93,-55.59C1037.32,-46.9 999.02,-33.89 970.38,-24.16"/>
<polygon fill="#63b8ff" stroke="#63b8ff" points="971.56,-20.87 960.97,-20.97 969.31,-27.5 971.56,-20.87"/>
</a>
</g>
</g>
<!-- Node17 -->
<g id="Node000017" class="node">
<title>Node17</title>
<g id="a_Node000017"><a xlink:title=" ">
<polygon fill="#e0e0e0" stroke="#999999" points="1156.75,-20 1024.5,-20 1024.5,0 1156.75,0 1156.75,-20"/>
<text xml:space="preserve" text-anchor="middle" x="1090.62" y="-6.5" font-family="Helvetica,sans-Serif" font-size="10.00">Abilities/GameplayAbility.h</text>
</a>
</g>
</g>
<!-- Node13&#45;&gt;Node17 -->
<g id="edge21_Node000013_Node000017" class="edge">
<title>Node13&#45;&gt;Node17</title>
<g id="a_edge21_Node000013_Node000017"><a xlink:title=" ">
<path fill="none" stroke="#63b8ff" d="M1090.62,-55.59C1090.62,-49.01 1090.62,-39.96 1090.62,-31.73"/>
<polygon fill="#63b8ff" stroke="#63b8ff" points="1094.13,-31.81 1090.63,-21.81 1087.13,-31.81 1094.13,-31.81"/>
</a>
</g>
</g>
<!-- Node18 -->
<g id="Node000018" class="node">
<title>Node18</title>
<g id="a_Node000018"><a xlink:title=" ">
<polygon fill="#e0e0e0" stroke="#999999" points="1300.38,-20 1174.88,-20 1174.88,0 1300.38,0 1300.38,-20"/>
<text xml:space="preserve" text-anchor="middle" x="1237.62" y="-6.5" font-family="Helvetica,sans-Serif" font-size="10.00">GameFramework/Actor.h</text>
</a>
</g>
</g>
<!-- Node13&#45;&gt;Node18 -->
<g id="edge22_Node000013_Node000018" class="edge">
<title>Node13&#45;&gt;Node18</title>
<g id="a_edge22_Node000013_Node000018"><a xlink:title=" ">
<path fill="none" stroke="#63b8ff" d="M1116.23,-55.59C1139.69,-46.97 1174.69,-34.12 1201.09,-24.42"/>
<polygon fill="#63b8ff" stroke="#63b8ff" points="1202.22,-27.73 1210.4,-21 1199.81,-21.16 1202.22,-27.73"/>
</a>
</g>
</g>
<!-- Node19 -->
<g id="Node000019" class="node">
<title>Node19</title>
<g id="a_Node000019"><a xlink:title=" ">
<polygon fill="#e0e0e0" stroke="#999999" points="1430.62,-20 1318.62,-20 1318.62,0 1430.62,0 1430.62,-20"/>
<text xml:space="preserve" text-anchor="middle" x="1374.62" y="-6.5" font-family="Helvetica,sans-Serif" font-size="10.00">ItemBase.generated.h</text>
</a>
</g>
</g>
<!-- Node13&#45;&gt;Node19 -->
<g id="edge23_Node000013_Node000019" class="edge">
<title>Node13&#45;&gt;Node19</title>
<g id="a_edge23_Node000013_Node000019"><a xlink:title=" ">
<path fill="none" stroke="#63b8ff" d="M1135.31,-56.5C1183.44,-47.35 1260.3,-32.74 1313.88,-22.55"/>
<polygon fill="#63b8ff" stroke="#63b8ff" points="1314.29,-26.04 1323.46,-20.73 1312.98,-19.16 1314.29,-26.04"/>
</a>
</g>
</g>
</g>
</svg>

<g id="navigator" transform="translate(0 0)" fill="#404254">
  <rect fill="#f2f5e9" fill-opacity="0.5" stroke="#606060" stroke-width=".5" x="0" y="0" width="60" height="60"/>
  <use id="zoomplus" xlink:href="#zoomPlus" x="17" y="9" onmousedown="handleZoom(evt,'in')"/>
  <use id="zoomminus" xlink:href="#zoomMin" x="42" y="9" onmousedown="handleZoom(evt,'out')"/>
  <use id="reset" xlink:href="#resetDef" x="30" y="36" onmousedown="handleReset()"/>
   <use id="arrowup" xlink:href="#arrowUp" x="0" y="0" onmousedown="handlePan(0,-1)"/>
  <use id="arrowright" xlink:href="#arrowRight" x="0" y="0" onmousedown="handlePan(1,0)"/>
  <use id="arrowdown" xlink:href="#arrowDown" x="0" y="0" onmousedown="handlePan(0,1)"/>
  <use id="arrowleft" xlink:href="#arrowLeft" x="0" y="0" onmousedown="handlePan(-1,0)"/>
</g>
<svg viewBox="0 0 15 15" width="100%" height="30px" preserveAspectRatio="xMaxYMin meet">
 <g id="arrow_out" transform="scale(0.3 0.3)">
  <a xlink:href="_button_flat_base_8cpp__incl_org.svg" target="_base">
   <rect id="button" ry="5" rx="5" y="6" x="6" height="38" width="38"
        fill="#f2f5e9" fill-opacity="0.5" stroke="#606060" stroke-width="1.0"/>
   <path id="arrow"
     d="M 11.500037,31.436501 C 11.940474,20.09759 22.043105,11.32322 32.158766,21.979434 L 37.068811,17.246167 C 37.068811,17.246167 37.088388,32 37.088388,32 L 22.160133,31.978069 C 22.160133,31.978069 26.997745,27.140456 26.997745,27.140456 C 18.528582,18.264221 13.291696,25.230495 11.500037,31.436501 z"
     style="fill:#404040;"/>
  </a>
 </g>
</svg>

<style type='text/css'>
<![CDATA[
[data-mouse-over-selected='false'] { opacity: 0.7; }
[data-mouse-over-selected='true']  { opacity: 1.0; }
]]>
</style>
<script type="application/ecmascript"><![CDATA[
document.addEventListener('DOMContentLoaded', (event) => {
  highlightEdges();
  highlightAdjacentNodes();
});
]]></script>
</svg>
