<?xml version="1.0" encoding="UTF-8" standalone="no"?>
<!DOCTYPE svg PUBLIC "-//W3C//DTD SVG 1.1//EN"
 "http://www.w3.org/Graphics/SVG/1.1/DTD/svg11.dtd">
<!-- Generated by graphviz version 13.1.1 (20250719.2154)
 -->
<!-- Title: C:/Users/user/Perforce/alz7_CobaltbruWorkspace_00/KPT/Source/KPT/Character/CharacterBase.cpp Pages: 1 -->
<!--zoomable 256 -->

<svg id="main" version="1.1" xmlns="http://www.w3.org/2000/svg" xmlns:xlink="http://www.w3.org/1999/xlink" xml:space="preserve" onload="init(evt)">

<style type="text/css"><![CDATA[
.node, .edge {opacity: 0.7;}
.node.selected, .edge.selected {opacity: 1;}
.edge:hover path { stroke: red; }
.edge:hover polygon { stroke: red; fill: red; }
]]></style>

<defs>
  <circle id="rim" cx="0" cy="0" r="7"/>
  <circle id="rim2" cx="0" cy="0" r="3.5"/>
  <g id="zoomPlus">
    <use xlink:href="#rim" fill="#404040"><set attributeName="fill" to="#808080" begin="zoomplus.mouseover" end="zoomplus.mouseout"/></use>
    <path d="M-4,0h8M0,-4v8" fill="none" stroke="white" stroke-width="1.5" pointer-events="none"/>
  </g>
  <g id="zoomMin">
    <use xlink:href="#rim" fill="#404040"><set attributeName="fill" to="#808080" begin="zoomminus.mouseover" end="zoomminus.mouseout"/></use>
    <path d="M-4,0h8" fill="none" stroke="white" stroke-width="1.5" pointer-events="none"/>
  </g>
  <g id="arrowUp" transform="translate(30 24)">
    <use xlink:href="#rim"/>
    <path pointer-events="none" fill="none" stroke="white" stroke-width="1.5" d="M0,-3.0v7 M-2.5,-0.5L0,-3.0L2.5,-0.5"/>
  </g>
  <g id="arrowRight" transform="rotate(90) translate(36 -43)">
    <use xlink:href="#rim"/>
    <path pointer-events="none" fill="none" stroke="white" stroke-width="1.5" d="M0,-3.0v7 M-2.5,-0.5L0,-3.0L2.5,-0.5"/>
  </g>
  <g id="arrowDown" transform="rotate(180) translate(-30 -48)">
    <use xlink:href="#rim"/>
    <path pointer-events="none" fill="none" stroke="white" stroke-width="1.5" d="M0,-3.0v7 M-2.5,-0.5L0,-3.0L2.5,-0.5"/>
  </g>
  <g id="arrowLeft" transform="rotate(270) translate(-36 17)">
    <use xlink:href="#rim"/>
    <path pointer-events="none" fill="none" stroke="white" stroke-width="1.5" d="M0,-3.0v7 M-2.5,-0.5L0,-3.0L2.5,-0.5"/>
  </g>
  <g id="resetDef">
    <use xlink:href="#rim2" fill="#404040"><set attributeName="fill" to="#808080" begin="reset.mouseover" end="reset.mouseout"/></use>
  </g>
</defs>
<script type="application/ecmascript">
var viewWidth = 2192;
var viewHeight = 256;
var sectionId = 'dynsection-0';
</script>
<script type="application/ecmascript" xlink:href="svg.min.js"/>
<svg id="graph" class="graph">
<g id="viewport">
<title>C:/Users/user/Perforce/alz7_CobaltbruWorkspace_00/KPT/Source/KPT/Character/CharacterBase.cpp</title>
<!-- Node1 -->
<g id="Node000001" class="node">
<title>Node1</title>
<g id="a_Node000001"><a xlink:title=" ">
<polygon fill="#999999" stroke="#666666" points="1557.62,-248 1401.38,-248 1401.38,-192 1557.62,-192 1557.62,-248"/>
<text xml:space="preserve" text-anchor="start" x="1409.38" y="-234.5" font-family="Helvetica,sans-Serif" font-size="10.00">C:/Users/user/Perforce</text>
<text xml:space="preserve" text-anchor="start" x="1409.38" y="-222.5" font-family="Helvetica,sans-Serif" font-size="10.00">/alz7_CobaltbruWorkspace</text>
<text xml:space="preserve" text-anchor="start" x="1409.38" y="-210.5" font-family="Helvetica,sans-Serif" font-size="10.00">_00/KPT/Source/KPT/Character</text>
<text xml:space="preserve" text-anchor="middle" x="1479.5" y="-198.5" font-family="Helvetica,sans-Serif" font-size="10.00">/CharacterBase.cpp</text>
</a>
</g>
</g>
<!-- Node2 -->
<g id="Node000002" class="node">
<title>Node2</title>
<g id="a_Node000002"><a xlink:href="_character_base_8h.html" target="_top" xlink:title=" ">
<polygon fill="white" stroke="#666666" points="445.12,-150 309.88,-150 309.88,-130 445.12,-130 445.12,-150"/>
<text xml:space="preserve" text-anchor="middle" x="377.5" y="-136.5" font-family="Helvetica,sans-Serif" font-size="10.00">Character/CharacterBase.h</text>
</a>
</g>
</g>
<!-- Node1&#45;&gt;Node2 -->
<g id="edge1_Node000001_Node000002" class="edge">
<title>Node1&#45;&gt;Node2</title>
<g id="a_edge1_Node000001_Node000002"><a xlink:title=" ">
<path fill="none" stroke="#63b8ff" d="M1401.13,-213.45C1198.78,-199.13 660.45,-161.03 456.93,-146.62"/>
<polygon fill="#63b8ff" stroke="#63b8ff" points="457.19,-143.13 446.97,-145.92 456.7,-150.11 457.19,-143.13"/>
</a>
</g>
</g>
<!-- Node7 -->
<g id="Node000007" class="node">
<title>Node7</title>
<g id="a_Node000007"><a xlink:title=" ">
<polygon fill="#e0e0e0" stroke="#999999" points="1907.12,-20 1771.88,-20 1771.88,0 1907.12,0 1907.12,-20"/>
<text xml:space="preserve" text-anchor="middle" x="1839.5" y="-6.5" font-family="Helvetica,sans-Serif" font-size="10.00">AbilitySystemComponent.h</text>
</a>
</g>
</g>
<!-- Node1&#45;&gt;Node7 -->
<g id="edge6_Node000001_Node000007" class="edge">
<title>Node1&#45;&gt;Node7</title>
<g id="a_edge6_Node000001_Node000007"><a xlink:title=" ">
<path fill="none" stroke="#63b8ff" d="M1557.96,-209.38C1628.79,-199.24 1726.24,-181.24 1755.5,-156 1791.63,-124.84 1768.41,-95.94 1794.5,-56 1801.32,-45.56 1810.86,-35.59 1819.41,-27.69"/>
<polygon fill="#63b8ff" stroke="#63b8ff" points="1821.49,-30.53 1826.67,-21.29 1816.85,-25.28 1821.49,-30.53"/>
</a>
</g>
</g>
<!-- Node8 -->
<g id="Node000008" class="node">
<title>Node8</title>
<g id="a_Node000008"><a xlink:href="_k_p_t_player_state_8h.html" target="_top" xlink:title=" ">
<polygon fill="white" stroke="#666666" points="912.88,-150 818.12,-150 818.12,-130 912.88,-130 912.88,-150"/>
<text xml:space="preserve" text-anchor="middle" x="865.5" y="-136.5" font-family="Helvetica,sans-Serif" font-size="10.00">KPTPlayerState.h</text>
</a>
</g>
</g>
<!-- Node1&#45;&gt;Node8 -->
<g id="edge7_Node000001_Node000008" class="edge">
<title>Node1&#45;&gt;Node8</title>
<g id="a_edge7_Node000001_Node000008"><a xlink:title=" ">
<path fill="none" stroke="#63b8ff" d="M1401.11,-209.04C1276.37,-193.2 1035.46,-162.59 924.31,-148.47"/>
<polygon fill="#63b8ff" stroke="#63b8ff" points="924.87,-145.01 914.51,-147.23 923.99,-151.96 924.87,-145.01"/>
</a>
</g>
</g>
<!-- Node15 -->
<g id="Node000015" class="node">
<title>Node15</title>
<g id="a_Node000015"><a xlink:title=" ">
<polygon fill="#e0e0e0" stroke="#999999" points="1508,-150 1339,-150 1339,-130 1508,-130 1508,-150"/>
<text xml:space="preserve" text-anchor="middle" x="1423.5" y="-136.5" font-family="Helvetica,sans-Serif" font-size="10.00">Components/CapsuleComponent.h</text>
</a>
</g>
</g>
<!-- Node1&#45;&gt;Node15 -->
<g id="edge17_Node000001_Node000015" class="edge">
<title>Node1&#45;&gt;Node15</title>
<g id="a_edge17_Node000001_Node000015"><a xlink:title=" ">
<path fill="none" stroke="#63b8ff" d="M1459.91,-191.72C1452.32,-181.14 1443.81,-169.29 1436.93,-159.7"/>
<polygon fill="#63b8ff" stroke="#63b8ff" points="1439.78,-157.67 1431.1,-151.59 1434.09,-161.75 1439.78,-157.67"/>
</a>
</g>
</g>
<!-- Node16 -->
<g id="Node000016" class="node">
<title>Node16</title>
<g id="a_Node000016"><a xlink:href="_k_p_t_in_game_mode_8h.html" target="_top" xlink:title=" ">
<polygon fill="white" stroke="#666666" points="1320.62,-150 1194.38,-150 1194.38,-130 1320.62,-130 1320.62,-150"/>
<text xml:space="preserve" text-anchor="middle" x="1257.5" y="-136.5" font-family="Helvetica,sans-Serif" font-size="10.00">Core/KPTInGameMode.h</text>
</a>
</g>
</g>
<!-- Node1&#45;&gt;Node16 -->
<g id="edge18_Node000001_Node000016" class="edge">
<title>Node1&#45;&gt;Node16</title>
<g id="a_edge18_Node000001_Node000016"><a xlink:title=" ">
<path fill="none" stroke="#63b8ff" d="M1401.23,-191.5C1365.15,-178.82 1323.99,-164.36 1294.99,-154.17"/>
<polygon fill="#63b8ff" stroke="#63b8ff" points="1296.53,-151.01 1285.94,-150.99 1294.21,-157.61 1296.53,-151.01"/>
</a>
</g>
</g>
<!-- Node19 -->
<g id="Node000019" class="node">
<title>Node19</title>
<g id="a_Node000019"><a xlink:title=" ">
<polygon fill="#e0e0e0" stroke="#999999" points="1746.75,-156 1564.25,-156 1564.25,-124 1746.75,-124 1746.75,-156"/>
<text xml:space="preserve" text-anchor="start" x="1572.25" y="-142.5" font-family="Helvetica,sans-Serif" font-size="10.00">GameFramework/CharacterMovement</text>
<text xml:space="preserve" text-anchor="middle" x="1655.5" y="-130.5" font-family="Helvetica,sans-Serif" font-size="10.00">Component.h</text>
</a>
</g>
</g>
<!-- Node1&#45;&gt;Node19 -->
<g id="edge22_Node000001_Node000019" class="edge">
<title>Node1&#45;&gt;Node19</title>
<g id="a_edge22_Node000001_Node000019"><a xlink:title=" ">
<path fill="none" stroke="#63b8ff" d="M1541.55,-191.5C1564.14,-181.49 1589.23,-170.37 1610.1,-161.12"/>
<polygon fill="#63b8ff" stroke="#63b8ff" points="1611.49,-164.33 1619.22,-157.08 1608.66,-157.93 1611.49,-164.33"/>
</a>
</g>
</g>
<!-- Node20 -->
<g id="Node000020" class="node">
<title>Node20</title>
<g id="a_Node000020"><a xlink:href="_k_p_t_ability_system_component_8h.html" target="_top" xlink:title=" ">
<polygon fill="white" stroke="#666666" points="1746.5,-82 1568.5,-82 1568.5,-62 1746.5,-62 1746.5,-82"/>
<text xml:space="preserve" text-anchor="middle" x="1657.5" y="-68.5" font-family="Helvetica,sans-Serif" font-size="10.00">GAS/KPTAbilitySystemComponent.h</text>
</a>
</g>
</g>
<!-- Node1&#45;&gt;Node20 -->
<g id="edge23_Node000001_Node000020" class="edge">
<title>Node1&#45;&gt;Node20</title>
<g id="a_edge23_Node000001_Node000020"><a xlink:title=" ">
<path fill="none" stroke="#63b8ff" d="M1496.54,-191.77C1510.46,-171.17 1531.68,-143.25 1555.5,-124 1575.08,-108.17 1600.37,-95.49 1620.87,-86.73"/>
<polygon fill="#63b8ff" stroke="#63b8ff" points="1622.09,-90.01 1630,-82.96 1619.42,-83.54 1622.09,-90.01"/>
</a>
</g>
</g>
<!-- Node22 -->
<g id="Node000022" class="node">
<title>Node22</title>
<g id="a_Node000022"><a xlink:href="_k_p_t_player_attribute_set_8h.html" target="_top" xlink:title=" ">
<polygon fill="white" stroke="#666666" points="1961.12,-150 1813.88,-150 1813.88,-130 1961.12,-130 1961.12,-150"/>
<text xml:space="preserve" text-anchor="middle" x="1887.5" y="-136.5" font-family="Helvetica,sans-Serif" font-size="10.00">GAS/KPTPlayerAttributeSet.h</text>
</a>
</g>
</g>
<!-- Node1&#45;&gt;Node22 -->
<g id="edge27_Node000001_Node000022" class="edge">
<title>Node1&#45;&gt;Node22</title>
<g id="a_edge27_Node000001_Node000022"><a xlink:title=" ">
<path fill="none" stroke="#63b8ff" d="M1557.68,-204.05C1636.09,-189.06 1755.19,-166.29 1826.77,-152.61"/>
<polygon fill="#63b8ff" stroke="#63b8ff" points="1827.18,-156.1 1836.35,-150.78 1825.87,-149.22 1827.18,-156.1"/>
</a>
</g>
</g>
<!-- Node3 -->
<g id="Node000003" class="node">
<title>Node3</title>
<g id="a_Node000003"><a xlink:title=" ">
<polygon fill="#e0e0e0" stroke="#999999" points="1536,-20 1457,-20 1457,0 1536,0 1536,-20"/>
<text xml:space="preserve" text-anchor="middle" x="1496.5" y="-6.5" font-family="Helvetica,sans-Serif" font-size="10.00">CoreMinimal.h</text>
</a>
</g>
</g>
<!-- Node2&#45;&gt;Node3 -->
<g id="edge2_Node000002_Node000003" class="edge">
<title>Node2&#45;&gt;Node3</title>
<g id="a_edge2_Node000002_Node000003"><a xlink:title=" ">
<path fill="none" stroke="#63b8ff" d="M445.27,-131.69C490.27,-124.85 549.64,-111.94 597.5,-88 617.25,-78.12 614.96,-64.11 635.5,-56 710.65,-26.33 1271.5,-14.7 1445.31,-11.78"/>
<polygon fill="#63b8ff" stroke="#63b8ff" points="1445.21,-15.28 1455.15,-11.62 1445.09,-8.29 1445.21,-15.28"/>
</a>
</g>
</g>
<!-- Node4 -->
<g id="Node000004" class="node">
<title>Node4</title>
<g id="a_Node000004"><a xlink:title=" ">
<polygon fill="#e0e0e0" stroke="#999999" points="439.12,-82 315.88,-82 315.88,-62 439.12,-62 439.12,-82"/>
<text xml:space="preserve" text-anchor="middle" x="377.5" y="-68.5" font-family="Helvetica,sans-Serif" font-size="10.00">AbilitySystemInterface.h</text>
</a>
</g>
</g>
<!-- Node2&#45;&gt;Node4 -->
<g id="edge3_Node000002_Node000004" class="edge">
<title>Node2&#45;&gt;Node4</title>
<g id="a_edge3_Node000002_Node000004"><a xlink:title=" ">
<path fill="none" stroke="#63b8ff" d="M377.5,-129.54C377.5,-120.23 377.5,-105.7 377.5,-93.7"/>
<polygon fill="#63b8ff" stroke="#63b8ff" points="381,-93.95 377.5,-83.95 374,-93.95 381,-93.95"/>
</a>
</g>
</g>
<!-- Node5 -->
<g id="Node000005" class="node">
<title>Node5</title>
<g id="a_Node000005"><a xlink:title=" ">
<polygon fill="#e0e0e0" stroke="#999999" points="145,-82 0,-82 0,-62 145,-62 145,-82"/>
<text xml:space="preserve" text-anchor="middle" x="72.5" y="-68.5" font-family="Helvetica,sans-Serif" font-size="10.00">GameFramework/Character.h</text>
</a>
</g>
</g>
<!-- Node2&#45;&gt;Node5 -->
<g id="edge4_Node000002_Node000005" class="edge">
<title>Node2&#45;&gt;Node5</title>
<g id="a_edge4_Node000002_Node000005"><a xlink:title=" ">
<path fill="none" stroke="#63b8ff" d="M333.8,-129.54C279.33,-117.76 186.22,-97.61 127.1,-84.82"/>
<polygon fill="#63b8ff" stroke="#63b8ff" points="128.11,-81.45 117.6,-82.76 126.63,-88.29 128.11,-81.45"/>
</a>
</g>
</g>
<!-- Node6 -->
<g id="Node000006" class="node">
<title>Node6</title>
<g id="a_Node000006"><a xlink:title=" ">
<polygon fill="#e0e0e0" stroke="#999999" points="298.12,-82 162.88,-82 162.88,-62 298.12,-62 298.12,-82"/>
<text xml:space="preserve" text-anchor="middle" x="230.5" y="-68.5" font-family="Helvetica,sans-Serif" font-size="10.00">CharacterBase.generated.h</text>
</a>
</g>
</g>
<!-- Node2&#45;&gt;Node6 -->
<g id="edge5_Node000002_Node000006" class="edge">
<title>Node2&#45;&gt;Node6</title>
<g id="a_edge5_Node000002_Node000006"><a xlink:title=" ">
<path fill="none" stroke="#63b8ff" d="M356.44,-129.54C331.66,-118.42 290.29,-99.84 261.76,-87.04"/>
<polygon fill="#63b8ff" stroke="#63b8ff" points="263.46,-83.96 252.9,-83.06 260.59,-90.35 263.46,-83.96"/>
</a>
</g>
</g>
<!-- Node8&#45;&gt;Node3 -->
<g id="edge8_Node000008_Node000003" class="edge">
<title>Node8&#45;&gt;Node3</title>
<g id="a_edge8_Node000008_Node000003"><a xlink:title=" ">
<path fill="none" stroke="#63b8ff" d="M913.13,-135.97C964,-131.18 1045.88,-118.97 1109.5,-88 1129.35,-78.34 1127.29,-64.88 1147.5,-56 1199.78,-33.02 1361.84,-19.61 1445.44,-14.04"/>
<polygon fill="#63b8ff" stroke="#63b8ff" points="1445.44,-17.55 1455.19,-13.41 1444.99,-10.56 1445.44,-17.55"/>
</a>
</g>
</g>
<!-- Node8&#45;&gt;Node4 -->
<g id="edge9_Node000008_Node000004" class="edge">
<title>Node8&#45;&gt;Node4</title>
<g id="a_edge9_Node000008_Node000004"><a xlink:title=" ">
<path fill="none" stroke="#63b8ff" d="M817.66,-134.57C739.78,-127.05 580.88,-110.38 447.5,-88 441.6,-87.01 435.45,-85.86 429.34,-84.65"/>
<polygon fill="#63b8ff" stroke="#63b8ff" points="430.45,-81.31 419.95,-82.73 429.04,-88.16 430.45,-81.31"/>
</a>
</g>
</g>
<!-- Node9 -->
<g id="Node000009" class="node">
<title>Node9</title>
<g id="a_Node000009"><a xlink:title=" ">
<polygon fill="#e0e0e0" stroke="#999999" points="928.62,-82 802.38,-82 802.38,-62 928.62,-62 928.62,-82"/>
<text xml:space="preserve" text-anchor="middle" x="865.5" y="-68.5" font-family="Helvetica,sans-Serif" font-size="10.00">GameplayTagContainer.h</text>
</a>
</g>
</g>
<!-- Node8&#45;&gt;Node9 -->
<g id="edge10_Node000008_Node000009" class="edge">
<title>Node8&#45;&gt;Node9</title>
<g id="a_edge10_Node000008_Node000009"><a xlink:title=" ">
<path fill="none" stroke="#63b8ff" d="M865.5,-129.54C865.5,-120.23 865.5,-105.7 865.5,-93.7"/>
<polygon fill="#63b8ff" stroke="#63b8ff" points="869,-93.95 865.5,-83.95 862,-93.95 869,-93.95"/>
</a>
</g>
</g>
<!-- Node10 -->
<g id="Node000010" class="node">
<title>Node10</title>
<g id="a_Node000010"><a xlink:href="_component_owner_interface_8h.html" target="_top" xlink:title=" ">
<polygon fill="white" stroke="#666666" points="588.25,-88 456.75,-88 456.75,-56 588.25,-56 588.25,-88"/>
<text xml:space="preserve" text-anchor="start" x="464.75" y="-74.5" font-family="Helvetica,sans-Serif" font-size="10.00">Core/Interface/Component</text>
<text xml:space="preserve" text-anchor="middle" x="522.5" y="-62.5" font-family="Helvetica,sans-Serif" font-size="10.00">OwnerInterface.h</text>
</a>
</g>
</g>
<!-- Node8&#45;&gt;Node10 -->
<g id="edge11_Node000008_Node000010" class="edge">
<title>Node8&#45;&gt;Node10</title>
<g id="a_edge11_Node000008_Node000010"><a xlink:title=" ">
<path fill="none" stroke="#63b8ff" d="M817.81,-129.82C761.31,-118.95 666.43,-100.7 599.49,-87.81"/>
<polygon fill="#63b8ff" stroke="#63b8ff" points="600.55,-84.45 590.07,-86 599.23,-91.33 600.55,-84.45"/>
</a>
</g>
</g>
<!-- Node13 -->
<g id="Node000013" class="node">
<title>Node13</title>
<g id="a_Node000013"><a xlink:title=" ">
<polygon fill="#e0e0e0" stroke="#999999" points="1100.12,-82 946.88,-82 946.88,-62 1100.12,-62 1100.12,-82"/>
<text xml:space="preserve" text-anchor="middle" x="1023.5" y="-68.5" font-family="Helvetica,sans-Serif" font-size="10.00">GameFramework/PlayerState.h</text>
</a>
</g>
</g>
<!-- Node8&#45;&gt;Node13 -->
<g id="edge15_Node000008_Node000013" class="edge">
<title>Node8&#45;&gt;Node13</title>
<g id="a_edge15_Node000008_Node000013"><a xlink:title=" ">
<path fill="none" stroke="#63b8ff" d="M888.14,-129.54C914.89,-118.37 959.63,-99.68 990.3,-86.87"/>
<polygon fill="#63b8ff" stroke="#63b8ff" points="991.63,-90.11 999.51,-83.02 988.93,-83.65 991.63,-90.11"/>
</a>
</g>
</g>
<!-- Node14 -->
<g id="Node000014" class="node">
<title>Node14</title>
<g id="a_Node000014"><a xlink:title=" ">
<polygon fill="#e0e0e0" stroke="#999999" points="784.75,-82 644.25,-82 644.25,-62 784.75,-62 784.75,-82"/>
<text xml:space="preserve" text-anchor="middle" x="714.5" y="-68.5" font-family="Helvetica,sans-Serif" font-size="10.00">KPTPlayerState.generated.h</text>
</a>
</g>
</g>
<!-- Node8&#45;&gt;Node14 -->
<g id="edge16_Node000008_Node000014" class="edge">
<title>Node8&#45;&gt;Node14</title>
<g id="a_edge16_Node000008_Node000014"><a xlink:title=" ">
<path fill="none" stroke="#63b8ff" d="M843.87,-129.54C818.41,-118.42 775.92,-99.84 746.62,-87.04"/>
<polygon fill="#63b8ff" stroke="#63b8ff" points="748.05,-83.84 737.48,-83.04 745.24,-90.26 748.05,-83.84"/>
</a>
</g>
</g>
<!-- Node10&#45;&gt;Node3 -->
<g id="edge12_Node000010_Node000003" class="edge">
<title>Node10&#45;&gt;Node3</title>
<g id="a_edge12_Node000010_Node000003"><a xlink:title=" ">
<path fill="none" stroke="#63b8ff" d="M588.75,-57.87C593.39,-57.16 598.01,-56.53 602.5,-56 921.53,-18.24 1308.28,-12.12 1445.34,-11.16"/>
<polygon fill="#63b8ff" stroke="#63b8ff" points="1445.19,-14.66 1455.17,-11.1 1445.15,-7.66 1445.19,-14.66"/>
</a>
</g>
</g>
<!-- Node11 -->
<g id="Node000011" class="node">
<title>Node11</title>
<g id="a_Node000011"><a xlink:title=" ">
<polygon fill="#e0e0e0" stroke="#999999" points="654.25,-20 552.75,-20 552.75,0 654.25,0 654.25,-20"/>
<text xml:space="preserve" text-anchor="middle" x="603.5" y="-6.5" font-family="Helvetica,sans-Serif" font-size="10.00">UObject/Interface.h</text>
</a>
</g>
</g>
<!-- Node10&#45;&gt;Node11 -->
<g id="edge13_Node000010_Node000011" class="edge">
<title>Node10&#45;&gt;Node11</title>
<g id="a_edge13_Node000010_Node000011"><a xlink:title=" ">
<path fill="none" stroke="#63b8ff" d="M543.36,-55.55C555.08,-46.87 569.69,-36.04 581.58,-27.24"/>
<polygon fill="#63b8ff" stroke="#63b8ff" points="583.63,-30.07 589.58,-21.31 579.46,-24.45 583.63,-30.07"/>
</a>
</g>
</g>
<!-- Node12 -->
<g id="Node000012" class="node">
<title>Node12</title>
<g id="a_Node000012"><a xlink:title=" ">
<polygon fill="#e0e0e0" stroke="#999999" points="535,-20 348,-20 348,0 535,0 535,-20"/>
<text xml:space="preserve" text-anchor="middle" x="441.5" y="-6.5" font-family="Helvetica,sans-Serif" font-size="10.00">ComponentOwnerInterface.generated.h</text>
</a>
</g>
</g>
<!-- Node10&#45;&gt;Node12 -->
<g id="edge14_Node000010_Node000012" class="edge">
<title>Node10&#45;&gt;Node12</title>
<g id="a_edge14_Node000010_Node000012"><a xlink:title=" ">
<path fill="none" stroke="#63b8ff" d="M501.64,-55.55C489.92,-46.87 475.31,-36.04 463.42,-27.24"/>
<polygon fill="#63b8ff" stroke="#63b8ff" points="465.54,-24.45 455.42,-21.31 461.37,-30.07 465.54,-24.45"/>
</a>
</g>
</g>
<!-- Node16&#45;&gt;Node3 -->
<g id="edge19_Node000016_Node000003" class="edge">
<title>Node16&#45;&gt;Node3</title>
<g id="a_edge19_Node000016_Node000003"><a xlink:title=" ">
<path fill="none" stroke="#63b8ff" d="M1302.45,-129.51C1367.45,-115.7 1480.35,-91.32 1483.5,-88 1497.53,-73.18 1499.56,-49.16 1498.84,-31.89"/>
<polygon fill="#63b8ff" stroke="#63b8ff" points="1502.34,-31.7 1498.06,-22 1495.36,-32.25 1502.34,-31.7"/>
</a>
</g>
</g>
<!-- Node17 -->
<g id="Node000017" class="node">
<title>Node17</title>
<g id="a_Node000017"><a xlink:title=" ">
<polygon fill="#e0e0e0" stroke="#999999" points="1308.75,-82 1156.25,-82 1156.25,-62 1308.75,-62 1308.75,-82"/>
<text xml:space="preserve" text-anchor="middle" x="1232.5" y="-68.5" font-family="Helvetica,sans-Serif" font-size="10.00">GameFramework/GameMode.h</text>
</a>
</g>
</g>
<!-- Node16&#45;&gt;Node17 -->
<g id="edge20_Node000016_Node000017" class="edge">
<title>Node16&#45;&gt;Node17</title>
<g id="a_edge20_Node000016_Node000017"><a xlink:title=" ">
<path fill="none" stroke="#63b8ff" d="M1253.92,-129.54C1250.32,-120.04 1244.65,-105.09 1240.06,-92.95"/>
<polygon fill="#63b8ff" stroke="#63b8ff" points="1243.43,-91.97 1236.61,-83.85 1236.88,-94.45 1243.43,-91.97"/>
</a>
</g>
</g>
<!-- Node18 -->
<g id="Node000018" class="node">
<title>Node18</title>
<g id="a_Node000018"><a xlink:title=" ">
<polygon fill="#e0e0e0" stroke="#999999" points="1474.5,-82 1326.5,-82 1326.5,-62 1474.5,-62 1474.5,-82"/>
<text xml:space="preserve" text-anchor="middle" x="1400.5" y="-68.5" font-family="Helvetica,sans-Serif" font-size="10.00">KPTInGameMode.generated.h</text>
</a>
</g>
</g>
<!-- Node16&#45;&gt;Node18 -->
<g id="edge21_Node000016_Node000018" class="edge">
<title>Node16&#45;&gt;Node18</title>
<g id="a_edge21_Node000016_Node000018"><a xlink:title=" ">
<path fill="none" stroke="#63b8ff" d="M1277.99,-129.54C1301.99,-118.47 1341.98,-100.01 1369.72,-87.21"/>
<polygon fill="#63b8ff" stroke="#63b8ff" points="1371.06,-90.44 1378.68,-83.07 1368.13,-84.09 1371.06,-90.44"/>
</a>
</g>
</g>
<!-- Node20&#45;&gt;Node3 -->
<g id="edge24_Node000020_Node000003" class="edge">
<title>Node20&#45;&gt;Node3</title>
<g id="a_edge24_Node000020_Node000003"><a xlink:title=" ">
<path fill="none" stroke="#63b8ff" d="M1632.34,-61.62C1605.48,-51.62 1562.69,-35.67 1532.32,-24.35"/>
<polygon fill="#63b8ff" stroke="#63b8ff" points="1533.76,-21.15 1523.16,-20.94 1531.31,-27.71 1533.76,-21.15"/>
</a>
</g>
</g>
<!-- Node20&#45;&gt;Node7 -->
<g id="edge25_Node000020_Node000007" class="edge">
<title>Node20&#45;&gt;Node7</title>
<g id="a_edge25_Node000020_Node000007"><a xlink:title=" ">
<path fill="none" stroke="#63b8ff" d="M1685.94,-61.62C1716.7,-51.48 1765.95,-35.25 1800.36,-23.9"/>
<polygon fill="#63b8ff" stroke="#63b8ff" points="1801.12,-27.34 1809.53,-20.88 1798.93,-20.69 1801.12,-27.34"/>
</a>
</g>
</g>
<!-- Node21 -->
<g id="Node000021" class="node">
<title>Node21</title>
<g id="a_Node000021"><a xlink:title=" ">
<polygon fill="#e0e0e0" stroke="#999999" points="1753.38,-20 1553.62,-20 1553.62,0 1753.38,0 1753.38,-20"/>
<text xml:space="preserve" text-anchor="middle" x="1653.5" y="-6.5" font-family="Helvetica,sans-Serif" font-size="10.00">KPTAbilitySystemComponent.generated.h</text>
</a>
</g>
</g>
<!-- Node20&#45;&gt;Node21 -->
<g id="edge26_Node000020_Node000021" class="edge">
<title>Node20&#45;&gt;Node21</title>
<g id="a_edge26_Node000020_Node000021"><a xlink:title=" ">
<path fill="none" stroke="#63b8ff" d="M1656.88,-61.62C1656.34,-53.56 1655.54,-41.65 1654.86,-31.41"/>
<polygon fill="#63b8ff" stroke="#63b8ff" points="1658.37,-31.37 1654.21,-21.62 1651.38,-31.83 1658.37,-31.37"/>
</a>
</g>
</g>
<!-- Node22&#45;&gt;Node3 -->
<g id="edge28_Node000022_Node000003" class="edge">
<title>Node22&#45;&gt;Node3</title>
<g id="a_edge28_Node000022_Node000003"><a xlink:title=" ">
<path fill="none" stroke="#63b8ff" d="M1813.63,-130.34C1723.73,-119.37 1581.17,-100.39 1559.5,-88 1535.91,-74.5 1517.52,-48.51 1506.85,-30.48"/>
<polygon fill="#63b8ff" stroke="#63b8ff" points="1509.91,-28.79 1501.96,-21.79 1503.81,-32.22 1509.91,-28.79"/>
</a>
</g>
</g>
<!-- Node23 -->
<g id="Node000023" class="node">
<title>Node23</title>
<g id="a_Node000023"><a xlink:title=" ">
<polygon fill="#e0e0e0" stroke="#999999" points="2183.5,-20 2107.5,-20 2107.5,0 2183.5,0 2183.5,-20"/>
<text xml:space="preserve" text-anchor="middle" x="2145.5" y="-6.5" font-family="Helvetica,sans-Serif" font-size="10.00">AttributeSet.h</text>
</a>
</g>
</g>
<!-- Node22&#45;&gt;Node23 -->
<g id="edge29_Node000022_Node000023" class="edge">
<title>Node22&#45;&gt;Node23</title>
<g id="a_edge29_Node000022_Node000023"><a xlink:title=" ">
<path fill="none" stroke="#63b8ff" d="M1961.57,-130.37C2019.69,-122.22 2094.48,-108.2 2117.5,-88 2133.76,-73.73 2140.58,-49.24 2143.44,-31.71"/>
<polygon fill="#63b8ff" stroke="#63b8ff" points="2146.9,-32.29 2144.71,-21.92 2139.96,-31.39 2146.9,-32.29"/>
</a>
</g>
</g>
<!-- Node24 -->
<g id="Node000024" class="node">
<title>Node24</title>
<g id="a_Node000024"><a xlink:href="_k_p_t_base_attribute_set_8h.html" target="_top" xlink:title=" ">
<polygon fill="white" stroke="#666666" points="2108.5,-82 1990.5,-82 1990.5,-62 2108.5,-62 2108.5,-82"/>
<text xml:space="preserve" text-anchor="middle" x="2049.5" y="-68.5" font-family="Helvetica,sans-Serif" font-size="10.00">KPTBaseAttributeSet.h</text>
</a>
</g>
</g>
<!-- Node22&#45;&gt;Node24 -->
<g id="edge30_Node000022_Node000024" class="edge">
<title>Node22&#45;&gt;Node24</title>
<g id="a_edge30_Node000022_Node000024"><a xlink:title=" ">
<path fill="none" stroke="#63b8ff" d="M1910.71,-129.54C1938.26,-118.32 1984.42,-99.52 2015.87,-86.7"/>
<polygon fill="#63b8ff" stroke="#63b8ff" points="2016.99,-90.02 2024.93,-83.01 2014.35,-83.54 2016.99,-90.02"/>
</a>
</g>
</g>
<!-- Node26 -->
<g id="Node000026" class="node">
<title>Node26</title>
<g id="a_Node000026"><a xlink:title=" ">
<polygon fill="#e0e0e0" stroke="#999999" points="1972,-82 1803,-82 1803,-62 1972,-62 1972,-82"/>
<text xml:space="preserve" text-anchor="middle" x="1887.5" y="-68.5" font-family="Helvetica,sans-Serif" font-size="10.00">KPTPlayerAttributeSet.generated.h</text>
</a>
</g>
</g>
<!-- Node22&#45;&gt;Node26 -->
<g id="edge35_Node000022_Node000026" class="edge">
<title>Node22&#45;&gt;Node26</title>
<g id="a_edge35_Node000022_Node000026"><a xlink:title=" ">
<path fill="none" stroke="#63b8ff" d="M1887.5,-129.54C1887.5,-120.23 1887.5,-105.7 1887.5,-93.7"/>
<polygon fill="#63b8ff" stroke="#63b8ff" points="1891,-93.95 1887.5,-83.95 1884,-93.95 1891,-93.95"/>
</a>
</g>
</g>
<!-- Node24&#45;&gt;Node3 -->
<g id="edge31_Node000024_Node000003" class="edge">
<title>Node24&#45;&gt;Node3</title>
<g id="a_edge31_Node000024_Node000003"><a xlink:title=" ">
<path fill="none" stroke="#63b8ff" d="M2010.83,-61.52C2001.29,-59.45 1991.06,-57.44 1981.5,-56 1792.47,-27.5 1739.64,-45.28 1547.6,-20.29"/>
<polygon fill="#63b8ff" stroke="#63b8ff" points="1548.14,-16.83 1537.76,-18.98 1547.21,-23.77 1548.14,-16.83"/>
</a>
</g>
</g>
<!-- Node24&#45;&gt;Node7 -->
<g id="edge32_Node000024_Node000007" class="edge">
<title>Node24&#45;&gt;Node7</title>
<g id="a_edge32_Node000024_Node000007"><a xlink:title=" ">
<path fill="none" stroke="#63b8ff" d="M2016.69,-61.62C1980.81,-51.37 1923.13,-34.9 1883.38,-23.54"/>
<polygon fill="#63b8ff" stroke="#63b8ff" points="1884.46,-20.21 1873.88,-20.82 1882.54,-26.94 1884.46,-20.21"/>
</a>
</g>
</g>
<!-- Node24&#45;&gt;Node23 -->
<g id="edge33_Node000024_Node000023" class="edge">
<title>Node24&#45;&gt;Node23</title>
<g id="a_edge33_Node000024_Node000023"><a xlink:title=" ">
<path fill="none" stroke="#63b8ff" d="M2064.5,-61.62C2079.58,-52.2 2103.07,-37.52 2120.88,-26.39"/>
<polygon fill="#63b8ff" stroke="#63b8ff" points="2122.7,-29.38 2129.32,-21.11 2118.99,-23.44 2122.7,-29.38"/>
</a>
</g>
</g>
<!-- Node25 -->
<g id="Node000025" class="node">
<title>Node25</title>
<g id="a_Node000025"><a xlink:title=" ">
<polygon fill="#e0e0e0" stroke="#999999" points="2089.38,-20 1925.62,-20 1925.62,0 2089.38,0 2089.38,-20"/>
<text xml:space="preserve" text-anchor="middle" x="2007.5" y="-6.5" font-family="Helvetica,sans-Serif" font-size="10.00">KPTBaseAttributeSet.generated.h</text>
</a>
</g>
</g>
<!-- Node24&#45;&gt;Node25 -->
<g id="edge34_Node000024_Node000025" class="edge">
<title>Node24&#45;&gt;Node25</title>
<g id="a_edge34_Node000024_Node000025"><a xlink:title=" ">
<path fill="none" stroke="#63b8ff" d="M2042.94,-61.62C2036.92,-53.03 2027.85,-40.07 2020.39,-29.41"/>
<polygon fill="#63b8ff" stroke="#63b8ff" points="2023.35,-27.54 2014.75,-21.35 2017.61,-31.55 2023.35,-27.54"/>
</a>
</g>
</g>
</g>
</svg>

<g id="navigator" transform="translate(0 0)" fill="#404254">
  <rect fill="#f2f5e9" fill-opacity="0.5" stroke="#606060" stroke-width=".5" x="0" y="0" width="60" height="60"/>
  <use id="zoomplus" xlink:href="#zoomPlus" x="17" y="9" onmousedown="handleZoom(evt,'in')"/>
  <use id="zoomminus" xlink:href="#zoomMin" x="42" y="9" onmousedown="handleZoom(evt,'out')"/>
  <use id="reset" xlink:href="#resetDef" x="30" y="36" onmousedown="handleReset()"/>
   <use id="arrowup" xlink:href="#arrowUp" x="0" y="0" onmousedown="handlePan(0,-1)"/>
  <use id="arrowright" xlink:href="#arrowRight" x="0" y="0" onmousedown="handlePan(1,0)"/>
  <use id="arrowdown" xlink:href="#arrowDown" x="0" y="0" onmousedown="handlePan(0,1)"/>
  <use id="arrowleft" xlink:href="#arrowLeft" x="0" y="0" onmousedown="handlePan(-1,0)"/>
</g>
<svg viewBox="0 0 15 15" width="100%" height="30px" preserveAspectRatio="xMaxYMin meet">
 <g id="arrow_out" transform="scale(0.3 0.3)">
  <a xlink:href="_character_base_8cpp__incl_org.svg" target="_base">
   <rect id="button" ry="5" rx="5" y="6" x="6" height="38" width="38"
        fill="#f2f5e9" fill-opacity="0.5" stroke="#606060" stroke-width="1.0"/>
   <path id="arrow"
     d="M 11.500037,31.436501 C 11.940474,20.09759 22.043105,11.32322 32.158766,21.979434 L 37.068811,17.246167 C 37.068811,17.246167 37.088388,32 37.088388,32 L 22.160133,31.978069 C 22.160133,31.978069 26.997745,27.140456 26.997745,27.140456 C 18.528582,18.264221 13.291696,25.230495 11.500037,31.436501 z"
     style="fill:#404040;"/>
  </a>
 </g>
</svg>

<style type='text/css'>
<![CDATA[
[data-mouse-over-selected='false'] { opacity: 0.7; }
[data-mouse-over-selected='true']  { opacity: 1.0; }
]]>
</style>
<script type="application/ecmascript"><![CDATA[
document.addEventListener('DOMContentLoaded', (event) => {
  highlightEdges();
  highlightAdjacentNodes();
});
]]></script>
</svg>
