<?xml version="1.0" encoding="UTF-8" standalone="no"?>
<!DOCTYPE svg PUBLIC "-//W3C//DTD SVG 1.1//EN"
 "http://www.w3.org/Graphics/SVG/1.1/DTD/svg11.dtd">
<!-- Generated by graphviz version 13.1.1 (20250719.2154)
 -->
<!-- Title: C:/Users/user/Perforce/alz7_CobaltbruWorkspace_00/KPT/Source/KPT/Input/CharacterInputConfig.h Pages: 1 -->
<!--zoomable 260 -->

<svg id="main" version="1.1" xmlns="http://www.w3.org/2000/svg" xmlns:xlink="http://www.w3.org/1999/xlink" xml:space="preserve" onload="init(evt)">

<style type="text/css"><![CDATA[
.node, .edge {opacity: 0.7;}
.node.selected, .edge.selected {opacity: 1;}
.edge:hover path { stroke: red; }
.edge:hover polygon { stroke: red; fill: red; }
]]></style>

<defs>
  <circle id="rim" cx="0" cy="0" r="7"/>
  <circle id="rim2" cx="0" cy="0" r="3.5"/>
  <g id="zoomPlus">
    <use xlink:href="#rim" fill="#404040"><set attributeName="fill" to="#808080" begin="zoomplus.mouseover" end="zoomplus.mouseout"/></use>
    <path d="M-4,0h8M0,-4v8" fill="none" stroke="white" stroke-width="1.5" pointer-events="none"/>
  </g>
  <g id="zoomMin">
    <use xlink:href="#rim" fill="#404040"><set attributeName="fill" to="#808080" begin="zoomminus.mouseover" end="zoomminus.mouseout"/></use>
    <path d="M-4,0h8" fill="none" stroke="white" stroke-width="1.5" pointer-events="none"/>
  </g>
  <g id="arrowUp" transform="translate(30 24)">
    <use xlink:href="#rim"/>
    <path pointer-events="none" fill="none" stroke="white" stroke-width="1.5" d="M0,-3.0v7 M-2.5,-0.5L0,-3.0L2.5,-0.5"/>
  </g>
  <g id="arrowRight" transform="rotate(90) translate(36 -43)">
    <use xlink:href="#rim"/>
    <path pointer-events="none" fill="none" stroke="white" stroke-width="1.5" d="M0,-3.0v7 M-2.5,-0.5L0,-3.0L2.5,-0.5"/>
  </g>
  <g id="arrowDown" transform="rotate(180) translate(-30 -48)">
    <use xlink:href="#rim"/>
    <path pointer-events="none" fill="none" stroke="white" stroke-width="1.5" d="M0,-3.0v7 M-2.5,-0.5L0,-3.0L2.5,-0.5"/>
  </g>
  <g id="arrowLeft" transform="rotate(270) translate(-36 17)">
    <use xlink:href="#rim"/>
    <path pointer-events="none" fill="none" stroke="white" stroke-width="1.5" d="M0,-3.0v7 M-2.5,-0.5L0,-3.0L2.5,-0.5"/>
  </g>
  <g id="resetDef">
    <use xlink:href="#rim2" fill="#404040"><set attributeName="fill" to="#808080" begin="reset.mouseover" end="reset.mouseout"/></use>
  </g>
</defs>
<script type="application/ecmascript">
var viewWidth = 1427;
var viewHeight = 260;
var sectionId = 'dynsection-1';
</script>
<script type="application/ecmascript" xlink:href="svg.min.js"/>
<svg id="graph" class="graph">
<g id="viewport">
<title>C:/Users/user/Perforce/alz7_CobaltbruWorkspace_00/KPT/Source/KPT/Input/CharacterInputConfig.h</title>
<!-- Node1 -->
<g id="Node000001" class="node">
<title>Node1</title>
<g id="a_Node000001"><a xlink:title=" ">
<polygon fill="#999999" stroke="#666666" points="652.62,-252 517.38,-252 517.38,-196 652.62,-196 652.62,-252"/>
<text xml:space="preserve" text-anchor="start" x="525.38" y="-238.5" font-family="Helvetica,sans-Serif" font-size="10.00">C:/Users/user/Perforce</text>
<text xml:space="preserve" text-anchor="start" x="525.38" y="-226.5" font-family="Helvetica,sans-Serif" font-size="10.00">/alz7_CobaltbruWorkspace</text>
<text xml:space="preserve" text-anchor="start" x="525.38" y="-214.5" font-family="Helvetica,sans-Serif" font-size="10.00">_00/KPT/Source/KPT/Input</text>
<text xml:space="preserve" text-anchor="middle" x="585" y="-202.5" font-family="Helvetica,sans-Serif" font-size="10.00">/CharacterInputConfig.h</text>
</a>
</g>
</g>
<!-- Node2 -->
<g id="Node000002" class="node">
<title>Node2</title>
<g id="a_Node000002"><a xlink:href="_player_character_8cpp.html" target="_top" xlink:title=" ">
<polygon fill="white" stroke="#666666" points="509.12,-160 352.88,-160 352.88,-104 509.12,-104 509.12,-160"/>
<text xml:space="preserve" text-anchor="start" x="360.88" y="-146.5" font-family="Helvetica,sans-Serif" font-size="10.00">C:/Users/user/Perforce</text>
<text xml:space="preserve" text-anchor="start" x="360.88" y="-134.5" font-family="Helvetica,sans-Serif" font-size="10.00">/alz7_CobaltbruWorkspace</text>
<text xml:space="preserve" text-anchor="start" x="360.88" y="-122.5" font-family="Helvetica,sans-Serif" font-size="10.00">_00/KPT/Source/KPT/Character</text>
<text xml:space="preserve" text-anchor="middle" x="431" y="-110.5" font-family="Helvetica,sans-Serif" font-size="10.00">/PlayerCharacter.cpp</text>
</a>
</g>
</g>
<!-- Node1&#45;&gt;Node2 -->
<g id="edge1_Node000001_Node000002" class="edge">
<title>Node1&#45;&gt;Node2</title>
<g id="a_edge1_Node000001_Node000002"><a xlink:title=" ">
<path fill="none" stroke="#63b8ff" d="M528.39,-189.92C511.83,-180.24 493.91,-169.77 478.02,-160.48"/>
<polygon fill="#63b8ff" stroke="#63b8ff" points="526.25,-192.72 536.65,-194.74 529.78,-186.68 526.25,-192.72"/>
</a>
</g>
</g>
<!-- Node3 -->
<g id="Node000003" class="node">
<title>Node3</title>
<g id="a_Node000003"><a xlink:href="_k_p_t_main_player_controller_8cpp.html" target="_top" xlink:title=" ">
<polygon fill="white" stroke="#666666" points="148,-62 0,-62 0,-6 148,-6 148,-62"/>
<text xml:space="preserve" text-anchor="start" x="8" y="-48.5" font-family="Helvetica,sans-Serif" font-size="10.00">C:/Users/user/Perforce</text>
<text xml:space="preserve" text-anchor="start" x="8" y="-36.5" font-family="Helvetica,sans-Serif" font-size="10.00">/alz7_CobaltbruWorkspace</text>
<text xml:space="preserve" text-anchor="start" x="8" y="-24.5" font-family="Helvetica,sans-Serif" font-size="10.00">_00/KPT/Source/KPT/Core</text>
<text xml:space="preserve" text-anchor="middle" x="74" y="-12.5" font-family="Helvetica,sans-Serif" font-size="10.00">/KPTMainPlayerController.cpp</text>
</a>
</g>
</g>
<!-- Node1&#45;&gt;Node3 -->
<g id="edge2_Node000001_Node000003" class="edge">
<title>Node1&#45;&gt;Node3</title>
<g id="a_edge2_Node000001_Node000003"><a xlink:title=" ">
<path fill="none" stroke="#63b8ff" d="M566.26,-185.81C549.3,-152.82 525.8,-109.1 518,-104 450.51,-59.91 235.33,-87.08 157,-68 150.67,-66.46 144.19,-64.53 137.77,-62.4"/>
<polygon fill="#63b8ff" stroke="#63b8ff" points="562.93,-186.99 570.6,-194.29 569.17,-183.8 562.93,-186.99"/>
</a>
</g>
</g>
<!-- Node4 -->
<g id="Node000004" class="node">
<title>Node4</title>
<g id="a_Node000004"><a xlink:href="_k_p_t_main_player_controller_8h.html" target="_top" xlink:title=" ">
<polygon fill="white" stroke="#666666" points="702.75,-160 565.25,-160 565.25,-104 702.75,-104 702.75,-160"/>
<text xml:space="preserve" text-anchor="start" x="573.25" y="-146.5" font-family="Helvetica,sans-Serif" font-size="10.00">C:/Users/user/Perforce</text>
<text xml:space="preserve" text-anchor="start" x="573.25" y="-134.5" font-family="Helvetica,sans-Serif" font-size="10.00">/alz7_CobaltbruWorkspace</text>
<text xml:space="preserve" text-anchor="start" x="573.25" y="-122.5" font-family="Helvetica,sans-Serif" font-size="10.00">_00/KPT/Source/KPT/Core</text>
<text xml:space="preserve" text-anchor="middle" x="634" y="-110.5" font-family="Helvetica,sans-Serif" font-size="10.00">/KPTMainPlayerController.h</text>
</a>
</g>
</g>
<!-- Node1&#45;&gt;Node4 -->
<g id="edge3_Node000001_Node000004" class="edge">
<title>Node1&#45;&gt;Node4</title>
<g id="a_edge3_Node000001_Node000004"><a xlink:title=" ">
<path fill="none" stroke="#63b8ff" d="M605.43,-185.48C610.02,-177.05 614.81,-168.25 619.12,-160.32"/>
<polygon fill="#63b8ff" stroke="#63b8ff" points="602.4,-183.72 600.69,-194.18 608.55,-187.07 602.4,-183.72"/>
</a>
</g>
</g>
<!-- Node12 -->
<g id="Node000012" class="node">
<title>Node12</title>
<g id="a_Node000012"><a xlink:href="_character_input_config_8cpp.html" target="_top" xlink:title=" ">
<polygon fill="white" stroke="#666666" points="855.62,-160 720.38,-160 720.38,-104 855.62,-104 855.62,-160"/>
<text xml:space="preserve" text-anchor="start" x="728.38" y="-146.5" font-family="Helvetica,sans-Serif" font-size="10.00">C:/Users/user/Perforce</text>
<text xml:space="preserve" text-anchor="start" x="728.38" y="-134.5" font-family="Helvetica,sans-Serif" font-size="10.00">/alz7_CobaltbruWorkspace</text>
<text xml:space="preserve" text-anchor="start" x="728.38" y="-122.5" font-family="Helvetica,sans-Serif" font-size="10.00">_00/KPT/Source/KPT/Input</text>
<text xml:space="preserve" text-anchor="middle" x="788" y="-110.5" font-family="Helvetica,sans-Serif" font-size="10.00">/CharacterInputConfig.cpp</text>
</a>
</g>
</g>
<!-- Node1&#45;&gt;Node12 -->
<g id="edge12_Node000001_Node000012" class="edge">
<title>Node1&#45;&gt;Node12</title>
<g id="a_edge12_Node000001_Node000012"><a xlink:title=" ">
<path fill="none" stroke="#63b8ff" d="M657.49,-190.86C679.9,-180.92 704.38,-170.07 726.02,-160.48"/>
<polygon fill="#63b8ff" stroke="#63b8ff" points="656.12,-187.64 648.39,-194.89 658.95,-194.04 656.12,-187.64"/>
</a>
</g>
</g>
<!-- Node4&#45;&gt;Node3 -->
<g id="edge6_Node000004_Node000003" class="edge">
<title>Node4&#45;&gt;Node3</title>
<g id="a_edge6_Node000004_Node000003"><a xlink:title=" ">
<path fill="none" stroke="#63b8ff" d="M554.03,-104.64C553.02,-104.42 552.01,-104.21 551,-104 378.76,-68.58 328.02,-108.9 157,-68 150.67,-66.48 144.18,-64.58 137.75,-62.45"/>
<polygon fill="#63b8ff" stroke="#63b8ff" points="553.01,-108 563.55,-106.93 554.64,-101.19 553.01,-108"/>
</a>
</g>
</g>
<!-- Node5 -->
<g id="Node000005" class="node">
<title>Node5</title>
<g id="a_Node000005"><a xlink:href="_player_shop_interactor_component_8cpp.html" target="_top" xlink:title=" ">
<polygon fill="white" stroke="#666666" points="355.62,-68 166.38,-68 166.38,0 355.62,0 355.62,-68"/>
<text xml:space="preserve" text-anchor="start" x="174.38" y="-54.5" font-family="Helvetica,sans-Serif" font-size="10.00">C:/Users/user/Perforce</text>
<text xml:space="preserve" text-anchor="start" x="174.38" y="-42.5" font-family="Helvetica,sans-Serif" font-size="10.00">/alz7_CobaltbruWorkspace</text>
<text xml:space="preserve" text-anchor="start" x="174.38" y="-30.5" font-family="Helvetica,sans-Serif" font-size="10.00">_00/KPT/Source/KPT/Core</text>
<text xml:space="preserve" text-anchor="start" x="174.38" y="-18.5" font-family="Helvetica,sans-Serif" font-size="10.00">/Component/Shop/PlayerShopInteractor</text>
<text xml:space="preserve" text-anchor="middle" x="261" y="-6.5" font-family="Helvetica,sans-Serif" font-size="10.00">Component.cpp</text>
</a>
</g>
</g>
<!-- Node4&#45;&gt;Node5 -->
<g id="edge4_Node000004_Node000005" class="edge">
<title>Node4&#45;&gt;Node5</title>
<g id="a_edge4_Node000004_Node000005"><a xlink:title=" ">
<path fill="none" stroke="#63b8ff" d="M554,-104.79C553,-104.52 551.99,-104.26 551,-104 469.48,-82.94 446.6,-88.77 365,-68 362.06,-67.25 359.09,-66.47 356.09,-65.66"/>
<polygon fill="#63b8ff" stroke="#63b8ff" points="552.87,-108.1 563.44,-107.41 554.74,-101.36 552.87,-108.1"/>
</a>
</g>
</g>
<!-- Node6 -->
<g id="Node000006" class="node">
<title>Node6</title>
<g id="a_Node000006"><a xlink:href="_k_p_t_in_game_mode_8cpp.html" target="_top" xlink:title=" ">
<polygon fill="white" stroke="#666666" points="508.25,-62 373.75,-62 373.75,-6 508.25,-6 508.25,-62"/>
<text xml:space="preserve" text-anchor="start" x="381.75" y="-48.5" font-family="Helvetica,sans-Serif" font-size="10.00">C:/Users/user/Perforce</text>
<text xml:space="preserve" text-anchor="start" x="381.75" y="-36.5" font-family="Helvetica,sans-Serif" font-size="10.00">/alz7_CobaltbruWorkspace</text>
<text xml:space="preserve" text-anchor="start" x="381.75" y="-24.5" font-family="Helvetica,sans-Serif" font-size="10.00">_00/KPT/Source/KPT/Core</text>
<text xml:space="preserve" text-anchor="middle" x="441" y="-12.5" font-family="Helvetica,sans-Serif" font-size="10.00">/KPTInGameMode.cpp</text>
</a>
</g>
</g>
<!-- Node4&#45;&gt;Node6 -->
<g id="edge5_Node000004_Node000006" class="edge">
<title>Node4&#45;&gt;Node6</title>
<g id="a_edge5_Node000004_Node000006"><a xlink:title=" ">
<path fill="none" stroke="#63b8ff" d="M568.69,-98.51C545.11,-86.78 518.74,-73.67 496.12,-62.42"/>
<polygon fill="#63b8ff" stroke="#63b8ff" points="567.08,-101.62 577.6,-102.94 570.2,-95.36 567.08,-101.62"/>
</a>
</g>
</g>
<!-- Node7 -->
<g id="Node000007" class="node">
<title>Node7</title>
<g id="a_Node000007"><a xlink:href="_k_p_t_base_attribute_set_8cpp.html" target="_top" xlink:title=" ">
<polygon fill="white" stroke="#666666" points="742.12,-62 525.88,-62 525.88,-6 742.12,-6 742.12,-62"/>
<text xml:space="preserve" text-anchor="start" x="533.88" y="-48.5" font-family="Helvetica,sans-Serif" font-size="10.00">C:/Users/user/Perforce</text>
<text xml:space="preserve" text-anchor="start" x="533.88" y="-36.5" font-family="Helvetica,sans-Serif" font-size="10.00">/alz7_CobaltbruWorkspace</text>
<text xml:space="preserve" text-anchor="start" x="533.88" y="-24.5" font-family="Helvetica,sans-Serif" font-size="10.00">_00/KPT/Source/KPT/GAS/KPTBaseAttribute</text>
<text xml:space="preserve" text-anchor="middle" x="634" y="-12.5" font-family="Helvetica,sans-Serif" font-size="10.00">Set.cpp</text>
</a>
</g>
</g>
<!-- Node4&#45;&gt;Node7 -->
<g id="edge7_Node000004_Node000007" class="edge">
<title>Node4&#45;&gt;Node7</title>
<g id="a_edge7_Node000004_Node000007"><a xlink:title=" ">
<path fill="none" stroke="#63b8ff" d="M634,-92.32C634,-82.27 634,-71.65 634,-62.32"/>
<polygon fill="#63b8ff" stroke="#63b8ff" points="630.5,-92.23 634,-102.23 637.5,-92.23 630.5,-92.23"/>
</a>
</g>
</g>
<!-- Node8 -->
<g id="Node000008" class="node">
<title>Node8</title>
<g id="a_Node000008"><a xlink:href="_u_i_manager_subsystem_8cpp.html" target="_top" xlink:title=" ">
<polygon fill="white" stroke="#666666" points="911.5,-62 760.5,-62 760.5,-6 911.5,-6 911.5,-62"/>
<text xml:space="preserve" text-anchor="start" x="768.5" y="-48.5" font-family="Helvetica,sans-Serif" font-size="10.00">C:/Users/user/Perforce</text>
<text xml:space="preserve" text-anchor="start" x="768.5" y="-36.5" font-family="Helvetica,sans-Serif" font-size="10.00">/alz7_CobaltbruWorkspace</text>
<text xml:space="preserve" text-anchor="start" x="768.5" y="-24.5" font-family="Helvetica,sans-Serif" font-size="10.00">_00/KPT/Source/KPT/Manager</text>
<text xml:space="preserve" text-anchor="middle" x="836" y="-12.5" font-family="Helvetica,sans-Serif" font-size="10.00">/UIManagerSubsystem.cpp</text>
</a>
</g>
</g>
<!-- Node4&#45;&gt;Node8 -->
<g id="edge8_Node000004_Node000008" class="edge">
<title>Node4&#45;&gt;Node8</title>
<g id="a_edge8_Node000004_Node000008"><a xlink:title=" ">
<path fill="none" stroke="#63b8ff" d="M701.69,-98.83C726.54,-87.02 754.42,-73.77 778.31,-62.42"/>
<polygon fill="#63b8ff" stroke="#63b8ff" points="700.51,-95.52 692.98,-102.97 703.52,-101.84 700.51,-95.52"/>
</a>
</g>
</g>
<!-- Node9 -->
<g id="Node000009" class="node">
<title>Node9</title>
<g id="a_Node000009"><a xlink:href="_in_game_h_u_d_8cpp.html" target="_top" xlink:title=" ">
<polygon fill="white" stroke="#666666" points="1090.75,-62 929.25,-62 929.25,-6 1090.75,-6 1090.75,-62"/>
<text xml:space="preserve" text-anchor="start" x="937.25" y="-48.5" font-family="Helvetica,sans-Serif" font-size="10.00">C:/Users/user/Perforce</text>
<text xml:space="preserve" text-anchor="start" x="937.25" y="-36.5" font-family="Helvetica,sans-Serif" font-size="10.00">/alz7_CobaltbruWorkspace</text>
<text xml:space="preserve" text-anchor="start" x="937.25" y="-24.5" font-family="Helvetica,sans-Serif" font-size="10.00">_00/KPT/Source/KPT/UI/InGame</text>
<text xml:space="preserve" text-anchor="middle" x="1010" y="-12.5" font-family="Helvetica,sans-Serif" font-size="10.00">/InGameHUD.cpp</text>
</a>
</g>
</g>
<!-- Node4&#45;&gt;Node9 -->
<g id="edge9_Node000004_Node000009" class="edge">
<title>Node4&#45;&gt;Node9</title>
<g id="a_edge9_Node000004_Node000009"><a xlink:title=" ">
<path fill="none" stroke="#63b8ff" d="M714.16,-103.36C804.81,-81.13 833.03,-91.63 921,-68 927.21,-66.33 933.59,-64.41 939.95,-62.34"/>
<polygon fill="#63b8ff" stroke="#63b8ff" points="713.4,-99.94 704.56,-105.79 715.11,-106.73 713.4,-99.94"/>
</a>
</g>
</g>
<!-- Node10 -->
<g id="Node000010" class="node">
<title>Node10</title>
<g id="a_Node000010"><a xlink:href="_shop_u_i_8cpp.html" target="_top" xlink:title=" ">
<polygon fill="white" stroke="#666666" points="1255.25,-62 1108.75,-62 1108.75,-6 1255.25,-6 1255.25,-62"/>
<text xml:space="preserve" text-anchor="start" x="1116.75" y="-48.5" font-family="Helvetica,sans-Serif" font-size="10.00">C:/Users/user/Perforce</text>
<text xml:space="preserve" text-anchor="start" x="1116.75" y="-36.5" font-family="Helvetica,sans-Serif" font-size="10.00">/alz7_CobaltbruWorkspace</text>
<text xml:space="preserve" text-anchor="start" x="1116.75" y="-24.5" font-family="Helvetica,sans-Serif" font-size="10.00">_00/KPT/Source/KPT/UI/Item</text>
<text xml:space="preserve" text-anchor="middle" x="1182" y="-12.5" font-family="Helvetica,sans-Serif" font-size="10.00">/ShopUI.cpp</text>
</a>
</g>
</g>
<!-- Node4&#45;&gt;Node10 -->
<g id="edge10_Node000004_Node000010" class="edge">
<title>Node4&#45;&gt;Node10</title>
<g id="a_edge10_Node000004_Node000010"><a xlink:title=" ">
<path fill="none" stroke="#63b8ff" d="M714.05,-103.55C882.82,-68.72 934.79,-107.98 1100,-68 1106.26,-66.48 1112.68,-64.58 1119.03,-62.45"/>
<polygon fill="#63b8ff" stroke="#63b8ff" points="713.56,-100.08 704.51,-105.58 715.02,-106.93 713.56,-100.08"/>
</a>
</g>
</g>
<!-- Node11 -->
<g id="Node000011" class="node">
<title>Node11</title>
<g id="a_Node000011"><a xlink:href="_skill_slot_u_i_8cpp.html" target="_top" xlink:title=" ">
<polygon fill="white" stroke="#666666" points="1418.88,-62 1273.12,-62 1273.12,-6 1418.88,-6 1418.88,-62"/>
<text xml:space="preserve" text-anchor="start" x="1281.12" y="-48.5" font-family="Helvetica,sans-Serif" font-size="10.00">C:/Users/user/Perforce</text>
<text xml:space="preserve" text-anchor="start" x="1281.12" y="-36.5" font-family="Helvetica,sans-Serif" font-size="10.00">/alz7_CobaltbruWorkspace</text>
<text xml:space="preserve" text-anchor="start" x="1281.12" y="-24.5" font-family="Helvetica,sans-Serif" font-size="10.00">_00/KPT/Source/KPT/UI/Skill</text>
<text xml:space="preserve" text-anchor="middle" x="1346" y="-12.5" font-family="Helvetica,sans-Serif" font-size="10.00">/SkillSlotUI.cpp</text>
</a>
</g>
</g>
<!-- Node4&#45;&gt;Node11 -->
<g id="edge11_Node000004_Node000011" class="edge">
<title>Node4&#45;&gt;Node11</title>
<g id="a_edge11_Node000004_Node000011"><a xlink:title=" ">
<path fill="none" stroke="#63b8ff" d="M714.21,-103.57C954.54,-56.82 1027.48,-121.84 1264,-68 1270.43,-66.54 1277.02,-64.63 1283.53,-62.48"/>
<polygon fill="#63b8ff" stroke="#63b8ff" points="713.62,-100.12 704.49,-105.51 714.99,-106.99 713.62,-100.12"/>
</a>
</g>
</g>
</g>
</svg>

<g id="navigator" transform="translate(0 0)" fill="#404254">
  <rect fill="#f2f5e9" fill-opacity="0.5" stroke="#606060" stroke-width=".5" x="0" y="0" width="60" height="60"/>
  <use id="zoomplus" xlink:href="#zoomPlus" x="17" y="9" onmousedown="handleZoom(evt,'in')"/>
  <use id="zoomminus" xlink:href="#zoomMin" x="42" y="9" onmousedown="handleZoom(evt,'out')"/>
  <use id="reset" xlink:href="#resetDef" x="30" y="36" onmousedown="handleReset()"/>
   <use id="arrowup" xlink:href="#arrowUp" x="0" y="0" onmousedown="handlePan(0,-1)"/>
  <use id="arrowright" xlink:href="#arrowRight" x="0" y="0" onmousedown="handlePan(1,0)"/>
  <use id="arrowdown" xlink:href="#arrowDown" x="0" y="0" onmousedown="handlePan(0,1)"/>
  <use id="arrowleft" xlink:href="#arrowLeft" x="0" y="0" onmousedown="handlePan(-1,0)"/>
</g>
<svg viewBox="0 0 15 15" width="100%" height="30px" preserveAspectRatio="xMaxYMin meet">
 <g id="arrow_out" transform="scale(0.3 0.3)">
  <a xlink:href="_character_input_config_8h__dep__incl_org.svg" target="_base">
   <rect id="button" ry="5" rx="5" y="6" x="6" height="38" width="38"
        fill="#f2f5e9" fill-opacity="0.5" stroke="#606060" stroke-width="1.0"/>
   <path id="arrow"
     d="M 11.500037,31.436501 C 11.940474,20.09759 22.043105,11.32322 32.158766,21.979434 L 37.068811,17.246167 C 37.068811,17.246167 37.088388,32 37.088388,32 L 22.160133,31.978069 C 22.160133,31.978069 26.997745,27.140456 26.997745,27.140456 C 18.528582,18.264221 13.291696,25.230495 11.500037,31.436501 z"
     style="fill:#404040;"/>
  </a>
 </g>
</svg>

<style type='text/css'>
<![CDATA[
[data-mouse-over-selected='false'] { opacity: 0.7; }
[data-mouse-over-selected='true']  { opacity: 1.0; }
]]>
</style>
<script type="application/ecmascript"><![CDATA[
document.addEventListener('DOMContentLoaded', (event) => {
  highlightEdges();
  highlightAdjacentNodes();
});
]]></script>
</svg>
