<?xml version="1.0" encoding="UTF-8" standalone="no"?>
<!DOCTYPE svg PUBLIC "-//W3C//DTD SVG 1.1//EN"
 "http://www.w3.org/Graphics/SVG/1.1/DTD/svg11.dtd">
<!-- Generated by graphviz version 13.1.1 (20250719.2154)
 -->
<!-- Title: C:/Users/user/Perforce/alz7_CobaltbruWorkspace_00/KPT/Source/KPT/UI/DamageFloater/DamageAttachActor.cpp Pages: 1 -->
<!--zoomable 356 -->

<svg id="main" version="1.1" xmlns="http://www.w3.org/2000/svg" xmlns:xlink="http://www.w3.org/1999/xlink" xml:space="preserve" onload="init(evt)">

<style type="text/css"><![CDATA[
.node, .edge {opacity: 0.7;}
.node.selected, .edge.selected {opacity: 1;}
.edge:hover path { stroke: red; }
.edge:hover polygon { stroke: red; fill: red; }
]]></style>

<defs>
  <circle id="rim" cx="0" cy="0" r="7"/>
  <circle id="rim2" cx="0" cy="0" r="3.5"/>
  <g id="zoomPlus">
    <use xlink:href="#rim" fill="#404040"><set attributeName="fill" to="#808080" begin="zoomplus.mouseover" end="zoomplus.mouseout"/></use>
    <path d="M-4,0h8M0,-4v8" fill="none" stroke="white" stroke-width="1.5" pointer-events="none"/>
  </g>
  <g id="zoomMin">
    <use xlink:href="#rim" fill="#404040"><set attributeName="fill" to="#808080" begin="zoomminus.mouseover" end="zoomminus.mouseout"/></use>
    <path d="M-4,0h8" fill="none" stroke="white" stroke-width="1.5" pointer-events="none"/>
  </g>
  <g id="arrowUp" transform="translate(30 24)">
    <use xlink:href="#rim"/>
    <path pointer-events="none" fill="none" stroke="white" stroke-width="1.5" d="M0,-3.0v7 M-2.5,-0.5L0,-3.0L2.5,-0.5"/>
  </g>
  <g id="arrowRight" transform="rotate(90) translate(36 -43)">
    <use xlink:href="#rim"/>
    <path pointer-events="none" fill="none" stroke="white" stroke-width="1.5" d="M0,-3.0v7 M-2.5,-0.5L0,-3.0L2.5,-0.5"/>
  </g>
  <g id="arrowDown" transform="rotate(180) translate(-30 -48)">
    <use xlink:href="#rim"/>
    <path pointer-events="none" fill="none" stroke="white" stroke-width="1.5" d="M0,-3.0v7 M-2.5,-0.5L0,-3.0L2.5,-0.5"/>
  </g>
  <g id="arrowLeft" transform="rotate(270) translate(-36 17)">
    <use xlink:href="#rim"/>
    <path pointer-events="none" fill="none" stroke="white" stroke-width="1.5" d="M0,-3.0v7 M-2.5,-0.5L0,-3.0L2.5,-0.5"/>
  </g>
  <g id="resetDef">
    <use xlink:href="#rim2" fill="#404040"><set attributeName="fill" to="#808080" begin="reset.mouseover" end="reset.mouseout"/></use>
  </g>
</defs>
<script type="application/ecmascript">
var viewWidth = 1544;
var viewHeight = 356;
var sectionId = 'dynsection-0';
</script>
<script type="application/ecmascript" xlink:href="svg.min.js"/>
<svg id="graph" class="graph">
<g id="viewport">
<title>C:/Users/user/Perforce/alz7_CobaltbruWorkspace_00/KPT/Source/KPT/UI/DamageFloater/DamageAttachActor.cpp</title>
<!-- Node1 -->
<g id="Node000001" class="node">
<title>Node1</title>
<g id="a_Node000001"><a xlink:title=" ">
<polygon fill="#999999" stroke="#666666" points="509.12,-348 315.38,-348 315.38,-292 509.12,-292 509.12,-348"/>
<text xml:space="preserve" text-anchor="start" x="323.38" y="-334.5" font-family="Helvetica,sans-Serif" font-size="10.00">C:/Users/user/Perforce</text>
<text xml:space="preserve" text-anchor="start" x="323.38" y="-322.5" font-family="Helvetica,sans-Serif" font-size="10.00">/alz7_CobaltbruWorkspace</text>
<text xml:space="preserve" text-anchor="start" x="323.38" y="-310.5" font-family="Helvetica,sans-Serif" font-size="10.00">_00/KPT/Source/KPT/UI/DamageFloater</text>
<text xml:space="preserve" text-anchor="middle" x="412.25" y="-298.5" font-family="Helvetica,sans-Serif" font-size="10.00">/DamageAttachActor.cpp</text>
</a>
</g>
</g>
<!-- Node2 -->
<g id="Node000002" class="node">
<title>Node2</title>
<g id="a_Node000002"><a xlink:href="_damage_attach_actor_8h.html" target="_top" xlink:title=" ">
<polygon fill="white" stroke="#666666" points="326.5,-88 162,-88 162,-56 326.5,-56 326.5,-88"/>
<text xml:space="preserve" text-anchor="start" x="170" y="-74.5" font-family="Helvetica,sans-Serif" font-size="10.00">UI/DamageFloater/DamageAttach</text>
<text xml:space="preserve" text-anchor="middle" x="244.25" y="-62.5" font-family="Helvetica,sans-Serif" font-size="10.00">Actor.h</text>
</a>
</g>
</g>
<!-- Node1&#45;&gt;Node2 -->
<g id="edge1_Node000001_Node000002" class="edge">
<title>Node1&#45;&gt;Node2</title>
<g id="a_edge1_Node000001_Node000002"><a xlink:title=" ">
<path fill="none" stroke="#63b8ff" d="M353.92,-291.62C338.41,-282.11 322.78,-270.2 311.25,-256 272.95,-208.84 255.42,-137.8 248.36,-99.59"/>
<polygon fill="#63b8ff" stroke="#63b8ff" points="251.84,-99.15 246.68,-89.89 244.94,-100.35 251.84,-99.15"/>
</a>
</g>
</g>
<!-- Node6 -->
<g id="Node000006" class="node">
<title>Node6</title>
<g id="a_Node000006"><a xlink:title=" ">
<polygon fill="#e0e0e0" stroke="#999999" points="686.12,-256 522.38,-256 522.38,-236 686.12,-236 686.12,-256"/>
<text xml:space="preserve" text-anchor="middle" x="604.25" y="-242.5" font-family="Helvetica,sans-Serif" font-size="10.00">Components/WidgetComponent.h</text>
</a>
</g>
</g>
<!-- Node1&#45;&gt;Node6 -->
<g id="edge5_Node000001_Node000006" class="edge">
<title>Node1&#45;&gt;Node6</title>
<g id="a_edge5_Node000001_Node000006"><a xlink:title=" ">
<path fill="none" stroke="#63b8ff" d="M485.38,-291.57C513.8,-280.92 545.05,-269.2 568.38,-260.45"/>
<polygon fill="#63b8ff" stroke="#63b8ff" points="569.59,-263.73 577.73,-256.95 567.13,-257.18 569.59,-263.73"/>
</a>
</g>
</g>
<!-- Node7 -->
<g id="Node000007" class="node">
<title>Node7</title>
<g id="a_Node000007"><a xlink:href="_damage_floater_u_i_8h.html" target="_top" xlink:title=" ">
<polygon fill="white" stroke="#666666" points="504.62,-256 319.88,-256 319.88,-236 504.62,-236 504.62,-256"/>
<text xml:space="preserve" text-anchor="middle" x="412.25" y="-242.5" font-family="Helvetica,sans-Serif" font-size="10.00">UI/DamageFloater/DamageFloaterUI.h</text>
</a>
</g>
</g>
<!-- Node1&#45;&gt;Node7 -->
<g id="edge6_Node000001_Node000007" class="edge">
<title>Node1&#45;&gt;Node7</title>
<g id="a_edge6_Node000001_Node000007"><a xlink:title=" ">
<path fill="none" stroke="#63b8ff" d="M412.25,-291.78C412.25,-283.82 412.25,-275.25 412.25,-267.76"/>
<polygon fill="#63b8ff" stroke="#63b8ff" points="415.75,-267.99 412.25,-257.99 408.75,-267.99 415.75,-267.99"/>
</a>
</g>
</g>
<!-- Node3 -->
<g id="Node000003" class="node">
<title>Node3</title>
<g id="a_Node000003"><a xlink:title=" ">
<polygon fill="#e0e0e0" stroke="#999999" points="398.75,-20 319.75,-20 319.75,0 398.75,0 398.75,-20"/>
<text xml:space="preserve" text-anchor="middle" x="359.25" y="-6.5" font-family="Helvetica,sans-Serif" font-size="10.00">CoreMinimal.h</text>
</a>
</g>
</g>
<!-- Node2&#45;&gt;Node3 -->
<g id="edge2_Node000002_Node000003" class="edge">
<title>Node2&#45;&gt;Node3</title>
<g id="a_edge2_Node000002_Node000003"><a xlink:title=" ">
<path fill="none" stroke="#63b8ff" d="M273.87,-55.55C291.5,-46.35 313.75,-34.74 331.12,-25.68"/>
<polygon fill="#63b8ff" stroke="#63b8ff" points="332.63,-28.84 339.88,-21.11 329.39,-22.63 332.63,-28.84"/>
</a>
</g>
</g>
<!-- Node4 -->
<g id="Node000004" class="node">
<title>Node4</title>
<g id="a_Node000004"><a xlink:title=" ">
<polygon fill="#e0e0e0" stroke="#999999" points="302,-20 176.5,-20 176.5,0 302,0 302,-20"/>
<text xml:space="preserve" text-anchor="middle" x="239.25" y="-6.5" font-family="Helvetica,sans-Serif" font-size="10.00">GameFramework/Actor.h</text>
</a>
</g>
</g>
<!-- Node2&#45;&gt;Node4 -->
<g id="edge3_Node000002_Node000004" class="edge">
<title>Node2&#45;&gt;Node4</title>
<g id="a_edge3_Node000002_Node000004"><a xlink:title=" ">
<path fill="none" stroke="#63b8ff" d="M242.96,-55.55C242.35,-48.26 241.62,-39.45 240.97,-31.6"/>
<polygon fill="#63b8ff" stroke="#63b8ff" points="244.48,-31.59 240.16,-21.92 237.5,-32.17 244.48,-31.59"/>
</a>
</g>
</g>
<!-- Node5 -->
<g id="Node000005" class="node">
<title>Node5</title>
<g id="a_Node000005"><a xlink:title=" ">
<polygon fill="#e0e0e0" stroke="#999999" points="158.5,-20 0,-20 0,0 158.5,0 158.5,-20"/>
<text xml:space="preserve" text-anchor="middle" x="79.25" y="-6.5" font-family="Helvetica,sans-Serif" font-size="10.00">DamageAttachActor.generated.h</text>
</a>
</g>
</g>
<!-- Node2&#45;&gt;Node5 -->
<g id="edge4_Node000002_Node000005" class="edge">
<title>Node2&#45;&gt;Node5</title>
<g id="a_edge4_Node000002_Node000005"><a xlink:title=" ">
<path fill="none" stroke="#63b8ff" d="M201.76,-55.55C175.14,-45.87 141.19,-33.53 115.79,-24.29"/>
<polygon fill="#63b8ff" stroke="#63b8ff" points="117.14,-21.05 106.54,-20.93 114.75,-27.63 117.14,-21.05"/>
</a>
</g>
</g>
<!-- Node7&#45;&gt;Node3 -->
<g id="edge7_Node000007_Node000003" class="edge">
<title>Node7&#45;&gt;Node3</title>
<g id="a_edge7_Node000007_Node000003"><a xlink:title=" ">
<path fill="none" stroke="#63b8ff" d="M401.76,-235.8C393,-227.43 381.04,-214.24 375.25,-200 351.82,-142.41 354.25,-66.96 357.14,-31.32"/>
<polygon fill="#63b8ff" stroke="#63b8ff" points="360.6,-31.89 358.04,-21.61 353.63,-31.24 360.6,-31.89"/>
</a>
</g>
</g>
<!-- Node8 -->
<g id="Node000008" class="node">
<title>Node8</title>
<g id="a_Node000008"><a xlink:href="_u_i_base_8h.html" target="_top" xlink:title=" ">
<polygon fill="white" stroke="#666666" points="625.62,-200 554.88,-200 554.88,-180 625.62,-180 625.62,-200"/>
<text xml:space="preserve" text-anchor="middle" x="590.25" y="-186.5" font-family="Helvetica,sans-Serif" font-size="10.00">UI/UIBase.h</text>
</a>
</g>
</g>
<!-- Node7&#45;&gt;Node8 -->
<g id="edge8_Node000007_Node000008" class="edge">
<title>Node7&#45;&gt;Node8</title>
<g id="a_edge8_Node000007_Node000008"><a xlink:title=" ">
<path fill="none" stroke="#63b8ff" d="M443.26,-235.59C472.3,-226.78 515.95,-213.54 548.14,-203.78"/>
<polygon fill="#63b8ff" stroke="#63b8ff" points="549,-207.17 557.55,-200.92 546.97,-200.47 549,-207.17"/>
</a>
</g>
</g>
<!-- Node25 -->
<g id="Node000025" class="node">
<title>Node25</title>
<g id="a_Node000025"><a xlink:title=" ">
<polygon fill="#e0e0e0" stroke="#999999" points="531.88,-200 384.62,-200 384.62,-180 531.88,-180 531.88,-200"/>
<text xml:space="preserve" text-anchor="middle" x="458.25" y="-186.5" font-family="Helvetica,sans-Serif" font-size="10.00">DamageFloaterUI.generated.h</text>
</a>
</g>
</g>
<!-- Node7&#45;&gt;Node25 -->
<g id="edge31_Node000007_Node000025" class="edge">
<title>Node7&#45;&gt;Node25</title>
<g id="a_edge31_Node000007_Node000025"><a xlink:title=" ">
<path fill="none" stroke="#63b8ff" d="M420.26,-235.59C426.53,-228.24 435.42,-217.8 443.03,-208.87"/>
<polygon fill="#63b8ff" stroke="#63b8ff" points="445.53,-211.33 449.35,-201.45 440.2,-206.79 445.53,-211.33"/>
</a>
</g>
</g>
<!-- Node8&#45;&gt;Node3 -->
<g id="edge9_Node000008_Node000003" class="edge">
<title>Node8&#45;&gt;Node3</title>
<g id="a_edge9_Node000008_Node000003"><a xlink:title=" ">
<path fill="none" stroke="#63b8ff" d="M564.8,-179.62C527.13,-164.76 455.87,-132.84 408.25,-88 390.72,-71.5 376.74,-47.46 368.27,-30.64"/>
<polygon fill="#63b8ff" stroke="#63b8ff" points="371.46,-29.2 363.97,-21.7 365.15,-32.23 371.46,-29.2"/>
</a>
</g>
</g>
<!-- Node9 -->
<g id="Node000009" class="node">
<title>Node9</title>
<g id="a_Node000009"><a xlink:title=" ">
<polygon fill="#e0e0e0" stroke="#999999" points="1535.88,-20 1418.62,-20 1418.62,0 1535.88,0 1535.88,-20"/>
<text xml:space="preserve" text-anchor="middle" x="1477.25" y="-6.5" font-family="Helvetica,sans-Serif" font-size="10.00">Blueprint/UserWidget.h</text>
</a>
</g>
</g>
<!-- Node8&#45;&gt;Node9 -->
<g id="edge10_Node000008_Node000009" class="edge">
<title>Node8&#45;&gt;Node9</title>
<g id="a_edge10_Node000008_Node000009"><a xlink:title=" ">
<path fill="none" stroke="#63b8ff" d="M625.92,-186.82C760.24,-178.23 1234.98,-144.44 1374.25,-88 1408.37,-74.17 1441.27,-46.21 1460.36,-28.06"/>
<polygon fill="#63b8ff" stroke="#63b8ff" points="1462.55,-30.82 1467.26,-21.33 1457.66,-25.81 1462.55,-30.82"/>
</a>
</g>
</g>
<!-- Node10 -->
<g id="Node000010" class="node">
<title>Node10</title>
<g id="a_Node000010"><a xlink:href="_u_i_manager_subsystem_8h.html" target="_top" xlink:title=" ">
<polygon fill="white" stroke="#666666" points="826.38,-144 664.12,-144 664.12,-124 826.38,-124 826.38,-144"/>
<text xml:space="preserve" text-anchor="middle" x="745.25" y="-130.5" font-family="Helvetica,sans-Serif" font-size="10.00">Manager/UIManagerSubsystem.h</text>
</a>
</g>
</g>
<!-- Node8&#45;&gt;Node10 -->
<g id="edge11_Node000008_Node000010" class="edge">
<title>Node8&#45;&gt;Node10</title>
<g id="a_edge11_Node000008_Node000010"><a xlink:title=" ">
<path fill="none" stroke="#63b8ff" d="M617.25,-179.59C642.21,-170.9 679.55,-157.89 707.47,-148.16"/>
<polygon fill="#63b8ff" stroke="#63b8ff" points="708.32,-151.57 716.61,-144.98 706.02,-144.96 708.32,-151.57"/>
</a>
</g>
</g>
<!-- Node24 -->
<g id="Node000024" class="node">
<title>Node24</title>
<g id="a_Node000024"><a xlink:title=" ">
<polygon fill="#e0e0e0" stroke="#999999" points="641.75,-144 538.75,-144 538.75,-124 641.75,-124 641.75,-144"/>
<text xml:space="preserve" text-anchor="middle" x="590.25" y="-130.5" font-family="Helvetica,sans-Serif" font-size="10.00">UIBase.generated.h</text>
</a>
</g>
</g>
<!-- Node8&#45;&gt;Node24 -->
<g id="edge30_Node000008_Node000024" class="edge">
<title>Node8&#45;&gt;Node24</title>
<g id="a_edge30_Node000008_Node000024"><a xlink:title=" ">
<path fill="none" stroke="#63b8ff" d="M590.25,-179.59C590.25,-173.01 590.25,-163.96 590.25,-155.73"/>
<polygon fill="#63b8ff" stroke="#63b8ff" points="593.75,-155.81 590.25,-145.81 586.75,-155.81 593.75,-155.81"/>
</a>
</g>
</g>
<!-- Node10&#45;&gt;Node3 -->
<g id="edge12_Node000010_Node000003" class="edge">
<title>Node10&#45;&gt;Node3</title>
<g id="a_edge12_Node000010_Node000003"><a xlink:title=" ">
<path fill="none" stroke="#63b8ff" d="M669.66,-123.52C589.5,-113.12 471.76,-96.76 452.25,-88 435.78,-80.61 399.36,-48.3 377.3,-27.95"/>
<polygon fill="#63b8ff" stroke="#63b8ff" points="379.91,-25.59 370.2,-21.35 375.14,-30.72 379.91,-25.59"/>
</a>
</g>
</g>
<!-- Node11 -->
<g id="Node000011" class="node">
<title>Node11</title>
<g id="a_Node000011"><a xlink:title=" ">
<polygon fill="#e0e0e0" stroke="#999999" points="1205.5,-82 1023,-82 1023,-62 1205.5,-62 1205.5,-82"/>
<text xml:space="preserve" text-anchor="middle" x="1114.25" y="-68.5" font-family="Helvetica,sans-Serif" font-size="10.00">Subsystems/LocalPlayerSubsystem.h</text>
</a>
</g>
</g>
<!-- Node10&#45;&gt;Node11 -->
<g id="edge13_Node000010_Node000011" class="edge">
<title>Node10&#45;&gt;Node11</title>
<g id="a_edge13_Node000010_Node000011"><a xlink:title=" ">
<path fill="none" stroke="#63b8ff" d="M803.31,-123.56C868.68,-112.93 974.85,-95.67 1044.62,-84.32"/>
<polygon fill="#63b8ff" stroke="#63b8ff" points="1045.12,-87.79 1054.42,-82.73 1043.99,-80.88 1045.12,-87.79"/>
</a>
</g>
</g>
<!-- Node12 -->
<g id="Node000012" class="node">
<title>Node12</title>
<g id="a_Node000012"><a xlink:title=" ">
<polygon fill="#e0e0e0" stroke="#999999" points="563.75,-82 460.75,-82 460.75,-62 563.75,-62 563.75,-82"/>
<text xml:space="preserve" text-anchor="middle" x="512.25" y="-68.5" font-family="Helvetica,sans-Serif" font-size="10.00">Containers/Queue.h</text>
</a>
</g>
</g>
<!-- Node10&#45;&gt;Node12 -->
<g id="edge14_Node000010_Node000012" class="edge">
<title>Node10&#45;&gt;Node12</title>
<g id="a_edge14_Node000010_Node000012"><a xlink:title=" ">
<path fill="none" stroke="#63b8ff" d="M708.59,-123.56C668.5,-113.24 604.12,-96.66 560.09,-85.32"/>
<polygon fill="#63b8ff" stroke="#63b8ff" points="561.11,-81.97 550.55,-82.86 559.36,-88.75 561.11,-81.97"/>
</a>
</g>
</g>
<!-- Node13 -->
<g id="Node000013" class="node">
<title>Node13</title>
<g id="a_Node000013"><a xlink:href="_level_u_i_data_asset_8h.html" target="_top" xlink:title=" ">
<polygon fill="white" stroke="#666666" points="1365.25,-82 1223.25,-82 1223.25,-62 1365.25,-62 1365.25,-82"/>
<text xml:space="preserve" text-anchor="middle" x="1294.25" y="-68.5" font-family="Helvetica,sans-Serif" font-size="10.00">UI/Data/LevelUIDataAsset.h</text>
</a>
</g>
</g>
<!-- Node10&#45;&gt;Node13 -->
<g id="edge15_Node000010_Node000013" class="edge">
<title>Node10&#45;&gt;Node13</title>
<g id="a_edge15_Node000010_Node000013"><a xlink:title=" ">
<path fill="none" stroke="#63b8ff" d="M826.85,-127.4C920.62,-120.45 1078.99,-107.13 1214.25,-88 1221.5,-86.97 1229.09,-85.75 1236.58,-84.45"/>
<polygon fill="#63b8ff" stroke="#63b8ff" points="1237.12,-87.91 1246.34,-82.7 1235.88,-81.02 1237.12,-87.91"/>
</a>
</g>
</g>
<!-- Node16 -->
<g id="Node000016" class="node">
<title>Node16</title>
<g id="a_Node000016"><a xlink:title=" ">
<polygon fill="#e0e0e0" stroke="#999999" points="819.62,-82 688.88,-82 688.88,-62 819.62,-62 819.62,-82"/>
<text xml:space="preserve" text-anchor="middle" x="754.25" y="-68.5" font-family="Helvetica,sans-Serif" font-size="10.00">UObject/NoExportTypes.h</text>
</a>
</g>
</g>
<!-- Node10&#45;&gt;Node16 -->
<g id="edge20_Node000010_Node000016" class="edge">
<title>Node10&#45;&gt;Node16</title>
<g id="a_edge20_Node000010_Node000016"><a xlink:title=" ">
<path fill="none" stroke="#63b8ff" d="M746.66,-123.62C747.87,-115.56 749.65,-103.65 751.19,-93.41"/>
<polygon fill="#63b8ff" stroke="#63b8ff" points="754.64,-94.02 752.66,-83.61 747.71,-92.98 754.64,-94.02"/>
</a>
</g>
</g>
<!-- Node17 -->
<g id="Node000017" class="node">
<title>Node17</title>
<g id="a_Node000017"><a xlink:href="_item_base_8h.html" target="_top" xlink:title=" ">
<polygon fill="white" stroke="#666666" points="670.62,-82 581.88,-82 581.88,-62 670.62,-62 670.62,-82"/>
<text xml:space="preserve" text-anchor="middle" x="626.25" y="-68.5" font-family="Helvetica,sans-Serif" font-size="10.00">Item/ItemBase.h</text>
</a>
</g>
</g>
<!-- Node10&#45;&gt;Node17 -->
<g id="edge21_Node000010_Node000017" class="edge">
<title>Node10&#45;&gt;Node17</title>
<g id="a_edge21_Node000010_Node000017"><a xlink:title=" ">
<path fill="none" stroke="#63b8ff" d="M726.66,-123.62C707.44,-113.94 677.2,-98.69 654.93,-87.46"/>
<polygon fill="#63b8ff" stroke="#63b8ff" points="656.57,-84.37 646.06,-82.99 653.42,-90.62 656.57,-84.37"/>
</a>
</g>
</g>
<!-- Node23 -->
<g id="Node000023" class="node">
<title>Node23</title>
<g id="a_Node000023"><a xlink:title=" ">
<polygon fill="#e0e0e0" stroke="#999999" points="1005,-82 837.5,-82 837.5,-62 1005,-62 1005,-82"/>
<text xml:space="preserve" text-anchor="middle" x="921.25" y="-68.5" font-family="Helvetica,sans-Serif" font-size="10.00">UIManagerSubsystem.generated.h</text>
</a>
</g>
</g>
<!-- Node10&#45;&gt;Node23 -->
<g id="edge29_Node000010_Node000023" class="edge">
<title>Node10&#45;&gt;Node23</title>
<g id="a_edge29_Node000010_Node000023"><a xlink:title=" ">
<path fill="none" stroke="#63b8ff" d="M772.75,-123.62C802.37,-113.53 849.71,-97.39 882.96,-86.05"/>
<polygon fill="#63b8ff" stroke="#63b8ff" points="883.88,-89.44 892.22,-82.9 881.63,-82.81 883.88,-89.44"/>
</a>
</g>
</g>
<!-- Node13&#45;&gt;Node3 -->
<g id="edge16_Node000013_Node000003" class="edge">
<title>Node13&#45;&gt;Node3</title>
<g id="a_edge16_Node000013_Node000003"><a xlink:title=" ">
<path fill="none" stroke="#63b8ff" d="M1249.99,-61.55C1238.41,-59.4 1225.9,-57.35 1214.25,-56 861.78,-15.29 766.53,-59.54 410.45,-20.06"/>
<polygon fill="#63b8ff" stroke="#63b8ff" points="410.86,-16.59 400.53,-18.95 410.08,-23.54 410.86,-16.59"/>
</a>
</g>
</g>
<!-- Node13&#45;&gt;Node9 -->
<g id="edge18_Node000013_Node000009" class="edge">
<title>Node13&#45;&gt;Node9</title>
<g id="a_edge18_Node000013_Node000009"><a xlink:title=" ">
<path fill="none" stroke="#63b8ff" d="M1322.84,-61.62C1353.78,-51.48 1403.3,-35.25 1437.89,-23.9"/>
<polygon fill="#63b8ff" stroke="#63b8ff" points="1438.71,-27.32 1447.12,-20.88 1436.52,-20.67 1438.71,-27.32"/>
</a>
</g>
</g>
<!-- Node14 -->
<g id="Node000014" class="node">
<title>Node14</title>
<g id="a_Node000014"><a xlink:title=" ">
<polygon fill="#e0e0e0" stroke="#999999" points="1232.12,-20 1128.38,-20 1128.38,0 1232.12,0 1232.12,-20"/>
<text xml:space="preserve" text-anchor="middle" x="1180.25" y="-6.5" font-family="Helvetica,sans-Serif" font-size="10.00">Engine/DataAsset.h</text>
</a>
</g>
</g>
<!-- Node13&#45;&gt;Node14 -->
<g id="edge17_Node000013_Node000014" class="edge">
<title>Node13&#45;&gt;Node14</title>
<g id="a_edge17_Node000013_Node000014"><a xlink:title=" ">
<path fill="none" stroke="#63b8ff" d="M1276.44,-61.62C1258.12,-51.98 1229.33,-36.83 1208.01,-25.61"/>
<polygon fill="#63b8ff" stroke="#63b8ff" points="1209.76,-22.57 1199.28,-21.01 1206.5,-28.77 1209.76,-22.57"/>
</a>
</g>
</g>
<!-- Node15 -->
<g id="Node000015" class="node">
<title>Node15</title>
<g id="a_Node000015"><a xlink:title=" ">
<polygon fill="#e0e0e0" stroke="#999999" points="1400.38,-20 1250.12,-20 1250.12,0 1400.38,0 1400.38,-20"/>
<text xml:space="preserve" text-anchor="middle" x="1325.25" y="-6.5" font-family="Helvetica,sans-Serif" font-size="10.00">LevelUIDataAsset.generated.h</text>
</a>
</g>
</g>
<!-- Node13&#45;&gt;Node15 -->
<g id="edge19_Node000013_Node000015" class="edge">
<title>Node13&#45;&gt;Node15</title>
<g id="a_edge19_Node000013_Node000015"><a xlink:title=" ">
<path fill="none" stroke="#63b8ff" d="M1299.09,-61.62C1303.44,-53.21 1309.96,-40.6 1315.4,-30.07"/>
<polygon fill="#63b8ff" stroke="#63b8ff" points="1318.37,-31.95 1319.85,-21.46 1312.15,-28.74 1318.37,-31.95"/>
</a>
</g>
</g>
<!-- Node17&#45;&gt;Node3 -->
<g id="edge22_Node000017_Node000003" class="edge">
<title>Node17&#45;&gt;Node3</title>
<g id="a_edge22_Node000017_Node000003"><a xlink:title=" ">
<path fill="none" stroke="#63b8ff" d="M594.11,-61.52C587.25,-59.61 580.03,-57.67 573.25,-56 517.75,-42.33 453.52,-29.17 410.02,-20.66"/>
<polygon fill="#63b8ff" stroke="#63b8ff" points="410.85,-17.25 400.36,-18.78 409.51,-24.12 410.85,-17.25"/>
</a>
</g>
</g>
<!-- Node17&#45;&gt;Node4 -->
<g id="edge27_Node000017_Node000004" class="edge">
<title>Node17&#45;&gt;Node4</title>
<g id="a_edge27_Node000017_Node000004"><a xlink:title=" ">
<path fill="none" stroke="#63b8ff" d="M595.6,-61.53C588.33,-59.5 580.55,-57.52 573.25,-56 548.43,-50.84 404.09,-32.04 313.47,-20.43"/>
<polygon fill="#63b8ff" stroke="#63b8ff" points="314.02,-16.97 303.65,-19.18 313.13,-23.92 314.02,-16.97"/>
</a>
</g>
</g>
<!-- Node18 -->
<g id="Node000018" class="node">
<title>Node18</title>
<g id="a_Node000018"><a xlink:title=" ">
<polygon fill="#e0e0e0" stroke="#999999" points="1016.5,-20 864,-20 864,0 1016.5,0 1016.5,-20"/>
<text xml:space="preserve" text-anchor="middle" x="940.25" y="-6.5" font-family="Helvetica,sans-Serif" font-size="10.00">ActiveGameplayEffectHandle.h</text>
</a>
</g>
</g>
<!-- Node17&#45;&gt;Node18 -->
<g id="edge23_Node000017_Node000018" class="edge">
<title>Node17&#45;&gt;Node18</title>
<g id="a_edge23_Node000017_Node000018"><a xlink:title=" ">
<path fill="none" stroke="#63b8ff" d="M658.38,-61.51C665.55,-59.55 673.13,-57.6 680.25,-56 741.46,-42.24 811.59,-30.32 863.58,-22.22"/>
<polygon fill="#63b8ff" stroke="#63b8ff" points="863.87,-25.71 873.22,-20.72 862.8,-18.79 863.87,-25.71"/>
</a>
</g>
</g>
<!-- Node19 -->
<g id="Node000019" class="node">
<title>Node19</title>
<g id="a_Node000019"><a xlink:title=" ">
<polygon fill="#e0e0e0" stroke="#999999" points="1110.25,-20 1034.25,-20 1034.25,0 1110.25,0 1110.25,-20"/>
<text xml:space="preserve" text-anchor="middle" x="1072.25" y="-6.5" font-family="Helvetica,sans-Serif" font-size="10.00">AttributeSet.h</text>
</a>
</g>
</g>
<!-- Node17&#45;&gt;Node19 -->
<g id="edge24_Node000017_Node000019" class="edge">
<title>Node17&#45;&gt;Node19</title>
<g id="a_edge24_Node000017_Node000019"><a xlink:title=" ">
<path fill="none" stroke="#63b8ff" d="M656.88,-61.54C664.46,-59.46 672.6,-57.45 680.25,-56 828.17,-27.94 870.75,-41.83 1022.69,-20.25"/>
<polygon fill="#63b8ff" stroke="#63b8ff" points="1022.93,-23.75 1032.32,-18.85 1021.92,-16.83 1022.93,-23.75"/>
</a>
</g>
</g>
<!-- Node20 -->
<g id="Node000020" class="node">
<title>Node20</title>
<g id="a_Node000020"><a xlink:title=" ">
<polygon fill="#e0e0e0" stroke="#999999" points="565.62,-20 416.88,-20 416.88,0 565.62,0 565.62,-20"/>
<text xml:space="preserve" text-anchor="middle" x="491.25" y="-6.5" font-family="Helvetica,sans-Serif" font-size="10.00">GameplayAbilitySpecHandle.h</text>
</a>
</g>
</g>
<!-- Node17&#45;&gt;Node20 -->
<g id="edge25_Node000017_Node000020" class="edge">
<title>Node17&#45;&gt;Node20</title>
<g id="a_edge25_Node000017_Node000020"><a xlink:title=" ">
<path fill="none" stroke="#63b8ff" d="M605.16,-61.62C582.96,-51.76 547.8,-36.13 522.41,-24.85"/>
<polygon fill="#63b8ff" stroke="#63b8ff" points="524.14,-21.79 513.58,-20.92 521.3,-28.18 524.14,-21.79"/>
</a>
</g>
</g>
<!-- Node21 -->
<g id="Node000021" class="node">
<title>Node21</title>
<g id="a_Node000021"><a xlink:title=" ">
<polygon fill="#e0e0e0" stroke="#999999" points="716.38,-20 584.12,-20 584.12,0 716.38,0 716.38,-20"/>
<text xml:space="preserve" text-anchor="middle" x="650.25" y="-6.5" font-family="Helvetica,sans-Serif" font-size="10.00">Abilities/GameplayAbility.h</text>
</a>
</g>
</g>
<!-- Node17&#45;&gt;Node21 -->
<g id="edge26_Node000017_Node000021" class="edge">
<title>Node17&#45;&gt;Node21</title>
<g id="a_edge26_Node000017_Node000021"><a xlink:title=" ">
<path fill="none" stroke="#63b8ff" d="M630,-61.62C633.3,-53.39 638.2,-41.13 642.36,-30.74"/>
<polygon fill="#63b8ff" stroke="#63b8ff" points="645.58,-32.1 646.04,-21.52 639.08,-29.5 645.58,-32.1"/>
</a>
</g>
</g>
<!-- Node22 -->
<g id="Node000022" class="node">
<title>Node22</title>
<g id="a_Node000022"><a xlink:title=" ">
<polygon fill="#e0e0e0" stroke="#999999" points="846.25,-20 734.25,-20 734.25,0 846.25,0 846.25,-20"/>
<text xml:space="preserve" text-anchor="middle" x="790.25" y="-6.5" font-family="Helvetica,sans-Serif" font-size="10.00">ItemBase.generated.h</text>
</a>
</g>
</g>
<!-- Node17&#45;&gt;Node22 -->
<g id="edge28_Node000017_Node000022" class="edge">
<title>Node17&#45;&gt;Node22</title>
<g id="a_edge28_Node000017_Node000022"><a xlink:title=" ">
<path fill="none" stroke="#63b8ff" d="M651.88,-61.62C679.23,-51.62 722.82,-35.67 753.76,-24.35"/>
<polygon fill="#63b8ff" stroke="#63b8ff" points="754.92,-27.65 763.11,-20.93 752.52,-21.08 754.92,-27.65"/>
</a>
</g>
</g>
</g>
</svg>

<g id="navigator" transform="translate(0 0)" fill="#404254">
  <rect fill="#f2f5e9" fill-opacity="0.5" stroke="#606060" stroke-width=".5" x="0" y="0" width="60" height="60"/>
  <use id="zoomplus" xlink:href="#zoomPlus" x="17" y="9" onmousedown="handleZoom(evt,'in')"/>
  <use id="zoomminus" xlink:href="#zoomMin" x="42" y="9" onmousedown="handleZoom(evt,'out')"/>
  <use id="reset" xlink:href="#resetDef" x="30" y="36" onmousedown="handleReset()"/>
   <use id="arrowup" xlink:href="#arrowUp" x="0" y="0" onmousedown="handlePan(0,-1)"/>
  <use id="arrowright" xlink:href="#arrowRight" x="0" y="0" onmousedown="handlePan(1,0)"/>
  <use id="arrowdown" xlink:href="#arrowDown" x="0" y="0" onmousedown="handlePan(0,1)"/>
  <use id="arrowleft" xlink:href="#arrowLeft" x="0" y="0" onmousedown="handlePan(-1,0)"/>
</g>
<svg viewBox="0 0 15 15" width="100%" height="30px" preserveAspectRatio="xMaxYMin meet">
 <g id="arrow_out" transform="scale(0.3 0.3)">
  <a xlink:href="_damage_attach_actor_8cpp__incl_org.svg" target="_base">
   <rect id="button" ry="5" rx="5" y="6" x="6" height="38" width="38"
        fill="#f2f5e9" fill-opacity="0.5" stroke="#606060" stroke-width="1.0"/>
   <path id="arrow"
     d="M 11.500037,31.436501 C 11.940474,20.09759 22.043105,11.32322 32.158766,21.979434 L 37.068811,17.246167 C 37.068811,17.246167 37.088388,32 37.088388,32 L 22.160133,31.978069 C 22.160133,31.978069 26.997745,27.140456 26.997745,27.140456 C 18.528582,18.264221 13.291696,25.230495 11.500037,31.436501 z"
     style="fill:#404040;"/>
  </a>
 </g>
</svg>

<style type='text/css'>
<![CDATA[
[data-mouse-over-selected='false'] { opacity: 0.7; }
[data-mouse-over-selected='true']  { opacity: 1.0; }
]]>
</style>
<script type="application/ecmascript"><![CDATA[
document.addEventListener('DOMContentLoaded', (event) => {
  highlightEdges();
  highlightAdjacentNodes();
});
]]></script>
</svg>
