<?xml version="1.0" encoding="UTF-8" standalone="no"?>
<!DOCTYPE svg PUBLIC "-//W3C//DTD SVG 1.1//EN"
 "http://www.w3.org/Graphics/SVG/1.1/DTD/svg11.dtd">
<!-- Generated by graphviz version 13.1.1 (20250719.2154)
 -->
<!-- Title: C:/Users/user/Perforce/alz7_CobaltbruWorkspace_00/KPT/Source/KPT/Core/Component/Flocking/EnemyFlockingComponent.h Pages: 1 -->
<svg width="637pt" height="272pt"
 viewBox="0.00 0.00 637.00 272.00" xmlns="http://www.w3.org/2000/svg" xmlns:xlink="http://www.w3.org/1999/xlink">
<g id="graph0" class="graph" transform="scale(1 1) rotate(0) translate(4 268)">
<title>C:/Users/user/Perforce/alz7_CobaltbruWorkspace_00/KPT/Source/KPT/Core/Component/Flocking/EnemyFlockingComponent.h</title>
<!-- Node1 -->
<g id="Node000001" class="node">
<title>Node1</title>
<g id="a_Node000001"><a xlink:title=" ">
<polygon fill="#999999" stroke="#666666" points="419.12,-264 239.62,-264 239.62,-196 419.12,-196 419.12,-264"/>
<text xml:space="preserve" text-anchor="start" x="247.62" y="-250.5" font-family="Helvetica,sans-Serif" font-size="10.00">C:/Users/user/Perforce</text>
<text xml:space="preserve" text-anchor="start" x="247.62" y="-238.5" font-family="Helvetica,sans-Serif" font-size="10.00">/alz7_CobaltbruWorkspace</text>
<text xml:space="preserve" text-anchor="start" x="247.62" y="-226.5" font-family="Helvetica,sans-Serif" font-size="10.00">_00/KPT/Source/KPT/Core</text>
<text xml:space="preserve" text-anchor="start" x="247.62" y="-214.5" font-family="Helvetica,sans-Serif" font-size="10.00">/Component/Flocking/EnemyFlocking</text>
<text xml:space="preserve" text-anchor="middle" x="329.38" y="-202.5" font-family="Helvetica,sans-Serif" font-size="10.00">Component.h</text>
</a>
</g>
</g>
<!-- Node2 -->
<g id="Node000002" class="node">
<title>Node2</title>
<g id="a_Node000002"><a xlink:href="_minion_monster_8cpp.html" target="_top" xlink:title=" ">
<polygon fill="white" stroke="#666666" points="208.75,-56 0,-56 0,-12 208.75,-12 208.75,-56"/>
<text xml:space="preserve" text-anchor="start" x="8" y="-42.5" font-family="Helvetica,sans-Serif" font-size="10.00">C:/Users/user/Perforce</text>
<text xml:space="preserve" text-anchor="start" x="8" y="-30.5" font-family="Helvetica,sans-Serif" font-size="10.00">/alz7_CobaltbruWorkspace</text>
<text xml:space="preserve" text-anchor="middle" x="104.38" y="-18.5" font-family="Helvetica,sans-Serif" font-size="10.00">_00/KPT/Source/KPT/AI/MinionMonster.cpp</text>
</a>
</g>
</g>
<!-- Node1&#45;&gt;Node2 -->
<g id="edge1_Node000001_Node000002" class="edge">
<title>Node1&#45;&gt;Node2</title>
<g id="a_edge1_Node000001_Node000002"><a xlink:title=" ">
<path fill="none" stroke="#63b8ff" d="M263.28,-189.39C249.67,-180.29 235.72,-170.26 223.38,-160 183.97,-127.25 144.11,-82.48 121.99,-56.36"/>
<polygon fill="#63b8ff" stroke="#63b8ff" points="261.09,-192.13 271.37,-194.69 264.93,-186.28 261.09,-192.13"/>
</a>
</g>
</g>
<!-- Node3 -->
<g id="Node000003" class="node">
<title>Node3</title>
<g id="a_Node000003"><a xlink:href="_enemy_flocking_component_8cpp.html" target="_top" xlink:title=" ">
<polygon fill="white" stroke="#666666" points="629.12,-68 449.62,-68 449.62,0 629.12,0 629.12,-68"/>
<text xml:space="preserve" text-anchor="start" x="457.62" y="-54.5" font-family="Helvetica,sans-Serif" font-size="10.00">C:/Users/user/Perforce</text>
<text xml:space="preserve" text-anchor="start" x="457.62" y="-42.5" font-family="Helvetica,sans-Serif" font-size="10.00">/alz7_CobaltbruWorkspace</text>
<text xml:space="preserve" text-anchor="start" x="457.62" y="-30.5" font-family="Helvetica,sans-Serif" font-size="10.00">_00/KPT/Source/KPT/Core</text>
<text xml:space="preserve" text-anchor="start" x="457.62" y="-18.5" font-family="Helvetica,sans-Serif" font-size="10.00">/Component/Flocking/EnemyFlocking</text>
<text xml:space="preserve" text-anchor="middle" x="539.38" y="-6.5" font-family="Helvetica,sans-Serif" font-size="10.00">Component.cpp</text>
</a>
</g>
</g>
<!-- Node1&#45;&gt;Node3 -->
<g id="edge2_Node000001_Node000003" class="edge">
<title>Node1&#45;&gt;Node3</title>
<g id="a_edge2_Node000001_Node000003"><a xlink:title=" ">
<path fill="none" stroke="#63b8ff" d="M397.07,-189.29C410.3,-180.34 423.69,-170.39 435.38,-160 466.49,-132.33 496.27,-95.05 515.93,-68.42"/>
<polygon fill="#63b8ff" stroke="#63b8ff" points="395.16,-186.36 388.74,-194.79 399.02,-192.2 395.16,-186.36"/>
</a>
</g>
</g>
<!-- Node4 -->
<g id="Node000004" class="node">
<title>Node4</title>
<g id="a_Node000004"><a xlink:href="_flocking_manager_8h.html" target="_top" xlink:title=" ">
<polygon fill="white" stroke="#666666" points="426.62,-160 232.12,-160 232.12,-104 426.62,-104 426.62,-160"/>
<text xml:space="preserve" text-anchor="start" x="240.12" y="-146.5" font-family="Helvetica,sans-Serif" font-size="10.00">C:/Users/user/Perforce</text>
<text xml:space="preserve" text-anchor="start" x="240.12" y="-134.5" font-family="Helvetica,sans-Serif" font-size="10.00">/alz7_CobaltbruWorkspace</text>
<text xml:space="preserve" text-anchor="start" x="240.12" y="-122.5" font-family="Helvetica,sans-Serif" font-size="10.00">_00/KPT/Source/KPT/Core</text>
<text xml:space="preserve" text-anchor="middle" x="329.38" y="-110.5" font-family="Helvetica,sans-Serif" font-size="10.00">/Component/Flocking/FlockingManager.h</text>
</a>
</g>
</g>
<!-- Node1&#45;&gt;Node4 -->
<g id="edge3_Node000001_Node000004" class="edge">
<title>Node1&#45;&gt;Node4</title>
<g id="a_edge3_Node000001_Node000004"><a xlink:title=" ">
<path fill="none" stroke="#63b8ff" d="M329.38,-184.27C329.38,-176.06 329.38,-167.72 329.38,-160.21"/>
<polygon fill="#63b8ff" stroke="#63b8ff" points="325.88,-184.18 329.38,-194.18 332.88,-184.18 325.88,-184.18"/>
</a>
</g>
</g>
<!-- Node4&#45;&gt;Node2 -->
<g id="edge4_Node000004_Node000002" class="edge">
<title>Node4&#45;&gt;Node2</title>
<g id="a_edge4_Node000004_Node000002"><a xlink:title=" ">
<path fill="none" stroke="#63b8ff" d="M254.72,-99.15C221.87,-85.13 184.14,-69.03 154.69,-56.47"/>
<polygon fill="#63b8ff" stroke="#63b8ff" points="253.24,-102.32 263.81,-103.02 255.98,-95.88 253.24,-102.32"/>
</a>
</g>
</g>
<!-- Node4&#45;&gt;Node3 -->
<g id="edge5_Node000004_Node000003" class="edge">
<title>Node4&#45;&gt;Node3</title>
<g id="a_edge5_Node000004_Node000003"><a xlink:title=" ">
<path fill="none" stroke="#63b8ff" d="M399.61,-98.89C421.06,-89.08 444.7,-78.28 466.34,-68.39"/>
<polygon fill="#63b8ff" stroke="#63b8ff" points="398.29,-95.65 390.65,-102.99 401.2,-102.01 398.29,-95.65"/>
</a>
</g>
</g>
<!-- Node5 -->
<g id="Node000005" class="node">
<title>Node5</title>
<g id="a_Node000005"><a xlink:href="_flocking_manager_8cpp.html" target="_top" xlink:title=" ">
<polygon fill="white" stroke="#666666" points="431.88,-62 226.88,-62 226.88,-6 431.88,-6 431.88,-62"/>
<text xml:space="preserve" text-anchor="start" x="234.88" y="-48.5" font-family="Helvetica,sans-Serif" font-size="10.00">C:/Users/user/Perforce</text>
<text xml:space="preserve" text-anchor="start" x="234.88" y="-36.5" font-family="Helvetica,sans-Serif" font-size="10.00">/alz7_CobaltbruWorkspace</text>
<text xml:space="preserve" text-anchor="start" x="234.88" y="-24.5" font-family="Helvetica,sans-Serif" font-size="10.00">_00/KPT/Source/KPT/Core</text>
<text xml:space="preserve" text-anchor="middle" x="329.38" y="-12.5" font-family="Helvetica,sans-Serif" font-size="10.00">/Component/Flocking/FlockingManager.cpp</text>
</a>
</g>
</g>
<!-- Node4&#45;&gt;Node5 -->
<g id="edge6_Node000004_Node000005" class="edge">
<title>Node4&#45;&gt;Node5</title>
<g id="a_edge6_Node000004_Node000005"><a xlink:title=" ">
<path fill="none" stroke="#63b8ff" d="M329.38,-92.32C329.38,-82.27 329.38,-71.65 329.38,-62.32"/>
<polygon fill="#63b8ff" stroke="#63b8ff" points="325.88,-92.23 329.38,-102.23 332.88,-92.23 325.88,-92.23"/>
</a>
</g>
</g>
</g>
</svg>
