<?xml version="1.0" encoding="UTF-8" standalone="no"?>
<!DOCTYPE svg PUBLIC "-//W3C//DTD SVG 1.1//EN"
 "http://www.w3.org/Graphics/SVG/1.1/DTD/svg11.dtd">
<!-- Generated by graphviz version 13.1.1 (20250719.2154)
 -->
<!-- Title: C:/Users/user/Perforce/alz7_CobaltbruWorkspace_00/KPT/Source/KPT/Core/Component/Flocking/EnemyFlockingComponent.cpp Pages: 1 -->
<!--zoomable 256 -->

<svg id="main" version="1.1" xmlns="http://www.w3.org/2000/svg" xmlns:xlink="http://www.w3.org/1999/xlink" xml:space="preserve" onload="init(evt)">

<style type="text/css"><![CDATA[
.node, .edge {opacity: 0.7;}
.node.selected, .edge.selected {opacity: 1;}
.edge:hover path { stroke: red; }
.edge:hover polygon { stroke: red; fill: red; }
]]></style>

<defs>
  <circle id="rim" cx="0" cy="0" r="7"/>
  <circle id="rim2" cx="0" cy="0" r="3.5"/>
  <g id="zoomPlus">
    <use xlink:href="#rim" fill="#404040"><set attributeName="fill" to="#808080" begin="zoomplus.mouseover" end="zoomplus.mouseout"/></use>
    <path d="M-4,0h8M0,-4v8" fill="none" stroke="white" stroke-width="1.5" pointer-events="none"/>
  </g>
  <g id="zoomMin">
    <use xlink:href="#rim" fill="#404040"><set attributeName="fill" to="#808080" begin="zoomminus.mouseover" end="zoomminus.mouseout"/></use>
    <path d="M-4,0h8" fill="none" stroke="white" stroke-width="1.5" pointer-events="none"/>
  </g>
  <g id="arrowUp" transform="translate(30 24)">
    <use xlink:href="#rim"/>
    <path pointer-events="none" fill="none" stroke="white" stroke-width="1.5" d="M0,-3.0v7 M-2.5,-0.5L0,-3.0L2.5,-0.5"/>
  </g>
  <g id="arrowRight" transform="rotate(90) translate(36 -43)">
    <use xlink:href="#rim"/>
    <path pointer-events="none" fill="none" stroke="white" stroke-width="1.5" d="M0,-3.0v7 M-2.5,-0.5L0,-3.0L2.5,-0.5"/>
  </g>
  <g id="arrowDown" transform="rotate(180) translate(-30 -48)">
    <use xlink:href="#rim"/>
    <path pointer-events="none" fill="none" stroke="white" stroke-width="1.5" d="M0,-3.0v7 M-2.5,-0.5L0,-3.0L2.5,-0.5"/>
  </g>
  <g id="arrowLeft" transform="rotate(270) translate(-36 17)">
    <use xlink:href="#rim"/>
    <path pointer-events="none" fill="none" stroke="white" stroke-width="1.5" d="M0,-3.0v7 M-2.5,-0.5L0,-3.0L2.5,-0.5"/>
  </g>
  <g id="resetDef">
    <use xlink:href="#rim2" fill="#404040"><set attributeName="fill" to="#808080" begin="reset.mouseover" end="reset.mouseout"/></use>
  </g>
</defs>
<script type="application/ecmascript">
var viewWidth = 1894;
var viewHeight = 256;
var sectionId = 'dynsection-0';
</script>
<script type="application/ecmascript" xlink:href="svg.min.js"/>
<svg id="graph" class="graph">
<g id="viewport">
<title>C:/Users/user/Perforce/alz7_CobaltbruWorkspace_00/KPT/Source/KPT/Core/Component/Flocking/EnemyFlockingComponent.cpp</title>
<!-- Node1 -->
<g id="Node000001" class="node">
<title>Node1</title>
<g id="a_Node000001"><a xlink:title=" ">
<polygon fill="#999999" stroke="#666666" points="1166.62,-248 987.12,-248 987.12,-180 1166.62,-180 1166.62,-248"/>
<text xml:space="preserve" text-anchor="start" x="995.12" y="-234.5" font-family="Helvetica,sans-Serif" font-size="10.00">C:/Users/user/Perforce</text>
<text xml:space="preserve" text-anchor="start" x="995.12" y="-222.5" font-family="Helvetica,sans-Serif" font-size="10.00">/alz7_CobaltbruWorkspace</text>
<text xml:space="preserve" text-anchor="start" x="995.12" y="-210.5" font-family="Helvetica,sans-Serif" font-size="10.00">_00/KPT/Source/KPT/Core</text>
<text xml:space="preserve" text-anchor="start" x="995.12" y="-198.5" font-family="Helvetica,sans-Serif" font-size="10.00">/Component/Flocking/EnemyFlocking</text>
<text xml:space="preserve" text-anchor="middle" x="1076.88" y="-186.5" font-family="Helvetica,sans-Serif" font-size="10.00">Component.cpp</text>
</a>
</g>
</g>
<!-- Node2 -->
<g id="Node000002" class="node">
<title>Node2</title>
<g id="a_Node000002"><a xlink:href="_enemy_flocking_component_8h.html" target="_top" xlink:title=" ">
<polygon fill="white" stroke="#666666" points="288.88,-82 146.88,-82 146.88,-62 288.88,-62 288.88,-82"/>
<text xml:space="preserve" text-anchor="middle" x="217.88" y="-68.5" font-family="Helvetica,sans-Serif" font-size="10.00">EnemyFlockingComponent.h</text>
</a>
</g>
</g>
<!-- Node1&#45;&gt;Node2 -->
<g id="edge1_Node000001_Node000002" class="edge">
<title>Node1&#45;&gt;Node2</title>
<g id="a_edge1_Node000001_Node000002"><a xlink:title=" ">
<path fill="none" stroke="#63b8ff" d="M986.81,-207.12C868.35,-198.37 654.1,-179.08 473.88,-144 395.96,-128.84 307.11,-101.97 257.24,-85.99"/>
<polygon fill="#63b8ff" stroke="#63b8ff" points="258.35,-82.68 247.76,-82.93 256.2,-89.34 258.35,-82.68"/>
</a>
</g>
</g>
<!-- Node6 -->
<g id="Node000006" class="node">
<title>Node6</title>
<g id="a_Node000006"><a xlink:title=" ">
<polygon fill="#e0e0e0" stroke="#999999" points="909.5,-20 786.25,-20 786.25,0 909.5,0 909.5,-20"/>
<text xml:space="preserve" text-anchor="middle" x="847.88" y="-6.5" font-family="Helvetica,sans-Serif" font-size="10.00">AbilitySystemInterface.h</text>
</a>
</g>
</g>
<!-- Node1&#45;&gt;Node6 -->
<g id="edge5_Node000001_Node000006" class="edge">
<title>Node1&#45;&gt;Node6</title>
<g id="a_edge5_Node000001_Node000006"><a xlink:title=" ">
<path fill="none" stroke="#63b8ff" d="M1097.4,-179.6C1115.87,-144.8 1135.99,-90.61 1106.88,-56 1100.83,-48.82 995.55,-32.28 921.1,-21.37"/>
<polygon fill="#63b8ff" stroke="#63b8ff" points="921.79,-17.94 911.39,-19.96 920.78,-24.87 921.79,-17.94"/>
</a>
</g>
</g>
<!-- Node7 -->
<g id="Node000007" class="node">
<title>Node7</title>
<g id="a_Node000007"><a xlink:href="_flocking_manager_8h.html" target="_top" xlink:title=" ">
<polygon fill="white" stroke="#666666" points="581.12,-144 482.62,-144 482.62,-124 581.12,-124 581.12,-144"/>
<text xml:space="preserve" text-anchor="middle" x="531.88" y="-130.5" font-family="Helvetica,sans-Serif" font-size="10.00">FlockingManager.h</text>
</a>
</g>
</g>
<!-- Node1&#45;&gt;Node7 -->
<g id="edge6_Node000001_Node000007" class="edge">
<title>Node1&#45;&gt;Node7</title>
<g id="a_edge6_Node000001_Node000007"><a xlink:title=" ">
<path fill="none" stroke="#63b8ff" d="M986.88,-200.12C875.46,-184.17 688.71,-157.45 592.8,-143.72"/>
<polygon fill="#63b8ff" stroke="#63b8ff" points="593.45,-140.28 583.06,-142.33 592.46,-147.21 593.45,-140.28"/>
</a>
</g>
</g>
<!-- Node10 -->
<g id="Node000010" class="node">
<title>Node10</title>
<g id="a_Node000010"><a xlink:href="_player_character_8h.html" target="_top" xlink:title=" ">
<polygon fill="white" stroke="#666666" points="1098.12,-144 957.62,-144 957.62,-124 1098.12,-124 1098.12,-144"/>
<text xml:space="preserve" text-anchor="middle" x="1027.88" y="-130.5" font-family="Helvetica,sans-Serif" font-size="10.00">Character/PlayerCharacter.h</text>
</a>
</g>
</g>
<!-- Node1&#45;&gt;Node10 -->
<g id="edge11_Node000001_Node000010" class="edge">
<title>Node1&#45;&gt;Node10</title>
<g id="a_edge11_Node000001_Node000010"><a xlink:title=" ">
<path fill="none" stroke="#63b8ff" d="M1056.09,-179.92C1050.5,-171.01 1044.64,-161.69 1039.72,-153.85"/>
<polygon fill="#63b8ff" stroke="#63b8ff" points="1042.79,-152.17 1034.51,-145.56 1036.86,-155.89 1042.79,-152.17"/>
</a>
</g>
</g>
<!-- Node21 -->
<g id="Node000021" class="node">
<title>Node21</title>
<g id="a_Node000021"><a xlink:href="_k_p_t_ability_system_component_8h.html" target="_top" xlink:title=" ">
<polygon fill="white" stroke="#666666" points="1331.88,-144 1153.88,-144 1153.88,-124 1331.88,-124 1331.88,-144"/>
<text xml:space="preserve" text-anchor="middle" x="1242.88" y="-130.5" font-family="Helvetica,sans-Serif" font-size="10.00">GAS/KPTAbilitySystemComponent.h</text>
</a>
</g>
</g>
<!-- Node1&#45;&gt;Node21 -->
<g id="edge28_Node000001_Node000021" class="edge">
<title>Node1&#45;&gt;Node21</title>
<g id="a_edge28_Node000001_Node000021"><a xlink:title=" ">
<path fill="none" stroke="#63b8ff" d="M1147.76,-179.69C1170.48,-169.01 1194.45,-157.75 1212.64,-149.21"/>
<polygon fill="#63b8ff" stroke="#63b8ff" points="1213.96,-152.45 1221.53,-145.03 1210.99,-146.12 1213.96,-152.45"/>
</a>
</g>
</g>
<!-- Node24 -->
<g id="Node000024" class="node">
<title>Node24</title>
<g id="a_Node000024"><a xlink:title=" ">
<polygon fill="#e0e0e0" stroke="#999999" points="1483.38,-144 1350.38,-144 1350.38,-124 1483.38,-124 1483.38,-144"/>
<text xml:space="preserve" text-anchor="middle" x="1416.88" y="-130.5" font-family="Helvetica,sans-Serif" font-size="10.00">Kismet/GameplayStatics.h</text>
</a>
</g>
</g>
<!-- Node1&#45;&gt;Node24 -->
<g id="edge32_Node000001_Node000024" class="edge">
<title>Node1&#45;&gt;Node24</title>
<g id="a_edge32_Node000001_Node000024"><a xlink:title=" ">
<path fill="none" stroke="#63b8ff" d="M1167.1,-192.3C1230.15,-177.84 1312.13,-159.03 1364.64,-146.98"/>
<polygon fill="#63b8ff" stroke="#63b8ff" points="1365.26,-150.43 1374.23,-144.78 1363.7,-143.61 1365.26,-150.43"/>
</a>
</g>
</g>
<!-- Node3 -->
<g id="Node000003" class="node">
<title>Node3</title>
<g id="a_Node000003"><a xlink:title=" ">
<polygon fill="#e0e0e0" stroke="#999999" points="1011.38,-20 932.38,-20 932.38,0 1011.38,0 1011.38,-20"/>
<text xml:space="preserve" text-anchor="middle" x="971.88" y="-6.5" font-family="Helvetica,sans-Serif" font-size="10.00">CoreMinimal.h</text>
</a>
</g>
</g>
<!-- Node2&#45;&gt;Node3 -->
<g id="edge2_Node000002_Node000003" class="edge">
<title>Node2&#45;&gt;Node3</title>
<g id="a_edge2_Node000002_Node000003"><a xlink:title=" ">
<path fill="none" stroke="#63b8ff" d="M262.99,-61.5C274.33,-59.4 286.51,-57.39 297.88,-56 572.3,-22.46 644.18,-51.19 918.88,-20 919.54,-19.92 920.21,-19.85 920.89,-19.76"/>
<polygon fill="#63b8ff" stroke="#63b8ff" points="921.07,-23.27 930.51,-18.46 920.13,-16.34 921.07,-23.27"/>
</a>
</g>
</g>
<!-- Node4 -->
<g id="Node000004" class="node">
<title>Node4</title>
<g id="a_Node000004"><a xlink:title=" ">
<polygon fill="#e0e0e0" stroke="#999999" points="362,-20 205.75,-20 205.75,0 362,0 362,-20"/>
<text xml:space="preserve" text-anchor="middle" x="283.88" y="-6.5" font-family="Helvetica,sans-Serif" font-size="10.00">Components/ActorComponent.h</text>
</a>
</g>
</g>
<!-- Node2&#45;&gt;Node4 -->
<g id="edge3_Node000002_Node000004" class="edge">
<title>Node2&#45;&gt;Node4</title>
<g id="a_edge3_Node000002_Node000004"><a xlink:title=" ">
<path fill="none" stroke="#63b8ff" d="M228.19,-61.62C238.13,-52.59 253.39,-38.72 265.42,-27.78"/>
<polygon fill="#63b8ff" stroke="#63b8ff" points="267.69,-30.45 272.73,-21.13 262.98,-25.27 267.69,-30.45"/>
</a>
</g>
</g>
<!-- Node5 -->
<g id="Node000005" class="node">
<title>Node5</title>
<g id="a_Node000005"><a xlink:title=" ">
<polygon fill="#e0e0e0" stroke="#999999" points="187.75,-20 0,-20 0,0 187.75,0 187.75,-20"/>
<text xml:space="preserve" text-anchor="middle" x="93.88" y="-6.5" font-family="Helvetica,sans-Serif" font-size="10.00">EnemyFlockingComponent.generated.h</text>
</a>
</g>
</g>
<!-- Node2&#45;&gt;Node5 -->
<g id="edge4_Node000002_Node000005" class="edge">
<title>Node2&#45;&gt;Node5</title>
<g id="a_edge4_Node000002_Node000005"><a xlink:title=" ">
<path fill="none" stroke="#63b8ff" d="M198.5,-61.62C178.39,-51.89 146.68,-36.55 123.44,-25.31"/>
<polygon fill="#63b8ff" stroke="#63b8ff" points="125,-22.17 114.48,-20.97 121.95,-28.47 125,-22.17"/>
</a>
</g>
</g>
<!-- Node7&#45;&gt;Node2 -->
<g id="edge9_Node000007_Node000002" class="edge">
<title>Node7&#45;&gt;Node2</title>
<g id="a_edge9_Node000007_Node000002"><a xlink:title=" ">
<path fill="none" stroke="#63b8ff" d="M482.47,-123.56C427.3,-113.02 337.99,-95.95 278.6,-84.6"/>
<polygon fill="#63b8ff" stroke="#63b8ff" points="279.48,-81.21 269,-82.77 278.16,-88.08 279.48,-81.21"/>
</a>
</g>
</g>
<!-- Node7&#45;&gt;Node3 -->
<g id="edge7_Node000007_Node000003" class="edge">
<title>Node7&#45;&gt;Node3</title>
<g id="a_edge7_Node000007_Node000003"><a xlink:title=" ">
<path fill="none" stroke="#63b8ff" d="M581.51,-130.19C628.66,-125.91 700.52,-115.13 756.88,-88 776.77,-78.42 775.23,-66.09 794.88,-56 816.67,-44.81 876.66,-30.73 920.78,-21.33"/>
<polygon fill="#63b8ff" stroke="#63b8ff" points="921.36,-24.78 930.43,-19.3 919.92,-17.93 921.36,-24.78"/>
</a>
</g>
</g>
<!-- Node8 -->
<g id="Node000008" class="node">
<title>Node8</title>
<g id="a_Node000008"><a xlink:title=" ">
<polygon fill="#e0e0e0" stroke="#999999" points="594.62,-82 469.12,-82 469.12,-62 594.62,-62 594.62,-82"/>
<text xml:space="preserve" text-anchor="middle" x="531.88" y="-68.5" font-family="Helvetica,sans-Serif" font-size="10.00">GameFramework/Actor.h</text>
</a>
</g>
</g>
<!-- Node7&#45;&gt;Node8 -->
<g id="edge8_Node000007_Node000008" class="edge">
<title>Node7&#45;&gt;Node8</title>
<g id="a_edge8_Node000007_Node000008"><a xlink:title=" ">
<path fill="none" stroke="#63b8ff" d="M531.88,-123.62C531.88,-115.56 531.88,-103.65 531.88,-93.41"/>
<polygon fill="#63b8ff" stroke="#63b8ff" points="535.38,-93.63 531.88,-83.63 528.38,-93.63 535.38,-93.63"/>
</a>
</g>
</g>
<!-- Node9 -->
<g id="Node000009" class="node">
<title>Node9</title>
<g id="a_Node000009"><a xlink:title=" ">
<polygon fill="#e0e0e0" stroke="#999999" points="451,-82 306.75,-82 306.75,-62 451,-62 451,-82"/>
<text xml:space="preserve" text-anchor="middle" x="378.88" y="-68.5" font-family="Helvetica,sans-Serif" font-size="10.00">FlockingManager.generated.h</text>
</a>
</g>
</g>
<!-- Node7&#45;&gt;Node9 -->
<g id="edge10_Node000007_Node000009" class="edge">
<title>Node7&#45;&gt;Node9</title>
<g id="a_edge10_Node000007_Node000009"><a xlink:title=" ">
<path fill="none" stroke="#63b8ff" d="M507.97,-123.62C482.56,-113.66 442.13,-97.81 413.3,-86.5"/>
<polygon fill="#63b8ff" stroke="#63b8ff" points="414.86,-83.35 404.27,-82.96 412.31,-89.87 414.86,-83.35"/>
</a>
</g>
</g>
<!-- Node10&#45;&gt;Node3 -->
<g id="edge12_Node000010_Node000003" class="edge">
<title>Node10&#45;&gt;Node3</title>
<g id="a_edge12_Node000010_Node000003"><a xlink:title=" ">
<path fill="none" stroke="#63b8ff" d="M1017.93,-123.56C1009.52,-115.03 997.77,-101.74 990.88,-88 981.91,-70.13 977,-47.76 974.43,-31.75"/>
<polygon fill="#63b8ff" stroke="#63b8ff" points="977.92,-31.38 973.05,-21.97 970.99,-32.36 977.92,-31.38"/>
</a>
</g>
</g>
<!-- Node11 -->
<g id="Node000011" class="node">
<title>Node11</title>
<g id="a_Node000011"><a xlink:href="_character_base_8h.html" target="_top" xlink:title=" ">
<polygon fill="white" stroke="#666666" points="747.5,-82 612.25,-82 612.25,-62 747.5,-62 747.5,-82"/>
<text xml:space="preserve" text-anchor="middle" x="679.88" y="-68.5" font-family="Helvetica,sans-Serif" font-size="10.00">Character/CharacterBase.h</text>
</a>
</g>
</g>
<!-- Node10&#45;&gt;Node11 -->
<g id="edge13_Node000010_Node000011" class="edge">
<title>Node10&#45;&gt;Node11</title>
<g id="a_edge13_Node000010_Node000011"><a xlink:title=" ">
<path fill="none" stroke="#63b8ff" d="M973.12,-123.56C911.6,-112.95 811.76,-95.74 745.95,-84.39"/>
<polygon fill="#63b8ff" stroke="#63b8ff" points="746.83,-80.99 736.38,-82.74 745.64,-87.89 746.83,-80.99"/>
</a>
</g>
</g>
<!-- Node14 -->
<g id="Node000014" class="node">
<title>Node14</title>
<g id="a_Node000014"><a xlink:title=" ">
<polygon fill="#e0e0e0" stroke="#999999" points="1097.75,-82 1000,-82 1000,-62 1097.75,-62 1097.75,-82"/>
<text xml:space="preserve" text-anchor="middle" x="1048.88" y="-68.5" font-family="Helvetica,sans-Serif" font-size="10.00">InputActionValue.h</text>
</a>
</g>
</g>
<!-- Node10&#45;&gt;Node14 -->
<g id="edge18_Node000010_Node000014" class="edge">
<title>Node10&#45;&gt;Node14</title>
<g id="a_edge18_Node000010_Node000014"><a xlink:title=" ">
<path fill="none" stroke="#63b8ff" d="M1031.16,-123.62C1034.04,-115.39 1038.33,-103.13 1041.97,-92.74"/>
<polygon fill="#63b8ff" stroke="#63b8ff" points="1045.19,-94.14 1045.19,-83.54 1038.58,-91.82 1045.19,-94.14"/>
</a>
</g>
</g>
<!-- Node15 -->
<g id="Node000015" class="node">
<title>Node15</title>
<g id="a_Node000015"><a xlink:href="_combat_interface_8h.html" target="_top" xlink:title=" ">
<polygon fill="white" stroke="#666666" points="1514,-82 1351.75,-82 1351.75,-62 1514,-62 1514,-82"/>
<text xml:space="preserve" text-anchor="middle" x="1432.88" y="-68.5" font-family="Helvetica,sans-Serif" font-size="10.00">Core/Interface/CombatInterface.h</text>
</a>
</g>
</g>
<!-- Node10&#45;&gt;Node15 -->
<g id="edge19_Node000010_Node000015" class="edge">
<title>Node10&#45;&gt;Node15</title>
<g id="a_edge19_Node000010_Node000015"><a xlink:title=" ">
<path fill="none" stroke="#63b8ff" d="M1097.39,-123.54C1161.26,-114.74 1258.53,-101.05 1342.88,-88 1350.34,-86.84 1358.15,-85.6 1365.92,-84.34"/>
<polygon fill="#63b8ff" stroke="#63b8ff" points="1366.42,-87.8 1375.72,-82.73 1365.29,-80.89 1366.42,-87.8"/>
</a>
</g>
</g>
<!-- Node18 -->
<g id="Node000018" class="node">
<title>Node18</title>
<g id="a_Node000018"><a xlink:href="_k_p_t_pausable_interface_8h.html" target="_top" xlink:title=" ">
<polygon fill="white" stroke="#666666" points="1333.5,-88 1192.25,-88 1192.25,-56 1333.5,-56 1333.5,-88"/>
<text xml:space="preserve" text-anchor="start" x="1200.25" y="-74.5" font-family="Helvetica,sans-Serif" font-size="10.00">Core/Interface/KPTPausable</text>
<text xml:space="preserve" text-anchor="middle" x="1262.88" y="-62.5" font-family="Helvetica,sans-Serif" font-size="10.00">Interface.h</text>
</a>
</g>
</g>
<!-- Node10&#45;&gt;Node18 -->
<g id="edge23_Node000010_Node000018" class="edge">
<title>Node10&#45;&gt;Node18</title>
<g id="a_edge23_Node000010_Node000018"><a xlink:title=" ">
<path fill="none" stroke="#63b8ff" d="M1064.85,-123.56C1098.67,-114.93 1149.63,-101.91 1191.38,-91.25"/>
<polygon fill="#63b8ff" stroke="#63b8ff" points="1192.05,-94.7 1200.87,-88.83 1190.32,-87.91 1192.05,-94.7"/>
</a>
</g>
</g>
<!-- Node20 -->
<g id="Node000020" class="node">
<title>Node20</title>
<g id="a_Node000020"><a xlink:title=" ">
<polygon fill="#e0e0e0" stroke="#999999" points="944.12,-82 803.62,-82 803.62,-62 944.12,-62 944.12,-82"/>
<text xml:space="preserve" text-anchor="middle" x="873.88" y="-68.5" font-family="Helvetica,sans-Serif" font-size="10.00">PlayerCharacter.generated.h</text>
</a>
</g>
</g>
<!-- Node10&#45;&gt;Node20 -->
<g id="edge27_Node000010_Node000020" class="edge">
<title>Node10&#45;&gt;Node20</title>
<g id="a_edge27_Node000010_Node000020"><a xlink:title=" ">
<path fill="none" stroke="#63b8ff" d="M1003.81,-123.62C978.23,-113.66 937.55,-97.81 908.52,-86.5"/>
<polygon fill="#63b8ff" stroke="#63b8ff" points="910.02,-83.33 899.43,-82.96 907.48,-89.85 910.02,-83.33"/>
</a>
</g>
</g>
<!-- Node11&#45;&gt;Node3 -->
<g id="edge14_Node000011_Node000003" class="edge">
<title>Node11&#45;&gt;Node3</title>
<g id="a_edge14_Node000011_Node000003"><a xlink:title=" ">
<path fill="none" stroke="#63b8ff" d="M725.82,-61.56C778.9,-50.65 865.98,-32.76 921.04,-21.44"/>
<polygon fill="#63b8ff" stroke="#63b8ff" points="921.71,-24.88 930.8,-19.44 920.3,-18.02 921.71,-24.88"/>
</a>
</g>
</g>
<!-- Node11&#45;&gt;Node6 -->
<g id="edge15_Node000011_Node000006" class="edge">
<title>Node11&#45;&gt;Node6</title>
<g id="a_edge15_Node000011_Node000006"><a xlink:title=" ">
<path fill="none" stroke="#63b8ff" d="M706.12,-61.62C734.28,-51.57 779.2,-35.53 810.91,-24.2"/>
<polygon fill="#63b8ff" stroke="#63b8ff" points="811.87,-27.58 820.11,-20.92 809.51,-20.98 811.87,-27.58"/>
</a>
</g>
</g>
<!-- Node12 -->
<g id="Node000012" class="node">
<title>Node12</title>
<g id="a_Node000012"><a xlink:title=" ">
<polygon fill="#e0e0e0" stroke="#999999" points="758.38,-20 613.38,-20 613.38,0 758.38,0 758.38,-20"/>
<text xml:space="preserve" text-anchor="middle" x="685.88" y="-6.5" font-family="Helvetica,sans-Serif" font-size="10.00">GameFramework/Character.h</text>
</a>
</g>
</g>
<!-- Node11&#45;&gt;Node12 -->
<g id="edge16_Node000011_Node000012" class="edge">
<title>Node11&#45;&gt;Node12</title>
<g id="a_edge16_Node000011_Node000012"><a xlink:title=" ">
<path fill="none" stroke="#63b8ff" d="M680.81,-61.62C681.62,-53.56 682.81,-41.65 683.83,-31.41"/>
<polygon fill="#63b8ff" stroke="#63b8ff" points="687.3,-31.92 684.81,-21.62 680.34,-31.22 687.3,-31.92"/>
</a>
</g>
</g>
<!-- Node13 -->
<g id="Node000013" class="node">
<title>Node13</title>
<g id="a_Node000013"><a xlink:title=" ">
<polygon fill="#e0e0e0" stroke="#999999" points="595.5,-20 460.25,-20 460.25,0 595.5,0 595.5,-20"/>
<text xml:space="preserve" text-anchor="middle" x="527.88" y="-6.5" font-family="Helvetica,sans-Serif" font-size="10.00">CharacterBase.generated.h</text>
</a>
</g>
</g>
<!-- Node11&#45;&gt;Node13 -->
<g id="edge17_Node000011_Node000013" class="edge">
<title>Node11&#45;&gt;Node13</title>
<g id="a_edge17_Node000011_Node000013"><a xlink:title=" ">
<path fill="none" stroke="#63b8ff" d="M656.12,-61.62C630.88,-51.66 590.72,-35.81 562.07,-24.5"/>
<polygon fill="#63b8ff" stroke="#63b8ff" points="563.7,-21.38 553.12,-20.96 561.13,-27.89 563.7,-21.38"/>
</a>
</g>
</g>
<!-- Node15&#45;&gt;Node3 -->
<g id="edge20_Node000015_Node000003" class="edge">
<title>Node15&#45;&gt;Node3</title>
<g id="a_edge20_Node000015_Node000003"><a xlink:title=" ">
<path fill="none" stroke="#63b8ff" d="M1378.68,-61.57C1366.89,-59.63 1354.48,-57.67 1342.88,-56 1228.96,-39.61 1094.8,-24.33 1023.13,-16.49"/>
<polygon fill="#63b8ff" stroke="#63b8ff" points="1023.58,-13.02 1013.26,-15.41 1022.82,-19.98 1023.58,-13.02"/>
</a>
</g>
</g>
<!-- Node16 -->
<g id="Node000016" class="node">
<title>Node16</title>
<g id="a_Node000016"><a xlink:title=" ">
<polygon fill="#e0e0e0" stroke="#999999" points="1404.62,-20 1303.12,-20 1303.12,0 1404.62,0 1404.62,-20"/>
<text xml:space="preserve" text-anchor="middle" x="1353.88" y="-6.5" font-family="Helvetica,sans-Serif" font-size="10.00">UObject/Interface.h</text>
</a>
</g>
</g>
<!-- Node15&#45;&gt;Node16 -->
<g id="edge21_Node000015_Node000016" class="edge">
<title>Node15&#45;&gt;Node16</title>
<g id="a_edge21_Node000015_Node000016"><a xlink:title=" ">
<path fill="none" stroke="#63b8ff" d="M1420.53,-61.62C1408.36,-52.38 1389.51,-38.07 1374.96,-27.01"/>
<polygon fill="#63b8ff" stroke="#63b8ff" points="1377.42,-24.49 1367.34,-21.22 1373.18,-30.06 1377.42,-24.49"/>
</a>
</g>
</g>
<!-- Node17 -->
<g id="Node000017" class="node">
<title>Node17</title>
<g id="a_Node000017"><a xlink:title=" ">
<polygon fill="#e0e0e0" stroke="#999999" points="1565.25,-20 1422.5,-20 1422.5,0 1565.25,0 1565.25,-20"/>
<text xml:space="preserve" text-anchor="middle" x="1493.88" y="-6.5" font-family="Helvetica,sans-Serif" font-size="10.00">CombatInterface.generated.h</text>
</a>
</g>
</g>
<!-- Node15&#45;&gt;Node17 -->
<g id="edge22_Node000015_Node000017" class="edge">
<title>Node15&#45;&gt;Node17</title>
<g id="a_edge22_Node000015_Node000017"><a xlink:title=" ">
<path fill="none" stroke="#63b8ff" d="M1442.41,-61.62C1451.5,-52.68 1465.42,-38.99 1476.49,-28.1"/>
<polygon fill="#63b8ff" stroke="#63b8ff" points="1478.86,-30.68 1483.53,-21.17 1473.95,-25.69 1478.86,-30.68"/>
</a>
</g>
</g>
<!-- Node18&#45;&gt;Node3 -->
<g id="edge24_Node000018_Node000003" class="edge">
<title>Node18&#45;&gt;Node3</title>
<g id="a_edge24_Node000018_Node000003"><a xlink:title=" ">
<path fill="none" stroke="#63b8ff" d="M1192.06,-56.4C1139.68,-45.6 1069.59,-31.15 1022.69,-21.48"/>
<polygon fill="#63b8ff" stroke="#63b8ff" points="1023.57,-18.09 1013.07,-19.49 1022.16,-24.94 1023.57,-18.09"/>
</a>
</g>
</g>
<!-- Node18&#45;&gt;Node16 -->
<g id="edge25_Node000018_Node000016" class="edge">
<title>Node18&#45;&gt;Node16</title>
<g id="a_edge25_Node000018_Node000016"><a xlink:title=" ">
<path fill="none" stroke="#63b8ff" d="M1286.31,-55.55C1299.74,-46.69 1316.55,-35.61 1330.04,-26.71"/>
<polygon fill="#63b8ff" stroke="#63b8ff" points="1331.92,-29.67 1338.34,-21.24 1328.07,-23.82 1331.92,-29.67"/>
</a>
</g>
</g>
<!-- Node19 -->
<g id="Node000019" class="node">
<title>Node19</title>
<g id="a_Node000019"><a xlink:title=" ">
<polygon fill="#e0e0e0" stroke="#999999" points="1285,-20 1116.75,-20 1116.75,0 1285,0 1285,-20"/>
<text xml:space="preserve" text-anchor="middle" x="1200.88" y="-6.5" font-family="Helvetica,sans-Serif" font-size="10.00">KPTPausableInterface.generated.h</text>
</a>
</g>
</g>
<!-- Node18&#45;&gt;Node19 -->
<g id="edge26_Node000018_Node000019" class="edge">
<title>Node18&#45;&gt;Node19</title>
<g id="a_edge26_Node000018_Node000019"><a xlink:title=" ">
<path fill="none" stroke="#63b8ff" d="M1246.91,-55.55C1238.3,-47.22 1227.64,-36.91 1218.76,-28.3"/>
<polygon fill="#63b8ff" stroke="#63b8ff" points="1221.3,-25.9 1211.68,-21.46 1216.44,-30.93 1221.3,-25.9"/>
</a>
</g>
</g>
<!-- Node21&#45;&gt;Node3 -->
<g id="edge29_Node000021_Node000003" class="edge">
<title>Node21&#45;&gt;Node3</title>
<g id="a_edge29_Node000021_Node000003"><a xlink:title=" ">
<path fill="none" stroke="#63b8ff" d="M1230.34,-123.6C1203.02,-103.13 1140.5,-56.3 1139.88,-56 1102.66,-37.94 1057.15,-26.32 1022.9,-19.42"/>
<polygon fill="#63b8ff" stroke="#63b8ff" points="1023.71,-16.01 1013.22,-17.55 1022.38,-22.89 1023.71,-16.01"/>
</a>
</g>
</g>
<!-- Node22 -->
<g id="Node000022" class="node">
<title>Node22</title>
<g id="a_Node000022"><a xlink:title=" ">
<polygon fill="#e0e0e0" stroke="#999999" points="1885.5,-82 1750.25,-82 1750.25,-62 1885.5,-62 1885.5,-82"/>
<text xml:space="preserve" text-anchor="middle" x="1817.88" y="-68.5" font-family="Helvetica,sans-Serif" font-size="10.00">AbilitySystemComponent.h</text>
</a>
</g>
</g>
<!-- Node21&#45;&gt;Node22 -->
<g id="edge30_Node000021_Node000022" class="edge">
<title>Node21&#45;&gt;Node22</title>
<g id="a_edge30_Node000021_Node000022"><a xlink:title=" ">
<path fill="none" stroke="#63b8ff" d="M1332.19,-124.88C1335.46,-124.58 1338.7,-124.29 1341.88,-124 1519.2,-107.94 1564.59,-113.06 1740.88,-88 1747.87,-87.01 1755.18,-85.8 1762.41,-84.51"/>
<polygon fill="#63b8ff" stroke="#63b8ff" points="1762.94,-87.97 1772.14,-82.7 1761.67,-81.09 1762.94,-87.97"/>
</a>
</g>
</g>
<!-- Node23 -->
<g id="Node000023" class="node">
<title>Node23</title>
<g id="a_Node000023"><a xlink:title=" ">
<polygon fill="#e0e0e0" stroke="#999999" points="1731.75,-82 1532,-82 1532,-62 1731.75,-62 1731.75,-82"/>
<text xml:space="preserve" text-anchor="middle" x="1631.88" y="-68.5" font-family="Helvetica,sans-Serif" font-size="10.00">KPTAbilitySystemComponent.generated.h</text>
</a>
</g>
</g>
<!-- Node21&#45;&gt;Node23 -->
<g id="edge31_Node000021_Node000023" class="edge">
<title>Node21&#45;&gt;Node23</title>
<g id="a_edge31_Node000021_Node000023"><a xlink:title=" ">
<path fill="none" stroke="#63b8ff" d="M1304.08,-123.56C1373.28,-112.89 1485.84,-95.52 1559.38,-84.18"/>
<polygon fill="#63b8ff" stroke="#63b8ff" points="1559.54,-87.7 1568.89,-82.72 1558.47,-80.78 1559.54,-87.7"/>
</a>
</g>
</g>
</g>
</svg>

<g id="navigator" transform="translate(0 0)" fill="#404254">
  <rect fill="#f2f5e9" fill-opacity="0.5" stroke="#606060" stroke-width=".5" x="0" y="0" width="60" height="60"/>
  <use id="zoomplus" xlink:href="#zoomPlus" x="17" y="9" onmousedown="handleZoom(evt,'in')"/>
  <use id="zoomminus" xlink:href="#zoomMin" x="42" y="9" onmousedown="handleZoom(evt,'out')"/>
  <use id="reset" xlink:href="#resetDef" x="30" y="36" onmousedown="handleReset()"/>
   <use id="arrowup" xlink:href="#arrowUp" x="0" y="0" onmousedown="handlePan(0,-1)"/>
  <use id="arrowright" xlink:href="#arrowRight" x="0" y="0" onmousedown="handlePan(1,0)"/>
  <use id="arrowdown" xlink:href="#arrowDown" x="0" y="0" onmousedown="handlePan(0,1)"/>
  <use id="arrowleft" xlink:href="#arrowLeft" x="0" y="0" onmousedown="handlePan(-1,0)"/>
</g>
<svg viewBox="0 0 15 15" width="100%" height="30px" preserveAspectRatio="xMaxYMin meet">
 <g id="arrow_out" transform="scale(0.3 0.3)">
  <a xlink:href="_enemy_flocking_component_8cpp__incl_org.svg" target="_base">
   <rect id="button" ry="5" rx="5" y="6" x="6" height="38" width="38"
        fill="#f2f5e9" fill-opacity="0.5" stroke="#606060" stroke-width="1.0"/>
   <path id="arrow"
     d="M 11.500037,31.436501 C 11.940474,20.09759 22.043105,11.32322 32.158766,21.979434 L 37.068811,17.246167 C 37.068811,17.246167 37.088388,32 37.088388,32 L 22.160133,31.978069 C 22.160133,31.978069 26.997745,27.140456 26.997745,27.140456 C 18.528582,18.264221 13.291696,25.230495 11.500037,31.436501 z"
     style="fill:#404040;"/>
  </a>
 </g>
</svg>

<style type='text/css'>
<![CDATA[
[data-mouse-over-selected='false'] { opacity: 0.7; }
[data-mouse-over-selected='true']  { opacity: 1.0; }
]]>
</style>
<script type="application/ecmascript"><![CDATA[
document.addEventListener('DOMContentLoaded', (event) => {
  highlightEdges();
  highlightAdjacentNodes();
});
]]></script>
</svg>
