<?xml version="1.0" encoding="UTF-8" standalone="no"?>
<!DOCTYPE svg PUBLIC "-//W3C//DTD SVG 1.1//EN"
 "http://www.w3.org/Graphics/SVG/1.1/DTD/svg11.dtd">
<!-- Generated by graphviz version 13.1.1 (20250719.2154)
 -->
<!-- Title: C:/Users/user/Perforce/alz7_CobaltbruWorkspace_00/KPT/Source/KPT/Item/Experience.cpp Pages: 1 -->
<!--zoomable 244 -->

<svg id="main" version="1.1" xmlns="http://www.w3.org/2000/svg" xmlns:xlink="http://www.w3.org/1999/xlink" xml:space="preserve" onload="init(evt)">

<style type="text/css"><![CDATA[
.node, .edge {opacity: 0.7;}
.node.selected, .edge.selected {opacity: 1;}
.edge:hover path { stroke: red; }
.edge:hover polygon { stroke: red; fill: red; }
]]></style>

<defs>
  <circle id="rim" cx="0" cy="0" r="7"/>
  <circle id="rim2" cx="0" cy="0" r="3.5"/>
  <g id="zoomPlus">
    <use xlink:href="#rim" fill="#404040"><set attributeName="fill" to="#808080" begin="zoomplus.mouseover" end="zoomplus.mouseout"/></use>
    <path d="M-4,0h8M0,-4v8" fill="none" stroke="white" stroke-width="1.5" pointer-events="none"/>
  </g>
  <g id="zoomMin">
    <use xlink:href="#rim" fill="#404040"><set attributeName="fill" to="#808080" begin="zoomminus.mouseover" end="zoomminus.mouseout"/></use>
    <path d="M-4,0h8" fill="none" stroke="white" stroke-width="1.5" pointer-events="none"/>
  </g>
  <g id="arrowUp" transform="translate(30 24)">
    <use xlink:href="#rim"/>
    <path pointer-events="none" fill="none" stroke="white" stroke-width="1.5" d="M0,-3.0v7 M-2.5,-0.5L0,-3.0L2.5,-0.5"/>
  </g>
  <g id="arrowRight" transform="rotate(90) translate(36 -43)">
    <use xlink:href="#rim"/>
    <path pointer-events="none" fill="none" stroke="white" stroke-width="1.5" d="M0,-3.0v7 M-2.5,-0.5L0,-3.0L2.5,-0.5"/>
  </g>
  <g id="arrowDown" transform="rotate(180) translate(-30 -48)">
    <use xlink:href="#rim"/>
    <path pointer-events="none" fill="none" stroke="white" stroke-width="1.5" d="M0,-3.0v7 M-2.5,-0.5L0,-3.0L2.5,-0.5"/>
  </g>
  <g id="arrowLeft" transform="rotate(270) translate(-36 17)">
    <use xlink:href="#rim"/>
    <path pointer-events="none" fill="none" stroke="white" stroke-width="1.5" d="M0,-3.0v7 M-2.5,-0.5L0,-3.0L2.5,-0.5"/>
  </g>
  <g id="resetDef">
    <use xlink:href="#rim2" fill="#404040"><set attributeName="fill" to="#808080" begin="reset.mouseover" end="reset.mouseout"/></use>
  </g>
</defs>
<script type="application/ecmascript">
var viewWidth = 1775;
var viewHeight = 244;
var sectionId = 'dynsection-0';
</script>
<script type="application/ecmascript" xlink:href="svg.min.js"/>
<svg id="graph" class="graph">
<g id="viewport">
<title>C:/Users/user/Perforce/alz7_CobaltbruWorkspace_00/KPT/Source/KPT/Item/Experience.cpp</title>
<!-- Node1 -->
<g id="Node000001" class="node">
<title>Node1</title>
<g id="a_Node000001"><a xlink:title=" ">
<polygon fill="#999999" stroke="#666666" points="1099.25,-236 966.25,-236 966.25,-180 1099.25,-180 1099.25,-236"/>
<text xml:space="preserve" text-anchor="start" x="974.25" y="-222.5" font-family="Helvetica,sans-Serif" font-size="10.00">C:/Users/user/Perforce</text>
<text xml:space="preserve" text-anchor="start" x="974.25" y="-210.5" font-family="Helvetica,sans-Serif" font-size="10.00">/alz7_CobaltbruWorkspace</text>
<text xml:space="preserve" text-anchor="start" x="974.25" y="-198.5" font-family="Helvetica,sans-Serif" font-size="10.00">_00/KPT/Source/KPT/Item</text>
<text xml:space="preserve" text-anchor="middle" x="1032.75" y="-186.5" font-family="Helvetica,sans-Serif" font-size="10.00">/Experience.cpp</text>
</a>
</g>
</g>
<!-- Node2 -->
<g id="Node000002" class="node">
<title>Node2</title>
<g id="a_Node000002"><a xlink:href="_experience_8h.html" target="_top" xlink:title=" ">
<polygon fill="white" stroke="#666666" points="324.25,-144 251.25,-144 251.25,-124 324.25,-124 324.25,-144"/>
<text xml:space="preserve" text-anchor="middle" x="287.75" y="-130.5" font-family="Helvetica,sans-Serif" font-size="10.00">Experience.h</text>
</a>
</g>
</g>
<!-- Node1&#45;&gt;Node2 -->
<g id="edge1_Node000001_Node000002" class="edge">
<title>Node1&#45;&gt;Node2</title>
<g id="a_edge1_Node000001_Node000002"><a xlink:title=" ">
<path fill="none" stroke="#63b8ff" d="M965.98,-200.55C817.92,-186.24 464.98,-152.13 336.01,-139.66"/>
<polygon fill="#63b8ff" stroke="#63b8ff" points="336.39,-136.18 326.1,-138.71 335.72,-143.15 336.39,-136.18"/>
</a>
</g>
</g>
<!-- Node9 -->
<g id="Node000009" class="node">
<title>Node9</title>
<g id="a_Node000009"><a xlink:href="_character_base_8h.html" target="_top" xlink:title=" ">
<polygon fill="white" stroke="#666666" points="824.38,-144 689.12,-144 689.12,-124 824.38,-124 824.38,-144"/>
<text xml:space="preserve" text-anchor="middle" x="756.75" y="-130.5" font-family="Helvetica,sans-Serif" font-size="10.00">Character/CharacterBase.h</text>
</a>
</g>
</g>
<!-- Node1&#45;&gt;Node9 -->
<g id="edge9_Node000001_Node000009" class="edge">
<title>Node1&#45;&gt;Node9</title>
<g id="a_edge9_Node000001_Node000009"><a xlink:title=" ">
<path fill="none" stroke="#63b8ff" d="M965.94,-189.57C915.89,-176.52 848.65,-158.97 804.06,-147.34"/>
<polygon fill="#63b8ff" stroke="#63b8ff" points="804.98,-143.97 794.43,-144.83 803.22,-150.74 804.98,-143.97"/>
</a>
</g>
</g>
<!-- Node13 -->
<g id="Node000013" class="node">
<title>Node13</title>
<g id="a_Node000013"><a xlink:title=" ">
<polygon fill="#e0e0e0" stroke="#999999" points="1033.62,-144 869.88,-144 869.88,-124 1033.62,-124 1033.62,-144"/>
<text xml:space="preserve" text-anchor="middle" x="951.75" y="-130.5" font-family="Helvetica,sans-Serif" font-size="10.00">Components/SphereComponent.h</text>
</a>
</g>
</g>
<!-- Node1&#45;&gt;Node13 -->
<g id="edge14_Node000001_Node000013" class="edge">
<title>Node1&#45;&gt;Node13</title>
<g id="a_edge14_Node000001_Node000013"><a xlink:title=" ">
<path fill="none" stroke="#63b8ff" d="M1002.13,-179.78C991.64,-170.46 980.22,-160.31 970.91,-152.03"/>
<polygon fill="#63b8ff" stroke="#63b8ff" points="973.34,-149.51 963.54,-145.48 968.69,-154.74 973.34,-149.51"/>
</a>
</g>
</g>
<!-- Node14 -->
<g id="Node000014" class="node">
<title>Node14</title>
<g id="a_Node000014"><a xlink:href="_k_p_t_in_game_mode_8h.html" target="_top" xlink:title=" ">
<polygon fill="white" stroke="#666666" points="1177.88,-144 1051.62,-144 1051.62,-124 1177.88,-124 1177.88,-144"/>
<text xml:space="preserve" text-anchor="middle" x="1114.75" y="-130.5" font-family="Helvetica,sans-Serif" font-size="10.00">Core/KPTInGameMode.h</text>
</a>
</g>
</g>
<!-- Node1&#45;&gt;Node14 -->
<g id="edge15_Node000001_Node000014" class="edge">
<title>Node1&#45;&gt;Node14</title>
<g id="a_edge15_Node000001_Node000014"><a xlink:title=" ">
<path fill="none" stroke="#63b8ff" d="M1063.75,-179.78C1074.36,-170.46 1085.93,-160.31 1095.36,-152.03"/>
<polygon fill="#63b8ff" stroke="#63b8ff" points="1097.62,-154.7 1102.82,-145.47 1093,-149.44 1097.62,-154.7"/>
</a>
</g>
</g>
<!-- Node17 -->
<g id="Node000017" class="node">
<title>Node17</title>
<g id="a_Node000017"><a xlink:href="_pool_sub_system_8h.html" target="_top" xlink:title=" ">
<polygon fill="white" stroke="#666666" points="1471.12,-144 1298.38,-144 1298.38,-124 1471.12,-124 1471.12,-144"/>
<text xml:space="preserve" text-anchor="middle" x="1384.75" y="-130.5" font-family="Helvetica,sans-Serif" font-size="10.00">Core/SubSystem/PoolSubSystem.h</text>
</a>
</g>
</g>
<!-- Node1&#45;&gt;Node17 -->
<g id="edge19_Node000001_Node000017" class="edge">
<title>Node1&#45;&gt;Node17</title>
<g id="a_edge19_Node000001_Node000017"><a xlink:title=" ">
<path fill="none" stroke="#63b8ff" d="M1099.37,-193.37C1165.14,-179.92 1264.66,-159.56 1327.12,-146.79"/>
<polygon fill="#63b8ff" stroke="#63b8ff" points="1327.75,-150.23 1336.85,-144.8 1326.35,-143.37 1327.75,-150.23"/>
</a>
</g>
</g>
<!-- Node20 -->
<g id="Node000020" class="node">
<title>Node20</title>
<g id="a_Node000020"><a xlink:title=" ">
<polygon fill="#e0e0e0" stroke="#999999" points="1597.88,-144 1489.62,-144 1489.62,-124 1597.88,-124 1597.88,-144"/>
<text xml:space="preserve" text-anchor="middle" x="1543.75" y="-130.5" font-family="Helvetica,sans-Serif" font-size="10.00">Net/UnrealNetwork.h</text>
</a>
</g>
</g>
<!-- Node1&#45;&gt;Node20 -->
<g id="edge23_Node000001_Node000020" class="edge">
<title>Node1&#45;&gt;Node20</title>
<g id="a_edge23_Node000001_Node000020"><a xlink:title=" ">
<path fill="none" stroke="#63b8ff" d="M1099.55,-197.59C1197.92,-183.73 1380.6,-157.99 1478.23,-144.23"/>
<polygon fill="#63b8ff" stroke="#63b8ff" points="1478.5,-147.73 1487.91,-142.87 1477.52,-140.8 1478.5,-147.73"/>
</a>
</g>
</g>
<!-- Node3 -->
<g id="Node000003" class="node">
<title>Node3</title>
<g id="a_Node000003"><a xlink:title=" ">
<polygon fill="#e0e0e0" stroke="#999999" points="554.25,-20 475.25,-20 475.25,0 554.25,0 554.25,-20"/>
<text xml:space="preserve" text-anchor="middle" x="514.75" y="-6.5" font-family="Helvetica,sans-Serif" font-size="10.00">CoreMinimal.h</text>
</a>
</g>
</g>
<!-- Node2&#45;&gt;Node3 -->
<g id="edge2_Node000002_Node000003" class="edge">
<title>Node2&#45;&gt;Node3</title>
<g id="a_edge2_Node000002_Node000003"><a xlink:title=" ">
<path fill="none" stroke="#63b8ff" d="M260.08,-123.53C244.03,-116.45 225.18,-105.02 215.75,-88 208.86,-75.56 206.47,-66.78 215.75,-56 247.1,-19.58 386.56,-12.24 463.45,-11.01"/>
<polygon fill="#63b8ff" stroke="#63b8ff" points="463.3,-14.51 473.26,-10.88 463.21,-7.51 463.3,-14.51"/>
</a>
</g>
</g>
<!-- Node4 -->
<g id="Node000004" class="node">
<title>Node4</title>
<g id="a_Node000004"><a xlink:href="_poolable_8h.html" target="_top" xlink:title=" ">
<polygon fill="white" stroke="#666666" points="168.5,-88 55,-88 55,-56 168.5,-56 168.5,-88"/>
<text xml:space="preserve" text-anchor="start" x="63" y="-74.5" font-family="Helvetica,sans-Serif" font-size="10.00">Core/Interface/Pooling</text>
<text xml:space="preserve" text-anchor="middle" x="111.75" y="-62.5" font-family="Helvetica,sans-Serif" font-size="10.00">/Poolable.h</text>
</a>
</g>
</g>
<!-- Node2&#45;&gt;Node4 -->
<g id="edge3_Node000002_Node000004" class="edge">
<title>Node2&#45;&gt;Node4</title>
<g id="a_edge3_Node000002_Node000004"><a xlink:title=" ">
<path fill="none" stroke="#63b8ff" d="M260.25,-123.62C235.6,-115.22 198.68,-102.64 167.82,-92.12"/>
<polygon fill="#63b8ff" stroke="#63b8ff" points="169.22,-88.89 158.62,-88.98 166.96,-95.52 169.22,-88.89"/>
</a>
</g>
</g>
<!-- Node7 -->
<g id="Node000007" class="node">
<title>Node7</title>
<g id="a_Node000007"><a xlink:title=" ">
<polygon fill="#e0e0e0" stroke="#999999" points="350.5,-82 225,-82 225,-62 350.5,-62 350.5,-82"/>
<text xml:space="preserve" text-anchor="middle" x="287.75" y="-68.5" font-family="Helvetica,sans-Serif" font-size="10.00">GameFramework/Actor.h</text>
</a>
</g>
</g>
<!-- Node2&#45;&gt;Node7 -->
<g id="edge7_Node000002_Node000007" class="edge">
<title>Node2&#45;&gt;Node7</title>
<g id="a_edge7_Node000002_Node000007"><a xlink:title=" ">
<path fill="none" stroke="#63b8ff" d="M287.75,-123.62C287.75,-115.56 287.75,-103.65 287.75,-93.41"/>
<polygon fill="#63b8ff" stroke="#63b8ff" points="291.25,-93.63 287.75,-83.63 284.25,-93.63 291.25,-93.63"/>
</a>
</g>
</g>
<!-- Node8 -->
<g id="Node000008" class="node">
<title>Node8</title>
<g id="a_Node000008"><a xlink:title=" ">
<polygon fill="#e0e0e0" stroke="#999999" points="487.12,-82 368.38,-82 368.38,-62 487.12,-62 487.12,-82"/>
<text xml:space="preserve" text-anchor="middle" x="427.75" y="-68.5" font-family="Helvetica,sans-Serif" font-size="10.00">Experience.generated.h</text>
</a>
</g>
</g>
<!-- Node2&#45;&gt;Node8 -->
<g id="edge8_Node000002_Node000008" class="edge">
<title>Node2&#45;&gt;Node8</title>
<g id="a_edge8_Node000002_Node000008"><a xlink:title=" ">
<path fill="none" stroke="#63b8ff" d="M309.62,-123.62C332.74,-113.72 369.43,-97.99 395.79,-86.7"/>
<polygon fill="#63b8ff" stroke="#63b8ff" points="396.82,-90.06 404.64,-82.91 394.07,-83.63 396.82,-90.06"/>
</a>
</g>
</g>
<!-- Node4&#45;&gt;Node3 -->
<g id="edge4_Node000004_Node000003" class="edge">
<title>Node4&#45;&gt;Node3</title>
<g id="a_edge4_Node000004_Node000003"><a xlink:title=" ">
<path fill="none" stroke="#63b8ff" d="M168.65,-58.6C173.41,-57.67 178.16,-56.8 182.75,-56 281.83,-38.84 398.49,-24.34 463.8,-16.73"/>
<polygon fill="#63b8ff" stroke="#63b8ff" points="463.96,-20.23 473.5,-15.6 463.16,-13.28 463.96,-20.23"/>
</a>
</g>
</g>
<!-- Node5 -->
<g id="Node000005" class="node">
<title>Node5</title>
<g id="a_Node000005"><a xlink:title=" ">
<polygon fill="#e0e0e0" stroke="#999999" points="101.5,-20 0,-20 0,0 101.5,0 101.5,-20"/>
<text xml:space="preserve" text-anchor="middle" x="50.75" y="-6.5" font-family="Helvetica,sans-Serif" font-size="10.00">UObject/Interface.h</text>
</a>
</g>
</g>
<!-- Node4&#45;&gt;Node5 -->
<g id="edge5_Node000004_Node000005" class="edge">
<title>Node4&#45;&gt;Node5</title>
<g id="a_edge5_Node000004_Node000005"><a xlink:title=" ">
<path fill="none" stroke="#63b8ff" d="M96.04,-55.55C87.57,-47.22 77.09,-36.91 68.34,-28.3"/>
<polygon fill="#63b8ff" stroke="#63b8ff" points="70.98,-25.99 61.39,-21.47 66.07,-30.98 70.98,-25.99"/>
</a>
</g>
</g>
<!-- Node6 -->
<g id="Node000006" class="node">
<title>Node6</title>
<g id="a_Node000006"><a xlink:title=" ">
<polygon fill="#e0e0e0" stroke="#999999" points="227.5,-20 120,-20 120,0 227.5,0 227.5,-20"/>
<text xml:space="preserve" text-anchor="middle" x="173.75" y="-6.5" font-family="Helvetica,sans-Serif" font-size="10.00">Poolable.generated.h</text>
</a>
</g>
</g>
<!-- Node4&#45;&gt;Node6 -->
<g id="edge6_Node000004_Node000006" class="edge">
<title>Node4&#45;&gt;Node6</title>
<g id="a_edge6_Node000004_Node000006"><a xlink:title=" ">
<path fill="none" stroke="#63b8ff" d="M127.72,-55.55C136.33,-47.22 146.98,-36.91 155.87,-28.3"/>
<polygon fill="#63b8ff" stroke="#63b8ff" points="158.19,-30.93 162.94,-21.46 153.32,-25.9 158.19,-30.93"/>
</a>
</g>
</g>
<!-- Node9&#45;&gt;Node3 -->
<g id="edge10_Node000009_Node000003" class="edge">
<title>Node9&#45;&gt;Node3</title>
<g id="a_edge10_Node000009_Node000003"><a xlink:title=" ">
<path fill="none" stroke="#63b8ff" d="M688.66,-127.22C631.45,-120.97 555.64,-108.97 533.75,-88 518.7,-73.58 514.81,-49.3 514.14,-31.86"/>
<polygon fill="#63b8ff" stroke="#63b8ff" points="517.64,-31.87 514.11,-21.88 510.64,-31.88 517.64,-31.87"/>
</a>
</g>
</g>
<!-- Node10 -->
<g id="Node000010" class="node">
<title>Node10</title>
<g id="a_Node000010"><a xlink:title=" ">
<polygon fill="#e0e0e0" stroke="#999999" points="666.38,-82 543.12,-82 543.12,-62 666.38,-62 666.38,-82"/>
<text xml:space="preserve" text-anchor="middle" x="604.75" y="-68.5" font-family="Helvetica,sans-Serif" font-size="10.00">AbilitySystemInterface.h</text>
</a>
</g>
</g>
<!-- Node9&#45;&gt;Node10 -->
<g id="edge11_Node000009_Node000010" class="edge">
<title>Node9&#45;&gt;Node10</title>
<g id="a_edge11_Node000009_Node000010"><a xlink:title=" ">
<path fill="none" stroke="#63b8ff" d="M733,-123.62C707.75,-113.66 667.6,-97.81 638.95,-86.5"/>
<polygon fill="#63b8ff" stroke="#63b8ff" points="640.58,-83.38 629.99,-82.96 638.01,-89.89 640.58,-83.38"/>
</a>
</g>
</g>
<!-- Node11 -->
<g id="Node000011" class="node">
<title>Node11</title>
<g id="a_Node000011"><a xlink:title=" ">
<polygon fill="#e0e0e0" stroke="#999999" points="829.25,-82 684.25,-82 684.25,-62 829.25,-62 829.25,-82"/>
<text xml:space="preserve" text-anchor="middle" x="756.75" y="-68.5" font-family="Helvetica,sans-Serif" font-size="10.00">GameFramework/Character.h</text>
</a>
</g>
</g>
<!-- Node9&#45;&gt;Node11 -->
<g id="edge12_Node000009_Node000011" class="edge">
<title>Node9&#45;&gt;Node11</title>
<g id="a_edge12_Node000009_Node000011"><a xlink:title=" ">
<path fill="none" stroke="#63b8ff" d="M756.75,-123.62C756.75,-115.56 756.75,-103.65 756.75,-93.41"/>
<polygon fill="#63b8ff" stroke="#63b8ff" points="760.25,-93.63 756.75,-83.63 753.25,-93.63 760.25,-93.63"/>
</a>
</g>
</g>
<!-- Node12 -->
<g id="Node000012" class="node">
<title>Node12</title>
<g id="a_Node000012"><a xlink:title=" ">
<polygon fill="#e0e0e0" stroke="#999999" points="982.38,-82 847.12,-82 847.12,-62 982.38,-62 982.38,-82"/>
<text xml:space="preserve" text-anchor="middle" x="914.75" y="-68.5" font-family="Helvetica,sans-Serif" font-size="10.00">CharacterBase.generated.h</text>
</a>
</g>
</g>
<!-- Node9&#45;&gt;Node12 -->
<g id="edge13_Node000009_Node000012" class="edge">
<title>Node9&#45;&gt;Node12</title>
<g id="a_edge13_Node000009_Node000012"><a xlink:title=" ">
<path fill="none" stroke="#63b8ff" d="M781.44,-123.62C807.8,-113.62 849.79,-97.67 879.6,-86.35"/>
<polygon fill="#63b8ff" stroke="#63b8ff" points="880.45,-89.77 888.56,-82.95 877.97,-83.22 880.45,-89.77"/>
</a>
</g>
</g>
<!-- Node14&#45;&gt;Node3 -->
<g id="edge16_Node000014_Node000003" class="edge">
<title>Node14&#45;&gt;Node3</title>
<g id="a_edge16_Node000014_Node000003"><a xlink:title=" ">
<path fill="none" stroke="#63b8ff" d="M1094.13,-123.61C1076.47,-115.22 1050.65,-102.1 1029.75,-88 1011.45,-75.65 1012.11,-64.54 991.75,-56 915.96,-24.23 673,-14.69 566.07,-12"/>
<polygon fill="#63b8ff" stroke="#63b8ff" points="566.23,-8.5 556.15,-11.76 566.06,-15.5 566.23,-8.5"/>
</a>
</g>
</g>
<!-- Node15 -->
<g id="Node000015" class="node">
<title>Node15</title>
<g id="a_Node000015"><a xlink:title=" ">
<polygon fill="#e0e0e0" stroke="#999999" points="1191,-82 1038.5,-82 1038.5,-62 1191,-62 1191,-82"/>
<text xml:space="preserve" text-anchor="middle" x="1114.75" y="-68.5" font-family="Helvetica,sans-Serif" font-size="10.00">GameFramework/GameMode.h</text>
</a>
</g>
</g>
<!-- Node14&#45;&gt;Node15 -->
<g id="edge17_Node000014_Node000015" class="edge">
<title>Node14&#45;&gt;Node15</title>
<g id="a_edge17_Node000014_Node000015"><a xlink:title=" ">
<path fill="none" stroke="#63b8ff" d="M1114.75,-123.62C1114.75,-115.56 1114.75,-103.65 1114.75,-93.41"/>
<polygon fill="#63b8ff" stroke="#63b8ff" points="1118.25,-93.63 1114.75,-83.63 1111.25,-93.63 1118.25,-93.63"/>
</a>
</g>
</g>
<!-- Node16 -->
<g id="Node000016" class="node">
<title>Node16</title>
<g id="a_Node000016"><a xlink:title=" ">
<polygon fill="#e0e0e0" stroke="#999999" points="1356.75,-82 1208.75,-82 1208.75,-62 1356.75,-62 1356.75,-82"/>
<text xml:space="preserve" text-anchor="middle" x="1282.75" y="-68.5" font-family="Helvetica,sans-Serif" font-size="10.00">KPTInGameMode.generated.h</text>
</a>
</g>
</g>
<!-- Node14&#45;&gt;Node16 -->
<g id="edge18_Node000014_Node000016" class="edge">
<title>Node14&#45;&gt;Node16</title>
<g id="a_edge18_Node000014_Node000016"><a xlink:title=" ">
<path fill="none" stroke="#63b8ff" d="M1141,-123.62C1169.15,-113.57 1214.07,-97.53 1245.79,-86.2"/>
<polygon fill="#63b8ff" stroke="#63b8ff" points="1246.74,-89.58 1254.98,-82.92 1244.39,-82.98 1246.74,-89.58"/>
</a>
</g>
</g>
<!-- Node17&#45;&gt;Node3 -->
<g id="edge20_Node000017_Node000003" class="edge">
<title>Node17&#45;&gt;Node3</title>
<g id="a_edge20_Node000017_Node000003"><a xlink:title=" ">
<path fill="none" stroke="#63b8ff" d="M1385.63,-123.61C1386.61,-107.01 1385.91,-72.67 1365.75,-56 1334.84,-30.44 745.53,-15.89 566.13,-12.04"/>
<polygon fill="#63b8ff" stroke="#63b8ff" points="566.26,-8.54 556.19,-11.83 566.11,-15.54 566.26,-8.54"/>
</a>
</g>
</g>
<!-- Node18 -->
<g id="Node000018" class="node">
<title>Node18</title>
<g id="a_Node000018"><a xlink:title=" ">
<polygon fill="#e0e0e0" stroke="#999999" points="1608.38,-82 1413.12,-82 1413.12,-62 1608.38,-62 1608.38,-82"/>
<text xml:space="preserve" text-anchor="middle" x="1510.75" y="-68.5" font-family="Helvetica,sans-Serif" font-size="10.00">Subsystems/GameInstanceSubsystem.h</text>
</a>
</g>
</g>
<!-- Node17&#45;&gt;Node18 -->
<g id="edge21_Node000017_Node000018" class="edge">
<title>Node17&#45;&gt;Node18</title>
<g id="a_edge21_Node000017_Node000018"><a xlink:title=" ">
<path fill="none" stroke="#63b8ff" d="M1404.44,-123.62C1424.96,-113.85 1457.38,-98.41 1481.03,-87.15"/>
<polygon fill="#63b8ff" stroke="#63b8ff" points="1482.31,-90.42 1489.83,-82.96 1479.3,-84.1 1482.31,-90.42"/>
</a>
</g>
</g>
<!-- Node19 -->
<g id="Node000019" class="node">
<title>Node19</title>
<g id="a_Node000019"><a xlink:title=" ">
<polygon fill="#e0e0e0" stroke="#999999" points="1767,-82 1626.5,-82 1626.5,-62 1767,-62 1767,-82"/>
<text xml:space="preserve" text-anchor="middle" x="1696.75" y="-68.5" font-family="Helvetica,sans-Serif" font-size="10.00">PoolSubSystem.generated.h</text>
</a>
</g>
</g>
<!-- Node17&#45;&gt;Node19 -->
<g id="edge22_Node000017_Node000019" class="edge">
<title>Node17&#45;&gt;Node19</title>
<g id="a_edge22_Node000017_Node000019"><a xlink:title=" ">
<path fill="none" stroke="#63b8ff" d="M1433.84,-123.56C1488.66,-113.02 1577.4,-95.95 1636.41,-84.6"/>
<polygon fill="#63b8ff" stroke="#63b8ff" points="1636.78,-88.1 1645.94,-82.77 1635.46,-81.22 1636.78,-88.1"/>
</a>
</g>
</g>
</g>
</svg>

<g id="navigator" transform="translate(0 0)" fill="#404254">
  <rect fill="#f2f5e9" fill-opacity="0.5" stroke="#606060" stroke-width=".5" x="0" y="0" width="60" height="60"/>
  <use id="zoomplus" xlink:href="#zoomPlus" x="17" y="9" onmousedown="handleZoom(evt,'in')"/>
  <use id="zoomminus" xlink:href="#zoomMin" x="42" y="9" onmousedown="handleZoom(evt,'out')"/>
  <use id="reset" xlink:href="#resetDef" x="30" y="36" onmousedown="handleReset()"/>
   <use id="arrowup" xlink:href="#arrowUp" x="0" y="0" onmousedown="handlePan(0,-1)"/>
  <use id="arrowright" xlink:href="#arrowRight" x="0" y="0" onmousedown="handlePan(1,0)"/>
  <use id="arrowdown" xlink:href="#arrowDown" x="0" y="0" onmousedown="handlePan(0,1)"/>
  <use id="arrowleft" xlink:href="#arrowLeft" x="0" y="0" onmousedown="handlePan(-1,0)"/>
</g>
<svg viewBox="0 0 15 15" width="100%" height="30px" preserveAspectRatio="xMaxYMin meet">
 <g id="arrow_out" transform="scale(0.3 0.3)">
  <a xlink:href="_experience_8cpp__incl_org.svg" target="_base">
   <rect id="button" ry="5" rx="5" y="6" x="6" height="38" width="38"
        fill="#f2f5e9" fill-opacity="0.5" stroke="#606060" stroke-width="1.0"/>
   <path id="arrow"
     d="M 11.500037,31.436501 C 11.940474,20.09759 22.043105,11.32322 32.158766,21.979434 L 37.068811,17.246167 C 37.068811,17.246167 37.088388,32 37.088388,32 L 22.160133,31.978069 C 22.160133,31.978069 26.997745,27.140456 26.997745,27.140456 C 18.528582,18.264221 13.291696,25.230495 11.500037,31.436501 z"
     style="fill:#404040;"/>
  </a>
 </g>
</svg>

<style type='text/css'>
<![CDATA[
[data-mouse-over-selected='false'] { opacity: 0.7; }
[data-mouse-over-selected='true']  { opacity: 1.0; }
]]>
</style>
<script type="application/ecmascript"><![CDATA[
document.addEventListener('DOMContentLoaded', (event) => {
  highlightEdges();
  highlightAdjacentNodes();
});
]]></script>
</svg>
