<?xml version="1.0" encoding="UTF-8" standalone="no"?>
<!DOCTYPE svg PUBLIC "-//W3C//DTD SVG 1.1//EN"
 "http://www.w3.org/Graphics/SVG/1.1/DTD/svg11.dtd">
<!-- Generated by graphviz version 13.1.1 (20250719.2154)
 -->
<!-- Title: C:/Users/user/Perforce/alz7_CobaltbruWorkspace_00/KPT/Source/KPT/Skill/Ability/TargetData/FDirectionTargetData.h Pages: 1 -->
<svg width="690pt" height="144pt"
 viewBox="0.00 0.00 690.00 144.00" xmlns="http://www.w3.org/2000/svg" xmlns:xlink="http://www.w3.org/1999/xlink">
<g id="graph0" class="graph" transform="scale(1 1) rotate(0) translate(4 140)">
<title>C:/Users/user/Perforce/alz7_CobaltbruWorkspace_00/KPT/Source/KPT/Skill/Ability/TargetData/FDirectionTargetData.h</title>
<!-- Node1 -->
<g id="Node000001" class="node">
<title>Node1</title>
<g id="a_Node000001"><a xlink:title=" ">
<polygon fill="#999999" stroke="#666666" points="381.5,-136 209.5,-136 209.5,-68 381.5,-68 381.5,-136"/>
<text xml:space="preserve" text-anchor="start" x="217.5" y="-122.5" font-family="Helvetica,sans-Serif" font-size="10.00">C:/Users/user/Perforce</text>
<text xml:space="preserve" text-anchor="start" x="217.5" y="-110.5" font-family="Helvetica,sans-Serif" font-size="10.00">/alz7_CobaltbruWorkspace</text>
<text xml:space="preserve" text-anchor="start" x="217.5" y="-98.5" font-family="Helvetica,sans-Serif" font-size="10.00">_00/KPT/Source/KPT/Skill</text>
<text xml:space="preserve" text-anchor="start" x="217.5" y="-86.5" font-family="Helvetica,sans-Serif" font-size="10.00">/Ability/TargetData/FDirectionTarget</text>
<text xml:space="preserve" text-anchor="middle" x="295.5" y="-74.5" font-family="Helvetica,sans-Serif" font-size="10.00">Data.h</text>
</a>
</g>
</g>
<!-- Node2 -->
<g id="Node000002" class="node">
<title>Node2</title>
<g id="a_Node000002"><a xlink:title=" ">
<polygon fill="#e0e0e0" stroke="#999999" points="79,-26 0,-26 0,-6 79,-6 79,-26"/>
<text xml:space="preserve" text-anchor="middle" x="39.5" y="-12.5" font-family="Helvetica,sans-Serif" font-size="10.00">CoreMinimal.h</text>
</a>
</g>
</g>
<!-- Node1&#45;&gt;Node2 -->
<g id="edge1_Node000001_Node000002" class="edge">
<title>Node1&#45;&gt;Node2</title>
<g id="a_edge1_Node000001_Node000002"><a xlink:title=" ">
<path fill="none" stroke="#63b8ff" d="M209.19,-72.68C165.05,-58.2 113.48,-41.28 78.88,-29.92"/>
<polygon fill="#63b8ff" stroke="#63b8ff" points="80.31,-26.71 69.71,-26.91 78.12,-33.36 80.31,-26.71"/>
</a>
</g>
</g>
<!-- Node3 -->
<g id="Node000003" class="node">
<title>Node3</title>
<g id="a_Node000003"><a xlink:title=" ">
<polygon fill="#e0e0e0" stroke="#999999" points="215.5,-26 97.5,-26 97.5,-6 215.5,-6 215.5,-26"/>
<text xml:space="preserve" text-anchor="middle" x="156.5" y="-12.5" font-family="Helvetica,sans-Serif" font-size="10.00">GameplayAbilitySpec.h</text>
</a>
</g>
</g>
<!-- Node1&#45;&gt;Node3 -->
<g id="edge2_Node000001_Node000003" class="edge">
<title>Node1&#45;&gt;Node3</title>
<g id="a_edge2_Node000001_Node000003"><a xlink:title=" ">
<path fill="none" stroke="#63b8ff" d="M240.16,-67.56C220.04,-55.4 198.27,-42.24 181.98,-32.4"/>
<polygon fill="#63b8ff" stroke="#63b8ff" points="183.8,-29.41 173.43,-27.23 180.18,-35.4 183.8,-29.41"/>
</a>
</g>
</g>
<!-- Node4 -->
<g id="Node000004" class="node">
<title>Node4</title>
<g id="a_Node000004"><a xlink:title=" ">
<polygon fill="#e0e0e0" stroke="#999999" points="357.88,-32 233.12,-32 233.12,0 357.88,0 357.88,-32"/>
<text xml:space="preserve" text-anchor="start" x="241.12" y="-18.5" font-family="Helvetica,sans-Serif" font-size="10.00">Abilities/GameplayAbility</text>
<text xml:space="preserve" text-anchor="middle" x="295.5" y="-6.5" font-family="Helvetica,sans-Serif" font-size="10.00">TargetDataFilter.h</text>
</a>
</g>
</g>
<!-- Node1&#45;&gt;Node4 -->
<g id="edge3_Node000001_Node000004" class="edge">
<title>Node1&#45;&gt;Node4</title>
<g id="a_edge3_Node000001_Node000004"><a xlink:title=" ">
<path fill="none" stroke="#63b8ff" d="M295.5,-67.8C295.5,-59.74 295.5,-51.22 295.5,-43.51"/>
<polygon fill="#63b8ff" stroke="#63b8ff" points="299,-43.76 295.5,-33.76 292,-43.76 299,-43.76"/>
</a>
</g>
</g>
<!-- Node5 -->
<g id="Node000005" class="node">
<title>Node5</title>
<g id="a_Node000005"><a xlink:title=" ">
<polygon fill="#e0e0e0" stroke="#999999" points="500.88,-32 376.12,-32 376.12,0 500.88,0 500.88,-32"/>
<text xml:space="preserve" text-anchor="start" x="384.12" y="-18.5" font-family="Helvetica,sans-Serif" font-size="10.00">Abilities/GameplayAbility</text>
<text xml:space="preserve" text-anchor="middle" x="438.5" y="-6.5" font-family="Helvetica,sans-Serif" font-size="10.00">TargetTypes.h</text>
</a>
</g>
</g>
<!-- Node1&#45;&gt;Node5 -->
<g id="edge4_Node000001_Node000005" class="edge">
<title>Node1&#45;&gt;Node5</title>
<g id="a_edge4_Node000001_Node000005"><a xlink:title=" ">
<path fill="none" stroke="#63b8ff" d="M352.43,-67.56C369.42,-57.58 387.57,-46.92 402.79,-37.98"/>
<polygon fill="#63b8ff" stroke="#63b8ff" points="404.18,-41.22 411.03,-33.14 400.63,-35.18 404.18,-41.22"/>
</a>
</g>
</g>
<!-- Node6 -->
<g id="Node000006" class="node">
<title>Node6</title>
<g id="a_Node000006"><a xlink:title=" ">
<polygon fill="#e0e0e0" stroke="#999999" points="682,-26 519,-26 519,-6 682,-6 682,-26"/>
<text xml:space="preserve" text-anchor="middle" x="600.5" y="-12.5" font-family="Helvetica,sans-Serif" font-size="10.00">FDirectionTargetData.generated.h</text>
</a>
</g>
</g>
<!-- Node1&#45;&gt;Node6 -->
<g id="edge5_Node000001_Node000006" class="edge">
<title>Node1&#45;&gt;Node6</title>
<g id="a_edge5_Node000001_Node000006"><a xlink:title=" ">
<path fill="none" stroke="#63b8ff" d="M381.68,-77.27C438.03,-61.75 509.38,-42.09 555,-29.53"/>
<polygon fill="#63b8ff" stroke="#63b8ff" points="555.84,-32.93 564.56,-26.9 553.99,-26.18 555.84,-32.93"/>
</a>
</g>
</g>
</g>
</svg>
