<?xml version="1.0" encoding="UTF-8" standalone="no"?>
<!DOCTYPE svg PUBLIC "-//W3C//DTD SVG 1.1//EN"
 "http://www.w3.org/Graphics/SVG/1.1/DTD/svg11.dtd">
<!-- Generated by graphviz version 13.1.1 (20250719.2154)
 -->
<!-- Title: C:/Users/user/Perforce/alz7_CobaltbruWorkspace_00/KPT/Source/KPT/Skill/Movement/FollowMovementStrategy.h Pages: 1 -->
<svg width="624pt" height="244pt"
 viewBox="0.00 0.00 624.00 244.00" xmlns="http://www.w3.org/2000/svg" xmlns:xlink="http://www.w3.org/1999/xlink">
<g id="graph0" class="graph" transform="scale(1 1) rotate(0) translate(4 240)">
<title>C:/Users/user/Perforce/alz7_CobaltbruWorkspace_00/KPT/Source/KPT/Skill/Movement/FollowMovementStrategy.h</title>
<!-- Node1 -->
<g id="Node000001" class="node">
<title>Node1</title>
<g id="a_Node000001"><a xlink:title=" ">
<polygon fill="#999999" stroke="#666666" points="238.62,-236 52.38,-236 52.38,-180 238.62,-180 238.62,-236"/>
<text xml:space="preserve" text-anchor="start" x="60.38" y="-222.5" font-family="Helvetica,sans-Serif" font-size="10.00">C:/Users/user/Perforce</text>
<text xml:space="preserve" text-anchor="start" x="60.38" y="-210.5" font-family="Helvetica,sans-Serif" font-size="10.00">/alz7_CobaltbruWorkspace</text>
<text xml:space="preserve" text-anchor="start" x="60.38" y="-198.5" font-family="Helvetica,sans-Serif" font-size="10.00">_00/KPT/Source/KPT/Skill</text>
<text xml:space="preserve" text-anchor="middle" x="145.5" y="-186.5" font-family="Helvetica,sans-Serif" font-size="10.00">/Movement/FollowMovementStrategy.h</text>
</a>
</g>
</g>
<!-- Node2 -->
<g id="Node000002" class="node">
<title>Node2</title>
<g id="a_Node000002"><a xlink:title=" ">
<polygon fill="#e0e0e0" stroke="#999999" points="79,-20 0,-20 0,0 79,0 79,-20"/>
<text xml:space="preserve" text-anchor="middle" x="39.5" y="-6.5" font-family="Helvetica,sans-Serif" font-size="10.00">CoreMinimal.h</text>
</a>
</g>
</g>
<!-- Node1&#45;&gt;Node2 -->
<g id="edge1_Node000001_Node000002" class="edge">
<title>Node1&#45;&gt;Node2</title>
<g id="a_edge1_Node000001_Node000002"><a xlink:title=" ">
<path fill="none" stroke="#63b8ff" d="M88.46,-179.51C74.57,-170.14 61.21,-158.33 52.5,-144 31.27,-109.09 33.1,-59.27 36.31,-31.57"/>
<polygon fill="#63b8ff" stroke="#63b8ff" points="39.77,-32.11 37.64,-21.73 32.83,-31.17 39.77,-32.11"/>
</a>
</g>
</g>
<!-- Node3 -->
<g id="Node000003" class="node">
<title>Node3</title>
<g id="a_Node000003"><a xlink:href="_movement_strategy_base_8h.html" target="_top" xlink:title=" ">
<polygon fill="white" stroke="#666666" points="230,-144 61,-144 61,-112 230,-112 230,-144"/>
<text xml:space="preserve" text-anchor="start" x="69" y="-130.5" font-family="Helvetica,sans-Serif" font-size="10.00">Skill/Movement/MovementStrategy</text>
<text xml:space="preserve" text-anchor="middle" x="145.5" y="-118.5" font-family="Helvetica,sans-Serif" font-size="10.00">Base.h</text>
</a>
</g>
</g>
<!-- Node1&#45;&gt;Node3 -->
<g id="edge2_Node000001_Node000003" class="edge">
<title>Node1&#45;&gt;Node3</title>
<g id="a_edge2_Node000001_Node000003"><a xlink:title=" ">
<path fill="none" stroke="#63b8ff" d="M145.5,-179.72C145.5,-171.88 145.5,-163.34 145.5,-155.54"/>
<polygon fill="#63b8ff" stroke="#63b8ff" points="149,-155.62 145.5,-145.62 142,-155.62 149,-155.62"/>
</a>
</g>
</g>
<!-- Node11 -->
<g id="Node000011" class="node">
<title>Node11</title>
<g id="a_Node000011"><a xlink:title=" ">
<polygon fill="#e0e0e0" stroke="#999999" points="428.62,-138 248.38,-138 248.38,-118 428.62,-118 428.62,-138"/>
<text xml:space="preserve" text-anchor="middle" x="338.5" y="-124.5" font-family="Helvetica,sans-Serif" font-size="10.00">FollowMovementStrategy.generated.h</text>
</a>
</g>
</g>
<!-- Node1&#45;&gt;Node11 -->
<g id="edge12_Node000001_Node000011" class="edge">
<title>Node1&#45;&gt;Node11</title>
<g id="a_edge12_Node000001_Node000011"><a xlink:title=" ">
<path fill="none" stroke="#63b8ff" d="M213.54,-179.5C244.36,-167.04 279.44,-152.87 304.56,-142.72"/>
<polygon fill="#63b8ff" stroke="#63b8ff" points="305.65,-146.05 313.61,-139.06 303.03,-139.56 305.65,-146.05"/>
</a>
</g>
</g>
<!-- Node3&#45;&gt;Node2 -->
<g id="edge3_Node000003_Node000002" class="edge">
<title>Node3&#45;&gt;Node2</title>
<g id="a_edge3_Node000003_Node000002"><a xlink:title=" ">
<path fill="none" stroke="#63b8ff" d="M105.78,-111.64C89.05,-103.36 70.67,-91.6 58.5,-76 48.53,-63.22 43.79,-45.37 41.54,-31.6"/>
<polygon fill="#63b8ff" stroke="#63b8ff" points="45.03,-31.34 40.28,-21.87 38.09,-32.24 45.03,-31.34"/>
</a>
</g>
</g>
<!-- Node4 -->
<g id="Node000004" class="node">
<title>Node4</title>
<g id="a_Node000004"><a xlink:title=" ">
<polygon fill="#e0e0e0" stroke="#999999" points="223.62,-76 67.38,-76 67.38,-56 223.62,-56 223.62,-76"/>
<text xml:space="preserve" text-anchor="middle" x="145.5" y="-62.5" font-family="Helvetica,sans-Serif" font-size="10.00">Components/ActorComponent.h</text>
</a>
</g>
</g>
<!-- Node3&#45;&gt;Node4 -->
<g id="edge4_Node000003_Node000004" class="edge">
<title>Node3&#45;&gt;Node4</title>
<g id="a_edge4_Node000003_Node000004"><a xlink:title=" ">
<path fill="none" stroke="#63b8ff" d="M145.5,-111.55C145.5,-104.34 145.5,-95.66 145.5,-87.88"/>
<polygon fill="#63b8ff" stroke="#63b8ff" points="149,-87.92 145.5,-77.92 142,-87.92 149,-87.92"/>
</a>
</g>
</g>
<!-- Node5 -->
<g id="Node000005" class="node">
<title>Node5</title>
<g id="a_Node000005"><a xlink:href="_skill_data_8h.html" target="_top" xlink:title=" ">
<polygon fill="white" stroke="#666666" points="351.38,-76 241.62,-76 241.62,-56 351.38,-56 351.38,-76"/>
<text xml:space="preserve" text-anchor="middle" x="296.5" y="-62.5" font-family="Helvetica,sans-Serif" font-size="10.00">Skill/Data/SkillData.h</text>
</a>
</g>
</g>
<!-- Node3&#45;&gt;Node5 -->
<g id="edge5_Node000003_Node000005" class="edge">
<title>Node3&#45;&gt;Node5</title>
<g id="a_edge5_Node000003_Node000005"><a xlink:title=" ">
<path fill="none" stroke="#63b8ff" d="M184.39,-111.55C208.53,-101.96 239.25,-89.75 262.43,-80.54"/>
<polygon fill="#63b8ff" stroke="#63b8ff" points="263.42,-83.91 271.42,-76.97 260.83,-77.41 263.42,-83.91"/>
</a>
</g>
</g>
<!-- Node10 -->
<g id="Node000010" class="node">
<title>Node10</title>
<g id="a_Node000010"><a xlink:title=" ">
<polygon fill="#e0e0e0" stroke="#999999" points="544,-76 369,-76 369,-56 544,-56 544,-76"/>
<text xml:space="preserve" text-anchor="middle" x="456.5" y="-62.5" font-family="Helvetica,sans-Serif" font-size="10.00">MovementStrategyBase.generated.h</text>
</a>
</g>
</g>
<!-- Node3&#45;&gt;Node10 -->
<g id="edge11_Node000003_Node000010" class="edge">
<title>Node3&#45;&gt;Node10</title>
<g id="a_edge11_Node000003_Node000010"><a xlink:title=" ">
<path fill="none" stroke="#63b8ff" d="M225.59,-111.55C278.74,-101.29 347.4,-88.05 396,-78.67"/>
<polygon fill="#63b8ff" stroke="#63b8ff" points="396.64,-82.11 405.79,-76.78 395.31,-75.24 396.64,-82.11"/>
</a>
</g>
</g>
<!-- Node5&#45;&gt;Node2 -->
<g id="edge6_Node000005_Node000002" class="edge">
<title>Node5&#45;&gt;Node2</title>
<g id="a_edge6_Node000005_Node000002"><a xlink:title=" ">
<path fill="none" stroke="#63b8ff" d="M251.44,-55.53C206.49,-46.09 137.54,-31.6 90.58,-21.73"/>
<polygon fill="#63b8ff" stroke="#63b8ff" points="91.42,-18.33 80.92,-19.7 89.98,-25.18 91.42,-18.33"/>
</a>
</g>
</g>
<!-- Node6 -->
<g id="Node000006" class="node">
<title>Node6</title>
<g id="a_Node000006"><a xlink:title=" ">
<polygon fill="#e0e0e0" stroke="#999999" points="208.25,-20 106.75,-20 106.75,0 208.25,0 208.25,-20"/>
<text xml:space="preserve" text-anchor="middle" x="157.5" y="-6.5" font-family="Helvetica,sans-Serif" font-size="10.00">Engine/DataTable.h</text>
</a>
</g>
</g>
<!-- Node5&#45;&gt;Node6 -->
<g id="edge7_Node000005_Node000006" class="edge">
<title>Node5&#45;&gt;Node6</title>
<g id="a_edge7_Node000005_Node000006"><a xlink:title=" ">
<path fill="none" stroke="#63b8ff" d="M272.29,-55.59C250.2,-47.01 217.3,-34.23 192.38,-24.55"/>
<polygon fill="#63b8ff" stroke="#63b8ff" points="193.9,-21.39 183.31,-21.03 191.37,-27.91 193.9,-21.39"/>
</a>
</g>
</g>
<!-- Node7 -->
<g id="Node000007" class="node">
<title>Node7</title>
<g id="a_Node000007"><a xlink:title=" ">
<polygon fill="#e0e0e0" stroke="#999999" points="344.5,-20 226.5,-20 226.5,0 344.5,0 344.5,-20"/>
<text xml:space="preserve" text-anchor="middle" x="285.5" y="-6.5" font-family="Helvetica,sans-Serif" font-size="10.00">GameplayAbilitySpec.h</text>
</a>
</g>
</g>
<!-- Node5&#45;&gt;Node7 -->
<g id="edge8_Node000005_Node000007" class="edge">
<title>Node5&#45;&gt;Node7</title>
<g id="a_edge8_Node000005_Node000007"><a xlink:title=" ">
<path fill="none" stroke="#63b8ff" d="M294.58,-55.59C293.23,-48.93 291.36,-39.75 289.66,-31.44"/>
<polygon fill="#63b8ff" stroke="#63b8ff" points="293.12,-30.88 287.7,-21.78 286.26,-32.28 293.12,-30.88"/>
</a>
</g>
</g>
<!-- Node8 -->
<g id="Node000008" class="node">
<title>Node8</title>
<g id="a_Node000008"><a xlink:title=" ">
<polygon fill="#e0e0e0" stroke="#999999" points="488.62,-20 362.38,-20 362.38,0 488.62,0 488.62,-20"/>
<text xml:space="preserve" text-anchor="middle" x="425.5" y="-6.5" font-family="Helvetica,sans-Serif" font-size="10.00">GameplayTagContainer.h</text>
</a>
</g>
</g>
<!-- Node5&#45;&gt;Node8 -->
<g id="edge9_Node000005_Node000008" class="edge">
<title>Node5&#45;&gt;Node8</title>
<g id="a_edge9_Node000005_Node000008"><a xlink:title=" ">
<path fill="none" stroke="#63b8ff" d="M318.97,-55.59C339.29,-47.09 369.45,-34.46 392.51,-24.81"/>
<polygon fill="#63b8ff" stroke="#63b8ff" points="393.59,-28.15 401.46,-21.06 390.88,-21.7 393.59,-28.15"/>
</a>
</g>
</g>
<!-- Node9 -->
<g id="Node000009" class="node">
<title>Node9</title>
<g id="a_Node000009"><a xlink:title=" ">
<polygon fill="#e0e0e0" stroke="#999999" points="616.38,-20 506.62,-20 506.62,0 616.38,0 616.38,-20"/>
<text xml:space="preserve" text-anchor="middle" x="561.5" y="-6.5" font-family="Helvetica,sans-Serif" font-size="10.00">SkillData.generated.h</text>
</a>
</g>
</g>
<!-- Node5&#45;&gt;Node9 -->
<g id="edge10_Node000005_Node000009" class="edge">
<title>Node5&#45;&gt;Node9</title>
<g id="a_edge10_Node000005_Node000009"><a xlink:title=" ">
<path fill="none" stroke="#63b8ff" d="M342.96,-55.53C387.76,-46.4 455.68,-32.56 503.9,-22.74"/>
<polygon fill="#63b8ff" stroke="#63b8ff" points="504.51,-26.19 513.61,-20.76 503.11,-19.33 504.51,-26.19"/>
</a>
</g>
</g>
</g>
</svg>
