<?xml version="1.0" encoding="UTF-8" standalone="no"?>
<!DOCTYPE svg PUBLIC "-//W3C//DTD SVG 1.1//EN"
 "http://www.w3.org/Graphics/SVG/1.1/DTD/svg11.dtd">
<!-- Generated by graphviz version 13.1.1 (20250719.2154)
 -->
<!-- Title: C:/Users/user/Perforce/alz7_CobaltbruWorkspace_00/KPT/Source/KPT/Skill/Ability/Trace/GameplayAbility_BossRockDrop.cpp Pages: 1 -->
<!--zoomable 336 -->

<svg id="main" version="1.1" xmlns="http://www.w3.org/2000/svg" xmlns:xlink="http://www.w3.org/1999/xlink" xml:space="preserve" onload="init(evt)">

<style type="text/css"><![CDATA[
.node, .edge {opacity: 0.7;}
.node.selected, .edge.selected {opacity: 1;}
.edge:hover path { stroke: red; }
.edge:hover polygon { stroke: red; fill: red; }
]]></style>

<defs>
  <circle id="rim" cx="0" cy="0" r="7"/>
  <circle id="rim2" cx="0" cy="0" r="3.5"/>
  <g id="zoomPlus">
    <use xlink:href="#rim" fill="#404040"><set attributeName="fill" to="#808080" begin="zoomplus.mouseover" end="zoomplus.mouseout"/></use>
    <path d="M-4,0h8M0,-4v8" fill="none" stroke="white" stroke-width="1.5" pointer-events="none"/>
  </g>
  <g id="zoomMin">
    <use xlink:href="#rim" fill="#404040"><set attributeName="fill" to="#808080" begin="zoomminus.mouseover" end="zoomminus.mouseout"/></use>
    <path d="M-4,0h8" fill="none" stroke="white" stroke-width="1.5" pointer-events="none"/>
  </g>
  <g id="arrowUp" transform="translate(30 24)">
    <use xlink:href="#rim"/>
    <path pointer-events="none" fill="none" stroke="white" stroke-width="1.5" d="M0,-3.0v7 M-2.5,-0.5L0,-3.0L2.5,-0.5"/>
  </g>
  <g id="arrowRight" transform="rotate(90) translate(36 -43)">
    <use xlink:href="#rim"/>
    <path pointer-events="none" fill="none" stroke="white" stroke-width="1.5" d="M0,-3.0v7 M-2.5,-0.5L0,-3.0L2.5,-0.5"/>
  </g>
  <g id="arrowDown" transform="rotate(180) translate(-30 -48)">
    <use xlink:href="#rim"/>
    <path pointer-events="none" fill="none" stroke="white" stroke-width="1.5" d="M0,-3.0v7 M-2.5,-0.5L0,-3.0L2.5,-0.5"/>
  </g>
  <g id="arrowLeft" transform="rotate(270) translate(-36 17)">
    <use xlink:href="#rim"/>
    <path pointer-events="none" fill="none" stroke="white" stroke-width="1.5" d="M0,-3.0v7 M-2.5,-0.5L0,-3.0L2.5,-0.5"/>
  </g>
  <g id="resetDef">
    <use xlink:href="#rim2" fill="#404040"><set attributeName="fill" to="#808080" begin="reset.mouseover" end="reset.mouseout"/></use>
  </g>
</defs>
<script type="application/ecmascript">
var viewWidth = 1360;
var viewHeight = 336;
var sectionId = 'dynsection-0';
</script>
<script type="application/ecmascript" xlink:href="svg.min.js"/>
<svg id="graph" class="graph">
<g id="viewport">
<title>C:/Users/user/Perforce/alz7_CobaltbruWorkspace_00/KPT/Source/KPT/Skill/Ability/Trace/GameplayAbility_BossRockDrop.cpp</title>
<!-- Node1 -->
<g id="Node000001" class="node">
<title>Node1</title>
<g id="a_Node000001"><a xlink:title=" ">
<polygon fill="#999999" stroke="#666666" points="1123.12,-328 975.12,-328 975.12,-260 1123.12,-260 1123.12,-328"/>
<text xml:space="preserve" text-anchor="start" x="983.12" y="-314.5" font-family="Helvetica,sans-Serif" font-size="10.00">C:/Users/user/Perforce</text>
<text xml:space="preserve" text-anchor="start" x="983.12" y="-302.5" font-family="Helvetica,sans-Serif" font-size="10.00">/alz7_CobaltbruWorkspace</text>
<text xml:space="preserve" text-anchor="start" x="983.12" y="-290.5" font-family="Helvetica,sans-Serif" font-size="10.00">_00/KPT/Source/KPT/Skill</text>
<text xml:space="preserve" text-anchor="start" x="983.12" y="-278.5" font-family="Helvetica,sans-Serif" font-size="10.00">/Ability/Trace/GameplayAbility</text>
<text xml:space="preserve" text-anchor="middle" x="1049.12" y="-266.5" font-family="Helvetica,sans-Serif" font-size="10.00">_BossRockDrop.cpp</text>
</a>
</g>
</g>
<!-- Node2 -->
<g id="Node000002" class="node">
<title>Node2</title>
<g id="a_Node000002"><a xlink:href="_gameplay_ability___boss_rock_drop_8h.html" target="_top" xlink:title=" ">
<polygon fill="white" stroke="#666666" points="666.25,-224 528,-224 528,-192 666.25,-192 666.25,-224"/>
<text xml:space="preserve" text-anchor="start" x="536" y="-210.5" font-family="Helvetica,sans-Serif" font-size="10.00">GameplayAbility_BossRock</text>
<text xml:space="preserve" text-anchor="middle" x="597.12" y="-198.5" font-family="Helvetica,sans-Serif" font-size="10.00">Drop.h</text>
</a>
</g>
</g>
<!-- Node1&#45;&gt;Node2 -->
<g id="edge1_Node000001_Node000002" class="edge">
<title>Node1&#45;&gt;Node2</title>
<g id="a_edge1_Node000001_Node000002"><a xlink:title=" ">
<path fill="none" stroke="#63b8ff" d="M974.94,-279.48C901.96,-266.15 787.05,-245.05 677.69,-224.48"/>
<polygon fill="#63b8ff" stroke="#63b8ff" points="678.4,-221.05 667.93,-222.64 677.11,-227.93 678.4,-221.05"/>
</a>
</g>
</g>
<!-- Node15 -->
<g id="Node000015" class="node">
<title>Node15</title>
<g id="a_Node000015"><a xlink:title=" ">
<polygon fill="#e0e0e0" stroke="#999999" points="836,-218 684.25,-218 684.25,-198 836,-198 836,-218"/>
<text xml:space="preserve" text-anchor="middle" x="760.12" y="-204.5" font-family="Helvetica,sans-Serif" font-size="10.00">AbilitySystemBlueprintLibrary.h</text>
</a>
</g>
</g>
<!-- Node1&#45;&gt;Node15 -->
<g id="edge17_Node000001_Node000015" class="edge">
<title>Node1&#45;&gt;Node15</title>
<g id="a_edge17_Node000001_Node000015"><a xlink:title=" ">
<path fill="none" stroke="#63b8ff" d="M974.7,-271.37C920.43,-255.59 848.76,-234.76 803.54,-221.62"/>
<polygon fill="#63b8ff" stroke="#63b8ff" points="804.68,-218.3 794.1,-218.87 802.72,-225.03 804.68,-218.3"/>
</a>
</g>
</g>
<!-- Node16 -->
<g id="Node000016" class="node">
<title>Node16</title>
<g id="a_Node000016"><a xlink:title=" ">
<polygon fill="#e0e0e0" stroke="#999999" points="989.75,-218 854.5,-218 854.5,-198 989.75,-198 989.75,-218"/>
<text xml:space="preserve" text-anchor="middle" x="922.12" y="-204.5" font-family="Helvetica,sans-Serif" font-size="10.00">AbilitySystemComponent.h</text>
</a>
</g>
</g>
<!-- Node1&#45;&gt;Node16 -->
<g id="edge18_Node000001_Node000016" class="edge">
<title>Node1&#45;&gt;Node16</title>
<g id="a_edge18_Node000001_Node000016"><a xlink:title=" ">
<path fill="none" stroke="#63b8ff" d="M998.57,-259.56C980.36,-247.52 960.66,-234.49 945.83,-224.68"/>
<polygon fill="#63b8ff" stroke="#63b8ff" points="947.94,-221.88 937.67,-219.28 944.08,-227.72 947.94,-221.88"/>
</a>
</g>
</g>
<!-- Node17 -->
<g id="Node000017" class="node">
<title>Node17</title>
<g id="a_Node000017"><a xlink:title=" ">
<polygon fill="#e0e0e0" stroke="#999999" points="1090.12,-218 1008.12,-218 1008.12,-198 1090.12,-198 1090.12,-218"/>
<text xml:space="preserve" text-anchor="middle" x="1049.12" y="-204.5" font-family="Helvetica,sans-Serif" font-size="10.00">Engine/World.h</text>
</a>
</g>
</g>
<!-- Node1&#45;&gt;Node17 -->
<g id="edge19_Node000001_Node000017" class="edge">
<title>Node1&#45;&gt;Node17</title>
<g id="a_edge19_Node000001_Node000017"><a xlink:title=" ">
<path fill="none" stroke="#63b8ff" d="M1049.12,-259.8C1049.12,-249.58 1049.12,-238.63 1049.12,-229.52"/>
<polygon fill="#63b8ff" stroke="#63b8ff" points="1052.63,-229.65 1049.13,-219.65 1045.63,-229.65 1052.63,-229.65"/>
</a>
</g>
</g>
<!-- Node18 -->
<g id="Node000018" class="node">
<title>Node18</title>
<g id="a_Node000018"><a xlink:title=" ">
<polygon fill="#e0e0e0" stroke="#999999" points="1194.38,-218 1107.88,-218 1107.88,-198 1194.38,-198 1194.38,-218"/>
<text xml:space="preserve" text-anchor="middle" x="1151.12" y="-204.5" font-family="Helvetica,sans-Serif" font-size="10.00">TimerManager.h</text>
</a>
</g>
</g>
<!-- Node1&#45;&gt;Node18 -->
<g id="edge20_Node000001_Node000018" class="edge">
<title>Node1&#45;&gt;Node18</title>
<g id="a_edge20_Node000001_Node000018"><a xlink:title=" ">
<path fill="none" stroke="#63b8ff" d="M1089.73,-259.56C1103.93,-247.86 1119.26,-235.24 1131.05,-225.53"/>
<polygon fill="#63b8ff" stroke="#63b8ff" points="1132.99,-228.47 1138.48,-219.41 1128.54,-223.07 1132.99,-228.47"/>
</a>
</g>
</g>
<!-- Node19 -->
<g id="Node000019" class="node">
<title>Node19</title>
<g id="a_Node000019"><a xlink:title=" ">
<polygon fill="#e0e0e0" stroke="#999999" points="1336.12,-218 1212.12,-218 1212.12,-198 1336.12,-198 1336.12,-218"/>
<text xml:space="preserve" text-anchor="middle" x="1274.12" y="-204.5" font-family="Helvetica,sans-Serif" font-size="10.00">NiagaraFunctionLibrary.h</text>
</a>
</g>
</g>
<!-- Node1&#45;&gt;Node19 -->
<g id="edge21_Node000001_Node000019" class="edge">
<title>Node1&#45;&gt;Node19</title>
<g id="a_edge21_Node000001_Node000019"><a xlink:title=" ">
<path fill="none" stroke="#63b8ff" d="M1123.42,-265.26C1161.95,-250.88 1207.27,-233.96 1238.08,-222.46"/>
<polygon fill="#63b8ff" stroke="#63b8ff" points="1239.17,-225.79 1247.31,-219.01 1236.72,-219.23 1239.17,-225.79"/>
</a>
</g>
</g>
<!-- Node20 -->
<g id="Node000020" class="node">
<title>Node20</title>
<g id="a_Node000020"><a xlink:href="_rock_8h.html" target="_top" xlink:title=" ">
<polygon fill="white" stroke="#666666" points="1131.75,-150 1008.5,-150 1008.5,-130 1131.75,-130 1131.75,-150"/>
<text xml:space="preserve" text-anchor="middle" x="1070.12" y="-136.5" font-family="Helvetica,sans-Serif" font-size="10.00">AI/Boss/Abilities/Rock.h</text>
</a>
</g>
</g>
<!-- Node1&#45;&gt;Node20 -->
<g id="edge22_Node000001_Node000020" class="edge">
<title>Node1&#45;&gt;Node20</title>
<g id="a_edge22_Node000001_Node000020"><a xlink:title=" ">
<path fill="none" stroke="#63b8ff" d="M1123.41,-286.09C1201.87,-277.08 1317.94,-258.25 1345.12,-224 1353.97,-212.86 1354.22,-202.94 1345.12,-192 1319.93,-161.7 1216.13,-149.32 1143.53,-144.32"/>
<polygon fill="#63b8ff" stroke="#63b8ff" points="1143.88,-140.83 1133.68,-143.67 1143.43,-147.82 1143.88,-140.83"/>
</a>
</g>
</g>
<!-- Node3 -->
<g id="Node000003" class="node">
<title>Node3</title>
<g id="a_Node000003"><a xlink:title=" ">
<polygon fill="#e0e0e0" stroke="#999999" points="599.62,-20 520.62,-20 520.62,0 599.62,0 599.62,-20"/>
<text xml:space="preserve" text-anchor="middle" x="560.12" y="-6.5" font-family="Helvetica,sans-Serif" font-size="10.00">CoreMinimal.h</text>
</a>
</g>
</g>
<!-- Node2&#45;&gt;Node3 -->
<g id="edge2_Node000002_Node000003" class="edge">
<title>Node2&#45;&gt;Node3</title>
<g id="a_edge2_Node000002_Node000003"><a xlink:title=" ">
<path fill="none" stroke="#63b8ff" d="M590.75,-191.63C586.85,-181.64 582.05,-168.24 579.12,-156 568.68,-112.32 563.6,-59.77 561.45,-31.46"/>
<polygon fill="#63b8ff" stroke="#63b8ff" points="564.97,-31.52 560.77,-21.79 557.98,-32.01 564.97,-31.52"/>
</a>
</g>
</g>
<!-- Node4 -->
<g id="Node000004" class="node">
<title>Node4</title>
<g id="a_Node000004"><a xlink:href="_gameplay_ability___trace_base_8h.html" target="_top" xlink:title=" ">
<polygon fill="white" stroke="#666666" points="472.62,-156 321.62,-156 321.62,-124 472.62,-124 472.62,-156"/>
<text xml:space="preserve" text-anchor="start" x="329.62" y="-142.5" font-family="Helvetica,sans-Serif" font-size="10.00">Skill/Ability/Trace</text>
<text xml:space="preserve" text-anchor="middle" x="397.12" y="-130.5" font-family="Helvetica,sans-Serif" font-size="10.00">/GameplayAbility_TraceBase.h</text>
</a>
</g>
</g>
<!-- Node2&#45;&gt;Node4 -->
<g id="edge3_Node000002_Node000004" class="edge">
<title>Node2&#45;&gt;Node4</title>
<g id="a_edge3_Node000002_Node000004"><a xlink:title=" ">
<path fill="none" stroke="#63b8ff" d="M550.23,-191.53C521.75,-182.13 485.17,-170.05 454.91,-160.07"/>
<polygon fill="#63b8ff" stroke="#63b8ff" points="456.1,-156.78 445.51,-156.97 453.91,-163.42 456.1,-156.78"/>
</a>
</g>
</g>
<!-- Node10 -->
<g id="Node000010" class="node">
<title>Node10</title>
<g id="a_Node000010"><a xlink:href="_circle_indicator_actor_8h.html" target="_top" xlink:title=" ">
<polygon fill="white" stroke="#666666" points="967.88,-156 854.38,-156 854.38,-124 967.88,-124 967.88,-156"/>
<text xml:space="preserve" text-anchor="start" x="862.38" y="-142.5" font-family="Helvetica,sans-Serif" font-size="10.00">Skill/Ability/Indicator</text>
<text xml:space="preserve" text-anchor="middle" x="911.12" y="-130.5" font-family="Helvetica,sans-Serif" font-size="10.00">/CircleIndicatorActor.h</text>
</a>
</g>
</g>
<!-- Node2&#45;&gt;Node10 -->
<g id="edge11_Node000002_Node000010" class="edge">
<title>Node2&#45;&gt;Node10</title>
<g id="a_edge11_Node000002_Node000010"><a xlink:title=" ">
<path fill="none" stroke="#63b8ff" d="M666.69,-193.09C713.82,-183.58 777.8,-170.49 843.01,-156.44"/>
<polygon fill="#63b8ff" stroke="#63b8ff" points="843.39,-159.93 852.42,-154.4 841.91,-153.09 843.39,-159.93"/>
</a>
</g>
</g>
<!-- Node13 -->
<g id="Node000013" class="node">
<title>Node13</title>
<g id="a_Node000013"><a xlink:title=" ">
<polygon fill="#e0e0e0" stroke="#999999" points="680,-150 588.25,-150 588.25,-130 680,-130 680,-150"/>
<text xml:space="preserve" text-anchor="middle" x="634.12" y="-136.5" font-family="Helvetica,sans-Serif" font-size="10.00">NiagaraSystem.h</text>
</a>
</g>
</g>
<!-- Node2&#45;&gt;Node13 -->
<g id="edge15_Node000002_Node000013" class="edge">
<title>Node2&#45;&gt;Node13</title>
<g id="a_edge15_Node000002_Node000013"><a xlink:title=" ">
<path fill="none" stroke="#63b8ff" d="M605.71,-191.69C610.97,-182.3 617.76,-170.18 623.39,-160.15"/>
<polygon fill="#63b8ff" stroke="#63b8ff" points="626.33,-162.07 628.16,-151.64 620.22,-158.65 626.33,-162.07"/>
</a>
</g>
</g>
<!-- Node14 -->
<g id="Node000014" class="node">
<title>Node14</title>
<g id="a_Node000014"><a xlink:title=" ">
<polygon fill="#e0e0e0" stroke="#999999" points="836.25,-156 698,-156 698,-124 836.25,-124 836.25,-156"/>
<text xml:space="preserve" text-anchor="start" x="706" y="-142.5" font-family="Helvetica,sans-Serif" font-size="10.00">GameplayAbility_BossRock</text>
<text xml:space="preserve" text-anchor="middle" x="767.12" y="-130.5" font-family="Helvetica,sans-Serif" font-size="10.00">Drop.generated.h</text>
</a>
</g>
</g>
<!-- Node2&#45;&gt;Node14 -->
<g id="edge16_Node000002_Node000014" class="edge">
<title>Node2&#45;&gt;Node14</title>
<g id="a_edge16_Node000002_Node000014"><a xlink:title=" ">
<path fill="none" stroke="#63b8ff" d="M636.98,-191.53C660.77,-182.29 691.2,-170.48 716.65,-160.6"/>
<polygon fill="#63b8ff" stroke="#63b8ff" points="717.76,-163.92 725.81,-157.04 715.22,-157.4 717.76,-163.92"/>
</a>
</g>
</g>
<!-- Node4&#45;&gt;Node3 -->
<g id="edge4_Node000004_Node000003" class="edge">
<title>Node4&#45;&gt;Node3</title>
<g id="a_edge4_Node000004_Node000003"><a xlink:title=" ">
<path fill="none" stroke="#63b8ff" d="M440.92,-123.58C461.19,-115.09 484.79,-103.16 503.12,-88 522.79,-71.74 539.35,-47.32 549.47,-30.36"/>
<polygon fill="#63b8ff" stroke="#63b8ff" points="552.46,-32.17 554.4,-21.76 546.39,-28.69 552.46,-32.17"/>
</a>
</g>
</g>
<!-- Node5 -->
<g id="Node000005" class="node">
<title>Node5</title>
<g id="a_Node000005"><a xlink:title=" ">
<polygon fill="#e0e0e0" stroke="#999999" points="132.25,-82 0,-82 0,-62 132.25,-62 132.25,-82"/>
<text xml:space="preserve" text-anchor="middle" x="66.12" y="-68.5" font-family="Helvetica,sans-Serif" font-size="10.00">Abilities/GameplayAbility.h</text>
</a>
</g>
</g>
<!-- Node4&#45;&gt;Node5 -->
<g id="edge5_Node000004_Node000005" class="edge">
<title>Node4&#45;&gt;Node5</title>
<g id="a_edge5_Node000004_Node000005"><a xlink:title=" ">
<path fill="none" stroke="#63b8ff" d="M321.23,-123.9C270.29,-113.75 201.68,-100.09 141.12,-88 135.65,-86.91 129.95,-85.77 124.25,-84.63"/>
<polygon fill="#63b8ff" stroke="#63b8ff" points="125.31,-81.27 114.82,-82.74 123.94,-88.14 125.31,-81.27"/>
</a>
</g>
</g>
<!-- Node6 -->
<g id="Node000006" class="node">
<title>Node6</title>
<g id="a_Node000006"><a xlink:href="_ability_task___trace_8h.html" target="_top" xlink:title=" ">
<polygon fill="white" stroke="#666666" points="281.88,-88 150.38,-88 150.38,-56 281.88,-56 281.88,-88"/>
<text xml:space="preserve" text-anchor="start" x="158.38" y="-74.5" font-family="Helvetica,sans-Serif" font-size="10.00">AI/Boss/Abilities/Ability</text>
<text xml:space="preserve" text-anchor="middle" x="216.12" y="-62.5" font-family="Helvetica,sans-Serif" font-size="10.00">Tasks/AbilityTask_Trace.h</text>
</a>
</g>
</g>
<!-- Node4&#45;&gt;Node6 -->
<g id="edge6_Node000004_Node000006" class="edge">
<title>Node4&#45;&gt;Node6</title>
<g id="a_edge6_Node000004_Node000006"><a xlink:title=" ">
<path fill="none" stroke="#63b8ff" d="M354.69,-123.53C329.14,-114.21 296.38,-102.27 269.14,-92.33"/>
<polygon fill="#63b8ff" stroke="#63b8ff" points="270.62,-89.15 260.03,-89.01 268.23,-95.72 270.62,-89.15"/>
</a>
</g>
</g>
<!-- Node9 -->
<g id="Node000009" class="node">
<title>Node9</title>
<g id="a_Node000009"><a xlink:title=" ">
<polygon fill="#e0e0e0" stroke="#999999" points="494,-82 300.25,-82 300.25,-62 494,-62 494,-82"/>
<text xml:space="preserve" text-anchor="middle" x="397.12" y="-68.5" font-family="Helvetica,sans-Serif" font-size="10.00">GameplayAbility_TraceBase.generated.h</text>
</a>
</g>
</g>
<!-- Node4&#45;&gt;Node9 -->
<g id="edge10_Node000004_Node000009" class="edge">
<title>Node4&#45;&gt;Node9</title>
<g id="a_edge10_Node000004_Node000009"><a xlink:title=" ">
<path fill="none" stroke="#63b8ff" d="M397.12,-123.69C397.12,-114.8 397.12,-103.46 397.12,-93.77"/>
<polygon fill="#63b8ff" stroke="#63b8ff" points="400.63,-93.83 397.13,-83.83 393.63,-93.83 400.63,-93.83"/>
</a>
</g>
</g>
<!-- Node6&#45;&gt;Node3 -->
<g id="edge7_Node000006_Node000003" class="edge">
<title>Node6&#45;&gt;Node3</title>
<g id="a_edge7_Node000006_Node000003"><a xlink:title=" ">
<path fill="none" stroke="#63b8ff" d="M282.36,-57.64C285.32,-57.08 288.25,-56.53 291.12,-56 366.84,-42.1 454.87,-27.71 509.04,-19.05"/>
<polygon fill="#63b8ff" stroke="#63b8ff" points="509.58,-22.51 518.91,-17.48 508.48,-15.6 509.58,-22.51"/>
</a>
</g>
</g>
<!-- Node7 -->
<g id="Node000007" class="node">
<title>Node7</title>
<g id="a_Node000007"><a xlink:title=" ">
<polygon fill="#e0e0e0" stroke="#999999" points="204.62,-20 65.62,-20 65.62,0 204.62,0 204.62,-20"/>
<text xml:space="preserve" text-anchor="middle" x="135.12" y="-6.5" font-family="Helvetica,sans-Serif" font-size="10.00">Abilities/Tasks/AbilityTask.h</text>
</a>
</g>
</g>
<!-- Node6&#45;&gt;Node7 -->
<g id="edge8_Node000006_Node000007" class="edge">
<title>Node6&#45;&gt;Node7</title>
<g id="a_edge8_Node000006_Node000007"><a xlink:title=" ">
<path fill="none" stroke="#63b8ff" d="M195.27,-55.55C183.55,-46.87 168.93,-36.04 157.05,-27.24"/>
<polygon fill="#63b8ff" stroke="#63b8ff" points="159.16,-24.45 149.04,-21.31 154.99,-30.07 159.16,-24.45"/>
</a>
</g>
</g>
<!-- Node8 -->
<g id="Node000008" class="node">
<title>Node8</title>
<g id="a_Node000008"><a xlink:title=" ">
<polygon fill="#e0e0e0" stroke="#999999" points="371.12,-20 223.12,-20 223.12,0 371.12,0 371.12,-20"/>
<text xml:space="preserve" text-anchor="middle" x="297.12" y="-6.5" font-family="Helvetica,sans-Serif" font-size="10.00">AbilityTask_Trace.generated.h</text>
</a>
</g>
</g>
<!-- Node6&#45;&gt;Node8 -->
<g id="edge9_Node000006_Node000008" class="edge">
<title>Node6&#45;&gt;Node8</title>
<g id="a_edge9_Node000006_Node000008"><a xlink:title=" ">
<path fill="none" stroke="#63b8ff" d="M236.98,-55.55C248.7,-46.87 263.32,-36.04 275.2,-27.24"/>
<polygon fill="#63b8ff" stroke="#63b8ff" points="277.26,-30.07 283.21,-21.31 273.09,-24.45 277.26,-30.07"/>
</a>
</g>
</g>
<!-- Node10&#45;&gt;Node3 -->
<g id="edge12_Node000010_Node000003" class="edge">
<title>Node10&#45;&gt;Node3</title>
<g id="a_edge12_Node000010_Node000003"><a xlink:title=" ">
<path fill="none" stroke="#63b8ff" d="M899.1,-123.61C881.88,-102 850.59,-64.37 835.12,-56 797.41,-35.6 680.09,-21.88 611.48,-15.36"/>
<polygon fill="#63b8ff" stroke="#63b8ff" points="611.88,-11.89 601.59,-14.45 611.23,-18.86 611.88,-11.89"/>
</a>
</g>
</g>
<!-- Node11 -->
<g id="Node000011" class="node">
<title>Node11</title>
<g id="a_Node000011"><a xlink:title=" ">
<polygon fill="#e0e0e0" stroke="#999999" points="1007.88,-82 882.38,-82 882.38,-62 1007.88,-62 1007.88,-82"/>
<text xml:space="preserve" text-anchor="middle" x="945.12" y="-68.5" font-family="Helvetica,sans-Serif" font-size="10.00">GameFramework/Actor.h</text>
</a>
</g>
</g>
<!-- Node10&#45;&gt;Node11 -->
<g id="edge13_Node000010_Node000011" class="edge">
<title>Node10&#45;&gt;Node11</title>
<g id="a_edge13_Node000010_Node000011"><a xlink:title=" ">
<path fill="none" stroke="#63b8ff" d="M919.01,-123.69C923.8,-114.4 929.96,-102.44 935.09,-92.47"/>
<polygon fill="#63b8ff" stroke="#63b8ff" points="938.16,-94.15 939.63,-83.66 931.94,-90.95 938.16,-94.15"/>
</a>
</g>
</g>
<!-- Node12 -->
<g id="Node000012" class="node">
<title>Node12</title>
<g id="a_Node000012"><a xlink:title=" ">
<polygon fill="#e0e0e0" stroke="#999999" points="826.25,-82 670,-82 670,-62 826.25,-62 826.25,-82"/>
<text xml:space="preserve" text-anchor="middle" x="748.12" y="-68.5" font-family="Helvetica,sans-Serif" font-size="10.00">CircleIndicatorActor.generated.h</text>
</a>
</g>
</g>
<!-- Node10&#45;&gt;Node12 -->
<g id="edge14_Node000010_Node000012" class="edge">
<title>Node10&#45;&gt;Node12</title>
<g id="a_edge14_Node000010_Node000012"><a xlink:title=" ">
<path fill="none" stroke="#63b8ff" d="M872.91,-123.53C845.41,-112.39 808.65,-97.51 782.16,-86.78"/>
<polygon fill="#63b8ff" stroke="#63b8ff" points="783.47,-83.54 772.89,-83.03 780.85,-90.03 783.47,-83.54"/>
</a>
</g>
</g>
<!-- Node20&#45;&gt;Node3 -->
<g id="edge23_Node000020_Node000003" class="edge">
<title>Node20&#45;&gt;Node3</title>
<g id="a_edge23_Node000020_Node000003"><a xlink:title=" ">
<path fill="none" stroke="#63b8ff" d="M1067.19,-129.53C1061.09,-111.67 1045.25,-73.26 1017.12,-56 950.24,-14.96 715.96,-10.43 611.3,-10.52"/>
<polygon fill="#63b8ff" stroke="#63b8ff" points="611.6,-7.02 601.61,-10.55 611.61,-14.02 611.6,-7.02"/>
</a>
</g>
</g>
<!-- Node20&#45;&gt;Node11 -->
<g id="edge24_Node000020_Node000011" class="edge">
<title>Node20&#45;&gt;Node11</title>
<g id="a_edge24_Node000020_Node000011"><a xlink:title=" ">
<path fill="none" stroke="#63b8ff" d="M1052.22,-129.54C1031.52,-118.61 997.2,-100.5 973,-87.72"/>
<polygon fill="#63b8ff" stroke="#63b8ff" points="974.82,-84.72 964.34,-83.15 971.55,-90.91 974.82,-84.72"/>
</a>
</g>
</g>
<!-- Node21 -->
<g id="Node000021" class="node">
<title>Node21</title>
<g id="a_Node000021"><a xlink:title=" ">
<polygon fill="#e0e0e0" stroke="#999999" points="1157.75,-82 1064.5,-82 1064.5,-62 1157.75,-62 1157.75,-82"/>
<text xml:space="preserve" text-anchor="middle" x="1111.12" y="-68.5" font-family="Helvetica,sans-Serif" font-size="10.00">Rock.generated.h</text>
</a>
</g>
</g>
<!-- Node20&#45;&gt;Node21 -->
<g id="edge25_Node000020_Node000021" class="edge">
<title>Node20&#45;&gt;Node21</title>
<g id="a_edge25_Node000020_Node000021"><a xlink:title=" ">
<path fill="none" stroke="#63b8ff" d="M1076,-129.54C1082.03,-119.84 1091.58,-104.47 1099.2,-92.2"/>
<polygon fill="#63b8ff" stroke="#63b8ff" points="1102.16,-94.07 1104.46,-83.72 1096.21,-90.37 1102.16,-94.07"/>
</a>
</g>
</g>
</g>
</svg>

<g id="navigator" transform="translate(0 0)" fill="#404254">
  <rect fill="#f2f5e9" fill-opacity="0.5" stroke="#606060" stroke-width=".5" x="0" y="0" width="60" height="60"/>
  <use id="zoomplus" xlink:href="#zoomPlus" x="17" y="9" onmousedown="handleZoom(evt,'in')"/>
  <use id="zoomminus" xlink:href="#zoomMin" x="42" y="9" onmousedown="handleZoom(evt,'out')"/>
  <use id="reset" xlink:href="#resetDef" x="30" y="36" onmousedown="handleReset()"/>
   <use id="arrowup" xlink:href="#arrowUp" x="0" y="0" onmousedown="handlePan(0,-1)"/>
  <use id="arrowright" xlink:href="#arrowRight" x="0" y="0" onmousedown="handlePan(1,0)"/>
  <use id="arrowdown" xlink:href="#arrowDown" x="0" y="0" onmousedown="handlePan(0,1)"/>
  <use id="arrowleft" xlink:href="#arrowLeft" x="0" y="0" onmousedown="handlePan(-1,0)"/>
</g>
<svg viewBox="0 0 15 15" width="100%" height="30px" preserveAspectRatio="xMaxYMin meet">
 <g id="arrow_out" transform="scale(0.3 0.3)">
  <a xlink:href="_gameplay_ability___boss_rock_drop_8cpp__incl_org.svg" target="_base">
   <rect id="button" ry="5" rx="5" y="6" x="6" height="38" width="38"
        fill="#f2f5e9" fill-opacity="0.5" stroke="#606060" stroke-width="1.0"/>
   <path id="arrow"
     d="M 11.500037,31.436501 C 11.940474,20.09759 22.043105,11.32322 32.158766,21.979434 L 37.068811,17.246167 C 37.068811,17.246167 37.088388,32 37.088388,32 L 22.160133,31.978069 C 22.160133,31.978069 26.997745,27.140456 26.997745,27.140456 C 18.528582,18.264221 13.291696,25.230495 11.500037,31.436501 z"
     style="fill:#404040;"/>
  </a>
 </g>
</svg>

<style type='text/css'>
<![CDATA[
[data-mouse-over-selected='false'] { opacity: 0.7; }
[data-mouse-over-selected='true']  { opacity: 1.0; }
]]>
</style>
<script type="application/ecmascript"><![CDATA[
document.addEventListener('DOMContentLoaded', (event) => {
  highlightEdges();
  highlightAdjacentNodes();
});
]]></script>
</svg>
