<?xml version="1.0" encoding="UTF-8" standalone="no"?>
<!DOCTYPE svg PUBLIC "-//W3C//DTD SVG 1.1//EN"
 "http://www.w3.org/Graphics/SVG/1.1/DTD/svg11.dtd">
<!-- Generated by graphviz version 13.1.1 (20250719.2154)
 -->
<!-- Title: C:/Users/user/Perforce/alz7_CobaltbruWorkspace_00/KPT/Source/KPT/Skill/Ability/Trace/GameplayAbility_BossRockDrop.h Pages: 1 -->
<svg width="1061pt" height="268pt"
 viewBox="0.00 0.00 1061.00 268.00" xmlns="http://www.w3.org/2000/svg" xmlns:xlink="http://www.w3.org/1999/xlink">
<g id="graph0" class="graph" transform="scale(1 1) rotate(0) translate(4 264)">
<title>C:/Users/user/Perforce/alz7_CobaltbruWorkspace_00/KPT/Source/KPT/Skill/Ability/Trace/GameplayAbility_BossRockDrop.h</title>
<!-- Node1 -->
<g id="Node000001" class="node">
<title>Node1</title>
<g id="a_Node000001"><a xlink:title=" ">
<polygon fill="#999999" stroke="#666666" points="803.5,-260 655.5,-260 655.5,-192 803.5,-192 803.5,-260"/>
<text xml:space="preserve" text-anchor="start" x="663.5" y="-246.5" font-family="Helvetica,sans-Serif" font-size="10.00">C:/Users/user/Perforce</text>
<text xml:space="preserve" text-anchor="start" x="663.5" y="-234.5" font-family="Helvetica,sans-Serif" font-size="10.00">/alz7_CobaltbruWorkspace</text>
<text xml:space="preserve" text-anchor="start" x="663.5" y="-222.5" font-family="Helvetica,sans-Serif" font-size="10.00">_00/KPT/Source/KPT/Skill</text>
<text xml:space="preserve" text-anchor="start" x="663.5" y="-210.5" font-family="Helvetica,sans-Serif" font-size="10.00">/Ability/Trace/GameplayAbility</text>
<text xml:space="preserve" text-anchor="middle" x="729.5" y="-198.5" font-family="Helvetica,sans-Serif" font-size="10.00">_BossRockDrop.h</text>
</a>
</g>
</g>
<!-- Node2 -->
<g id="Node000002" class="node">
<title>Node2</title>
<g id="a_Node000002"><a xlink:title=" ">
<polygon fill="#e0e0e0" stroke="#999999" points="665,-20 586,-20 586,0 665,0 665,-20"/>
<text xml:space="preserve" text-anchor="middle" x="625.5" y="-6.5" font-family="Helvetica,sans-Serif" font-size="10.00">CoreMinimal.h</text>
</a>
</g>
</g>
<!-- Node1&#45;&gt;Node2 -->
<g id="edge1_Node000001_Node000002" class="edge">
<title>Node1&#45;&gt;Node2</title>
<g id="a_edge1_Node000001_Node000002"><a xlink:title=" ">
<path fill="none" stroke="#63b8ff" d="M691.08,-191.66C680.87,-181.14 670.7,-168.88 663.5,-156 640.82,-115.44 631.29,-60.91 627.6,-31.64"/>
<polygon fill="#63b8ff" stroke="#63b8ff" points="631.11,-31.47 626.5,-21.93 624.15,-32.26 631.11,-31.47"/>
</a>
</g>
</g>
<!-- Node3 -->
<g id="Node000003" class="node">
<title>Node3</title>
<g id="a_Node000003"><a xlink:href="_gameplay_ability___trace_base_8h.html" target="_top" xlink:title=" ">
<polygon fill="white" stroke="#666666" points="557,-156 406,-156 406,-124 557,-124 557,-156"/>
<text xml:space="preserve" text-anchor="start" x="414" y="-142.5" font-family="Helvetica,sans-Serif" font-size="10.00">Skill/Ability/Trace</text>
<text xml:space="preserve" text-anchor="middle" x="481.5" y="-130.5" font-family="Helvetica,sans-Serif" font-size="10.00">/GameplayAbility_TraceBase.h</text>
</a>
</g>
</g>
<!-- Node1&#45;&gt;Node3 -->
<g id="edge2_Node000001_Node000003" class="edge">
<title>Node1&#45;&gt;Node3</title>
<g id="a_edge2_Node000001_Node000003"><a xlink:title=" ">
<path fill="none" stroke="#63b8ff" d="M655.09,-199.8C617.5,-187.06 572.63,-171.87 537.92,-160.11"/>
<polygon fill="#63b8ff" stroke="#63b8ff" points="539.06,-156.8 528.47,-156.91 536.81,-163.43 539.06,-156.8"/>
</a>
</g>
</g>
<!-- Node9 -->
<g id="Node000009" class="node">
<title>Node9</title>
<g id="a_Node000009"><a xlink:href="_circle_indicator_actor_8h.html" target="_top" xlink:title=" ">
<polygon fill="white" stroke="#666666" points="786.25,-156 672.75,-156 672.75,-124 786.25,-124 786.25,-156"/>
<text xml:space="preserve" text-anchor="start" x="680.75" y="-142.5" font-family="Helvetica,sans-Serif" font-size="10.00">Skill/Ability/Indicator</text>
<text xml:space="preserve" text-anchor="middle" x="729.5" y="-130.5" font-family="Helvetica,sans-Serif" font-size="10.00">/CircleIndicatorActor.h</text>
</a>
</g>
</g>
<!-- Node1&#45;&gt;Node9 -->
<g id="edge10_Node000001_Node000009" class="edge">
<title>Node1&#45;&gt;Node9</title>
<g id="a_edge10_Node000001_Node000009"><a xlink:title=" ">
<path fill="none" stroke="#63b8ff" d="M729.5,-191.8C729.5,-183.74 729.5,-175.22 729.5,-167.51"/>
<polygon fill="#63b8ff" stroke="#63b8ff" points="733,-167.76 729.5,-157.76 726,-167.76 733,-167.76"/>
</a>
</g>
</g>
<!-- Node12 -->
<g id="Node000012" class="node">
<title>Node12</title>
<g id="a_Node000012"><a xlink:title=" ">
<polygon fill="#e0e0e0" stroke="#999999" points="896.38,-150 804.62,-150 804.62,-130 896.38,-130 896.38,-150"/>
<text xml:space="preserve" text-anchor="middle" x="850.5" y="-136.5" font-family="Helvetica,sans-Serif" font-size="10.00">NiagaraSystem.h</text>
</a>
</g>
</g>
<!-- Node1&#45;&gt;Node12 -->
<g id="edge14_Node000001_Node000012" class="edge">
<title>Node1&#45;&gt;Node12</title>
<g id="a_edge14_Node000001_Node000012"><a xlink:title=" ">
<path fill="none" stroke="#63b8ff" d="M777.67,-191.56C794.85,-179.63 813.42,-166.74 827.51,-156.96"/>
<polygon fill="#63b8ff" stroke="#63b8ff" points="829.43,-159.89 835.65,-151.31 825.44,-154.14 829.43,-159.89"/>
</a>
</g>
</g>
<!-- Node13 -->
<g id="Node000013" class="node">
<title>Node13</title>
<g id="a_Node000013"><a xlink:title=" ">
<polygon fill="#e0e0e0" stroke="#999999" points="1052.62,-156 914.38,-156 914.38,-124 1052.62,-124 1052.62,-156"/>
<text xml:space="preserve" text-anchor="start" x="922.38" y="-142.5" font-family="Helvetica,sans-Serif" font-size="10.00">GameplayAbility_BossRock</text>
<text xml:space="preserve" text-anchor="middle" x="983.5" y="-130.5" font-family="Helvetica,sans-Serif" font-size="10.00">Drop.generated.h</text>
</a>
</g>
</g>
<!-- Node1&#45;&gt;Node13 -->
<g id="edge15_Node000001_Node000013" class="edge">
<title>Node1&#45;&gt;Node13</title>
<g id="a_edge15_Node000001_Node000013"><a xlink:title=" ">
<path fill="none" stroke="#63b8ff" d="M803.99,-200.36C842.99,-187.47 890.01,-171.92 926.15,-159.97"/>
<polygon fill="#63b8ff" stroke="#63b8ff" points="927.16,-163.32 935.55,-156.86 924.96,-156.67 927.16,-163.32"/>
</a>
</g>
</g>
<!-- Node3&#45;&gt;Node2 -->
<g id="edge3_Node000003_Node000002" class="edge">
<title>Node3&#45;&gt;Node2</title>
<g id="a_edge3_Node000003_Node000002"><a xlink:title=" ">
<path fill="none" stroke="#63b8ff" d="M530.03,-123.58C549.72,-115.44 571.54,-103.8 587.5,-88 603.44,-72.22 613.77,-48.38 619.58,-31.42"/>
<polygon fill="#63b8ff" stroke="#63b8ff" points="622.9,-32.52 622.57,-21.94 616.22,-30.42 622.9,-32.52"/>
</a>
</g>
</g>
<!-- Node4 -->
<g id="Node000004" class="node">
<title>Node4</title>
<g id="a_Node000004"><a xlink:title=" ">
<polygon fill="#e0e0e0" stroke="#999999" points="366.62,-82 234.38,-82 234.38,-62 366.62,-62 366.62,-82"/>
<text xml:space="preserve" text-anchor="middle" x="300.5" y="-68.5" font-family="Helvetica,sans-Serif" font-size="10.00">Abilities/GameplayAbility.h</text>
</a>
</g>
</g>
<!-- Node3&#45;&gt;Node4 -->
<g id="edge4_Node000003_Node000004" class="edge">
<title>Node3&#45;&gt;Node4</title>
<g id="a_edge4_Node000003_Node000004"><a xlink:title=" ">
<path fill="none" stroke="#63b8ff" d="M439.06,-123.53C408.12,-112.24 366.61,-97.11 337.11,-86.35"/>
<polygon fill="#63b8ff" stroke="#63b8ff" points="338.46,-83.12 327.87,-82.98 336.06,-89.69 338.46,-83.12"/>
</a>
</g>
</g>
<!-- Node5 -->
<g id="Node000005" class="node">
<title>Node5</title>
<g id="a_Node000005"><a xlink:href="_ability_task___trace_8h.html" target="_top" xlink:title=" ">
<polygon fill="white" stroke="#666666" points="216.25,-88 84.75,-88 84.75,-56 216.25,-56 216.25,-88"/>
<text xml:space="preserve" text-anchor="start" x="92.75" y="-74.5" font-family="Helvetica,sans-Serif" font-size="10.00">AI/Boss/Abilities/Ability</text>
<text xml:space="preserve" text-anchor="middle" x="150.5" y="-62.5" font-family="Helvetica,sans-Serif" font-size="10.00">Tasks/AbilityTask_Trace.h</text>
</a>
</g>
</g>
<!-- Node3&#45;&gt;Node5 -->
<g id="edge5_Node000003_Node000005" class="edge">
<title>Node3&#45;&gt;Node5</title>
<g id="a_edge5_Node000003_Node000005"><a xlink:title=" ">
<path fill="none" stroke="#63b8ff" d="M405.61,-123.9C357.35,-114.29 293.24,-101.52 227.37,-88.37"/>
<polygon fill="#63b8ff" stroke="#63b8ff" points="228.33,-84.99 217.83,-86.47 226.96,-91.86 228.33,-84.99"/>
</a>
</g>
</g>
<!-- Node8 -->
<g id="Node000008" class="node">
<title>Node8</title>
<g id="a_Node000008"><a xlink:title=" ">
<polygon fill="#e0e0e0" stroke="#999999" points="578.38,-82 384.62,-82 384.62,-62 578.38,-62 578.38,-82"/>
<text xml:space="preserve" text-anchor="middle" x="481.5" y="-68.5" font-family="Helvetica,sans-Serif" font-size="10.00">GameplayAbility_TraceBase.generated.h</text>
</a>
</g>
</g>
<!-- Node3&#45;&gt;Node8 -->
<g id="edge9_Node000003_Node000008" class="edge">
<title>Node3&#45;&gt;Node8</title>
<g id="a_edge9_Node000003_Node000008"><a xlink:title=" ">
<path fill="none" stroke="#63b8ff" d="M481.5,-123.69C481.5,-114.8 481.5,-103.46 481.5,-93.77"/>
<polygon fill="#63b8ff" stroke="#63b8ff" points="485,-93.83 481.5,-83.83 478,-93.83 485,-93.83"/>
</a>
</g>
</g>
<!-- Node5&#45;&gt;Node2 -->
<g id="edge6_Node000005_Node000002" class="edge">
<title>Node5&#45;&gt;Node2</title>
<g id="a_edge6_Node000005_Node000002"><a xlink:title=" ">
<path fill="none" stroke="#63b8ff" d="M216.7,-57.44C219.67,-56.93 222.61,-56.45 225.5,-56 350.29,-36.54 498.23,-22.13 574.45,-15.34"/>
<polygon fill="#63b8ff" stroke="#63b8ff" points="574.45,-18.85 584.1,-14.48 573.83,-11.88 574.45,-18.85"/>
</a>
</g>
</g>
<!-- Node6 -->
<g id="Node000006" class="node">
<title>Node6</title>
<g id="a_Node000006"><a xlink:title=" ">
<polygon fill="#e0e0e0" stroke="#999999" points="139,-20 0,-20 0,0 139,0 139,-20"/>
<text xml:space="preserve" text-anchor="middle" x="69.5" y="-6.5" font-family="Helvetica,sans-Serif" font-size="10.00">Abilities/Tasks/AbilityTask.h</text>
</a>
</g>
</g>
<!-- Node5&#45;&gt;Node6 -->
<g id="edge7_Node000005_Node000006" class="edge">
<title>Node5&#45;&gt;Node6</title>
<g id="a_edge7_Node000005_Node000006"><a xlink:title=" ">
<path fill="none" stroke="#63b8ff" d="M129.64,-55.55C117.92,-46.87 103.31,-36.04 91.42,-27.24"/>
<polygon fill="#63b8ff" stroke="#63b8ff" points="93.54,-24.45 83.42,-21.31 89.37,-30.07 93.54,-24.45"/>
</a>
</g>
</g>
<!-- Node7 -->
<g id="Node000007" class="node">
<title>Node7</title>
<g id="a_Node000007"><a xlink:title=" ">
<polygon fill="#e0e0e0" stroke="#999999" points="305.5,-20 157.5,-20 157.5,0 305.5,0 305.5,-20"/>
<text xml:space="preserve" text-anchor="middle" x="231.5" y="-6.5" font-family="Helvetica,sans-Serif" font-size="10.00">AbilityTask_Trace.generated.h</text>
</a>
</g>
</g>
<!-- Node5&#45;&gt;Node7 -->
<g id="edge8_Node000005_Node000007" class="edge">
<title>Node5&#45;&gt;Node7</title>
<g id="a_edge8_Node000005_Node000007"><a xlink:title=" ">
<path fill="none" stroke="#63b8ff" d="M171.36,-55.55C183.08,-46.87 197.69,-36.04 209.58,-27.24"/>
<polygon fill="#63b8ff" stroke="#63b8ff" points="211.63,-30.07 217.58,-21.31 207.46,-24.45 211.63,-30.07"/>
</a>
</g>
</g>
<!-- Node9&#45;&gt;Node2 -->
<g id="edge11_Node000009_Node000002" class="edge">
<title>Node9&#45;&gt;Node2</title>
<g id="a_edge11_Node000009_Node000002"><a xlink:title=" ">
<path fill="none" stroke="#63b8ff" d="M716.96,-123.56C697.69,-99.85 660.88,-54.55 640.33,-29.25"/>
<polygon fill="#63b8ff" stroke="#63b8ff" points="643.05,-27.06 634.03,-21.5 637.62,-31.47 643.05,-27.06"/>
</a>
</g>
</g>
<!-- Node10 -->
<g id="Node000010" class="node">
<title>Node10</title>
<g id="a_Node000010"><a xlink:title=" ">
<polygon fill="#e0e0e0" stroke="#999999" points="1010.25,-82 884.75,-82 884.75,-62 1010.25,-62 1010.25,-82"/>
<text xml:space="preserve" text-anchor="middle" x="947.5" y="-68.5" font-family="Helvetica,sans-Serif" font-size="10.00">GameFramework/Actor.h</text>
</a>
</g>
</g>
<!-- Node9&#45;&gt;Node10 -->
<g id="edge12_Node000009_Node000010" class="edge">
<title>Node9&#45;&gt;Node10</title>
<g id="a_edge12_Node000009_Node000010"><a xlink:title=" ">
<path fill="none" stroke="#63b8ff" d="M780.61,-123.53C818.54,-112.04 869.64,-96.57 905.27,-85.79"/>
<polygon fill="#63b8ff" stroke="#63b8ff" points="906.25,-89.15 914.8,-82.9 904.22,-82.45 906.25,-89.15"/>
</a>
</g>
</g>
<!-- Node11 -->
<g id="Node000011" class="node">
<title>Node11</title>
<g id="a_Node000011"><a xlink:title=" ">
<polygon fill="#e0e0e0" stroke="#999999" points="866.62,-82 710.38,-82 710.38,-62 866.62,-62 866.62,-82"/>
<text xml:space="preserve" text-anchor="middle" x="788.5" y="-68.5" font-family="Helvetica,sans-Serif" font-size="10.00">CircleIndicatorActor.generated.h</text>
</a>
</g>
</g>
<!-- Node9&#45;&gt;Node11 -->
<g id="edge13_Node000009_Node000011" class="edge">
<title>Node9&#45;&gt;Node11</title>
<g id="a_edge13_Node000009_Node000011"><a xlink:title=" ">
<path fill="none" stroke="#63b8ff" d="M743.18,-123.69C751.94,-113.9 763.34,-101.15 772.51,-90.89"/>
<polygon fill="#63b8ff" stroke="#63b8ff" points="775.11,-93.23 779.16,-83.44 769.89,-88.57 775.11,-93.23"/>
</a>
</g>
</g>
</g>
</svg>
