<?xml version="1.0" encoding="UTF-8" standalone="no"?>
<!DOCTYPE svg PUBLIC "-//W3C//DTD SVG 1.1//EN"
 "http://www.w3.org/Graphics/SVG/1.1/DTD/svg11.dtd">
<!-- Generated by graphviz version 13.1.1 (20250719.2154)
 -->
<!-- Title: C:/Users/user/Perforce/alz7_CobaltbruWorkspace_00/KPT/Source/KPT/Data/GameStructs.h Pages: 1 -->
<!--zoomable 364 -->

<svg id="main" version="1.1" xmlns="http://www.w3.org/2000/svg" xmlns:xlink="http://www.w3.org/1999/xlink" xml:space="preserve" onload="init(evt)">

<style type="text/css"><![CDATA[
.node, .edge {opacity: 0.7;}
.node.selected, .edge.selected {opacity: 1;}
.edge:hover path { stroke: red; }
.edge:hover polygon { stroke: red; fill: red; }
]]></style>

<defs>
  <circle id="rim" cx="0" cy="0" r="7"/>
  <circle id="rim2" cx="0" cy="0" r="3.5"/>
  <g id="zoomPlus">
    <use xlink:href="#rim" fill="#404040"><set attributeName="fill" to="#808080" begin="zoomplus.mouseover" end="zoomplus.mouseout"/></use>
    <path d="M-4,0h8M0,-4v8" fill="none" stroke="white" stroke-width="1.5" pointer-events="none"/>
  </g>
  <g id="zoomMin">
    <use xlink:href="#rim" fill="#404040"><set attributeName="fill" to="#808080" begin="zoomminus.mouseover" end="zoomminus.mouseout"/></use>
    <path d="M-4,0h8" fill="none" stroke="white" stroke-width="1.5" pointer-events="none"/>
  </g>
  <g id="arrowUp" transform="translate(30 24)">
    <use xlink:href="#rim"/>
    <path pointer-events="none" fill="none" stroke="white" stroke-width="1.5" d="M0,-3.0v7 M-2.5,-0.5L0,-3.0L2.5,-0.5"/>
  </g>
  <g id="arrowRight" transform="rotate(90) translate(36 -43)">
    <use xlink:href="#rim"/>
    <path pointer-events="none" fill="none" stroke="white" stroke-width="1.5" d="M0,-3.0v7 M-2.5,-0.5L0,-3.0L2.5,-0.5"/>
  </g>
  <g id="arrowDown" transform="rotate(180) translate(-30 -48)">
    <use xlink:href="#rim"/>
    <path pointer-events="none" fill="none" stroke="white" stroke-width="1.5" d="M0,-3.0v7 M-2.5,-0.5L0,-3.0L2.5,-0.5"/>
  </g>
  <g id="arrowLeft" transform="rotate(270) translate(-36 17)">
    <use xlink:href="#rim"/>
    <path pointer-events="none" fill="none" stroke="white" stroke-width="1.5" d="M0,-3.0v7 M-2.5,-0.5L0,-3.0L2.5,-0.5"/>
  </g>
  <g id="resetDef">
    <use xlink:href="#rim2" fill="#404040"><set attributeName="fill" to="#808080" begin="reset.mouseover" end="reset.mouseout"/></use>
  </g>
</defs>
<script type="application/ecmascript">
var viewWidth = 1444;
var viewHeight = 364;
var sectionId = 'dynsection-1';
</script>
<script type="application/ecmascript" xlink:href="svg.min.js"/>
<svg id="graph" class="graph">
<g id="viewport">
<title>C:/Users/user/Perforce/alz7_CobaltbruWorkspace_00/KPT/Source/KPT/Data/GameStructs.h</title>
<!-- Node1 -->
<g id="Node000001" class="node">
<title>Node1</title>
<g id="a_Node000001"><a xlink:title=" ">
<polygon fill="#999999" stroke="#666666" points="621.62,-356 487.12,-356 487.12,-300 621.62,-300 621.62,-356"/>
<text xml:space="preserve" text-anchor="start" x="495.12" y="-342.5" font-family="Helvetica,sans-Serif" font-size="10.00">C:/Users/user/Perforce</text>
<text xml:space="preserve" text-anchor="start" x="495.12" y="-330.5" font-family="Helvetica,sans-Serif" font-size="10.00">/alz7_CobaltbruWorkspace</text>
<text xml:space="preserve" text-anchor="start" x="495.12" y="-318.5" font-family="Helvetica,sans-Serif" font-size="10.00">_00/KPT/Source/KPT/Data</text>
<text xml:space="preserve" text-anchor="middle" x="554.38" y="-306.5" font-family="Helvetica,sans-Serif" font-size="10.00">/GameStructs.h</text>
</a>
</g>
</g>
<!-- Node2 -->
<g id="Node000002" class="node">
<title>Node2</title>
<g id="a_Node000002"><a xlink:href="_player_reward_state_component_8cpp.html" target="_top" xlink:title=" ">
<polygon fill="white" stroke="#666666" points="172.75,-264 0,-264 0,-196 172.75,-196 172.75,-264"/>
<text xml:space="preserve" text-anchor="start" x="8" y="-250.5" font-family="Helvetica,sans-Serif" font-size="10.00">C:/Users/user/Perforce</text>
<text xml:space="preserve" text-anchor="start" x="8" y="-238.5" font-family="Helvetica,sans-Serif" font-size="10.00">/alz7_CobaltbruWorkspace</text>
<text xml:space="preserve" text-anchor="start" x="8" y="-226.5" font-family="Helvetica,sans-Serif" font-size="10.00">_00/KPT/Source/KPT/Core</text>
<text xml:space="preserve" text-anchor="start" x="8" y="-214.5" font-family="Helvetica,sans-Serif" font-size="10.00">/Component/LevelUpReward</text>
<text xml:space="preserve" text-anchor="middle" x="86.38" y="-202.5" font-family="Helvetica,sans-Serif" font-size="10.00">/PlayerRewardStateComponent.cpp</text>
</a>
</g>
</g>
<!-- Node1&#45;&gt;Node2 -->
<g id="edge1_Node000001_Node000002" class="edge">
<title>Node1&#45;&gt;Node2</title>
<g id="a_edge1_Node000001_Node000002"><a xlink:title=" ">
<path fill="none" stroke="#63b8ff" d="M475.48,-317.45C399.64,-307.37 282.15,-289.42 182.38,-264 179.3,-263.22 176.18,-262.38 173.05,-261.5"/>
<polygon fill="#63b8ff" stroke="#63b8ff" points="474.95,-320.91 485.32,-318.74 475.86,-313.97 474.95,-320.91"/>
</a>
</g>
</g>
<!-- Node3 -->
<g id="Node000003" class="node">
<title>Node3</title>
<g id="a_Node000003"><a xlink:href="_k_p_t_lobby_game_mode_8cpp.html" target="_top" xlink:title=" ">
<polygon fill="white" stroke="#666666" points="325.62,-258 191.12,-258 191.12,-202 325.62,-202 325.62,-258"/>
<text xml:space="preserve" text-anchor="start" x="199.12" y="-244.5" font-family="Helvetica,sans-Serif" font-size="10.00">C:/Users/user/Perforce</text>
<text xml:space="preserve" text-anchor="start" x="199.12" y="-232.5" font-family="Helvetica,sans-Serif" font-size="10.00">/alz7_CobaltbruWorkspace</text>
<text xml:space="preserve" text-anchor="start" x="199.12" y="-220.5" font-family="Helvetica,sans-Serif" font-size="10.00">_00/KPT/Source/KPT/Core</text>
<text xml:space="preserve" text-anchor="middle" x="258.38" y="-208.5" font-family="Helvetica,sans-Serif" font-size="10.00">/KPTLobbyGameMode.cpp</text>
</a>
</g>
</g>
<!-- Node1&#45;&gt;Node3 -->
<g id="edge2_Node000001_Node000003" class="edge">
<title>Node1&#45;&gt;Node3</title>
<g id="a_edge2_Node000001_Node000003"><a xlink:title=" ">
<path fill="none" stroke="#63b8ff" d="M475.66,-307.14C433.36,-295.8 380.55,-280.56 334.38,-264 329.5,-262.25 324.49,-260.34 319.49,-258.35"/>
<polygon fill="#63b8ff" stroke="#63b8ff" points="474.71,-310.51 485.28,-309.7 476.51,-303.74 474.71,-310.51"/>
</a>
</g>
</g>
<!-- Node4 -->
<g id="Node000004" class="node">
<title>Node4</title>
<g id="a_Node000004"><a xlink:href="_reward_manager_subsystem_8h.html" target="_top" xlink:title=" ">
<polygon fill="white" stroke="#666666" points="545.38,-258 343.38,-258 343.38,-202 545.38,-202 545.38,-258"/>
<text xml:space="preserve" text-anchor="start" x="351.38" y="-244.5" font-family="Helvetica,sans-Serif" font-size="10.00">C:/Users/user/Perforce</text>
<text xml:space="preserve" text-anchor="start" x="351.38" y="-232.5" font-family="Helvetica,sans-Serif" font-size="10.00">/alz7_CobaltbruWorkspace</text>
<text xml:space="preserve" text-anchor="start" x="351.38" y="-220.5" font-family="Helvetica,sans-Serif" font-size="10.00">_00/KPT/Source/KPT/Core</text>
<text xml:space="preserve" text-anchor="middle" x="444.38" y="-208.5" font-family="Helvetica,sans-Serif" font-size="10.00">/SubSystem/RewardManagerSubsystem.h</text>
</a>
</g>
</g>
<!-- Node1&#45;&gt;Node4 -->
<g id="edge3_Node000001_Node000004" class="edge">
<title>Node1&#45;&gt;Node4</title>
<g id="a_edge3_Node000001_Node000004"><a xlink:title=" ">
<path fill="none" stroke="#63b8ff" d="M514.52,-292.22C501.74,-281.06 487.76,-268.87 475.68,-258.32"/>
<polygon fill="#63b8ff" stroke="#63b8ff" points="512.17,-294.81 522.01,-298.75 516.77,-289.54 512.17,-294.81"/>
</a>
</g>
</g>
<!-- Node8 -->
<g id="Node000008" class="node">
<title>Node8</title>
<g id="a_Node000008"><a xlink:href="_shop_manager_subsystem_8cpp.html" target="_top" xlink:title=" ">
<polygon fill="white" stroke="#666666" points="765,-258 563.75,-258 563.75,-202 765,-202 765,-258"/>
<text xml:space="preserve" text-anchor="start" x="571.75" y="-244.5" font-family="Helvetica,sans-Serif" font-size="10.00">C:/Users/user/Perforce</text>
<text xml:space="preserve" text-anchor="start" x="571.75" y="-232.5" font-family="Helvetica,sans-Serif" font-size="10.00">/alz7_CobaltbruWorkspace</text>
<text xml:space="preserve" text-anchor="start" x="571.75" y="-220.5" font-family="Helvetica,sans-Serif" font-size="10.00">_00/KPT/Source/KPT/Core</text>
<text xml:space="preserve" text-anchor="middle" x="664.38" y="-208.5" font-family="Helvetica,sans-Serif" font-size="10.00">/SubSystem/ShopManagerSubsystem.cpp</text>
</a>
</g>
</g>
<!-- Node1&#45;&gt;Node8 -->
<g id="edge7_Node000001_Node000008" class="edge">
<title>Node1&#45;&gt;Node8</title>
<g id="a_edge7_Node000001_Node000008"><a xlink:title=" ">
<path fill="none" stroke="#63b8ff" d="M594.23,-292.22C607.01,-281.06 620.99,-268.87 633.07,-258.32"/>
<polygon fill="#63b8ff" stroke="#63b8ff" points="591.98,-289.54 586.74,-298.75 596.58,-294.81 591.98,-289.54"/>
</a>
</g>
</g>
<!-- Node9 -->
<g id="Node000009" class="node">
<title>Node9</title>
<g id="a_Node000009"><a xlink:href="_skill_buff_data_8h.html" target="_top" xlink:title=" ">
<polygon fill="white" stroke="#666666" points="915.88,-258 782.88,-258 782.88,-202 915.88,-202 915.88,-258"/>
<text xml:space="preserve" text-anchor="start" x="790.88" y="-244.5" font-family="Helvetica,sans-Serif" font-size="10.00">C:/Users/user/Perforce</text>
<text xml:space="preserve" text-anchor="start" x="790.88" y="-232.5" font-family="Helvetica,sans-Serif" font-size="10.00">/alz7_CobaltbruWorkspace</text>
<text xml:space="preserve" text-anchor="start" x="790.88" y="-220.5" font-family="Helvetica,sans-Serif" font-size="10.00">_00/KPT/Source/KPT/Skill</text>
<text xml:space="preserve" text-anchor="middle" x="849.38" y="-208.5" font-family="Helvetica,sans-Serif" font-size="10.00">/Data/SkillBuffData.h</text>
</a>
</g>
</g>
<!-- Node1&#45;&gt;Node9 -->
<g id="edge8_Node000001_Node000009" class="edge">
<title>Node1&#45;&gt;Node9</title>
<g id="a_edge8_Node000001_Node000009"><a xlink:title=" ">
<path fill="none" stroke="#63b8ff" d="M633.12,-307.23C675.43,-295.91 728.24,-280.67 774.38,-264 779.19,-262.26 784.14,-260.36 789.08,-258.37"/>
<polygon fill="#63b8ff" stroke="#63b8ff" points="632.27,-303.83 623.5,-309.78 634.07,-310.6 632.27,-303.83"/>
</a>
</g>
</g>
<!-- Node16 -->
<g id="Node000016" class="node">
<title>Node16</title>
<g id="a_Node000016"><a xlink:href="_skill_slot_u_i_8h.html" target="_top" xlink:title=" ">
<polygon fill="white" stroke="#666666" points="1210.25,-258 1064.5,-258 1064.5,-202 1210.25,-202 1210.25,-258"/>
<text xml:space="preserve" text-anchor="start" x="1072.5" y="-244.5" font-family="Helvetica,sans-Serif" font-size="10.00">C:/Users/user/Perforce</text>
<text xml:space="preserve" text-anchor="start" x="1072.5" y="-232.5" font-family="Helvetica,sans-Serif" font-size="10.00">/alz7_CobaltbruWorkspace</text>
<text xml:space="preserve" text-anchor="start" x="1072.5" y="-220.5" font-family="Helvetica,sans-Serif" font-size="10.00">_00/KPT/Source/KPT/UI/Skill</text>
<text xml:space="preserve" text-anchor="middle" x="1137.38" y="-208.5" font-family="Helvetica,sans-Serif" font-size="10.00">/SkillSlotUI.h</text>
</a>
</g>
</g>
<!-- Node1&#45;&gt;Node16 -->
<g id="edge16_Node000001_Node000016" class="edge">
<title>Node1&#45;&gt;Node16</title>
<g id="a_edge16_Node000001_Node000016"><a xlink:title=" ">
<path fill="none" stroke="#63b8ff" d="M633.45,-313.98C746.88,-295.3 954.19,-261.16 1064.23,-243.04"/>
<polygon fill="#63b8ff" stroke="#63b8ff" points="632.9,-310.52 623.6,-315.6 634.04,-317.43 632.9,-310.52"/>
</a>
</g>
</g>
<!-- Node5 -->
<g id="Node000005" class="node">
<title>Node5</title>
<g id="a_Node000005"><a xlink:href="_reward_interactor_component_8cpp.html" target="_top" xlink:title=" ">
<polygon fill="white" stroke="#666666" points="345.88,-160 182.88,-160 182.88,-92 345.88,-92 345.88,-160"/>
<text xml:space="preserve" text-anchor="start" x="190.88" y="-146.5" font-family="Helvetica,sans-Serif" font-size="10.00">C:/Users/user/Perforce</text>
<text xml:space="preserve" text-anchor="start" x="190.88" y="-134.5" font-family="Helvetica,sans-Serif" font-size="10.00">/alz7_CobaltbruWorkspace</text>
<text xml:space="preserve" text-anchor="start" x="190.88" y="-122.5" font-family="Helvetica,sans-Serif" font-size="10.00">_00/KPT/Source/KPT/Core</text>
<text xml:space="preserve" text-anchor="start" x="190.88" y="-110.5" font-family="Helvetica,sans-Serif" font-size="10.00">/Component/LevelUpReward</text>
<text xml:space="preserve" text-anchor="middle" x="264.38" y="-98.5" font-family="Helvetica,sans-Serif" font-size="10.00">/RewardInteractorComponent.cpp</text>
</a>
</g>
</g>
<!-- Node4&#45;&gt;Node5 -->
<g id="edge4_Node000004_Node000005" class="edge">
<title>Node4&#45;&gt;Node5</title>
<g id="a_edge4_Node000004_Node000005"><a xlink:title=" ">
<path fill="none" stroke="#63b8ff" d="M386.18,-196.02C366.06,-184.62 343.52,-171.85 323.35,-160.42"/>
<polygon fill="#63b8ff" stroke="#63b8ff" points="384.4,-199.03 394.82,-200.92 387.85,-192.94 384.4,-199.03"/>
</a>
</g>
</g>
<!-- Node6 -->
<g id="Node000006" class="node">
<title>Node6</title>
<g id="a_Node000006"><a xlink:href="_k_p_t_in_game_mode_8cpp.html" target="_top" xlink:title=" ">
<polygon fill="white" stroke="#666666" points="498.62,-154 364.12,-154 364.12,-98 498.62,-98 498.62,-154"/>
<text xml:space="preserve" text-anchor="start" x="372.12" y="-140.5" font-family="Helvetica,sans-Serif" font-size="10.00">C:/Users/user/Perforce</text>
<text xml:space="preserve" text-anchor="start" x="372.12" y="-128.5" font-family="Helvetica,sans-Serif" font-size="10.00">/alz7_CobaltbruWorkspace</text>
<text xml:space="preserve" text-anchor="start" x="372.12" y="-116.5" font-family="Helvetica,sans-Serif" font-size="10.00">_00/KPT/Source/KPT/Core</text>
<text xml:space="preserve" text-anchor="middle" x="431.38" y="-104.5" font-family="Helvetica,sans-Serif" font-size="10.00">/KPTInGameMode.cpp</text>
</a>
</g>
</g>
<!-- Node4&#45;&gt;Node6 -->
<g id="edge5_Node000004_Node000006" class="edge">
<title>Node4&#45;&gt;Node6</title>
<g id="a_edge5_Node000004_Node000006"><a xlink:title=" ">
<path fill="none" stroke="#63b8ff" d="M439.47,-190.54C437.94,-178.52 436.28,-165.51 434.87,-154.41"/>
<polygon fill="#63b8ff" stroke="#63b8ff" points="435.96,-190.69 440.7,-200.16 442.91,-189.8 435.96,-190.69"/>
</a>
</g>
</g>
<!-- Node7 -->
<g id="Node000007" class="node">
<title>Node7</title>
<g id="a_Node000007"><a xlink:href="_reward_manager_subsystem_8cpp.html" target="_top" xlink:title=" ">
<polygon fill="white" stroke="#666666" points="619.62,-56 407.12,-56 407.12,0 619.62,0 619.62,-56"/>
<text xml:space="preserve" text-anchor="start" x="415.12" y="-42.5" font-family="Helvetica,sans-Serif" font-size="10.00">C:/Users/user/Perforce</text>
<text xml:space="preserve" text-anchor="start" x="415.12" y="-30.5" font-family="Helvetica,sans-Serif" font-size="10.00">/alz7_CobaltbruWorkspace</text>
<text xml:space="preserve" text-anchor="start" x="415.12" y="-18.5" font-family="Helvetica,sans-Serif" font-size="10.00">_00/KPT/Source/KPT/Core</text>
<text xml:space="preserve" text-anchor="middle" x="513.38" y="-6.5" font-family="Helvetica,sans-Serif" font-size="10.00">/SubSystem/RewardManagerSubsystem.cpp</text>
</a>
</g>
</g>
<!-- Node4&#45;&gt;Node7 -->
<g id="edge6_Node000004_Node000007" class="edge">
<title>Node4&#45;&gt;Node7</title>
<g id="a_edge6_Node000004_Node000007"><a xlink:title=" ">
<path fill="none" stroke="#63b8ff" d="M485.32,-193.45C494.15,-183.56 502.33,-172.17 507.38,-160 521.32,-126.35 520.18,-83.59 517.36,-56.25"/>
<polygon fill="#63b8ff" stroke="#63b8ff" points="482.85,-190.96 478.51,-200.63 487.93,-195.78 482.85,-190.96"/>
</a>
</g>
</g>
<!-- Node10 -->
<g id="Node000010" class="node">
<title>Node10</title>
<g id="a_Node000010"><a xlink:href="_skill_buff_data_8cpp.html" target="_top" xlink:title=" ">
<polygon fill="white" stroke="#666666" points="789.88,-154 656.88,-154 656.88,-98 789.88,-98 789.88,-154"/>
<text xml:space="preserve" text-anchor="start" x="664.88" y="-140.5" font-family="Helvetica,sans-Serif" font-size="10.00">C:/Users/user/Perforce</text>
<text xml:space="preserve" text-anchor="start" x="664.88" y="-128.5" font-family="Helvetica,sans-Serif" font-size="10.00">/alz7_CobaltbruWorkspace</text>
<text xml:space="preserve" text-anchor="start" x="664.88" y="-116.5" font-family="Helvetica,sans-Serif" font-size="10.00">_00/KPT/Source/KPT/Skill</text>
<text xml:space="preserve" text-anchor="middle" x="723.38" y="-104.5" font-family="Helvetica,sans-Serif" font-size="10.00">/Data/SkillBuffData.cpp</text>
</a>
</g>
</g>
<!-- Node9&#45;&gt;Node10 -->
<g id="edge9_Node000009_Node000010" class="edge">
<title>Node9&#45;&gt;Node10</title>
<g id="a_edge9_Node000009_Node000010"><a xlink:title=" ">
<path fill="none" stroke="#63b8ff" d="M806.86,-194.59C790.69,-181.5 772.5,-166.77 757.23,-154.41"/>
<polygon fill="#63b8ff" stroke="#63b8ff" points="804.46,-197.14 814.43,-200.71 808.86,-191.7 804.46,-197.14"/>
</a>
</g>
</g>
<!-- Node11 -->
<g id="Node000011" class="node">
<title>Node11</title>
<g id="a_Node000011"><a xlink:href="_skill_buff_system_statics_8h.html" target="_top" xlink:title=" ">
<polygon fill="white" stroke="#666666" points="940.88,-154 807.88,-154 807.88,-98 940.88,-98 940.88,-154"/>
<text xml:space="preserve" text-anchor="start" x="815.88" y="-140.5" font-family="Helvetica,sans-Serif" font-size="10.00">C:/Users/user/Perforce</text>
<text xml:space="preserve" text-anchor="start" x="815.88" y="-128.5" font-family="Helvetica,sans-Serif" font-size="10.00">/alz7_CobaltbruWorkspace</text>
<text xml:space="preserve" text-anchor="start" x="815.88" y="-116.5" font-family="Helvetica,sans-Serif" font-size="10.00">_00/KPT/Source/KPT/Skill</text>
<text xml:space="preserve" text-anchor="middle" x="874.38" y="-104.5" font-family="Helvetica,sans-Serif" font-size="10.00">/SkillBuffSystemStatics.h</text>
</a>
</g>
</g>
<!-- Node9&#45;&gt;Node11 -->
<g id="edge10_Node000009_Node000011" class="edge">
<title>Node9&#45;&gt;Node11</title>
<g id="a_edge10_Node000009_Node000011"><a xlink:title=" ">
<path fill="none" stroke="#63b8ff" d="M858.8,-190.54C861.75,-178.52 864.94,-165.51 867.66,-154.41"/>
<polygon fill="#63b8ff" stroke="#63b8ff" points="855.42,-189.65 856.43,-200.2 862.21,-191.32 855.42,-189.65"/>
</a>
</g>
</g>
<!-- Node11&#45;&gt;Node7 -->
<g id="edge12_Node000011_Node000007" class="edge">
<title>Node11&#45;&gt;Node7</title>
<g id="a_edge12_Node000011_Node000007"><a xlink:title=" ">
<path fill="none" stroke="#63b8ff" d="M804.23,-93.62C802.6,-93.06 800.98,-92.52 799.38,-92 725.43,-68.23 704.19,-72.88 628.38,-56 625.57,-55.38 622.73,-54.74 619.87,-54.09"/>
<polygon fill="#63b8ff" stroke="#63b8ff" points="803.02,-96.9 813.62,-97.04 805.42,-90.33 803.02,-96.9"/>
</a>
</g>
</g>
<!-- Node12 -->
<g id="Node000012" class="node">
<title>Node12</title>
<g id="a_Node000012"><a xlink:href="_k_p_t_cheat_manager_8cpp.html" target="_top" xlink:title=" ">
<polygon fill="white" stroke="#666666" points="787.5,-56 637.25,-56 637.25,0 787.5,0 787.5,-56"/>
<text xml:space="preserve" text-anchor="start" x="645.25" y="-42.5" font-family="Helvetica,sans-Serif" font-size="10.00">C:/Users/user/Perforce</text>
<text xml:space="preserve" text-anchor="start" x="645.25" y="-30.5" font-family="Helvetica,sans-Serif" font-size="10.00">/alz7_CobaltbruWorkspace</text>
<text xml:space="preserve" text-anchor="start" x="645.25" y="-18.5" font-family="Helvetica,sans-Serif" font-size="10.00">_00/KPT/Source/KPT/Core</text>
<text xml:space="preserve" text-anchor="middle" x="712.38" y="-6.5" font-family="Helvetica,sans-Serif" font-size="10.00">/Cheat/KPTCheatManager.cpp</text>
</a>
</g>
</g>
<!-- Node11&#45;&gt;Node12 -->
<g id="edge11_Node000011_Node000012" class="edge">
<title>Node11&#45;&gt;Node12</title>
<g id="a_edge11_Node000011_Node000012"><a xlink:title=" ">
<path fill="none" stroke="#63b8ff" d="M818.7,-92.01C799.17,-80.43 777.45,-67.56 758.76,-56.49"/>
<polygon fill="#63b8ff" stroke="#63b8ff" points="816.7,-94.89 827.08,-96.98 820.26,-88.87 816.7,-94.89"/>
</a>
</g>
</g>
<!-- Node13 -->
<g id="Node000013" class="node">
<title>Node13</title>
<g id="a_Node000013"><a xlink:href="_skill_buff_system_statics_8cpp.html" target="_top" xlink:title=" ">
<polygon fill="white" stroke="#666666" points="943.5,-56 805.25,-56 805.25,0 943.5,0 943.5,-56"/>
<text xml:space="preserve" text-anchor="start" x="813.25" y="-42.5" font-family="Helvetica,sans-Serif" font-size="10.00">C:/Users/user/Perforce</text>
<text xml:space="preserve" text-anchor="start" x="813.25" y="-30.5" font-family="Helvetica,sans-Serif" font-size="10.00">/alz7_CobaltbruWorkspace</text>
<text xml:space="preserve" text-anchor="start" x="813.25" y="-18.5" font-family="Helvetica,sans-Serif" font-size="10.00">_00/KPT/Source/KPT/Skill</text>
<text xml:space="preserve" text-anchor="middle" x="874.38" y="-6.5" font-family="Helvetica,sans-Serif" font-size="10.00">/SkillBuffSystemStatics.cpp</text>
</a>
</g>
</g>
<!-- Node11&#45;&gt;Node13 -->
<g id="edge13_Node000011_Node000013" class="edge">
<title>Node11&#45;&gt;Node13</title>
<g id="a_edge13_Node000011_Node000013"><a xlink:title=" ">
<path fill="none" stroke="#63b8ff" d="M874.38,-86.32C874.38,-76.27 874.38,-65.65 874.38,-56.32"/>
<polygon fill="#63b8ff" stroke="#63b8ff" points="870.88,-86.23 874.38,-96.23 877.88,-86.23 870.88,-86.23"/>
</a>
</g>
</g>
<!-- Node14 -->
<g id="Node000014" class="node">
<title>Node14</title>
<g id="a_Node000014"><a xlink:href="_skill_manager_component_8cpp.html" target="_top" xlink:title=" ">
<polygon fill="white" stroke="#666666" points="1105.5,-56 961.25,-56 961.25,0 1105.5,0 1105.5,-56"/>
<text xml:space="preserve" text-anchor="start" x="969.25" y="-42.5" font-family="Helvetica,sans-Serif" font-size="10.00">C:/Users/user/Perforce</text>
<text xml:space="preserve" text-anchor="start" x="969.25" y="-30.5" font-family="Helvetica,sans-Serif" font-size="10.00">/alz7_CobaltbruWorkspace</text>
<text xml:space="preserve" text-anchor="start" x="969.25" y="-18.5" font-family="Helvetica,sans-Serif" font-size="10.00">_00/KPT/Source/KPT/Skill</text>
<text xml:space="preserve" text-anchor="middle" x="1033.38" y="-6.5" font-family="Helvetica,sans-Serif" font-size="10.00">/SkillManagerComponent.cpp</text>
</a>
</g>
</g>
<!-- Node11&#45;&gt;Node14 -->
<g id="edge14_Node000011_Node000014" class="edge">
<title>Node11&#45;&gt;Node14</title>
<g id="a_edge14_Node000011_Node000014"><a xlink:title=" ">
<path fill="none" stroke="#63b8ff" d="M929.28,-91.85C948.39,-80.31 969.59,-67.51 987.85,-56.49"/>
<polygon fill="#63b8ff" stroke="#63b8ff" points="927.56,-88.8 920.81,-96.96 931.18,-94.79 927.56,-88.8"/>
</a>
</g>
</g>
<!-- Node15 -->
<g id="Node000015" class="node">
<title>Node15</title>
<g id="a_Node000015"><a xlink:href="_skill_slot_u_i_8cpp.html" target="_top" xlink:title=" ">
<polygon fill="white" stroke="#666666" points="1269.25,-56 1123.5,-56 1123.5,0 1269.25,0 1269.25,-56"/>
<text xml:space="preserve" text-anchor="start" x="1131.5" y="-42.5" font-family="Helvetica,sans-Serif" font-size="10.00">C:/Users/user/Perforce</text>
<text xml:space="preserve" text-anchor="start" x="1131.5" y="-30.5" font-family="Helvetica,sans-Serif" font-size="10.00">/alz7_CobaltbruWorkspace</text>
<text xml:space="preserve" text-anchor="start" x="1131.5" y="-18.5" font-family="Helvetica,sans-Serif" font-size="10.00">_00/KPT/Source/KPT/UI/Skill</text>
<text xml:space="preserve" text-anchor="middle" x="1196.38" y="-6.5" font-family="Helvetica,sans-Serif" font-size="10.00">/SkillSlotUI.cpp</text>
</a>
</g>
</g>
<!-- Node11&#45;&gt;Node15 -->
<g id="edge15_Node000011_Node000015" class="edge">
<title>Node11&#45;&gt;Node15</title>
<g id="a_edge15_Node000011_Node000015"><a xlink:title=" ">
<path fill="none" stroke="#63b8ff" d="M952.34,-103.4C999.4,-90.16 1060.49,-72.61 1114.38,-56 1117.24,-55.12 1120.16,-54.21 1123.1,-53.28"/>
<polygon fill="#63b8ff" stroke="#63b8ff" points="951.44,-100.01 942.76,-106.09 953.34,-106.75 951.44,-100.01"/>
</a>
</g>
</g>
<!-- Node16&#45;&gt;Node15 -->
<g id="edge19_Node000016_Node000015" class="edge">
<title>Node16&#45;&gt;Node15</title>
<g id="a_edge19_Node000016_Node000015"><a xlink:title=" ">
<path fill="none" stroke="#63b8ff" d="M1113.34,-191.62C1098.25,-163.05 1084.54,-123.36 1101.38,-92 1109.24,-77.35 1122.17,-65.53 1135.99,-56.27"/>
<polygon fill="#63b8ff" stroke="#63b8ff" points="1110.25,-193.26 1118.18,-200.29 1116.36,-189.85 1110.25,-193.26"/>
</a>
</g>
</g>
<!-- Node17 -->
<g id="Node000017" class="node">
<title>Node17</title>
<g id="a_Node000017"><a xlink:href="_in_game_h_u_d_8cpp.html" target="_top" xlink:title=" ">
<polygon fill="white" stroke="#666666" points="1272.12,-154 1110.62,-154 1110.62,-98 1272.12,-98 1272.12,-154"/>
<text xml:space="preserve" text-anchor="start" x="1118.62" y="-140.5" font-family="Helvetica,sans-Serif" font-size="10.00">C:/Users/user/Perforce</text>
<text xml:space="preserve" text-anchor="start" x="1118.62" y="-128.5" font-family="Helvetica,sans-Serif" font-size="10.00">/alz7_CobaltbruWorkspace</text>
<text xml:space="preserve" text-anchor="start" x="1118.62" y="-116.5" font-family="Helvetica,sans-Serif" font-size="10.00">_00/KPT/Source/KPT/UI/InGame</text>
<text xml:space="preserve" text-anchor="middle" x="1191.38" y="-104.5" font-family="Helvetica,sans-Serif" font-size="10.00">/InGameHUD.cpp</text>
</a>
</g>
</g>
<!-- Node16&#45;&gt;Node17 -->
<g id="edge17_Node000016_Node000017" class="edge">
<title>Node16&#45;&gt;Node17</title>
<g id="a_edge17_Node000016_Node000017"><a xlink:title=" ">
<path fill="none" stroke="#63b8ff" d="M1157.15,-191.65C1163.67,-179.33 1170.81,-165.85 1176.86,-154.41"/>
<polygon fill="#63b8ff" stroke="#63b8ff" points="1154.14,-189.85 1152.55,-200.33 1160.33,-193.13 1154.14,-189.85"/>
</a>
</g>
</g>
<!-- Node18 -->
<g id="Node000018" class="node">
<title>Node18</title>
<g id="a_Node000018"><a xlink:href="_skill_select_u_i_8cpp.html" target="_top" xlink:title=" ">
<polygon fill="white" stroke="#666666" points="1436.25,-154 1290.5,-154 1290.5,-98 1436.25,-98 1436.25,-154"/>
<text xml:space="preserve" text-anchor="start" x="1298.5" y="-140.5" font-family="Helvetica,sans-Serif" font-size="10.00">C:/Users/user/Perforce</text>
<text xml:space="preserve" text-anchor="start" x="1298.5" y="-128.5" font-family="Helvetica,sans-Serif" font-size="10.00">/alz7_CobaltbruWorkspace</text>
<text xml:space="preserve" text-anchor="start" x="1298.5" y="-116.5" font-family="Helvetica,sans-Serif" font-size="10.00">_00/KPT/Source/KPT/UI/Skill</text>
<text xml:space="preserve" text-anchor="middle" x="1363.38" y="-104.5" font-family="Helvetica,sans-Serif" font-size="10.00">/SkillSelectUI.cpp</text>
</a>
</g>
</g>
<!-- Node16&#45;&gt;Node18 -->
<g id="edge18_Node000016_Node000018" class="edge">
<title>Node16&#45;&gt;Node18</title>
<g id="a_edge18_Node000016_Node000018"><a xlink:title=" ">
<path fill="none" stroke="#63b8ff" d="M1208.72,-196.8C1238.96,-183.15 1273.83,-167.41 1302.8,-154.34"/>
<polygon fill="#63b8ff" stroke="#63b8ff" points="1207.29,-193.61 1199.62,-200.91 1210.17,-199.99 1207.29,-193.61"/>
</a>
</g>
</g>
</g>
</svg>

<g id="navigator" transform="translate(0 0)" fill="#404254">
  <rect fill="#f2f5e9" fill-opacity="0.5" stroke="#606060" stroke-width=".5" x="0" y="0" width="60" height="60"/>
  <use id="zoomplus" xlink:href="#zoomPlus" x="17" y="9" onmousedown="handleZoom(evt,'in')"/>
  <use id="zoomminus" xlink:href="#zoomMin" x="42" y="9" onmousedown="handleZoom(evt,'out')"/>
  <use id="reset" xlink:href="#resetDef" x="30" y="36" onmousedown="handleReset()"/>
   <use id="arrowup" xlink:href="#arrowUp" x="0" y="0" onmousedown="handlePan(0,-1)"/>
  <use id="arrowright" xlink:href="#arrowRight" x="0" y="0" onmousedown="handlePan(1,0)"/>
  <use id="arrowdown" xlink:href="#arrowDown" x="0" y="0" onmousedown="handlePan(0,1)"/>
  <use id="arrowleft" xlink:href="#arrowLeft" x="0" y="0" onmousedown="handlePan(-1,0)"/>
</g>
<svg viewBox="0 0 15 15" width="100%" height="30px" preserveAspectRatio="xMaxYMin meet">
 <g id="arrow_out" transform="scale(0.3 0.3)">
  <a xlink:href="_game_structs_8h__dep__incl_org.svg" target="_base">
   <rect id="button" ry="5" rx="5" y="6" x="6" height="38" width="38"
        fill="#f2f5e9" fill-opacity="0.5" stroke="#606060" stroke-width="1.0"/>
   <path id="arrow"
     d="M 11.500037,31.436501 C 11.940474,20.09759 22.043105,11.32322 32.158766,21.979434 L 37.068811,17.246167 C 37.068811,17.246167 37.088388,32 37.088388,32 L 22.160133,31.978069 C 22.160133,31.978069 26.997745,27.140456 26.997745,27.140456 C 18.528582,18.264221 13.291696,25.230495 11.500037,31.436501 z"
     style="fill:#404040;"/>
  </a>
 </g>
</svg>

<style type='text/css'>
<![CDATA[
[data-mouse-over-selected='false'] { opacity: 0.7; }
[data-mouse-over-selected='true']  { opacity: 1.0; }
]]>
</style>
<script type="application/ecmascript"><![CDATA[
document.addEventListener('DOMContentLoaded', (event) => {
  highlightEdges();
  highlightAdjacentNodes();
});
]]></script>
</svg>
