<?xml version="1.0" encoding="UTF-8" standalone="no"?>
<!DOCTYPE svg PUBLIC "-//W3C//DTD SVG 1.1//EN"
 "http://www.w3.org/Graphics/SVG/1.1/DTD/svg11.dtd">
<!-- Generated by graphviz version 13.1.1 (20250719.2154)
 -->
<!-- Title: C:/Users/user/Perforce/alz7_CobaltbruWorkspace_00/KPT/Source/KPT/Skill/Ability/Trace/GameplayAbility_BossBreath.h Pages: 1 -->
<svg width="569pt" height="268pt"
 viewBox="0.00 0.00 569.00 268.00" xmlns="http://www.w3.org/2000/svg" xmlns:xlink="http://www.w3.org/1999/xlink">
<g id="graph0" class="graph" transform="scale(1 1) rotate(0) translate(4 264)">
<title>C:/Users/user/Perforce/alz7_CobaltbruWorkspace_00/KPT/Source/KPT/Skill/Ability/Trace/GameplayAbility_BossBreath.h</title>
<!-- Node1 -->
<g id="Node000001" class="node">
<title>Node1</title>
<g id="a_Node000001"><a xlink:title=" ">
<polygon fill="#999999" stroke="#666666" points="207.5,-260 59.5,-260 59.5,-192 207.5,-192 207.5,-260"/>
<text xml:space="preserve" text-anchor="start" x="67.5" y="-246.5" font-family="Helvetica,sans-Serif" font-size="10.00">C:/Users/user/Perforce</text>
<text xml:space="preserve" text-anchor="start" x="67.5" y="-234.5" font-family="Helvetica,sans-Serif" font-size="10.00">/alz7_CobaltbruWorkspace</text>
<text xml:space="preserve" text-anchor="start" x="67.5" y="-222.5" font-family="Helvetica,sans-Serif" font-size="10.00">_00/KPT/Source/KPT/Skill</text>
<text xml:space="preserve" text-anchor="start" x="67.5" y="-210.5" font-family="Helvetica,sans-Serif" font-size="10.00">/Ability/Trace/GameplayAbility</text>
<text xml:space="preserve" text-anchor="middle" x="133.5" y="-198.5" font-family="Helvetica,sans-Serif" font-size="10.00">_BossBreath.h</text>
</a>
</g>
</g>
<!-- Node2 -->
<g id="Node000002" class="node">
<title>Node2</title>
<g id="a_Node000002"><a xlink:title=" ">
<polygon fill="#e0e0e0" stroke="#999999" points="79,-20 0,-20 0,0 79,0 79,-20"/>
<text xml:space="preserve" text-anchor="middle" x="39.5" y="-6.5" font-family="Helvetica,sans-Serif" font-size="10.00">CoreMinimal.h</text>
</a>
</g>
</g>
<!-- Node1&#45;&gt;Node2 -->
<g id="edge1_Node000001_Node000002" class="edge">
<title>Node1&#45;&gt;Node2</title>
<g id="a_edge1_Node000001_Node000002"><a xlink:title=" ">
<path fill="none" stroke="#63b8ff" d="M80.69,-191.81C68.62,-181.76 57.11,-169.69 49.5,-156 27.5,-116.42 31.43,-61.09 35.75,-31.53"/>
<polygon fill="#63b8ff" stroke="#63b8ff" points="39.19,-32.16 37.36,-21.73 32.28,-31.03 39.19,-32.16"/>
</a>
</g>
</g>
<!-- Node3 -->
<g id="Node000003" class="node">
<title>Node3</title>
<g id="a_Node000003"><a xlink:href="_gameplay_ability___trace_base_8h.html" target="_top" xlink:title=" ">
<polygon fill="white" stroke="#666666" points="209,-156 58,-156 58,-124 209,-124 209,-156"/>
<text xml:space="preserve" text-anchor="start" x="66" y="-142.5" font-family="Helvetica,sans-Serif" font-size="10.00">Skill/Ability/Trace</text>
<text xml:space="preserve" text-anchor="middle" x="133.5" y="-130.5" font-family="Helvetica,sans-Serif" font-size="10.00">/GameplayAbility_TraceBase.h</text>
</a>
</g>
</g>
<!-- Node1&#45;&gt;Node3 -->
<g id="edge2_Node000001_Node000003" class="edge">
<title>Node1&#45;&gt;Node3</title>
<g id="a_edge2_Node000001_Node000003"><a xlink:title=" ">
<path fill="none" stroke="#63b8ff" d="M133.5,-191.8C133.5,-183.74 133.5,-175.22 133.5,-167.51"/>
<polygon fill="#63b8ff" stroke="#63b8ff" points="137,-167.76 133.5,-157.76 130,-167.76 137,-167.76"/>
</a>
</g>
</g>
<!-- Node9 -->
<g id="Node000009" class="node">
<title>Node9</title>
<g id="a_Node000009"><a xlink:title=" ">
<polygon fill="#e0e0e0" stroke="#999999" points="424.25,-150 226.75,-150 226.75,-130 424.25,-130 424.25,-150"/>
<text xml:space="preserve" text-anchor="middle" x="325.5" y="-136.5" font-family="Helvetica,sans-Serif" font-size="10.00">GameplayAbility_BossBreath.generated.h</text>
</a>
</g>
</g>
<!-- Node1&#45;&gt;Node9 -->
<g id="edge10_Node000001_Node000009" class="edge">
<title>Node1&#45;&gt;Node9</title>
<g id="a_edge10_Node000001_Node000009"><a xlink:title=" ">
<path fill="none" stroke="#63b8ff" d="M207.73,-192.52C237.43,-179.53 270.06,-165.25 293.43,-155.03"/>
<polygon fill="#63b8ff" stroke="#63b8ff" points="294.64,-158.32 302.4,-151.11 291.83,-151.91 294.64,-158.32"/>
</a>
</g>
</g>
<!-- Node3&#45;&gt;Node2 -->
<g id="edge3_Node000003_Node000002" class="edge">
<title>Node3&#45;&gt;Node2</title>
<g id="a_edge3_Node000003_Node000002"><a xlink:title=" ">
<path fill="none" stroke="#63b8ff" d="M100.48,-123.6C85.59,-115.08 69.02,-103.12 58.5,-88 46.85,-71.25 42.32,-48.08 40.57,-31.54"/>
<polygon fill="#63b8ff" stroke="#63b8ff" points="44.09,-31.61 39.82,-21.92 37.11,-32.16 44.09,-31.61"/>
</a>
</g>
</g>
<!-- Node4 -->
<g id="Node000004" class="node">
<title>Node4</title>
<g id="a_Node000004"><a xlink:title=" ">
<polygon fill="#e0e0e0" stroke="#999999" points="199.62,-82 67.38,-82 67.38,-62 199.62,-62 199.62,-82"/>
<text xml:space="preserve" text-anchor="middle" x="133.5" y="-68.5" font-family="Helvetica,sans-Serif" font-size="10.00">Abilities/GameplayAbility.h</text>
</a>
</g>
</g>
<!-- Node3&#45;&gt;Node4 -->
<g id="edge4_Node000003_Node000004" class="edge">
<title>Node3&#45;&gt;Node4</title>
<g id="a_edge4_Node000003_Node000004"><a xlink:title=" ">
<path fill="none" stroke="#63b8ff" d="M133.5,-123.69C133.5,-114.8 133.5,-103.46 133.5,-93.77"/>
<polygon fill="#63b8ff" stroke="#63b8ff" points="137,-93.83 133.5,-83.83 130,-93.83 137,-93.83"/>
</a>
</g>
</g>
<!-- Node5 -->
<g id="Node000005" class="node">
<title>Node5</title>
<g id="a_Node000005"><a xlink:href="_ability_task___trace_8h.html" target="_top" xlink:title=" ">
<polygon fill="white" stroke="#666666" points="349.25,-88 217.75,-88 217.75,-56 349.25,-56 349.25,-88"/>
<text xml:space="preserve" text-anchor="start" x="225.75" y="-74.5" font-family="Helvetica,sans-Serif" font-size="10.00">AI/Boss/Abilities/Ability</text>
<text xml:space="preserve" text-anchor="middle" x="283.5" y="-62.5" font-family="Helvetica,sans-Serif" font-size="10.00">Tasks/AbilityTask_Trace.h</text>
</a>
</g>
</g>
<!-- Node3&#45;&gt;Node5 -->
<g id="edge5_Node000003_Node000005" class="edge">
<title>Node3&#45;&gt;Node5</title>
<g id="a_edge5_Node000003_Node000005"><a xlink:title=" ">
<path fill="none" stroke="#63b8ff" d="M168.67,-123.53C189.28,-114.46 215.55,-102.9 237.76,-93.13"/>
<polygon fill="#63b8ff" stroke="#63b8ff" points="239.16,-96.33 246.91,-89.1 236.34,-89.92 239.16,-96.33"/>
</a>
</g>
</g>
<!-- Node8 -->
<g id="Node000008" class="node">
<title>Node8</title>
<g id="a_Node000008"><a xlink:title=" ">
<polygon fill="#e0e0e0" stroke="#999999" points="561.38,-82 367.62,-82 367.62,-62 561.38,-62 561.38,-82"/>
<text xml:space="preserve" text-anchor="middle" x="464.5" y="-68.5" font-family="Helvetica,sans-Serif" font-size="10.00">GameplayAbility_TraceBase.generated.h</text>
</a>
</g>
</g>
<!-- Node3&#45;&gt;Node8 -->
<g id="edge9_Node000003_Node000008" class="edge">
<title>Node3&#45;&gt;Node8</title>
<g id="a_edge9_Node000003_Node000008"><a xlink:title=" ">
<path fill="none" stroke="#63b8ff" d="M209.44,-123.86C269.13,-111.96 351.07,-95.62 405.8,-84.7"/>
<polygon fill="#63b8ff" stroke="#63b8ff" points="406.45,-88.14 415.57,-82.76 405.08,-81.28 406.45,-88.14"/>
</a>
</g>
</g>
<!-- Node5&#45;&gt;Node2 -->
<g id="edge6_Node000005_Node000002" class="edge">
<title>Node5&#45;&gt;Node2</title>
<g id="a_edge6_Node000005_Node000002"><a xlink:title=" ">
<path fill="none" stroke="#63b8ff" d="M220.66,-55.55C179.67,-45.47 126.91,-32.49 88.91,-23.15"/>
<polygon fill="#63b8ff" stroke="#63b8ff" points="90.13,-19.85 79.59,-20.86 88.46,-26.64 90.13,-19.85"/>
</a>
</g>
</g>
<!-- Node6 -->
<g id="Node000006" class="node">
<title>Node6</title>
<g id="a_Node000006"><a xlink:title=" ">
<polygon fill="#e0e0e0" stroke="#999999" points="294,-20 155,-20 155,0 294,0 294,-20"/>
<text xml:space="preserve" text-anchor="middle" x="224.5" y="-6.5" font-family="Helvetica,sans-Serif" font-size="10.00">Abilities/Tasks/AbilityTask.h</text>
</a>
</g>
</g>
<!-- Node5&#45;&gt;Node6 -->
<g id="edge7_Node000005_Node000006" class="edge">
<title>Node5&#45;&gt;Node6</title>
<g id="a_edge7_Node000005_Node000006"><a xlink:title=" ">
<path fill="none" stroke="#63b8ff" d="M268.31,-55.55C260.2,-47.3 250.19,-37.12 241.78,-28.57"/>
<polygon fill="#63b8ff" stroke="#63b8ff" points="244.32,-26.16 234.81,-21.49 239.33,-31.07 244.32,-26.16"/>
</a>
</g>
</g>
<!-- Node7 -->
<g id="Node000007" class="node">
<title>Node7</title>
<g id="a_Node000007"><a xlink:title=" ">
<polygon fill="#e0e0e0" stroke="#999999" points="460.5,-20 312.5,-20 312.5,0 460.5,0 460.5,-20"/>
<text xml:space="preserve" text-anchor="middle" x="386.5" y="-6.5" font-family="Helvetica,sans-Serif" font-size="10.00">AbilityTask_Trace.generated.h</text>
</a>
</g>
</g>
<!-- Node5&#45;&gt;Node7 -->
<g id="edge8_Node000005_Node000007" class="edge">
<title>Node5&#45;&gt;Node7</title>
<g id="a_edge8_Node000005_Node000007"><a xlink:title=" ">
<path fill="none" stroke="#63b8ff" d="M310.03,-55.55C325.52,-46.52 345,-35.17 360.42,-26.19"/>
<polygon fill="#63b8ff" stroke="#63b8ff" points="362.16,-29.23 369.04,-21.17 358.64,-23.18 362.16,-29.23"/>
</a>
</g>
</g>
</g>
</svg>
