<?xml version="1.0" encoding="UTF-8" standalone="no"?>
<!DOCTYPE svg PUBLIC "-//W3C//DTD SVG 1.1//EN"
 "http://www.w3.org/Graphics/SVG/1.1/DTD/svg11.dtd">
<!-- Generated by graphviz version 13.1.1 (20250719.2154)
 -->
<!-- Title: C:/Users/user/Perforce/alz7_CobaltbruWorkspace_00/KPT/Source/KPT/Skill/Ability/Trace/GameplayAbility_TraceBase.cpp Pages: 1 -->
<svg width="562pt" height="268pt"
 viewBox="0.00 0.00 562.00 268.00" xmlns="http://www.w3.org/2000/svg" xmlns:xlink="http://www.w3.org/1999/xlink">
<g id="graph0" class="graph" transform="scale(1 1) rotate(0) translate(4 264)">
<title>C:/Users/user/Perforce/alz7_CobaltbruWorkspace_00/KPT/Source/KPT/Skill/Ability/Trace/GameplayAbility_TraceBase.cpp</title>
<!-- Node1 -->
<g id="Node000001" class="node">
<title>Node1</title>
<g id="a_Node000001"><a xlink:title=" ">
<polygon fill="#999999" stroke="#666666" points="397.9,-260 249.9,-260 249.9,-192 397.9,-192 397.9,-260"/>
<text xml:space="preserve" text-anchor="start" x="257.9" y="-246.5" font-family="Helvetica,sans-Serif" font-size="10.00">C:/Users/user/Perforce</text>
<text xml:space="preserve" text-anchor="start" x="257.9" y="-234.5" font-family="Helvetica,sans-Serif" font-size="10.00">/alz7_CobaltbruWorkspace</text>
<text xml:space="preserve" text-anchor="start" x="257.9" y="-222.5" font-family="Helvetica,sans-Serif" font-size="10.00">_00/KPT/Source/KPT/Skill</text>
<text xml:space="preserve" text-anchor="start" x="257.9" y="-210.5" font-family="Helvetica,sans-Serif" font-size="10.00">/Ability/Trace/GameplayAbility</text>
<text xml:space="preserve" text-anchor="middle" x="323.9" y="-198.5" font-family="Helvetica,sans-Serif" font-size="10.00">_TraceBase.cpp</text>
</a>
</g>
</g>
<!-- Node2 -->
<g id="Node000002" class="node">
<title>Node2</title>
<g id="a_Node000002"><a xlink:href="_gameplay_ability___trace_base_8h.html" target="_top" xlink:title=" ">
<polygon fill="white" stroke="#666666" points="230.4,-156 79.4,-156 79.4,-124 230.4,-124 230.4,-156"/>
<text xml:space="preserve" text-anchor="start" x="87.4" y="-142.5" font-family="Helvetica,sans-Serif" font-size="10.00">Skill/Ability/Trace</text>
<text xml:space="preserve" text-anchor="middle" x="154.9" y="-130.5" font-family="Helvetica,sans-Serif" font-size="10.00">/GameplayAbility_TraceBase.h</text>
</a>
</g>
</g>
<!-- Node1&#45;&gt;Node2 -->
<g id="edge1_Node000001_Node000002" class="edge">
<title>Node1&#45;&gt;Node2</title>
<g id="a_edge1_Node000001_Node000002"><a xlink:title=" ">
<path fill="none" stroke="#63b8ff" d="M256.62,-191.56C236.15,-181.39 214.28,-170.51 196.08,-161.47"/>
<polygon fill="#63b8ff" stroke="#63b8ff" points="197.69,-158.36 187.18,-157.04 194.58,-164.63 197.69,-158.36"/>
</a>
</g>
</g>
<!-- Node9 -->
<g id="Node000009" class="node">
<title>Node9</title>
<g id="a_Node000009"><a xlink:title=" ">
<polygon fill="#e0e0e0" stroke="#999999" points="399.77,-150 248.02,-150 248.02,-130 399.77,-130 399.77,-150"/>
<text xml:space="preserve" text-anchor="middle" x="323.9" y="-136.5" font-family="Helvetica,sans-Serif" font-size="10.00">AbilitySystemBlueprintLibrary.h</text>
</a>
</g>
</g>
<!-- Node1&#45;&gt;Node9 -->
<g id="edge9_Node000001_Node000009" class="edge">
<title>Node1&#45;&gt;Node9</title>
<g id="a_edge9_Node000001_Node000009"><a xlink:title=" ">
<path fill="none" stroke="#63b8ff" d="M323.9,-191.8C323.9,-181.58 323.9,-170.63 323.9,-161.52"/>
<polygon fill="#63b8ff" stroke="#63b8ff" points="327.4,-161.65 323.9,-151.65 320.4,-161.65 327.4,-161.65"/>
</a>
</g>
</g>
<!-- Node10 -->
<g id="Node000010" class="node">
<title>Node10</title>
<g id="a_Node000010"><a xlink:title=" ">
<polygon fill="#e0e0e0" stroke="#999999" points="553.52,-150 418.27,-150 418.27,-130 553.52,-130 553.52,-150"/>
<text xml:space="preserve" text-anchor="middle" x="485.9" y="-136.5" font-family="Helvetica,sans-Serif" font-size="10.00">AbilitySystemComponent.h</text>
</a>
</g>
</g>
<!-- Node1&#45;&gt;Node10 -->
<g id="edge10_Node000001_Node000010" class="edge">
<title>Node1&#45;&gt;Node10</title>
<g id="a_edge10_Node000001_Node000010"><a xlink:title=" ">
<path fill="none" stroke="#63b8ff" d="M388.39,-191.56C412.4,-179.11 438.43,-165.61 457.55,-155.7"/>
<polygon fill="#63b8ff" stroke="#63b8ff" points="459.07,-158.86 466.33,-151.15 455.85,-152.64 459.07,-158.86"/>
</a>
</g>
</g>
<!-- Node3 -->
<g id="Node000003" class="node">
<title>Node3</title>
<g id="a_Node000003"><a xlink:title=" ">
<polygon fill="#e0e0e0" stroke="#999999" points="83.4,-20 4.4,-20 4.4,0 83.4,0 83.4,-20"/>
<text xml:space="preserve" text-anchor="middle" x="43.9" y="-6.5" font-family="Helvetica,sans-Serif" font-size="10.00">CoreMinimal.h</text>
</a>
</g>
</g>
<!-- Node2&#45;&gt;Node3 -->
<g id="edge2_Node000002_Node000003" class="edge">
<title>Node2&#45;&gt;Node3</title>
<g id="a_edge2_Node000002_Node000003"><a xlink:title=" ">
<path fill="none" stroke="#63b8ff" d="M79.02,-131.6C51.05,-124.76 22.04,-111.93 4.9,-88 -8.85,-68.81 9.1,-44.08 24.93,-27.89"/>
<polygon fill="#63b8ff" stroke="#63b8ff" points="26.97,-30.79 31.75,-21.33 22.12,-25.74 26.97,-30.79"/>
</a>
</g>
</g>
<!-- Node4 -->
<g id="Node000004" class="node">
<title>Node4</title>
<g id="a_Node000004"><a xlink:title=" ">
<polygon fill="#e0e0e0" stroke="#999999" points="146.02,-82 13.77,-82 13.77,-62 146.02,-62 146.02,-82"/>
<text xml:space="preserve" text-anchor="middle" x="79.9" y="-68.5" font-family="Helvetica,sans-Serif" font-size="10.00">Abilities/GameplayAbility.h</text>
</a>
</g>
</g>
<!-- Node2&#45;&gt;Node4 -->
<g id="edge3_Node000002_Node000004" class="edge">
<title>Node2&#45;&gt;Node4</title>
<g id="a_edge3_Node000002_Node000004"><a xlink:title=" ">
<path fill="none" stroke="#63b8ff" d="M137.5,-123.69C125.92,-113.5 110.7,-100.1 98.81,-89.64"/>
<polygon fill="#63b8ff" stroke="#63b8ff" points="101.44,-87.29 91.62,-83.32 96.82,-92.55 101.44,-87.29"/>
</a>
</g>
</g>
<!-- Node5 -->
<g id="Node000005" class="node">
<title>Node5</title>
<g id="a_Node000005"><a xlink:href="_ability_task___trace_8h.html" target="_top" xlink:title=" ">
<polygon fill="white" stroke="#666666" points="295.65,-88 164.15,-88 164.15,-56 295.65,-56 295.65,-88"/>
<text xml:space="preserve" text-anchor="start" x="172.15" y="-74.5" font-family="Helvetica,sans-Serif" font-size="10.00">AI/Boss/Abilities/Ability</text>
<text xml:space="preserve" text-anchor="middle" x="229.9" y="-62.5" font-family="Helvetica,sans-Serif" font-size="10.00">Tasks/AbilityTask_Trace.h</text>
</a>
</g>
</g>
<!-- Node2&#45;&gt;Node5 -->
<g id="edge4_Node000002_Node000005" class="edge">
<title>Node2&#45;&gt;Node5</title>
<g id="a_edge4_Node000002_Node000005"><a xlink:title=" ">
<path fill="none" stroke="#63b8ff" d="M172.29,-123.69C181.69,-115.42 193.48,-105.05 203.95,-95.84"/>
<polygon fill="#63b8ff" stroke="#63b8ff" points="206.01,-98.69 211.2,-89.45 201.38,-93.43 206.01,-98.69"/>
</a>
</g>
</g>
<!-- Node8 -->
<g id="Node000008" class="node">
<title>Node8</title>
<g id="a_Node000008"><a xlink:title=" ">
<polygon fill="#e0e0e0" stroke="#999999" points="507.77,-82 314.02,-82 314.02,-62 507.77,-62 507.77,-82"/>
<text xml:space="preserve" text-anchor="middle" x="410.9" y="-68.5" font-family="Helvetica,sans-Serif" font-size="10.00">GameplayAbility_TraceBase.generated.h</text>
</a>
</g>
</g>
<!-- Node2&#45;&gt;Node8 -->
<g id="edge8_Node000002_Node000008" class="edge">
<title>Node2&#45;&gt;Node8</title>
<g id="a_edge8_Node000002_Node000008"><a xlink:title=" ">
<path fill="none" stroke="#63b8ff" d="M214.92,-123.53C260.14,-111.87 321.29,-96.1 363.19,-85.3"/>
<polygon fill="#63b8ff" stroke="#63b8ff" points="363.93,-88.72 372.74,-82.84 362.18,-81.95 363.93,-88.72"/>
</a>
</g>
</g>
<!-- Node5&#45;&gt;Node3 -->
<g id="edge5_Node000005_Node000003" class="edge">
<title>Node5&#45;&gt;Node3</title>
<g id="a_edge5_Node000005_Node000003"><a xlink:title=" ">
<path fill="none" stroke="#63b8ff" d="M182,-55.55C151.69,-45.77 112.94,-33.27 84.21,-24"/>
<polygon fill="#63b8ff" stroke="#63b8ff" points="85.37,-20.7 74.78,-20.96 83.22,-27.36 85.37,-20.7"/>
</a>
</g>
</g>
<!-- Node6 -->
<g id="Node000006" class="node">
<title>Node6</title>
<g id="a_Node000006"><a xlink:title=" ">
<polygon fill="#e0e0e0" stroke="#999999" points="269.4,-20 130.4,-20 130.4,0 269.4,0 269.4,-20"/>
<text xml:space="preserve" text-anchor="middle" x="199.9" y="-6.5" font-family="Helvetica,sans-Serif" font-size="10.00">Abilities/Tasks/AbilityTask.h</text>
</a>
</g>
</g>
<!-- Node5&#45;&gt;Node6 -->
<g id="edge6_Node000005_Node000006" class="edge">
<title>Node5&#45;&gt;Node6</title>
<g id="a_edge6_Node000005_Node000006"><a xlink:title=" ">
<path fill="none" stroke="#63b8ff" d="M222.17,-55.55C218.35,-47.91 213.7,-38.61 209.64,-30.49"/>
<polygon fill="#63b8ff" stroke="#63b8ff" points="212.88,-29.14 205.28,-21.76 206.62,-32.27 212.88,-29.14"/>
</a>
</g>
</g>
<!-- Node7 -->
<g id="Node000007" class="node">
<title>Node7</title>
<g id="a_Node000007"><a xlink:title=" ">
<polygon fill="#e0e0e0" stroke="#999999" points="435.9,-20 287.9,-20 287.9,0 435.9,0 435.9,-20"/>
<text xml:space="preserve" text-anchor="middle" x="361.9" y="-6.5" font-family="Helvetica,sans-Serif" font-size="10.00">AbilityTask_Trace.generated.h</text>
</a>
</g>
</g>
<!-- Node5&#45;&gt;Node7 -->
<g id="edge7_Node000005_Node000007" class="edge">
<title>Node5&#45;&gt;Node7</title>
<g id="a_edge7_Node000005_Node000007"><a xlink:title=" ">
<path fill="none" stroke="#63b8ff" d="M263.89,-55.55C284.52,-46.17 310.64,-34.3 330.74,-25.17"/>
<polygon fill="#63b8ff" stroke="#63b8ff" points="332.17,-28.36 339.82,-21.03 329.27,-21.99 332.17,-28.36"/>
</a>
</g>
</g>
</g>
</svg>
