<?xml version="1.0" encoding="UTF-8" standalone="no"?>
<!DOCTYPE svg PUBLIC "-//W3C//DTD SVG 1.1//EN"
 "http://www.w3.org/Graphics/SVG/1.1/DTD/svg11.dtd">
<!-- Generated by graphviz version 13.1.1 (20250719.2154)
 -->
<!-- Title: C:/Users/user/Perforce/alz7_CobaltbruWorkspace_00/KPT/Source/KPT/Data/GameEnums.h Pages: 1 -->
<svg width="1472pt" height="456pt"
 viewBox="0.00 0.00 1472.00 456.00" xmlns="http://www.w3.org/2000/svg" xmlns:xlink="http://www.w3.org/1999/xlink">
<g id="graph0" class="graph" transform="scale(1 1) rotate(0) translate(4 452)">
<title>C:/Users/user/Perforce/alz7_CobaltbruWorkspace_00/KPT/Source/KPT/Data/GameEnums.h</title>
<!-- Node1 -->
<g id="Node000001" class="node">
<title>Node1</title>
<g id="a_Node000001"><a xlink:title=" ">
<polygon fill="#999999" stroke="#666666" points="784.24,-448 649.74,-448 649.74,-392 784.24,-392 784.24,-448"/>
<text xml:space="preserve" text-anchor="start" x="657.74" y="-434.5" font-family="Helvetica,sans-Serif" font-size="10.00">C:/Users/user/Perforce</text>
<text xml:space="preserve" text-anchor="start" x="657.74" y="-422.5" font-family="Helvetica,sans-Serif" font-size="10.00">/alz7_CobaltbruWorkspace</text>
<text xml:space="preserve" text-anchor="start" x="657.74" y="-410.5" font-family="Helvetica,sans-Serif" font-size="10.00">_00/KPT/Source/KPT/Data</text>
<text xml:space="preserve" text-anchor="middle" x="716.99" y="-398.5" font-family="Helvetica,sans-Serif" font-size="10.00">/GameEnums.h</text>
</a>
</g>
</g>
<!-- Node2 -->
<g id="Node000002" class="node">
<title>Node2</title>
<g id="a_Node000002"><a xlink:href="_player_reward_state_component_8h.html" target="_top" xlink:title=" ">
<polygon fill="white" stroke="#666666" points="622.12,-264 459.87,-264 459.87,-196 622.12,-196 622.12,-264"/>
<text xml:space="preserve" text-anchor="start" x="467.87" y="-250.5" font-family="Helvetica,sans-Serif" font-size="10.00">C:/Users/user/Perforce</text>
<text xml:space="preserve" text-anchor="start" x="467.87" y="-238.5" font-family="Helvetica,sans-Serif" font-size="10.00">/alz7_CobaltbruWorkspace</text>
<text xml:space="preserve" text-anchor="start" x="467.87" y="-226.5" font-family="Helvetica,sans-Serif" font-size="10.00">_00/KPT/Source/KPT/Core</text>
<text xml:space="preserve" text-anchor="start" x="467.87" y="-214.5" font-family="Helvetica,sans-Serif" font-size="10.00">/Component/LevelUpReward</text>
<text xml:space="preserve" text-anchor="middle" x="540.99" y="-202.5" font-family="Helvetica,sans-Serif" font-size="10.00">/PlayerRewardStateComponent.h</text>
</a>
</g>
</g>
<!-- Node1&#45;&gt;Node2 -->
<g id="edge1_Node000001_Node000002" class="edge">
<title>Node1&#45;&gt;Node2</title>
<g id="a_edge1_Node000001_Node000002"><a xlink:title=" ">
<path fill="none" stroke="#63b8ff" d="M683.62,-383.35C651.59,-349.13 603.57,-297.85 572.26,-264.4"/>
<polygon fill="#63b8ff" stroke="#63b8ff" points="680.98,-385.65 690.37,-390.56 686.09,-380.87 680.98,-385.65"/>
</a>
</g>
</g>
<!-- Node9 -->
<g id="Node000009" class="node">
<title>Node9</title>
<g id="a_Node000009"><a xlink:href="_game_structs_8h.html" target="_top" xlink:title=" ">
<polygon fill="white" stroke="#666666" points="960.24,-356 825.74,-356 825.74,-300 960.24,-300 960.24,-356"/>
<text xml:space="preserve" text-anchor="start" x="833.74" y="-342.5" font-family="Helvetica,sans-Serif" font-size="10.00">C:/Users/user/Perforce</text>
<text xml:space="preserve" text-anchor="start" x="833.74" y="-330.5" font-family="Helvetica,sans-Serif" font-size="10.00">/alz7_CobaltbruWorkspace</text>
<text xml:space="preserve" text-anchor="start" x="833.74" y="-318.5" font-family="Helvetica,sans-Serif" font-size="10.00">_00/KPT/Source/KPT/Data</text>
<text xml:space="preserve" text-anchor="middle" x="892.99" y="-306.5" font-family="Helvetica,sans-Serif" font-size="10.00">/GameStructs.h</text>
</a>
</g>
</g>
<!-- Node1&#45;&gt;Node9 -->
<g id="edge8_Node000001_Node000009" class="edge">
<title>Node1&#45;&gt;Node9</title>
<g id="a_edge8_Node000001_Node000009"><a xlink:title=" ">
<path fill="none" stroke="#63b8ff" d="M780.89,-386.32C800.04,-376.53 820.84,-365.9 839.26,-356.48"/>
<polygon fill="#63b8ff" stroke="#63b8ff" points="779.41,-383.15 772.1,-390.82 782.6,-389.38 779.41,-383.15"/>
</a>
</g>
</g>
<!-- Node3 -->
<g id="Node000003" class="node">
<title>Node3</title>
<g id="a_Node000003"><a xlink:href="_k_p_t_player_state_8cpp.html" target="_top" xlink:title=" ">
<polygon fill="white" stroke="#666666" points="513.12,-154 356.87,-154 356.87,-98 513.12,-98 513.12,-154"/>
<text xml:space="preserve" text-anchor="start" x="364.87" y="-140.5" font-family="Helvetica,sans-Serif" font-size="10.00">C:/Users/user/Perforce</text>
<text xml:space="preserve" text-anchor="start" x="364.87" y="-128.5" font-family="Helvetica,sans-Serif" font-size="10.00">/alz7_CobaltbruWorkspace</text>
<text xml:space="preserve" text-anchor="start" x="364.87" y="-116.5" font-family="Helvetica,sans-Serif" font-size="10.00">_00/KPT/Source/KPT/Character</text>
<text xml:space="preserve" text-anchor="middle" x="434.99" y="-104.5" font-family="Helvetica,sans-Serif" font-size="10.00">/KPTPlayerState.cpp</text>
</a>
</g>
</g>
<!-- Node2&#45;&gt;Node3 -->
<g id="edge2_Node000002_Node000003" class="edge">
<title>Node2&#45;&gt;Node3</title>
<g id="a_edge2_Node000002_Node000003"><a xlink:title=" ">
<path fill="none" stroke="#63b8ff" d="M498.3,-187.92C486.57,-176.63 474.13,-164.66 463.41,-154.35"/>
<polygon fill="#63b8ff" stroke="#63b8ff" points="495.56,-190.14 505.19,-194.55 500.41,-185.1 495.56,-190.14"/>
</a>
</g>
</g>
<!-- Node4 -->
<g id="Node000004" class="node">
<title>Node4</title>
<g id="a_Node000004"><a xlink:href="_player_reward_state_component_8cpp.html" target="_top" xlink:title=" ">
<polygon fill="white" stroke="#666666" points="741.37,-160 568.62,-160 568.62,-92 741.37,-92 741.37,-160"/>
<text xml:space="preserve" text-anchor="start" x="576.62" y="-146.5" font-family="Helvetica,sans-Serif" font-size="10.00">C:/Users/user/Perforce</text>
<text xml:space="preserve" text-anchor="start" x="576.62" y="-134.5" font-family="Helvetica,sans-Serif" font-size="10.00">/alz7_CobaltbruWorkspace</text>
<text xml:space="preserve" text-anchor="start" x="576.62" y="-122.5" font-family="Helvetica,sans-Serif" font-size="10.00">_00/KPT/Source/KPT/Core</text>
<text xml:space="preserve" text-anchor="start" x="576.62" y="-110.5" font-family="Helvetica,sans-Serif" font-size="10.00">/Component/LevelUpReward</text>
<text xml:space="preserve" text-anchor="middle" x="654.99" y="-98.5" font-family="Helvetica,sans-Serif" font-size="10.00">/PlayerRewardStateComponent.cpp</text>
</a>
</g>
</g>
<!-- Node2&#45;&gt;Node4 -->
<g id="edge3_Node000002_Node000004" class="edge">
<title>Node2&#45;&gt;Node4</title>
<g id="a_edge3_Node000002_Node000004"><a xlink:title=" ">
<path fill="none" stroke="#63b8ff" d="M586.77,-188.04C597,-178.89 607.73,-169.28 617.58,-160.47"/>
<polygon fill="#63b8ff" stroke="#63b8ff" points="584.57,-185.32 579.45,-194.59 589.23,-190.53 584.57,-185.32"/>
</a>
</g>
</g>
<!-- Node5 -->
<g id="Node000005" class="node">
<title>Node5</title>
<g id="a_Node000005"><a xlink:href="_k_p_t_in_game_mode_8cpp.html" target="_top" xlink:title=" ">
<polygon fill="white" stroke="#666666" points="339.24,-154 204.74,-154 204.74,-98 339.24,-98 339.24,-154"/>
<text xml:space="preserve" text-anchor="start" x="212.74" y="-140.5" font-family="Helvetica,sans-Serif" font-size="10.00">C:/Users/user/Perforce</text>
<text xml:space="preserve" text-anchor="start" x="212.74" y="-128.5" font-family="Helvetica,sans-Serif" font-size="10.00">/alz7_CobaltbruWorkspace</text>
<text xml:space="preserve" text-anchor="start" x="212.74" y="-116.5" font-family="Helvetica,sans-Serif" font-size="10.00">_00/KPT/Source/KPT/Core</text>
<text xml:space="preserve" text-anchor="middle" x="271.99" y="-104.5" font-family="Helvetica,sans-Serif" font-size="10.00">/KPTInGameMode.cpp</text>
</a>
</g>
</g>
<!-- Node2&#45;&gt;Node5 -->
<g id="edge4_Node000002_Node000005" class="edge">
<title>Node2&#45;&gt;Node5</title>
<g id="a_edge4_Node000002_Node000005"><a xlink:title=" ">
<path fill="none" stroke="#63b8ff" d="M449.06,-197.53C416.91,-186.16 380.7,-172.93 347.99,-160 343.44,-158.2 338.76,-156.3 334.07,-154.35"/>
<polygon fill="#63b8ff" stroke="#63b8ff" points="447.77,-200.79 458.36,-200.81 450.09,-194.19 447.77,-200.79"/>
</a>
</g>
</g>
<!-- Node6 -->
<g id="Node000006" class="node">
<title>Node6</title>
<g id="a_Node000006"><a xlink:href="_reward_manager_subsystem_8cpp.html" target="_top" xlink:title=" ">
<polygon fill="white" stroke="#666666" points="571.24,-56 358.74,-56 358.74,0 571.24,0 571.24,-56"/>
<text xml:space="preserve" text-anchor="start" x="366.74" y="-42.5" font-family="Helvetica,sans-Serif" font-size="10.00">C:/Users/user/Perforce</text>
<text xml:space="preserve" text-anchor="start" x="366.74" y="-30.5" font-family="Helvetica,sans-Serif" font-size="10.00">/alz7_CobaltbruWorkspace</text>
<text xml:space="preserve" text-anchor="start" x="366.74" y="-18.5" font-family="Helvetica,sans-Serif" font-size="10.00">_00/KPT/Source/KPT/Core</text>
<text xml:space="preserve" text-anchor="middle" x="464.99" y="-6.5" font-family="Helvetica,sans-Serif" font-size="10.00">/SubSystem/RewardManagerSubsystem.cpp</text>
</a>
</g>
</g>
<!-- Node2&#45;&gt;Node6 -->
<g id="edge5_Node000002_Node000006" class="edge">
<title>Node2&#45;&gt;Node6</title>
<g id="a_edge5_Node000002_Node000006"><a xlink:title=" ">
<path fill="none" stroke="#63b8ff" d="M541.39,-184.28C540.07,-156.55 535.45,-120.85 521.99,-92 515.88,-78.9 506.09,-66.6 496.34,-56.4"/>
<polygon fill="#63b8ff" stroke="#63b8ff" points="537.89,-184.24 541.72,-194.12 544.88,-184.01 537.89,-184.24"/>
</a>
</g>
</g>
<!-- Node7 -->
<g id="Node000007" class="node">
<title>Node7</title>
<g id="a_Node000007"><a xlink:href="_skill_select_u_i_8cpp.html" target="_top" xlink:title=" ">
<polygon fill="white" stroke="#666666" points="1094.87,-154 949.12,-154 949.12,-98 1094.87,-98 1094.87,-154"/>
<text xml:space="preserve" text-anchor="start" x="957.12" y="-140.5" font-family="Helvetica,sans-Serif" font-size="10.00">C:/Users/user/Perforce</text>
<text xml:space="preserve" text-anchor="start" x="957.12" y="-128.5" font-family="Helvetica,sans-Serif" font-size="10.00">/alz7_CobaltbruWorkspace</text>
<text xml:space="preserve" text-anchor="start" x="957.12" y="-116.5" font-family="Helvetica,sans-Serif" font-size="10.00">_00/KPT/Source/KPT/UI/Skill</text>
<text xml:space="preserve" text-anchor="middle" x="1021.99" y="-104.5" font-family="Helvetica,sans-Serif" font-size="10.00">/SkillSelectUI.cpp</text>
</a>
</g>
</g>
<!-- Node2&#45;&gt;Node7 -->
<g id="edge6_Node000002_Node000007" class="edge">
<title>Node2&#45;&gt;Node7</title>
<g id="a_edge6_Node000002_Node000007"><a xlink:title=" ">
<path fill="none" stroke="#63b8ff" d="M633.12,-195.72C765.47,-165.8 806.33,-191.51 934.99,-160 941.43,-158.42 948.03,-156.51 954.59,-154.4"/>
<polygon fill="#63b8ff" stroke="#63b8ff" points="632.58,-192.25 623.64,-197.93 634.17,-199.07 632.58,-192.25"/>
</a>
</g>
</g>
<!-- Node8 -->
<g id="Node000008" class="node">
<title>Node8</title>
<g id="a_Node000008"><a xlink:href="_skill_slot_u_i_8cpp.html" target="_top" xlink:title=" ">
<polygon fill="white" stroke="#666666" points="1220.87,-56 1075.12,-56 1075.12,0 1220.87,0 1220.87,-56"/>
<text xml:space="preserve" text-anchor="start" x="1083.12" y="-42.5" font-family="Helvetica,sans-Serif" font-size="10.00">C:/Users/user/Perforce</text>
<text xml:space="preserve" text-anchor="start" x="1083.12" y="-30.5" font-family="Helvetica,sans-Serif" font-size="10.00">/alz7_CobaltbruWorkspace</text>
<text xml:space="preserve" text-anchor="start" x="1083.12" y="-18.5" font-family="Helvetica,sans-Serif" font-size="10.00">_00/KPT/Source/KPT/UI/Skill</text>
<text xml:space="preserve" text-anchor="middle" x="1147.99" y="-6.5" font-family="Helvetica,sans-Serif" font-size="10.00">/SkillSlotUI.cpp</text>
</a>
</g>
</g>
<!-- Node2&#45;&gt;Node8 -->
<g id="edge7_Node000002_Node000008" class="edge">
<title>Node2&#45;&gt;Node8</title>
<g id="a_edge7_Node000002_Node000008"><a xlink:title=" ">
<path fill="none" stroke="#63b8ff" d="M633.13,-195.8C752.08,-170.4 804.43,-226.27 901.99,-160 930.63,-140.55 912.85,-113.49 939.99,-92 985.65,-55.84 1010.32,-73.11 1065.99,-56 1068.86,-55.12 1071.78,-54.21 1074.72,-53.29"/>
<polygon fill="#63b8ff" stroke="#63b8ff" points="632.61,-192.33 623.65,-197.99 634.18,-199.15 632.61,-192.33"/>
</a>
</g>
</g>
<!-- Node9&#45;&gt;Node4 -->
<g id="edge9_Node000009_Node000004" class="edge">
<title>Node9&#45;&gt;Node4</title>
<g id="a_edge9_Node000009_Node000004"><a xlink:title=" ">
<path fill="none" stroke="#63b8ff" d="M970.35,-296.81C983.4,-288.2 995.22,-277.41 1002.99,-264 1018.15,-237.85 1022.79,-218.83 1002.99,-196 965.93,-153.27 805.99,-173.25 750.99,-160 747.91,-159.26 744.78,-158.45 741.64,-157.61"/>
<polygon fill="#63b8ff" stroke="#63b8ff" points="968.69,-293.73 961.97,-301.91 972.33,-299.71 968.69,-293.73"/>
</a>
</g>
</g>
<!-- Node10 -->
<g id="Node000010" class="node">
<title>Node10</title>
<g id="a_Node000010"><a xlink:href="_k_p_t_lobby_game_mode_8cpp.html" target="_top" xlink:title=" ">
<polygon fill="white" stroke="#666666" points="774.24,-258 639.74,-258 639.74,-202 774.24,-202 774.24,-258"/>
<text xml:space="preserve" text-anchor="start" x="647.74" y="-244.5" font-family="Helvetica,sans-Serif" font-size="10.00">C:/Users/user/Perforce</text>
<text xml:space="preserve" text-anchor="start" x="647.74" y="-232.5" font-family="Helvetica,sans-Serif" font-size="10.00">/alz7_CobaltbruWorkspace</text>
<text xml:space="preserve" text-anchor="start" x="647.74" y="-220.5" font-family="Helvetica,sans-Serif" font-size="10.00">_00/KPT/Source/KPT/Core</text>
<text xml:space="preserve" text-anchor="middle" x="706.99" y="-208.5" font-family="Helvetica,sans-Serif" font-size="10.00">/KPTLobbyGameMode.cpp</text>
</a>
</g>
</g>
<!-- Node9&#45;&gt;Node10 -->
<g id="edge10_Node000009_Node000010" class="edge">
<title>Node9&#45;&gt;Node10</title>
<g id="a_edge10_Node000009_Node000010"><a xlink:title=" ">
<path fill="none" stroke="#63b8ff" d="M829.99,-294.48C807.33,-282.78 782,-269.71 760.25,-258.49"/>
<polygon fill="#63b8ff" stroke="#63b8ff" points="828.35,-297.58 838.85,-299.05 831.56,-291.36 828.35,-297.58"/>
</a>
</g>
</g>
<!-- Node11 -->
<g id="Node000011" class="node">
<title>Node11</title>
<g id="a_Node000011"><a xlink:href="_reward_manager_subsystem_8h.html" target="_top" xlink:title=" ">
<polygon fill="white" stroke="#666666" points="289.99,-258 87.99,-258 87.99,-202 289.99,-202 289.99,-258"/>
<text xml:space="preserve" text-anchor="start" x="95.99" y="-244.5" font-family="Helvetica,sans-Serif" font-size="10.00">C:/Users/user/Perforce</text>
<text xml:space="preserve" text-anchor="start" x="95.99" y="-232.5" font-family="Helvetica,sans-Serif" font-size="10.00">/alz7_CobaltbruWorkspace</text>
<text xml:space="preserve" text-anchor="start" x="95.99" y="-220.5" font-family="Helvetica,sans-Serif" font-size="10.00">_00/KPT/Source/KPT/Core</text>
<text xml:space="preserve" text-anchor="middle" x="188.99" y="-208.5" font-family="Helvetica,sans-Serif" font-size="10.00">/SubSystem/RewardManagerSubsystem.h</text>
</a>
</g>
</g>
<!-- Node9&#45;&gt;Node11 -->
<g id="edge11_Node000009_Node000011" class="edge">
<title>Node9&#45;&gt;Node11</title>
<g id="a_edge11_Node000009_Node000011"><a xlink:title=" ">
<path fill="none" stroke="#63b8ff" d="M814.22,-316.26C685.9,-298.76 431.88,-264.12 290.31,-244.82"/>
<polygon fill="#63b8ff" stroke="#63b8ff" points="813.61,-319.71 823.99,-317.59 814.56,-312.77 813.61,-319.71"/>
</a>
</g>
</g>
<!-- Node13 -->
<g id="Node000013" class="node">
<title>Node13</title>
<g id="a_Node000013"><a xlink:href="_shop_manager_subsystem_8cpp.html" target="_top" xlink:title=" ">
<polygon fill="white" stroke="#666666" points="993.62,-258 792.37,-258 792.37,-202 993.62,-202 993.62,-258"/>
<text xml:space="preserve" text-anchor="start" x="800.37" y="-244.5" font-family="Helvetica,sans-Serif" font-size="10.00">C:/Users/user/Perforce</text>
<text xml:space="preserve" text-anchor="start" x="800.37" y="-232.5" font-family="Helvetica,sans-Serif" font-size="10.00">/alz7_CobaltbruWorkspace</text>
<text xml:space="preserve" text-anchor="start" x="800.37" y="-220.5" font-family="Helvetica,sans-Serif" font-size="10.00">_00/KPT/Source/KPT/Core</text>
<text xml:space="preserve" text-anchor="middle" x="892.99" y="-208.5" font-family="Helvetica,sans-Serif" font-size="10.00">/SubSystem/ShopManagerSubsystem.cpp</text>
</a>
</g>
</g>
<!-- Node9&#45;&gt;Node13 -->
<g id="edge15_Node000009_Node000013" class="edge">
<title>Node9&#45;&gt;Node13</title>
<g id="a_edge15_Node000009_Node000013"><a xlink:title=" ">
<path fill="none" stroke="#63b8ff" d="M892.99,-288.32C892.99,-278.27 892.99,-267.65 892.99,-258.32"/>
<polygon fill="#63b8ff" stroke="#63b8ff" points="889.49,-288.23 892.99,-298.23 896.49,-288.23 889.49,-288.23"/>
</a>
</g>
</g>
<!-- Node14 -->
<g id="Node000014" class="node">
<title>Node14</title>
<g id="a_Node000014"><a xlink:href="_skill_buff_data_8h.html" target="_top" xlink:title=" ">
<polygon fill="white" stroke="#666666" points="1183.49,-258 1050.49,-258 1050.49,-202 1183.49,-202 1183.49,-258"/>
<text xml:space="preserve" text-anchor="start" x="1058.49" y="-244.5" font-family="Helvetica,sans-Serif" font-size="10.00">C:/Users/user/Perforce</text>
<text xml:space="preserve" text-anchor="start" x="1058.49" y="-232.5" font-family="Helvetica,sans-Serif" font-size="10.00">/alz7_CobaltbruWorkspace</text>
<text xml:space="preserve" text-anchor="start" x="1058.49" y="-220.5" font-family="Helvetica,sans-Serif" font-size="10.00">_00/KPT/Source/KPT/Skill</text>
<text xml:space="preserve" text-anchor="middle" x="1116.99" y="-208.5" font-family="Helvetica,sans-Serif" font-size="10.00">/Data/SkillBuffData.h</text>
</a>
</g>
</g>
<!-- Node9&#45;&gt;Node14 -->
<g id="edge16_Node000009_Node000014" class="edge">
<title>Node9&#45;&gt;Node14</title>
<g id="a_edge16_Node000009_Node000014"><a xlink:title=" ">
<path fill="none" stroke="#63b8ff" d="M967.33,-295.14C995.06,-283.25 1026.29,-269.87 1053.02,-258.42"/>
<polygon fill="#63b8ff" stroke="#63b8ff" points="966.09,-291.87 958.27,-299.02 968.84,-298.3 966.09,-291.87"/>
</a>
</g>
</g>
<!-- Node20 -->
<g id="Node000020" class="node">
<title>Node20</title>
<g id="a_Node000020"><a xlink:href="_skill_slot_u_i_8h.html" target="_top" xlink:title=" ">
<polygon fill="white" stroke="#666666" points="1346.87,-258 1201.12,-258 1201.12,-202 1346.87,-202 1346.87,-258"/>
<text xml:space="preserve" text-anchor="start" x="1209.12" y="-244.5" font-family="Helvetica,sans-Serif" font-size="10.00">C:/Users/user/Perforce</text>
<text xml:space="preserve" text-anchor="start" x="1209.12" y="-232.5" font-family="Helvetica,sans-Serif" font-size="10.00">/alz7_CobaltbruWorkspace</text>
<text xml:space="preserve" text-anchor="start" x="1209.12" y="-220.5" font-family="Helvetica,sans-Serif" font-size="10.00">_00/KPT/Source/KPT/UI/Skill</text>
<text xml:space="preserve" text-anchor="middle" x="1273.99" y="-208.5" font-family="Helvetica,sans-Serif" font-size="10.00">/SkillSlotUI.h</text>
</a>
</g>
</g>
<!-- Node9&#45;&gt;Node20 -->
<g id="edge24_Node000009_Node000020" class="edge">
<title>Node9&#45;&gt;Node20</title>
<g id="a_edge24_Node000009_Node000020"><a xlink:title=" ">
<path fill="none" stroke="#63b8ff" d="M971.7,-314.47C1032.79,-303.79 1119.21,-286.57 1192.99,-264 1198.51,-262.31 1204.17,-260.4 1209.82,-258.36"/>
<polygon fill="#63b8ff" stroke="#63b8ff" points="971.34,-310.98 962.08,-316.13 972.53,-317.87 971.34,-310.98"/>
</a>
</g>
</g>
<!-- Node11&#45;&gt;Node5 -->
<g id="edge13_Node000011_Node000005" class="edge">
<title>Node11&#45;&gt;Node5</title>
<g id="a_edge13_Node000011_Node000005"><a xlink:title=" ">
<path fill="none" stroke="#63b8ff" d="M218.48,-192.76C228.75,-180.14 240.1,-166.2 249.69,-154.41"/>
<polygon fill="#63b8ff" stroke="#63b8ff" points="215.79,-190.53 212.19,-200.49 221.22,-194.94 215.79,-190.53"/>
</a>
</g>
</g>
<!-- Node11&#45;&gt;Node6 -->
<g id="edge14_Node000011_Node000006" class="edge">
<title>Node11&#45;&gt;Node6</title>
<g id="a_edge14_Node000011_Node000006"><a xlink:title=" ">
<path fill="none" stroke="#63b8ff" d="M77.07,-207.31C52.32,-197.1 29.03,-182.09 13.99,-160 -3.01,-135.02 -5.84,-114.8 13.99,-92 57.71,-41.75 239.27,-30.36 358.27,-28.44"/>
<polygon fill="#63b8ff" stroke="#63b8ff" points="75.74,-210.55 86.33,-210.86 78.24,-204.02 75.74,-210.55"/>
</a>
</g>
</g>
<!-- Node12 -->
<g id="Node000012" class="node">
<title>Node12</title>
<g id="a_Node000012"><a xlink:href="_reward_interactor_component_8cpp.html" target="_top" xlink:title=" ">
<polygon fill="white" stroke="#666666" points="186.49,-160 23.49,-160 23.49,-92 186.49,-92 186.49,-160"/>
<text xml:space="preserve" text-anchor="start" x="31.49" y="-146.5" font-family="Helvetica,sans-Serif" font-size="10.00">C:/Users/user/Perforce</text>
<text xml:space="preserve" text-anchor="start" x="31.49" y="-134.5" font-family="Helvetica,sans-Serif" font-size="10.00">/alz7_CobaltbruWorkspace</text>
<text xml:space="preserve" text-anchor="start" x="31.49" y="-122.5" font-family="Helvetica,sans-Serif" font-size="10.00">_00/KPT/Source/KPT/Core</text>
<text xml:space="preserve" text-anchor="start" x="31.49" y="-110.5" font-family="Helvetica,sans-Serif" font-size="10.00">/Component/LevelUpReward</text>
<text xml:space="preserve" text-anchor="middle" x="104.99" y="-98.5" font-family="Helvetica,sans-Serif" font-size="10.00">/RewardInteractorComponent.cpp</text>
</a>
</g>
</g>
<!-- Node11&#45;&gt;Node12 -->
<g id="edge12_Node000011_Node000012" class="edge">
<title>Node11&#45;&gt;Node12</title>
<g id="a_edge12_Node000011_Node000012"><a xlink:title=" ">
<path fill="none" stroke="#63b8ff" d="M159.33,-192.98C150.55,-182.32 140.99,-170.71 132.36,-160.23"/>
<polygon fill="#63b8ff" stroke="#63b8ff" points="156.46,-195 165.52,-200.5 161.86,-190.55 156.46,-195"/>
</a>
</g>
</g>
<!-- Node15 -->
<g id="Node000015" class="node">
<title>Node15</title>
<g id="a_Node000015"><a xlink:href="_skill_buff_data_8cpp.html" target="_top" xlink:title=" ">
<polygon fill="white" stroke="#666666" points="1245.49,-154 1112.49,-154 1112.49,-98 1245.49,-98 1245.49,-154"/>
<text xml:space="preserve" text-anchor="start" x="1120.49" y="-140.5" font-family="Helvetica,sans-Serif" font-size="10.00">C:/Users/user/Perforce</text>
<text xml:space="preserve" text-anchor="start" x="1120.49" y="-128.5" font-family="Helvetica,sans-Serif" font-size="10.00">/alz7_CobaltbruWorkspace</text>
<text xml:space="preserve" text-anchor="start" x="1120.49" y="-116.5" font-family="Helvetica,sans-Serif" font-size="10.00">_00/KPT/Source/KPT/Skill</text>
<text xml:space="preserve" text-anchor="middle" x="1178.99" y="-104.5" font-family="Helvetica,sans-Serif" font-size="10.00">/Data/SkillBuffData.cpp</text>
</a>
</g>
</g>
<!-- Node14&#45;&gt;Node15 -->
<g id="edge17_Node000014_Node000015" class="edge">
<title>Node14&#45;&gt;Node15</title>
<g id="a_edge17_Node000014_Node000015"><a xlink:title=" ">
<path fill="none" stroke="#63b8ff" d="M1139.47,-192.02C1147.02,-179.6 1155.31,-165.97 1162.33,-154.41"/>
<polygon fill="#63b8ff" stroke="#63b8ff" points="1136.6,-190.01 1134.39,-200.37 1142.58,-193.65 1136.6,-190.01"/>
</a>
</g>
</g>
<!-- Node16 -->
<g id="Node000016" class="node">
<title>Node16</title>
<g id="a_Node000016"><a xlink:href="_skill_buff_system_statics_8h.html" target="_top" xlink:title=" ">
<polygon fill="white" stroke="#666666" points="892.49,-154 759.49,-154 759.49,-98 892.49,-98 892.49,-154"/>
<text xml:space="preserve" text-anchor="start" x="767.49" y="-140.5" font-family="Helvetica,sans-Serif" font-size="10.00">C:/Users/user/Perforce</text>
<text xml:space="preserve" text-anchor="start" x="767.49" y="-128.5" font-family="Helvetica,sans-Serif" font-size="10.00">/alz7_CobaltbruWorkspace</text>
<text xml:space="preserve" text-anchor="start" x="767.49" y="-116.5" font-family="Helvetica,sans-Serif" font-size="10.00">_00/KPT/Source/KPT/Skill</text>
<text xml:space="preserve" text-anchor="middle" x="825.99" y="-104.5" font-family="Helvetica,sans-Serif" font-size="10.00">/SkillBuffSystemStatics.h</text>
</a>
</g>
</g>
<!-- Node14&#45;&gt;Node16 -->
<g id="edge18_Node000014_Node000016" class="edge">
<title>Node14&#45;&gt;Node16</title>
<g id="a_edge18_Node000014_Node000016"><a xlink:title=" ">
<path fill="none" stroke="#63b8ff" d="M1040.11,-197.53C1038.73,-197.01 1037.36,-196.5 1035.99,-196 988.45,-178.53 934.1,-160.73 892.61,-147.58"/>
<polygon fill="#63b8ff" stroke="#63b8ff" points="1038.83,-200.78 1049.42,-201.07 1041.32,-194.24 1038.83,-200.78"/>
</a>
</g>
</g>
<!-- Node16&#45;&gt;Node6 -->
<g id="edge20_Node000016_Node000006" class="edge">
<title>Node16&#45;&gt;Node6</title>
<g id="a_edge20_Node000016_Node000006"><a xlink:title=" ">
<path fill="none" stroke="#63b8ff" d="M755.4,-93.79C753.59,-93.17 751.78,-92.57 749.99,-92 676.42,-68.5 655.37,-72.83 579.99,-56 577.19,-55.37 574.35,-54.74 571.49,-54.09"/>
<polygon fill="#63b8ff" stroke="#63b8ff" points="753.83,-96.95 764.42,-97.07 756.22,-90.37 753.83,-96.95"/>
</a>
</g>
</g>
<!-- Node16&#45;&gt;Node8 -->
<g id="edge23_Node000016_Node000008" class="edge">
<title>Node16&#45;&gt;Node8</title>
<g id="a_edge23_Node000016_Node000008"><a xlink:title=" ">
<path fill="none" stroke="#63b8ff" d="M901.42,-93.81C903.29,-93.18 905.15,-92.58 906.99,-92 976.11,-70.26 996.17,-75.35 1065.99,-56 1068.88,-55.2 1071.82,-54.36 1074.78,-53.49"/>
<polygon fill="#63b8ff" stroke="#63b8ff" points="900.36,-90.47 892.07,-97.07 902.66,-97.08 900.36,-90.47"/>
</a>
</g>
</g>
<!-- Node17 -->
<g id="Node000017" class="node">
<title>Node17</title>
<g id="a_Node000017"><a xlink:href="_k_p_t_cheat_manager_8cpp.html" target="_top" xlink:title=" ">
<polygon fill="white" stroke="#666666" points="739.12,-56 588.87,-56 588.87,0 739.12,0 739.12,-56"/>
<text xml:space="preserve" text-anchor="start" x="596.87" y="-42.5" font-family="Helvetica,sans-Serif" font-size="10.00">C:/Users/user/Perforce</text>
<text xml:space="preserve" text-anchor="start" x="596.87" y="-30.5" font-family="Helvetica,sans-Serif" font-size="10.00">/alz7_CobaltbruWorkspace</text>
<text xml:space="preserve" text-anchor="start" x="596.87" y="-18.5" font-family="Helvetica,sans-Serif" font-size="10.00">_00/KPT/Source/KPT/Core</text>
<text xml:space="preserve" text-anchor="middle" x="663.99" y="-6.5" font-family="Helvetica,sans-Serif" font-size="10.00">/Cheat/KPTCheatManager.cpp</text>
</a>
</g>
</g>
<!-- Node16&#45;&gt;Node17 -->
<g id="edge19_Node000016_Node000017" class="edge">
<title>Node16&#45;&gt;Node17</title>
<g id="a_edge19_Node000016_Node000017"><a xlink:title=" ">
<path fill="none" stroke="#63b8ff" d="M770.32,-92.01C750.78,-80.43 729.07,-67.56 710.38,-56.49"/>
<polygon fill="#63b8ff" stroke="#63b8ff" points="768.31,-94.89 778.7,-96.98 771.88,-88.87 768.31,-94.89"/>
</a>
</g>
</g>
<!-- Node18 -->
<g id="Node000018" class="node">
<title>Node18</title>
<g id="a_Node000018"><a xlink:href="_skill_buff_system_statics_8cpp.html" target="_top" xlink:title=" ">
<polygon fill="white" stroke="#666666" points="895.12,-56 756.87,-56 756.87,0 895.12,0 895.12,-56"/>
<text xml:space="preserve" text-anchor="start" x="764.87" y="-42.5" font-family="Helvetica,sans-Serif" font-size="10.00">C:/Users/user/Perforce</text>
<text xml:space="preserve" text-anchor="start" x="764.87" y="-30.5" font-family="Helvetica,sans-Serif" font-size="10.00">/alz7_CobaltbruWorkspace</text>
<text xml:space="preserve" text-anchor="start" x="764.87" y="-18.5" font-family="Helvetica,sans-Serif" font-size="10.00">_00/KPT/Source/KPT/Skill</text>
<text xml:space="preserve" text-anchor="middle" x="825.99" y="-6.5" font-family="Helvetica,sans-Serif" font-size="10.00">/SkillBuffSystemStatics.cpp</text>
</a>
</g>
</g>
<!-- Node16&#45;&gt;Node18 -->
<g id="edge21_Node000016_Node000018" class="edge">
<title>Node16&#45;&gt;Node18</title>
<g id="a_edge21_Node000016_Node000018"><a xlink:title=" ">
<path fill="none" stroke="#63b8ff" d="M825.99,-86.32C825.99,-76.27 825.99,-65.65 825.99,-56.32"/>
<polygon fill="#63b8ff" stroke="#63b8ff" points="822.49,-86.23 825.99,-96.23 829.49,-86.23 822.49,-86.23"/>
</a>
</g>
</g>
<!-- Node19 -->
<g id="Node000019" class="node">
<title>Node19</title>
<g id="a_Node000019"><a xlink:href="_skill_manager_component_8cpp.html" target="_top" xlink:title=" ">
<polygon fill="white" stroke="#666666" points="1057.12,-56 912.87,-56 912.87,0 1057.12,0 1057.12,-56"/>
<text xml:space="preserve" text-anchor="start" x="920.87" y="-42.5" font-family="Helvetica,sans-Serif" font-size="10.00">C:/Users/user/Perforce</text>
<text xml:space="preserve" text-anchor="start" x="920.87" y="-30.5" font-family="Helvetica,sans-Serif" font-size="10.00">/alz7_CobaltbruWorkspace</text>
<text xml:space="preserve" text-anchor="start" x="920.87" y="-18.5" font-family="Helvetica,sans-Serif" font-size="10.00">_00/KPT/Source/KPT/Skill</text>
<text xml:space="preserve" text-anchor="middle" x="984.99" y="-6.5" font-family="Helvetica,sans-Serif" font-size="10.00">/SkillManagerComponent.cpp</text>
</a>
</g>
</g>
<!-- Node16&#45;&gt;Node19 -->
<g id="edge22_Node000016_Node000019" class="edge">
<title>Node16&#45;&gt;Node19</title>
<g id="a_edge22_Node000016_Node000019"><a xlink:title=" ">
<path fill="none" stroke="#63b8ff" d="M880.9,-91.85C900,-80.31 921.21,-67.51 939.47,-56.49"/>
<polygon fill="#63b8ff" stroke="#63b8ff" points="879.18,-88.8 872.43,-96.96 882.8,-94.79 879.18,-88.8"/>
</a>
</g>
</g>
<!-- Node20&#45;&gt;Node7 -->
<g id="edge26_Node000020_Node000007" class="edge">
<title>Node20&#45;&gt;Node7</title>
<g id="a_edge26_Node000020_Node000007"><a xlink:title=" ">
<path fill="none" stroke="#63b8ff" d="M1196.39,-197.38C1195.25,-196.92 1194.12,-196.46 1192.99,-196 1159.17,-182.29 1121.56,-167.1 1090.25,-154.48"/>
<polygon fill="#63b8ff" stroke="#63b8ff" points="1194.83,-200.52 1205.41,-201.04 1197.47,-194.04 1194.83,-200.52"/>
</a>
</g>
</g>
<!-- Node20&#45;&gt;Node8 -->
<g id="edge27_Node000020_Node000008" class="edge">
<title>Node20&#45;&gt;Node8</title>
<g id="a_edge27_Node000020_Node000008"><a xlink:title=" ">
<path fill="none" stroke="#63b8ff" d="M1277.28,-190.15C1277.82,-160.84 1274.26,-120.88 1254.99,-92 1245.18,-77.29 1230.68,-65.55 1215.5,-56.37"/>
<polygon fill="#63b8ff" stroke="#63b8ff" points="1273.78,-189.96 1276.9,-200.09 1280.78,-190.23 1273.78,-189.96"/>
</a>
</g>
</g>
<!-- Node21 -->
<g id="Node000021" class="node">
<title>Node21</title>
<g id="a_Node000021"><a xlink:href="_in_game_h_u_d_8cpp.html" target="_top" xlink:title=" ">
<polygon fill="white" stroke="#666666" points="1463.74,-154 1302.24,-154 1302.24,-98 1463.74,-98 1463.74,-154"/>
<text xml:space="preserve" text-anchor="start" x="1310.24" y="-140.5" font-family="Helvetica,sans-Serif" font-size="10.00">C:/Users/user/Perforce</text>
<text xml:space="preserve" text-anchor="start" x="1310.24" y="-128.5" font-family="Helvetica,sans-Serif" font-size="10.00">/alz7_CobaltbruWorkspace</text>
<text xml:space="preserve" text-anchor="start" x="1310.24" y="-116.5" font-family="Helvetica,sans-Serif" font-size="10.00">_00/KPT/Source/KPT/UI/InGame</text>
<text xml:space="preserve" text-anchor="middle" x="1382.99" y="-104.5" font-family="Helvetica,sans-Serif" font-size="10.00">/InGameHUD.cpp</text>
</a>
</g>
</g>
<!-- Node20&#45;&gt;Node21 -->
<g id="edge25_Node000020_Node000021" class="edge">
<title>Node20&#45;&gt;Node21</title>
<g id="a_edge25_Node000020_Node000021"><a xlink:title=" ">
<path fill="none" stroke="#63b8ff" d="M1311.55,-193.86C1325.34,-180.95 1340.74,-166.54 1353.7,-154.41"/>
<polygon fill="#63b8ff" stroke="#63b8ff" points="1309.22,-191.24 1304.31,-200.63 1314,-196.35 1309.22,-191.24"/>
</a>
</g>
</g>
</g>
</svg>
