<?xml version="1.0" encoding="UTF-8" standalone="no"?>
<!DOCTYPE svg PUBLIC "-//W3C//DTD SVG 1.1//EN"
 "http://www.w3.org/Graphics/SVG/1.1/DTD/svg11.dtd">
<!-- Generated by graphviz version 13.1.1 (20250719.2154)
 -->
<!-- Title: C:/Users/user/Perforce/alz7_CobaltbruWorkspace_00/KPT/Source/KPT/UI/InGame/InGameHUD.h Pages: 1 -->
<svg width="2312pt" height="300pt"
 viewBox="0.00 0.00 2312.00 300.00" xmlns="http://www.w3.org/2000/svg" xmlns:xlink="http://www.w3.org/1999/xlink">
<g id="graph0" class="graph" transform="scale(1 1) rotate(0) translate(4 296)">
<title>C:/Users/user/Perforce/alz7_CobaltbruWorkspace_00/KPT/Source/KPT/UI/InGame/InGameHUD.h</title>
<!-- Node1 -->
<g id="Node000001" class="node">
<title>Node1</title>
<g id="a_Node000001"><a xlink:title=" ">
<polygon fill="#999999" stroke="#666666" points="1092.25,-292 930.75,-292 930.75,-236 1092.25,-236 1092.25,-292"/>
<text xml:space="preserve" text-anchor="start" x="938.75" y="-278.5" font-family="Helvetica,sans-Serif" font-size="10.00">C:/Users/user/Perforce</text>
<text xml:space="preserve" text-anchor="start" x="938.75" y="-266.5" font-family="Helvetica,sans-Serif" font-size="10.00">/alz7_CobaltbruWorkspace</text>
<text xml:space="preserve" text-anchor="start" x="938.75" y="-254.5" font-family="Helvetica,sans-Serif" font-size="10.00">_00/KPT/Source/KPT/UI/InGame</text>
<text xml:space="preserve" text-anchor="middle" x="1011.5" y="-242.5" font-family="Helvetica,sans-Serif" font-size="10.00">/InGameHUD.h</text>
</a>
</g>
</g>
<!-- Node2 -->
<g id="Node000002" class="node">
<title>Node2</title>
<g id="a_Node000002"><a xlink:title=" ">
<polygon fill="#e0e0e0" stroke="#999999" points="999,-20 920,-20 920,0 999,0 999,-20"/>
<text xml:space="preserve" text-anchor="middle" x="959.5" y="-6.5" font-family="Helvetica,sans-Serif" font-size="10.00">CoreMinimal.h</text>
</a>
</g>
</g>
<!-- Node1&#45;&gt;Node2 -->
<g id="edge1_Node000001_Node000002" class="edge">
<title>Node1&#45;&gt;Node2</title>
<g id="a_edge1_Node000001_Node000002"><a xlink:title=" ">
<path fill="none" stroke="#63b8ff" d="M987.71,-235.6C979.93,-225.14 972.11,-212.66 967.5,-200 946.37,-142.01 951.95,-67.31 956.41,-31.69"/>
<polygon fill="#63b8ff" stroke="#63b8ff" points="959.86,-32.31 957.75,-21.93 952.93,-31.36 959.86,-32.31"/>
</a>
</g>
</g>
<!-- Node3 -->
<g id="Node000003" class="node">
<title>Node3</title>
<g id="a_Node000003"><a xlink:title=" ">
<polygon fill="#e0e0e0" stroke="#999999" points="1182.5,-200 1064.5,-200 1064.5,-180 1182.5,-180 1182.5,-200"/>
<text xml:space="preserve" text-anchor="middle" x="1123.5" y="-186.5" font-family="Helvetica,sans-Serif" font-size="10.00">NativeGameplayTags.h</text>
</a>
</g>
</g>
<!-- Node1&#45;&gt;Node3 -->
<g id="edge2_Node000001_Node000003" class="edge">
<title>Node1&#45;&gt;Node3</title>
<g id="a_edge2_Node000001_Node000003"><a xlink:title=" ">
<path fill="none" stroke="#63b8ff" d="M1054.16,-235.57C1069.53,-225.69 1086.32,-214.9 1099.53,-206.41"/>
<polygon fill="#63b8ff" stroke="#63b8ff" points="1101.06,-209.59 1107.58,-201.23 1097.28,-203.7 1101.06,-209.59"/>
</a>
</g>
</g>
<!-- Node4 -->
<g id="Node000004" class="node">
<title>Node4</title>
<g id="a_Node000004"><a xlink:href="_k_p_t_player_state_8h.html" target="_top" xlink:title=" ">
<polygon fill="white" stroke="#666666" points="690.75,-144 550.25,-144 550.25,-124 690.75,-124 690.75,-144"/>
<text xml:space="preserve" text-anchor="middle" x="620.5" y="-130.5" font-family="Helvetica,sans-Serif" font-size="10.00">Character/KPTPlayerState.h</text>
</a>
</g>
</g>
<!-- Node1&#45;&gt;Node4 -->
<g id="edge3_Node000001_Node000004" class="edge">
<title>Node1&#45;&gt;Node4</title>
<g id="a_edge3_Node000001_Node000004"><a xlink:title=" ">
<path fill="none" stroke="#63b8ff" d="M930.48,-236.48C847.77,-209.4 722.83,-168.5 659.81,-147.87"/>
<polygon fill="#63b8ff" stroke="#63b8ff" points="661.18,-144.64 650.59,-144.85 659.01,-151.29 661.18,-144.64"/>
</a>
</g>
</g>
<!-- Node12 -->
<g id="Node000012" class="node">
<title>Node12</title>
<g id="a_Node000012"><a xlink:href="_u_i_base_8h.html" target="_top" xlink:title=" ">
<polygon fill="white" stroke="#666666" points="1046.88,-200 976.12,-200 976.12,-180 1046.88,-180 1046.88,-200"/>
<text xml:space="preserve" text-anchor="middle" x="1011.5" y="-186.5" font-family="Helvetica,sans-Serif" font-size="10.00">UI/UIBase.h</text>
</a>
</g>
</g>
<!-- Node1&#45;&gt;Node12 -->
<g id="edge13_Node000001_Node000012" class="edge">
<title>Node1&#45;&gt;Node12</title>
<g id="a_edge13_Node000001_Node000012"><a xlink:title=" ">
<path fill="none" stroke="#63b8ff" d="M1011.5,-235.78C1011.5,-227.82 1011.5,-219.25 1011.5,-211.76"/>
<polygon fill="#63b8ff" stroke="#63b8ff" points="1015,-211.99 1011.5,-201.99 1008,-211.99 1015,-211.99"/>
</a>
</g>
</g>
<!-- Node30 -->
<g id="Node000030" class="node">
<title>Node30</title>
<g id="a_Node000030"><a xlink:title=" ">
<polygon fill="#e0e0e0" stroke="#999999" points="1328,-200 1201,-200 1201,-180 1328,-180 1328,-200"/>
<text xml:space="preserve" text-anchor="middle" x="1264.5" y="-186.5" font-family="Helvetica,sans-Serif" font-size="10.00">InGameHUD.generated.h</text>
</a>
</g>
</g>
<!-- Node1&#45;&gt;Node30 -->
<g id="edge36_Node000001_Node000030" class="edge">
<title>Node1&#45;&gt;Node30</title>
<g id="a_edge36_Node000001_Node000030"><a xlink:title=" ">
<path fill="none" stroke="#63b8ff" d="M1092.59,-239.92C1134.98,-227.86 1185.21,-213.56 1220.39,-203.55"/>
<polygon fill="#63b8ff" stroke="#63b8ff" points="1221.14,-206.98 1229.8,-200.88 1219.22,-200.25 1221.14,-206.98"/>
</a>
</g>
</g>
<!-- Node4&#45;&gt;Node2 -->
<g id="edge4_Node000004_Node000002" class="edge">
<title>Node4&#45;&gt;Node2</title>
<g id="a_edge4_Node000004_Node000002"><a xlink:title=" ">
<path fill="none" stroke="#63b8ff" d="M691.12,-129.25C741.4,-124.41 809.53,-113.33 864.5,-88 873,-84.08 914.87,-49.03 940.1,-27.59"/>
<polygon fill="#63b8ff" stroke="#63b8ff" points="942.06,-30.52 947.4,-21.37 937.52,-25.19 942.06,-30.52"/>
</a>
</g>
</g>
<!-- Node5 -->
<g id="Node000005" class="node">
<title>Node5</title>
<g id="a_Node000005"><a xlink:title=" ">
<polygon fill="#e0e0e0" stroke="#999999" points="381.12,-82 257.88,-82 257.88,-62 381.12,-62 381.12,-82"/>
<text xml:space="preserve" text-anchor="middle" x="319.5" y="-68.5" font-family="Helvetica,sans-Serif" font-size="10.00">AbilitySystemInterface.h</text>
</a>
</g>
</g>
<!-- Node4&#45;&gt;Node5 -->
<g id="edge5_Node000004_Node000005" class="edge">
<title>Node4&#45;&gt;Node5</title>
<g id="a_edge5_Node000004_Node000005"><a xlink:title=" ">
<path fill="none" stroke="#63b8ff" d="M571.1,-123.56C524.5,-114.6 452.7,-100.65 390.5,-88 385.37,-86.96 380.03,-85.86 374.69,-84.74"/>
<polygon fill="#63b8ff" stroke="#63b8ff" points="375.78,-81.4 365.27,-82.77 374.34,-88.25 375.78,-81.4"/>
</a>
</g>
</g>
<!-- Node6 -->
<g id="Node000006" class="node">
<title>Node6</title>
<g id="a_Node000006"><a xlink:title=" ">
<polygon fill="#e0e0e0" stroke="#999999" points="525.62,-82 399.38,-82 399.38,-62 525.62,-62 525.62,-82"/>
<text xml:space="preserve" text-anchor="middle" x="462.5" y="-68.5" font-family="Helvetica,sans-Serif" font-size="10.00">GameplayTagContainer.h</text>
</a>
</g>
</g>
<!-- Node4&#45;&gt;Node6 -->
<g id="edge6_Node000004_Node000006" class="edge">
<title>Node4&#45;&gt;Node6</title>
<g id="a_edge6_Node000004_Node000006"><a xlink:title=" ">
<path fill="none" stroke="#63b8ff" d="M595.81,-123.62C569.45,-113.62 527.46,-97.67 497.65,-86.35"/>
<polygon fill="#63b8ff" stroke="#63b8ff" points="499.28,-83.22 488.69,-82.95 496.8,-89.77 499.28,-83.22"/>
</a>
</g>
</g>
<!-- Node7 -->
<g id="Node000007" class="node">
<title>Node7</title>
<g id="a_Node000007"><a xlink:href="_component_owner_interface_8h.html" target="_top" xlink:title=" ">
<polygon fill="white" stroke="#666666" points="240.25,-88 108.75,-88 108.75,-56 240.25,-56 240.25,-88"/>
<text xml:space="preserve" text-anchor="start" x="116.75" y="-74.5" font-family="Helvetica,sans-Serif" font-size="10.00">Core/Interface/Component</text>
<text xml:space="preserve" text-anchor="middle" x="174.5" y="-62.5" font-family="Helvetica,sans-Serif" font-size="10.00">OwnerInterface.h</text>
</a>
</g>
</g>
<!-- Node4&#45;&gt;Node7 -->
<g id="edge7_Node000004_Node000007" class="edge">
<title>Node4&#45;&gt;Node7</title>
<g id="a_edge7_Node000004_Node000007"><a xlink:title=" ">
<path fill="none" stroke="#63b8ff" d="M549.99,-126.16C477.49,-118.75 361.07,-105.78 251.84,-88.47"/>
<polygon fill="#63b8ff" stroke="#63b8ff" points="252.54,-85.04 242.11,-86.91 251.43,-91.95 252.54,-85.04"/>
</a>
</g>
</g>
<!-- Node10 -->
<g id="Node000010" class="node">
<title>Node10</title>
<g id="a_Node000010"><a xlink:title=" ">
<polygon fill="#e0e0e0" stroke="#999999" points="697.12,-82 543.88,-82 543.88,-62 697.12,-62 697.12,-82"/>
<text xml:space="preserve" text-anchor="middle" x="620.5" y="-68.5" font-family="Helvetica,sans-Serif" font-size="10.00">GameFramework/PlayerState.h</text>
</a>
</g>
</g>
<!-- Node4&#45;&gt;Node10 -->
<g id="edge11_Node000004_Node000010" class="edge">
<title>Node4&#45;&gt;Node10</title>
<g id="a_edge11_Node000004_Node000010"><a xlink:title=" ">
<path fill="none" stroke="#63b8ff" d="M620.5,-123.62C620.5,-115.56 620.5,-103.65 620.5,-93.41"/>
<polygon fill="#63b8ff" stroke="#63b8ff" points="624,-93.63 620.5,-83.63 617,-93.63 624,-93.63"/>
</a>
</g>
</g>
<!-- Node11 -->
<g id="Node000011" class="node">
<title>Node11</title>
<g id="a_Node000011"><a xlink:title=" ">
<polygon fill="#e0e0e0" stroke="#999999" points="855.75,-82 715.25,-82 715.25,-62 855.75,-62 855.75,-82"/>
<text xml:space="preserve" text-anchor="middle" x="785.5" y="-68.5" font-family="Helvetica,sans-Serif" font-size="10.00">KPTPlayerState.generated.h</text>
</a>
</g>
</g>
<!-- Node4&#45;&gt;Node11 -->
<g id="edge12_Node000004_Node000011" class="edge">
<title>Node4&#45;&gt;Node11</title>
<g id="a_edge12_Node000004_Node000011"><a xlink:title=" ">
<path fill="none" stroke="#63b8ff" d="M646.28,-123.62C673.93,-113.57 718.05,-97.53 749.2,-86.2"/>
<polygon fill="#63b8ff" stroke="#63b8ff" points="750,-89.63 758.21,-82.93 747.61,-83.05 750,-89.63"/>
</a>
</g>
</g>
<!-- Node7&#45;&gt;Node2 -->
<g id="edge8_Node000007_Node000002" class="edge">
<title>Node7&#45;&gt;Node2</title>
<g id="a_edge8_Node000007_Node000002"><a xlink:title=" ">
<path fill="none" stroke="#63b8ff" d="M240.59,-57.14C243.26,-56.73 245.9,-56.34 248.5,-56 494.18,-23.48 790.84,-14.3 908.17,-11.84"/>
<polygon fill="#63b8ff" stroke="#63b8ff" points="908.17,-15.35 918.1,-11.65 908.03,-8.35 908.17,-15.35"/>
</a>
</g>
</g>
<!-- Node8 -->
<g id="Node000008" class="node">
<title>Node8</title>
<g id="a_Node000008"><a xlink:title=" ">
<polygon fill="#e0e0e0" stroke="#999999" points="306.25,-20 204.75,-20 204.75,0 306.25,0 306.25,-20"/>
<text xml:space="preserve" text-anchor="middle" x="255.5" y="-6.5" font-family="Helvetica,sans-Serif" font-size="10.00">UObject/Interface.h</text>
</a>
</g>
</g>
<!-- Node7&#45;&gt;Node8 -->
<g id="edge9_Node000007_Node000008" class="edge">
<title>Node7&#45;&gt;Node8</title>
<g id="a_edge9_Node000007_Node000008"><a xlink:title=" ">
<path fill="none" stroke="#63b8ff" d="M195.36,-55.55C207.08,-46.87 221.69,-36.04 233.58,-27.24"/>
<polygon fill="#63b8ff" stroke="#63b8ff" points="235.63,-30.07 241.58,-21.31 231.46,-24.45 235.63,-30.07"/>
</a>
</g>
</g>
<!-- Node9 -->
<g id="Node000009" class="node">
<title>Node9</title>
<g id="a_Node000009"><a xlink:title=" ">
<polygon fill="#e0e0e0" stroke="#999999" points="187,-20 0,-20 0,0 187,0 187,-20"/>
<text xml:space="preserve" text-anchor="middle" x="93.5" y="-6.5" font-family="Helvetica,sans-Serif" font-size="10.00">ComponentOwnerInterface.generated.h</text>
</a>
</g>
</g>
<!-- Node7&#45;&gt;Node9 -->
<g id="edge10_Node000007_Node000009" class="edge">
<title>Node7&#45;&gt;Node9</title>
<g id="a_edge10_Node000007_Node000009"><a xlink:title=" ">
<path fill="none" stroke="#63b8ff" d="M153.64,-55.55C141.92,-46.87 127.31,-36.04 115.42,-27.24"/>
<polygon fill="#63b8ff" stroke="#63b8ff" points="117.54,-24.45 107.42,-21.31 113.37,-30.07 117.54,-24.45"/>
</a>
</g>
</g>
<!-- Node12&#45;&gt;Node2 -->
<g id="edge14_Node000012_Node000002" class="edge">
<title>Node12&#45;&gt;Node2</title>
<g id="a_edge14_Node000012_Node000002"><a xlink:title=" ">
<path fill="none" stroke="#63b8ff" d="M1002.94,-179.78C995.48,-171.19 985.03,-157.69 979.5,-144 964.33,-106.41 960.53,-58.65 959.67,-31.79"/>
<polygon fill="#63b8ff" stroke="#63b8ff" points="963.17,-31.86 959.47,-21.93 956.17,-32 963.17,-31.86"/>
</a>
</g>
</g>
<!-- Node13 -->
<g id="Node000013" class="node">
<title>Node13</title>
<g id="a_Node000013"><a xlink:title=" ">
<polygon fill="#e0e0e0" stroke="#999999" points="1446.12,-20 1328.88,-20 1328.88,0 1446.12,0 1446.12,-20"/>
<text xml:space="preserve" text-anchor="middle" x="1387.5" y="-6.5" font-family="Helvetica,sans-Serif" font-size="10.00">Blueprint/UserWidget.h</text>
</a>
</g>
</g>
<!-- Node12&#45;&gt;Node13 -->
<g id="edge15_Node000012_Node000013" class="edge">
<title>Node12&#45;&gt;Node13</title>
<g id="a_edge15_Node000012_Node000013"><a xlink:title=" ">
<path fill="none" stroke="#63b8ff" d="M1046.98,-181.39C1049.86,-180.88 1052.72,-180.41 1055.5,-180 1227.5,-154.57 1718.72,-219.48 1832.5,-88 1841.81,-77.25 1842.06,-66.53 1832.5,-56 1804.43,-25.1 1499.99,-24.63 1458.5,-20 1458.25,-19.97 1458.01,-19.94 1457.76,-19.92"/>
<polygon fill="#63b8ff" stroke="#63b8ff" points="1458.21,-16.45 1447.88,-18.78 1457.41,-23.4 1458.21,-16.45"/>
</a>
</g>
</g>
<!-- Node14 -->
<g id="Node000014" class="node">
<title>Node14</title>
<g id="a_Node000014"><a xlink:href="_u_i_manager_subsystem_8h.html" target="_top" xlink:title=" ">
<polygon fill="white" stroke="#666666" points="1437.62,-144 1275.38,-144 1275.38,-124 1437.62,-124 1437.62,-144"/>
<text xml:space="preserve" text-anchor="middle" x="1356.5" y="-130.5" font-family="Helvetica,sans-Serif" font-size="10.00">Manager/UIManagerSubsystem.h</text>
</a>
</g>
</g>
<!-- Node12&#45;&gt;Node14 -->
<g id="edge16_Node000012_Node000014" class="edge">
<title>Node12&#45;&gt;Node14</title>
<g id="a_edge16_Node000012_Node000014"><a xlink:title=" ">
<path fill="none" stroke="#63b8ff" d="M1047.01,-181.57C1049.88,-181.02 1052.74,-180.49 1055.5,-180 1129.46,-166.92 1214.09,-154.49 1274.74,-146.02"/>
<polygon fill="#63b8ff" stroke="#63b8ff" points="1274.86,-149.54 1284.28,-144.7 1273.89,-142.61 1274.86,-149.54"/>
</a>
</g>
</g>
<!-- Node29 -->
<g id="Node000029" class="node">
<title>Node29</title>
<g id="a_Node000029"><a xlink:title=" ">
<polygon fill="#e0e0e0" stroke="#999999" points="1091,-144 988,-144 988,-124 1091,-124 1091,-144"/>
<text xml:space="preserve" text-anchor="middle" x="1039.5" y="-130.5" font-family="Helvetica,sans-Serif" font-size="10.00">UIBase.generated.h</text>
</a>
</g>
</g>
<!-- Node12&#45;&gt;Node29 -->
<g id="edge35_Node000012_Node000029" class="edge">
<title>Node12&#45;&gt;Node29</title>
<g id="a_edge35_Node000012_Node000029"><a xlink:title=" ">
<path fill="none" stroke="#63b8ff" d="M1016.38,-179.59C1019.99,-172.63 1025.04,-162.89 1029.5,-154.29"/>
<polygon fill="#63b8ff" stroke="#63b8ff" points="1032.49,-156.13 1033.98,-145.64 1026.27,-152.91 1032.49,-156.13"/>
</a>
</g>
</g>
<!-- Node14&#45;&gt;Node2 -->
<g id="edge17_Node000014_Node000002" class="edge">
<title>Node14&#45;&gt;Node2</title>
<g id="a_edge17_Node000014_Node000002"><a xlink:title=" ">
<path fill="none" stroke="#63b8ff" d="M1274.98,-129.48C1188.61,-124.5 1058.95,-113.02 1016.5,-88 993.94,-74.71 977.57,-48.64 968.31,-30.54"/>
<polygon fill="#63b8ff" stroke="#63b8ff" points="971.51,-29.11 964.02,-21.62 965.2,-32.15 971.51,-29.11"/>
</a>
</g>
</g>
<!-- Node15 -->
<g id="Node000015" class="node">
<title>Node15</title>
<g id="a_Node000015"><a xlink:title=" ">
<polygon fill="#e0e0e0" stroke="#999999" points="1367.75,-82 1185.25,-82 1185.25,-62 1367.75,-62 1367.75,-82"/>
<text xml:space="preserve" text-anchor="middle" x="1276.5" y="-68.5" font-family="Helvetica,sans-Serif" font-size="10.00">Subsystems/LocalPlayerSubsystem.h</text>
</a>
</g>
</g>
<!-- Node14&#45;&gt;Node15 -->
<g id="edge18_Node000014_Node000015" class="edge">
<title>Node14&#45;&gt;Node15</title>
<g id="a_edge18_Node000014_Node000015"><a xlink:title=" ">
<path fill="none" stroke="#63b8ff" d="M1344,-123.62C1331.67,-114.38 1312.59,-100.07 1297.85,-89.01"/>
<polygon fill="#63b8ff" stroke="#63b8ff" points="1300.22,-86.42 1290.12,-83.22 1296.02,-92.02 1300.22,-86.42"/>
</a>
</g>
</g>
<!-- Node16 -->
<g id="Node000016" class="node">
<title>Node16</title>
<g id="a_Node000016"><a xlink:title=" ">
<polygon fill="#e0e0e0" stroke="#999999" points="1489,-82 1386,-82 1386,-62 1489,-62 1489,-82"/>
<text xml:space="preserve" text-anchor="middle" x="1437.5" y="-68.5" font-family="Helvetica,sans-Serif" font-size="10.00">Containers/Queue.h</text>
</a>
</g>
</g>
<!-- Node14&#45;&gt;Node16 -->
<g id="edge19_Node000014_Node000016" class="edge">
<title>Node14&#45;&gt;Node16</title>
<g id="a_edge19_Node000014_Node000016"><a xlink:title=" ">
<path fill="none" stroke="#63b8ff" d="M1369.16,-123.62C1381.64,-114.38 1400.96,-100.07 1415.88,-89.01"/>
<polygon fill="#63b8ff" stroke="#63b8ff" points="1417.76,-91.97 1423.72,-83.21 1413.6,-86.35 1417.76,-91.97"/>
</a>
</g>
</g>
<!-- Node17 -->
<g id="Node000017" class="node">
<title>Node17</title>
<g id="a_Node000017"><a xlink:href="_level_u_i_data_asset_8h.html" target="_top" xlink:title=" ">
<polygon fill="white" stroke="#666666" points="1167.5,-82 1025.5,-82 1025.5,-62 1167.5,-62 1167.5,-82"/>
<text xml:space="preserve" text-anchor="middle" x="1096.5" y="-68.5" font-family="Helvetica,sans-Serif" font-size="10.00">UI/Data/LevelUIDataAsset.h</text>
</a>
</g>
</g>
<!-- Node14&#45;&gt;Node17 -->
<g id="edge20_Node000014_Node000017" class="edge">
<title>Node14&#45;&gt;Node17</title>
<g id="a_edge20_Node000014_Node000017"><a xlink:title=" ">
<path fill="none" stroke="#63b8ff" d="M1315.59,-123.56C1270.48,-113.15 1197.8,-96.38 1148.64,-85.03"/>
<polygon fill="#63b8ff" stroke="#63b8ff" points="1149.61,-81.66 1139.08,-82.83 1148.03,-88.48 1149.61,-81.66"/>
</a>
</g>
</g>
<!-- Node20 -->
<g id="Node000020" class="node">
<title>Node20</title>
<g id="a_Node000020"><a xlink:title=" ">
<polygon fill="#e0e0e0" stroke="#999999" points="1637.88,-82 1507.12,-82 1507.12,-62 1637.88,-62 1637.88,-82"/>
<text xml:space="preserve" text-anchor="middle" x="1572.5" y="-68.5" font-family="Helvetica,sans-Serif" font-size="10.00">UObject/NoExportTypes.h</text>
</a>
</g>
</g>
<!-- Node14&#45;&gt;Node20 -->
<g id="edge25_Node000014_Node000020" class="edge">
<title>Node14&#45;&gt;Node20</title>
<g id="a_edge25_Node000014_Node000020"><a xlink:title=" ">
<path fill="none" stroke="#63b8ff" d="M1390.25,-123.62C1427.23,-113.35 1486.73,-96.82 1527.62,-85.47"/>
<polygon fill="#63b8ff" stroke="#63b8ff" points="1528.47,-88.86 1537.17,-82.81 1526.6,-82.12 1528.47,-88.86"/>
</a>
</g>
</g>
<!-- Node21 -->
<g id="Node000021" class="node">
<title>Node21</title>
<g id="a_Node000021"><a xlink:href="_item_base_8h.html" target="_top" xlink:title=" ">
<polygon fill="white" stroke="#666666" points="1967.88,-82 1879.12,-82 1879.12,-62 1967.88,-62 1967.88,-82"/>
<text xml:space="preserve" text-anchor="middle" x="1923.5" y="-68.5" font-family="Helvetica,sans-Serif" font-size="10.00">Item/ItemBase.h</text>
</a>
</g>
</g>
<!-- Node14&#45;&gt;Node21 -->
<g id="edge26_Node000014_Node000021" class="edge">
<title>Node14&#45;&gt;Node21</title>
<g id="a_edge26_Node000014_Node000021"><a xlink:title=" ">
<path fill="none" stroke="#63b8ff" d="M1437.97,-127.02C1532.91,-119.65 1694.41,-105.89 1832.5,-88 1843.81,-86.53 1855.88,-84.72 1867.4,-82.87"/>
<polygon fill="#63b8ff" stroke="#63b8ff" points="1867.9,-86.34 1877.2,-81.26 1866.77,-79.43 1867.9,-86.34"/>
</a>
</g>
</g>
<!-- Node28 -->
<g id="Node000028" class="node">
<title>Node28</title>
<g id="a_Node000028"><a xlink:title=" ">
<polygon fill="#e0e0e0" stroke="#999999" points="1823.25,-82 1655.75,-82 1655.75,-62 1823.25,-62 1823.25,-82"/>
<text xml:space="preserve" text-anchor="middle" x="1739.5" y="-68.5" font-family="Helvetica,sans-Serif" font-size="10.00">UIManagerSubsystem.generated.h</text>
</a>
</g>
</g>
<!-- Node14&#45;&gt;Node28 -->
<g id="edge34_Node000014_Node000028" class="edge">
<title>Node14&#45;&gt;Node28</title>
<g id="a_edge34_Node000014_Node000028"><a xlink:title=" ">
<path fill="none" stroke="#63b8ff" d="M1418.18,-123.54C1476.9,-114.5 1567.74,-100.46 1646.5,-88 1653.99,-86.82 1661.81,-85.57 1669.61,-84.32"/>
<polygon fill="#63b8ff" stroke="#63b8ff" points="1670.16,-87.78 1679.47,-82.74 1669.05,-80.86 1670.16,-87.78"/>
</a>
</g>
</g>
<!-- Node17&#45;&gt;Node2 -->
<g id="edge21_Node000017_Node000002" class="edge">
<title>Node17&#45;&gt;Node2</title>
<g id="a_edge21_Node000017_Node000002"><a xlink:title=" ">
<path fill="none" stroke="#63b8ff" d="M1075.09,-61.62C1052.57,-51.76 1016.89,-36.13 991.12,-24.85"/>
<polygon fill="#63b8ff" stroke="#63b8ff" points="992.71,-21.72 982.14,-20.92 989.9,-28.13 992.71,-21.72"/>
</a>
</g>
</g>
<!-- Node17&#45;&gt;Node13 -->
<g id="edge23_Node000017_Node000013" class="edge">
<title>Node17&#45;&gt;Node13</title>
<g id="a_edge23_Node000017_Node000013"><a xlink:title=" ">
<path fill="none" stroke="#63b8ff" d="M1142.29,-61.56C1193.2,-51.06 1275.5,-34.09 1330.53,-22.75"/>
<polygon fill="#63b8ff" stroke="#63b8ff" points="1330.93,-26.24 1340.02,-20.79 1329.51,-19.38 1330.93,-26.24"/>
</a>
</g>
</g>
<!-- Node18 -->
<g id="Node000018" class="node">
<title>Node18</title>
<g id="a_Node000018"><a xlink:title=" ">
<polygon fill="#e0e0e0" stroke="#999999" points="1136.38,-20 1032.62,-20 1032.62,0 1136.38,0 1136.38,-20"/>
<text xml:space="preserve" text-anchor="middle" x="1084.5" y="-6.5" font-family="Helvetica,sans-Serif" font-size="10.00">Engine/DataAsset.h</text>
</a>
</g>
</g>
<!-- Node17&#45;&gt;Node18 -->
<g id="edge22_Node000017_Node000018" class="edge">
<title>Node17&#45;&gt;Node18</title>
<g id="a_edge22_Node000017_Node000018"><a xlink:title=" ">
<path fill="none" stroke="#63b8ff" d="M1094.62,-61.62C1093,-53.48 1090.58,-41.39 1088.51,-31.07"/>
<polygon fill="#63b8ff" stroke="#63b8ff" points="1092.01,-30.72 1086.62,-21.6 1085.15,-32.09 1092.01,-30.72"/>
</a>
</g>
</g>
<!-- Node19 -->
<g id="Node000019" class="node">
<title>Node19</title>
<g id="a_Node000019"><a xlink:title=" ">
<polygon fill="#e0e0e0" stroke="#999999" points="1304.62,-20 1154.38,-20 1154.38,0 1304.62,0 1304.62,-20"/>
<text xml:space="preserve" text-anchor="middle" x="1229.5" y="-6.5" font-family="Helvetica,sans-Serif" font-size="10.00">LevelUIDataAsset.generated.h</text>
</a>
</g>
</g>
<!-- Node17&#45;&gt;Node19 -->
<g id="edge24_Node000017_Node000019" class="edge">
<title>Node17&#45;&gt;Node19</title>
<g id="a_edge24_Node000017_Node000019"><a xlink:title=" ">
<path fill="none" stroke="#63b8ff" d="M1117.28,-61.62C1139.05,-51.81 1173.48,-36.27 1198.46,-25"/>
<polygon fill="#63b8ff" stroke="#63b8ff" points="1199.81,-28.23 1207.49,-20.93 1196.93,-21.85 1199.81,-28.23"/>
</a>
</g>
</g>
<!-- Node21&#45;&gt;Node2 -->
<g id="edge27_Node000021_Node000002" class="edge">
<title>Node21&#45;&gt;Node2</title>
<g id="a_edge27_Node000021_Node000002"><a xlink:title=" ">
<path fill="none" stroke="#63b8ff" d="M1878.75,-62.54C1864.06,-60.05 1847.63,-57.58 1832.5,-56 1474.53,-18.67 1381.89,-53.1 1023.5,-20 1019.35,-19.62 1015.05,-19.15 1010.73,-18.64"/>
<polygon fill="#63b8ff" stroke="#63b8ff" points="1011.24,-15.18 1000.88,-17.4 1010.36,-22.12 1011.24,-15.18"/>
</a>
</g>
</g>
<!-- Node22 -->
<g id="Node000022" class="node">
<title>Node22</title>
<g id="a_Node000022"><a xlink:title=" ">
<polygon fill="#e0e0e0" stroke="#999999" points="1749.75,-20 1597.25,-20 1597.25,0 1749.75,0 1749.75,-20"/>
<text xml:space="preserve" text-anchor="middle" x="1673.5" y="-6.5" font-family="Helvetica,sans-Serif" font-size="10.00">ActiveGameplayEffectHandle.h</text>
</a>
</g>
</g>
<!-- Node21&#45;&gt;Node22 -->
<g id="edge28_Node000021_Node000022" class="edge">
<title>Node21&#45;&gt;Node22</title>
<g id="a_edge28_Node000021_Node000022"><a xlink:title=" ">
<path fill="none" stroke="#63b8ff" d="M1887.33,-61.51C1880.11,-59.65 1872.57,-57.74 1865.5,-56 1818.45,-44.4 1764.74,-31.88 1726.12,-22.99"/>
<polygon fill="#63b8ff" stroke="#63b8ff" points="1727.14,-19.64 1716.61,-20.81 1725.58,-26.46 1727.14,-19.64"/>
</a>
</g>
</g>
<!-- Node23 -->
<g id="Node000023" class="node">
<title>Node23</title>
<g id="a_Node000023"><a xlink:title=" ">
<polygon fill="#e0e0e0" stroke="#999999" points="1843.5,-20 1767.5,-20 1767.5,0 1843.5,0 1843.5,-20"/>
<text xml:space="preserve" text-anchor="middle" x="1805.5" y="-6.5" font-family="Helvetica,sans-Serif" font-size="10.00">AttributeSet.h</text>
</a>
</g>
</g>
<!-- Node21&#45;&gt;Node23 -->
<g id="edge29_Node000021_Node000023" class="edge">
<title>Node21&#45;&gt;Node23</title>
<g id="a_edge29_Node000021_Node000023"><a xlink:title=" ">
<path fill="none" stroke="#63b8ff" d="M1905.06,-61.62C1886.01,-51.94 1856.03,-36.69 1833.94,-25.46"/>
<polygon fill="#63b8ff" stroke="#63b8ff" points="1835.66,-22.41 1825.16,-21 1832.48,-28.65 1835.66,-22.41"/>
</a>
</g>
</g>
<!-- Node24 -->
<g id="Node000024" class="node">
<title>Node24</title>
<g id="a_Node000024"><a xlink:title=" ">
<polygon fill="#e0e0e0" stroke="#999999" points="2009.88,-20 1861.12,-20 1861.12,0 2009.88,0 2009.88,-20"/>
<text xml:space="preserve" text-anchor="middle" x="1935.5" y="-6.5" font-family="Helvetica,sans-Serif" font-size="10.00">GameplayAbilitySpecHandle.h</text>
</a>
</g>
</g>
<!-- Node21&#45;&gt;Node24 -->
<g id="edge30_Node000021_Node000024" class="edge">
<title>Node21&#45;&gt;Node24</title>
<g id="a_edge30_Node000021_Node000024"><a xlink:title=" ">
<path fill="none" stroke="#63b8ff" d="M1925.38,-61.62C1927,-53.48 1929.42,-41.39 1931.49,-31.07"/>
<polygon fill="#63b8ff" stroke="#63b8ff" points="1934.85,-32.09 1933.38,-21.6 1927.99,-30.72 1934.85,-32.09"/>
</a>
</g>
</g>
<!-- Node25 -->
<g id="Node000025" class="node">
<title>Node25</title>
<g id="a_Node000025"><a xlink:title=" ">
<polygon fill="#e0e0e0" stroke="#999999" points="2160.62,-20 2028.38,-20 2028.38,0 2160.62,0 2160.62,-20"/>
<text xml:space="preserve" text-anchor="middle" x="2094.5" y="-6.5" font-family="Helvetica,sans-Serif" font-size="10.00">Abilities/GameplayAbility.h</text>
</a>
</g>
</g>
<!-- Node21&#45;&gt;Node25 -->
<g id="edge31_Node000021_Node000025" class="edge">
<title>Node21&#45;&gt;Node25</title>
<g id="a_edge31_Node000021_Node000025"><a xlink:title=" ">
<path fill="none" stroke="#63b8ff" d="M1950.22,-61.62C1978.87,-51.57 2024.6,-35.53 2056.88,-24.2"/>
<polygon fill="#63b8ff" stroke="#63b8ff" points="2057.98,-27.52 2066.26,-20.91 2055.66,-20.92 2057.98,-27.52"/>
</a>
</g>
</g>
<!-- Node26 -->
<g id="Node000026" class="node">
<title>Node26</title>
<g id="a_Node000026"><a xlink:title=" ">
<polygon fill="#e0e0e0" stroke="#999999" points="2304.25,-20 2178.75,-20 2178.75,0 2304.25,0 2304.25,-20"/>
<text xml:space="preserve" text-anchor="middle" x="2241.5" y="-6.5" font-family="Helvetica,sans-Serif" font-size="10.00">GameFramework/Actor.h</text>
</a>
</g>
</g>
<!-- Node21&#45;&gt;Node26 -->
<g id="edge32_Node000021_Node000026" class="edge">
<title>Node21&#45;&gt;Node26</title>
<g id="a_edge32_Node000021_Node000026"><a xlink:title=" ">
<path fill="none" stroke="#63b8ff" d="M1968.05,-62.59C2023.33,-52.16 2117.86,-34.33 2180.01,-22.6"/>
<polygon fill="#63b8ff" stroke="#63b8ff" points="2180.56,-26.06 2189.73,-20.77 2179.26,-19.18 2180.56,-26.06"/>
</a>
</g>
</g>
<!-- Node27 -->
<g id="Node000027" class="node">
<title>Node27</title>
<g id="a_Node000027"><a xlink:title=" ">
<polygon fill="#e0e0e0" stroke="#999999" points="1579.5,-20 1467.5,-20 1467.5,0 1579.5,0 1579.5,-20"/>
<text xml:space="preserve" text-anchor="middle" x="1523.5" y="-6.5" font-family="Helvetica,sans-Serif" font-size="10.00">ItemBase.generated.h</text>
</a>
</g>
</g>
<!-- Node21&#45;&gt;Node27 -->
<g id="edge33_Node000021_Node000027" class="edge">
<title>Node21&#45;&gt;Node27</title>
<g id="a_edge33_Node000021_Node000027"><a xlink:title=" ">
<path fill="none" stroke="#63b8ff" d="M1889.92,-61.56C1881.96,-59.54 1873.46,-57.54 1865.5,-56 1747.19,-33.1 1713.5,-36.3 1591.19,-20.33"/>
<polygon fill="#63b8ff" stroke="#63b8ff" points="1591.74,-16.88 1581.37,-19.03 1590.82,-23.81 1591.74,-16.88"/>
</a>
</g>
</g>
</g>
</svg>
