<?xml version="1.0" encoding="UTF-8" standalone="no"?>
<!DOCTYPE svg PUBLIC "-//W3C//DTD SVG 1.1//EN"
 "http://www.w3.org/Graphics/SVG/1.1/DTD/svg11.dtd">
<!-- Generated by graphviz version 13.1.1 (20250719.2154)
 -->
<!-- Title: C:/Users/user/Perforce/alz7_CobaltbruWorkspace_00/KPT/Source/KPT/Core/Component/GameState/InGamePhaseManagerComponent.cpp Pages: 1 -->
<svg width="612pt" height="244pt"
 viewBox="0.00 0.00 612.00 244.00" xmlns="http://www.w3.org/2000/svg" xmlns:xlink="http://www.w3.org/1999/xlink">
<g id="graph0" class="graph" transform="scale(1 1) rotate(0) translate(4 240)">
<title>C:/Users/user/Perforce/alz7_CobaltbruWorkspace_00/KPT/Source/KPT/Core/Component/GameState/InGamePhaseManagerComponent.cpp</title>
<!-- Node1 -->
<g id="Node000001" class="node">
<title>Node1</title>
<g id="a_Node000001"><a xlink:title=" ">
<polygon fill="#999999" stroke="#666666" points="469,-236 282,-236 282,-168 469,-168 469,-236"/>
<text xml:space="preserve" text-anchor="start" x="290" y="-222.5" font-family="Helvetica,sans-Serif" font-size="10.00">C:/Users/user/Perforce</text>
<text xml:space="preserve" text-anchor="start" x="290" y="-210.5" font-family="Helvetica,sans-Serif" font-size="10.00">/alz7_CobaltbruWorkspace</text>
<text xml:space="preserve" text-anchor="start" x="290" y="-198.5" font-family="Helvetica,sans-Serif" font-size="10.00">_00/KPT/Source/KPT/Core</text>
<text xml:space="preserve" text-anchor="start" x="290" y="-186.5" font-family="Helvetica,sans-Serif" font-size="10.00">/Component/GameState/InGamePhase</text>
<text xml:space="preserve" text-anchor="middle" x="375.5" y="-174.5" font-family="Helvetica,sans-Serif" font-size="10.00">ManagerComponent.cpp</text>
</a>
</g>
</g>
<!-- Node2 -->
<g id="Node000002" class="node">
<title>Node2</title>
<g id="a_Node000002"><a xlink:href="_in_game_phase_manager_component_8h.html" target="_top" xlink:title=" ">
<polygon fill="white" stroke="#666666" points="383.62,-132 209.38,-132 209.38,-112 383.62,-112 383.62,-132"/>
<text xml:space="preserve" text-anchor="middle" x="296.5" y="-118.5" font-family="Helvetica,sans-Serif" font-size="10.00">InGamePhaseManagerComponent.h</text>
</a>
</g>
</g>
<!-- Node1&#45;&gt;Node2 -->
<g id="edge1_Node000001_Node000002" class="edge">
<title>Node1&#45;&gt;Node2</title>
<g id="a_edge1_Node000001_Node000002"><a xlink:title=" ">
<path fill="none" stroke="#63b8ff" d="M342,-167.92C332.36,-158.41 322.24,-148.41 313.99,-140.27"/>
<polygon fill="#63b8ff" stroke="#63b8ff" points="316.55,-137.88 306.97,-133.34 311.63,-142.86 316.55,-137.88"/>
</a>
</g>
</g>
<!-- Node9 -->
<g id="Node000009" class="node">
<title>Node9</title>
<g id="a_Node000009"><a xlink:title=" ">
<polygon fill="#e0e0e0" stroke="#999999" points="509.62,-132 401.38,-132 401.38,-112 509.62,-112 509.62,-132"/>
<text xml:space="preserve" text-anchor="middle" x="455.5" y="-118.5" font-family="Helvetica,sans-Serif" font-size="10.00">Net/UnrealNetwork.h</text>
</a>
</g>
</g>
<!-- Node1&#45;&gt;Node9 -->
<g id="edge10_Node000001_Node000009" class="edge">
<title>Node1&#45;&gt;Node9</title>
<g id="a_edge10_Node000001_Node000009"><a xlink:title=" ">
<path fill="none" stroke="#63b8ff" d="M409.43,-167.92C419.18,-158.41 429.44,-148.41 437.78,-140.27"/>
<polygon fill="#63b8ff" stroke="#63b8ff" points="440.18,-142.82 444.9,-133.33 435.3,-137.81 440.18,-142.82"/>
</a>
</g>
</g>
<!-- Node3 -->
<g id="Node000003" class="node">
<title>Node3</title>
<g id="a_Node000003"><a xlink:title=" ">
<polygon fill="#e0e0e0" stroke="#999999" points="79,-20 0,-20 0,0 79,0 79,-20"/>
<text xml:space="preserve" text-anchor="middle" x="39.5" y="-6.5" font-family="Helvetica,sans-Serif" font-size="10.00">CoreMinimal.h</text>
</a>
</g>
</g>
<!-- Node2&#45;&gt;Node3 -->
<g id="edge2_Node000002_Node000003" class="edge">
<title>Node2&#45;&gt;Node3</title>
<g id="a_edge2_Node000002_Node000003"><a xlink:title=" ">
<path fill="none" stroke="#63b8ff" d="M265.56,-111.5C239.15,-103.09 200.34,-89.99 167.5,-76 131.59,-60.7 91.71,-39.79 66.15,-25.86"/>
<polygon fill="#63b8ff" stroke="#63b8ff" points="67.91,-22.83 57.46,-21.09 64.54,-28.97 67.91,-22.83"/>
</a>
</g>
</g>
<!-- Node4 -->
<g id="Node000004" class="node">
<title>Node4</title>
<g id="a_Node000004"><a xlink:href="_u_state_manager_component_8h.html" target="_top" xlink:title=" ">
<polygon fill="white" stroke="#666666" points="318.88,-76 176.12,-76 176.12,-56 318.88,-56 318.88,-76"/>
<text xml:space="preserve" text-anchor="middle" x="247.5" y="-62.5" font-family="Helvetica,sans-Serif" font-size="10.00">UStateManagerComponent.h</text>
</a>
</g>
</g>
<!-- Node2&#45;&gt;Node4 -->
<g id="edge3_Node000002_Node000004" class="edge">
<title>Node2&#45;&gt;Node4</title>
<g id="a_edge3_Node000002_Node000004"><a xlink:title=" ">
<path fill="none" stroke="#63b8ff" d="M287.96,-111.59C281.22,-104.16 271.61,-93.58 263.46,-84.58"/>
<polygon fill="#63b8ff" stroke="#63b8ff" points="266.27,-82.47 256.95,-77.42 261.08,-87.18 266.27,-82.47"/>
</a>
</g>
</g>
<!-- Node6 -->
<g id="Node000006" class="node">
<title>Node6</title>
<g id="a_Node000006"><a xlink:title=" ">
<polygon fill="#e0e0e0" stroke="#999999" points="603.62,-20 447.38,-20 447.38,0 603.62,0 603.62,-20"/>
<text xml:space="preserve" text-anchor="middle" x="525.5" y="-6.5" font-family="Helvetica,sans-Serif" font-size="10.00">Components/ActorComponent.h</text>
</a>
</g>
</g>
<!-- Node2&#45;&gt;Node6 -->
<g id="edge8_Node000002_Node000006" class="edge">
<title>Node2&#45;&gt;Node6</title>
<g id="a_edge8_Node000002_Node000006"><a xlink:title=" ">
<path fill="none" stroke="#63b8ff" d="M303.93,-111.54C315.55,-97.38 339.43,-70.75 365.5,-56 393.23,-40.31 426.79,-29.79 456.01,-22.89"/>
<polygon fill="#63b8ff" stroke="#63b8ff" points="456.51,-26.36 465.49,-20.75 454.97,-19.54 456.51,-26.36"/>
</a>
</g>
</g>
<!-- Node8 -->
<g id="Node000008" class="node">
<title>Node8</title>
<g id="a_Node000008"><a xlink:title=" ">
<polygon fill="#e0e0e0" stroke="#999999" points="594.5,-76 374.5,-76 374.5,-56 594.5,-56 594.5,-76"/>
<text xml:space="preserve" text-anchor="middle" x="484.5" y="-62.5" font-family="Helvetica,sans-Serif" font-size="10.00">InGamePhaseManagerComponent.generated.h</text>
</a>
</g>
</g>
<!-- Node2&#45;&gt;Node8 -->
<g id="edge9_Node000002_Node000008" class="edge">
<title>Node2&#45;&gt;Node8</title>
<g id="a_edge9_Node000002_Node000008"><a xlink:title=" ">
<path fill="none" stroke="#63b8ff" d="M329.25,-111.59C360.06,-102.74 406.42,-89.43 440.47,-79.65"/>
<polygon fill="#63b8ff" stroke="#63b8ff" points="441.4,-83.02 450.04,-76.9 439.47,-76.29 441.4,-83.02"/>
</a>
</g>
</g>
<!-- Node4&#45;&gt;Node3 -->
<g id="edge4_Node000004_Node000003" class="edge">
<title>Node4&#45;&gt;Node3</title>
<g id="a_edge4_Node000004_Node000003"><a xlink:title=" ">
<path fill="none" stroke="#63b8ff" d="M211.27,-55.59C176.73,-46.63 124.54,-33.08 86.75,-23.27"/>
<polygon fill="#63b8ff" stroke="#63b8ff" points="88.04,-19.99 77.48,-20.86 86.28,-26.76 88.04,-19.99"/>
</a>
</g>
</g>
<!-- Node5 -->
<g id="Node000005" class="node">
<title>Node5</title>
<g id="a_Node000005"><a xlink:title=" ">
<polygon fill="#e0e0e0" stroke="#999999" points="223.62,-20 97.38,-20 97.38,0 223.62,0 223.62,-20"/>
<text xml:space="preserve" text-anchor="middle" x="160.5" y="-6.5" font-family="Helvetica,sans-Serif" font-size="10.00">GameplayTagContainer.h</text>
</a>
</g>
</g>
<!-- Node4&#45;&gt;Node5 -->
<g id="edge5_Node000004_Node000005" class="edge">
<title>Node4&#45;&gt;Node5</title>
<g id="a_edge5_Node000004_Node000005"><a xlink:title=" ">
<path fill="none" stroke="#63b8ff" d="M232.35,-55.59C219.45,-47.59 200.67,-35.93 185.54,-26.54"/>
<polygon fill="#63b8ff" stroke="#63b8ff" points="187.4,-23.58 177.06,-21.28 183.71,-29.53 187.4,-23.58"/>
</a>
</g>
</g>
<!-- Node4&#45;&gt;Node6 -->
<g id="edge6_Node000004_Node000006" class="edge">
<title>Node4&#45;&gt;Node6</title>
<g id="a_edge6_Node000004_Node000006"><a xlink:title=" ">
<path fill="none" stroke="#63b8ff" d="M296.24,-55.53C343.44,-46.36 415.09,-32.45 465.71,-22.61"/>
<polygon fill="#63b8ff" stroke="#63b8ff" points="466.18,-26.09 475.33,-20.75 464.84,-19.22 466.18,-26.09"/>
</a>
</g>
</g>
<!-- Node7 -->
<g id="Node000007" class="node">
<title>Node7</title>
<g id="a_Node000007"><a xlink:title=" ">
<polygon fill="#e0e0e0" stroke="#999999" points="429.75,-20 241.25,-20 241.25,0 429.75,0 429.75,-20"/>
<text xml:space="preserve" text-anchor="middle" x="335.5" y="-6.5" font-family="Helvetica,sans-Serif" font-size="10.00">UStateManagerComponent.generated.h</text>
</a>
</g>
</g>
<!-- Node4&#45;&gt;Node7 -->
<g id="edge7_Node000004_Node000007" class="edge">
<title>Node4&#45;&gt;Node7</title>
<g id="a_edge7_Node000004_Node000007"><a xlink:title=" ">
<path fill="none" stroke="#63b8ff" d="M262.83,-55.59C276,-47.51 295.23,-35.71 310.61,-26.27"/>
<polygon fill="#63b8ff" stroke="#63b8ff" points="312.07,-29.48 318.76,-21.27 308.41,-23.52 312.07,-29.48"/>
</a>
</g>
</g>
</g>
</svg>
