<?xml version="1.0" encoding="UTF-8" standalone="no"?>
<!DOCTYPE svg PUBLIC "-//W3C//DTD SVG 1.1//EN"
 "http://www.w3.org/Graphics/SVG/1.1/DTD/svg11.dtd">
<!-- Generated by graphviz version 13.1.1 (20250719.2154)
 -->
<!-- Title: C:/Users/user/Perforce/alz7_CobaltbruWorkspace_00/KPT/Source/KPT/UI/Item/InventoryUI.cpp Pages: 1 -->
<!--zoomable 344 -->

<svg id="main" version="1.1" xmlns="http://www.w3.org/2000/svg" xmlns:xlink="http://www.w3.org/1999/xlink" xml:space="preserve" onload="init(evt)">

<style type="text/css"><![CDATA[
.node, .edge {opacity: 0.7;}
.node.selected, .edge.selected {opacity: 1;}
.edge:hover path { stroke: red; }
.edge:hover polygon { stroke: red; fill: red; }
]]></style>

<defs>
  <circle id="rim" cx="0" cy="0" r="7"/>
  <circle id="rim2" cx="0" cy="0" r="3.5"/>
  <g id="zoomPlus">
    <use xlink:href="#rim" fill="#404040"><set attributeName="fill" to="#808080" begin="zoomplus.mouseover" end="zoomplus.mouseout"/></use>
    <path d="M-4,0h8M0,-4v8" fill="none" stroke="white" stroke-width="1.5" pointer-events="none"/>
  </g>
  <g id="zoomMin">
    <use xlink:href="#rim" fill="#404040"><set attributeName="fill" to="#808080" begin="zoomminus.mouseover" end="zoomminus.mouseout"/></use>
    <path d="M-4,0h8" fill="none" stroke="white" stroke-width="1.5" pointer-events="none"/>
  </g>
  <g id="arrowUp" transform="translate(30 24)">
    <use xlink:href="#rim"/>
    <path pointer-events="none" fill="none" stroke="white" stroke-width="1.5" d="M0,-3.0v7 M-2.5,-0.5L0,-3.0L2.5,-0.5"/>
  </g>
  <g id="arrowRight" transform="rotate(90) translate(36 -43)">
    <use xlink:href="#rim"/>
    <path pointer-events="none" fill="none" stroke="white" stroke-width="1.5" d="M0,-3.0v7 M-2.5,-0.5L0,-3.0L2.5,-0.5"/>
  </g>
  <g id="arrowDown" transform="rotate(180) translate(-30 -48)">
    <use xlink:href="#rim"/>
    <path pointer-events="none" fill="none" stroke="white" stroke-width="1.5" d="M0,-3.0v7 M-2.5,-0.5L0,-3.0L2.5,-0.5"/>
  </g>
  <g id="arrowLeft" transform="rotate(270) translate(-36 17)">
    <use xlink:href="#rim"/>
    <path pointer-events="none" fill="none" stroke="white" stroke-width="1.5" d="M0,-3.0v7 M-2.5,-0.5L0,-3.0L2.5,-0.5"/>
  </g>
  <g id="resetDef">
    <use xlink:href="#rim2" fill="#404040"><set attributeName="fill" to="#808080" begin="reset.mouseover" end="reset.mouseout"/></use>
  </g>
</defs>
<script type="application/ecmascript">
var viewWidth = 1879;
var viewHeight = 344;
var sectionId = 'dynsection-0';
</script>
<script type="application/ecmascript" xlink:href="svg.min.js"/>
<svg id="graph" class="graph">
<g id="viewport">
<title>C:/Users/user/Perforce/alz7_CobaltbruWorkspace_00/KPT/Source/KPT/UI/Item/InventoryUI.cpp</title>
<!-- Node1 -->
<g id="Node000001" class="node">
<title>Node1</title>
<g id="a_Node000001"><a xlink:title=" ">
<polygon fill="#999999" stroke="#666666" points="1221.88,-336 1075.38,-336 1075.38,-280 1221.88,-280 1221.88,-336"/>
<text xml:space="preserve" text-anchor="start" x="1083.38" y="-322.5" font-family="Helvetica,sans-Serif" font-size="10.00">C:/Users/user/Perforce</text>
<text xml:space="preserve" text-anchor="start" x="1083.38" y="-310.5" font-family="Helvetica,sans-Serif" font-size="10.00">/alz7_CobaltbruWorkspace</text>
<text xml:space="preserve" text-anchor="start" x="1083.38" y="-298.5" font-family="Helvetica,sans-Serif" font-size="10.00">_00/KPT/Source/KPT/UI/Item</text>
<text xml:space="preserve" text-anchor="middle" x="1148.62" y="-286.5" font-family="Helvetica,sans-Serif" font-size="10.00">/InventoryUI.cpp</text>
</a>
</g>
</g>
<!-- Node2 -->
<g id="Node000002" class="node">
<title>Node2</title>
<g id="a_Node000002"><a xlink:href="_inventory_u_i_8h.html" target="_top" xlink:title=" ">
<polygon fill="white" stroke="#666666" points="643.25,-244 532,-244 532,-224 643.25,-224 643.25,-244"/>
<text xml:space="preserve" text-anchor="middle" x="587.62" y="-230.5" font-family="Helvetica,sans-Serif" font-size="10.00">UI/Item/InventoryUI.h</text>
</a>
</g>
</g>
<!-- Node1&#45;&gt;Node2 -->
<g id="edge1_Node000001_Node000002" class="edge">
<title>Node1&#45;&gt;Node2</title>
<g id="a_edge1_Node000001_Node000002"><a xlink:title=" ">
<path fill="none" stroke="#63b8ff" d="M1075,-297.55C965.29,-283.47 760.52,-257.19 654.73,-243.61"/>
<polygon fill="#63b8ff" stroke="#63b8ff" points="655.43,-240.17 645.07,-242.37 654.54,-247.12 655.43,-240.17"/>
</a>
</g>
</g>
<!-- Node23 -->
<g id="Node000023" class="node">
<title>Node23</title>
<g id="a_Node000023"><a xlink:title=" ">
<polygon fill="#e0e0e0" stroke="#999999" points="1423.38,-244 1297.88,-244 1297.88,-224 1423.38,-224 1423.38,-244"/>
<text xml:space="preserve" text-anchor="middle" x="1360.62" y="-230.5" font-family="Helvetica,sans-Serif" font-size="10.00">Components/GridPanel.h</text>
</a>
</g>
</g>
<!-- Node1&#45;&gt;Node23 -->
<g id="edge27_Node000001_Node000023" class="edge">
<title>Node1&#45;&gt;Node23</title>
<g id="a_edge27_Node000001_Node000023"><a xlink:title=" ">
<path fill="none" stroke="#63b8ff" d="M1222.18,-282.02C1255.71,-270.63 1294.03,-257.62 1321.84,-248.17"/>
<polygon fill="#63b8ff" stroke="#63b8ff" points="1322.92,-251.5 1331.27,-244.97 1320.67,-244.87 1322.92,-251.5"/>
</a>
</g>
</g>
<!-- Node24 -->
<g id="Node000024" class="node">
<title>Node24</title>
<g id="a_Node000024"><a xlink:href="_item_slot_u_i_8h.html" target="_top" xlink:title=" ">
<polygon fill="white" stroke="#666666" points="1135.38,-244 1027.88,-244 1027.88,-224 1135.38,-224 1135.38,-244"/>
<text xml:space="preserve" text-anchor="middle" x="1081.62" y="-230.5" font-family="Helvetica,sans-Serif" font-size="10.00">UI/Item/ItemSlotUI.h</text>
</a>
</g>
</g>
<!-- Node1&#45;&gt;Node24 -->
<g id="edge28_Node000001_Node000024" class="edge">
<title>Node1&#45;&gt;Node24</title>
<g id="a_edge28_Node000001_Node000024"><a xlink:title=" ">
<path fill="none" stroke="#63b8ff" d="M1123.3,-279.78C1114.89,-270.75 1105.76,-260.94 1098.2,-252.81"/>
<polygon fill="#63b8ff" stroke="#63b8ff" points="1100.85,-250.52 1091.47,-245.58 1095.72,-255.29 1100.85,-250.52"/>
</a>
</g>
</g>
<!-- Node26 -->
<g id="Node000026" class="node">
<title>Node26</title>
<g id="a_Node000026"><a xlink:href="_item_slot_tooltip_8h.html" target="_top" xlink:title=" ">
<polygon fill="white" stroke="#666666" points="1279.38,-244 1153.88,-244 1153.88,-224 1279.38,-224 1279.38,-244"/>
<text xml:space="preserve" text-anchor="middle" x="1216.62" y="-230.5" font-family="Helvetica,sans-Serif" font-size="10.00">UI/Item/ItemSlotTooltip.h</text>
</a>
</g>
</g>
<!-- Node1&#45;&gt;Node26 -->
<g id="edge33_Node000001_Node000026" class="edge">
<title>Node1&#45;&gt;Node26</title>
<g id="a_edge33_Node000001_Node000026"><a xlink:title=" ">
<path fill="none" stroke="#63b8ff" d="M1174.33,-279.78C1182.86,-270.75 1192.13,-260.94 1199.81,-252.81"/>
<polygon fill="#63b8ff" stroke="#63b8ff" points="1202.32,-255.25 1206.64,-245.57 1197.23,-250.44 1202.32,-255.25"/>
</a>
</g>
</g>
<!-- Node3 -->
<g id="Node000003" class="node">
<title>Node3</title>
<g id="a_Node000003"><a xlink:title=" ">
<polygon fill="#e0e0e0" stroke="#999999" points="1016.12,-20 937.12,-20 937.12,0 1016.12,0 1016.12,-20"/>
<text xml:space="preserve" text-anchor="middle" x="976.62" y="-6.5" font-family="Helvetica,sans-Serif" font-size="10.00">CoreMinimal.h</text>
</a>
</g>
</g>
<!-- Node2&#45;&gt;Node3 -->
<g id="edge2_Node000002_Node000003" class="edge">
<title>Node2&#45;&gt;Node3</title>
<g id="a_edge2_Node000002_Node000003"><a xlink:title=" ">
<path fill="none" stroke="#63b8ff" d="M541.1,-223.54C441.28,-201.34 221.84,-141.28 301.62,-56 344,-10.71 776.07,-9.52 925.84,-10.49"/>
<polygon fill="#63b8ff" stroke="#63b8ff" points="925.42,-13.99 935.44,-10.56 925.47,-6.99 925.42,-13.99"/>
</a>
</g>
</g>
<!-- Node4 -->
<g id="Node000004" class="node">
<title>Node4</title>
<g id="a_Node000004"><a xlink:href="_u_i_base_8h.html" target="_top" xlink:title=" ">
<polygon fill="white" stroke="#666666" points="928,-188 857.25,-188 857.25,-168 928,-168 928,-188"/>
<text xml:space="preserve" text-anchor="middle" x="892.62" y="-174.5" font-family="Helvetica,sans-Serif" font-size="10.00">UI/UIBase.h</text>
</a>
</g>
</g>
<!-- Node2&#45;&gt;Node4 -->
<g id="edge3_Node000002_Node000004" class="edge">
<title>Node2&#45;&gt;Node4</title>
<g id="a_edge3_Node000002_Node000004"><a xlink:title=" ">
<path fill="none" stroke="#63b8ff" d="M641.1,-223.53C699,-213.28 790.45,-197.09 845.67,-187.31"/>
<polygon fill="#63b8ff" stroke="#63b8ff" points="846.15,-190.78 855.38,-185.59 844.93,-183.89 846.15,-190.78"/>
</a>
</g>
</g>
<!-- Node22 -->
<g id="Node000022" class="node">
<title>Node22</title>
<g id="a_Node000022"><a xlink:title=" ">
<polygon fill="#e0e0e0" stroke="#999999" points="254.12,-188 133.12,-188 133.12,-168 254.12,-168 254.12,-188"/>
<text xml:space="preserve" text-anchor="middle" x="193.62" y="-174.5" font-family="Helvetica,sans-Serif" font-size="10.00">InventoryUI.generated.h</text>
</a>
</g>
</g>
<!-- Node2&#45;&gt;Node22 -->
<g id="edge26_Node000002_Node000022" class="edge">
<title>Node2&#45;&gt;Node22</title>
<g id="a_edge26_Node000002_Node000022"><a xlink:title=" ">
<path fill="none" stroke="#63b8ff" d="M531.59,-225.32C461.63,-215.73 341.86,-199.32 265.29,-188.82"/>
<polygon fill="#63b8ff" stroke="#63b8ff" points="266.2,-185.41 255.81,-187.52 265.25,-192.35 266.2,-185.41"/>
</a>
</g>
</g>
<!-- Node4&#45;&gt;Node3 -->
<g id="edge4_Node000004_Node000003" class="edge">
<title>Node4&#45;&gt;Node3</title>
<g id="a_edge4_Node000004_Node000003"><a xlink:title=" ">
<path fill="none" stroke="#63b8ff" d="M893.33,-167.58C894.79,-153.93 899.23,-128.5 912.62,-112 933.44,-86.36 960.86,-104.45 977.62,-76 985.52,-62.6 984.63,-44.79 982.12,-31.2"/>
<polygon fill="#63b8ff" stroke="#63b8ff" points="985.57,-30.59 979.9,-21.63 978.75,-32.16 985.57,-30.59"/>
</a>
</g>
</g>
<!-- Node5 -->
<g id="Node000005" class="node">
<title>Node5</title>
<g id="a_Node000005"><a xlink:title=" ">
<polygon fill="#e0e0e0" stroke="#999999" points="117.25,-20 0,-20 0,0 117.25,0 117.25,-20"/>
<text xml:space="preserve" text-anchor="middle" x="58.62" y="-6.5" font-family="Helvetica,sans-Serif" font-size="10.00">Blueprint/UserWidget.h</text>
</a>
</g>
</g>
<!-- Node4&#45;&gt;Node5 -->
<g id="edge5_Node000004_Node000005" class="edge">
<title>Node4&#45;&gt;Node5</title>
<g id="a_edge5_Node000004_Node000005"><a xlink:title=" ">
<path fill="none" stroke="#63b8ff" d="M856.98,-176.23C720.6,-172.71 233.13,-154.74 103.62,-76 86.43,-65.54 74.17,-45.74 66.83,-30.73"/>
<polygon fill="#63b8ff" stroke="#63b8ff" points="70.11,-29.48 62.8,-21.8 63.72,-32.35 70.11,-29.48"/>
</a>
</g>
</g>
<!-- Node6 -->
<g id="Node000006" class="node">
<title>Node6</title>
<g id="a_Node000006"><a xlink:href="_u_i_manager_subsystem_8h.html" target="_top" xlink:title=" ">
<polygon fill="white" stroke="#666666" points="821.75,-132 659.5,-132 659.5,-112 821.75,-112 821.75,-132"/>
<text xml:space="preserve" text-anchor="middle" x="740.62" y="-118.5" font-family="Helvetica,sans-Serif" font-size="10.00">Manager/UIManagerSubsystem.h</text>
</a>
</g>
</g>
<!-- Node4&#45;&gt;Node6 -->
<g id="edge6_Node000004_Node000006" class="edge">
<title>Node4&#45;&gt;Node6</title>
<g id="a_edge6_Node000004_Node000006"><a xlink:title=" ">
<path fill="none" stroke="#63b8ff" d="M866.15,-167.59C841.78,-158.94 805.37,-146 778.04,-136.29"/>
<polygon fill="#63b8ff" stroke="#63b8ff" points="779.33,-133.04 768.73,-132.99 776.99,-139.63 779.33,-133.04"/>
</a>
</g>
</g>
<!-- Node21 -->
<g id="Node000021" class="node">
<title>Node21</title>
<g id="a_Node000021"><a xlink:title=" ">
<polygon fill="#e0e0e0" stroke="#999999" points="1024.12,-132 921.12,-132 921.12,-112 1024.12,-112 1024.12,-132"/>
<text xml:space="preserve" text-anchor="middle" x="972.62" y="-118.5" font-family="Helvetica,sans-Serif" font-size="10.00">UIBase.generated.h</text>
</a>
</g>
</g>
<!-- Node4&#45;&gt;Node21 -->
<g id="edge25_Node000004_Node000021" class="edge">
<title>Node4&#45;&gt;Node21</title>
<g id="a_edge25_Node000004_Node000021"><a xlink:title=" ">
<path fill="none" stroke="#63b8ff" d="M906.56,-167.59C918.3,-159.67 935.36,-148.16 949.19,-138.82"/>
<polygon fill="#63b8ff" stroke="#63b8ff" points="951,-141.82 957.33,-133.33 947.08,-136.02 951,-141.82"/>
</a>
</g>
</g>
<!-- Node6&#45;&gt;Node3 -->
<g id="edge7_Node000006_Node000003" class="edge">
<title>Node6&#45;&gt;Node3</title>
<g id="a_edge7_Node000006_Node000003"><a xlink:title=" ">
<path fill="none" stroke="#63b8ff" d="M822.01,-112.87C875.02,-105.97 937.87,-94.24 957.62,-76 969.92,-64.65 974.42,-45.83 975.99,-31.36"/>
<polygon fill="#63b8ff" stroke="#63b8ff" points="979.47,-31.77 976.63,-21.56 972.48,-31.31 979.47,-31.77"/>
</a>
</g>
</g>
<!-- Node7 -->
<g id="Node000007" class="node">
<title>Node7</title>
<g id="a_Node000007"><a xlink:title=" ">
<polygon fill="#e0e0e0" stroke="#999999" points="492.88,-76 310.38,-76 310.38,-56 492.88,-56 492.88,-76"/>
<text xml:space="preserve" text-anchor="middle" x="401.62" y="-62.5" font-family="Helvetica,sans-Serif" font-size="10.00">Subsystems/LocalPlayerSubsystem.h</text>
</a>
</g>
</g>
<!-- Node6&#45;&gt;Node7 -->
<g id="edge8_Node000006_Node000007" class="edge">
<title>Node6&#45;&gt;Node7</title>
<g id="a_edge8_Node000006_Node000007"><a xlink:title=" ">
<path fill="none" stroke="#63b8ff" d="M681.19,-111.53C622.91,-102.25 534.05,-88.09 472.21,-78.24"/>
<polygon fill="#63b8ff" stroke="#63b8ff" points="472.91,-74.81 462.49,-76.7 471.81,-81.72 472.91,-74.81"/>
</a>
</g>
</g>
<!-- Node8 -->
<g id="Node000008" class="node">
<title>Node8</title>
<g id="a_Node000008"><a xlink:title=" ">
<polygon fill="#e0e0e0" stroke="#999999" points="614.12,-76 511.12,-76 511.12,-56 614.12,-56 614.12,-76"/>
<text xml:space="preserve" text-anchor="middle" x="562.62" y="-62.5" font-family="Helvetica,sans-Serif" font-size="10.00">Containers/Queue.h</text>
</a>
</g>
</g>
<!-- Node6&#45;&gt;Node8 -->
<g id="edge9_Node000006_Node000008" class="edge">
<title>Node6&#45;&gt;Node8</title>
<g id="a_edge9_Node000006_Node000008"><a xlink:title=" ">
<path fill="none" stroke="#63b8ff" d="M709.62,-111.59C680.57,-102.78 636.93,-89.54 604.74,-79.78"/>
<polygon fill="#63b8ff" stroke="#63b8ff" points="605.91,-76.47 595.32,-76.92 603.87,-83.17 605.91,-76.47"/>
</a>
</g>
</g>
<!-- Node9 -->
<g id="Node000009" class="node">
<title>Node9</title>
<g id="a_Node000009"><a xlink:href="_level_u_i_data_asset_8h.html" target="_top" xlink:title=" ">
<polygon fill="white" stroke="#666666" points="254.62,-76 112.62,-76 112.62,-56 254.62,-56 254.62,-76"/>
<text xml:space="preserve" text-anchor="middle" x="183.62" y="-62.5" font-family="Helvetica,sans-Serif" font-size="10.00">UI/Data/LevelUIDataAsset.h</text>
</a>
</g>
</g>
<!-- Node6&#45;&gt;Node9 -->
<g id="edge10_Node000006_Node000009" class="edge">
<title>Node6&#45;&gt;Node9</title>
<g id="a_edge10_Node000006_Node000009"><a xlink:title=" ">
<path fill="none" stroke="#63b8ff" d="M659.04,-113.09C553.79,-102.89 371.72,-85.24 266.06,-74.99"/>
<polygon fill="#63b8ff" stroke="#63b8ff" points="266.62,-71.53 256.33,-74.05 265.94,-78.5 266.62,-71.53"/>
</a>
</g>
</g>
<!-- Node12 -->
<g id="Node000012" class="node">
<title>Node12</title>
<g id="a_Node000012"><a xlink:title=" ">
<polygon fill="#e0e0e0" stroke="#999999" points="763,-76 632.25,-76 632.25,-56 763,-56 763,-76"/>
<text xml:space="preserve" text-anchor="middle" x="697.62" y="-62.5" font-family="Helvetica,sans-Serif" font-size="10.00">UObject/NoExportTypes.h</text>
</a>
</g>
</g>
<!-- Node6&#45;&gt;Node12 -->
<g id="edge15_Node000006_Node000012" class="edge">
<title>Node6&#45;&gt;Node12</title>
<g id="a_edge15_Node000006_Node000012"><a xlink:title=" ">
<path fill="none" stroke="#63b8ff" d="M733.13,-111.59C727.34,-104.32 719.14,-94.02 712.08,-85.15"/>
<polygon fill="#63b8ff" stroke="#63b8ff" points="714.94,-83.12 705.97,-77.48 709.46,-87.49 714.94,-83.12"/>
</a>
</g>
</g>
<!-- Node13 -->
<g id="Node000013" class="node">
<title>Node13</title>
<g id="a_Node000013"><a xlink:href="_item_base_8h.html" target="_top" xlink:title=" ">
<polygon fill="white" stroke="#666666" points="1333,-76 1244.25,-76 1244.25,-56 1333,-56 1333,-76"/>
<text xml:space="preserve" text-anchor="middle" x="1288.62" y="-62.5" font-family="Helvetica,sans-Serif" font-size="10.00">Item/ItemBase.h</text>
</a>
</g>
</g>
<!-- Node6&#45;&gt;Node13 -->
<g id="edge16_Node000006_Node000013" class="edge">
<title>Node6&#45;&gt;Node13</title>
<g id="a_edge16_Node000006_Node000013"><a xlink:title=" ">
<path fill="none" stroke="#63b8ff" d="M822.07,-112.97C934.82,-101.86 1135.5,-82.09 1232.74,-72.51"/>
<polygon fill="#63b8ff" stroke="#63b8ff" points="1232.96,-76 1242.57,-71.54 1232.27,-69.04 1232.96,-76"/>
</a>
</g>
</g>
<!-- Node20 -->
<g id="Node000020" class="node">
<title>Node20</title>
<g id="a_Node000020"><a xlink:title=" ">
<polygon fill="#e0e0e0" stroke="#999999" points="948.38,-76 780.88,-76 780.88,-56 948.38,-56 948.38,-76"/>
<text xml:space="preserve" text-anchor="middle" x="864.62" y="-62.5" font-family="Helvetica,sans-Serif" font-size="10.00">UIManagerSubsystem.generated.h</text>
</a>
</g>
</g>
<!-- Node6&#45;&gt;Node20 -->
<g id="edge24_Node000006_Node000020" class="edge">
<title>Node6&#45;&gt;Node20</title>
<g id="a_edge24_Node000006_Node000020"><a xlink:title=" ">
<path fill="none" stroke="#63b8ff" d="M762.22,-111.59C781.58,-103.17 810.23,-90.69 832.31,-81.07"/>
<polygon fill="#63b8ff" stroke="#63b8ff" points="833.7,-84.29 841.47,-77.08 830.9,-77.87 833.7,-84.29"/>
</a>
</g>
</g>
<!-- Node9&#45;&gt;Node3 -->
<g id="edge11_Node000009_Node000003" class="edge">
<title>Node9&#45;&gt;Node3</title>
<g id="a_edge11_Node000009_Node000003"><a xlink:title=" ">
<path fill="none" stroke="#63b8ff" d="M255.03,-57.22C259.63,-56.79 264.19,-56.38 268.62,-56 514.23,-35.2 808.51,-19.42 925.27,-13.52"/>
<polygon fill="#63b8ff" stroke="#63b8ff" points="925.34,-17.02 935.15,-13.03 924.99,-10.03 925.34,-17.02"/>
</a>
</g>
</g>
<!-- Node9&#45;&gt;Node5 -->
<g id="edge13_Node000009_Node000005" class="edge">
<title>Node9&#45;&gt;Node5</title>
<g id="a_edge13_Node000009_Node000005"><a xlink:title=" ">
<path fill="none" stroke="#63b8ff" d="M161.85,-55.59C142.26,-47.13 113.2,-34.58 90.9,-24.94"/>
<polygon fill="#63b8ff" stroke="#63b8ff" points="92.53,-21.83 81.96,-21.08 89.75,-28.26 92.53,-21.83"/>
</a>
</g>
</g>
<!-- Node10 -->
<g id="Node000010" class="node">
<title>Node10</title>
<g id="a_Node000010"><a xlink:title=" ">
<polygon fill="#e0e0e0" stroke="#999999" points="407.5,-20 303.75,-20 303.75,0 407.5,0 407.5,-20"/>
<text xml:space="preserve" text-anchor="middle" x="355.62" y="-6.5" font-family="Helvetica,sans-Serif" font-size="10.00">Engine/DataAsset.h</text>
</a>
</g>
</g>
<!-- Node9&#45;&gt;Node10 -->
<g id="edge12_Node000009_Node000010" class="edge">
<title>Node9&#45;&gt;Node10</title>
<g id="a_edge12_Node000009_Node000010"><a xlink:title=" ">
<path fill="none" stroke="#63b8ff" d="M213.59,-55.59C241.53,-46.82 283.46,-33.66 314.52,-23.9"/>
<polygon fill="#63b8ff" stroke="#63b8ff" points="315.49,-27.27 323.99,-20.93 313.4,-20.59 315.49,-27.27"/>
</a>
</g>
</g>
<!-- Node11 -->
<g id="Node000011" class="node">
<title>Node11</title>
<g id="a_Node000011"><a xlink:title=" ">
<polygon fill="#e0e0e0" stroke="#999999" points="285.75,-20 135.5,-20 135.5,0 285.75,0 285.75,-20"/>
<text xml:space="preserve" text-anchor="middle" x="210.62" y="-6.5" font-family="Helvetica,sans-Serif" font-size="10.00">LevelUIDataAsset.generated.h</text>
</a>
</g>
</g>
<!-- Node9&#45;&gt;Node11 -->
<g id="edge14_Node000009_Node000011" class="edge">
<title>Node9&#45;&gt;Node11</title>
<g id="a_edge14_Node000009_Node000011"><a xlink:title=" ">
<path fill="none" stroke="#63b8ff" d="M188.33,-55.59C191.77,-48.7 196.57,-39.1 200.84,-30.57"/>
<polygon fill="#63b8ff" stroke="#63b8ff" points="203.96,-32.16 205.3,-21.65 197.7,-29.03 203.96,-32.16"/>
</a>
</g>
</g>
<!-- Node13&#45;&gt;Node3 -->
<g id="edge17_Node000013_Node000003" class="edge">
<title>Node13&#45;&gt;Node3</title>
<g id="a_edge17_Node000013_Node000003"><a xlink:title=" ">
<path fill="none" stroke="#63b8ff" d="M1244.21,-57.66C1194.02,-49.31 1109.58,-35.12 1027.7,-20.53"/>
<polygon fill="#63b8ff" stroke="#63b8ff" points="1028.38,-17.1 1017.92,-18.78 1027.15,-23.99 1028.38,-17.1"/>
</a>
</g>
</g>
<!-- Node14 -->
<g id="Node000014" class="node">
<title>Node14</title>
<g id="a_Node000014"><a xlink:title=" ">
<polygon fill="#e0e0e0" stroke="#999999" points="1459.88,-20 1307.38,-20 1307.38,0 1459.88,0 1459.88,-20"/>
<text xml:space="preserve" text-anchor="middle" x="1383.62" y="-6.5" font-family="Helvetica,sans-Serif" font-size="10.00">ActiveGameplayEffectHandle.h</text>
</a>
</g>
</g>
<!-- Node13&#45;&gt;Node14 -->
<g id="edge18_Node000013_Node000014" class="edge">
<title>Node13&#45;&gt;Node14</title>
<g id="a_edge18_Node000013_Node000014"><a xlink:title=" ">
<path fill="none" stroke="#63b8ff" d="M1305.17,-55.59C1319.52,-47.44 1340.55,-35.48 1357.23,-26"/>
<polygon fill="#63b8ff" stroke="#63b8ff" points="1358.67,-29.21 1365.63,-21.23 1355.21,-23.13 1358.67,-29.21"/>
</a>
</g>
</g>
<!-- Node15 -->
<g id="Node000015" class="node">
<title>Node15</title>
<g id="a_Node000015"><a xlink:title=" ">
<polygon fill="#e0e0e0" stroke="#999999" points="1553.62,-20 1477.62,-20 1477.62,0 1553.62,0 1553.62,-20"/>
<text xml:space="preserve" text-anchor="middle" x="1515.62" y="-6.5" font-family="Helvetica,sans-Serif" font-size="10.00">AttributeSet.h</text>
</a>
</g>
</g>
<!-- Node13&#45;&gt;Node15 -->
<g id="edge19_Node000013_Node000015" class="edge">
<title>Node13&#45;&gt;Node15</title>
<g id="a_edge19_Node000013_Node000015"><a xlink:title=" ">
<path fill="none" stroke="#63b8ff" d="M1328.43,-55.53C1366.78,-46.41 1424.92,-32.58 1466.21,-22.75"/>
<polygon fill="#63b8ff" stroke="#63b8ff" points="1466.99,-26.17 1475.91,-20.45 1465.37,-19.36 1466.99,-26.17"/>
</a>
</g>
</g>
<!-- Node16 -->
<g id="Node000016" class="node">
<title>Node16</title>
<g id="a_Node000016"><a xlink:title=" ">
<polygon fill="#e0e0e0" stroke="#999999" points="1720,-20 1571.25,-20 1571.25,0 1720,0 1720,-20"/>
<text xml:space="preserve" text-anchor="middle" x="1645.62" y="-6.5" font-family="Helvetica,sans-Serif" font-size="10.00">GameplayAbilitySpecHandle.h</text>
</a>
</g>
</g>
<!-- Node13&#45;&gt;Node16 -->
<g id="edge20_Node000013_Node000016" class="edge">
<title>Node13&#45;&gt;Node16</title>
<g id="a_edge20_Node000013_Node000016"><a xlink:title=" ">
<path fill="none" stroke="#63b8ff" d="M1333.48,-58.22C1393.29,-49.17 1499.96,-33.03 1571.75,-22.18"/>
<polygon fill="#63b8ff" stroke="#63b8ff" points="1572.09,-25.66 1581.46,-20.71 1571.05,-18.74 1572.09,-25.66"/>
</a>
</g>
</g>
<!-- Node17 -->
<g id="Node000017" class="node">
<title>Node17</title>
<g id="a_Node000017"><a xlink:title=" ">
<polygon fill="#e0e0e0" stroke="#999999" points="1870.75,-20 1738.5,-20 1738.5,0 1870.75,0 1870.75,-20"/>
<text xml:space="preserve" text-anchor="middle" x="1804.62" y="-6.5" font-family="Helvetica,sans-Serif" font-size="10.00">Abilities/GameplayAbility.h</text>
</a>
</g>
</g>
<!-- Node13&#45;&gt;Node17 -->
<g id="edge21_Node000013_Node000017" class="edge">
<title>Node13&#45;&gt;Node17</title>
<g id="a_edge21_Node000013_Node000017"><a xlink:title=" ">
<path fill="none" stroke="#63b8ff" d="M1333.31,-60.67C1410.9,-53.09 1575.87,-36.76 1726.99,-20.16"/>
<polygon fill="#63b8ff" stroke="#63b8ff" points="1727.25,-23.66 1736.81,-19.08 1726.49,-16.7 1727.25,-23.66"/>
</a>
</g>
</g>
<!-- Node18 -->
<g id="Node000018" class="node">
<title>Node18</title>
<g id="a_Node000018"><a xlink:title=" ">
<polygon fill="#e0e0e0" stroke="#999999" points="1159.38,-20 1033.88,-20 1033.88,0 1159.38,0 1159.38,-20"/>
<text xml:space="preserve" text-anchor="middle" x="1096.62" y="-6.5" font-family="Helvetica,sans-Serif" font-size="10.00">GameFramework/Actor.h</text>
</a>
</g>
</g>
<!-- Node13&#45;&gt;Node18 -->
<g id="edge22_Node000013_Node000018" class="edge">
<title>Node13&#45;&gt;Node18</title>
<g id="a_edge22_Node000013_Node000018"><a xlink:title=" ">
<path fill="none" stroke="#63b8ff" d="M1255.18,-55.59C1223.58,-46.71 1175.95,-33.31 1141.14,-23.52"/>
<polygon fill="#63b8ff" stroke="#63b8ff" points="1142.36,-20.23 1131.79,-20.89 1140.47,-26.97 1142.36,-20.23"/>
</a>
</g>
</g>
<!-- Node19 -->
<g id="Node000019" class="node">
<title>Node19</title>
<g id="a_Node000019"><a xlink:title=" ">
<polygon fill="#e0e0e0" stroke="#999999" points="1289.62,-20 1177.62,-20 1177.62,0 1289.62,0 1289.62,-20"/>
<text xml:space="preserve" text-anchor="middle" x="1233.62" y="-6.5" font-family="Helvetica,sans-Serif" font-size="10.00">ItemBase.generated.h</text>
</a>
</g>
</g>
<!-- Node13&#45;&gt;Node19 -->
<g id="edge23_Node000013_Node000019" class="edge">
<title>Node13&#45;&gt;Node19</title>
<g id="a_edge23_Node000013_Node000019"><a xlink:title=" ">
<path fill="none" stroke="#63b8ff" d="M1279.04,-55.59C1271.39,-48.08 1260.47,-37.35 1251.25,-28.3"/>
<polygon fill="#63b8ff" stroke="#63b8ff" points="1253.76,-25.87 1244.18,-21.36 1248.86,-30.86 1253.76,-25.87"/>
</a>
</g>
</g>
<!-- Node24&#45;&gt;Node3 -->
<g id="edge29_Node000024_Node000003" class="edge">
<title>Node24&#45;&gt;Node3</title>
<g id="a_edge29_Node000024_Node000003"><a xlink:title=" ">
<path fill="none" stroke="#63b8ff" d="M1061.53,-223.52C1048.08,-215.98 1031.47,-204.02 1023.62,-188 1008.64,-157.4 1042.28,-144.95 1033.62,-112 1025.39,-80.64 1004.95,-48.76 990.93,-29.43"/>
<polygon fill="#63b8ff" stroke="#63b8ff" points="993.8,-27.42 985.01,-21.51 988.19,-31.62 993.8,-27.42"/>
</a>
</g>
</g>
<!-- Node24&#45;&gt;Node4 -->
<g id="edge30_Node000024_Node000004" class="edge">
<title>Node24&#45;&gt;Node4</title>
<g id="a_edge30_Node000024_Node000004"><a xlink:title=" ">
<path fill="none" stroke="#63b8ff" d="M1048.7,-223.59C1017.59,-214.71 970.71,-201.31 936.45,-191.52"/>
<polygon fill="#63b8ff" stroke="#63b8ff" points="937.84,-188.28 927.26,-188.9 935.91,-195.01 937.84,-188.28"/>
</a>
</g>
</g>
<!-- Node24&#45;&gt;Node13 -->
<g id="edge31_Node000024_Node000013" class="edge">
<title>Node24&#45;&gt;Node13</title>
<g id="a_edge31_Node000024_Node000013"><a xlink:title=" ">
<path fill="none" stroke="#63b8ff" d="M1100.66,-223.6C1116.94,-215.2 1140.67,-202.07 1159.62,-188 1203.77,-155.25 1249.26,-109.13 1272.62,-84.36"/>
<polygon fill="#63b8ff" stroke="#63b8ff" points="1274.88,-87.07 1279.15,-77.37 1269.77,-82.29 1274.88,-87.07"/>
</a>
</g>
</g>
<!-- Node25 -->
<g id="Node000025" class="node">
<title>Node25</title>
<g id="a_Node000025"><a xlink:title=" ">
<polygon fill="#e0e0e0" stroke="#999999" points="1150.25,-188 1033,-188 1033,-168 1150.25,-168 1150.25,-188"/>
<text xml:space="preserve" text-anchor="middle" x="1091.62" y="-174.5" font-family="Helvetica,sans-Serif" font-size="10.00">ItemSlotUI.generated.h</text>
</a>
</g>
</g>
<!-- Node24&#45;&gt;Node25 -->
<g id="edge32_Node000024_Node000025" class="edge">
<title>Node24&#45;&gt;Node25</title>
<g id="a_edge32_Node000024_Node000025"><a xlink:title=" ">
<path fill="none" stroke="#63b8ff" d="M1083.37,-223.59C1084.6,-216.93 1086.3,-207.75 1087.84,-199.44"/>
<polygon fill="#63b8ff" stroke="#63b8ff" points="1091.25,-200.26 1089.63,-189.79 1084.37,-198.98 1091.25,-200.26"/>
</a>
</g>
</g>
<!-- Node26&#45;&gt;Node3 -->
<g id="edge34_Node000026_Node000003" class="edge">
<title>Node26&#45;&gt;Node3</title>
<g id="a_edge34_Node000026_Node000003"><a xlink:title=" ">
<path fill="none" stroke="#63b8ff" d="M1209.26,-223.81C1198.76,-210.87 1178.62,-186.79 1159.62,-168 1104.13,-113.11 1032.39,-54.88 997.51,-27.31"/>
<polygon fill="#63b8ff" stroke="#63b8ff" points="999.91,-24.74 989.88,-21.3 995.58,-30.24 999.91,-24.74"/>
</a>
</g>
</g>
<!-- Node26&#45;&gt;Node4 -->
<g id="edge35_Node000026_Node000004" class="edge">
<title>Node26&#45;&gt;Node4</title>
<g id="a_edge35_Node000026_Node000004"><a xlink:title=" ">
<path fill="none" stroke="#63b8ff" d="M1159.82,-223.53C1097.2,-213.1 997.65,-196.5 939.38,-186.79"/>
<polygon fill="#63b8ff" stroke="#63b8ff" points="940.23,-183.39 929.79,-185.19 939.07,-190.29 940.23,-183.39"/>
</a>
</g>
</g>
<!-- Node26&#45;&gt;Node13 -->
<g id="edge36_Node000026_Node000013" class="edge">
<title>Node26&#45;&gt;Node13</title>
<g id="a_edge36_Node000026_Node000013"><a xlink:title=" ">
<path fill="none" stroke="#63b8ff" d="M1220.7,-223.6C1232.14,-197.23 1264.69,-122.19 1280.2,-86.42"/>
<polygon fill="#63b8ff" stroke="#63b8ff" points="1283.22,-88.25 1283.99,-77.69 1276.8,-85.47 1283.22,-88.25"/>
</a>
</g>
</g>
<!-- Node27 -->
<g id="Node000027" class="node">
<title>Node27</title>
<g id="a_Node000027"><a xlink:title=" ">
<polygon fill="#e0e0e0" stroke="#999999" points="1418.25,-188 1283,-188 1283,-168 1418.25,-168 1418.25,-188"/>
<text xml:space="preserve" text-anchor="middle" x="1350.62" y="-174.5" font-family="Helvetica,sans-Serif" font-size="10.00">ItemSlotTooltip.generated.h</text>
</a>
</g>
</g>
<!-- Node26&#45;&gt;Node27 -->
<g id="edge37_Node000026_Node000027" class="edge">
<title>Node26&#45;&gt;Node27</title>
<g id="a_edge37_Node000026_Node000027"><a xlink:title=" ">
<path fill="none" stroke="#63b8ff" d="M1239.97,-223.59C1261.16,-215.05 1292.69,-202.35 1316.68,-192.68"/>
<polygon fill="#63b8ff" stroke="#63b8ff" points="1317.73,-196.03 1325.7,-189.05 1315.11,-189.54 1317.73,-196.03"/>
</a>
</g>
</g>
</g>
</svg>

<g id="navigator" transform="translate(0 0)" fill="#404254">
  <rect fill="#f2f5e9" fill-opacity="0.5" stroke="#606060" stroke-width=".5" x="0" y="0" width="60" height="60"/>
  <use id="zoomplus" xlink:href="#zoomPlus" x="17" y="9" onmousedown="handleZoom(evt,'in')"/>
  <use id="zoomminus" xlink:href="#zoomMin" x="42" y="9" onmousedown="handleZoom(evt,'out')"/>
  <use id="reset" xlink:href="#resetDef" x="30" y="36" onmousedown="handleReset()"/>
   <use id="arrowup" xlink:href="#arrowUp" x="0" y="0" onmousedown="handlePan(0,-1)"/>
  <use id="arrowright" xlink:href="#arrowRight" x="0" y="0" onmousedown="handlePan(1,0)"/>
  <use id="arrowdown" xlink:href="#arrowDown" x="0" y="0" onmousedown="handlePan(0,1)"/>
  <use id="arrowleft" xlink:href="#arrowLeft" x="0" y="0" onmousedown="handlePan(-1,0)"/>
</g>
<svg viewBox="0 0 15 15" width="100%" height="30px" preserveAspectRatio="xMaxYMin meet">
 <g id="arrow_out" transform="scale(0.3 0.3)">
  <a xlink:href="_inventory_u_i_8cpp__incl_org.svg" target="_base">
   <rect id="button" ry="5" rx="5" y="6" x="6" height="38" width="38"
        fill="#f2f5e9" fill-opacity="0.5" stroke="#606060" stroke-width="1.0"/>
   <path id="arrow"
     d="M 11.500037,31.436501 C 11.940474,20.09759 22.043105,11.32322 32.158766,21.979434 L 37.068811,17.246167 C 37.068811,17.246167 37.088388,32 37.088388,32 L 22.160133,31.978069 C 22.160133,31.978069 26.997745,27.140456 26.997745,27.140456 C 18.528582,18.264221 13.291696,25.230495 11.500037,31.436501 z"
     style="fill:#404040;"/>
  </a>
 </g>
</svg>

<style type='text/css'>
<![CDATA[
[data-mouse-over-selected='false'] { opacity: 0.7; }
[data-mouse-over-selected='true']  { opacity: 1.0; }
]]>
</style>
<script type="application/ecmascript"><![CDATA[
document.addEventListener('DOMContentLoaded', (event) => {
  highlightEdges();
  highlightAdjacentNodes();
});
]]></script>
</svg>
