<?xml version="1.0" encoding="UTF-8" standalone="no"?>
<!DOCTYPE svg PUBLIC "-//W3C//DTD SVG 1.1//EN"
 "http://www.w3.org/Graphics/SVG/1.1/DTD/svg11.dtd">
<!-- Generated by graphviz version 13.1.1 (20250719.2154)
 -->
<!-- Title: C:/Users/user/Perforce/alz7_CobaltbruWorkspace_00/KPT/Source/KPT/Item/ItemBase.h Pages: 1 -->
<svg width="943pt" height="120pt"
 viewBox="0.00 0.00 943.00 120.00" xmlns="http://www.w3.org/2000/svg" xmlns:xlink="http://www.w3.org/1999/xlink">
<g id="graph0" class="graph" transform="scale(1 1) rotate(0) translate(4 116)">
<title>C:/Users/user/Perforce/alz7_CobaltbruWorkspace_00/KPT/Source/KPT/Item/ItemBase.h</title>
<!-- Node1 -->
<g id="Node000001" class="node">
<title>Node1</title>
<g id="a_Node000001"><a xlink:title=" ">
<polygon fill="#999999" stroke="#666666" points="502,-112 369,-112 369,-56 502,-56 502,-112"/>
<text xml:space="preserve" text-anchor="start" x="377" y="-98.5" font-family="Helvetica,sans-Serif" font-size="10.00">C:/Users/user/Perforce</text>
<text xml:space="preserve" text-anchor="start" x="377" y="-86.5" font-family="Helvetica,sans-Serif" font-size="10.00">/alz7_CobaltbruWorkspace</text>
<text xml:space="preserve" text-anchor="start" x="377" y="-74.5" font-family="Helvetica,sans-Serif" font-size="10.00">_00/KPT/Source/KPT/Item</text>
<text xml:space="preserve" text-anchor="middle" x="435.5" y="-62.5" font-family="Helvetica,sans-Serif" font-size="10.00">/ItemBase.h</text>
</a>
</g>
</g>
<!-- Node2 -->
<g id="Node000002" class="node">
<title>Node2</title>
<g id="a_Node000002"><a xlink:title=" ">
<polygon fill="#e0e0e0" stroke="#999999" points="79,-20 0,-20 0,0 79,0 79,-20"/>
<text xml:space="preserve" text-anchor="middle" x="39.5" y="-6.5" font-family="Helvetica,sans-Serif" font-size="10.00">CoreMinimal.h</text>
</a>
</g>
</g>
<!-- Node1&#45;&gt;Node2 -->
<g id="edge1_Node000001_Node000002" class="edge">
<title>Node1&#45;&gt;Node2</title>
<g id="a_edge1_Node000001_Node000002"><a xlink:title=" ">
<path fill="none" stroke="#63b8ff" d="M368.65,-70.9C301.22,-58.7 193.81,-39.22 90.61,-20.38"/>
<polygon fill="#63b8ff" stroke="#63b8ff" points="91.3,-16.95 80.83,-18.6 90.04,-23.84 91.3,-16.95"/>
</a>
</g>
</g>
<!-- Node3 -->
<g id="Node000003" class="node">
<title>Node3</title>
<g id="a_Node000003"><a xlink:title=" ">
<polygon fill="#e0e0e0" stroke="#999999" points="249.75,-20 97.25,-20 97.25,0 249.75,0 249.75,-20"/>
<text xml:space="preserve" text-anchor="middle" x="173.5" y="-6.5" font-family="Helvetica,sans-Serif" font-size="10.00">ActiveGameplayEffectHandle.h</text>
</a>
</g>
</g>
<!-- Node1&#45;&gt;Node3 -->
<g id="edge2_Node000001_Node000003" class="edge">
<title>Node1&#45;&gt;Node3</title>
<g id="a_edge2_Node000001_Node000003"><a xlink:title=" ">
<path fill="none" stroke="#63b8ff" d="M368.71,-64.65C321.87,-51.77 260.48,-34.9 219.15,-23.55"/>
<polygon fill="#63b8ff" stroke="#63b8ff" points="220.09,-20.17 209.52,-20.9 218.23,-26.92 220.09,-20.17"/>
</a>
</g>
</g>
<!-- Node4 -->
<g id="Node000004" class="node">
<title>Node4</title>
<g id="a_Node000004"><a xlink:title=" ">
<polygon fill="#e0e0e0" stroke="#999999" points="343.5,-20 267.5,-20 267.5,0 343.5,0 343.5,-20"/>
<text xml:space="preserve" text-anchor="middle" x="305.5" y="-6.5" font-family="Helvetica,sans-Serif" font-size="10.00">AttributeSet.h</text>
</a>
</g>
</g>
<!-- Node1&#45;&gt;Node4 -->
<g id="edge3_Node000001_Node000004" class="edge">
<title>Node1&#45;&gt;Node4</title>
<g id="a_edge3_Node000001_Node000004"><a xlink:title=" ">
<path fill="none" stroke="#63b8ff" d="M385.98,-55.57C367.79,-45.5 347.89,-34.47 332.42,-25.91"/>
<polygon fill="#63b8ff" stroke="#63b8ff" points="334.27,-22.93 323.82,-21.15 330.88,-29.06 334.27,-22.93"/>
</a>
</g>
</g>
<!-- Node5 -->
<g id="Node000005" class="node">
<title>Node5</title>
<g id="a_Node000005"><a xlink:title=" ">
<polygon fill="#e0e0e0" stroke="#999999" points="509.88,-20 361.12,-20 361.12,0 509.88,0 509.88,-20"/>
<text xml:space="preserve" text-anchor="middle" x="435.5" y="-6.5" font-family="Helvetica,sans-Serif" font-size="10.00">GameplayAbilitySpecHandle.h</text>
</a>
</g>
</g>
<!-- Node1&#45;&gt;Node5 -->
<g id="edge4_Node000001_Node000005" class="edge">
<title>Node1&#45;&gt;Node5</title>
<g id="a_edge4_Node000001_Node000005"><a xlink:title=" ">
<path fill="none" stroke="#63b8ff" d="M435.5,-55.78C435.5,-47.82 435.5,-39.25 435.5,-31.76"/>
<polygon fill="#63b8ff" stroke="#63b8ff" points="439,-31.99 435.5,-21.99 432,-31.99 439,-31.99"/>
</a>
</g>
</g>
<!-- Node6 -->
<g id="Node000006" class="node">
<title>Node6</title>
<g id="a_Node000006"><a xlink:title=" ">
<polygon fill="#e0e0e0" stroke="#999999" points="660.62,-20 528.38,-20 528.38,0 660.62,0 660.62,-20"/>
<text xml:space="preserve" text-anchor="middle" x="594.5" y="-6.5" font-family="Helvetica,sans-Serif" font-size="10.00">Abilities/GameplayAbility.h</text>
</a>
</g>
</g>
<!-- Node1&#45;&gt;Node6 -->
<g id="edge5_Node000001_Node000006" class="edge">
<title>Node1&#45;&gt;Node6</title>
<g id="a_edge5_Node000001_Node000006"><a xlink:title=" ">
<path fill="none" stroke="#63b8ff" d="M496.06,-55.57C519.06,-45.16 544.3,-33.73 563.47,-25.05"/>
<polygon fill="#63b8ff" stroke="#63b8ff" points="564.66,-28.35 572.33,-21.04 561.78,-21.98 564.66,-28.35"/>
</a>
</g>
</g>
<!-- Node7 -->
<g id="Node000007" class="node">
<title>Node7</title>
<g id="a_Node000007"><a xlink:title=" ">
<polygon fill="#e0e0e0" stroke="#999999" points="804.25,-20 678.75,-20 678.75,0 804.25,0 804.25,-20"/>
<text xml:space="preserve" text-anchor="middle" x="741.5" y="-6.5" font-family="Helvetica,sans-Serif" font-size="10.00">GameFramework/Actor.h</text>
</a>
</g>
</g>
<!-- Node1&#45;&gt;Node7 -->
<g id="edge6_Node000001_Node000007" class="edge">
<title>Node1&#45;&gt;Node7</title>
<g id="a_edge6_Node000001_Node000007"><a xlink:title=" ">
<path fill="none" stroke="#63b8ff" d="M502.27,-67.29C558.84,-53.98 638.76,-35.17 690.35,-23.03"/>
<polygon fill="#63b8ff" stroke="#63b8ff" points="691.15,-26.44 700.08,-20.75 689.54,-19.63 691.15,-26.44"/>
</a>
</g>
</g>
<!-- Node8 -->
<g id="Node000008" class="node">
<title>Node8</title>
<g id="a_Node000008"><a xlink:title=" ">
<polygon fill="#e0e0e0" stroke="#999999" points="934.5,-20 822.5,-20 822.5,0 934.5,0 934.5,-20"/>
<text xml:space="preserve" text-anchor="middle" x="878.5" y="-6.5" font-family="Helvetica,sans-Serif" font-size="10.00">ItemBase.generated.h</text>
</a>
</g>
</g>
<!-- Node1&#45;&gt;Node8 -->
<g id="edge7_Node000001_Node000008" class="edge">
<title>Node1&#45;&gt;Node8</title>
<g id="a_edge7_Node000001_Node000008"><a xlink:title=" ">
<path fill="none" stroke="#63b8ff" d="M502.3,-72.14C585.61,-58.6 727.23,-35.59 810.91,-21.99"/>
<polygon fill="#63b8ff" stroke="#63b8ff" points="811.26,-25.47 820.57,-20.41 810.14,-18.56 811.26,-25.47"/>
</a>
</g>
</g>
</g>
</svg>
