<?xml version="1.0" encoding="UTF-8" standalone="no"?>
<!DOCTYPE svg PUBLIC "-//W3C//DTD SVG 1.1//EN"
 "http://www.w3.org/Graphics/SVG/1.1/DTD/svg11.dtd">
<!-- Generated by graphviz version 13.1.1 (20250719.2154)
 -->
<!-- Title: C:/Users/user/Perforce/alz7_CobaltbruWorkspace_00/KPT/Source/KPT/Core/KPTLobbyDisplayPawn.cpp Pages: 1 -->
<!--zoomable 300 -->

<svg id="main" version="1.1" xmlns="http://www.w3.org/2000/svg" xmlns:xlink="http://www.w3.org/1999/xlink" xml:space="preserve" onload="init(evt)">

<style type="text/css"><![CDATA[
.node, .edge {opacity: 0.7;}
.node.selected, .edge.selected {opacity: 1;}
.edge:hover path { stroke: red; }
.edge:hover polygon { stroke: red; fill: red; }
]]></style>

<defs>
  <circle id="rim" cx="0" cy="0" r="7"/>
  <circle id="rim2" cx="0" cy="0" r="3.5"/>
  <g id="zoomPlus">
    <use xlink:href="#rim" fill="#404040"><set attributeName="fill" to="#808080" begin="zoomplus.mouseover" end="zoomplus.mouseout"/></use>
    <path d="M-4,0h8M0,-4v8" fill="none" stroke="white" stroke-width="1.5" pointer-events="none"/>
  </g>
  <g id="zoomMin">
    <use xlink:href="#rim" fill="#404040"><set attributeName="fill" to="#808080" begin="zoomminus.mouseover" end="zoomminus.mouseout"/></use>
    <path d="M-4,0h8" fill="none" stroke="white" stroke-width="1.5" pointer-events="none"/>
  </g>
  <g id="arrowUp" transform="translate(30 24)">
    <use xlink:href="#rim"/>
    <path pointer-events="none" fill="none" stroke="white" stroke-width="1.5" d="M0,-3.0v7 M-2.5,-0.5L0,-3.0L2.5,-0.5"/>
  </g>
  <g id="arrowRight" transform="rotate(90) translate(36 -43)">
    <use xlink:href="#rim"/>
    <path pointer-events="none" fill="none" stroke="white" stroke-width="1.5" d="M0,-3.0v7 M-2.5,-0.5L0,-3.0L2.5,-0.5"/>
  </g>
  <g id="arrowDown" transform="rotate(180) translate(-30 -48)">
    <use xlink:href="#rim"/>
    <path pointer-events="none" fill="none" stroke="white" stroke-width="1.5" d="M0,-3.0v7 M-2.5,-0.5L0,-3.0L2.5,-0.5"/>
  </g>
  <g id="arrowLeft" transform="rotate(270) translate(-36 17)">
    <use xlink:href="#rim"/>
    <path pointer-events="none" fill="none" stroke="white" stroke-width="1.5" d="M0,-3.0v7 M-2.5,-0.5L0,-3.0L2.5,-0.5"/>
  </g>
  <g id="resetDef">
    <use xlink:href="#rim2" fill="#404040"><set attributeName="fill" to="#808080" begin="reset.mouseover" end="reset.mouseout"/></use>
  </g>
</defs>
<script type="application/ecmascript">
var viewWidth = 1401;
var viewHeight = 300;
var sectionId = 'dynsection-0';
</script>
<script type="application/ecmascript" xlink:href="svg.min.js"/>
<svg id="graph" class="graph">
<g id="viewport">
<title>C:/Users/user/Perforce/alz7_CobaltbruWorkspace_00/KPT/Source/KPT/Core/KPTLobbyDisplayPawn.cpp</title>
<!-- Node1 -->
<g id="Node000001" class="node">
<title>Node1</title>
<g id="a_Node000001"><a xlink:title=" ">
<polygon fill="#999999" stroke="#666666" points="803.12,-292 661.88,-292 661.88,-236 803.12,-236 803.12,-292"/>
<text xml:space="preserve" text-anchor="start" x="669.88" y="-278.5" font-family="Helvetica,sans-Serif" font-size="10.00">C:/Users/user/Perforce</text>
<text xml:space="preserve" text-anchor="start" x="669.88" y="-266.5" font-family="Helvetica,sans-Serif" font-size="10.00">/alz7_CobaltbruWorkspace</text>
<text xml:space="preserve" text-anchor="start" x="669.88" y="-254.5" font-family="Helvetica,sans-Serif" font-size="10.00">_00/KPT/Source/KPT/Core</text>
<text xml:space="preserve" text-anchor="middle" x="732.5" y="-242.5" font-family="Helvetica,sans-Serif" font-size="10.00">/KPTLobbyDisplayPawn.cpp</text>
</a>
</g>
</g>
<!-- Node2 -->
<g id="Node000002" class="node">
<title>Node2</title>
<g id="a_Node000002"><a xlink:href="_k_p_t_lobby_display_pawn_8h.html" target="_top" xlink:title=" ">
<polygon fill="white" stroke="#666666" points="410.38,-76 282.62,-76 282.62,-56 410.38,-56 410.38,-76"/>
<text xml:space="preserve" text-anchor="middle" x="346.5" y="-62.5" font-family="Helvetica,sans-Serif" font-size="10.00">KPTLobbyDisplayPawn.h</text>
</a>
</g>
</g>
<!-- Node1&#45;&gt;Node2 -->
<g id="edge1_Node000001_Node000002" class="edge">
<title>Node1&#45;&gt;Node2</title>
<g id="a_edge1_Node000001_Node000002"><a xlink:title=" ">
<path fill="none" stroke="#63b8ff" d="M661.61,-243.19C598.12,-223.61 503.97,-189.93 430.5,-144 404.03,-127.46 378.28,-102.05 362.42,-85"/>
<polygon fill="#63b8ff" stroke="#63b8ff" points="365.02,-82.66 355.7,-77.61 359.84,-87.37 365.02,-82.66"/>
</a>
</g>
</g>
<!-- Node7 -->
<g id="Node000007" class="node">
<title>Node7</title>
<g id="a_Node000007"><a xlink:href="_k_p_t_lobby_game_state_8h.html" target="_top" xlink:title=" ">
<polygon fill="white" stroke="#666666" points="792.25,-200 672.75,-200 672.75,-180 792.25,-180 792.25,-200"/>
<text xml:space="preserve" text-anchor="middle" x="732.5" y="-186.5" font-family="Helvetica,sans-Serif" font-size="10.00">KPTLobbyGameState.h</text>
</a>
</g>
</g>
<!-- Node1&#45;&gt;Node7 -->
<g id="edge6_Node000001_Node000007" class="edge">
<title>Node1&#45;&gt;Node7</title>
<g id="a_edge6_Node000001_Node000007"><a xlink:title=" ">
<path fill="none" stroke="#63b8ff" d="M732.5,-235.78C732.5,-227.82 732.5,-219.25 732.5,-211.76"/>
<polygon fill="#63b8ff" stroke="#63b8ff" points="736,-211.99 732.5,-201.99 729,-211.99 736,-211.99"/>
</a>
</g>
</g>
<!-- Node18 -->
<g id="Node000018" class="node">
<title>Node18</title>
<g id="a_Node000018"><a xlink:title=" ">
<polygon fill="#e0e0e0" stroke="#999999" points="943,-200 810,-200 810,-180 943,-180 943,-200"/>
<text xml:space="preserve" text-anchor="middle" x="876.5" y="-186.5" font-family="Helvetica,sans-Serif" font-size="10.00">Kismet/GameplayStatics.h</text>
</a>
</g>
</g>
<!-- Node1&#45;&gt;Node18 -->
<g id="edge24_Node000001_Node000018" class="edge">
<title>Node1&#45;&gt;Node18</title>
<g id="a_edge24_Node000001_Node000018"><a xlink:title=" ">
<path fill="none" stroke="#63b8ff" d="M787.35,-235.57C807.89,-225.31 830.4,-214.05 847.66,-205.42"/>
<polygon fill="#63b8ff" stroke="#63b8ff" points="848.94,-208.69 856.32,-201.09 845.81,-202.43 848.94,-208.69"/>
</a>
</g>
</g>
<!-- Node3 -->
<g id="Node000003" class="node">
<title>Node3</title>
<g id="a_Node000003"><a xlink:title=" ">
<polygon fill="#e0e0e0" stroke="#999999" points="961,-20 882,-20 882,0 961,0 961,-20"/>
<text xml:space="preserve" text-anchor="middle" x="921.5" y="-6.5" font-family="Helvetica,sans-Serif" font-size="10.00">CoreMinimal.h</text>
</a>
</g>
</g>
<!-- Node2&#45;&gt;Node3 -->
<g id="edge2_Node000002_Node000003" class="edge">
<title>Node2&#45;&gt;Node3</title>
<g id="a_edge2_Node000002_Node000003"><a xlink:title=" ">
<path fill="none" stroke="#63b8ff" d="M410.75,-60.08C506.77,-52.55 693.34,-37.21 851.5,-20 857.59,-19.34 863.97,-18.59 870.3,-17.82"/>
<polygon fill="#63b8ff" stroke="#63b8ff" points="870.56,-21.31 880.05,-16.6 869.69,-14.37 870.56,-21.31"/>
</a>
</g>
</g>
<!-- Node4 -->
<g id="Node000004" class="node">
<title>Node4</title>
<g id="a_Node000004"><a xlink:title=" ">
<polygon fill="#e0e0e0" stroke="#999999" points="462.62,-20 336.38,-20 336.38,0 462.62,0 462.62,-20"/>
<text xml:space="preserve" text-anchor="middle" x="399.5" y="-6.5" font-family="Helvetica,sans-Serif" font-size="10.00">GameplayTagContainer.h</text>
</a>
</g>
</g>
<!-- Node2&#45;&gt;Node4 -->
<g id="edge3_Node000002_Node000004" class="edge">
<title>Node2&#45;&gt;Node4</title>
<g id="a_edge3_Node000002_Node000004"><a xlink:title=" ">
<path fill="none" stroke="#63b8ff" d="M355.73,-55.59C363.1,-48.08 373.63,-37.35 382.52,-28.3"/>
<polygon fill="#63b8ff" stroke="#63b8ff" points="384.81,-30.97 389.31,-21.38 379.81,-26.06 384.81,-30.97"/>
</a>
</g>
</g>
<!-- Node5 -->
<g id="Node000005" class="node">
<title>Node5</title>
<g id="a_Node000005"><a xlink:title=" ">
<polygon fill="#e0e0e0" stroke="#999999" points="127,-20 0,-20 0,0 127,0 127,-20"/>
<text xml:space="preserve" text-anchor="middle" x="63.5" y="-6.5" font-family="Helvetica,sans-Serif" font-size="10.00">GameFramework/Pawn.h</text>
</a>
</g>
</g>
<!-- Node2&#45;&gt;Node5 -->
<g id="edge4_Node000002_Node000005" class="edge">
<title>Node2&#45;&gt;Node5</title>
<g id="a_edge4_Node000002_Node000005"><a xlink:title=" ">
<path fill="none" stroke="#63b8ff" d="M296.88,-55.53C248.84,-46.36 175.89,-32.45 124.37,-22.61"/>
<polygon fill="#63b8ff" stroke="#63b8ff" points="125.03,-19.18 114.55,-20.74 123.72,-26.05 125.03,-19.18"/>
</a>
</g>
</g>
<!-- Node6 -->
<g id="Node000006" class="node">
<title>Node6</title>
<g id="a_Node000006"><a xlink:title=" ">
<polygon fill="#e0e0e0" stroke="#999999" points="318.25,-20 144.75,-20 144.75,0 318.25,0 318.25,-20"/>
<text xml:space="preserve" text-anchor="middle" x="231.5" y="-6.5" font-family="Helvetica,sans-Serif" font-size="10.00">KPTLobbyDisplayPawn.generated.h</text>
</a>
</g>
</g>
<!-- Node2&#45;&gt;Node6 -->
<g id="edge5_Node000002_Node000006" class="edge">
<title>Node2&#45;&gt;Node6</title>
<g id="a_edge5_Node000002_Node000006"><a xlink:title=" ">
<path fill="none" stroke="#63b8ff" d="M326.47,-55.59C308.69,-47.24 282.43,-34.92 262.04,-25.34"/>
<polygon fill="#63b8ff" stroke="#63b8ff" points="263.6,-22.21 253.06,-21.12 260.62,-28.54 263.6,-22.21"/>
</a>
</g>
</g>
<!-- Node7&#45;&gt;Node3 -->
<g id="edge7_Node000007_Node000003" class="edge">
<title>Node7&#45;&gt;Node3</title>
<g id="a_edge7_Node000007_Node000003"><a xlink:title=" ">
<path fill="none" stroke="#63b8ff" d="M792.59,-180.94C869.79,-170.29 994.76,-151.96 1001.5,-144 1033.81,-105.84 977.25,-53.12 943.68,-27"/>
<polygon fill="#63b8ff" stroke="#63b8ff" points="946.21,-24.53 936.12,-21.29 941.98,-30.11 946.21,-24.53"/>
</a>
</g>
</g>
<!-- Node7&#45;&gt;Node4 -->
<g id="edge8_Node000007_Node000004" class="edge">
<title>Node7&#45;&gt;Node4</title>
<g id="a_edge8_Node000007_Node000004"><a xlink:title=" ">
<path fill="none" stroke="#63b8ff" d="M672.47,-185.83C601.85,-180.98 490.11,-169.45 457.5,-144 423.92,-117.79 436.6,-95.02 419.5,-56 415.86,-47.69 411.8,-38.53 408.29,-30.66"/>
<polygon fill="#63b8ff" stroke="#63b8ff" points="411.55,-29.38 404.28,-21.68 405.16,-32.24 411.55,-29.38"/>
</a>
</g>
</g>
<!-- Node8 -->
<g id="Node000008" class="node">
<title>Node8</title>
<g id="a_Node000008"><a xlink:href="_u_lobby_state_manager_component_8h.html" target="_top" xlink:title=" ">
<polygon fill="white" stroke="#666666" points="638.5,-144 466.5,-144 466.5,-112 638.5,-112 638.5,-144"/>
<text xml:space="preserve" text-anchor="start" x="474.5" y="-130.5" font-family="Helvetica,sans-Serif" font-size="10.00">Component/GameState</text>
<text xml:space="preserve" text-anchor="middle" x="552.5" y="-118.5" font-family="Helvetica,sans-Serif" font-size="10.00">/ULobbyStateManagerComponent.h</text>
</a>
</g>
</g>
<!-- Node7&#45;&gt;Node8 -->
<g id="edge9_Node000007_Node000008" class="edge">
<title>Node7&#45;&gt;Node8</title>
<g id="a_edge9_Node000007_Node000008"><a xlink:title=" ">
<path fill="none" stroke="#63b8ff" d="M704.38,-179.62C679.17,-171.22 641.41,-158.64 609.85,-148.12"/>
<polygon fill="#63b8ff" stroke="#63b8ff" points="611,-144.81 600.41,-144.97 608.79,-151.45 611,-144.81"/>
</a>
</g>
</g>
<!-- Node13 -->
<g id="Node000013" class="node">
<title>Node13</title>
<g id="a_Node000013"><a xlink:title=" ">
<polygon fill="#e0e0e0" stroke="#999999" points="808.38,-138 656.62,-138 656.62,-118 808.38,-118 808.38,-138"/>
<text xml:space="preserve" text-anchor="middle" x="732.5" y="-124.5" font-family="Helvetica,sans-Serif" font-size="10.00">GameFramework/GameState.h</text>
</a>
</g>
</g>
<!-- Node7&#45;&gt;Node13 -->
<g id="edge18_Node000007_Node000013" class="edge">
<title>Node7&#45;&gt;Node13</title>
<g id="a_edge18_Node000007_Node000013"><a xlink:title=" ">
<path fill="none" stroke="#63b8ff" d="M732.5,-179.62C732.5,-171.56 732.5,-159.65 732.5,-149.41"/>
<polygon fill="#63b8ff" stroke="#63b8ff" points="736,-149.63 732.5,-139.63 729,-149.63 736,-149.63"/>
</a>
</g>
</g>
<!-- Node14 -->
<g id="Node000014" class="node">
<title>Node14</title>
<g id="a_Node000014"><a xlink:href="_component_owner_interface_8h.html" target="_top" xlink:title=" ">
<polygon fill="white" stroke="#666666" points="1195.5,-144 1059.5,-144 1059.5,-112 1195.5,-112 1195.5,-144"/>
<text xml:space="preserve" text-anchor="start" x="1067.5" y="-130.5" font-family="Helvetica,sans-Serif" font-size="10.00">Interface/ComponentOwner</text>
<text xml:space="preserve" text-anchor="middle" x="1127.5" y="-118.5" font-family="Helvetica,sans-Serif" font-size="10.00">Interface.h</text>
</a>
</g>
</g>
<!-- Node7&#45;&gt;Node14 -->
<g id="edge19_Node000007_Node000014" class="edge">
<title>Node7&#45;&gt;Node14</title>
<g id="a_edge19_Node000007_Node000014"><a xlink:title=" ">
<path fill="none" stroke="#63b8ff" d="M792.7,-180.25C853.67,-171.33 950.69,-157 1034.5,-144 1038.87,-143.32 1043.36,-142.62 1047.9,-141.9"/>
<polygon fill="#63b8ff" stroke="#63b8ff" points="1048.38,-145.37 1057.71,-140.35 1047.28,-138.46 1048.38,-145.37"/>
</a>
</g>
</g>
<!-- Node17 -->
<g id="Node000017" class="node">
<title>Node17</title>
<g id="a_Node000017"><a xlink:title=" ">
<polygon fill="#e0e0e0" stroke="#999999" points="992.12,-138 826.88,-138 826.88,-118 992.12,-118 992.12,-138"/>
<text xml:space="preserve" text-anchor="middle" x="909.5" y="-124.5" font-family="Helvetica,sans-Serif" font-size="10.00">KPTLobbyGameState.generated.h</text>
</a>
</g>
</g>
<!-- Node7&#45;&gt;Node17 -->
<g id="edge23_Node000007_Node000017" class="edge">
<title>Node7&#45;&gt;Node17</title>
<g id="a_edge23_Node000007_Node000017"><a xlink:title=" ">
<path fill="none" stroke="#63b8ff" d="M760.16,-179.62C789.94,-169.53 837.56,-153.39 871,-142.05"/>
<polygon fill="#63b8ff" stroke="#63b8ff" points="871.97,-145.42 880.31,-138.89 869.72,-138.79 871.97,-145.42"/>
</a>
</g>
</g>
<!-- Node8&#45;&gt;Node3 -->
<g id="edge10_Node000008_Node000003" class="edge">
<title>Node8&#45;&gt;Node3</title>
<g id="a_edge10_Node000008_Node000003"><a xlink:title=" ">
<path fill="none" stroke="#63b8ff" d="M638.96,-113.29C641.84,-112.85 644.69,-112.42 647.5,-112 704.1,-103.54 859.22,-113.45 902.5,-76 915.15,-65.05 919.61,-46.19 921.07,-31.59"/>
<polygon fill="#63b8ff" stroke="#63b8ff" points="924.56,-31.87 921.63,-21.68 917.57,-31.47 924.56,-31.87"/>
</a>
</g>
</g>
<!-- Node9 -->
<g id="Node000009" class="node">
<title>Node9</title>
<g id="a_Node000009"><a xlink:href="_u_state_manager_component_8h.html" target="_top" xlink:title=" ">
<polygon fill="white" stroke="#666666" points="623.88,-76 481.12,-76 481.12,-56 623.88,-56 623.88,-76"/>
<text xml:space="preserve" text-anchor="middle" x="552.5" y="-62.5" font-family="Helvetica,sans-Serif" font-size="10.00">UStateManagerComponent.h</text>
</a>
</g>
</g>
<!-- Node8&#45;&gt;Node9 -->
<g id="edge11_Node000008_Node000009" class="edge">
<title>Node8&#45;&gt;Node9</title>
<g id="a_edge11_Node000008_Node000009"><a xlink:title=" ">
<path fill="none" stroke="#63b8ff" d="M552.5,-111.55C552.5,-104.34 552.5,-95.66 552.5,-87.88"/>
<polygon fill="#63b8ff" stroke="#63b8ff" points="556,-87.92 552.5,-77.92 549,-87.92 556,-87.92"/>
</a>
</g>
</g>
<!-- Node10 -->
<g id="Node000010" class="node">
<title>Node10</title>
<g id="a_Node000010"><a xlink:title=" ">
<polygon fill="#e0e0e0" stroke="#999999" points="842.62,-20 686.38,-20 686.38,0 842.62,0 842.62,-20"/>
<text xml:space="preserve" text-anchor="middle" x="764.5" y="-6.5" font-family="Helvetica,sans-Serif" font-size="10.00">Components/ActorComponent.h</text>
</a>
</g>
</g>
<!-- Node8&#45;&gt;Node10 -->
<g id="edge16_Node000008_Node000010" class="edge">
<title>Node8&#45;&gt;Node10</title>
<g id="a_edge16_Node000008_Node000010"><a xlink:title=" ">
<path fill="none" stroke="#63b8ff" d="M576.52,-111.63C600.09,-96.76 637.24,-73.91 670.5,-56 690.91,-45.01 714.44,-33.74 732.85,-25.24"/>
<polygon fill="#63b8ff" stroke="#63b8ff" points="734.3,-28.42 741.93,-21.08 731.38,-22.06 734.3,-28.42"/>
</a>
</g>
</g>
<!-- Node12 -->
<g id="Node000012" class="node">
<title>Node12</title>
<g id="a_Node000012"><a xlink:title=" ">
<polygon fill="#e0e0e0" stroke="#999999" points="893.88,-76 679.12,-76 679.12,-56 893.88,-56 893.88,-76"/>
<text xml:space="preserve" text-anchor="middle" x="786.5" y="-62.5" font-family="Helvetica,sans-Serif" font-size="10.00">ULobbyStateManagerComponent.generated.h</text>
</a>
</g>
</g>
<!-- Node8&#45;&gt;Node12 -->
<g id="edge17_Node000008_Node000012" class="edge">
<title>Node8&#45;&gt;Node12</title>
<g id="a_edge17_Node000008_Node000012"><a xlink:title=" ">
<path fill="none" stroke="#63b8ff" d="M612.76,-111.55C651.91,-101.51 702.24,-88.61 738.64,-79.27"/>
<polygon fill="#63b8ff" stroke="#63b8ff" points="739.18,-82.75 748,-76.87 737.44,-75.97 739.18,-82.75"/>
</a>
</g>
</g>
<!-- Node9&#45;&gt;Node3 -->
<g id="edge12_Node000009_Node000003" class="edge">
<title>Node9&#45;&gt;Node3</title>
<g id="a_edge12_Node000009_Node000003"><a xlink:title=" ">
<path fill="none" stroke="#63b8ff" d="M617.2,-55.53C689.24,-44.99 804.23,-28.16 870.3,-18.49"/>
<polygon fill="#63b8ff" stroke="#63b8ff" points="870.77,-21.96 880.16,-17.05 869.75,-15.04 870.77,-21.96"/>
</a>
</g>
</g>
<!-- Node9&#45;&gt;Node4 -->
<g id="edge13_Node000009_Node000004" class="edge">
<title>Node9&#45;&gt;Node4</title>
<g id="a_edge13_Node000009_Node000004"><a xlink:title=" ">
<path fill="none" stroke="#63b8ff" d="M525.85,-55.59C501.32,-46.94 464.67,-34 437.16,-24.29"/>
<polygon fill="#63b8ff" stroke="#63b8ff" points="438.38,-21.01 427.79,-20.98 436.05,-27.61 438.38,-21.01"/>
</a>
</g>
</g>
<!-- Node9&#45;&gt;Node10 -->
<g id="edge14_Node000009_Node000010" class="edge">
<title>Node9&#45;&gt;Node10</title>
<g id="a_edge14_Node000009_Node000010"><a xlink:title=" ">
<path fill="none" stroke="#63b8ff" d="M589.43,-55.59C624.63,-46.63 677.82,-33.08 716.34,-23.27"/>
<polygon fill="#63b8ff" stroke="#63b8ff" points="716.99,-26.71 725.82,-20.85 715.26,-19.93 716.99,-26.71"/>
</a>
</g>
</g>
<!-- Node11 -->
<g id="Node000011" class="node">
<title>Node11</title>
<g id="a_Node000011"><a xlink:title=" ">
<polygon fill="#e0e0e0" stroke="#999999" points="668.75,-20 480.25,-20 480.25,0 668.75,0 668.75,-20"/>
<text xml:space="preserve" text-anchor="middle" x="574.5" y="-6.5" font-family="Helvetica,sans-Serif" font-size="10.00">UStateManagerComponent.generated.h</text>
</a>
</g>
</g>
<!-- Node9&#45;&gt;Node11 -->
<g id="edge15_Node000009_Node000011" class="edge">
<title>Node9&#45;&gt;Node11</title>
<g id="a_edge15_Node000009_Node000011"><a xlink:title=" ">
<path fill="none" stroke="#63b8ff" d="M556.33,-55.59C559.11,-48.78 562.96,-39.32 566.41,-30.86"/>
<polygon fill="#63b8ff" stroke="#63b8ff" points="569.61,-32.28 570.14,-21.7 563.13,-29.64 569.61,-32.28"/>
</a>
</g>
</g>
<!-- Node14&#45;&gt;Node3 -->
<g id="edge20_Node000014_Node000003" class="edge">
<title>Node14&#45;&gt;Node3</title>
<g id="a_edge20_Node000014_Node000003"><a xlink:title=" ">
<path fill="none" stroke="#63b8ff" d="M1110.34,-111.59C1092.4,-96.05 1062.95,-72.12 1034.5,-56 1011.55,-43 984.1,-31.97 962,-24.09"/>
<polygon fill="#63b8ff" stroke="#63b8ff" points="963.33,-20.84 952.73,-20.86 961.03,-27.46 963.33,-20.84"/>
</a>
</g>
</g>
<!-- Node15 -->
<g id="Node000015" class="node">
<title>Node15</title>
<g id="a_Node000015"><a xlink:title=" ">
<polygon fill="#e0e0e0" stroke="#999999" points="1188.25,-76 1086.75,-76 1086.75,-56 1188.25,-56 1188.25,-76"/>
<text xml:space="preserve" text-anchor="middle" x="1137.5" y="-62.5" font-family="Helvetica,sans-Serif" font-size="10.00">UObject/Interface.h</text>
</a>
</g>
</g>
<!-- Node14&#45;&gt;Node15 -->
<g id="edge21_Node000014_Node000015" class="edge">
<title>Node14&#45;&gt;Node15</title>
<g id="a_edge21_Node000014_Node000015"><a xlink:title=" ">
<path fill="none" stroke="#63b8ff" d="M1130.08,-111.55C1131.29,-104.26 1132.76,-95.45 1134.07,-87.6"/>
<polygon fill="#63b8ff" stroke="#63b8ff" points="1137.49,-88.34 1135.68,-77.9 1130.59,-87.19 1137.49,-88.34"/>
</a>
</g>
</g>
<!-- Node16 -->
<g id="Node000016" class="node">
<title>Node16</title>
<g id="a_Node000016"><a xlink:title=" ">
<polygon fill="#e0e0e0" stroke="#999999" points="1393,-76 1206,-76 1206,-56 1393,-56 1393,-76"/>
<text xml:space="preserve" text-anchor="middle" x="1299.5" y="-62.5" font-family="Helvetica,sans-Serif" font-size="10.00">ComponentOwnerInterface.generated.h</text>
</a>
</g>
</g>
<!-- Node14&#45;&gt;Node16 -->
<g id="edge22_Node000014_Node000016" class="edge">
<title>Node14&#45;&gt;Node16</title>
<g id="a_edge22_Node000014_Node000016"><a xlink:title=" ">
<path fill="none" stroke="#63b8ff" d="M1171.79,-111.55C1199.58,-101.86 1235.02,-89.49 1261.52,-80.25"/>
<polygon fill="#63b8ff" stroke="#63b8ff" points="1262.56,-83.59 1270.85,-76.99 1260.25,-76.98 1262.56,-83.59"/>
</a>
</g>
</g>
</g>
</svg>

<g id="navigator" transform="translate(0 0)" fill="#404254">
  <rect fill="#f2f5e9" fill-opacity="0.5" stroke="#606060" stroke-width=".5" x="0" y="0" width="60" height="60"/>
  <use id="zoomplus" xlink:href="#zoomPlus" x="17" y="9" onmousedown="handleZoom(evt,'in')"/>
  <use id="zoomminus" xlink:href="#zoomMin" x="42" y="9" onmousedown="handleZoom(evt,'out')"/>
  <use id="reset" xlink:href="#resetDef" x="30" y="36" onmousedown="handleReset()"/>
   <use id="arrowup" xlink:href="#arrowUp" x="0" y="0" onmousedown="handlePan(0,-1)"/>
  <use id="arrowright" xlink:href="#arrowRight" x="0" y="0" onmousedown="handlePan(1,0)"/>
  <use id="arrowdown" xlink:href="#arrowDown" x="0" y="0" onmousedown="handlePan(0,1)"/>
  <use id="arrowleft" xlink:href="#arrowLeft" x="0" y="0" onmousedown="handlePan(-1,0)"/>
</g>
<svg viewBox="0 0 15 15" width="100%" height="30px" preserveAspectRatio="xMaxYMin meet">
 <g id="arrow_out" transform="scale(0.3 0.3)">
  <a xlink:href="_k_p_t_lobby_display_pawn_8cpp__incl_org.svg" target="_base">
   <rect id="button" ry="5" rx="5" y="6" x="6" height="38" width="38"
        fill="#f2f5e9" fill-opacity="0.5" stroke="#606060" stroke-width="1.0"/>
   <path id="arrow"
     d="M 11.500037,31.436501 C 11.940474,20.09759 22.043105,11.32322 32.158766,21.979434 L 37.068811,17.246167 C 37.068811,17.246167 37.088388,32 37.088388,32 L 22.160133,31.978069 C 22.160133,31.978069 26.997745,27.140456 26.997745,27.140456 C 18.528582,18.264221 13.291696,25.230495 11.500037,31.436501 z"
     style="fill:#404040;"/>
  </a>
 </g>
</svg>

<style type='text/css'>
<![CDATA[
[data-mouse-over-selected='false'] { opacity: 0.7; }
[data-mouse-over-selected='true']  { opacity: 1.0; }
]]>
</style>
<script type="application/ecmascript"><![CDATA[
document.addEventListener('DOMContentLoaded', (event) => {
  highlightEdges();
  highlightAdjacentNodes();
});
]]></script>
</svg>
