<?xml version="1.0" encoding="UTF-8" standalone="no"?>
<!DOCTYPE svg PUBLIC "-//W3C//DTD SVG 1.1//EN"
 "http://www.w3.org/Graphics/SVG/1.1/DTD/svg11.dtd">
<!-- Generated by graphviz version 13.1.1 (20250719.2154)
 -->
<!-- Title: C:/Users/user/Perforce/alz7_CobaltbruWorkspace_00/KPT/Source/KPT/KPTCharacter.h Pages: 1 -->
<svg width="528pt" height="108pt"
 viewBox="0.00 0.00 528.00 108.00" xmlns="http://www.w3.org/2000/svg" xmlns:xlink="http://www.w3.org/1999/xlink">
<g id="graph0" class="graph" transform="scale(1 1) rotate(0) translate(4 104)">
<title>C:/Users/user/Perforce/alz7_CobaltbruWorkspace_00/KPT/Source/KPT/KPTCharacter.h</title>
<!-- Node1 -->
<g id="Node000001" class="node">
<title>Node1</title>
<g id="a_Node000001"><a xlink:title=" ">
<polygon fill="#999999" stroke="#666666" points="333.5,-100 149.5,-100 149.5,-56 333.5,-56 333.5,-100"/>
<text xml:space="preserve" text-anchor="start" x="157.5" y="-86.5" font-family="Helvetica,sans-Serif" font-size="10.00">C:/Users/user/Perforce</text>
<text xml:space="preserve" text-anchor="start" x="157.5" y="-74.5" font-family="Helvetica,sans-Serif" font-size="10.00">/alz7_CobaltbruWorkspace</text>
<text xml:space="preserve" text-anchor="middle" x="241.5" y="-62.5" font-family="Helvetica,sans-Serif" font-size="10.00">_00/KPT/Source/KPT/KPTCharacter.h</text>
</a>
</g>
</g>
<!-- Node2 -->
<g id="Node000002" class="node">
<title>Node2</title>
<g id="a_Node000002"><a xlink:title=" ">
<polygon fill="#e0e0e0" stroke="#999999" points="79,-20 0,-20 0,0 79,0 79,-20"/>
<text xml:space="preserve" text-anchor="middle" x="39.5" y="-6.5" font-family="Helvetica,sans-Serif" font-size="10.00">CoreMinimal.h</text>
</a>
</g>
</g>
<!-- Node1&#45;&gt;Node2 -->
<g id="edge1_Node000001_Node000002" class="edge">
<title>Node1&#45;&gt;Node2</title>
<g id="a_edge1_Node000001_Node000002"><a xlink:title=" ">
<path fill="none" stroke="#63b8ff" d="M175.92,-55.57C144.02,-45.15 106.73,-32.97 79.21,-23.97"/>
<polygon fill="#63b8ff" stroke="#63b8ff" points="80.46,-20.7 69.87,-20.92 78.29,-27.35 80.46,-20.7"/>
</a>
</g>
</g>
<!-- Node3 -->
<g id="Node000003" class="node">
<title>Node3</title>
<g id="a_Node000003"><a xlink:title=" ">
<polygon fill="#e0e0e0" stroke="#999999" points="242,-20 97,-20 97,0 242,0 242,-20"/>
<text xml:space="preserve" text-anchor="middle" x="169.5" y="-6.5" font-family="Helvetica,sans-Serif" font-size="10.00">GameFramework/Character.h</text>
</a>
</g>
</g>
<!-- Node1&#45;&gt;Node3 -->
<g id="edge2_Node000001_Node000003" class="edge">
<title>Node1&#45;&gt;Node3</title>
<g id="a_edge2_Node000001_Node000003"><a xlink:title=" ">
<path fill="none" stroke="#63b8ff" d="M218.32,-55.75C208.58,-46.82 197.4,-36.57 188.19,-28.13"/>
<polygon fill="#63b8ff" stroke="#63b8ff" points="190.63,-25.62 180.89,-21.44 185.9,-30.78 190.63,-25.62"/>
</a>
</g>
</g>
<!-- Node4 -->
<g id="Node000004" class="node">
<title>Node4</title>
<g id="a_Node000004"><a xlink:title=" ">
<polygon fill="#e0e0e0" stroke="#999999" points="369,-20 260,-20 260,0 369,0 369,-20"/>
<text xml:space="preserve" text-anchor="middle" x="314.5" y="-6.5" font-family="Helvetica,sans-Serif" font-size="10.00">Logging/LogMacros.h</text>
</a>
</g>
</g>
<!-- Node1&#45;&gt;Node4 -->
<g id="edge3_Node000001_Node000004" class="edge">
<title>Node1&#45;&gt;Node4</title>
<g id="a_edge3_Node000001_Node000004"><a xlink:title=" ">
<path fill="none" stroke="#63b8ff" d="M265,-55.75C274.88,-46.82 286.22,-36.57 295.55,-28.13"/>
<polygon fill="#63b8ff" stroke="#63b8ff" points="297.89,-30.74 302.96,-21.43 293.19,-25.54 297.89,-30.74"/>
</a>
</g>
</g>
<!-- Node5 -->
<g id="Node000005" class="node">
<title>Node5</title>
<g id="a_Node000005"><a xlink:title=" ">
<polygon fill="#e0e0e0" stroke="#999999" points="519.62,-20 387.38,-20 387.38,0 519.62,0 519.62,-20"/>
<text xml:space="preserve" text-anchor="middle" x="453.5" y="-6.5" font-family="Helvetica,sans-Serif" font-size="10.00">KPTCharacter.generated.h</text>
</a>
</g>
</g>
<!-- Node1&#45;&gt;Node5 -->
<g id="edge4_Node000001_Node000005" class="edge">
<title>Node1&#45;&gt;Node5</title>
<g id="a_edge4_Node000001_Node000005"><a xlink:title=" ">
<path fill="none" stroke="#63b8ff" d="M310.33,-55.57C343.95,-45.1 383.29,-32.86 412.21,-23.85"/>
<polygon fill="#63b8ff" stroke="#63b8ff" points="413.19,-27.22 421.69,-20.9 411.11,-20.53 413.19,-27.22"/>
</a>
</g>
</g>
</g>
</svg>
