<?xml version="1.0" encoding="UTF-8" standalone="no"?>
<!DOCTYPE svg PUBLIC "-//W3C//DTD SVG 1.1//EN"
 "http://www.w3.org/Graphics/SVG/1.1/DTD/svg11.dtd">
<!-- Generated by graphviz version 13.1.1 (20250719.2154)
 -->
<!-- Title: C:/Users/user/Perforce/alz7_CobaltbruWorkspace_00/KPT/Source/KPT/KPTCharacter.cpp Pages: 1 -->
<!--zoomable 176 -->

<svg id="main" version="1.1" xmlns="http://www.w3.org/2000/svg" xmlns:xlink="http://www.w3.org/1999/xlink" xml:space="preserve" onload="init(evt)">

<style type="text/css"><![CDATA[
.node, .edge {opacity: 0.7;}
.node.selected, .edge.selected {opacity: 1;}
.edge:hover path { stroke: red; }
.edge:hover polygon { stroke: red; fill: red; }
]]></style>

<defs>
  <circle id="rim" cx="0" cy="0" r="7"/>
  <circle id="rim2" cx="0" cy="0" r="3.5"/>
  <g id="zoomPlus">
    <use xlink:href="#rim" fill="#404040"><set attributeName="fill" to="#808080" begin="zoomplus.mouseover" end="zoomplus.mouseout"/></use>
    <path d="M-4,0h8M0,-4v8" fill="none" stroke="white" stroke-width="1.5" pointer-events="none"/>
  </g>
  <g id="zoomMin">
    <use xlink:href="#rim" fill="#404040"><set attributeName="fill" to="#808080" begin="zoomminus.mouseover" end="zoomminus.mouseout"/></use>
    <path d="M-4,0h8" fill="none" stroke="white" stroke-width="1.5" pointer-events="none"/>
  </g>
  <g id="arrowUp" transform="translate(30 24)">
    <use xlink:href="#rim"/>
    <path pointer-events="none" fill="none" stroke="white" stroke-width="1.5" d="M0,-3.0v7 M-2.5,-0.5L0,-3.0L2.5,-0.5"/>
  </g>
  <g id="arrowRight" transform="rotate(90) translate(36 -43)">
    <use xlink:href="#rim"/>
    <path pointer-events="none" fill="none" stroke="white" stroke-width="1.5" d="M0,-3.0v7 M-2.5,-0.5L0,-3.0L2.5,-0.5"/>
  </g>
  <g id="arrowDown" transform="rotate(180) translate(-30 -48)">
    <use xlink:href="#rim"/>
    <path pointer-events="none" fill="none" stroke="white" stroke-width="1.5" d="M0,-3.0v7 M-2.5,-0.5L0,-3.0L2.5,-0.5"/>
  </g>
  <g id="arrowLeft" transform="rotate(270) translate(-36 17)">
    <use xlink:href="#rim"/>
    <path pointer-events="none" fill="none" stroke="white" stroke-width="1.5" d="M0,-3.0v7 M-2.5,-0.5L0,-3.0L2.5,-0.5"/>
  </g>
  <g id="resetDef">
    <use xlink:href="#rim2" fill="#404040"><set attributeName="fill" to="#808080" begin="reset.mouseover" end="reset.mouseout"/></use>
  </g>
</defs>
<script type="application/ecmascript">
var viewWidth = 1784;
var viewHeight = 176;
var sectionId = 'dynsection-0';
</script>
<script type="application/ecmascript" xlink:href="svg.min.js"/>
<svg id="graph" class="graph">
<g id="viewport">
<title>C:/Users/user/Perforce/alz7_CobaltbruWorkspace_00/KPT/Source/KPT/KPTCharacter.cpp</title>
<!-- Node1 -->
<g id="Node000001" class="node">
<title>Node1</title>
<g id="a_Node000001"><a xlink:title=" ">
<polygon fill="#999999" stroke="#666666" points="1072.75,-168 878.25,-168 878.25,-124 1072.75,-124 1072.75,-168"/>
<text xml:space="preserve" text-anchor="start" x="886.25" y="-154.5" font-family="Helvetica,sans-Serif" font-size="10.00">C:/Users/user/Perforce</text>
<text xml:space="preserve" text-anchor="start" x="886.25" y="-142.5" font-family="Helvetica,sans-Serif" font-size="10.00">/alz7_CobaltbruWorkspace</text>
<text xml:space="preserve" text-anchor="middle" x="975.5" y="-130.5" font-family="Helvetica,sans-Serif" font-size="10.00">_00/KPT/Source/KPT/KPTCharacter.cpp</text>
</a>
</g>
</g>
<!-- Node2 -->
<g id="Node000002" class="node">
<title>Node2</title>
<g id="a_Node000002"><a xlink:href="_k_p_t_character_8h.html" target="_top" xlink:title=" ">
<polygon fill="white" stroke="#666666" points="284.75,-82 198.25,-82 198.25,-62 284.75,-62 284.75,-82"/>
<text xml:space="preserve" text-anchor="middle" x="241.5" y="-68.5" font-family="Helvetica,sans-Serif" font-size="10.00">KPTCharacter.h</text>
</a>
</g>
</g>
<!-- Node1&#45;&gt;Node2 -->
<g id="edge1_Node000001_Node000002" class="edge">
<title>Node1&#45;&gt;Node2</title>
<g id="a_edge1_Node000001_Node000002"><a xlink:title=" ">
<path fill="none" stroke="#63b8ff" d="M877.86,-142.88C744.74,-138.63 499.3,-125.9 293.5,-88 289.47,-87.26 285.31,-86.34 281.18,-85.31"/>
<polygon fill="#63b8ff" stroke="#63b8ff" points="282.44,-82.03 271.87,-82.83 280.63,-88.79 282.44,-82.03"/>
</a>
</g>
</g>
<!-- Node7 -->
<g id="Node000007" class="node">
<title>Node7</title>
<g id="a_Node000007"><a xlink:title=" ">
<polygon fill="#e0e0e0" stroke="#999999" points="410.62,-82 302.38,-82 302.38,-62 410.62,-62 410.62,-82"/>
<text xml:space="preserve" text-anchor="middle" x="356.5" y="-68.5" font-family="Helvetica,sans-Serif" font-size="10.00">Engine/LocalPlayer.h</text>
</a>
</g>
</g>
<!-- Node1&#45;&gt;Node7 -->
<g id="edge6_Node000001_Node000007" class="edge">
<title>Node1&#45;&gt;Node7</title>
<g id="a_edge6_Node000001_Node000007"><a xlink:title=" ">
<path fill="none" stroke="#63b8ff" d="M877.8,-138.89C766.35,-131.02 578.91,-115.03 419.5,-88 414.3,-87.12 408.89,-86.06 403.52,-84.91"/>
<polygon fill="#63b8ff" stroke="#63b8ff" points="404.65,-81.57 394.12,-82.8 403.11,-88.4 404.65,-81.57"/>
</a>
</g>
</g>
<!-- Node8 -->
<g id="Node000008" class="node">
<title>Node8</title>
<g id="a_Node000008"><a xlink:title=" ">
<polygon fill="#e0e0e0" stroke="#999999" points="574.75,-82 428.25,-82 428.25,-62 574.75,-62 574.75,-82"/>
<text xml:space="preserve" text-anchor="middle" x="501.5" y="-68.5" font-family="Helvetica,sans-Serif" font-size="10.00">Camera/CameraComponent.h</text>
</a>
</g>
</g>
<!-- Node1&#45;&gt;Node8 -->
<g id="edge7_Node000001_Node000008" class="edge">
<title>Node1&#45;&gt;Node8</title>
<g id="a_edge7_Node000001_Node000008"><a xlink:title=" ">
<path fill="none" stroke="#63b8ff" d="M878.14,-131.75C798.95,-120.74 684.36,-104.3 584.5,-88 577.75,-86.9 570.71,-85.7 563.69,-84.48"/>
<polygon fill="#63b8ff" stroke="#63b8ff" points="564.32,-81.03 553.86,-82.74 563.1,-87.93 564.32,-81.03"/>
</a>
</g>
</g>
<!-- Node9 -->
<g id="Node000009" class="node">
<title>Node9</title>
<g id="a_Node000009"><a xlink:title=" ">
<polygon fill="#e0e0e0" stroke="#999999" points="762,-82 593,-82 593,-62 762,-62 762,-82"/>
<text xml:space="preserve" text-anchor="middle" x="677.5" y="-68.5" font-family="Helvetica,sans-Serif" font-size="10.00">Components/CapsuleComponent.h</text>
</a>
</g>
</g>
<!-- Node1&#45;&gt;Node9 -->
<g id="edge8_Node000001_Node000009" class="edge">
<title>Node1&#45;&gt;Node9</title>
<g id="a_edge8_Node000001_Node000009"><a xlink:title=" ">
<path fill="none" stroke="#63b8ff" d="M886.9,-123.59C834.92,-111.04 771.15,-95.63 727.73,-85.14"/>
<polygon fill="#63b8ff" stroke="#63b8ff" points="728.62,-81.75 718.08,-82.8 726.97,-88.55 728.62,-81.75"/>
</a>
</g>
</g>
<!-- Node10 -->
<g id="Node000010" class="node">
<title>Node10</title>
<g id="a_Node000010"><a xlink:title=" ">
<polygon fill="#e0e0e0" stroke="#999999" points="962.75,-88 780.25,-88 780.25,-56 962.75,-56 962.75,-88"/>
<text xml:space="preserve" text-anchor="start" x="788.25" y="-74.5" font-family="Helvetica,sans-Serif" font-size="10.00">GameFramework/CharacterMovement</text>
<text xml:space="preserve" text-anchor="middle" x="871.5" y="-62.5" font-family="Helvetica,sans-Serif" font-size="10.00">Component.h</text>
</a>
</g>
</g>
<!-- Node1&#45;&gt;Node10 -->
<g id="edge9_Node000001_Node000010" class="edge">
<title>Node1&#45;&gt;Node10</title>
<g id="a_edge9_Node000001_Node000010"><a xlink:title=" ">
<path fill="none" stroke="#63b8ff" d="M944.58,-123.59C931.47,-114.52 916.22,-103.96 903.05,-94.84"/>
<polygon fill="#63b8ff" stroke="#63b8ff" points="905.34,-92.17 895.13,-89.36 901.36,-97.93 905.34,-92.17"/>
</a>
</g>
</g>
<!-- Node11 -->
<g id="Node000011" class="node">
<title>Node11</title>
<g id="a_Node000011"><a xlink:title=" ">
<polygon fill="#e0e0e0" stroke="#999999" points="1178.62,-82 980.38,-82 980.38,-62 1178.62,-62 1178.62,-82"/>
<text xml:space="preserve" text-anchor="middle" x="1079.5" y="-68.5" font-family="Helvetica,sans-Serif" font-size="10.00">GameFramework/SpringArmComponent.h</text>
</a>
</g>
</g>
<!-- Node1&#45;&gt;Node11 -->
<g id="edge10_Node000001_Node000011" class="edge">
<title>Node1&#45;&gt;Node11</title>
<g id="a_edge10_Node000001_Node000011"><a xlink:title=" ">
<path fill="none" stroke="#63b8ff" d="M1006.42,-123.59C1022.48,-112.48 1041.76,-99.13 1056.48,-88.94"/>
<polygon fill="#63b8ff" stroke="#63b8ff" points="1058.38,-91.88 1064.61,-83.31 1054.39,-86.12 1058.38,-91.88"/>
</a>
</g>
</g>
<!-- Node12 -->
<g id="Node000012" class="node">
<title>Node12</title>
<g id="a_Node000012"><a xlink:title=" ">
<polygon fill="#e0e0e0" stroke="#999999" points="1340.62,-82 1196.38,-82 1196.38,-62 1340.62,-62 1340.62,-82"/>
<text xml:space="preserve" text-anchor="middle" x="1268.5" y="-68.5" font-family="Helvetica,sans-Serif" font-size="10.00">GameFramework/Controller.h</text>
</a>
</g>
</g>
<!-- Node1&#45;&gt;Node12 -->
<g id="edge11_Node000001_Node000012" class="edge">
<title>Node1&#45;&gt;Node12</title>
<g id="a_edge11_Node000001_Node000012"><a xlink:title=" ">
<path fill="none" stroke="#63b8ff" d="M1062.62,-123.59C1113.72,-111.04 1176.42,-95.63 1219.11,-85.14"/>
<polygon fill="#63b8ff" stroke="#63b8ff" points="1219.71,-88.59 1228.58,-82.81 1218.04,-81.8 1219.71,-88.59"/>
</a>
</g>
</g>
<!-- Node13 -->
<g id="Node000013" class="node">
<title>Node13</title>
<g id="a_Node000013"><a xlink:title=" ">
<polygon fill="#e0e0e0" stroke="#999999" points="1498.38,-82 1358.62,-82 1358.62,-62 1498.38,-62 1498.38,-82"/>
<text xml:space="preserve" text-anchor="middle" x="1428.5" y="-68.5" font-family="Helvetica,sans-Serif" font-size="10.00">EnhancedInputComponent.h</text>
</a>
</g>
</g>
<!-- Node1&#45;&gt;Node13 -->
<g id="edge12_Node000001_Node000013" class="edge">
<title>Node1&#45;&gt;Node13</title>
<g id="a_edge12_Node000001_Node000013"><a xlink:title=" ">
<path fill="none" stroke="#63b8ff" d="M1072.91,-131.15C1148.48,-120.16 1255.79,-104.03 1349.5,-88 1355.85,-86.91 1362.47,-85.73 1369.07,-84.53"/>
<polygon fill="#63b8ff" stroke="#63b8ff" points="1369.4,-88.02 1378.6,-82.76 1368.13,-81.14 1369.4,-88.02"/>
</a>
</g>
</g>
<!-- Node14 -->
<g id="Node000014" class="node">
<title>Node14</title>
<g id="a_Node000014"><a xlink:title=" ">
<polygon fill="#e0e0e0" stroke="#999999" points="1660.62,-82 1516.38,-82 1516.38,-62 1660.62,-62 1660.62,-82"/>
<text xml:space="preserve" text-anchor="middle" x="1588.5" y="-68.5" font-family="Helvetica,sans-Serif" font-size="10.00">EnhancedInputSubsystems.h</text>
</a>
</g>
</g>
<!-- Node1&#45;&gt;Node14 -->
<g id="edge13_Node000001_Node000014" class="edge">
<title>Node1&#45;&gt;Node14</title>
<g id="a_edge13_Node000001_Node000014"><a xlink:title=" ">
<path fill="none" stroke="#63b8ff" d="M1072.86,-136.82C1179.75,-127.31 1356.3,-110.07 1507.5,-88 1514.64,-86.96 1522.12,-85.74 1529.51,-84.47"/>
<polygon fill="#63b8ff" stroke="#63b8ff" points="1529.91,-87.95 1539.14,-82.76 1528.68,-81.06 1529.91,-87.95"/>
</a>
</g>
</g>
<!-- Node15 -->
<g id="Node000015" class="node">
<title>Node15</title>
<g id="a_Node000015"><a xlink:title=" ">
<polygon fill="#e0e0e0" stroke="#999999" points="1776.38,-82 1678.62,-82 1678.62,-62 1776.38,-62 1776.38,-82"/>
<text xml:space="preserve" text-anchor="middle" x="1727.5" y="-68.5" font-family="Helvetica,sans-Serif" font-size="10.00">InputActionValue.h</text>
</a>
</g>
</g>
<!-- Node1&#45;&gt;Node15 -->
<g id="edge14_Node000001_Node000015" class="edge">
<title>Node1&#45;&gt;Node15</title>
<g id="a_edge14_Node000001_Node000015"><a xlink:title=" ">
<path fill="none" stroke="#63b8ff" d="M1072.99,-142.25C1207.88,-137.25 1458.67,-123.65 1669.5,-88 1674.17,-87.21 1679.02,-86.23 1683.83,-85.14"/>
<polygon fill="#63b8ff" stroke="#63b8ff" points="1684.52,-88.58 1693.42,-82.83 1682.88,-81.77 1684.52,-88.58"/>
</a>
</g>
</g>
<!-- Node3 -->
<g id="Node000003" class="node">
<title>Node3</title>
<g id="a_Node000003"><a xlink:title=" ">
<polygon fill="#e0e0e0" stroke="#999999" points="79,-20 0,-20 0,0 79,0 79,-20"/>
<text xml:space="preserve" text-anchor="middle" x="39.5" y="-6.5" font-family="Helvetica,sans-Serif" font-size="10.00">CoreMinimal.h</text>
</a>
</g>
</g>
<!-- Node2&#45;&gt;Node3 -->
<g id="edge2_Node000002_Node000003" class="edge">
<title>Node2&#45;&gt;Node3</title>
<g id="a_edge2_Node000002_Node000003"><a xlink:title=" ">
<path fill="none" stroke="#63b8ff" d="M209.94,-61.62C175.5,-51.4 120.18,-34.97 81.96,-23.61"/>
<polygon fill="#63b8ff" stroke="#63b8ff" points="83.21,-20.33 72.62,-20.84 81.21,-27.04 83.21,-20.33"/>
</a>
</g>
</g>
<!-- Node4 -->
<g id="Node000004" class="node">
<title>Node4</title>
<g id="a_Node000004"><a xlink:title=" ">
<polygon fill="#e0e0e0" stroke="#999999" points="242,-20 97,-20 97,0 242,0 242,-20"/>
<text xml:space="preserve" text-anchor="middle" x="169.5" y="-6.5" font-family="Helvetica,sans-Serif" font-size="10.00">GameFramework/Character.h</text>
</a>
</g>
</g>
<!-- Node2&#45;&gt;Node4 -->
<g id="edge3_Node000002_Node000004" class="edge">
<title>Node2&#45;&gt;Node4</title>
<g id="a_edge3_Node000002_Node000004"><a xlink:title=" ">
<path fill="none" stroke="#63b8ff" d="M230.25,-61.62C219.3,-52.5 202.43,-38.45 189.25,-27.46"/>
<polygon fill="#63b8ff" stroke="#63b8ff" points="191.52,-24.79 181.6,-21.08 187.04,-30.17 191.52,-24.79"/>
</a>
</g>
</g>
<!-- Node5 -->
<g id="Node000005" class="node">
<title>Node5</title>
<g id="a_Node000005"><a xlink:title=" ">
<polygon fill="#e0e0e0" stroke="#999999" points="369,-20 260,-20 260,0 369,0 369,-20"/>
<text xml:space="preserve" text-anchor="middle" x="314.5" y="-6.5" font-family="Helvetica,sans-Serif" font-size="10.00">Logging/LogMacros.h</text>
</a>
</g>
</g>
<!-- Node2&#45;&gt;Node5 -->
<g id="edge4_Node000002_Node000005" class="edge">
<title>Node2&#45;&gt;Node5</title>
<g id="a_edge4_Node000002_Node000005"><a xlink:title=" ">
<path fill="none" stroke="#63b8ff" d="M252.91,-61.62C264.11,-52.41 281.44,-38.17 294.87,-27.14"/>
<polygon fill="#63b8ff" stroke="#63b8ff" points="296.74,-30.13 302.24,-21.07 292.3,-24.72 296.74,-30.13"/>
</a>
</g>
</g>
<!-- Node6 -->
<g id="Node000006" class="node">
<title>Node6</title>
<g id="a_Node000006"><a xlink:title=" ">
<polygon fill="#e0e0e0" stroke="#999999" points="519.62,-20 387.38,-20 387.38,0 519.62,0 519.62,-20"/>
<text xml:space="preserve" text-anchor="middle" x="453.5" y="-6.5" font-family="Helvetica,sans-Serif" font-size="10.00">KPTCharacter.generated.h</text>
</a>
</g>
</g>
<!-- Node2&#45;&gt;Node6 -->
<g id="edge5_Node000002_Node000006" class="edge">
<title>Node2&#45;&gt;Node6</title>
<g id="a_edge5_Node000002_Node000006"><a xlink:title=" ">
<path fill="none" stroke="#63b8ff" d="M274.22,-61.52C280.61,-59.68 287.26,-57.78 293.5,-56 332.47,-44.9 376.84,-32.43 408.95,-23.44"/>
<polygon fill="#63b8ff" stroke="#63b8ff" points="409.63,-26.89 418.31,-20.82 407.74,-20.15 409.63,-26.89"/>
</a>
</g>
</g>
</g>
</svg>

<g id="navigator" transform="translate(0 0)" fill="#404254">
  <rect fill="#f2f5e9" fill-opacity="0.5" stroke="#606060" stroke-width=".5" x="0" y="0" width="60" height="60"/>
  <use id="zoomplus" xlink:href="#zoomPlus" x="17" y="9" onmousedown="handleZoom(evt,'in')"/>
  <use id="zoomminus" xlink:href="#zoomMin" x="42" y="9" onmousedown="handleZoom(evt,'out')"/>
  <use id="reset" xlink:href="#resetDef" x="30" y="36" onmousedown="handleReset()"/>
   <use id="arrowup" xlink:href="#arrowUp" x="0" y="0" onmousedown="handlePan(0,-1)"/>
  <use id="arrowright" xlink:href="#arrowRight" x="0" y="0" onmousedown="handlePan(1,0)"/>
  <use id="arrowdown" xlink:href="#arrowDown" x="0" y="0" onmousedown="handlePan(0,1)"/>
  <use id="arrowleft" xlink:href="#arrowLeft" x="0" y="0" onmousedown="handlePan(-1,0)"/>
</g>
<svg viewBox="0 0 15 15" width="100%" height="30px" preserveAspectRatio="xMaxYMin meet">
 <g id="arrow_out" transform="scale(0.3 0.3)">
  <a xlink:href="_k_p_t_character_8cpp__incl_org.svg" target="_base">
   <rect id="button" ry="5" rx="5" y="6" x="6" height="38" width="38"
        fill="#f2f5e9" fill-opacity="0.5" stroke="#606060" stroke-width="1.0"/>
   <path id="arrow"
     d="M 11.500037,31.436501 C 11.940474,20.09759 22.043105,11.32322 32.158766,21.979434 L 37.068811,17.246167 C 37.068811,17.246167 37.088388,32 37.088388,32 L 22.160133,31.978069 C 22.160133,31.978069 26.997745,27.140456 26.997745,27.140456 C 18.528582,18.264221 13.291696,25.230495 11.500037,31.436501 z"
     style="fill:#404040;"/>
  </a>
 </g>
</svg>

<style type='text/css'>
<![CDATA[
[data-mouse-over-selected='false'] { opacity: 0.7; }
[data-mouse-over-selected='true']  { opacity: 1.0; }
]]>
</style>
<script type="application/ecmascript"><![CDATA[
document.addEventListener('DOMContentLoaded', (event) => {
  highlightEdges();
  highlightAdjacentNodes();
});
]]></script>
</svg>
