<?xml version="1.0" encoding="UTF-8" standalone="no"?>
<!DOCTYPE svg PUBLIC "-//W3C//DTD SVG 1.1//EN"
 "http://www.w3.org/Graphics/SVG/1.1/DTD/svg11.dtd">
<!-- Generated by graphviz version 13.1.1 (20250719.2154)
 -->
<!-- Title: C:/Users/user/Perforce/alz7_CobaltbruWorkspace_00/KPT/Source/KPT/GAS/Abilities/KPTAbility.h Pages: 1 -->
<svg width="786pt" height="340pt"
 viewBox="0.00 0.00 786.00 340.00" xmlns="http://www.w3.org/2000/svg" xmlns:xlink="http://www.w3.org/1999/xlink">
<g id="graph0" class="graph" transform="scale(1 1) rotate(0) translate(4 336)">
<title>C:/Users/user/Perforce/alz7_CobaltbruWorkspace_00/KPT/Source/KPT/GAS/Abilities/KPTAbility.h</title>
<!-- Node1 -->
<g id="Node000001" class="node">
<title>Node1</title>
<g id="a_Node000001"><a xlink:title=" ">
<polygon fill="#999999" stroke="#666666" points="445.38,-332 273.38,-332 273.38,-276 445.38,-276 445.38,-332"/>
<text xml:space="preserve" text-anchor="start" x="281.38" y="-318.5" font-family="Helvetica,sans-Serif" font-size="10.00">C:/Users/user/Perforce</text>
<text xml:space="preserve" text-anchor="start" x="281.38" y="-306.5" font-family="Helvetica,sans-Serif" font-size="10.00">/alz7_CobaltbruWorkspace</text>
<text xml:space="preserve" text-anchor="start" x="281.38" y="-294.5" font-family="Helvetica,sans-Serif" font-size="10.00">_00/KPT/Source/KPT/GAS/Abilities</text>
<text xml:space="preserve" text-anchor="middle" x="359.38" y="-282.5" font-family="Helvetica,sans-Serif" font-size="10.00">/KPTAbility.h</text>
</a>
</g>
</g>
<!-- Node2 -->
<g id="Node000002" class="node">
<title>Node2</title>
<g id="a_Node000002"><a xlink:href="_k_p_t_ability_8cpp.html" target="_top" xlink:title=" ">
<polygon fill="white" stroke="#666666" points="255.38,-240 83.38,-240 83.38,-184 255.38,-184 255.38,-240"/>
<text xml:space="preserve" text-anchor="start" x="91.38" y="-226.5" font-family="Helvetica,sans-Serif" font-size="10.00">C:/Users/user/Perforce</text>
<text xml:space="preserve" text-anchor="start" x="91.38" y="-214.5" font-family="Helvetica,sans-Serif" font-size="10.00">/alz7_CobaltbruWorkspace</text>
<text xml:space="preserve" text-anchor="start" x="91.38" y="-202.5" font-family="Helvetica,sans-Serif" font-size="10.00">_00/KPT/Source/KPT/GAS/Abilities</text>
<text xml:space="preserve" text-anchor="middle" x="169.38" y="-190.5" font-family="Helvetica,sans-Serif" font-size="10.00">/KPTAbility.cpp</text>
</a>
</g>
</g>
<!-- Node1&#45;&gt;Node2 -->
<g id="edge1_Node000001_Node000002" class="edge">
<title>Node1&#45;&gt;Node2</title>
<g id="a_edge1_Node000001_Node000002"><a xlink:title=" ">
<path fill="none" stroke="#63b8ff" d="M290.96,-270.59C270.13,-260.73 247.46,-249.99 227.39,-240.48"/>
<polygon fill="#63b8ff" stroke="#63b8ff" points="289.43,-273.74 299.97,-274.86 292.43,-267.42 289.43,-273.74"/>
</a>
</g>
</g>
<!-- Node3 -->
<g id="Node000003" class="node">
<title>Node3</title>
<g id="a_Node000003"><a xlink:href="_minion_ability_8h.html" target="_top" xlink:title=" ">
<polygon fill="white" stroke="#666666" points="445.38,-240 273.38,-240 273.38,-184 445.38,-184 445.38,-240"/>
<text xml:space="preserve" text-anchor="start" x="281.38" y="-226.5" font-family="Helvetica,sans-Serif" font-size="10.00">C:/Users/user/Perforce</text>
<text xml:space="preserve" text-anchor="start" x="281.38" y="-214.5" font-family="Helvetica,sans-Serif" font-size="10.00">/alz7_CobaltbruWorkspace</text>
<text xml:space="preserve" text-anchor="start" x="281.38" y="-202.5" font-family="Helvetica,sans-Serif" font-size="10.00">_00/KPT/Source/KPT/GAS/Abilities</text>
<text xml:space="preserve" text-anchor="middle" x="359.38" y="-190.5" font-family="Helvetica,sans-Serif" font-size="10.00">/Minion/MinionAbility.h</text>
</a>
</g>
</g>
<!-- Node1&#45;&gt;Node3 -->
<g id="edge2_Node000001_Node000003" class="edge">
<title>Node1&#45;&gt;Node3</title>
<g id="a_edge2_Node000001_Node000003"><a xlink:title=" ">
<path fill="none" stroke="#63b8ff" d="M359.38,-264.09C359.38,-256.08 359.38,-247.81 359.38,-240.32"/>
<polygon fill="#63b8ff" stroke="#63b8ff" points="355.88,-263.99 359.38,-273.99 362.88,-263.99 355.88,-263.99"/>
</a>
</g>
</g>
<!-- Node8 -->
<g id="Node000008" class="node">
<title>Node8</title>
<g id="a_Node000008"><a xlink:href="_minion_projectile_8h.html" target="_top" xlink:title=" ">
<polygon fill="white" stroke="#666666" points="730.38,-240 558.38,-240 558.38,-184 730.38,-184 730.38,-240"/>
<text xml:space="preserve" text-anchor="start" x="566.38" y="-226.5" font-family="Helvetica,sans-Serif" font-size="10.00">C:/Users/user/Perforce</text>
<text xml:space="preserve" text-anchor="start" x="566.38" y="-214.5" font-family="Helvetica,sans-Serif" font-size="10.00">/alz7_CobaltbruWorkspace</text>
<text xml:space="preserve" text-anchor="start" x="566.38" y="-202.5" font-family="Helvetica,sans-Serif" font-size="10.00">_00/KPT/Source/KPT/GAS/Abilities</text>
<text xml:space="preserve" text-anchor="middle" x="644.38" y="-190.5" font-family="Helvetica,sans-Serif" font-size="10.00">/MinionProjectile.h</text>
</a>
</g>
</g>
<!-- Node1&#45;&gt;Node8 -->
<g id="edge7_Node000001_Node000008" class="edge">
<title>Node1&#45;&gt;Node8</title>
<g id="a_edge7_Node000001_Node000008"><a xlink:title=" ">
<path fill="none" stroke="#63b8ff" d="M456.22,-272.42C489.19,-262.01 525.8,-250.45 557.89,-240.31"/>
<polygon fill="#63b8ff" stroke="#63b8ff" points="455.58,-268.95 447.1,-275.3 457.69,-275.62 455.58,-268.95"/>
</a>
</g>
</g>
<!-- Node4 -->
<g id="Node000004" class="node">
<title>Node4</title>
<g id="a_Node000004"><a xlink:href="_minion_monster_8cpp.html" target="_top" xlink:title=" ">
<polygon fill="white" stroke="#666666" points="208.75,-142 0,-142 0,-98 208.75,-98 208.75,-142"/>
<text xml:space="preserve" text-anchor="start" x="8" y="-128.5" font-family="Helvetica,sans-Serif" font-size="10.00">C:/Users/user/Perforce</text>
<text xml:space="preserve" text-anchor="start" x="8" y="-116.5" font-family="Helvetica,sans-Serif" font-size="10.00">/alz7_CobaltbruWorkspace</text>
<text xml:space="preserve" text-anchor="middle" x="104.38" y="-104.5" font-family="Helvetica,sans-Serif" font-size="10.00">_00/KPT/Source/KPT/AI/MinionMonster.cpp</text>
</a>
</g>
</g>
<!-- Node3&#45;&gt;Node4 -->
<g id="edge3_Node000003_Node000004" class="edge">
<title>Node3&#45;&gt;Node4</title>
<g id="a_edge3_Node000003_Node000004"><a xlink:title=" ">
<path fill="none" stroke="#63b8ff" d="M270.81,-179.74C235.95,-167.44 196.79,-153.62 165.22,-142.47"/>
<polygon fill="#63b8ff" stroke="#63b8ff" points="269.46,-182.98 280.05,-183 271.79,-176.38 269.46,-182.98"/>
</a>
</g>
</g>
<!-- Node5 -->
<g id="Node000005" class="node">
<title>Node5</title>
<g id="a_Node000005"><a xlink:href="_minion_ability_8cpp.html" target="_top" xlink:title=" ">
<polygon fill="white" stroke="#666666" points="398.38,-148 226.38,-148 226.38,-92 398.38,-92 398.38,-148"/>
<text xml:space="preserve" text-anchor="start" x="234.38" y="-134.5" font-family="Helvetica,sans-Serif" font-size="10.00">C:/Users/user/Perforce</text>
<text xml:space="preserve" text-anchor="start" x="234.38" y="-122.5" font-family="Helvetica,sans-Serif" font-size="10.00">/alz7_CobaltbruWorkspace</text>
<text xml:space="preserve" text-anchor="start" x="234.38" y="-110.5" font-family="Helvetica,sans-Serif" font-size="10.00">_00/KPT/Source/KPT/GAS/Abilities</text>
<text xml:space="preserve" text-anchor="middle" x="312.38" y="-98.5" font-family="Helvetica,sans-Serif" font-size="10.00">/Minion/MinionAbility.cpp</text>
</a>
</g>
</g>
<!-- Node3&#45;&gt;Node5 -->
<g id="edge4_Node000003_Node000005" class="edge">
<title>Node3&#45;&gt;Node5</title>
<g id="a_edge4_Node000003_Node000005"><a xlink:title=" ">
<path fill="none" stroke="#63b8ff" d="M339.78,-173.48C335.38,-165.05 330.78,-156.25 326.64,-148.32"/>
<polygon fill="#63b8ff" stroke="#63b8ff" points="336.59,-174.92 344.32,-182.17 342.79,-171.68 336.59,-174.92"/>
</a>
</g>
</g>
<!-- Node6 -->
<g id="Node000006" class="node">
<title>Node6</title>
<g id="a_Node000006"><a xlink:href="_minion_suicide_8h.html" target="_top" xlink:title=" ">
<polygon fill="white" stroke="#666666" points="588.38,-148 416.38,-148 416.38,-92 588.38,-92 588.38,-148"/>
<text xml:space="preserve" text-anchor="start" x="424.38" y="-134.5" font-family="Helvetica,sans-Serif" font-size="10.00">C:/Users/user/Perforce</text>
<text xml:space="preserve" text-anchor="start" x="424.38" y="-122.5" font-family="Helvetica,sans-Serif" font-size="10.00">/alz7_CobaltbruWorkspace</text>
<text xml:space="preserve" text-anchor="start" x="424.38" y="-110.5" font-family="Helvetica,sans-Serif" font-size="10.00">_00/KPT/Source/KPT/GAS/Abilities</text>
<text xml:space="preserve" text-anchor="middle" x="502.38" y="-98.5" font-family="Helvetica,sans-Serif" font-size="10.00">/Minion/MinionSuicide.h</text>
</a>
</g>
</g>
<!-- Node3&#45;&gt;Node6 -->
<g id="edge5_Node000003_Node000006" class="edge">
<title>Node3&#45;&gt;Node6</title>
<g id="a_edge5_Node000003_Node000006"><a xlink:title=" ">
<path fill="none" stroke="#63b8ff" d="M412.42,-177.62C427.75,-167.97 444.29,-157.56 458.96,-148.32"/>
<polygon fill="#63b8ff" stroke="#63b8ff" points="410.94,-174.41 404.34,-182.7 414.67,-180.34 410.94,-174.41"/>
</a>
</g>
</g>
<!-- Node7 -->
<g id="Node000007" class="node">
<title>Node7</title>
<g id="a_Node000007"><a xlink:href="_minion_suicide_8cpp.html" target="_top" xlink:title=" ">
<polygon fill="white" stroke="#666666" points="588.38,-56 416.38,-56 416.38,0 588.38,0 588.38,-56"/>
<text xml:space="preserve" text-anchor="start" x="424.38" y="-42.5" font-family="Helvetica,sans-Serif" font-size="10.00">C:/Users/user/Perforce</text>
<text xml:space="preserve" text-anchor="start" x="424.38" y="-30.5" font-family="Helvetica,sans-Serif" font-size="10.00">/alz7_CobaltbruWorkspace</text>
<text xml:space="preserve" text-anchor="start" x="424.38" y="-18.5" font-family="Helvetica,sans-Serif" font-size="10.00">_00/KPT/Source/KPT/GAS/Abilities</text>
<text xml:space="preserve" text-anchor="middle" x="502.38" y="-6.5" font-family="Helvetica,sans-Serif" font-size="10.00">/Minion/MinionSuicide.cpp</text>
</a>
</g>
</g>
<!-- Node6&#45;&gt;Node7 -->
<g id="edge6_Node000006_Node000007" class="edge">
<title>Node6&#45;&gt;Node7</title>
<g id="a_edge6_Node000006_Node000007"><a xlink:title=" ">
<path fill="none" stroke="#63b8ff" d="M502.38,-80.09C502.38,-72.08 502.38,-63.81 502.38,-56.32"/>
<polygon fill="#63b8ff" stroke="#63b8ff" points="498.88,-79.99 502.38,-89.99 505.88,-79.99 498.88,-79.99"/>
</a>
</g>
</g>
<!-- Node9 -->
<g id="Node000009" class="node">
<title>Node9</title>
<g id="a_Node000009"><a xlink:href="_minion_projectile_8cpp.html" target="_top" xlink:title=" ">
<polygon fill="white" stroke="#666666" points="778.38,-148 606.38,-148 606.38,-92 778.38,-92 778.38,-148"/>
<text xml:space="preserve" text-anchor="start" x="614.38" y="-134.5" font-family="Helvetica,sans-Serif" font-size="10.00">C:/Users/user/Perforce</text>
<text xml:space="preserve" text-anchor="start" x="614.38" y="-122.5" font-family="Helvetica,sans-Serif" font-size="10.00">/alz7_CobaltbruWorkspace</text>
<text xml:space="preserve" text-anchor="start" x="614.38" y="-110.5" font-family="Helvetica,sans-Serif" font-size="10.00">_00/KPT/Source/KPT/GAS/Abilities</text>
<text xml:space="preserve" text-anchor="middle" x="692.38" y="-98.5" font-family="Helvetica,sans-Serif" font-size="10.00">/MinionProjectile.cpp</text>
</a>
</g>
</g>
<!-- Node8&#45;&gt;Node9 -->
<g id="edge8_Node000008_Node000009" class="edge">
<title>Node8&#45;&gt;Node9</title>
<g id="a_edge8_Node000008_Node000009"><a xlink:title=" ">
<path fill="none" stroke="#63b8ff" d="M664.39,-173.48C668.88,-165.05 673.58,-156.25 677.8,-148.32"/>
<polygon fill="#63b8ff" stroke="#63b8ff" points="661.37,-171.7 659.75,-182.17 667.54,-175 661.37,-171.7"/>
</a>
</g>
</g>
</g>
</svg>
