<?xml version="1.0" encoding="UTF-8" standalone="no"?>
<!DOCTYPE svg PUBLIC "-//W3C//DTD SVG 1.1//EN"
 "http://www.w3.org/Graphics/SVG/1.1/DTD/svg11.dtd">
<!-- Generated by graphviz version 13.1.1 (20250719.2154)
 -->
<!-- Title: C:/Users/user/Perforce/alz7_CobaltbruWorkspace_00/KPT/Source/KPT/Core/KPTMainPlayerController.h Pages: 1 -->
<svg width="1427pt" height="168pt"
 viewBox="0.00 0.00 1427.00 168.00" xmlns="http://www.w3.org/2000/svg" xmlns:xlink="http://www.w3.org/1999/xlink">
<g id="graph0" class="graph" transform="scale(1 1) rotate(0) translate(4 164)">
<title>C:/Users/user/Perforce/alz7_CobaltbruWorkspace_00/KPT/Source/KPT/Core/KPTMainPlayerController.h</title>
<!-- Node1 -->
<g id="Node000001" class="node">
<title>Node1</title>
<g id="a_Node000001"><a xlink:title=" ">
<polygon fill="#999999" stroke="#666666" points="803.38,-160 665.88,-160 665.88,-104 803.38,-104 803.38,-160"/>
<text xml:space="preserve" text-anchor="start" x="673.88" y="-146.5" font-family="Helvetica,sans-Serif" font-size="10.00">C:/Users/user/Perforce</text>
<text xml:space="preserve" text-anchor="start" x="673.88" y="-134.5" font-family="Helvetica,sans-Serif" font-size="10.00">/alz7_CobaltbruWorkspace</text>
<text xml:space="preserve" text-anchor="start" x="673.88" y="-122.5" font-family="Helvetica,sans-Serif" font-size="10.00">_00/KPT/Source/KPT/Core</text>
<text xml:space="preserve" text-anchor="middle" x="734.62" y="-110.5" font-family="Helvetica,sans-Serif" font-size="10.00">/KPTMainPlayerController.h</text>
</a>
</g>
</g>
<!-- Node2 -->
<g id="Node000002" class="node">
<title>Node2</title>
<g id="a_Node000002"><a xlink:href="_player_shop_interactor_component_8cpp.html" target="_top" xlink:title=" ">
<polygon fill="white" stroke="#666666" points="189.25,-68 0,-68 0,0 189.25,0 189.25,-68"/>
<text xml:space="preserve" text-anchor="start" x="8" y="-54.5" font-family="Helvetica,sans-Serif" font-size="10.00">C:/Users/user/Perforce</text>
<text xml:space="preserve" text-anchor="start" x="8" y="-42.5" font-family="Helvetica,sans-Serif" font-size="10.00">/alz7_CobaltbruWorkspace</text>
<text xml:space="preserve" text-anchor="start" x="8" y="-30.5" font-family="Helvetica,sans-Serif" font-size="10.00">_00/KPT/Source/KPT/Core</text>
<text xml:space="preserve" text-anchor="start" x="8" y="-18.5" font-family="Helvetica,sans-Serif" font-size="10.00">/Component/Shop/PlayerShopInteractor</text>
<text xml:space="preserve" text-anchor="middle" x="94.62" y="-6.5" font-family="Helvetica,sans-Serif" font-size="10.00">Component.cpp</text>
</a>
</g>
</g>
<!-- Node1&#45;&gt;Node2 -->
<g id="edge1_Node000001_Node000002" class="edge">
<title>Node1&#45;&gt;Node2</title>
<g id="a_edge1_Node000001_Node000002"><a xlink:title=" ">
<path fill="none" stroke="#63b8ff" d="M654.21,-126.33C548.68,-119.12 358.14,-102.36 198.62,-68 195.66,-67.36 192.66,-66.67 189.64,-65.95"/>
<polygon fill="#63b8ff" stroke="#63b8ff" points="653.68,-129.81 663.89,-126.98 654.15,-122.82 653.68,-129.81"/>
</a>
</g>
</g>
<!-- Node3 -->
<g id="Node000003" class="node">
<title>Node3</title>
<g id="a_Node000003"><a xlink:href="_k_p_t_in_game_mode_8cpp.html" target="_top" xlink:title=" ">
<polygon fill="white" stroke="#666666" points="341.88,-62 207.38,-62 207.38,-6 341.88,-6 341.88,-62"/>
<text xml:space="preserve" text-anchor="start" x="215.38" y="-48.5" font-family="Helvetica,sans-Serif" font-size="10.00">C:/Users/user/Perforce</text>
<text xml:space="preserve" text-anchor="start" x="215.38" y="-36.5" font-family="Helvetica,sans-Serif" font-size="10.00">/alz7_CobaltbruWorkspace</text>
<text xml:space="preserve" text-anchor="start" x="215.38" y="-24.5" font-family="Helvetica,sans-Serif" font-size="10.00">_00/KPT/Source/KPT/Core</text>
<text xml:space="preserve" text-anchor="middle" x="274.62" y="-12.5" font-family="Helvetica,sans-Serif" font-size="10.00">/KPTInGameMode.cpp</text>
</a>
</g>
</g>
<!-- Node1&#45;&gt;Node3 -->
<g id="edge2_Node000001_Node000003" class="edge">
<title>Node1&#45;&gt;Node3</title>
<g id="a_edge2_Node000001_Node000003"><a xlink:title=" ">
<path fill="none" stroke="#63b8ff" d="M654.23,-123.65C575.64,-115.11 453.17,-98.17 350.62,-68 345.11,-66.38 339.45,-64.45 333.85,-62.37"/>
<polygon fill="#63b8ff" stroke="#63b8ff" points="653.69,-127.11 664,-124.69 654.43,-120.15 653.69,-127.11"/>
</a>
</g>
</g>
<!-- Node4 -->
<g id="Node000004" class="node">
<title>Node4</title>
<g id="a_Node000004"><a xlink:href="_k_p_t_main_player_controller_8cpp.html" target="_top" xlink:title=" ">
<polygon fill="white" stroke="#666666" points="507.62,-62 359.62,-62 359.62,-6 507.62,-6 507.62,-62"/>
<text xml:space="preserve" text-anchor="start" x="367.62" y="-48.5" font-family="Helvetica,sans-Serif" font-size="10.00">C:/Users/user/Perforce</text>
<text xml:space="preserve" text-anchor="start" x="367.62" y="-36.5" font-family="Helvetica,sans-Serif" font-size="10.00">/alz7_CobaltbruWorkspace</text>
<text xml:space="preserve" text-anchor="start" x="367.62" y="-24.5" font-family="Helvetica,sans-Serif" font-size="10.00">_00/KPT/Source/KPT/Core</text>
<text xml:space="preserve" text-anchor="middle" x="433.62" y="-12.5" font-family="Helvetica,sans-Serif" font-size="10.00">/KPTMainPlayerController.cpp</text>
</a>
</g>
</g>
<!-- Node1&#45;&gt;Node4 -->
<g id="edge3_Node000001_Node000004" class="edge">
<title>Node1&#45;&gt;Node4</title>
<g id="a_edge3_Node000001_Node000004"><a xlink:title=" ">
<path fill="none" stroke="#63b8ff" d="M654.96,-109.98C613.43,-98.52 561.96,-83.52 516.62,-68 511.49,-66.24 506.21,-64.35 500.91,-62.39"/>
<polygon fill="#63b8ff" stroke="#63b8ff" points="653.82,-113.3 664.39,-112.57 655.67,-106.54 653.82,-113.3"/>
</a>
</g>
</g>
<!-- Node5 -->
<g id="Node000005" class="node">
<title>Node5</title>
<g id="a_Node000005"><a xlink:href="_k_p_t_base_attribute_set_8cpp.html" target="_top" xlink:title=" ">
<polygon fill="white" stroke="#666666" points="741.75,-62 525.5,-62 525.5,-6 741.75,-6 741.75,-62"/>
<text xml:space="preserve" text-anchor="start" x="533.5" y="-48.5" font-family="Helvetica,sans-Serif" font-size="10.00">C:/Users/user/Perforce</text>
<text xml:space="preserve" text-anchor="start" x="533.5" y="-36.5" font-family="Helvetica,sans-Serif" font-size="10.00">/alz7_CobaltbruWorkspace</text>
<text xml:space="preserve" text-anchor="start" x="533.5" y="-24.5" font-family="Helvetica,sans-Serif" font-size="10.00">_00/KPT/Source/KPT/GAS/KPTBaseAttribute</text>
<text xml:space="preserve" text-anchor="middle" x="633.62" y="-12.5" font-family="Helvetica,sans-Serif" font-size="10.00">Set.cpp</text>
</a>
</g>
</g>
<!-- Node1&#45;&gt;Node5 -->
<g id="edge4_Node000001_Node000005" class="edge">
<title>Node1&#45;&gt;Node5</title>
<g id="a_edge4_Node000001_Node000005"><a xlink:title=" ">
<path fill="none" stroke="#63b8ff" d="M697.69,-95.9C686.05,-84.83 673.36,-72.77 662.37,-62.32"/>
<polygon fill="#63b8ff" stroke="#63b8ff" points="695.2,-98.35 704.86,-102.7 700.02,-93.28 695.2,-98.35"/>
</a>
</g>
</g>
<!-- Node6 -->
<g id="Node000006" class="node">
<title>Node6</title>
<g id="a_Node000006"><a xlink:href="_u_i_manager_subsystem_8cpp.html" target="_top" xlink:title=" ">
<polygon fill="white" stroke="#666666" points="911.12,-62 760.12,-62 760.12,-6 911.12,-6 911.12,-62"/>
<text xml:space="preserve" text-anchor="start" x="768.12" y="-48.5" font-family="Helvetica,sans-Serif" font-size="10.00">C:/Users/user/Perforce</text>
<text xml:space="preserve" text-anchor="start" x="768.12" y="-36.5" font-family="Helvetica,sans-Serif" font-size="10.00">/alz7_CobaltbruWorkspace</text>
<text xml:space="preserve" text-anchor="start" x="768.12" y="-24.5" font-family="Helvetica,sans-Serif" font-size="10.00">_00/KPT/Source/KPT/Manager</text>
<text xml:space="preserve" text-anchor="middle" x="835.62" y="-12.5" font-family="Helvetica,sans-Serif" font-size="10.00">/UIManagerSubsystem.cpp</text>
</a>
</g>
</g>
<!-- Node1&#45;&gt;Node6 -->
<g id="edge5_Node000001_Node000006" class="edge">
<title>Node1&#45;&gt;Node6</title>
<g id="a_edge5_Node000001_Node000006"><a xlink:title=" ">
<path fill="none" stroke="#63b8ff" d="M771.56,-95.9C783.2,-84.83 795.89,-72.77 806.88,-62.32"/>
<polygon fill="#63b8ff" stroke="#63b8ff" points="769.23,-93.28 764.39,-102.7 774.05,-98.35 769.23,-93.28"/>
</a>
</g>
</g>
<!-- Node7 -->
<g id="Node000007" class="node">
<title>Node7</title>
<g id="a_Node000007"><a xlink:href="_in_game_h_u_d_8cpp.html" target="_top" xlink:title=" ">
<polygon fill="white" stroke="#666666" points="1090.38,-62 928.88,-62 928.88,-6 1090.38,-6 1090.38,-62"/>
<text xml:space="preserve" text-anchor="start" x="936.88" y="-48.5" font-family="Helvetica,sans-Serif" font-size="10.00">C:/Users/user/Perforce</text>
<text xml:space="preserve" text-anchor="start" x="936.88" y="-36.5" font-family="Helvetica,sans-Serif" font-size="10.00">/alz7_CobaltbruWorkspace</text>
<text xml:space="preserve" text-anchor="start" x="936.88" y="-24.5" font-family="Helvetica,sans-Serif" font-size="10.00">_00/KPT/Source/KPT/UI/InGame</text>
<text xml:space="preserve" text-anchor="middle" x="1009.62" y="-12.5" font-family="Helvetica,sans-Serif" font-size="10.00">/InGameHUD.cpp</text>
</a>
</g>
</g>
<!-- Node1&#45;&gt;Node7 -->
<g id="edge6_Node000001_Node000007" class="edge">
<title>Node1&#45;&gt;Node7</title>
<g id="a_edge6_Node000001_Node000007"><a xlink:title=" ">
<path fill="none" stroke="#63b8ff" d="M814.19,-104.6C847.19,-93.51 885.83,-80.34 920.62,-68 925.75,-66.18 931.03,-64.28 936.35,-62.36"/>
<polygon fill="#63b8ff" stroke="#63b8ff" points="813.49,-101.15 805.12,-107.65 815.71,-107.79 813.49,-101.15"/>
</a>
</g>
</g>
<!-- Node8 -->
<g id="Node000008" class="node">
<title>Node8</title>
<g id="a_Node000008"><a xlink:href="_shop_u_i_8cpp.html" target="_top" xlink:title=" ">
<polygon fill="white" stroke="#666666" points="1254.88,-62 1108.38,-62 1108.38,-6 1254.88,-6 1254.88,-62"/>
<text xml:space="preserve" text-anchor="start" x="1116.38" y="-48.5" font-family="Helvetica,sans-Serif" font-size="10.00">C:/Users/user/Perforce</text>
<text xml:space="preserve" text-anchor="start" x="1116.38" y="-36.5" font-family="Helvetica,sans-Serif" font-size="10.00">/alz7_CobaltbruWorkspace</text>
<text xml:space="preserve" text-anchor="start" x="1116.38" y="-24.5" font-family="Helvetica,sans-Serif" font-size="10.00">_00/KPT/Source/KPT/UI/Item</text>
<text xml:space="preserve" text-anchor="middle" x="1181.62" y="-12.5" font-family="Helvetica,sans-Serif" font-size="10.00">/ShopUI.cpp</text>
</a>
</g>
</g>
<!-- Node1&#45;&gt;Node8 -->
<g id="edge7_Node000001_Node000008" class="edge">
<title>Node1&#45;&gt;Node8</title>
<g id="a_edge7_Node000001_Node000008"><a xlink:title=" ">
<path fill="none" stroke="#63b8ff" d="M814.72,-122.13C889.41,-112.7 1003.43,-95.33 1099.62,-68 1105.38,-66.36 1111.29,-64.46 1117.16,-62.41"/>
<polygon fill="#63b8ff" stroke="#63b8ff" points="814.53,-118.63 805.04,-123.33 815.39,-125.57 814.53,-118.63"/>
</a>
</g>
</g>
<!-- Node9 -->
<g id="Node000009" class="node">
<title>Node9</title>
<g id="a_Node000009"><a xlink:href="_skill_slot_u_i_8cpp.html" target="_top" xlink:title=" ">
<polygon fill="white" stroke="#666666" points="1418.5,-62 1272.75,-62 1272.75,-6 1418.5,-6 1418.5,-62"/>
<text xml:space="preserve" text-anchor="start" x="1280.75" y="-48.5" font-family="Helvetica,sans-Serif" font-size="10.00">C:/Users/user/Perforce</text>
<text xml:space="preserve" text-anchor="start" x="1280.75" y="-36.5" font-family="Helvetica,sans-Serif" font-size="10.00">/alz7_CobaltbruWorkspace</text>
<text xml:space="preserve" text-anchor="start" x="1280.75" y="-24.5" font-family="Helvetica,sans-Serif" font-size="10.00">_00/KPT/Source/KPT/UI/Skill</text>
<text xml:space="preserve" text-anchor="middle" x="1345.62" y="-12.5" font-family="Helvetica,sans-Serif" font-size="10.00">/SkillSlotUI.cpp</text>
</a>
</g>
</g>
<!-- Node1&#45;&gt;Node9 -->
<g id="edge8_Node000001_Node000009" class="edge">
<title>Node1&#45;&gt;Node9</title>
<g id="a_edge8_Node000001_Node000009"><a xlink:title=" ">
<path fill="none" stroke="#63b8ff" d="M815.17,-128.01C919.93,-122.62 1107.95,-107.84 1263.62,-68 1269.72,-66.44 1275.97,-64.53 1282.16,-62.43"/>
<polygon fill="#63b8ff" stroke="#63b8ff" points="815.07,-124.51 805.26,-128.5 815.42,-131.5 815.07,-124.51"/>
</a>
</g>
</g>
</g>
</svg>
