<?xml version="1.0" encoding="UTF-8" standalone="no"?>
<!DOCTYPE svg PUBLIC "-//W3C//DTD SVG 1.1//EN"
 "http://www.w3.org/Graphics/SVG/1.1/DTD/svg11.dtd">
<!-- Generated by graphviz version 13.1.1 (20250719.2154)
 -->
<!-- Title: C:/Users/user/Perforce/alz7_CobaltbruWorkspace_00/KPT/Source/KPT/GAS/KPTBaseAttributeSet.h Pages: 1 -->
<svg width="516pt" height="108pt"
 viewBox="0.00 0.00 516.00 108.00" xmlns="http://www.w3.org/2000/svg" xmlns:xlink="http://www.w3.org/1999/xlink">
<g id="graph0" class="graph" transform="scale(1 1) rotate(0) translate(4 104)">
<title>C:/Users/user/Perforce/alz7_CobaltbruWorkspace_00/KPT/Source/KPT/GAS/KPTBaseAttributeSet.h</title>
<!-- Node1 -->
<g id="Node000001" class="node">
<title>Node1</title>
<g id="a_Node000001"><a xlink:title=" ">
<polygon fill="#999999" stroke="#666666" points="346.25,-100 106.75,-100 106.75,-56 346.25,-56 346.25,-100"/>
<text xml:space="preserve" text-anchor="start" x="114.75" y="-86.5" font-family="Helvetica,sans-Serif" font-size="10.00">C:/Users/user/Perforce</text>
<text xml:space="preserve" text-anchor="start" x="114.75" y="-74.5" font-family="Helvetica,sans-Serif" font-size="10.00">/alz7_CobaltbruWorkspace</text>
<text xml:space="preserve" text-anchor="middle" x="226.5" y="-62.5" font-family="Helvetica,sans-Serif" font-size="10.00">_00/KPT/Source/KPT/GAS/KPTBaseAttributeSet.h</text>
</a>
</g>
</g>
<!-- Node2 -->
<g id="Node000002" class="node">
<title>Node2</title>
<g id="a_Node000002"><a xlink:title=" ">
<polygon fill="#e0e0e0" stroke="#999999" points="79,-20 0,-20 0,0 79,0 79,-20"/>
<text xml:space="preserve" text-anchor="middle" x="39.5" y="-6.5" font-family="Helvetica,sans-Serif" font-size="10.00">CoreMinimal.h</text>
</a>
</g>
</g>
<!-- Node1&#45;&gt;Node2 -->
<g id="edge1_Node000001_Node000002" class="edge">
<title>Node1&#45;&gt;Node2</title>
<g id="a_edge1_Node000001_Node000002"><a xlink:title=" ">
<path fill="none" stroke="#63b8ff" d="M165.79,-55.57C136.43,-45.21 102.14,-33.11 76.7,-24.13"/>
<polygon fill="#63b8ff" stroke="#63b8ff" points="78.06,-20.9 67.46,-20.87 75.73,-27.5 78.06,-20.9"/>
</a>
</g>
</g>
<!-- Node3 -->
<g id="Node000003" class="node">
<title>Node3</title>
<g id="a_Node000003"><a xlink:title=" ">
<polygon fill="#e0e0e0" stroke="#999999" points="232.12,-20 96.88,-20 96.88,0 232.12,0 232.12,-20"/>
<text xml:space="preserve" text-anchor="middle" x="164.5" y="-6.5" font-family="Helvetica,sans-Serif" font-size="10.00">AbilitySystemComponent.h</text>
</a>
</g>
</g>
<!-- Node1&#45;&gt;Node3 -->
<g id="edge2_Node000001_Node000003" class="edge">
<title>Node1&#45;&gt;Node3</title>
<g id="a_edge2_Node000001_Node000003"><a xlink:title=" ">
<path fill="none" stroke="#63b8ff" d="M206.54,-55.75C198.33,-47.01 188.92,-37 181.09,-28.66"/>
<polygon fill="#63b8ff" stroke="#63b8ff" points="183.78,-26.41 174.38,-21.52 178.68,-31.21 183.78,-26.41"/>
</a>
</g>
</g>
<!-- Node4 -->
<g id="Node000004" class="node">
<title>Node4</title>
<g id="a_Node000004"><a xlink:title=" ">
<polygon fill="#e0e0e0" stroke="#999999" points="326.5,-20 250.5,-20 250.5,0 326.5,0 326.5,-20"/>
<text xml:space="preserve" text-anchor="middle" x="288.5" y="-6.5" font-family="Helvetica,sans-Serif" font-size="10.00">AttributeSet.h</text>
</a>
</g>
</g>
<!-- Node1&#45;&gt;Node4 -->
<g id="edge3_Node000001_Node000004" class="edge">
<title>Node1&#45;&gt;Node4</title>
<g id="a_edge3_Node000001_Node000004"><a xlink:title=" ">
<path fill="none" stroke="#63b8ff" d="M246.46,-55.75C254.67,-47.01 264.08,-37 271.91,-28.66"/>
<polygon fill="#63b8ff" stroke="#63b8ff" points="274.32,-31.21 278.62,-21.52 269.22,-26.41 274.32,-31.21"/>
</a>
</g>
</g>
<!-- Node5 -->
<g id="Node000005" class="node">
<title>Node5</title>
<g id="a_Node000005"><a xlink:title=" ">
<polygon fill="#e0e0e0" stroke="#999999" points="508.38,-20 344.62,-20 344.62,0 508.38,0 508.38,-20"/>
<text xml:space="preserve" text-anchor="middle" x="426.5" y="-6.5" font-family="Helvetica,sans-Serif" font-size="10.00">KPTBaseAttributeSet.generated.h</text>
</a>
</g>
</g>
<!-- Node1&#45;&gt;Node5 -->
<g id="edge4_Node000001_Node000005" class="edge">
<title>Node1&#45;&gt;Node5</title>
<g id="a_edge4_Node000001_Node000005"><a xlink:title=" ">
<path fill="none" stroke="#63b8ff" d="M291.43,-55.57C323.01,-45.15 359.93,-32.97 387.18,-23.97"/>
<polygon fill="#63b8ff" stroke="#63b8ff" points="388.02,-27.38 396.42,-20.93 385.83,-20.74 388.02,-27.38"/>
</a>
</g>
</g>
</g>
</svg>
