<?xml version="1.0" encoding="UTF-8" standalone="no"?>
<!DOCTYPE svg PUBLIC "-//W3C//DTD SVG 1.1//EN"
 "http://www.w3.org/Graphics/SVG/1.1/DTD/svg11.dtd">
<!-- Generated by graphviz version 13.1.1 (20250719.2154)
 -->
<!-- Title: C:/Users/user/Perforce/alz7_CobaltbruWorkspace_00/KPT/Source/KPT/Core/KPTLobbyGameMode.h Pages: 1 -->
<svg width="586pt" height="120pt"
 viewBox="0.00 0.00 586.00 120.00" xmlns="http://www.w3.org/2000/svg" xmlns:xlink="http://www.w3.org/1999/xlink">
<g id="graph0" class="graph" transform="scale(1 1) rotate(0) translate(4 116)">
<title>C:/Users/user/Perforce/alz7_CobaltbruWorkspace_00/KPT/Source/KPT/Core/KPTLobbyGameMode.h</title>
<!-- Node1 -->
<g id="Node000001" class="node">
<title>Node1</title>
<g id="a_Node000001"><a xlink:title=" ">
<polygon fill="#999999" stroke="#666666" points="305.75,-112 171.25,-112 171.25,-56 305.75,-56 305.75,-112"/>
<text xml:space="preserve" text-anchor="start" x="179.25" y="-98.5" font-family="Helvetica,sans-Serif" font-size="10.00">C:/Users/user/Perforce</text>
<text xml:space="preserve" text-anchor="start" x="179.25" y="-86.5" font-family="Helvetica,sans-Serif" font-size="10.00">/alz7_CobaltbruWorkspace</text>
<text xml:space="preserve" text-anchor="start" x="179.25" y="-74.5" font-family="Helvetica,sans-Serif" font-size="10.00">_00/KPT/Source/KPT/Core</text>
<text xml:space="preserve" text-anchor="middle" x="238.5" y="-62.5" font-family="Helvetica,sans-Serif" font-size="10.00">/KPTLobbyGameMode.h</text>
</a>
</g>
</g>
<!-- Node2 -->
<g id="Node000002" class="node">
<title>Node2</title>
<g id="a_Node000002"><a xlink:title=" ">
<polygon fill="#e0e0e0" stroke="#999999" points="79,-20 0,-20 0,0 79,0 79,-20"/>
<text xml:space="preserve" text-anchor="middle" x="39.5" y="-6.5" font-family="Helvetica,sans-Serif" font-size="10.00">CoreMinimal.h</text>
</a>
</g>
</g>
<!-- Node1&#45;&gt;Node2 -->
<g id="edge1_Node000001_Node000002" class="edge">
<title>Node1&#45;&gt;Node2</title>
<g id="a_edge1_Node000001_Node000002"><a xlink:title=" ">
<path fill="none" stroke="#63b8ff" d="M170.85,-58.52C139.1,-47.04 102.52,-33.8 76.04,-24.22"/>
<polygon fill="#63b8ff" stroke="#63b8ff" points="77.37,-20.98 66.77,-20.87 74.99,-27.56 77.37,-20.98"/>
</a>
</g>
</g>
<!-- Node3 -->
<g id="Node000003" class="node">
<title>Node3</title>
<g id="a_Node000003"><a xlink:title=" ">
<polygon fill="#e0e0e0" stroke="#999999" points="223.62,-20 97.38,-20 97.38,0 223.62,0 223.62,-20"/>
<text xml:space="preserve" text-anchor="middle" x="160.5" y="-6.5" font-family="Helvetica,sans-Serif" font-size="10.00">GameplayTagContainer.h</text>
</a>
</g>
</g>
<!-- Node1&#45;&gt;Node3 -->
<g id="edge2_Node000001_Node000003" class="edge">
<title>Node1&#45;&gt;Node3</title>
<g id="a_edge2_Node000001_Node000003"><a xlink:title=" ">
<path fill="none" stroke="#63b8ff" d="M209.01,-55.78C198.92,-46.46 187.92,-36.31 178.95,-28.03"/>
<polygon fill="#63b8ff" stroke="#63b8ff" points="181.6,-25.71 171.87,-21.5 176.85,-30.85 181.6,-25.71"/>
</a>
</g>
</g>
<!-- Node4 -->
<g id="Node000004" class="node">
<title>Node4</title>
<g id="a_Node000004"><a xlink:title=" ">
<polygon fill="#e0e0e0" stroke="#999999" points="393.75,-20 241.25,-20 241.25,0 393.75,0 393.75,-20"/>
<text xml:space="preserve" text-anchor="middle" x="317.5" y="-6.5" font-family="Helvetica,sans-Serif" font-size="10.00">GameFramework/GameMode.h</text>
</a>
</g>
</g>
<!-- Node1&#45;&gt;Node4 -->
<g id="edge3_Node000001_Node000004" class="edge">
<title>Node1&#45;&gt;Node4</title>
<g id="a_edge3_Node000001_Node000004"><a xlink:title=" ">
<path fill="none" stroke="#63b8ff" d="M268.37,-55.78C278.59,-46.46 289.73,-36.31 298.82,-28.03"/>
<polygon fill="#63b8ff" stroke="#63b8ff" points="300.95,-30.82 305.99,-21.49 296.24,-25.64 300.95,-30.82"/>
</a>
</g>
</g>
<!-- Node5 -->
<g id="Node000005" class="node">
<title>Node5</title>
<g id="a_Node000005"><a xlink:title=" ">
<polygon fill="#e0e0e0" stroke="#999999" points="577.5,-20 411.5,-20 411.5,0 577.5,0 577.5,-20"/>
<text xml:space="preserve" text-anchor="middle" x="494.5" y="-6.5" font-family="Helvetica,sans-Serif" font-size="10.00">KPTLobbyGameMode.generated.h</text>
</a>
</g>
</g>
<!-- Node1&#45;&gt;Node5 -->
<g id="edge4_Node000001_Node000005" class="edge">
<title>Node1&#45;&gt;Node5</title>
<g id="a_edge4_Node000001_Node000005"><a xlink:title=" ">
<path fill="none" stroke="#63b8ff" d="M306.1,-63.99C351.63,-51.18 410.4,-34.65 450.1,-23.49"/>
<polygon fill="#63b8ff" stroke="#63b8ff" points="450.88,-26.91 459.55,-20.83 448.98,-20.17 450.88,-26.91"/>
</a>
</g>
</g>
</g>
</svg>
