<?xml version="1.0" encoding="UTF-8" standalone="no"?>
<!DOCTYPE svg PUBLIC "-//W3C//DTD SVG 1.1//EN"
 "http://www.w3.org/Graphics/SVG/1.1/DTD/svg11.dtd">
<!-- Generated by graphviz version 13.1.1 (20250719.2154)
 -->
<!-- Title: C:/Users/user/Perforce/alz7_CobaltbruWorkspace_00/KPT/Source/KPT/Character/KPTPlayerState.h Pages: 1 -->
<svg width="771pt" height="188pt"
 viewBox="0.00 0.00 771.00 188.00" xmlns="http://www.w3.org/2000/svg" xmlns:xlink="http://www.w3.org/1999/xlink">
<g id="graph0" class="graph" transform="scale(1 1) rotate(0) translate(4 184)">
<title>C:/Users/user/Perforce/alz7_CobaltbruWorkspace_00/KPT/Source/KPT/Character/KPTPlayerState.h</title>
<!-- Node1 -->
<g id="Node000001" class="node">
<title>Node1</title>
<g id="a_Node000001"><a xlink:title=" ">
<polygon fill="#999999" stroke="#666666" points="371.54,-180 215.29,-180 215.29,-124 371.54,-124 371.54,-180"/>
<text xml:space="preserve" text-anchor="start" x="223.29" y="-166.5" font-family="Helvetica,sans-Serif" font-size="10.00">C:/Users/user/Perforce</text>
<text xml:space="preserve" text-anchor="start" x="223.29" y="-154.5" font-family="Helvetica,sans-Serif" font-size="10.00">/alz7_CobaltbruWorkspace</text>
<text xml:space="preserve" text-anchor="start" x="223.29" y="-142.5" font-family="Helvetica,sans-Serif" font-size="10.00">_00/KPT/Source/KPT/Character</text>
<text xml:space="preserve" text-anchor="middle" x="293.42" y="-130.5" font-family="Helvetica,sans-Serif" font-size="10.00">/KPTPlayerState.h</text>
</a>
</g>
</g>
<!-- Node2 -->
<g id="Node000002" class="node">
<title>Node2</title>
<g id="a_Node000002"><a xlink:title=" ">
<polygon fill="#e0e0e0" stroke="#999999" points="162.92,-20 83.92,-20 83.92,0 162.92,0 162.92,-20"/>
<text xml:space="preserve" text-anchor="middle" x="123.42" y="-6.5" font-family="Helvetica,sans-Serif" font-size="10.00">CoreMinimal.h</text>
</a>
</g>
</g>
<!-- Node1&#45;&gt;Node2 -->
<g id="edge1_Node000001_Node000002" class="edge">
<title>Node1&#45;&gt;Node2</title>
<g id="a_edge1_Node000001_Node000002"><a xlink:title=" ">
<path fill="none" stroke="#63b8ff" d="M214.81,-144.63C139.03,-136.67 32.15,-120 6.42,-88 -2.5,-76.92 -1.64,-67.72 6.42,-56 21.25,-34.4 48.02,-23.16 72.21,-17.32"/>
<polygon fill="#63b8ff" stroke="#63b8ff" points="72.92,-20.75 81.98,-15.24 71.47,-13.9 72.92,-20.75"/>
</a>
</g>
</g>
<!-- Node3 -->
<g id="Node000003" class="node">
<title>Node3</title>
<g id="a_Node000003"><a xlink:title=" ">
<polygon fill="#e0e0e0" stroke="#999999" points="139.04,-82 15.79,-82 15.79,-62 139.04,-62 139.04,-82"/>
<text xml:space="preserve" text-anchor="middle" x="77.42" y="-68.5" font-family="Helvetica,sans-Serif" font-size="10.00">AbilitySystemInterface.h</text>
</a>
</g>
</g>
<!-- Node1&#45;&gt;Node3 -->
<g id="edge2_Node000001_Node000003" class="edge">
<title>Node1&#45;&gt;Node3</title>
<g id="a_edge2_Node000001_Node000003"><a xlink:title=" ">
<path fill="none" stroke="#63b8ff" d="M217.26,-123.5C182.31,-110.88 142.46,-96.49 114.27,-86.31"/>
<polygon fill="#63b8ff" stroke="#63b8ff" points="115.72,-83.11 105.12,-83 113.34,-89.69 115.72,-83.11"/>
</a>
</g>
</g>
<!-- Node4 -->
<g id="Node000004" class="node">
<title>Node4</title>
<g id="a_Node000004"><a xlink:title=" ">
<polygon fill="#e0e0e0" stroke="#999999" points="283.54,-82 157.29,-82 157.29,-62 283.54,-62 283.54,-82"/>
<text xml:space="preserve" text-anchor="middle" x="220.42" y="-68.5" font-family="Helvetica,sans-Serif" font-size="10.00">GameplayTagContainer.h</text>
</a>
</g>
</g>
<!-- Node1&#45;&gt;Node4 -->
<g id="edge3_Node000001_Node000004" class="edge">
<title>Node1&#45;&gt;Node4</title>
<g id="a_edge3_Node000001_Node000004"><a xlink:title=" ">
<path fill="none" stroke="#63b8ff" d="M267.88,-123.72C257.56,-112.69 245.94,-100.28 236.79,-90.49"/>
<polygon fill="#63b8ff" stroke="#63b8ff" points="239.6,-88.37 230.21,-83.47 234.49,-93.16 239.6,-88.37"/>
</a>
</g>
</g>
<!-- Node5 -->
<g id="Node000005" class="node">
<title>Node5</title>
<g id="a_Node000005"><a xlink:href="_component_owner_interface_8h.html" target="_top" xlink:title=" ">
<polygon fill="white" stroke="#666666" points="433.17,-88 301.67,-88 301.67,-56 433.17,-56 433.17,-88"/>
<text xml:space="preserve" text-anchor="start" x="309.67" y="-74.5" font-family="Helvetica,sans-Serif" font-size="10.00">Core/Interface/Component</text>
<text xml:space="preserve" text-anchor="middle" x="367.42" y="-62.5" font-family="Helvetica,sans-Serif" font-size="10.00">OwnerInterface.h</text>
</a>
</g>
</g>
<!-- Node1&#45;&gt;Node5 -->
<g id="edge4_Node000001_Node000005" class="edge">
<title>Node1&#45;&gt;Node5</title>
<g id="a_edge4_Node000001_Node000005"><a xlink:title=" ">
<path fill="none" stroke="#63b8ff" d="M319.3,-123.72C327.8,-114.76 337.17,-104.89 345.36,-96.25"/>
<polygon fill="#63b8ff" stroke="#63b8ff" points="347.7,-98.87 352.04,-89.21 342.62,-94.05 347.7,-98.87"/>
</a>
</g>
</g>
<!-- Node8 -->
<g id="Node000008" class="node">
<title>Node8</title>
<g id="a_Node000008"><a xlink:title=" ">
<polygon fill="#e0e0e0" stroke="#999999" points="604.04,-82 450.79,-82 450.79,-62 604.04,-62 604.04,-82"/>
<text xml:space="preserve" text-anchor="middle" x="527.42" y="-68.5" font-family="Helvetica,sans-Serif" font-size="10.00">GameFramework/PlayerState.h</text>
</a>
</g>
</g>
<!-- Node1&#45;&gt;Node8 -->
<g id="edge8_Node000001_Node000008" class="edge">
<title>Node1&#45;&gt;Node8</title>
<g id="a_edge8_Node000001_Node000008"><a xlink:title=" ">
<path fill="none" stroke="#63b8ff" d="M371.99,-124.81C411.18,-111.75 456.85,-96.52 488.49,-85.97"/>
<polygon fill="#63b8ff" stroke="#63b8ff" points="489.25,-89.41 497.63,-82.93 487.04,-82.77 489.25,-89.41"/>
</a>
</g>
</g>
<!-- Node9 -->
<g id="Node000009" class="node">
<title>Node9</title>
<g id="a_Node000009"><a xlink:title=" ">
<polygon fill="#e0e0e0" stroke="#999999" points="762.67,-82 622.17,-82 622.17,-62 762.67,-62 762.67,-82"/>
<text xml:space="preserve" text-anchor="middle" x="692.42" y="-68.5" font-family="Helvetica,sans-Serif" font-size="10.00">KPTPlayerState.generated.h</text>
</a>
</g>
</g>
<!-- Node1&#45;&gt;Node9 -->
<g id="edge9_Node000001_Node000009" class="edge">
<title>Node1&#45;&gt;Node9</title>
<g id="a_edge9_Node000001_Node000009"><a xlink:title=" ">
<path fill="none" stroke="#63b8ff" d="M371.77,-135.68C448.41,-120.7 563.44,-98.21 632.88,-84.64"/>
<polygon fill="#63b8ff" stroke="#63b8ff" points="633.41,-88.1 642.56,-82.75 632.07,-81.23 633.41,-88.1"/>
</a>
</g>
</g>
<!-- Node5&#45;&gt;Node2 -->
<g id="edge5_Node000005_Node000002" class="edge">
<title>Node5&#45;&gt;Node2</title>
<g id="a_edge5_Node000005_Node000002"><a xlink:title=" ">
<path fill="none" stroke="#63b8ff" d="M304.58,-55.55C263.58,-45.47 210.83,-32.49 172.83,-23.15"/>
<polygon fill="#63b8ff" stroke="#63b8ff" points="174.05,-19.85 163.5,-20.86 172.38,-26.64 174.05,-19.85"/>
</a>
</g>
</g>
<!-- Node6 -->
<g id="Node000006" class="node">
<title>Node6</title>
<g id="a_Node000006"><a xlink:title=" ">
<polygon fill="#e0e0e0" stroke="#999999" points="337.17,-20 235.67,-20 235.67,0 337.17,0 337.17,-20"/>
<text xml:space="preserve" text-anchor="middle" x="286.42" y="-6.5" font-family="Helvetica,sans-Serif" font-size="10.00">UObject/Interface.h</text>
</a>
</g>
</g>
<!-- Node5&#45;&gt;Node6 -->
<g id="edge6_Node000005_Node000006" class="edge">
<title>Node5&#45;&gt;Node6</title>
<g id="a_edge6_Node000005_Node000006"><a xlink:title=" ">
<path fill="none" stroke="#63b8ff" d="M346.56,-55.55C334.84,-46.87 320.22,-36.04 308.34,-27.24"/>
<polygon fill="#63b8ff" stroke="#63b8ff" points="310.45,-24.45 300.33,-21.31 306.29,-30.07 310.45,-24.45"/>
</a>
</g>
</g>
<!-- Node7 -->
<g id="Node000007" class="node">
<title>Node7</title>
<g id="a_Node000007"><a xlink:title=" ">
<polygon fill="#e0e0e0" stroke="#999999" points="541.92,-20 354.92,-20 354.92,0 541.92,0 541.92,-20"/>
<text xml:space="preserve" text-anchor="middle" x="448.42" y="-6.5" font-family="Helvetica,sans-Serif" font-size="10.00">ComponentOwnerInterface.generated.h</text>
</a>
</g>
</g>
<!-- Node5&#45;&gt;Node7 -->
<g id="edge7_Node000005_Node000007" class="edge">
<title>Node5&#45;&gt;Node7</title>
<g id="a_edge7_Node000005_Node000007"><a xlink:title=" ">
<path fill="none" stroke="#63b8ff" d="M388.28,-55.55C399.99,-46.87 414.61,-36.04 426.49,-27.24"/>
<polygon fill="#63b8ff" stroke="#63b8ff" points="428.55,-30.07 434.5,-21.31 424.38,-24.45 428.55,-30.07"/>
</a>
</g>
</g>
</g>
</svg>
