<?xml version="1.0" encoding="UTF-8" standalone="no"?>
<!DOCTYPE svg PUBLIC "-//W3C//DTD SVG 1.1//EN"
 "http://www.w3.org/Graphics/SVG/1.1/DTD/svg11.dtd">
<!-- Generated by graphviz version 13.1.1 (20250719.2154)
 -->
<!-- Title: C:/Users/user/Perforce/alz7_CobaltbruWorkspace_00/KPT/Source/KPT/GAS/KPTPlayerAttributeSet.h Pages: 1 -->
<svg width="1087pt" height="156pt"
 viewBox="0.00 0.00 1087.00 156.00" xmlns="http://www.w3.org/2000/svg" xmlns:xlink="http://www.w3.org/1999/xlink">
<g id="graph0" class="graph" transform="scale(1 1) rotate(0) translate(4 152)">
<title>C:/Users/user/Perforce/alz7_CobaltbruWorkspace_00/KPT/Source/KPT/GAS/KPTPlayerAttributeSet.h</title>
<!-- Node1 -->
<g id="Node000001" class="node">
<title>Node1</title>
<g id="a_Node000001"><a xlink:title=" ">
<polygon fill="#999999" stroke="#666666" points="654.5,-148 469.75,-148 469.75,-92 654.5,-92 654.5,-148"/>
<text xml:space="preserve" text-anchor="start" x="477.75" y="-134.5" font-family="Helvetica,sans-Serif" font-size="10.00">C:/Users/user/Perforce</text>
<text xml:space="preserve" text-anchor="start" x="477.75" y="-122.5" font-family="Helvetica,sans-Serif" font-size="10.00">/alz7_CobaltbruWorkspace</text>
<text xml:space="preserve" text-anchor="start" x="477.75" y="-110.5" font-family="Helvetica,sans-Serif" font-size="10.00">_00/KPT/Source/KPT/GAS/KPTPlayer</text>
<text xml:space="preserve" text-anchor="middle" x="562.12" y="-98.5" font-family="Helvetica,sans-Serif" font-size="10.00">AttributeSet.h</text>
</a>
</g>
</g>
<!-- Node2 -->
<g id="Node000002" class="node">
<title>Node2</title>
<g id="a_Node000002"><a xlink:href="_character_base_8cpp.html" target="_top" xlink:title=" ">
<polygon fill="white" stroke="#666666" points="156.25,-56 0,-56 0,0 156.25,0 156.25,-56"/>
<text xml:space="preserve" text-anchor="start" x="8" y="-42.5" font-family="Helvetica,sans-Serif" font-size="10.00">C:/Users/user/Perforce</text>
<text xml:space="preserve" text-anchor="start" x="8" y="-30.5" font-family="Helvetica,sans-Serif" font-size="10.00">/alz7_CobaltbruWorkspace</text>
<text xml:space="preserve" text-anchor="start" x="8" y="-18.5" font-family="Helvetica,sans-Serif" font-size="10.00">_00/KPT/Source/KPT/Character</text>
<text xml:space="preserve" text-anchor="middle" x="78.12" y="-6.5" font-family="Helvetica,sans-Serif" font-size="10.00">/CharacterBase.cpp</text>
</a>
</g>
</g>
<!-- Node1&#45;&gt;Node2 -->
<g id="edge1_Node000001_Node000002" class="edge">
<title>Node1&#45;&gt;Node2</title>
<g id="a_edge1_Node000001_Node000002"><a xlink:title=" ">
<path fill="none" stroke="#63b8ff" d="M458.41,-106.69C377.84,-96.13 263.62,-78.97 165.12,-56 162.35,-55.35 159.54,-54.66 156.71,-53.94"/>
<polygon fill="#63b8ff" stroke="#63b8ff" points="457.68,-110.12 468.04,-107.94 458.58,-103.18 457.68,-110.12"/>
</a>
</g>
</g>
<!-- Node3 -->
<g id="Node000003" class="node">
<title>Node3</title>
<g id="a_Node000003"><a xlink:href="_k_p_t_player_state_8cpp.html" target="_top" xlink:title=" ">
<polygon fill="white" stroke="#666666" points="330.25,-56 174,-56 174,0 330.25,0 330.25,-56"/>
<text xml:space="preserve" text-anchor="start" x="182" y="-42.5" font-family="Helvetica,sans-Serif" font-size="10.00">C:/Users/user/Perforce</text>
<text xml:space="preserve" text-anchor="start" x="182" y="-30.5" font-family="Helvetica,sans-Serif" font-size="10.00">/alz7_CobaltbruWorkspace</text>
<text xml:space="preserve" text-anchor="start" x="182" y="-18.5" font-family="Helvetica,sans-Serif" font-size="10.00">_00/KPT/Source/KPT/Character</text>
<text xml:space="preserve" text-anchor="middle" x="252.12" y="-6.5" font-family="Helvetica,sans-Serif" font-size="10.00">/KPTPlayerState.cpp</text>
</a>
</g>
</g>
<!-- Node1&#45;&gt;Node3 -->
<g id="edge2_Node000001_Node000003" class="edge">
<title>Node1&#45;&gt;Node3</title>
<g id="a_edge2_Node000001_Node000003"><a xlink:title=" ">
<path fill="none" stroke="#63b8ff" d="M458.49,-90.32C420.84,-79.74 378.01,-67.52 339.12,-56 336.24,-55.15 333.31,-54.27 330.35,-53.38"/>
<polygon fill="#63b8ff" stroke="#63b8ff" points="457.45,-93.66 468.02,-92.99 459.34,-86.92 457.45,-93.66"/>
</a>
</g>
</g>
<!-- Node4 -->
<g id="Node000004" class="node">
<title>Node4</title>
<g id="a_Node000004"><a xlink:href="_reward_manager_subsystem_8cpp.html" target="_top" xlink:title=" ">
<polygon fill="white" stroke="#666666" points="560.38,-56 347.88,-56 347.88,0 560.38,0 560.38,-56"/>
<text xml:space="preserve" text-anchor="start" x="355.88" y="-42.5" font-family="Helvetica,sans-Serif" font-size="10.00">C:/Users/user/Perforce</text>
<text xml:space="preserve" text-anchor="start" x="355.88" y="-30.5" font-family="Helvetica,sans-Serif" font-size="10.00">/alz7_CobaltbruWorkspace</text>
<text xml:space="preserve" text-anchor="start" x="355.88" y="-18.5" font-family="Helvetica,sans-Serif" font-size="10.00">_00/KPT/Source/KPT/Core</text>
<text xml:space="preserve" text-anchor="middle" x="454.12" y="-6.5" font-family="Helvetica,sans-Serif" font-size="10.00">/SubSystem/RewardManagerSubsystem.cpp</text>
</a>
</g>
</g>
<!-- Node1&#45;&gt;Node4 -->
<g id="edge3_Node000001_Node000004" class="edge">
<title>Node1&#45;&gt;Node4</title>
<g id="a_edge3_Node000001_Node000004"><a xlink:title=" ">
<path fill="none" stroke="#63b8ff" d="M520.42,-84.25C509.31,-74.99 497.47,-65.12 486.91,-56.32"/>
<polygon fill="#63b8ff" stroke="#63b8ff" points="518.05,-86.83 527.97,-90.54 522.53,-81.45 518.05,-86.83"/>
</a>
</g>
</g>
<!-- Node5 -->
<g id="Node000005" class="node">
<title>Node5</title>
<g id="a_Node000005"><a xlink:href="_k_p_t_player_attribute_set_8cpp.html" target="_top" xlink:title=" ">
<polygon fill="white" stroke="#666666" points="763.5,-56 578.75,-56 578.75,0 763.5,0 763.5,-56"/>
<text xml:space="preserve" text-anchor="start" x="586.75" y="-42.5" font-family="Helvetica,sans-Serif" font-size="10.00">C:/Users/user/Perforce</text>
<text xml:space="preserve" text-anchor="start" x="586.75" y="-30.5" font-family="Helvetica,sans-Serif" font-size="10.00">/alz7_CobaltbruWorkspace</text>
<text xml:space="preserve" text-anchor="start" x="586.75" y="-18.5" font-family="Helvetica,sans-Serif" font-size="10.00">_00/KPT/Source/KPT/GAS/KPTPlayer</text>
<text xml:space="preserve" text-anchor="middle" x="671.12" y="-6.5" font-family="Helvetica,sans-Serif" font-size="10.00">AttributeSet.cpp</text>
</a>
</g>
</g>
<!-- Node1&#45;&gt;Node5 -->
<g id="edge4_Node000001_Node000005" class="edge">
<title>Node1&#45;&gt;Node5</title>
<g id="a_edge4_Node000001_Node000005"><a xlink:title=" ">
<path fill="none" stroke="#63b8ff" d="M604.22,-84.25C615.43,-74.99 627.38,-65.12 638.03,-56.32"/>
<polygon fill="#63b8ff" stroke="#63b8ff" points="602.07,-81.48 596.59,-90.54 606.53,-86.88 602.07,-81.48"/>
</a>
</g>
</g>
<!-- Node6 -->
<g id="Node000006" class="node">
<title>Node6</title>
<g id="a_Node000006"><a xlink:href="_base_skill_ability_8cpp.html" target="_top" xlink:title=" ">
<polygon fill="white" stroke="#666666" points="916.75,-56 781.5,-56 781.5,0 916.75,0 916.75,-56"/>
<text xml:space="preserve" text-anchor="start" x="789.5" y="-42.5" font-family="Helvetica,sans-Serif" font-size="10.00">C:/Users/user/Perforce</text>
<text xml:space="preserve" text-anchor="start" x="789.5" y="-30.5" font-family="Helvetica,sans-Serif" font-size="10.00">/alz7_CobaltbruWorkspace</text>
<text xml:space="preserve" text-anchor="start" x="789.5" y="-18.5" font-family="Helvetica,sans-Serif" font-size="10.00">_00/KPT/Source/KPT/Skill</text>
<text xml:space="preserve" text-anchor="middle" x="849.12" y="-6.5" font-family="Helvetica,sans-Serif" font-size="10.00">/Ability/BaseSkillAbility.cpp</text>
</a>
</g>
</g>
<!-- Node1&#45;&gt;Node6 -->
<g id="edge5_Node000001_Node000006" class="edge">
<title>Node1&#45;&gt;Node6</title>
<g id="a_edge5_Node000001_Node000006"><a xlink:title=" ">
<path fill="none" stroke="#63b8ff" d="M665.82,-88.92C699.79,-78.79 737.67,-67.2 772.12,-56 775.09,-55.04 778.11,-54.04 781.16,-53.02"/>
<polygon fill="#63b8ff" stroke="#63b8ff" points="664.97,-85.52 656.38,-91.72 666.96,-92.23 664.97,-85.52"/>
</a>
</g>
</g>
<!-- Node7 -->
<g id="Node000007" class="node">
<title>Node7</title>
<g id="a_Node000007"><a xlink:href="_projectile_base_8cpp.html" target="_top" xlink:title=" ">
<polygon fill="white" stroke="#666666" points="1079.25,-56 935,-56 935,0 1079.25,0 1079.25,-56"/>
<text xml:space="preserve" text-anchor="start" x="943" y="-42.5" font-family="Helvetica,sans-Serif" font-size="10.00">C:/Users/user/Perforce</text>
<text xml:space="preserve" text-anchor="start" x="943" y="-30.5" font-family="Helvetica,sans-Serif" font-size="10.00">/alz7_CobaltbruWorkspace</text>
<text xml:space="preserve" text-anchor="start" x="943" y="-18.5" font-family="Helvetica,sans-Serif" font-size="10.00">_00/KPT/Source/KPT/Skill</text>
<text xml:space="preserve" text-anchor="middle" x="1007.12" y="-6.5" font-family="Helvetica,sans-Serif" font-size="10.00">/Projectile/ProjectileBase.cpp</text>
</a>
</g>
</g>
<!-- Node1&#45;&gt;Node7 -->
<g id="edge6_Node000001_Node000007" class="edge">
<title>Node1&#45;&gt;Node7</title>
<g id="a_edge6_Node000001_Node000007"><a xlink:title=" ">
<path fill="none" stroke="#63b8ff" d="M666,-105.27C739.29,-94.55 839.46,-77.81 926.12,-56 929,-55.28 931.92,-54.5 934.86,-53.69"/>
<polygon fill="#63b8ff" stroke="#63b8ff" points="665.83,-101.75 656.43,-106.65 666.83,-108.68 665.83,-101.75"/>
</a>
</g>
</g>
</g>
</svg>
