<?xml version="1.0" encoding="UTF-8" standalone="no"?>
<!DOCTYPE svg PUBLIC "-//W3C//DTD SVG 1.1//EN"
 "http://www.w3.org/Graphics/SVG/1.1/DTD/svg11.dtd">
<!-- Generated by graphviz version 13.1.1 (20250719.2154)
 -->
<!-- Title: C:/Users/user/Perforce/alz7_CobaltbruWorkspace_00/KPT/Source/KPT/Core/KPTLobbyPlayerController.h Pages: 1 -->
<svg width="625pt" height="120pt"
 viewBox="0.00 0.00 625.00 120.00" xmlns="http://www.w3.org/2000/svg" xmlns:xlink="http://www.w3.org/1999/xlink">
<g id="graph0" class="graph" transform="scale(1 1) rotate(0) translate(4 116)">
<title>C:/Users/user/Perforce/alz7_CobaltbruWorkspace_00/KPT/Source/KPT/Core/KPTLobbyPlayerController.h</title>
<!-- Node1 -->
<g id="Node000001" class="node">
<title>Node1</title>
<g id="a_Node000001"><a xlink:title=" ">
<polygon fill="#999999" stroke="#666666" points="314.88,-112 172.12,-112 172.12,-56 314.88,-56 314.88,-112"/>
<text xml:space="preserve" text-anchor="start" x="180.12" y="-98.5" font-family="Helvetica,sans-Serif" font-size="10.00">C:/Users/user/Perforce</text>
<text xml:space="preserve" text-anchor="start" x="180.12" y="-86.5" font-family="Helvetica,sans-Serif" font-size="10.00">/alz7_CobaltbruWorkspace</text>
<text xml:space="preserve" text-anchor="start" x="180.12" y="-74.5" font-family="Helvetica,sans-Serif" font-size="10.00">_00/KPT/Source/KPT/Core</text>
<text xml:space="preserve" text-anchor="middle" x="243.5" y="-62.5" font-family="Helvetica,sans-Serif" font-size="10.00">/KPTLobbyPlayerController.h</text>
</a>
</g>
</g>
<!-- Node2 -->
<g id="Node000002" class="node">
<title>Node2</title>
<g id="a_Node000002"><a xlink:title=" ">
<polygon fill="#e0e0e0" stroke="#999999" points="79,-20 0,-20 0,0 79,0 79,-20"/>
<text xml:space="preserve" text-anchor="middle" x="39.5" y="-6.5" font-family="Helvetica,sans-Serif" font-size="10.00">CoreMinimal.h</text>
</a>
</g>
</g>
<!-- Node1&#45;&gt;Node2 -->
<g id="edge1_Node000001_Node000002" class="edge">
<title>Node1&#45;&gt;Node2</title>
<g id="a_edge1_Node000001_Node000002"><a xlink:title=" ">
<path fill="none" stroke="#63b8ff" d="M171.86,-57.72C139.92,-46.44 103.6,-33.62 77.1,-24.27"/>
<polygon fill="#63b8ff" stroke="#63b8ff" points="78.41,-21.02 67.81,-20.99 76.08,-27.62 78.41,-21.02"/>
</a>
</g>
</g>
<!-- Node3 -->
<g id="Node000003" class="node">
<title>Node3</title>
<g id="a_Node000003"><a xlink:title=" ">
<polygon fill="#e0e0e0" stroke="#999999" points="223.62,-20 97.38,-20 97.38,0 223.62,0 223.62,-20"/>
<text xml:space="preserve" text-anchor="middle" x="160.5" y="-6.5" font-family="Helvetica,sans-Serif" font-size="10.00">GameplayTagContainer.h</text>
</a>
</g>
</g>
<!-- Node1&#45;&gt;Node3 -->
<g id="edge2_Node000001_Node000003" class="edge">
<title>Node1&#45;&gt;Node3</title>
<g id="a_edge2_Node000001_Node000003"><a xlink:title=" ">
<path fill="none" stroke="#63b8ff" d="M212.12,-55.78C201.27,-46.36 189.43,-36.1 179.83,-27.77"/>
<polygon fill="#63b8ff" stroke="#63b8ff" points="182.41,-25.37 172.56,-21.46 177.82,-30.66 182.41,-25.37"/>
</a>
</g>
</g>
<!-- Node4 -->
<g id="Node000004" class="node">
<title>Node4</title>
<g id="a_Node000004"><a xlink:title=" ">
<polygon fill="#e0e0e0" stroke="#999999" points="413.5,-20 241.5,-20 241.5,0 413.5,0 413.5,-20"/>
<text xml:space="preserve" text-anchor="middle" x="327.5" y="-6.5" font-family="Helvetica,sans-Serif" font-size="10.00">GameFramework/PlayerController.h</text>
</a>
</g>
</g>
<!-- Node1&#45;&gt;Node4 -->
<g id="edge3_Node000001_Node000004" class="edge">
<title>Node1&#45;&gt;Node4</title>
<g id="a_edge3_Node000001_Node000004"><a xlink:title=" ">
<path fill="none" stroke="#63b8ff" d="M275.26,-55.78C286.24,-46.36 298.22,-36.1 307.94,-27.77"/>
<polygon fill="#63b8ff" stroke="#63b8ff" points="309.98,-30.62 315.3,-21.46 305.43,-25.31 309.98,-30.62"/>
</a>
</g>
</g>
<!-- Node5 -->
<g id="Node000005" class="node">
<title>Node5</title>
<g id="a_Node000005"><a xlink:title=" ">
<polygon fill="#e0e0e0" stroke="#999999" points="617.25,-20 431.75,-20 431.75,0 617.25,0 617.25,-20"/>
<text xml:space="preserve" text-anchor="middle" x="524.5" y="-6.5" font-family="Helvetica,sans-Serif" font-size="10.00">KPTLobbyPlayerController.generated.h</text>
</a>
</g>
</g>
<!-- Node1&#45;&gt;Node5 -->
<g id="edge4_Node000001_Node000005" class="edge">
<title>Node1&#45;&gt;Node5</title>
<g id="a_edge4_Node000001_Node000005"><a xlink:title=" ">
<path fill="none" stroke="#63b8ff" d="M315.14,-64.65C365.69,-51.69 432.06,-34.69 476.39,-23.33"/>
<polygon fill="#63b8ff" stroke="#63b8ff" points="477.15,-26.74 485.97,-20.87 475.41,-19.96 477.15,-26.74"/>
</a>
</g>
</g>
</g>
</svg>
