<?xml version="1.0" encoding="UTF-8" standalone="no"?>
<!DOCTYPE svg PUBLIC "-//W3C//DTD SVG 1.1//EN"
 "http://www.w3.org/Graphics/SVG/1.1/DTD/svg11.dtd">
<!-- Generated by graphviz version 13.1.1 (20250719.2154)
 -->
<!-- Title: C:/Users/user/Perforce/alz7_CobaltbruWorkspace_00/KPT/Source/KPT/Character/KPTPlayerState.h Pages: 1 -->
<svg width="3275pt" height="248pt"
 viewBox="0.00 0.00 3275.00 248.00" xmlns="http://www.w3.org/2000/svg" xmlns:xlink="http://www.w3.org/1999/xlink">
<g id="graph0" class="graph" transform="scale(1 1) rotate(0) translate(4 244)">
<title>C:/Users/user/Perforce/alz7_CobaltbruWorkspace_00/KPT/Source/KPT/Character/KPTPlayerState.h</title>
<!-- Node1 -->
<g id="Node000001" class="node">
<title>Node1</title>
<g id="a_Node000001"><a xlink:title=" ">
<polygon fill="#999999" stroke="#666666" points="1772.25,-240 1616,-240 1616,-184 1772.25,-184 1772.25,-240"/>
<text xml:space="preserve" text-anchor="start" x="1624" y="-226.5" font-family="Helvetica,sans-Serif" font-size="10.00">C:/Users/user/Perforce</text>
<text xml:space="preserve" text-anchor="start" x="1624" y="-214.5" font-family="Helvetica,sans-Serif" font-size="10.00">/alz7_CobaltbruWorkspace</text>
<text xml:space="preserve" text-anchor="start" x="1624" y="-202.5" font-family="Helvetica,sans-Serif" font-size="10.00">_00/KPT/Source/KPT/Character</text>
<text xml:space="preserve" text-anchor="middle" x="1694.12" y="-190.5" font-family="Helvetica,sans-Serif" font-size="10.00">/KPTPlayerState.h</text>
</a>
</g>
</g>
<!-- Node2 -->
<g id="Node000002" class="node">
<title>Node2</title>
<g id="a_Node000002"><a xlink:href="_character_base_8cpp.html" target="_top" xlink:title=" ">
<polygon fill="white" stroke="#666666" points="156.25,-148 0,-148 0,-92 156.25,-92 156.25,-148"/>
<text xml:space="preserve" text-anchor="start" x="8" y="-134.5" font-family="Helvetica,sans-Serif" font-size="10.00">C:/Users/user/Perforce</text>
<text xml:space="preserve" text-anchor="start" x="8" y="-122.5" font-family="Helvetica,sans-Serif" font-size="10.00">/alz7_CobaltbruWorkspace</text>
<text xml:space="preserve" text-anchor="start" x="8" y="-110.5" font-family="Helvetica,sans-Serif" font-size="10.00">_00/KPT/Source/KPT/Character</text>
<text xml:space="preserve" text-anchor="middle" x="78.12" y="-98.5" font-family="Helvetica,sans-Serif" font-size="10.00">/CharacterBase.cpp</text>
</a>
</g>
</g>
<!-- Node1&#45;&gt;Node2 -->
<g id="edge1_Node000001_Node000002" class="edge">
<title>Node1&#45;&gt;Node2</title>
<g id="a_edge1_Node000001_Node000002"><a xlink:title=" ">
<path fill="none" stroke="#63b8ff" d="M1604.47,-210.36C1320.7,-207.84 444.49,-196.26 165.12,-148 162.32,-147.52 159.48,-146.97 156.62,-146.36"/>
<polygon fill="#63b8ff" stroke="#63b8ff" points="1604.38,-213.86 1614.41,-210.44 1604.44,-206.86 1604.38,-213.86"/>
</a>
</g>
</g>
<!-- Node3 -->
<g id="Node000003" class="node">
<title>Node3</title>
<g id="a_Node000003"><a xlink:href="_k_p_t_player_state_8cpp.html" target="_top" xlink:title=" ">
<polygon fill="white" stroke="#666666" points="330.25,-148 174,-148 174,-92 330.25,-92 330.25,-148"/>
<text xml:space="preserve" text-anchor="start" x="182" y="-134.5" font-family="Helvetica,sans-Serif" font-size="10.00">C:/Users/user/Perforce</text>
<text xml:space="preserve" text-anchor="start" x="182" y="-122.5" font-family="Helvetica,sans-Serif" font-size="10.00">/alz7_CobaltbruWorkspace</text>
<text xml:space="preserve" text-anchor="start" x="182" y="-110.5" font-family="Helvetica,sans-Serif" font-size="10.00">_00/KPT/Source/KPT/Character</text>
<text xml:space="preserve" text-anchor="middle" x="252.12" y="-98.5" font-family="Helvetica,sans-Serif" font-size="10.00">/KPTPlayerState.cpp</text>
</a>
</g>
</g>
<!-- Node1&#45;&gt;Node3 -->
<g id="edge2_Node000001_Node000003" class="edge">
<title>Node1&#45;&gt;Node3</title>
<g id="a_edge2_Node000001_Node000003"><a xlink:title=" ">
<path fill="none" stroke="#63b8ff" d="M1604.51,-209.8C1342.91,-205.84 583.39,-190.86 339.12,-148 336.32,-147.51 333.48,-146.95 330.62,-146.34"/>
<polygon fill="#63b8ff" stroke="#63b8ff" points="1604.28,-213.3 1614.33,-209.95 1604.38,-206.3 1604.28,-213.3"/>
</a>
</g>
</g>
<!-- Node4 -->
<g id="Node000004" class="node">
<title>Node4</title>
<g id="a_Node000004"><a xlink:href="_player_character_8cpp.html" target="_top" xlink:title=" ">
<polygon fill="white" stroke="#666666" points="504.25,-148 348,-148 348,-92 504.25,-92 504.25,-148"/>
<text xml:space="preserve" text-anchor="start" x="356" y="-134.5" font-family="Helvetica,sans-Serif" font-size="10.00">C:/Users/user/Perforce</text>
<text xml:space="preserve" text-anchor="start" x="356" y="-122.5" font-family="Helvetica,sans-Serif" font-size="10.00">/alz7_CobaltbruWorkspace</text>
<text xml:space="preserve" text-anchor="start" x="356" y="-110.5" font-family="Helvetica,sans-Serif" font-size="10.00">_00/KPT/Source/KPT/Character</text>
<text xml:space="preserve" text-anchor="middle" x="426.12" y="-98.5" font-family="Helvetica,sans-Serif" font-size="10.00">/PlayerCharacter.cpp</text>
</a>
</g>
</g>
<!-- Node1&#45;&gt;Node4 -->
<g id="edge3_Node000001_Node000004" class="edge">
<title>Node1&#45;&gt;Node4</title>
<g id="a_edge3_Node000001_Node000004"><a xlink:title=" ">
<path fill="none" stroke="#63b8ff" d="M1604.25,-209.08C1366.04,-203.54 722.42,-185.46 513.12,-148 510.32,-147.5 507.48,-146.93 504.63,-146.32"/>
<polygon fill="#63b8ff" stroke="#63b8ff" points="1604.03,-212.58 1614.11,-209.31 1604.19,-205.58 1604.03,-212.58"/>
</a>
</g>
</g>
<!-- Node5 -->
<g id="Node000005" class="node">
<title>Node5</title>
<g id="a_Node000005"><a xlink:href="_k_p_t_cheat_manager_8cpp.html" target="_top" xlink:title=" ">
<polygon fill="white" stroke="#666666" points="672.25,-148 522,-148 522,-92 672.25,-92 672.25,-148"/>
<text xml:space="preserve" text-anchor="start" x="530" y="-134.5" font-family="Helvetica,sans-Serif" font-size="10.00">C:/Users/user/Perforce</text>
<text xml:space="preserve" text-anchor="start" x="530" y="-122.5" font-family="Helvetica,sans-Serif" font-size="10.00">/alz7_CobaltbruWorkspace</text>
<text xml:space="preserve" text-anchor="start" x="530" y="-110.5" font-family="Helvetica,sans-Serif" font-size="10.00">_00/KPT/Source/KPT/Core</text>
<text xml:space="preserve" text-anchor="middle" x="597.12" y="-98.5" font-family="Helvetica,sans-Serif" font-size="10.00">/Cheat/KPTCheatManager.cpp</text>
</a>
</g>
</g>
<!-- Node1&#45;&gt;Node5 -->
<g id="edge4_Node000001_Node000005" class="edge">
<title>Node1&#45;&gt;Node5</title>
<g id="a_edge4_Node000001_Node000005"><a xlink:title=" ">
<path fill="none" stroke="#63b8ff" d="M1604.1,-208.27C1390.3,-201.33 856.78,-181.15 681.12,-148 678.27,-147.46 675.37,-146.85 672.45,-146.19"/>
<polygon fill="#63b8ff" stroke="#63b8ff" points="1603.96,-211.77 1614.06,-208.59 1604.18,-204.77 1603.96,-211.77"/>
</a>
</g>
</g>
<!-- Node6 -->
<g id="Node000006" class="node">
<title>Node6</title>
<g id="a_Node000006"><a xlink:href="_k_p_t_lobby_state_component_8cpp.html" target="_top" xlink:title=" ">
<polygon fill="white" stroke="#666666" points="929.88,-148 690.38,-148 690.38,-92 929.88,-92 929.88,-148"/>
<text xml:space="preserve" text-anchor="start" x="698.38" y="-134.5" font-family="Helvetica,sans-Serif" font-size="10.00">C:/Users/user/Perforce</text>
<text xml:space="preserve" text-anchor="start" x="698.38" y="-122.5" font-family="Helvetica,sans-Serif" font-size="10.00">/alz7_CobaltbruWorkspace</text>
<text xml:space="preserve" text-anchor="start" x="698.38" y="-110.5" font-family="Helvetica,sans-Serif" font-size="10.00">_00/KPT/Source/KPT/Core</text>
<text xml:space="preserve" text-anchor="middle" x="810.12" y="-98.5" font-family="Helvetica,sans-Serif" font-size="10.00">/Component/Lobby/KPTLobbyStateComponent.cpp</text>
</a>
</g>
</g>
<!-- Node1&#45;&gt;Node6 -->
<g id="edge5_Node000001_Node000006" class="edge">
<title>Node1&#45;&gt;Node6</title>
<g id="a_edge5_Node000001_Node000006"><a xlink:title=" ">
<path fill="none" stroke="#63b8ff" d="M1604.36,-206.8C1463.27,-199.46 1181.23,-181.73 944.12,-148 939.54,-147.35 934.88,-146.64 930.18,-145.89"/>
<polygon fill="#63b8ff" stroke="#63b8ff" points="1603.83,-210.28 1614,-207.3 1604.19,-203.29 1603.83,-210.28"/>
</a>
</g>
</g>
<!-- Node7 -->
<g id="Node000007" class="node">
<title>Node7</title>
<g id="a_Node000007"><a xlink:href="_k_p_t_in_game_mode_8cpp.html" target="_top" xlink:title=" ">
<polygon fill="white" stroke="#666666" points="1763.38,-56 1628.88,-56 1628.88,0 1763.38,0 1763.38,-56"/>
<text xml:space="preserve" text-anchor="start" x="1636.88" y="-42.5" font-family="Helvetica,sans-Serif" font-size="10.00">C:/Users/user/Perforce</text>
<text xml:space="preserve" text-anchor="start" x="1636.88" y="-30.5" font-family="Helvetica,sans-Serif" font-size="10.00">/alz7_CobaltbruWorkspace</text>
<text xml:space="preserve" text-anchor="start" x="1636.88" y="-18.5" font-family="Helvetica,sans-Serif" font-size="10.00">_00/KPT/Source/KPT/Core</text>
<text xml:space="preserve" text-anchor="middle" x="1696.12" y="-6.5" font-family="Helvetica,sans-Serif" font-size="10.00">/KPTInGameMode.cpp</text>
</a>
</g>
</g>
<!-- Node1&#45;&gt;Node7 -->
<g id="edge6_Node000001_Node000007" class="edge">
<title>Node1&#45;&gt;Node7</title>
<g id="a_edge6_Node000001_Node000007"><a xlink:title=" ">
<path fill="none" stroke="#63b8ff" d="M1604.12,-209.74C1420.98,-206.23 1018.7,-193.39 977.12,-148 960.31,-129.65 960.31,-110.35 977.12,-92 1020.64,-44.51 1458.13,-32.66 1628.61,-29.84"/>
<polygon fill="#63b8ff" stroke="#63b8ff" points="1604.02,-213.23 1614.08,-209.92 1604.15,-206.24 1604.02,-213.23"/>
</a>
</g>
</g>
<!-- Node8 -->
<g id="Node000008" class="node">
<title>Node8</title>
<g id="a_Node000008"><a xlink:href="_k_p_t_lobby_game_mode_8cpp.html" target="_top" xlink:title=" ">
<polygon fill="white" stroke="#666666" points="1120.38,-148 985.88,-148 985.88,-92 1120.38,-92 1120.38,-148"/>
<text xml:space="preserve" text-anchor="start" x="993.88" y="-134.5" font-family="Helvetica,sans-Serif" font-size="10.00">C:/Users/user/Perforce</text>
<text xml:space="preserve" text-anchor="start" x="993.88" y="-122.5" font-family="Helvetica,sans-Serif" font-size="10.00">/alz7_CobaltbruWorkspace</text>
<text xml:space="preserve" text-anchor="start" x="993.88" y="-110.5" font-family="Helvetica,sans-Serif" font-size="10.00">_00/KPT/Source/KPT/Core</text>
<text xml:space="preserve" text-anchor="middle" x="1053.12" y="-98.5" font-family="Helvetica,sans-Serif" font-size="10.00">/KPTLobbyGameMode.cpp</text>
</a>
</g>
</g>
<!-- Node1&#45;&gt;Node8 -->
<g id="edge7_Node000001_Node000008" class="edge">
<title>Node1&#45;&gt;Node8</title>
<g id="a_edge7_Node000001_Node000008"><a xlink:title=" ">
<path fill="none" stroke="#63b8ff" d="M1604.69,-207.38C1492.39,-201.4 1294.42,-186.04 1129.12,-148 1126.4,-147.37 1123.63,-146.68 1120.85,-145.93"/>
<polygon fill="#63b8ff" stroke="#63b8ff" points="1604.27,-210.87 1614.44,-207.89 1604.64,-203.88 1604.27,-210.87"/>
</a>
</g>
</g>
<!-- Node9 -->
<g id="Node000009" class="node">
<title>Node9</title>
<g id="a_Node000009"><a xlink:href="_k_p_t_lobby_player_controller_8cpp.html" target="_top" xlink:title=" ">
<polygon fill="white" stroke="#666666" points="1291.75,-148 1138.5,-148 1138.5,-92 1291.75,-92 1291.75,-148"/>
<text xml:space="preserve" text-anchor="start" x="1146.5" y="-134.5" font-family="Helvetica,sans-Serif" font-size="10.00">C:/Users/user/Perforce</text>
<text xml:space="preserve" text-anchor="start" x="1146.5" y="-122.5" font-family="Helvetica,sans-Serif" font-size="10.00">/alz7_CobaltbruWorkspace</text>
<text xml:space="preserve" text-anchor="start" x="1146.5" y="-110.5" font-family="Helvetica,sans-Serif" font-size="10.00">_00/KPT/Source/KPT/Core</text>
<text xml:space="preserve" text-anchor="middle" x="1215.12" y="-98.5" font-family="Helvetica,sans-Serif" font-size="10.00">/KPTLobbyPlayerController.cpp</text>
</a>
</g>
</g>
<!-- Node1&#45;&gt;Node9 -->
<g id="edge8_Node000001_Node000009" class="edge">
<title>Node1&#45;&gt;Node9</title>
<g id="a_edge8_Node000001_Node000009"><a xlink:title=" ">
<path fill="none" stroke="#63b8ff" d="M1604.51,-200.41C1524.39,-190.04 1404.06,-172.27 1301.12,-148 1298.08,-147.28 1294.98,-146.51 1291.87,-145.7"/>
<polygon fill="#63b8ff" stroke="#63b8ff" points="1603.68,-203.83 1614.05,-201.63 1604.57,-196.88 1603.68,-203.83"/>
</a>
</g>
</g>
<!-- Node10 -->
<g id="Node000010" class="node">
<title>Node10</title>
<g id="a_Node000010"><a xlink:href="_k_p_t_main_player_controller_8cpp.html" target="_top" xlink:title=" ">
<polygon fill="white" stroke="#666666" points="1458.12,-148 1310.12,-148 1310.12,-92 1458.12,-92 1458.12,-148"/>
<text xml:space="preserve" text-anchor="start" x="1318.12" y="-134.5" font-family="Helvetica,sans-Serif" font-size="10.00">C:/Users/user/Perforce</text>
<text xml:space="preserve" text-anchor="start" x="1318.12" y="-122.5" font-family="Helvetica,sans-Serif" font-size="10.00">/alz7_CobaltbruWorkspace</text>
<text xml:space="preserve" text-anchor="start" x="1318.12" y="-110.5" font-family="Helvetica,sans-Serif" font-size="10.00">_00/KPT/Source/KPT/Core</text>
<text xml:space="preserve" text-anchor="middle" x="1384.12" y="-98.5" font-family="Helvetica,sans-Serif" font-size="10.00">/KPTMainPlayerController.cpp</text>
</a>
</g>
</g>
<!-- Node1&#45;&gt;Node10 -->
<g id="edge9_Node000001_Node000010" class="edge">
<title>Node1&#45;&gt;Node10</title>
<g id="a_edge9_Node000001_Node000010"><a xlink:title=" ">
<path fill="none" stroke="#63b8ff" d="M1604.6,-187.13C1562.72,-175.71 1512.24,-161.59 1467.12,-148 1464.22,-147.13 1461.27,-146.22 1458.29,-145.3"/>
<polygon fill="#63b8ff" stroke="#63b8ff" points="1603.59,-190.48 1614.15,-189.72 1605.42,-183.72 1603.59,-190.48"/>
</a>
</g>
</g>
<!-- Node11 -->
<g id="Node000011" class="node">
<title>Node11</title>
<g id="a_Node000011"><a xlink:href="_reward_manager_subsystem_8cpp.html" target="_top" xlink:title=" ">
<polygon fill="white" stroke="#666666" points="1688.38,-148 1475.88,-148 1475.88,-92 1688.38,-92 1688.38,-148"/>
<text xml:space="preserve" text-anchor="start" x="1483.88" y="-134.5" font-family="Helvetica,sans-Serif" font-size="10.00">C:/Users/user/Perforce</text>
<text xml:space="preserve" text-anchor="start" x="1483.88" y="-122.5" font-family="Helvetica,sans-Serif" font-size="10.00">/alz7_CobaltbruWorkspace</text>
<text xml:space="preserve" text-anchor="start" x="1483.88" y="-110.5" font-family="Helvetica,sans-Serif" font-size="10.00">_00/KPT/Source/KPT/Core</text>
<text xml:space="preserve" text-anchor="middle" x="1582.12" y="-98.5" font-family="Helvetica,sans-Serif" font-size="10.00">/SubSystem/RewardManagerSubsystem.cpp</text>
</a>
</g>
</g>
<!-- Node1&#45;&gt;Node11 -->
<g id="edge10_Node000001_Node000011" class="edge">
<title>Node1&#45;&gt;Node11</title>
<g id="a_edge10_Node000001_Node000011"><a xlink:title=" ">
<path fill="none" stroke="#63b8ff" d="M1651.22,-176.52C1639.6,-167.18 1627.18,-157.21 1616.13,-148.32"/>
<polygon fill="#63b8ff" stroke="#63b8ff" points="1648.75,-179.02 1658.73,-182.56 1653.13,-173.57 1648.75,-179.02"/>
</a>
</g>
</g>
<!-- Node12 -->
<g id="Node000012" class="node">
<title>Node12</title>
<g id="a_Node000012"><a xlink:href="_shop_manager_subsystem_8cpp.html" target="_top" xlink:title=" ">
<polygon fill="white" stroke="#666666" points="1907.75,-148 1706.5,-148 1706.5,-92 1907.75,-92 1907.75,-148"/>
<text xml:space="preserve" text-anchor="start" x="1714.5" y="-134.5" font-family="Helvetica,sans-Serif" font-size="10.00">C:/Users/user/Perforce</text>
<text xml:space="preserve" text-anchor="start" x="1714.5" y="-122.5" font-family="Helvetica,sans-Serif" font-size="10.00">/alz7_CobaltbruWorkspace</text>
<text xml:space="preserve" text-anchor="start" x="1714.5" y="-110.5" font-family="Helvetica,sans-Serif" font-size="10.00">_00/KPT/Source/KPT/Core</text>
<text xml:space="preserve" text-anchor="middle" x="1807.12" y="-98.5" font-family="Helvetica,sans-Serif" font-size="10.00">/SubSystem/ShopManagerSubsystem.cpp</text>
</a>
</g>
</g>
<!-- Node1&#45;&gt;Node12 -->
<g id="edge11_Node000001_Node000012" class="edge">
<title>Node1&#45;&gt;Node12</title>
<g id="a_edge11_Node000001_Node000012"><a xlink:title=" ">
<path fill="none" stroke="#63b8ff" d="M1737.41,-176.52C1749.14,-167.18 1761.66,-157.21 1772.82,-148.32"/>
<polygon fill="#63b8ff" stroke="#63b8ff" points="1735.47,-173.6 1729.83,-182.57 1739.83,-179.07 1735.47,-173.6"/>
</a>
</g>
</g>
<!-- Node13 -->
<g id="Node000013" class="node">
<title>Node13</title>
<g id="a_Node000013"><a xlink:href="_u_i_manager_subsystem_8cpp.html" target="_top" xlink:title=" ">
<polygon fill="white" stroke="#666666" points="2076.62,-148 1925.62,-148 1925.62,-92 2076.62,-92 2076.62,-148"/>
<text xml:space="preserve" text-anchor="start" x="1933.62" y="-134.5" font-family="Helvetica,sans-Serif" font-size="10.00">C:/Users/user/Perforce</text>
<text xml:space="preserve" text-anchor="start" x="1933.62" y="-122.5" font-family="Helvetica,sans-Serif" font-size="10.00">/alz7_CobaltbruWorkspace</text>
<text xml:space="preserve" text-anchor="start" x="1933.62" y="-110.5" font-family="Helvetica,sans-Serif" font-size="10.00">_00/KPT/Source/KPT/Manager</text>
<text xml:space="preserve" text-anchor="middle" x="2001.12" y="-98.5" font-family="Helvetica,sans-Serif" font-size="10.00">/UIManagerSubsystem.cpp</text>
</a>
</g>
</g>
<!-- Node1&#45;&gt;Node13 -->
<g id="edge12_Node000001_Node000013" class="edge">
<title>Node1&#45;&gt;Node13</title>
<g id="a_edge12_Node000001_Node000013"><a xlink:title=" ">
<path fill="none" stroke="#63b8ff" d="M1783.52,-186.53C1824.35,-175.15 1873.29,-161.23 1917.12,-148 1919.76,-147.2 1922.45,-146.38 1925.16,-145.55"/>
<polygon fill="#63b8ff" stroke="#63b8ff" points="1782.65,-183.14 1773.96,-189.19 1784.53,-189.88 1782.65,-183.14"/>
</a>
</g>
</g>
<!-- Node14 -->
<g id="Node000014" class="node">
<title>Node14</title>
<g id="a_Node000014"><a xlink:href="_base_skill_ability_8cpp.html" target="_top" xlink:title=" ">
<polygon fill="white" stroke="#666666" points="2229.75,-148 2094.5,-148 2094.5,-92 2229.75,-92 2229.75,-148"/>
<text xml:space="preserve" text-anchor="start" x="2102.5" y="-134.5" font-family="Helvetica,sans-Serif" font-size="10.00">C:/Users/user/Perforce</text>
<text xml:space="preserve" text-anchor="start" x="2102.5" y="-122.5" font-family="Helvetica,sans-Serif" font-size="10.00">/alz7_CobaltbruWorkspace</text>
<text xml:space="preserve" text-anchor="start" x="2102.5" y="-110.5" font-family="Helvetica,sans-Serif" font-size="10.00">_00/KPT/Source/KPT/Skill</text>
<text xml:space="preserve" text-anchor="middle" x="2162.12" y="-98.5" font-family="Helvetica,sans-Serif" font-size="10.00">/Ability/BaseSkillAbility.cpp</text>
</a>
</g>
</g>
<!-- Node1&#45;&gt;Node14 -->
<g id="edge13_Node000001_Node000014" class="edge">
<title>Node1&#45;&gt;Node14</title>
<g id="a_edge13_Node000001_Node000014"><a xlink:title=" ">
<path fill="none" stroke="#63b8ff" d="M1783.73,-201.31C1863.81,-191.54 1983.92,-174.14 2086.12,-148 2088.84,-147.31 2091.59,-146.56 2094.36,-145.76"/>
<polygon fill="#63b8ff" stroke="#63b8ff" points="1783.72,-197.79 1774.21,-202.46 1784.56,-204.74 1783.72,-197.79"/>
</a>
</g>
</g>
<!-- Node15 -->
<g id="Node000015" class="node">
<title>Node15</title>
<g id="a_Node000015"><a xlink:href="_skill_manager_component_8cpp.html" target="_top" xlink:title=" ">
<polygon fill="white" stroke="#666666" points="2392.25,-148 2248,-148 2248,-92 2392.25,-92 2392.25,-148"/>
<text xml:space="preserve" text-anchor="start" x="2256" y="-134.5" font-family="Helvetica,sans-Serif" font-size="10.00">C:/Users/user/Perforce</text>
<text xml:space="preserve" text-anchor="start" x="2256" y="-122.5" font-family="Helvetica,sans-Serif" font-size="10.00">/alz7_CobaltbruWorkspace</text>
<text xml:space="preserve" text-anchor="start" x="2256" y="-110.5" font-family="Helvetica,sans-Serif" font-size="10.00">_00/KPT/Source/KPT/Skill</text>
<text xml:space="preserve" text-anchor="middle" x="2320.12" y="-98.5" font-family="Helvetica,sans-Serif" font-size="10.00">/SkillManagerComponent.cpp</text>
</a>
</g>
</g>
<!-- Node1&#45;&gt;Node15 -->
<g id="edge14_Node000001_Node000015" class="edge">
<title>Node1&#45;&gt;Node15</title>
<g id="a_edge14_Node000001_Node000015"><a xlink:title=" ">
<path fill="none" stroke="#63b8ff" d="M1783.83,-206.32C1892.62,-199.35 2081.06,-183.08 2239.12,-148 2242.02,-147.36 2244.96,-146.65 2247.91,-145.89"/>
<polygon fill="#63b8ff" stroke="#63b8ff" points="1783.86,-202.82 1774.09,-206.94 1784.29,-209.8 1783.86,-202.82"/>
</a>
</g>
</g>
<!-- Node16 -->
<g id="Node000016" class="node">
<title>Node16</title>
<g id="a_Node000016"><a xlink:href="_in_game_h_u_d_8cpp.html" target="_top" xlink:title=" ">
<polygon fill="white" stroke="#666666" points="2625.88,-56 2464.38,-56 2464.38,0 2625.88,0 2625.88,-56"/>
<text xml:space="preserve" text-anchor="start" x="2472.38" y="-42.5" font-family="Helvetica,sans-Serif" font-size="10.00">C:/Users/user/Perforce</text>
<text xml:space="preserve" text-anchor="start" x="2472.38" y="-30.5" font-family="Helvetica,sans-Serif" font-size="10.00">/alz7_CobaltbruWorkspace</text>
<text xml:space="preserve" text-anchor="start" x="2472.38" y="-18.5" font-family="Helvetica,sans-Serif" font-size="10.00">_00/KPT/Source/KPT/UI/InGame</text>
<text xml:space="preserve" text-anchor="middle" x="2545.12" y="-6.5" font-family="Helvetica,sans-Serif" font-size="10.00">/InGameHUD.cpp</text>
</a>
</g>
</g>
<!-- Node1&#45;&gt;Node16 -->
<g id="edge15_Node000001_Node000016" class="edge">
<title>Node1&#45;&gt;Node16</title>
<g id="a_edge15_Node000001_Node000016"><a xlink:title=" ">
<path fill="none" stroke="#63b8ff" d="M1783.65,-211.39C1998.12,-211.39 2527.56,-205.5 2581.12,-148 2604.52,-122.89 2584.96,-83.06 2566.79,-56.49"/>
<polygon fill="#63b8ff" stroke="#63b8ff" points="1783.96,-207.89 1773.95,-211.38 1783.95,-214.89 1783.96,-207.89"/>
</a>
</g>
</g>
<!-- Node17 -->
<g id="Node000017" class="node">
<title>Node17</title>
<g id="a_Node000017"><a xlink:href="_in_game_h_u_d_8h.html" target="_top" xlink:title=" ">
<polygon fill="white" stroke="#666666" points="2571.88,-148 2410.38,-148 2410.38,-92 2571.88,-92 2571.88,-148"/>
<text xml:space="preserve" text-anchor="start" x="2418.38" y="-134.5" font-family="Helvetica,sans-Serif" font-size="10.00">C:/Users/user/Perforce</text>
<text xml:space="preserve" text-anchor="start" x="2418.38" y="-122.5" font-family="Helvetica,sans-Serif" font-size="10.00">/alz7_CobaltbruWorkspace</text>
<text xml:space="preserve" text-anchor="start" x="2418.38" y="-110.5" font-family="Helvetica,sans-Serif" font-size="10.00">_00/KPT/Source/KPT/UI/InGame</text>
<text xml:space="preserve" text-anchor="middle" x="2491.12" y="-98.5" font-family="Helvetica,sans-Serif" font-size="10.00">/InGameHUD.h</text>
</a>
</g>
</g>
<!-- Node1&#45;&gt;Node17 -->
<g id="edge16_Node000001_Node000017" class="edge">
<title>Node1&#45;&gt;Node17</title>
<g id="a_edge16_Node000001_Node000017"><a xlink:title=" ">
<path fill="none" stroke="#63b8ff" d="M1784,-208.81C1919.08,-204.21 2181.98,-190.18 2401.12,-148 2404.17,-147.41 2407.26,-146.77 2410.36,-146.07"/>
<polygon fill="#63b8ff" stroke="#63b8ff" points="1783.91,-205.31 1774.03,-209.14 1784.14,-212.31 1783.91,-205.31"/>
</a>
</g>
</g>
<!-- Node18 -->
<g id="Node000018" class="node">
<title>Node18</title>
<g id="a_Node000018"><a xlink:href="_item_slot_u_i_8cpp.html" target="_top" xlink:title=" ">
<polygon fill="white" stroke="#666666" points="2774.38,-148 2627.88,-148 2627.88,-92 2774.38,-92 2774.38,-148"/>
<text xml:space="preserve" text-anchor="start" x="2635.88" y="-134.5" font-family="Helvetica,sans-Serif" font-size="10.00">C:/Users/user/Perforce</text>
<text xml:space="preserve" text-anchor="start" x="2635.88" y="-122.5" font-family="Helvetica,sans-Serif" font-size="10.00">/alz7_CobaltbruWorkspace</text>
<text xml:space="preserve" text-anchor="start" x="2635.88" y="-110.5" font-family="Helvetica,sans-Serif" font-size="10.00">_00/KPT/Source/KPT/UI/Item</text>
<text xml:space="preserve" text-anchor="middle" x="2701.12" y="-98.5" font-family="Helvetica,sans-Serif" font-size="10.00">/ItemSlotUI.cpp</text>
</a>
</g>
</g>
<!-- Node1&#45;&gt;Node18 -->
<g id="edge19_Node000001_Node000018" class="edge">
<title>Node1&#45;&gt;Node18</title>
<g id="a_edge19_Node000001_Node000018"><a xlink:title=" ">
<path fill="none" stroke="#63b8ff" d="M1783.84,-211.74C1949.41,-211.58 2313.56,-204.14 2614.12,-148 2618.48,-147.19 2622.92,-146.23 2627.38,-145.17"/>
<polygon fill="#63b8ff" stroke="#63b8ff" points="1784.26,-208.24 1774.26,-211.74 1784.26,-215.24 1784.26,-208.24"/>
</a>
</g>
</g>
<!-- Node19 -->
<g id="Node000019" class="node">
<title>Node19</title>
<g id="a_Node000019"><a xlink:href="_shop_u_i_8cpp.html" target="_top" xlink:title=" ">
<polygon fill="white" stroke="#666666" points="2939.38,-148 2792.88,-148 2792.88,-92 2939.38,-92 2939.38,-148"/>
<text xml:space="preserve" text-anchor="start" x="2800.88" y="-134.5" font-family="Helvetica,sans-Serif" font-size="10.00">C:/Users/user/Perforce</text>
<text xml:space="preserve" text-anchor="start" x="2800.88" y="-122.5" font-family="Helvetica,sans-Serif" font-size="10.00">/alz7_CobaltbruWorkspace</text>
<text xml:space="preserve" text-anchor="start" x="2800.88" y="-110.5" font-family="Helvetica,sans-Serif" font-size="10.00">_00/KPT/Source/KPT/UI/Item</text>
<text xml:space="preserve" text-anchor="middle" x="2866.12" y="-98.5" font-family="Helvetica,sans-Serif" font-size="10.00">/ShopUI.cpp</text>
</a>
</g>
</g>
<!-- Node1&#45;&gt;Node19 -->
<g id="edge20_Node000001_Node000019" class="edge">
<title>Node1&#45;&gt;Node19</title>
<g id="a_edge20_Node000001_Node000019"><a xlink:title=" ">
<path fill="none" stroke="#63b8ff" d="M1784.06,-208.77C2009.16,-202.7 2592.42,-183.91 2783.12,-148 2786.25,-147.41 2789.42,-146.74 2792.61,-146"/>
<polygon fill="#63b8ff" stroke="#63b8ff" points="1784.06,-205.27 1774.16,-209.03 1784.25,-212.26 1784.06,-205.27"/>
</a>
</g>
</g>
<!-- Node20 -->
<g id="Node000020" class="node">
<title>Node20</title>
<g id="a_Node000020"><a xlink:href="_skill_select_u_i_8cpp.html" target="_top" xlink:title=" ">
<polygon fill="white" stroke="#666666" points="3103,-148 2957.25,-148 2957.25,-92 3103,-92 3103,-148"/>
<text xml:space="preserve" text-anchor="start" x="2965.25" y="-134.5" font-family="Helvetica,sans-Serif" font-size="10.00">C:/Users/user/Perforce</text>
<text xml:space="preserve" text-anchor="start" x="2965.25" y="-122.5" font-family="Helvetica,sans-Serif" font-size="10.00">/alz7_CobaltbruWorkspace</text>
<text xml:space="preserve" text-anchor="start" x="2965.25" y="-110.5" font-family="Helvetica,sans-Serif" font-size="10.00">_00/KPT/Source/KPT/UI/Skill</text>
<text xml:space="preserve" text-anchor="middle" x="3030.12" y="-98.5" font-family="Helvetica,sans-Serif" font-size="10.00">/SkillSelectUI.cpp</text>
</a>
</g>
</g>
<!-- Node1&#45;&gt;Node20 -->
<g id="edge21_Node000001_Node000020" class="edge">
<title>Node1&#45;&gt;Node20</title>
<g id="a_edge21_Node000001_Node000020"><a xlink:title=" ">
<path fill="none" stroke="#63b8ff" d="M1783.88,-209.61C2032.16,-205.26 2724.52,-189.65 2948.12,-148 2951.07,-147.45 2954.06,-146.82 2957.06,-146.13"/>
<polygon fill="#63b8ff" stroke="#63b8ff" points="1783.84,-206.11 1773.91,-209.78 1783.97,-213.11 1783.84,-206.11"/>
</a>
</g>
</g>
<!-- Node21 -->
<g id="Node000021" class="node">
<title>Node21</title>
<g id="a_Node000021"><a xlink:href="_skill_slot_u_i_8cpp.html" target="_top" xlink:title=" ">
<polygon fill="white" stroke="#666666" points="3267,-148 3121.25,-148 3121.25,-92 3267,-92 3267,-148"/>
<text xml:space="preserve" text-anchor="start" x="3129.25" y="-134.5" font-family="Helvetica,sans-Serif" font-size="10.00">C:/Users/user/Perforce</text>
<text xml:space="preserve" text-anchor="start" x="3129.25" y="-122.5" font-family="Helvetica,sans-Serif" font-size="10.00">/alz7_CobaltbruWorkspace</text>
<text xml:space="preserve" text-anchor="start" x="3129.25" y="-110.5" font-family="Helvetica,sans-Serif" font-size="10.00">_00/KPT/Source/KPT/UI/Skill</text>
<text xml:space="preserve" text-anchor="middle" x="3194.12" y="-98.5" font-family="Helvetica,sans-Serif" font-size="10.00">/SkillSlotUI.cpp</text>
</a>
</g>
</g>
<!-- Node1&#45;&gt;Node21 -->
<g id="edge22_Node000001_Node000021" class="edge">
<title>Node1&#45;&gt;Node21</title>
<g id="a_edge22_Node000001_Node000021"><a xlink:title=" ">
<path fill="none" stroke="#63b8ff" d="M1783.73,-210.22C2053.56,-207.36 2855.55,-195.02 3112.12,-148 3115.07,-147.46 3118.06,-146.84 3121.07,-146.15"/>
<polygon fill="#63b8ff" stroke="#63b8ff" points="1783.91,-206.72 1773.95,-210.32 1783.99,-213.71 1783.91,-206.72"/>
</a>
</g>
</g>
<!-- Node17&#45;&gt;Node7 -->
<g id="edge17_Node000017_Node000007" class="edge">
<title>Node17&#45;&gt;Node7</title>
<g id="a_edge17_Node000017_Node000007"><a xlink:title=" ">
<path fill="none" stroke="#63b8ff" d="M2399.07,-91.78C2161.34,-47.08 1888.21,-34.26 1763.83,-30.51"/>
<polygon fill="#63b8ff" stroke="#63b8ff" points="2398.4,-95.21 2408.88,-93.65 2399.71,-88.34 2398.4,-95.21"/>
</a>
</g>
</g>
<!-- Node17&#45;&gt;Node16 -->
<g id="edge18_Node000017_Node000016" class="edge">
<title>Node17&#45;&gt;Node16</title>
<g id="a_edge18_Node000017_Node000016"><a xlink:title=" ">
<path fill="none" stroke="#63b8ff" d="M2513.47,-81.76C2518.58,-73.24 2523.92,-64.34 2528.73,-56.32"/>
<polygon fill="#63b8ff" stroke="#63b8ff" points="2510.54,-79.83 2508.4,-90.21 2516.55,-83.44 2510.54,-79.83"/>
</a>
</g>
</g>
</g>
</svg>
