<?xml version="1.0" encoding="UTF-8" standalone="no"?>
<!DOCTYPE svg PUBLIC "-//W3C//DTD SVG 1.1//EN"
 "http://www.w3.org/Graphics/SVG/1.1/DTD/svg11.dtd">
<!-- Generated by graphviz version 13.1.1 (20250719.2154)
 -->
<!-- Title: C:/Users/user/Perforce/alz7_CobaltbruWorkspace_00/KPT/Source/KPT/GAS/KPTAbilitySystemComponent.cpp Pages: 1 -->
<svg width="1559pt" height="256pt"
 viewBox="0.00 0.00 1559.00 256.00" xmlns="http://www.w3.org/2000/svg" xmlns:xlink="http://www.w3.org/1999/xlink">
<g id="graph0" class="graph" transform="scale(1 1) rotate(0) translate(4 252)">
<title>C:/Users/user/Perforce/alz7_CobaltbruWorkspace_00/KPT/Source/KPT/GAS/KPTAbilitySystemComponent.cpp</title>
<!-- Node1 -->
<g id="Node000001" class="node">
<title>Node1</title>
<g id="a_Node000001"><a xlink:title=" ">
<polygon fill="#999999" stroke="#666666" points="969.75,-248 786.5,-248 786.5,-192 969.75,-192 969.75,-248"/>
<text xml:space="preserve" text-anchor="start" x="794.5" y="-234.5" font-family="Helvetica,sans-Serif" font-size="10.00">C:/Users/user/Perforce</text>
<text xml:space="preserve" text-anchor="start" x="794.5" y="-222.5" font-family="Helvetica,sans-Serif" font-size="10.00">/alz7_CobaltbruWorkspace</text>
<text xml:space="preserve" text-anchor="start" x="794.5" y="-210.5" font-family="Helvetica,sans-Serif" font-size="10.00">_00/KPT/Source/KPT/GAS/KPTAbility</text>
<text xml:space="preserve" text-anchor="middle" x="878.12" y="-198.5" font-family="Helvetica,sans-Serif" font-size="10.00">SystemComponent.cpp</text>
</a>
</g>
</g>
<!-- Node2 -->
<g id="Node000002" class="node">
<title>Node2</title>
<g id="a_Node000002"><a xlink:href="_k_p_t_ability_system_component_8h.html" target="_top" xlink:title=" ">
<polygon fill="white" stroke="#666666" points="955.12,-150 801.12,-150 801.12,-130 955.12,-130 955.12,-150"/>
<text xml:space="preserve" text-anchor="middle" x="878.12" y="-136.5" font-family="Helvetica,sans-Serif" font-size="10.00">KPTAbilitySystemComponent.h</text>
</a>
</g>
</g>
<!-- Node1&#45;&gt;Node2 -->
<g id="edge1_Node000001_Node000002" class="edge">
<title>Node1&#45;&gt;Node2</title>
<g id="a_edge1_Node000001_Node000002"><a xlink:title=" ">
<path fill="none" stroke="#63b8ff" d="M878.12,-191.72C878.12,-181.81 878.12,-170.79 878.12,-161.56"/>
<polygon fill="#63b8ff" stroke="#63b8ff" points="881.63,-161.87 878.13,-151.87 874.63,-161.87 881.63,-161.87"/>
</a>
</g>
</g>
<!-- Node6 -->
<g id="Node000006" class="node">
<title>Node6</title>
<g id="a_Node000006"><a xlink:title=" ">
<polygon fill="#e0e0e0" stroke="#999999" points="1091.12,-150 973.12,-150 973.12,-130 1091.12,-130 1091.12,-150"/>
<text xml:space="preserve" text-anchor="middle" x="1032.12" y="-136.5" font-family="Helvetica,sans-Serif" font-size="10.00">AbilitySystemGlobals.h</text>
</a>
</g>
</g>
<!-- Node1&#45;&gt;Node6 -->
<g id="edge5_Node000001_Node000006" class="edge">
<title>Node1&#45;&gt;Node6</title>
<g id="a_edge5_Node000001_Node000006"><a xlink:title=" ">
<path fill="none" stroke="#63b8ff" d="M932.42,-191.5C956.24,-179.44 983.24,-165.76 1003.13,-155.68"/>
<polygon fill="#63b8ff" stroke="#63b8ff" points="1004.7,-158.82 1012.04,-151.17 1001.53,-152.57 1004.7,-158.82"/>
</a>
</g>
</g>
<!-- Node7 -->
<g id="Node000007" class="node">
<title>Node7</title>
<g id="a_Node000007"><a xlink:href="_active_ability_base_8h.html" target="_top" xlink:title=" ">
<polygon fill="white" stroke="#666666" points="413.38,-156 290.88,-156 290.88,-124 413.38,-124 413.38,-156"/>
<text xml:space="preserve" text-anchor="start" x="298.88" y="-142.5" font-family="Helvetica,sans-Serif" font-size="10.00">Skill/Ability/ActiveAbility</text>
<text xml:space="preserve" text-anchor="middle" x="352.12" y="-130.5" font-family="Helvetica,sans-Serif" font-size="10.00">Base.h</text>
</a>
</g>
</g>
<!-- Node1&#45;&gt;Node7 -->
<g id="edge6_Node000001_Node000007" class="edge">
<title>Node1&#45;&gt;Node7</title>
<g id="a_edge6_Node000001_Node000007"><a xlink:title=" ">
<path fill="none" stroke="#63b8ff" d="M786.2,-205.37C683.48,-190.14 519.24,-165.78 424.99,-151.81"/>
<polygon fill="#63b8ff" stroke="#63b8ff" points="425.76,-148.38 415.35,-150.38 424.73,-155.3 425.76,-148.38"/>
</a>
</g>
</g>
<!-- Node10 -->
<g id="Node000010" class="node">
<title>Node10</title>
<g id="a_Node000010"><a xlink:title=" ">
<polygon fill="#e0e0e0" stroke="#999999" points="1233.12,-150 1109.12,-150 1109.12,-130 1233.12,-130 1233.12,-150"/>
<text xml:space="preserve" text-anchor="middle" x="1171.12" y="-136.5" font-family="Helvetica,sans-Serif" font-size="10.00">GameplayCueManager.h</text>
</a>
</g>
</g>
<!-- Node1&#45;&gt;Node10 -->
<g id="edge10_Node000001_Node000010" class="edge">
<title>Node1&#45;&gt;Node10</title>
<g id="a_edge10_Node000001_Node000010"><a xlink:title=" ">
<path fill="none" stroke="#63b8ff" d="M970.03,-194.53C1021.42,-180.85 1083.27,-164.39 1124.69,-153.36"/>
<polygon fill="#63b8ff" stroke="#63b8ff" points="1125.57,-156.75 1134.34,-150.79 1123.77,-149.98 1125.57,-156.75"/>
</a>
</g>
</g>
<!-- Node11 -->
<g id="Node000011" class="node">
<title>Node11</title>
<g id="a_Node000011"><a xlink:href="_player_character_8h.html" target="_top" xlink:title=" ">
<polygon fill="white" stroke="#666666" points="783.38,-150 642.88,-150 642.88,-130 783.38,-130 783.38,-150"/>
<text xml:space="preserve" text-anchor="middle" x="713.12" y="-136.5" font-family="Helvetica,sans-Serif" font-size="10.00">Character/PlayerCharacter.h</text>
</a>
</g>
</g>
<!-- Node1&#45;&gt;Node11 -->
<g id="edge11_Node000001_Node000011" class="edge">
<title>Node1&#45;&gt;Node11</title>
<g id="a_edge11_Node000001_Node000011"><a xlink:title=" ">
<path fill="none" stroke="#63b8ff" d="M819.95,-191.5C794.19,-179.32 764.96,-165.51 743.6,-155.41"/>
<polygon fill="#63b8ff" stroke="#63b8ff" points="745.11,-152.25 734.57,-151.14 742.11,-158.58 745.11,-152.25"/>
</a>
</g>
</g>
<!-- Node3 -->
<g id="Node000003" class="node">
<title>Node3</title>
<g id="a_Node000003"><a xlink:title=" ">
<polygon fill="#e0e0e0" stroke="#999999" points="742.62,-20 663.62,-20 663.62,0 742.62,0 742.62,-20"/>
<text xml:space="preserve" text-anchor="middle" x="703.12" y="-6.5" font-family="Helvetica,sans-Serif" font-size="10.00">CoreMinimal.h</text>
</a>
</g>
</g>
<!-- Node2&#45;&gt;Node3 -->
<g id="edge2_Node000002_Node000003" class="edge">
<title>Node2&#45;&gt;Node3</title>
<g id="a_edge2_Node000002_Node000003"><a xlink:title=" ">
<path fill="none" stroke="#63b8ff" d="M872.55,-129.52C862.21,-112.64 838.49,-77.17 810.12,-56 791.37,-42 767.61,-31.44 747.25,-24.08"/>
<polygon fill="#63b8ff" stroke="#63b8ff" points="748.68,-20.87 738.08,-20.92 746.39,-27.49 748.68,-20.87"/>
</a>
</g>
</g>
<!-- Node4 -->
<g id="Node000004" class="node">
<title>Node4</title>
<g id="a_Node000004"><a xlink:title=" ">
<polygon fill="#e0e0e0" stroke="#999999" points="1332.75,-82 1197.5,-82 1197.5,-62 1332.75,-62 1332.75,-82"/>
<text xml:space="preserve" text-anchor="middle" x="1265.12" y="-68.5" font-family="Helvetica,sans-Serif" font-size="10.00">AbilitySystemComponent.h</text>
</a>
</g>
</g>
<!-- Node2&#45;&gt;Node4 -->
<g id="edge3_Node000002_Node000004" class="edge">
<title>Node2&#45;&gt;Node4</title>
<g id="a_edge3_Node000002_Node000004"><a xlink:title=" ">
<path fill="none" stroke="#63b8ff" d="M931.78,-129.53C942.49,-127.67 953.66,-125.75 964.12,-124 1063.57,-107.34 1088.85,-105.64 1188.12,-88 1194.16,-86.93 1200.45,-85.77 1206.72,-84.59"/>
<polygon fill="#63b8ff" stroke="#63b8ff" points="1207.28,-88.04 1216.45,-82.73 1205.97,-81.17 1207.28,-88.04"/>
</a>
</g>
</g>
<!-- Node5 -->
<g id="Node000005" class="node">
<title>Node5</title>
<g id="a_Node000005"><a xlink:title=" ">
<polygon fill="#e0e0e0" stroke="#999999" points="1551,-82 1351.25,-82 1351.25,-62 1551,-62 1551,-82"/>
<text xml:space="preserve" text-anchor="middle" x="1451.12" y="-68.5" font-family="Helvetica,sans-Serif" font-size="10.00">KPTAbilitySystemComponent.generated.h</text>
</a>
</g>
</g>
<!-- Node2&#45;&gt;Node5 -->
<g id="edge4_Node000002_Node000005" class="edge">
<title>Node2&#45;&gt;Node5</title>
<g id="a_edge4_Node000002_Node000005"><a xlink:title=" ">
<path fill="none" stroke="#63b8ff" d="M928.5,-129.54C940.17,-127.53 952.56,-125.56 964.12,-124 1131.38,-101.48 1174.5,-107.51 1342.12,-88 1352.55,-86.79 1363.51,-85.4 1374.31,-83.98"/>
<polygon fill="#63b8ff" stroke="#63b8ff" points="1374.52,-87.48 1383.97,-82.69 1373.6,-80.54 1374.52,-87.48"/>
</a>
</g>
</g>
<!-- Node7&#45;&gt;Node3 -->
<g id="edge7_Node000007_Node000003" class="edge">
<title>Node7&#45;&gt;Node3</title>
<g id="a_edge7_Node000007_Node000003"><a xlink:title=" ">
<path fill="none" stroke="#63b8ff" d="M390.89,-123.6C412.05,-114.49 438.31,-102 460.12,-88 478.71,-76.08 478.32,-65.76 498.12,-56 547.22,-31.8 609.29,-20.5 652.2,-15.3"/>
<polygon fill="#63b8ff" stroke="#63b8ff" points="652.45,-18.8 661.99,-14.19 651.66,-11.84 652.45,-18.8"/>
</a>
</g>
</g>
<!-- Node8 -->
<g id="Node000008" class="node">
<title>Node8</title>
<g id="a_Node000008"><a xlink:title=" ">
<polygon fill="#e0e0e0" stroke="#999999" points="132.25,-82 0,-82 0,-62 132.25,-62 132.25,-82"/>
<text xml:space="preserve" text-anchor="middle" x="66.12" y="-68.5" font-family="Helvetica,sans-Serif" font-size="10.00">Abilities/GameplayAbility.h</text>
</a>
</g>
</g>
<!-- Node7&#45;&gt;Node8 -->
<g id="edge8_Node000007_Node000008" class="edge">
<title>Node7&#45;&gt;Node8</title>
<g id="a_edge8_Node000007_Node000008"><a xlink:title=" ">
<path fill="none" stroke="#63b8ff" d="M290.42,-124.76C239.04,-112.9 166.68,-96.21 118.18,-85.01"/>
<polygon fill="#63b8ff" stroke="#63b8ff" points="119.01,-81.61 108.48,-82.77 117.43,-88.43 119.01,-81.61"/>
</a>
</g>
</g>
<!-- Node9 -->
<g id="Node000009" class="node">
<title>Node9</title>
<g id="a_Node000009"><a xlink:title=" ">
<polygon fill="#e0e0e0" stroke="#999999" points="297.75,-82 150.5,-82 150.5,-62 297.75,-62 297.75,-82"/>
<text xml:space="preserve" text-anchor="middle" x="224.12" y="-68.5" font-family="Helvetica,sans-Serif" font-size="10.00">ActiveAbilityBase.generated.h</text>
</a>
</g>
</g>
<!-- Node7&#45;&gt;Node9 -->
<g id="edge9_Node000007_Node000009" class="edge">
<title>Node7&#45;&gt;Node9</title>
<g id="a_edge9_Node000007_Node000009"><a xlink:title=" ">
<path fill="none" stroke="#63b8ff" d="M322.11,-123.53C301.1,-112.69 273.19,-98.3 252.54,-87.65"/>
<polygon fill="#63b8ff" stroke="#63b8ff" points="254.31,-84.63 243.82,-83.15 251.1,-90.85 254.31,-84.63"/>
</a>
</g>
</g>
<!-- Node11&#45;&gt;Node3 -->
<g id="edge12_Node000011_Node000003" class="edge">
<title>Node11&#45;&gt;Node3</title>
<g id="a_edge12_Node000011_Node000003"><a xlink:title=" ">
<path fill="none" stroke="#63b8ff" d="M708.42,-129.51C703.73,-119.49 696.84,-103.06 694.12,-88 690.66,-68.77 694.02,-46.58 697.58,-30.98"/>
<polygon fill="#63b8ff" stroke="#63b8ff" points="700.91,-32.08 699.98,-21.53 694.12,-30.36 700.91,-32.08"/>
</a>
</g>
</g>
<!-- Node12 -->
<g id="Node000012" class="node">
<title>Node12</title>
<g id="a_Node000012"><a xlink:href="_character_base_8h.html" target="_top" xlink:title=" ">
<polygon fill="white" stroke="#666666" points="450.75,-82 315.5,-82 315.5,-62 450.75,-62 450.75,-82"/>
<text xml:space="preserve" text-anchor="middle" x="383.12" y="-68.5" font-family="Helvetica,sans-Serif" font-size="10.00">Character/CharacterBase.h</text>
</a>
</g>
</g>
<!-- Node11&#45;&gt;Node12 -->
<g id="edge13_Node000011_Node000012" class="edge">
<title>Node11&#45;&gt;Node12</title>
<g id="a_edge13_Node000011_Node000012"><a xlink:title=" ">
<path fill="none" stroke="#63b8ff" d="M665.84,-129.54C606.75,-117.72 505.62,-97.5 441.68,-84.71"/>
<polygon fill="#63b8ff" stroke="#63b8ff" points="442.56,-81.32 432.07,-82.79 441.19,-88.18 442.56,-81.32"/>
</a>
</g>
</g>
<!-- Node16 -->
<g id="Node000016" class="node">
<title>Node16</title>
<g id="a_Node000016"><a xlink:title=" ">
<polygon fill="#e0e0e0" stroke="#999999" points="801,-82 703.25,-82 703.25,-62 801,-62 801,-82"/>
<text xml:space="preserve" text-anchor="middle" x="752.12" y="-68.5" font-family="Helvetica,sans-Serif" font-size="10.00">InputActionValue.h</text>
</a>
</g>
</g>
<!-- Node11&#45;&gt;Node16 -->
<g id="edge18_Node000011_Node000016" class="edge">
<title>Node11&#45;&gt;Node16</title>
<g id="a_edge18_Node000011_Node000016"><a xlink:title=" ">
<path fill="none" stroke="#63b8ff" d="M718.71,-129.54C724.45,-119.84 733.53,-104.47 740.78,-92.2"/>
<polygon fill="#63b8ff" stroke="#63b8ff" points="743.7,-94.13 745.78,-83.74 737.68,-90.57 743.7,-94.13"/>
</a>
</g>
</g>
<!-- Node17 -->
<g id="Node000017" class="node">
<title>Node17</title>
<g id="a_Node000017"><a xlink:href="_combat_interface_8h.html" target="_top" xlink:title=" ">
<polygon fill="white" stroke="#666666" points="1179.25,-82 1017,-82 1017,-62 1179.25,-62 1179.25,-82"/>
<text xml:space="preserve" text-anchor="middle" x="1098.12" y="-68.5" font-family="Helvetica,sans-Serif" font-size="10.00">Core/Interface/CombatInterface.h</text>
</a>
</g>
</g>
<!-- Node11&#45;&gt;Node17 -->
<g id="edge19_Node000011_Node000017" class="edge">
<title>Node11&#45;&gt;Node17</title>
<g id="a_edge19_Node000011_Node000017"><a xlink:title=" ">
<path fill="none" stroke="#63b8ff" d="M761.98,-129.55C771.94,-127.67 782.37,-125.74 792.12,-124 792.86,-123.87 940.33,-99.29 1030.25,-84.31"/>
<polygon fill="#63b8ff" stroke="#63b8ff" points="1030.68,-87.79 1039.97,-82.69 1029.53,-80.88 1030.68,-87.79"/>
</a>
</g>
</g>
<!-- Node20 -->
<g id="Node000020" class="node">
<title>Node20</title>
<g id="a_Node000020"><a xlink:href="_k_p_t_pausable_interface_8h.html" target="_top" xlink:title=" ">
<polygon fill="white" stroke="#666666" points="998.75,-88 857.5,-88 857.5,-56 998.75,-56 998.75,-88"/>
<text xml:space="preserve" text-anchor="start" x="865.5" y="-74.5" font-family="Helvetica,sans-Serif" font-size="10.00">Core/Interface/KPTPausable</text>
<text xml:space="preserve" text-anchor="middle" x="928.12" y="-62.5" font-family="Helvetica,sans-Serif" font-size="10.00">Interface.h</text>
</a>
</g>
</g>
<!-- Node11&#45;&gt;Node20 -->
<g id="edge23_Node000011_Node000020" class="edge">
<title>Node11&#45;&gt;Node20</title>
<g id="a_edge23_Node000011_Node000020"><a xlink:title=" ">
<path fill="none" stroke="#63b8ff" d="M743.93,-129.54C775.94,-119.72 826.89,-104.08 867.1,-91.73"/>
<polygon fill="#63b8ff" stroke="#63b8ff" points="867.89,-95.15 876.42,-88.87 865.83,-88.46 867.89,-95.15"/>
</a>
</g>
</g>
<!-- Node22 -->
<g id="Node000022" class="node">
<title>Node22</title>
<g id="a_Node000022"><a xlink:title=" ">
<polygon fill="#e0e0e0" stroke="#999999" points="647.38,-82 506.88,-82 506.88,-62 647.38,-62 647.38,-82"/>
<text xml:space="preserve" text-anchor="middle" x="577.12" y="-68.5" font-family="Helvetica,sans-Serif" font-size="10.00">PlayerCharacter.generated.h</text>
</a>
</g>
</g>
<!-- Node11&#45;&gt;Node22 -->
<g id="edge27_Node000011_Node000022" class="edge">
<title>Node11&#45;&gt;Node22</title>
<g id="a_edge27_Node000011_Node000022"><a xlink:title=" ">
<path fill="none" stroke="#63b8ff" d="M693.64,-129.54C670.92,-118.52 633.11,-100.17 606.75,-87.38"/>
<polygon fill="#63b8ff" stroke="#63b8ff" points="608.46,-84.32 597.94,-83.1 605.4,-90.61 608.46,-84.32"/>
</a>
</g>
</g>
<!-- Node12&#45;&gt;Node3 -->
<g id="edge14_Node000012_Node000003" class="edge">
<title>Node12&#45;&gt;Node3</title>
<g id="a_edge14_Node000012_Node000003"><a xlink:title=" ">
<path fill="none" stroke="#63b8ff" d="M433.48,-61.56C493.17,-50.37 592.09,-31.82 652.08,-20.57"/>
<polygon fill="#63b8ff" stroke="#63b8ff" points="652.51,-24.05 661.69,-18.77 651.22,-17.17 652.51,-24.05"/>
</a>
</g>
</g>
<!-- Node13 -->
<g id="Node000013" class="node">
<title>Node13</title>
<g id="a_Node000013"><a xlink:title=" ">
<polygon fill="#e0e0e0" stroke="#999999" points="591.75,-20 468.5,-20 468.5,0 591.75,0 591.75,-20"/>
<text xml:space="preserve" text-anchor="middle" x="530.12" y="-6.5" font-family="Helvetica,sans-Serif" font-size="10.00">AbilitySystemInterface.h</text>
</a>
</g>
</g>
<!-- Node12&#45;&gt;Node13 -->
<g id="edge15_Node000012_Node000013" class="edge">
<title>Node12&#45;&gt;Node13</title>
<g id="a_edge15_Node000012_Node000013"><a xlink:title=" ">
<path fill="none" stroke="#63b8ff" d="M406.09,-61.62C430.47,-51.67 469.23,-35.85 496.93,-24.55"/>
<polygon fill="#63b8ff" stroke="#63b8ff" points="497.98,-27.9 505.92,-20.88 495.34,-21.42 497.98,-27.9"/>
</a>
</g>
</g>
<!-- Node14 -->
<g id="Node000014" class="node">
<title>Node14</title>
<g id="a_Node000014"><a xlink:title=" ">
<polygon fill="#e0e0e0" stroke="#999999" points="297.62,-20 152.62,-20 152.62,0 297.62,0 297.62,-20"/>
<text xml:space="preserve" text-anchor="middle" x="225.12" y="-6.5" font-family="Helvetica,sans-Serif" font-size="10.00">GameFramework/Character.h</text>
</a>
</g>
</g>
<!-- Node12&#45;&gt;Node14 -->
<g id="edge16_Node000012_Node000014" class="edge">
<title>Node12&#45;&gt;Node14</title>
<g id="a_edge16_Node000012_Node000014"><a xlink:title=" ">
<path fill="none" stroke="#63b8ff" d="M358.44,-61.62C332.08,-51.62 290.08,-35.67 260.28,-24.35"/>
<polygon fill="#63b8ff" stroke="#63b8ff" points="261.91,-21.22 251.31,-20.95 259.42,-27.77 261.91,-21.22"/>
</a>
</g>
</g>
<!-- Node15 -->
<g id="Node000015" class="node">
<title>Node15</title>
<g id="a_Node000015"><a xlink:title=" ">
<polygon fill="#e0e0e0" stroke="#999999" points="450.75,-20 315.5,-20 315.5,0 450.75,0 450.75,-20"/>
<text xml:space="preserve" text-anchor="middle" x="383.12" y="-6.5" font-family="Helvetica,sans-Serif" font-size="10.00">CharacterBase.generated.h</text>
</a>
</g>
</g>
<!-- Node12&#45;&gt;Node15 -->
<g id="edge17_Node000012_Node000015" class="edge">
<title>Node12&#45;&gt;Node15</title>
<g id="a_edge17_Node000012_Node000015"><a xlink:title=" ">
<path fill="none" stroke="#63b8ff" d="M383.12,-61.62C383.12,-53.56 383.12,-41.65 383.12,-31.41"/>
<polygon fill="#63b8ff" stroke="#63b8ff" points="386.63,-31.63 383.13,-21.63 379.63,-31.63 386.63,-31.63"/>
</a>
</g>
</g>
<!-- Node17&#45;&gt;Node3 -->
<g id="edge20_Node000017_Node000003" class="edge">
<title>Node17&#45;&gt;Node3</title>
<g id="a_edge20_Node000017_Node000003"><a xlink:title=" ">
<path fill="none" stroke="#63b8ff" d="M1042.46,-61.56C1031.11,-59.68 1019.24,-57.75 1008.12,-56 918.71,-41.95 814.34,-26.83 753.79,-18.18"/>
<polygon fill="#63b8ff" stroke="#63b8ff" points="754.53,-14.75 744.14,-16.8 753.55,-21.68 754.53,-14.75"/>
</a>
</g>
</g>
<!-- Node18 -->
<g id="Node000018" class="node">
<title>Node18</title>
<g id="a_Node000018"><a xlink:title=" ">
<polygon fill="#e0e0e0" stroke="#999999" points="1103.88,-20 1002.38,-20 1002.38,0 1103.88,0 1103.88,-20"/>
<text xml:space="preserve" text-anchor="middle" x="1053.12" y="-6.5" font-family="Helvetica,sans-Serif" font-size="10.00">UObject/Interface.h</text>
</a>
</g>
</g>
<!-- Node17&#45;&gt;Node18 -->
<g id="edge21_Node000017_Node000018" class="edge">
<title>Node17&#45;&gt;Node18</title>
<g id="a_edge21_Node000017_Node000018"><a xlink:title=" ">
<path fill="none" stroke="#63b8ff" d="M1091.09,-61.62C1084.58,-52.94 1074.72,-39.8 1066.68,-29.08"/>
<polygon fill="#63b8ff" stroke="#63b8ff" points="1069.67,-27.22 1060.87,-21.32 1064.07,-31.42 1069.67,-27.22"/>
</a>
</g>
</g>
<!-- Node19 -->
<g id="Node000019" class="node">
<title>Node19</title>
<g id="a_Node000019"><a xlink:title=" ">
<polygon fill="#e0e0e0" stroke="#999999" points="1264.5,-20 1121.75,-20 1121.75,0 1264.5,0 1264.5,-20"/>
<text xml:space="preserve" text-anchor="middle" x="1193.12" y="-6.5" font-family="Helvetica,sans-Serif" font-size="10.00">CombatInterface.generated.h</text>
</a>
</g>
</g>
<!-- Node17&#45;&gt;Node19 -->
<g id="edge22_Node000017_Node000019" class="edge">
<title>Node17&#45;&gt;Node19</title>
<g id="a_edge22_Node000017_Node000019"><a xlink:title=" ">
<path fill="none" stroke="#63b8ff" d="M1112.97,-61.62C1127.89,-52.2 1151.14,-37.52 1168.76,-26.39"/>
<polygon fill="#63b8ff" stroke="#63b8ff" points="1170.52,-29.42 1177.11,-21.12 1166.78,-23.5 1170.52,-29.42"/>
</a>
</g>
</g>
<!-- Node20&#45;&gt;Node3 -->
<g id="edge24_Node000020_Node000003" class="edge">
<title>Node20&#45;&gt;Node3</title>
<g id="a_edge24_Node000020_Node000003"><a xlink:title=" ">
<path fill="none" stroke="#63b8ff" d="M870.18,-55.55C832.7,-45.55 784.56,-32.72 749.6,-23.39"/>
<polygon fill="#63b8ff" stroke="#63b8ff" points="750.76,-20.08 740.2,-20.89 748.96,-26.84 750.76,-20.08"/>
</a>
</g>
</g>
<!-- Node20&#45;&gt;Node18 -->
<g id="edge25_Node000020_Node000018" class="edge">
<title>Node20&#45;&gt;Node18</title>
<g id="a_edge25_Node000020_Node000018"><a xlink:title=" ">
<path fill="none" stroke="#63b8ff" d="M960.32,-55.55C979.76,-46.22 1004.36,-34.41 1023.35,-25.29"/>
<polygon fill="#63b8ff" stroke="#63b8ff" points="1024.66,-28.55 1032.16,-21.06 1021.63,-22.23 1024.66,-28.55"/>
</a>
</g>
</g>
<!-- Node21 -->
<g id="Node000021" class="node">
<title>Node21</title>
<g id="a_Node000021"><a xlink:title=" ">
<polygon fill="#e0e0e0" stroke="#999999" points="984.25,-20 816,-20 816,0 984.25,0 984.25,-20"/>
<text xml:space="preserve" text-anchor="middle" x="900.12" y="-6.5" font-family="Helvetica,sans-Serif" font-size="10.00">KPTPausableInterface.generated.h</text>
</a>
</g>
</g>
<!-- Node20&#45;&gt;Node21 -->
<g id="edge26_Node000020_Node000021" class="edge">
<title>Node20&#45;&gt;Node21</title>
<g id="a_edge26_Node000020_Node000021"><a xlink:title=" ">
<path fill="none" stroke="#63b8ff" d="M920.91,-55.55C917.39,-48 913.11,-38.82 909.35,-30.77"/>
<polygon fill="#63b8ff" stroke="#63b8ff" points="912.56,-29.36 905.16,-21.78 906.21,-32.32 912.56,-29.36"/>
</a>
</g>
</g>
</g>
</svg>
