<?xml version="1.0" encoding="UTF-8" standalone="no"?>
<!DOCTYPE svg PUBLIC "-//W3C//DTD SVG 1.1//EN"
 "http://www.w3.org/Graphics/SVG/1.1/DTD/svg11.dtd">
<!-- Generated by graphviz version 13.1.1 (20250719.2154)
 -->
<!-- Title: C:/Users/user/Perforce/alz7_CobaltbruWorkspace_00/KPT/Source/KPT/Core/KPTGameInstance.h Pages: 1 -->
<svg width="1027pt" height="132pt"
 viewBox="0.00 0.00 1027.00 132.00" xmlns="http://www.w3.org/2000/svg" xmlns:xlink="http://www.w3.org/1999/xlink">
<g id="graph0" class="graph" transform="scale(1 1) rotate(0) translate(4 128)">
<title>C:/Users/user/Perforce/alz7_CobaltbruWorkspace_00/KPT/Source/KPT/Core/KPTGameInstance.h</title>
<!-- Node1 -->
<g id="Node000001" class="node">
<title>Node1</title>
<g id="a_Node000001"><a xlink:title=" ">
<polygon fill="#999999" stroke="#666666" points="546.75,-124 412.25,-124 412.25,-68 546.75,-68 546.75,-124"/>
<text xml:space="preserve" text-anchor="start" x="420.25" y="-110.5" font-family="Helvetica,sans-Serif" font-size="10.00">C:/Users/user/Perforce</text>
<text xml:space="preserve" text-anchor="start" x="420.25" y="-98.5" font-family="Helvetica,sans-Serif" font-size="10.00">/alz7_CobaltbruWorkspace</text>
<text xml:space="preserve" text-anchor="start" x="420.25" y="-86.5" font-family="Helvetica,sans-Serif" font-size="10.00">_00/KPT/Source/KPT/Core</text>
<text xml:space="preserve" text-anchor="middle" x="479.5" y="-74.5" font-family="Helvetica,sans-Serif" font-size="10.00">/KPTGameInstance.h</text>
</a>
</g>
</g>
<!-- Node2 -->
<g id="Node000002" class="node">
<title>Node2</title>
<g id="a_Node000002"><a xlink:title=" ">
<polygon fill="#e0e0e0" stroke="#999999" points="79,-26 0,-26 0,-6 79,-6 79,-26"/>
<text xml:space="preserve" text-anchor="middle" x="39.5" y="-12.5" font-family="Helvetica,sans-Serif" font-size="10.00">CoreMinimal.h</text>
</a>
</g>
</g>
<!-- Node1&#45;&gt;Node2 -->
<g id="edge1_Node000001_Node000002" class="edge">
<title>Node1&#45;&gt;Node2</title>
<g id="a_edge1_Node000001_Node000002"><a xlink:title=" ">
<path fill="none" stroke="#63b8ff" d="M411.99,-87.14C333.42,-77.31 200.05,-58.49 87.5,-32 84.53,-31.3 81.49,-30.52 78.43,-29.68"/>
<polygon fill="#63b8ff" stroke="#63b8ff" points="79.52,-26.35 68.94,-26.91 77.56,-33.07 79.52,-26.35"/>
</a>
</g>
</g>
<!-- Node3 -->
<g id="Node000003" class="node">
<title>Node3</title>
<g id="a_Node000003"><a xlink:title=" ">
<polygon fill="#e0e0e0" stroke="#999999" points="260.38,-26 96.62,-26 96.62,-6 260.38,-6 260.38,-26"/>
<text xml:space="preserve" text-anchor="middle" x="178.5" y="-12.5" font-family="Helvetica,sans-Serif" font-size="10.00">AdvancedFriendsGameInstance.h</text>
</a>
</g>
</g>
<!-- Node1&#45;&gt;Node3 -->
<g id="edge2_Node000001_Node000003" class="edge">
<title>Node1&#45;&gt;Node3</title>
<g id="a_edge2_Node000001_Node000003"><a xlink:title=" ">
<path fill="none" stroke="#63b8ff" d="M411.95,-77.5C355.35,-62.83 275.98,-42.26 225.91,-29.29"/>
<polygon fill="#63b8ff" stroke="#63b8ff" points="226.79,-25.9 216.24,-26.78 225.04,-32.68 226.79,-25.9"/>
</a>
</g>
</g>
<!-- Node4 -->
<g id="Node000004" class="node">
<title>Node4</title>
<g id="a_Node000004"><a xlink:title=" ">
<polygon fill="#e0e0e0" stroke="#999999" points="399,-26 278,-26 278,-6 399,-6 399,-26"/>
<text xml:space="preserve" text-anchor="middle" x="338.5" y="-12.5" font-family="Helvetica,sans-Serif" font-size="10.00">Engine/GameInstance.h</text>
</a>
</g>
</g>
<!-- Node1&#45;&gt;Node4 -->
<g id="edge3_Node000001_Node000004" class="edge">
<title>Node1&#45;&gt;Node4</title>
<g id="a_edge3_Node000001_Node000004"><a xlink:title=" ">
<path fill="none" stroke="#63b8ff" d="M429.79,-67.5C408.18,-55.55 383.71,-42.01 365.55,-31.96"/>
<polygon fill="#63b8ff" stroke="#63b8ff" points="367.43,-29 356.98,-27.22 364.04,-35.13 367.43,-29"/>
</a>
</g>
</g>
<!-- Node5 -->
<g id="Node000005" class="node">
<title>Node5</title>
<g id="a_Node000005"><a xlink:title=" ">
<polygon fill="#e0e0e0" stroke="#999999" points="542.25,-32 416.75,-32 416.75,0 542.25,0 542.25,-32"/>
<text xml:space="preserve" text-anchor="start" x="424.75" y="-18.5" font-family="Helvetica,sans-Serif" font-size="10.00">Interfaces/OnlineSession</text>
<text xml:space="preserve" text-anchor="middle" x="479.5" y="-6.5" font-family="Helvetica,sans-Serif" font-size="10.00">Interface.h</text>
</a>
</g>
</g>
<!-- Node1&#45;&gt;Node5 -->
<g id="edge4_Node000001_Node000005" class="edge">
<title>Node1&#45;&gt;Node5</title>
<g id="a_edge4_Node000001_Node000005"><a xlink:title=" ">
<path fill="none" stroke="#63b8ff" d="M479.5,-67.72C479.5,-59.88 479.5,-51.34 479.5,-43.54"/>
<polygon fill="#63b8ff" stroke="#63b8ff" points="483,-43.62 479.5,-33.62 476,-43.62 483,-43.62"/>
</a>
</g>
</g>
<!-- Node6 -->
<g id="Node000006" class="node">
<title>Node6</title>
<g id="a_Node000006"><a xlink:title=" ">
<polygon fill="#e0e0e0" stroke="#999999" points="683.12,-26 559.88,-26 559.88,-6 683.12,-6 683.12,-26"/>
<text xml:space="preserve" text-anchor="middle" x="621.5" y="-12.5" font-family="Helvetica,sans-Serif" font-size="10.00">OnlineSessionSettings.h</text>
</a>
</g>
</g>
<!-- Node1&#45;&gt;Node6 -->
<g id="edge5_Node000001_Node000006" class="edge">
<title>Node1&#45;&gt;Node6</title>
<g id="a_edge5_Node000001_Node000006"><a xlink:title=" ">
<path fill="none" stroke="#63b8ff" d="M529.56,-67.5C551.32,-55.55 575.97,-42.01 594.26,-31.96"/>
<polygon fill="#63b8ff" stroke="#63b8ff" points="595.82,-35.1 602.9,-27.22 592.45,-28.97 595.82,-35.1"/>
</a>
</g>
</g>
<!-- Node7 -->
<g id="Node000007" class="node">
<title>Node7</title>
<g id="a_Node000007"><a xlink:title=" ">
<polygon fill="#e0e0e0" stroke="#999999" points="847.75,-26 701.25,-26 701.25,-6 847.75,-6 847.75,-26"/>
<text xml:space="preserve" text-anchor="middle" x="774.5" y="-12.5" font-family="Helvetica,sans-Serif" font-size="10.00">FindSessionsCallbackProxy.h</text>
</a>
</g>
</g>
<!-- Node1&#45;&gt;Node7 -->
<g id="edge6_Node000001_Node000007" class="edge">
<title>Node1&#45;&gt;Node7</title>
<g id="a_edge6_Node000001_Node000007"><a xlink:title=" ">
<path fill="none" stroke="#63b8ff" d="M547.18,-77.11C602.57,-62.46 679.46,-42.13 728.09,-29.27"/>
<polygon fill="#63b8ff" stroke="#63b8ff" points="728.68,-32.74 737.45,-26.8 726.89,-25.97 728.68,-32.74"/>
</a>
</g>
</g>
<!-- Node8 -->
<g id="Node000008" class="node">
<title>Node8</title>
<g id="a_Node000008"><a xlink:title=" ">
<polygon fill="#e0e0e0" stroke="#999999" points="1019.12,-26 865.88,-26 865.88,-6 1019.12,-6 1019.12,-26"/>
<text xml:space="preserve" text-anchor="middle" x="942.5" y="-12.5" font-family="Helvetica,sans-Serif" font-size="10.00">KPTGameInstance.generated.h</text>
</a>
</g>
</g>
<!-- Node1&#45;&gt;Node8 -->
<g id="edge7_Node000001_Node000008" class="edge">
<title>Node1&#45;&gt;Node8</title>
<g id="a_edge7_Node000001_Node000008"><a xlink:title=" ">
<path fill="none" stroke="#63b8ff" d="M546.95,-83.88C622.39,-71.4 748.24,-50.49 856.5,-32 863.36,-30.83 870.53,-29.59 877.68,-28.36"/>
<polygon fill="#63b8ff" stroke="#63b8ff" points="878.09,-31.84 887.34,-26.68 876.89,-24.94 878.09,-31.84"/>
</a>
</g>
</g>
</g>
</svg>
