<?xml version="1.0" encoding="UTF-8" standalone="no"?>
<!DOCTYPE svg PUBLIC "-//W3C//DTD SVG 1.1//EN"
 "http://www.w3.org/Graphics/SVG/1.1/DTD/svg11.dtd">
<!-- Generated by graphviz version 13.1.1 (20250719.2154)
 -->
<!-- Title: C:/Users/user/Perforce/alz7_CobaltbruWorkspace_00/KPT/Source/KPT/Mission/OneBound/LandingIndicator.cpp Pages: 1 -->
<!--zoomable 300 -->

<svg id="main" version="1.1" xmlns="http://www.w3.org/2000/svg" xmlns:xlink="http://www.w3.org/1999/xlink" xml:space="preserve" onload="init(evt)">

<style type="text/css"><![CDATA[
.node, .edge {opacity: 0.7;}
.node.selected, .edge.selected {opacity: 1;}
.edge:hover path { stroke: red; }
.edge:hover polygon { stroke: red; fill: red; }
]]></style>

<defs>
  <circle id="rim" cx="0" cy="0" r="7"/>
  <circle id="rim2" cx="0" cy="0" r="3.5"/>
  <g id="zoomPlus">
    <use xlink:href="#rim" fill="#404040"><set attributeName="fill" to="#808080" begin="zoomplus.mouseover" end="zoomplus.mouseout"/></use>
    <path d="M-4,0h8M0,-4v8" fill="none" stroke="white" stroke-width="1.5" pointer-events="none"/>
  </g>
  <g id="zoomMin">
    <use xlink:href="#rim" fill="#404040"><set attributeName="fill" to="#808080" begin="zoomminus.mouseover" end="zoomminus.mouseout"/></use>
    <path d="M-4,0h8" fill="none" stroke="white" stroke-width="1.5" pointer-events="none"/>
  </g>
  <g id="arrowUp" transform="translate(30 24)">
    <use xlink:href="#rim"/>
    <path pointer-events="none" fill="none" stroke="white" stroke-width="1.5" d="M0,-3.0v7 M-2.5,-0.5L0,-3.0L2.5,-0.5"/>
  </g>
  <g id="arrowRight" transform="rotate(90) translate(36 -43)">
    <use xlink:href="#rim"/>
    <path pointer-events="none" fill="none" stroke="white" stroke-width="1.5" d="M0,-3.0v7 M-2.5,-0.5L0,-3.0L2.5,-0.5"/>
  </g>
  <g id="arrowDown" transform="rotate(180) translate(-30 -48)">
    <use xlink:href="#rim"/>
    <path pointer-events="none" fill="none" stroke="white" stroke-width="1.5" d="M0,-3.0v7 M-2.5,-0.5L0,-3.0L2.5,-0.5"/>
  </g>
  <g id="arrowLeft" transform="rotate(270) translate(-36 17)">
    <use xlink:href="#rim"/>
    <path pointer-events="none" fill="none" stroke="white" stroke-width="1.5" d="M0,-3.0v7 M-2.5,-0.5L0,-3.0L2.5,-0.5"/>
  </g>
  <g id="resetDef">
    <use xlink:href="#rim2" fill="#404040"><set attributeName="fill" to="#808080" begin="reset.mouseover" end="reset.mouseout"/></use>
  </g>
</defs>
<script type="application/ecmascript">
var viewWidth = 1097;
var viewHeight = 300;
var sectionId = 'dynsection-0';
</script>
<script type="application/ecmascript" xlink:href="svg.min.js"/>
<svg id="graph" class="graph">
<g id="viewport">
<title>C:/Users/user/Perforce/alz7_CobaltbruWorkspace_00/KPT/Source/KPT/Mission/OneBound/LandingIndicator.cpp</title>
<!-- Node1 -->
<g id="Node000001" class="node">
<title>Node1</title>
<g id="a_Node000001"><a xlink:title=" ">
<polygon fill="#999999" stroke="#666666" points="668.74,-292 510.99,-292 510.99,-236 668.74,-236 668.74,-292"/>
<text xml:space="preserve" text-anchor="start" x="518.99" y="-278.5" font-family="Helvetica,sans-Serif" font-size="10.00">C:/Users/user/Perforce</text>
<text xml:space="preserve" text-anchor="start" x="518.99" y="-266.5" font-family="Helvetica,sans-Serif" font-size="10.00">/alz7_CobaltbruWorkspace</text>
<text xml:space="preserve" text-anchor="start" x="518.99" y="-254.5" font-family="Helvetica,sans-Serif" font-size="10.00">_00/KPT/Source/KPT/Mission</text>
<text xml:space="preserve" text-anchor="middle" x="589.87" y="-242.5" font-family="Helvetica,sans-Serif" font-size="10.00">/OneBound/LandingIndicator.cpp</text>
</a>
</g>
</g>
<!-- Node2 -->
<g id="Node000002" class="node">
<title>Node2</title>
<g id="a_Node000002"><a xlink:href="_landing_indicator_8h.html" target="_top" xlink:title=" ">
<polygon fill="white" stroke="#666666" points="215.49,-144 80.24,-144 80.24,-112 215.49,-112 215.49,-144"/>
<text xml:space="preserve" text-anchor="start" x="88.24" y="-130.5" font-family="Helvetica,sans-Serif" font-size="10.00">Mission/OneBound/Landing</text>
<text xml:space="preserve" text-anchor="middle" x="147.87" y="-118.5" font-family="Helvetica,sans-Serif" font-size="10.00">Indicator.h</text>
</a>
</g>
</g>
<!-- Node1&#45;&gt;Node2 -->
<g id="edge1_Node000001_Node000002" class="edge">
<title>Node1&#45;&gt;Node2</title>
<g id="a_edge1_Node000001_Node000002"><a xlink:title=" ">
<path fill="none" stroke="#63b8ff" d="M510.59,-238.97C424.34,-212.82 288.29,-171.57 209.62,-147.72"/>
<polygon fill="#63b8ff" stroke="#63b8ff" points="210.95,-144.47 200.37,-144.92 208.92,-151.17 210.95,-144.47"/>
</a>
</g>
</g>
<!-- Node6 -->
<g id="Node000006" class="node">
<title>Node6</title>
<g id="a_Node000006"><a xlink:href="_bouncing_ball_8h.html" target="_top" xlink:title=" ">
<polygon fill="white" stroke="#666666" points="418.49,-138 337.24,-138 337.24,-118 418.49,-118 418.49,-138"/>
<text xml:space="preserve" text-anchor="middle" x="377.87" y="-124.5" font-family="Helvetica,sans-Serif" font-size="10.00">BouncingBall.h</text>
</a>
</g>
</g>
<!-- Node1&#45;&gt;Node6 -->
<g id="edge5_Node000001_Node000006" class="edge">
<title>Node1&#45;&gt;Node6</title>
<g id="a_edge5_Node000001_Node000006"><a xlink:title=" ">
<path fill="none" stroke="#63b8ff" d="M516.97,-235.63C494.88,-225.86 471.11,-213.81 450.87,-200 428.61,-184.82 406.99,-162.56 393.13,-147.02"/>
<polygon fill="#63b8ff" stroke="#63b8ff" points="395.77,-144.72 386.56,-139.48 390.49,-149.32 395.77,-144.72"/>
</a>
</g>
</g>
<!-- Node8 -->
<g id="Node000008" class="node">
<title>Node8</title>
<g id="a_Node000008"><a xlink:href="_mission___one_bound_8h.html" target="_top" xlink:title=" ">
<polygon fill="white" stroke="#666666" points="568.37,-200 459.37,-200 459.37,-180 568.37,-180 568.37,-200"/>
<text xml:space="preserve" text-anchor="middle" x="513.87" y="-186.5" font-family="Helvetica,sans-Serif" font-size="10.00">Mission_OneBound.h</text>
</a>
</g>
</g>
<!-- Node1&#45;&gt;Node8 -->
<g id="edge9_Node000001_Node000008" class="edge">
<title>Node1&#45;&gt;Node8</title>
<g id="a_edge9_Node000001_Node000008"><a xlink:title=" ">
<path fill="none" stroke="#63b8ff" d="M561.13,-235.78C551.4,-226.56 540.8,-216.52 532.11,-208.29"/>
<polygon fill="#63b8ff" stroke="#63b8ff" points="534.63,-205.85 524.96,-201.51 529.82,-210.93 534.63,-205.85"/>
</a>
</g>
</g>
<!-- Node15 -->
<g id="Node000015" class="node">
<title>Node15</title>
<g id="a_Node000015"><a xlink:title=" ">
<polygon fill="#e0e0e0" stroke="#999999" points="745.12,-200 586.62,-200 586.62,-180 745.12,-180 745.12,-200"/>
<text xml:space="preserve" text-anchor="middle" x="665.87" y="-186.5" font-family="Helvetica,sans-Serif" font-size="10.00">Components/DecalComponent.h</text>
</a>
</g>
</g>
<!-- Node1&#45;&gt;Node15 -->
<g id="edge20_Node000001_Node000015" class="edge">
<title>Node1&#45;&gt;Node15</title>
<g id="a_edge20_Node000001_Node000015"><a xlink:title=" ">
<path fill="none" stroke="#63b8ff" d="M618.6,-235.78C628.33,-226.56 638.93,-216.52 647.62,-208.29"/>
<polygon fill="#63b8ff" stroke="#63b8ff" points="649.92,-210.93 654.77,-201.51 645.1,-205.85 649.92,-210.93"/>
</a>
</g>
</g>
<!-- Node16 -->
<g id="Node000016" class="node">
<title>Node16</title>
<g id="a_Node000016"><a xlink:title=" ">
<polygon fill="#e0e0e0" stroke="#999999" points="926.74,-200 762.99,-200 762.99,-180 926.74,-180 926.74,-200"/>
<text xml:space="preserve" text-anchor="middle" x="844.87" y="-186.5" font-family="Helvetica,sans-Serif" font-size="10.00">Components/SphereComponent.h</text>
</a>
</g>
</g>
<!-- Node1&#45;&gt;Node16 -->
<g id="edge21_Node000001_Node000016" class="edge">
<title>Node1&#45;&gt;Node16</title>
<g id="a_edge21_Node000001_Node000016"><a xlink:title=" ">
<path fill="none" stroke="#63b8ff" d="M669.15,-240.61C712.48,-228.38 764.52,-213.69 800.67,-203.48"/>
<polygon fill="#63b8ff" stroke="#63b8ff" points="801.22,-206.96 809.89,-200.88 799.32,-200.22 801.22,-206.96"/>
</a>
</g>
</g>
<!-- Node17 -->
<g id="Node000017" class="node">
<title>Node17</title>
<g id="a_Node000017"><a xlink:title=" ">
<polygon fill="#e0e0e0" stroke="#999999" points="1089.37,-200 944.37,-200 944.37,-180 1089.37,-180 1089.37,-200"/>
<text xml:space="preserve" text-anchor="middle" x="1016.87" y="-186.5" font-family="Helvetica,sans-Serif" font-size="10.00">GameFramework/Character.h</text>
</a>
</g>
</g>
<!-- Node1&#45;&gt;Node17 -->
<g id="edge22_Node000001_Node000017" class="edge">
<title>Node1&#45;&gt;Node17</title>
<g id="a_edge22_Node000001_Node000017"><a xlink:title=" ">
<path fill="none" stroke="#63b8ff" d="M669.18,-249.63C749.82,-236.03 873.4,-215.19 949.46,-202.37"/>
<polygon fill="#63b8ff" stroke="#63b8ff" points="950.01,-205.82 959.29,-200.71 948.85,-198.92 950.01,-205.82"/>
</a>
</g>
</g>
<!-- Node3 -->
<g id="Node000003" class="node">
<title>Node3</title>
<g id="a_Node000003"><a xlink:title=" ">
<polygon fill="#e0e0e0" stroke="#999999" points="553.37,-20 474.37,-20 474.37,0 553.37,0 553.37,-20"/>
<text xml:space="preserve" text-anchor="middle" x="513.87" y="-6.5" font-family="Helvetica,sans-Serif" font-size="10.00">CoreMinimal.h</text>
</a>
</g>
</g>
<!-- Node2&#45;&gt;Node3 -->
<g id="edge2_Node000002_Node000003" class="edge">
<title>Node2&#45;&gt;Node3</title>
<g id="a_edge2_Node000002_Node000003"><a xlink:title=" ">
<path fill="none" stroke="#63b8ff" d="M80.09,-115.75C32.03,-104.97 -19.45,-85.86 7.87,-56 38.18,-22.87 340.57,-13.97 462.9,-11.72"/>
<polygon fill="#63b8ff" stroke="#63b8ff" points="462.71,-15.22 472.65,-11.55 462.59,-8.22 462.71,-15.22"/>
</a>
</g>
</g>
<!-- Node4 -->
<g id="Node000004" class="node">
<title>Node4</title>
<g id="a_Node000004"><a xlink:title=" ">
<polygon fill="#e0e0e0" stroke="#999999" points="485.62,-76 360.12,-76 360.12,-56 485.62,-56 485.62,-76"/>
<text xml:space="preserve" text-anchor="middle" x="422.87" y="-62.5" font-family="Helvetica,sans-Serif" font-size="10.00">GameFramework/Actor.h</text>
</a>
</g>
</g>
<!-- Node2&#45;&gt;Node4 -->
<g id="edge3_Node000002_Node000004" class="edge">
<title>Node2&#45;&gt;Node4</title>
<g id="a_edge3_Node000002_Node000004"><a xlink:title=" ">
<path fill="none" stroke="#63b8ff" d="M215.84,-112.17C262.96,-101.89 324.85,-88.39 368.65,-78.83"/>
<polygon fill="#63b8ff" stroke="#63b8ff" points="369.15,-82.3 378.18,-76.75 367.66,-75.46 369.15,-82.3"/>
</a>
</g>
</g>
<!-- Node5 -->
<g id="Node000005" class="node">
<title>Node5</title>
<g id="a_Node000005"><a xlink:title=" ">
<polygon fill="#e0e0e0" stroke="#999999" points="158.49,-76 17.24,-76 17.24,-56 158.49,-56 158.49,-76"/>
<text xml:space="preserve" text-anchor="middle" x="87.87" y="-62.5" font-family="Helvetica,sans-Serif" font-size="10.00">LandingIndicator.generated.h</text>
</a>
</g>
</g>
<!-- Node2&#45;&gt;Node5 -->
<g id="edge4_Node000002_Node000005" class="edge">
<title>Node2&#45;&gt;Node5</title>
<g id="a_edge4_Node000002_Node000005"><a xlink:title=" ">
<path fill="none" stroke="#63b8ff" d="M132.42,-111.55C124.08,-103.22 113.77,-92.91 105.17,-84.3"/>
<polygon fill="#63b8ff" stroke="#63b8ff" points="107.89,-82.07 98.35,-77.48 102.94,-87.02 107.89,-82.07"/>
</a>
</g>
</g>
<!-- Node6&#45;&gt;Node3 -->
<g id="edge6_Node000006_Node000003" class="edge">
<title>Node6&#45;&gt;Node3</title>
<g id="a_edge6_Node000006_Node000003"><a xlink:title=" ">
<path fill="none" stroke="#63b8ff" d="M369.17,-117.89C356.55,-103.54 336.17,-75.31 350.87,-56 364.51,-38.08 420.35,-25.48 462.91,-18.25"/>
<polygon fill="#63b8ff" stroke="#63b8ff" points="463.44,-21.71 472.74,-16.65 462.31,-14.8 463.44,-21.71"/>
</a>
</g>
</g>
<!-- Node6&#45;&gt;Node4 -->
<g id="edge7_Node000006_Node000004" class="edge">
<title>Node6&#45;&gt;Node4</title>
<g id="a_edge7_Node000006_Node000004"><a xlink:title=" ">
<path fill="none" stroke="#63b8ff" d="M384.9,-117.62C391.41,-108.94 401.27,-95.8 409.31,-85.08"/>
<polygon fill="#63b8ff" stroke="#63b8ff" points="411.92,-87.42 415.12,-77.32 406.32,-83.22 411.92,-87.42"/>
</a>
</g>
</g>
<!-- Node7 -->
<g id="Node000007" class="node">
<title>Node7</title>
<g id="a_Node000007"><a xlink:title=" ">
<polygon fill="#e0e0e0" stroke="#999999" points="303.37,-76 176.37,-76 176.37,-56 303.37,-56 303.37,-76"/>
<text xml:space="preserve" text-anchor="middle" x="239.87" y="-62.5" font-family="Helvetica,sans-Serif" font-size="10.00">BouncingBall.generated.h</text>
</a>
</g>
</g>
<!-- Node6&#45;&gt;Node7 -->
<g id="edge8_Node000006_Node000007" class="edge">
<title>Node6&#45;&gt;Node7</title>
<g id="a_edge8_Node000006_Node000007"><a xlink:title=" ">
<path fill="none" stroke="#63b8ff" d="M356.3,-117.62C333.62,-107.76 297.68,-92.13 271.72,-80.85"/>
<polygon fill="#63b8ff" stroke="#63b8ff" points="273.23,-77.69 262.67,-76.91 270.44,-84.11 273.23,-77.69"/>
</a>
</g>
</g>
<!-- Node8&#45;&gt;Node3 -->
<g id="edge10_Node000008_Node000003" class="edge">
<title>Node8&#45;&gt;Node3</title>
<g id="a_edge10_Node000008_Node000003"><a xlink:title=" ">
<path fill="none" stroke="#63b8ff" d="M513.87,-179.93C513.87,-152.56 513.87,-70.31 513.87,-31.59"/>
<polygon fill="#63b8ff" stroke="#63b8ff" points="517.37,-31.78 513.87,-21.78 510.37,-31.78 517.37,-31.78"/>
</a>
</g>
</g>
<!-- Node9 -->
<g id="Node000009" class="node">
<title>Node9</title>
<g id="a_Node000009"><a xlink:href="_mission_actor_base_8h.html" target="_top" xlink:title=" ">
<polygon fill="white" stroke="#666666" points="682.12,-138 541.62,-138 541.62,-118 682.12,-118 682.12,-138"/>
<text xml:space="preserve" text-anchor="middle" x="611.87" y="-124.5" font-family="Helvetica,sans-Serif" font-size="10.00">Mission/MissionActorBase.h</text>
</a>
</g>
</g>
<!-- Node8&#45;&gt;Node9 -->
<g id="edge11_Node000008_Node000009" class="edge">
<title>Node8&#45;&gt;Node9</title>
<g id="a_edge11_Node000008_Node000009"><a xlink:title=" ">
<path fill="none" stroke="#63b8ff" d="M529.18,-179.62C544.64,-170.16 568.78,-155.38 586.99,-144.23"/>
<polygon fill="#63b8ff" stroke="#63b8ff" points="588.67,-147.31 595.37,-139.1 585.01,-141.34 588.67,-147.31"/>
</a>
</g>
</g>
<!-- Node14 -->
<g id="Node000014" class="node">
<title>Node14</title>
<g id="a_Node000014"><a xlink:title=" ">
<polygon fill="#e0e0e0" stroke="#999999" points="855.24,-138 700.49,-138 700.49,-118 855.24,-118 855.24,-138"/>
<text xml:space="preserve" text-anchor="middle" x="777.87" y="-124.5" font-family="Helvetica,sans-Serif" font-size="10.00">Mission_OneBound.generated.h</text>
</a>
</g>
</g>
<!-- Node8&#45;&gt;Node14 -->
<g id="edge19_Node000008_Node000014" class="edge">
<title>Node8&#45;&gt;Node14</title>
<g id="a_edge19_Node000008_Node000014"><a xlink:title=" ">
<path fill="none" stroke="#63b8ff" d="M555.41,-179.56C601.21,-169.15 675.01,-152.38 724.93,-141.03"/>
<polygon fill="#63b8ff" stroke="#63b8ff" points="725.68,-144.45 734.66,-138.82 724.13,-137.62 725.68,-144.45"/>
</a>
</g>
</g>
<!-- Node9&#45;&gt;Node3 -->
<g id="edge12_Node000009_Node000003" class="edge">
<title>Node9&#45;&gt;Node3</title>
<g id="a_edge12_Node000009_Node000003"><a xlink:title=" ">
<path fill="none" stroke="#63b8ff" d="M603.85,-117.51C587.47,-98.12 549.96,-53.72 528.91,-28.8"/>
<polygon fill="#63b8ff" stroke="#63b8ff" points="531.83,-26.84 522.7,-21.46 526.48,-31.35 531.83,-26.84"/>
</a>
</g>
</g>
<!-- Node9&#45;&gt;Node4 -->
<g id="edge13_Node000009_Node000004" class="edge">
<title>Node9&#45;&gt;Node4</title>
<g id="a_edge13_Node000009_Node000004"><a xlink:title=" ">
<path fill="none" stroke="#63b8ff" d="M582.34,-117.62C550.25,-107.44 498.8,-91.11 463.05,-79.76"/>
<polygon fill="#63b8ff" stroke="#63b8ff" points="464.53,-76.56 453.94,-76.87 462.42,-83.23 464.53,-76.56"/>
</a>
</g>
</g>
<!-- Node10 -->
<g id="Node000010" class="node">
<title>Node10</title>
<g id="a_Node000010"><a xlink:href="_mission_interface_8h.html" target="_top" xlink:title=" ">
<polygon fill="white" stroke="#666666" points="843.99,-76 747.74,-76 747.74,-56 843.99,-56 843.99,-76"/>
<text xml:space="preserve" text-anchor="middle" x="795.87" y="-62.5" font-family="Helvetica,sans-Serif" font-size="10.00">MissionInterface.h</text>
</a>
</g>
</g>
<!-- Node9&#45;&gt;Node10 -->
<g id="edge14_Node000009_Node000010" class="edge">
<title>Node9&#45;&gt;Node10</title>
<g id="a_edge14_Node000009_Node000010"><a xlink:title=" ">
<path fill="none" stroke="#63b8ff" d="M640.62,-117.62C671.72,-107.48 721.51,-91.25 756.29,-79.9"/>
<polygon fill="#63b8ff" stroke="#63b8ff" points="757.15,-83.31 765.58,-76.88 754.98,-76.65 757.15,-83.31"/>
</a>
</g>
</g>
<!-- Node13 -->
<g id="Node000013" class="node">
<title>Node13</title>
<g id="a_Node000013"><a xlink:title=" ">
<polygon fill="#e0e0e0" stroke="#999999" points="729.62,-76 580.12,-76 580.12,-56 729.62,-56 729.62,-76"/>
<text xml:space="preserve" text-anchor="middle" x="654.87" y="-62.5" font-family="Helvetica,sans-Serif" font-size="10.00">MissionActorBase.generated.h</text>
</a>
</g>
</g>
<!-- Node9&#45;&gt;Node13 -->
<g id="edge18_Node000009_Node000013" class="edge">
<title>Node9&#45;&gt;Node13</title>
<g id="a_edge18_Node000009_Node000013"><a xlink:title=" ">
<path fill="none" stroke="#63b8ff" d="M618.59,-117.62C624.74,-109.03 634.04,-96.07 641.67,-85.41"/>
<polygon fill="#63b8ff" stroke="#63b8ff" points="644.47,-87.51 647.45,-77.34 638.78,-83.43 644.47,-87.51"/>
</a>
</g>
</g>
<!-- Node10&#45;&gt;Node3 -->
<g id="edge15_Node000010_Node000003" class="edge">
<title>Node10&#45;&gt;Node3</title>
<g id="a_edge15_Node000010_Node000003"><a xlink:title=" ">
<path fill="none" stroke="#63b8ff" d="M747.39,-55.72C696.44,-45.96 616.64,-30.68 564.79,-20.75"/>
<polygon fill="#63b8ff" stroke="#63b8ff" points="565.49,-17.32 555.01,-18.88 564.18,-24.2 565.49,-17.32"/>
</a>
</g>
</g>
<!-- Node11 -->
<g id="Node000011" class="node">
<title>Node11</title>
<g id="a_Node000011"><a xlink:title=" ">
<polygon fill="#e0e0e0" stroke="#999999" points="916.62,-20 815.12,-20 815.12,0 916.62,0 916.62,-20"/>
<text xml:space="preserve" text-anchor="middle" x="865.87" y="-6.5" font-family="Helvetica,sans-Serif" font-size="10.00">UObject/Interface.h</text>
</a>
</g>
</g>
<!-- Node10&#45;&gt;Node11 -->
<g id="edge16_Node000010_Node000011" class="edge">
<title>Node10&#45;&gt;Node11</title>
<g id="a_edge16_Node000010_Node000011"><a xlink:title=" ">
<path fill="none" stroke="#63b8ff" d="M808.06,-55.59C818.2,-47.77 832.86,-36.46 844.88,-27.19"/>
<polygon fill="#63b8ff" stroke="#63b8ff" points="846.84,-30.1 852.62,-21.22 842.56,-24.56 846.84,-30.1"/>
</a>
</g>
</g>
<!-- Node12 -->
<g id="Node000012" class="node">
<title>Node12</title>
<g id="a_Node000012"><a xlink:title=" ">
<polygon fill="#e0e0e0" stroke="#999999" points="796.87,-20 654.87,-20 654.87,0 796.87,0 796.87,-20"/>
<text xml:space="preserve" text-anchor="middle" x="725.87" y="-6.5" font-family="Helvetica,sans-Serif" font-size="10.00">MissionInterface.generated.h</text>
</a>
</g>
</g>
<!-- Node10&#45;&gt;Node12 -->
<g id="edge17_Node000010_Node000012" class="edge">
<title>Node10&#45;&gt;Node12</title>
<g id="a_edge17_Node000010_Node000012"><a xlink:title=" ">
<path fill="none" stroke="#63b8ff" d="M783.67,-55.59C773.54,-47.77 758.88,-36.46 746.86,-27.19"/>
<polygon fill="#63b8ff" stroke="#63b8ff" points="749.17,-24.56 739.12,-21.22 744.9,-30.1 749.17,-24.56"/>
</a>
</g>
</g>
</g>
</svg>

<g id="navigator" transform="translate(0 0)" fill="#404254">
  <rect fill="#f2f5e9" fill-opacity="0.5" stroke="#606060" stroke-width=".5" x="0" y="0" width="60" height="60"/>
  <use id="zoomplus" xlink:href="#zoomPlus" x="17" y="9" onmousedown="handleZoom(evt,'in')"/>
  <use id="zoomminus" xlink:href="#zoomMin" x="42" y="9" onmousedown="handleZoom(evt,'out')"/>
  <use id="reset" xlink:href="#resetDef" x="30" y="36" onmousedown="handleReset()"/>
   <use id="arrowup" xlink:href="#arrowUp" x="0" y="0" onmousedown="handlePan(0,-1)"/>
  <use id="arrowright" xlink:href="#arrowRight" x="0" y="0" onmousedown="handlePan(1,0)"/>
  <use id="arrowdown" xlink:href="#arrowDown" x="0" y="0" onmousedown="handlePan(0,1)"/>
  <use id="arrowleft" xlink:href="#arrowLeft" x="0" y="0" onmousedown="handlePan(-1,0)"/>
</g>
<svg viewBox="0 0 15 15" width="100%" height="30px" preserveAspectRatio="xMaxYMin meet">
 <g id="arrow_out" transform="scale(0.3 0.3)">
  <a xlink:href="_landing_indicator_8cpp__incl_org.svg" target="_base">
   <rect id="button" ry="5" rx="5" y="6" x="6" height="38" width="38"
        fill="#f2f5e9" fill-opacity="0.5" stroke="#606060" stroke-width="1.0"/>
   <path id="arrow"
     d="M 11.500037,31.436501 C 11.940474,20.09759 22.043105,11.32322 32.158766,21.979434 L 37.068811,17.246167 C 37.068811,17.246167 37.088388,32 37.088388,32 L 22.160133,31.978069 C 22.160133,31.978069 26.997745,27.140456 26.997745,27.140456 C 18.528582,18.264221 13.291696,25.230495 11.500037,31.436501 z"
     style="fill:#404040;"/>
  </a>
 </g>
</svg>

<style type='text/css'>
<![CDATA[
[data-mouse-over-selected='false'] { opacity: 0.7; }
[data-mouse-over-selected='true']  { opacity: 1.0; }
]]>
</style>
<script type="application/ecmascript"><![CDATA[
document.addEventListener('DOMContentLoaded', (event) => {
  highlightEdges();
  highlightAdjacentNodes();
});
]]></script>
</svg>
