<?xml version="1.0" encoding="UTF-8" standalone="no"?>
<!DOCTYPE svg PUBLIC "-//W3C//DTD SVG 1.1//EN"
 "http://www.w3.org/Graphics/SVG/1.1/DTD/svg11.dtd">
<!-- Generated by graphviz version 13.1.1 (20250719.2154)
 -->
<!-- Title: C:/Users/user/Perforce/alz7_CobaltbruWorkspace_00/KPT/Source/KPT/Skill/Ability/LazerAttack/LaserBeam.cpp Pages: 1 -->
<!--zoomable 188 -->

<svg id="main" version="1.1" xmlns="http://www.w3.org/2000/svg" xmlns:xlink="http://www.w3.org/1999/xlink" xml:space="preserve" onload="init(evt)">

<style type="text/css"><![CDATA[
.node, .edge {opacity: 0.7;}
.node.selected, .edge.selected {opacity: 1;}
.edge:hover path { stroke: red; }
.edge:hover polygon { stroke: red; fill: red; }
]]></style>

<defs>
  <circle id="rim" cx="0" cy="0" r="7"/>
  <circle id="rim2" cx="0" cy="0" r="3.5"/>
  <g id="zoomPlus">
    <use xlink:href="#rim" fill="#404040"><set attributeName="fill" to="#808080" begin="zoomplus.mouseover" end="zoomplus.mouseout"/></use>
    <path d="M-4,0h8M0,-4v8" fill="none" stroke="white" stroke-width="1.5" pointer-events="none"/>
  </g>
  <g id="zoomMin">
    <use xlink:href="#rim" fill="#404040"><set attributeName="fill" to="#808080" begin="zoomminus.mouseover" end="zoomminus.mouseout"/></use>
    <path d="M-4,0h8" fill="none" stroke="white" stroke-width="1.5" pointer-events="none"/>
  </g>
  <g id="arrowUp" transform="translate(30 24)">
    <use xlink:href="#rim"/>
    <path pointer-events="none" fill="none" stroke="white" stroke-width="1.5" d="M0,-3.0v7 M-2.5,-0.5L0,-3.0L2.5,-0.5"/>
  </g>
  <g id="arrowRight" transform="rotate(90) translate(36 -43)">
    <use xlink:href="#rim"/>
    <path pointer-events="none" fill="none" stroke="white" stroke-width="1.5" d="M0,-3.0v7 M-2.5,-0.5L0,-3.0L2.5,-0.5"/>
  </g>
  <g id="arrowDown" transform="rotate(180) translate(-30 -48)">
    <use xlink:href="#rim"/>
    <path pointer-events="none" fill="none" stroke="white" stroke-width="1.5" d="M0,-3.0v7 M-2.5,-0.5L0,-3.0L2.5,-0.5"/>
  </g>
  <g id="arrowLeft" transform="rotate(270) translate(-36 17)">
    <use xlink:href="#rim"/>
    <path pointer-events="none" fill="none" stroke="white" stroke-width="1.5" d="M0,-3.0v7 M-2.5,-0.5L0,-3.0L2.5,-0.5"/>
  </g>
  <g id="resetDef">
    <use xlink:href="#rim2" fill="#404040"><set attributeName="fill" to="#808080" begin="reset.mouseover" end="reset.mouseout"/></use>
  </g>
</defs>
<script type="application/ecmascript">
var viewWidth = 1767;
var viewHeight = 188;
var sectionId = 'dynsection-0';
</script>
<script type="application/ecmascript" xlink:href="svg.min.js"/>
<svg id="graph" class="graph">
<g id="viewport">
<title>C:/Users/user/Perforce/alz7_CobaltbruWorkspace_00/KPT/Source/KPT/Skill/Ability/LazerAttack/LaserBeam.cpp</title>
<!-- Node1 -->
<g id="Node000001" class="node">
<title>Node1</title>
<g id="a_Node000001"><a xlink:title=" ">
<polygon fill="#999999" stroke="#666666" points="1121.88,-180 949.12,-180 949.12,-124 1121.88,-124 1121.88,-180"/>
<text xml:space="preserve" text-anchor="start" x="957.12" y="-166.5" font-family="Helvetica,sans-Serif" font-size="10.00">C:/Users/user/Perforce</text>
<text xml:space="preserve" text-anchor="start" x="957.12" y="-154.5" font-family="Helvetica,sans-Serif" font-size="10.00">/alz7_CobaltbruWorkspace</text>
<text xml:space="preserve" text-anchor="start" x="957.12" y="-142.5" font-family="Helvetica,sans-Serif" font-size="10.00">_00/KPT/Source/KPT/Skill</text>
<text xml:space="preserve" text-anchor="middle" x="1035.5" y="-130.5" font-family="Helvetica,sans-Serif" font-size="10.00">/Ability/LazerAttack/LaserBeam.cpp</text>
</a>
</g>
</g>
<!-- Node2 -->
<g id="Node000002" class="node">
<title>Node2</title>
<g id="a_Node000002"><a xlink:href="_laser_beam_8h.html" target="_top" xlink:title=" ">
<polygon fill="white" stroke="#666666" points="291.62,-88 171.38,-88 171.38,-56 291.62,-56 291.62,-88"/>
<text xml:space="preserve" text-anchor="start" x="179.38" y="-74.5" font-family="Helvetica,sans-Serif" font-size="10.00">Skill/Ability/LazerAttack</text>
<text xml:space="preserve" text-anchor="middle" x="231.5" y="-62.5" font-family="Helvetica,sans-Serif" font-size="10.00">/LaserBeam.h</text>
</a>
</g>
</g>
<!-- Node1&#45;&gt;Node2 -->
<g id="edge1_Node000001_Node000002" class="edge">
<title>Node1&#45;&gt;Node2</title>
<g id="a_edge1_Node000001_Node000002"><a xlink:title=" ">
<path fill="none" stroke="#63b8ff" d="M948.8,-147.18C813.05,-140.41 541.99,-123.67 303.34,-88.31"/>
<polygon fill="#63b8ff" stroke="#63b8ff" points="303.91,-84.86 293.5,-86.84 302.87,-91.78 303.91,-84.86"/>
</a>
</g>
</g>
<!-- Node7 -->
<g id="Node000007" class="node">
<title>Node7</title>
<g id="a_Node000007"><a xlink:title=" ">
<polygon fill="#e0e0e0" stroke="#999999" points="461.38,-82 309.62,-82 309.62,-62 461.38,-62 461.38,-82"/>
<text xml:space="preserve" text-anchor="middle" x="385.5" y="-68.5" font-family="Helvetica,sans-Serif" font-size="10.00">AbilitySystemBlueprintLibrary.h</text>
</a>
</g>
</g>
<!-- Node1&#45;&gt;Node7 -->
<g id="edge6_Node000001_Node000007" class="edge">
<title>Node1&#45;&gt;Node7</title>
<g id="a_edge6_Node000001_Node000007"><a xlink:title=" ">
<path fill="none" stroke="#63b8ff" d="M948.65,-143.05C837.54,-132.48 639.26,-112.27 470.5,-88 463.03,-86.92 455.2,-85.69 447.45,-84.4"/>
<polygon fill="#63b8ff" stroke="#63b8ff" points="448.14,-80.97 437.7,-82.75 446.97,-87.87 448.14,-80.97"/>
</a>
</g>
</g>
<!-- Node8 -->
<g id="Node000008" class="node">
<title>Node8</title>
<g id="a_Node000008"><a xlink:title=" ">
<polygon fill="#e0e0e0" stroke="#999999" points="629.62,-82 479.38,-82 479.38,-62 629.62,-62 629.62,-82"/>
<text xml:space="preserve" text-anchor="middle" x="554.5" y="-68.5" font-family="Helvetica,sans-Serif" font-size="10.00">Components/BoxComponent.h</text>
</a>
</g>
</g>
<!-- Node1&#45;&gt;Node8 -->
<g id="edge7_Node000001_Node000008" class="edge">
<title>Node1&#45;&gt;Node8</title>
<g id="a_edge7_Node000001_Node000008"><a xlink:title=" ">
<path fill="none" stroke="#63b8ff" d="M948.68,-137.72C868.2,-125.29 745.16,-105.98 638.5,-88 631.77,-86.87 624.75,-85.65 617.76,-84.43"/>
<polygon fill="#63b8ff" stroke="#63b8ff" points="618.4,-80.99 607.94,-82.7 617.18,-87.88 618.4,-80.99"/>
</a>
</g>
</g>
<!-- Node9 -->
<g id="Node000009" class="node">
<title>Node9</title>
<g id="a_Node000009"><a xlink:title=" ">
<polygon fill="#e0e0e0" stroke="#999999" points="829.75,-82 647.25,-82 647.25,-62 829.75,-62 829.75,-82"/>
<text xml:space="preserve" text-anchor="middle" x="738.5" y="-68.5" font-family="Helvetica,sans-Serif" font-size="10.00">Components/StaticMeshComponent.h</text>
</a>
</g>
</g>
<!-- Node1&#45;&gt;Node9 -->
<g id="edge8_Node000001_Node000009" class="edge">
<title>Node1&#45;&gt;Node9</title>
<g id="a_edge8_Node000001_Node000009"><a xlink:title=" ">
<path fill="none" stroke="#63b8ff" d="M948.8,-128.23C895.4,-114.21 829.03,-96.78 785.3,-85.29"/>
<polygon fill="#63b8ff" stroke="#63b8ff" points="786.45,-81.97 775.89,-82.82 784.67,-88.74 786.45,-81.97"/>
</a>
</g>
</g>
<!-- Node10 -->
<g id="Node000010" class="node">
<title>Node10</title>
<g id="a_Node000010"><a xlink:title=" ">
<polygon fill="#e0e0e0" stroke="#999999" points="955.62,-82 847.38,-82 847.38,-62 955.62,-62 955.62,-82"/>
<text xml:space="preserve" text-anchor="middle" x="901.5" y="-68.5" font-family="Helvetica,sans-Serif" font-size="10.00">NiagaraComponent.h</text>
</a>
</g>
</g>
<!-- Node1&#45;&gt;Node10 -->
<g id="edge9_Node000001_Node000010" class="edge">
<title>Node1&#45;&gt;Node10</title>
<g id="a_edge9_Node000001_Node000010"><a xlink:title=" ">
<path fill="none" stroke="#63b8ff" d="M988.26,-123.5C967.91,-111.66 944.9,-98.26 927.69,-88.25"/>
<polygon fill="#63b8ff" stroke="#63b8ff" points="929.52,-85.26 919.11,-83.25 925.99,-91.31 929.52,-85.26"/>
</a>
</g>
</g>
<!-- Node11 -->
<g id="Node000011" class="node">
<title>Node11</title>
<g id="a_Node000011"><a xlink:title=" ">
<polygon fill="#e0e0e0" stroke="#999999" points="1097.5,-82 973.5,-82 973.5,-62 1097.5,-62 1097.5,-82"/>
<text xml:space="preserve" text-anchor="middle" x="1035.5" y="-68.5" font-family="Helvetica,sans-Serif" font-size="10.00">NiagaraFunctionLibrary.h</text>
</a>
</g>
</g>
<!-- Node1&#45;&gt;Node11 -->
<g id="edge10_Node000001_Node000011" class="edge">
<title>Node1&#45;&gt;Node11</title>
<g id="a_edge10_Node000001_Node000011"><a xlink:title=" ">
<path fill="none" stroke="#63b8ff" d="M1035.5,-123.72C1035.5,-113.81 1035.5,-102.79 1035.5,-93.56"/>
<polygon fill="#63b8ff" stroke="#63b8ff" points="1039,-93.87 1035.5,-83.87 1032,-93.87 1039,-93.87"/>
</a>
</g>
</g>
<!-- Node12 -->
<g id="Node000012" class="node">
<title>Node12</title>
<g id="a_Node000012"><a xlink:title=" ">
<polygon fill="#e0e0e0" stroke="#999999" points="1251.12,-82 1115.88,-82 1115.88,-62 1251.12,-62 1251.12,-82"/>
<text xml:space="preserve" text-anchor="middle" x="1183.5" y="-68.5" font-family="Helvetica,sans-Serif" font-size="10.00">AbilitySystemComponent.h</text>
</a>
</g>
</g>
<!-- Node1&#45;&gt;Node12 -->
<g id="edge11_Node000001_Node000012" class="edge">
<title>Node1&#45;&gt;Node12</title>
<g id="a_edge11_Node000001_Node000012"><a xlink:title=" ">
<path fill="none" stroke="#63b8ff" d="M1087.68,-123.5C1110.46,-111.49 1136.28,-97.89 1155.37,-87.82"/>
<polygon fill="#63b8ff" stroke="#63b8ff" points="1156.94,-90.96 1164.15,-83.2 1153.67,-84.76 1156.94,-90.96"/>
</a>
</g>
</g>
<!-- Node13 -->
<g id="Node000013" class="node">
<title>Node13</title>
<g id="a_Node000013"><a xlink:title=" ">
<polygon fill="#e0e0e0" stroke="#999999" points="1392.12,-82 1268.88,-82 1268.88,-62 1392.12,-62 1392.12,-82"/>
<text xml:space="preserve" text-anchor="middle" x="1330.5" y="-68.5" font-family="Helvetica,sans-Serif" font-size="10.00">AbilitySystemInterface.h</text>
</a>
</g>
</g>
<!-- Node1&#45;&gt;Node13 -->
<g id="edge12_Node000001_Node000013" class="edge">
<title>Node1&#45;&gt;Node13</title>
<g id="a_edge12_Node000001_Node000013"><a xlink:title=" ">
<path fill="none" stroke="#63b8ff" d="M1122.02,-128.12C1174.92,-114.14 1240.53,-96.79 1283.86,-85.33"/>
<polygon fill="#63b8ff" stroke="#63b8ff" points="1284.68,-88.74 1293.45,-82.8 1282.89,-81.97 1284.68,-88.74"/>
</a>
</g>
</g>
<!-- Node14 -->
<g id="Node000014" class="node">
<title>Node14</title>
<g id="a_Node000014"><a xlink:title=" ">
<polygon fill="#e0e0e0" stroke="#999999" points="1504.5,-82 1410.5,-82 1410.5,-62 1504.5,-62 1504.5,-82"/>
<text xml:space="preserve" text-anchor="middle" x="1457.5" y="-68.5" font-family="Helvetica,sans-Serif" font-size="10.00">GameplayEffect.h</text>
</a>
</g>
</g>
<!-- Node1&#45;&gt;Node14 -->
<g id="edge13_Node000001_Node000014" class="edge">
<title>Node1&#45;&gt;Node14</title>
<g id="a_edge13_Node000001_Node000014"><a xlink:title=" ">
<path fill="none" stroke="#63b8ff" d="M1122.08,-138.38C1196.52,-126.98 1306.56,-108.84 1401.5,-88 1405.3,-87.17 1409.23,-86.24 1413.17,-85.27"/>
<polygon fill="#63b8ff" stroke="#63b8ff" points="1413.87,-88.7 1422.69,-82.84 1412.14,-81.92 1413.87,-88.7"/>
</a>
</g>
</g>
<!-- Node15 -->
<g id="Node000015" class="node">
<title>Node15</title>
<g id="a_Node000015"><a xlink:title=" ">
<polygon fill="#e0e0e0" stroke="#999999" points="1632.38,-82 1522.62,-82 1522.62,-62 1632.38,-62 1632.38,-82"/>
<text xml:space="preserve" text-anchor="middle" x="1577.5" y="-68.5" font-family="Helvetica,sans-Serif" font-size="10.00">DrawDebugHelpers.h</text>
</a>
</g>
</g>
<!-- Node1&#45;&gt;Node15 -->
<g id="edge14_Node000001_Node000015" class="edge">
<title>Node1&#45;&gt;Node15</title>
<g id="a_edge14_Node000001_Node000015"><a xlink:title=" ">
<path fill="none" stroke="#63b8ff" d="M1122.25,-142.18C1218.34,-131.81 1377.64,-112.81 1513.5,-88 1518.5,-87.09 1523.69,-86.04 1528.86,-84.93"/>
<polygon fill="#63b8ff" stroke="#63b8ff" points="1529.59,-88.35 1538.59,-82.76 1528.07,-81.52 1529.59,-88.35"/>
</a>
</g>
</g>
<!-- Node16 -->
<g id="Node000016" class="node">
<title>Node16</title>
<g id="a_Node000016"><a xlink:title=" ">
<polygon fill="#e0e0e0" stroke="#999999" points="1758.62,-82 1650.38,-82 1650.38,-62 1758.62,-62 1758.62,-82"/>
<text xml:space="preserve" text-anchor="middle" x="1704.5" y="-68.5" font-family="Helvetica,sans-Serif" font-size="10.00">Net/UnrealNetwork.h</text>
</a>
</g>
</g>
<!-- Node1&#45;&gt;Node16 -->
<g id="edge15_Node000001_Node000016" class="edge">
<title>Node1&#45;&gt;Node16</title>
<g id="a_edge15_Node000001_Node000016"><a xlink:title=" ">
<path fill="none" stroke="#63b8ff" d="M1122.29,-145.54C1240.37,-137.31 1457.98,-119.25 1641.5,-88 1646.7,-87.11 1652.11,-86.05 1657.48,-84.9"/>
<polygon fill="#63b8ff" stroke="#63b8ff" points="1657.89,-88.4 1666.88,-82.79 1656.35,-81.57 1657.89,-88.4"/>
</a>
</g>
</g>
<!-- Node3 -->
<g id="Node000003" class="node">
<title>Node3</title>
<g id="a_Node000003"><a xlink:title=" ">
<polygon fill="#e0e0e0" stroke="#999999" points="79,-20 0,-20 0,0 79,0 79,-20"/>
<text xml:space="preserve" text-anchor="middle" x="39.5" y="-6.5" font-family="Helvetica,sans-Serif" font-size="10.00">CoreMinimal.h</text>
</a>
</g>
</g>
<!-- Node2&#45;&gt;Node3 -->
<g id="edge2_Node000002_Node000003" class="edge">
<title>Node2&#45;&gt;Node3</title>
<g id="a_edge2_Node000002_Node000003"><a xlink:title=" ">
<path fill="none" stroke="#63b8ff" d="M182.06,-55.55C150.63,-45.73 110.41,-33.16 80.72,-23.88"/>
<polygon fill="#63b8ff" stroke="#63b8ff" points="81.92,-20.59 71.33,-20.95 79.83,-27.27 81.92,-20.59"/>
</a>
</g>
</g>
<!-- Node4 -->
<g id="Node000004" class="node">
<title>Node4</title>
<g id="a_Node000004"><a xlink:title=" ">
<polygon fill="#e0e0e0" stroke="#999999" points="222.25,-20 96.75,-20 96.75,0 222.25,0 222.25,-20"/>
<text xml:space="preserve" text-anchor="middle" x="159.5" y="-6.5" font-family="Helvetica,sans-Serif" font-size="10.00">GameFramework/Actor.h</text>
</a>
</g>
</g>
<!-- Node2&#45;&gt;Node4 -->
<g id="edge3_Node000002_Node000004" class="edge">
<title>Node2&#45;&gt;Node4</title>
<g id="a_edge3_Node000002_Node000004"><a xlink:title=" ">
<path fill="none" stroke="#63b8ff" d="M212.96,-55.55C202.75,-47.04 190.07,-36.48 179.62,-27.77"/>
<polygon fill="#63b8ff" stroke="#63b8ff" points="181.88,-25.09 171.95,-21.38 177.39,-30.47 181.88,-25.09"/>
</a>
</g>
</g>
<!-- Node5 -->
<g id="Node000005" class="node">
<title>Node5</title>
<g id="a_Node000005"><a xlink:title=" ">
<polygon fill="#e0e0e0" stroke="#999999" points="366.62,-20 240.38,-20 240.38,0 366.62,0 366.62,-20"/>
<text xml:space="preserve" text-anchor="middle" x="303.5" y="-6.5" font-family="Helvetica,sans-Serif" font-size="10.00">GameplayTagContainer.h</text>
</a>
</g>
</g>
<!-- Node2&#45;&gt;Node5 -->
<g id="edge4_Node000002_Node000005" class="edge">
<title>Node2&#45;&gt;Node5</title>
<g id="a_edge4_Node000002_Node000005"><a xlink:title=" ">
<path fill="none" stroke="#63b8ff" d="M250.04,-55.55C260.25,-47.04 272.93,-36.48 283.38,-27.77"/>
<polygon fill="#63b8ff" stroke="#63b8ff" points="285.61,-30.47 291.05,-21.38 281.12,-25.09 285.61,-30.47"/>
</a>
</g>
</g>
<!-- Node6 -->
<g id="Node000006" class="node">
<title>Node6</title>
<g id="a_Node000006"><a xlink:title=" ">
<polygon fill="#e0e0e0" stroke="#999999" points="504.25,-20 384.75,-20 384.75,0 504.25,0 504.25,-20"/>
<text xml:space="preserve" text-anchor="middle" x="444.5" y="-6.5" font-family="Helvetica,sans-Serif" font-size="10.00">LaserBeam.generated.h</text>
</a>
</g>
</g>
<!-- Node2&#45;&gt;Node6 -->
<g id="edge5_Node000002_Node000006" class="edge">
<title>Node2&#45;&gt;Node6</title>
<g id="a_edge5_Node000002_Node000006"><a xlink:title=" ">
<path fill="none" stroke="#63b8ff" d="M286.35,-55.55C321.68,-45.6 367.01,-32.83 400.08,-23.51"/>
<polygon fill="#63b8ff" stroke="#63b8ff" points="400.65,-26.99 409.33,-20.91 398.76,-20.25 400.65,-26.99"/>
</a>
</g>
</g>
</g>
</svg>

<g id="navigator" transform="translate(0 0)" fill="#404254">
  <rect fill="#f2f5e9" fill-opacity="0.5" stroke="#606060" stroke-width=".5" x="0" y="0" width="60" height="60"/>
  <use id="zoomplus" xlink:href="#zoomPlus" x="17" y="9" onmousedown="handleZoom(evt,'in')"/>
  <use id="zoomminus" xlink:href="#zoomMin" x="42" y="9" onmousedown="handleZoom(evt,'out')"/>
  <use id="reset" xlink:href="#resetDef" x="30" y="36" onmousedown="handleReset()"/>
   <use id="arrowup" xlink:href="#arrowUp" x="0" y="0" onmousedown="handlePan(0,-1)"/>
  <use id="arrowright" xlink:href="#arrowRight" x="0" y="0" onmousedown="handlePan(1,0)"/>
  <use id="arrowdown" xlink:href="#arrowDown" x="0" y="0" onmousedown="handlePan(0,1)"/>
  <use id="arrowleft" xlink:href="#arrowLeft" x="0" y="0" onmousedown="handlePan(-1,0)"/>
</g>
<svg viewBox="0 0 15 15" width="100%" height="30px" preserveAspectRatio="xMaxYMin meet">
 <g id="arrow_out" transform="scale(0.3 0.3)">
  <a xlink:href="_laser_beam_8cpp__incl_org.svg" target="_base">
   <rect id="button" ry="5" rx="5" y="6" x="6" height="38" width="38"
        fill="#f2f5e9" fill-opacity="0.5" stroke="#606060" stroke-width="1.0"/>
   <path id="arrow"
     d="M 11.500037,31.436501 C 11.940474,20.09759 22.043105,11.32322 32.158766,21.979434 L 37.068811,17.246167 C 37.068811,17.246167 37.088388,32 37.088388,32 L 22.160133,31.978069 C 22.160133,31.978069 26.997745,27.140456 26.997745,27.140456 C 18.528582,18.264221 13.291696,25.230495 11.500037,31.436501 z"
     style="fill:#404040;"/>
  </a>
 </g>
</svg>

<style type='text/css'>
<![CDATA[
[data-mouse-over-selected='false'] { opacity: 0.7; }
[data-mouse-over-selected='true']  { opacity: 1.0; }
]]>
</style>
<script type="application/ecmascript"><![CDATA[
document.addEventListener('DOMContentLoaded', (event) => {
  highlightEdges();
  highlightAdjacentNodes();
});
]]></script>
</svg>
