<?xml version="1.0" encoding="UTF-8" standalone="no"?>
<!DOCTYPE svg PUBLIC "-//W3C//DTD SVG 1.1//EN"
 "http://www.w3.org/Graphics/SVG/1.1/DTD/svg11.dtd">
<!-- Generated by graphviz version 13.1.1 (20250719.2154)
 -->
<!-- Title: C:/Users/user/Perforce/alz7_CobaltbruWorkspace_00/KPT/Source/KPT/UI/Lobby/LevelSelectItem.cpp Pages: 1 -->
<!--zoomable 344 -->

<svg id="main" version="1.1" xmlns="http://www.w3.org/2000/svg" xmlns:xlink="http://www.w3.org/1999/xlink" xml:space="preserve" onload="init(evt)">

<style type="text/css"><![CDATA[
.node, .edge {opacity: 0.7;}
.node.selected, .edge.selected {opacity: 1;}
.edge:hover path { stroke: red; }
.edge:hover polygon { stroke: red; fill: red; }
]]></style>

<defs>
  <circle id="rim" cx="0" cy="0" r="7"/>
  <circle id="rim2" cx="0" cy="0" r="3.5"/>
  <g id="zoomPlus">
    <use xlink:href="#rim" fill="#404040"><set attributeName="fill" to="#808080" begin="zoomplus.mouseover" end="zoomplus.mouseout"/></use>
    <path d="M-4,0h8M0,-4v8" fill="none" stroke="white" stroke-width="1.5" pointer-events="none"/>
  </g>
  <g id="zoomMin">
    <use xlink:href="#rim" fill="#404040"><set attributeName="fill" to="#808080" begin="zoomminus.mouseover" end="zoomminus.mouseout"/></use>
    <path d="M-4,0h8" fill="none" stroke="white" stroke-width="1.5" pointer-events="none"/>
  </g>
  <g id="arrowUp" transform="translate(30 24)">
    <use xlink:href="#rim"/>
    <path pointer-events="none" fill="none" stroke="white" stroke-width="1.5" d="M0,-3.0v7 M-2.5,-0.5L0,-3.0L2.5,-0.5"/>
  </g>
  <g id="arrowRight" transform="rotate(90) translate(36 -43)">
    <use xlink:href="#rim"/>
    <path pointer-events="none" fill="none" stroke="white" stroke-width="1.5" d="M0,-3.0v7 M-2.5,-0.5L0,-3.0L2.5,-0.5"/>
  </g>
  <g id="arrowDown" transform="rotate(180) translate(-30 -48)">
    <use xlink:href="#rim"/>
    <path pointer-events="none" fill="none" stroke="white" stroke-width="1.5" d="M0,-3.0v7 M-2.5,-0.5L0,-3.0L2.5,-0.5"/>
  </g>
  <g id="arrowLeft" transform="rotate(270) translate(-36 17)">
    <use xlink:href="#rim"/>
    <path pointer-events="none" fill="none" stroke="white" stroke-width="1.5" d="M0,-3.0v7 M-2.5,-0.5L0,-3.0L2.5,-0.5"/>
  </g>
  <g id="resetDef">
    <use xlink:href="#rim2" fill="#404040"><set attributeName="fill" to="#808080" begin="reset.mouseover" end="reset.mouseout"/></use>
  </g>
</defs>
<script type="application/ecmascript">
var viewWidth = 1793;
var viewHeight = 344;
var sectionId = 'dynsection-0';
</script>
<script type="application/ecmascript" xlink:href="svg.min.js"/>
<svg id="graph" class="graph">
<g id="viewport">
<title>C:/Users/user/Perforce/alz7_CobaltbruWorkspace_00/KPT/Source/KPT/UI/Lobby/LevelSelectItem.cpp</title>
<!-- Node1 -->
<g id="Node000001" class="node">
<title>Node1</title>
<g id="a_Node000001"><a xlink:title=" ">
<polygon fill="#999999" stroke="#666666" points="1223.38,-336 1070.12,-336 1070.12,-280 1223.38,-280 1223.38,-336"/>
<text xml:space="preserve" text-anchor="start" x="1078.12" y="-322.5" font-family="Helvetica,sans-Serif" font-size="10.00">C:/Users/user/Perforce</text>
<text xml:space="preserve" text-anchor="start" x="1078.12" y="-310.5" font-family="Helvetica,sans-Serif" font-size="10.00">/alz7_CobaltbruWorkspace</text>
<text xml:space="preserve" text-anchor="start" x="1078.12" y="-298.5" font-family="Helvetica,sans-Serif" font-size="10.00">_00/KPT/Source/KPT/UI/Lobby</text>
<text xml:space="preserve" text-anchor="middle" x="1146.75" y="-286.5" font-family="Helvetica,sans-Serif" font-size="10.00">/LevelSelectItem.cpp</text>
</a>
</g>
</g>
<!-- Node2 -->
<g id="Node000002" class="node">
<title>Node2</title>
<g id="a_Node000002"><a xlink:href="_level_select_item_8h.html" target="_top" xlink:title=" ">
<polygon fill="white" stroke="#666666" points="995.5,-244 858,-244 858,-224 995.5,-224 995.5,-244"/>
<text xml:space="preserve" text-anchor="middle" x="926.75" y="-230.5" font-family="Helvetica,sans-Serif" font-size="10.00">UI/Lobby/LevelSelectItem.h</text>
</a>
</g>
</g>
<!-- Node1&#45;&gt;Node2 -->
<g id="edge1_Node000001_Node000002" class="edge">
<title>Node1&#45;&gt;Node2</title>
<g id="a_edge1_Node000001_Node000002"><a xlink:title=" ">
<path fill="none" stroke="#63b8ff" d="M1069.8,-281.82C1034.91,-270.4 995.12,-257.38 966.38,-247.97"/>
<polygon fill="#63b8ff" stroke="#63b8ff" points="967.59,-244.68 957,-244.9 965.41,-251.34 967.59,-244.68"/>
</a>
</g>
</g>
<!-- Node23 -->
<g id="Node000023" class="node">
<title>Node23</title>
<g id="a_Node000023"><a xlink:href="_button_base_8h.html" target="_top" xlink:title=" ">
<polygon fill="white" stroke="#666666" points="1128.75,-244 1040.75,-244 1040.75,-224 1128.75,-224 1128.75,-244"/>
<text xml:space="preserve" text-anchor="middle" x="1084.75" y="-230.5" font-family="Helvetica,sans-Serif" font-size="10.00">Ui/ButtonBase.h</text>
</a>
</g>
</g>
<!-- Node1&#45;&gt;Node23 -->
<g id="edge27_Node000001_Node000023" class="edge">
<title>Node1&#45;&gt;Node23</title>
<g id="a_edge27_Node000001_Node000023"><a xlink:title=" ">
<path fill="none" stroke="#63b8ff" d="M1123.31,-279.78C1115.62,-270.85 1107.27,-261.15 1100.31,-253.07"/>
<polygon fill="#63b8ff" stroke="#63b8ff" points="1103.07,-250.91 1093.89,-245.62 1097.77,-255.48 1103.07,-250.91"/>
</a>
</g>
</g>
<!-- Node25 -->
<g id="Node000025" class="node">
<title>Node25</title>
<g id="a_Node000025"><a xlink:title=" ">
<polygon fill="#e0e0e0" stroke="#999999" points="1272.88,-244 1146.62,-244 1146.62,-224 1272.88,-224 1272.88,-244"/>
<text xml:space="preserve" text-anchor="middle" x="1209.75" y="-230.5" font-family="Helvetica,sans-Serif" font-size="10.00">Components/TextBlock.h</text>
</a>
</g>
</g>
<!-- Node1&#45;&gt;Node25 -->
<g id="edge31_Node000001_Node000025" class="edge">
<title>Node1&#45;&gt;Node25</title>
<g id="a_edge31_Node000001_Node000025"><a xlink:title=" ">
<path fill="none" stroke="#63b8ff" d="M1170.57,-279.78C1178.38,-270.85 1186.87,-261.15 1193.94,-253.07"/>
<polygon fill="#63b8ff" stroke="#63b8ff" points="1196.51,-255.44 1200.46,-245.61 1191.25,-250.83 1196.51,-255.44"/>
</a>
</g>
</g>
<!-- Node26 -->
<g id="Node000026" class="node">
<title>Node26</title>
<g id="a_Node000026"><a xlink:title=" ">
<polygon fill="#e0e0e0" stroke="#999999" points="1424.25,-244 1291.25,-244 1291.25,-224 1424.25,-224 1424.25,-244"/>
<text xml:space="preserve" text-anchor="middle" x="1357.75" y="-230.5" font-family="Helvetica,sans-Serif" font-size="10.00">Kismet/GameplayStatics.h</text>
</a>
</g>
</g>
<!-- Node1&#45;&gt;Node26 -->
<g id="edge32_Node000001_Node000026" class="edge">
<title>Node1&#45;&gt;Node26</title>
<g id="a_edge32_Node000001_Node000026"><a xlink:title=" ">
<path fill="none" stroke="#63b8ff" d="M1223.82,-280.7C1256.27,-269.63 1292.59,-257.23 1319.22,-248.15"/>
<polygon fill="#63b8ff" stroke="#63b8ff" points="1320.23,-251.5 1328.56,-244.96 1317.97,-244.88 1320.23,-251.5"/>
</a>
</g>
</g>
<!-- Node3 -->
<g id="Node000003" class="node">
<title>Node3</title>
<g id="a_Node000003"><a xlink:title=" ">
<polygon fill="#e0e0e0" stroke="#999999" points="934.25,-20 855.25,-20 855.25,0 934.25,0 934.25,-20"/>
<text xml:space="preserve" text-anchor="middle" x="894.75" y="-6.5" font-family="Helvetica,sans-Serif" font-size="10.00">CoreMinimal.h</text>
</a>
</g>
</g>
<!-- Node2&#45;&gt;Node3 -->
<g id="edge2_Node000002_Node000003" class="edge">
<title>Node2&#45;&gt;Node3</title>
<g id="a_edge2_Node000002_Node000003"><a xlink:title=" ">
<path fill="none" stroke="#63b8ff" d="M857.56,-225.81C833.7,-219.63 809.33,-208.38 794.75,-188 777.83,-164.36 707.22,-193.69 797.75,-56 808.39,-39.81 826.47,-29.35 844.16,-22.63"/>
<polygon fill="#63b8ff" stroke="#63b8ff" points="845.29,-25.94 853.62,-19.4 843.03,-19.31 845.29,-25.94"/>
</a>
</g>
</g>
<!-- Node4 -->
<g id="Node000004" class="node">
<title>Node4</title>
<g id="a_Node000004"><a xlink:href="_u_i_base_8h.html" target="_top" xlink:title=" ">
<polygon fill="white" stroke="#666666" points="1033.12,-188 962.38,-188 962.38,-168 1033.12,-168 1033.12,-188"/>
<text xml:space="preserve" text-anchor="middle" x="997.75" y="-174.5" font-family="Helvetica,sans-Serif" font-size="10.00">UI/UIBase.h</text>
</a>
</g>
</g>
<!-- Node2&#45;&gt;Node4 -->
<g id="edge3_Node000002_Node000004" class="edge">
<title>Node2&#45;&gt;Node4</title>
<g id="a_edge3_Node000002_Node000004"><a xlink:title=" ">
<path fill="none" stroke="#63b8ff" d="M939.12,-223.59C949.4,-215.77 964.27,-204.46 976.46,-195.19"/>
<polygon fill="#63b8ff" stroke="#63b8ff" points="978.48,-198.05 984.32,-189.21 974.24,-192.48 978.48,-198.05"/>
</a>
</g>
</g>
<!-- Node22 -->
<g id="Node000022" class="node">
<title>Node22</title>
<g id="a_Node000022"><a xlink:title=" ">
<polygon fill="#e0e0e0" stroke="#999999" points="944,-188 803.5,-188 803.5,-168 944,-168 944,-188"/>
<text xml:space="preserve" text-anchor="middle" x="873.75" y="-174.5" font-family="Helvetica,sans-Serif" font-size="10.00">LevelSelectItem.generated.h</text>
</a>
</g>
</g>
<!-- Node2&#45;&gt;Node22 -->
<g id="edge26_Node000002_Node000022" class="edge">
<title>Node2&#45;&gt;Node22</title>
<g id="a_edge26_Node000002_Node000022"><a xlink:title=" ">
<path fill="none" stroke="#63b8ff" d="M917.52,-223.59C910.15,-216.08 899.62,-205.35 890.73,-196.3"/>
<polygon fill="#63b8ff" stroke="#63b8ff" points="893.44,-194.06 883.94,-189.38 888.44,-198.97 893.44,-194.06"/>
</a>
</g>
</g>
<!-- Node4&#45;&gt;Node3 -->
<g id="edge4_Node000004_Node000003" class="edge">
<title>Node4&#45;&gt;Node3</title>
<g id="a_edge4_Node000004_Node000003"><a xlink:title=" ">
<path fill="none" stroke="#63b8ff" d="M962.05,-169.47C922.77,-160.68 862.69,-145.62 843.75,-132 819.12,-114.29 813.83,-104.94 804.75,-76 802.09,-67.52 800.08,-63.56 804.75,-56 813.78,-41.39 829.15,-31.37 844.65,-24.56"/>
<polygon fill="#63b8ff" stroke="#63b8ff" points="845.91,-27.83 853.93,-20.9 843.34,-21.31 845.91,-27.83"/>
</a>
</g>
</g>
<!-- Node5 -->
<g id="Node000005" class="node">
<title>Node5</title>
<g id="a_Node000005"><a xlink:title=" ">
<polygon fill="#e0e0e0" stroke="#999999" points="1785.38,-20 1668.12,-20 1668.12,0 1785.38,0 1785.38,-20"/>
<text xml:space="preserve" text-anchor="middle" x="1726.75" y="-6.5" font-family="Helvetica,sans-Serif" font-size="10.00">Blueprint/UserWidget.h</text>
</a>
</g>
</g>
<!-- Node4&#45;&gt;Node5 -->
<g id="edge5_Node000004_Node000005" class="edge">
<title>Node4&#45;&gt;Node5</title>
<g id="a_edge5_Node000004_Node000005"><a xlink:title=" ">
<path fill="none" stroke="#63b8ff" d="M1033.58,-169.66C1036.68,-169.08 1039.77,-168.52 1042.75,-168 1319.39,-120.01 1420.01,-208.13 1667.75,-76 1687.85,-65.28 1704.6,-44.91 1715.05,-29.82"/>
<polygon fill="#63b8ff" stroke="#63b8ff" points="1717.84,-31.94 1720.41,-21.67 1712,-28.1 1717.84,-31.94"/>
</a>
</g>
</g>
<!-- Node6 -->
<g id="Node000006" class="node">
<title>Node6</title>
<g id="a_Node000006"><a xlink:href="_u_i_manager_subsystem_8h.html" target="_top" xlink:title=" ">
<polygon fill="white" stroke="#666666" points="1135.88,-132 973.62,-132 973.62,-112 1135.88,-112 1135.88,-132"/>
<text xml:space="preserve" text-anchor="middle" x="1054.75" y="-118.5" font-family="Helvetica,sans-Serif" font-size="10.00">Manager/UIManagerSubsystem.h</text>
</a>
</g>
</g>
<!-- Node4&#45;&gt;Node6 -->
<g id="edge6_Node000004_Node000006" class="edge">
<title>Node4&#45;&gt;Node6</title>
<g id="a_edge6_Node000004_Node000006"><a xlink:title=" ">
<path fill="none" stroke="#63b8ff" d="M1007.68,-167.59C1015.69,-160.01 1027.17,-149.13 1036.78,-140.02"/>
<polygon fill="#63b8ff" stroke="#63b8ff" points="1038.98,-142.76 1043.84,-133.34 1034.17,-137.68 1038.98,-142.76"/>
</a>
</g>
</g>
<!-- Node21 -->
<g id="Node000021" class="node">
<title>Node21</title>
<g id="a_Node000021"><a xlink:title=" ">
<polygon fill="#e0e0e0" stroke="#999999" points="955.25,-132 852.25,-132 852.25,-112 955.25,-112 955.25,-132"/>
<text xml:space="preserve" text-anchor="middle" x="903.75" y="-118.5" font-family="Helvetica,sans-Serif" font-size="10.00">UIBase.generated.h</text>
</a>
</g>
</g>
<!-- Node4&#45;&gt;Node21 -->
<g id="edge25_Node000004_Node000021" class="edge">
<title>Node4&#45;&gt;Node21</title>
<g id="a_edge25_Node000004_Node000021"><a xlink:title=" ">
<path fill="none" stroke="#63b8ff" d="M981.38,-167.59C967.18,-159.44 946.37,-147.48 929.87,-138"/>
<polygon fill="#63b8ff" stroke="#63b8ff" points="931.98,-135.18 921.56,-133.23 928.49,-141.25 931.98,-135.18"/>
</a>
</g>
</g>
<!-- Node6&#45;&gt;Node3 -->
<g id="edge7_Node000006_Node000003" class="edge">
<title>Node6&#45;&gt;Node3</title>
<g id="a_edge7_Node000006_Node000003"><a xlink:title=" ">
<path fill="none" stroke="#63b8ff" d="M977.37,-111.52C910.97,-102.6 824.32,-88.73 813.75,-76 796.54,-55.28 827.01,-36.6 855.37,-24.64"/>
<polygon fill="#63b8ff" stroke="#63b8ff" points="856.62,-27.91 864.62,-20.96 854.04,-21.41 856.62,-27.91"/>
</a>
</g>
</g>
<!-- Node7 -->
<g id="Node000007" class="node">
<title>Node7</title>
<g id="a_Node000007"><a xlink:title=" ">
<polygon fill="#e0e0e0" stroke="#999999" points="1339,-76 1156.5,-76 1156.5,-56 1339,-56 1339,-76"/>
<text xml:space="preserve" text-anchor="middle" x="1247.75" y="-62.5" font-family="Helvetica,sans-Serif" font-size="10.00">Subsystems/LocalPlayerSubsystem.h</text>
</a>
</g>
</g>
<!-- Node6&#45;&gt;Node7 -->
<g id="edge8_Node000006_Node000007" class="edge">
<title>Node6&#45;&gt;Node7</title>
<g id="a_edge8_Node000006_Node000007"><a xlink:title=" ">
<path fill="none" stroke="#63b8ff" d="M1088.37,-111.59C1120.14,-102.71 1168.01,-89.31 1203,-79.52"/>
<polygon fill="#63b8ff" stroke="#63b8ff" points="1203.72,-82.95 1212.41,-76.89 1201.84,-76.21 1203.72,-82.95"/>
</a>
</g>
</g>
<!-- Node8 -->
<g id="Node000008" class="node">
<title>Node8</title>
<g id="a_Node000008"><a xlink:title=" ">
<polygon fill="#e0e0e0" stroke="#999999" points="1460.25,-76 1357.25,-76 1357.25,-56 1460.25,-56 1460.25,-76"/>
<text xml:space="preserve" text-anchor="middle" x="1408.75" y="-62.5" font-family="Helvetica,sans-Serif" font-size="10.00">Containers/Queue.h</text>
</a>
</g>
</g>
<!-- Node6&#45;&gt;Node8 -->
<g id="edge9_Node000006_Node000008" class="edge">
<title>Node6&#45;&gt;Node8</title>
<g id="a_edge9_Node000006_Node000008"><a xlink:title=" ">
<path fill="none" stroke="#63b8ff" d="M1116.82,-111.53C1181.07,-101.73 1280.93,-86.5 1345.59,-76.64"/>
<polygon fill="#63b8ff" stroke="#63b8ff" points="1345.98,-80.12 1355.34,-75.15 1344.93,-73.2 1345.98,-80.12"/>
</a>
</g>
</g>
<!-- Node9 -->
<g id="Node000009" class="node">
<title>Node9</title>
<g id="a_Node000009"><a xlink:href="_level_u_i_data_asset_8h.html" target="_top" xlink:title=" ">
<polygon fill="white" stroke="#666666" points="1658.75,-76 1516.75,-76 1516.75,-56 1658.75,-56 1658.75,-76"/>
<text xml:space="preserve" text-anchor="middle" x="1587.75" y="-62.5" font-family="Helvetica,sans-Serif" font-size="10.00">UI/Data/LevelUIDataAsset.h</text>
</a>
</g>
</g>
<!-- Node6&#45;&gt;Node9 -->
<g id="edge10_Node000006_Node000009" class="edge">
<title>Node6&#45;&gt;Node9</title>
<g id="a_edge10_Node000006_Node000009"><a xlink:title=" ">
<path fill="none" stroke="#63b8ff" d="M1136.28,-112.74C1236.25,-102.61 1404.72,-85.54 1505.17,-75.37"/>
<polygon fill="#63b8ff" stroke="#63b8ff" points="1505.37,-78.86 1514.96,-74.37 1504.66,-71.9 1505.37,-78.86"/>
</a>
</g>
</g>
<!-- Node12 -->
<g id="Node000012" class="node">
<title>Node12</title>
<g id="a_Node000012"><a xlink:title=" ">
<polygon fill="#e0e0e0" stroke="#999999" points="953.12,-76 822.38,-76 822.38,-56 953.12,-56 953.12,-76"/>
<text xml:space="preserve" text-anchor="middle" x="887.75" y="-62.5" font-family="Helvetica,sans-Serif" font-size="10.00">UObject/NoExportTypes.h</text>
</a>
</g>
</g>
<!-- Node6&#45;&gt;Node12 -->
<g id="edge15_Node000006_Node000012" class="edge">
<title>Node6&#45;&gt;Node12</title>
<g id="a_edge15_Node000006_Node000012"><a xlink:title=" ">
<path fill="none" stroke="#63b8ff" d="M1025.66,-111.59C998.53,-102.82 957.82,-89.66 927.66,-79.9"/>
<polygon fill="#63b8ff" stroke="#63b8ff" points="929.1,-76.69 918.51,-76.95 926.94,-83.35 929.1,-76.69"/>
</a>
</g>
</g>
<!-- Node13 -->
<g id="Node000013" class="node">
<title>Node13</title>
<g id="a_Node000013"><a xlink:href="_item_base_8h.html" target="_top" xlink:title=" ">
<polygon fill="white" stroke="#666666" points="591.12,-76 502.38,-76 502.38,-56 591.12,-56 591.12,-76"/>
<text xml:space="preserve" text-anchor="middle" x="546.75" y="-62.5" font-family="Helvetica,sans-Serif" font-size="10.00">Item/ItemBase.h</text>
</a>
</g>
</g>
<!-- Node6&#45;&gt;Node13 -->
<g id="edge16_Node000006_Node000013" class="edge">
<title>Node6&#45;&gt;Node13</title>
<g id="a_edge16_Node000006_Node000013"><a xlink:title=" ">
<path fill="none" stroke="#63b8ff" d="M973.13,-112.32C869.28,-101.28 692.64,-82.51 602.81,-72.96"/>
<polygon fill="#63b8ff" stroke="#63b8ff" points="603.33,-69.49 593.01,-71.92 602.59,-76.46 603.33,-69.49"/>
</a>
</g>
</g>
<!-- Node20 -->
<g id="Node000020" class="node">
<title>Node20</title>
<g id="a_Node000020"><a xlink:title=" ">
<polygon fill="#e0e0e0" stroke="#999999" points="1138.5,-76 971,-76 971,-56 1138.5,-56 1138.5,-76"/>
<text xml:space="preserve" text-anchor="middle" x="1054.75" y="-62.5" font-family="Helvetica,sans-Serif" font-size="10.00">UIManagerSubsystem.generated.h</text>
</a>
</g>
</g>
<!-- Node6&#45;&gt;Node20 -->
<g id="edge24_Node000006_Node000020" class="edge">
<title>Node6&#45;&gt;Node20</title>
<g id="a_edge24_Node000006_Node000020"><a xlink:title=" ">
<path fill="none" stroke="#63b8ff" d="M1054.75,-111.59C1054.75,-105.01 1054.75,-95.96 1054.75,-87.73"/>
<polygon fill="#63b8ff" stroke="#63b8ff" points="1058.25,-87.81 1054.75,-77.81 1051.25,-87.81 1058.25,-87.81"/>
</a>
</g>
</g>
<!-- Node9&#45;&gt;Node3 -->
<g id="edge11_Node000009_Node000003" class="edge">
<title>Node9&#45;&gt;Node3</title>
<g id="a_edge11_Node000009_Node000003"><a xlink:title=" ">
<path fill="none" stroke="#63b8ff" d="M1516.35,-57.27C1511.75,-56.83 1507.18,-56.4 1502.75,-56 1296.69,-37.47 1050.84,-21 946.09,-14.25"/>
<polygon fill="#63b8ff" stroke="#63b8ff" points="946.34,-10.76 936.13,-13.61 945.89,-17.74 946.34,-10.76"/>
</a>
</g>
</g>
<!-- Node9&#45;&gt;Node5 -->
<g id="edge13_Node000009_Node000005" class="edge">
<title>Node9&#45;&gt;Node5</title>
<g id="a_edge13_Node000009_Node000005"><a xlink:title=" ">
<path fill="none" stroke="#63b8ff" d="M1611.96,-55.59C1634.05,-47.01 1666.95,-34.23 1691.87,-24.55"/>
<polygon fill="#63b8ff" stroke="#63b8ff" points="1692.88,-27.91 1700.94,-21.03 1690.35,-21.39 1692.88,-27.91"/>
</a>
</g>
</g>
<!-- Node10 -->
<g id="Node000010" class="node">
<title>Node10</title>
<g id="a_Node000010"><a xlink:title=" ">
<polygon fill="#e0e0e0" stroke="#999999" points="1481.62,-20 1377.88,-20 1377.88,0 1481.62,0 1481.62,-20"/>
<text xml:space="preserve" text-anchor="middle" x="1429.75" y="-6.5" font-family="Helvetica,sans-Serif" font-size="10.00">Engine/DataAsset.h</text>
</a>
</g>
</g>
<!-- Node9&#45;&gt;Node10 -->
<g id="edge12_Node000009_Node000010" class="edge">
<title>Node9&#45;&gt;Node10</title>
<g id="a_edge12_Node000009_Node000010"><a xlink:title=" ">
<path fill="none" stroke="#63b8ff" d="M1560.23,-55.59C1534.78,-46.9 1496.72,-33.89 1468.26,-24.16"/>
<polygon fill="#63b8ff" stroke="#63b8ff" points="1469.51,-20.89 1458.92,-20.97 1467.25,-27.52 1469.51,-20.89"/>
</a>
</g>
</g>
<!-- Node11 -->
<g id="Node000011" class="node">
<title>Node11</title>
<g id="a_Node000011"><a xlink:title=" ">
<polygon fill="#e0e0e0" stroke="#999999" points="1649.88,-20 1499.62,-20 1499.62,0 1649.88,0 1649.88,-20"/>
<text xml:space="preserve" text-anchor="middle" x="1574.75" y="-6.5" font-family="Helvetica,sans-Serif" font-size="10.00">LevelUIDataAsset.generated.h</text>
</a>
</g>
</g>
<!-- Node9&#45;&gt;Node11 -->
<g id="edge14_Node000009_Node000011" class="edge">
<title>Node9&#45;&gt;Node11</title>
<g id="a_edge14_Node000009_Node000011"><a xlink:title=" ">
<path fill="none" stroke="#63b8ff" d="M1585.49,-55.59C1583.88,-48.93 1581.67,-39.75 1579.67,-31.44"/>
<polygon fill="#63b8ff" stroke="#63b8ff" points="1583.09,-30.67 1577.34,-21.77 1576.28,-32.31 1583.09,-30.67"/>
</a>
</g>
</g>
<!-- Node13&#45;&gt;Node3 -->
<g id="edge17_Node000013_Node000003" class="edge">
<title>Node13&#45;&gt;Node3</title>
<g id="a_edge17_Node000013_Node000003"><a xlink:title=" ">
<path fill="none" stroke="#63b8ff" d="M591.4,-58.74C647.73,-50.74 747.87,-36.18 843.85,-20.27"/>
<polygon fill="#63b8ff" stroke="#63b8ff" points="844.14,-23.77 853.43,-18.67 842.99,-16.87 844.14,-23.77"/>
</a>
</g>
</g>
<!-- Node14 -->
<g id="Node000014" class="node">
<title>Node14</title>
<g id="a_Node000014"><a xlink:title=" ">
<polygon fill="#e0e0e0" stroke="#999999" points="426,-20 273.5,-20 273.5,0 426,0 426,-20"/>
<text xml:space="preserve" text-anchor="middle" x="349.75" y="-6.5" font-family="Helvetica,sans-Serif" font-size="10.00">ActiveGameplayEffectHandle.h</text>
</a>
</g>
</g>
<!-- Node13&#45;&gt;Node14 -->
<g id="edge18_Node000013_Node000014" class="edge">
<title>Node13&#45;&gt;Node14</title>
<g id="a_edge18_Node000013_Node000014"><a xlink:title=" ">
<path fill="none" stroke="#63b8ff" d="M512.44,-55.59C480.01,-46.71 431.14,-33.31 395.43,-23.52"/>
<polygon fill="#63b8ff" stroke="#63b8ff" points="396.36,-20.15 385.79,-20.88 394.51,-26.9 396.36,-20.15"/>
</a>
</g>
</g>
<!-- Node15 -->
<g id="Node000015" class="node">
<title>Node15</title>
<g id="a_Node000015"><a xlink:title=" ">
<polygon fill="#e0e0e0" stroke="#999999" points="519.75,-20 443.75,-20 443.75,0 519.75,0 519.75,-20"/>
<text xml:space="preserve" text-anchor="middle" x="481.75" y="-6.5" font-family="Helvetica,sans-Serif" font-size="10.00">AttributeSet.h</text>
</a>
</g>
</g>
<!-- Node13&#45;&gt;Node15 -->
<g id="edge19_Node000013_Node000015" class="edge">
<title>Node13&#45;&gt;Node15</title>
<g id="a_edge19_Node000013_Node000015"><a xlink:title=" ">
<path fill="none" stroke="#63b8ff" d="M535.43,-55.59C526.11,-47.85 512.67,-36.69 501.57,-27.47"/>
<polygon fill="#63b8ff" stroke="#63b8ff" points="504.04,-24.96 494.11,-21.27 499.56,-30.35 504.04,-24.96"/>
</a>
</g>
</g>
<!-- Node16 -->
<g id="Node000016" class="node">
<title>Node16</title>
<g id="a_Node000016"><a xlink:title=" ">
<polygon fill="#e0e0e0" stroke="#999999" points="686.12,-20 537.38,-20 537.38,0 686.12,0 686.12,-20"/>
<text xml:space="preserve" text-anchor="middle" x="611.75" y="-6.5" font-family="Helvetica,sans-Serif" font-size="10.00">GameplayAbilitySpecHandle.h</text>
</a>
</g>
</g>
<!-- Node13&#45;&gt;Node16 -->
<g id="edge20_Node000013_Node000016" class="edge">
<title>Node13&#45;&gt;Node16</title>
<g id="a_edge20_Node000013_Node000016"><a xlink:title=" ">
<path fill="none" stroke="#63b8ff" d="M558.07,-55.59C567.39,-47.85 580.83,-36.69 591.93,-27.47"/>
<polygon fill="#63b8ff" stroke="#63b8ff" points="593.94,-30.35 599.39,-21.27 589.46,-24.96 593.94,-30.35"/>
</a>
</g>
</g>
<!-- Node17 -->
<g id="Node000017" class="node">
<title>Node17</title>
<g id="a_Node000017"><a xlink:title=" ">
<polygon fill="#e0e0e0" stroke="#999999" points="836.88,-20 704.62,-20 704.62,0 836.88,0 836.88,-20"/>
<text xml:space="preserve" text-anchor="middle" x="770.75" y="-6.5" font-family="Helvetica,sans-Serif" font-size="10.00">Abilities/GameplayAbility.h</text>
</a>
</g>
</g>
<!-- Node13&#45;&gt;Node17 -->
<g id="edge21_Node000013_Node000017" class="edge">
<title>Node13&#45;&gt;Node17</title>
<g id="a_edge21_Node000013_Node000017"><a xlink:title=" ">
<path fill="none" stroke="#63b8ff" d="M586.02,-55.53C623.41,-46.52 679.85,-32.91 720.5,-23.11"/>
<polygon fill="#63b8ff" stroke="#63b8ff" points="721.15,-26.56 730.05,-20.81 719.51,-19.75 721.15,-26.56"/>
</a>
</g>
</g>
<!-- Node18 -->
<g id="Node000018" class="node">
<title>Node18</title>
<g id="a_Node000018"><a xlink:title=" ">
<polygon fill="#e0e0e0" stroke="#999999" points="125.5,-20 0,-20 0,0 125.5,0 125.5,-20"/>
<text xml:space="preserve" text-anchor="middle" x="62.75" y="-6.5" font-family="Helvetica,sans-Serif" font-size="10.00">GameFramework/Actor.h</text>
</a>
</g>
</g>
<!-- Node13&#45;&gt;Node18 -->
<g id="edge22_Node000013_Node000018" class="edge">
<title>Node13&#45;&gt;Node18</title>
<g id="a_edge22_Node000013_Node000018"><a xlink:title=" ">
<path fill="none" stroke="#63b8ff" d="M501.91,-60.33C428.2,-52.61 276.49,-36.51 137.24,-20.28"/>
<polygon fill="#63b8ff" stroke="#63b8ff" points="137.8,-16.82 127.46,-19.13 136.99,-23.77 137.8,-16.82"/>
</a>
</g>
</g>
<!-- Node19 -->
<g id="Node000019" class="node">
<title>Node19</title>
<g id="a_Node000019"><a xlink:title=" ">
<polygon fill="#e0e0e0" stroke="#999999" points="255.75,-20 143.75,-20 143.75,0 255.75,0 255.75,-20"/>
<text xml:space="preserve" text-anchor="middle" x="199.75" y="-6.5" font-family="Helvetica,sans-Serif" font-size="10.00">ItemBase.generated.h</text>
</a>
</g>
</g>
<!-- Node13&#45;&gt;Node19 -->
<g id="edge23_Node000013_Node000019" class="edge">
<title>Node13&#45;&gt;Node19</title>
<g id="a_edge23_Node000013_Node000019"><a xlink:title=" ">
<path fill="none" stroke="#63b8ff" d="M502.1,-58.05C442.54,-48.78 336.57,-32.29 267.23,-21.5"/>
<polygon fill="#63b8ff" stroke="#63b8ff" points="267.92,-18.07 257.5,-19.99 266.84,-24.98 267.92,-18.07"/>
</a>
</g>
</g>
<!-- Node23&#45;&gt;Node3 -->
<g id="edge28_Node000023_Node000003" class="edge">
<title>Node23&#45;&gt;Node3</title>
<g id="a_edge28_Node000023_Node000003"><a xlink:title=" ">
<path fill="none" stroke="#63b8ff" d="M1122.27,-223.5C1228.83,-195.68 1522.26,-112.78 1469.75,-56 1434.53,-17.92 1079.61,-12 945.61,-11.13"/>
<polygon fill="#63b8ff" stroke="#63b8ff" points="946,-7.63 935.98,-11.08 945.96,-14.63 946,-7.63"/>
</a>
</g>
</g>
<!-- Node23&#45;&gt;Node4 -->
<g id="edge29_Node000023_Node000004" class="edge">
<title>Node23&#45;&gt;Node4</title>
<g id="a_edge29_Node000023_Node000004"><a xlink:title=" ">
<path fill="none" stroke="#63b8ff" d="M1069.6,-223.59C1056.7,-215.59 1037.92,-203.93 1022.79,-194.54"/>
<polygon fill="#63b8ff" stroke="#63b8ff" points="1024.65,-191.58 1014.31,-189.28 1020.96,-197.53 1024.65,-191.58"/>
</a>
</g>
</g>
<!-- Node24 -->
<g id="Node000024" class="node">
<title>Node24</title>
<g id="a_Node000024"><a xlink:title=" ">
<polygon fill="#e0e0e0" stroke="#999999" points="1172.25,-188 1051.25,-188 1051.25,-168 1172.25,-168 1172.25,-188"/>
<text xml:space="preserve" text-anchor="middle" x="1111.75" y="-174.5" font-family="Helvetica,sans-Serif" font-size="10.00">ButtonBase.generated.h</text>
</a>
</g>
</g>
<!-- Node23&#45;&gt;Node24 -->
<g id="edge30_Node000023_Node000024" class="edge">
<title>Node23&#45;&gt;Node24</title>
<g id="a_edge30_Node000023_Node000024"><a xlink:title=" ">
<path fill="none" stroke="#63b8ff" d="M1089.45,-223.59C1092.9,-216.7 1097.7,-207.1 1101.96,-198.57"/>
<polygon fill="#63b8ff" stroke="#63b8ff" points="1105.08,-200.16 1106.42,-189.65 1098.82,-197.03 1105.08,-200.16"/>
</a>
</g>
</g>
</g>
</svg>

<g id="navigator" transform="translate(0 0)" fill="#404254">
  <rect fill="#f2f5e9" fill-opacity="0.5" stroke="#606060" stroke-width=".5" x="0" y="0" width="60" height="60"/>
  <use id="zoomplus" xlink:href="#zoomPlus" x="17" y="9" onmousedown="handleZoom(evt,'in')"/>
  <use id="zoomminus" xlink:href="#zoomMin" x="42" y="9" onmousedown="handleZoom(evt,'out')"/>
  <use id="reset" xlink:href="#resetDef" x="30" y="36" onmousedown="handleReset()"/>
   <use id="arrowup" xlink:href="#arrowUp" x="0" y="0" onmousedown="handlePan(0,-1)"/>
  <use id="arrowright" xlink:href="#arrowRight" x="0" y="0" onmousedown="handlePan(1,0)"/>
  <use id="arrowdown" xlink:href="#arrowDown" x="0" y="0" onmousedown="handlePan(0,1)"/>
  <use id="arrowleft" xlink:href="#arrowLeft" x="0" y="0" onmousedown="handlePan(-1,0)"/>
</g>
<svg viewBox="0 0 15 15" width="100%" height="30px" preserveAspectRatio="xMaxYMin meet">
 <g id="arrow_out" transform="scale(0.3 0.3)">
  <a xlink:href="_level_select_item_8cpp__incl_org.svg" target="_base">
   <rect id="button" ry="5" rx="5" y="6" x="6" height="38" width="38"
        fill="#f2f5e9" fill-opacity="0.5" stroke="#606060" stroke-width="1.0"/>
   <path id="arrow"
     d="M 11.500037,31.436501 C 11.940474,20.09759 22.043105,11.32322 32.158766,21.979434 L 37.068811,17.246167 C 37.068811,17.246167 37.088388,32 37.088388,32 L 22.160133,31.978069 C 22.160133,31.978069 26.997745,27.140456 26.997745,27.140456 C 18.528582,18.264221 13.291696,25.230495 11.500037,31.436501 z"
     style="fill:#404040;"/>
  </a>
 </g>
</svg>

<style type='text/css'>
<![CDATA[
[data-mouse-over-selected='false'] { opacity: 0.7; }
[data-mouse-over-selected='true']  { opacity: 1.0; }
]]>
</style>
<script type="application/ecmascript"><![CDATA[
document.addEventListener('DOMContentLoaded', (event) => {
  highlightEdges();
  highlightAdjacentNodes();
});
]]></script>
</svg>
