<?xml version="1.0" encoding="UTF-8" standalone="no"?>
<!DOCTYPE svg PUBLIC "-//W3C//DTD SVG 1.1//EN"
 "http://www.w3.org/Graphics/SVG/1.1/DTD/svg11.dtd">
<!-- Generated by graphviz version 13.1.1 (20250719.2154)
 -->
<!-- Title: C:/Users/user/Perforce/alz7_CobaltbruWorkspace_00/KPT/Source/KPT/UI/Data/LevelUIDataAsset.cpp Pages: 1 -->
<svg width="513pt" height="176pt"
 viewBox="0.00 0.00 513.00 176.00" xmlns="http://www.w3.org/2000/svg" xmlns:xlink="http://www.w3.org/1999/xlink">
<g id="graph0" class="graph" transform="scale(1 1) rotate(0) translate(4 172)">
<title>C:/Users/user/Perforce/alz7_CobaltbruWorkspace_00/KPT/Source/KPT/UI/Data/LevelUIDataAsset.cpp</title>
<!-- Node1 -->
<g id="Node000001" class="node">
<title>Node1</title>
<g id="a_Node000001"><a xlink:title=" ">
<polygon fill="#999999" stroke="#666666" points="286.5,-168 138.5,-168 138.5,-112 286.5,-112 286.5,-168"/>
<text xml:space="preserve" text-anchor="start" x="146.5" y="-154.5" font-family="Helvetica,sans-Serif" font-size="10.00">C:/Users/user/Perforce</text>
<text xml:space="preserve" text-anchor="start" x="146.5" y="-142.5" font-family="Helvetica,sans-Serif" font-size="10.00">/alz7_CobaltbruWorkspace</text>
<text xml:space="preserve" text-anchor="start" x="146.5" y="-130.5" font-family="Helvetica,sans-Serif" font-size="10.00">_00/KPT/Source/KPT/UI/Data</text>
<text xml:space="preserve" text-anchor="middle" x="212.5" y="-118.5" font-family="Helvetica,sans-Serif" font-size="10.00">/LevelUIDataAsset.cpp</text>
</a>
</g>
</g>
<!-- Node2 -->
<g id="Node000002" class="node">
<title>Node2</title>
<g id="a_Node000002"><a xlink:href="_level_u_i_data_asset_8h.html" target="_top" xlink:title=" ">
<polygon fill="white" stroke="#666666" points="283.5,-76 141.5,-76 141.5,-56 283.5,-56 283.5,-76"/>
<text xml:space="preserve" text-anchor="middle" x="212.5" y="-62.5" font-family="Helvetica,sans-Serif" font-size="10.00">UI/Data/LevelUIDataAsset.h</text>
</a>
</g>
</g>
<!-- Node1&#45;&gt;Node2 -->
<g id="edge1_Node000001_Node000002" class="edge">
<title>Node1&#45;&gt;Node2</title>
<g id="a_edge1_Node000001_Node000002"><a xlink:title=" ">
<path fill="none" stroke="#63b8ff" d="M212.5,-111.78C212.5,-103.82 212.5,-95.25 212.5,-87.76"/>
<polygon fill="#63b8ff" stroke="#63b8ff" points="216,-87.99 212.5,-77.99 209,-87.99 216,-87.99"/>
</a>
</g>
</g>
<!-- Node3 -->
<g id="Node000003" class="node">
<title>Node3</title>
<g id="a_Node000003"><a xlink:title=" ">
<polygon fill="#e0e0e0" stroke="#999999" points="79,-20 0,-20 0,0 79,0 79,-20"/>
<text xml:space="preserve" text-anchor="middle" x="39.5" y="-6.5" font-family="Helvetica,sans-Serif" font-size="10.00">CoreMinimal.h</text>
</a>
</g>
</g>
<!-- Node2&#45;&gt;Node3 -->
<g id="edge2_Node000002_Node000003" class="edge">
<title>Node2&#45;&gt;Node3</title>
<g id="a_edge2_Node000002_Node000003"><a xlink:title=" ">
<path fill="none" stroke="#63b8ff" d="M182.37,-55.59C154.26,-46.82 112.09,-33.66 80.84,-23.9"/>
<polygon fill="#63b8ff" stroke="#63b8ff" points="81.9,-20.57 71.31,-20.93 79.82,-27.25 81.9,-20.57"/>
</a>
</g>
</g>
<!-- Node4 -->
<g id="Node000004" class="node">
<title>Node4</title>
<g id="a_Node000004"><a xlink:title=" ">
<polygon fill="#e0e0e0" stroke="#999999" points="200.38,-20 96.62,-20 96.62,0 200.38,0 200.38,-20"/>
<text xml:space="preserve" text-anchor="middle" x="148.5" y="-6.5" font-family="Helvetica,sans-Serif" font-size="10.00">Engine/DataAsset.h</text>
</a>
</g>
</g>
<!-- Node2&#45;&gt;Node4 -->
<g id="edge3_Node000002_Node000004" class="edge">
<title>Node2&#45;&gt;Node4</title>
<g id="a_edge3_Node000002_Node000004"><a xlink:title=" ">
<path fill="none" stroke="#63b8ff" d="M201.35,-55.59C192.17,-47.85 178.95,-36.69 168.02,-27.47"/>
<polygon fill="#63b8ff" stroke="#63b8ff" points="170.58,-25.05 160.68,-21.27 166.06,-30.4 170.58,-25.05"/>
</a>
</g>
</g>
<!-- Node5 -->
<g id="Node000005" class="node">
<title>Node5</title>
<g id="a_Node000005"><a xlink:title=" ">
<polygon fill="#e0e0e0" stroke="#999999" points="336.12,-20 218.88,-20 218.88,0 336.12,0 336.12,-20"/>
<text xml:space="preserve" text-anchor="middle" x="277.5" y="-6.5" font-family="Helvetica,sans-Serif" font-size="10.00">Blueprint/UserWidget.h</text>
</a>
</g>
</g>
<!-- Node2&#45;&gt;Node5 -->
<g id="edge4_Node000002_Node000005" class="edge">
<title>Node2&#45;&gt;Node5</title>
<g id="a_edge4_Node000002_Node000005"><a xlink:title=" ">
<path fill="none" stroke="#63b8ff" d="M223.82,-55.59C233.14,-47.85 246.58,-36.69 257.68,-27.47"/>
<polygon fill="#63b8ff" stroke="#63b8ff" points="259.69,-30.35 265.14,-21.27 255.21,-24.96 259.69,-30.35"/>
</a>
</g>
</g>
<!-- Node6 -->
<g id="Node000006" class="node">
<title>Node6</title>
<g id="a_Node000006"><a xlink:title=" ">
<polygon fill="#e0e0e0" stroke="#999999" points="504.62,-20 354.38,-20 354.38,0 504.62,0 504.62,-20"/>
<text xml:space="preserve" text-anchor="middle" x="429.5" y="-6.5" font-family="Helvetica,sans-Serif" font-size="10.00">LevelUIDataAsset.generated.h</text>
</a>
</g>
</g>
<!-- Node2&#45;&gt;Node6 -->
<g id="edge5_Node000002_Node000006" class="edge">
<title>Node2&#45;&gt;Node6</title>
<g id="a_edge5_Node000002_Node000006"><a xlink:title=" ">
<path fill="none" stroke="#63b8ff" d="M250.3,-55.59C286.41,-46.61 341.01,-33.02 380.46,-23.2"/>
<polygon fill="#63b8ff" stroke="#63b8ff" points="381.08,-26.66 389.94,-20.84 379.39,-19.86 381.08,-26.66"/>
</a>
</g>
</g>
</g>
</svg>
