<?xml version="1.0" encoding="UTF-8" standalone="no"?>
<!DOCTYPE svg PUBLIC "-//W3C//DTD SVG 1.1//EN"
 "http://www.w3.org/Graphics/SVG/1.1/DTD/svg11.dtd">
<!-- Generated by graphviz version 13.1.1 (20250719.2154)
 -->
<!-- Title: C:/Users/user/Perforce/alz7_CobaltbruWorkspace_00/KPT/Source/KPT/GAS/Abilities/MinionProjectile.cpp Pages: 1 -->
<svg width="371pt" height="232pt"
 viewBox="0.00 0.00 371.00 232.00" xmlns="http://www.w3.org/2000/svg" xmlns:xlink="http://www.w3.org/1999/xlink">
<g id="graph0" class="graph" transform="scale(1 1) rotate(0) translate(4 228)">
<title>C:/Users/user/Perforce/alz7_CobaltbruWorkspace_00/KPT/Source/KPT/GAS/Abilities/MinionProjectile.cpp</title>
<!-- Node1 -->
<g id="Node000001" class="node">
<title>Node1</title>
<g id="a_Node000001"><a xlink:title=" ">
<polygon fill="#999999" stroke="#666666" points="233.5,-224 61.5,-224 61.5,-168 233.5,-168 233.5,-224"/>
<text xml:space="preserve" text-anchor="start" x="69.5" y="-210.5" font-family="Helvetica,sans-Serif" font-size="10.00">C:/Users/user/Perforce</text>
<text xml:space="preserve" text-anchor="start" x="69.5" y="-198.5" font-family="Helvetica,sans-Serif" font-size="10.00">/alz7_CobaltbruWorkspace</text>
<text xml:space="preserve" text-anchor="start" x="69.5" y="-186.5" font-family="Helvetica,sans-Serif" font-size="10.00">_00/KPT/Source/KPT/GAS/Abilities</text>
<text xml:space="preserve" text-anchor="middle" x="147.5" y="-174.5" font-family="Helvetica,sans-Serif" font-size="10.00">/MinionProjectile.cpp</text>
</a>
</g>
</g>
<!-- Node2 -->
<g id="Node000002" class="node">
<title>Node2</title>
<g id="a_Node000002"><a xlink:href="_minion_projectile_8h.html" target="_top" xlink:title=" ">
<polygon fill="white" stroke="#666666" points="194.12,-132 100.88,-132 100.88,-112 194.12,-112 194.12,-132"/>
<text xml:space="preserve" text-anchor="middle" x="147.5" y="-118.5" font-family="Helvetica,sans-Serif" font-size="10.00">MinionProjectile.h</text>
</a>
</g>
</g>
<!-- Node1&#45;&gt;Node2 -->
<g id="edge1_Node000001_Node000002" class="edge">
<title>Node1&#45;&gt;Node2</title>
<g id="a_edge1_Node000001_Node000002"><a xlink:title=" ">
<path fill="none" stroke="#63b8ff" d="M147.5,-167.78C147.5,-159.82 147.5,-151.25 147.5,-143.76"/>
<polygon fill="#63b8ff" stroke="#63b8ff" points="151,-143.99 147.5,-133.99 144,-143.99 151,-143.99"/>
</a>
</g>
</g>
<!-- Node3 -->
<g id="Node000003" class="node">
<title>Node3</title>
<g id="a_Node000003"><a xlink:title=" ">
<polygon fill="#e0e0e0" stroke="#999999" points="79,-20 0,-20 0,0 79,0 79,-20"/>
<text xml:space="preserve" text-anchor="middle" x="39.5" y="-6.5" font-family="Helvetica,sans-Serif" font-size="10.00">CoreMinimal.h</text>
</a>
</g>
</g>
<!-- Node2&#45;&gt;Node3 -->
<g id="edge2_Node000002_Node000003" class="edge">
<title>Node2&#45;&gt;Node3</title>
<g id="a_edge2_Node000002_Node000003"><a xlink:title=" ">
<path fill="none" stroke="#63b8ff" d="M138.29,-111.62C120.2,-93.19 79.76,-52.01 56.62,-28.44"/>
<polygon fill="#63b8ff" stroke="#63b8ff" points="59.25,-26.12 49.75,-21.43 54.25,-31.02 59.25,-26.12"/>
</a>
</g>
</g>
<!-- Node4 -->
<g id="Node000004" class="node">
<title>Node4</title>
<g id="a_Node000004"><a xlink:href="_k_p_t_ability_8h.html" target="_top" xlink:title=" ">
<polygon fill="white" stroke="#666666" points="182.12,-76 112.88,-76 112.88,-56 182.12,-56 182.12,-76"/>
<text xml:space="preserve" text-anchor="middle" x="147.5" y="-62.5" font-family="Helvetica,sans-Serif" font-size="10.00">KPTAbility.h</text>
</a>
</g>
</g>
<!-- Node2&#45;&gt;Node4 -->
<g id="edge3_Node000002_Node000004" class="edge">
<title>Node2&#45;&gt;Node4</title>
<g id="a_edge3_Node000002_Node000004"><a xlink:title=" ">
<path fill="none" stroke="#63b8ff" d="M147.5,-111.59C147.5,-105.01 147.5,-95.96 147.5,-87.73"/>
<polygon fill="#63b8ff" stroke="#63b8ff" points="151,-87.81 147.5,-77.81 144,-87.81 151,-87.81"/>
</a>
</g>
</g>
<!-- Node7 -->
<g id="Node000007" class="node">
<title>Node7</title>
<g id="a_Node000007"><a xlink:title=" ">
<polygon fill="#e0e0e0" stroke="#999999" points="339,-76 200,-76 200,-56 339,-56 339,-76"/>
<text xml:space="preserve" text-anchor="middle" x="269.5" y="-62.5" font-family="Helvetica,sans-Serif" font-size="10.00">MinionProjectile.generated.h</text>
</a>
</g>
</g>
<!-- Node2&#45;&gt;Node7 -->
<g id="edge7_Node000002_Node000007" class="edge">
<title>Node2&#45;&gt;Node7</title>
<g id="a_edge7_Node000002_Node000007"><a xlink:title=" ">
<path fill="none" stroke="#63b8ff" d="M168.75,-111.59C187.79,-103.17 215.98,-90.69 237.7,-81.07"/>
<polygon fill="#63b8ff" stroke="#63b8ff" points="238.97,-84.34 246.7,-77.09 236.14,-77.94 238.97,-84.34"/>
</a>
</g>
</g>
<!-- Node4&#45;&gt;Node3 -->
<g id="edge4_Node000004_Node000003" class="edge">
<title>Node4&#45;&gt;Node3</title>
<g id="a_edge4_Node000004_Node000003"><a xlink:title=" ">
<path fill="none" stroke="#63b8ff" d="M128.69,-55.59C112.14,-47.32 87.79,-35.14 68.71,-25.6"/>
<polygon fill="#63b8ff" stroke="#63b8ff" points="70.32,-22.5 59.81,-21.16 67.19,-28.76 70.32,-22.5"/>
</a>
</g>
</g>
<!-- Node5 -->
<g id="Node000005" class="node">
<title>Node5</title>
<g id="a_Node000005"><a xlink:title=" ">
<polygon fill="#e0e0e0" stroke="#999999" points="229.62,-20 97.38,-20 97.38,0 229.62,0 229.62,-20"/>
<text xml:space="preserve" text-anchor="middle" x="163.5" y="-6.5" font-family="Helvetica,sans-Serif" font-size="10.00">Abilities/GameplayAbility.h</text>
</a>
</g>
</g>
<!-- Node4&#45;&gt;Node5 -->
<g id="edge5_Node000004_Node000005" class="edge">
<title>Node4&#45;&gt;Node5</title>
<g id="a_edge5_Node000004_Node000005"><a xlink:title=" ">
<path fill="none" stroke="#63b8ff" d="M150.29,-55.59C152.28,-48.86 155.05,-39.53 157.53,-31.15"/>
<polygon fill="#63b8ff" stroke="#63b8ff" points="160.83,-32.33 160.31,-21.75 154.12,-30.34 160.83,-32.33"/>
</a>
</g>
</g>
<!-- Node6 -->
<g id="Node000006" class="node">
<title>Node6</title>
<g id="a_Node000006"><a xlink:title=" ">
<polygon fill="#e0e0e0" stroke="#999999" points="363,-20 248,-20 248,0 363,0 363,-20"/>
<text xml:space="preserve" text-anchor="middle" x="305.5" y="-6.5" font-family="Helvetica,sans-Serif" font-size="10.00">KPTAbility.generated.h</text>
</a>
</g>
</g>
<!-- Node4&#45;&gt;Node6 -->
<g id="edge6_Node000004_Node000006" class="edge">
<title>Node4&#45;&gt;Node6</title>
<g id="a_edge6_Node000004_Node000006"><a xlink:title=" ">
<path fill="none" stroke="#63b8ff" d="M175.02,-55.59C200.47,-46.9 238.53,-33.89 266.99,-24.16"/>
<polygon fill="#63b8ff" stroke="#63b8ff" points="268,-27.52 276.33,-20.97 265.74,-20.89 268,-27.52"/>
</a>
</g>
</g>
</g>
</svg>
