<?xml version="1.0" encoding="UTF-8" standalone="no"?>
<!DOCTYPE svg PUBLIC "-//W3C//DTD SVG 1.1//EN"
 "http://www.w3.org/Graphics/SVG/1.1/DTD/svg11.dtd">
<!-- Generated by graphviz version 13.1.1 (20250719.2154)
 -->
<!-- Title: C:/Users/user/Perforce/alz7_CobaltbruWorkspace_00/KPT/Source/KPT/GAS/Abilities/Minion/MinionAbility.h Pages: 1 -->
<svg width="372pt" height="176pt"
 viewBox="0.00 0.00 372.00 176.00" xmlns="http://www.w3.org/2000/svg" xmlns:xlink="http://www.w3.org/1999/xlink">
<g id="graph0" class="graph" transform="scale(1 1) rotate(0) translate(4 172)">
<title>C:/Users/user/Perforce/alz7_CobaltbruWorkspace_00/KPT/Source/KPT/GAS/Abilities/Minion/MinionAbility.h</title>
<!-- Node1 -->
<g id="Node000001" class="node">
<title>Node1</title>
<g id="a_Node000001"><a xlink:title=" ">
<polygon fill="#999999" stroke="#666666" points="241.5,-168 69.5,-168 69.5,-112 241.5,-112 241.5,-168"/>
<text xml:space="preserve" text-anchor="start" x="77.5" y="-154.5" font-family="Helvetica,sans-Serif" font-size="10.00">C:/Users/user/Perforce</text>
<text xml:space="preserve" text-anchor="start" x="77.5" y="-142.5" font-family="Helvetica,sans-Serif" font-size="10.00">/alz7_CobaltbruWorkspace</text>
<text xml:space="preserve" text-anchor="start" x="77.5" y="-130.5" font-family="Helvetica,sans-Serif" font-size="10.00">_00/KPT/Source/KPT/GAS/Abilities</text>
<text xml:space="preserve" text-anchor="middle" x="155.5" y="-118.5" font-family="Helvetica,sans-Serif" font-size="10.00">/Minion/MinionAbility.h</text>
</a>
</g>
</g>
<!-- Node2 -->
<g id="Node000002" class="node">
<title>Node2</title>
<g id="a_Node000002"><a xlink:title=" ">
<polygon fill="#e0e0e0" stroke="#999999" points="79,-20 0,-20 0,0 79,0 79,-20"/>
<text xml:space="preserve" text-anchor="middle" x="39.5" y="-6.5" font-family="Helvetica,sans-Serif" font-size="10.00">CoreMinimal.h</text>
</a>
</g>
</g>
<!-- Node1&#45;&gt;Node2 -->
<g id="edge1_Node000001_Node000002" class="edge">
<title>Node1&#45;&gt;Node2</title>
<g id="a_edge1_Node000001_Node000002"><a xlink:title=" ">
<path fill="none" stroke="#63b8ff" d="M119.32,-111.78C106.62,-101.33 92.73,-88.82 81.5,-76 69.06,-61.81 57.63,-43.62 49.84,-30.1"/>
<polygon fill="#63b8ff" stroke="#63b8ff" points="53.1,-28.76 45.17,-21.74 46.99,-32.17 53.1,-28.76"/>
</a>
</g>
</g>
<!-- Node3 -->
<g id="Node000003" class="node">
<title>Node3</title>
<g id="a_Node000003"><a xlink:href="_k_p_t_ability_8h.html" target="_top" xlink:title=" ">
<polygon fill="white" stroke="#666666" points="220.88,-76 90.12,-76 90.12,-56 220.88,-56 220.88,-76"/>
<text xml:space="preserve" text-anchor="middle" x="155.5" y="-62.5" font-family="Helvetica,sans-Serif" font-size="10.00">GAS/Abilities/KPTAbility.h</text>
</a>
</g>
</g>
<!-- Node1&#45;&gt;Node3 -->
<g id="edge2_Node000001_Node000003" class="edge">
<title>Node1&#45;&gt;Node3</title>
<g id="a_edge2_Node000001_Node000003"><a xlink:title=" ">
<path fill="none" stroke="#63b8ff" d="M155.5,-111.78C155.5,-103.82 155.5,-95.25 155.5,-87.76"/>
<polygon fill="#63b8ff" stroke="#63b8ff" points="159,-87.99 155.5,-77.99 152,-87.99 159,-87.99"/>
</a>
</g>
</g>
<!-- Node6 -->
<g id="Node000006" class="node">
<title>Node6</title>
<g id="a_Node000006"><a xlink:title=" ">
<polygon fill="#e0e0e0" stroke="#999999" points="363.88,-76 239.12,-76 239.12,-56 363.88,-56 363.88,-76"/>
<text xml:space="preserve" text-anchor="middle" x="301.5" y="-62.5" font-family="Helvetica,sans-Serif" font-size="10.00">MinionAbility.generated.h</text>
</a>
</g>
</g>
<!-- Node1&#45;&gt;Node6 -->
<g id="edge6_Node000001_Node000006" class="edge">
<title>Node1&#45;&gt;Node6</title>
<g id="a_edge6_Node000001_Node000006"><a xlink:title=" ">
<path fill="none" stroke="#63b8ff" d="M211.11,-111.57C231.93,-101.31 254.76,-90.05 272.26,-81.42"/>
<polygon fill="#63b8ff" stroke="#63b8ff" points="273.63,-84.65 281.05,-77.08 270.53,-78.37 273.63,-84.65"/>
</a>
</g>
</g>
<!-- Node3&#45;&gt;Node2 -->
<g id="edge3_Node000003_Node000002" class="edge">
<title>Node3&#45;&gt;Node2</title>
<g id="a_edge3_Node000003_Node000002"><a xlink:title=" ">
<path fill="none" stroke="#63b8ff" d="M135.29,-55.59C117.27,-47.21 90.63,-34.8 70.02,-25.21"/>
<polygon fill="#63b8ff" stroke="#63b8ff" points="71.78,-22.17 61.24,-21.12 68.82,-28.51 71.78,-22.17"/>
</a>
</g>
</g>
<!-- Node4 -->
<g id="Node000004" class="node">
<title>Node4</title>
<g id="a_Node000004"><a xlink:title=" ">
<polygon fill="#e0e0e0" stroke="#999999" points="229.62,-20 97.38,-20 97.38,0 229.62,0 229.62,-20"/>
<text xml:space="preserve" text-anchor="middle" x="163.5" y="-6.5" font-family="Helvetica,sans-Serif" font-size="10.00">Abilities/GameplayAbility.h</text>
</a>
</g>
</g>
<!-- Node3&#45;&gt;Node4 -->
<g id="edge4_Node000003_Node000004" class="edge">
<title>Node3&#45;&gt;Node4</title>
<g id="a_edge4_Node000003_Node000004"><a xlink:title=" ">
<path fill="none" stroke="#63b8ff" d="M156.89,-55.59C157.88,-48.93 159.24,-39.75 160.47,-31.44"/>
<polygon fill="#63b8ff" stroke="#63b8ff" points="163.9,-32.2 161.9,-21.8 156.97,-31.17 163.9,-32.2"/>
</a>
</g>
</g>
<!-- Node5 -->
<g id="Node000005" class="node">
<title>Node5</title>
<g id="a_Node000005"><a xlink:title=" ">
<polygon fill="#e0e0e0" stroke="#999999" points="363,-20 248,-20 248,0 363,0 363,-20"/>
<text xml:space="preserve" text-anchor="middle" x="305.5" y="-6.5" font-family="Helvetica,sans-Serif" font-size="10.00">KPTAbility.generated.h</text>
</a>
</g>
</g>
<!-- Node3&#45;&gt;Node5 -->
<g id="edge5_Node000003_Node000005" class="edge">
<title>Node3&#45;&gt;Node5</title>
<g id="a_edge5_Node000003_Node000005"><a xlink:title=" ">
<path fill="none" stroke="#63b8ff" d="M181.63,-55.59C205.68,-46.94 241.6,-34 268.58,-24.29"/>
<polygon fill="#63b8ff" stroke="#63b8ff" points="269.52,-27.67 277.74,-20.99 267.15,-21.09 269.52,-27.67"/>
</a>
</g>
</g>
</g>
</svg>
