<?xml version="1.0" encoding="UTF-8" standalone="no"?>
<!DOCTYPE svg PUBLIC "-//W3C//DTD SVG 1.1//EN"
 "http://www.w3.org/Graphics/SVG/1.1/DTD/svg11.dtd">
<!-- Generated by graphviz version 13.1.1 (20250719.2154)
 -->
<!-- Title: C:/Users/user/Perforce/alz7_CobaltbruWorkspace_00/KPT/Source/KPT/GAS/Abilities/MinionProjectile.h Pages: 1 -->
<svg width="371pt" height="176pt"
 viewBox="0.00 0.00 371.00 176.00" xmlns="http://www.w3.org/2000/svg" xmlns:xlink="http://www.w3.org/1999/xlink">

<svg id="main" version="1.1" xmlns="http://www.w3.org/2000/svg" xmlns:xlink="http://www.w3.org/1999/xlink" xml:space="preserve">

<style type="text/css"><![CDATA[
.node, .edge {opacity: 0.7;}
.node.selected, .edge.selected {opacity: 1;}
.edge:hover path { stroke: red; }
.edge:hover polygon { stroke: red; fill: red; }
]]></style>
<script type="application/ecmascript" xlink:href="svg.min.js"/>
<svg id="graph" class="graph">
<g id="graph0" class="graph" transform="scale(1 1) rotate(0) translate(4 172)">
<title>C:/Users/user/Perforce/alz7_CobaltbruWorkspace_00/KPT/Source/KPT/GAS/Abilities/MinionProjectile.h</title>
<!-- Node1 -->
<g id="Node000001" class="node">
<title>Node1</title>
<g id="a_Node000001"><a xlink:title=" ">
<polygon fill="#999999" stroke="#666666" points="233.5,-168 61.5,-168 61.5,-112 233.5,-112 233.5,-168"/>
<text xml:space="preserve" text-anchor="start" x="69.5" y="-154.5" font-family="Helvetica,sans-Serif" font-size="10.00">C:/Users/user/Perforce</text>
<text xml:space="preserve" text-anchor="start" x="69.5" y="-142.5" font-family="Helvetica,sans-Serif" font-size="10.00">/alz7_CobaltbruWorkspace</text>
<text xml:space="preserve" text-anchor="start" x="69.5" y="-130.5" font-family="Helvetica,sans-Serif" font-size="10.00">_00/KPT/Source/KPT/GAS/Abilities</text>
<text xml:space="preserve" text-anchor="middle" x="147.5" y="-118.5" font-family="Helvetica,sans-Serif" font-size="10.00">/MinionProjectile.h</text>
</a>
</g>
</g>
<!-- Node2 -->
<g id="Node000002" class="node">
<title>Node2</title>
<g id="a_Node000002"><a xlink:title=" ">
<polygon fill="#e0e0e0" stroke="#999999" points="79,-20 0,-20 0,0 79,0 79,-20"/>
<text xml:space="preserve" text-anchor="middle" x="39.5" y="-6.5" font-family="Helvetica,sans-Serif" font-size="10.00">CoreMinimal.h</text>
</a>
</g>
</g>
<!-- Node1&#45;&gt;Node2 -->
<g id="edge1_Node000001_Node000002" class="edge">
<title>Node1&#45;&gt;Node2</title>
<g id="a_edge1_Node000001_Node000002"><a xlink:title=" ">
<path fill="none" stroke="#63b8ff" d="M124.33,-111.54C103.26,-86.57 72.78,-50.44 54.66,-28.97"/>
<polygon fill="#63b8ff" stroke="#63b8ff" points="57.39,-26.78 48.27,-21.39 52.04,-31.29 57.39,-26.78"/>
</a>
</g>
</g>
<!-- Node3 -->
<g id="Node000003" class="node">
<title>Node3</title>
<g id="a_Node000003"><a xlink:href="_k_p_t_ability_8h.html" target="_top" xlink:title=" ">
<polygon fill="white" stroke="#666666" points="182.12,-76 112.88,-76 112.88,-56 182.12,-56 182.12,-76"/>
<text xml:space="preserve" text-anchor="middle" x="147.5" y="-62.5" font-family="Helvetica,sans-Serif" font-size="10.00">KPTAbility.h</text>
</a>
</g>
</g>
<!-- Node1&#45;&gt;Node3 -->
<g id="edge2_Node000001_Node000003" class="edge">
<title>Node1&#45;&gt;Node3</title>
<g id="a_edge2_Node000001_Node000003"><a xlink:title=" ">
<path fill="none" stroke="#63b8ff" d="M147.5,-111.78C147.5,-103.82 147.5,-95.25 147.5,-87.76"/>
<polygon fill="#63b8ff" stroke="#63b8ff" points="151,-87.99 147.5,-77.99 144,-87.99 151,-87.99"/>
</a>
</g>
</g>
<!-- Node6 -->
<g id="Node000006" class="node">
<title>Node6</title>
<g id="a_Node000006"><a xlink:title=" ">
<polygon fill="#e0e0e0" stroke="#999999" points="339,-76 200,-76 200,-56 339,-56 339,-76"/>
<text xml:space="preserve" text-anchor="middle" x="269.5" y="-62.5" font-family="Helvetica,sans-Serif" font-size="10.00">MinionProjectile.generated.h</text>
</a>
</g>
</g>
<!-- Node1&#45;&gt;Node6 -->
<g id="edge6_Node000001_Node000006" class="edge">
<title>Node1&#45;&gt;Node6</title>
<g id="a_edge6_Node000001_Node000006"><a xlink:title=" ">
<path fill="none" stroke="#63b8ff" d="M193.97,-111.57C210.88,-101.6 229.36,-90.69 243.82,-82.16"/>
<polygon fill="#63b8ff" stroke="#63b8ff" points="245.41,-85.28 252.24,-77.18 241.85,-79.25 245.41,-85.28"/>
</a>
</g>
</g>
<!-- Node3&#45;&gt;Node2 -->
<g id="edge3_Node000003_Node000002" class="edge">
<title>Node3&#45;&gt;Node2</title>
<g id="a_edge3_Node000003_Node000002"><a xlink:title=" ">
<path fill="none" stroke="#63b8ff" d="M128.69,-55.59C112.14,-47.32 87.79,-35.14 68.71,-25.6"/>
<polygon fill="#63b8ff" stroke="#63b8ff" points="70.32,-22.5 59.81,-21.16 67.19,-28.76 70.32,-22.5"/>
</a>
</g>
</g>
<!-- Node4 -->
<g id="Node000004" class="node">
<title>Node4</title>
<g id="a_Node000004"><a xlink:title=" ">
<polygon fill="#e0e0e0" stroke="#999999" points="229.62,-20 97.38,-20 97.38,0 229.62,0 229.62,-20"/>
<text xml:space="preserve" text-anchor="middle" x="163.5" y="-6.5" font-family="Helvetica,sans-Serif" font-size="10.00">Abilities/GameplayAbility.h</text>
</a>
</g>
</g>
<!-- Node3&#45;&gt;Node4 -->
<g id="edge4_Node000003_Node000004" class="edge">
<title>Node3&#45;&gt;Node4</title>
<g id="a_edge4_Node000003_Node000004"><a xlink:title=" ">
<path fill="none" stroke="#63b8ff" d="M150.29,-55.59C152.28,-48.86 155.05,-39.53 157.53,-31.15"/>
<polygon fill="#63b8ff" stroke="#63b8ff" points="160.83,-32.33 160.31,-21.75 154.12,-30.34 160.83,-32.33"/>
</a>
</g>
</g>
<!-- Node5 -->
<g id="Node000005" class="node">
<title>Node5</title>
<g id="a_Node000005"><a xlink:title=" ">
<polygon fill="#e0e0e0" stroke="#999999" points="363,-20 248,-20 248,0 363,0 363,-20"/>
<text xml:space="preserve" text-anchor="middle" x="305.5" y="-6.5" font-family="Helvetica,sans-Serif" font-size="10.00">KPTAbility.generated.h</text>
</a>
</g>
</g>
<!-- Node3&#45;&gt;Node5 -->
<g id="edge5_Node000003_Node000005" class="edge">
<title>Node3&#45;&gt;Node5</title>
<g id="a_edge5_Node000003_Node000005"><a xlink:title=" ">
<path fill="none" stroke="#63b8ff" d="M175.02,-55.59C200.47,-46.9 238.53,-33.89 266.99,-24.16"/>
<polygon fill="#63b8ff" stroke="#63b8ff" points="268,-27.52 276.33,-20.97 265.74,-20.89 268,-27.52"/>
</a>
</g>
</g>
</g>
</svg>
</svg>

<style type='text/css'>
<![CDATA[
[data-mouse-over-selected='false'] { opacity: 0.7; }
[data-mouse-over-selected='true']  { opacity: 1.0; }
]]>
</style>
<script type="application/ecmascript"><![CDATA[
document.addEventListener('DOMContentLoaded', (event) => {
  highlightEdges();
  highlightAdjacentNodes();
});
]]></script>
</svg>
