<?xml version="1.0" encoding="UTF-8" standalone="no"?>
<!DOCTYPE svg PUBLIC "-//W3C//DTD SVG 1.1//EN"
 "http://www.w3.org/Graphics/SVG/1.1/DTD/svg11.dtd">
<!-- Generated by graphviz version 13.1.1 (20250719.2154)
 -->
<!-- Title: C:/Users/user/Perforce/alz7_CobaltbruWorkspace_00/KPT/Source/KPT/GAS/Abilities/Minion/AbilityActor/MinionSuicideActor.h Pages: 1 -->
<svg width="403pt" height="120pt"
 viewBox="0.00 0.00 403.00 120.00" xmlns="http://www.w3.org/2000/svg" xmlns:xlink="http://www.w3.org/1999/xlink">
<g id="graph0" class="graph" transform="scale(1 1) rotate(0) translate(4 116)">
<title>C:/Users/user/Perforce/alz7_CobaltbruWorkspace_00/KPT/Source/KPT/GAS/Abilities/Minion/AbilityActor/MinionSuicideActor.h</title>
<!-- Node1 -->
<g id="Node000001" class="node">
<title>Node1</title>
<g id="a_Node000001"><a xlink:title=" ">
<polygon fill="#999999" stroke="#666666" points="257.5,-112 61.5,-112 61.5,-56 257.5,-56 257.5,-112"/>
<text xml:space="preserve" text-anchor="start" x="69.5" y="-98.5" font-family="Helvetica,sans-Serif" font-size="10.00">C:/Users/user/Perforce</text>
<text xml:space="preserve" text-anchor="start" x="69.5" y="-86.5" font-family="Helvetica,sans-Serif" font-size="10.00">/alz7_CobaltbruWorkspace</text>
<text xml:space="preserve" text-anchor="start" x="69.5" y="-74.5" font-family="Helvetica,sans-Serif" font-size="10.00">_00/KPT/Source/KPT/GAS/Abilities</text>
<text xml:space="preserve" text-anchor="middle" x="159.5" y="-62.5" font-family="Helvetica,sans-Serif" font-size="10.00">/Minion/AbilityActor/MinionSuicideActor.h</text>
</a>
</g>
</g>
<!-- Node2 -->
<g id="Node000002" class="node">
<title>Node2</title>
<g id="a_Node000002"><a xlink:title=" ">
<polygon fill="#e0e0e0" stroke="#999999" points="79,-20 0,-20 0,0 79,0 79,-20"/>
<text xml:space="preserve" text-anchor="middle" x="39.5" y="-6.5" font-family="Helvetica,sans-Serif" font-size="10.00">CoreMinimal.h</text>
</a>
</g>
</g>
<!-- Node1&#45;&gt;Node2 -->
<g id="edge1_Node000001_Node000002" class="edge">
<title>Node1&#45;&gt;Node2</title>
<g id="a_edge1_Node000001_Node000002"><a xlink:title=" ">
<path fill="none" stroke="#63b8ff" d="M113.79,-55.57C97.16,-45.6 78.98,-34.69 64.76,-26.16"/>
<polygon fill="#63b8ff" stroke="#63b8ff" points="66.87,-23.34 56.49,-21.19 63.26,-29.34 66.87,-23.34"/>
</a>
</g>
</g>
<!-- Node3 -->
<g id="Node000003" class="node">
<title>Node3</title>
<g id="a_Node000003"><a xlink:title=" ">
<polygon fill="#e0e0e0" stroke="#999999" points="222.25,-20 96.75,-20 96.75,0 222.25,0 222.25,-20"/>
<text xml:space="preserve" text-anchor="middle" x="159.5" y="-6.5" font-family="Helvetica,sans-Serif" font-size="10.00">GameFramework/Actor.h</text>
</a>
</g>
</g>
<!-- Node1&#45;&gt;Node3 -->
<g id="edge2_Node000001_Node000003" class="edge">
<title>Node1&#45;&gt;Node3</title>
<g id="a_edge2_Node000001_Node000003"><a xlink:title=" ">
<path fill="none" stroke="#63b8ff" d="M159.5,-55.78C159.5,-47.82 159.5,-39.25 159.5,-31.76"/>
<polygon fill="#63b8ff" stroke="#63b8ff" points="163,-31.99 159.5,-21.99 156,-31.99 163,-31.99"/>
</a>
</g>
</g>
<!-- Node4 -->
<g id="Node000004" class="node">
<title>Node4</title>
<g id="a_Node000004"><a xlink:title=" ">
<polygon fill="#e0e0e0" stroke="#999999" points="394.5,-20 240.5,-20 240.5,0 394.5,0 394.5,-20"/>
<text xml:space="preserve" text-anchor="middle" x="317.5" y="-6.5" font-family="Helvetica,sans-Serif" font-size="10.00">MinionSuicideActor.generated.h</text>
</a>
</g>
</g>
<!-- Node1&#45;&gt;Node4 -->
<g id="edge3_Node000001_Node000004" class="edge">
<title>Node1&#45;&gt;Node4</title>
<g id="a_edge3_Node000001_Node000004"><a xlink:title=" ">
<path fill="none" stroke="#63b8ff" d="M219.68,-55.57C242.43,-45.21 267.38,-33.84 286.39,-25.17"/>
<polygon fill="#63b8ff" stroke="#63b8ff" points="287.81,-28.37 295.46,-21.04 284.91,-22 287.81,-28.37"/>
</a>
</g>
</g>
</g>
</svg>
