<?xml version="1.0" encoding="UTF-8" standalone="no"?>
<!DOCTYPE svg PUBLIC "-//W3C//DTD SVG 1.1//EN"
 "http://www.w3.org/Graphics/SVG/1.1/DTD/svg11.dtd">
<!-- Generated by graphviz version 13.1.1 (20250719.2154)
 -->
<!-- Title: C:/Users/user/Perforce/alz7_CobaltbruWorkspace_00/KPT/Source/KPT/Mission/MissionInterface.h Pages: 1 -->
<svg width="1025pt" height="340pt"
 viewBox="0.00 0.00 1025.00 340.00" xmlns="http://www.w3.org/2000/svg" xmlns:xlink="http://www.w3.org/1999/xlink">
<g id="graph0" class="graph" transform="scale(1 1) rotate(0) translate(4 336)">
<title>C:/Users/user/Perforce/alz7_CobaltbruWorkspace_00/KPT/Source/KPT/Mission/MissionInterface.h</title>
<!-- Node1 -->
<g id="Node000001" class="node">
<title>Node1</title>
<g id="a_Node000001"><a xlink:title=" ">
<polygon fill="#999999" stroke="#666666" points="400.25,-332 253,-332 253,-276 400.25,-276 400.25,-332"/>
<text xml:space="preserve" text-anchor="start" x="261" y="-318.5" font-family="Helvetica,sans-Serif" font-size="10.00">C:/Users/user/Perforce</text>
<text xml:space="preserve" text-anchor="start" x="261" y="-306.5" font-family="Helvetica,sans-Serif" font-size="10.00">/alz7_CobaltbruWorkspace</text>
<text xml:space="preserve" text-anchor="start" x="261" y="-294.5" font-family="Helvetica,sans-Serif" font-size="10.00">_00/KPT/Source/KPT/Mission</text>
<text xml:space="preserve" text-anchor="middle" x="326.62" y="-282.5" font-family="Helvetica,sans-Serif" font-size="10.00">/MissionInterface.h</text>
</a>
</g>
</g>
<!-- Node2 -->
<g id="Node000002" class="node">
<title>Node2</title>
<g id="a_Node000002"><a xlink:href="_mission_actor_base_8h.html" target="_top" xlink:title=" ">
<polygon fill="white" stroke="#666666" points="400.25,-240 253,-240 253,-184 400.25,-184 400.25,-240"/>
<text xml:space="preserve" text-anchor="start" x="261" y="-226.5" font-family="Helvetica,sans-Serif" font-size="10.00">C:/Users/user/Perforce</text>
<text xml:space="preserve" text-anchor="start" x="261" y="-214.5" font-family="Helvetica,sans-Serif" font-size="10.00">/alz7_CobaltbruWorkspace</text>
<text xml:space="preserve" text-anchor="start" x="261" y="-202.5" font-family="Helvetica,sans-Serif" font-size="10.00">_00/KPT/Source/KPT/Mission</text>
<text xml:space="preserve" text-anchor="middle" x="326.62" y="-190.5" font-family="Helvetica,sans-Serif" font-size="10.00">/MissionActorBase.h</text>
</a>
</g>
</g>
<!-- Node1&#45;&gt;Node2 -->
<g id="edge1_Node000001_Node000002" class="edge">
<title>Node1&#45;&gt;Node2</title>
<g id="a_edge1_Node000001_Node000002"><a xlink:title=" ">
<path fill="none" stroke="#63b8ff" d="M326.62,-264.09C326.62,-256.08 326.62,-247.81 326.62,-240.32"/>
<polygon fill="#63b8ff" stroke="#63b8ff" points="323.13,-263.99 326.63,-273.99 330.13,-263.99 323.13,-263.99"/>
</a>
</g>
</g>
<!-- Node6 -->
<g id="Node000006" class="node">
<title>Node6</title>
<g id="a_Node000006"><a xlink:href="_mission_manager_8cpp.html" target="_top" xlink:title=" ">
<polygon fill="white" stroke="#666666" points="147.25,-56 0,-56 0,0 147.25,0 147.25,-56"/>
<text xml:space="preserve" text-anchor="start" x="8" y="-42.5" font-family="Helvetica,sans-Serif" font-size="10.00">C:/Users/user/Perforce</text>
<text xml:space="preserve" text-anchor="start" x="8" y="-30.5" font-family="Helvetica,sans-Serif" font-size="10.00">/alz7_CobaltbruWorkspace</text>
<text xml:space="preserve" text-anchor="start" x="8" y="-18.5" font-family="Helvetica,sans-Serif" font-size="10.00">_00/KPT/Source/KPT/Mission</text>
<text xml:space="preserve" text-anchor="middle" x="73.62" y="-6.5" font-family="Helvetica,sans-Serif" font-size="10.00">/MissionManager.cpp</text>
</a>
</g>
</g>
<!-- Node1&#45;&gt;Node6 -->
<g id="edge14_Node000001_Node000006" class="edge">
<title>Node1&#45;&gt;Node6</title>
<g id="a_edge14_Node000001_Node000006"><a xlink:title=" ">
<path fill="none" stroke="#63b8ff" d="M254.28,-270.42C204.33,-244.27 140.35,-202.87 102.62,-148 83.71,-120.49 77.09,-81.96 74.8,-56.28"/>
<polygon fill="#63b8ff" stroke="#63b8ff" points="252.55,-273.47 263.05,-274.92 255.75,-267.24 252.55,-273.47"/>
</a>
</g>
</g>
<!-- Node13 -->
<g id="Node000013" class="node">
<title>Node13</title>
<g id="a_Node000013"><a xlink:href="_mission_interface_8cpp.html" target="_top" xlink:title=" ">
<polygon fill="white" stroke="#666666" points="565.25,-240 418,-240 418,-184 565.25,-184 565.25,-240"/>
<text xml:space="preserve" text-anchor="start" x="426" y="-226.5" font-family="Helvetica,sans-Serif" font-size="10.00">C:/Users/user/Perforce</text>
<text xml:space="preserve" text-anchor="start" x="426" y="-214.5" font-family="Helvetica,sans-Serif" font-size="10.00">/alz7_CobaltbruWorkspace</text>
<text xml:space="preserve" text-anchor="start" x="426" y="-202.5" font-family="Helvetica,sans-Serif" font-size="10.00">_00/KPT/Source/KPT/Mission</text>
<text xml:space="preserve" text-anchor="middle" x="491.62" y="-190.5" font-family="Helvetica,sans-Serif" font-size="10.00">/MissionInterface.cpp</text>
</a>
</g>
</g>
<!-- Node1&#45;&gt;Node13 -->
<g id="edge13_Node000001_Node000013" class="edge">
<title>Node1&#45;&gt;Node13</title>
<g id="a_edge13_Node000001_Node000013"><a xlink:title=" ">
<path fill="none" stroke="#63b8ff" d="M386.78,-270.19C404.66,-260.43 424.06,-249.86 441.25,-240.48"/>
<polygon fill="#63b8ff" stroke="#63b8ff" points="385.46,-266.92 378.36,-274.78 388.81,-273.07 385.46,-266.92"/>
</a>
</g>
</g>
<!-- Node3 -->
<g id="Node000003" class="node">
<title>Node3</title>
<g id="a_Node000003"><a xlink:href="_mission_actor_base_8cpp.html" target="_top" xlink:title=" ">
<polygon fill="white" stroke="#666666" points="661.25,-148 514,-148 514,-92 661.25,-92 661.25,-148"/>
<text xml:space="preserve" text-anchor="start" x="522" y="-134.5" font-family="Helvetica,sans-Serif" font-size="10.00">C:/Users/user/Perforce</text>
<text xml:space="preserve" text-anchor="start" x="522" y="-122.5" font-family="Helvetica,sans-Serif" font-size="10.00">/alz7_CobaltbruWorkspace</text>
<text xml:space="preserve" text-anchor="start" x="522" y="-110.5" font-family="Helvetica,sans-Serif" font-size="10.00">_00/KPT/Source/KPT/Mission</text>
<text xml:space="preserve" text-anchor="middle" x="587.62" y="-98.5" font-family="Helvetica,sans-Serif" font-size="10.00">/MissionActorBase.cpp</text>
</a>
</g>
</g>
<!-- Node2&#45;&gt;Node3 -->
<g id="edge2_Node000002_Node000003" class="edge">
<title>Node2&#45;&gt;Node3</title>
<g id="a_edge2_Node000002_Node000003"><a xlink:title=" ">
<path fill="none" stroke="#63b8ff" d="M411.28,-181.81C444.33,-170.41 481.87,-157.47 513.8,-146.46"/>
<polygon fill="#63b8ff" stroke="#63b8ff" points="410.46,-178.39 402.15,-184.96 412.74,-185.01 410.46,-178.39"/>
</a>
</g>
</g>
<!-- Node4 -->
<g id="Node000004" class="node">
<title>Node4</title>
<g id="a_Node000004"><a xlink:href="_mission_data_table_row_8h.html" target="_top" xlink:title=" ">
<polygon fill="white" stroke="#666666" points="312.25,-148 165,-148 165,-92 312.25,-92 312.25,-148"/>
<text xml:space="preserve" text-anchor="start" x="173" y="-134.5" font-family="Helvetica,sans-Serif" font-size="10.00">C:/Users/user/Perforce</text>
<text xml:space="preserve" text-anchor="start" x="173" y="-122.5" font-family="Helvetica,sans-Serif" font-size="10.00">/alz7_CobaltbruWorkspace</text>
<text xml:space="preserve" text-anchor="start" x="173" y="-110.5" font-family="Helvetica,sans-Serif" font-size="10.00">_00/KPT/Source/KPT/Mission</text>
<text xml:space="preserve" text-anchor="middle" x="238.62" y="-98.5" font-family="Helvetica,sans-Serif" font-size="10.00">/MissionDataTableRow.h</text>
</a>
</g>
</g>
<!-- Node2&#45;&gt;Node4 -->
<g id="edge3_Node000002_Node000004" class="edge">
<title>Node2&#45;&gt;Node4</title>
<g id="a_edge3_Node000002_Node000004"><a xlink:title=" ">
<path fill="none" stroke="#63b8ff" d="M291.84,-175.42C283.02,-166.4 273.69,-156.86 265.34,-148.32"/>
<polygon fill="#63b8ff" stroke="#63b8ff" points="289.19,-177.72 298.69,-182.43 294.2,-172.83 289.19,-177.72"/>
</a>
</g>
</g>
<!-- Node2&#45;&gt;Node6 -->
<g id="edge6_Node000002_Node000006" class="edge">
<title>Node2&#45;&gt;Node6</title>
<g id="a_edge6_Node000002_Node000006"><a xlink:title=" ">
<path fill="none" stroke="#63b8ff" d="M241.92,-191.13C212.58,-181.44 180.77,-167.53 155.62,-148 123.92,-123.38 99.81,-83.05 86.19,-56.27"/>
<polygon fill="#63b8ff" stroke="#63b8ff" points="240.56,-194.37 251.16,-194.06 242.68,-187.7 240.56,-194.37"/>
</a>
</g>
</g>
<!-- Node7 -->
<g id="Node000007" class="node">
<title>Node7</title>
<g id="a_Node000007"><a xlink:href="_mission___one_bound_8h.html" target="_top" xlink:title=" ">
<polygon fill="white" stroke="#666666" points="496,-148 335.25,-148 335.25,-92 496,-92 496,-148"/>
<text xml:space="preserve" text-anchor="start" x="343.25" y="-134.5" font-family="Helvetica,sans-Serif" font-size="10.00">C:/Users/user/Perforce</text>
<text xml:space="preserve" text-anchor="start" x="343.25" y="-122.5" font-family="Helvetica,sans-Serif" font-size="10.00">/alz7_CobaltbruWorkspace</text>
<text xml:space="preserve" text-anchor="start" x="343.25" y="-110.5" font-family="Helvetica,sans-Serif" font-size="10.00">_00/KPT/Source/KPT/Mission</text>
<text xml:space="preserve" text-anchor="middle" x="415.62" y="-98.5" font-family="Helvetica,sans-Serif" font-size="10.00">/OneBound/Mission_OneBound.h</text>
</a>
</g>
</g>
<!-- Node2&#45;&gt;Node7 -->
<g id="edge7_Node000002_Node000007" class="edge">
<title>Node2&#45;&gt;Node7</title>
<g id="a_edge7_Node000002_Node000007"><a xlink:title=" ">
<path fill="none" stroke="#63b8ff" d="M361.81,-175.42C370.73,-166.4 380.16,-156.86 388.6,-148.32"/>
<polygon fill="#63b8ff" stroke="#63b8ff" points="359.42,-172.86 354.88,-182.43 364.4,-177.78 359.42,-172.86"/>
</a>
</g>
</g>
<!-- Node11 -->
<g id="Node000011" class="node">
<title>Node11</title>
<g id="a_Node000011"><a xlink:href="_mission___splatoon_8h.html" target="_top" xlink:title=" ">
<polygon fill="white" stroke="#666666" points="919.25,-148 772,-148 772,-92 919.25,-92 919.25,-148"/>
<text xml:space="preserve" text-anchor="start" x="780" y="-134.5" font-family="Helvetica,sans-Serif" font-size="10.00">C:/Users/user/Perforce</text>
<text xml:space="preserve" text-anchor="start" x="780" y="-122.5" font-family="Helvetica,sans-Serif" font-size="10.00">/alz7_CobaltbruWorkspace</text>
<text xml:space="preserve" text-anchor="start" x="780" y="-110.5" font-family="Helvetica,sans-Serif" font-size="10.00">_00/KPT/Source/KPT/Mission</text>
<text xml:space="preserve" text-anchor="middle" x="845.62" y="-98.5" font-family="Helvetica,sans-Serif" font-size="10.00">/Splatoon/Mission_Splatoon.h</text>
</a>
</g>
</g>
<!-- Node2&#45;&gt;Node11 -->
<g id="edge11_Node000002_Node000011" class="edge">
<title>Node2&#45;&gt;Node11</title>
<g id="a_edge11_Node000002_Node000011"><a xlink:title=" ">
<path fill="none" stroke="#63b8ff" d="M411.87,-183.39C525.17,-157.95 557.95,-164.43 670.62,-148 703.78,-143.16 740.43,-137.55 771.58,-132.7"/>
<polygon fill="#63b8ff" stroke="#63b8ff" points="411.1,-179.98 402.13,-185.62 412.65,-186.81 411.1,-179.98"/>
</a>
</g>
</g>
<!-- Node5 -->
<g id="Node000005" class="node">
<title>Node5</title>
<g id="a_Node000005"><a xlink:href="_mission_data_table_row_8cpp.html" target="_top" xlink:title=" ">
<polygon fill="white" stroke="#666666" points="312.25,-56 165,-56 165,0 312.25,0 312.25,-56"/>
<text xml:space="preserve" text-anchor="start" x="173" y="-42.5" font-family="Helvetica,sans-Serif" font-size="10.00">C:/Users/user/Perforce</text>
<text xml:space="preserve" text-anchor="start" x="173" y="-30.5" font-family="Helvetica,sans-Serif" font-size="10.00">/alz7_CobaltbruWorkspace</text>
<text xml:space="preserve" text-anchor="start" x="173" y="-18.5" font-family="Helvetica,sans-Serif" font-size="10.00">_00/KPT/Source/KPT/Mission</text>
<text xml:space="preserve" text-anchor="middle" x="238.62" y="-6.5" font-family="Helvetica,sans-Serif" font-size="10.00">/MissionDataTableRow.cpp</text>
</a>
</g>
</g>
<!-- Node4&#45;&gt;Node5 -->
<g id="edge4_Node000004_Node000005" class="edge">
<title>Node4&#45;&gt;Node5</title>
<g id="a_edge4_Node000004_Node000005"><a xlink:title=" ">
<path fill="none" stroke="#63b8ff" d="M238.62,-80.09C238.62,-72.08 238.62,-63.81 238.62,-56.32"/>
<polygon fill="#63b8ff" stroke="#63b8ff" points="235.13,-79.99 238.63,-89.99 242.13,-79.99 235.13,-79.99"/>
</a>
</g>
</g>
<!-- Node4&#45;&gt;Node6 -->
<g id="edge5_Node000004_Node000006" class="edge">
<title>Node4&#45;&gt;Node6</title>
<g id="a_edge5_Node000004_Node000006"><a xlink:title=" ">
<path fill="none" stroke="#63b8ff" d="M178.47,-86.19C160.59,-76.43 141.19,-65.86 124,-56.48"/>
<polygon fill="#63b8ff" stroke="#63b8ff" points="176.44,-89.07 186.89,-90.78 179.79,-82.92 176.44,-89.07"/>
</a>
</g>
</g>
<!-- Node8 -->
<g id="Node000008" class="node">
<title>Node8</title>
<g id="a_Node000008"><a xlink:href="_bouncing_ball_8cpp.html" target="_top" xlink:title=" ">
<polygon fill="white" stroke="#666666" points="666.25,-56 519,-56 519,0 666.25,0 666.25,-56"/>
<text xml:space="preserve" text-anchor="start" x="527" y="-42.5" font-family="Helvetica,sans-Serif" font-size="10.00">C:/Users/user/Perforce</text>
<text xml:space="preserve" text-anchor="start" x="527" y="-30.5" font-family="Helvetica,sans-Serif" font-size="10.00">/alz7_CobaltbruWorkspace</text>
<text xml:space="preserve" text-anchor="start" x="527" y="-18.5" font-family="Helvetica,sans-Serif" font-size="10.00">_00/KPT/Source/KPT/Mission</text>
<text xml:space="preserve" text-anchor="middle" x="592.62" y="-6.5" font-family="Helvetica,sans-Serif" font-size="10.00">/OneBound/BouncingBall.cpp</text>
</a>
</g>
</g>
<!-- Node7&#45;&gt;Node8 -->
<g id="edge8_Node000007_Node000008" class="edge">
<title>Node7&#45;&gt;Node8</title>
<g id="a_edge8_Node000007_Node000008"><a xlink:title=" ">
<path fill="none" stroke="#63b8ff" d="M479.89,-86.32C499.14,-76.53 520.06,-65.9 538.58,-56.48"/>
<polygon fill="#63b8ff" stroke="#63b8ff" points="478.37,-83.17 471.04,-90.82 481.54,-89.41 478.37,-83.17"/>
</a>
</g>
</g>
<!-- Node9 -->
<g id="Node000009" class="node">
<title>Node9</title>
<g id="a_Node000009"><a xlink:href="_landing_indicator_8cpp.html" target="_top" xlink:title=" ">
<polygon fill="white" stroke="#666666" points="842.5,-56 684.75,-56 684.75,0 842.5,0 842.5,-56"/>
<text xml:space="preserve" text-anchor="start" x="692.75" y="-42.5" font-family="Helvetica,sans-Serif" font-size="10.00">C:/Users/user/Perforce</text>
<text xml:space="preserve" text-anchor="start" x="692.75" y="-30.5" font-family="Helvetica,sans-Serif" font-size="10.00">/alz7_CobaltbruWorkspace</text>
<text xml:space="preserve" text-anchor="start" x="692.75" y="-18.5" font-family="Helvetica,sans-Serif" font-size="10.00">_00/KPT/Source/KPT/Mission</text>
<text xml:space="preserve" text-anchor="middle" x="763.62" y="-6.5" font-family="Helvetica,sans-Serif" font-size="10.00">/OneBound/LandingIndicator.cpp</text>
</a>
</g>
</g>
<!-- Node7&#45;&gt;Node9 -->
<g id="edge9_Node000007_Node000009" class="edge">
<title>Node7&#45;&gt;Node9</title>
<g id="a_edge9_Node000007_Node000009"><a xlink:title=" ">
<path fill="none" stroke="#63b8ff" d="M506.99,-91.49C581.81,-72.91 603.8,-74.54 675.62,-56 678.56,-55.24 681.55,-54.45 684.57,-53.62"/>
<polygon fill="#63b8ff" stroke="#63b8ff" points="506.37,-88.04 497.53,-93.88 508.09,-94.82 506.37,-88.04"/>
</a>
</g>
</g>
<!-- Node10 -->
<g id="Node000010" class="node">
<title>Node10</title>
<g id="a_Node000010"><a xlink:href="_mission___one_bound_8cpp.html" target="_top" xlink:title=" ">
<polygon fill="white" stroke="#666666" points="501.25,-56 330,-56 330,0 501.25,0 501.25,-56"/>
<text xml:space="preserve" text-anchor="start" x="338" y="-42.5" font-family="Helvetica,sans-Serif" font-size="10.00">C:/Users/user/Perforce</text>
<text xml:space="preserve" text-anchor="start" x="338" y="-30.5" font-family="Helvetica,sans-Serif" font-size="10.00">/alz7_CobaltbruWorkspace</text>
<text xml:space="preserve" text-anchor="start" x="338" y="-18.5" font-family="Helvetica,sans-Serif" font-size="10.00">_00/KPT/Source/KPT/Mission</text>
<text xml:space="preserve" text-anchor="middle" x="415.62" y="-6.5" font-family="Helvetica,sans-Serif" font-size="10.00">/OneBound/Mission_OneBound.cpp</text>
</a>
</g>
</g>
<!-- Node7&#45;&gt;Node10 -->
<g id="edge10_Node000007_Node000010" class="edge">
<title>Node7&#45;&gt;Node10</title>
<g id="a_edge10_Node000007_Node000010"><a xlink:title=" ">
<path fill="none" stroke="#63b8ff" d="M415.62,-80.09C415.62,-72.08 415.62,-63.81 415.62,-56.32"/>
<polygon fill="#63b8ff" stroke="#63b8ff" points="412.13,-79.99 415.63,-89.99 419.13,-79.99 412.13,-79.99"/>
</a>
</g>
</g>
<!-- Node12 -->
<g id="Node000012" class="node">
<title>Node12</title>
<g id="a_Node000012"><a xlink:href="_mission___splatoon_8cpp.html" target="_top" xlink:title=" ">
<polygon fill="white" stroke="#666666" points="1016.75,-56 860.5,-56 860.5,0 1016.75,0 1016.75,-56"/>
<text xml:space="preserve" text-anchor="start" x="868.5" y="-42.5" font-family="Helvetica,sans-Serif" font-size="10.00">C:/Users/user/Perforce</text>
<text xml:space="preserve" text-anchor="start" x="868.5" y="-30.5" font-family="Helvetica,sans-Serif" font-size="10.00">/alz7_CobaltbruWorkspace</text>
<text xml:space="preserve" text-anchor="start" x="868.5" y="-18.5" font-family="Helvetica,sans-Serif" font-size="10.00">_00/KPT/Source/KPT/Mission</text>
<text xml:space="preserve" text-anchor="middle" x="938.62" y="-6.5" font-family="Helvetica,sans-Serif" font-size="10.00">/Splatoon/Mission_Splatoon.cpp</text>
</a>
</g>
</g>
<!-- Node11&#45;&gt;Node12 -->
<g id="edge12_Node000011_Node000012" class="edge">
<title>Node11&#45;&gt;Node12</title>
<g id="a_edge12_Node000011_Node000012"><a xlink:title=" ">
<path fill="none" stroke="#63b8ff" d="M882.11,-83.7C891.51,-74.6 901.48,-64.95 910.39,-56.32"/>
<polygon fill="#63b8ff" stroke="#63b8ff" points="879.87,-80.99 875.12,-90.46 884.74,-86.02 879.87,-80.99"/>
</a>
</g>
</g>
</g>
</svg>
