<?xml version="1.0" encoding="UTF-8" standalone="no"?>
<!DOCTYPE svg PUBLIC "-//W3C//DTD SVG 1.1//EN"
 "http://www.w3.org/Graphics/SVG/1.1/DTD/svg11.dtd">
<!-- Generated by graphviz version 13.1.1 (20250719.2154)
 -->
<!-- Title: C:/Users/user/Perforce/alz7_CobaltbruWorkspace_00/KPT/Source/KPT/Mission/MissionActorBase.cpp Pages: 1 -->
<svg width="429pt" height="232pt"
 viewBox="0.00 0.00 429.00 232.00" xmlns="http://www.w3.org/2000/svg" xmlns:xlink="http://www.w3.org/1999/xlink">
<g id="graph0" class="graph" transform="scale(1 1) rotate(0) translate(4 228)">
<title>C:/Users/user/Perforce/alz7_CobaltbruWorkspace_00/KPT/Source/KPT/Mission/MissionActorBase.cpp</title>
<!-- Node1 -->
<g id="Node000001" class="node">
<title>Node1</title>
<g id="a_Node000001"><a xlink:title=" ">
<polygon fill="#999999" stroke="#666666" points="284.77,-224 137.52,-224 137.52,-168 284.77,-168 284.77,-224"/>
<text xml:space="preserve" text-anchor="start" x="145.52" y="-210.5" font-family="Helvetica,sans-Serif" font-size="10.00">C:/Users/user/Perforce</text>
<text xml:space="preserve" text-anchor="start" x="145.52" y="-198.5" font-family="Helvetica,sans-Serif" font-size="10.00">/alz7_CobaltbruWorkspace</text>
<text xml:space="preserve" text-anchor="start" x="145.52" y="-186.5" font-family="Helvetica,sans-Serif" font-size="10.00">_00/KPT/Source/KPT/Mission</text>
<text xml:space="preserve" text-anchor="middle" x="211.14" y="-174.5" font-family="Helvetica,sans-Serif" font-size="10.00">/MissionActorBase.cpp</text>
</a>
</g>
</g>
<!-- Node2 -->
<g id="Node000002" class="node">
<title>Node2</title>
<g id="a_Node000002"><a xlink:href="_mission_actor_base_8h.html" target="_top" xlink:title=" ">
<polygon fill="white" stroke="#666666" points="210.39,-132 69.89,-132 69.89,-112 210.39,-112 210.39,-132"/>
<text xml:space="preserve" text-anchor="middle" x="140.14" y="-118.5" font-family="Helvetica,sans-Serif" font-size="10.00">Mission/MissionActorBase.h</text>
</a>
</g>
</g>
<!-- Node1&#45;&gt;Node2 -->
<g id="edge1_Node000001_Node000002" class="edge">
<title>Node1&#45;&gt;Node2</title>
<g id="a_edge1_Node000001_Node000002"><a xlink:title=" ">
<path fill="none" stroke="#63b8ff" d="M184.3,-167.78C175.3,-158.66 165.52,-148.73 157.45,-140.55"/>
<polygon fill="#63b8ff" stroke="#63b8ff" points="160.06,-138.21 150.55,-133.55 155.08,-143.13 160.06,-138.21"/>
</a>
</g>
</g>
<!-- Node9 -->
<g id="Node000009" class="node">
<title>Node9</title>
<g id="a_Node000009"><a xlink:title=" ">
<polygon fill="#e0e0e0" stroke="#999999" points="336.27,-132 228.02,-132 228.02,-112 336.27,-112 336.27,-132"/>
<text xml:space="preserve" text-anchor="middle" x="282.14" y="-118.5" font-family="Helvetica,sans-Serif" font-size="10.00">Net/UnrealNetwork.h</text>
</a>
</g>
</g>
<!-- Node1&#45;&gt;Node9 -->
<g id="edge9_Node000001_Node000009" class="edge">
<title>Node1&#45;&gt;Node9</title>
<g id="a_edge9_Node000001_Node000009"><a xlink:title=" ">
<path fill="none" stroke="#63b8ff" d="M237.99,-167.78C246.98,-158.66 256.77,-148.73 264.84,-140.55"/>
<polygon fill="#63b8ff" stroke="#63b8ff" points="267.21,-143.13 271.74,-133.55 262.23,-138.21 267.21,-143.13"/>
</a>
</g>
</g>
<!-- Node3 -->
<g id="Node000003" class="node">
<title>Node3</title>
<g id="a_Node000003"><a xlink:title=" ">
<polygon fill="#e0e0e0" stroke="#999999" points="80.64,-20 1.64,-20 1.64,0 80.64,0 80.64,-20"/>
<text xml:space="preserve" text-anchor="middle" x="41.14" y="-6.5" font-family="Helvetica,sans-Serif" font-size="10.00">CoreMinimal.h</text>
</a>
</g>
</g>
<!-- Node2&#45;&gt;Node3 -->
<g id="edge2_Node000002_Node000003" class="edge">
<title>Node2&#45;&gt;Node3</title>
<g id="a_edge2_Node000002_Node000003"><a xlink:title=" ">
<path fill="none" stroke="#63b8ff" d="M69.62,-114.51C44.82,-108.43 19.36,-97.07 4.14,-76 -7,-60.57 6.75,-41.5 20.53,-28.02"/>
<polygon fill="#63b8ff" stroke="#63b8ff" points="22.73,-30.75 27.78,-21.44 18.02,-25.57 22.73,-30.75"/>
</a>
</g>
</g>
<!-- Node4 -->
<g id="Node000004" class="node">
<title>Node4</title>
<g id="a_Node000004"><a xlink:title=" ">
<polygon fill="#e0e0e0" stroke="#999999" points="138.89,-76 13.39,-76 13.39,-56 138.89,-56 138.89,-76"/>
<text xml:space="preserve" text-anchor="middle" x="76.14" y="-62.5" font-family="Helvetica,sans-Serif" font-size="10.00">GameFramework/Actor.h</text>
</a>
</g>
</g>
<!-- Node2&#45;&gt;Node4 -->
<g id="edge3_Node000002_Node000004" class="edge">
<title>Node2&#45;&gt;Node4</title>
<g id="a_edge3_Node000002_Node000004"><a xlink:title=" ">
<path fill="none" stroke="#63b8ff" d="M129,-111.59C119.82,-103.85 106.59,-92.69 95.66,-83.47"/>
<polygon fill="#63b8ff" stroke="#63b8ff" points="98.22,-81.05 88.32,-77.27 93.71,-86.4 98.22,-81.05"/>
</a>
</g>
</g>
<!-- Node5 -->
<g id="Node000005" class="node">
<title>Node5</title>
<g id="a_Node000005"><a xlink:href="_mission_interface_8h.html" target="_top" xlink:title=" ">
<polygon fill="white" stroke="#666666" points="253.27,-76 157.02,-76 157.02,-56 253.27,-56 253.27,-76"/>
<text xml:space="preserve" text-anchor="middle" x="205.14" y="-62.5" font-family="Helvetica,sans-Serif" font-size="10.00">MissionInterface.h</text>
</a>
</g>
</g>
<!-- Node2&#45;&gt;Node5 -->
<g id="edge4_Node000002_Node000005" class="edge">
<title>Node2&#45;&gt;Node5</title>
<g id="a_edge4_Node000002_Node000005"><a xlink:title=" ">
<path fill="none" stroke="#63b8ff" d="M151.47,-111.59C160.79,-103.85 174.22,-92.69 185.32,-83.47"/>
<polygon fill="#63b8ff" stroke="#63b8ff" points="187.33,-86.35 192.79,-77.27 182.86,-80.96 187.33,-86.35"/>
</a>
</g>
</g>
<!-- Node8 -->
<g id="Node000008" class="node">
<title>Node8</title>
<g id="a_Node000008"><a xlink:title=" ">
<polygon fill="#e0e0e0" stroke="#999999" points="420.89,-76 271.39,-76 271.39,-56 420.89,-56 420.89,-76"/>
<text xml:space="preserve" text-anchor="middle" x="346.14" y="-62.5" font-family="Helvetica,sans-Serif" font-size="10.00">MissionActorBase.generated.h</text>
</a>
</g>
</g>
<!-- Node2&#45;&gt;Node8 -->
<g id="edge8_Node000002_Node000008" class="edge">
<title>Node2&#45;&gt;Node8</title>
<g id="a_edge8_Node000002_Node000008"><a xlink:title=" ">
<path fill="none" stroke="#63b8ff" d="M176.03,-111.59C210.08,-102.67 261.48,-89.19 298.86,-79.39"/>
<polygon fill="#63b8ff" stroke="#63b8ff" points="299.73,-82.78 308.52,-76.86 297.96,-76.01 299.73,-82.78"/>
</a>
</g>
</g>
<!-- Node5&#45;&gt;Node3 -->
<g id="edge5_Node000005_Node000003" class="edge">
<title>Node5&#45;&gt;Node3</title>
<g id="a_edge5_Node000005_Node000003"><a xlink:title=" ">
<path fill="none" stroke="#63b8ff" d="M176.58,-55.59C150.05,-46.86 110.3,-33.77 80.72,-24.03"/>
<polygon fill="#63b8ff" stroke="#63b8ff" points="81.96,-20.76 71.37,-20.95 79.77,-27.4 81.96,-20.76"/>
</a>
</g>
</g>
<!-- Node6 -->
<g id="Node000006" class="node">
<title>Node6</title>
<g id="a_Node000006"><a xlink:title=" ">
<polygon fill="#e0e0e0" stroke="#999999" points="227.89,-20 126.39,-20 126.39,0 227.89,0 227.89,-20"/>
<text xml:space="preserve" text-anchor="middle" x="177.14" y="-6.5" font-family="Helvetica,sans-Serif" font-size="10.00">UObject/Interface.h</text>
</a>
</g>
</g>
<!-- Node5&#45;&gt;Node6 -->
<g id="edge6_Node000005_Node000006" class="edge">
<title>Node5&#45;&gt;Node6</title>
<g id="a_edge6_Node000005_Node000006"><a xlink:title=" ">
<path fill="none" stroke="#63b8ff" d="M200.27,-55.59C196.65,-48.63 191.6,-38.89 187.14,-30.29"/>
<polygon fill="#63b8ff" stroke="#63b8ff" points="190.37,-28.91 182.66,-21.64 184.16,-32.13 190.37,-28.91"/>
</a>
</g>
</g>
<!-- Node7 -->
<g id="Node000007" class="node">
<title>Node7</title>
<g id="a_Node000007"><a xlink:title=" ">
<polygon fill="#e0e0e0" stroke="#999999" points="388.14,-20 246.14,-20 246.14,0 388.14,0 388.14,-20"/>
<text xml:space="preserve" text-anchor="middle" x="317.14" y="-6.5" font-family="Helvetica,sans-Serif" font-size="10.00">MissionInterface.generated.h</text>
</a>
</g>
</g>
<!-- Node5&#45;&gt;Node7 -->
<g id="edge7_Node000005_Node000007" class="edge">
<title>Node5&#45;&gt;Node7</title>
<g id="a_edge7_Node000005_Node000007"><a xlink:title=" ">
<path fill="none" stroke="#63b8ff" d="M224.65,-55.59C241.89,-47.28 267.3,-35.03 287.13,-25.47"/>
<polygon fill="#63b8ff" stroke="#63b8ff" points="288.63,-28.63 296.12,-21.14 285.59,-22.33 288.63,-28.63"/>
</a>
</g>
</g>
</g>
</svg>
