<?xml version="1.0" encoding="UTF-8" standalone="no"?>
<!DOCTYPE svg PUBLIC "-//W3C//DTD SVG 1.1//EN"
 "http://www.w3.org/Graphics/SVG/1.1/DTD/svg11.dtd">
<!-- Generated by graphviz version 13.1.1 (20250719.2154)
 -->
<!-- Title: C:/Users/user/Perforce/alz7_CobaltbruWorkspace_00/KPT/Source/KPT/Skill/Ability/OrbitSkillAbility.h Pages: 1 -->
<svg width="620pt" height="232pt"
 viewBox="0.00 0.00 620.00 232.00" xmlns="http://www.w3.org/2000/svg" xmlns:xlink="http://www.w3.org/1999/xlink">
<g id="graph0" class="graph" transform="scale(1 1) rotate(0) translate(4 228)">
<title>C:/Users/user/Perforce/alz7_CobaltbruWorkspace_00/KPT/Source/KPT/Skill/Ability/OrbitSkillAbility.h</title>
<!-- Node1 -->
<g id="Node000001" class="node">
<title>Node1</title>
<g id="a_Node000001"><a xlink:title=" ">
<polygon fill="#999999" stroke="#666666" points="272,-224 139,-224 139,-168 272,-168 272,-224"/>
<text xml:space="preserve" text-anchor="start" x="147" y="-210.5" font-family="Helvetica,sans-Serif" font-size="10.00">C:/Users/user/Perforce</text>
<text xml:space="preserve" text-anchor="start" x="147" y="-198.5" font-family="Helvetica,sans-Serif" font-size="10.00">/alz7_CobaltbruWorkspace</text>
<text xml:space="preserve" text-anchor="start" x="147" y="-186.5" font-family="Helvetica,sans-Serif" font-size="10.00">_00/KPT/Source/KPT/Skill</text>
<text xml:space="preserve" text-anchor="middle" x="205.5" y="-174.5" font-family="Helvetica,sans-Serif" font-size="10.00">/Ability/OrbitSkillAbility.h</text>
</a>
</g>
</g>
<!-- Node2 -->
<g id="Node000002" class="node">
<title>Node2</title>
<g id="a_Node000002"><a xlink:title=" ">
<polygon fill="#e0e0e0" stroke="#999999" points="79,-20 0,-20 0,0 79,0 79,-20"/>
<text xml:space="preserve" text-anchor="middle" x="39.5" y="-6.5" font-family="Helvetica,sans-Serif" font-size="10.00">CoreMinimal.h</text>
</a>
</g>
</g>
<!-- Node1&#45;&gt;Node2 -->
<g id="edge1_Node000001_Node000002" class="edge">
<title>Node1&#45;&gt;Node2</title>
<g id="a_edge1_Node000001_Node000002"><a xlink:title=" ">
<path fill="none" stroke="#63b8ff" d="M146.43,-167.67C110.43,-147.67 67.14,-116.9 44.5,-76 37.02,-62.49 36.09,-44.93 36.86,-31.46"/>
<polygon fill="#63b8ff" stroke="#63b8ff" points="40.34,-31.87 37.81,-21.58 33.37,-31.2 40.34,-31.87"/>
</a>
</g>
</g>
<!-- Node3 -->
<g id="Node000003" class="node">
<title>Node3</title>
<g id="a_Node000003"><a xlink:href="_base_skill_ability_8h.html" target="_top" xlink:title=" ">
<polygon fill="white" stroke="#666666" points="277.25,-132 133.75,-132 133.75,-112 277.25,-112 277.25,-132"/>
<text xml:space="preserve" text-anchor="middle" x="205.5" y="-118.5" font-family="Helvetica,sans-Serif" font-size="10.00">Skill/Ability/BaseSkillAbility.h</text>
</a>
</g>
</g>
<!-- Node1&#45;&gt;Node3 -->
<g id="edge2_Node000001_Node000003" class="edge">
<title>Node1&#45;&gt;Node3</title>
<g id="a_edge2_Node000001_Node000003"><a xlink:title=" ">
<path fill="none" stroke="#63b8ff" d="M205.5,-167.78C205.5,-159.82 205.5,-151.25 205.5,-143.76"/>
<polygon fill="#63b8ff" stroke="#63b8ff" points="209,-143.99 205.5,-133.99 202,-143.99 209,-143.99"/>
</a>
</g>
</g>
<!-- Node12 -->
<g id="Node000012" class="node">
<title>Node12</title>
<g id="a_Node000012"><a xlink:title=" ">
<polygon fill="#e0e0e0" stroke="#999999" points="431.5,-132 295.5,-132 295.5,-112 431.5,-112 431.5,-132"/>
<text xml:space="preserve" text-anchor="middle" x="363.5" y="-118.5" font-family="Helvetica,sans-Serif" font-size="10.00">OrbitSkillAbility.generated.h</text>
</a>
</g>
</g>
<!-- Node1&#45;&gt;Node12 -->
<g id="edge13_Node000001_Node000012" class="edge">
<title>Node1&#45;&gt;Node12</title>
<g id="a_edge13_Node000001_Node000012"><a xlink:title=" ">
<path fill="none" stroke="#63b8ff" d="M265.68,-167.57C288.43,-157.21 313.38,-145.84 332.39,-137.17"/>
<polygon fill="#63b8ff" stroke="#63b8ff" points="333.81,-140.37 341.46,-133.04 330.91,-134 333.81,-140.37"/>
</a>
</g>
</g>
<!-- Node3&#45;&gt;Node2 -->
<g id="edge3_Node000003_Node000002" class="edge">
<title>Node3&#45;&gt;Node2</title>
<g id="a_edge3_Node000003_Node000002"><a xlink:title=" ">
<path fill="none" stroke="#63b8ff" d="M133.35,-112.19C107.88,-105.82 80.8,-94.85 61.5,-76 49.5,-64.28 44.05,-45.8 41.57,-31.53"/>
<polygon fill="#63b8ff" stroke="#63b8ff" points="45.07,-31.3 40.27,-21.86 38.13,-32.23 45.07,-31.3"/>
</a>
</g>
</g>
<!-- Node4 -->
<g id="Node000004" class="node">
<title>Node4</title>
<g id="a_Node000004"><a xlink:title=" ">
<polygon fill="#e0e0e0" stroke="#999999" points="202.62,-76 70.38,-76 70.38,-56 202.62,-56 202.62,-76"/>
<text xml:space="preserve" text-anchor="middle" x="136.5" y="-62.5" font-family="Helvetica,sans-Serif" font-size="10.00">Abilities/GameplayAbility.h</text>
</a>
</g>
</g>
<!-- Node3&#45;&gt;Node4 -->
<g id="edge4_Node000003_Node000004" class="edge">
<title>Node3&#45;&gt;Node4</title>
<g id="a_edge4_Node000003_Node000004"><a xlink:title=" ">
<path fill="none" stroke="#63b8ff" d="M193.48,-111.59C183.49,-103.77 169.04,-92.46 157.19,-83.19"/>
<polygon fill="#63b8ff" stroke="#63b8ff" points="159.61,-80.64 149.57,-77.23 155.29,-86.15 159.61,-80.64"/>
</a>
</g>
</g>
<!-- Node5 -->
<g id="Node000005" class="node">
<title>Node5</title>
<g id="a_Node000005"><a xlink:href="_skill_data_8h.html" target="_top" xlink:title=" ">
<polygon fill="white" stroke="#666666" points="330.38,-76 220.62,-76 220.62,-56 330.38,-56 330.38,-76"/>
<text xml:space="preserve" text-anchor="middle" x="275.5" y="-62.5" font-family="Helvetica,sans-Serif" font-size="10.00">Skill/Data/SkillData.h</text>
</a>
</g>
</g>
<!-- Node3&#45;&gt;Node5 -->
<g id="edge5_Node000003_Node000005" class="edge">
<title>Node3&#45;&gt;Node5</title>
<g id="a_edge5_Node000003_Node000005"><a xlink:title=" ">
<path fill="none" stroke="#63b8ff" d="M217.69,-111.59C227.83,-103.77 242.49,-92.46 254.51,-83.19"/>
<polygon fill="#63b8ff" stroke="#63b8ff" points="256.47,-86.1 262.25,-77.22 252.19,-80.56 256.47,-86.1"/>
</a>
</g>
</g>
<!-- Node10 -->
<g id="Node000010" class="node">
<title>Node10</title>
<g id="a_Node000010"><a xlink:title=" ">
<polygon fill="#e0e0e0" stroke="#999999" points="456.62,-76 348.38,-76 348.38,-56 456.62,-56 456.62,-76"/>
<text xml:space="preserve" text-anchor="middle" x="402.5" y="-62.5" font-family="Helvetica,sans-Serif" font-size="10.00">Net/UnrealNetwork.h</text>
</a>
</g>
</g>
<!-- Node3&#45;&gt;Node10 -->
<g id="edge11_Node000003_Node000010" class="edge">
<title>Node3&#45;&gt;Node10</title>
<g id="a_edge11_Node000003_Node000010"><a xlink:title=" ">
<path fill="none" stroke="#63b8ff" d="M239.81,-111.59C272.24,-102.71 321.11,-89.31 356.82,-79.52"/>
<polygon fill="#63b8ff" stroke="#63b8ff" points="357.74,-82.9 366.46,-76.88 355.89,-76.15 357.74,-82.9"/>
</a>
</g>
</g>
<!-- Node11 -->
<g id="Node000011" class="node">
<title>Node11</title>
<g id="a_Node000011"><a xlink:title=" ">
<polygon fill="#e0e0e0" stroke="#999999" points="612.25,-76 474.75,-76 474.75,-56 612.25,-56 612.25,-76"/>
<text xml:space="preserve" text-anchor="middle" x="543.5" y="-62.5" font-family="Helvetica,sans-Serif" font-size="10.00">BaseSkillAbility.generated.h</text>
</a>
</g>
</g>
<!-- Node3&#45;&gt;Node11 -->
<g id="edge12_Node000003_Node000011" class="edge">
<title>Node3&#45;&gt;Node11</title>
<g id="a_edge12_Node000003_Node000011"><a xlink:title=" ">
<path fill="none" stroke="#63b8ff" d="M264.76,-111.53C322.87,-102.25 411.46,-88.09 473.12,-78.24"/>
<polygon fill="#63b8ff" stroke="#63b8ff" points="473.49,-81.73 482.81,-76.7 472.38,-74.82 473.49,-81.73"/>
</a>
</g>
</g>
<!-- Node5&#45;&gt;Node2 -->
<g id="edge6_Node000005_Node000002" class="edge">
<title>Node5&#45;&gt;Node2</title>
<g id="a_edge6_Node000005_Node000002"><a xlink:title=" ">
<path fill="none" stroke="#63b8ff" d="M234.12,-55.53C194.08,-46.37 133.29,-32.46 90.32,-22.63"/>
<polygon fill="#63b8ff" stroke="#63b8ff" points="91.26,-19.25 80.73,-20.43 89.7,-26.08 91.26,-19.25"/>
</a>
</g>
</g>
<!-- Node6 -->
<g id="Node000006" class="node">
<title>Node6</title>
<g id="a_Node000006"><a xlink:title=" ">
<polygon fill="#e0e0e0" stroke="#999999" points="198.25,-20 96.75,-20 96.75,0 198.25,0 198.25,-20"/>
<text xml:space="preserve" text-anchor="middle" x="147.5" y="-6.5" font-family="Helvetica,sans-Serif" font-size="10.00">Engine/DataTable.h</text>
</a>
</g>
</g>
<!-- Node5&#45;&gt;Node6 -->
<g id="edge7_Node000005_Node000006" class="edge">
<title>Node5&#45;&gt;Node6</title>
<g id="a_edge7_Node000005_Node000006"><a xlink:title=" ">
<path fill="none" stroke="#63b8ff" d="M253.2,-55.59C233.14,-47.13 203.38,-34.58 180.55,-24.94"/>
<polygon fill="#63b8ff" stroke="#63b8ff" points="181.94,-21.73 171.36,-21.07 179.22,-28.18 181.94,-21.73"/>
</a>
</g>
</g>
<!-- Node7 -->
<g id="Node000007" class="node">
<title>Node7</title>
<g id="a_Node000007"><a xlink:title=" ">
<polygon fill="#e0e0e0" stroke="#999999" points="334.5,-20 216.5,-20 216.5,0 334.5,0 334.5,-20"/>
<text xml:space="preserve" text-anchor="middle" x="275.5" y="-6.5" font-family="Helvetica,sans-Serif" font-size="10.00">GameplayAbilitySpec.h</text>
</a>
</g>
</g>
<!-- Node5&#45;&gt;Node7 -->
<g id="edge8_Node000005_Node000007" class="edge">
<title>Node5&#45;&gt;Node7</title>
<g id="a_edge8_Node000005_Node000007"><a xlink:title=" ">
<path fill="none" stroke="#63b8ff" d="M275.5,-55.59C275.5,-49.01 275.5,-39.96 275.5,-31.73"/>
<polygon fill="#63b8ff" stroke="#63b8ff" points="279,-31.81 275.5,-21.81 272,-31.81 279,-31.81"/>
</a>
</g>
</g>
<!-- Node8 -->
<g id="Node000008" class="node">
<title>Node8</title>
<g id="a_Node000008"><a xlink:title=" ">
<polygon fill="#e0e0e0" stroke="#999999" points="478.62,-20 352.38,-20 352.38,0 478.62,0 478.62,-20"/>
<text xml:space="preserve" text-anchor="middle" x="415.5" y="-6.5" font-family="Helvetica,sans-Serif" font-size="10.00">GameplayTagContainer.h</text>
</a>
</g>
</g>
<!-- Node5&#45;&gt;Node8 -->
<g id="edge9_Node000005_Node000008" class="edge">
<title>Node5&#45;&gt;Node8</title>
<g id="a_edge9_Node000005_Node000008"><a xlink:title=" ">
<path fill="none" stroke="#63b8ff" d="M299.89,-55.59C322.13,-47.01 355.27,-34.23 380.37,-24.55"/>
<polygon fill="#63b8ff" stroke="#63b8ff" points="381.44,-27.89 389.51,-21.02 378.92,-21.36 381.44,-27.89"/>
</a>
</g>
</g>
<!-- Node9 -->
<g id="Node000009" class="node">
<title>Node9</title>
<g id="a_Node000009"><a xlink:title=" ">
<polygon fill="#e0e0e0" stroke="#999999" points="606.38,-20 496.62,-20 496.62,0 606.38,0 606.38,-20"/>
<text xml:space="preserve" text-anchor="middle" x="551.5" y="-6.5" font-family="Helvetica,sans-Serif" font-size="10.00">SkillData.generated.h</text>
</a>
</g>
</g>
<!-- Node5&#45;&gt;Node9 -->
<g id="edge10_Node000005_Node000009" class="edge">
<title>Node5&#45;&gt;Node9</title>
<g id="a_edge10_Node000005_Node000009"><a xlink:title=" ">
<path fill="none" stroke="#63b8ff" d="M323.89,-55.53C370.75,-46.36 441.89,-32.45 492.14,-22.61"/>
<polygon fill="#63b8ff" stroke="#63b8ff" points="492.54,-26.1 501.68,-20.75 491.19,-19.23 492.54,-26.1"/>
</a>
</g>
</g>
</g>
</svg>
