<?xml version="1.0" encoding="UTF-8" standalone="no"?>
<!DOCTYPE svg PUBLIC "-//W3C//DTD SVG 1.1//EN"
 "http://www.w3.org/Graphics/SVG/1.1/DTD/svg11.dtd">
<!-- Generated by graphviz version 13.1.1 (20250719.2154)
 -->
<!-- Title: C:/Users/user/Perforce/alz7_CobaltbruWorkspace_00/KPT/Source/KPT/Core/Component/Shop/PlayerShopStateComponent.cpp Pages: 1 -->
<svg width="797pt" height="188pt"
 viewBox="0.00 0.00 797.00 188.00" xmlns="http://www.w3.org/2000/svg" xmlns:xlink="http://www.w3.org/1999/xlink">
<g id="graph0" class="graph" transform="scale(1 1) rotate(0) translate(4 184)">
<title>C:/Users/user/Perforce/alz7_CobaltbruWorkspace_00/KPT/Source/KPT/Core/Component/Shop/PlayerShopStateComponent.cpp</title>
<!-- Node1 -->
<g id="Node000001" class="node">
<title>Node1</title>
<g id="a_Node000001"><a xlink:title=" ">
<polygon fill="#999999" stroke="#666666" points="627.25,-180 387,-180 387,-124 627.25,-124 627.25,-180"/>
<text xml:space="preserve" text-anchor="start" x="395" y="-166.5" font-family="Helvetica,sans-Serif" font-size="10.00">C:/Users/user/Perforce</text>
<text xml:space="preserve" text-anchor="start" x="395" y="-154.5" font-family="Helvetica,sans-Serif" font-size="10.00">/alz7_CobaltbruWorkspace</text>
<text xml:space="preserve" text-anchor="start" x="395" y="-142.5" font-family="Helvetica,sans-Serif" font-size="10.00">_00/KPT/Source/KPT/Core</text>
<text xml:space="preserve" text-anchor="middle" x="507.12" y="-130.5" font-family="Helvetica,sans-Serif" font-size="10.00">/Component/Shop/PlayerShopStateComponent.cpp</text>
</a>
</g>
</g>
<!-- Node2 -->
<g id="Node000002" class="node">
<title>Node2</title>
<g id="a_Node000002"><a xlink:href="_player_shop_state_component_8h.html" target="_top" xlink:title=" ">
<polygon fill="white" stroke="#666666" points="397.12,-82 249.12,-82 249.12,-62 397.12,-62 397.12,-82"/>
<text xml:space="preserve" text-anchor="middle" x="323.12" y="-68.5" font-family="Helvetica,sans-Serif" font-size="10.00">PlayerShopStateComponent.h</text>
</a>
</g>
</g>
<!-- Node1&#45;&gt;Node2 -->
<g id="edge1_Node000001_Node000002" class="edge">
<title>Node1&#45;&gt;Node2</title>
<g id="a_edge1_Node000001_Node000002"><a xlink:title=" ">
<path fill="none" stroke="#63b8ff" d="M442.25,-123.5C413,-111.1 379.74,-97 355.8,-86.85"/>
<polygon fill="#63b8ff" stroke="#63b8ff" points="357.48,-83.76 346.91,-83.08 354.75,-90.21 357.48,-83.76"/>
</a>
</g>
</g>
<!-- Node6 -->
<g id="Node000006" class="node">
<title>Node6</title>
<g id="a_Node000006"><a xlink:href="_component_owner_interface_8h.html" target="_top" xlink:title=" ">
<polygon fill="white" stroke="#666666" points="572.88,-88 441.38,-88 441.38,-56 572.88,-56 572.88,-88"/>
<text xml:space="preserve" text-anchor="start" x="449.38" y="-74.5" font-family="Helvetica,sans-Serif" font-size="10.00">Core/Interface/Component</text>
<text xml:space="preserve" text-anchor="middle" x="507.12" y="-62.5" font-family="Helvetica,sans-Serif" font-size="10.00">OwnerInterface.h</text>
</a>
</g>
</g>
<!-- Node1&#45;&gt;Node6 -->
<g id="edge5_Node000001_Node000006" class="edge">
<title>Node1&#45;&gt;Node6</title>
<g id="a_edge5_Node000001_Node000006"><a xlink:title=" ">
<path fill="none" stroke="#63b8ff" d="M507.12,-123.72C507.12,-115.88 507.12,-107.34 507.12,-99.54"/>
<polygon fill="#63b8ff" stroke="#63b8ff" points="510.63,-99.62 507.13,-89.62 503.63,-99.62 510.63,-99.62"/>
</a>
</g>
</g>
<!-- Node9 -->
<g id="Node000009" class="node">
<title>Node9</title>
<g id="a_Node000009"><a xlink:title=" ">
<polygon fill="#e0e0e0" stroke="#999999" points="699.25,-82 591,-82 591,-62 699.25,-62 699.25,-82"/>
<text xml:space="preserve" text-anchor="middle" x="645.12" y="-68.5" font-family="Helvetica,sans-Serif" font-size="10.00">Net/UnrealNetwork.h</text>
</a>
</g>
</g>
<!-- Node1&#45;&gt;Node9 -->
<g id="edge9_Node000001_Node000009" class="edge">
<title>Node1&#45;&gt;Node9</title>
<g id="a_edge9_Node000001_Node000009"><a xlink:title=" ">
<path fill="none" stroke="#63b8ff" d="M555.78,-123.5C576.93,-111.55 600.87,-98.01 618.65,-87.96"/>
<polygon fill="#63b8ff" stroke="#63b8ff" points="620.03,-91.2 627.02,-83.24 616.59,-85.11 620.03,-91.2"/>
</a>
</g>
</g>
<!-- Node3 -->
<g id="Node000003" class="node">
<title>Node3</title>
<g id="a_Node000003"><a xlink:title=" ">
<polygon fill="#e0e0e0" stroke="#999999" points="464.62,-20 385.62,-20 385.62,0 464.62,0 464.62,-20"/>
<text xml:space="preserve" text-anchor="middle" x="425.12" y="-6.5" font-family="Helvetica,sans-Serif" font-size="10.00">CoreMinimal.h</text>
</a>
</g>
</g>
<!-- Node2&#45;&gt;Node3 -->
<g id="edge2_Node000002_Node000003" class="edge">
<title>Node2&#45;&gt;Node3</title>
<g id="a_edge2_Node000002_Node000003"><a xlink:title=" ">
<path fill="none" stroke="#63b8ff" d="M339.06,-61.62C355.23,-52.11 380.51,-37.24 399.5,-26.08"/>
<polygon fill="#63b8ff" stroke="#63b8ff" points="401.15,-29.16 407.99,-21.08 397.6,-23.13 401.15,-29.16"/>
</a>
</g>
</g>
<!-- Node4 -->
<g id="Node000004" class="node">
<title>Node4</title>
<g id="a_Node000004"><a xlink:title=" ">
<polygon fill="#e0e0e0" stroke="#999999" points="156.25,-20 0,-20 0,0 156.25,0 156.25,-20"/>
<text xml:space="preserve" text-anchor="middle" x="78.12" y="-6.5" font-family="Helvetica,sans-Serif" font-size="10.00">Components/ActorComponent.h</text>
</a>
</g>
</g>
<!-- Node2&#45;&gt;Node4 -->
<g id="edge3_Node000002_Node000004" class="edge">
<title>Node2&#45;&gt;Node4</title>
<g id="a_edge3_Node000002_Node000004"><a xlink:title=" ">
<path fill="none" stroke="#63b8ff" d="M284.57,-61.56C242.25,-51.19 174.15,-34.52 127.84,-23.18"/>
<polygon fill="#63b8ff" stroke="#63b8ff" points="128.87,-19.82 118.33,-20.84 127.21,-26.62 128.87,-19.82"/>
</a>
</g>
</g>
<!-- Node5 -->
<g id="Node000005" class="node">
<title>Node5</title>
<g id="a_Node000005"><a xlink:title=" ">
<polygon fill="#e0e0e0" stroke="#999999" points="368,-20 174.25,-20 174.25,0 368,0 368,-20"/>
<text xml:space="preserve" text-anchor="middle" x="271.12" y="-6.5" font-family="Helvetica,sans-Serif" font-size="10.00">PlayerShopStateComponent.generated.h</text>
</a>
</g>
</g>
<!-- Node2&#45;&gt;Node5 -->
<g id="edge4_Node000002_Node000005" class="edge">
<title>Node2&#45;&gt;Node5</title>
<g id="a_edge4_Node000002_Node000005"><a xlink:title=" ">
<path fill="none" stroke="#63b8ff" d="M315,-61.62C307.4,-52.86 295.85,-39.53 286.51,-28.75"/>
<polygon fill="#63b8ff" stroke="#63b8ff" points="289.21,-26.52 280.01,-21.26 283.92,-31.11 289.21,-26.52"/>
</a>
</g>
</g>
<!-- Node6&#45;&gt;Node3 -->
<g id="edge6_Node000006_Node000003" class="edge">
<title>Node6&#45;&gt;Node3</title>
<g id="a_edge6_Node000006_Node000003"><a xlink:title=" ">
<path fill="none" stroke="#63b8ff" d="M486.01,-55.55C474.03,-46.78 459.05,-35.83 446.96,-26.97"/>
<polygon fill="#63b8ff" stroke="#63b8ff" points="449.34,-24.38 439.2,-21.3 445.21,-30.03 449.34,-24.38"/>
</a>
</g>
</g>
<!-- Node7 -->
<g id="Node000007" class="node">
<title>Node7</title>
<g id="a_Node000007"><a xlink:title=" ">
<polygon fill="#e0e0e0" stroke="#999999" points="583.88,-20 482.38,-20 482.38,0 583.88,0 583.88,-20"/>
<text xml:space="preserve" text-anchor="middle" x="533.12" y="-6.5" font-family="Helvetica,sans-Serif" font-size="10.00">UObject/Interface.h</text>
</a>
</g>
</g>
<!-- Node6&#45;&gt;Node7 -->
<g id="edge7_Node000006_Node000007" class="edge">
<title>Node6&#45;&gt;Node7</title>
<g id="a_edge7_Node000006_Node000007"><a xlink:title=" ">
<path fill="none" stroke="#63b8ff" d="M513.82,-55.55C517.09,-48 521.07,-38.82 524.56,-30.77"/>
<polygon fill="#63b8ff" stroke="#63b8ff" points="527.68,-32.36 528.45,-21.8 521.26,-29.58 527.68,-32.36"/>
</a>
</g>
</g>
<!-- Node8 -->
<g id="Node000008" class="node">
<title>Node8</title>
<g id="a_Node000008"><a xlink:title=" ">
<polygon fill="#e0e0e0" stroke="#999999" points="788.62,-20 601.62,-20 601.62,0 788.62,0 788.62,-20"/>
<text xml:space="preserve" text-anchor="middle" x="695.12" y="-6.5" font-family="Helvetica,sans-Serif" font-size="10.00">ComponentOwnerInterface.generated.h</text>
</a>
</g>
</g>
<!-- Node6&#45;&gt;Node8 -->
<g id="edge8_Node000006_Node000008" class="edge">
<title>Node6&#45;&gt;Node8</title>
<g id="a_edge8_Node000006_Node000008"><a xlink:title=" ">
<path fill="none" stroke="#63b8ff" d="M555.54,-55.55C586.31,-45.73 625.69,-33.16 654.77,-23.88"/>
<polygon fill="#63b8ff" stroke="#63b8ff" points="655.47,-27.33 663.93,-20.96 653.34,-20.66 655.47,-27.33"/>
</a>
</g>
</g>
</g>
</svg>
