<?xml version="1.0" encoding="UTF-8" standalone="no"?>
<!DOCTYPE svg PUBLIC "-//W3C//DTD SVG 1.1//EN"
 "http://www.w3.org/Graphics/SVG/1.1/DTD/svg11.dtd">
<!-- Generated by graphviz version 13.1.1 (20250719.2154)
 -->
<!-- Title: C:/Users/user/Perforce/alz7_CobaltbruWorkspace_00/KPT/Source/KPT/Core/Component/Shop/PlayerShopStateComponent.h Pages: 1 -->
<svg width="844pt" height="248pt"
 viewBox="0.00 0.00 844.00 248.00" xmlns="http://www.w3.org/2000/svg" xmlns:xlink="http://www.w3.org/1999/xlink">
<g id="graph0" class="graph" transform="scale(1 1) rotate(0) translate(4 244)">
<title>C:/Users/user/Perforce/alz7_CobaltbruWorkspace_00/KPT/Source/KPT/Core/Component/Shop/PlayerShopStateComponent.h</title>
<!-- Node1 -->
<g id="Node000001" class="node">
<title>Node1</title>
<g id="a_Node000001"><a xlink:title=" ">
<polygon fill="#999999" stroke="#666666" points="648,-240 418.25,-240 418.25,-184 648,-184 648,-240"/>
<text xml:space="preserve" text-anchor="start" x="426.25" y="-226.5" font-family="Helvetica,sans-Serif" font-size="10.00">C:/Users/user/Perforce</text>
<text xml:space="preserve" text-anchor="start" x="426.25" y="-214.5" font-family="Helvetica,sans-Serif" font-size="10.00">/alz7_CobaltbruWorkspace</text>
<text xml:space="preserve" text-anchor="start" x="426.25" y="-202.5" font-family="Helvetica,sans-Serif" font-size="10.00">_00/KPT/Source/KPT/Core</text>
<text xml:space="preserve" text-anchor="middle" x="533.12" y="-190.5" font-family="Helvetica,sans-Serif" font-size="10.00">/Component/Shop/PlayerShopStateComponent.h</text>
</a>
</g>
</g>
<!-- Node2 -->
<g id="Node000002" class="node">
<title>Node2</title>
<g id="a_Node000002"><a xlink:href="_k_p_t_player_state_8cpp.html" target="_top" xlink:title=" ">
<polygon fill="white" stroke="#666666" points="156.25,-148 0,-148 0,-92 156.25,-92 156.25,-148"/>
<text xml:space="preserve" text-anchor="start" x="8" y="-134.5" font-family="Helvetica,sans-Serif" font-size="10.00">C:/Users/user/Perforce</text>
<text xml:space="preserve" text-anchor="start" x="8" y="-122.5" font-family="Helvetica,sans-Serif" font-size="10.00">/alz7_CobaltbruWorkspace</text>
<text xml:space="preserve" text-anchor="start" x="8" y="-110.5" font-family="Helvetica,sans-Serif" font-size="10.00">_00/KPT/Source/KPT/Character</text>
<text xml:space="preserve" text-anchor="middle" x="78.12" y="-98.5" font-family="Helvetica,sans-Serif" font-size="10.00">/KPTPlayerState.cpp</text>
</a>
</g>
</g>
<!-- Node1&#45;&gt;Node2 -->
<g id="edge1_Node000001_Node000002" class="edge">
<title>Node1&#45;&gt;Node2</title>
<g id="a_edge1_Node000001_Node000002"><a xlink:title=" ">
<path fill="none" stroke="#63b8ff" d="M406.67,-193.55C335.29,-182.66 244.7,-167.07 165.12,-148 162.36,-147.34 159.55,-146.63 156.72,-145.9"/>
<polygon fill="#63b8ff" stroke="#63b8ff" points="406.05,-197 416.46,-195.03 407.1,-190.08 406.05,-197"/>
</a>
</g>
</g>
<!-- Node3 -->
<g id="Node000003" class="node">
<title>Node3</title>
<g id="a_Node000003"><a xlink:href="_player_shop_state_component_8cpp.html" target="_top" xlink:title=" ">
<polygon fill="white" stroke="#666666" points="414.25,-148 174,-148 174,-92 414.25,-92 414.25,-148"/>
<text xml:space="preserve" text-anchor="start" x="182" y="-134.5" font-family="Helvetica,sans-Serif" font-size="10.00">C:/Users/user/Perforce</text>
<text xml:space="preserve" text-anchor="start" x="182" y="-122.5" font-family="Helvetica,sans-Serif" font-size="10.00">/alz7_CobaltbruWorkspace</text>
<text xml:space="preserve" text-anchor="start" x="182" y="-110.5" font-family="Helvetica,sans-Serif" font-size="10.00">_00/KPT/Source/KPT/Core</text>
<text xml:space="preserve" text-anchor="middle" x="294.12" y="-98.5" font-family="Helvetica,sans-Serif" font-size="10.00">/Component/Shop/PlayerShopStateComponent.cpp</text>
</a>
</g>
</g>
<!-- Node1&#45;&gt;Node3 -->
<g id="edge2_Node000001_Node000003" class="edge">
<title>Node1&#45;&gt;Node3</title>
<g id="a_edge2_Node000001_Node000003"><a xlink:title=" ">
<path fill="none" stroke="#63b8ff" d="M449.57,-179.54C422.7,-169.42 393.15,-158.29 367.1,-148.48"/>
<polygon fill="#63b8ff" stroke="#63b8ff" points="448.11,-182.73 458.7,-182.97 450.58,-176.17 448.11,-182.73"/>
</a>
</g>
</g>
<!-- Node4 -->
<g id="Node000004" class="node">
<title>Node4</title>
<g id="a_Node000004"><a xlink:href="_shop_manager_subsystem_8cpp.html" target="_top" xlink:title=" ">
<polygon fill="white" stroke="#666666" points="633.75,-148 432.5,-148 432.5,-92 633.75,-92 633.75,-148"/>
<text xml:space="preserve" text-anchor="start" x="440.5" y="-134.5" font-family="Helvetica,sans-Serif" font-size="10.00">C:/Users/user/Perforce</text>
<text xml:space="preserve" text-anchor="start" x="440.5" y="-122.5" font-family="Helvetica,sans-Serif" font-size="10.00">/alz7_CobaltbruWorkspace</text>
<text xml:space="preserve" text-anchor="start" x="440.5" y="-110.5" font-family="Helvetica,sans-Serif" font-size="10.00">_00/KPT/Source/KPT/Core</text>
<text xml:space="preserve" text-anchor="middle" x="533.12" y="-98.5" font-family="Helvetica,sans-Serif" font-size="10.00">/SubSystem/ShopManagerSubsystem.cpp</text>
</a>
</g>
</g>
<!-- Node1&#45;&gt;Node4 -->
<g id="edge3_Node000001_Node000004" class="edge">
<title>Node1&#45;&gt;Node4</title>
<g id="a_edge3_Node000001_Node000004"><a xlink:title=" ">
<path fill="none" stroke="#63b8ff" d="M533.12,-172.09C533.12,-164.08 533.12,-155.81 533.12,-148.32"/>
<polygon fill="#63b8ff" stroke="#63b8ff" points="529.63,-171.99 533.13,-181.99 536.63,-171.99 529.63,-171.99"/>
</a>
</g>
</g>
<!-- Node5 -->
<g id="Node000005" class="node">
<title>Node5</title>
<g id="a_Node000005"><a xlink:href="_shop_u_i_8cpp.html" target="_top" xlink:title=" ">
<polygon fill="white" stroke="#666666" points="785.38,-56 638.88,-56 638.88,0 785.38,0 785.38,-56"/>
<text xml:space="preserve" text-anchor="start" x="646.88" y="-42.5" font-family="Helvetica,sans-Serif" font-size="10.00">C:/Users/user/Perforce</text>
<text xml:space="preserve" text-anchor="start" x="646.88" y="-30.5" font-family="Helvetica,sans-Serif" font-size="10.00">/alz7_CobaltbruWorkspace</text>
<text xml:space="preserve" text-anchor="start" x="646.88" y="-18.5" font-family="Helvetica,sans-Serif" font-size="10.00">_00/KPT/Source/KPT/UI/Item</text>
<text xml:space="preserve" text-anchor="middle" x="712.12" y="-6.5" font-family="Helvetica,sans-Serif" font-size="10.00">/ShopUI.cpp</text>
</a>
</g>
</g>
<!-- Node1&#45;&gt;Node5 -->
<g id="edge4_Node000001_Node000005" class="edge">
<title>Node1&#45;&gt;Node5</title>
<g id="a_edge4_Node000001_Node000005"><a xlink:title=" ">
<path fill="none" stroke="#63b8ff" d="M603.86,-177.86C617.85,-169.35 631.72,-159.35 643.12,-148 657.39,-133.81 682.77,-86.75 698.45,-56.23"/>
<polygon fill="#63b8ff" stroke="#63b8ff" points="602.36,-174.68 595.49,-182.74 605.89,-180.72 602.36,-174.68"/>
</a>
</g>
</g>
<!-- Node6 -->
<g id="Node000006" class="node">
<title>Node6</title>
<g id="a_Node000006"><a xlink:href="_shop_u_i_8h.html" target="_top" xlink:title=" ">
<polygon fill="white" stroke="#666666" points="836.38,-148 689.88,-148 689.88,-92 836.38,-92 836.38,-148"/>
<text xml:space="preserve" text-anchor="start" x="697.88" y="-134.5" font-family="Helvetica,sans-Serif" font-size="10.00">C:/Users/user/Perforce</text>
<text xml:space="preserve" text-anchor="start" x="697.88" y="-122.5" font-family="Helvetica,sans-Serif" font-size="10.00">/alz7_CobaltbruWorkspace</text>
<text xml:space="preserve" text-anchor="start" x="697.88" y="-110.5" font-family="Helvetica,sans-Serif" font-size="10.00">_00/KPT/Source/KPT/UI/Item</text>
<text xml:space="preserve" text-anchor="middle" x="763.12" y="-98.5" font-family="Helvetica,sans-Serif" font-size="10.00">/ShopUI.h</text>
</a>
</g>
</g>
<!-- Node1&#45;&gt;Node6 -->
<g id="edge5_Node000001_Node000006" class="edge">
<title>Node1&#45;&gt;Node6</title>
<g id="a_edge5_Node000001_Node000006"><a xlink:title=" ">
<path fill="none" stroke="#63b8ff" d="M613.88,-179.4C639.65,-169.32 667.94,-158.25 692.9,-148.48"/>
<polygon fill="#63b8ff" stroke="#63b8ff" points="612.83,-176.05 604.79,-182.96 615.38,-182.57 612.83,-176.05"/>
</a>
</g>
</g>
<!-- Node6&#45;&gt;Node5 -->
<g id="edge6_Node000006_Node000005" class="edge">
<title>Node6&#45;&gt;Node5</title>
<g id="a_edge6_Node000006_Node000005"><a xlink:title=" ">
<path fill="none" stroke="#63b8ff" d="M742.02,-81.76C737.19,-73.24 732.15,-64.34 727.61,-56.32"/>
<polygon fill="#63b8ff" stroke="#63b8ff" points="738.82,-83.22 746.8,-90.19 744.91,-79.77 738.82,-83.22"/>
</a>
</g>
</g>
</g>
</svg>
