<?xml version="1.0" encoding="UTF-8" standalone="no"?>
<!DOCTYPE svg PUBLIC "-//W3C//DTD SVG 1.1//EN"
 "http://www.w3.org/Graphics/SVG/1.1/DTD/svg11.dtd">
<!-- Generated by graphviz version 13.1.1 (20250719.2154)
 -->
<!-- Title: C:/Users/user/Perforce/alz7_CobaltbruWorkspace_00/KPT/Source/KPT/Core/Component/Shop/PlayerWalletComponent.h Pages: 1 -->
<svg width="1142pt" height="248pt"
 viewBox="0.00 0.00 1142.00 248.00" xmlns="http://www.w3.org/2000/svg" xmlns:xlink="http://www.w3.org/1999/xlink">
<g id="graph0" class="graph" transform="scale(1 1) rotate(0) translate(4 244)">
<title>C:/Users/user/Perforce/alz7_CobaltbruWorkspace_00/KPT/Source/KPT/Core/Component/Shop/PlayerWalletComponent.h</title>
<!-- Node1 -->
<g id="Node000001" class="node">
<title>Node1</title>
<g id="a_Node000001"><a xlink:title=" ">
<polygon fill="#999999" stroke="#666666" points="772.62,-240 561.62,-240 561.62,-184 772.62,-184 772.62,-240"/>
<text xml:space="preserve" text-anchor="start" x="569.62" y="-226.5" font-family="Helvetica,sans-Serif" font-size="10.00">C:/Users/user/Perforce</text>
<text xml:space="preserve" text-anchor="start" x="569.62" y="-214.5" font-family="Helvetica,sans-Serif" font-size="10.00">/alz7_CobaltbruWorkspace</text>
<text xml:space="preserve" text-anchor="start" x="569.62" y="-202.5" font-family="Helvetica,sans-Serif" font-size="10.00">_00/KPT/Source/KPT/Core</text>
<text xml:space="preserve" text-anchor="middle" x="667.12" y="-190.5" font-family="Helvetica,sans-Serif" font-size="10.00">/Component/Shop/PlayerWalletComponent.h</text>
</a>
</g>
</g>
<!-- Node2 -->
<g id="Node000002" class="node">
<title>Node2</title>
<g id="a_Node000002"><a xlink:href="_k_p_t_player_state_8cpp.html" target="_top" xlink:title=" ">
<polygon fill="white" stroke="#666666" points="156.25,-148 0,-148 0,-92 156.25,-92 156.25,-148"/>
<text xml:space="preserve" text-anchor="start" x="8" y="-134.5" font-family="Helvetica,sans-Serif" font-size="10.00">C:/Users/user/Perforce</text>
<text xml:space="preserve" text-anchor="start" x="8" y="-122.5" font-family="Helvetica,sans-Serif" font-size="10.00">/alz7_CobaltbruWorkspace</text>
<text xml:space="preserve" text-anchor="start" x="8" y="-110.5" font-family="Helvetica,sans-Serif" font-size="10.00">_00/KPT/Source/KPT/Character</text>
<text xml:space="preserve" text-anchor="middle" x="78.12" y="-98.5" font-family="Helvetica,sans-Serif" font-size="10.00">/KPTPlayerState.cpp</text>
</a>
</g>
</g>
<!-- Node1&#45;&gt;Node2 -->
<g id="edge1_Node000001_Node000002" class="edge">
<title>Node1&#45;&gt;Node2</title>
<g id="a_edge1_Node000001_Node000002"><a xlink:title=" ">
<path fill="none" stroke="#63b8ff" d="M550.12,-202.19C447.75,-193.09 295.46,-176.17 165.12,-148 162.34,-147.4 159.52,-146.75 156.68,-146.06"/>
<polygon fill="#63b8ff" stroke="#63b8ff" points="549.64,-205.66 559.91,-203.05 550.25,-198.69 549.64,-205.66"/>
</a>
</g>
</g>
<!-- Node3 -->
<g id="Node000003" class="node">
<title>Node3</title>
<g id="a_Node000003"><a xlink:href="_player_wallet_component_8cpp.html" target="_top" xlink:title=" ">
<polygon fill="white" stroke="#666666" points="395.88,-148 174.38,-148 174.38,-92 395.88,-92 395.88,-148"/>
<text xml:space="preserve" text-anchor="start" x="182.38" y="-134.5" font-family="Helvetica,sans-Serif" font-size="10.00">C:/Users/user/Perforce</text>
<text xml:space="preserve" text-anchor="start" x="182.38" y="-122.5" font-family="Helvetica,sans-Serif" font-size="10.00">/alz7_CobaltbruWorkspace</text>
<text xml:space="preserve" text-anchor="start" x="182.38" y="-110.5" font-family="Helvetica,sans-Serif" font-size="10.00">_00/KPT/Source/KPT/Core</text>
<text xml:space="preserve" text-anchor="middle" x="285.12" y="-98.5" font-family="Helvetica,sans-Serif" font-size="10.00">/Component/Shop/PlayerWalletComponent.cpp</text>
</a>
</g>
</g>
<!-- Node1&#45;&gt;Node3 -->
<g id="edge2_Node000001_Node000003" class="edge">
<title>Node1&#45;&gt;Node3</title>
<g id="a_edge2_Node000001_Node000003"><a xlink:title=" ">
<path fill="none" stroke="#63b8ff" d="M550.25,-183.46C501.27,-171.92 444.58,-158.57 396.23,-147.18"/>
<polygon fill="#63b8ff" stroke="#63b8ff" points="549.21,-186.82 559.75,-185.7 550.82,-180 549.21,-186.82"/>
</a>
</g>
</g>
<!-- Node4 -->
<g id="Node000004" class="node">
<title>Node4</title>
<g id="a_Node000004"><a xlink:href="_k_p_t_in_game_mode_8cpp.html" target="_top" xlink:title=" ">
<polygon fill="white" stroke="#666666" points="548.38,-148 413.88,-148 413.88,-92 548.38,-92 548.38,-148"/>
<text xml:space="preserve" text-anchor="start" x="421.88" y="-134.5" font-family="Helvetica,sans-Serif" font-size="10.00">C:/Users/user/Perforce</text>
<text xml:space="preserve" text-anchor="start" x="421.88" y="-122.5" font-family="Helvetica,sans-Serif" font-size="10.00">/alz7_CobaltbruWorkspace</text>
<text xml:space="preserve" text-anchor="start" x="421.88" y="-110.5" font-family="Helvetica,sans-Serif" font-size="10.00">_00/KPT/Source/KPT/Core</text>
<text xml:space="preserve" text-anchor="middle" x="481.12" y="-98.5" font-family="Helvetica,sans-Serif" font-size="10.00">/KPTInGameMode.cpp</text>
</a>
</g>
</g>
<!-- Node1&#45;&gt;Node4 -->
<g id="edge3_Node000001_Node000004" class="edge">
<title>Node1&#45;&gt;Node4</title>
<g id="a_edge3_Node000001_Node000004"><a xlink:title=" ">
<path fill="none" stroke="#63b8ff" d="M600.15,-178.59C579.76,-168.73 557.56,-157.99 537.91,-148.48"/>
<polygon fill="#63b8ff" stroke="#63b8ff" points="598.42,-181.64 608.95,-182.85 601.47,-175.34 598.42,-181.64"/>
</a>
</g>
</g>
<!-- Node5 -->
<g id="Node000005" class="node">
<title>Node5</title>
<g id="a_Node000005"><a xlink:href="_shop_manager_subsystem_8cpp.html" target="_top" xlink:title=" ">
<polygon fill="white" stroke="#666666" points="767.75,-148 566.5,-148 566.5,-92 767.75,-92 767.75,-148"/>
<text xml:space="preserve" text-anchor="start" x="574.5" y="-134.5" font-family="Helvetica,sans-Serif" font-size="10.00">C:/Users/user/Perforce</text>
<text xml:space="preserve" text-anchor="start" x="574.5" y="-122.5" font-family="Helvetica,sans-Serif" font-size="10.00">/alz7_CobaltbruWorkspace</text>
<text xml:space="preserve" text-anchor="start" x="574.5" y="-110.5" font-family="Helvetica,sans-Serif" font-size="10.00">_00/KPT/Source/KPT/Core</text>
<text xml:space="preserve" text-anchor="middle" x="667.12" y="-98.5" font-family="Helvetica,sans-Serif" font-size="10.00">/SubSystem/ShopManagerSubsystem.cpp</text>
</a>
</g>
</g>
<!-- Node1&#45;&gt;Node5 -->
<g id="edge4_Node000001_Node000005" class="edge">
<title>Node1&#45;&gt;Node5</title>
<g id="a_edge4_Node000001_Node000005"><a xlink:title=" ">
<path fill="none" stroke="#63b8ff" d="M667.12,-172.09C667.12,-164.08 667.12,-155.81 667.12,-148.32"/>
<polygon fill="#63b8ff" stroke="#63b8ff" points="663.63,-171.99 667.13,-181.99 670.63,-171.99 663.63,-171.99"/>
</a>
</g>
</g>
<!-- Node6 -->
<g id="Node000006" class="node">
<title>Node6</title>
<g id="a_Node000006"><a xlink:href="_item_slot_u_i_8cpp.html" target="_top" xlink:title=" ">
<polygon fill="white" stroke="#666666" points="932.38,-148 785.88,-148 785.88,-92 932.38,-92 932.38,-148"/>
<text xml:space="preserve" text-anchor="start" x="793.88" y="-134.5" font-family="Helvetica,sans-Serif" font-size="10.00">C:/Users/user/Perforce</text>
<text xml:space="preserve" text-anchor="start" x="793.88" y="-122.5" font-family="Helvetica,sans-Serif" font-size="10.00">/alz7_CobaltbruWorkspace</text>
<text xml:space="preserve" text-anchor="start" x="793.88" y="-110.5" font-family="Helvetica,sans-Serif" font-size="10.00">_00/KPT/Source/KPT/UI/Item</text>
<text xml:space="preserve" text-anchor="middle" x="859.12" y="-98.5" font-family="Helvetica,sans-Serif" font-size="10.00">/ItemSlotUI.cpp</text>
</a>
</g>
</g>
<!-- Node1&#45;&gt;Node6 -->
<g id="edge5_Node000001_Node000006" class="edge">
<title>Node1&#45;&gt;Node6</title>
<g id="a_edge5_Node000001_Node000006"><a xlink:title=" ">
<path fill="none" stroke="#63b8ff" d="M735.97,-178.73C757.1,-168.83 780.13,-158.03 800.5,-148.48"/>
<polygon fill="#63b8ff" stroke="#63b8ff" points="734.71,-175.45 727.15,-182.87 737.69,-181.79 734.71,-175.45"/>
</a>
</g>
</g>
<!-- Node7 -->
<g id="Node000007" class="node">
<title>Node7</title>
<g id="a_Node000007"><a xlink:href="_shop_u_i_8cpp.html" target="_top" xlink:title=" ">
<polygon fill="white" stroke="#666666" points="1083.38,-56 936.88,-56 936.88,0 1083.38,0 1083.38,-56"/>
<text xml:space="preserve" text-anchor="start" x="944.88" y="-42.5" font-family="Helvetica,sans-Serif" font-size="10.00">C:/Users/user/Perforce</text>
<text xml:space="preserve" text-anchor="start" x="944.88" y="-30.5" font-family="Helvetica,sans-Serif" font-size="10.00">/alz7_CobaltbruWorkspace</text>
<text xml:space="preserve" text-anchor="start" x="944.88" y="-18.5" font-family="Helvetica,sans-Serif" font-size="10.00">_00/KPT/Source/KPT/UI/Item</text>
<text xml:space="preserve" text-anchor="middle" x="1010.12" y="-6.5" font-family="Helvetica,sans-Serif" font-size="10.00">/ShopUI.cpp</text>
</a>
</g>
</g>
<!-- Node1&#45;&gt;Node7 -->
<g id="edge6_Node000001_Node000007" class="edge">
<title>Node1&#45;&gt;Node7</title>
<g id="a_edge6_Node000001_Node000007"><a xlink:title=" ">
<path fill="none" stroke="#63b8ff" d="M784.37,-204.97C836.5,-197.31 896.12,-181.21 941.12,-148 949.44,-141.87 978.03,-89.68 995.69,-56.48"/>
<polygon fill="#63b8ff" stroke="#63b8ff" points="783.96,-201.49 774.53,-206.31 784.91,-208.43 783.96,-201.49"/>
</a>
</g>
</g>
<!-- Node8 -->
<g id="Node000008" class="node">
<title>Node8</title>
<g id="a_Node000008"><a xlink:href="_shop_u_i_8h.html" target="_top" xlink:title=" ">
<polygon fill="white" stroke="#666666" points="1134.38,-148 987.88,-148 987.88,-92 1134.38,-92 1134.38,-148"/>
<text xml:space="preserve" text-anchor="start" x="995.88" y="-134.5" font-family="Helvetica,sans-Serif" font-size="10.00">C:/Users/user/Perforce</text>
<text xml:space="preserve" text-anchor="start" x="995.88" y="-122.5" font-family="Helvetica,sans-Serif" font-size="10.00">/alz7_CobaltbruWorkspace</text>
<text xml:space="preserve" text-anchor="start" x="995.88" y="-110.5" font-family="Helvetica,sans-Serif" font-size="10.00">_00/KPT/Source/KPT/UI/Item</text>
<text xml:space="preserve" text-anchor="middle" x="1061.12" y="-98.5" font-family="Helvetica,sans-Serif" font-size="10.00">/ShopUI.h</text>
</a>
</g>
</g>
<!-- Node1&#45;&gt;Node8 -->
<g id="edge7_Node000001_Node000008" class="edge">
<title>Node1&#45;&gt;Node8</title>
<g id="a_edge7_Node000001_Node000008"><a xlink:title=" ">
<path fill="none" stroke="#63b8ff" d="M783.83,-189.86C841.42,-178.71 911.75,-164.04 974.12,-148 978.57,-146.86 983.12,-145.63 987.7,-144.35"/>
<polygon fill="#63b8ff" stroke="#63b8ff" points="783.5,-186.36 774.34,-191.68 784.82,-193.23 783.5,-186.36"/>
</a>
</g>
</g>
<!-- Node8&#45;&gt;Node7 -->
<g id="edge8_Node000008_Node000007" class="edge">
<title>Node8&#45;&gt;Node7</title>
<g id="a_edge8_Node000008_Node000007"><a xlink:title=" ">
<path fill="none" stroke="#63b8ff" d="M1040.02,-81.76C1035.19,-73.24 1030.15,-64.34 1025.61,-56.32"/>
<polygon fill="#63b8ff" stroke="#63b8ff" points="1036.82,-83.22 1044.8,-90.19 1042.91,-79.77 1036.82,-83.22"/>
</a>
</g>
</g>
</g>
</svg>
