<?xml version="1.0" encoding="UTF-8" standalone="no"?>
<!DOCTYPE svg PUBLIC "-//W3C//DTD SVG 1.1//EN"
 "http://www.w3.org/Graphics/SVG/1.1/DTD/svg11.dtd">
<!-- Generated by graphviz version 13.1.1 (20250719.2154)
 -->
<!-- Title: C:/Users/user/Perforce/alz7_CobaltbruWorkspace_00/KPT/Source/KPT/Core/PlayerControllerBase.cpp Pages: 1 -->
<svg width="1623pt" height="232pt"
 viewBox="0.00 0.00 1623.00 232.00" xmlns="http://www.w3.org/2000/svg" xmlns:xlink="http://www.w3.org/1999/xlink">
<g id="graph0" class="graph" transform="scale(1 1) rotate(0) translate(4 228)">
<title>C:/Users/user/Perforce/alz7_CobaltbruWorkspace_00/KPT/Source/KPT/Core/PlayerControllerBase.cpp</title>
<!-- Node1 -->
<g id="Node000001" class="node">
<title>Node1</title>
<g id="a_Node000001"><a xlink:title=" ">
<polygon fill="#999999" stroke="#666666" points="967.38,-224 832.88,-224 832.88,-168 967.38,-168 967.38,-224"/>
<text xml:space="preserve" text-anchor="start" x="840.88" y="-210.5" font-family="Helvetica,sans-Serif" font-size="10.00">C:/Users/user/Perforce</text>
<text xml:space="preserve" text-anchor="start" x="840.88" y="-198.5" font-family="Helvetica,sans-Serif" font-size="10.00">/alz7_CobaltbruWorkspace</text>
<text xml:space="preserve" text-anchor="start" x="840.88" y="-186.5" font-family="Helvetica,sans-Serif" font-size="10.00">_00/KPT/Source/KPT/Core</text>
<text xml:space="preserve" text-anchor="middle" x="900.12" y="-174.5" font-family="Helvetica,sans-Serif" font-size="10.00">/PlayerControllerBase.cpp</text>
</a>
</g>
</g>
<!-- Node2 -->
<g id="Node000002" class="node">
<title>Node2</title>
<g id="a_Node000002"><a xlink:href="_player_controller_base_8h.html" target="_top" xlink:title=" ">
<polygon fill="white" stroke="#666666" points="1129.38,-132 988.88,-132 988.88,-112 1129.38,-112 1129.38,-132"/>
<text xml:space="preserve" text-anchor="middle" x="1059.12" y="-118.5" font-family="Helvetica,sans-Serif" font-size="10.00">Core/PlayerControllerBase.h</text>
</a>
</g>
</g>
<!-- Node1&#45;&gt;Node2 -->
<g id="edge1_Node000001_Node000002" class="edge">
<title>Node1&#45;&gt;Node2</title>
<g id="a_edge1_Node000001_Node000002"><a xlink:title=" ">
<path fill="none" stroke="#63b8ff" d="M960.69,-167.57C983.69,-157.16 1008.93,-145.73 1028.09,-137.05"/>
<polygon fill="#63b8ff" stroke="#63b8ff" points="1029.29,-140.35 1036.95,-133.04 1026.4,-133.98 1029.29,-140.35"/>
</a>
</g>
</g>
<!-- Node6 -->
<g id="Node000006" class="node">
<title>Node6</title>
<g id="a_Node000006"><a xlink:href="_u_i_manager_subsystem_8h.html" target="_top" xlink:title=" ">
<polygon fill="white" stroke="#666666" points="897.25,-132 735,-132 735,-112 897.25,-112 897.25,-132"/>
<text xml:space="preserve" text-anchor="middle" x="816.12" y="-118.5" font-family="Helvetica,sans-Serif" font-size="10.00">Manager/UIManagerSubsystem.h</text>
</a>
</g>
</g>
<!-- Node1&#45;&gt;Node6 -->
<g id="edge5_Node000001_Node000006" class="edge">
<title>Node1&#45;&gt;Node6</title>
<g id="a_edge5_Node000001_Node000006"><a xlink:title=" ">
<path fill="none" stroke="#63b8ff" d="M868.37,-167.78C857.38,-158.36 845.4,-148.1 835.69,-139.77"/>
<polygon fill="#63b8ff" stroke="#63b8ff" points="838.2,-137.31 828.33,-133.46 833.64,-142.62 838.2,-137.31"/>
</a>
</g>
</g>
<!-- Node3 -->
<g id="Node000003" class="node">
<title>Node3</title>
<g id="a_Node000003"><a xlink:title=" ">
<polygon fill="#e0e0e0" stroke="#999999" points="759.62,-20 680.62,-20 680.62,0 759.62,0 759.62,-20"/>
<text xml:space="preserve" text-anchor="middle" x="720.12" y="-6.5" font-family="Helvetica,sans-Serif" font-size="10.00">CoreMinimal.h</text>
</a>
</g>
</g>
<!-- Node2&#45;&gt;Node3 -->
<g id="edge2_Node000002_Node000003" class="edge">
<title>Node2&#45;&gt;Node3</title>
<g id="a_edge2_Node000002_Node000003"><a xlink:title=" ">
<path fill="none" stroke="#63b8ff" d="M1050.03,-111.73C1035.31,-97.32 1004.69,-69.76 973.12,-56 891.94,-20.62 862.02,-35.09 771.06,-20.25"/>
<polygon fill="#63b8ff" stroke="#63b8ff" points="771.91,-16.84 761.46,-18.6 770.72,-23.74 771.91,-16.84"/>
</a>
</g>
</g>
<!-- Node4 -->
<g id="Node000004" class="node">
<title>Node4</title>
<g id="a_Node000004"><a xlink:title=" ">
<polygon fill="#e0e0e0" stroke="#999999" points="1319.12,-76 1147.12,-76 1147.12,-56 1319.12,-56 1319.12,-76"/>
<text xml:space="preserve" text-anchor="middle" x="1233.12" y="-62.5" font-family="Helvetica,sans-Serif" font-size="10.00">GameFramework/PlayerController.h</text>
</a>
</g>
</g>
<!-- Node2&#45;&gt;Node4 -->
<g id="edge3_Node000002_Node000004" class="edge">
<title>Node2&#45;&gt;Node4</title>
<g id="a_edge3_Node000002_Node000004"><a xlink:title=" ">
<path fill="none" stroke="#63b8ff" d="M1089.43,-111.59C1117.83,-102.78 1160.49,-89.54 1191.96,-79.78"/>
<polygon fill="#63b8ff" stroke="#63b8ff" points="1192.62,-83.23 1201.13,-76.93 1190.55,-76.55 1192.62,-83.23"/>
</a>
</g>
</g>
<!-- Node5 -->
<g id="Node000005" class="node">
<title>Node5</title>
<g id="a_Node000005"><a xlink:title=" ">
<polygon fill="#e0e0e0" stroke="#999999" points="1499.25,-76 1337,-76 1337,-56 1499.25,-56 1499.25,-76"/>
<text xml:space="preserve" text-anchor="middle" x="1418.12" y="-62.5" font-family="Helvetica,sans-Serif" font-size="10.00">PlayerControllerBase.generated.h</text>
</a>
</g>
</g>
<!-- Node2&#45;&gt;Node5 -->
<g id="edge4_Node000002_Node000005" class="edge">
<title>Node2&#45;&gt;Node5</title>
<g id="a_edge4_Node000002_Node000005"><a xlink:title=" ">
<path fill="none" stroke="#63b8ff" d="M1122.07,-111.53C1184.04,-102.21 1278.67,-87.98 1344.19,-78.12"/>
<polygon fill="#63b8ff" stroke="#63b8ff" points="1344.39,-81.63 1353.76,-76.68 1343.35,-74.71 1344.39,-81.63"/>
</a>
</g>
</g>
<!-- Node6&#45;&gt;Node3 -->
<g id="edge6_Node000006_Node000003" class="edge">
<title>Node6&#45;&gt;Node3</title>
<g id="a_edge6_Node000006_Node000003"><a xlink:title=" ">
<path fill="none" stroke="#63b8ff" d="M887.67,-111.54C933.68,-102.46 980.64,-85.63 956.12,-56 955.38,-55.1 840.25,-33.45 771.09,-20.51"/>
<polygon fill="#63b8ff" stroke="#63b8ff" points="771.96,-17.11 761.49,-18.72 770.67,-24 771.96,-17.11"/>
</a>
</g>
</g>
<!-- Node7 -->
<g id="Node000007" class="node">
<title>Node7</title>
<g id="a_Node000007"><a xlink:title=" ">
<polygon fill="#e0e0e0" stroke="#999999" points="491.38,-76 308.88,-76 308.88,-56 491.38,-56 491.38,-76"/>
<text xml:space="preserve" text-anchor="middle" x="400.12" y="-62.5" font-family="Helvetica,sans-Serif" font-size="10.00">Subsystems/LocalPlayerSubsystem.h</text>
</a>
</g>
</g>
<!-- Node6&#45;&gt;Node7 -->
<g id="edge7_Node000006_Node000007" class="edge">
<title>Node6&#45;&gt;Node7</title>
<g id="a_edge7_Node000006_Node000007"><a xlink:title=" ">
<path fill="none" stroke="#63b8ff" d="M743.19,-111.53C670.93,-102.15 560.37,-87.8 484.4,-77.94"/>
<polygon fill="#63b8ff" stroke="#63b8ff" points="484.85,-74.47 474.48,-76.65 483.95,-81.41 484.85,-74.47"/>
</a>
</g>
</g>
<!-- Node8 -->
<g id="Node000008" class="node">
<title>Node8</title>
<g id="a_Node000008"><a xlink:title=" ">
<polygon fill="#e0e0e0" stroke="#999999" points="612.62,-76 509.62,-76 509.62,-56 612.62,-56 612.62,-76"/>
<text xml:space="preserve" text-anchor="middle" x="561.12" y="-62.5" font-family="Helvetica,sans-Serif" font-size="10.00">Containers/Queue.h</text>
</a>
</g>
</g>
<!-- Node6&#45;&gt;Node8 -->
<g id="edge8_Node000006_Node000008" class="edge">
<title>Node6&#45;&gt;Node8</title>
<g id="a_edge8_Node000006_Node000008"><a xlink:title=" ">
<path fill="none" stroke="#63b8ff" d="M771.42,-111.53C728.4,-102.42 663.23,-88.62 616.85,-78.8"/>
<polygon fill="#63b8ff" stroke="#63b8ff" points="617.77,-75.42 607.26,-76.77 616.32,-82.27 617.77,-75.42"/>
</a>
</g>
</g>
<!-- Node9 -->
<g id="Node000009" class="node">
<title>Node9</title>
<g id="a_Node000009"><a xlink:href="_level_u_i_data_asset_8h.html" target="_top" xlink:title=" ">
<polygon fill="white" stroke="#666666" points="291.12,-76 149.12,-76 149.12,-56 291.12,-56 291.12,-76"/>
<text xml:space="preserve" text-anchor="middle" x="220.12" y="-62.5" font-family="Helvetica,sans-Serif" font-size="10.00">UI/Data/LevelUIDataAsset.h</text>
</a>
</g>
</g>
<!-- Node6&#45;&gt;Node9 -->
<g id="edge9_Node000006_Node000009" class="edge">
<title>Node6&#45;&gt;Node9</title>
<g id="a_edge9_Node000006_Node000009"><a xlink:title=" ">
<path fill="none" stroke="#63b8ff" d="M734.74,-114.54C635.39,-106.5 461.95,-92.02 302.66,-76.23"/>
<polygon fill="#63b8ff" stroke="#63b8ff" points="303.02,-72.75 292.72,-75.24 302.33,-79.71 303.02,-72.75"/>
</a>
</g>
</g>
<!-- Node13 -->
<g id="Node000013" class="node">
<title>Node13</title>
<g id="a_Node000013"><a xlink:title=" ">
<polygon fill="#e0e0e0" stroke="#999999" points="761.5,-76 630.75,-76 630.75,-56 761.5,-56 761.5,-76"/>
<text xml:space="preserve" text-anchor="middle" x="696.12" y="-62.5" font-family="Helvetica,sans-Serif" font-size="10.00">UObject/NoExportTypes.h</text>
</a>
</g>
</g>
<!-- Node6&#45;&gt;Node13 -->
<g id="edge14_Node000006_Node000013" class="edge">
<title>Node6&#45;&gt;Node13</title>
<g id="a_edge14_Node000006_Node000013"><a xlink:title=" ">
<path fill="none" stroke="#63b8ff" d="M795.22,-111.59C776.5,-103.17 748.77,-90.69 727.4,-81.07"/>
<polygon fill="#63b8ff" stroke="#63b8ff" points="729.13,-78.01 718.57,-77.1 726.25,-84.4 729.13,-78.01"/>
</a>
</g>
</g>
<!-- Node14 -->
<g id="Node000014" class="node">
<title>Node14</title>
<g id="a_Node000014"><a xlink:href="_item_base_8h.html" target="_top" xlink:title=" ">
<polygon fill="white" stroke="#666666" points="1129.5,-76 1040.75,-76 1040.75,-56 1129.5,-56 1129.5,-76"/>
<text xml:space="preserve" text-anchor="middle" x="1085.12" y="-62.5" font-family="Helvetica,sans-Serif" font-size="10.00">Item/ItemBase.h</text>
</a>
</g>
</g>
<!-- Node6&#45;&gt;Node14 -->
<g id="edge15_Node000006_Node000014" class="edge">
<title>Node6&#45;&gt;Node14</title>
<g id="a_edge15_Node000006_Node000014"><a xlink:title=" ">
<path fill="none" stroke="#63b8ff" d="M863.29,-111.53C909.56,-102.24 980.13,-88.08 1029.2,-78.23"/>
<polygon fill="#63b8ff" stroke="#63b8ff" points="1029.66,-81.71 1038.77,-76.31 1028.28,-74.84 1029.66,-81.71"/>
</a>
</g>
</g>
<!-- Node21 -->
<g id="Node000021" class="node">
<title>Node21</title>
<g id="a_Node000021"><a xlink:title=" ">
<polygon fill="#e0e0e0" stroke="#999999" points="946.88,-76 779.38,-76 779.38,-56 946.88,-56 946.88,-76"/>
<text xml:space="preserve" text-anchor="middle" x="863.12" y="-62.5" font-family="Helvetica,sans-Serif" font-size="10.00">UIManagerSubsystem.generated.h</text>
</a>
</g>
</g>
<!-- Node6&#45;&gt;Node21 -->
<g id="edge23_Node000006_Node000021" class="edge">
<title>Node6&#45;&gt;Node21</title>
<g id="a_edge23_Node000006_Node000021"><a xlink:title=" ">
<path fill="none" stroke="#63b8ff" d="M824.31,-111.59C830.71,-104.24 839.8,-93.8 847.58,-84.87"/>
<polygon fill="#63b8ff" stroke="#63b8ff" points="850.11,-87.28 854.04,-77.44 844.83,-82.69 850.11,-87.28"/>
</a>
</g>
</g>
<!-- Node9&#45;&gt;Node3 -->
<g id="edge10_Node000009_Node000003" class="edge">
<title>Node9&#45;&gt;Node3</title>
<g id="a_edge10_Node000009_Node000003"><a xlink:title=" ">
<path fill="none" stroke="#63b8ff" d="M291.22,-56.98C294.23,-56.65 297.21,-56.32 300.12,-56 433.18,-41.39 590.01,-24.74 669.07,-16.38"/>
<polygon fill="#63b8ff" stroke="#63b8ff" points="669.08,-19.9 678.65,-15.37 668.34,-12.94 669.08,-19.9"/>
</a>
</g>
</g>
<!-- Node10 -->
<g id="Node000010" class="node">
<title>Node10</title>
<g id="a_Node000010"><a xlink:title=" ">
<polygon fill="#e0e0e0" stroke="#999999" points="272,-20 168.25,-20 168.25,0 272,0 272,-20"/>
<text xml:space="preserve" text-anchor="middle" x="220.12" y="-6.5" font-family="Helvetica,sans-Serif" font-size="10.00">Engine/DataAsset.h</text>
</a>
</g>
</g>
<!-- Node9&#45;&gt;Node10 -->
<g id="edge11_Node000009_Node000010" class="edge">
<title>Node9&#45;&gt;Node10</title>
<g id="a_edge11_Node000009_Node000010"><a xlink:title=" ">
<path fill="none" stroke="#63b8ff" d="M220.12,-55.59C220.12,-49.01 220.12,-39.96 220.12,-31.73"/>
<polygon fill="#63b8ff" stroke="#63b8ff" points="223.63,-31.81 220.13,-21.81 216.63,-31.81 223.63,-31.81"/>
</a>
</g>
</g>
<!-- Node11 -->
<g id="Node000011" class="node">
<title>Node11</title>
<g id="a_Node000011"><a xlink:title=" ">
<polygon fill="#e0e0e0" stroke="#999999" points="407.75,-20 290.5,-20 290.5,0 407.75,0 407.75,-20"/>
<text xml:space="preserve" text-anchor="middle" x="349.12" y="-6.5" font-family="Helvetica,sans-Serif" font-size="10.00">Blueprint/UserWidget.h</text>
</a>
</g>
</g>
<!-- Node9&#45;&gt;Node11 -->
<g id="edge12_Node000009_Node000011" class="edge">
<title>Node9&#45;&gt;Node11</title>
<g id="a_edge12_Node000009_Node000011"><a xlink:title=" ">
<path fill="none" stroke="#63b8ff" d="M242.6,-55.59C262.91,-47.09 293.08,-34.46 316.13,-24.81"/>
<polygon fill="#63b8ff" stroke="#63b8ff" points="317.21,-28.15 325.08,-21.06 314.51,-21.7 317.21,-28.15"/>
</a>
</g>
</g>
<!-- Node12 -->
<g id="Node000012" class="node">
<title>Node12</title>
<g id="a_Node000012"><a xlink:title=" ">
<polygon fill="#e0e0e0" stroke="#999999" points="150.25,-20 0,-20 0,0 150.25,0 150.25,-20"/>
<text xml:space="preserve" text-anchor="middle" x="75.12" y="-6.5" font-family="Helvetica,sans-Serif" font-size="10.00">LevelUIDataAsset.generated.h</text>
</a>
</g>
</g>
<!-- Node9&#45;&gt;Node12 -->
<g id="edge13_Node000009_Node000012" class="edge">
<title>Node9&#45;&gt;Node12</title>
<g id="a_edge13_Node000009_Node000012"><a xlink:title=" ">
<path fill="none" stroke="#63b8ff" d="M194.87,-55.59C171.72,-46.97 137.2,-34.12 111.16,-24.42"/>
<polygon fill="#63b8ff" stroke="#63b8ff" points="112.59,-21.22 102,-21.01 110.15,-27.78 112.59,-21.22"/>
</a>
</g>
</g>
<!-- Node14&#45;&gt;Node3 -->
<g id="edge16_Node000014_Node000003" class="edge">
<title>Node14&#45;&gt;Node3</title>
<g id="a_edge16_Node000014_Node000003"><a xlink:title=" ">
<path fill="none" stroke="#63b8ff" d="M1040.49,-58C1035.97,-57.32 1031.46,-56.64 1027.12,-56 916.16,-39.65 885.33,-38.52 771.25,-20.28"/>
<polygon fill="#63b8ff" stroke="#63b8ff" points="771.87,-16.84 761.44,-18.7 770.76,-23.75 771.87,-16.84"/>
</a>
</g>
</g>
<!-- Node15 -->
<g id="Node000015" class="node">
<title>Node15</title>
<g id="a_Node000015"><a xlink:title=" ">
<polygon fill="#e0e0e0" stroke="#999999" points="1521.38,-20 1368.88,-20 1368.88,0 1521.38,0 1521.38,-20"/>
<text xml:space="preserve" text-anchor="middle" x="1445.12" y="-6.5" font-family="Helvetica,sans-Serif" font-size="10.00">ActiveGameplayEffectHandle.h</text>
</a>
</g>
</g>
<!-- Node14&#45;&gt;Node15 -->
<g id="edge17_Node000014_Node000015" class="edge">
<title>Node14&#45;&gt;Node15</title>
<g id="a_edge17_Node000014_Node000015"><a xlink:title=" ">
<path fill="none" stroke="#63b8ff" d="M1129.93,-57.32C1132.7,-56.87 1135.45,-56.42 1138.12,-56 1215.51,-43.76 1304.06,-30.9 1366.11,-22.08"/>
<polygon fill="#63b8ff" stroke="#63b8ff" points="1366.47,-25.56 1375.88,-20.69 1365.49,-18.63 1366.47,-25.56"/>
</a>
</g>
</g>
<!-- Node16 -->
<g id="Node000016" class="node">
<title>Node16</title>
<g id="a_Node000016"><a xlink:title=" ">
<polygon fill="#e0e0e0" stroke="#999999" points="1615.12,-20 1539.12,-20 1539.12,0 1615.12,0 1615.12,-20"/>
<text xml:space="preserve" text-anchor="middle" x="1577.12" y="-6.5" font-family="Helvetica,sans-Serif" font-size="10.00">AttributeSet.h</text>
</a>
</g>
</g>
<!-- Node14&#45;&gt;Node16 -->
<g id="edge18_Node000014_Node000016" class="edge">
<title>Node14&#45;&gt;Node16</title>
<g id="a_edge18_Node000014_Node000016"><a xlink:title=" ">
<path fill="none" stroke="#63b8ff" d="M1129.91,-57.15C1132.69,-56.74 1135.44,-56.35 1138.12,-56 1307.96,-33.81 1354.93,-44.03 1527.43,-20.25"/>
<polygon fill="#63b8ff" stroke="#63b8ff" points="1527.78,-23.74 1537.2,-18.88 1526.81,-16.8 1527.78,-23.74"/>
</a>
</g>
</g>
<!-- Node17 -->
<g id="Node000017" class="node">
<title>Node17</title>
<g id="a_Node000017"><a xlink:title=" ">
<polygon fill="#e0e0e0" stroke="#999999" points="926.5,-20 777.75,-20 777.75,0 926.5,0 926.5,-20"/>
<text xml:space="preserve" text-anchor="middle" x="852.12" y="-6.5" font-family="Helvetica,sans-Serif" font-size="10.00">GameplayAbilitySpecHandle.h</text>
</a>
</g>
</g>
<!-- Node14&#45;&gt;Node17 -->
<g id="edge19_Node000014_Node000017" class="edge">
<title>Node14&#45;&gt;Node17</title>
<g id="a_edge19_Node000014_Node000017"><a xlink:title=" ">
<path fill="none" stroke="#63b8ff" d="M1044.27,-55.53C1005.3,-46.5 946.42,-32.85 904.12,-23.05"/>
<polygon fill="#63b8ff" stroke="#63b8ff" points="904.94,-19.65 894.4,-20.8 903.36,-26.47 904.94,-19.65"/>
</a>
</g>
</g>
<!-- Node18 -->
<g id="Node000018" class="node">
<title>Node18</title>
<g id="a_Node000018"><a xlink:title=" ">
<polygon fill="#e0e0e0" stroke="#999999" points="1077.25,-20 945,-20 945,0 1077.25,0 1077.25,-20"/>
<text xml:space="preserve" text-anchor="middle" x="1011.12" y="-6.5" font-family="Helvetica,sans-Serif" font-size="10.00">Abilities/GameplayAbility.h</text>
</a>
</g>
</g>
<!-- Node14&#45;&gt;Node18 -->
<g id="edge20_Node000014_Node000018" class="edge">
<title>Node14&#45;&gt;Node18</title>
<g id="a_edge20_Node000014_Node000018"><a xlink:title=" ">
<path fill="none" stroke="#63b8ff" d="M1072.24,-55.59C1061.41,-47.7 1045.71,-36.24 1032.94,-26.92"/>
<polygon fill="#63b8ff" stroke="#63b8ff" points="1035.23,-24.26 1025.09,-21.19 1031.1,-29.91 1035.23,-24.26"/>
</a>
</g>
</g>
<!-- Node19 -->
<g id="Node000019" class="node">
<title>Node19</title>
<g id="a_Node000019"><a xlink:title=" ">
<polygon fill="#e0e0e0" stroke="#999999" points="1220.88,-20 1095.38,-20 1095.38,0 1220.88,0 1220.88,-20"/>
<text xml:space="preserve" text-anchor="middle" x="1158.12" y="-6.5" font-family="Helvetica,sans-Serif" font-size="10.00">GameFramework/Actor.h</text>
</a>
</g>
</g>
<!-- Node14&#45;&gt;Node19 -->
<g id="edge21_Node000014_Node000019" class="edge">
<title>Node14&#45;&gt;Node19</title>
<g id="a_edge21_Node000014_Node000019"><a xlink:title=" ">
<path fill="none" stroke="#63b8ff" d="M1097.84,-55.59C1108.52,-47.7 1124,-36.24 1136.61,-26.92"/>
<polygon fill="#63b8ff" stroke="#63b8ff" points="1138.38,-29.96 1144.34,-21.2 1134.22,-24.33 1138.38,-29.96"/>
</a>
</g>
</g>
<!-- Node20 -->
<g id="Node000020" class="node">
<title>Node20</title>
<g id="a_Node000020"><a xlink:title=" ">
<polygon fill="#e0e0e0" stroke="#999999" points="1351.12,-20 1239.12,-20 1239.12,0 1351.12,0 1351.12,-20"/>
<text xml:space="preserve" text-anchor="middle" x="1295.12" y="-6.5" font-family="Helvetica,sans-Serif" font-size="10.00">ItemBase.generated.h</text>
</a>
</g>
</g>
<!-- Node14&#45;&gt;Node20 -->
<g id="edge22_Node000014_Node000020" class="edge">
<title>Node14&#45;&gt;Node20</title>
<g id="a_edge22_Node000014_Node000020"><a xlink:title=" ">
<path fill="none" stroke="#63b8ff" d="M1121.7,-55.59C1156.57,-46.63 1209.27,-33.08 1247.42,-23.27"/>
<polygon fill="#63b8ff" stroke="#63b8ff" points="1247.98,-26.74 1256.79,-20.86 1246.24,-19.96 1247.98,-26.74"/>
</a>
</g>
</g>
</g>
</svg>
