<?xml version="1.0" encoding="UTF-8" standalone="no"?>
<!DOCTYPE svg PUBLIC "-//W3C//DTD SVG 1.1//EN"
 "http://www.w3.org/Graphics/SVG/1.1/DTD/svg11.dtd">
<!-- Generated by graphviz version 13.1.1 (20250719.2154)
 -->
<!-- Title: C:/Users/user/Perforce/alz7_CobaltbruWorkspace_00/KPT/Source/KPT/Core/SubSystem/PoolSubSystem.h Pages: 1 -->
<svg width="867pt" height="156pt"
 viewBox="0.00 0.00 867.00 156.00" xmlns="http://www.w3.org/2000/svg" xmlns:xlink="http://www.w3.org/1999/xlink">
<g id="graph0" class="graph" transform="scale(1 1) rotate(0) translate(4 152)">
<title>C:/Users/user/Perforce/alz7_CobaltbruWorkspace_00/KPT/Source/KPT/Core/SubSystem/PoolSubSystem.h</title>
<!-- Node1 -->
<g id="Node000001" class="node">
<title>Node1</title>
<g id="a_Node000001"><a xlink:title=" ">
<polygon fill="#999999" stroke="#666666" points="551.25,-148 399.5,-148 399.5,-92 551.25,-92 551.25,-148"/>
<text xml:space="preserve" text-anchor="start" x="407.5" y="-134.5" font-family="Helvetica,sans-Serif" font-size="10.00">C:/Users/user/Perforce</text>
<text xml:space="preserve" text-anchor="start" x="407.5" y="-122.5" font-family="Helvetica,sans-Serif" font-size="10.00">/alz7_CobaltbruWorkspace</text>
<text xml:space="preserve" text-anchor="start" x="407.5" y="-110.5" font-family="Helvetica,sans-Serif" font-size="10.00">_00/KPT/Source/KPT/Core</text>
<text xml:space="preserve" text-anchor="middle" x="475.38" y="-98.5" font-family="Helvetica,sans-Serif" font-size="10.00">/SubSystem/PoolSubSystem.h</text>
</a>
</g>
</g>
<!-- Node2 -->
<g id="Node000002" class="node">
<title>Node2</title>
<g id="a_Node000002"><a xlink:href="_boss_monster_base_8cpp.html" target="_top" xlink:title=" ">
<polygon fill="white" stroke="#666666" points="148.75,-56 0,-56 0,0 148.75,0 148.75,-56"/>
<text xml:space="preserve" text-anchor="start" x="8" y="-42.5" font-family="Helvetica,sans-Serif" font-size="10.00">C:/Users/user/Perforce</text>
<text xml:space="preserve" text-anchor="start" x="8" y="-30.5" font-family="Helvetica,sans-Serif" font-size="10.00">/alz7_CobaltbruWorkspace</text>
<text xml:space="preserve" text-anchor="start" x="8" y="-18.5" font-family="Helvetica,sans-Serif" font-size="10.00">_00/KPT/Source/KPT/AI/Boss</text>
<text xml:space="preserve" text-anchor="middle" x="74.38" y="-6.5" font-family="Helvetica,sans-Serif" font-size="10.00">/BossMonsterBase.cpp</text>
</a>
</g>
</g>
<!-- Node1&#45;&gt;Node2 -->
<g id="edge1_Node000001_Node000002" class="edge">
<title>Node1&#45;&gt;Node2</title>
<g id="a_edge1_Node000001_Node000002"><a xlink:title=" ">
<path fill="none" stroke="#63b8ff" d="M387.99,-104.42C323.98,-93.07 235.23,-75.92 158.38,-56 155.26,-55.19 152.09,-54.34 148.9,-53.44"/>
<polygon fill="#63b8ff" stroke="#63b8ff" points="387.3,-107.85 397.75,-106.14 388.51,-100.96 387.3,-107.85"/>
</a>
</g>
</g>
<!-- Node3 -->
<g id="Node000003" class="node">
<title>Node3</title>
<g id="a_Node000003"><a xlink:href="_minion_monster_8cpp.html" target="_top" xlink:title=" ">
<polygon fill="white" stroke="#666666" points="375.75,-50 167,-50 167,-6 375.75,-6 375.75,-50"/>
<text xml:space="preserve" text-anchor="start" x="175" y="-36.5" font-family="Helvetica,sans-Serif" font-size="10.00">C:/Users/user/Perforce</text>
<text xml:space="preserve" text-anchor="start" x="175" y="-24.5" font-family="Helvetica,sans-Serif" font-size="10.00">/alz7_CobaltbruWorkspace</text>
<text xml:space="preserve" text-anchor="middle" x="271.38" y="-12.5" font-family="Helvetica,sans-Serif" font-size="10.00">_00/KPT/Source/KPT/AI/MinionMonster.cpp</text>
</a>
</g>
</g>
<!-- Node1&#45;&gt;Node3 -->
<g id="edge2_Node000001_Node000003" class="edge">
<title>Node1&#45;&gt;Node3</title>
<g id="a_edge2_Node000001_Node000003"><a xlink:title=" ">
<path fill="none" stroke="#63b8ff" d="M402.72,-86.94C375.29,-74.84 344.76,-61.38 320.05,-50.47"/>
<polygon fill="#63b8ff" stroke="#63b8ff" points="401.11,-90.06 411.68,-90.9 403.94,-83.66 401.11,-90.06"/>
</a>
</g>
</g>
<!-- Node4 -->
<g id="Node000004" class="node">
<title>Node4</title>
<g id="a_Node000004"><a xlink:href="_pool_sub_system_8cpp.html" target="_top" xlink:title=" ">
<polygon fill="white" stroke="#666666" points="556.5,-56 394.25,-56 394.25,0 556.5,0 556.5,-56"/>
<text xml:space="preserve" text-anchor="start" x="402.25" y="-42.5" font-family="Helvetica,sans-Serif" font-size="10.00">C:/Users/user/Perforce</text>
<text xml:space="preserve" text-anchor="start" x="402.25" y="-30.5" font-family="Helvetica,sans-Serif" font-size="10.00">/alz7_CobaltbruWorkspace</text>
<text xml:space="preserve" text-anchor="start" x="402.25" y="-18.5" font-family="Helvetica,sans-Serif" font-size="10.00">_00/KPT/Source/KPT/Core</text>
<text xml:space="preserve" text-anchor="middle" x="475.38" y="-6.5" font-family="Helvetica,sans-Serif" font-size="10.00">/SubSystem/PoolSubSystem.cpp</text>
</a>
</g>
</g>
<!-- Node1&#45;&gt;Node4 -->
<g id="edge3_Node000001_Node000004" class="edge">
<title>Node1&#45;&gt;Node4</title>
<g id="a_edge3_Node000001_Node000004"><a xlink:title=" ">
<path fill="none" stroke="#63b8ff" d="M475.38,-80.09C475.38,-72.08 475.38,-63.81 475.38,-56.32"/>
<polygon fill="#63b8ff" stroke="#63b8ff" points="471.88,-79.99 475.38,-89.99 478.88,-79.99 471.88,-79.99"/>
</a>
</g>
</g>
<!-- Node5 -->
<g id="Node000005" class="node">
<title>Node5</title>
<g id="a_Node000005"><a xlink:href="_experience_8cpp.html" target="_top" xlink:title=" ">
<polygon fill="white" stroke="#666666" points="707.88,-56 574.88,-56 574.88,0 707.88,0 707.88,-56"/>
<text xml:space="preserve" text-anchor="start" x="582.88" y="-42.5" font-family="Helvetica,sans-Serif" font-size="10.00">C:/Users/user/Perforce</text>
<text xml:space="preserve" text-anchor="start" x="582.88" y="-30.5" font-family="Helvetica,sans-Serif" font-size="10.00">/alz7_CobaltbruWorkspace</text>
<text xml:space="preserve" text-anchor="start" x="582.88" y="-18.5" font-family="Helvetica,sans-Serif" font-size="10.00">_00/KPT/Source/KPT/Item</text>
<text xml:space="preserve" text-anchor="middle" x="641.38" y="-6.5" font-family="Helvetica,sans-Serif" font-size="10.00">/Experience.cpp</text>
</a>
</g>
</g>
<!-- Node1&#45;&gt;Node5 -->
<g id="edge4_Node000001_Node000005" class="edge">
<title>Node1&#45;&gt;Node5</title>
<g id="a_edge4_Node000001_Node000005"><a xlink:title=" ">
<path fill="none" stroke="#63b8ff" d="M536.15,-86.05C554.07,-76.34 573.48,-65.81 590.69,-56.48"/>
<polygon fill="#63b8ff" stroke="#63b8ff" points="534.54,-82.94 527.41,-90.79 537.87,-89.1 534.54,-82.94"/>
</a>
</g>
</g>
<!-- Node6 -->
<g id="Node000006" class="node">
<title>Node6</title>
<g id="a_Node000006"><a xlink:href="_gold_8cpp.html" target="_top" xlink:title=" ">
<polygon fill="white" stroke="#666666" points="858.88,-56 725.88,-56 725.88,0 858.88,0 858.88,-56"/>
<text xml:space="preserve" text-anchor="start" x="733.88" y="-42.5" font-family="Helvetica,sans-Serif" font-size="10.00">C:/Users/user/Perforce</text>
<text xml:space="preserve" text-anchor="start" x="733.88" y="-30.5" font-family="Helvetica,sans-Serif" font-size="10.00">/alz7_CobaltbruWorkspace</text>
<text xml:space="preserve" text-anchor="start" x="733.88" y="-18.5" font-family="Helvetica,sans-Serif" font-size="10.00">_00/KPT/Source/KPT/Item</text>
<text xml:space="preserve" text-anchor="middle" x="792.38" y="-6.5" font-family="Helvetica,sans-Serif" font-size="10.00">/Gold.cpp</text>
</a>
</g>
</g>
<!-- Node1&#45;&gt;Node6 -->
<g id="edge5_Node000001_Node000006" class="edge">
<title>Node1&#45;&gt;Node6</title>
<g id="a_edge5_Node000001_Node000006"><a xlink:title=" ">
<path fill="none" stroke="#63b8ff" d="M562.53,-98.34C608.82,-86.86 666.5,-71.74 717.38,-56 720.02,-55.18 722.71,-54.33 725.42,-53.45"/>
<polygon fill="#63b8ff" stroke="#63b8ff" points="561.97,-94.88 553.1,-100.67 563.65,-101.67 561.97,-94.88"/>
</a>
</g>
</g>
</g>
</svg>
