<?xml version="1.0" encoding="UTF-8" standalone="no"?>
<!DOCTYPE svg PUBLIC "-//W3C//DTD SVG 1.1//EN"
 "http://www.w3.org/Graphics/SVG/1.1/DTD/svg11.dtd">
<!-- Generated by graphviz version 13.1.1 (20250719.2154)
 -->
<!-- Title: C:/Users/user/Perforce/alz7_CobaltbruWorkspace_00/KPT/Source/KPT/Skill/Projectile/ProjectileBase.cpp Pages: 1 -->
<!--zoomable 256 -->

<svg id="main" version="1.1" xmlns="http://www.w3.org/2000/svg" xmlns:xlink="http://www.w3.org/1999/xlink" xml:space="preserve" onload="init(evt)">

<style type="text/css"><![CDATA[
.node, .edge {opacity: 0.7;}
.node.selected, .edge.selected {opacity: 1;}
.edge:hover path { stroke: red; }
.edge:hover polygon { stroke: red; fill: red; }
]]></style>

<defs>
  <circle id="rim" cx="0" cy="0" r="7"/>
  <circle id="rim2" cx="0" cy="0" r="3.5"/>
  <g id="zoomPlus">
    <use xlink:href="#rim" fill="#404040"><set attributeName="fill" to="#808080" begin="zoomplus.mouseover" end="zoomplus.mouseout"/></use>
    <path d="M-4,0h8M0,-4v8" fill="none" stroke="white" stroke-width="1.5" pointer-events="none"/>
  </g>
  <g id="zoomMin">
    <use xlink:href="#rim" fill="#404040"><set attributeName="fill" to="#808080" begin="zoomminus.mouseover" end="zoomminus.mouseout"/></use>
    <path d="M-4,0h8" fill="none" stroke="white" stroke-width="1.5" pointer-events="none"/>
  </g>
  <g id="arrowUp" transform="translate(30 24)">
    <use xlink:href="#rim"/>
    <path pointer-events="none" fill="none" stroke="white" stroke-width="1.5" d="M0,-3.0v7 M-2.5,-0.5L0,-3.0L2.5,-0.5"/>
  </g>
  <g id="arrowRight" transform="rotate(90) translate(36 -43)">
    <use xlink:href="#rim"/>
    <path pointer-events="none" fill="none" stroke="white" stroke-width="1.5" d="M0,-3.0v7 M-2.5,-0.5L0,-3.0L2.5,-0.5"/>
  </g>
  <g id="arrowDown" transform="rotate(180) translate(-30 -48)">
    <use xlink:href="#rim"/>
    <path pointer-events="none" fill="none" stroke="white" stroke-width="1.5" d="M0,-3.0v7 M-2.5,-0.5L0,-3.0L2.5,-0.5"/>
  </g>
  <g id="arrowLeft" transform="rotate(270) translate(-36 17)">
    <use xlink:href="#rim"/>
    <path pointer-events="none" fill="none" stroke="white" stroke-width="1.5" d="M0,-3.0v7 M-2.5,-0.5L0,-3.0L2.5,-0.5"/>
  </g>
  <g id="resetDef">
    <use xlink:href="#rim2" fill="#404040"><set attributeName="fill" to="#808080" begin="reset.mouseover" end="reset.mouseout"/></use>
  </g>
</defs>
<script type="application/ecmascript">
var viewWidth = 3466;
var viewHeight = 256;
var sectionId = 'dynsection-0';
</script>
<script type="application/ecmascript" xlink:href="svg.min.js"/>
<svg id="graph" class="graph">
<g id="viewport">
<title>C:/Users/user/Perforce/alz7_CobaltbruWorkspace_00/KPT/Source/KPT/Skill/Projectile/ProjectileBase.cpp</title>
<!-- Node1 -->
<g id="Node000001" class="node">
<title>Node1</title>
<g id="a_Node000001"><a xlink:title=" ">
<polygon fill="#999999" stroke="#666666" points="2282.25,-248 2138,-248 2138,-192 2282.25,-192 2282.25,-248"/>
<text xml:space="preserve" text-anchor="start" x="2146" y="-234.5" font-family="Helvetica,sans-Serif" font-size="10.00">C:/Users/user/Perforce</text>
<text xml:space="preserve" text-anchor="start" x="2146" y="-222.5" font-family="Helvetica,sans-Serif" font-size="10.00">/alz7_CobaltbruWorkspace</text>
<text xml:space="preserve" text-anchor="start" x="2146" y="-210.5" font-family="Helvetica,sans-Serif" font-size="10.00">_00/KPT/Source/KPT/Skill</text>
<text xml:space="preserve" text-anchor="middle" x="2210.12" y="-198.5" font-family="Helvetica,sans-Serif" font-size="10.00">/Projectile/ProjectileBase.cpp</text>
</a>
</g>
</g>
<!-- Node2 -->
<g id="Node000002" class="node">
<title>Node2</title>
<g id="a_Node000002"><a xlink:href="_projectile_base_8h.html" target="_top" xlink:title=" ">
<polygon fill="white" stroke="#666666" points="1038,-156 916.25,-156 916.25,-124 1038,-124 1038,-156"/>
<text xml:space="preserve" text-anchor="start" x="924.25" y="-142.5" font-family="Helvetica,sans-Serif" font-size="10.00">Skill/Projectile/Projectile</text>
<text xml:space="preserve" text-anchor="middle" x="977.12" y="-130.5" font-family="Helvetica,sans-Serif" font-size="10.00">Base.h</text>
</a>
</g>
</g>
<!-- Node1&#45;&gt;Node2 -->
<g id="edge1_Node000001_Node000002" class="edge">
<title>Node1&#45;&gt;Node2</title>
<g id="a_edge1_Node000001_Node000002"><a xlink:title=" ">
<path fill="none" stroke="#63b8ff" d="M2137.6,-214.41C1919.02,-200.58 1268.29,-159.42 1049.68,-145.59"/>
<polygon fill="#63b8ff" stroke="#63b8ff" points="1050.08,-142.11 1039.87,-144.97 1049.63,-149.09 1050.08,-142.11"/>
</a>
</g>
</g>
<!-- Node11 -->
<g id="Node000011" class="node">
<title>Node11</title>
<g id="a_Node000011"><a xlink:title=" ">
<polygon fill="#e0e0e0" stroke="#999999" points="2286,-150 2134.25,-150 2134.25,-130 2286,-130 2286,-150"/>
<text xml:space="preserve" text-anchor="middle" x="2210.12" y="-136.5" font-family="Helvetica,sans-Serif" font-size="10.00">AbilitySystemBlueprintLibrary.h</text>
</a>
</g>
</g>
<!-- Node1&#45;&gt;Node11 -->
<g id="edge11_Node000001_Node000011" class="edge">
<title>Node1&#45;&gt;Node11</title>
<g id="a_edge11_Node000001_Node000011"><a xlink:title=" ">
<path fill="none" stroke="#63b8ff" d="M2210.12,-191.72C2210.12,-181.81 2210.12,-170.79 2210.12,-161.56"/>
<polygon fill="#63b8ff" stroke="#63b8ff" points="2213.63,-161.87 2210.13,-151.87 2206.63,-161.87 2213.63,-161.87"/>
</a>
</g>
</g>
<!-- Node12 -->
<g id="Node000012" class="node">
<title>Node12</title>
<g id="a_Node000012"><a xlink:href="_projectile_pool_subsystem_8h.html" target="_top" xlink:title=" ">
<polygon fill="white" stroke="#666666" points="1484,-156 1362.25,-156 1362.25,-124 1484,-124 1484,-156"/>
<text xml:space="preserve" text-anchor="start" x="1370.25" y="-142.5" font-family="Helvetica,sans-Serif" font-size="10.00">Skill/Projectile/Projectile</text>
<text xml:space="preserve" text-anchor="middle" x="1423.12" y="-130.5" font-family="Helvetica,sans-Serif" font-size="10.00">PoolSubsystem.h</text>
</a>
</g>
</g>
<!-- Node1&#45;&gt;Node12 -->
<g id="edge12_Node000001_Node000012" class="edge">
<title>Node1&#45;&gt;Node12</title>
<g id="a_edge12_Node000001_Node000012"><a xlink:title=" ">
<path fill="none" stroke="#63b8ff" d="M2137.85,-211.84C1988.14,-197 1645.62,-163.05 1495.67,-148.19"/>
<polygon fill="#63b8ff" stroke="#63b8ff" points="1496.16,-144.72 1485.86,-147.22 1495.47,-151.69 1496.16,-144.72"/>
</a>
</g>
</g>
<!-- Node15 -->
<g id="Node000015" class="node">
<title>Node15</title>
<g id="a_Node000015"><a xlink:title=" ">
<polygon fill="#e0e0e0" stroke="#999999" points="2472.62,-150 2303.62,-150 2303.62,-130 2472.62,-130 2472.62,-150"/>
<text xml:space="preserve" text-anchor="middle" x="2388.12" y="-136.5" font-family="Helvetica,sans-Serif" font-size="10.00">Components/CapsuleComponent.h</text>
</a>
</g>
</g>
<!-- Node1&#45;&gt;Node15 -->
<g id="edge16_Node000001_Node000015" class="edge">
<title>Node1&#45;&gt;Node15</title>
<g id="a_edge16_Node000001_Node000015"><a xlink:title=" ">
<path fill="none" stroke="#63b8ff" d="M2272.88,-191.5C2301.05,-179.16 2333.07,-165.12 2356.2,-154.99"/>
<polygon fill="#63b8ff" stroke="#63b8ff" points="2357.33,-158.32 2365.08,-151.1 2354.52,-151.91 2357.33,-158.32"/>
</a>
</g>
</g>
<!-- Node16 -->
<g id="Node000016" class="node">
<title>Node16</title>
<g id="a_Node000016"><a xlink:title=" ">
<polygon fill="#e0e0e0" stroke="#999999" points="2625.38,-156 2490.88,-156 2490.88,-124 2625.38,-124 2625.38,-156"/>
<text xml:space="preserve" text-anchor="start" x="2498.88" y="-142.5" font-family="Helvetica,sans-Serif" font-size="10.00">GameFramework/Projectile</text>
<text xml:space="preserve" text-anchor="middle" x="2558.12" y="-130.5" font-family="Helvetica,sans-Serif" font-size="10.00">MovementComponent.h</text>
</a>
</g>
</g>
<!-- Node1&#45;&gt;Node16 -->
<g id="edge17_Node000001_Node000016" class="edge">
<title>Node1&#45;&gt;Node16</title>
<g id="a_edge17_Node000001_Node000016"><a xlink:title=" ">
<path fill="none" stroke="#63b8ff" d="M2282.65,-202.74C2340.1,-189.87 2420.24,-171.91 2479.28,-158.67"/>
<polygon fill="#63b8ff" stroke="#63b8ff" points="2479.95,-162.11 2488.94,-156.51 2478.41,-155.28 2479.95,-162.11"/>
</a>
</g>
</g>
<!-- Node17 -->
<g id="Node000017" class="node">
<title>Node17</title>
<g id="a_Node000017"><a xlink:title=" ">
<polygon fill="#e0e0e0" stroke="#999999" points="2767.12,-156 2643.12,-156 2643.12,-124 2767.12,-124 2767.12,-156"/>
<text xml:space="preserve" text-anchor="start" x="2651.12" y="-142.5" font-family="Helvetica,sans-Serif" font-size="10.00">Particles/ParticleSystem</text>
<text xml:space="preserve" text-anchor="middle" x="2705.12" y="-130.5" font-family="Helvetica,sans-Serif" font-size="10.00">Component.h</text>
</a>
</g>
</g>
<!-- Node1&#45;&gt;Node17 -->
<g id="edge18_Node000001_Node000017" class="edge">
<title>Node1&#45;&gt;Node17</title>
<g id="a_edge18_Node000001_Node000017"><a xlink:title=" ">
<path fill="none" stroke="#63b8ff" d="M2282.74,-209.58C2364.96,-198.6 2503.15,-179.22 2631.62,-156.39"/>
<polygon fill="#63b8ff" stroke="#63b8ff" points="2632.11,-159.86 2641.34,-154.65 2630.88,-152.97 2632.11,-159.86"/>
</a>
</g>
</g>
<!-- Node18 -->
<g id="Node000018" class="node">
<title>Node18</title>
<g id="a_Node000018"><a xlink:title=" ">
<polygon fill="#e0e0e0" stroke="#999999" points="2893.25,-150 2785,-150 2785,-130 2893.25,-130 2893.25,-150"/>
<text xml:space="preserve" text-anchor="middle" x="2839.12" y="-136.5" font-family="Helvetica,sans-Serif" font-size="10.00">NiagaraComponent.h</text>
</a>
</g>
</g>
<!-- Node1&#45;&gt;Node18 -->
<g id="edge19_Node000001_Node000018" class="edge">
<title>Node1&#45;&gt;Node18</title>
<g id="a_edge19_Node000001_Node000018"><a xlink:title=" ">
<path fill="none" stroke="#63b8ff" d="M2282.45,-213.81C2390.46,-205.42 2600.06,-186.64 2776.12,-156 2781.12,-155.13 2786.31,-154.1 2791.47,-153"/>
<polygon fill="#63b8ff" stroke="#63b8ff" points="2792.17,-156.43 2801.16,-150.82 2790.64,-149.6 2792.17,-156.43"/>
</a>
</g>
</g>
<!-- Node19 -->
<g id="Node000019" class="node">
<title>Node19</title>
<g id="a_Node000019"><a xlink:title=" ">
<polygon fill="#e0e0e0" stroke="#999999" points="3035.12,-150 2911.12,-150 2911.12,-130 3035.12,-130 3035.12,-150"/>
<text xml:space="preserve" text-anchor="middle" x="2973.12" y="-136.5" font-family="Helvetica,sans-Serif" font-size="10.00">NiagaraFunctionLibrary.h</text>
</a>
</g>
</g>
<!-- Node1&#45;&gt;Node19 -->
<g id="edge20_Node000001_Node000019" class="edge">
<title>Node1&#45;&gt;Node19</title>
<g id="a_edge20_Node000001_Node000019"><a xlink:title=" ">
<path fill="none" stroke="#63b8ff" d="M2282.69,-215.21C2409.07,-207.97 2677.56,-189.82 2902.12,-156 2908.43,-155.05 2915.02,-153.89 2921.53,-152.64"/>
<polygon fill="#63b8ff" stroke="#63b8ff" points="2921.75,-156.16 2930.87,-150.77 2920.37,-149.3 2921.75,-156.16"/>
</a>
</g>
</g>
<!-- Node20 -->
<g id="Node000020" class="node">
<title>Node20</title>
<g id="a_Node000020"><a xlink:title=" ">
<polygon fill="#e0e0e0" stroke="#999999" points="916.75,-20 781.5,-20 781.5,0 916.75,0 916.75,-20"/>
<text xml:space="preserve" text-anchor="middle" x="849.12" y="-6.5" font-family="Helvetica,sans-Serif" font-size="10.00">AbilitySystemComponent.h</text>
</a>
</g>
</g>
<!-- Node1&#45;&gt;Node20 -->
<g id="edge21_Node000001_Node000020" class="edge">
<title>Node1&#45;&gt;Node20</title>
<g id="a_edge21_Node000001_Node000020"><a xlink:title=" ">
<path fill="none" stroke="#63b8ff" d="M2137.53,-219.09C1899.32,-218.82 1143.3,-213.35 907.12,-156 836.39,-138.82 797.49,-149.23 758.12,-88 750.43,-76.04 750.62,-68.08 758.12,-56 767.19,-41.4 782.55,-31.4 798.1,-24.6"/>
<polygon fill="#63b8ff" stroke="#63b8ff" points="799.37,-27.86 807.4,-20.95 796.82,-21.34 799.37,-27.86"/>
</a>
</g>
</g>
<!-- Node21 -->
<g id="Node000021" class="node">
<title>Node21</title>
<g id="a_Node000021"><a xlink:title=" ">
<polygon fill="#e0e0e0" stroke="#999999" points="2930.75,-82 2807.5,-82 2807.5,-62 2930.75,-62 2930.75,-82"/>
<text xml:space="preserve" text-anchor="middle" x="2869.12" y="-68.5" font-family="Helvetica,sans-Serif" font-size="10.00">AbilitySystemInterface.h</text>
</a>
</g>
</g>
<!-- Node1&#45;&gt;Node21 -->
<g id="edge22_Node000001_Node000021" class="edge">
<title>Node1&#45;&gt;Node21</title>
<g id="a_edge22_Node000001_Node000021"><a xlink:title=" ">
<path fill="none" stroke="#63b8ff" d="M2159.83,-191.6C2130.84,-172.41 2103.96,-146.33 2125.12,-124 2176.64,-69.65 2723.88,-97.77 2798.12,-88 2804.85,-87.12 2811.88,-85.94 2818.8,-84.63"/>
<polygon fill="#63b8ff" stroke="#63b8ff" points="2819.27,-88.11 2828.4,-82.72 2817.9,-81.24 2819.27,-88.11"/>
</a>
</g>
</g>
<!-- Node22 -->
<g id="Node000022" class="node">
<title>Node22</title>
<g id="a_Node000022"><a xlink:href="_k_p_t_ability_system_component_8h.html" target="_top" xlink:title=" ">
<polygon fill="white" stroke="#666666" points="673.12,-82 495.12,-82 495.12,-62 673.12,-62 673.12,-82"/>
<text xml:space="preserve" text-anchor="middle" x="584.12" y="-68.5" font-family="Helvetica,sans-Serif" font-size="10.00">GAS/KPTAbilitySystemComponent.h</text>
</a>
</g>
</g>
<!-- Node1&#45;&gt;Node22 -->
<g id="edge23_Node000001_Node000022" class="edge">
<title>Node1&#45;&gt;Node22</title>
<g id="a_edge23_Node000001_Node000022"><a xlink:title=" ">
<path fill="none" stroke="#63b8ff" d="M2137.78,-218.66C1853.72,-216.97 823.59,-207.34 687.12,-156 651.13,-142.46 618.15,-111.11 599.64,-91.05"/>
<polygon fill="#63b8ff" stroke="#63b8ff" points="602.27,-88.74 592.99,-83.62 597.05,-93.4 602.27,-88.74"/>
</a>
</g>
</g>
<!-- Node24 -->
<g id="Node000024" class="node">
<title>Node24</title>
<g id="a_Node000024"><a xlink:title=" ">
<polygon fill="#e0e0e0" stroke="#999999" points="3204.62,-150 3053.62,-150 3053.62,-130 3204.62,-130 3204.62,-150"/>
<text xml:space="preserve" text-anchor="middle" x="3129.12" y="-136.5" font-family="Helvetica,sans-Serif" font-size="10.00">Kismet/KismetSystemLibrary.h</text>
</a>
</g>
</g>
<!-- Node1&#45;&gt;Node24 -->
<g id="edge27_Node000001_Node000024" class="edge">
<title>Node1&#45;&gt;Node24</title>
<g id="a_edge27_Node000001_Node000024"><a xlink:title=" ">
<path fill="none" stroke="#63b8ff" d="M2282.6,-215.95C2427.64,-209.31 2763.73,-191.24 3044.12,-156 3052.2,-154.99 3060.67,-153.73 3069.02,-152.37"/>
<polygon fill="#63b8ff" stroke="#63b8ff" points="3069.48,-155.84 3078.77,-150.73 3068.32,-148.94 3069.48,-155.84"/>
</a>
</g>
</g>
<!-- Node25 -->
<g id="Node000025" class="node">
<title>Node25</title>
<g id="a_Node000025"><a xlink:title=" ">
<polygon fill="#e0e0e0" stroke="#999999" points="3332,-150 3222.25,-150 3222.25,-130 3332,-130 3332,-150"/>
<text xml:space="preserve" text-anchor="middle" x="3277.12" y="-136.5" font-family="Helvetica,sans-Serif" font-size="10.00">DrawDebugHelpers.h</text>
</a>
</g>
</g>
<!-- Node1&#45;&gt;Node25 -->
<g id="edge28_Node000001_Node000025" class="edge">
<title>Node1&#45;&gt;Node25</title>
<g id="a_edge28_Node000001_Node000025"><a xlink:title=" ">
<path fill="none" stroke="#63b8ff" d="M2282.71,-218.69C2448.62,-217.05 2868.01,-207.67 3214.12,-156 3219.68,-155.17 3225.47,-154.09 3231.19,-152.9"/>
<polygon fill="#63b8ff" stroke="#63b8ff" points="3231.54,-156.4 3240.54,-150.81 3230.01,-149.57 3231.54,-156.4"/>
</a>
</g>
</g>
<!-- Node26 -->
<g id="Node000026" class="node">
<title>Node26</title>
<g id="a_Node000026"><a xlink:href="_boss_monster_base_8h.html" target="_top" xlink:title=" ">
<polygon fill="white" stroke="#666666" points="2078.5,-150 1935.75,-150 1935.75,-130 2078.5,-130 2078.5,-150"/>
<text xml:space="preserve" text-anchor="middle" x="2007.12" y="-136.5" font-family="Helvetica,sans-Serif" font-size="10.00">AI/Boss/BossMonsterBase.h</text>
</a>
</g>
</g>
<!-- Node1&#45;&gt;Node26 -->
<g id="edge29_Node000001_Node000026" class="edge">
<title>Node1&#45;&gt;Node26</title>
<g id="a_edge29_Node000001_Node000026"><a xlink:title=" ">
<path fill="none" stroke="#63b8ff" d="M2138.55,-191.5C2105.99,-178.99 2068.92,-164.74 2042.47,-154.58"/>
<polygon fill="#63b8ff" stroke="#63b8ff" points="2043.83,-151.35 2033.24,-151.03 2041.32,-157.89 2043.83,-151.35"/>
</a>
</g>
</g>
<!-- Node35 -->
<g id="Node000035" class="node">
<title>Node35</title>
<g id="a_Node000035"><a xlink:href="_k_p_t_player_attribute_set_8h.html" target="_top" xlink:title=" ">
<polygon fill="white" stroke="#666666" points="1906.75,-150 1759.5,-150 1759.5,-130 1906.75,-130 1906.75,-150"/>
<text xml:space="preserve" text-anchor="middle" x="1833.12" y="-136.5" font-family="Helvetica,sans-Serif" font-size="10.00">GAS/KPTPlayerAttributeSet.h</text>
</a>
</g>
</g>
<!-- Node1&#45;&gt;Node35 -->
<g id="edge43_Node000001_Node000035" class="edge">
<title>Node1&#45;&gt;Node35</title>
<g id="a_edge43_Node000001_Node000035"><a xlink:title=" ">
<path fill="none" stroke="#63b8ff" d="M2137.88,-204.05C2065.73,-189.12 1956.29,-166.48 1890.06,-152.78"/>
<polygon fill="#63b8ff" stroke="#63b8ff" points="1891,-149.4 1880.5,-150.8 1889.58,-156.26 1891,-149.4"/>
</a>
</g>
</g>
<!-- Node40 -->
<g id="Node000040" class="node">
<title>Node40</title>
<g id="a_Node000040"><a xlink:title=" ">
<polygon fill="#e0e0e0" stroke="#999999" points="3458.25,-150 3350,-150 3350,-130 3458.25,-130 3458.25,-150"/>
<text xml:space="preserve" text-anchor="middle" x="3404.12" y="-136.5" font-family="Helvetica,sans-Serif" font-size="10.00">Net/UnrealNetwork.h</text>
</a>
</g>
</g>
<!-- Node1&#45;&gt;Node40 -->
<g id="edge52_Node000001_Node000040" class="edge">
<title>Node1&#45;&gt;Node40</title>
<g id="a_edge52_Node000001_Node000040"><a xlink:title=" ">
<path fill="none" stroke="#63b8ff" d="M2282.68,-219.42C2462.83,-219.49 2944.62,-213.78 3341.12,-156 3346.75,-155.18 3352.62,-154.1 3358.4,-152.89"/>
<polygon fill="#63b8ff" stroke="#63b8ff" points="3358.87,-156.37 3367.87,-150.78 3357.35,-149.54 3358.87,-156.37"/>
</a>
</g>
</g>
<!-- Node41 -->
<g id="Node000041" class="node">
<title>Node41</title>
<g id="a_Node000041"><a xlink:href="_movement_strategy_base_8h.html" target="_top" xlink:title=" ">
<polygon fill="white" stroke="#666666" points="506.62,-156 337.62,-156 337.62,-124 506.62,-124 506.62,-156"/>
<text xml:space="preserve" text-anchor="start" x="345.62" y="-142.5" font-family="Helvetica,sans-Serif" font-size="10.00">Skill/Movement/MovementStrategy</text>
<text xml:space="preserve" text-anchor="middle" x="422.12" y="-130.5" font-family="Helvetica,sans-Serif" font-size="10.00">Base.h</text>
</a>
</g>
</g>
<!-- Node1&#45;&gt;Node41 -->
<g id="edge53_Node000001_Node000041" class="edge">
<title>Node1&#45;&gt;Node41</title>
<g id="a_edge53_Node000001_Node000041"><a xlink:title=" ">
<path fill="none" stroke="#63b8ff" d="M2137.51,-217.18C1911.3,-211.3 1199.12,-191.08 610.12,-156 580.13,-154.21 547.48,-151.78 517.93,-149.39"/>
<polygon fill="#63b8ff" stroke="#63b8ff" points="518.53,-145.93 508.28,-148.61 517.96,-152.91 518.53,-145.93"/>
</a>
</g>
</g>
<!-- Node3 -->
<g id="Node000003" class="node">
<title>Node3</title>
<g id="a_Node000003"><a xlink:title=" ">
<polygon fill="#e0e0e0" stroke="#999999" points="1540.62,-20 1461.62,-20 1461.62,0 1540.62,0 1540.62,-20"/>
<text xml:space="preserve" text-anchor="middle" x="1501.12" y="-6.5" font-family="Helvetica,sans-Serif" font-size="10.00">CoreMinimal.h</text>
</a>
</g>
</g>
<!-- Node2&#45;&gt;Node3 -->
<g id="edge2_Node000002_Node000003" class="edge">
<title>Node2&#45;&gt;Node3</title>
<g id="a_edge2_Node000002_Node000003"><a xlink:title=" ">
<path fill="none" stroke="#63b8ff" d="M1001.55,-123.58C1016.69,-113.78 1036.37,-100.62 1053.12,-88 1070.76,-74.72 1070.83,-64.69 1091.12,-56 1154.55,-28.84 1354.82,-17.07 1449.97,-12.91"/>
<polygon fill="#63b8ff" stroke="#63b8ff" points="1449.95,-16.41 1459.8,-12.49 1449.66,-9.42 1449.95,-16.41"/>
</a>
</g>
</g>
<!-- Node4 -->
<g id="Node000004" class="node">
<title>Node4</title>
<g id="a_Node000004"><a xlink:title=" ">
<polygon fill="#e0e0e0" stroke="#999999" points="892.88,-82 767.38,-82 767.38,-62 892.88,-62 892.88,-82"/>
<text xml:space="preserve" text-anchor="middle" x="830.12" y="-68.5" font-family="Helvetica,sans-Serif" font-size="10.00">GameFramework/Actor.h</text>
</a>
</g>
</g>
<!-- Node2&#45;&gt;Node4 -->
<g id="edge3_Node000002_Node000004" class="edge">
<title>Node2&#45;&gt;Node4</title>
<g id="a_edge3_Node000002_Node000004"><a xlink:title=" ">
<path fill="none" stroke="#63b8ff" d="M942.66,-123.53C918.08,-112.49 885.3,-97.77 861.46,-87.07"/>
<polygon fill="#63b8ff" stroke="#63b8ff" points="863.13,-83.98 852.58,-83.08 860.26,-90.37 863.13,-83.98"/>
</a>
</g>
</g>
<!-- Node5 -->
<g id="Node000005" class="node">
<title>Node5</title>
<g id="a_Node000005"><a xlink:href="_skill_data_8h.html" target="_top" xlink:title=" ">
<polygon fill="white" stroke="#666666" points="477,-82 367.25,-82 367.25,-62 477,-62 477,-82"/>
<text xml:space="preserve" text-anchor="middle" x="422.12" y="-68.5" font-family="Helvetica,sans-Serif" font-size="10.00">Skill/Data/SkillData.h</text>
</a>
</g>
</g>
<!-- Node2&#45;&gt;Node5 -->
<g id="edge4_Node000002_Node000005" class="edge">
<title>Node2&#45;&gt;Node5</title>
<g id="a_edge4_Node000002_Node000005"><a xlink:title=" ">
<path fill="none" stroke="#63b8ff" d="M915.94,-135.15C822.71,-128.71 639.72,-113.87 486.12,-88 480.85,-87.11 475.35,-86.04 469.9,-84.89"/>
<polygon fill="#63b8ff" stroke="#63b8ff" points="470.85,-81.52 460.33,-82.78 469.34,-88.35 470.85,-81.52"/>
</a>
</g>
</g>
<!-- Node10 -->
<g id="Node000010" class="node">
<title>Node10</title>
<g id="a_Node000010"><a xlink:title=" ">
<polygon fill="#e0e0e0" stroke="#999999" points="1043.62,-82 910.62,-82 910.62,-62 1043.62,-62 1043.62,-82"/>
<text xml:space="preserve" text-anchor="middle" x="977.12" y="-68.5" font-family="Helvetica,sans-Serif" font-size="10.00">ProjectileBase.generated.h</text>
</a>
</g>
</g>
<!-- Node2&#45;&gt;Node10 -->
<g id="edge10_Node000002_Node000010" class="edge">
<title>Node2&#45;&gt;Node10</title>
<g id="a_edge10_Node000002_Node000010"><a xlink:title=" ">
<path fill="none" stroke="#63b8ff" d="M977.12,-123.69C977.12,-114.8 977.12,-103.46 977.12,-93.77"/>
<polygon fill="#63b8ff" stroke="#63b8ff" points="980.63,-93.83 977.13,-83.83 973.63,-93.83 980.63,-93.83"/>
</a>
</g>
</g>
<!-- Node5&#45;&gt;Node3 -->
<g id="edge5_Node000005_Node000003" class="edge">
<title>Node5&#45;&gt;Node3</title>
<g id="a_edge5_Node000005_Node000003"><a xlink:title=" ">
<path fill="none" stroke="#63b8ff" d="M457.12,-61.56C466.47,-59.38 476.63,-57.31 486.12,-56 675.39,-29.86 1271.17,-15.74 1449.93,-12.01"/>
<polygon fill="#63b8ff" stroke="#63b8ff" points="1449.9,-15.51 1459.82,-11.81 1449.75,-8.51 1449.9,-15.51"/>
</a>
</g>
</g>
<!-- Node6 -->
<g id="Node000006" class="node">
<title>Node6</title>
<g id="a_Node000006"><a xlink:title=" ">
<polygon fill="#e0e0e0" stroke="#999999" points="136.88,-20 35.38,-20 35.38,0 136.88,0 136.88,-20"/>
<text xml:space="preserve" text-anchor="middle" x="86.12" y="-6.5" font-family="Helvetica,sans-Serif" font-size="10.00">Engine/DataTable.h</text>
</a>
</g>
</g>
<!-- Node5&#45;&gt;Node6 -->
<g id="edge6_Node000005_Node000006" class="edge">
<title>Node5&#45;&gt;Node6</title>
<g id="a_edge6_Node000005_Node000006"><a xlink:title=" ">
<path fill="none" stroke="#63b8ff" d="M383.63,-61.54C375.25,-59.6 366.41,-57.65 358.12,-56 319.08,-48.2 215.9,-31.53 148.44,-20.82"/>
<polygon fill="#63b8ff" stroke="#63b8ff" points="149.03,-17.37 138.6,-19.26 147.93,-24.28 149.03,-17.37"/>
</a>
</g>
</g>
<!-- Node7 -->
<g id="Node000007" class="node">
<title>Node7</title>
<g id="a_Node000007"><a xlink:title=" ">
<polygon fill="#e0e0e0" stroke="#999999" points="273.12,-20 155.12,-20 155.12,0 273.12,0 273.12,-20"/>
<text xml:space="preserve" text-anchor="middle" x="214.12" y="-6.5" font-family="Helvetica,sans-Serif" font-size="10.00">GameplayAbilitySpec.h</text>
</a>
</g>
</g>
<!-- Node5&#45;&gt;Node7 -->
<g id="edge7_Node000005_Node000007" class="edge">
<title>Node5&#45;&gt;Node7</title>
<g id="a_edge7_Node000005_Node000007"><a xlink:title=" ">
<path fill="none" stroke="#63b8ff" d="M389.62,-61.62C354.09,-51.37 296.96,-34.9 257.59,-23.54"/>
<polygon fill="#63b8ff" stroke="#63b8ff" points="258.77,-20.24 248.19,-20.83 256.83,-26.96 258.77,-20.24"/>
</a>
</g>
</g>
<!-- Node8 -->
<g id="Node000008" class="node">
<title>Node8</title>
<g id="a_Node000008"><a xlink:title=" ">
<polygon fill="#e0e0e0" stroke="#999999" points="417.25,-20 291,-20 291,0 417.25,0 417.25,-20"/>
<text xml:space="preserve" text-anchor="middle" x="354.12" y="-6.5" font-family="Helvetica,sans-Serif" font-size="10.00">GameplayTagContainer.h</text>
</a>
</g>
</g>
<!-- Node5&#45;&gt;Node8 -->
<g id="edge8_Node000005_Node000008" class="edge">
<title>Node5&#45;&gt;Node8</title>
<g id="a_edge8_Node000005_Node000008"><a xlink:title=" ">
<path fill="none" stroke="#63b8ff" d="M411.5,-61.62C401.16,-52.5 385.23,-38.45 372.78,-27.46"/>
<polygon fill="#63b8ff" stroke="#63b8ff" points="375.4,-25.11 365.59,-21.11 370.77,-30.35 375.4,-25.11"/>
</a>
</g>
</g>
<!-- Node9 -->
<g id="Node000009" class="node">
<title>Node9</title>
<g id="a_Node000009"><a xlink:title=" ">
<polygon fill="#e0e0e0" stroke="#999999" points="545,-20 435.25,-20 435.25,0 545,0 545,-20"/>
<text xml:space="preserve" text-anchor="middle" x="490.12" y="-6.5" font-family="Helvetica,sans-Serif" font-size="10.00">SkillData.generated.h</text>
</a>
</g>
</g>
<!-- Node5&#45;&gt;Node9 -->
<g id="edge9_Node000005_Node000009" class="edge">
<title>Node5&#45;&gt;Node9</title>
<g id="a_edge9_Node000005_Node000009"><a xlink:title=" ">
<path fill="none" stroke="#63b8ff" d="M432.75,-61.62C443.09,-52.5 459.02,-38.45 471.47,-27.46"/>
<polygon fill="#63b8ff" stroke="#63b8ff" points="473.48,-30.35 478.66,-21.11 468.85,-25.11 473.48,-30.35"/>
</a>
</g>
</g>
<!-- Node12&#45;&gt;Node3 -->
<g id="edge13_Node000012_Node000003" class="edge">
<title>Node12&#45;&gt;Node3</title>
<g id="a_edge13_Node000012_Node000003"><a xlink:title=" ">
<path fill="none" stroke="#63b8ff" d="M1436.62,-123.54C1444.83,-113.74 1455.21,-100.57 1463.12,-88 1474.88,-69.32 1485.75,-46.49 1492.83,-30.56"/>
<polygon fill="#63b8ff" stroke="#63b8ff" points="1495.89,-32.29 1496.66,-21.73 1489.47,-29.5 1495.89,-32.29"/>
</a>
</g>
</g>
<!-- Node13 -->
<g id="Node000013" class="node">
<title>Node13</title>
<g id="a_Node000013"><a xlink:title=" ">
<polygon fill="#e0e0e0" stroke="#999999" points="1256.25,-82 1100,-82 1100,-62 1256.25,-62 1256.25,-82"/>
<text xml:space="preserve" text-anchor="middle" x="1178.12" y="-68.5" font-family="Helvetica,sans-Serif" font-size="10.00">Subsystems/WorldSubsystem.h</text>
</a>
</g>
</g>
<!-- Node12&#45;&gt;Node13 -->
<g id="edge14_Node000012_Node000013" class="edge">
<title>Node12&#45;&gt;Node13</title>
<g id="a_edge14_Node000012_Node000013"><a xlink:title=" ">
<path fill="none" stroke="#63b8ff" d="M1365.68,-123.53C1322.6,-111.92 1264.38,-96.24 1224.3,-85.44"/>
<polygon fill="#63b8ff" stroke="#63b8ff" points="1225.27,-82.08 1214.7,-82.85 1223.45,-88.83 1225.27,-82.08"/>
</a>
</g>
</g>
<!-- Node14 -->
<g id="Node000014" class="node">
<title>Node14</title>
<g id="a_Node000014"><a xlink:title=" ">
<polygon fill="#e0e0e0" stroke="#999999" points="1453.88,-82 1274.38,-82 1274.38,-62 1453.88,-62 1453.88,-82"/>
<text xml:space="preserve" text-anchor="middle" x="1364.12" y="-68.5" font-family="Helvetica,sans-Serif" font-size="10.00">ProjectilePoolSubsystem.generated.h</text>
</a>
</g>
</g>
<!-- Node12&#45;&gt;Node14 -->
<g id="edge15_Node000012_Node000014" class="edge">
<title>Node12&#45;&gt;Node14</title>
<g id="a_edge15_Node000012_Node000014"><a xlink:title=" ">
<path fill="none" stroke="#63b8ff" d="M1409.44,-123.69C1400.68,-113.9 1389.29,-101.15 1380.11,-90.89"/>
<polygon fill="#63b8ff" stroke="#63b8ff" points="1382.74,-88.57 1373.46,-83.44 1377.52,-93.23 1382.74,-88.57"/>
</a>
</g>
</g>
<!-- Node22&#45;&gt;Node3 -->
<g id="edge24_Node000022_Node000003" class="edge">
<title>Node22&#45;&gt;Node3</title>
<g id="a_edge24_Node000022_Node000003"><a xlink:title=" ">
<path fill="none" stroke="#63b8ff" d="M666.82,-61.53C685.95,-59.53 706.23,-57.55 725.12,-56 998.09,-33.58 1325.97,-18.43 1450.14,-13.11"/>
<polygon fill="#63b8ff" stroke="#63b8ff" points="1450.15,-16.61 1459.99,-12.69 1449.86,-9.62 1450.15,-16.61"/>
</a>
</g>
</g>
<!-- Node22&#45;&gt;Node20 -->
<g id="edge25_Node000022_Node000020" class="edge">
<title>Node22&#45;&gt;Node20</title>
<g id="a_edge25_Node000022_Node000020"><a xlink:title=" ">
<path fill="none" stroke="#63b8ff" d="M625.82,-61.56C671.9,-51.13 746.19,-34.31 796.3,-22.96"/>
<polygon fill="#63b8ff" stroke="#63b8ff" points="796.78,-26.44 805.76,-20.82 795.23,-19.61 796.78,-26.44"/>
</a>
</g>
</g>
<!-- Node23 -->
<g id="Node000023" class="node">
<title>Node23</title>
<g id="a_Node000023"><a xlink:title=" ">
<polygon fill="#e0e0e0" stroke="#999999" points="763,-20 563.25,-20 563.25,0 763,0 763,-20"/>
<text xml:space="preserve" text-anchor="middle" x="663.12" y="-6.5" font-family="Helvetica,sans-Serif" font-size="10.00">KPTAbilitySystemComponent.generated.h</text>
</a>
</g>
</g>
<!-- Node22&#45;&gt;Node23 -->
<g id="edge26_Node000022_Node000023" class="edge">
<title>Node22&#45;&gt;Node23</title>
<g id="a_edge26_Node000022_Node000023"><a xlink:title=" ">
<path fill="none" stroke="#63b8ff" d="M596.47,-61.62C608.64,-52.38 627.49,-38.07 642.04,-27.01"/>
<polygon fill="#63b8ff" stroke="#63b8ff" points="643.82,-30.06 649.66,-21.22 639.58,-24.49 643.82,-30.06"/>
</a>
</g>
</g>
<!-- Node26&#45;&gt;Node3 -->
<g id="edge30_Node000026_Node000003" class="edge">
<title>Node26&#45;&gt;Node3</title>
<g id="a_edge30_Node000026_Node000003"><a xlink:title=" ">
<path fill="none" stroke="#63b8ff" d="M1955.69,-129.55C1889.81,-117.22 1782.08,-96.27 1765.12,-88 1745.28,-78.32 1747.02,-65.57 1727.12,-56 1671,-29.01 1599.57,-18.21 1552.2,-13.88"/>
<polygon fill="#63b8ff" stroke="#63b8ff" points="1552.76,-10.42 1542.5,-13.07 1552.17,-17.39 1552.76,-10.42"/>
</a>
</g>
</g>
<!-- Node26&#45;&gt;Node21 -->
<g id="edge31_Node000026_Node000021" class="edge">
<title>Node26&#45;&gt;Node21</title>
<g id="a_edge31_Node000026_Node000021"><a xlink:title=" ">
<path fill="none" stroke="#63b8ff" d="M2054.63,-129.55C2066.81,-127.42 2079.92,-125.38 2092.12,-124 2404.31,-88.63 2486.57,-128.6 2798.12,-88 2804.85,-87.12 2811.88,-85.95 2818.8,-84.65"/>
<polygon fill="#63b8ff" stroke="#63b8ff" points="2819.27,-88.12 2828.4,-82.74 2817.91,-81.26 2819.27,-88.12"/>
</a>
</g>
</g>
<!-- Node27 -->
<g id="Node000027" class="node">
<title>Node27</title>
<g id="a_Node000027"><a xlink:title=" ">
<polygon fill="#e0e0e0" stroke="#999999" points="2458,-82 2288.25,-82 2288.25,-62 2458,-62 2458,-82"/>
<text xml:space="preserve" text-anchor="middle" x="2373.12" y="-68.5" font-family="Helvetica,sans-Serif" font-size="10.00">Components/TimelineComponent.h</text>
</a>
</g>
</g>
<!-- Node26&#45;&gt;Node27 -->
<g id="edge32_Node000026_Node000027" class="edge">
<title>Node26&#45;&gt;Node27</title>
<g id="a_edge32_Node000026_Node000027"><a xlink:title=" ">
<path fill="none" stroke="#63b8ff" d="M2059.56,-129.54C2125.51,-117.65 2238.67,-97.25 2309.5,-84.47"/>
<polygon fill="#63b8ff" stroke="#63b8ff" points="2309.78,-87.98 2319,-82.76 2308.53,-81.09 2309.78,-87.98"/>
</a>
</g>
</g>
<!-- Node28 -->
<g id="Node000028" class="node">
<title>Node28</title>
<g id="a_Node000028"><a xlink:href="_combat_interface_8h.html" target="_top" xlink:title=" ">
<polygon fill="white" stroke="#666666" points="2270.25,-82 2108,-82 2108,-62 2270.25,-62 2270.25,-82"/>
<text xml:space="preserve" text-anchor="middle" x="2189.12" y="-68.5" font-family="Helvetica,sans-Serif" font-size="10.00">Core/Interface/CombatInterface.h</text>
</a>
</g>
</g>
<!-- Node26&#45;&gt;Node28 -->
<g id="edge33_Node000026_Node000028" class="edge">
<title>Node26&#45;&gt;Node28</title>
<g id="a_edge33_Node000026_Node000028"><a xlink:title=" ">
<path fill="none" stroke="#63b8ff" d="M2033.2,-129.54C2064.56,-118.17 2117.37,-99.02 2152.73,-86.2"/>
<polygon fill="#63b8ff" stroke="#63b8ff" points="2153.47,-89.65 2161.67,-82.95 2151.08,-83.07 2153.47,-89.65"/>
</a>
</g>
</g>
<!-- Node31 -->
<g id="Node000031" class="node">
<title>Node31</title>
<g id="a_Node000031"><a xlink:href="_k_p_t_pausable_interface_8h.html" target="_top" xlink:title=" ">
<polygon fill="white" stroke="#666666" points="2089.75,-88 1948.5,-88 1948.5,-56 2089.75,-56 2089.75,-88"/>
<text xml:space="preserve" text-anchor="start" x="1956.5" y="-74.5" font-family="Helvetica,sans-Serif" font-size="10.00">Core/Interface/KPTPausable</text>
<text xml:space="preserve" text-anchor="middle" x="2019.12" y="-62.5" font-family="Helvetica,sans-Serif" font-size="10.00">Interface.h</text>
</a>
</g>
</g>
<!-- Node26&#45;&gt;Node31 -->
<g id="edge37_Node000026_Node000031" class="edge">
<title>Node26&#45;&gt;Node31</title>
<g id="a_edge37_Node000026_Node000031"><a xlink:title=" ">
<path fill="none" stroke="#63b8ff" d="M2008.84,-129.54C2010.27,-121.72 2012.36,-110.22 2014.28,-99.63"/>
<polygon fill="#63b8ff" stroke="#63b8ff" points="2017.73,-100.26 2016.07,-89.79 2010.84,-99 2017.73,-100.26"/>
</a>
</g>
</g>
<!-- Node33 -->
<g id="Node000033" class="node">
<title>Node33</title>
<g id="a_Node000033"><a xlink:title=" ">
<polygon fill="#e0e0e0" stroke="#999999" points="2620.62,-82 2475.62,-82 2475.62,-62 2620.62,-62 2620.62,-82"/>
<text xml:space="preserve" text-anchor="middle" x="2548.12" y="-68.5" font-family="Helvetica,sans-Serif" font-size="10.00">GameFramework/Character.h</text>
</a>
</g>
</g>
<!-- Node26&#45;&gt;Node33 -->
<g id="edge41_Node000026_Node000033" class="edge">
<title>Node26&#45;&gt;Node33</title>
<g id="a_edge41_Node000026_Node000033"><a xlink:title=" ">
<path fill="none" stroke="#63b8ff" d="M2056.91,-129.54C2068.45,-127.53 2080.69,-125.56 2092.12,-124 2258.03,-101.43 2301.32,-111.27 2467.12,-88 2474.55,-86.96 2482.33,-85.71 2490,-84.4"/>
<polygon fill="#63b8ff" stroke="#63b8ff" points="2490.4,-87.88 2499.63,-82.69 2489.18,-80.99 2490.4,-87.88"/>
</a>
</g>
</g>
<!-- Node34 -->
<g id="Node000034" class="node">
<title>Node34</title>
<g id="a_Node000034"><a xlink:title=" ">
<polygon fill="#e0e0e0" stroke="#999999" points="2789.25,-82 2639,-82 2639,-62 2789.25,-62 2789.25,-82"/>
<text xml:space="preserve" text-anchor="middle" x="2714.12" y="-68.5" font-family="Helvetica,sans-Serif" font-size="10.00">BossMonsterBase.generated.h</text>
</a>
</g>
</g>
<!-- Node26&#45;&gt;Node34 -->
<g id="edge42_Node000026_Node000034" class="edge">
<title>Node26&#45;&gt;Node34</title>
<g id="a_edge42_Node000026_Node000034"><a xlink:title=" ">
<path fill="none" stroke="#63b8ff" d="M2055.54,-129.53C2067.46,-127.45 2080.22,-125.44 2092.12,-124 2330.03,-95.13 2392.25,-117.11 2630.12,-88 2638.21,-87.01 2646.7,-85.75 2655.05,-84.39"/>
<polygon fill="#63b8ff" stroke="#63b8ff" points="2655.52,-87.86 2664.8,-82.73 2654.35,-80.96 2655.52,-87.86"/>
</a>
</g>
</g>
<!-- Node28&#45;&gt;Node3 -->
<g id="edge34_Node000028_Node000003" class="edge">
<title>Node28&#45;&gt;Node3</title>
<g id="a_edge34_Node000028_Node000003"><a xlink:title=" ">
<path fill="none" stroke="#63b8ff" d="M2137.36,-61.55C2124.88,-59.5 2111.55,-57.5 2099.12,-56 1993.74,-43.28 1676.8,-22.27 1552.21,-14.25"/>
<polygon fill="#63b8ff" stroke="#63b8ff" points="1552.49,-10.76 1542.28,-13.61 1552.04,-17.75 1552.49,-10.76"/>
</a>
</g>
</g>
<!-- Node29 -->
<g id="Node000029" class="node">
<title>Node29</title>
<g id="a_Node000029"><a xlink:title=" ">
<polygon fill="#e0e0e0" stroke="#999999" points="2222.88,-20 2121.38,-20 2121.38,0 2222.88,0 2222.88,-20"/>
<text xml:space="preserve" text-anchor="middle" x="2172.12" y="-6.5" font-family="Helvetica,sans-Serif" font-size="10.00">UObject/Interface.h</text>
</a>
</g>
</g>
<!-- Node28&#45;&gt;Node29 -->
<g id="edge35_Node000028_Node000029" class="edge">
<title>Node28&#45;&gt;Node29</title>
<g id="a_edge35_Node000028_Node000029"><a xlink:title=" ">
<path fill="none" stroke="#63b8ff" d="M2186.47,-61.62C2184.16,-53.48 2180.74,-41.39 2177.81,-31.07"/>
<polygon fill="#63b8ff" stroke="#63b8ff" points="2181.21,-30.24 2175.12,-21.57 2174.48,-32.14 2181.21,-30.24"/>
</a>
</g>
</g>
<!-- Node30 -->
<g id="Node000030" class="node">
<title>Node30</title>
<g id="a_Node000030"><a xlink:title=" ">
<polygon fill="#e0e0e0" stroke="#999999" points="2383.5,-20 2240.75,-20 2240.75,0 2383.5,0 2383.5,-20"/>
<text xml:space="preserve" text-anchor="middle" x="2312.12" y="-6.5" font-family="Helvetica,sans-Serif" font-size="10.00">CombatInterface.generated.h</text>
</a>
</g>
</g>
<!-- Node28&#45;&gt;Node30 -->
<g id="edge36_Node000028_Node000030" class="edge">
<title>Node28&#45;&gt;Node30</title>
<g id="a_edge36_Node000028_Node000030"><a xlink:title=" ">
<path fill="none" stroke="#63b8ff" d="M2208.34,-61.62C2228.29,-51.89 2259.74,-36.55 2282.8,-25.31"/>
<polygon fill="#63b8ff" stroke="#63b8ff" points="2284.23,-28.5 2291.68,-20.97 2281.16,-22.21 2284.23,-28.5"/>
</a>
</g>
</g>
<!-- Node31&#45;&gt;Node3 -->
<g id="edge38_Node000031_Node000003" class="edge">
<title>Node31&#45;&gt;Node3</title>
<g id="a_edge38_Node000031_Node000003"><a xlink:title=" ">
<path fill="none" stroke="#63b8ff" d="M1948.01,-61.79C1932.56,-59.84 1916.3,-57.82 1901.12,-56 1775.73,-40.98 1628.03,-24.74 1552.02,-16.49"/>
<polygon fill="#63b8ff" stroke="#63b8ff" points="1552.71,-13.04 1542.39,-15.44 1551.96,-20 1552.71,-13.04"/>
</a>
</g>
</g>
<!-- Node31&#45;&gt;Node29 -->
<g id="edge39_Node000031_Node000029" class="edge">
<title>Node31&#45;&gt;Node29</title>
<g id="a_edge39_Node000031_Node000029"><a xlink:title=" ">
<path fill="none" stroke="#63b8ff" d="M2058.53,-55.55C2082.99,-45.96 2114.12,-33.75 2137.61,-24.54"/>
<polygon fill="#63b8ff" stroke="#63b8ff" points="2138.69,-27.87 2146.73,-20.96 2136.14,-21.35 2138.69,-27.87"/>
</a>
</g>
</g>
<!-- Node32 -->
<g id="Node000032" class="node">
<title>Node32</title>
<g id="a_Node000032"><a xlink:title=" ">
<polygon fill="#e0e0e0" stroke="#999999" points="2103.25,-20 1935,-20 1935,0 2103.25,0 2103.25,-20"/>
<text xml:space="preserve" text-anchor="middle" x="2019.12" y="-6.5" font-family="Helvetica,sans-Serif" font-size="10.00">KPTPausableInterface.generated.h</text>
</a>
</g>
</g>
<!-- Node31&#45;&gt;Node32 -->
<g id="edge40_Node000031_Node000032" class="edge">
<title>Node31&#45;&gt;Node32</title>
<g id="a_edge40_Node000031_Node000032"><a xlink:title=" ">
<path fill="none" stroke="#63b8ff" d="M2019.12,-55.55C2019.12,-48.34 2019.12,-39.66 2019.12,-31.88"/>
<polygon fill="#63b8ff" stroke="#63b8ff" points="2022.63,-31.92 2019.13,-21.92 2015.63,-31.92 2022.63,-31.92"/>
</a>
</g>
</g>
<!-- Node35&#45;&gt;Node3 -->
<g id="edge44_Node000035_Node000003" class="edge">
<title>Node35&#45;&gt;Node3</title>
<g id="a_edge44_Node000035_Node000003"><a xlink:title=" ">
<path fill="none" stroke="#63b8ff" d="M1759.3,-133.67C1684.16,-126.95 1574.05,-113.11 1540.12,-88 1521.53,-74.24 1511.18,-49.07 1505.89,-31.26"/>
<polygon fill="#63b8ff" stroke="#63b8ff" points="1509.33,-30.57 1503.39,-21.8 1502.56,-32.36 1509.33,-30.57"/>
</a>
</g>
</g>
<!-- Node36 -->
<g id="Node000036" class="node">
<title>Node36</title>
<g id="a_Node000036"><a xlink:title=" ">
<polygon fill="#e0e0e0" stroke="#999999" points="1917.12,-20 1841.12,-20 1841.12,0 1917.12,0 1917.12,-20"/>
<text xml:space="preserve" text-anchor="middle" x="1879.12" y="-6.5" font-family="Helvetica,sans-Serif" font-size="10.00">AttributeSet.h</text>
</a>
</g>
</g>
<!-- Node35&#45;&gt;Node36 -->
<g id="edge45_Node000035_Node000036" class="edge">
<title>Node35&#45;&gt;Node36</title>
<g id="a_edge45_Node000035_Node000036"><a xlink:title=" ">
<path fill="none" stroke="#63b8ff" d="M1854.66,-129.52C1870.73,-121.15 1891.49,-107.27 1901.12,-88 1910.51,-69.23 1901.18,-45.83 1891.94,-29.78"/>
<polygon fill="#63b8ff" stroke="#63b8ff" points="1895.16,-28.32 1886.88,-21.7 1889.22,-32.03 1895.16,-28.32"/>
</a>
</g>
</g>
<!-- Node37 -->
<g id="Node000037" class="node">
<title>Node37</title>
<g id="a_Node000037"><a xlink:href="_k_p_t_base_attribute_set_8h.html" target="_top" xlink:title=" ">
<polygon fill="white" stroke="#666666" points="1892.12,-82 1774.12,-82 1774.12,-62 1892.12,-62 1892.12,-82"/>
<text xml:space="preserve" text-anchor="middle" x="1833.12" y="-68.5" font-family="Helvetica,sans-Serif" font-size="10.00">KPTBaseAttributeSet.h</text>
</a>
</g>
</g>
<!-- Node35&#45;&gt;Node37 -->
<g id="edge46_Node000035_Node000037" class="edge">
<title>Node35&#45;&gt;Node37</title>
<g id="a_edge46_Node000035_Node000037"><a xlink:title=" ">
<path fill="none" stroke="#63b8ff" d="M1833.12,-129.54C1833.12,-120.23 1833.12,-105.7 1833.12,-93.7"/>
<polygon fill="#63b8ff" stroke="#63b8ff" points="1836.63,-93.95 1833.13,-83.95 1829.63,-93.95 1836.63,-93.95"/>
</a>
</g>
</g>
<!-- Node39 -->
<g id="Node000039" class="node">
<title>Node39</title>
<g id="a_Node000039"><a xlink:title=" ">
<polygon fill="#e0e0e0" stroke="#999999" points="1717.62,-82 1548.62,-82 1548.62,-62 1717.62,-62 1717.62,-82"/>
<text xml:space="preserve" text-anchor="middle" x="1633.12" y="-68.5" font-family="Helvetica,sans-Serif" font-size="10.00">KPTPlayerAttributeSet.generated.h</text>
</a>
</g>
</g>
<!-- Node35&#45;&gt;Node39 -->
<g id="edge51_Node000035_Node000039" class="edge">
<title>Node35&#45;&gt;Node39</title>
<g id="a_edge51_Node000035_Node000039"><a xlink:title=" ">
<path fill="none" stroke="#63b8ff" d="M1804.47,-129.54C1769.87,-118.12 1711.48,-98.86 1672.62,-86.03"/>
<polygon fill="#63b8ff" stroke="#63b8ff" points="1673.76,-82.72 1663.16,-82.91 1671.56,-89.37 1673.76,-82.72"/>
</a>
</g>
</g>
<!-- Node37&#45;&gt;Node3 -->
<g id="edge47_Node000037_Node000003" class="edge">
<title>Node37&#45;&gt;Node3</title>
<g id="a_edge47_Node000037_Node000003"><a xlink:title=" ">
<path fill="none" stroke="#63b8ff" d="M1788,-61.5C1778.78,-59.63 1769.15,-57.71 1760.12,-56 1688.01,-42.33 1604.27,-28.07 1551.99,-19.36"/>
<polygon fill="#63b8ff" stroke="#63b8ff" points="1552.62,-15.92 1542.18,-17.73 1551.47,-22.83 1552.62,-15.92"/>
</a>
</g>
</g>
<!-- Node37&#45;&gt;Node20 -->
<g id="edge48_Node000037_Node000020" class="edge">
<title>Node37&#45;&gt;Node20</title>
<g id="a_edge48_Node000037_Node000020"><a xlink:title=" ">
<path fill="none" stroke="#63b8ff" d="M1773.81,-61.65C1758.62,-59.52 1742.3,-57.46 1727.12,-56 1433.28,-27.74 1082.28,-16.49 928.22,-12.69"/>
<polygon fill="#63b8ff" stroke="#63b8ff" points="928.62,-9.19 918.54,-12.45 928.45,-16.19 928.62,-9.19"/>
</a>
</g>
</g>
<!-- Node37&#45;&gt;Node36 -->
<g id="edge49_Node000037_Node000036" class="edge">
<title>Node37&#45;&gt;Node36</title>
<g id="a_edge49_Node000037_Node000036"><a xlink:title=" ">
<path fill="none" stroke="#63b8ff" d="M1840.31,-61.62C1846.97,-52.94 1857.05,-39.8 1865.27,-29.08"/>
<polygon fill="#63b8ff" stroke="#63b8ff" points="1867.91,-31.38 1871.22,-21.31 1862.36,-27.12 1867.91,-31.38"/>
</a>
</g>
</g>
<!-- Node38 -->
<g id="Node000038" class="node">
<title>Node38</title>
<g id="a_Node000038"><a xlink:title=" ">
<polygon fill="#e0e0e0" stroke="#999999" points="1823,-20 1659.25,-20 1659.25,0 1823,0 1823,-20"/>
<text xml:space="preserve" text-anchor="middle" x="1741.12" y="-6.5" font-family="Helvetica,sans-Serif" font-size="10.00">KPTBaseAttributeSet.generated.h</text>
</a>
</g>
</g>
<!-- Node37&#45;&gt;Node38 -->
<g id="edge50_Node000037_Node000038" class="edge">
<title>Node37&#45;&gt;Node38</title>
<g id="a_edge50_Node000037_Node000038"><a xlink:title=" ">
<path fill="none" stroke="#63b8ff" d="M1818.75,-61.62C1804.3,-52.2 1781.79,-37.52 1764.72,-26.39"/>
<polygon fill="#63b8ff" stroke="#63b8ff" points="1766.95,-23.67 1756.67,-21.14 1763.13,-29.53 1766.95,-23.67"/>
</a>
</g>
</g>
<!-- Node41&#45;&gt;Node3 -->
<g id="edge54_Node000041_Node000003" class="edge">
<title>Node41&#45;&gt;Node3</title>
<g id="a_edge54_Node000041_Node000003"><a xlink:title=" ">
<path fill="none" stroke="#63b8ff" d="M506.92,-126.88C558.27,-118.43 624.71,-105.52 682.12,-88 717.18,-77.31 722.44,-64.34 758.12,-56 890.14,-25.16 1304.86,-14.64 1450.2,-11.85"/>
<polygon fill="#63b8ff" stroke="#63b8ff" points="1449.96,-15.36 1459.89,-11.67 1449.82,-8.36 1449.96,-15.36"/>
</a>
</g>
</g>
<!-- Node41&#45;&gt;Node5 -->
<g id="edge56_Node000041_Node000005" class="edge">
<title>Node41&#45;&gt;Node5</title>
<g id="a_edge56_Node000041_Node000005"><a xlink:title=" ">
<path fill="none" stroke="#63b8ff" d="M422.12,-123.69C422.12,-114.8 422.12,-103.46 422.12,-93.77"/>
<polygon fill="#63b8ff" stroke="#63b8ff" points="425.63,-93.83 422.13,-83.83 418.63,-93.83 425.63,-93.83"/>
</a>
</g>
</g>
<!-- Node42 -->
<g id="Node000042" class="node">
<title>Node42</title>
<g id="a_Node000042"><a xlink:title=" ">
<polygon fill="#e0e0e0" stroke="#999999" points="156.25,-82 0,-82 0,-62 156.25,-62 156.25,-82"/>
<text xml:space="preserve" text-anchor="middle" x="78.12" y="-68.5" font-family="Helvetica,sans-Serif" font-size="10.00">Components/ActorComponent.h</text>
</a>
</g>
</g>
<!-- Node41&#45;&gt;Node42 -->
<g id="edge55_Node000041_Node000042" class="edge">
<title>Node41&#45;&gt;Node42</title>
<g id="a_edge55_Node000041_Node000042"><a xlink:title=" ">
<path fill="none" stroke="#63b8ff" d="M341.47,-123.53C279.42,-111.62 195.02,-95.43 138.66,-84.62"/>
<polygon fill="#63b8ff" stroke="#63b8ff" points="139.4,-81.19 128.92,-82.75 138.08,-88.07 139.4,-81.19"/>
</a>
</g>
</g>
<!-- Node43 -->
<g id="Node000043" class="node">
<title>Node43</title>
<g id="a_Node000043"><a xlink:title=" ">
<polygon fill="#e0e0e0" stroke="#999999" points="349.62,-82 174.62,-82 174.62,-62 349.62,-62 349.62,-82"/>
<text xml:space="preserve" text-anchor="middle" x="262.12" y="-68.5" font-family="Helvetica,sans-Serif" font-size="10.00">MovementStrategyBase.generated.h</text>
</a>
</g>
</g>
<!-- Node41&#45;&gt;Node43 -->
<g id="edge57_Node000041_Node000043" class="edge">
<title>Node41&#45;&gt;Node43</title>
<g id="a_edge57_Node000041_Node000043"><a xlink:title=" ">
<path fill="none" stroke="#63b8ff" d="M384.61,-123.53C357.62,-112.39 321.53,-97.51 295.53,-86.78"/>
<polygon fill="#63b8ff" stroke="#63b8ff" points="297.04,-83.62 286.46,-83.04 294.37,-90.09 297.04,-83.62"/>
</a>
</g>
</g>
</g>
</svg>

<g id="navigator" transform="translate(0 0)" fill="#404254">
  <rect fill="#f2f5e9" fill-opacity="0.5" stroke="#606060" stroke-width=".5" x="0" y="0" width="60" height="60"/>
  <use id="zoomplus" xlink:href="#zoomPlus" x="17" y="9" onmousedown="handleZoom(evt,'in')"/>
  <use id="zoomminus" xlink:href="#zoomMin" x="42" y="9" onmousedown="handleZoom(evt,'out')"/>
  <use id="reset" xlink:href="#resetDef" x="30" y="36" onmousedown="handleReset()"/>
   <use id="arrowup" xlink:href="#arrowUp" x="0" y="0" onmousedown="handlePan(0,-1)"/>
  <use id="arrowright" xlink:href="#arrowRight" x="0" y="0" onmousedown="handlePan(1,0)"/>
  <use id="arrowdown" xlink:href="#arrowDown" x="0" y="0" onmousedown="handlePan(0,1)"/>
  <use id="arrowleft" xlink:href="#arrowLeft" x="0" y="0" onmousedown="handlePan(-1,0)"/>
</g>
<svg viewBox="0 0 15 15" width="100%" height="30px" preserveAspectRatio="xMaxYMin meet">
 <g id="arrow_out" transform="scale(0.3 0.3)">
  <a xlink:href="_projectile_base_8cpp__incl_org.svg" target="_base">
   <rect id="button" ry="5" rx="5" y="6" x="6" height="38" width="38"
        fill="#f2f5e9" fill-opacity="0.5" stroke="#606060" stroke-width="1.0"/>
   <path id="arrow"
     d="M 11.500037,31.436501 C 11.940474,20.09759 22.043105,11.32322 32.158766,21.979434 L 37.068811,17.246167 C 37.068811,17.246167 37.088388,32 37.088388,32 L 22.160133,31.978069 C 22.160133,31.978069 26.997745,27.140456 26.997745,27.140456 C 18.528582,18.264221 13.291696,25.230495 11.500037,31.436501 z"
     style="fill:#404040;"/>
  </a>
 </g>
</svg>

<style type='text/css'>
<![CDATA[
[data-mouse-over-selected='false'] { opacity: 0.7; }
[data-mouse-over-selected='true']  { opacity: 1.0; }
]]>
</style>
<script type="application/ecmascript"><![CDATA[
document.addEventListener('DOMContentLoaded', (event) => {
  highlightEdges();
  highlightAdjacentNodes();
});
]]></script>
</svg>
