<?xml version="1.0" encoding="UTF-8" standalone="no"?>
<!DOCTYPE svg PUBLIC "-//W3C//DTD SVG 1.1//EN"
 "http://www.w3.org/Graphics/SVG/1.1/DTD/svg11.dtd">
<!-- Generated by graphviz version 13.1.1 (20250719.2154)
 -->
<!-- Title: C:/Users/user/Perforce/alz7_CobaltbruWorkspace_00/KPT/Source/KPT/Skill/Projectile/ProjectilePoolSubsystem.cpp Pages: 1 -->
<svg width="966pt" height="244pt"
 viewBox="0.00 0.00 966.00 244.00" xmlns="http://www.w3.org/2000/svg" xmlns:xlink="http://www.w3.org/1999/xlink">
<g id="graph0" class="graph" transform="scale(1 1) rotate(0) translate(4 240)">
<title>C:/Users/user/Perforce/alz7_CobaltbruWorkspace_00/KPT/Source/KPT/Skill/Projectile/ProjectilePoolSubsystem.cpp</title>
<!-- Node1 -->
<g id="Node000001" class="node">
<title>Node1</title>
<g id="a_Node000001"><a xlink:title=" ">
<polygon fill="#999999" stroke="#666666" points="586.81,-236 396.06,-236 396.06,-180 586.81,-180 586.81,-236"/>
<text xml:space="preserve" text-anchor="start" x="404.06" y="-222.5" font-family="Helvetica,sans-Serif" font-size="10.00">C:/Users/user/Perforce</text>
<text xml:space="preserve" text-anchor="start" x="404.06" y="-210.5" font-family="Helvetica,sans-Serif" font-size="10.00">/alz7_CobaltbruWorkspace</text>
<text xml:space="preserve" text-anchor="start" x="404.06" y="-198.5" font-family="Helvetica,sans-Serif" font-size="10.00">_00/KPT/Source/KPT/Skill</text>
<text xml:space="preserve" text-anchor="middle" x="491.44" y="-186.5" font-family="Helvetica,sans-Serif" font-size="10.00">/Projectile/ProjectilePoolSubsystem.cpp</text>
</a>
</g>
</g>
<!-- Node2 -->
<g id="Node000002" class="node">
<title>Node2</title>
<g id="a_Node000002"><a xlink:href="_projectile_pool_subsystem_8h.html" target="_top" xlink:title=" ">
<polygon fill="white" stroke="#666666" points="250.31,-144 128.56,-144 128.56,-112 250.31,-112 250.31,-144"/>
<text xml:space="preserve" text-anchor="start" x="136.56" y="-130.5" font-family="Helvetica,sans-Serif" font-size="10.00">Skill/Projectile/Projectile</text>
<text xml:space="preserve" text-anchor="middle" x="189.44" y="-118.5" font-family="Helvetica,sans-Serif" font-size="10.00">PoolSubsystem.h</text>
</a>
</g>
</g>
<!-- Node1&#45;&gt;Node2 -->
<g id="edge1_Node000001_Node000002" class="edge">
<title>Node1&#45;&gt;Node2</title>
<g id="a_edge1_Node000001_Node000002"><a xlink:title=" ">
<path fill="none" stroke="#63b8ff" d="M395.88,-182.32C351.97,-170.98 300.8,-157.76 260.38,-147.32"/>
<polygon fill="#63b8ff" stroke="#63b8ff" points="261.31,-143.95 250.75,-144.84 259.56,-150.72 261.31,-143.95"/>
</a>
</g>
</g>
<!-- Node6 -->
<g id="Node000006" class="node">
<title>Node6</title>
<g id="a_Node000006"><a xlink:href="_projectile_base_8h.html" target="_top" xlink:title=" ">
<polygon fill="white" stroke="#666666" points="552.31,-144 430.56,-144 430.56,-112 552.31,-112 552.31,-144"/>
<text xml:space="preserve" text-anchor="start" x="438.56" y="-130.5" font-family="Helvetica,sans-Serif" font-size="10.00">Skill/Projectile/Projectile</text>
<text xml:space="preserve" text-anchor="middle" x="491.44" y="-118.5" font-family="Helvetica,sans-Serif" font-size="10.00">Base.h</text>
</a>
</g>
</g>
<!-- Node1&#45;&gt;Node6 -->
<g id="edge5_Node000001_Node000006" class="edge">
<title>Node1&#45;&gt;Node6</title>
<g id="a_edge5_Node000001_Node000006"><a xlink:title=" ">
<path fill="none" stroke="#63b8ff" d="M491.44,-179.72C491.44,-171.88 491.44,-163.34 491.44,-155.54"/>
<polygon fill="#63b8ff" stroke="#63b8ff" points="494.94,-155.62 491.44,-145.62 487.94,-155.62 494.94,-155.62"/>
</a>
</g>
</g>
<!-- Node14 -->
<g id="Node000014" class="node">
<title>Node14</title>
<g id="a_Node000014"><a xlink:title=" ">
<polygon fill="#e0e0e0" stroke="#999999" points="652.44,-138 570.44,-138 570.44,-118 652.44,-118 652.44,-138"/>
<text xml:space="preserve" text-anchor="middle" x="611.44" y="-124.5" font-family="Helvetica,sans-Serif" font-size="10.00">Engine/World.h</text>
</a>
</g>
</g>
<!-- Node1&#45;&gt;Node14 -->
<g id="edge15_Node000001_Node000014" class="edge">
<title>Node1&#45;&gt;Node14</title>
<g id="a_edge15_Node000001_Node000014"><a xlink:title=" ">
<path fill="none" stroke="#63b8ff" d="M533.75,-179.5C551.79,-167.77 572.18,-154.52 587.54,-144.53"/>
<polygon fill="#63b8ff" stroke="#63b8ff" points="589.09,-147.7 595.57,-139.32 585.28,-141.83 589.09,-147.7"/>
</a>
</g>
</g>
<!-- Node3 -->
<g id="Node000003" class="node">
<title>Node3</title>
<g id="a_Node000003"><a xlink:title=" ">
<polygon fill="#e0e0e0" stroke="#999999" points="430.94,-20 351.94,-20 351.94,0 430.94,0 430.94,-20"/>
<text xml:space="preserve" text-anchor="middle" x="391.44" y="-6.5" font-family="Helvetica,sans-Serif" font-size="10.00">CoreMinimal.h</text>
</a>
</g>
</g>
<!-- Node2&#45;&gt;Node3 -->
<g id="edge2_Node000002_Node000003" class="edge">
<title>Node2&#45;&gt;Node3</title>
<g id="a_edge2_Node000002_Node000003"><a xlink:title=" ">
<path fill="none" stroke="#63b8ff" d="M128.13,-122.67C62.24,-115.78 -28.28,-98.43 9.44,-56 31.07,-31.67 241.45,-18.29 340.44,-13.3"/>
<polygon fill="#63b8ff" stroke="#63b8ff" points="340.32,-16.81 350.14,-12.82 339.98,-9.82 340.32,-16.81"/>
</a>
</g>
</g>
<!-- Node4 -->
<g id="Node000004" class="node">
<title>Node4</title>
<g id="a_Node000004"><a xlink:title=" ">
<polygon fill="#e0e0e0" stroke="#999999" points="174.56,-76 18.31,-76 18.31,-56 174.56,-56 174.56,-76"/>
<text xml:space="preserve" text-anchor="middle" x="96.44" y="-62.5" font-family="Helvetica,sans-Serif" font-size="10.00">Subsystems/WorldSubsystem.h</text>
</a>
</g>
</g>
<!-- Node2&#45;&gt;Node4 -->
<g id="edge3_Node000002_Node000004" class="edge">
<title>Node2&#45;&gt;Node4</title>
<g id="a_edge3_Node000002_Node000004"><a xlink:title=" ">
<path fill="none" stroke="#63b8ff" d="M165.49,-111.55C151.63,-102.61 134.25,-91.39 120.39,-82.45"/>
<polygon fill="#63b8ff" stroke="#63b8ff" points="122.59,-79.71 112.29,-77.23 118.8,-85.59 122.59,-79.71"/>
</a>
</g>
</g>
<!-- Node5 -->
<g id="Node000005" class="node">
<title>Node5</title>
<g id="a_Node000005"><a xlink:title=" ">
<polygon fill="#e0e0e0" stroke="#999999" points="372.19,-76 192.69,-76 192.69,-56 372.19,-56 372.19,-76"/>
<text xml:space="preserve" text-anchor="middle" x="282.44" y="-62.5" font-family="Helvetica,sans-Serif" font-size="10.00">ProjectilePoolSubsystem.generated.h</text>
</a>
</g>
</g>
<!-- Node2&#45;&gt;Node5 -->
<g id="edge4_Node000002_Node000005" class="edge">
<title>Node2&#45;&gt;Node5</title>
<g id="a_edge4_Node000002_Node000005"><a xlink:title=" ">
<path fill="none" stroke="#63b8ff" d="M213.39,-111.55C227.25,-102.61 244.63,-91.39 258.49,-82.45"/>
<polygon fill="#63b8ff" stroke="#63b8ff" points="260.08,-85.59 266.58,-77.23 256.28,-79.71 260.08,-85.59"/>
</a>
</g>
</g>
<!-- Node6&#45;&gt;Node3 -->
<g id="edge6_Node000006_Node000003" class="edge">
<title>Node6&#45;&gt;Node3</title>
<g id="a_edge6_Node000006_Node000003"><a xlink:title=" ">
<path fill="none" stroke="#63b8ff" d="M462.58,-111.65C448.1,-102.79 431.2,-90.52 419.44,-76 408.67,-62.71 401.34,-44.65 396.88,-30.94"/>
<polygon fill="#63b8ff" stroke="#63b8ff" points="400.34,-30.28 394.13,-21.69 393.63,-32.27 400.34,-30.28"/>
</a>
</g>
</g>
<!-- Node7 -->
<g id="Node000007" class="node">
<title>Node7</title>
<g id="a_Node000007"><a xlink:title=" ">
<polygon fill="#e0e0e0" stroke="#999999" points="554.19,-76 428.69,-76 428.69,-56 554.19,-56 554.19,-76"/>
<text xml:space="preserve" text-anchor="middle" x="491.44" y="-62.5" font-family="Helvetica,sans-Serif" font-size="10.00">GameFramework/Actor.h</text>
</a>
</g>
</g>
<!-- Node6&#45;&gt;Node7 -->
<g id="edge7_Node000006_Node000007" class="edge">
<title>Node6&#45;&gt;Node7</title>
<g id="a_edge7_Node000006_Node000007"><a xlink:title=" ">
<path fill="none" stroke="#63b8ff" d="M491.44,-111.55C491.44,-104.34 491.44,-95.66 491.44,-87.88"/>
<polygon fill="#63b8ff" stroke="#63b8ff" points="494.94,-87.92 491.44,-77.92 487.94,-87.92 494.94,-87.92"/>
</a>
</g>
</g>
<!-- Node8 -->
<g id="Node000008" class="node">
<title>Node8</title>
<g id="a_Node000008"><a xlink:href="_skill_data_8h.html" target="_top" xlink:title=" ">
<polygon fill="white" stroke="#666666" points="682.31,-76 572.56,-76 572.56,-56 682.31,-56 682.31,-76"/>
<text xml:space="preserve" text-anchor="middle" x="627.44" y="-62.5" font-family="Helvetica,sans-Serif" font-size="10.00">Skill/Data/SkillData.h</text>
</a>
</g>
</g>
<!-- Node6&#45;&gt;Node8 -->
<g id="edge8_Node000006_Node000008" class="edge">
<title>Node6&#45;&gt;Node8</title>
<g id="a_edge8_Node000006_Node000008"><a xlink:title=" ">
<path fill="none" stroke="#63b8ff" d="M526.46,-111.55C547.81,-102.13 574.88,-90.19 595.62,-81.04"/>
<polygon fill="#63b8ff" stroke="#63b8ff" points="596.99,-84.26 604.73,-77.02 594.17,-77.85 596.99,-84.26"/>
</a>
</g>
</g>
<!-- Node13 -->
<g id="Node000013" class="node">
<title>Node13</title>
<g id="a_Node000013"><a xlink:title=" ">
<polygon fill="#e0e0e0" stroke="#999999" points="832.94,-76 699.94,-76 699.94,-56 832.94,-56 832.94,-76"/>
<text xml:space="preserve" text-anchor="middle" x="766.44" y="-62.5" font-family="Helvetica,sans-Serif" font-size="10.00">ProjectileBase.generated.h</text>
</a>
</g>
</g>
<!-- Node6&#45;&gt;Node13 -->
<g id="edge14_Node000006_Node000013" class="edge">
<title>Node6&#45;&gt;Node13</title>
<g id="a_edge14_Node000006_Node000013"><a xlink:title=" ">
<path fill="none" stroke="#63b8ff" d="M552.81,-113.61C600.53,-103.2 666.11,-88.89 711.98,-78.88"/>
<polygon fill="#63b8ff" stroke="#63b8ff" points="712.69,-82.31 721.72,-76.76 711.2,-75.47 712.69,-82.31"/>
</a>
</g>
</g>
<!-- Node8&#45;&gt;Node3 -->
<g id="edge9_Node000008_Node000003" class="edge">
<title>Node8&#45;&gt;Node3</title>
<g id="a_edge9_Node000008_Node000003"><a xlink:title=" ">
<path fill="none" stroke="#63b8ff" d="M586.06,-55.53C546.02,-46.37 485.23,-32.46 442.26,-22.63"/>
<polygon fill="#63b8ff" stroke="#63b8ff" points="443.2,-19.25 432.67,-20.43 441.64,-26.08 443.2,-19.25"/>
</a>
</g>
</g>
<!-- Node9 -->
<g id="Node000009" class="node">
<title>Node9</title>
<g id="a_Node000009"><a xlink:title=" ">
<polygon fill="#e0e0e0" stroke="#999999" points="550.19,-20 448.69,-20 448.69,0 550.19,0 550.19,-20"/>
<text xml:space="preserve" text-anchor="middle" x="499.44" y="-6.5" font-family="Helvetica,sans-Serif" font-size="10.00">Engine/DataTable.h</text>
</a>
</g>
</g>
<!-- Node8&#45;&gt;Node9 -->
<g id="edge10_Node000008_Node000009" class="edge">
<title>Node8&#45;&gt;Node9</title>
<g id="a_edge10_Node000008_Node000009"><a xlink:title=" ">
<path fill="none" stroke="#63b8ff" d="M605.14,-55.59C585.08,-47.13 555.32,-34.58 532.49,-24.94"/>
<polygon fill="#63b8ff" stroke="#63b8ff" points="533.88,-21.73 523.3,-21.07 531.16,-28.18 533.88,-21.73"/>
</a>
</g>
</g>
<!-- Node10 -->
<g id="Node000010" class="node">
<title>Node10</title>
<g id="a_Node000010"><a xlink:title=" ">
<polygon fill="#e0e0e0" stroke="#999999" points="686.44,-20 568.44,-20 568.44,0 686.44,0 686.44,-20"/>
<text xml:space="preserve" text-anchor="middle" x="627.44" y="-6.5" font-family="Helvetica,sans-Serif" font-size="10.00">GameplayAbilitySpec.h</text>
</a>
</g>
</g>
<!-- Node8&#45;&gt;Node10 -->
<g id="edge11_Node000008_Node000010" class="edge">
<title>Node8&#45;&gt;Node10</title>
<g id="a_edge11_Node000008_Node000010"><a xlink:title=" ">
<path fill="none" stroke="#63b8ff" d="M627.44,-55.59C627.44,-49.01 627.44,-39.96 627.44,-31.73"/>
<polygon fill="#63b8ff" stroke="#63b8ff" points="630.94,-31.81 627.44,-21.81 623.94,-31.81 630.94,-31.81"/>
</a>
</g>
</g>
<!-- Node11 -->
<g id="Node000011" class="node">
<title>Node11</title>
<g id="a_Node000011"><a xlink:title=" ">
<polygon fill="#e0e0e0" stroke="#999999" points="830.56,-20 704.31,-20 704.31,0 830.56,0 830.56,-20"/>
<text xml:space="preserve" text-anchor="middle" x="767.44" y="-6.5" font-family="Helvetica,sans-Serif" font-size="10.00">GameplayTagContainer.h</text>
</a>
</g>
</g>
<!-- Node8&#45;&gt;Node11 -->
<g id="edge12_Node000008_Node000011" class="edge">
<title>Node8&#45;&gt;Node11</title>
<g id="a_edge12_Node000008_Node000011"><a xlink:title=" ">
<path fill="none" stroke="#63b8ff" d="M651.83,-55.59C674.07,-47.01 707.21,-34.23 732.31,-24.55"/>
<polygon fill="#63b8ff" stroke="#63b8ff" points="733.38,-27.89 741.45,-21.02 730.86,-21.36 733.38,-27.89"/>
</a>
</g>
</g>
<!-- Node12 -->
<g id="Node000012" class="node">
<title>Node12</title>
<g id="a_Node000012"><a xlink:title=" ">
<polygon fill="#e0e0e0" stroke="#999999" points="958.31,-20 848.56,-20 848.56,0 958.31,0 958.31,-20"/>
<text xml:space="preserve" text-anchor="middle" x="903.44" y="-6.5" font-family="Helvetica,sans-Serif" font-size="10.00">SkillData.generated.h</text>
</a>
</g>
</g>
<!-- Node8&#45;&gt;Node12 -->
<g id="edge13_Node000008_Node000012" class="edge">
<title>Node8&#45;&gt;Node12</title>
<g id="a_edge13_Node000008_Node000012"><a xlink:title=" ">
<path fill="none" stroke="#63b8ff" d="M675.83,-55.53C722.69,-46.36 793.82,-32.45 844.08,-22.61"/>
<polygon fill="#63b8ff" stroke="#63b8ff" points="844.48,-26.1 853.62,-20.75 843.13,-19.23 844.48,-26.1"/>
</a>
</g>
</g>
</g>
</svg>
