<?xml version="1.0" encoding="UTF-8" standalone="no"?>
<!DOCTYPE svg PUBLIC "-//W3C//DTD SVG 1.1//EN"
 "http://www.w3.org/Graphics/SVG/1.1/DTD/svg11.dtd">
<!-- Generated by graphviz version 13.1.1 (20250719.2154)
 -->
<!-- Title: C:/Users/user/Perforce/alz7_CobaltbruWorkspace_00/KPT/Source/KPT/Skill/Projectile/ProjectileBase.h Pages: 1 -->
<svg width="614pt" height="176pt"
 viewBox="0.00 0.00 614.00 176.00" xmlns="http://www.w3.org/2000/svg" xmlns:xlink="http://www.w3.org/1999/xlink">
<g id="graph0" class="graph" transform="scale(1 1) rotate(0) translate(4 172)">
<title>C:/Users/user/Perforce/alz7_CobaltbruWorkspace_00/KPT/Source/KPT/Skill/Projectile/ProjectileBase.h</title>
<!-- Node1 -->
<g id="Node000001" class="node">
<title>Node1</title>
<g id="a_Node000001"><a xlink:title=" ">
<polygon fill="#999999" stroke="#666666" points="271.38,-168 137.62,-168 137.62,-112 271.38,-112 271.38,-168"/>
<text xml:space="preserve" text-anchor="start" x="145.62" y="-154.5" font-family="Helvetica,sans-Serif" font-size="10.00">C:/Users/user/Perforce</text>
<text xml:space="preserve" text-anchor="start" x="145.62" y="-142.5" font-family="Helvetica,sans-Serif" font-size="10.00">/alz7_CobaltbruWorkspace</text>
<text xml:space="preserve" text-anchor="start" x="145.62" y="-130.5" font-family="Helvetica,sans-Serif" font-size="10.00">_00/KPT/Source/KPT/Skill</text>
<text xml:space="preserve" text-anchor="middle" x="204.5" y="-118.5" font-family="Helvetica,sans-Serif" font-size="10.00">/Projectile/ProjectileBase.h</text>
</a>
</g>
</g>
<!-- Node2 -->
<g id="Node000002" class="node">
<title>Node2</title>
<g id="a_Node000002"><a xlink:title=" ">
<polygon fill="#e0e0e0" stroke="#999999" points="79,-20 0,-20 0,0 79,0 79,-20"/>
<text xml:space="preserve" text-anchor="middle" x="39.5" y="-6.5" font-family="Helvetica,sans-Serif" font-size="10.00">CoreMinimal.h</text>
</a>
</g>
</g>
<!-- Node1&#45;&gt;Node2 -->
<g id="edge1_Node000001_Node000002" class="edge">
<title>Node1&#45;&gt;Node2</title>
<g id="a_edge1_Node000001_Node000002"><a xlink:title=" ">
<path fill="none" stroke="#63b8ff" d="M137.34,-120.87C111.77,-111.12 84.1,-96.72 64.5,-76 52.81,-63.64 46.41,-45.22 43.03,-31.14"/>
<polygon fill="#63b8ff" stroke="#63b8ff" points="46.51,-30.72 41.07,-21.63 39.66,-32.13 46.51,-30.72"/>
</a>
</g>
</g>
<!-- Node3 -->
<g id="Node000003" class="node">
<title>Node3</title>
<g id="a_Node000003"><a xlink:title=" ">
<polygon fill="#e0e0e0" stroke="#999999" points="199.25,-76 73.75,-76 73.75,-56 199.25,-56 199.25,-76"/>
<text xml:space="preserve" text-anchor="middle" x="136.5" y="-62.5" font-family="Helvetica,sans-Serif" font-size="10.00">GameFramework/Actor.h</text>
</a>
</g>
</g>
<!-- Node1&#45;&gt;Node3 -->
<g id="edge2_Node000001_Node000003" class="edge">
<title>Node1&#45;&gt;Node3</title>
<g id="a_edge2_Node000001_Node000003"><a xlink:title=" ">
<path fill="none" stroke="#63b8ff" d="M178.79,-111.78C170.27,-102.75 161,-92.94 153.32,-84.81"/>
<polygon fill="#63b8ff" stroke="#63b8ff" points="155.9,-82.44 146.49,-77.57 150.81,-87.25 155.9,-82.44"/>
</a>
</g>
</g>
<!-- Node4 -->
<g id="Node000004" class="node">
<title>Node4</title>
<g id="a_Node000004"><a xlink:href="_skill_data_8h.html" target="_top" xlink:title=" ">
<polygon fill="white" stroke="#666666" points="327.38,-76 217.62,-76 217.62,-56 327.38,-56 327.38,-76"/>
<text xml:space="preserve" text-anchor="middle" x="272.5" y="-62.5" font-family="Helvetica,sans-Serif" font-size="10.00">Skill/Data/SkillData.h</text>
</a>
</g>
</g>
<!-- Node1&#45;&gt;Node4 -->
<g id="edge3_Node000001_Node000004" class="edge">
<title>Node1&#45;&gt;Node4</title>
<g id="a_edge3_Node000001_Node000004"><a xlink:title=" ">
<path fill="none" stroke="#63b8ff" d="M230.21,-111.78C238.73,-102.75 248,-92.94 255.68,-84.81"/>
<polygon fill="#63b8ff" stroke="#63b8ff" points="258.19,-87.25 262.51,-77.57 253.1,-82.44 258.19,-87.25"/>
</a>
</g>
</g>
<!-- Node9 -->
<g id="Node000009" class="node">
<title>Node9</title>
<g id="a_Node000009"><a xlink:title=" ">
<polygon fill="#e0e0e0" stroke="#999999" points="478,-76 345,-76 345,-56 478,-56 478,-76"/>
<text xml:space="preserve" text-anchor="middle" x="411.5" y="-62.5" font-family="Helvetica,sans-Serif" font-size="10.00">ProjectileBase.generated.h</text>
</a>
</g>
</g>
<!-- Node1&#45;&gt;Node9 -->
<g id="edge9_Node000001_Node000009" class="edge">
<title>Node1&#45;&gt;Node9</title>
<g id="a_edge9_Node000001_Node000009"><a xlink:title=" ">
<path fill="none" stroke="#63b8ff" d="M271.71,-115.62C305.47,-103.88 345.14,-90.08 373.58,-80.19"/>
<polygon fill="#63b8ff" stroke="#63b8ff" points="374.54,-83.56 382.84,-76.97 372.24,-76.95 374.54,-83.56"/>
</a>
</g>
</g>
<!-- Node4&#45;&gt;Node2 -->
<g id="edge4_Node000004_Node000002" class="edge">
<title>Node4&#45;&gt;Node2</title>
<g id="a_edge4_Node000004_Node000002"><a xlink:title=" ">
<path fill="none" stroke="#63b8ff" d="M231.65,-55.53C192.31,-46.42 132.71,-32.6 90.33,-22.78"/>
<polygon fill="#63b8ff" stroke="#63b8ff" points="91.14,-19.38 80.61,-20.53 89.56,-26.2 91.14,-19.38"/>
</a>
</g>
</g>
<!-- Node5 -->
<g id="Node000005" class="node">
<title>Node5</title>
<g id="a_Node000005"><a xlink:title=" ">
<polygon fill="#e0e0e0" stroke="#999999" points="198.25,-20 96.75,-20 96.75,0 198.25,0 198.25,-20"/>
<text xml:space="preserve" text-anchor="middle" x="147.5" y="-6.5" font-family="Helvetica,sans-Serif" font-size="10.00">Engine/DataTable.h</text>
</a>
</g>
</g>
<!-- Node4&#45;&gt;Node5 -->
<g id="edge5_Node000004_Node000005" class="edge">
<title>Node4&#45;&gt;Node5</title>
<g id="a_edge5_Node000004_Node000005"><a xlink:title=" ">
<path fill="none" stroke="#63b8ff" d="M250.73,-55.59C231.13,-47.13 202.07,-34.58 179.78,-24.94"/>
<polygon fill="#63b8ff" stroke="#63b8ff" points="181.4,-21.83 170.83,-21.08 178.62,-28.26 181.4,-21.83"/>
</a>
</g>
</g>
<!-- Node6 -->
<g id="Node000006" class="node">
<title>Node6</title>
<g id="a_Node000006"><a xlink:title=" ">
<polygon fill="#e0e0e0" stroke="#999999" points="334.5,-20 216.5,-20 216.5,0 334.5,0 334.5,-20"/>
<text xml:space="preserve" text-anchor="middle" x="275.5" y="-6.5" font-family="Helvetica,sans-Serif" font-size="10.00">GameplayAbilitySpec.h</text>
</a>
</g>
</g>
<!-- Node4&#45;&gt;Node6 -->
<g id="edge6_Node000004_Node000006" class="edge">
<title>Node4&#45;&gt;Node6</title>
<g id="a_edge6_Node000004_Node000006"><a xlink:title=" ">
<path fill="none" stroke="#63b8ff" d="M273.02,-55.59C273.39,-49.01 273.89,-39.96 274.35,-31.73"/>
<polygon fill="#63b8ff" stroke="#63b8ff" points="277.84,-31.99 274.9,-21.81 270.85,-31.6 277.84,-31.99"/>
</a>
</g>
</g>
<!-- Node7 -->
<g id="Node000007" class="node">
<title>Node7</title>
<g id="a_Node000007"><a xlink:title=" ">
<polygon fill="#e0e0e0" stroke="#999999" points="478.62,-20 352.38,-20 352.38,0 478.62,0 478.62,-20"/>
<text xml:space="preserve" text-anchor="middle" x="415.5" y="-6.5" font-family="Helvetica,sans-Serif" font-size="10.00">GameplayTagContainer.h</text>
</a>
</g>
</g>
<!-- Node4&#45;&gt;Node7 -->
<g id="edge7_Node000004_Node000007" class="edge">
<title>Node4&#45;&gt;Node7</title>
<g id="a_edge7_Node000004_Node000007"><a xlink:title=" ">
<path fill="none" stroke="#63b8ff" d="M297.41,-55.59C320.23,-46.97 354.28,-34.12 379.96,-24.42"/>
<polygon fill="#63b8ff" stroke="#63b8ff" points="380.86,-27.82 388.98,-21.01 378.39,-21.27 380.86,-27.82"/>
</a>
</g>
</g>
<!-- Node8 -->
<g id="Node000008" class="node">
<title>Node8</title>
<g id="a_Node000008"><a xlink:title=" ">
<polygon fill="#e0e0e0" stroke="#999999" points="606.38,-20 496.62,-20 496.62,0 606.38,0 606.38,-20"/>
<text xml:space="preserve" text-anchor="middle" x="551.5" y="-6.5" font-family="Helvetica,sans-Serif" font-size="10.00">SkillData.generated.h</text>
</a>
</g>
</g>
<!-- Node4&#45;&gt;Node8 -->
<g id="edge8_Node000004_Node000008" class="edge">
<title>Node4&#45;&gt;Node8</title>
<g id="a_edge8_Node000004_Node000008"><a xlink:title=" ">
<path fill="none" stroke="#63b8ff" d="M321.42,-55.53C368.78,-46.36 440.69,-32.45 491.49,-22.61"/>
<polygon fill="#63b8ff" stroke="#63b8ff" points="492,-26.08 501.15,-20.74 490.67,-19.21 492,-26.08"/>
</a>
</g>
</g>
</g>
</svg>
