<?xml version="1.0" encoding="UTF-8" standalone="no"?>
<!DOCTYPE svg PUBLIC "-//W3C//DTD SVG 1.1//EN"
 "http://www.w3.org/Graphics/SVG/1.1/DTD/svg11.dtd">
<!-- Generated by graphviz version 13.1.1 (20250719.2154)
 -->
<!-- Title: C:/Users/user/Perforce/alz7_CobaltbruWorkspace_00/KPT/Source/KPT/Core/SubSystem/RewardManagerSubsystem.h Pages: 1 -->
<svg width="670pt" height="232pt"
 viewBox="0.00 0.00 670.00 232.00" xmlns="http://www.w3.org/2000/svg" xmlns:xlink="http://www.w3.org/1999/xlink">
<g id="graph0" class="graph" transform="scale(1 1) rotate(0) translate(4 228)">
<title>C:/Users/user/Perforce/alz7_CobaltbruWorkspace_00/KPT/Source/KPT/Core/SubSystem/RewardManagerSubsystem.h</title>
<!-- Node1 -->
<g id="Node000001" class="node">
<title>Node1</title>
<g id="a_Node000001"><a xlink:title=" ">
<polygon fill="#999999" stroke="#666666" points="400.5,-224 198.5,-224 198.5,-168 400.5,-168 400.5,-224"/>
<text xml:space="preserve" text-anchor="start" x="206.5" y="-210.5" font-family="Helvetica,sans-Serif" font-size="10.00">C:/Users/user/Perforce</text>
<text xml:space="preserve" text-anchor="start" x="206.5" y="-198.5" font-family="Helvetica,sans-Serif" font-size="10.00">/alz7_CobaltbruWorkspace</text>
<text xml:space="preserve" text-anchor="start" x="206.5" y="-186.5" font-family="Helvetica,sans-Serif" font-size="10.00">_00/KPT/Source/KPT/Core</text>
<text xml:space="preserve" text-anchor="middle" x="299.5" y="-174.5" font-family="Helvetica,sans-Serif" font-size="10.00">/SubSystem/RewardManagerSubsystem.h</text>
</a>
</g>
</g>
<!-- Node2 -->
<g id="Node000002" class="node">
<title>Node2</title>
<g id="a_Node000002"><a xlink:title=" ">
<polygon fill="#e0e0e0" stroke="#999999" points="79,-20 0,-20 0,0 79,0 79,-20"/>
<text xml:space="preserve" text-anchor="middle" x="39.5" y="-6.5" font-family="Helvetica,sans-Serif" font-size="10.00">CoreMinimal.h</text>
</a>
</g>
</g>
<!-- Node1&#45;&gt;Node2 -->
<g id="edge1_Node000001_Node000002" class="edge">
<title>Node1&#45;&gt;Node2</title>
<g id="a_edge1_Node000001_Node000002"><a xlink:title=" ">
<path fill="none" stroke="#63b8ff" d="M198.3,-174.97C142.6,-158.34 77.81,-128.55 42.5,-76 33.82,-63.08 33.61,-45.23 35.28,-31.51"/>
<polygon fill="#63b8ff" stroke="#63b8ff" points="38.7,-32.25 36.89,-21.82 31.79,-31.1 38.7,-32.25"/>
</a>
</g>
</g>
<!-- Node3 -->
<g id="Node000003" class="node">
<title>Node3</title>
<g id="a_Node000003"><a xlink:href="_game_structs_8h.html" target="_top" xlink:title=" ">
<polygon fill="white" stroke="#666666" points="278.5,-132 172.5,-132 172.5,-112 278.5,-112 278.5,-132"/>
<text xml:space="preserve" text-anchor="middle" x="225.5" y="-118.5" font-family="Helvetica,sans-Serif" font-size="10.00">Data/GameStructs.h</text>
</a>
</g>
</g>
<!-- Node1&#45;&gt;Node3 -->
<g id="edge2_Node000001_Node000003" class="edge">
<title>Node1&#45;&gt;Node3</title>
<g id="a_edge2_Node000001_Node000003"><a xlink:title=" ">
<path fill="none" stroke="#63b8ff" d="M271.52,-167.78C262.05,-158.56 251.73,-148.52 243.27,-140.29"/>
<polygon fill="#63b8ff" stroke="#63b8ff" points="245.93,-137.99 236.32,-133.53 241.05,-143.01 245.93,-137.99"/>
</a>
</g>
</g>
<!-- Node10 -->
<g id="Node000010" class="node">
<title>Node10</title>
<g id="a_Node000010"><a xlink:title=" ">
<polygon fill="#e0e0e0" stroke="#999999" points="452.62,-132 296.38,-132 296.38,-112 452.62,-112 452.62,-132"/>
<text xml:space="preserve" text-anchor="middle" x="374.5" y="-118.5" font-family="Helvetica,sans-Serif" font-size="10.00">Subsystems/WorldSubsystem.h</text>
</a>
</g>
</g>
<!-- Node1&#45;&gt;Node10 -->
<g id="edge11_Node000001_Node000010" class="edge">
<title>Node1&#45;&gt;Node10</title>
<g id="a_edge11_Node000001_Node000010"><a xlink:title=" ">
<path fill="none" stroke="#63b8ff" d="M327.85,-167.78C337.46,-158.56 347.92,-148.52 356.49,-140.29"/>
<polygon fill="#63b8ff" stroke="#63b8ff" points="358.75,-142.97 363.54,-133.52 353.9,-137.92 358.75,-142.97"/>
</a>
</g>
</g>
<!-- Node11 -->
<g id="Node000011" class="node">
<title>Node11</title>
<g id="a_Node000011"><a xlink:title=" ">
<polygon fill="#e0e0e0" stroke="#999999" points="661.88,-132 471.12,-132 471.12,-112 661.88,-112 661.88,-132"/>
<text xml:space="preserve" text-anchor="middle" x="566.5" y="-118.5" font-family="Helvetica,sans-Serif" font-size="10.00">RewardManagerSubsystem.generated.h</text>
</a>
</g>
</g>
<!-- Node1&#45;&gt;Node11 -->
<g id="edge12_Node000001_Node000011" class="edge">
<title>Node1&#45;&gt;Node11</title>
<g id="a_edge12_Node000001_Node000011"><a xlink:title=" ">
<path fill="none" stroke="#63b8ff" d="M400.82,-167.68C441.99,-156.57 487.51,-144.3 520.4,-135.43"/>
<polygon fill="#63b8ff" stroke="#63b8ff" points="521.27,-138.82 530.02,-132.84 519.45,-132.06 521.27,-138.82"/>
</a>
</g>
</g>
<!-- Node3&#45;&gt;Node2 -->
<g id="edge3_Node000003_Node000002" class="edge">
<title>Node3&#45;&gt;Node2</title>
<g id="a_edge3_Node000003_Node000002"><a xlink:title=" ">
<path fill="none" stroke="#63b8ff" d="M172.21,-119.77C135.67,-116.11 88.54,-105.41 58.5,-76 46.67,-64.42 42.11,-45.92 40.4,-31.62"/>
<polygon fill="#63b8ff" stroke="#63b8ff" points="43.91,-31.6 39.63,-21.91 36.93,-32.15 43.91,-31.6"/>
</a>
</g>
</g>
<!-- Node4 -->
<g id="Node000004" class="node">
<title>Node4</title>
<g id="a_Node000004"><a xlink:title=" ">
<polygon fill="#e0e0e0" stroke="#999999" points="169.25,-76 67.75,-76 67.75,-56 169.25,-56 169.25,-76"/>
<text xml:space="preserve" text-anchor="middle" x="118.5" y="-62.5" font-family="Helvetica,sans-Serif" font-size="10.00">Engine/DataTable.h</text>
</a>
</g>
</g>
<!-- Node3&#45;&gt;Node4 -->
<g id="edge4_Node000003_Node000004" class="edge">
<title>Node3&#45;&gt;Node4</title>
<g id="a_edge4_Node000003_Node000004"><a xlink:title=" ">
<path fill="none" stroke="#63b8ff" d="M206.86,-111.59C190.47,-103.32 166.34,-91.14 147.44,-81.6"/>
<polygon fill="#63b8ff" stroke="#63b8ff" points="149.14,-78.54 138.63,-77.16 145.99,-84.79 149.14,-78.54"/>
</a>
</g>
</g>
<!-- Node5 -->
<g id="Node000005" class="node">
<title>Node5</title>
<g id="a_Node000005"><a xlink:title=" ">
<polygon fill="#e0e0e0" stroke="#999999" points="263.5,-76 187.5,-76 187.5,-56 263.5,-56 263.5,-76"/>
<text xml:space="preserve" text-anchor="middle" x="225.5" y="-62.5" font-family="Helvetica,sans-Serif" font-size="10.00">AttributeSet.h</text>
</a>
</g>
</g>
<!-- Node3&#45;&gt;Node5 -->
<g id="edge5_Node000003_Node000005" class="edge">
<title>Node3&#45;&gt;Node5</title>
<g id="a_edge5_Node000003_Node000005"><a xlink:title=" ">
<path fill="none" stroke="#63b8ff" d="M225.5,-111.59C225.5,-105.01 225.5,-95.96 225.5,-87.73"/>
<polygon fill="#63b8ff" stroke="#63b8ff" points="229,-87.81 225.5,-77.81 222,-87.81 229,-87.81"/>
</a>
</g>
</g>
<!-- Node6 -->
<g id="Node000006" class="node">
<title>Node6</title>
<g id="a_Node000006"><a xlink:href="_game_enums_8h.html" target="_top" xlink:title=" ">
<polygon fill="white" stroke="#666666" points="363.12,-76 281.88,-76 281.88,-56 363.12,-56 363.12,-76"/>
<text xml:space="preserve" text-anchor="middle" x="322.5" y="-62.5" font-family="Helvetica,sans-Serif" font-size="10.00">GameEnums.h</text>
</a>
</g>
</g>
<!-- Node3&#45;&gt;Node6 -->
<g id="edge6_Node000003_Node000006" class="edge">
<title>Node3&#45;&gt;Node6</title>
<g id="a_edge6_Node000003_Node000006"><a xlink:title=" ">
<path fill="none" stroke="#63b8ff" d="M242.4,-111.59C257.05,-103.44 278.52,-91.48 295.55,-82"/>
<polygon fill="#63b8ff" stroke="#63b8ff" points="297.11,-85.14 304.15,-77.22 293.71,-79.02 297.11,-85.14"/>
</a>
</g>
</g>
<!-- Node8 -->
<g id="Node000008" class="node">
<title>Node8</title>
<g id="a_Node000008"><a xlink:title=" ">
<polygon fill="#e0e0e0" stroke="#999999" points="507.62,-76 381.38,-76 381.38,-56 507.62,-56 507.62,-76"/>
<text xml:space="preserve" text-anchor="middle" x="444.5" y="-62.5" font-family="Helvetica,sans-Serif" font-size="10.00">GameplayTagContainer.h</text>
</a>
</g>
</g>
<!-- Node3&#45;&gt;Node8 -->
<g id="edge9_Node000003_Node000008" class="edge">
<title>Node3&#45;&gt;Node8</title>
<g id="a_edge9_Node000003_Node000008"><a xlink:title=" ">
<path fill="none" stroke="#63b8ff" d="M263.9,-111.53C300.37,-102.54 355.4,-88.97 395.12,-79.18"/>
<polygon fill="#63b8ff" stroke="#63b8ff" points="395.81,-82.61 404.68,-76.82 394.13,-75.82 395.81,-82.61"/>
</a>
</g>
</g>
<!-- Node9 -->
<g id="Node000009" class="node">
<title>Node9</title>
<g id="a_Node000009"><a xlink:title=" ">
<polygon fill="#e0e0e0" stroke="#999999" points="653.38,-76 525.62,-76 525.62,-56 653.38,-56 653.38,-76"/>
<text xml:space="preserve" text-anchor="middle" x="589.5" y="-62.5" font-family="Helvetica,sans-Serif" font-size="10.00">GameStructs.generated.h</text>
</a>
</g>
</g>
<!-- Node3&#45;&gt;Node9 -->
<g id="edge10_Node000003_Node000009" class="edge">
<title>Node3&#45;&gt;Node9</title>
<g id="a_edge10_Node000003_Node000009"><a xlink:title=" ">
<path fill="none" stroke="#63b8ff" d="M278.82,-113.09C341.05,-103.86 444.37,-88.53 514.63,-78.11"/>
<polygon fill="#63b8ff" stroke="#63b8ff" points="514.74,-81.63 524.11,-76.7 513.71,-74.71 514.74,-81.63"/>
</a>
</g>
</g>
<!-- Node6&#45;&gt;Node2 -->
<g id="edge7_Node000006_Node000002" class="edge">
<title>Node6&#45;&gt;Node2</title>
<g id="a_edge7_Node000006_Node000002"><a xlink:title=" ">
<path fill="none" stroke="#63b8ff" d="M281.65,-57.21C231.21,-47.58 145.38,-31.2 90.61,-20.75"/>
<polygon fill="#63b8ff" stroke="#63b8ff" points="91.39,-17.34 80.91,-18.9 90.08,-24.21 91.39,-17.34"/>
</a>
</g>
</g>
<!-- Node7 -->
<g id="Node000007" class="node">
<title>Node7</title>
<g id="a_Node000007"><a xlink:title=" ">
<polygon fill="#e0e0e0" stroke="#999999" points="386,-20 259,-20 259,0 386,0 386,-20"/>
<text xml:space="preserve" text-anchor="middle" x="322.5" y="-6.5" font-family="Helvetica,sans-Serif" font-size="10.00">GameEnums.generated.h</text>
</a>
</g>
</g>
<!-- Node6&#45;&gt;Node7 -->
<g id="edge8_Node000006_Node000007" class="edge">
<title>Node6&#45;&gt;Node7</title>
<g id="a_edge8_Node000006_Node000007"><a xlink:title=" ">
<path fill="none" stroke="#63b8ff" d="M322.5,-55.59C322.5,-49.01 322.5,-39.96 322.5,-31.73"/>
<polygon fill="#63b8ff" stroke="#63b8ff" points="326,-31.81 322.5,-21.81 319,-31.81 326,-31.81"/>
</a>
</g>
</g>
</g>
</svg>
