<?xml version="1.0" encoding="UTF-8" standalone="no"?>
<!DOCTYPE svg PUBLIC "-//W3C//DTD SVG 1.1//EN"
 "http://www.w3.org/Graphics/SVG/1.1/DTD/svg11.dtd">
<!-- Generated by graphviz version 13.1.1 (20250719.2154)
 -->
<!-- Title: C:/Users/user/Perforce/alz7_CobaltbruWorkspace_00/KPT/Source/KPT/Core/Component/LevelUpReward/RewardInteractorComponent.cpp Pages: 1 -->
<!--zoomable 312 -->

<svg id="main" version="1.1" xmlns="http://www.w3.org/2000/svg" xmlns:xlink="http://www.w3.org/1999/xlink" xml:space="preserve" onload="init(evt)">

<style type="text/css"><![CDATA[
.node, .edge {opacity: 0.7;}
.node.selected, .edge.selected {opacity: 1;}
.edge:hover path { stroke: red; }
.edge:hover polygon { stroke: red; fill: red; }
]]></style>

<defs>
  <circle id="rim" cx="0" cy="0" r="7"/>
  <circle id="rim2" cx="0" cy="0" r="3.5"/>
  <g id="zoomPlus">
    <use xlink:href="#rim" fill="#404040"><set attributeName="fill" to="#808080" begin="zoomplus.mouseover" end="zoomplus.mouseout"/></use>
    <path d="M-4,0h8M0,-4v8" fill="none" stroke="white" stroke-width="1.5" pointer-events="none"/>
  </g>
  <g id="zoomMin">
    <use xlink:href="#rim" fill="#404040"><set attributeName="fill" to="#808080" begin="zoomminus.mouseover" end="zoomminus.mouseout"/></use>
    <path d="M-4,0h8" fill="none" stroke="white" stroke-width="1.5" pointer-events="none"/>
  </g>
  <g id="arrowUp" transform="translate(30 24)">
    <use xlink:href="#rim"/>
    <path pointer-events="none" fill="none" stroke="white" stroke-width="1.5" d="M0,-3.0v7 M-2.5,-0.5L0,-3.0L2.5,-0.5"/>
  </g>
  <g id="arrowRight" transform="rotate(90) translate(36 -43)">
    <use xlink:href="#rim"/>
    <path pointer-events="none" fill="none" stroke="white" stroke-width="1.5" d="M0,-3.0v7 M-2.5,-0.5L0,-3.0L2.5,-0.5"/>
  </g>
  <g id="arrowDown" transform="rotate(180) translate(-30 -48)">
    <use xlink:href="#rim"/>
    <path pointer-events="none" fill="none" stroke="white" stroke-width="1.5" d="M0,-3.0v7 M-2.5,-0.5L0,-3.0L2.5,-0.5"/>
  </g>
  <g id="arrowLeft" transform="rotate(270) translate(-36 17)">
    <use xlink:href="#rim"/>
    <path pointer-events="none" fill="none" stroke="white" stroke-width="1.5" d="M0,-3.0v7 M-2.5,-0.5L0,-3.0L2.5,-0.5"/>
  </g>
  <g id="resetDef">
    <use xlink:href="#rim2" fill="#404040"><set attributeName="fill" to="#808080" begin="reset.mouseover" end="reset.mouseout"/></use>
  </g>
</defs>
<script type="application/ecmascript">
var viewWidth = 1075;
var viewHeight = 312;
var sectionId = 'dynsection-0';
</script>
<script type="application/ecmascript" xlink:href="svg.min.js"/>
<svg id="graph" class="graph">
<g id="viewport">
<title>C:/Users/user/Perforce/alz7_CobaltbruWorkspace_00/KPT/Source/KPT/Core/Component/LevelUpReward/RewardInteractorComponent.cpp</title>
<!-- Node1 -->
<g id="Node000001" class="node">
<title>Node1</title>
<g id="a_Node000001"><a xlink:title=" ">
<polygon fill="#999999" stroke="#666666" points="449.05,-304 286.05,-304 286.05,-236 449.05,-236 449.05,-304"/>
<text xml:space="preserve" text-anchor="start" x="294.05" y="-290.5" font-family="Helvetica,sans-Serif" font-size="10.00">C:/Users/user/Perforce</text>
<text xml:space="preserve" text-anchor="start" x="294.05" y="-278.5" font-family="Helvetica,sans-Serif" font-size="10.00">/alz7_CobaltbruWorkspace</text>
<text xml:space="preserve" text-anchor="start" x="294.05" y="-266.5" font-family="Helvetica,sans-Serif" font-size="10.00">_00/KPT/Source/KPT/Core</text>
<text xml:space="preserve" text-anchor="start" x="294.05" y="-254.5" font-family="Helvetica,sans-Serif" font-size="10.00">/Component/LevelUpReward</text>
<text xml:space="preserve" text-anchor="middle" x="367.55" y="-242.5" font-family="Helvetica,sans-Serif" font-size="10.00">/RewardInteractorComponent.cpp</text>
</a>
</g>
</g>
<!-- Node2 -->
<g id="Node000002" class="node">
<title>Node2</title>
<g id="a_Node000002"><a xlink:href="_reward_interactor_component_8h.html" target="_top" xlink:title=" ">
<polygon fill="white" stroke="#666666" points="267.3,-194 117.8,-194 117.8,-174 267.3,-174 267.3,-194"/>
<text xml:space="preserve" text-anchor="middle" x="192.55" y="-180.5" font-family="Helvetica,sans-Serif" font-size="10.00">RewardInteractorComponent.h</text>
</a>
</g>
</g>
<!-- Node1&#45;&gt;Node2 -->
<g id="edge1_Node000001_Node000002" class="edge">
<title>Node1&#45;&gt;Node2</title>
<g id="a_edge1_Node000001_Node000002"><a xlink:title=" ">
<path fill="none" stroke="#63b8ff" d="M297.89,-235.56C271.71,-222.99 243.31,-209.36 222.6,-199.42"/>
<polygon fill="#63b8ff" stroke="#63b8ff" points="224.13,-196.28 213.6,-195.1 221.1,-202.59 224.13,-196.28"/>
</a>
</g>
</g>
<!-- Node6 -->
<g id="Node000006" class="node">
<title>Node6</title>
<g id="a_Node000006"><a xlink:href="_reward_manager_subsystem_8h.html" target="_top" xlink:title=" ">
<polygon fill="white" stroke="#666666" points="669.18,-200 503.93,-200 503.93,-168 669.18,-168 669.18,-200"/>
<text xml:space="preserve" text-anchor="start" x="511.93" y="-186.5" font-family="Helvetica,sans-Serif" font-size="10.00">Core/SubSystem/RewardManager</text>
<text xml:space="preserve" text-anchor="middle" x="586.55" y="-174.5" font-family="Helvetica,sans-Serif" font-size="10.00">Subsystem.h</text>
</a>
</g>
</g>
<!-- Node1&#45;&gt;Node6 -->
<g id="edge5_Node000001_Node000006" class="edge">
<title>Node1&#45;&gt;Node6</title>
<g id="a_edge5_Node000001_Node000006"><a xlink:title=" ">
<path fill="none" stroke="#63b8ff" d="M449.41,-237.6C478.33,-226.51 509.99,-214.37 535.61,-204.54"/>
<polygon fill="#63b8ff" stroke="#63b8ff" points="536.69,-207.87 544.77,-201.03 534.18,-201.34 536.69,-207.87"/>
</a>
</g>
</g>
<!-- Node3 -->
<g id="Node000003" class="node">
<title>Node3</title>
<g id="a_Node000003"><a xlink:title=" ">
<polygon fill="#e0e0e0" stroke="#999999" points="474.05,-20 395.05,-20 395.05,0 474.05,0 474.05,-20"/>
<text xml:space="preserve" text-anchor="middle" x="434.55" y="-6.5" font-family="Helvetica,sans-Serif" font-size="10.00">CoreMinimal.h</text>
</a>
</g>
</g>
<!-- Node2&#45;&gt;Node3 -->
<g id="edge2_Node000002_Node000003" class="edge">
<title>Node2&#45;&gt;Node3</title>
<g id="a_edge2_Node000002_Node000003"><a xlink:title=" ">
<path fill="none" stroke="#63b8ff" d="M117.55,-178.41C52.95,-171.54 -25,-154.44 8.55,-112 54.8,-53.51 280.36,-25.35 383.23,-15.39"/>
<polygon fill="#63b8ff" stroke="#63b8ff" points="383.43,-18.88 393.05,-14.46 382.77,-11.91 383.43,-18.88"/>
</a>
</g>
</g>
<!-- Node4 -->
<g id="Node000004" class="node">
<title>Node4</title>
<g id="a_Node000004"><a xlink:title=" ">
<polygon fill="#e0e0e0" stroke="#999999" points="173.68,-132 17.43,-132 17.43,-112 173.68,-112 173.68,-132"/>
<text xml:space="preserve" text-anchor="middle" x="95.55" y="-118.5" font-family="Helvetica,sans-Serif" font-size="10.00">Components/ActorComponent.h</text>
</a>
</g>
</g>
<!-- Node2&#45;&gt;Node4 -->
<g id="edge3_Node000002_Node000004" class="edge">
<title>Node2&#45;&gt;Node4</title>
<g id="a_edge3_Node000002_Node000004"><a xlink:title=" ">
<path fill="none" stroke="#63b8ff" d="M177.4,-173.62C162.09,-164.16 138.2,-149.38 120.18,-138.23"/>
<polygon fill="#63b8ff" stroke="#63b8ff" points="122.24,-135.39 111.89,-133.11 118.55,-141.34 122.24,-135.39"/>
</a>
</g>
</g>
<!-- Node5 -->
<g id="Node000005" class="node">
<title>Node5</title>
<g id="a_Node000005"><a xlink:title=" ">
<polygon fill="#e0e0e0" stroke="#999999" points="387.18,-132 191.93,-132 191.93,-112 387.18,-112 387.18,-132"/>
<text xml:space="preserve" text-anchor="middle" x="289.55" y="-118.5" font-family="Helvetica,sans-Serif" font-size="10.00">RewardInteractorComponent.generated.h</text>
</a>
</g>
</g>
<!-- Node2&#45;&gt;Node5 -->
<g id="edge4_Node000002_Node000005" class="edge">
<title>Node2&#45;&gt;Node5</title>
<g id="a_edge4_Node000002_Node000005"><a xlink:title=" ">
<path fill="none" stroke="#63b8ff" d="M207.71,-173.62C223.01,-164.16 246.9,-149.38 264.93,-138.23"/>
<polygon fill="#63b8ff" stroke="#63b8ff" points="266.55,-141.34 273.22,-133.11 262.87,-135.39 266.55,-141.34"/>
</a>
</g>
</g>
<!-- Node6&#45;&gt;Node3 -->
<g id="edge6_Node000006_Node000003" class="edge">
<title>Node6&#45;&gt;Node3</title>
<g id="a_edge6_Node000006_Node000003"><a xlink:title=" ">
<path fill="none" stroke="#63b8ff" d="M558.05,-167.59C527.46,-149.59 479.62,-116.99 452.55,-76 443.66,-62.53 439.13,-44.73 436.83,-31.16"/>
<polygon fill="#63b8ff" stroke="#63b8ff" points="440.35,-31.06 435.51,-21.63 433.42,-32.02 440.35,-31.06"/>
</a>
</g>
</g>
<!-- Node7 -->
<g id="Node000007" class="node">
<title>Node7</title>
<g id="a_Node000007"><a xlink:href="_game_structs_8h.html" target="_top" xlink:title=" ">
<polygon fill="white" stroke="#666666" points="639.55,-132 533.55,-132 533.55,-112 639.55,-112 639.55,-132"/>
<text xml:space="preserve" text-anchor="middle" x="586.55" y="-118.5" font-family="Helvetica,sans-Serif" font-size="10.00">Data/GameStructs.h</text>
</a>
</g>
</g>
<!-- Node6&#45;&gt;Node7 -->
<g id="edge7_Node000006_Node000007" class="edge">
<title>Node6&#45;&gt;Node7</title>
<g id="a_edge7_Node000006_Node000007"><a xlink:title=" ">
<path fill="none" stroke="#63b8ff" d="M586.55,-167.55C586.55,-160.34 586.55,-151.66 586.55,-143.88"/>
<polygon fill="#63b8ff" stroke="#63b8ff" points="590.05,-143.92 586.55,-133.92 583.05,-143.92 590.05,-143.92"/>
</a>
</g>
</g>
<!-- Node14 -->
<g id="Node000014" class="node">
<title>Node14</title>
<g id="a_Node000014"><a xlink:title=" ">
<polygon fill="#e0e0e0" stroke="#999999" points="813.68,-132 657.43,-132 657.43,-112 813.68,-112 813.68,-132"/>
<text xml:space="preserve" text-anchor="middle" x="735.55" y="-118.5" font-family="Helvetica,sans-Serif" font-size="10.00">Subsystems/WorldSubsystem.h</text>
</a>
</g>
</g>
<!-- Node6&#45;&gt;Node14 -->
<g id="edge16_Node000006_Node000014" class="edge">
<title>Node6&#45;&gt;Node14</title>
<g id="a_edge16_Node000006_Node000014"><a xlink:title=" ">
<path fill="none" stroke="#63b8ff" d="M624.92,-167.55C648.64,-158 678.79,-145.86 701.63,-136.66"/>
<polygon fill="#63b8ff" stroke="#63b8ff" points="702.82,-139.96 710.79,-132.97 700.2,-133.46 702.82,-139.96"/>
</a>
</g>
</g>
<!-- Node15 -->
<g id="Node000015" class="node">
<title>Node15</title>
<g id="a_Node000015"><a xlink:title=" ">
<polygon fill="#e0e0e0" stroke="#999999" points="1022.93,-132 832.18,-132 832.18,-112 1022.93,-112 1022.93,-132"/>
<text xml:space="preserve" text-anchor="middle" x="927.55" y="-118.5" font-family="Helvetica,sans-Serif" font-size="10.00">RewardManagerSubsystem.generated.h</text>
</a>
</g>
</g>
<!-- Node6&#45;&gt;Node15 -->
<g id="edge17_Node000006_Node000015" class="edge">
<title>Node6&#45;&gt;Node15</title>
<g id="a_edge17_Node000006_Node000015"><a xlink:title=" ">
<path fill="none" stroke="#63b8ff" d="M669.53,-168.4C728.89,-157.96 807.66,-144.1 862.49,-134.45"/>
<polygon fill="#63b8ff" stroke="#63b8ff" points="863.08,-137.9 872.32,-132.72 861.86,-131 863.08,-137.9"/>
</a>
</g>
</g>
<!-- Node7&#45;&gt;Node3 -->
<g id="edge8_Node000007_Node000003" class="edge">
<title>Node7&#45;&gt;Node3</title>
<g id="a_edge8_Node000007_Node000003"><a xlink:title=" ">
<path fill="none" stroke="#63b8ff" d="M544.24,-111.56C521.06,-104.72 492.98,-93.52 472.55,-76 458.3,-63.78 448.08,-44.82 441.85,-30.52"/>
<polygon fill="#63b8ff" stroke="#63b8ff" points="445.27,-29.64 438.28,-21.67 438.78,-32.26 445.27,-29.64"/>
</a>
</g>
</g>
<!-- Node8 -->
<g id="Node000008" class="node">
<title>Node8</title>
<g id="a_Node000008"><a xlink:title=" ">
<polygon fill="#e0e0e0" stroke="#999999" points="583.3,-76 481.8,-76 481.8,-56 583.3,-56 583.3,-76"/>
<text xml:space="preserve" text-anchor="middle" x="532.55" y="-62.5" font-family="Helvetica,sans-Serif" font-size="10.00">Engine/DataTable.h</text>
</a>
</g>
</g>
<!-- Node7&#45;&gt;Node8 -->
<g id="edge9_Node000007_Node000008" class="edge">
<title>Node7&#45;&gt;Node8</title>
<g id="a_edge9_Node000007_Node000008"><a xlink:title=" ">
<path fill="none" stroke="#63b8ff" d="M577.15,-111.59C569.64,-104.08 558.91,-93.35 549.86,-84.3"/>
<polygon fill="#63b8ff" stroke="#63b8ff" points="552.47,-81.96 542.92,-77.37 547.52,-86.91 552.47,-81.96"/>
</a>
</g>
</g>
<!-- Node9 -->
<g id="Node000009" class="node">
<title>Node9</title>
<g id="a_Node000009"><a xlink:title=" ">
<polygon fill="#e0e0e0" stroke="#999999" points="677.55,-76 601.55,-76 601.55,-56 677.55,-56 677.55,-76"/>
<text xml:space="preserve" text-anchor="middle" x="639.55" y="-62.5" font-family="Helvetica,sans-Serif" font-size="10.00">AttributeSet.h</text>
</a>
</g>
</g>
<!-- Node7&#45;&gt;Node9 -->
<g id="edge10_Node000007_Node000009" class="edge">
<title>Node7&#45;&gt;Node9</title>
<g id="a_edge10_Node000007_Node000009"><a xlink:title=" ">
<path fill="none" stroke="#63b8ff" d="M595.78,-111.59C603.16,-104.08 613.69,-93.35 622.57,-84.3"/>
<polygon fill="#63b8ff" stroke="#63b8ff" points="624.86,-86.97 629.37,-77.38 619.86,-82.06 624.86,-86.97"/>
</a>
</g>
</g>
<!-- Node10 -->
<g id="Node000010" class="node">
<title>Node10</title>
<g id="a_Node000010"><a xlink:href="_game_enums_8h.html" target="_top" xlink:title=" ">
<polygon fill="white" stroke="#666666" points="777.18,-76 695.93,-76 695.93,-56 777.18,-56 777.18,-76"/>
<text xml:space="preserve" text-anchor="middle" x="736.55" y="-62.5" font-family="Helvetica,sans-Serif" font-size="10.00">GameEnums.h</text>
</a>
</g>
</g>
<!-- Node7&#45;&gt;Node10 -->
<g id="edge11_Node000007_Node000010" class="edge">
<title>Node7&#45;&gt;Node10</title>
<g id="a_edge11_Node000007_Node000010"><a xlink:title=" ">
<path fill="none" stroke="#63b8ff" d="M612.68,-111.59C636.73,-102.94 672.66,-90 699.63,-80.29"/>
<polygon fill="#63b8ff" stroke="#63b8ff" points="700.57,-83.67 708.8,-76.99 698.2,-77.09 700.57,-83.67"/>
</a>
</g>
</g>
<!-- Node12 -->
<g id="Node000012" class="node">
<title>Node12</title>
<g id="a_Node000012"><a xlink:title=" ">
<polygon fill="#e0e0e0" stroke="#999999" points="921.68,-76 795.43,-76 795.43,-56 921.68,-56 921.68,-76"/>
<text xml:space="preserve" text-anchor="middle" x="858.55" y="-62.5" font-family="Helvetica,sans-Serif" font-size="10.00">GameplayTagContainer.h</text>
</a>
</g>
</g>
<!-- Node7&#45;&gt;Node12 -->
<g id="edge14_Node000007_Node000012" class="edge">
<title>Node7&#45;&gt;Node12</title>
<g id="a_edge14_Node000007_Node000012"><a xlink:title=" ">
<path fill="none" stroke="#63b8ff" d="M634.24,-111.53C680.32,-102.38 750.23,-88.5 799.74,-78.68"/>
<polygon fill="#63b8ff" stroke="#63b8ff" points="800.31,-82.13 809.43,-76.75 798.94,-75.27 800.31,-82.13"/>
</a>
</g>
</g>
<!-- Node13 -->
<g id="Node000013" class="node">
<title>Node13</title>
<g id="a_Node000013"><a xlink:title=" ">
<polygon fill="#e0e0e0" stroke="#999999" points="1067.43,-76 939.68,-76 939.68,-56 1067.43,-56 1067.43,-76"/>
<text xml:space="preserve" text-anchor="middle" x="1003.55" y="-62.5" font-family="Helvetica,sans-Serif" font-size="10.00">GameStructs.generated.h</text>
</a>
</g>
</g>
<!-- Node7&#45;&gt;Node13 -->
<g id="edge15_Node000007_Node000013" class="edge">
<title>Node7&#45;&gt;Node13</title>
<g id="a_edge15_Node000007_Node000013"><a xlink:title=" ">
<path fill="none" stroke="#63b8ff" d="M639.98,-113.18C642.88,-112.78 645.75,-112.38 648.55,-112 700.89,-104.88 840.33,-87.37 928.07,-76.41"/>
<polygon fill="#63b8ff" stroke="#63b8ff" points="928.3,-79.9 937.79,-75.19 927.44,-72.96 928.3,-79.9"/>
</a>
</g>
</g>
<!-- Node10&#45;&gt;Node3 -->
<g id="edge12_Node000010_Node000003" class="edge">
<title>Node10&#45;&gt;Node3</title>
<g id="a_edge12_Node000010_Node000003"><a xlink:title=" ">
<path fill="none" stroke="#63b8ff" d="M695.62,-57.63C692.55,-57.08 689.5,-56.53 686.55,-56 616.81,-43.5 536.19,-29.11 485.29,-20.04"/>
<polygon fill="#63b8ff" stroke="#63b8ff" points="486.22,-16.65 475.76,-18.34 484.99,-23.54 486.22,-16.65"/>
</a>
</g>
</g>
<!-- Node11 -->
<g id="Node000011" class="node">
<title>Node11</title>
<g id="a_Node000011"><a xlink:title=" ">
<polygon fill="#e0e0e0" stroke="#999999" points="800.05,-20 673.05,-20 673.05,0 800.05,0 800.05,-20"/>
<text xml:space="preserve" text-anchor="middle" x="736.55" y="-6.5" font-family="Helvetica,sans-Serif" font-size="10.00">GameEnums.generated.h</text>
</a>
</g>
</g>
<!-- Node10&#45;&gt;Node11 -->
<g id="edge13_Node000010_Node000011" class="edge">
<title>Node10&#45;&gt;Node11</title>
<g id="a_edge13_Node000010_Node000011"><a xlink:title=" ">
<path fill="none" stroke="#63b8ff" d="M736.55,-55.59C736.55,-49.01 736.55,-39.96 736.55,-31.73"/>
<polygon fill="#63b8ff" stroke="#63b8ff" points="740.05,-31.81 736.55,-21.81 733.05,-31.81 740.05,-31.81"/>
</a>
</g>
</g>
</g>
</svg>

<g id="navigator" transform="translate(0 0)" fill="#404254">
  <rect fill="#f2f5e9" fill-opacity="0.5" stroke="#606060" stroke-width=".5" x="0" y="0" width="60" height="60"/>
  <use id="zoomplus" xlink:href="#zoomPlus" x="17" y="9" onmousedown="handleZoom(evt,'in')"/>
  <use id="zoomminus" xlink:href="#zoomMin" x="42" y="9" onmousedown="handleZoom(evt,'out')"/>
  <use id="reset" xlink:href="#resetDef" x="30" y="36" onmousedown="handleReset()"/>
   <use id="arrowup" xlink:href="#arrowUp" x="0" y="0" onmousedown="handlePan(0,-1)"/>
  <use id="arrowright" xlink:href="#arrowRight" x="0" y="0" onmousedown="handlePan(1,0)"/>
  <use id="arrowdown" xlink:href="#arrowDown" x="0" y="0" onmousedown="handlePan(0,1)"/>
  <use id="arrowleft" xlink:href="#arrowLeft" x="0" y="0" onmousedown="handlePan(-1,0)"/>
</g>
<svg viewBox="0 0 15 15" width="100%" height="30px" preserveAspectRatio="xMaxYMin meet">
 <g id="arrow_out" transform="scale(0.3 0.3)">
  <a xlink:href="_reward_interactor_component_8cpp__incl_org.svg" target="_base">
   <rect id="button" ry="5" rx="5" y="6" x="6" height="38" width="38"
        fill="#f2f5e9" fill-opacity="0.5" stroke="#606060" stroke-width="1.0"/>
   <path id="arrow"
     d="M 11.500037,31.436501 C 11.940474,20.09759 22.043105,11.32322 32.158766,21.979434 L 37.068811,17.246167 C 37.068811,17.246167 37.088388,32 37.088388,32 L 22.160133,31.978069 C 22.160133,31.978069 26.997745,27.140456 26.997745,27.140456 C 18.528582,18.264221 13.291696,25.230495 11.500037,31.436501 z"
     style="fill:#404040;"/>
  </a>
 </g>
</svg>

<style type='text/css'>
<![CDATA[
[data-mouse-over-selected='false'] { opacity: 0.7; }
[data-mouse-over-selected='true']  { opacity: 1.0; }
]]>
</style>
<script type="application/ecmascript"><![CDATA[
document.addEventListener('DOMContentLoaded', (event) => {
  highlightEdges();
  highlightAdjacentNodes();
});
]]></script>
</svg>
