<?xml version="1.0" encoding="UTF-8" standalone="no"?>
<!DOCTYPE svg PUBLIC "-//W3C//DTD SVG 1.1//EN"
 "http://www.w3.org/Graphics/SVG/1.1/DTD/svg11.dtd">
<!-- Generated by graphviz version 13.1.1 (20250719.2154)
 -->
<!-- Title: C:/Users/user/Perforce/alz7_CobaltbruWorkspace_00/KPT/Source/KPT/Skill/Data/SKillVFXData.h Pages: 1 -->
<svg width="368pt" height="248pt"
 viewBox="0.00 0.00 368.00 248.00" xmlns="http://www.w3.org/2000/svg" xmlns:xlink="http://www.w3.org/1999/xlink">
<g id="graph0" class="graph" transform="scale(1 1) rotate(0) translate(4 244)">
<title>C:/Users/user/Perforce/alz7_CobaltbruWorkspace_00/KPT/Source/KPT/Skill/Data/SKillVFXData.h</title>
<!-- Node1 -->
<g id="Node000001" class="node">
<title>Node1</title>
<g id="a_Node000001"><a xlink:title=" ">
<polygon fill="#999999" stroke="#666666" points="199.62,-240 66.62,-240 66.62,-184 199.62,-184 199.62,-240"/>
<text xml:space="preserve" text-anchor="start" x="74.62" y="-226.5" font-family="Helvetica,sans-Serif" font-size="10.00">C:/Users/user/Perforce</text>
<text xml:space="preserve" text-anchor="start" x="74.62" y="-214.5" font-family="Helvetica,sans-Serif" font-size="10.00">/alz7_CobaltbruWorkspace</text>
<text xml:space="preserve" text-anchor="start" x="74.62" y="-202.5" font-family="Helvetica,sans-Serif" font-size="10.00">_00/KPT/Source/KPT/Skill</text>
<text xml:space="preserve" text-anchor="middle" x="133.12" y="-190.5" font-family="Helvetica,sans-Serif" font-size="10.00">/Data/SKillVFXData.h</text>
</a>
</g>
</g>
<!-- Node2 -->
<g id="Node000002" class="node">
<title>Node2</title>
<g id="a_Node000002"><a xlink:href="_g_c_n___skill_v_f_x_manager_8cpp.html" target="_top" xlink:title=" ">
<polygon fill="white" stroke="#666666" points="162.25,-56 0,-56 0,0 162.25,0 162.25,-56"/>
<text xml:space="preserve" text-anchor="start" x="8" y="-42.5" font-family="Helvetica,sans-Serif" font-size="10.00">C:/Users/user/Perforce</text>
<text xml:space="preserve" text-anchor="start" x="8" y="-30.5" font-family="Helvetica,sans-Serif" font-size="10.00">/alz7_CobaltbruWorkspace</text>
<text xml:space="preserve" text-anchor="start" x="8" y="-18.5" font-family="Helvetica,sans-Serif" font-size="10.00">_00/KPT/Source/KPT/Skill</text>
<text xml:space="preserve" text-anchor="middle" x="81.12" y="-6.5" font-family="Helvetica,sans-Serif" font-size="10.00">/Cue/GCN_SkillVFXManager.cpp</text>
</a>
</g>
</g>
<!-- Node1&#45;&gt;Node2 -->
<g id="edge1_Node000001_Node000002" class="edge">
<title>Node1&#45;&gt;Node2</title>
<g id="a_edge1_Node000001_Node000002"><a xlink:title=" ">
<path fill="none" stroke="#63b8ff" d="M71.43,-176.52C62.02,-168.43 53.63,-158.93 48.12,-148 33.18,-118.32 48.43,-80.96 62.79,-56.09"/>
<polygon fill="#63b8ff" stroke="#63b8ff" points="69.1,-179.14 79.11,-182.6 73.45,-173.65 69.1,-179.14"/>
</a>
</g>
</g>
<!-- Node3 -->
<g id="Node000003" class="node">
<title>Node3</title>
<g id="a_Node000003"><a xlink:href="_g_c_n___skill_v_f_x_manager_8h.html" target="_top" xlink:title=" ">
<polygon fill="white" stroke="#666666" points="209,-148 57.25,-148 57.25,-92 209,-92 209,-148"/>
<text xml:space="preserve" text-anchor="start" x="65.25" y="-134.5" font-family="Helvetica,sans-Serif" font-size="10.00">C:/Users/user/Perforce</text>
<text xml:space="preserve" text-anchor="start" x="65.25" y="-122.5" font-family="Helvetica,sans-Serif" font-size="10.00">/alz7_CobaltbruWorkspace</text>
<text xml:space="preserve" text-anchor="start" x="65.25" y="-110.5" font-family="Helvetica,sans-Serif" font-size="10.00">_00/KPT/Source/KPT/Skill</text>
<text xml:space="preserve" text-anchor="middle" x="133.12" y="-98.5" font-family="Helvetica,sans-Serif" font-size="10.00">/Cue/GCN_SkillVFXManager.h</text>
</a>
</g>
</g>
<!-- Node1&#45;&gt;Node3 -->
<g id="edge2_Node000001_Node000003" class="edge">
<title>Node1&#45;&gt;Node3</title>
<g id="a_edge2_Node000001_Node000003"><a xlink:title=" ">
<path fill="none" stroke="#63b8ff" d="M133.12,-172.09C133.12,-164.08 133.12,-155.81 133.12,-148.32"/>
<polygon fill="#63b8ff" stroke="#63b8ff" points="129.63,-171.99 133.13,-181.99 136.63,-171.99 129.63,-171.99"/>
</a>
</g>
</g>
<!-- Node4 -->
<g id="Node000004" class="node">
<title>Node4</title>
<g id="a_Node000004"><a xlink:href="_s_kill_v_f_x_data_8cpp.html" target="_top" xlink:title=" ">
<polygon fill="white" stroke="#666666" points="359.62,-148 226.62,-148 226.62,-92 359.62,-92 359.62,-148"/>
<text xml:space="preserve" text-anchor="start" x="234.62" y="-134.5" font-family="Helvetica,sans-Serif" font-size="10.00">C:/Users/user/Perforce</text>
<text xml:space="preserve" text-anchor="start" x="234.62" y="-122.5" font-family="Helvetica,sans-Serif" font-size="10.00">/alz7_CobaltbruWorkspace</text>
<text xml:space="preserve" text-anchor="start" x="234.62" y="-110.5" font-family="Helvetica,sans-Serif" font-size="10.00">_00/KPT/Source/KPT/Skill</text>
<text xml:space="preserve" text-anchor="middle" x="293.12" y="-98.5" font-family="Helvetica,sans-Serif" font-size="10.00">/Data/SKillVFXData.cpp</text>
</a>
</g>
</g>
<!-- Node1&#45;&gt;Node4 -->
<g id="edge4_Node000001_Node000004" class="edge">
<title>Node1&#45;&gt;Node4</title>
<g id="a_edge4_Node000001_Node000004"><a xlink:title=" ">
<path fill="none" stroke="#63b8ff" d="M191.94,-177.92C209.15,-168.24 227.76,-157.77 244.27,-148.48"/>
<polygon fill="#63b8ff" stroke="#63b8ff" points="190.32,-174.81 183.32,-182.77 193.75,-180.91 190.32,-174.81"/>
</a>
</g>
</g>
<!-- Node3&#45;&gt;Node2 -->
<g id="edge3_Node000003_Node000002" class="edge">
<title>Node3&#45;&gt;Node2</title>
<g id="a_edge3_Node000003_Node000002"><a xlink:title=" ">
<path fill="none" stroke="#63b8ff" d="M111.61,-81.76C106.69,-73.24 101.54,-64.34 96.91,-56.32"/>
<polygon fill="#63b8ff" stroke="#63b8ff" points="108.45,-83.29 116.48,-90.2 114.51,-79.79 108.45,-83.29"/>
</a>
</g>
</g>
</g>
</svg>
