<?xml version="1.0" encoding="UTF-8" standalone="no"?>
<!DOCTYPE svg PUBLIC "-//W3C//DTD SVG 1.1//EN"
 "http://www.w3.org/Graphics/SVG/1.1/DTD/svg11.dtd">
<!-- Generated by graphviz version 13.1.1 (20250719.2154)
 -->
<!-- Title: C:/Users/user/Perforce/alz7_CobaltbruWorkspace_00/KPT/Source/KPT/Core/SubSystem/SessionManagerSubsystem.cpp Pages: 1 -->
<svg width="914pt" height="188pt"
 viewBox="0.00 0.00 914.00 188.00" xmlns="http://www.w3.org/2000/svg" xmlns:xlink="http://www.w3.org/1999/xlink">
<g id="graph0" class="graph" transform="scale(1 1) rotate(0) translate(4 184)">
<title>C:/Users/user/Perforce/alz7_CobaltbruWorkspace_00/KPT/Source/KPT/Core/SubSystem/SessionManagerSubsystem.cpp</title>
<!-- Node1 -->
<g id="Node000001" class="node">
<title>Node1</title>
<g id="a_Node000001"><a xlink:title=" ">
<polygon fill="#999999" stroke="#666666" points="610.75,-180 396.75,-180 396.75,-124 610.75,-124 610.75,-180"/>
<text xml:space="preserve" text-anchor="start" x="404.75" y="-166.5" font-family="Helvetica,sans-Serif" font-size="10.00">C:/Users/user/Perforce</text>
<text xml:space="preserve" text-anchor="start" x="404.75" y="-154.5" font-family="Helvetica,sans-Serif" font-size="10.00">/alz7_CobaltbruWorkspace</text>
<text xml:space="preserve" text-anchor="start" x="404.75" y="-142.5" font-family="Helvetica,sans-Serif" font-size="10.00">_00/KPT/Source/KPT/Core</text>
<text xml:space="preserve" text-anchor="middle" x="503.75" y="-130.5" font-family="Helvetica,sans-Serif" font-size="10.00">/SubSystem/SessionManagerSubsystem.cpp</text>
</a>
</g>
</g>
<!-- Node2 -->
<g id="Node000002" class="node">
<title>Node2</title>
<g id="a_Node000002"><a xlink:href="_session_manager_subsystem_8h.html" target="_top" xlink:title=" ">
<polygon fill="white" stroke="#666666" points="476,-88 329.5,-88 329.5,-68 476,-68 476,-88"/>
<text xml:space="preserve" text-anchor="middle" x="402.75" y="-74.5" font-family="Helvetica,sans-Serif" font-size="10.00">SessionManagerSubsystem.h</text>
</a>
</g>
</g>
<!-- Node1&#45;&gt;Node2 -->
<g id="edge1_Node000001_Node000002" class="edge">
<title>Node1&#45;&gt;Node2</title>
<g id="a_edge1_Node000001_Node000002"><a xlink:title=" ">
<path fill="none" stroke="#63b8ff" d="M465.28,-123.57C451.69,-113.89 436.87,-103.32 425.07,-94.91"/>
<polygon fill="#63b8ff" stroke="#63b8ff" points="427.36,-92.25 417.19,-89.29 423.3,-97.95 427.36,-92.25"/>
</a>
</g>
</g>
<!-- Node5 -->
<g id="Node000005" class="node">
<title>Node5</title>
<g id="a_Node000005"><a xlink:title=" ">
<polygon fill="#e0e0e0" stroke="#999999" points="101.5,-26 0,-26 0,-6 101.5,-6 101.5,-26"/>
<text xml:space="preserve" text-anchor="middle" x="50.75" y="-12.5" font-family="Helvetica,sans-Serif" font-size="10.00">OnlineSubsystem.h</text>
</a>
</g>
</g>
<!-- Node1&#45;&gt;Node5 -->
<g id="edge8_Node000001_Node000005" class="edge">
<title>Node1&#45;&gt;Node5</title>
<g id="a_edge8_Node000001_Node000005"><a xlink:title=" ">
<path fill="none" stroke="#63b8ff" d="M410.99,-123.56C314.05,-94.89 166.21,-51.16 93.78,-29.73"/>
<polygon fill="#63b8ff" stroke="#63b8ff" points="94.86,-26.4 84.28,-26.92 92.87,-33.11 94.86,-26.4"/>
</a>
</g>
</g>
<!-- Node6 -->
<g id="Node000006" class="node">
<title>Node6</title>
<g id="a_Node000006"><a xlink:title=" ">
<polygon fill="#e0e0e0" stroke="#999999" points="906.38,-26 783.12,-26 783.12,-6 906.38,-6 906.38,-26"/>
<text xml:space="preserve" text-anchor="middle" x="844.75" y="-12.5" font-family="Helvetica,sans-Serif" font-size="10.00">OnlineSessionSettings.h</text>
</a>
</g>
</g>
<!-- Node1&#45;&gt;Node6 -->
<g id="edge9_Node000001_Node000006" class="edge">
<title>Node1&#45;&gt;Node6</title>
<g id="a_edge9_Node000001_Node000006"><a xlink:title=" ">
<path fill="none" stroke="#63b8ff" d="M502.56,-123.56C503.33,-105.19 507.63,-81.92 522.75,-68 564.21,-29.83 718.27,-41.83 773.75,-32 779.34,-31.01 785.17,-29.9 790.97,-28.75"/>
<polygon fill="#63b8ff" stroke="#63b8ff" points="791.45,-32.22 800.55,-26.8 790.06,-25.36 791.45,-32.22"/>
</a>
</g>
</g>
<!-- Node9 -->
<g id="Node000009" class="node">
<title>Node9</title>
<g id="a_Node000009"><a xlink:title=" ">
<polygon fill="#e0e0e0" stroke="#999999" points="653.62,-88 531.88,-88 531.88,-68 653.62,-68 653.62,-88"/>
<text xml:space="preserve" text-anchor="middle" x="592.75" y="-74.5" font-family="Helvetica,sans-Serif" font-size="10.00">OnlineSubsystemUtils.h</text>
</a>
</g>
</g>
<!-- Node1&#45;&gt;Node9 -->
<g id="edge10_Node000001_Node000009" class="edge">
<title>Node1&#45;&gt;Node9</title>
<g id="a_edge10_Node000001_Node000009"><a xlink:title=" ">
<path fill="none" stroke="#63b8ff" d="M537.65,-123.57C549.39,-114.08 562.16,-103.74 572.46,-95.42"/>
<polygon fill="#63b8ff" stroke="#63b8ff" points="574.36,-98.38 579.94,-89.37 569.96,-92.94 574.36,-98.38"/>
</a>
</g>
</g>
<!-- Node10 -->
<g id="Node000010" class="node">
<title>Node10</title>
<g id="a_Node000010"><a xlink:title=" ">
<polygon fill="#e0e0e0" stroke="#999999" points="804.25,-88 671.25,-88 671.25,-68 804.25,-68 804.25,-88"/>
<text xml:space="preserve" text-anchor="middle" x="737.75" y="-74.5" font-family="Helvetica,sans-Serif" font-size="10.00">Kismet/GameplayStatics.h</text>
</a>
</g>
</g>
<!-- Node1&#45;&gt;Node10 -->
<g id="edge11_Node000001_Node000010" class="edge">
<title>Node1&#45;&gt;Node10</title>
<g id="a_edge11_Node000001_Node000010"><a xlink:title=" ">
<path fill="none" stroke="#63b8ff" d="M592.88,-123.57C628.46,-112.63 667.68,-100.56 696.33,-91.74"/>
<polygon fill="#63b8ff" stroke="#63b8ff" points="697.18,-95.15 705.7,-88.86 695.12,-88.46 697.18,-95.15"/>
</a>
</g>
</g>
<!-- Node3 -->
<g id="Node000003" class="node">
<title>Node3</title>
<g id="a_Node000003"><a xlink:title=" ">
<polygon fill="#e0e0e0" stroke="#999999" points="198.25,-26 119.25,-26 119.25,-6 198.25,-6 198.25,-26"/>
<text xml:space="preserve" text-anchor="middle" x="158.75" y="-12.5" font-family="Helvetica,sans-Serif" font-size="10.00">CoreMinimal.h</text>
</a>
</g>
</g>
<!-- Node2&#45;&gt;Node3 -->
<g id="edge2_Node000002_Node000003" class="edge">
<title>Node2&#45;&gt;Node3</title>
<g id="a_edge2_Node000002_Node000003"><a xlink:title=" ">
<path fill="none" stroke="#63b8ff" d="M356.96,-67.53C317.08,-59.04 257.81,-45.82 206.75,-32 204.15,-31.3 201.49,-30.55 198.81,-29.77"/>
<polygon fill="#63b8ff" stroke="#63b8ff" points="199.87,-26.43 189.29,-26.92 197.86,-33.14 199.87,-26.43"/>
</a>
</g>
</g>
<!-- Node4 -->
<g id="Node000004" class="node">
<title>Node4</title>
<g id="a_Node000004"><a xlink:title=" ">
<polygon fill="#e0e0e0" stroke="#999999" points="411.38,-26 216.12,-26 216.12,-6 411.38,-6 411.38,-26"/>
<text xml:space="preserve" text-anchor="middle" x="313.75" y="-12.5" font-family="Helvetica,sans-Serif" font-size="10.00">Subsystems/GameInstanceSubsystem.h</text>
</a>
</g>
</g>
<!-- Node2&#45;&gt;Node4 -->
<g id="edge3_Node000002_Node000004" class="edge">
<title>Node2&#45;&gt;Node4</title>
<g id="a_edge3_Node000002_Node000004"><a xlink:title=" ">
<path fill="none" stroke="#63b8ff" d="M388.84,-67.62C375,-58.29 353.49,-43.79 337.04,-32.7"/>
<polygon fill="#63b8ff" stroke="#63b8ff" points="339.06,-29.84 328.81,-27.16 335.15,-35.65 339.06,-29.84"/>
</a>
</g>
</g>
<!-- Node2&#45;&gt;Node5 -->
<g id="edge4_Node000002_Node000005" class="edge">
<title>Node2&#45;&gt;Node5</title>
<g id="a_edge4_Node000002_Node000005"><a xlink:title=" ">
<path fill="none" stroke="#63b8ff" d="M329.25,-67.72C269.78,-59.72 184.01,-47.11 109.75,-32 105.45,-31.12 100.98,-30.14 96.53,-29.1"/>
<polygon fill="#63b8ff" stroke="#63b8ff" points="97.58,-25.75 87.03,-26.8 95.93,-32.56 97.58,-25.75"/>
</a>
</g>
</g>
<!-- Node2&#45;&gt;Node6 -->
<g id="edge5_Node000002_Node000006" class="edge">
<title>Node2&#45;&gt;Node6</title>
<g id="a_edge5_Node000002_Node000006"><a xlink:title=" ">
<path fill="none" stroke="#63b8ff" d="M476.21,-68.86C567.55,-58.61 718.22,-41.21 773.75,-32 779.65,-31.02 785.81,-29.89 791.92,-28.69"/>
<polygon fill="#63b8ff" stroke="#63b8ff" points="792.22,-32.2 801.33,-26.79 790.84,-25.34 792.22,-32.2"/>
</a>
</g>
</g>
<!-- Node7 -->
<g id="Node000007" class="node">
<title>Node7</title>
<g id="a_Node000007"><a xlink:title=" ">
<polygon fill="#e0e0e0" stroke="#999999" points="554.5,-32 429,-32 429,0 554.5,0 554.5,-32"/>
<text xml:space="preserve" text-anchor="start" x="437" y="-18.5" font-family="Helvetica,sans-Serif" font-size="10.00">Interfaces/OnlineSession</text>
<text xml:space="preserve" text-anchor="middle" x="491.75" y="-6.5" font-family="Helvetica,sans-Serif" font-size="10.00">Interface.h</text>
</a>
</g>
</g>
<!-- Node2&#45;&gt;Node7 -->
<g id="edge6_Node000002_Node000007" class="edge">
<title>Node2&#45;&gt;Node7</title>
<g id="a_edge6_Node000002_Node000007"><a xlink:title=" ">
<path fill="none" stroke="#63b8ff" d="M416.66,-67.62C428.13,-59.89 444.85,-48.62 459.61,-38.67"/>
<polygon fill="#63b8ff" stroke="#63b8ff" points="461.36,-41.71 467.69,-33.22 457.44,-35.91 461.36,-41.71"/>
</a>
</g>
</g>
<!-- Node8 -->
<g id="Node000008" class="node">
<title>Node8</title>
<g id="a_Node000008"><a xlink:title=" ">
<polygon fill="#e0e0e0" stroke="#999999" points="764.88,-26 572.62,-26 572.62,-6 764.88,-6 764.88,-26"/>
<text xml:space="preserve" text-anchor="middle" x="668.75" y="-12.5" font-family="Helvetica,sans-Serif" font-size="10.00">SessionManagerSubsystem.generated.h</text>
</a>
</g>
</g>
<!-- Node2&#45;&gt;Node8 -->
<g id="edge7_Node000002_Node000008" class="edge">
<title>Node2&#45;&gt;Node8</title>
<g id="a_edge7_Node000002_Node000008"><a xlink:title=" ">
<path fill="none" stroke="#63b8ff" d="M444.61,-67.56C490.85,-57.13 565.43,-40.31 615.73,-28.96"/>
<polygon fill="#63b8ff" stroke="#63b8ff" points="616.24,-32.43 625.22,-26.82 614.7,-25.6 616.24,-32.43"/>
</a>
</g>
</g>
</g>
</svg>
