<?xml version="1.0" encoding="UTF-8" standalone="no"?>
<!DOCTYPE svg PUBLIC "-//W3C//DTD SVG 1.1//EN"
 "http://www.w3.org/Graphics/SVG/1.1/DTD/svg11.dtd">
<!-- Generated by graphviz version 13.1.1 (20250719.2154)
 -->
<!-- Title: C:/Users/user/Perforce/alz7_CobaltbruWorkspace_00/KPT/Source/KPT/Core/SubSystem/ShopManagerSubsystem.cpp Pages: 1 -->
<svg width="4331pt" height="256pt"
 viewBox="0.00 0.00 4331.00 256.00" xmlns="http://www.w3.org/2000/svg" xmlns:xlink="http://www.w3.org/1999/xlink">
<g id="graph0" class="graph" transform="scale(1 1) rotate(0) translate(4 252)">
<title>C:/Users/user/Perforce/alz7_CobaltbruWorkspace_00/KPT/Source/KPT/Core/SubSystem/ShopManagerSubsystem.cpp</title>
<!-- Node1 -->
<g id="Node000001" class="node">
<title>Node1</title>
<g id="a_Node000001"><a xlink:title=" ">
<polygon fill="#999999" stroke="#666666" points="3073.5,-248 2872.25,-248 2872.25,-192 3073.5,-192 3073.5,-248"/>
<text xml:space="preserve" text-anchor="start" x="2880.25" y="-234.5" font-family="Helvetica,sans-Serif" font-size="10.00">C:/Users/user/Perforce</text>
<text xml:space="preserve" text-anchor="start" x="2880.25" y="-222.5" font-family="Helvetica,sans-Serif" font-size="10.00">/alz7_CobaltbruWorkspace</text>
<text xml:space="preserve" text-anchor="start" x="2880.25" y="-210.5" font-family="Helvetica,sans-Serif" font-size="10.00">_00/KPT/Source/KPT/Core</text>
<text xml:space="preserve" text-anchor="middle" x="2972.88" y="-198.5" font-family="Helvetica,sans-Serif" font-size="10.00">/SubSystem/ShopManagerSubsystem.cpp</text>
</a>
</g>
</g>
<!-- Node2 -->
<g id="Node000002" class="node">
<title>Node2</title>
<g id="a_Node000002"><a xlink:href="_shop_manager_subsystem_8h.html" target="_top" xlink:title=" ">
<polygon fill="white" stroke="#666666" points="4007.75,-150 3874,-150 3874,-130 4007.75,-130 4007.75,-150"/>
<text xml:space="preserve" text-anchor="middle" x="3940.88" y="-136.5" font-family="Helvetica,sans-Serif" font-size="10.00">ShopManagerSubsystem.h</text>
</a>
</g>
</g>
<!-- Node1&#45;&gt;Node2 -->
<g id="edge1_Node000001_Node000002" class="edge">
<title>Node1&#45;&gt;Node2</title>
<g id="a_edge1_Node000001_Node000002"><a xlink:title=" ">
<path fill="none" stroke="#63b8ff" d="M3073.73,-210.87C3267.43,-195.27 3687.76,-161.4 3862.37,-147.33"/>
<polygon fill="#63b8ff" stroke="#63b8ff" points="3862.56,-150.82 3872.25,-146.53 3862,-143.84 3862.56,-150.82"/>
</a>
</g>
</g>
<!-- Node6 -->
<g id="Node000006" class="node">
<title>Node6</title>
<g id="a_Node000006"><a xlink:href="_k_p_t_player_state_8h.html" target="_top" xlink:title=" ">
<polygon fill="white" stroke="#666666" points="969.12,-150 828.62,-150 828.62,-130 969.12,-130 969.12,-150"/>
<text xml:space="preserve" text-anchor="middle" x="898.88" y="-136.5" font-family="Helvetica,sans-Serif" font-size="10.00">Character/KPTPlayerState.h</text>
</a>
</g>
</g>
<!-- Node1&#45;&gt;Node6 -->
<g id="edge5_Node000001_Node000006" class="edge">
<title>Node1&#45;&gt;Node6</title>
<g id="a_edge5_Node000001_Node000006"><a xlink:title=" ">
<path fill="none" stroke="#63b8ff" d="M2871.79,-215.2C2513.27,-201.71 1306.63,-156.34 980.64,-144.07"/>
<polygon fill="#63b8ff" stroke="#63b8ff" points="981.05,-140.59 970.93,-143.71 980.79,-147.58 981.05,-140.59"/>
</a>
</g>
</g>
<!-- Node14 -->
<g id="Node000014" class="node">
<title>Node14</title>
<g id="a_Node000014"><a xlink:href="_k_p_t_in_game_mode_8h.html" target="_top" xlink:title=" ">
<polygon fill="white" stroke="#666666" points="2030,-150 1903.75,-150 1903.75,-130 2030,-130 2030,-150"/>
<text xml:space="preserve" text-anchor="middle" x="1966.88" y="-136.5" font-family="Helvetica,sans-Serif" font-size="10.00">Core/KPTInGameMode.h</text>
</a>
</g>
</g>
<!-- Node1&#45;&gt;Node14 -->
<g id="edge15_Node000001_Node000014" class="edge">
<title>Node1&#45;&gt;Node14</title>
<g id="a_edge15_Node000001_Node000014"><a xlink:title=" ">
<path fill="none" stroke="#63b8ff" d="M2871.81,-211.16C2669.72,-195.49 2219.92,-160.62 2041.7,-146.8"/>
<polygon fill="#63b8ff" stroke="#63b8ff" points="2042.11,-143.32 2031.87,-146.04 2041.57,-150.3 2042.11,-143.32"/>
</a>
</g>
</g>
<!-- Node17 -->
<g id="Node000017" class="node">
<title>Node17</title>
<g id="a_Node000017"><a xlink:href="_k_p_t_in_game_state_8h.html" target="_top" xlink:title=" ">
<polygon fill="white" stroke="#666666" points="463.62,-150 338.12,-150 338.12,-130 463.62,-130 463.62,-150"/>
<text xml:space="preserve" text-anchor="middle" x="400.88" y="-136.5" font-family="Helvetica,sans-Serif" font-size="10.00">Core/KPTInGameState.h</text>
</a>
</g>
</g>
<!-- Node1&#45;&gt;Node17 -->
<g id="edge19_Node000001_Node000017" class="edge">
<title>Node1&#45;&gt;Node17</title>
<g id="a_edge19_Node000001_Node000017"><a xlink:title=" ">
<path fill="none" stroke="#63b8ff" d="M2871.98,-216.28C2564.24,-207.94 1610.35,-181.71 819.88,-156 699.32,-152.08 559.28,-146.95 475.49,-143.82"/>
<polygon fill="#63b8ff" stroke="#63b8ff" points="475.68,-140.32 465.56,-143.45 475.42,-147.32 475.68,-140.32"/>
</a>
</g>
</g>
<!-- Node20 -->
<g id="Node000020" class="node">
<title>Node20</title>
<g id="a_Node000020"><a xlink:href="_player_shop_state_component_8h.html" target="_top" xlink:title=" ">
<polygon fill="white" stroke="#666666" points="3248.38,-156 3097.38,-156 3097.38,-124 3248.38,-124 3248.38,-156"/>
<text xml:space="preserve" text-anchor="start" x="3105.38" y="-142.5" font-family="Helvetica,sans-Serif" font-size="10.00">Core/Component/Shop</text>
<text xml:space="preserve" text-anchor="middle" x="3172.88" y="-130.5" font-family="Helvetica,sans-Serif" font-size="10.00">/PlayerShopStateComponent.h</text>
</a>
</g>
</g>
<!-- Node1&#45;&gt;Node20 -->
<g id="edge24_Node000001_Node000020" class="edge">
<title>Node1&#45;&gt;Node20</title>
<g id="a_edge24_Node000001_Node000020"><a xlink:title=" ">
<path fill="none" stroke="#63b8ff" d="M3043.39,-191.5C3069.52,-181.31 3098.61,-169.96 3122.59,-160.61"/>
<polygon fill="#63b8ff" stroke="#63b8ff" points="3123.76,-163.91 3131.81,-157.02 3121.22,-157.39 3123.76,-163.91"/>
</a>
</g>
</g>
<!-- Node23 -->
<g id="Node000023" class="node">
<title>Node23</title>
<g id="a_Node000023"><a xlink:href="_player_wallet_component_8h.html" target="_top" xlink:title=" ">
<polygon fill="white" stroke="#666666" points="3039,-156 2906.75,-156 2906.75,-124 3039,-124 3039,-156"/>
<text xml:space="preserve" text-anchor="start" x="2914.75" y="-142.5" font-family="Helvetica,sans-Serif" font-size="10.00">Core/Component/Shop</text>
<text xml:space="preserve" text-anchor="middle" x="2972.88" y="-130.5" font-family="Helvetica,sans-Serif" font-size="10.00">/PlayerWalletComponent.h</text>
</a>
</g>
</g>
<!-- Node1&#45;&gt;Node23 -->
<g id="edge28_Node000001_Node000023" class="edge">
<title>Node1&#45;&gt;Node23</title>
<g id="a_edge28_Node000001_Node000023"><a xlink:title=" ">
<path fill="none" stroke="#63b8ff" d="M2972.88,-191.72C2972.88,-183.88 2972.88,-175.34 2972.88,-167.54"/>
<polygon fill="#63b8ff" stroke="#63b8ff" points="2976.38,-167.62 2972.88,-157.62 2969.38,-167.62 2976.38,-167.62"/>
</a>
</g>
</g>
<!-- Node25 -->
<g id="Node000025" class="node">
<title>Node25</title>
<g id="a_Node000025"><a xlink:href="_team_stats_component_8h.html" target="_top" xlink:title=" ">
<polygon fill="white" stroke="#666666" points="3523.25,-156 3380.5,-156 3380.5,-124 3523.25,-124 3523.25,-156"/>
<text xml:space="preserve" text-anchor="start" x="3388.5" y="-142.5" font-family="Helvetica,sans-Serif" font-size="10.00">Core/Component/GameState</text>
<text xml:space="preserve" text-anchor="middle" x="3451.88" y="-130.5" font-family="Helvetica,sans-Serif" font-size="10.00">/TeamStatsComponent.h</text>
</a>
</g>
</g>
<!-- Node1&#45;&gt;Node25 -->
<g id="edge32_Node000001_Node000025" class="edge">
<title>Node1&#45;&gt;Node25</title>
<g id="a_edge32_Node000001_Node000025"><a xlink:title=" ">
<path fill="none" stroke="#63b8ff" d="M3073.87,-202.55C3161.56,-188.27 3286.99,-167.85 3368.92,-154.51"/>
<polygon fill="#63b8ff" stroke="#63b8ff" points="3369.39,-157.98 3378.69,-152.92 3368.26,-151.07 3369.39,-157.98"/>
</a>
</g>
</g>
<!-- Node27 -->
<g id="Node000027" class="node">
<title>Node27</title>
<g id="a_Node000027"><a xlink:href="_game_structs_8h.html" target="_top" xlink:title=" ">
<polygon fill="white" stroke="#666666" points="1511.88,-150 1405.88,-150 1405.88,-130 1511.88,-130 1511.88,-150"/>
<text xml:space="preserve" text-anchor="middle" x="1458.88" y="-136.5" font-family="Helvetica,sans-Serif" font-size="10.00">Data/GameStructs.h</text>
</a>
</g>
</g>
<!-- Node1&#45;&gt;Node27 -->
<g id="edge36_Node000001_Node000027" class="edge">
<title>Node1&#45;&gt;Node27</title>
<g id="a_edge36_Node000001_Node000027"><a xlink:title=" ">
<path fill="none" stroke="#63b8ff" d="M2871.78,-213.79C2583.03,-198.92 1760.21,-156.52 1523.38,-144.32"/>
<polygon fill="#63b8ff" stroke="#63b8ff" points="1523.9,-140.85 1513.73,-143.83 1523.54,-147.84 1523.9,-140.85"/>
</a>
</g>
</g>
<!-- Node33 -->
<g id="Node000033" class="node">
<title>Node33</title>
<g id="a_Node000033"><a xlink:href="_item_base_8h.html" target="_top" xlink:title=" ">
<polygon fill="white" stroke="#666666" points="2568.25,-150 2479.5,-150 2479.5,-130 2568.25,-130 2568.25,-150"/>
<text xml:space="preserve" text-anchor="middle" x="2523.88" y="-136.5" font-family="Helvetica,sans-Serif" font-size="10.00">Item/ItemBase.h</text>
</a>
</g>
</g>
<!-- Node1&#45;&gt;Node33 -->
<g id="edge45_Node000001_Node000033" class="edge">
<title>Node1&#45;&gt;Node33</title>
<g id="a_edge45_Node000001_Node000033"><a xlink:title=" ">
<path fill="none" stroke="#63b8ff" d="M2871.83,-201.45C2781.62,-185.78 2652.81,-163.4 2579.88,-150.73"/>
<polygon fill="#63b8ff" stroke="#63b8ff" points="2580.61,-147.3 2570.16,-149.04 2579.41,-154.2 2580.61,-147.3"/>
</a>
</g>
</g>
<!-- Node39 -->
<g id="Node000039" class="node">
<title>Node39</title>
<g id="a_Node000039"><a xlink:href="_inventory_manager_8h.html" target="_top" xlink:title=" ">
<polygon fill="white" stroke="#666666" points="3704.12,-156 3587.62,-156 3587.62,-124 3704.12,-124 3704.12,-156"/>
<text xml:space="preserve" text-anchor="start" x="3595.62" y="-142.5" font-family="Helvetica,sans-Serif" font-size="10.00">Item/InventoryManager</text>
<text xml:space="preserve" text-anchor="middle" x="3645.88" y="-130.5" font-family="Helvetica,sans-Serif" font-size="10.00">/InventoryManager.h</text>
</a>
</g>
</g>
<!-- Node1&#45;&gt;Node39 -->
<g id="edge53_Node000001_Node000039" class="edge">
<title>Node1&#45;&gt;Node39</title>
<g id="a_edge53_Node000001_Node000039"><a xlink:title=" ">
<path fill="none" stroke="#63b8ff" d="M3073.93,-208.18C3185.94,-196.06 3371.92,-175.54 3531.88,-156 3546.24,-154.25 3561.62,-152.28 3576.28,-150.37"/>
<polygon fill="#63b8ff" stroke="#63b8ff" points="3576.36,-153.89 3585.82,-149.11 3575.45,-146.95 3576.36,-153.89"/>
</a>
</g>
</g>
<!-- Node41 -->
<g id="Node000041" class="node">
<title>Node41</title>
<g id="a_Node000041"><a xlink:title=" ">
<polygon fill="#e0e0e0" stroke="#999999" points="4158.38,-150 4025.38,-150 4025.38,-130 4158.38,-130 4158.38,-150"/>
<text xml:space="preserve" text-anchor="middle" x="4091.88" y="-136.5" font-family="Helvetica,sans-Serif" font-size="10.00">Kismet/GameplayStatics.h</text>
</a>
</g>
</g>
<!-- Node1&#45;&gt;Node41 -->
<g id="edge57_Node000001_Node000041" class="edge">
<title>Node1&#45;&gt;Node41</title>
<g id="a_edge57_Node000001_Node000041"><a xlink:title=" ">
<path fill="none" stroke="#63b8ff" d="M3073.72,-217.5C3260.53,-213.71 3672.71,-200.59 4016.88,-156 4023.96,-155.08 4031.38,-153.89 4038.68,-152.57"/>
<polygon fill="#63b8ff" stroke="#63b8ff" points="4039.33,-156.01 4048.51,-150.71 4038.03,-149.13 4039.33,-156.01"/>
</a>
</g>
</g>
<!-- Node3 -->
<g id="Node000003" class="node">
<title>Node3</title>
<g id="a_Node000003"><a xlink:title=" ">
<polygon fill="#e0e0e0" stroke="#999999" points="2458.38,-20 2379.38,-20 2379.38,0 2458.38,0 2458.38,-20"/>
<text xml:space="preserve" text-anchor="middle" x="2418.88" y="-6.5" font-family="Helvetica,sans-Serif" font-size="10.00">CoreMinimal.h</text>
</a>
</g>
</g>
<!-- Node2&#45;&gt;Node3 -->
<g id="edge2_Node000002_Node000003" class="edge">
<title>Node2&#45;&gt;Node3</title>
<g id="a_edge2_Node000002_Node000003"><a xlink:title=" ">
<path fill="none" stroke="#63b8ff" d="M3941.99,-129.68C3943.52,-112.09 3943.92,-74.11 3921.88,-56 3864.61,-8.94 2725.8,-9.96 2469.71,-10.79"/>
<polygon fill="#63b8ff" stroke="#63b8ff" points="2470.04,-7.29 2460.05,-10.83 2470.06,-14.29 2470.04,-7.29"/>
</a>
</g>
</g>
<!-- Node4 -->
<g id="Node000004" class="node">
<title>Node4</title>
<g id="a_Node000004"><a xlink:title=" ">
<polygon fill="#e0e0e0" stroke="#999999" points="4323,-82 4166.75,-82 4166.75,-62 4323,-62 4323,-82"/>
<text xml:space="preserve" text-anchor="middle" x="4244.88" y="-68.5" font-family="Helvetica,sans-Serif" font-size="10.00">Subsystems/WorldSubsystem.h</text>
</a>
</g>
</g>
<!-- Node2&#45;&gt;Node4 -->
<g id="edge3_Node000002_Node000004" class="edge">
<title>Node2&#45;&gt;Node4</title>
<g id="a_edge3_Node000002_Node000004"><a xlink:title=" ">
<path fill="none" stroke="#63b8ff" d="M3984.43,-129.54C4038.72,-117.76 4131.53,-97.61 4190.45,-84.82"/>
<polygon fill="#63b8ff" stroke="#63b8ff" points="4190.89,-88.3 4199.92,-82.76 4189.41,-81.46 4190.89,-88.3"/>
</a>
</g>
</g>
<!-- Node5 -->
<g id="Node000005" class="node">
<title>Node5</title>
<g id="a_Node000005"><a xlink:title=" ">
<polygon fill="#e0e0e0" stroke="#999999" points="4148.62,-82 3969.12,-82 3969.12,-62 4148.62,-62 4148.62,-82"/>
<text xml:space="preserve" text-anchor="middle" x="4058.88" y="-68.5" font-family="Helvetica,sans-Serif" font-size="10.00">ShopManagerSubsystem.generated.h</text>
</a>
</g>
</g>
<!-- Node2&#45;&gt;Node5 -->
<g id="edge4_Node000002_Node000005" class="edge">
<title>Node2&#45;&gt;Node5</title>
<g id="a_edge4_Node000002_Node000005"><a xlink:title=" ">
<path fill="none" stroke="#63b8ff" d="M3957.78,-129.54C3977.23,-118.66 4009.42,-100.66 4032.25,-87.89"/>
<polygon fill="#63b8ff" stroke="#63b8ff" points="4033.66,-91.11 4040.68,-83.18 4030.24,-85 4033.66,-91.11"/>
</a>
</g>
</g>
<!-- Node6&#45;&gt;Node3 -->
<g id="edge6_Node000006_Node000003" class="edge">
<title>Node6&#45;&gt;Node3</title>
<g id="a_edge6_Node000006_Node000003"><a xlink:title=" ">
<path fill="none" stroke="#63b8ff" d="M916.53,-129.65C934.3,-119.98 962.23,-104.08 984.88,-88 1002.88,-75.21 1002.26,-63.9 1022.88,-56 1150.21,-7.19 2131.68,-9.41 2367.87,-10.67"/>
<polygon fill="#63b8ff" stroke="#63b8ff" points="2367.66,-14.17 2377.68,-10.73 2367.7,-7.17 2367.66,-14.17"/>
</a>
</g>
</g>
<!-- Node7 -->
<g id="Node000007" class="node">
<title>Node7</title>
<g id="a_Node000007"><a xlink:title=" ">
<polygon fill="#e0e0e0" stroke="#999999" points="804.5,-82 681.25,-82 681.25,-62 804.5,-62 804.5,-82"/>
<text xml:space="preserve" text-anchor="middle" x="742.88" y="-68.5" font-family="Helvetica,sans-Serif" font-size="10.00">AbilitySystemInterface.h</text>
</a>
</g>
</g>
<!-- Node6&#45;&gt;Node7 -->
<g id="edge7_Node000006_Node000007" class="edge">
<title>Node6&#45;&gt;Node7</title>
<g id="a_edge7_Node000006_Node000007"><a xlink:title=" ">
<path fill="none" stroke="#63b8ff" d="M876.52,-129.54C850.11,-118.37 805.94,-99.68 775.65,-86.87"/>
<polygon fill="#63b8ff" stroke="#63b8ff" points="777.15,-83.7 766.58,-83.03 774.42,-90.15 777.15,-83.7"/>
</a>
</g>
</g>
<!-- Node8 -->
<g id="Node000008" class="node">
<title>Node8</title>
<g id="a_Node000008"><a xlink:title=" ">
<polygon fill="#e0e0e0" stroke="#999999" points="1158,-82 1031.75,-82 1031.75,-62 1158,-62 1158,-82"/>
<text xml:space="preserve" text-anchor="middle" x="1094.88" y="-68.5" font-family="Helvetica,sans-Serif" font-size="10.00">GameplayTagContainer.h</text>
</a>
</g>
</g>
<!-- Node6&#45;&gt;Node8 -->
<g id="edge8_Node000006_Node000008" class="edge">
<title>Node6&#45;&gt;Node8</title>
<g id="a_edge8_Node000006_Node000008"><a xlink:title=" ">
<path fill="none" stroke="#63b8ff" d="M926.96,-129.54C960.87,-118.12 1018.09,-98.86 1056.17,-86.03"/>
<polygon fill="#63b8ff" stroke="#63b8ff" points="1057.05,-89.43 1065.41,-82.92 1054.82,-82.8 1057.05,-89.43"/>
</a>
</g>
</g>
<!-- Node9 -->
<g id="Node000009" class="node">
<title>Node9</title>
<g id="a_Node000009"><a xlink:href="_component_owner_interface_8h.html" target="_top" xlink:title=" ">
<polygon fill="white" stroke="#666666" points="466.62,-88 335.12,-88 335.12,-56 466.62,-56 466.62,-88"/>
<text xml:space="preserve" text-anchor="start" x="343.12" y="-74.5" font-family="Helvetica,sans-Serif" font-size="10.00">Core/Interface/Component</text>
<text xml:space="preserve" text-anchor="middle" x="400.88" y="-62.5" font-family="Helvetica,sans-Serif" font-size="10.00">OwnerInterface.h</text>
</a>
</g>
</g>
<!-- Node6&#45;&gt;Node9 -->
<g id="edge9_Node000006_Node000009" class="edge">
<title>Node6&#45;&gt;Node9</title>
<g id="a_edge9_Node000006_Node000009"><a xlink:title=" ">
<path fill="none" stroke="#63b8ff" d="M828.27,-129.65C751.05,-119.43 623.66,-102.56 513.88,-88 502.35,-86.47 490.17,-84.86 478.24,-83.27"/>
<polygon fill="#63b8ff" stroke="#63b8ff" points="478.77,-79.81 468.4,-81.97 477.85,-86.75 478.77,-79.81"/>
</a>
</g>
</g>
<!-- Node12 -->
<g id="Node000012" class="node">
<title>Node12</title>
<g id="a_Node000012"><a xlink:title=" ">
<polygon fill="#e0e0e0" stroke="#999999" points="975.5,-82 822.25,-82 822.25,-62 975.5,-62 975.5,-82"/>
<text xml:space="preserve" text-anchor="middle" x="898.88" y="-68.5" font-family="Helvetica,sans-Serif" font-size="10.00">GameFramework/PlayerState.h</text>
</a>
</g>
</g>
<!-- Node6&#45;&gt;Node12 -->
<g id="edge13_Node000006_Node000012" class="edge">
<title>Node6&#45;&gt;Node12</title>
<g id="a_edge13_Node000006_Node000012"><a xlink:title=" ">
<path fill="none" stroke="#63b8ff" d="M898.88,-129.54C898.88,-120.23 898.88,-105.7 898.88,-93.7"/>
<polygon fill="#63b8ff" stroke="#63b8ff" points="902.38,-93.95 898.88,-83.95 895.38,-93.95 902.38,-93.95"/>
</a>
</g>
</g>
<!-- Node13 -->
<g id="Node000013" class="node">
<title>Node13</title>
<g id="a_Node000013"><a xlink:title=" ">
<polygon fill="#e0e0e0" stroke="#999999" points="663.12,-82 522.62,-82 522.62,-62 663.12,-62 663.12,-82"/>
<text xml:space="preserve" text-anchor="middle" x="592.88" y="-68.5" font-family="Helvetica,sans-Serif" font-size="10.00">KPTPlayerState.generated.h</text>
</a>
</g>
</g>
<!-- Node6&#45;&gt;Node13 -->
<g id="edge14_Node000006_Node000013" class="edge">
<title>Node6&#45;&gt;Node13</title>
<g id="a_edge14_Node000006_Node000013"><a xlink:title=" ">
<path fill="none" stroke="#63b8ff" d="M855.03,-129.54C800.38,-117.76 706.97,-97.61 647.66,-84.82"/>
<polygon fill="#63b8ff" stroke="#63b8ff" points="648.63,-81.44 638.12,-82.76 647.15,-88.29 648.63,-81.44"/>
</a>
</g>
</g>
<!-- Node9&#45;&gt;Node3 -->
<g id="edge10_Node000009_Node000003" class="edge">
<title>Node9&#45;&gt;Node3</title>
<g id="a_edge10_Node000009_Node000003"><a xlink:title=" ">
<path fill="none" stroke="#63b8ff" d="M467.11,-57.73C471.75,-57.06 476.38,-56.47 480.88,-56 862.23,-16.09 2100.1,-11.57 2367.61,-11.06"/>
<polygon fill="#63b8ff" stroke="#63b8ff" points="2367.38,-14.57 2377.37,-11.05 2367.37,-7.57 2367.38,-14.57"/>
</a>
</g>
</g>
<!-- Node10 -->
<g id="Node000010" class="node">
<title>Node10</title>
<g id="a_Node000010"><a xlink:title=" ">
<polygon fill="#e0e0e0" stroke="#999999" points="370.62,-20 269.12,-20 269.12,0 370.62,0 370.62,-20"/>
<text xml:space="preserve" text-anchor="middle" x="319.88" y="-6.5" font-family="Helvetica,sans-Serif" font-size="10.00">UObject/Interface.h</text>
</a>
</g>
</g>
<!-- Node9&#45;&gt;Node10 -->
<g id="edge11_Node000009_Node000010" class="edge">
<title>Node9&#45;&gt;Node10</title>
<g id="a_edge11_Node000009_Node000010"><a xlink:title=" ">
<path fill="none" stroke="#63b8ff" d="M380.02,-55.55C368.3,-46.87 353.68,-36.04 341.8,-27.24"/>
<polygon fill="#63b8ff" stroke="#63b8ff" points="343.91,-24.45 333.79,-21.31 339.74,-30.07 343.91,-24.45"/>
</a>
</g>
</g>
<!-- Node11 -->
<g id="Node000011" class="node">
<title>Node11</title>
<g id="a_Node000011"><a xlink:title=" ">
<polygon fill="#e0e0e0" stroke="#999999" points="575.38,-20 388.38,-20 388.38,0 575.38,0 575.38,-20"/>
<text xml:space="preserve" text-anchor="middle" x="481.88" y="-6.5" font-family="Helvetica,sans-Serif" font-size="10.00">ComponentOwnerInterface.generated.h</text>
</a>
</g>
</g>
<!-- Node9&#45;&gt;Node11 -->
<g id="edge12_Node000009_Node000011" class="edge">
<title>Node9&#45;&gt;Node11</title>
<g id="a_edge12_Node000009_Node000011"><a xlink:title=" ">
<path fill="none" stroke="#63b8ff" d="M421.73,-55.55C433.45,-46.87 448.07,-36.04 459.95,-27.24"/>
<polygon fill="#63b8ff" stroke="#63b8ff" points="462.01,-30.07 467.96,-21.31 457.84,-24.45 462.01,-30.07"/>
</a>
</g>
</g>
<!-- Node14&#45;&gt;Node3 -->
<g id="edge16_Node000014_Node000003" class="edge">
<title>Node14&#45;&gt;Node3</title>
<g id="a_edge16_Node000014_Node000003"><a xlink:title=" ">
<path fill="none" stroke="#63b8ff" d="M1971.79,-129.53C1981.63,-111.66 2005.59,-73.24 2037.88,-56 2093.81,-26.14 2277.31,-15.8 2367.67,-12.47"/>
<polygon fill="#63b8ff" stroke="#63b8ff" points="2367.61,-15.97 2377.48,-12.12 2367.36,-8.98 2367.61,-15.97"/>
</a>
</g>
</g>
<!-- Node15 -->
<g id="Node000015" class="node">
<title>Node15</title>
<g id="a_Node000015"><a xlink:title=" ">
<polygon fill="#e0e0e0" stroke="#999999" points="1991.12,-82 1838.62,-82 1838.62,-62 1991.12,-62 1991.12,-82"/>
<text xml:space="preserve" text-anchor="middle" x="1914.88" y="-68.5" font-family="Helvetica,sans-Serif" font-size="10.00">GameFramework/GameMode.h</text>
</a>
</g>
</g>
<!-- Node14&#45;&gt;Node15 -->
<g id="edge17_Node000014_Node000015" class="edge">
<title>Node14&#45;&gt;Node15</title>
<g id="a_edge17_Node000014_Node000015"><a xlink:title=" ">
<path fill="none" stroke="#63b8ff" d="M1959.42,-129.54C1951.62,-119.64 1939.18,-103.84 1929.42,-91.46"/>
<polygon fill="#63b8ff" stroke="#63b8ff" points="1932.19,-89.32 1923.25,-83.63 1926.69,-93.65 1932.19,-89.32"/>
</a>
</g>
</g>
<!-- Node16 -->
<g id="Node000016" class="node">
<title>Node16</title>
<g id="a_Node000016"><a xlink:title=" ">
<polygon fill="#e0e0e0" stroke="#999999" points="1726.88,-82 1578.88,-82 1578.88,-62 1726.88,-62 1726.88,-82"/>
<text xml:space="preserve" text-anchor="middle" x="1652.88" y="-68.5" font-family="Helvetica,sans-Serif" font-size="10.00">KPTInGameMode.generated.h</text>
</a>
</g>
</g>
<!-- Node14&#45;&gt;Node16 -->
<g id="edge18_Node000014_Node000016" class="edge">
<title>Node14&#45;&gt;Node16</title>
<g id="a_edge18_Node000014_Node000016"><a xlink:title=" ">
<path fill="none" stroke="#63b8ff" d="M1921.89,-129.54C1865.77,-117.75 1769.82,-97.58 1708.97,-84.79"/>
<polygon fill="#63b8ff" stroke="#63b8ff" points="1710.02,-81.44 1699.52,-82.8 1708.58,-88.29 1710.02,-81.44"/>
</a>
</g>
</g>
<!-- Node17&#45;&gt;Node3 -->
<g id="edge20_Node000017_Node000003" class="edge">
<title>Node17&#45;&gt;Node3</title>
<g id="a_edge20_Node000017_Node000003"><a xlink:title=" ">
<path fill="none" stroke="#63b8ff" d="M415.56,-129.65C430.91,-119.74 455.55,-103.41 475.88,-88 493.47,-74.66 493.22,-63.81 513.88,-56 602.95,-22.29 2073.45,-12.81 2367.82,-11.25"/>
<polygon fill="#63b8ff" stroke="#63b8ff" points="2367.49,-14.75 2377.47,-11.2 2367.45,-7.75 2367.49,-14.75"/>
</a>
</g>
</g>
<!-- Node17&#45;&gt;Node9 -->
<g id="edge22_Node000017_Node000009" class="edge">
<title>Node17&#45;&gt;Node9</title>
<g id="a_edge22_Node000017_Node000009"><a xlink:title=" ">
<path fill="none" stroke="#63b8ff" d="M400.88,-129.54C400.88,-121.72 400.88,-110.22 400.88,-99.63"/>
<polygon fill="#63b8ff" stroke="#63b8ff" points="404.38,-99.81 400.88,-89.81 397.38,-99.81 404.38,-99.81"/>
</a>
</g>
</g>
<!-- Node18 -->
<g id="Node000018" class="node">
<title>Node18</title>
<g id="a_Node000018"><a xlink:title=" ">
<polygon fill="#e0e0e0" stroke="#999999" points="151.75,-82 0,-82 0,-62 151.75,-62 151.75,-82"/>
<text xml:space="preserve" text-anchor="middle" x="75.88" y="-68.5" font-family="Helvetica,sans-Serif" font-size="10.00">GameFramework/GameState.h</text>
</a>
</g>
</g>
<!-- Node17&#45;&gt;Node18 -->
<g id="edge21_Node000017_Node000018" class="edge">
<title>Node17&#45;&gt;Node18</title>
<g id="a_edge21_Node000017_Node000018"><a xlink:title=" ">
<path fill="none" stroke="#63b8ff" d="M354.31,-129.54C296.11,-117.72 196.51,-97.5 133.54,-84.71"/>
<polygon fill="#63b8ff" stroke="#63b8ff" points="134.6,-81.35 124.1,-82.79 133.2,-88.21 134.6,-81.35"/>
</a>
</g>
</g>
<!-- Node19 -->
<g id="Node000019" class="node">
<title>Node19</title>
<g id="a_Node000019"><a xlink:title=" ">
<polygon fill="#e0e0e0" stroke="#999999" points="317.5,-82 170.25,-82 170.25,-62 317.5,-62 317.5,-82"/>
<text xml:space="preserve" text-anchor="middle" x="243.88" y="-68.5" font-family="Helvetica,sans-Serif" font-size="10.00">KPTInGameState.generated.h</text>
</a>
</g>
</g>
<!-- Node17&#45;&gt;Node19 -->
<g id="edge23_Node000017_Node000019" class="edge">
<title>Node17&#45;&gt;Node19</title>
<g id="a_edge23_Node000017_Node000019"><a xlink:title=" ">
<path fill="none" stroke="#63b8ff" d="M378.38,-129.54C351.8,-118.37 307.34,-99.68 276.86,-86.87"/>
<polygon fill="#63b8ff" stroke="#63b8ff" points="278.3,-83.67 267.72,-83.03 275.59,-90.13 278.3,-83.67"/>
</a>
</g>
</g>
<!-- Node20&#45;&gt;Node3 -->
<g id="edge25_Node000020_Node000003" class="edge">
<title>Node20&#45;&gt;Node3</title>
<g id="a_edge25_Node000020_Node000003"><a xlink:title=" ">
<path fill="none" stroke="#63b8ff" d="M3152.82,-123.55C3139.9,-113.53 3122.79,-100.12 3107.88,-88 3090.74,-74.07 3090.34,-64.28 3069.88,-56 2961.43,-12.13 2604.3,-9.75 2470.29,-10.48"/>
<polygon fill="#63b8ff" stroke="#63b8ff" points="2470.27,-6.98 2460.29,-10.54 2470.31,-13.98 2470.27,-6.98"/>
</a>
</g>
</g>
<!-- Node21 -->
<g id="Node000021" class="node">
<title>Node21</title>
<g id="a_Node000021"><a xlink:title=" ">
<polygon fill="#e0e0e0" stroke="#999999" points="3485,-82 3328.75,-82 3328.75,-62 3485,-62 3485,-82"/>
<text xml:space="preserve" text-anchor="middle" x="3406.88" y="-68.5" font-family="Helvetica,sans-Serif" font-size="10.00">Components/ActorComponent.h</text>
</a>
</g>
</g>
<!-- Node20&#45;&gt;Node21 -->
<g id="edge26_Node000020_Node000021" class="edge">
<title>Node20&#45;&gt;Node21</title>
<g id="a_edge26_Node000020_Node000021"><a xlink:title=" ">
<path fill="none" stroke="#63b8ff" d="M3227.74,-123.53C3268.8,-111.94 3324.25,-96.3 3362.53,-85.51"/>
<polygon fill="#63b8ff" stroke="#63b8ff" points="3363.2,-88.95 3371.88,-82.87 3361.3,-82.22 3363.2,-88.95"/>
</a>
</g>
</g>
<!-- Node22 -->
<g id="Node000022" class="node">
<title>Node22</title>
<g id="a_Node000022"><a xlink:title=" ">
<polygon fill="#e0e0e0" stroke="#999999" points="3310.75,-82 3117,-82 3117,-62 3310.75,-62 3310.75,-82"/>
<text xml:space="preserve" text-anchor="middle" x="3213.88" y="-68.5" font-family="Helvetica,sans-Serif" font-size="10.00">PlayerShopStateComponent.generated.h</text>
</a>
</g>
</g>
<!-- Node20&#45;&gt;Node22 -->
<g id="edge27_Node000020_Node000022" class="edge">
<title>Node20&#45;&gt;Node22</title>
<g id="a_edge27_Node000020_Node000022"><a xlink:title=" ">
<path fill="none" stroke="#63b8ff" d="M3182.38,-123.69C3188.28,-114.2 3195.91,-101.92 3202.17,-91.83"/>
<polygon fill="#63b8ff" stroke="#63b8ff" points="3204.99,-93.94 3207.29,-83.6 3199.04,-90.25 3204.99,-93.94"/>
</a>
</g>
</g>
<!-- Node23&#45;&gt;Node3 -->
<g id="edge29_Node000023_Node000003" class="edge">
<title>Node23&#45;&gt;Node3</title>
<g id="a_edge29_Node000023_Node000003"><a xlink:title=" ">
<path fill="none" stroke="#63b8ff" d="M2943.37,-123.55C2924.33,-113.53 2899.07,-100.12 2876.88,-88 2851.38,-74.07 2847.53,-64.91 2819.88,-56 2698.73,-16.97 2547.58,-10.68 2470.02,-10.31"/>
<polygon fill="#63b8ff" stroke="#63b8ff" points="2470.19,-6.81 2460.18,-10.3 2470.18,-13.81 2470.19,-6.81"/>
</a>
</g>
</g>
<!-- Node23&#45;&gt;Node21 -->
<g id="edge30_Node000023_Node000021" class="edge">
<title>Node23&#45;&gt;Node21</title>
<g id="a_edge30_Node000023_Node000021"><a xlink:title=" ">
<path fill="none" stroke="#63b8ff" d="M3039.47,-129.71C3109.38,-119.84 3222.47,-103.55 3319.88,-88 3327.01,-86.86 3334.47,-85.63 3341.89,-84.39"/>
<polygon fill="#63b8ff" stroke="#63b8ff" points="3342.31,-87.87 3351.58,-82.74 3341.14,-80.96 3342.31,-87.87"/>
</a>
</g>
</g>
<!-- Node24 -->
<g id="Node000024" class="node">
<title>Node24</title>
<g id="a_Node000024"><a xlink:title=" ">
<polygon fill="#e0e0e0" stroke="#999999" points="3060.38,-82 2885.38,-82 2885.38,-62 3060.38,-62 3060.38,-82"/>
<text xml:space="preserve" text-anchor="middle" x="2972.88" y="-68.5" font-family="Helvetica,sans-Serif" font-size="10.00">PlayerWalletComponent.generated.h</text>
</a>
</g>
</g>
<!-- Node23&#45;&gt;Node24 -->
<g id="edge31_Node000023_Node000024" class="edge">
<title>Node23&#45;&gt;Node24</title>
<g id="a_edge31_Node000023_Node000024"><a xlink:title=" ">
<path fill="none" stroke="#63b8ff" d="M2972.88,-123.69C2972.88,-114.8 2972.88,-103.46 2972.88,-93.77"/>
<polygon fill="#63b8ff" stroke="#63b8ff" points="2976.38,-93.83 2972.88,-83.83 2969.38,-93.83 2976.38,-93.83"/>
</a>
</g>
</g>
<!-- Node25&#45;&gt;Node3 -->
<g id="edge33_Node000025_Node000003" class="edge">
<title>Node25&#45;&gt;Node3</title>
<g id="a_edge33_Node000025_Node000003"><a xlink:title=" ">
<path fill="none" stroke="#63b8ff" d="M3469.68,-123.58C3488.41,-105.56 3512.77,-75.7 3493.88,-56 3458.07,-18.66 2679.02,-12.25 2470.06,-11.2"/>
<polygon fill="#63b8ff" stroke="#63b8ff" points="2470.36,-7.7 2460.34,-11.15 2470.33,-14.7 2470.36,-7.7"/>
</a>
</g>
</g>
<!-- Node25&#45;&gt;Node21 -->
<g id="edge34_Node000025_Node000021" class="edge">
<title>Node25&#45;&gt;Node21</title>
<g id="a_edge34_Node000025_Node000021"><a xlink:title=" ">
<path fill="none" stroke="#63b8ff" d="M3441.44,-123.69C3434.9,-114.1 3426.42,-101.67 3419.5,-91.52"/>
<polygon fill="#63b8ff" stroke="#63b8ff" points="3422.6,-89.86 3414.08,-83.57 3416.82,-93.8 3422.6,-89.86"/>
</a>
</g>
</g>
<!-- Node26 -->
<g id="Node000026" class="node">
<title>Node26</title>
<g id="a_Node000026"><a xlink:title=" ">
<polygon fill="#e0e0e0" stroke="#999999" points="3708.62,-82 3541.12,-82 3541.12,-62 3708.62,-62 3708.62,-82"/>
<text xml:space="preserve" text-anchor="middle" x="3624.88" y="-68.5" font-family="Helvetica,sans-Serif" font-size="10.00">TeamStatsComponent.generated.h</text>
</a>
</g>
</g>
<!-- Node25&#45;&gt;Node26 -->
<g id="edge35_Node000025_Node000026" class="edge">
<title>Node25&#45;&gt;Node26</title>
<g id="a_edge35_Node000025_Node000026"><a xlink:title=" ">
<path fill="none" stroke="#63b8ff" d="M3492.44,-123.53C3521.88,-112.29 3561.34,-97.24 3589.51,-86.49"/>
<polygon fill="#63b8ff" stroke="#63b8ff" points="3590.57,-89.83 3598.66,-83 3588.07,-83.29 3590.57,-89.83"/>
</a>
</g>
</g>
<!-- Node27&#45;&gt;Node3 -->
<g id="edge37_Node000027_Node000003" class="edge">
<title>Node27&#45;&gt;Node3</title>
<g id="a_edge37_Node000027_Node000003"><a xlink:title=" ">
<path fill="none" stroke="#63b8ff" d="M1473.14,-129.59C1488.05,-119.62 1512.01,-103.25 1531.88,-88 1549.39,-74.55 1549.34,-64.12 1569.88,-56 1643.85,-26.76 2195.21,-14.86 2367.55,-11.82"/>
<polygon fill="#63b8ff" stroke="#63b8ff" points="2367.61,-15.32 2377.54,-11.65 2367.49,-8.33 2367.61,-15.32"/>
</a>
</g>
</g>
<!-- Node27&#45;&gt;Node8 -->
<g id="edge43_Node000027_Node000008" class="edge">
<title>Node27&#45;&gt;Node8</title>
<g id="a_edge43_Node000027_Node000008"><a xlink:title=" ">
<path fill="none" stroke="#63b8ff" d="M1405.5,-130.21C1346.88,-120.44 1250.02,-103.92 1166.88,-88 1161.37,-86.95 1155.64,-85.81 1149.92,-84.66"/>
<polygon fill="#63b8ff" stroke="#63b8ff" points="1150.98,-81.3 1140.48,-82.73 1149.58,-88.16 1150.98,-81.3"/>
</a>
</g>
</g>
<!-- Node28 -->
<g id="Node000028" class="node">
<title>Node28</title>
<g id="a_Node000028"><a xlink:title=" ">
<polygon fill="#e0e0e0" stroke="#999999" points="1376.62,-82 1275.12,-82 1275.12,-62 1376.62,-62 1376.62,-82"/>
<text xml:space="preserve" text-anchor="middle" x="1325.88" y="-68.5" font-family="Helvetica,sans-Serif" font-size="10.00">Engine/DataTable.h</text>
</a>
</g>
</g>
<!-- Node27&#45;&gt;Node28 -->
<g id="edge38_Node000027_Node000028" class="edge">
<title>Node27&#45;&gt;Node28</title>
<g id="a_edge38_Node000027_Node000028"><a xlink:title=" ">
<path fill="none" stroke="#63b8ff" d="M1439.82,-129.54C1417.7,-118.57 1380.96,-100.33 1355.19,-87.55"/>
<polygon fill="#63b8ff" stroke="#63b8ff" points="1356.76,-84.42 1346.25,-83.11 1353.65,-90.69 1356.76,-84.42"/>
</a>
</g>
</g>
<!-- Node29 -->
<g id="Node000029" class="node">
<title>Node29</title>
<g id="a_Node000029"><a xlink:title=" ">
<polygon fill="#e0e0e0" stroke="#999999" points="1820.88,-82 1744.88,-82 1744.88,-62 1820.88,-62 1820.88,-82"/>
<text xml:space="preserve" text-anchor="middle" x="1782.88" y="-68.5" font-family="Helvetica,sans-Serif" font-size="10.00">AttributeSet.h</text>
</a>
</g>
</g>
<!-- Node27&#45;&gt;Node29 -->
<g id="edge39_Node000027_Node000029" class="edge">
<title>Node27&#45;&gt;Node29</title>
<g id="a_edge39_Node000027_Node000029"><a xlink:title=" ">
<path fill="none" stroke="#63b8ff" d="M1512.15,-131.25C1568.24,-122.61 1658.92,-107.28 1735.88,-88 1738.64,-87.31 1741.48,-86.54 1744.32,-85.73"/>
<polygon fill="#63b8ff" stroke="#63b8ff" points="1745.18,-89.13 1753.76,-82.91 1743.17,-82.42 1745.18,-89.13"/>
</a>
</g>
</g>
<!-- Node30 -->
<g id="Node000030" class="node">
<title>Node30</title>
<g id="a_Node000030"><a xlink:href="_game_enums_8h.html" target="_top" xlink:title=" ">
<polygon fill="white" stroke="#666666" points="1257.5,-82 1176.25,-82 1176.25,-62 1257.5,-62 1257.5,-82"/>
<text xml:space="preserve" text-anchor="middle" x="1216.88" y="-68.5" font-family="Helvetica,sans-Serif" font-size="10.00">GameEnums.h</text>
</a>
</g>
</g>
<!-- Node27&#45;&gt;Node30 -->
<g id="edge40_Node000027_Node000030" class="edge">
<title>Node27&#45;&gt;Node30</title>
<g id="a_edge40_Node000027_Node000030"><a xlink:title=" ">
<path fill="none" stroke="#63b8ff" d="M1421.4,-129.55C1382.43,-119.63 1319.7,-103.34 1265.88,-88 1263.31,-87.27 1260.68,-86.5 1258.03,-85.72"/>
<polygon fill="#63b8ff" stroke="#63b8ff" points="1259.18,-82.41 1248.59,-82.9 1257.17,-89.12 1259.18,-82.41"/>
</a>
</g>
</g>
<!-- Node32 -->
<g id="Node000032" class="node">
<title>Node32</title>
<g id="a_Node000032"><a xlink:title=" ">
<polygon fill="#e0e0e0" stroke="#999999" points="1522.75,-82 1395,-82 1395,-62 1522.75,-62 1522.75,-82"/>
<text xml:space="preserve" text-anchor="middle" x="1458.88" y="-68.5" font-family="Helvetica,sans-Serif" font-size="10.00">GameStructs.generated.h</text>
</a>
</g>
</g>
<!-- Node27&#45;&gt;Node32 -->
<g id="edge44_Node000027_Node000032" class="edge">
<title>Node27&#45;&gt;Node32</title>
<g id="a_edge44_Node000027_Node000032"><a xlink:title=" ">
<path fill="none" stroke="#63b8ff" d="M1458.88,-129.54C1458.88,-120.23 1458.88,-105.7 1458.88,-93.7"/>
<polygon fill="#63b8ff" stroke="#63b8ff" points="1462.38,-93.95 1458.88,-83.95 1455.38,-93.95 1462.38,-93.95"/>
</a>
</g>
</g>
<!-- Node30&#45;&gt;Node3 -->
<g id="edge41_Node000030_Node000003" class="edge">
<title>Node30&#45;&gt;Node3</title>
<g id="a_edge41_Node000030_Node000003"><a xlink:title=" ">
<path fill="none" stroke="#63b8ff" d="M1243.28,-61.56C1250.51,-59.34 1258.42,-57.26 1265.88,-56 1482.41,-19.27 2173.89,-12.45 2367.85,-11.24"/>
<polygon fill="#63b8ff" stroke="#63b8ff" points="2367.62,-14.75 2377.6,-11.19 2367.58,-7.75 2367.62,-14.75"/>
</a>
</g>
</g>
<!-- Node31 -->
<g id="Node000031" class="node">
<title>Node31</title>
<g id="a_Node000031"><a xlink:title=" ">
<polygon fill="#e0e0e0" stroke="#999999" points="1280.38,-20 1153.38,-20 1153.38,0 1280.38,0 1280.38,-20"/>
<text xml:space="preserve" text-anchor="middle" x="1216.88" y="-6.5" font-family="Helvetica,sans-Serif" font-size="10.00">GameEnums.generated.h</text>
</a>
</g>
</g>
<!-- Node30&#45;&gt;Node31 -->
<g id="edge42_Node000030_Node000031" class="edge">
<title>Node30&#45;&gt;Node31</title>
<g id="a_edge42_Node000030_Node000031"><a xlink:title=" ">
<path fill="none" stroke="#63b8ff" d="M1216.88,-61.62C1216.88,-53.56 1216.88,-41.65 1216.88,-31.41"/>
<polygon fill="#63b8ff" stroke="#63b8ff" points="1220.38,-31.63 1216.88,-21.63 1213.38,-31.63 1220.38,-31.63"/>
</a>
</g>
</g>
<!-- Node33&#45;&gt;Node3 -->
<g id="edge46_Node000033_Node000003" class="edge">
<title>Node33&#45;&gt;Node3</title>
<g id="a_edge46_Node000033_Node000003"><a xlink:title=" ">
<path fill="none" stroke="#63b8ff" d="M2568.67,-139.56C2662.56,-139.3 2866.03,-130.42 2799.88,-56 2778.32,-31.75 2568.9,-18.35 2470.05,-13.33"/>
<polygon fill="#63b8ff" stroke="#63b8ff" points="2470.23,-9.83 2460.07,-12.83 2469.89,-16.82 2470.23,-9.83"/>
</a>
</g>
</g>
<!-- Node33&#45;&gt;Node29 -->
<g id="edge48_Node000033_Node000029" class="edge">
<title>Node33&#45;&gt;Node29</title>
<g id="a_edge48_Node000033_Node000029"><a xlink:title=" ">
<path fill="none" stroke="#63b8ff" d="M2479.15,-139.34C2368.14,-139.4 2071.54,-134.76 1829.88,-88 1826.45,-87.34 1822.93,-86.51 1819.43,-85.58"/>
<polygon fill="#63b8ff" stroke="#63b8ff" points="1820.48,-82.24 1809.9,-82.79 1818.52,-88.96 1820.48,-82.24"/>
</a>
</g>
</g>
<!-- Node34 -->
<g id="Node000034" class="node">
<title>Node34</title>
<g id="a_Node000034"><a xlink:title=" ">
<polygon fill="#e0e0e0" stroke="#999999" points="2199.12,-82 2046.62,-82 2046.62,-62 2199.12,-62 2199.12,-82"/>
<text xml:space="preserve" text-anchor="middle" x="2122.88" y="-68.5" font-family="Helvetica,sans-Serif" font-size="10.00">ActiveGameplayEffectHandle.h</text>
</a>
</g>
</g>
<!-- Node33&#45;&gt;Node34 -->
<g id="edge47_Node000033_Node000034" class="edge">
<title>Node33&#45;&gt;Node34</title>
<g id="a_edge47_Node000033_Node000034"><a xlink:title=" ">
<path fill="none" stroke="#63b8ff" d="M2479.25,-131.95C2418.18,-122.26 2305.16,-104.19 2208.88,-88 2202.01,-86.85 2194.84,-85.62 2187.69,-84.39"/>
<polygon fill="#63b8ff" stroke="#63b8ff" points="2188.47,-80.98 2178.02,-82.72 2187.28,-87.87 2188.47,-80.98"/>
</a>
</g>
</g>
<!-- Node35 -->
<g id="Node000035" class="node">
<title>Node35</title>
<g id="a_Node000035"><a xlink:title=" ">
<polygon fill="#e0e0e0" stroke="#999999" points="2366.25,-82 2217.5,-82 2217.5,-62 2366.25,-62 2366.25,-82"/>
<text xml:space="preserve" text-anchor="middle" x="2291.88" y="-68.5" font-family="Helvetica,sans-Serif" font-size="10.00">GameplayAbilitySpecHandle.h</text>
</a>
</g>
</g>
<!-- Node33&#45;&gt;Node35 -->
<g id="edge49_Node000033_Node000035" class="edge">
<title>Node33&#45;&gt;Node35</title>
<g id="a_edge49_Node000033_Node000035"><a xlink:title=" ">
<path fill="none" stroke="#63b8ff" d="M2490.64,-129.54C2449.98,-117.98 2381.02,-98.36 2335.96,-85.54"/>
<polygon fill="#63b8ff" stroke="#63b8ff" points="2337.09,-82.22 2326.51,-82.85 2335.17,-88.96 2337.09,-82.22"/>
</a>
</g>
</g>
<!-- Node36 -->
<g id="Node000036" class="node">
<title>Node36</title>
<g id="a_Node000036"><a xlink:title=" ">
<polygon fill="#e0e0e0" stroke="#999999" points="2517,-82 2384.75,-82 2384.75,-62 2517,-62 2517,-82"/>
<text xml:space="preserve" text-anchor="middle" x="2450.88" y="-68.5" font-family="Helvetica,sans-Serif" font-size="10.00">Abilities/GameplayAbility.h</text>
</a>
</g>
</g>
<!-- Node33&#45;&gt;Node36 -->
<g id="edge50_Node000033_Node000036" class="edge">
<title>Node33&#45;&gt;Node36</title>
<g id="a_edge50_Node000033_Node000036"><a xlink:title=" ">
<path fill="none" stroke="#63b8ff" d="M2513.42,-129.54C2502.03,-119.25 2483.6,-102.58 2469.68,-90.01"/>
<polygon fill="#63b8ff" stroke="#63b8ff" points="2472.2,-87.56 2462.44,-83.45 2467.51,-92.76 2472.2,-87.56"/>
</a>
</g>
</g>
<!-- Node37 -->
<g id="Node000037" class="node">
<title>Node37</title>
<g id="a_Node000037"><a xlink:title=" ">
<polygon fill="#e0e0e0" stroke="#999999" points="2660.62,-82 2535.12,-82 2535.12,-62 2660.62,-62 2660.62,-82"/>
<text xml:space="preserve" text-anchor="middle" x="2597.88" y="-68.5" font-family="Helvetica,sans-Serif" font-size="10.00">GameFramework/Actor.h</text>
</a>
</g>
</g>
<!-- Node33&#45;&gt;Node37 -->
<g id="edge51_Node000033_Node000037" class="edge">
<title>Node33&#45;&gt;Node37</title>
<g id="a_edge51_Node000033_Node000037"><a xlink:title=" ">
<path fill="none" stroke="#63b8ff" d="M2534.48,-129.54C2546.02,-119.25 2564.7,-102.58 2578.81,-90.01"/>
<polygon fill="#63b8ff" stroke="#63b8ff" points="2581.03,-92.71 2586.16,-83.45 2576.37,-87.49 2581.03,-92.71"/>
</a>
</g>
</g>
<!-- Node38 -->
<g id="Node000038" class="node">
<title>Node38</title>
<g id="a_Node000038"><a xlink:title=" ">
<polygon fill="#e0e0e0" stroke="#999999" points="2790.88,-82 2678.88,-82 2678.88,-62 2790.88,-62 2790.88,-82"/>
<text xml:space="preserve" text-anchor="middle" x="2734.88" y="-68.5" font-family="Helvetica,sans-Serif" font-size="10.00">ItemBase.generated.h</text>
</a>
</g>
</g>
<!-- Node33&#45;&gt;Node38 -->
<g id="edge52_Node000033_Node000038" class="edge">
<title>Node33&#45;&gt;Node38</title>
<g id="a_edge52_Node000033_Node000038"><a xlink:title=" ">
<path fill="none" stroke="#63b8ff" d="M2554.11,-129.54C2590.77,-118.08 2652.74,-98.69 2693.73,-85.87"/>
<polygon fill="#63b8ff" stroke="#63b8ff" points="2694.76,-89.22 2703.26,-82.89 2692.67,-82.54 2694.76,-89.22"/>
</a>
</g>
</g>
<!-- Node39&#45;&gt;Node3 -->
<g id="edge54_Node000039_Node000003" class="edge">
<title>Node39&#45;&gt;Node3</title>
<g id="a_edge54_Node000039_Node000003"><a xlink:title=" ">
<path fill="none" stroke="#63b8ff" d="M3674.99,-123.57C3703.51,-106.57 3739.74,-78.64 3717.88,-56 3673.82,-10.39 2705.22,-10.18 2470,-10.81"/>
<polygon fill="#63b8ff" stroke="#63b8ff" points="2470.23,-7.31 2460.24,-10.84 2470.25,-14.31 2470.23,-7.31"/>
</a>
</g>
</g>
<!-- Node39&#45;&gt;Node21 -->
<g id="edge55_Node000039_Node000021" class="edge">
<title>Node39&#45;&gt;Node21</title>
<g id="a_edge55_Node000039_Node000021"><a xlink:title=" ">
<path fill="none" stroke="#63b8ff" d="M3589.84,-123.53C3547.9,-111.94 3491.26,-96.3 3452.17,-85.51"/>
<polygon fill="#63b8ff" stroke="#63b8ff" points="3453.16,-82.15 3442.59,-82.86 3451.3,-88.9 3453.16,-82.15"/>
</a>
</g>
</g>
<!-- Node40 -->
<g id="Node000040" class="node">
<title>Node40</title>
<g id="a_Node000040"><a xlink:title=" ">
<polygon fill="#e0e0e0" stroke="#999999" points="3912.88,-82 3764.88,-82 3764.88,-62 3912.88,-62 3912.88,-82"/>
<text xml:space="preserve" text-anchor="middle" x="3838.88" y="-68.5" font-family="Helvetica,sans-Serif" font-size="10.00">InventoryManager.generated.h</text>
</a>
</g>
</g>
<!-- Node39&#45;&gt;Node40 -->
<g id="edge56_Node000039_Node000040" class="edge">
<title>Node39&#45;&gt;Node40</title>
<g id="a_edge56_Node000039_Node000040"><a xlink:title=" ">
<path fill="none" stroke="#63b8ff" d="M3691.12,-123.53C3724.41,-112.14 3769.16,-96.84 3800.66,-86.07"/>
<polygon fill="#63b8ff" stroke="#63b8ff" points="3801.45,-89.5 3809.78,-82.95 3799.18,-82.87 3801.45,-89.5"/>
</a>
</g>
</g>
</g>
</svg>
