<?xml version="1.0" encoding="UTF-8" standalone="no"?>
<!DOCTYPE svg PUBLIC "-//W3C//DTD SVG 1.1//EN"
 "http://www.w3.org/Graphics/SVG/1.1/DTD/svg11.dtd">
<!-- Generated by graphviz version 13.1.1 (20250719.2154)
 -->
<!-- Title: C:/Users/user/Perforce/alz7_CobaltbruWorkspace_00/KPT/Source/KPT/Skill/Data/SkillData.cpp Pages: 1 -->
<svg width="614pt" height="176pt"
 viewBox="0.00 0.00 614.00 176.00" xmlns="http://www.w3.org/2000/svg" xmlns:xlink="http://www.w3.org/1999/xlink">
<g id="graph0" class="graph" transform="scale(1 1) rotate(0) translate(4 172)">
<title>C:/Users/user/Perforce/alz7_CobaltbruWorkspace_00/KPT/Source/KPT/Skill/Data/SkillData.cpp</title>
<!-- Node1 -->
<g id="Node000001" class="node">
<title>Node1</title>
<g id="a_Node000001"><a xlink:title=" ">
<polygon fill="#999999" stroke="#666666" points="342,-168 209,-168 209,-112 342,-112 342,-168"/>
<text xml:space="preserve" text-anchor="start" x="217" y="-154.5" font-family="Helvetica,sans-Serif" font-size="10.00">C:/Users/user/Perforce</text>
<text xml:space="preserve" text-anchor="start" x="217" y="-142.5" font-family="Helvetica,sans-Serif" font-size="10.00">/alz7_CobaltbruWorkspace</text>
<text xml:space="preserve" text-anchor="start" x="217" y="-130.5" font-family="Helvetica,sans-Serif" font-size="10.00">_00/KPT/Source/KPT/Skill</text>
<text xml:space="preserve" text-anchor="middle" x="275.5" y="-118.5" font-family="Helvetica,sans-Serif" font-size="10.00">/Data/SkillData.cpp</text>
</a>
</g>
</g>
<!-- Node2 -->
<g id="Node000002" class="node">
<title>Node2</title>
<g id="a_Node000002"><a xlink:href="_skill_data_8h.html" target="_top" xlink:title=" ">
<polygon fill="white" stroke="#666666" points="307.5,-76 243.5,-76 243.5,-56 307.5,-56 307.5,-76"/>
<text xml:space="preserve" text-anchor="middle" x="275.5" y="-62.5" font-family="Helvetica,sans-Serif" font-size="10.00">SkillData.h</text>
</a>
</g>
</g>
<!-- Node1&#45;&gt;Node2 -->
<g id="edge1_Node000001_Node000002" class="edge">
<title>Node1&#45;&gt;Node2</title>
<g id="a_edge1_Node000001_Node000002"><a xlink:title=" ">
<path fill="none" stroke="#63b8ff" d="M275.5,-111.78C275.5,-103.82 275.5,-95.25 275.5,-87.76"/>
<polygon fill="#63b8ff" stroke="#63b8ff" points="279,-87.99 275.5,-77.99 272,-87.99 279,-87.99"/>
</a>
</g>
</g>
<!-- Node3 -->
<g id="Node000003" class="node">
<title>Node3</title>
<g id="a_Node000003"><a xlink:title=" ">
<polygon fill="#e0e0e0" stroke="#999999" points="79,-20 0,-20 0,0 79,0 79,-20"/>
<text xml:space="preserve" text-anchor="middle" x="39.5" y="-6.5" font-family="Helvetica,sans-Serif" font-size="10.00">CoreMinimal.h</text>
</a>
</g>
</g>
<!-- Node2&#45;&gt;Node3 -->
<g id="edge2_Node000002_Node000003" class="edge">
<title>Node2&#45;&gt;Node3</title>
<g id="a_edge2_Node000002_Node000003"><a xlink:title=" ">
<path fill="none" stroke="#63b8ff" d="M243.18,-57.6C203.76,-48.59 136.67,-33.23 90.31,-22.63"/>
<polygon fill="#63b8ff" stroke="#63b8ff" points="91.3,-19.26 80.77,-20.44 89.74,-26.09 91.3,-19.26"/>
</a>
</g>
</g>
<!-- Node4 -->
<g id="Node000004" class="node">
<title>Node4</title>
<g id="a_Node000004"><a xlink:title=" ">
<polygon fill="#e0e0e0" stroke="#999999" points="198.25,-20 96.75,-20 96.75,0 198.25,0 198.25,-20"/>
<text xml:space="preserve" text-anchor="middle" x="147.5" y="-6.5" font-family="Helvetica,sans-Serif" font-size="10.00">Engine/DataTable.h</text>
</a>
</g>
</g>
<!-- Node2&#45;&gt;Node4 -->
<g id="edge3_Node000002_Node000004" class="edge">
<title>Node2&#45;&gt;Node4</title>
<g id="a_edge3_Node000002_Node000004"><a xlink:title=" ">
<path fill="none" stroke="#63b8ff" d="M253.2,-55.59C233.14,-47.13 203.38,-34.58 180.55,-24.94"/>
<polygon fill="#63b8ff" stroke="#63b8ff" points="181.94,-21.73 171.36,-21.07 179.22,-28.18 181.94,-21.73"/>
</a>
</g>
</g>
<!-- Node5 -->
<g id="Node000005" class="node">
<title>Node5</title>
<g id="a_Node000005"><a xlink:title=" ">
<polygon fill="#e0e0e0" stroke="#999999" points="334.5,-20 216.5,-20 216.5,0 334.5,0 334.5,-20"/>
<text xml:space="preserve" text-anchor="middle" x="275.5" y="-6.5" font-family="Helvetica,sans-Serif" font-size="10.00">GameplayAbilitySpec.h</text>
</a>
</g>
</g>
<!-- Node2&#45;&gt;Node5 -->
<g id="edge4_Node000002_Node000005" class="edge">
<title>Node2&#45;&gt;Node5</title>
<g id="a_edge4_Node000002_Node000005"><a xlink:title=" ">
<path fill="none" stroke="#63b8ff" d="M275.5,-55.59C275.5,-49.01 275.5,-39.96 275.5,-31.73"/>
<polygon fill="#63b8ff" stroke="#63b8ff" points="279,-31.81 275.5,-21.81 272,-31.81 279,-31.81"/>
</a>
</g>
</g>
<!-- Node6 -->
<g id="Node000006" class="node">
<title>Node6</title>
<g id="a_Node000006"><a xlink:title=" ">
<polygon fill="#e0e0e0" stroke="#999999" points="478.62,-20 352.38,-20 352.38,0 478.62,0 478.62,-20"/>
<text xml:space="preserve" text-anchor="middle" x="415.5" y="-6.5" font-family="Helvetica,sans-Serif" font-size="10.00">GameplayTagContainer.h</text>
</a>
</g>
</g>
<!-- Node2&#45;&gt;Node6 -->
<g id="edge5_Node000002_Node000006" class="edge">
<title>Node2&#45;&gt;Node6</title>
<g id="a_edge5_Node000002_Node000006"><a xlink:title=" ">
<path fill="none" stroke="#63b8ff" d="M299.89,-55.59C322.13,-47.01 355.27,-34.23 380.37,-24.55"/>
<polygon fill="#63b8ff" stroke="#63b8ff" points="381.44,-27.89 389.51,-21.02 378.92,-21.36 381.44,-27.89"/>
</a>
</g>
</g>
<!-- Node7 -->
<g id="Node000007" class="node">
<title>Node7</title>
<g id="a_Node000007"><a xlink:title=" ">
<polygon fill="#e0e0e0" stroke="#999999" points="606.38,-20 496.62,-20 496.62,0 606.38,0 606.38,-20"/>
<text xml:space="preserve" text-anchor="middle" x="551.5" y="-6.5" font-family="Helvetica,sans-Serif" font-size="10.00">SkillData.generated.h</text>
</a>
</g>
</g>
<!-- Node2&#45;&gt;Node7 -->
<g id="edge6_Node000002_Node000007" class="edge">
<title>Node2&#45;&gt;Node7</title>
<g id="a_edge6_Node000002_Node000007"><a xlink:title=" ">
<path fill="none" stroke="#63b8ff" d="M307.97,-58.65C353.17,-49.8 435.81,-33.63 492.17,-22.61"/>
<polygon fill="#63b8ff" stroke="#63b8ff" points="492.8,-26.05 501.94,-20.7 491.45,-19.18 492.8,-26.05"/>
</a>
</g>
</g>
</g>
</svg>
