<?xml version="1.0" encoding="UTF-8" standalone="no"?>
<!DOCTYPE svg PUBLIC "-//W3C//DTD SVG 1.1//EN"
 "http://www.w3.org/Graphics/SVG/1.1/DTD/svg11.dtd">
<!-- Generated by graphviz version 13.1.1 (20250719.2154)
 -->
<!-- Title: C:/Users/user/Perforce/alz7_CobaltbruWorkspace_00/KPT/Source/KPT/Skill/Data/SkillBuffData.cpp Pages: 1 -->
<svg width="646pt" height="288pt"
 viewBox="0.00 0.00 646.00 288.00" xmlns="http://www.w3.org/2000/svg" xmlns:xlink="http://www.w3.org/1999/xlink">
<g id="graph0" class="graph" transform="scale(1 1) rotate(0) translate(4 284)">
<title>C:/Users/user/Perforce/alz7_CobaltbruWorkspace_00/KPT/Source/KPT/Skill/Data/SkillBuffData.cpp</title>
<!-- Node1 -->
<g id="Node000001" class="node">
<title>Node1</title>
<g id="a_Node000001"><a xlink:title=" ">
<polygon fill="#999999" stroke="#666666" points="279.08,-280 146.08,-280 146.08,-224 279.08,-224 279.08,-280"/>
<text xml:space="preserve" text-anchor="start" x="154.08" y="-266.5" font-family="Helvetica,sans-Serif" font-size="10.00">C:/Users/user/Perforce</text>
<text xml:space="preserve" text-anchor="start" x="154.08" y="-254.5" font-family="Helvetica,sans-Serif" font-size="10.00">/alz7_CobaltbruWorkspace</text>
<text xml:space="preserve" text-anchor="start" x="154.08" y="-242.5" font-family="Helvetica,sans-Serif" font-size="10.00">_00/KPT/Source/KPT/Skill</text>
<text xml:space="preserve" text-anchor="middle" x="212.58" y="-230.5" font-family="Helvetica,sans-Serif" font-size="10.00">/Data/SkillBuffData.cpp</text>
</a>
</g>
</g>
<!-- Node2 -->
<g id="Node000002" class="node">
<title>Node2</title>
<g id="a_Node000002"><a xlink:href="_skill_buff_data_8h.html" target="_top" xlink:title=" ">
<polygon fill="white" stroke="#666666" points="253.2,-188 171.95,-188 171.95,-168 253.2,-168 253.2,-188"/>
<text xml:space="preserve" text-anchor="middle" x="212.58" y="-174.5" font-family="Helvetica,sans-Serif" font-size="10.00">SkillBuffData.h</text>
</a>
</g>
</g>
<!-- Node1&#45;&gt;Node2 -->
<g id="edge1_Node000001_Node000002" class="edge">
<title>Node1&#45;&gt;Node2</title>
<g id="a_edge1_Node000001_Node000002"><a xlink:title=" ">
<path fill="none" stroke="#63b8ff" d="M212.58,-223.78C212.58,-215.82 212.58,-207.25 212.58,-199.76"/>
<polygon fill="#63b8ff" stroke="#63b8ff" points="216.08,-199.99 212.58,-189.99 209.08,-199.99 216.08,-199.99"/>
</a>
</g>
</g>
<!-- Node3 -->
<g id="Node000003" class="node">
<title>Node3</title>
<g id="a_Node000003"><a xlink:title=" ">
<polygon fill="#e0e0e0" stroke="#999999" points="157.08,-20 78.08,-20 78.08,0 157.08,0 157.08,-20"/>
<text xml:space="preserve" text-anchor="middle" x="117.58" y="-6.5" font-family="Helvetica,sans-Serif" font-size="10.00">CoreMinimal.h</text>
</a>
</g>
</g>
<!-- Node2&#45;&gt;Node3 -->
<g id="edge2_Node000002_Node000003" class="edge">
<title>Node2&#45;&gt;Node3</title>
<g id="a_edge2_Node000002_Node000003"><a xlink:title=" ">
<path fill="none" stroke="#63b8ff" d="M171.49,-170.32C122.05,-159.85 41.11,-134.35 4.58,-76 -13.51,-47.1 28.81,-29.71 66.71,-20.29"/>
<polygon fill="#63b8ff" stroke="#63b8ff" points="67.32,-23.74 76.27,-18.07 65.74,-16.92 67.32,-23.74"/>
</a>
</g>
</g>
<!-- Node4 -->
<g id="Node000004" class="node">
<title>Node4</title>
<g id="a_Node000004"><a xlink:title=" ">
<polygon fill="#e0e0e0" stroke="#999999" points="115.33,-76 13.83,-76 13.83,-56 115.33,-56 115.33,-76"/>
<text xml:space="preserve" text-anchor="middle" x="64.58" y="-62.5" font-family="Helvetica,sans-Serif" font-size="10.00">Engine/DataTable.h</text>
</a>
</g>
</g>
<!-- Node2&#45;&gt;Node4 -->
<g id="edge3_Node000002_Node000004" class="edge">
<title>Node2&#45;&gt;Node4</title>
<g id="a_edge3_Node000002_Node000004"><a xlink:title=" ">
<path fill="none" stroke="#63b8ff" d="M199.7,-167.76C187.12,-158.72 167.47,-144.51 150.58,-132 128.25,-115.46 102.88,-96.24 85.52,-83.01"/>
<polygon fill="#63b8ff" stroke="#63b8ff" points="88.05,-80.53 77.97,-77.25 83.8,-86.1 88.05,-80.53"/>
</a>
</g>
</g>
<!-- Node5 -->
<g id="Node000005" class="node">
<title>Node5</title>
<g id="a_Node000005"><a xlink:title=" ">
<polygon fill="#e0e0e0" stroke="#999999" points="637.7,-76 511.45,-76 511.45,-56 637.7,-56 637.7,-76"/>
<text xml:space="preserve" text-anchor="middle" x="574.58" y="-62.5" font-family="Helvetica,sans-Serif" font-size="10.00">GameplayTagContainer.h</text>
</a>
</g>
</g>
<!-- Node2&#45;&gt;Node5 -->
<g id="edge4_Node000002_Node000005" class="edge">
<title>Node2&#45;&gt;Node5</title>
<g id="a_edge4_Node000002_Node000005"><a xlink:title=" ">
<path fill="none" stroke="#63b8ff" d="M225.58,-167.7C248.43,-151.51 295.12,-119.19 313.58,-112 346.67,-99.11 434.86,-85.39 499.6,-76.54"/>
<polygon fill="#63b8ff" stroke="#63b8ff" points="500.06,-80.01 509.5,-75.2 499.12,-73.07 500.06,-80.01"/>
</a>
</g>
</g>
<!-- Node6 -->
<g id="Node000006" class="node">
<title>Node6</title>
<g id="a_Node000006"><a xlink:href="_game_structs_8h.html" target="_top" xlink:title=" ">
<polygon fill="white" stroke="#666666" points="265.58,-132 159.58,-132 159.58,-112 265.58,-112 265.58,-132"/>
<text xml:space="preserve" text-anchor="middle" x="212.58" y="-118.5" font-family="Helvetica,sans-Serif" font-size="10.00">Data/GameStructs.h</text>
</a>
</g>
</g>
<!-- Node2&#45;&gt;Node6 -->
<g id="edge5_Node000002_Node000006" class="edge">
<title>Node2&#45;&gt;Node6</title>
<g id="a_edge5_Node000002_Node000006"><a xlink:title=" ">
<path fill="none" stroke="#63b8ff" d="M212.58,-167.59C212.58,-161.01 212.58,-151.96 212.58,-143.73"/>
<polygon fill="#63b8ff" stroke="#63b8ff" points="216.08,-143.81 212.58,-133.81 209.08,-143.81 216.08,-143.81"/>
</a>
</g>
</g>
<!-- Node11 -->
<g id="Node000011" class="node">
<title>Node11</title>
<g id="a_Node000011"><a xlink:title=" ">
<polygon fill="#e0e0e0" stroke="#999999" points="449.08,-132 322.08,-132 322.08,-112 449.08,-112 449.08,-132"/>
<text xml:space="preserve" text-anchor="middle" x="385.58" y="-118.5" font-family="Helvetica,sans-Serif" font-size="10.00">SkillBuffData.generated.h</text>
</a>
</g>
</g>
<!-- Node2&#45;&gt;Node11 -->
<g id="edge14_Node000002_Node000011" class="edge">
<title>Node2&#45;&gt;Node11</title>
<g id="a_edge14_Node000002_Node000011"><a xlink:title=" ">
<path fill="none" stroke="#63b8ff" d="M242.71,-167.59C270.82,-158.82 312.99,-145.66 344.24,-135.9"/>
<polygon fill="#63b8ff" stroke="#63b8ff" points="345.26,-139.25 353.76,-132.93 343.18,-132.57 345.26,-139.25"/>
</a>
</g>
</g>
<!-- Node6&#45;&gt;Node3 -->
<g id="edge6_Node000006_Node000003" class="edge">
<title>Node6&#45;&gt;Node3</title>
<g id="a_edge6_Node000006_Node000003"><a xlink:title=" ">
<path fill="none" stroke="#63b8ff" d="M200.75,-111.69C190.14,-103.04 174.46,-89.5 162.58,-76 149.84,-61.53 137.54,-43.37 129.02,-29.93"/>
<polygon fill="#63b8ff" stroke="#63b8ff" points="132.11,-28.26 123.87,-21.6 126.16,-31.95 132.11,-28.26"/>
</a>
</g>
</g>
<!-- Node6&#45;&gt;Node4 -->
<g id="edge7_Node000006_Node000004" class="edge">
<title>Node6&#45;&gt;Node4</title>
<g id="a_edge7_Node000006_Node000004"><a xlink:title=" ">
<path fill="none" stroke="#63b8ff" d="M186.8,-111.59C163.18,-102.97 127.94,-90.12 101.36,-80.42"/>
<polygon fill="#63b8ff" stroke="#63b8ff" points="102.58,-77.14 91.98,-77 100.18,-83.71 102.58,-77.14"/>
</a>
</g>
</g>
<!-- Node6&#45;&gt;Node5 -->
<g id="edge12_Node000006_Node000005" class="edge">
<title>Node6&#45;&gt;Node5</title>
<g id="a_edge12_Node000006_Node000005"><a xlink:title=" ">
<path fill="none" stroke="#63b8ff" d="M265.99,-113.03C327.85,-103.81 430.14,-88.55 499.86,-78.15"/>
<polygon fill="#63b8ff" stroke="#63b8ff" points="500.32,-81.62 509.69,-76.68 499.28,-74.69 500.32,-81.62"/>
</a>
</g>
</g>
<!-- Node7 -->
<g id="Node000007" class="node">
<title>Node7</title>
<g id="a_Node000007"><a xlink:title=" ">
<polygon fill="#e0e0e0" stroke="#999999" points="347.58,-76 271.58,-76 271.58,-56 347.58,-56 347.58,-76"/>
<text xml:space="preserve" text-anchor="middle" x="309.58" y="-62.5" font-family="Helvetica,sans-Serif" font-size="10.00">AttributeSet.h</text>
</a>
</g>
</g>
<!-- Node6&#45;&gt;Node7 -->
<g id="edge8_Node000006_Node000007" class="edge">
<title>Node6&#45;&gt;Node7</title>
<g id="a_edge8_Node000006_Node000007"><a xlink:title=" ">
<path fill="none" stroke="#63b8ff" d="M229.48,-111.59C244.13,-103.44 265.6,-91.48 282.63,-82"/>
<polygon fill="#63b8ff" stroke="#63b8ff" points="284.19,-85.14 291.23,-77.22 280.79,-79.02 284.19,-85.14"/>
</a>
</g>
</g>
<!-- Node8 -->
<g id="Node000008" class="node">
<title>Node8</title>
<g id="a_Node000008"><a xlink:href="_game_enums_8h.html" target="_top" xlink:title=" ">
<polygon fill="white" stroke="#666666" points="253.2,-76 171.95,-76 171.95,-56 253.2,-56 253.2,-76"/>
<text xml:space="preserve" text-anchor="middle" x="212.58" y="-62.5" font-family="Helvetica,sans-Serif" font-size="10.00">GameEnums.h</text>
</a>
</g>
</g>
<!-- Node6&#45;&gt;Node8 -->
<g id="edge9_Node000006_Node000008" class="edge">
<title>Node6&#45;&gt;Node8</title>
<g id="a_edge9_Node000006_Node000008"><a xlink:title=" ">
<path fill="none" stroke="#63b8ff" d="M212.58,-111.59C212.58,-105.01 212.58,-95.96 212.58,-87.73"/>
<polygon fill="#63b8ff" stroke="#63b8ff" points="216.08,-87.81 212.58,-77.81 209.08,-87.81 216.08,-87.81"/>
</a>
</g>
</g>
<!-- Node10 -->
<g id="Node000010" class="node">
<title>Node10</title>
<g id="a_Node000010"><a xlink:title=" ">
<polygon fill="#e0e0e0" stroke="#999999" points="493.45,-76 365.7,-76 365.7,-56 493.45,-56 493.45,-76"/>
<text xml:space="preserve" text-anchor="middle" x="429.58" y="-62.5" font-family="Helvetica,sans-Serif" font-size="10.00">GameStructs.generated.h</text>
</a>
</g>
</g>
<!-- Node6&#45;&gt;Node10 -->
<g id="edge13_Node000006_Node000010" class="edge">
<title>Node6&#45;&gt;Node10</title>
<g id="a_edge13_Node000006_Node000010"><a xlink:title=" ">
<path fill="none" stroke="#63b8ff" d="M250.38,-111.59C286.48,-102.61 341.09,-89.02 380.54,-79.2"/>
<polygon fill="#63b8ff" stroke="#63b8ff" points="381.16,-82.66 390.02,-76.84 379.47,-75.86 381.16,-82.66"/>
</a>
</g>
</g>
<!-- Node8&#45;&gt;Node3 -->
<g id="edge10_Node000008_Node000003" class="edge">
<title>Node8&#45;&gt;Node3</title>
<g id="a_edge10_Node000008_Node000003"><a xlink:title=" ">
<path fill="none" stroke="#63b8ff" d="M196.03,-55.59C181.68,-47.44 160.65,-35.48 143.98,-26"/>
<polygon fill="#63b8ff" stroke="#63b8ff" points="145.99,-23.13 135.57,-21.23 142.54,-29.21 145.99,-23.13"/>
</a>
</g>
</g>
<!-- Node9 -->
<g id="Node000009" class="node">
<title>Node9</title>
<g id="a_Node000009"><a xlink:title=" ">
<polygon fill="#e0e0e0" stroke="#999999" points="302.08,-20 175.08,-20 175.08,0 302.08,0 302.08,-20"/>
<text xml:space="preserve" text-anchor="middle" x="238.58" y="-6.5" font-family="Helvetica,sans-Serif" font-size="10.00">GameEnums.generated.h</text>
</a>
</g>
</g>
<!-- Node8&#45;&gt;Node9 -->
<g id="edge11_Node000008_Node000009" class="edge">
<title>Node8&#45;&gt;Node9</title>
<g id="a_edge11_Node000008_Node000009"><a xlink:title=" ">
<path fill="none" stroke="#63b8ff" d="M217.11,-55.59C220.43,-48.7 225.05,-39.1 229.15,-30.57"/>
<polygon fill="#63b8ff" stroke="#63b8ff" points="232.26,-32.19 233.45,-21.66 225.95,-29.15 232.26,-32.19"/>
</a>
</g>
</g>
</g>
</svg>
