<?xml version="1.0" encoding="UTF-8" standalone="no"?>
<!DOCTYPE svg PUBLIC "-//W3C//DTD SVG 1.1//EN"
 "http://www.w3.org/Graphics/SVG/1.1/DTD/svg11.dtd">
<!-- Generated by graphviz version 13.1.1 (20250719.2154)
 -->
<!-- Title: C:/Users/user/Perforce/alz7_CobaltbruWorkspace_00/KPT/Source/KPT/Skill/SkillBuffSystemStatics.cpp Pages: 1 -->
<!--zoomable 356 -->

<svg id="main" version="1.1" xmlns="http://www.w3.org/2000/svg" xmlns:xlink="http://www.w3.org/1999/xlink" xml:space="preserve" onload="init(evt)">

<style type="text/css"><![CDATA[
.node, .edge {opacity: 0.7;}
.node.selected, .edge.selected {opacity: 1;}
.edge:hover path { stroke: red; }
.edge:hover polygon { stroke: red; fill: red; }
]]></style>

<defs>
  <circle id="rim" cx="0" cy="0" r="7"/>
  <circle id="rim2" cx="0" cy="0" r="3.5"/>
  <g id="zoomPlus">
    <use xlink:href="#rim" fill="#404040"><set attributeName="fill" to="#808080" begin="zoomplus.mouseover" end="zoomplus.mouseout"/></use>
    <path d="M-4,0h8M0,-4v8" fill="none" stroke="white" stroke-width="1.5" pointer-events="none"/>
  </g>
  <g id="zoomMin">
    <use xlink:href="#rim" fill="#404040"><set attributeName="fill" to="#808080" begin="zoomminus.mouseover" end="zoomminus.mouseout"/></use>
    <path d="M-4,0h8" fill="none" stroke="white" stroke-width="1.5" pointer-events="none"/>
  </g>
  <g id="arrowUp" transform="translate(30 24)">
    <use xlink:href="#rim"/>
    <path pointer-events="none" fill="none" stroke="white" stroke-width="1.5" d="M0,-3.0v7 M-2.5,-0.5L0,-3.0L2.5,-0.5"/>
  </g>
  <g id="arrowRight" transform="rotate(90) translate(36 -43)">
    <use xlink:href="#rim"/>
    <path pointer-events="none" fill="none" stroke="white" stroke-width="1.5" d="M0,-3.0v7 M-2.5,-0.5L0,-3.0L2.5,-0.5"/>
  </g>
  <g id="arrowDown" transform="rotate(180) translate(-30 -48)">
    <use xlink:href="#rim"/>
    <path pointer-events="none" fill="none" stroke="white" stroke-width="1.5" d="M0,-3.0v7 M-2.5,-0.5L0,-3.0L2.5,-0.5"/>
  </g>
  <g id="arrowLeft" transform="rotate(270) translate(-36 17)">
    <use xlink:href="#rim"/>
    <path pointer-events="none" fill="none" stroke="white" stroke-width="1.5" d="M0,-3.0v7 M-2.5,-0.5L0,-3.0L2.5,-0.5"/>
  </g>
  <g id="resetDef">
    <use xlink:href="#rim2" fill="#404040"><set attributeName="fill" to="#808080" begin="reset.mouseover" end="reset.mouseout"/></use>
  </g>
</defs>
<script type="application/ecmascript">
var viewWidth = 1465;
var viewHeight = 356;
var sectionId = 'dynsection-0';
</script>
<script type="application/ecmascript" xlink:href="svg.min.js"/>
<svg id="graph" class="graph">
<g id="viewport">
<title>C:/Users/user/Perforce/alz7_CobaltbruWorkspace_00/KPT/Source/KPT/Skill/SkillBuffSystemStatics.cpp</title>
<!-- Node1 -->
<g id="Node000001" class="node">
<title>Node1</title>
<g id="a_Node000001"><a xlink:title=" ">
<polygon fill="#999999" stroke="#666666" points="957.62,-348 819.38,-348 819.38,-292 957.62,-292 957.62,-348"/>
<text xml:space="preserve" text-anchor="start" x="827.38" y="-334.5" font-family="Helvetica,sans-Serif" font-size="10.00">C:/Users/user/Perforce</text>
<text xml:space="preserve" text-anchor="start" x="827.38" y="-322.5" font-family="Helvetica,sans-Serif" font-size="10.00">/alz7_CobaltbruWorkspace</text>
<text xml:space="preserve" text-anchor="start" x="827.38" y="-310.5" font-family="Helvetica,sans-Serif" font-size="10.00">_00/KPT/Source/KPT/Skill</text>
<text xml:space="preserve" text-anchor="middle" x="888.5" y="-298.5" font-family="Helvetica,sans-Serif" font-size="10.00">/SkillBuffSystemStatics.cpp</text>
</a>
</g>
</g>
<!-- Node2 -->
<g id="Node000002" class="node">
<title>Node2</title>
<g id="a_Node000002"><a xlink:href="_skill_buff_system_statics_8h.html" target="_top" xlink:title=" ">
<polygon fill="white" stroke="#666666" points="644.75,-256 498.25,-256 498.25,-236 644.75,-236 644.75,-256"/>
<text xml:space="preserve" text-anchor="middle" x="571.5" y="-242.5" font-family="Helvetica,sans-Serif" font-size="10.00">Skill/SkillBuffSystemStatics.h</text>
</a>
</g>
</g>
<!-- Node1&#45;&gt;Node2 -->
<g id="edge1_Node000001_Node000002" class="edge">
<title>Node1&#45;&gt;Node2</title>
<g id="a_edge1_Node000001_Node000002"><a xlink:title=" ">
<path fill="none" stroke="#63b8ff" d="M818.93,-303.2C760.23,-289.87 677.47,-271.07 624.14,-258.96"/>
<polygon fill="#63b8ff" stroke="#63b8ff" points="625.23,-255.62 614.71,-256.81 623.68,-262.44 625.23,-255.62"/>
</a>
</g>
</g>
<!-- Node15 -->
<g id="Node000015" class="node">
<title>Node15</title>
<g id="a_Node000015"><a xlink:title=" ">
<polygon fill="#e0e0e0" stroke="#999999" points="860.12,-256 724.88,-256 724.88,-236 860.12,-236 860.12,-256"/>
<text xml:space="preserve" text-anchor="middle" x="792.5" y="-242.5" font-family="Helvetica,sans-Serif" font-size="10.00">AbilitySystemComponent.h</text>
</a>
</g>
</g>
<!-- Node1&#45;&gt;Node15 -->
<g id="edge20_Node000001_Node000015" class="edge">
<title>Node1&#45;&gt;Node15</title>
<g id="a_edge20_Node000001_Node000015"><a xlink:title=" ">
<path fill="none" stroke="#63b8ff" d="M851.93,-291.57C839.15,-281.98 825.21,-271.53 814.05,-263.16"/>
<polygon fill="#63b8ff" stroke="#63b8ff" points="816.36,-260.52 806.26,-257.32 812.16,-266.12 816.36,-260.52"/>
</a>
</g>
</g>
<!-- Node16 -->
<g id="Node000016" class="node">
<title>Node16</title>
<g id="a_Node000016"><a xlink:href="_skill_data_8h.html" target="_top" xlink:title=" ">
<polygon fill="white" stroke="#666666" points="843.5,-132 755.5,-132 755.5,-112 843.5,-112 843.5,-132"/>
<text xml:space="preserve" text-anchor="middle" x="799.5" y="-118.5" font-family="Helvetica,sans-Serif" font-size="10.00">Data/SkillData.h</text>
</a>
</g>
</g>
<!-- Node1&#45;&gt;Node16 -->
<g id="edge21_Node000001_Node000016" class="edge">
<title>Node1&#45;&gt;Node16</title>
<g id="a_edge21_Node000001_Node000016"><a xlink:title=" ">
<path fill="none" stroke="#63b8ff" d="M884.6,-291.77C881.66,-275.23 876.86,-253.91 869.5,-236 854.81,-200.25 829.38,-162.91 813.55,-141.37"/>
<polygon fill="#63b8ff" stroke="#63b8ff" points="816.53,-139.51 807.74,-133.6 810.93,-143.7 816.53,-139.51"/>
</a>
</g>
</g>
<!-- Node19 -->
<g id="Node000019" class="node">
<title>Node19</title>
<g id="a_Node000019"><a xlink:title=" ">
<polygon fill="#e0e0e0" stroke="#999999" points="1456.62,-132 1324.38,-132 1324.38,-112 1456.62,-112 1456.62,-132"/>
<text xml:space="preserve" text-anchor="middle" x="1390.5" y="-118.5" font-family="Helvetica,sans-Serif" font-size="10.00">Abilities/GameplayAbility.h</text>
</a>
</g>
</g>
<!-- Node1&#45;&gt;Node19 -->
<g id="edge27_Node000001_Node000019" class="edge">
<title>Node1&#45;&gt;Node19</title>
<g id="a_edge27_Node000001_Node000019"><a xlink:title=" ">
<path fill="none" stroke="#63b8ff" d="M958.04,-291.85C1066.92,-249.34 1273.66,-168.62 1355.7,-136.59"/>
<polygon fill="#63b8ff" stroke="#63b8ff" points="1356.97,-139.85 1365.01,-132.95 1354.42,-133.33 1356.97,-139.85"/>
</a>
</g>
</g>
<!-- Node20 -->
<g id="Node000020" class="node">
<title>Node20</title>
<g id="a_Node000020"><a xlink:href="_base_skill_ability_8h.html" target="_top" xlink:title=" ">
<polygon fill="white" stroke="#666666" points="1127.25,-194 983.75,-194 983.75,-174 1127.25,-174 1127.25,-194"/>
<text xml:space="preserve" text-anchor="middle" x="1055.5" y="-180.5" font-family="Helvetica,sans-Serif" font-size="10.00">Skill/Ability/BaseSkillAbility.h</text>
</a>
</g>
</g>
<!-- Node1&#45;&gt;Node20 -->
<g id="edge28_Node000001_Node000020" class="edge">
<title>Node1&#45;&gt;Node20</title>
<g id="a_edge28_Node000001_Node000020"><a xlink:title=" ">
<path fill="none" stroke="#63b8ff" d="M922.7,-291.56C956.5,-264.44 1007.1,-223.84 1035.07,-201.39"/>
<polygon fill="#63b8ff" stroke="#63b8ff" points="1037.17,-204.2 1042.78,-195.21 1032.79,-198.74 1037.17,-204.2"/>
</a>
</g>
</g>
<!-- Node3 -->
<g id="Node000003" class="node">
<title>Node3</title>
<g id="a_Node000003"><a xlink:title=" ">
<polygon fill="#e0e0e0" stroke="#999999" points="491,-20 412,-20 412,0 491,0 491,-20"/>
<text xml:space="preserve" text-anchor="middle" x="451.5" y="-6.5" font-family="Helvetica,sans-Serif" font-size="10.00">CoreMinimal.h</text>
</a>
</g>
</g>
<!-- Node2&#45;&gt;Node3 -->
<g id="edge2_Node000002_Node000003" class="edge">
<title>Node2&#45;&gt;Node3</title>
<g id="a_edge2_Node000002_Node000003"><a xlink:title=" ">
<path fill="none" stroke="#63b8ff" d="M497.93,-236.89C444.85,-229.96 371.87,-218.16 309.5,-200 172.56,-160.12 92.5,-194.75 13.5,-76 8.58,-68.6 7.54,-62.6 13.5,-56 39.01,-27.73 290.12,-16.21 400.22,-12.49"/>
<polygon fill="#63b8ff" stroke="#63b8ff" points="400.28,-15.99 410.16,-12.16 400.05,-8.99 400.28,-15.99"/>
</a>
</g>
</g>
<!-- Node4 -->
<g id="Node000004" class="node">
<title>Node4</title>
<g id="a_Node000004"><a xlink:title=" ">
<polygon fill="#e0e0e0" stroke="#999999" points="444.25,-200 318.75,-200 318.75,-168 444.25,-168 444.25,-200"/>
<text xml:space="preserve" text-anchor="start" x="326.75" y="-186.5" font-family="Helvetica,sans-Serif" font-size="10.00">Kismet/BlueprintFunction</text>
<text xml:space="preserve" text-anchor="middle" x="381.5" y="-174.5" font-family="Helvetica,sans-Serif" font-size="10.00">Library.h</text>
</a>
</g>
</g>
<!-- Node2&#45;&gt;Node4 -->
<g id="edge3_Node000002_Node000004" class="edge">
<title>Node2&#45;&gt;Node4</title>
<g id="a_edge3_Node000002_Node000004"><a xlink:title=" ">
<path fill="none" stroke="#63b8ff" d="M541.81,-235.62C514.97,-227.15 474.65,-214.42 441.16,-203.84"/>
<polygon fill="#63b8ff" stroke="#63b8ff" points="442.59,-200.62 432,-200.95 440.48,-207.3 442.59,-200.62"/>
</a>
</g>
</g>
<!-- Node5 -->
<g id="Node000005" class="node">
<title>Node5</title>
<g id="a_Node000005"><a xlink:title=" ">
<polygon fill="#e0e0e0" stroke="#999999" points="684.62,-76 558.38,-76 558.38,-56 684.62,-56 684.62,-76"/>
<text xml:space="preserve" text-anchor="middle" x="621.5" y="-62.5" font-family="Helvetica,sans-Serif" font-size="10.00">GameplayTagContainer.h</text>
</a>
</g>
</g>
<!-- Node2&#45;&gt;Node5 -->
<g id="edge4_Node000002_Node000005" class="edge">
<title>Node2&#45;&gt;Node5</title>
<g id="a_edge4_Node000002_Node000005"><a xlink:title=" ">
<path fill="none" stroke="#63b8ff" d="M578.62,-235.52C584.83,-226.76 593.61,-213.15 598.5,-200 612.67,-161.87 618.2,-114.3 620.29,-87.62"/>
<polygon fill="#63b8ff" stroke="#63b8ff" points="623.77,-88.06 620.96,-77.84 616.78,-87.58 623.77,-88.06"/>
</a>
</g>
</g>
<!-- Node6 -->
<g id="Node000006" class="node">
<title>Node6</title>
<g id="a_Node000006"><a xlink:href="_skill_buff_data_8h.html" target="_top" xlink:title=" ">
<polygon fill="white" stroke="#666666" points="589,-194 462,-194 462,-174 589,-174 589,-194"/>
<text xml:space="preserve" text-anchor="middle" x="525.5" y="-180.5" font-family="Helvetica,sans-Serif" font-size="10.00">Skill/Data/SkillBuffData.h</text>
</a>
</g>
</g>
<!-- Node2&#45;&gt;Node6 -->
<g id="edge5_Node000002_Node000006" class="edge">
<title>Node2&#45;&gt;Node6</title>
<g id="a_edge5_Node000002_Node000006"><a xlink:title=" ">
<path fill="none" stroke="#63b8ff" d="M564.31,-235.62C557.66,-226.94 547.58,-213.8 539.36,-203.08"/>
<polygon fill="#63b8ff" stroke="#63b8ff" points="542.27,-201.12 533.41,-195.31 536.71,-205.38 542.27,-201.12"/>
</a>
</g>
</g>
<!-- Node14 -->
<g id="Node000014" class="node">
<title>Node14</title>
<g id="a_Node000014"><a xlink:title=" ">
<polygon fill="#e0e0e0" stroke="#999999" points="815.75,-194 645.25,-194 645.25,-174 815.75,-174 815.75,-194"/>
<text xml:space="preserve" text-anchor="middle" x="730.5" y="-180.5" font-family="Helvetica,sans-Serif" font-size="10.00">SkillBuffSystemStatics.generated.h</text>
</a>
</g>
</g>
<!-- Node2&#45;&gt;Node14 -->
<g id="edge19_Node000002_Node000014" class="edge">
<title>Node2&#45;&gt;Node14</title>
<g id="a_edge19_Node000002_Node000014"><a xlink:title=" ">
<path fill="none" stroke="#63b8ff" d="M596.34,-235.62C622.87,-225.62 665.13,-209.67 695.12,-198.35"/>
<polygon fill="#63b8ff" stroke="#63b8ff" points="696.03,-201.75 704.15,-194.94 693.56,-195.2 696.03,-201.75"/>
</a>
</g>
</g>
<!-- Node6&#45;&gt;Node3 -->
<g id="edge6_Node000006_Node000003" class="edge">
<title>Node6&#45;&gt;Node3</title>
<g id="a_edge6_Node000006_Node000003"><a xlink:title=" ">
<path fill="none" stroke="#63b8ff" d="M526.86,-173.63C529.59,-151.49 533.71,-94.92 511.5,-56 504.46,-43.67 492.53,-33.68 481.16,-26.27"/>
<polygon fill="#63b8ff" stroke="#63b8ff" points="483.11,-23.36 472.73,-21.21 479.5,-29.36 483.11,-23.36"/>
</a>
</g>
</g>
<!-- Node6&#45;&gt;Node5 -->
<g id="edge8_Node000006_Node000005" class="edge">
<title>Node6&#45;&gt;Node5</title>
<g id="a_edge8_Node000006_Node000005"><a xlink:title=" ">
<path fill="none" stroke="#63b8ff" d="M533.36,-173.51C549.33,-154.21 585.82,-110.11 606.49,-85.13"/>
<polygon fill="#63b8ff" stroke="#63b8ff" points="609.16,-87.4 612.84,-77.47 603.77,-82.94 609.16,-87.4"/>
</a>
</g>
</g>
<!-- Node7 -->
<g id="Node000007" class="node">
<title>Node7</title>
<g id="a_Node000007"><a xlink:title=" ">
<polygon fill="#e0e0e0" stroke="#999999" points="502.25,-76 400.75,-76 400.75,-56 502.25,-56 502.25,-76"/>
<text xml:space="preserve" text-anchor="middle" x="451.5" y="-62.5" font-family="Helvetica,sans-Serif" font-size="10.00">Engine/DataTable.h</text>
</a>
</g>
</g>
<!-- Node6&#45;&gt;Node7 -->
<g id="edge7_Node000006_Node000007" class="edge">
<title>Node6&#45;&gt;Node7</title>
<g id="a_edge7_Node000006_Node000007"><a xlink:title=" ">
<path fill="none" stroke="#63b8ff" d="M519.44,-173.51C507.24,-154.38 479.5,-110.89 463.49,-85.8"/>
<polygon fill="#63b8ff" stroke="#63b8ff" points="466.58,-84.12 458.25,-77.58 460.67,-87.89 466.58,-84.12"/>
</a>
</g>
</g>
<!-- Node8 -->
<g id="Node000008" class="node">
<title>Node8</title>
<g id="a_Node000008"><a xlink:href="_game_structs_8h.html" target="_top" xlink:title=" ">
<polygon fill="white" stroke="#666666" points="318.5,-132 212.5,-132 212.5,-112 318.5,-112 318.5,-132"/>
<text xml:space="preserve" text-anchor="middle" x="265.5" y="-118.5" font-family="Helvetica,sans-Serif" font-size="10.00">Data/GameStructs.h</text>
</a>
</g>
</g>
<!-- Node6&#45;&gt;Node8 -->
<g id="edge9_Node000006_Node000008" class="edge">
<title>Node6&#45;&gt;Node8</title>
<g id="a_edge9_Node000006_Node000008"><a xlink:title=" ">
<path fill="none" stroke="#63b8ff" d="M484.59,-173.56C439.48,-163.15 366.8,-146.38 317.64,-135.03"/>
<polygon fill="#63b8ff" stroke="#63b8ff" points="318.61,-131.66 308.08,-132.83 317.03,-138.48 318.61,-131.66"/>
</a>
</g>
</g>
<!-- Node13 -->
<g id="Node000013" class="node">
<title>Node13</title>
<g id="a_Node000013"><a xlink:title=" ">
<polygon fill="#e0e0e0" stroke="#999999" points="464,-132 337,-132 337,-112 464,-112 464,-132"/>
<text xml:space="preserve" text-anchor="middle" x="400.5" y="-118.5" font-family="Helvetica,sans-Serif" font-size="10.00">SkillBuffData.generated.h</text>
</a>
</g>
</g>
<!-- Node6&#45;&gt;Node13 -->
<g id="edge18_Node000006_Node000013" class="edge">
<title>Node6&#45;&gt;Node13</title>
<g id="a_edge18_Node000006_Node000013"><a xlink:title=" ">
<path fill="none" stroke="#63b8ff" d="M505.97,-173.62C485.6,-163.85 453.44,-148.41 429.99,-137.15"/>
<polygon fill="#63b8ff" stroke="#63b8ff" points="431.79,-134.14 421.26,-132.96 428.76,-140.45 431.79,-134.14"/>
</a>
</g>
</g>
<!-- Node8&#45;&gt;Node3 -->
<g id="edge10_Node000008_Node000003" class="edge">
<title>Node8&#45;&gt;Node3</title>
<g id="a_edge10_Node000008_Node000003"><a xlink:title=" ">
<path fill="none" stroke="#63b8ff" d="M285.41,-111.61C303.48,-102.91 330.69,-89.34 353.5,-76 380.21,-60.38 409.65,-40.47 429.22,-26.82"/>
<polygon fill="#63b8ff" stroke="#63b8ff" points="431.08,-29.8 437.25,-21.19 427.05,-24.07 431.08,-29.8"/>
</a>
</g>
</g>
<!-- Node8&#45;&gt;Node5 -->
<g id="edge16_Node000008_Node000005" class="edge">
<title>Node8&#45;&gt;Node5</title>
<g id="a_edge16_Node000008_Node000005"><a xlink:title=" ">
<path fill="none" stroke="#63b8ff" d="M318.8,-112.92C379.71,-103.68 479.77,-88.5 548.04,-78.14"/>
<polygon fill="#63b8ff" stroke="#63b8ff" points="548.28,-81.65 557.64,-76.69 547.23,-74.73 548.28,-81.65"/>
</a>
</g>
</g>
<!-- Node8&#45;&gt;Node7 -->
<g id="edge11_Node000008_Node000007" class="edge">
<title>Node8&#45;&gt;Node7</title>
<g id="a_edge11_Node000008_Node000007"><a xlink:title=" ">
<path fill="none" stroke="#63b8ff" d="M297.9,-111.59C328.38,-102.74 374.26,-89.43 407.93,-79.65"/>
<polygon fill="#63b8ff" stroke="#63b8ff" points="408.77,-83.05 417.39,-76.9 406.82,-76.33 408.77,-83.05"/>
</a>
</g>
</g>
<!-- Node9 -->
<g id="Node000009" class="node">
<title>Node9</title>
<g id="a_Node000009"><a xlink:title=" ">
<polygon fill="#e0e0e0" stroke="#999999" points="344.5,-76 268.5,-76 268.5,-56 344.5,-56 344.5,-76"/>
<text xml:space="preserve" text-anchor="middle" x="306.5" y="-62.5" font-family="Helvetica,sans-Serif" font-size="10.00">AttributeSet.h</text>
</a>
</g>
</g>
<!-- Node8&#45;&gt;Node9 -->
<g id="edge12_Node000008_Node000009" class="edge">
<title>Node8&#45;&gt;Node9</title>
<g id="a_edge12_Node000008_Node000009"><a xlink:title=" ">
<path fill="none" stroke="#63b8ff" d="M272.64,-111.59C278.11,-104.39 285.82,-94.23 292.51,-85.43"/>
<polygon fill="#63b8ff" stroke="#63b8ff" points="295.27,-87.58 298.52,-77.5 289.69,-83.35 295.27,-87.58"/>
</a>
</g>
</g>
<!-- Node10 -->
<g id="Node000010" class="node">
<title>Node10</title>
<g id="a_Node000010"><a xlink:href="_game_enums_8h.html" target="_top" xlink:title=" ">
<polygon fill="white" stroke="#666666" points="104.12,-76 22.88,-76 22.88,-56 104.12,-56 104.12,-76"/>
<text xml:space="preserve" text-anchor="middle" x="63.5" y="-62.5" font-family="Helvetica,sans-Serif" font-size="10.00">GameEnums.h</text>
</a>
</g>
</g>
<!-- Node8&#45;&gt;Node10 -->
<g id="edge13_Node000008_Node000010" class="edge">
<title>Node8&#45;&gt;Node10</title>
<g id="a_edge13_Node000008_Node000010"><a xlink:title=" ">
<path fill="none" stroke="#63b8ff" d="M230.31,-111.59C196.92,-102.67 146.52,-89.19 109.86,-79.39"/>
<polygon fill="#63b8ff" stroke="#63b8ff" points="110.99,-76.07 100.42,-76.87 109.18,-82.83 110.99,-76.07"/>
</a>
</g>
</g>
<!-- Node12 -->
<g id="Node000012" class="node">
<title>Node12</title>
<g id="a_Node000012"><a xlink:title=" ">
<polygon fill="#e0e0e0" stroke="#999999" points="250.38,-76 122.62,-76 122.62,-56 250.38,-56 250.38,-76"/>
<text xml:space="preserve" text-anchor="middle" x="186.5" y="-62.5" font-family="Helvetica,sans-Serif" font-size="10.00">GameStructs.generated.h</text>
</a>
</g>
</g>
<!-- Node8&#45;&gt;Node12 -->
<g id="edge17_Node000008_Node000012" class="edge">
<title>Node8&#45;&gt;Node12</title>
<g id="a_edge17_Node000008_Node000012"><a xlink:title=" ">
<path fill="none" stroke="#63b8ff" d="M251.74,-111.59C240.14,-103.67 223.3,-92.16 209.64,-82.82"/>
<polygon fill="#63b8ff" stroke="#63b8ff" points="211.85,-80.09 201.62,-77.33 207.9,-85.87 211.85,-80.09"/>
</a>
</g>
</g>
<!-- Node10&#45;&gt;Node3 -->
<g id="edge14_Node000010_Node000003" class="edge">
<title>Node10&#45;&gt;Node3</title>
<g id="a_edge14_Node000010_Node000003"><a xlink:title=" ">
<path fill="none" stroke="#63b8ff" d="M104.4,-57.48C107.48,-56.96 110.54,-56.46 113.5,-56 214.88,-40.14 333.94,-25.12 400.25,-17.08"/>
<polygon fill="#63b8ff" stroke="#63b8ff" points="400.6,-20.57 410.11,-15.89 399.76,-13.62 400.6,-20.57"/>
</a>
</g>
</g>
<!-- Node11 -->
<g id="Node000011" class="node">
<title>Node11</title>
<g id="a_Node000011"><a xlink:title=" ">
<polygon fill="#e0e0e0" stroke="#999999" points="127,-20 0,-20 0,0 127,0 127,-20"/>
<text xml:space="preserve" text-anchor="middle" x="63.5" y="-6.5" font-family="Helvetica,sans-Serif" font-size="10.00">GameEnums.generated.h</text>
</a>
</g>
</g>
<!-- Node10&#45;&gt;Node11 -->
<g id="edge15_Node000010_Node000011" class="edge">
<title>Node10&#45;&gt;Node11</title>
<g id="a_edge15_Node000010_Node000011"><a xlink:title=" ">
<path fill="none" stroke="#63b8ff" d="M63.5,-55.59C63.5,-49.01 63.5,-39.96 63.5,-31.73"/>
<polygon fill="#63b8ff" stroke="#63b8ff" points="67,-31.81 63.5,-21.81 60,-31.81 67,-31.81"/>
</a>
</g>
</g>
<!-- Node16&#45;&gt;Node3 -->
<g id="edge22_Node000016_Node000003" class="edge">
<title>Node16&#45;&gt;Node3</title>
<g id="a_edge22_Node000016_Node000003"><a xlink:title=" ">
<path fill="none" stroke="#63b8ff" d="M785.81,-111.73C761.76,-95.6 712.64,-63.36 693.5,-56 630.22,-31.68 552.43,-20.22 502.42,-15.02"/>
<polygon fill="#63b8ff" stroke="#63b8ff" points="503.06,-11.57 492.77,-14.07 502.37,-18.53 503.06,-11.57"/>
</a>
</g>
</g>
<!-- Node16&#45;&gt;Node5 -->
<g id="edge25_Node000016_Node000005" class="edge">
<title>Node16&#45;&gt;Node5</title>
<g id="a_edge25_Node000016_Node000005"><a xlink:title=" ">
<path fill="none" stroke="#63b8ff" d="M768.49,-111.59C739.45,-102.78 695.8,-89.54 663.61,-79.78"/>
<polygon fill="#63b8ff" stroke="#63b8ff" points="664.78,-76.47 654.2,-76.92 662.75,-83.17 664.78,-76.47"/>
</a>
</g>
</g>
<!-- Node16&#45;&gt;Node7 -->
<g id="edge23_Node000016_Node000007" class="edge">
<title>Node16&#45;&gt;Node7</title>
<g id="a_edge23_Node000016_Node000007"><a xlink:title=" ">
<path fill="none" stroke="#63b8ff" d="M755.07,-114.11C693.89,-104.61 583.39,-87.47 513.93,-76.69"/>
<polygon fill="#63b8ff" stroke="#63b8ff" points="514.64,-73.26 504.22,-75.18 513.56,-80.17 514.64,-73.26"/>
</a>
</g>
</g>
<!-- Node17 -->
<g id="Node000017" class="node">
<title>Node17</title>
<g id="a_Node000017"><a xlink:title=" ">
<polygon fill="#e0e0e0" stroke="#999999" points="858.5,-76 740.5,-76 740.5,-56 858.5,-56 858.5,-76"/>
<text xml:space="preserve" text-anchor="middle" x="799.5" y="-62.5" font-family="Helvetica,sans-Serif" font-size="10.00">GameplayAbilitySpec.h</text>
</a>
</g>
</g>
<!-- Node16&#45;&gt;Node17 -->
<g id="edge24_Node000016_Node000017" class="edge">
<title>Node16&#45;&gt;Node17</title>
<g id="a_edge24_Node000016_Node000017"><a xlink:title=" ">
<path fill="none" stroke="#63b8ff" d="M799.5,-111.59C799.5,-105.01 799.5,-95.96 799.5,-87.73"/>
<polygon fill="#63b8ff" stroke="#63b8ff" points="803,-87.81 799.5,-77.81 796,-87.81 803,-87.81"/>
</a>
</g>
</g>
<!-- Node18 -->
<g id="Node000018" class="node">
<title>Node18</title>
<g id="a_Node000018"><a xlink:title=" ">
<polygon fill="#e0e0e0" stroke="#999999" points="986.38,-76 876.62,-76 876.62,-56 986.38,-56 986.38,-76"/>
<text xml:space="preserve" text-anchor="middle" x="931.5" y="-62.5" font-family="Helvetica,sans-Serif" font-size="10.00">SkillData.generated.h</text>
</a>
</g>
</g>
<!-- Node16&#45;&gt;Node18 -->
<g id="edge26_Node000016_Node000018" class="edge">
<title>Node16&#45;&gt;Node18</title>
<g id="a_edge26_Node000016_Node000018"><a xlink:title=" ">
<path fill="none" stroke="#63b8ff" d="M822.49,-111.59C843.28,-103.09 874.15,-90.46 897.74,-80.81"/>
<polygon fill="#63b8ff" stroke="#63b8ff" points="899,-84.08 906.93,-77.05 896.35,-77.6 899,-84.08"/>
</a>
</g>
</g>
<!-- Node20&#45;&gt;Node3 -->
<g id="edge29_Node000020_Node000003" class="edge">
<title>Node20&#45;&gt;Node3</title>
<g id="a_edge29_Node000020_Node000003"><a xlink:title=" ">
<path fill="none" stroke="#63b8ff" d="M1051.44,-173.77C1038.83,-145.16 1000.84,-59.7 995.5,-56 955.56,-28.32 630.45,-16.11 502.73,-12.35"/>
<polygon fill="#63b8ff" stroke="#63b8ff" points="502.97,-8.85 492.88,-12.06 502.77,-15.85 502.97,-8.85"/>
</a>
</g>
</g>
<!-- Node20&#45;&gt;Node16 -->
<g id="edge31_Node000020_Node000016" class="edge">
<title>Node20&#45;&gt;Node16</title>
<g id="a_edge31_Node000020_Node000016"><a xlink:title=" ">
<path fill="none" stroke="#63b8ff" d="M1015.22,-173.56C970.9,-163.17 899.54,-146.45 851.14,-135.1"/>
<polygon fill="#63b8ff" stroke="#63b8ff" points="851.98,-131.7 841.44,-132.83 850.38,-138.52 851.98,-131.7"/>
</a>
</g>
</g>
<!-- Node20&#45;&gt;Node19 -->
<g id="edge30_Node000020_Node000019" class="edge">
<title>Node20&#45;&gt;Node19</title>
<g id="a_edge30_Node000020_Node000019"><a xlink:title=" ">
<path fill="none" stroke="#63b8ff" d="M1108.21,-173.56C1167.31,-162.97 1263.15,-145.81 1326.5,-134.46"/>
<polygon fill="#63b8ff" stroke="#63b8ff" points="1326.83,-137.96 1336.05,-132.75 1325.59,-131.07 1326.83,-137.96"/>
</a>
</g>
</g>
<!-- Node21 -->
<g id="Node000021" class="node">
<title>Node21</title>
<g id="a_Node000021"><a xlink:title=" ">
<polygon fill="#e0e0e0" stroke="#999999" points="1150.62,-132 1042.38,-132 1042.38,-112 1150.62,-112 1150.62,-132"/>
<text xml:space="preserve" text-anchor="middle" x="1096.5" y="-118.5" font-family="Helvetica,sans-Serif" font-size="10.00">Net/UnrealNetwork.h</text>
</a>
</g>
</g>
<!-- Node20&#45;&gt;Node21 -->
<g id="edge32_Node000020_Node000021" class="edge">
<title>Node20&#45;&gt;Node21</title>
<g id="a_edge32_Node000020_Node000021"><a xlink:title=" ">
<path fill="none" stroke="#63b8ff" d="M1061.91,-173.62C1067.78,-165.03 1076.64,-152.07 1083.92,-141.41"/>
<polygon fill="#63b8ff" stroke="#63b8ff" points="1086.67,-143.59 1089.42,-133.36 1080.89,-139.64 1086.67,-143.59"/>
</a>
</g>
</g>
<!-- Node22 -->
<g id="Node000022" class="node">
<title>Node22</title>
<g id="a_Node000022"><a xlink:title=" ">
<polygon fill="#e0e0e0" stroke="#999999" points="1306.25,-132 1168.75,-132 1168.75,-112 1306.25,-112 1306.25,-132"/>
<text xml:space="preserve" text-anchor="middle" x="1237.5" y="-118.5" font-family="Helvetica,sans-Serif" font-size="10.00">BaseSkillAbility.generated.h</text>
</a>
</g>
</g>
<!-- Node20&#45;&gt;Node22 -->
<g id="edge33_Node000020_Node000022" class="edge">
<title>Node20&#45;&gt;Node22</title>
<g id="a_edge33_Node000020_Node000022"><a xlink:title=" ">
<path fill="none" stroke="#63b8ff" d="M1083.94,-173.62C1114.7,-163.48 1163.95,-147.25 1198.36,-135.9"/>
<polygon fill="#63b8ff" stroke="#63b8ff" points="1199.12,-139.34 1207.53,-132.88 1196.93,-132.69 1199.12,-139.34"/>
</a>
</g>
</g>
</g>
</svg>

<g id="navigator" transform="translate(0 0)" fill="#404254">
  <rect fill="#f2f5e9" fill-opacity="0.5" stroke="#606060" stroke-width=".5" x="0" y="0" width="60" height="60"/>
  <use id="zoomplus" xlink:href="#zoomPlus" x="17" y="9" onmousedown="handleZoom(evt,'in')"/>
  <use id="zoomminus" xlink:href="#zoomMin" x="42" y="9" onmousedown="handleZoom(evt,'out')"/>
  <use id="reset" xlink:href="#resetDef" x="30" y="36" onmousedown="handleReset()"/>
   <use id="arrowup" xlink:href="#arrowUp" x="0" y="0" onmousedown="handlePan(0,-1)"/>
  <use id="arrowright" xlink:href="#arrowRight" x="0" y="0" onmousedown="handlePan(1,0)"/>
  <use id="arrowdown" xlink:href="#arrowDown" x="0" y="0" onmousedown="handlePan(0,1)"/>
  <use id="arrowleft" xlink:href="#arrowLeft" x="0" y="0" onmousedown="handlePan(-1,0)"/>
</g>
<svg viewBox="0 0 15 15" width="100%" height="30px" preserveAspectRatio="xMaxYMin meet">
 <g id="arrow_out" transform="scale(0.3 0.3)">
  <a xlink:href="_skill_buff_system_statics_8cpp__incl_org.svg" target="_base">
   <rect id="button" ry="5" rx="5" y="6" x="6" height="38" width="38"
        fill="#f2f5e9" fill-opacity="0.5" stroke="#606060" stroke-width="1.0"/>
   <path id="arrow"
     d="M 11.500037,31.436501 C 11.940474,20.09759 22.043105,11.32322 32.158766,21.979434 L 37.068811,17.246167 C 37.068811,17.246167 37.088388,32 37.088388,32 L 22.160133,31.978069 C 22.160133,31.978069 26.997745,27.140456 26.997745,27.140456 C 18.528582,18.264221 13.291696,25.230495 11.500037,31.436501 z"
     style="fill:#404040;"/>
  </a>
 </g>
</svg>

<style type='text/css'>
<![CDATA[
[data-mouse-over-selected='false'] { opacity: 0.7; }
[data-mouse-over-selected='true']  { opacity: 1.0; }
]]>
</style>
<script type="application/ecmascript"><![CDATA[
document.addEventListener('DOMContentLoaded', (event) => {
  highlightEdges();
  highlightAdjacentNodes();
});
]]></script>
</svg>
