<?xml version="1.0" encoding="UTF-8" standalone="no"?>
<!DOCTYPE svg PUBLIC "-//W3C//DTD SVG 1.1//EN"
 "http://www.w3.org/Graphics/SVG/1.1/DTD/svg11.dtd">
<!-- Generated by graphviz version 13.1.1 (20250719.2154)
 -->
<!-- Title: C:/Users/user/Perforce/alz7_CobaltbruWorkspace_00/KPT/Source/KPT/Skill/SkillManagerComponent.cpp Pages: 1 -->
<svg width="2738pt" height="380pt"
 viewBox="0.00 0.00 2738.00 380.00" xmlns="http://www.w3.org/2000/svg" xmlns:xlink="http://www.w3.org/1999/xlink">
<g id="graph0" class="graph" transform="scale(1 1) rotate(0) translate(4 376)">
<title>C:/Users/user/Perforce/alz7_CobaltbruWorkspace_00/KPT/Source/KPT/Skill/SkillManagerComponent.cpp</title>
<!-- Node1 -->
<g id="Node000001" class="node">
<title>Node1</title>
<g id="a_Node000001"><a xlink:title=" ">
<polygon fill="#999999" stroke="#666666" points="1464.75,-372 1320.5,-372 1320.5,-316 1464.75,-316 1464.75,-372"/>
<text xml:space="preserve" text-anchor="start" x="1328.5" y="-358.5" font-family="Helvetica,sans-Serif" font-size="10.00">C:/Users/user/Perforce</text>
<text xml:space="preserve" text-anchor="start" x="1328.5" y="-346.5" font-family="Helvetica,sans-Serif" font-size="10.00">/alz7_CobaltbruWorkspace</text>
<text xml:space="preserve" text-anchor="start" x="1328.5" y="-334.5" font-family="Helvetica,sans-Serif" font-size="10.00">_00/KPT/Source/KPT/Skill</text>
<text xml:space="preserve" text-anchor="middle" x="1392.62" y="-322.5" font-family="Helvetica,sans-Serif" font-size="10.00">/SkillManagerComponent.cpp</text>
</a>
</g>
</g>
<!-- Node2 -->
<g id="Node000002" class="node">
<title>Node2</title>
<g id="a_Node000002"><a xlink:href="_skill_manager_component_8h.html" target="_top" xlink:title=" ">
<polygon fill="white" stroke="#666666" points="1505,-206 1374.25,-206 1374.25,-186 1505,-186 1505,-206"/>
<text xml:space="preserve" text-anchor="middle" x="1439.62" y="-192.5" font-family="Helvetica,sans-Serif" font-size="10.00">SkillManagerComponent.h</text>
</a>
</g>
</g>
<!-- Node1&#45;&gt;Node2 -->
<g id="edge1_Node000001_Node000002" class="edge">
<title>Node1&#45;&gt;Node2</title>
<g id="a_edge1_Node000001_Node000002"><a xlink:title=" ">
<path fill="none" stroke="#63b8ff" d="M1401.47,-315.54C1410.65,-287 1424.81,-243.01 1433.06,-217.41"/>
<polygon fill="#63b8ff" stroke="#63b8ff" points="1436.38,-218.5 1436.11,-207.91 1429.72,-216.35 1436.38,-218.5"/>
</a>
</g>
</g>
<!-- Node11 -->
<g id="Node000011" class="node">
<title>Node11</title>
<g id="a_Node000011"><a xlink:title=" ">
<polygon fill="#e0e0e0" stroke="#999999" points="1280.25,-274 1145,-274 1145,-254 1280.25,-254 1280.25,-274"/>
<text xml:space="preserve" text-anchor="middle" x="1212.62" y="-260.5" font-family="Helvetica,sans-Serif" font-size="10.00">AbilitySystemComponent.h</text>
</a>
</g>
</g>
<!-- Node1&#45;&gt;Node11 -->
<g id="edge13_Node000001_Node000011" class="edge">
<title>Node1&#45;&gt;Node11</title>
<g id="a_edge13_Node000001_Node000011"><a xlink:title=" ">
<path fill="none" stroke="#63b8ff" d="M1329.16,-315.5C1300.68,-303.16 1268.3,-289.12 1244.91,-278.99"/>
<polygon fill="#63b8ff" stroke="#63b8ff" points="1246.48,-275.86 1235.92,-275.09 1243.7,-282.28 1246.48,-275.86"/>
</a>
</g>
</g>
<!-- Node12 -->
<g id="Node000012" class="node">
<title>Node12</title>
<g id="a_Node000012"><a xlink:title=" ">
<polygon fill="#e0e0e0" stroke="#999999" points="123.25,-20 0,-20 0,0 123.25,0 123.25,-20"/>
<text xml:space="preserve" text-anchor="middle" x="61.62" y="-6.5" font-family="Helvetica,sans-Serif" font-size="10.00">AbilitySystemInterface.h</text>
</a>
</g>
</g>
<!-- Node1&#45;&gt;Node12 -->
<g id="edge14_Node000001_Node000012" class="edge">
<title>Node1&#45;&gt;Node12</title>
<g id="a_edge14_Node000001_Node000012"><a xlink:title=" ">
<path fill="none" stroke="#63b8ff" d="M1320.47,-342.96C1038.12,-341.84 23.62,-328.69 23.62,-197 23.62,-197 23.62,-197 23.62,-133 23.62,-95.44 40.24,-54.2 51.5,-30.58"/>
<polygon fill="#63b8ff" stroke="#63b8ff" points="54.52,-32.36 55.83,-21.85 48.25,-29.25 54.52,-32.36"/>
</a>
</g>
</g>
<!-- Node13 -->
<g id="Node000013" class="node">
<title>Node13</title>
<g id="a_Node000013"><a xlink:href="_k_p_t_player_state_8h.html" target="_top" xlink:title=" ">
<polygon fill="white" stroke="#666666" points="707.88,-144 567.38,-144 567.38,-124 707.88,-124 707.88,-144"/>
<text xml:space="preserve" text-anchor="middle" x="637.62" y="-130.5" font-family="Helvetica,sans-Serif" font-size="10.00">Character/KPTPlayerState.h</text>
</a>
</g>
</g>
<!-- Node1&#45;&gt;Node13 -->
<g id="edge15_Node000001_Node000013" class="edge">
<title>Node1&#45;&gt;Node13</title>
<g id="a_edge15_Node000001_Node000013"><a xlink:title=" ">
<path fill="none" stroke="#63b8ff" d="M1371.1,-315.93C1352.09,-293.99 1322.35,-264.14 1289.62,-248 1190.37,-199.03 871.18,-159.76 719.35,-143.33"/>
<polygon fill="#63b8ff" stroke="#63b8ff" points="720.09,-139.89 709.77,-142.3 719.34,-146.85 720.09,-139.89"/>
</a>
</g>
</g>
<!-- Node19 -->
<g id="Node000019" class="node">
<title>Node19</title>
<g id="a_Node000019"><a xlink:href="_player_character_8h.html" target="_top" xlink:title=" ">
<polygon fill="white" stroke="#666666" points="1024.88,-144 884.38,-144 884.38,-124 1024.88,-124 1024.88,-144"/>
<text xml:space="preserve" text-anchor="middle" x="954.62" y="-130.5" font-family="Helvetica,sans-Serif" font-size="10.00">Character/PlayerCharacter.h</text>
</a>
</g>
</g>
<!-- Node1&#45;&gt;Node19 -->
<g id="edge25_Node000001_Node000019" class="edge">
<title>Node1&#45;&gt;Node19</title>
<g id="a_edge25_Node000001_Node000019"><a xlink:title=" ">
<path fill="none" stroke="#63b8ff" d="M1389.25,-315.67C1383.1,-278.48 1366.36,-212.8 1322.62,-180 1319.77,-177.86 1144.02,-157.06 1036.46,-144.5"/>
<polygon fill="#63b8ff" stroke="#63b8ff" points="1037.15,-141.06 1026.81,-143.38 1036.34,-148.01 1037.15,-141.06"/>
</a>
</g>
</g>
<!-- Node29 -->
<g id="Node000029" class="node">
<title>Node29</title>
<g id="a_Node000029"><a xlink:href="_base_skill_ability_8h.html" target="_top" xlink:title=" ">
<polygon fill="white" stroke="#666666" points="1762.38,-206 1618.88,-206 1618.88,-186 1762.38,-186 1762.38,-206"/>
<text xml:space="preserve" text-anchor="middle" x="1690.62" y="-192.5" font-family="Helvetica,sans-Serif" font-size="10.00">Skill/Ability/BaseSkillAbility.h</text>
</a>
</g>
</g>
<!-- Node1&#45;&gt;Node29 -->
<g id="edge42_Node000001_Node000029" class="edge">
<title>Node1&#45;&gt;Node29</title>
<g id="a_edge42_Node000001_Node000029"><a xlink:title=" ">
<path fill="none" stroke="#63b8ff" d="M1448.68,-315.54C1511.69,-284.67 1611.63,-235.7 1661.01,-211.51"/>
<polygon fill="#63b8ff" stroke="#63b8ff" points="1662.51,-214.67 1669.95,-207.13 1659.43,-208.39 1662.51,-214.67"/>
</a>
</g>
</g>
<!-- Node33 -->
<g id="Node000033" class="node">
<title>Node33</title>
<g id="a_Node000033"><a xlink:href="_skill_buff_system_statics_8h.html" target="_top" xlink:title=" ">
<polygon fill="white" stroke="#666666" points="2243.88,-274 2097.38,-274 2097.38,-254 2243.88,-254 2243.88,-274"/>
<text xml:space="preserve" text-anchor="middle" x="2170.62" y="-260.5" font-family="Helvetica,sans-Serif" font-size="10.00">Skill/SkillBuffSystemStatics.h</text>
</a>
</g>
</g>
<!-- Node1&#45;&gt;Node33 -->
<g id="edge48_Node000001_Node000033" class="edge">
<title>Node1&#45;&gt;Node33</title>
<g id="a_edge48_Node000001_Node000033"><a xlink:title=" ">
<path fill="none" stroke="#63b8ff" d="M1465.12,-335.73C1609.38,-321.27 1931.74,-288.95 2085.66,-273.52"/>
<polygon fill="#63b8ff" stroke="#63b8ff" points="2085.79,-277.02 2095.39,-272.54 2085.09,-270.06 2085.79,-277.02"/>
</a>
</g>
</g>
<!-- Node43 -->
<g id="Node000043" class="node">
<title>Node43</title>
<g id="a_Node000043"><a xlink:title=" ">
<polygon fill="#e0e0e0" stroke="#999999" points="2399,-280 2262.25,-280 2262.25,-248 2399,-248 2399,-280"/>
<text xml:space="preserve" text-anchor="start" x="2270.25" y="-266.5" font-family="Helvetica,sans-Serif" font-size="10.00">Tests/MovieSceneTestData</text>
<text xml:space="preserve" text-anchor="middle" x="2330.62" y="-254.5" font-family="Helvetica,sans-Serif" font-size="10.00">Builders.h</text>
</a>
</g>
</g>
<!-- Node1&#45;&gt;Node43 -->
<g id="edge67_Node000001_Node000043" class="edge">
<title>Node1&#45;&gt;Node43</title>
<g id="a_edge67_Node000001_Node000043"><a xlink:title=" ">
<path fill="none" stroke="#63b8ff" d="M1465.12,-340.55C1611.68,-334.98 1953.81,-318.82 2250.8,-280.13"/>
<polygon fill="#63b8ff" stroke="#63b8ff" points="2250.83,-283.66 2260.29,-278.89 2249.92,-276.72 2250.83,-283.66"/>
</a>
</g>
</g>
<!-- Node3 -->
<g id="Node000003" class="node">
<title>Node3</title>
<g id="a_Node000003"><a xlink:title=" ">
<polygon fill="#e0e0e0" stroke="#999999" points="1460.12,-20 1381.12,-20 1381.12,0 1460.12,0 1460.12,-20"/>
<text xml:space="preserve" text-anchor="middle" x="1420.62" y="-6.5" font-family="Helvetica,sans-Serif" font-size="10.00">CoreMinimal.h</text>
</a>
</g>
</g>
<!-- Node2&#45;&gt;Node3 -->
<g id="edge2_Node000002_Node000003" class="edge">
<title>Node2&#45;&gt;Node3</title>
<g id="a_edge2_Node000002_Node000003"><a xlink:title=" ">
<path fill="none" stroke="#63b8ff" d="M1438.66,-185.62C1435.72,-157.14 1426.84,-71.15 1422.74,-31.47"/>
<polygon fill="#63b8ff" stroke="#63b8ff" points="1426.23,-31.23 1421.72,-21.65 1419.27,-31.95 1426.23,-31.23"/>
</a>
</g>
</g>
<!-- Node4 -->
<g id="Node000004" class="node">
<title>Node4</title>
<g id="a_Node000004"><a xlink:title=" ">
<polygon fill="#e0e0e0" stroke="#999999" points="1198.75,-144 1042.5,-144 1042.5,-124 1198.75,-124 1198.75,-144"/>
<text xml:space="preserve" text-anchor="middle" x="1120.62" y="-130.5" font-family="Helvetica,sans-Serif" font-size="10.00">Components/ActorComponent.h</text>
</a>
</g>
</g>
<!-- Node2&#45;&gt;Node4 -->
<g id="edge3_Node000002_Node000004" class="edge">
<title>Node2&#45;&gt;Node4</title>
<g id="a_edge3_Node000002_Node000004"><a xlink:title=" ">
<path fill="none" stroke="#63b8ff" d="M1389.9,-185.54C1380.19,-183.7 1370.09,-181.79 1360.62,-180 1300.08,-168.58 1230.92,-155.62 1182.44,-146.55"/>
<polygon fill="#63b8ff" stroke="#63b8ff" points="1183.16,-143.12 1172.69,-144.73 1181.87,-150 1183.16,-143.12"/>
</a>
</g>
</g>
<!-- Node5 -->
<g id="Node000005" class="node">
<title>Node5</title>
<g id="a_Node000005"><a xlink:title=" ">
<polygon fill="#e0e0e0" stroke="#999999" points="1566.62,-82 1448.62,-82 1448.62,-62 1566.62,-62 1566.62,-82"/>
<text xml:space="preserve" text-anchor="middle" x="1507.62" y="-68.5" font-family="Helvetica,sans-Serif" font-size="10.00">GameplayAbilitySpec.h</text>
</a>
</g>
</g>
<!-- Node2&#45;&gt;Node5 -->
<g id="edge4_Node000002_Node000005" class="edge">
<title>Node2&#45;&gt;Node5</title>
<g id="a_edge4_Node000002_Node000005"><a xlink:title=" ">
<path fill="none" stroke="#63b8ff" d="M1444.43,-185.74C1451.52,-172.13 1465.31,-145.94 1477.62,-124 1483.62,-113.33 1490.53,-101.54 1496.21,-91.99"/>
<polygon fill="#63b8ff" stroke="#63b8ff" points="1499.08,-94.01 1501.21,-83.63 1493.07,-90.42 1499.08,-94.01"/>
</a>
</g>
</g>
<!-- Node6 -->
<g id="Node000006" class="node">
<title>Node6</title>
<g id="a_Node000006"><a xlink:title=" ">
<polygon fill="#e0e0e0" stroke="#999999" points="2291.38,-82 2189.88,-82 2189.88,-62 2291.38,-62 2291.38,-82"/>
<text xml:space="preserve" text-anchor="middle" x="2240.62" y="-68.5" font-family="Helvetica,sans-Serif" font-size="10.00">Engine/DataTable.h</text>
</a>
</g>
</g>
<!-- Node2&#45;&gt;Node6 -->
<g id="edge5_Node000002_Node000006" class="edge">
<title>Node2&#45;&gt;Node6</title>
<g id="a_edge5_Node000002_Node000006"><a xlink:title=" ">
<path fill="none" stroke="#63b8ff" d="M1470.26,-185.62C1530.54,-167.2 1660.57,-127.8 1681.62,-124 1900.44,-84.48 1961.06,-123.1 2180.62,-88 2185.65,-87.2 2190.87,-86.18 2196.05,-85.05"/>
<polygon fill="#63b8ff" stroke="#63b8ff" points="2196.78,-88.47 2205.72,-82.79 2195.19,-81.65 2196.78,-88.47"/>
</a>
</g>
</g>
<!-- Node7 -->
<g id="Node000007" class="node">
<title>Node7</title>
<g id="a_Node000007"><a xlink:href="_skill_data_8h.html" target="_top" xlink:title=" ">
<polygon fill="white" stroke="#666666" points="1596.5,-144 1486.75,-144 1486.75,-124 1596.5,-124 1596.5,-144"/>
<text xml:space="preserve" text-anchor="middle" x="1541.62" y="-130.5" font-family="Helvetica,sans-Serif" font-size="10.00">Skill/Data/SkillData.h</text>
</a>
</g>
</g>
<!-- Node2&#45;&gt;Node7 -->
<g id="edge6_Node000002_Node000007" class="edge">
<title>Node2&#45;&gt;Node7</title>
<g id="a_edge6_Node000002_Node000007"><a xlink:title=" ">
<path fill="none" stroke="#63b8ff" d="M1455.56,-185.62C1471.73,-176.11 1497.01,-161.24 1516,-150.08"/>
<polygon fill="#63b8ff" stroke="#63b8ff" points="1517.65,-153.16 1524.49,-145.08 1514.1,-147.13 1517.65,-153.16"/>
</a>
</g>
</g>
<!-- Node10 -->
<g id="Node000010" class="node">
<title>Node10</title>
<g id="a_Node000010"><a xlink:title=" ">
<polygon fill="#e0e0e0" stroke="#999999" points="1392.88,-144 1216.38,-144 1216.38,-124 1392.88,-124 1392.88,-144"/>
<text xml:space="preserve" text-anchor="middle" x="1304.62" y="-130.5" font-family="Helvetica,sans-Serif" font-size="10.00">SkillManagerComponent.generated.h</text>
</a>
</g>
</g>
<!-- Node2&#45;&gt;Node10 -->
<g id="edge12_Node000002_Node000010" class="edge">
<title>Node2&#45;&gt;Node10</title>
<g id="a_edge12_Node000002_Node000010"><a xlink:title=" ">
<path fill="none" stroke="#63b8ff" d="M1418.53,-185.62C1396.34,-175.76 1361.18,-160.13 1335.79,-148.85"/>
<polygon fill="#63b8ff" stroke="#63b8ff" points="1337.51,-145.79 1326.95,-144.92 1334.67,-152.18 1337.51,-145.79"/>
</a>
</g>
</g>
<!-- Node7&#45;&gt;Node3 -->
<g id="edge7_Node000007_Node000003" class="edge">
<title>Node7&#45;&gt;Node3</title>
<g id="a_edge7_Node000007_Node000003"><a xlink:title=" ">
<path fill="none" stroke="#63b8ff" d="M1596.88,-126.23C1656.25,-116.76 1737.79,-96.03 1703.62,-56 1674.39,-21.74 1544.94,-13.43 1471.66,-11.5"/>
<polygon fill="#63b8ff" stroke="#63b8ff" points="1472,-8.01 1461.92,-11.28 1471.84,-15.01 1472,-8.01"/>
</a>
</g>
</g>
<!-- Node7&#45;&gt;Node5 -->
<g id="edge9_Node000007_Node000005" class="edge">
<title>Node7&#45;&gt;Node5</title>
<g id="a_edge9_Node000007_Node000005"><a xlink:title=" ">
<path fill="none" stroke="#63b8ff" d="M1536.31,-123.62C1531.54,-115.21 1524.4,-102.6 1518.43,-92.07"/>
<polygon fill="#63b8ff" stroke="#63b8ff" points="1521.51,-90.4 1513.54,-83.43 1515.42,-93.86 1521.51,-90.4"/>
</a>
</g>
</g>
<!-- Node7&#45;&gt;Node6 -->
<g id="edge8_Node000007_Node000006" class="edge">
<title>Node7&#45;&gt;Node6</title>
<g id="a_edge8_Node000007_Node000006"><a xlink:title=" ">
<path fill="none" stroke="#63b8ff" d="M1596.87,-128.18C1613.5,-126.78 1631.8,-125.28 1648.62,-124 1884.93,-106.07 1946.53,-124.88 2180.62,-88 2185.65,-87.21 2190.88,-86.19 2196.05,-85.07"/>
<polygon fill="#63b8ff" stroke="#63b8ff" points="2196.78,-88.49 2205.73,-82.81 2195.2,-81.67 2196.78,-88.49"/>
</a>
</g>
</g>
<!-- Node8 -->
<g id="Node000008" class="node">
<title>Node8</title>
<g id="a_Node000008"><a xlink:title=" ">
<polygon fill="#e0e0e0" stroke="#999999" points="2171.75,-82 2045.5,-82 2045.5,-62 2171.75,-62 2171.75,-82"/>
<text xml:space="preserve" text-anchor="middle" x="2108.62" y="-68.5" font-family="Helvetica,sans-Serif" font-size="10.00">GameplayTagContainer.h</text>
</a>
</g>
</g>
<!-- Node7&#45;&gt;Node8 -->
<g id="edge10_Node000007_Node000008" class="edge">
<title>Node7&#45;&gt;Node8</title>
<g id="a_edge10_Node000007_Node000008"><a xlink:title=" ">
<path fill="none" stroke="#63b8ff" d="M1596.76,-127.17C1699.11,-116.34 1918.5,-93.12 2034,-80.9"/>
<polygon fill="#63b8ff" stroke="#63b8ff" points="2034.11,-84.41 2043.68,-79.87 2033.37,-77.44 2034.11,-84.41"/>
</a>
</g>
</g>
<!-- Node9 -->
<g id="Node000009" class="node">
<title>Node9</title>
<g id="a_Node000009"><a xlink:title=" ">
<polygon fill="#e0e0e0" stroke="#999999" points="1694.5,-82 1584.75,-82 1584.75,-62 1694.5,-62 1694.5,-82"/>
<text xml:space="preserve" text-anchor="middle" x="1639.62" y="-68.5" font-family="Helvetica,sans-Serif" font-size="10.00">SkillData.generated.h</text>
</a>
</g>
</g>
<!-- Node7&#45;&gt;Node9 -->
<g id="edge11_Node000007_Node000009" class="edge">
<title>Node7&#45;&gt;Node9</title>
<g id="a_edge11_Node000007_Node000009"><a xlink:title=" ">
<path fill="none" stroke="#63b8ff" d="M1556.94,-123.62C1572.4,-114.16 1596.54,-99.38 1614.75,-88.23"/>
<polygon fill="#63b8ff" stroke="#63b8ff" points="1616.43,-91.31 1623.13,-83.1 1612.77,-85.34 1616.43,-91.31"/>
</a>
</g>
</g>
<!-- Node13&#45;&gt;Node3 -->
<g id="edge16_Node000013_Node000003" class="edge">
<title>Node13&#45;&gt;Node3</title>
<g id="a_edge16_Node000013_Node000003"><a xlink:title=" ">
<path fill="none" stroke="#63b8ff" d="M708.34,-130.28C809.92,-125.54 991.55,-113.69 1051.62,-88 1071.93,-79.32 1069.44,-64.95 1089.62,-56 1138.64,-34.26 1289.53,-20.45 1369.56,-14.45"/>
<polygon fill="#63b8ff" stroke="#63b8ff" points="1369.61,-17.96 1379.32,-13.74 1369.09,-10.98 1369.61,-17.96"/>
</a>
</g>
</g>
<!-- Node13&#45;&gt;Node8 -->
<g id="edge18_Node000013_Node000008" class="edge">
<title>Node13&#45;&gt;Node8</title>
<g id="a_edge18_Node000013_Node000008"><a xlink:title=" ">
<path fill="none" stroke="#63b8ff" d="M708.08,-130.13C955.01,-120.05 1780.02,-86.4 2033.74,-76.05"/>
<polygon fill="#63b8ff" stroke="#63b8ff" points="2033.66,-79.56 2043.51,-75.66 2033.38,-72.57 2033.66,-79.56"/>
</a>
</g>
</g>
<!-- Node13&#45;&gt;Node12 -->
<g id="edge17_Node000013_Node000012" class="edge">
<title>Node13&#45;&gt;Node12</title>
<g id="a_edge17_Node000013_Node000012"><a xlink:title=" ">
<path fill="none" stroke="#63b8ff" d="M566.96,-131.84C425.28,-128.85 116.91,-118.86 80.62,-88 64.59,-74.36 60.93,-49.55 60.58,-31.77"/>
<polygon fill="#63b8ff" stroke="#63b8ff" points="64.08,-31.91 60.76,-21.85 57.08,-31.78 64.08,-31.91"/>
</a>
</g>
</g>
<!-- Node14 -->
<g id="Node000014" class="node">
<title>Node14</title>
<g id="a_Node000014"><a xlink:href="_component_owner_interface_8h.html" target="_top" xlink:title=" ">
<polygon fill="white" stroke="#666666" points="703.38,-88 571.88,-88 571.88,-56 703.38,-56 703.38,-88"/>
<text xml:space="preserve" text-anchor="start" x="579.88" y="-74.5" font-family="Helvetica,sans-Serif" font-size="10.00">Core/Interface/Component</text>
<text xml:space="preserve" text-anchor="middle" x="637.62" y="-62.5" font-family="Helvetica,sans-Serif" font-size="10.00">OwnerInterface.h</text>
</a>
</g>
</g>
<!-- Node13&#45;&gt;Node14 -->
<g id="edge19_Node000013_Node000014" class="edge">
<title>Node13&#45;&gt;Node14</title>
<g id="a_edge19_Node000013_Node000014"><a xlink:title=" ">
<path fill="none" stroke="#63b8ff" d="M637.62,-123.62C637.62,-117.1 637.62,-108.05 637.62,-99.4"/>
<polygon fill="#63b8ff" stroke="#63b8ff" points="641.13,-99.65 637.63,-89.65 634.13,-99.65 641.13,-99.65"/>
</a>
</g>
</g>
<!-- Node17 -->
<g id="Node000017" class="node">
<title>Node17</title>
<g id="a_Node000017"><a xlink:title=" ">
<polygon fill="#e0e0e0" stroke="#999999" points="401.25,-82 248,-82 248,-62 401.25,-62 401.25,-82"/>
<text xml:space="preserve" text-anchor="middle" x="324.62" y="-68.5" font-family="Helvetica,sans-Serif" font-size="10.00">GameFramework/PlayerState.h</text>
</a>
</g>
</g>
<!-- Node13&#45;&gt;Node17 -->
<g id="edge23_Node000013_Node000017" class="edge">
<title>Node13&#45;&gt;Node17</title>
<g id="a_edge23_Node000013_Node000017"><a xlink:title=" ">
<path fill="none" stroke="#63b8ff" d="M588.37,-123.56C533.38,-113.02 444.36,-95.95 385.16,-84.6"/>
<polygon fill="#63b8ff" stroke="#63b8ff" points="386.07,-81.22 375.59,-82.77 384.75,-88.09 386.07,-81.22"/>
</a>
</g>
</g>
<!-- Node18 -->
<g id="Node000018" class="node">
<title>Node18</title>
<g id="a_Node000018"><a xlink:title=" ">
<polygon fill="#e0e0e0" stroke="#999999" points="229.88,-82 89.38,-82 89.38,-62 229.88,-62 229.88,-82"/>
<text xml:space="preserve" text-anchor="middle" x="159.62" y="-68.5" font-family="Helvetica,sans-Serif" font-size="10.00">KPTPlayerState.generated.h</text>
</a>
</g>
</g>
<!-- Node13&#45;&gt;Node18 -->
<g id="edge24_Node000013_Node000018" class="edge">
<title>Node13&#45;&gt;Node18</title>
<g id="a_edge24_Node000013_Node000018"><a xlink:title=" ">
<path fill="none" stroke="#63b8ff" d="M567.14,-126.67C487.25,-119.12 353.22,-105.32 238.62,-88 231.74,-86.96 224.54,-85.76 217.41,-84.49"/>
<polygon fill="#63b8ff" stroke="#63b8ff" points="218.27,-81.09 207.8,-82.74 217.01,-87.98 218.27,-81.09"/>
</a>
</g>
</g>
<!-- Node14&#45;&gt;Node3 -->
<g id="edge20_Node000014_Node000003" class="edge">
<title>Node14&#45;&gt;Node3</title>
<g id="a_edge20_Node000014_Node000003"><a xlink:title=" ">
<path fill="none" stroke="#63b8ff" d="M703.71,-57.14C706.38,-56.73 709.03,-56.34 711.62,-56 839.03,-39.13 1228.83,-19.9 1369.4,-13.34"/>
<polygon fill="#63b8ff" stroke="#63b8ff" points="1369.32,-16.85 1379.14,-12.89 1368.99,-9.85 1369.32,-16.85"/>
</a>
</g>
</g>
<!-- Node15 -->
<g id="Node000015" class="node">
<title>Node15</title>
<g id="a_Node000015"><a xlink:title=" ">
<polygon fill="#e0e0e0" stroke="#999999" points="1004.38,-20 902.88,-20 902.88,0 1004.38,0 1004.38,-20"/>
<text xml:space="preserve" text-anchor="middle" x="953.62" y="-6.5" font-family="Helvetica,sans-Serif" font-size="10.00">UObject/Interface.h</text>
</a>
</g>
</g>
<!-- Node14&#45;&gt;Node15 -->
<g id="edge21_Node000014_Node000015" class="edge">
<title>Node14&#45;&gt;Node15</title>
<g id="a_edge21_Node000014_Node000015"><a xlink:title=" ">
<path fill="none" stroke="#63b8ff" d="M703.78,-57.54C706.43,-57.01 709.05,-56.5 711.62,-56 772.73,-44.13 842.64,-31.2 891.56,-22.26"/>
<polygon fill="#63b8ff" stroke="#63b8ff" points="891.89,-25.75 901.1,-20.51 890.64,-18.87 891.89,-25.75"/>
</a>
</g>
</g>
<!-- Node16 -->
<g id="Node000016" class="node">
<title>Node16</title>
<g id="a_Node000016"><a xlink:title=" ">
<polygon fill="#e0e0e0" stroke="#999999" points="698.12,-20 511.12,-20 511.12,0 698.12,0 698.12,-20"/>
<text xml:space="preserve" text-anchor="middle" x="604.62" y="-6.5" font-family="Helvetica,sans-Serif" font-size="10.00">ComponentOwnerInterface.generated.h</text>
</a>
</g>
</g>
<!-- Node14&#45;&gt;Node16 -->
<g id="edge22_Node000014_Node000016" class="edge">
<title>Node14&#45;&gt;Node16</title>
<g id="a_edge22_Node000014_Node000016"><a xlink:title=" ">
<path fill="none" stroke="#63b8ff" d="M629.13,-55.55C624.93,-47.91 619.81,-38.61 615.34,-30.49"/>
<polygon fill="#63b8ff" stroke="#63b8ff" points="618.41,-28.81 610.53,-21.73 612.28,-32.18 618.41,-28.81"/>
</a>
</g>
</g>
<!-- Node19&#45;&gt;Node3 -->
<g id="edge26_Node000019_Node000003" class="edge">
<title>Node19&#45;&gt;Node3</title>
<g id="a_edge26_Node000019_Node000003"><a xlink:title=" ">
<path fill="none" stroke="#63b8ff" d="M1025.26,-124.94C1028.08,-124.62 1030.88,-124.31 1033.62,-124 1106.94,-115.82 1299.65,-124.73 1363.62,-88 1386.33,-74.96 1402.67,-48.84 1411.88,-30.66"/>
<polygon fill="#63b8ff" stroke="#63b8ff" points="1415.02,-32.21 1416.15,-21.68 1408.69,-29.21 1415.02,-32.21"/>
</a>
</g>
</g>
<!-- Node20 -->
<g id="Node000020" class="node">
<title>Node20</title>
<g id="a_Node000020"><a xlink:href="_character_base_8h.html" target="_top" xlink:title=" ">
<polygon fill="white" stroke="#666666" points="554.25,-82 419,-82 419,-62 554.25,-62 554.25,-82"/>
<text xml:space="preserve" text-anchor="middle" x="486.62" y="-68.5" font-family="Helvetica,sans-Serif" font-size="10.00">Character/CharacterBase.h</text>
</a>
</g>
</g>
<!-- Node19&#45;&gt;Node20 -->
<g id="edge27_Node000019_Node000020" class="edge">
<title>Node19&#45;&gt;Node20</title>
<g id="a_edge27_Node000019_Node000020"><a xlink:title=" ">
<path fill="none" stroke="#63b8ff" d="M883.94,-126.62C805.26,-119.11 674.48,-105.43 562.62,-88 556.16,-86.99 549.4,-85.82 542.69,-84.6"/>
<polygon fill="#63b8ff" stroke="#63b8ff" points="543.49,-81.18 533.02,-82.77 542.19,-88.06 543.49,-81.18"/>
</a>
</g>
</g>
<!-- Node23 -->
<g id="Node000023" class="node">
<title>Node23</title>
<g id="a_Node000023"><a xlink:title=" ">
<polygon fill="#e0e0e0" stroke="#999999" points="1196.5,-82 1098.75,-82 1098.75,-62 1196.5,-62 1196.5,-82"/>
<text xml:space="preserve" text-anchor="middle" x="1147.62" y="-68.5" font-family="Helvetica,sans-Serif" font-size="10.00">InputActionValue.h</text>
</a>
</g>
</g>
<!-- Node19&#45;&gt;Node23 -->
<g id="edge32_Node000019_Node000023" class="edge">
<title>Node19&#45;&gt;Node23</title>
<g id="a_edge32_Node000019_Node000023"><a xlink:title=" ">
<path fill="none" stroke="#63b8ff" d="M984.78,-123.62C1017.54,-113.44 1070.08,-97.11 1106.59,-85.76"/>
<polygon fill="#63b8ff" stroke="#63b8ff" points="1107.41,-89.17 1115.92,-82.86 1105.33,-82.48 1107.41,-89.17"/>
</a>
</g>
</g>
<!-- Node24 -->
<g id="Node000024" class="node">
<title>Node24</title>
<g id="a_Node000024"><a xlink:href="_combat_interface_8h.html" target="_top" xlink:title=" ">
<polygon fill="white" stroke="#666666" points="1042.75,-82 880.5,-82 880.5,-62 1042.75,-62 1042.75,-82"/>
<text xml:space="preserve" text-anchor="middle" x="961.62" y="-68.5" font-family="Helvetica,sans-Serif" font-size="10.00">Core/Interface/CombatInterface.h</text>
</a>
</g>
</g>
<!-- Node19&#45;&gt;Node24 -->
<g id="edge33_Node000019_Node000024" class="edge">
<title>Node19&#45;&gt;Node24</title>
<g id="a_edge33_Node000019_Node000024"><a xlink:title=" ">
<path fill="none" stroke="#63b8ff" d="M955.72,-123.62C956.66,-115.56 958.05,-103.65 959.24,-93.41"/>
<polygon fill="#63b8ff" stroke="#63b8ff" points="962.7,-93.95 960.39,-83.62 955.75,-93.14 962.7,-93.95"/>
</a>
</g>
</g>
<!-- Node26 -->
<g id="Node000026" class="node">
<title>Node26</title>
<g id="a_Node000026"><a xlink:href="_k_p_t_pausable_interface_8h.html" target="_top" xlink:title=" ">
<polygon fill="white" stroke="#666666" points="862.25,-88 721,-88 721,-56 862.25,-56 862.25,-88"/>
<text xml:space="preserve" text-anchor="start" x="729" y="-74.5" font-family="Helvetica,sans-Serif" font-size="10.00">Core/Interface/KPTPausable</text>
<text xml:space="preserve" text-anchor="middle" x="791.62" y="-62.5" font-family="Helvetica,sans-Serif" font-size="10.00">Interface.h</text>
</a>
</g>
</g>
<!-- Node19&#45;&gt;Node26 -->
<g id="edge37_Node000019_Node000026" class="edge">
<title>Node19&#45;&gt;Node26</title>
<g id="a_edge37_Node000019_Node000026"><a xlink:title=" ">
<path fill="none" stroke="#63b8ff" d="M929.16,-123.62C906.53,-115.3 872.73,-102.86 844.31,-92.39"/>
<polygon fill="#63b8ff" stroke="#63b8ff" points="845.72,-89.18 835.13,-89.01 843.3,-95.75 845.72,-89.18"/>
</a>
</g>
</g>
<!-- Node28 -->
<g id="Node000028" class="node">
<title>Node28</title>
<g id="a_Node000028"><a xlink:title=" ">
<polygon fill="#e0e0e0" stroke="#999999" points="1354.88,-82 1214.38,-82 1214.38,-62 1354.88,-62 1354.88,-82"/>
<text xml:space="preserve" text-anchor="middle" x="1284.62" y="-68.5" font-family="Helvetica,sans-Serif" font-size="10.00">PlayerCharacter.generated.h</text>
</a>
</g>
</g>
<!-- Node19&#45;&gt;Node28 -->
<g id="edge41_Node000019_Node000028" class="edge">
<title>Node19&#45;&gt;Node28</title>
<g id="a_edge41_Node000019_Node000028"><a xlink:title=" ">
<path fill="none" stroke="#63b8ff" d="M1008.51,-123.5C1059.36,-114.5 1137.71,-100.54 1205.62,-88 1211.63,-86.89 1217.89,-85.72 1224.14,-84.55"/>
<polygon fill="#63b8ff" stroke="#63b8ff" points="1224.67,-88.01 1233.85,-82.72 1223.37,-81.13 1224.67,-88.01"/>
</a>
</g>
</g>
<!-- Node20&#45;&gt;Node3 -->
<g id="edge28_Node000020_Node000003" class="edge">
<title>Node20&#45;&gt;Node3</title>
<g id="a_edge28_Node000020_Node000003"><a xlink:title=" ">
<path fill="none" stroke="#63b8ff" d="M529.06,-61.52C539.95,-59.39 551.68,-57.36 562.62,-56 720.21,-36.42 1209.2,-18.28 1369.3,-12.73"/>
<polygon fill="#63b8ff" stroke="#63b8ff" points="1369.31,-16.23 1379.18,-12.39 1369.07,-9.24 1369.31,-16.23"/>
</a>
</g>
</g>
<!-- Node20&#45;&gt;Node12 -->
<g id="edge29_Node000020_Node000012" class="edge">
<title>Node20&#45;&gt;Node12</title>
<g id="a_edge29_Node000020_Node000012"><a xlink:title=" ">
<path fill="none" stroke="#63b8ff" d="M441.3,-61.54C431.23,-59.58 420.58,-57.62 410.62,-56 315.62,-40.52 205.35,-27.05 134.6,-18.97"/>
<polygon fill="#63b8ff" stroke="#63b8ff" points="135.42,-15.55 125.09,-17.9 134.63,-22.5 135.42,-15.55"/>
</a>
</g>
</g>
<!-- Node21 -->
<g id="Node000021" class="node">
<title>Node21</title>
<g id="a_Node000021"><a xlink:title=" ">
<polygon fill="#e0e0e0" stroke="#999999" points="493.12,-20 348.12,-20 348.12,0 493.12,0 493.12,-20"/>
<text xml:space="preserve" text-anchor="middle" x="420.62" y="-6.5" font-family="Helvetica,sans-Serif" font-size="10.00">GameFramework/Character.h</text>
</a>
</g>
</g>
<!-- Node20&#45;&gt;Node21 -->
<g id="edge30_Node000020_Node000021" class="edge">
<title>Node20&#45;&gt;Node21</title>
<g id="a_edge30_Node000020_Node000021"><a xlink:title=" ">
<path fill="none" stroke="#63b8ff" d="M476.31,-61.62C466.37,-52.59 451.11,-38.72 439.08,-27.78"/>
<polygon fill="#63b8ff" stroke="#63b8ff" points="441.52,-25.27 431.77,-21.13 436.81,-30.45 441.52,-25.27"/>
</a>
</g>
</g>
<!-- Node22 -->
<g id="Node000022" class="node">
<title>Node22</title>
<g id="a_Node000022"><a xlink:title=" ">
<polygon fill="#e0e0e0" stroke="#999999" points="330.25,-20 195,-20 195,0 330.25,0 330.25,-20"/>
<text xml:space="preserve" text-anchor="middle" x="262.62" y="-6.5" font-family="Helvetica,sans-Serif" font-size="10.00">CharacterBase.generated.h</text>
</a>
</g>
</g>
<!-- Node20&#45;&gt;Node22 -->
<g id="edge31_Node000020_Node000022" class="edge">
<title>Node20&#45;&gt;Node22</title>
<g id="a_edge31_Node000020_Node000022"><a xlink:title=" ">
<path fill="none" stroke="#63b8ff" d="M451.62,-61.62C413.11,-51.31 351.04,-34.68 308.62,-23.32"/>
<polygon fill="#63b8ff" stroke="#63b8ff" points="309.78,-20.01 299.21,-20.8 307.96,-26.77 309.78,-20.01"/>
</a>
</g>
</g>
<!-- Node24&#45;&gt;Node3 -->
<g id="edge34_Node000024_Node000003" class="edge">
<title>Node24&#45;&gt;Node3</title>
<g id="a_edge34_Node000024_Node000003"><a xlink:title=" ">
<path fill="none" stroke="#63b8ff" d="M1019.61,-61.53C1031.82,-59.62 1044.64,-57.69 1056.62,-56 1168.02,-40.32 1299.02,-24.85 1369.51,-16.77"/>
<polygon fill="#63b8ff" stroke="#63b8ff" points="1369.67,-20.28 1379.21,-15.66 1368.87,-13.32 1369.67,-20.28"/>
</a>
</g>
</g>
<!-- Node24&#45;&gt;Node15 -->
<g id="edge35_Node000024_Node000015" class="edge">
<title>Node24&#45;&gt;Node15</title>
<g id="a_edge35_Node000024_Node000015"><a xlink:title=" ">
<path fill="none" stroke="#63b8ff" d="M960.38,-61.62C959.3,-53.56 957.71,-41.65 956.35,-31.41"/>
<polygon fill="#63b8ff" stroke="#63b8ff" points="959.83,-31.06 955.04,-21.61 952.89,-31.99 959.83,-31.06"/>
</a>
</g>
</g>
<!-- Node25 -->
<g id="Node000025" class="node">
<title>Node25</title>
<g id="a_Node000025"><a xlink:title=" ">
<polygon fill="#e0e0e0" stroke="#999999" points="1165,-20 1022.25,-20 1022.25,0 1165,0 1165,-20"/>
<text xml:space="preserve" text-anchor="middle" x="1093.62" y="-6.5" font-family="Helvetica,sans-Serif" font-size="10.00">CombatInterface.generated.h</text>
</a>
</g>
</g>
<!-- Node24&#45;&gt;Node25 -->
<g id="edge36_Node000024_Node000025" class="edge">
<title>Node24&#45;&gt;Node25</title>
<g id="a_edge36_Node000024_Node000025"><a xlink:title=" ">
<path fill="none" stroke="#63b8ff" d="M982.25,-61.62C1003.85,-51.81 1038.02,-36.27 1062.82,-25"/>
<polygon fill="#63b8ff" stroke="#63b8ff" points="1064.11,-28.26 1071.77,-20.94 1061.21,-21.89 1064.11,-28.26"/>
</a>
</g>
</g>
<!-- Node26&#45;&gt;Node3 -->
<g id="edge38_Node000026_Node000003" class="edge">
<title>Node26&#45;&gt;Node3</title>
<g id="a_edge38_Node000026_Node000003"><a xlink:title=" ">
<path fill="none" stroke="#63b8ff" d="M862.66,-57.29C865.69,-56.83 868.68,-56.4 871.62,-56 1054.01,-31.49 1272.4,-18.4 1369.61,-13.41"/>
<polygon fill="#63b8ff" stroke="#63b8ff" points="1369.54,-16.92 1379.35,-12.92 1369.18,-9.93 1369.54,-16.92"/>
</a>
</g>
</g>
<!-- Node26&#45;&gt;Node15 -->
<g id="edge39_Node000026_Node000015" class="edge">
<title>Node26&#45;&gt;Node15</title>
<g id="a_edge39_Node000026_Node000015"><a xlink:title=" ">
<path fill="none" stroke="#63b8ff" d="M833.34,-55.55C859.48,-45.87 892.81,-33.53 917.75,-24.29"/>
<polygon fill="#63b8ff" stroke="#63b8ff" points="918.64,-27.69 926.8,-20.93 916.21,-21.12 918.64,-27.69"/>
</a>
</g>
</g>
<!-- Node27 -->
<g id="Node000027" class="node">
<title>Node27</title>
<g id="a_Node000027"><a xlink:title=" ">
<polygon fill="#e0e0e0" stroke="#999999" points="884.75,-20 716.5,-20 716.5,0 884.75,0 884.75,-20"/>
<text xml:space="preserve" text-anchor="middle" x="800.62" y="-6.5" font-family="Helvetica,sans-Serif" font-size="10.00">KPTPausableInterface.generated.h</text>
</a>
</g>
</g>
<!-- Node26&#45;&gt;Node27 -->
<g id="edge40_Node000026_Node000027" class="edge">
<title>Node26&#45;&gt;Node27</title>
<g id="a_edge40_Node000026_Node000027"><a xlink:title=" ">
<path fill="none" stroke="#63b8ff" d="M793.94,-55.55C795.04,-48.26 796.36,-39.45 797.53,-31.6"/>
<polygon fill="#63b8ff" stroke="#63b8ff" points="800.97,-32.31 798.99,-21.9 794.04,-31.27 800.97,-32.31"/>
</a>
</g>
</g>
<!-- Node29&#45;&gt;Node3 -->
<g id="edge43_Node000029_Node000003" class="edge">
<title>Node29&#45;&gt;Node3</title>
<g id="a_edge43_Node000029_Node000003"><a xlink:title=" ">
<path fill="none" stroke="#63b8ff" d="M1686.5,-185.81C1680.86,-171.83 1672.42,-144.66 1681.62,-124 1691.36,-102.15 1711.89,-109.85 1721.62,-88 1727.41,-75.01 1730.91,-66.77 1721.62,-56 1690.01,-19.31 1549.3,-12.09 1471.97,-10.95"/>
<polygon fill="#63b8ff" stroke="#63b8ff" points="1472.13,-7.45 1462.09,-10.84 1472.05,-14.45 1472.13,-7.45"/>
</a>
</g>
</g>
<!-- Node29&#45;&gt;Node7 -->
<g id="edge45_Node000029_Node000007" class="edge">
<title>Node29&#45;&gt;Node7</title>
<g id="a_edge45_Node000029_Node000007"><a xlink:title=" ">
<path fill="none" stroke="#63b8ff" d="M1667.34,-185.62C1642.63,-175.67 1603.35,-159.85 1575.27,-148.55"/>
<polygon fill="#63b8ff" stroke="#63b8ff" points="1576.73,-145.36 1566.15,-144.87 1574.12,-151.86 1576.73,-145.36"/>
</a>
</g>
</g>
<!-- Node30 -->
<g id="Node000030" class="node">
<title>Node30</title>
<g id="a_Node000030"><a xlink:title=" ">
<polygon fill="#e0e0e0" stroke="#999999" points="1822.75,-144 1690.5,-144 1690.5,-124 1822.75,-124 1822.75,-144"/>
<text xml:space="preserve" text-anchor="middle" x="1756.62" y="-130.5" font-family="Helvetica,sans-Serif" font-size="10.00">Abilities/GameplayAbility.h</text>
</a>
</g>
</g>
<!-- Node29&#45;&gt;Node30 -->
<g id="edge44_Node000029_Node000030" class="edge">
<title>Node29&#45;&gt;Node30</title>
<g id="a_edge44_Node000029_Node000030"><a xlink:title=" ">
<path fill="none" stroke="#63b8ff" d="M1700.94,-185.62C1710.88,-176.59 1726.14,-162.72 1738.17,-151.78"/>
<polygon fill="#63b8ff" stroke="#63b8ff" points="1740.44,-154.45 1745.48,-145.13 1735.73,-149.27 1740.44,-154.45"/>
</a>
</g>
</g>
<!-- Node31 -->
<g id="Node000031" class="node">
<title>Node31</title>
<g id="a_Node000031"><a xlink:title=" ">
<polygon fill="#e0e0e0" stroke="#999999" points="1948.75,-144 1840.5,-144 1840.5,-124 1948.75,-124 1948.75,-144"/>
<text xml:space="preserve" text-anchor="middle" x="1894.62" y="-130.5" font-family="Helvetica,sans-Serif" font-size="10.00">Net/UnrealNetwork.h</text>
</a>
</g>
</g>
<!-- Node29&#45;&gt;Node31 -->
<g id="edge46_Node000029_Node000031" class="edge">
<title>Node29&#45;&gt;Node31</title>
<g id="a_edge46_Node000029_Node000031"><a xlink:title=" ">
<path fill="none" stroke="#63b8ff" d="M1722.5,-185.62C1757.28,-175.4 1813.14,-158.97 1851.75,-147.61"/>
<polygon fill="#63b8ff" stroke="#63b8ff" points="1852.58,-151.01 1861.19,-144.84 1850.6,-144.3 1852.58,-151.01"/>
</a>
</g>
</g>
<!-- Node32 -->
<g id="Node000032" class="node">
<title>Node32</title>
<g id="a_Node000032"><a xlink:title=" ">
<polygon fill="#e0e0e0" stroke="#999999" points="2104.38,-144 1966.88,-144 1966.88,-124 2104.38,-124 2104.38,-144"/>
<text xml:space="preserve" text-anchor="middle" x="2035.62" y="-130.5" font-family="Helvetica,sans-Serif" font-size="10.00">BaseSkillAbility.generated.h</text>
</a>
</g>
</g>
<!-- Node29&#45;&gt;Node32 -->
<g id="edge47_Node000029_Node000032" class="edge">
<title>Node29&#45;&gt;Node32</title>
<g id="a_edge47_Node000029_Node000032"><a xlink:title=" ">
<path fill="none" stroke="#63b8ff" d="M1744.91,-185.56C1805.9,-174.95 1904.88,-157.74 1970.12,-146.39"/>
<polygon fill="#63b8ff" stroke="#63b8ff" points="1970.34,-149.91 1979.6,-144.74 1969.14,-143.01 1970.34,-149.91"/>
</a>
</g>
</g>
<!-- Node33&#45;&gt;Node3 -->
<g id="edge49_Node000033_Node000003" class="edge">
<title>Node33&#45;&gt;Node3</title>
<g id="a_edge49_Node000033_Node000003"><a xlink:title=" ">
<path fill="none" stroke="#63b8ff" d="M2168.06,-253.63C2160.1,-225.3 2135.11,-141.4 2113.62,-124 2063.53,-83.45 1623.23,-32.78 1471.64,-16.38"/>
<polygon fill="#63b8ff" stroke="#63b8ff" points="1472.22,-12.92 1461.9,-15.33 1471.47,-19.88 1472.22,-12.92"/>
</a>
</g>
</g>
<!-- Node33&#45;&gt;Node8 -->
<g id="edge51_Node000033_Node000008" class="edge">
<title>Node33&#45;&gt;Node8</title>
<g id="a_edge51_Node000033_Node000008"><a xlink:title=" ">
<path fill="none" stroke="#63b8ff" d="M2170.5,-253.81C2169.87,-230.91 2166.34,-169.9 2146.62,-124 2141.45,-111.95 2132.9,-100.11 2125.22,-90.87"/>
<polygon fill="#63b8ff" stroke="#63b8ff" points="2127.92,-88.65 2118.7,-83.43 2122.66,-93.26 2127.92,-88.65"/>
</a>
</g>
</g>
<!-- Node34 -->
<g id="Node000034" class="node">
<title>Node34</title>
<g id="a_Node000034"><a xlink:title=" ">
<polygon fill="#e0e0e0" stroke="#999999" points="2324.38,-212 2198.88,-212 2198.88,-180 2324.38,-180 2324.38,-212"/>
<text xml:space="preserve" text-anchor="start" x="2206.88" y="-198.5" font-family="Helvetica,sans-Serif" font-size="10.00">Kismet/BlueprintFunction</text>
<text xml:space="preserve" text-anchor="middle" x="2261.62" y="-186.5" font-family="Helvetica,sans-Serif" font-size="10.00">Library.h</text>
</a>
</g>
</g>
<!-- Node33&#45;&gt;Node34 -->
<g id="edge50_Node000033_Node000034" class="edge">
<title>Node33&#45;&gt;Node34</title>
<g id="a_edge50_Node000033_Node000034"><a xlink:title=" ">
<path fill="none" stroke="#63b8ff" d="M2183.66,-253.54C2196.07,-244.55 2215.2,-230.67 2231.4,-218.92"/>
<polygon fill="#63b8ff" stroke="#63b8ff" points="2233.26,-221.89 2239.3,-213.19 2229.15,-216.23 2233.26,-221.89"/>
</a>
</g>
</g>
<!-- Node35 -->
<g id="Node000035" class="node">
<title>Node35</title>
<g id="a_Node000035"><a xlink:href="_skill_buff_data_8h.html" target="_top" xlink:title=" ">
<polygon fill="white" stroke="#666666" points="2469.12,-206 2342.12,-206 2342.12,-186 2469.12,-186 2469.12,-206"/>
<text xml:space="preserve" text-anchor="middle" x="2405.62" y="-192.5" font-family="Helvetica,sans-Serif" font-size="10.00">Skill/Data/SkillBuffData.h</text>
</a>
</g>
</g>
<!-- Node33&#45;&gt;Node35 -->
<g id="edge52_Node000033_Node000035" class="edge">
<title>Node33&#45;&gt;Node35</title>
<g id="a_edge52_Node000033_Node000035"><a xlink:title=" ">
<path fill="none" stroke="#63b8ff" d="M2204.29,-253.54C2245.48,-241.98 2315.33,-222.36 2360.97,-209.54"/>
<polygon fill="#63b8ff" stroke="#63b8ff" points="2361.88,-212.92 2370.56,-206.85 2359.99,-206.18 2361.88,-212.92"/>
</a>
</g>
</g>
<!-- Node42 -->
<g id="Node000042" class="node">
<title>Node42</title>
<g id="a_Node000042"><a xlink:title=" ">
<polygon fill="#e0e0e0" stroke="#999999" points="2657.88,-206 2487.38,-206 2487.38,-186 2657.88,-186 2657.88,-206"/>
<text xml:space="preserve" text-anchor="middle" x="2572.62" y="-192.5" font-family="Helvetica,sans-Serif" font-size="10.00">SkillBuffSystemStatics.generated.h</text>
</a>
</g>
</g>
<!-- Node33&#45;&gt;Node42 -->
<g id="edge66_Node000033_Node000042" class="edge">
<title>Node33&#45;&gt;Node42</title>
<g id="a_edge66_Node000033_Node000042"><a xlink:title=" ">
<path fill="none" stroke="#63b8ff" d="M2221.96,-253.56C2232.43,-251.68 2243.38,-249.75 2253.62,-248 2259.75,-246.96 2410.09,-222.95 2502.16,-208.25"/>
<polygon fill="#63b8ff" stroke="#63b8ff" points="2502.55,-211.73 2511.87,-206.7 2501.44,-204.82 2502.55,-211.73"/>
</a>
</g>
</g>
<!-- Node35&#45;&gt;Node3 -->
<g id="edge53_Node000035_Node000003" class="edge">
<title>Node35&#45;&gt;Node3</title>
<g id="a_edge53_Node000035_Node000003"><a xlink:title=" ">
<path fill="none" stroke="#63b8ff" d="M2389.67,-185.61C2375.29,-176.49 2354.36,-161.48 2340.62,-144 2314.08,-110.22 2336.14,-80.17 2300.62,-56 2232.14,-9.38 1649.4,-9.44 1471.8,-10.56"/>
<polygon fill="#63b8ff" stroke="#63b8ff" points="1471.94,-7.06 1461.96,-10.62 1471.99,-14.06 1471.94,-7.06"/>
</a>
</g>
</g>
<!-- Node35&#45;&gt;Node6 -->
<g id="edge54_Node000035_Node000006" class="edge">
<title>Node35&#45;&gt;Node6</title>
<g id="a_edge54_Node000035_Node000006"><a xlink:title=" ">
<path fill="none" stroke="#63b8ff" d="M2381.61,-185.65C2360.44,-176.75 2329.35,-162.06 2305.62,-144 2285.55,-128.72 2266.55,-106.78 2254.34,-91.34"/>
<polygon fill="#63b8ff" stroke="#63b8ff" points="2257.15,-89.25 2248.27,-83.47 2251.61,-93.53 2257.15,-89.25"/>
</a>
</g>
</g>
<!-- Node35&#45;&gt;Node8 -->
<g id="edge55_Node000035_Node000008" class="edge">
<title>Node35&#45;&gt;Node8</title>
<g id="a_edge55_Node000035_Node000008"><a xlink:title=" ">
<path fill="none" stroke="#63b8ff" d="M2382.38,-185.66C2357.07,-175.48 2315.43,-158.68 2279.62,-144 2231.59,-124.31 2176.09,-101.2 2141.68,-86.83"/>
<polygon fill="#63b8ff" stroke="#63b8ff" points="2143.25,-83.69 2132.68,-83.07 2140.55,-90.15 2143.25,-83.69"/>
</a>
</g>
</g>
<!-- Node36 -->
<g id="Node000036" class="node">
<title>Node36</title>
<g id="a_Node000036"><a xlink:href="_game_structs_8h.html" target="_top" xlink:title=" ">
<polygon fill="white" stroke="#666666" points="2455.62,-144 2349.62,-144 2349.62,-124 2455.62,-124 2455.62,-144"/>
<text xml:space="preserve" text-anchor="middle" x="2402.62" y="-130.5" font-family="Helvetica,sans-Serif" font-size="10.00">Data/GameStructs.h</text>
</a>
</g>
</g>
<!-- Node35&#45;&gt;Node36 -->
<g id="edge56_Node000035_Node000036" class="edge">
<title>Node35&#45;&gt;Node36</title>
<g id="a_edge56_Node000035_Node000036"><a xlink:title=" ">
<path fill="none" stroke="#63b8ff" d="M2405.16,-185.62C2404.75,-177.56 2404.16,-165.65 2403.65,-155.41"/>
<polygon fill="#63b8ff" stroke="#63b8ff" points="2407.15,-155.44 2403.16,-145.62 2400.16,-155.79 2407.15,-155.44"/>
</a>
</g>
</g>
<!-- Node41 -->
<g id="Node000041" class="node">
<title>Node41</title>
<g id="a_Node000041"><a xlink:title=" ">
<polygon fill="#e0e0e0" stroke="#999999" points="2601.12,-144 2474.12,-144 2474.12,-124 2601.12,-124 2601.12,-144"/>
<text xml:space="preserve" text-anchor="middle" x="2537.62" y="-130.5" font-family="Helvetica,sans-Serif" font-size="10.00">SkillBuffData.generated.h</text>
</a>
</g>
</g>
<!-- Node35&#45;&gt;Node41 -->
<g id="edge65_Node000035_Node000041" class="edge">
<title>Node35&#45;&gt;Node41</title>
<g id="a_edge65_Node000035_Node000041"><a xlink:title=" ">
<path fill="none" stroke="#63b8ff" d="M2426.25,-185.62C2447.85,-175.81 2482.02,-160.27 2506.82,-149"/>
<polygon fill="#63b8ff" stroke="#63b8ff" points="2508.11,-152.26 2515.77,-144.94 2505.21,-145.89 2508.11,-152.26"/>
</a>
</g>
</g>
<!-- Node36&#45;&gt;Node3 -->
<g id="edge57_Node000036_Node000003" class="edge">
<title>Node36&#45;&gt;Node3</title>
<g id="a_edge57_Node000036_Node000003"><a xlink:title=" ">
<path fill="none" stroke="#63b8ff" d="M2397.68,-123.75C2387.99,-106.73 2364.74,-70.83 2333.62,-56 2255.82,-18.92 1652.66,-12.37 1471.75,-11.23"/>
<polygon fill="#63b8ff" stroke="#63b8ff" points="1471.99,-7.73 1461.97,-11.17 1471.95,-14.73 1471.99,-7.73"/>
</a>
</g>
</g>
<!-- Node36&#45;&gt;Node6 -->
<g id="edge58_Node000036_Node000006" class="edge">
<title>Node36&#45;&gt;Node6</title>
<g id="a_edge58_Node000036_Node000006"><a xlink:title=" ">
<path fill="none" stroke="#63b8ff" d="M2377.31,-123.62C2350.29,-113.62 2307.23,-97.67 2276.67,-86.35"/>
<polygon fill="#63b8ff" stroke="#63b8ff" points="2278.04,-83.12 2267.45,-82.93 2275.61,-89.69 2278.04,-83.12"/>
</a>
</g>
</g>
<!-- Node36&#45;&gt;Node8 -->
<g id="edge63_Node000036_Node000008" class="edge">
<title>Node36&#45;&gt;Node8</title>
<g id="a_edge63_Node000036_Node000008"><a xlink:title=" ">
<path fill="none" stroke="#63b8ff" d="M2355.41,-123.51C2310.45,-114.45 2240.91,-100.39 2180.62,-88 2175.5,-86.95 2170.17,-85.85 2164.84,-84.74"/>
<polygon fill="#63b8ff" stroke="#63b8ff" points="2165.92,-81.39 2155.42,-82.79 2164.5,-88.25 2165.92,-81.39"/>
</a>
</g>
</g>
<!-- Node37 -->
<g id="Node000037" class="node">
<title>Node37</title>
<g id="a_Node000037"><a xlink:title=" ">
<polygon fill="#e0e0e0" stroke="#999999" points="2461.62,-82 2385.62,-82 2385.62,-62 2461.62,-62 2461.62,-82"/>
<text xml:space="preserve" text-anchor="middle" x="2423.62" y="-68.5" font-family="Helvetica,sans-Serif" font-size="10.00">AttributeSet.h</text>
</a>
</g>
</g>
<!-- Node36&#45;&gt;Node37 -->
<g id="edge59_Node000036_Node000037" class="edge">
<title>Node36&#45;&gt;Node37</title>
<g id="a_edge59_Node000036_Node000037"><a xlink:title=" ">
<path fill="none" stroke="#63b8ff" d="M2405.91,-123.62C2408.79,-115.39 2413.08,-103.13 2416.72,-92.74"/>
<polygon fill="#63b8ff" stroke="#63b8ff" points="2419.94,-94.14 2419.94,-83.54 2413.33,-91.82 2419.94,-94.14"/>
</a>
</g>
</g>
<!-- Node38 -->
<g id="Node000038" class="node">
<title>Node38</title>
<g id="a_Node000038"><a xlink:href="_game_enums_8h.html" target="_top" xlink:title=" ">
<polygon fill="white" stroke="#666666" points="2707.25,-82 2626,-82 2626,-62 2707.25,-62 2707.25,-82"/>
<text xml:space="preserve" text-anchor="middle" x="2666.62" y="-68.5" font-family="Helvetica,sans-Serif" font-size="10.00">GameEnums.h</text>
</a>
</g>
</g>
<!-- Node36&#45;&gt;Node38 -->
<g id="edge60_Node000036_Node000038" class="edge">
<title>Node36&#45;&gt;Node38</title>
<g id="a_edge60_Node000036_Node000038"><a xlink:title=" ">
<path fill="none" stroke="#63b8ff" d="M2453.49,-123.56C2497.03,-115.17 2561.25,-102.1 2616.62,-88 2619.57,-87.25 2622.6,-86.44 2625.65,-85.6"/>
<polygon fill="#63b8ff" stroke="#63b8ff" points="2626.5,-88.99 2635.14,-82.87 2624.57,-82.27 2626.5,-88.99"/>
</a>
</g>
</g>
<!-- Node40 -->
<g id="Node000040" class="node">
<title>Node40</title>
<g id="a_Node000040"><a xlink:title=" ">
<polygon fill="#e0e0e0" stroke="#999999" points="2607.5,-82 2479.75,-82 2479.75,-62 2607.5,-62 2607.5,-82"/>
<text xml:space="preserve" text-anchor="middle" x="2543.62" y="-68.5" font-family="Helvetica,sans-Serif" font-size="10.00">GameStructs.generated.h</text>
</a>
</g>
</g>
<!-- Node36&#45;&gt;Node40 -->
<g id="edge64_Node000036_Node000040" class="edge">
<title>Node36&#45;&gt;Node40</title>
<g id="a_edge64_Node000036_Node000040"><a xlink:title=" ">
<path fill="none" stroke="#63b8ff" d="M2424.66,-123.62C2447.94,-113.72 2484.89,-97.99 2511.43,-86.7"/>
<polygon fill="#63b8ff" stroke="#63b8ff" points="2512.52,-90.04 2520.36,-82.9 2509.78,-83.6 2512.52,-90.04"/>
</a>
</g>
</g>
<!-- Node38&#45;&gt;Node3 -->
<g id="edge61_Node000038_Node000003" class="edge">
<title>Node38&#45;&gt;Node3</title>
<g id="a_edge61_Node000038_Node000003"><a xlink:title=" ">
<path fill="none" stroke="#63b8ff" d="M2639.67,-61.55C2632.29,-59.34 2624.22,-57.26 2616.62,-56 2391.15,-18.56 1669.98,-12.24 1471.57,-11.2"/>
<polygon fill="#63b8ff" stroke="#63b8ff" points="1471.87,-7.7 1461.86,-11.15 1471.84,-14.7 1471.87,-7.7"/>
</a>
</g>
</g>
<!-- Node39 -->
<g id="Node000039" class="node">
<title>Node39</title>
<g id="a_Node000039"><a xlink:title=" ">
<polygon fill="#e0e0e0" stroke="#999999" points="2730.12,-20 2603.12,-20 2603.12,0 2730.12,0 2730.12,-20"/>
<text xml:space="preserve" text-anchor="middle" x="2666.62" y="-6.5" font-family="Helvetica,sans-Serif" font-size="10.00">GameEnums.generated.h</text>
</a>
</g>
</g>
<!-- Node38&#45;&gt;Node39 -->
<g id="edge62_Node000038_Node000039" class="edge">
<title>Node38&#45;&gt;Node39</title>
<g id="a_edge62_Node000038_Node000039"><a xlink:title=" ">
<path fill="none" stroke="#63b8ff" d="M2666.62,-61.62C2666.62,-53.56 2666.62,-41.65 2666.62,-31.41"/>
<polygon fill="#63b8ff" stroke="#63b8ff" points="2670.13,-31.63 2666.63,-21.63 2663.13,-31.63 2670.13,-31.63"/>
</a>
</g>
</g>
</g>
</svg>
