<?xml version="1.0" encoding="UTF-8" standalone="no"?>
<!DOCTYPE svg PUBLIC "-//W3C//DTD SVG 1.1//EN"
 "http://www.w3.org/Graphics/SVG/1.1/DTD/svg11.dtd">
<!-- Generated by graphviz version 13.1.1 (20250719.2154)
 -->
<!-- Title: C:/Users/user/Perforce/alz7_CobaltbruWorkspace_00/KPT/Source/KPT/Skill/SkillAttributeSet.cpp Pages: 1 -->
<svg width="494pt" height="176pt"
 viewBox="0.00 0.00 494.00 176.00" xmlns="http://www.w3.org/2000/svg" xmlns:xlink="http://www.w3.org/1999/xlink">
<g id="graph0" class="graph" transform="scale(1 1) rotate(0) translate(4 172)">
<title>C:/Users/user/Perforce/alz7_CobaltbruWorkspace_00/KPT/Source/KPT/Skill/SkillAttributeSet.cpp</title>
<!-- Node1 -->
<g id="Node000001" class="node">
<title>Node1</title>
<g id="a_Node000001"><a xlink:title=" ">
<polygon fill="#999999" stroke="#666666" points="329,-168 196,-168 196,-112 329,-112 329,-168"/>
<text xml:space="preserve" text-anchor="start" x="204" y="-154.5" font-family="Helvetica,sans-Serif" font-size="10.00">C:/Users/user/Perforce</text>
<text xml:space="preserve" text-anchor="start" x="204" y="-142.5" font-family="Helvetica,sans-Serif" font-size="10.00">/alz7_CobaltbruWorkspace</text>
<text xml:space="preserve" text-anchor="start" x="204" y="-130.5" font-family="Helvetica,sans-Serif" font-size="10.00">_00/KPT/Source/KPT/Skill</text>
<text xml:space="preserve" text-anchor="middle" x="262.5" y="-118.5" font-family="Helvetica,sans-Serif" font-size="10.00">/SkillAttributeSet.cpp</text>
</a>
</g>
</g>
<!-- Node2 -->
<g id="Node000002" class="node">
<title>Node2</title>
<g id="a_Node000002"><a xlink:href="_skill_attribute_set_8h.html" target="_top" xlink:title=" ">
<polygon fill="white" stroke="#666666" points="255.75,-76 139.25,-76 139.25,-56 255.75,-56 255.75,-76"/>
<text xml:space="preserve" text-anchor="middle" x="197.5" y="-62.5" font-family="Helvetica,sans-Serif" font-size="10.00">Skill/SkillAttributeSet.h</text>
</a>
</g>
</g>
<!-- Node1&#45;&gt;Node2 -->
<g id="edge1_Node000001_Node000002" class="edge">
<title>Node1&#45;&gt;Node2</title>
<g id="a_edge1_Node000001_Node000002"><a xlink:title=" ">
<path fill="none" stroke="#63b8ff" d="M237.93,-111.78C229.78,-102.75 220.92,-92.94 213.58,-84.81"/>
<polygon fill="#63b8ff" stroke="#63b8ff" points="216.37,-82.67 207.07,-77.6 211.17,-87.36 216.37,-82.67"/>
</a>
</g>
</g>
<!-- Node7 -->
<g id="Node000007" class="node">
<title>Node7</title>
<g id="a_Node000007"><a xlink:title=" ">
<polygon fill="#e0e0e0" stroke="#999999" points="381.62,-76 273.38,-76 273.38,-56 381.62,-56 381.62,-76"/>
<text xml:space="preserve" text-anchor="middle" x="327.5" y="-62.5" font-family="Helvetica,sans-Serif" font-size="10.00">Net/UnrealNetwork.h</text>
</a>
</g>
</g>
<!-- Node1&#45;&gt;Node7 -->
<g id="edge6_Node000001_Node000007" class="edge">
<title>Node1&#45;&gt;Node7</title>
<g id="a_edge6_Node000001_Node000007"><a xlink:title=" ">
<path fill="none" stroke="#63b8ff" d="M287.07,-111.78C295.22,-102.75 304.08,-92.94 311.42,-84.81"/>
<polygon fill="#63b8ff" stroke="#63b8ff" points="313.83,-87.36 317.93,-77.6 308.63,-82.67 313.83,-87.36"/>
</a>
</g>
</g>
<!-- Node3 -->
<g id="Node000003" class="node">
<title>Node3</title>
<g id="a_Node000003"><a xlink:title=" ">
<polygon fill="#e0e0e0" stroke="#999999" points="79,-20 0,-20 0,0 79,0 79,-20"/>
<text xml:space="preserve" text-anchor="middle" x="39.5" y="-6.5" font-family="Helvetica,sans-Serif" font-size="10.00">CoreMinimal.h</text>
</a>
</g>
</g>
<!-- Node2&#45;&gt;Node3 -->
<g id="edge2_Node000002_Node000003" class="edge">
<title>Node2&#45;&gt;Node3</title>
<g id="a_edge2_Node000002_Node000003"><a xlink:title=" ">
<path fill="none" stroke="#63b8ff" d="M169.98,-55.59C144.53,-46.9 106.47,-33.89 78.01,-24.16"/>
<polygon fill="#63b8ff" stroke="#63b8ff" points="79.26,-20.89 68.67,-20.97 77,-27.52 79.26,-20.89"/>
</a>
</g>
</g>
<!-- Node4 -->
<g id="Node000004" class="node">
<title>Node4</title>
<g id="a_Node000004"><a xlink:title=" ">
<polygon fill="#e0e0e0" stroke="#999999" points="173.5,-20 97.5,-20 97.5,0 173.5,0 173.5,-20"/>
<text xml:space="preserve" text-anchor="middle" x="135.5" y="-6.5" font-family="Helvetica,sans-Serif" font-size="10.00">AttributeSet.h</text>
</a>
</g>
</g>
<!-- Node2&#45;&gt;Node4 -->
<g id="edge3_Node000002_Node000004" class="edge">
<title>Node2&#45;&gt;Node4</title>
<g id="a_edge3_Node000002_Node000004"><a xlink:title=" ">
<path fill="none" stroke="#63b8ff" d="M186.7,-55.59C177.9,-47.93 165.25,-36.91 154.73,-27.75"/>
<polygon fill="#63b8ff" stroke="#63b8ff" points="157.16,-25.22 147.32,-21.29 152.56,-30.5 157.16,-25.22"/>
</a>
</g>
</g>
<!-- Node5 -->
<g id="Node000005" class="node">
<title>Node5</title>
<g id="a_Node000005"><a xlink:title=" ">
<polygon fill="#e0e0e0" stroke="#999999" points="327.12,-20 191.88,-20 191.88,0 327.12,0 327.12,-20"/>
<text xml:space="preserve" text-anchor="middle" x="259.5" y="-6.5" font-family="Helvetica,sans-Serif" font-size="10.00">AbilitySystemComponent.h</text>
</a>
</g>
</g>
<!-- Node2&#45;&gt;Node5 -->
<g id="edge4_Node000002_Node000005" class="edge">
<title>Node2&#45;&gt;Node5</title>
<g id="a_edge4_Node000002_Node000005"><a xlink:title=" ">
<path fill="none" stroke="#63b8ff" d="M208.3,-55.59C217.1,-47.93 229.75,-36.91 240.27,-27.75"/>
<polygon fill="#63b8ff" stroke="#63b8ff" points="242.44,-30.5 247.68,-21.29 237.84,-25.22 242.44,-30.5"/>
</a>
</g>
</g>
<!-- Node6 -->
<g id="Node000006" class="node">
<title>Node6</title>
<g id="a_Node000006"><a xlink:title=" ">
<polygon fill="#e0e0e0" stroke="#999999" points="485.75,-20 345.25,-20 345.25,0 485.75,0 485.75,-20"/>
<text xml:space="preserve" text-anchor="middle" x="415.5" y="-6.5" font-family="Helvetica,sans-Serif" font-size="10.00">SkillAttributeSet.generated.h</text>
</a>
</g>
</g>
<!-- Node2&#45;&gt;Node6 -->
<g id="edge5_Node000002_Node000006" class="edge">
<title>Node2&#45;&gt;Node6</title>
<g id="a_edge5_Node000002_Node000006"><a xlink:title=" ">
<path fill="none" stroke="#63b8ff" d="M235.72,-55.53C272.03,-46.54 326.8,-32.97 366.35,-23.18"/>
<polygon fill="#63b8ff" stroke="#63b8ff" points="366.99,-26.62 375.85,-20.82 365.3,-19.83 366.99,-26.62"/>
</a>
</g>
</g>
</g>
</svg>
