<?xml version="1.0" encoding="UTF-8" standalone="no"?>
<!DOCTYPE svg PUBLIC "-//W3C//DTD SVG 1.1//EN"
 "http://www.w3.org/Graphics/SVG/1.1/DTD/svg11.dtd">
<!-- Generated by graphviz version 13.1.1 (20250719.2154)
 -->
<!-- Title: C:/Users/user/Perforce/alz7_CobaltbruWorkspace_00/KPT/Source/KPT/Skill/SkillBuffSystemStatics.h Pages: 1 -->
<svg width="1024pt" height="300pt"
 viewBox="0.00 0.00 1024.00 300.00" xmlns="http://www.w3.org/2000/svg" xmlns:xlink="http://www.w3.org/1999/xlink">
<g id="graph0" class="graph" transform="scale(1 1) rotate(0) translate(4 296)">
<title>C:/Users/user/Perforce/alz7_CobaltbruWorkspace_00/KPT/Source/KPT/Skill/SkillBuffSystemStatics.h</title>
<!-- Node1 -->
<g id="Node000001" class="node">
<title>Node1</title>
<g id="a_Node000001"><a xlink:title=" ">
<polygon fill="#999999" stroke="#666666" points="739.91,-292 606.91,-292 606.91,-236 739.91,-236 739.91,-292"/>
<text xml:space="preserve" text-anchor="start" x="614.91" y="-278.5" font-family="Helvetica,sans-Serif" font-size="10.00">C:/Users/user/Perforce</text>
<text xml:space="preserve" text-anchor="start" x="614.91" y="-266.5" font-family="Helvetica,sans-Serif" font-size="10.00">/alz7_CobaltbruWorkspace</text>
<text xml:space="preserve" text-anchor="start" x="614.91" y="-254.5" font-family="Helvetica,sans-Serif" font-size="10.00">_00/KPT/Source/KPT/Skill</text>
<text xml:space="preserve" text-anchor="middle" x="673.41" y="-242.5" font-family="Helvetica,sans-Serif" font-size="10.00">/SkillBuffSystemStatics.h</text>
</a>
</g>
</g>
<!-- Node2 -->
<g id="Node000002" class="node">
<title>Node2</title>
<g id="a_Node000002"><a xlink:title=" ">
<polygon fill="#e0e0e0" stroke="#999999" points="284.91,-20 205.91,-20 205.91,0 284.91,0 284.91,-20"/>
<text xml:space="preserve" text-anchor="middle" x="245.41" y="-6.5" font-family="Helvetica,sans-Serif" font-size="10.00">CoreMinimal.h</text>
</a>
</g>
</g>
<!-- Node1&#45;&gt;Node2 -->
<g id="edge1_Node000001_Node000002" class="edge">
<title>Node1&#45;&gt;Node2</title>
<g id="a_edge1_Node000001_Node000002"><a xlink:title=" ">
<path fill="none" stroke="#63b8ff" d="M680.47,-235.78C690.16,-191.46 701.44,-103.89 654.41,-56 642.01,-43.38 403.95,-23.35 296.85,-14.93"/>
<polygon fill="#63b8ff" stroke="#63b8ff" points="297.13,-11.44 286.88,-14.15 296.58,-18.42 297.13,-11.44"/>
</a>
</g>
</g>
<!-- Node3 -->
<g id="Node000003" class="node">
<title>Node3</title>
<g id="a_Node000003"><a xlink:title=" ">
<polygon fill="#e0e0e0" stroke="#999999" points="827.16,-200 701.66,-200 701.66,-168 827.16,-168 827.16,-200"/>
<text xml:space="preserve" text-anchor="start" x="709.66" y="-186.5" font-family="Helvetica,sans-Serif" font-size="10.00">Kismet/BlueprintFunction</text>
<text xml:space="preserve" text-anchor="middle" x="764.41" y="-174.5" font-family="Helvetica,sans-Serif" font-size="10.00">Library.h</text>
</a>
</g>
</g>
<!-- Node1&#45;&gt;Node3 -->
<g id="edge2_Node000001_Node000003" class="edge">
<title>Node1&#45;&gt;Node3</title>
<g id="a_edge2_Node000001_Node000003"><a xlink:title=" ">
<path fill="none" stroke="#63b8ff" d="M705.49,-235.5C716.1,-226.41 727.77,-216.4 737.91,-207.71"/>
<polygon fill="#63b8ff" stroke="#63b8ff" points="739.9,-210.62 745.21,-201.45 735.34,-205.3 739.9,-210.62"/>
</a>
</g>
</g>
<!-- Node4 -->
<g id="Node000004" class="node">
<title>Node4</title>
<g id="a_Node000004"><a xlink:title=" ">
<polygon fill="#e0e0e0" stroke="#999999" points="645.53,-76 519.28,-76 519.28,-56 645.53,-56 645.53,-76"/>
<text xml:space="preserve" text-anchor="middle" x="582.41" y="-62.5" font-family="Helvetica,sans-Serif" font-size="10.00">GameplayTagContainer.h</text>
</a>
</g>
</g>
<!-- Node1&#45;&gt;Node4 -->
<g id="edge3_Node000001_Node000004" class="edge">
<title>Node1&#45;&gt;Node4</title>
<g id="a_edge3_Node000001_Node000004"><a xlink:title=" ">
<path fill="none" stroke="#63b8ff" d="M660.75,-235.75C642.15,-195.68 607.86,-121.82 591.52,-86.63"/>
<polygon fill="#63b8ff" stroke="#63b8ff" points="594.74,-85.26 587.36,-77.66 588.39,-88.21 594.74,-85.26"/>
</a>
</g>
</g>
<!-- Node5 -->
<g id="Node000005" class="node">
<title>Node5</title>
<g id="a_Node000005"><a xlink:href="_skill_buff_data_8h.html" target="_top" xlink:title=" ">
<polygon fill="white" stroke="#666666" points="321.91,-194 194.91,-194 194.91,-174 321.91,-174 321.91,-194"/>
<text xml:space="preserve" text-anchor="middle" x="258.41" y="-180.5" font-family="Helvetica,sans-Serif" font-size="10.00">Skill/Data/SkillBuffData.h</text>
</a>
</g>
</g>
<!-- Node1&#45;&gt;Node5 -->
<g id="edge4_Node000001_Node000005" class="edge">
<title>Node1&#45;&gt;Node5</title>
<g id="a_edge4_Node000001_Node000005"><a xlink:title=" ">
<path fill="none" stroke="#63b8ff" d="M606.73,-250.47C527.57,-235.59 396.63,-210.98 319.84,-196.55"/>
<polygon fill="#63b8ff" stroke="#63b8ff" points="320.88,-193.18 310.4,-194.77 319.58,-200.06 320.88,-193.18"/>
</a>
</g>
</g>
<!-- Node13 -->
<g id="Node000013" class="node">
<title>Node13</title>
<g id="a_Node000013"><a xlink:title=" ">
<polygon fill="#e0e0e0" stroke="#999999" points="1015.66,-194 845.16,-194 845.16,-174 1015.66,-174 1015.66,-194"/>
<text xml:space="preserve" text-anchor="middle" x="930.41" y="-180.5" font-family="Helvetica,sans-Serif" font-size="10.00">SkillBuffSystemStatics.generated.h</text>
</a>
</g>
</g>
<!-- Node1&#45;&gt;Node13 -->
<g id="edge18_Node000001_Node000013" class="edge">
<title>Node1&#45;&gt;Node13</title>
<g id="a_edge18_Node000001_Node000013"><a xlink:title=" ">
<path fill="none" stroke="#63b8ff" d="M740.26,-242.71C787.06,-228.51 848.16,-209.96 888.3,-197.78"/>
<polygon fill="#63b8ff" stroke="#63b8ff" points="889.29,-201.14 897.84,-194.88 887.26,-194.44 889.29,-201.14"/>
</a>
</g>
</g>
<!-- Node5&#45;&gt;Node2 -->
<g id="edge5_Node000005_Node000002" class="edge">
<title>Node5&#45;&gt;Node2</title>
<g id="a_edge5_Node000005_Node000002"><a xlink:title=" ">
<path fill="none" stroke="#63b8ff" d="M194.67,-174.21C104.55,-159.19 -43.28,-123.47 12.41,-56 35.01,-28.61 132.83,-17.7 194.31,-13.5"/>
<polygon fill="#63b8ff" stroke="#63b8ff" points="194.45,-17 204.21,-12.87 194,-10.01 194.45,-17"/>
</a>
</g>
</g>
<!-- Node5&#45;&gt;Node4 -->
<g id="edge7_Node000005_Node000004" class="edge">
<title>Node5&#45;&gt;Node4</title>
<g id="a_edge7_Node000005_Node000004"><a xlink:title=" ">
<path fill="none" stroke="#63b8ff" d="M284.92,-173.51C342.5,-152.89 479.09,-103.99 545.24,-80.31"/>
<polygon fill="#63b8ff" stroke="#63b8ff" points="546.32,-83.64 554.56,-76.97 543.96,-77.05 546.32,-83.64"/>
</a>
</g>
</g>
<!-- Node6 -->
<g id="Node000006" class="node">
<title>Node6</title>
<g id="a_Node000006"><a xlink:title=" ">
<polygon fill="#e0e0e0" stroke="#999999" points="123.16,-76 21.66,-76 21.66,-56 123.16,-56 123.16,-76"/>
<text xml:space="preserve" text-anchor="middle" x="72.41" y="-62.5" font-family="Helvetica,sans-Serif" font-size="10.00">Engine/DataTable.h</text>
</a>
</g>
</g>
<!-- Node5&#45;&gt;Node6 -->
<g id="edge6_Node000005_Node000006" class="edge">
<title>Node5&#45;&gt;Node6</title>
<g id="a_edge6_Node000005_Node000006"><a xlink:title=" ">
<path fill="none" stroke="#63b8ff" d="M252.8,-173.82C243.22,-158.86 222.3,-129.15 197.41,-112 175.93,-97.2 149.03,-86.7 125.7,-79.58"/>
<polygon fill="#63b8ff" stroke="#63b8ff" points="126.95,-76.3 116.37,-76.87 124.99,-83.02 126.95,-76.3"/>
</a>
</g>
</g>
<!-- Node7 -->
<g id="Node000007" class="node">
<title>Node7</title>
<g id="a_Node000007"><a xlink:href="_game_structs_8h.html" target="_top" xlink:title=" ">
<polygon fill="white" stroke="#666666" points="351.41,-132 245.41,-132 245.41,-112 351.41,-112 351.41,-132"/>
<text xml:space="preserve" text-anchor="middle" x="298.41" y="-118.5" font-family="Helvetica,sans-Serif" font-size="10.00">Data/GameStructs.h</text>
</a>
</g>
</g>
<!-- Node5&#45;&gt;Node7 -->
<g id="edge8_Node000005_Node000007" class="edge">
<title>Node5&#45;&gt;Node7</title>
<g id="a_edge8_Node000005_Node000007"><a xlink:title=" ">
<path fill="none" stroke="#63b8ff" d="M264.66,-173.62C270.38,-165.03 279.03,-152.07 286.14,-141.41"/>
<polygon fill="#63b8ff" stroke="#63b8ff" points="288.86,-143.63 291.49,-133.37 283.03,-139.75 288.86,-143.63"/>
</a>
</g>
</g>
<!-- Node12 -->
<g id="Node000012" class="node">
<title>Node12</title>
<g id="a_Node000012"><a xlink:title=" ">
<polygon fill="#e0e0e0" stroke="#999999" points="188.91,-132 61.91,-132 61.91,-112 188.91,-112 188.91,-132"/>
<text xml:space="preserve" text-anchor="middle" x="125.41" y="-118.5" font-family="Helvetica,sans-Serif" font-size="10.00">SkillBuffData.generated.h</text>
</a>
</g>
</g>
<!-- Node5&#45;&gt;Node12 -->
<g id="edge17_Node000005_Node000012" class="edge">
<title>Node5&#45;&gt;Node12</title>
<g id="a_edge17_Node000005_Node000012"><a xlink:title=" ">
<path fill="none" stroke="#63b8ff" d="M237.63,-173.62C215.86,-163.81 181.43,-148.27 156.44,-137"/>
<polygon fill="#63b8ff" stroke="#63b8ff" points="157.98,-133.85 147.42,-132.93 155.1,-140.23 157.98,-133.85"/>
</a>
</g>
</g>
<!-- Node7&#45;&gt;Node2 -->
<g id="edge9_Node000007_Node000002" class="edge">
<title>Node7&#45;&gt;Node2</title>
<g id="a_edge9_Node000007_Node000002"><a xlink:title=" ">
<path fill="none" stroke="#63b8ff" d="M255.67,-111.58C222.53,-103.3 180.59,-90.37 170.41,-76 155.7,-55.24 182.91,-36.8 208.57,-24.92"/>
<polygon fill="#63b8ff" stroke="#63b8ff" points="209.82,-28.19 217.59,-20.99 207.03,-21.77 209.82,-28.19"/>
</a>
</g>
</g>
<!-- Node7&#45;&gt;Node4 -->
<g id="edge15_Node000007_Node000004" class="edge">
<title>Node7&#45;&gt;Node4</title>
<g id="a_edge15_Node000007_Node000004"><a xlink:title=" ">
<path fill="none" stroke="#63b8ff" d="M348.2,-111.53C396.52,-102.35 469.92,-88.39 521.65,-78.55"/>
<polygon fill="#63b8ff" stroke="#63b8ff" points="522.01,-82.05 531.18,-76.74 520.71,-75.17 522.01,-82.05"/>
</a>
</g>
</g>
<!-- Node7&#45;&gt;Node6 -->
<g id="edge10_Node000007_Node000006" class="edge">
<title>Node7&#45;&gt;Node6</title>
<g id="a_edge10_Node000007_Node000006"><a xlink:title=" ">
<path fill="none" stroke="#63b8ff" d="M258.78,-111.53C221.06,-102.52 164.12,-88.91 123.1,-79.11"/>
<polygon fill="#63b8ff" stroke="#63b8ff" points="124,-75.73 113.46,-76.81 122.37,-82.54 124,-75.73"/>
</a>
</g>
</g>
<!-- Node8 -->
<g id="Node000008" class="node">
<title>Node8</title>
<g id="a_Node000008"><a xlink:title=" ">
<polygon fill="#e0e0e0" stroke="#999999" points="255.41,-76 179.41,-76 179.41,-56 255.41,-56 255.41,-76"/>
<text xml:space="preserve" text-anchor="middle" x="217.41" y="-62.5" font-family="Helvetica,sans-Serif" font-size="10.00">AttributeSet.h</text>
</a>
</g>
</g>
<!-- Node7&#45;&gt;Node8 -->
<g id="edge11_Node000007_Node000008" class="edge">
<title>Node7&#45;&gt;Node8</title>
<g id="a_edge11_Node000007_Node000008"><a xlink:title=" ">
<path fill="none" stroke="#63b8ff" d="M284.3,-111.59C272.41,-103.67 255.14,-92.16 241.13,-82.82"/>
<polygon fill="#63b8ff" stroke="#63b8ff" points="243.15,-79.95 232.89,-77.32 239.26,-85.78 243.15,-79.95"/>
</a>
</g>
</g>
<!-- Node9 -->
<g id="Node000009" class="node">
<title>Node9</title>
<g id="a_Node000009"><a xlink:href="_game_enums_8h.html" target="_top" xlink:title=" ">
<polygon fill="white" stroke="#666666" points="501.03,-76 419.78,-76 419.78,-56 501.03,-56 501.03,-76"/>
<text xml:space="preserve" text-anchor="middle" x="460.41" y="-62.5" font-family="Helvetica,sans-Serif" font-size="10.00">GameEnums.h</text>
</a>
</g>
</g>
<!-- Node7&#45;&gt;Node9 -->
<g id="edge12_Node000007_Node000009" class="edge">
<title>Node7&#45;&gt;Node9</title>
<g id="a_edge12_Node000007_Node000009"><a xlink:title=" ">
<path fill="none" stroke="#63b8ff" d="M326.63,-111.59C352.83,-102.86 392.09,-89.77 421.31,-80.03"/>
<polygon fill="#63b8ff" stroke="#63b8ff" points="422.15,-83.44 430.53,-76.96 419.94,-76.8 422.15,-83.44"/>
</a>
</g>
</g>
<!-- Node11 -->
<g id="Node000011" class="node">
<title>Node11</title>
<g id="a_Node000011"><a xlink:title=" ">
<polygon fill="#e0e0e0" stroke="#999999" points="401.28,-76 273.53,-76 273.53,-56 401.28,-56 401.28,-76"/>
<text xml:space="preserve" text-anchor="middle" x="337.41" y="-62.5" font-family="Helvetica,sans-Serif" font-size="10.00">GameStructs.generated.h</text>
</a>
</g>
</g>
<!-- Node7&#45;&gt;Node11 -->
<g id="edge16_Node000007_Node000011" class="edge">
<title>Node7&#45;&gt;Node11</title>
<g id="a_edge16_Node000007_Node000011"><a xlink:title=" ">
<path fill="none" stroke="#63b8ff" d="M305.2,-111.59C310.4,-104.39 317.74,-94.23 324.1,-85.43"/>
<polygon fill="#63b8ff" stroke="#63b8ff" points="326.79,-87.68 329.81,-77.53 321.11,-83.58 326.79,-87.68"/>
</a>
</g>
</g>
<!-- Node9&#45;&gt;Node2 -->
<g id="edge13_Node000009_Node000002" class="edge">
<title>Node9&#45;&gt;Node2</title>
<g id="a_edge13_Node000009_Node000002"><a xlink:title=" ">
<path fill="none" stroke="#63b8ff" d="M422.96,-55.59C387.26,-46.63 333.31,-33.08 294.25,-23.27"/>
<polygon fill="#63b8ff" stroke="#63b8ff" points="295.17,-19.89 284.62,-20.85 293.46,-26.68 295.17,-19.89"/>
</a>
</g>
</g>
<!-- Node10 -->
<g id="Node000010" class="node">
<title>Node10</title>
<g id="a_Node000010"><a xlink:title=" ">
<polygon fill="#e0e0e0" stroke="#999999" points="523.91,-20 396.91,-20 396.91,0 523.91,0 523.91,-20"/>
<text xml:space="preserve" text-anchor="middle" x="460.41" y="-6.5" font-family="Helvetica,sans-Serif" font-size="10.00">GameEnums.generated.h</text>
</a>
</g>
</g>
<!-- Node9&#45;&gt;Node10 -->
<g id="edge14_Node000009_Node000010" class="edge">
<title>Node9&#45;&gt;Node10</title>
<g id="a_edge14_Node000009_Node000010"><a xlink:title=" ">
<path fill="none" stroke="#63b8ff" d="M460.41,-55.59C460.41,-49.01 460.41,-39.96 460.41,-31.73"/>
<polygon fill="#63b8ff" stroke="#63b8ff" points="463.91,-31.81 460.41,-21.81 456.91,-31.81 463.91,-31.81"/>
</a>
</g>
</g>
</g>
</svg>
