<?xml version="1.0" encoding="UTF-8" standalone="no"?>
<!DOCTYPE svg PUBLIC "-//W3C//DTD SVG 1.1//EN"
 "http://www.w3.org/Graphics/SVG/1.1/DTD/svg11.dtd">
<!-- Generated by graphviz version 13.1.1 (20250719.2154)
 -->
<!-- Title: C:/Users/user/Perforce/alz7_CobaltbruWorkspace_00/KPT/Source/KPT/Core/SubSystem/WorldSubSystem/StageManagerSubsystem.cpp Pages: 1 -->
<svg width="1055pt" height="200pt"
 viewBox="0.00 0.00 1055.00 200.00" xmlns="http://www.w3.org/2000/svg" xmlns:xlink="http://www.w3.org/1999/xlink">
<g id="graph0" class="graph" transform="scale(1 1) rotate(0) translate(4 196)">
<title>C:/Users/user/Perforce/alz7_CobaltbruWorkspace_00/KPT/Source/KPT/Core/SubSystem/WorldSubSystem/StageManagerSubsystem.cpp</title>
<!-- Node1 -->
<g id="Node000001" class="node">
<title>Node1</title>
<g id="a_Node000001"><a xlink:title=" ">
<polygon fill="#999999" stroke="#666666" points="589.12,-192 438.88,-192 438.88,-124 589.12,-124 589.12,-192"/>
<text xml:space="preserve" text-anchor="start" x="446.88" y="-178.5" font-family="Helvetica,sans-Serif" font-size="10.00">C:/Users/user/Perforce</text>
<text xml:space="preserve" text-anchor="start" x="446.88" y="-166.5" font-family="Helvetica,sans-Serif" font-size="10.00">/alz7_CobaltbruWorkspace</text>
<text xml:space="preserve" text-anchor="start" x="446.88" y="-154.5" font-family="Helvetica,sans-Serif" font-size="10.00">_00/KPT/Source/KPT/Core</text>
<text xml:space="preserve" text-anchor="start" x="446.88" y="-142.5" font-family="Helvetica,sans-Serif" font-size="10.00">/SubSystem/WorldSubSystem</text>
<text xml:space="preserve" text-anchor="middle" x="514" y="-130.5" font-family="Helvetica,sans-Serif" font-size="10.00">/StageManagerSubsystem.cpp</text>
</a>
</g>
</g>
<!-- Node2 -->
<g id="Node000002" class="node">
<title>Node2</title>
<g id="a_Node000002"><a xlink:href="_stage_manager_subsystem_8h.html" target="_top" xlink:title=" ">
<polygon fill="white" stroke="#666666" points="663.38,-82 526.62,-82 526.62,-62 663.38,-62 663.38,-82"/>
<text xml:space="preserve" text-anchor="middle" x="595" y="-68.5" font-family="Helvetica,sans-Serif" font-size="10.00">StageManagerSubsystem.h</text>
</a>
</g>
</g>
<!-- Node1&#45;&gt;Node2 -->
<g id="edge1_Node000001_Node000002" class="edge">
<title>Node1&#45;&gt;Node2</title>
<g id="a_edge1_Node000001_Node000002"><a xlink:title=" ">
<path fill="none" stroke="#63b8ff" d="M546.01,-123.8C557.12,-112.28 569.11,-99.84 578.46,-90.16"/>
<polygon fill="#63b8ff" stroke="#63b8ff" points="580.71,-92.86 585.14,-83.23 575.68,-88 580.71,-92.86"/>
</a>
</g>
</g>
<!-- Node6 -->
<g id="Node000006" class="node">
<title>Node6</title>
<g id="a_Node000006"><a xlink:href="_stage_data_row_8h.html" target="_top" xlink:title=" ">
<polygon fill="white" stroke="#666666" points="295.62,-88 202.38,-88 202.38,-56 295.62,-56 295.62,-88"/>
<text xml:space="preserve" text-anchor="start" x="210.38" y="-74.5" font-family="Helvetica,sans-Serif" font-size="10.00">../../../Data/Stage</text>
<text xml:space="preserve" text-anchor="middle" x="249" y="-62.5" font-family="Helvetica,sans-Serif" font-size="10.00">/StageDataRow.h</text>
</a>
</g>
</g>
<!-- Node1&#45;&gt;Node6 -->
<g id="edge5_Node000001_Node000006" class="edge">
<title>Node1&#45;&gt;Node6</title>
<g id="a_edge5_Node000001_Node000006"><a xlink:title=" ">
<path fill="none" stroke="#63b8ff" d="M438.42,-133.04C396.47,-119.74 345.12,-103.47 306.47,-91.22"/>
<polygon fill="#63b8ff" stroke="#63b8ff" points="307.96,-88.02 297.37,-88.33 305.84,-94.69 307.96,-88.02"/>
</a>
</g>
</g>
<!-- Node9 -->
<g id="Node000009" class="node">
<title>Node9</title>
<g id="a_Node000009"><a xlink:href="_monster_spawn_actor_8h.html" target="_top" xlink:title=" ">
<polygon fill="white" stroke="#666666" points="508.5,-82 357.5,-82 357.5,-62 508.5,-62 508.5,-82"/>
<text xml:space="preserve" text-anchor="middle" x="433" y="-68.5" font-family="Helvetica,sans-Serif" font-size="10.00">AI/Boss/MonsterSpawnActor.h</text>
</a>
</g>
</g>
<!-- Node1&#45;&gt;Node9 -->
<g id="edge9_Node000001_Node000009" class="edge">
<title>Node1&#45;&gt;Node9</title>
<g id="a_edge9_Node000001_Node000009"><a xlink:title=" ">
<path fill="none" stroke="#63b8ff" d="M481.99,-123.8C470.88,-112.28 458.89,-99.84 449.54,-90.16"/>
<polygon fill="#63b8ff" stroke="#63b8ff" points="452.32,-88 442.86,-83.23 447.29,-92.86 452.32,-88"/>
</a>
</g>
</g>
<!-- Node12 -->
<g id="Node000012" class="node">
<title>Node12</title>
<g id="a_Node000012"><a xlink:title=" ">
<polygon fill="#e0e0e0" stroke="#999999" points="814.5,-82 681.5,-82 681.5,-62 814.5,-62 814.5,-82"/>
<text xml:space="preserve" text-anchor="middle" x="748" y="-68.5" font-family="Helvetica,sans-Serif" font-size="10.00">Kismet/GameplayStatics.h</text>
</a>
</g>
</g>
<!-- Node1&#45;&gt;Node12 -->
<g id="edge13_Node000001_Node000012" class="edge">
<title>Node1&#45;&gt;Node12</title>
<g id="a_edge13_Node000001_Node000012"><a xlink:title=" ">
<path fill="none" stroke="#63b8ff" d="M589.33,-129.96C629.96,-115.37 678.31,-98.02 710.87,-86.33"/>
<polygon fill="#63b8ff" stroke="#63b8ff" points="712.04,-89.63 720.27,-82.96 709.67,-83.04 712.04,-89.63"/>
</a>
</g>
</g>
<!-- Node3 -->
<g id="Node000003" class="node">
<title>Node3</title>
<g id="a_Node000003"><a xlink:title=" ">
<polygon fill="#e0e0e0" stroke="#999999" points="352.5,-20 273.5,-20 273.5,0 352.5,0 352.5,-20"/>
<text xml:space="preserve" text-anchor="middle" x="313" y="-6.5" font-family="Helvetica,sans-Serif" font-size="10.00">CoreMinimal.h</text>
</a>
</g>
</g>
<!-- Node2&#45;&gt;Node3 -->
<g id="edge2_Node000002_Node000003" class="edge">
<title>Node2&#45;&gt;Node3</title>
<g id="a_edge2_Node000002_Node000003"><a xlink:title=" ">
<path fill="none" stroke="#63b8ff" d="M550.63,-61.56C499.91,-50.77 417.04,-33.14 363.78,-21.81"/>
<polygon fill="#63b8ff" stroke="#63b8ff" points="364.55,-18.39 354.04,-19.73 363.1,-25.24 364.55,-18.39"/>
</a>
</g>
</g>
<!-- Node4 -->
<g id="Node000004" class="node">
<title>Node4</title>
<g id="a_Node000004"><a xlink:title=" ">
<polygon fill="#e0e0e0" stroke="#999999" points="1047.12,-20 890.88,-20 890.88,0 1047.12,0 1047.12,-20"/>
<text xml:space="preserve" text-anchor="middle" x="969" y="-6.5" font-family="Helvetica,sans-Serif" font-size="10.00">Subsystems/WorldSubsystem.h</text>
</a>
</g>
</g>
<!-- Node2&#45;&gt;Node4 -->
<g id="edge3_Node000002_Node000004" class="edge">
<title>Node2&#45;&gt;Node4</title>
<g id="a_edge3_Node000002_Node000004"><a xlink:title=" ">
<path fill="none" stroke="#63b8ff" d="M642.8,-61.5C652.76,-59.61 663.22,-57.68 673,-56 746.51,-43.35 830.62,-30.74 890.34,-22.1"/>
<polygon fill="#63b8ff" stroke="#63b8ff" points="890.68,-25.59 900.08,-20.7 889.68,-18.66 890.68,-25.59"/>
</a>
</g>
</g>
<!-- Node5 -->
<g id="Node000005" class="node">
<title>Node5</title>
<g id="a_Node000005"><a xlink:title=" ">
<polygon fill="#e0e0e0" stroke="#999999" points="873.25,-20 690.75,-20 690.75,0 873.25,0 873.25,-20"/>
<text xml:space="preserve" text-anchor="middle" x="782" y="-6.5" font-family="Helvetica,sans-Serif" font-size="10.00">StageManagerSubsystem.generated.h</text>
</a>
</g>
</g>
<!-- Node2&#45;&gt;Node5 -->
<g id="edge4_Node000002_Node000005" class="edge">
<title>Node2&#45;&gt;Node5</title>
<g id="a_edge4_Node000002_Node000005"><a xlink:title=" ">
<path fill="none" stroke="#63b8ff" d="M624.22,-61.62C655.83,-51.48 706.43,-35.25 741.78,-23.9"/>
<polygon fill="#63b8ff" stroke="#63b8ff" points="742.78,-27.26 751.24,-20.87 740.65,-20.59 742.78,-27.26"/>
</a>
</g>
</g>
<!-- Node6&#45;&gt;Node3 -->
<g id="edge6_Node000006_Node000003" class="edge">
<title>Node6&#45;&gt;Node3</title>
<g id="a_edge6_Node000006_Node000003"><a xlink:title=" ">
<path fill="none" stroke="#63b8ff" d="M265.48,-55.55C274.46,-47.13 285.6,-36.69 294.83,-28.04"/>
<polygon fill="#63b8ff" stroke="#63b8ff" points="296.96,-30.84 301.86,-21.44 292.17,-25.73 296.96,-30.84"/>
</a>
</g>
</g>
<!-- Node7 -->
<g id="Node000007" class="node">
<title>Node7</title>
<g id="a_Node000007"><a xlink:title=" ">
<polygon fill="#e0e0e0" stroke="#999999" points="255.75,-20 154.25,-20 154.25,0 255.75,0 255.75,-20"/>
<text xml:space="preserve" text-anchor="middle" x="205" y="-6.5" font-family="Helvetica,sans-Serif" font-size="10.00">Engine/DataTable.h</text>
</a>
</g>
</g>
<!-- Node6&#45;&gt;Node7 -->
<g id="edge7_Node000006_Node000007" class="edge">
<title>Node6&#45;&gt;Node7</title>
<g id="a_edge7_Node000006_Node000007"><a xlink:title=" ">
<path fill="none" stroke="#63b8ff" d="M237.67,-55.55C231.88,-47.65 224.78,-37.97 218.69,-29.66"/>
<polygon fill="#63b8ff" stroke="#63b8ff" points="221.53,-27.62 212.79,-21.63 215.89,-31.76 221.53,-27.62"/>
</a>
</g>
</g>
<!-- Node8 -->
<g id="Node000008" class="node">
<title>Node8</title>
<g id="a_Node000008"><a xlink:title=" ">
<polygon fill="#e0e0e0" stroke="#999999" points="136,-20 0,-20 0,0 136,0 136,-20"/>
<text xml:space="preserve" text-anchor="middle" x="68" y="-6.5" font-family="Helvetica,sans-Serif" font-size="10.00">StageDataRow.generated.h</text>
</a>
</g>
</g>
<!-- Node6&#45;&gt;Node8 -->
<g id="edge8_Node000006_Node000008" class="edge">
<title>Node6&#45;&gt;Node8</title>
<g id="a_edge8_Node000006_Node000008"><a xlink:title=" ">
<path fill="none" stroke="#63b8ff" d="M202.39,-55.55C172.89,-45.77 135.18,-33.27 107.22,-24"/>
<polygon fill="#63b8ff" stroke="#63b8ff" points="108.68,-20.8 98.08,-20.97 106.47,-27.44 108.68,-20.8"/>
</a>
</g>
</g>
<!-- Node9&#45;&gt;Node3 -->
<g id="edge10_Node000009_Node000003" class="edge">
<title>Node9&#45;&gt;Node3</title>
<g id="a_edge10_Node000009_Node000003"><a xlink:title=" ">
<path fill="none" stroke="#63b8ff" d="M414.25,-61.62C394.79,-51.89 364.1,-36.55 341.61,-25.31"/>
<polygon fill="#63b8ff" stroke="#63b8ff" points="343.48,-22.33 332.97,-20.99 340.35,-28.59 343.48,-22.33"/>
</a>
</g>
</g>
<!-- Node10 -->
<g id="Node000010" class="node">
<title>Node10</title>
<g id="a_Node000010"><a xlink:title=" ">
<polygon fill="#e0e0e0" stroke="#999999" points="495.75,-20 370.25,-20 370.25,0 495.75,0 495.75,-20"/>
<text xml:space="preserve" text-anchor="middle" x="433" y="-6.5" font-family="Helvetica,sans-Serif" font-size="10.00">GameFramework/Actor.h</text>
</a>
</g>
</g>
<!-- Node9&#45;&gt;Node10 -->
<g id="edge11_Node000009_Node000010" class="edge">
<title>Node9&#45;&gt;Node10</title>
<g id="a_edge11_Node000009_Node000010"><a xlink:title=" ">
<path fill="none" stroke="#63b8ff" d="M433,-61.62C433,-53.56 433,-41.65 433,-31.41"/>
<polygon fill="#63b8ff" stroke="#63b8ff" points="436.5,-31.63 433,-21.63 429.5,-31.63 436.5,-31.63"/>
</a>
</g>
</g>
<!-- Node11 -->
<g id="Node000011" class="node">
<title>Node11</title>
<g id="a_Node000011"><a xlink:title=" ">
<polygon fill="#e0e0e0" stroke="#999999" points="672.25,-20 513.75,-20 513.75,0 672.25,0 672.25,-20"/>
<text xml:space="preserve" text-anchor="middle" x="593" y="-6.5" font-family="Helvetica,sans-Serif" font-size="10.00">MonsterSpawnActor.generated.h</text>
</a>
</g>
</g>
<!-- Node9&#45;&gt;Node11 -->
<g id="edge12_Node000009_Node000011" class="edge">
<title>Node9&#45;&gt;Node11</title>
<g id="a_edge12_Node000009_Node000011"><a xlink:title=" ">
<path fill="none" stroke="#63b8ff" d="M458,-61.62C484.69,-51.62 527.22,-35.67 557.4,-24.35"/>
<polygon fill="#63b8ff" stroke="#63b8ff" points="558.36,-27.73 566.49,-20.94 555.9,-21.17 558.36,-27.73"/>
</a>
</g>
</g>
</g>
</svg>
