<?xml version="1.0" encoding="UTF-8" standalone="no"?>
<!DOCTYPE svg PUBLIC "-//W3C//DTD SVG 1.1//EN"
 "http://www.w3.org/Graphics/SVG/1.1/DTD/svg11.dtd">
<!-- Generated by graphviz version 13.1.1 (20250719.2154)
 -->
<!-- Title: C:/Users/user/Perforce/alz7_CobaltbruWorkspace_00/KPT/Source/KPT/Core/Component/GameState/UStateManagerComponent.cpp Pages: 1 -->
<svg width="1011pt" height="200pt"
 viewBox="0.00 0.00 1011.00 200.00" xmlns="http://www.w3.org/2000/svg" xmlns:xlink="http://www.w3.org/1999/xlink">
<g id="graph0" class="graph" transform="scale(1 1) rotate(0) translate(4 196)">
<title>C:/Users/user/Perforce/alz7_CobaltbruWorkspace_00/KPT/Source/KPT/Core/Component/GameState/UStateManagerComponent.cpp</title>
<!-- Node1 -->
<g id="Node000001" class="node">
<title>Node1</title>
<g id="a_Node000001"><a xlink:title=" ">
<polygon fill="#999999" stroke="#666666" points="800.62,-192 607.62,-192 607.62,-124 800.62,-124 800.62,-192"/>
<text xml:space="preserve" text-anchor="start" x="615.62" y="-178.5" font-family="Helvetica,sans-Serif" font-size="10.00">C:/Users/user/Perforce</text>
<text xml:space="preserve" text-anchor="start" x="615.62" y="-166.5" font-family="Helvetica,sans-Serif" font-size="10.00">/alz7_CobaltbruWorkspace</text>
<text xml:space="preserve" text-anchor="start" x="615.62" y="-154.5" font-family="Helvetica,sans-Serif" font-size="10.00">_00/KPT/Source/KPT/Core</text>
<text xml:space="preserve" text-anchor="start" x="615.62" y="-142.5" font-family="Helvetica,sans-Serif" font-size="10.00">/Component/GameState/UStateManager</text>
<text xml:space="preserve" text-anchor="middle" x="704.12" y="-130.5" font-family="Helvetica,sans-Serif" font-size="10.00">Component.cpp</text>
</a>
</g>
</g>
<!-- Node2 -->
<g id="Node000002" class="node">
<title>Node2</title>
<g id="a_Node000002"><a xlink:href="_u_state_manager_component_8h.html" target="_top" xlink:title=" ">
<polygon fill="white" stroke="#666666" points="483.5,-82 340.75,-82 340.75,-62 483.5,-62 483.5,-82"/>
<text xml:space="preserve" text-anchor="middle" x="412.12" y="-68.5" font-family="Helvetica,sans-Serif" font-size="10.00">UStateManagerComponent.h</text>
</a>
</g>
</g>
<!-- Node1&#45;&gt;Node2 -->
<g id="edge1_Node000001_Node000002" class="edge">
<title>Node1&#45;&gt;Node2</title>
<g id="a_edge1_Node000001_Node000002"><a xlink:title=" ">
<path fill="none" stroke="#63b8ff" d="M607.3,-129.15C556.12,-114.42 495.81,-97.07 455.92,-85.6"/>
<polygon fill="#63b8ff" stroke="#63b8ff" points="457.02,-82.27 446.44,-82.87 455.08,-89 457.02,-82.27"/>
</a>
</g>
</g>
<!-- Node7 -->
<g id="Node000007" class="node">
<title>Node7</title>
<g id="a_Node000007"><a xlink:href="_component_owner_interface_8h.html" target="_top" xlink:title=" ">
<polygon fill="white" stroke="#666666" points="684.88,-88 553.38,-88 553.38,-56 684.88,-56 684.88,-88"/>
<text xml:space="preserve" text-anchor="start" x="561.38" y="-74.5" font-family="Helvetica,sans-Serif" font-size="10.00">Core/Interface/Component</text>
<text xml:space="preserve" text-anchor="middle" x="619.12" y="-62.5" font-family="Helvetica,sans-Serif" font-size="10.00">OwnerInterface.h</text>
</a>
</g>
</g>
<!-- Node1&#45;&gt;Node7 -->
<g id="edge6_Node000001_Node000007" class="edge">
<title>Node1&#45;&gt;Node7</title>
<g id="a_edge6_Node000001_Node000007"><a xlink:title=" ">
<path fill="none" stroke="#63b8ff" d="M670.53,-123.8C661.2,-114.58 651.28,-104.77 642.66,-96.26"/>
<polygon fill="#63b8ff" stroke="#63b8ff" points="645.2,-93.85 635.63,-89.31 640.28,-98.82 645.2,-93.85"/>
</a>
</g>
</g>
<!-- Node10 -->
<g id="Node000010" class="node">
<title>Node10</title>
<g id="a_Node000010"><a xlink:title=" ">
<polygon fill="#e0e0e0" stroke="#999999" points="877.25,-82 703,-82 703,-62 877.25,-62 877.25,-82"/>
<text xml:space="preserve" text-anchor="middle" x="790.12" y="-68.5" font-family="Helvetica,sans-Serif" font-size="10.00">GameFramework/GameStateBase.h</text>
</a>
</g>
</g>
<!-- Node1&#45;&gt;Node10 -->
<g id="edge10_Node000001_Node000010" class="edge">
<title>Node1&#45;&gt;Node10</title>
<g id="a_edge10_Node000001_Node000010"><a xlink:title=" ">
<path fill="none" stroke="#63b8ff" d="M738.11,-123.8C749.9,-112.28 762.64,-99.84 772.56,-90.16"/>
<polygon fill="#63b8ff" stroke="#63b8ff" points="774.98,-92.69 779.69,-83.2 770.09,-87.68 774.98,-92.69"/>
</a>
</g>
</g>
<!-- Node11 -->
<g id="Node000011" class="node">
<title>Node11</title>
<g id="a_Node000011"><a xlink:title=" ">
<polygon fill="#e0e0e0" stroke="#999999" points="1003.25,-82 895,-82 895,-62 1003.25,-62 1003.25,-82"/>
<text xml:space="preserve" text-anchor="middle" x="949.12" y="-68.5" font-family="Helvetica,sans-Serif" font-size="10.00">Net/UnrealNetwork.h</text>
</a>
</g>
</g>
<!-- Node1&#45;&gt;Node11 -->
<g id="edge11_Node000001_Node000011" class="edge">
<title>Node1&#45;&gt;Node11</title>
<g id="a_edge11_Node000001_Node000011"><a xlink:title=" ">
<path fill="none" stroke="#63b8ff" d="M800.96,-123.8C839.5,-110.59 881.6,-96.15 911.03,-86.06"/>
<polygon fill="#63b8ff" stroke="#63b8ff" points="911.91,-89.46 920.23,-82.91 909.64,-82.84 911.91,-89.46"/>
</a>
</g>
</g>
<!-- Node3 -->
<g id="Node000003" class="node">
<title>Node3</title>
<g id="a_Node000003"><a xlink:title=" ">
<polygon fill="#e0e0e0" stroke="#999999" points="603.62,-20 524.62,-20 524.62,0 603.62,0 603.62,-20"/>
<text xml:space="preserve" text-anchor="middle" x="564.12" y="-6.5" font-family="Helvetica,sans-Serif" font-size="10.00">CoreMinimal.h</text>
</a>
</g>
</g>
<!-- Node2&#45;&gt;Node3 -->
<g id="edge2_Node000002_Node000003" class="edge">
<title>Node2&#45;&gt;Node3</title>
<g id="a_edge2_Node000002_Node000003"><a xlink:title=" ">
<path fill="none" stroke="#63b8ff" d="M435.88,-61.62C461.12,-51.66 501.28,-35.81 529.93,-24.5"/>
<polygon fill="#63b8ff" stroke="#63b8ff" points="530.87,-27.89 538.88,-20.96 528.3,-21.38 530.87,-27.89"/>
</a>
</g>
</g>
<!-- Node4 -->
<g id="Node000004" class="node">
<title>Node4</title>
<g id="a_Node000004"><a xlink:title=" ">
<polygon fill="#e0e0e0" stroke="#999999" points="126.25,-20 0,-20 0,0 126.25,0 126.25,-20"/>
<text xml:space="preserve" text-anchor="middle" x="63.12" y="-6.5" font-family="Helvetica,sans-Serif" font-size="10.00">GameplayTagContainer.h</text>
</a>
</g>
</g>
<!-- Node2&#45;&gt;Node4 -->
<g id="edge3_Node000002_Node000004" class="edge">
<title>Node2&#45;&gt;Node4</title>
<g id="a_edge3_Node000002_Node000004"><a xlink:title=" ">
<path fill="none" stroke="#63b8ff" d="M357.21,-61.56C295.51,-50.95 195.39,-33.74 129.39,-22.39"/>
<polygon fill="#63b8ff" stroke="#63b8ff" points="130.24,-18.99 119.79,-20.74 129.05,-25.89 130.24,-18.99"/>
</a>
</g>
</g>
<!-- Node5 -->
<g id="Node000005" class="node">
<title>Node5</title>
<g id="a_Node000005"><a xlink:title=" ">
<polygon fill="#e0e0e0" stroke="#999999" points="300.25,-20 144,-20 144,0 300.25,0 300.25,-20"/>
<text xml:space="preserve" text-anchor="middle" x="222.12" y="-6.5" font-family="Helvetica,sans-Serif" font-size="10.00">Components/ActorComponent.h</text>
</a>
</g>
</g>
<!-- Node2&#45;&gt;Node5 -->
<g id="edge4_Node000002_Node000005" class="edge">
<title>Node2&#45;&gt;Node5</title>
<g id="a_edge4_Node000002_Node000005"><a xlink:title=" ">
<path fill="none" stroke="#63b8ff" d="M382.44,-61.62C350.18,-51.44 298.46,-35.11 262.52,-23.76"/>
<polygon fill="#63b8ff" stroke="#63b8ff" points="263.95,-20.54 253.36,-20.86 261.84,-27.21 263.95,-20.54"/>
</a>
</g>
</g>
<!-- Node6 -->
<g id="Node000006" class="node">
<title>Node6</title>
<g id="a_Node000006"><a xlink:title=" ">
<polygon fill="#e0e0e0" stroke="#999999" points="506.38,-20 317.88,-20 317.88,0 506.38,0 506.38,-20"/>
<text xml:space="preserve" text-anchor="middle" x="412.12" y="-6.5" font-family="Helvetica,sans-Serif" font-size="10.00">UStateManagerComponent.generated.h</text>
</a>
</g>
</g>
<!-- Node2&#45;&gt;Node6 -->
<g id="edge5_Node000002_Node000006" class="edge">
<title>Node2&#45;&gt;Node6</title>
<g id="a_edge5_Node000002_Node000006"><a xlink:title=" ">
<path fill="none" stroke="#63b8ff" d="M412.12,-61.62C412.12,-53.56 412.12,-41.65 412.12,-31.41"/>
<polygon fill="#63b8ff" stroke="#63b8ff" points="415.63,-31.63 412.13,-21.63 408.63,-31.63 415.63,-31.63"/>
</a>
</g>
</g>
<!-- Node7&#45;&gt;Node3 -->
<g id="edge7_Node000007_Node000003" class="edge">
<title>Node7&#45;&gt;Node3</title>
<g id="a_edge7_Node000007_Node000003"><a xlink:title=" ">
<path fill="none" stroke="#63b8ff" d="M604.96,-55.55C597.48,-47.39 588.27,-37.33 580.48,-28.84"/>
<polygon fill="#63b8ff" stroke="#63b8ff" points="583.11,-26.53 573.77,-21.52 577.95,-31.26 583.11,-26.53"/>
</a>
</g>
</g>
<!-- Node8 -->
<g id="Node000008" class="node">
<title>Node8</title>
<g id="a_Node000008"><a xlink:title=" ">
<polygon fill="#e0e0e0" stroke="#999999" points="722.88,-20 621.38,-20 621.38,0 722.88,0 722.88,-20"/>
<text xml:space="preserve" text-anchor="middle" x="672.12" y="-6.5" font-family="Helvetica,sans-Serif" font-size="10.00">UObject/Interface.h</text>
</a>
</g>
</g>
<!-- Node7&#45;&gt;Node8 -->
<g id="edge8_Node000007_Node000008" class="edge">
<title>Node7&#45;&gt;Node8</title>
<g id="a_edge8_Node000007_Node000008"><a xlink:title=" ">
<path fill="none" stroke="#63b8ff" d="M632.77,-55.55C639.98,-47.39 648.86,-37.33 656.36,-28.84"/>
<polygon fill="#63b8ff" stroke="#63b8ff" points="658.82,-31.35 662.81,-21.54 653.57,-26.72 658.82,-31.35"/>
</a>
</g>
</g>
<!-- Node9 -->
<g id="Node000009" class="node">
<title>Node9</title>
<g id="a_Node000009"><a xlink:title=" ">
<polygon fill="#e0e0e0" stroke="#999999" points="927.62,-20 740.62,-20 740.62,0 927.62,0 927.62,-20"/>
<text xml:space="preserve" text-anchor="middle" x="834.12" y="-6.5" font-family="Helvetica,sans-Serif" font-size="10.00">ComponentOwnerInterface.generated.h</text>
</a>
</g>
</g>
<!-- Node7&#45;&gt;Node9 -->
<g id="edge9_Node000007_Node000009" class="edge">
<title>Node7&#45;&gt;Node9</title>
<g id="a_edge9_Node000007_Node000009"><a xlink:title=" ">
<path fill="none" stroke="#63b8ff" d="M674.49,-55.55C710.15,-45.6 755.91,-32.83 789.28,-23.51"/>
<polygon fill="#63b8ff" stroke="#63b8ff" points="789.95,-26.96 798.64,-20.9 788.07,-20.22 789.95,-26.96"/>
</a>
</g>
</g>
</g>
</svg>
