<?xml version="1.0" encoding="UTF-8" standalone="no"?>
<!DOCTYPE svg PUBLIC "-//W3C//DTD SVG 1.1//EN"
 "http://www.w3.org/Graphics/SVG/1.1/DTD/svg11.dtd">
<!-- Generated by graphviz version 13.1.1 (20250719.2154)
 -->
<!-- Title: USkillSlotUI::HandleFinishedOnClickedAnimation Pages: 1 -->
<svg width="700pt" height="146pt"
 viewBox="0.00 0.00 700.00 146.00" xmlns="http://www.w3.org/2000/svg" xmlns:xlink="http://www.w3.org/1999/xlink">
<g id="graph0" class="graph" transform="scale(1 1) rotate(0) translate(4 142)">
<title>USkillSlotUI::HandleFinishedOnClickedAnimation</title>
<!-- Node1 -->
<g id="Node000001" class="node">
<title>Node1</title>
<g id="a_Node000001"><a xlink:title=" ">
<polygon fill="#999999" stroke="#666666" points="143.5,-76 0,-76 0,-44 143.5,-44 143.5,-76"/>
<text xml:space="preserve" text-anchor="start" x="8" y="-62.5" font-family="Helvetica,sans-Serif" font-size="10.00">USkillSlotUI::HandleFinished</text>
<text xml:space="preserve" text-anchor="middle" x="71.75" y="-50.5" font-family="Helvetica,sans-Serif" font-size="10.00">OnClickedAnimation</text>
</a>
</g>
</g>
<!-- Node2 -->
<g id="Node000002" class="node">
<title>Node2</title>
<g id="a_Node000002"><a xlink:href="class_a_k_p_t_player_state.html#a6989c3ebb86791d3a7265d8f5dc90b93" target="_top" xlink:title=" ">
<polygon fill="white" stroke="#666666" points="341.75,-120 193,-120 193,-88 341.75,-88 341.75,-120"/>
<text xml:space="preserve" text-anchor="start" x="201" y="-106.5" font-family="Helvetica,sans-Serif" font-size="10.00">AKPTPlayerState::GetReward</text>
<text xml:space="preserve" text-anchor="middle" x="267.38" y="-94.5" font-family="Helvetica,sans-Serif" font-size="10.00">StateComponent</text>
</a>
</g>
</g>
<!-- Node1&#45;&gt;Node2 -->
<g id="edge1_Node000001_Node000002" class="edge">
<title>Node1&#45;&gt;Node2</title>
<g id="a_edge1_Node000001_Node000002"><a xlink:title=" ">
<path fill="none" stroke="#63b8ff" d="M143.75,-76.13C156.57,-79.05 170.03,-82.11 183.16,-85.09"/>
<polygon fill="#63b8ff" stroke="#63b8ff" points="182.08,-88.43 192.61,-87.24 183.64,-81.61 182.08,-88.43"/>
</a>
</g>
</g>
<!-- Node3 -->
<g id="Node000003" class="node">
<title>Node3</title>
<g id="a_Node000003"><a xlink:href="class_u_u_i_base.html#a7db928b8721c8dede4954eed8695c0e4" target="_top" xlink:title=" ">
<polygon fill="white" stroke="#666666" points="355.25,-70 179.5,-70 179.5,-50 355.25,-50 355.25,-70"/>
<text xml:space="preserve" text-anchor="middle" x="267.38" y="-56.5" font-family="Helvetica,sans-Serif" font-size="10.00">UUIBase::GetUIManagerSubsystem</text>
</a>
</g>
</g>
<!-- Node1&#45;&gt;Node3 -->
<g id="edge3_Node000001_Node000003" class="edge">
<title>Node1&#45;&gt;Node3</title>
<g id="a_edge3_Node000001_Node000003"><a xlink:title=" ">
<path fill="none" stroke="#63b8ff" d="M143.75,-60C151.6,-60 159.69,-60 167.8,-60"/>
<polygon fill="#63b8ff" stroke="#63b8ff" points="167.74,-63.5 177.74,-60 167.74,-56.5 167.74,-63.5"/>
</a>
</g>
</g>
<!-- Node4 -->
<g id="Node000004" class="node">
<title>Node4</title>
<g id="a_Node000004"><a xlink:href="class_u_u_i_manager_subsystem.html#a1e0415f5fab1f4658e1aee52f1ee1a0b" target="_top" xlink:title="지정된 인스턴스 ID의 위젯을 화면에서 숨깁니다.">
<polygon fill="white" stroke="#666666" points="327.88,-32 206.88,-32 206.88,0 327.88,0 327.88,-32"/>
<text xml:space="preserve" text-anchor="start" x="214.88" y="-18.5" font-family="Helvetica,sans-Serif" font-size="10.00">UUIManagerSubsystem</text>
<text xml:space="preserve" text-anchor="middle" x="267.38" y="-6.5" font-family="Helvetica,sans-Serif" font-size="10.00">::HideWidget</text>
</a>
</g>
</g>
<!-- Node1&#45;&gt;Node4 -->
<g id="edge4_Node000001_Node000004" class="edge">
<title>Node1&#45;&gt;Node4</title>
<g id="a_edge4_Node000001_Node000004"><a xlink:title=" ">
<path fill="none" stroke="#63b8ff" d="M143.75,-43.87C160.66,-40.02 178.7,-35.92 195.6,-32.08"/>
<polygon fill="#63b8ff" stroke="#63b8ff" points="196.07,-35.57 205.05,-29.94 194.52,-28.74 196.07,-35.57"/>
</a>
</g>
</g>
<!-- Node2&#45;&gt;Node2 -->
<g id="edge2_Node000002_Node000002" class="edge">
<title>Node2&#45;&gt;Node2</title>
<g id="a_edge2_Node000002_Node000002"><a xlink:title=" ">
<path fill="none" stroke="#63b8ff" d="M232.45,-120.44C225.93,-129.58 237.57,-138 267.38,-138 283.67,-138 294.54,-135.48 299.98,-131.71"/>
<polygon fill="#63b8ff" stroke="#63b8ff" points="303.4,-132.43 301.99,-121.92 296.54,-131.01 303.4,-132.43"/>
</a>
</g>
</g>
<!-- Node5 -->
<g id="Node000005" class="node">
<title>Node5</title>
<g id="a_Node000005"><a xlink:href="class_u_u_i_manager_subsystem.html#acaac8367f6b3ad4c0509900d7f01b65a" target="_top" xlink:title=" ">
<polygon fill="white" stroke="#666666" points="534.75,-32 391.25,-32 391.25,0 534.75,0 534.75,-32"/>
<text xml:space="preserve" text-anchor="start" x="399.25" y="-18.5" font-family="Helvetica,sans-Serif" font-size="10.00">UUIManagerSubsystem</text>
<text xml:space="preserve" text-anchor="middle" x="463" y="-6.5" font-family="Helvetica,sans-Serif" font-size="10.00">::UpdateInputModeAndFocus</text>
</a>
</g>
</g>
<!-- Node4&#45;&gt;Node5 -->
<g id="edge5_Node000004_Node000005" class="edge">
<title>Node4&#45;&gt;Node5</title>
<g id="a_edge5_Node000004_Node000005"><a xlink:title=" ">
<path fill="none" stroke="#63b8ff" d="M328.31,-16C344.53,-16 362.37,-16 379.59,-16"/>
<polygon fill="#63b8ff" stroke="#63b8ff" points="379.28,-19.5 389.28,-16 379.28,-12.5 379.28,-19.5"/>
</a>
</g>
</g>
<!-- Node6 -->
<g id="Node000006" class="node">
<title>Node6</title>
<g id="a_Node000006"><a xlink:href="class_u_u_i_manager_subsystem.html#a6c815ab68107e8e616ddb62dd3391d2c" target="_top" xlink:title=" ">
<polygon fill="white" stroke="#666666" points="691.75,-32 570.75,-32 570.75,0 691.75,0 691.75,-32"/>
<text xml:space="preserve" text-anchor="start" x="578.75" y="-18.5" font-family="Helvetica,sans-Serif" font-size="10.00">UUIManagerSubsystem</text>
<text xml:space="preserve" text-anchor="middle" x="631.25" y="-6.5" font-family="Helvetica,sans-Serif" font-size="10.00">::SetUIInputMode</text>
</a>
</g>
</g>
<!-- Node5&#45;&gt;Node6 -->
<g id="edge6_Node000005_Node000006" class="edge">
<title>Node5&#45;&gt;Node6</title>
<g id="a_edge6_Node000005_Node000006"><a xlink:title=" ">
<path fill="none" stroke="#63b8ff" d="M534.99,-16C542.93,-16 551.03,-16 558.98,-16"/>
<polygon fill="#63b8ff" stroke="#63b8ff" points="558.97,-19.5 568.97,-16 558.97,-12.5 558.97,-19.5"/>
</a>
</g>
</g>
</g>
</svg>
