<?xml version="1.0" encoding="UTF-8" standalone="no"?>
<!DOCTYPE svg PUBLIC "-//W3C//DTD SVG 1.1//EN"
 "http://www.w3.org/Graphics/SVG/1.1/DTD/svg11.dtd">
<!-- Generated by graphviz version 13.1.1 (20250719.2154)
 -->
<!-- Title: AAreaHazard::ActivateHazard Pages: 1 -->
<svg width="351pt" height="78pt"
 viewBox="0.00 0.00 351.00 78.00" xmlns="http://www.w3.org/2000/svg" xmlns:xlink="http://www.w3.org/1999/xlink">
<g id="graph0" class="graph" transform="scale(1 1) rotate(0) translate(4 74)">
<title>AAreaHazard::ActivateHazard</title>
<!-- Node1 -->
<g id="Node000001" class="node">
<title>Node1</title>
<g id="a_Node000001"><a xlink:title=" ">
<polygon fill="#999999" stroke="#666666" points="148,-42 0,-42 0,-22 148,-22 148,-42"/>
<text xml:space="preserve" text-anchor="middle" x="74" y="-28.5" font-family="Helvetica,sans-Serif" font-size="10.00">AAreaHazard::ActivateHazard</text>
</a>
</g>
</g>
<!-- Node2 -->
<g id="Node000002" class="node">
<title>Node2</title>
<g id="a_Node000002"><a xlink:href="class_a_area_hazard.html#a08671a76a20608d282e8f4158ebea873" target="_top" xlink:title=" ">
<polygon fill="white" stroke="#666666" points="329,-70 198.25,-70 198.25,-38 329,-38 329,-70"/>
<text xml:space="preserve" text-anchor="start" x="206.25" y="-56.5" font-family="Helvetica,sans-Serif" font-size="10.00">AAreaHazard::ApplyEffect</text>
<text xml:space="preserve" text-anchor="middle" x="263.62" y="-44.5" font-family="Helvetica,sans-Serif" font-size="10.00">ToTarget</text>
</a>
</g>
</g>
<!-- Node1&#45;&gt;Node2 -->
<g id="edge1_Node000001_Node000002" class="edge">
<title>Node1&#45;&gt;Node2</title>
<g id="a_edge1_Node000001_Node000002"><a xlink:title=" ">
<path fill="none" stroke="#63b8ff" d="M148.35,-40.6C160.86,-42.07 173.88,-43.59 186.46,-45.07"/>
<polygon fill="#63b8ff" stroke="#63b8ff" points="186.03,-48.54 196.37,-46.23 186.84,-41.59 186.03,-48.54"/>
</a>
</g>
</g>
<!-- Node3 -->
<g id="Node000003" class="node">
<title>Node3</title>
<g id="a_Node000003"><a xlink:href="class_a_area_hazard.html#ac7a14789fa51e1fceafe0370956dd6c3" target="_top" xlink:title=" ">
<polygon fill="white" stroke="#666666" points="343.25,-20 184,-20 184,0 343.25,0 343.25,-20"/>
<text xml:space="preserve" text-anchor="middle" x="263.62" y="-6.5" font-family="Helvetica,sans-Serif" font-size="10.00">AAreaHazard::DeactivateHazard</text>
</a>
</g>
</g>
<!-- Node1&#45;&gt;Node3 -->
<g id="edge2_Node000001_Node000003" class="edge">
<title>Node1&#45;&gt;Node3</title>
<g id="a_edge2_Node000001_Node000003"><a xlink:title=" ">
<path fill="none" stroke="#63b8ff" d="M148.35,-23.4C156.24,-22.47 164.34,-21.52 172.4,-20.58"/>
<polygon fill="#63b8ff" stroke="#63b8ff" points="172.72,-24.07 182.25,-19.42 171.91,-17.11 172.72,-24.07"/>
</a>
</g>
</g>
</g>
</svg>
