<?xml version="1.0" encoding="UTF-8" standalone="no"?>
<!DOCTYPE svg PUBLIC "-//W3C//DTD SVG 1.1//EN"
 "http://www.w3.org/Graphics/SVG/1.1/DTD/svg11.dtd">
<!-- Generated by graphviz version 13.1.1 (20250719.2154)
 -->
<!-- Title: AKPTPlayerState::ResetForNewGame Pages: 1 -->
<svg width="502pt" height="40pt"
 viewBox="0.00 0.00 502.00 40.00" xmlns="http://www.w3.org/2000/svg" xmlns:xlink="http://www.w3.org/1999/xlink">
<g id="graph0" class="graph" transform="scale(1 1) rotate(0) translate(4 36)">
<title>AKPTPlayerState::ResetForNewGame</title>
<!-- Node1 -->
<g id="Node000001" class="node">
<title>Node1</title>
<g id="a_Node000001"><a xlink:title=" ">
<polygon fill="#999999" stroke="#666666" points="139.75,-32 0,-32 0,0 139.75,0 139.75,-32"/>
<text xml:space="preserve" text-anchor="start" x="8" y="-18.5" font-family="Helvetica,sans-Serif" font-size="10.00">AKPTPlayerState::ResetFor</text>
<text xml:space="preserve" text-anchor="middle" x="69.88" y="-6.5" font-family="Helvetica,sans-Serif" font-size="10.00">NewGame</text>
</a>
</g>
</g>
<!-- Node2 -->
<g id="Node000002" class="node">
<title>Node2</title>
<g id="a_Node000002"><a xlink:href="class_a_k_p_t_player_state.html#ae76783471e033ac0ece5ebe988856b1b" target="_top" xlink:title="업그레이드 선택 기회를 추가합니다.">
<polygon fill="white" stroke="#666666" points="328.25,-32 175.75,-32 175.75,0 328.25,0 328.25,-32"/>
<text xml:space="preserve" text-anchor="start" x="183.75" y="-18.5" font-family="Helvetica,sans-Serif" font-size="10.00">AKPTPlayerState::SetPersonal</text>
<text xml:space="preserve" text-anchor="middle" x="252" y="-6.5" font-family="Helvetica,sans-Serif" font-size="10.00">StateTag</text>
</a>
</g>
</g>
<!-- Node1&#45;&gt;Node2 -->
<g id="edge1_Node000001_Node000002" class="edge">
<title>Node1&#45;&gt;Node2</title>
<g id="a_edge1_Node000001_Node000002"><a xlink:title=" ">
<path fill="none" stroke="#63b8ff" d="M140,-16C147.89,-16 156.01,-16 164.09,-16"/>
<polygon fill="#63b8ff" stroke="#63b8ff" points="163.95,-19.5 173.95,-16 163.95,-12.5 163.95,-19.5"/>
</a>
</g>
</g>
<!-- Node3 -->
<g id="Node000003" class="node">
<title>Node3</title>
<g id="a_Node000003"><a xlink:href="class_a_k_p_t_player_state.html#aa41c46851e05f762ccd8c2fc98aa505a" target="_top" xlink:title=" ">
<polygon fill="white" stroke="#666666" points="494.25,-32 364.25,-32 364.25,0 494.25,0 494.25,-32"/>
<text xml:space="preserve" text-anchor="start" x="372.25" y="-18.5" font-family="Helvetica,sans-Serif" font-size="10.00">AKPTPlayerState::OnRep</text>
<text xml:space="preserve" text-anchor="middle" x="429.25" y="-6.5" font-family="Helvetica,sans-Serif" font-size="10.00">_PersonalStateTag</text>
</a>
</g>
</g>
<!-- Node2&#45;&gt;Node3 -->
<g id="edge2_Node000002_Node000003" class="edge">
<title>Node2&#45;&gt;Node3</title>
<g id="a_edge2_Node000002_Node000003"><a xlink:title=" ">
<path fill="none" stroke="#63b8ff" d="M328.59,-16C336.5,-16 344.54,-16 352.44,-16"/>
<polygon fill="#63b8ff" stroke="#63b8ff" points="352.39,-19.5 362.39,-16 352.39,-12.5 352.39,-19.5"/>
</a>
</g>
</g>
</g>
</svg>
