<?xml version="1.0" encoding="UTF-8" standalone="no"?>
<!DOCTYPE svg PUBLIC "-//W3C//DTD SVG 1.1//EN"
 "http://www.w3.org/Graphics/SVG/1.1/DTD/svg11.dtd">
<!-- Generated by graphviz version 13.1.1 (20250719.2154)
 -->
<!-- Title: UAbilityTask_Trace::Activate Pages: 1 -->
<svg width="388pt" height="40pt"
 viewBox="0.00 0.00 388.00 40.00" xmlns="http://www.w3.org/2000/svg" xmlns:xlink="http://www.w3.org/1999/xlink">
<g id="graph0" class="graph" transform="scale(1 1) rotate(0) translate(4 36)">
<title>UAbilityTask_Trace::Activate</title>
<!-- Node1 -->
<g id="Node000001" class="node">
<title>Node1</title>
<g id="a_Node000001"><a xlink:title=" ">
<polygon fill="#999999" stroke="#666666" points="101.5,-32 0,-32 0,0 101.5,0 101.5,-32"/>
<text xml:space="preserve" text-anchor="start" x="8" y="-18.5" font-family="Helvetica,sans-Serif" font-size="10.00">UAbilityTask_Trace</text>
<text xml:space="preserve" text-anchor="middle" x="50.75" y="-6.5" font-family="Helvetica,sans-Serif" font-size="10.00">::Activate</text>
</a>
</g>
</g>
<!-- Node2 -->
<g id="Node000002" class="node">
<title>Node2</title>
<g id="a_Node000002"><a xlink:href="class_u_ability_task___trace.html#a70b4116bb908174822ff86c79838e3ea" target="_top" xlink:title=" ">
<polygon fill="white" stroke="#666666" points="239,-32 137.5,-32 137.5,0 239,0 239,-32"/>
<text xml:space="preserve" text-anchor="start" x="145.5" y="-18.5" font-family="Helvetica,sans-Serif" font-size="10.00">UAbilityTask_Trace</text>
<text xml:space="preserve" text-anchor="middle" x="188.25" y="-6.5" font-family="Helvetica,sans-Serif" font-size="10.00">::PerformTrace</text>
</a>
</g>
</g>
<!-- Node1&#45;&gt;Node2 -->
<g id="edge1_Node000001_Node000002" class="edge">
<title>Node1&#45;&gt;Node2</title>
<g id="a_edge1_Node000001_Node000002"><a xlink:title=" ">
<path fill="none" stroke="#63b8ff" d="M101.82,-16C109.71,-16 117.95,-16 126.06,-16"/>
<polygon fill="#63b8ff" stroke="#63b8ff" points="125.87,-19.5 135.87,-16 125.87,-12.5 125.87,-19.5"/>
</a>
</g>
</g>
<!-- Node3 -->
<g id="Node000003" class="node">
<title>Node3</title>
<g id="a_Node000003"><a xlink:href="class_u_ability_task___trace.html#ac8e5a1f4322b3ca0f7ecbfba302b09c5" target="_top" xlink:title=" ">
<polygon fill="white" stroke="#666666" points="379.5,-32 275,-32 275,0 379.5,0 379.5,-32"/>
<text xml:space="preserve" text-anchor="start" x="283" y="-18.5" font-family="Helvetica,sans-Serif" font-size="10.00">UAbilityTask_Trace</text>
<text xml:space="preserve" text-anchor="middle" x="327.25" y="-6.5" font-family="Helvetica,sans-Serif" font-size="10.00">::PerformConeTrace</text>
</a>
</g>
</g>
<!-- Node2&#45;&gt;Node3 -->
<g id="edge2_Node000002_Node000003" class="edge">
<title>Node2&#45;&gt;Node3</title>
<g id="a_edge2_Node000002_Node000003"><a xlink:title=" ">
<path fill="none" stroke="#63b8ff" d="M239.49,-16C247.18,-16 255.21,-16 263.14,-16"/>
<polygon fill="#63b8ff" stroke="#63b8ff" points="263.13,-19.5 273.13,-16 263.13,-12.5 263.13,-19.5"/>
</a>
</g>
</g>
</g>
</svg>
