<?xml version="1.0" encoding="UTF-8" standalone="no"?>
<!DOCTYPE svg PUBLIC "-//W3C//DTD SVG 1.1//EN"
 "http://www.w3.org/Graphics/SVG/1.1/DTD/svg11.dtd">
<!-- Generated by graphviz version 13.1.1 (20250719.2154)
 -->
<!-- Title: ABossAIController Pages: 1 -->
<svg width="141pt" height="236pt"
 viewBox="0.00 0.00 141.00 236.00" xmlns="http://www.w3.org/2000/svg" xmlns:xlink="http://www.w3.org/1999/xlink">
<g id="graph0" class="graph" transform="scale(1 1) rotate(0) translate(4 232)">
<title>ABossAIController</title>
<!-- Node1 -->
<g id="Node000001" class="node">
<title>Node1</title>
<g id="a_Node000001"><a xlink:title=" ">
<polygon fill="#999999" stroke="none" points="132.75,-140 0,-140 0,0 132.75,0 132.75,-140"/>
<text xml:space="preserve" text-anchor="start" x="25.88" y="-126.5" font-family="Helvetica,sans-Serif" font-size="10.00">ABossAIController</text>
<text xml:space="preserve" text-anchor="start" x="64.88" y="-110.5" font-family="Helvetica,sans-Serif" font-size="10.00"> </text>
<text xml:space="preserve" text-anchor="start" x="4" y="-94.5" font-family="Helvetica,sans-Serif" font-size="10.00">+</text>
<text xml:space="preserve" text-anchor="start" x="14" y="-94.5" font-family="Helvetica,sans-Serif" font-size="10.00">ABossAIController()</text>
<text xml:space="preserve" text-anchor="start" x="4" y="-78.5" font-family="Helvetica,sans-Serif" font-size="10.00">+</text>
<text xml:space="preserve" text-anchor="start" x="14" y="-78.5" font-family="Helvetica,sans-Serif" font-size="10.00">void RunAI()</text>
<text xml:space="preserve" text-anchor="start" x="4" y="-62.5" font-family="Helvetica,sans-Serif" font-size="10.00">+</text>
<text xml:space="preserve" text-anchor="start" x="14" y="-62.5" font-family="Helvetica,sans-Serif" font-size="10.00">void StopAI()</text>
<text xml:space="preserve" text-anchor="start" x="4.38" y="-46.5" font-family="Helvetica,sans-Serif" font-size="10.00">#</text>
<text xml:space="preserve" text-anchor="start" x="14" y="-46.5" font-family="Helvetica,sans-Serif" font-size="10.00">virtual void OnPossess</text>
<text xml:space="preserve" text-anchor="start" x="14" y="-34.5" font-family="Helvetica,sans-Serif" font-size="10.00">(APawn *InPawn) override</text>
<text xml:space="preserve" text-anchor="start" x="4.38" y="-18.5" font-family="Helvetica,sans-Serif" font-size="10.00">#</text>
<text xml:space="preserve" text-anchor="start" x="14" y="-18.5" font-family="Helvetica,sans-Serif" font-size="10.00">virtual void OnUnPossess</text>
<text xml:space="preserve" text-anchor="start" x="14" y="-6.5" font-family="Helvetica,sans-Serif" font-size="10.00">() override</text>
<polygon fill="#666666" stroke="#666666" points="0,-122 0,-122 132.75,-122 132.75,-122 0,-122"/>
<polygon fill="#666666" stroke="#666666" points="0,-106 0,-106 132.75,-106 132.75,-106 0,-106"/>
<polygon fill="none" stroke="#666666" points="0,0 0,-140 132.75,-140 132.75,0 0,0"/>
</a>
</g>
</g>
<!-- Node2 -->
<g id="Node000002" class="node">
<title>Node2</title>
<g id="a_Node000002"><a xlink:title=" ">
<polygon fill="white" stroke="none" points="99.62,-228 33.12,-228 33.12,-176 99.62,-176 99.62,-228"/>
<text xml:space="preserve" text-anchor="start" x="37.12" y="-214.5" font-family="Helvetica,sans-Serif" font-size="10.00">AAIController</text>
<text xml:space="preserve" text-anchor="start" x="64.88" y="-198.5" font-family="Helvetica,sans-Serif" font-size="10.00"> </text>
<text xml:space="preserve" text-anchor="start" x="64.88" y="-182.5" font-family="Helvetica,sans-Serif" font-size="10.00"> </text>
<polygon fill="#666666" stroke="#666666" points="33.12,-210 33.12,-210 99.62,-210 99.62,-210 33.12,-210"/>
<polygon fill="#666666" stroke="#666666" points="33.12,-194 33.12,-194 99.62,-194 99.62,-194 33.12,-194"/>
<polygon fill="none" stroke="#666666" points="33.12,-176 33.12,-228 99.62,-228 99.62,-176 33.12,-176"/>
</a>
</g>
</g>
<!-- Node2&#45;&gt;Node1 -->
<g id="edge1_Node000001_Node000002" class="edge">
<title>Node2&#45;&gt;Node1</title>
<g id="a_edge1_Node000001_Node000002"><a xlink:title=" ">
<path fill="none" stroke="#63b8ff" d="M66.38,-164.92C66.38,-157.04 66.38,-148.46 66.38,-139.78"/>
<polygon fill="none" stroke="#63b8ff" points="62.88,-164.73 66.38,-174.73 69.88,-164.73 62.88,-164.73"/>
</a>
</g>
</g>
</g>
</svg>
