<?xml version="1.0" encoding="UTF-8" standalone="no"?>
<!DOCTYPE svg PUBLIC "-//W3C//DTD SVG 1.1//EN"
 "http://www.w3.org/Graphics/SVG/1.1/DTD/svg11.dtd">
<!-- Generated by graphviz version 13.1.1 (20250719.2154)
 -->
<!-- Title: UMovementStrategyBase::DeactivateStrategy Pages: 1 -->
<svg width="466pt" height="90pt"
 viewBox="0.00 0.00 466.00 90.00" xmlns="http://www.w3.org/2000/svg" xmlns:xlink="http://www.w3.org/1999/xlink">

<svg id="main" version="1.1" xmlns="http://www.w3.org/2000/svg" xmlns:xlink="http://www.w3.org/1999/xlink" xml:space="preserve">

<style type="text/css"><![CDATA[
.node, .edge {opacity: 0.7;}
.node.selected, .edge.selected {opacity: 1;}
.edge:hover path { stroke: red; }
.edge:hover polygon { stroke: red; fill: red; }
]]></style>
<script type="application/ecmascript" xlink:href="svg.min.js"/>
<svg id="graph" class="graph">
<g id="graph0" class="graph" transform="scale(1 1) rotate(0) translate(4 86)">
<title>UMovementStrategyBase::DeactivateStrategy</title>
<!-- Node1 -->
<g id="Node000001" class="node">
<title>Node1</title>
<g id="a_Node000001"><a xlink:title=" ">
<polygon fill="#999999" stroke="#666666" points="128.5,-57 0,-57 0,-25 128.5,-25 128.5,-57"/>
<text xml:space="preserve" text-anchor="start" x="8" y="-43.5" font-family="Helvetica,sans-Serif" font-size="10.00">UMovementStrategyBase</text>
<text xml:space="preserve" text-anchor="middle" x="64.25" y="-31.5" font-family="Helvetica,sans-Serif" font-size="10.00">::DeactivateStrategy</text>
</a>
</g>
</g>
<!-- Node2 -->
<g id="Node000002" class="node">
<title>Node2</title>
<g id="a_Node000002"><a xlink:href="class_u_movement_strategy_base.html#a5727613e54d88ba4548ca6aa45047cf7" target="_top" xlink:title=" ">
<polygon fill="white" stroke="#666666" points="293,-57 164.5,-57 164.5,-25 293,-25 293,-57"/>
<text xml:space="preserve" text-anchor="start" x="172.5" y="-43.5" font-family="Helvetica,sans-Serif" font-size="10.00">UMovementStrategyBase</text>
<text xml:space="preserve" text-anchor="middle" x="228.75" y="-31.5" font-family="Helvetica,sans-Serif" font-size="10.00">::Multicast_Deactivate</text>
</a>
</g>
</g>
<!-- Node1&#45;&gt;Node2 -->
<g id="edge1_Node000001_Node000002" class="edge">
<title>Node1&#45;&gt;Node2</title>
<g id="a_edge1_Node000001_Node000002"><a xlink:title=" ">
<path fill="none" stroke="#63b8ff" d="M128.54,-41C136.48,-41 144.65,-41 152.74,-41"/>
<polygon fill="#63b8ff" stroke="#63b8ff" points="152.58,-44.5 162.58,-41 152.58,-37.5 152.58,-44.5"/>
</a>
</g>
</g>
<!-- Node2&#45;&gt;Node2 -->
<g id="edge2_Node000002_Node000002" class="edge">
<title>Node2&#45;&gt;Node2</title>
<g id="a_edge2_Node000002_Node000002"><a xlink:title=" ">
<path fill="none" stroke="#63b8ff" d="M199.38,-57.44C193.9,-66.58 203.69,-75 228.75,-75 242.45,-75 251.59,-72.48 256.16,-68.71"/>
<polygon fill="#63b8ff" stroke="#63b8ff" points="259.6,-69.39 257.86,-58.93 252.7,-68.19 259.6,-69.39"/>
</a>
</g>
</g>
<!-- Node3 -->
<g id="Node000003" class="node">
<title>Node3</title>
<g id="a_Node000003"><a xlink:href="class_u_movement_strategy_base.html#ad695122e4a3051a102423dc2de3a536f" target="_top" xlink:title=" ">
<polygon fill="white" stroke="#666666" points="457.5,-82 329,-82 329,-50 457.5,-50 457.5,-82"/>
<text xml:space="preserve" text-anchor="start" x="337" y="-68.5" font-family="Helvetica,sans-Serif" font-size="10.00">UMovementStrategyBase</text>
<text xml:space="preserve" text-anchor="middle" x="393.25" y="-56.5" font-family="Helvetica,sans-Serif" font-size="10.00">::TickComponent</text>
</a>
</g>
</g>
<!-- Node2&#45;&gt;Node3 -->
<g id="edge3_Node000002_Node000003" class="edge">
<title>Node2&#45;&gt;Node3</title>
<g id="a_edge3_Node000002_Node000003"><a xlink:title=" ">
<path fill="none" stroke="#63b8ff" d="M293.04,-50.74C300.98,-51.96 309.15,-53.22 317.24,-54.46"/>
<polygon fill="#63b8ff" stroke="#63b8ff" points="316.68,-57.92 327.1,-55.98 317.75,-51 316.68,-57.92"/>
</a>
</g>
</g>
<!-- Node4 -->
<g id="Node000004" class="node">
<title>Node4</title>
<g id="a_Node000004"><a xlink:href="class_u_movement_strategy_base.html#afb1e3a026dba401038425f8fd1a24a6e" target="_top" xlink:title=" ">
<polygon fill="white" stroke="#666666" points="457.5,-32 329,-32 329,0 457.5,0 457.5,-32"/>
<text xml:space="preserve" text-anchor="start" x="337" y="-18.5" font-family="Helvetica,sans-Serif" font-size="10.00">UMovementStrategyBase</text>
<text xml:space="preserve" text-anchor="middle" x="393.25" y="-6.5" font-family="Helvetica,sans-Serif" font-size="10.00">::TriggerFunction</text>
</a>
</g>
</g>
<!-- Node2&#45;&gt;Node4 -->
<g id="edge4_Node000002_Node000004" class="edge">
<title>Node2&#45;&gt;Node4</title>
<g id="a_edge4_Node000002_Node000004"><a xlink:title=" ">
<path fill="none" stroke="#63b8ff" d="M293.04,-31.26C300.98,-30.04 309.15,-28.78 317.24,-27.54"/>
<polygon fill="#63b8ff" stroke="#63b8ff" points="317.75,-31 327.1,-26.02 316.68,-24.08 317.75,-31"/>
</a>
</g>
</g>
</g>
</svg>
</svg>

<style type='text/css'>
<![CDATA[
[data-mouse-over-selected='false'] { opacity: 0.7; }
[data-mouse-over-selected='true']  { opacity: 1.0; }
]]>
</style>
<script type="application/ecmascript"><![CDATA[
document.addEventListener('DOMContentLoaded', (event) => {
  highlightEdges();
  highlightAdjacentNodes();
});
]]></script>
</svg>
