<?xml version="1.0" encoding="UTF-8" standalone="no"?>
<!DOCTYPE svg PUBLIC "-//W3C//DTD SVG 1.1//EN"
 "http://www.w3.org/Graphics/SVG/1.1/DTD/svg11.dtd">
<!-- Generated by graphviz version 13.1.1 (20250719.2154)
 -->
<!-- Title: UMainUI Pages: 1 -->
<!--zoomable 544 -->

<svg id="main" version="1.1" xmlns="http://www.w3.org/2000/svg" xmlns:xlink="http://www.w3.org/1999/xlink" xml:space="preserve" onload="init(evt)">

<style type="text/css"><![CDATA[
.node, .edge {opacity: 0.7;}
.node.selected, .edge.selected {opacity: 1;}
.edge:hover path { stroke: red; }
.edge:hover polygon { stroke: red; fill: red; }
]]></style>

<defs>
  <circle id="rim" cx="0" cy="0" r="7"/>
  <circle id="rim2" cx="0" cy="0" r="3.5"/>
  <g id="zoomPlus">
    <use xlink:href="#rim" fill="#404040"><set attributeName="fill" to="#808080" begin="zoomplus.mouseover" end="zoomplus.mouseout"/></use>
    <path d="M-4,0h8M0,-4v8" fill="none" stroke="white" stroke-width="1.5" pointer-events="none"/>
  </g>
  <g id="zoomMin">
    <use xlink:href="#rim" fill="#404040"><set attributeName="fill" to="#808080" begin="zoomminus.mouseover" end="zoomminus.mouseout"/></use>
    <path d="M-4,0h8" fill="none" stroke="white" stroke-width="1.5" pointer-events="none"/>
  </g>
  <g id="arrowUp" transform="translate(30 24)">
    <use xlink:href="#rim"/>
    <path pointer-events="none" fill="none" stroke="white" stroke-width="1.5" d="M0,-3.0v7 M-2.5,-0.5L0,-3.0L2.5,-0.5"/>
  </g>
  <g id="arrowRight" transform="rotate(90) translate(36 -43)">
    <use xlink:href="#rim"/>
    <path pointer-events="none" fill="none" stroke="white" stroke-width="1.5" d="M0,-3.0v7 M-2.5,-0.5L0,-3.0L2.5,-0.5"/>
  </g>
  <g id="arrowDown" transform="rotate(180) translate(-30 -48)">
    <use xlink:href="#rim"/>
    <path pointer-events="none" fill="none" stroke="white" stroke-width="1.5" d="M0,-3.0v7 M-2.5,-0.5L0,-3.0L2.5,-0.5"/>
  </g>
  <g id="arrowLeft" transform="rotate(270) translate(-36 17)">
    <use xlink:href="#rim"/>
    <path pointer-events="none" fill="none" stroke="white" stroke-width="1.5" d="M0,-3.0v7 M-2.5,-0.5L0,-3.0L2.5,-0.5"/>
  </g>
  <g id="resetDef">
    <use xlink:href="#rim2" fill="#404040"><set attributeName="fill" to="#808080" begin="reset.mouseover" end="reset.mouseout"/></use>
  </g>
</defs>
<script type="application/ecmascript">
var viewWidth = 171;
var viewHeight = 544;
var sectionId = 'dynsection-1';
</script>
<script type="application/ecmascript" xlink:href="svg.min.js"/>
<svg id="graph" class="graph">
<g id="viewport">
<title>UMainUI</title>
<!-- Node1 -->
<g id="Node000001" class="node">
<title>Node1</title>
<g id="a_Node000001"><a xlink:title=" ">
<polygon fill="#999999" stroke="none" points="158.62,-236 4.12,-236 4.12,0 158.62,0 158.62,-236"/>
<text xml:space="preserve" text-anchor="start" x="61.88" y="-222.5" font-family="Helvetica,sans-Serif" font-size="10.00">UMainUI</text>
<text xml:space="preserve" text-anchor="start" x="8.5" y="-206.5" font-family="Helvetica,sans-Serif" font-size="10.00">#</text>
<text xml:space="preserve" text-anchor="start" x="18.12" y="-206.5" font-family="Helvetica,sans-Serif" font-size="10.00">TObjectPtr&lt; UButtonText</text>
<text xml:space="preserve" text-anchor="start" x="18.12" y="-194.5" font-family="Helvetica,sans-Serif" font-size="10.00"> &gt; GameQuit</text>
<text xml:space="preserve" text-anchor="start" x="8.5" y="-178.5" font-family="Helvetica,sans-Serif" font-size="10.00">#</text>
<text xml:space="preserve" text-anchor="start" x="18.12" y="-178.5" font-family="Helvetica,sans-Serif" font-size="10.00">TObjectPtr&lt; UButtonText</text>
<text xml:space="preserve" text-anchor="start" x="18.12" y="-166.5" font-family="Helvetica,sans-Serif" font-size="10.00"> &gt; GameStart</text>
<text xml:space="preserve" text-anchor="start" x="8.5" y="-150.5" font-family="Helvetica,sans-Serif" font-size="10.00">#</text>
<text xml:space="preserve" text-anchor="start" x="18.12" y="-150.5" font-family="Helvetica,sans-Serif" font-size="10.00">TObjectPtr&lt; UButtonText</text>
<text xml:space="preserve" text-anchor="start" x="18.12" y="-138.5" font-family="Helvetica,sans-Serif" font-size="10.00"> &gt; Setting</text>
<text xml:space="preserve" text-anchor="start" x="8.12" y="-122.5" font-family="Helvetica,sans-Serif" font-size="10.00">+</text>
<text xml:space="preserve" text-anchor="start" x="18.12" y="-122.5" font-family="Helvetica,sans-Serif" font-size="10.00">void OnClickedGameQuit()</text>
<text xml:space="preserve" text-anchor="start" x="8.12" y="-106.5" font-family="Helvetica,sans-Serif" font-size="10.00">+</text>
<text xml:space="preserve" text-anchor="start" x="18.12" y="-106.5" font-family="Helvetica,sans-Serif" font-size="10.00">void OnClickedGameStart()</text>
<text xml:space="preserve" text-anchor="start" x="8.12" y="-90.5" font-family="Helvetica,sans-Serif" font-size="10.00">+</text>
<text xml:space="preserve" text-anchor="start" x="18.12" y="-90.5" font-family="Helvetica,sans-Serif" font-size="10.00">void OnClickedSetting()</text>
<text xml:space="preserve" text-anchor="start" x="8.5" y="-74.5" font-family="Helvetica,sans-Serif" font-size="10.00">#</text>
<text xml:space="preserve" text-anchor="start" x="18.12" y="-74.5" font-family="Helvetica,sans-Serif" font-size="10.00">virtual void NativeConstruct</text>
<text xml:space="preserve" text-anchor="start" x="18.12" y="-62.5" font-family="Helvetica,sans-Serif" font-size="10.00">() override</text>
<text xml:space="preserve" text-anchor="start" x="8.5" y="-46.5" font-family="Helvetica,sans-Serif" font-size="10.00">#</text>
<text xml:space="preserve" text-anchor="start" x="18.12" y="-46.5" font-family="Helvetica,sans-Serif" font-size="10.00">virtual void NativeDestruct</text>
<text xml:space="preserve" text-anchor="start" x="18.12" y="-34.5" font-family="Helvetica,sans-Serif" font-size="10.00">() override</text>
<text xml:space="preserve" text-anchor="start" x="8.5" y="-18.5" font-family="Helvetica,sans-Serif" font-size="10.00">#</text>
<text xml:space="preserve" text-anchor="start" x="18.12" y="-18.5" font-family="Helvetica,sans-Serif" font-size="10.00">virtual void NativePreConstruct</text>
<text xml:space="preserve" text-anchor="start" x="18.12" y="-6.5" font-family="Helvetica,sans-Serif" font-size="10.00">() override</text>
<polygon fill="#666666" stroke="#666666" points="4.12,-218 4.12,-218 158.62,-218 158.62,-218 4.12,-218"/>
<polygon fill="#666666" stroke="#666666" points="4.12,-134 4.12,-134 16.12,-134 16.12,-134 4.12,-134"/>
<polygon fill="#666666" stroke="#666666" points="16.12,-134 16.12,-134 158.62,-134 158.62,-134 16.12,-134"/>
<polygon fill="none" stroke="#666666" points="4.12,0 4.12,-236 158.62,-236 158.62,0 4.12,0"/>
</a>
</g>
</g>
<!-- Node2 -->
<g id="Node000002" class="node">
<title>Node2</title>
<g id="a_Node000002"><a xlink:href="class_u_u_i_base.html" target="_top" xlink:title=" ">
<polygon fill="white" stroke="none" points="162.75,-448 0,-448 0,-272 162.75,-272 162.75,-448"/>
<text xml:space="preserve" text-anchor="start" x="61.12" y="-434.5" font-family="Helvetica,sans-Serif" font-size="10.00">UUIBase</text>
<text xml:space="preserve" text-anchor="start" x="4.38" y="-418.5" font-family="Helvetica,sans-Serif" font-size="10.00">#</text>
<text xml:space="preserve" text-anchor="start" x="14" y="-418.5" font-family="Helvetica,sans-Serif" font-size="10.00">FWidgetAnimationDynamicEvent</text>
<text xml:space="preserve" text-anchor="start" x="14" y="-406.5" font-family="Helvetica,sans-Serif" font-size="10.00"> AnimationFinishEvent</text>
<text xml:space="preserve" text-anchor="start" x="4" y="-390.5" font-family="Helvetica,sans-Serif" font-size="10.00">+</text>
<text xml:space="preserve" text-anchor="start" x="14" y="-390.5" font-family="Helvetica,sans-Serif" font-size="10.00">UUIManagerSubsystem</text>
<text xml:space="preserve" text-anchor="start" x="14" y="-378.5" font-family="Helvetica,sans-Serif" font-size="10.00"> * GetUIManagerSubsystem()</text>
<text xml:space="preserve" text-anchor="start" x="4" y="-362.5" font-family="Helvetica,sans-Serif" font-size="10.00">+</text>
<text xml:space="preserve" text-anchor="start" x="14" y="-362.5" font-family="Helvetica,sans-Serif" font-size="10.00">virtual void LateInit()</text>
<text xml:space="preserve" text-anchor="start" x="4.38" y="-346.5" font-family="Helvetica,sans-Serif" font-size="10.00">#</text>
<text xml:space="preserve" text-anchor="start" x="14" y="-346.5" font-family="Helvetica,sans-Serif" font-size="10.00">virtual void NativeConstruct</text>
<text xml:space="preserve" text-anchor="start" x="14" y="-334.5" font-family="Helvetica,sans-Serif" font-size="10.00">() override</text>
<text xml:space="preserve" text-anchor="start" x="4.38" y="-318.5" font-family="Helvetica,sans-Serif" font-size="10.00">#</text>
<text xml:space="preserve" text-anchor="start" x="14" y="-318.5" font-family="Helvetica,sans-Serif" font-size="10.00">virtual void NativeDestruct</text>
<text xml:space="preserve" text-anchor="start" x="14" y="-306.5" font-family="Helvetica,sans-Serif" font-size="10.00">() override</text>
<text xml:space="preserve" text-anchor="start" x="4.38" y="-290.5" font-family="Helvetica,sans-Serif" font-size="10.00">#</text>
<text xml:space="preserve" text-anchor="start" x="14" y="-290.5" font-family="Helvetica,sans-Serif" font-size="10.00">virtual void NativePreConstruct</text>
<text xml:space="preserve" text-anchor="start" x="14" y="-278.5" font-family="Helvetica,sans-Serif" font-size="10.00">() override</text>
<polygon fill="#666666" stroke="#666666" points="0,-430 0,-430 162.75,-430 162.75,-430 0,-430"/>
<polygon fill="#666666" stroke="#666666" points="0,-402 0,-402 12,-402 12,-402 0,-402"/>
<polygon fill="#666666" stroke="#666666" points="12,-402 12,-402 162.75,-402 162.75,-402 12,-402"/>
<polygon fill="none" stroke="#666666" points="0,-272 0,-448 162.75,-448 162.75,-272 0,-272"/>
</a>
</g>
</g>
<!-- Node2&#45;&gt;Node1 -->
<g id="edge1_Node000001_Node000002" class="edge">
<title>Node2&#45;&gt;Node1</title>
<g id="a_edge1_Node000001_Node000002"><a xlink:title=" ">
<path fill="none" stroke="#63b8ff" d="M81.38,-260.55C81.38,-252.36 81.38,-244.03 81.38,-235.72"/>
<polygon fill="none" stroke="#63b8ff" points="77.88,-260.5 81.38,-270.5 84.88,-260.5 77.88,-260.5"/>
</a>
</g>
</g>
<!-- Node3 -->
<g id="Node000003" class="node">
<title>Node3</title>
<g id="a_Node000003"><a xlink:title=" ">
<polygon fill="white" stroke="none" points="115,-536 47.75,-536 47.75,-484 115,-484 115,-536"/>
<text xml:space="preserve" text-anchor="start" x="51.75" y="-522.5" font-family="Helvetica,sans-Serif" font-size="10.00">UUserWidget</text>
<text xml:space="preserve" text-anchor="start" x="79.88" y="-506.5" font-family="Helvetica,sans-Serif" font-size="10.00"> </text>
<text xml:space="preserve" text-anchor="start" x="79.88" y="-490.5" font-family="Helvetica,sans-Serif" font-size="10.00"> </text>
<polygon fill="#666666" stroke="#666666" points="47.75,-518 47.75,-518 115,-518 115,-518 47.75,-518"/>
<polygon fill="#666666" stroke="#666666" points="47.75,-502 47.75,-502 115,-502 115,-502 47.75,-502"/>
<polygon fill="none" stroke="#666666" points="47.75,-484 47.75,-536 115,-536 115,-484 47.75,-484"/>
</a>
</g>
</g>
<!-- Node3&#45;&gt;Node2 -->
<g id="edge2_Node000002_Node000003" class="edge">
<title>Node3&#45;&gt;Node2</title>
<g id="a_edge2_Node000002_Node000003"><a xlink:title=" ">
<path fill="none" stroke="#63b8ff" d="M81.38,-472.77C81.38,-465.04 81.38,-456.56 81.38,-447.83"/>
<polygon fill="none" stroke="#63b8ff" points="77.88,-472.71 81.38,-482.71 84.88,-472.71 77.88,-472.71"/>
</a>
</g>
</g>
</g>
</svg>

<g id="navigator" transform="translate(0 0)" fill="#404254">
  <rect fill="#f2f5e9" fill-opacity="0.5" stroke="#606060" stroke-width=".5" x="0" y="0" width="60" height="60"/>
  <use id="zoomplus" xlink:href="#zoomPlus" x="17" y="9" onmousedown="handleZoom(evt,'in')"/>
  <use id="zoomminus" xlink:href="#zoomMin" x="42" y="9" onmousedown="handleZoom(evt,'out')"/>
  <use id="reset" xlink:href="#resetDef" x="30" y="36" onmousedown="handleReset()"/>
   <use id="arrowup" xlink:href="#arrowUp" x="0" y="0" onmousedown="handlePan(0,-1)"/>
  <use id="arrowright" xlink:href="#arrowRight" x="0" y="0" onmousedown="handlePan(1,0)"/>
  <use id="arrowdown" xlink:href="#arrowDown" x="0" y="0" onmousedown="handlePan(0,1)"/>
  <use id="arrowleft" xlink:href="#arrowLeft" x="0" y="0" onmousedown="handlePan(-1,0)"/>
</g>
<svg viewBox="0 0 15 15" width="100%" height="30px" preserveAspectRatio="xMaxYMin meet">
 <g id="arrow_out" transform="scale(0.3 0.3)">
  <a xlink:href="class_u_main_u_i__coll__graph_org.svg" target="_base">
   <rect id="button" ry="5" rx="5" y="6" x="6" height="38" width="38"
        fill="#f2f5e9" fill-opacity="0.5" stroke="#606060" stroke-width="1.0"/>
   <path id="arrow"
     d="M 11.500037,31.436501 C 11.940474,20.09759 22.043105,11.32322 32.158766,21.979434 L 37.068811,17.246167 C 37.068811,17.246167 37.088388,32 37.088388,32 L 22.160133,31.978069 C 22.160133,31.978069 26.997745,27.140456 26.997745,27.140456 C 18.528582,18.264221 13.291696,25.230495 11.500037,31.436501 z"
     style="fill:#404040;"/>
  </a>
 </g>
</svg>

<style type='text/css'>
<![CDATA[
[data-mouse-over-selected='false'] { opacity: 0.7; }
[data-mouse-over-selected='true']  { opacity: 1.0; }
]]>
</style>
<script type="application/ecmascript"><![CDATA[
document.addEventListener('DOMContentLoaded', (event) => {
  highlightEdges();
  highlightAdjacentNodes();
});
]]></script>
</svg>
