<?xml version="1.0" encoding="UTF-8" standalone="no"?>
<!DOCTYPE svg PUBLIC "-//W3C//DTD SVG 1.1//EN"
 "http://www.w3.org/Graphics/SVG/1.1/DTD/svg11.dtd">
<!-- Generated by graphviz version 13.1.1 (20250719.2154)
 -->
<!-- Title: IMissionInterface Pages: 1 -->
<!--zoomable 852 -->

<svg id="main" version="1.1" xmlns="http://www.w3.org/2000/svg" xmlns:xlink="http://www.w3.org/1999/xlink" xml:space="preserve" onload="init(evt)">

<style type="text/css"><![CDATA[
.node, .edge {opacity: 0.7;}
.node.selected, .edge.selected {opacity: 1;}
.edge:hover path { stroke: red; }
.edge:hover polygon { stroke: red; fill: red; }
]]></style>

<defs>
  <circle id="rim" cx="0" cy="0" r="7"/>
  <circle id="rim2" cx="0" cy="0" r="3.5"/>
  <g id="zoomPlus">
    <use xlink:href="#rim" fill="#404040"><set attributeName="fill" to="#808080" begin="zoomplus.mouseover" end="zoomplus.mouseout"/></use>
    <path d="M-4,0h8M0,-4v8" fill="none" stroke="white" stroke-width="1.5" pointer-events="none"/>
  </g>
  <g id="zoomMin">
    <use xlink:href="#rim" fill="#404040"><set attributeName="fill" to="#808080" begin="zoomminus.mouseover" end="zoomminus.mouseout"/></use>
    <path d="M-4,0h8" fill="none" stroke="white" stroke-width="1.5" pointer-events="none"/>
  </g>
  <g id="arrowUp" transform="translate(30 24)">
    <use xlink:href="#rim"/>
    <path pointer-events="none" fill="none" stroke="white" stroke-width="1.5" d="M0,-3.0v7 M-2.5,-0.5L0,-3.0L2.5,-0.5"/>
  </g>
  <g id="arrowRight" transform="rotate(90) translate(36 -43)">
    <use xlink:href="#rim"/>
    <path pointer-events="none" fill="none" stroke="white" stroke-width="1.5" d="M0,-3.0v7 M-2.5,-0.5L0,-3.0L2.5,-0.5"/>
  </g>
  <g id="arrowDown" transform="rotate(180) translate(-30 -48)">
    <use xlink:href="#rim"/>
    <path pointer-events="none" fill="none" stroke="white" stroke-width="1.5" d="M0,-3.0v7 M-2.5,-0.5L0,-3.0L2.5,-0.5"/>
  </g>
  <g id="arrowLeft" transform="rotate(270) translate(-36 17)">
    <use xlink:href="#rim"/>
    <path pointer-events="none" fill="none" stroke="white" stroke-width="1.5" d="M0,-3.0v7 M-2.5,-0.5L0,-3.0L2.5,-0.5"/>
  </g>
  <g id="resetDef">
    <use xlink:href="#rim2" fill="#404040"><set attributeName="fill" to="#808080" begin="reset.mouseover" end="reset.mouseout"/></use>
  </g>
</defs>
<script type="application/ecmascript">
var viewWidth = 350;
var viewHeight = 852;
var sectionId = 'dynsection-0';
</script>
<script type="application/ecmascript" xlink:href="svg.min.js"/>
<svg id="graph" class="graph">
<g id="viewport">
<title>IMissionInterface</title>
<!-- Node1 -->
<g id="Node000001" class="node">
<title>Node1</title>
<g id="a_Node000001"><a xlink:title=" ">
<polygon fill="#999999" stroke="none" points="241.5,-844 99.75,-844 99.75,-724 241.5,-724 241.5,-844"/>
<text xml:space="preserve" text-anchor="start" x="133.12" y="-830.5" font-family="Helvetica,sans-Serif" font-size="10.00">IMissionInterface</text>
<text xml:space="preserve" text-anchor="start" x="169.12" y="-814.5" font-family="Helvetica,sans-Serif" font-size="10.00"> </text>
<text xml:space="preserve" text-anchor="start" x="103.75" y="-798.5" font-family="Helvetica,sans-Serif" font-size="10.00">+</text>
<text xml:space="preserve" text-anchor="start" x="113.75" y="-798.5" font-family="Helvetica,sans-Serif" font-size="10.00">virtual FName GetMission</text>
<text xml:space="preserve" text-anchor="start" x="113.75" y="-786.5" font-family="Helvetica,sans-Serif" font-size="10.00">ID() const =0</text>
<text xml:space="preserve" text-anchor="start" x="103.75" y="-770.5" font-family="Helvetica,sans-Serif" font-size="10.00">+</text>
<text xml:space="preserve" text-anchor="start" x="113.75" y="-770.5" font-family="Helvetica,sans-Serif" font-size="10.00">virtual FMissionComplete</text>
<text xml:space="preserve" text-anchor="start" x="113.75" y="-758.5" font-family="Helvetica,sans-Serif" font-size="10.00"> &amp; OnMissionCompleted()=0</text>
<text xml:space="preserve" text-anchor="start" x="103.75" y="-742.5" font-family="Helvetica,sans-Serif" font-size="10.00">+</text>
<text xml:space="preserve" text-anchor="start" x="113.75" y="-742.5" font-family="Helvetica,sans-Serif" font-size="10.00">virtual FMissionFailed</text>
<text xml:space="preserve" text-anchor="start" x="113.75" y="-730.5" font-family="Helvetica,sans-Serif" font-size="10.00"> &amp; OnMissionFailed()=0</text>
<polygon fill="#666666" stroke="#666666" points="99.75,-826 99.75,-826 241.5,-826 241.5,-826 99.75,-826"/>
<polygon fill="#666666" stroke="#666666" points="99.75,-810 99.75,-810 241.5,-810 241.5,-810 99.75,-810"/>
<polygon fill="none" stroke="#666666" points="99.75,-724 99.75,-844 241.5,-844 241.5,-724 99.75,-724"/>
</a>
</g>
</g>
<!-- Node2 -->
<g id="Node000002" class="node">
<title>Node2</title>
<g id="a_Node000002"><a xlink:href="class_a_mission_actor_base.html" target="_top" xlink:title=" ">
<polygon fill="white" stroke="none" points="244.12,-688 97.12,-688 97.12,-316 244.12,-316 244.12,-688"/>
<text xml:space="preserve" text-anchor="start" x="127.5" y="-674.5" font-family="Helvetica,sans-Serif" font-size="10.00">AMissionActorBase</text>
<text xml:space="preserve" text-anchor="start" x="101.5" y="-658.5" font-family="Helvetica,sans-Serif" font-size="10.00">#</text>
<text xml:space="preserve" text-anchor="start" x="111.12" y="-658.5" font-family="Helvetica,sans-Serif" font-size="10.00">float CompletionThreshold</text>
<text xml:space="preserve" text-anchor="start" x="101.5" y="-642.5" font-family="Helvetica,sans-Serif" font-size="10.00">#</text>
<text xml:space="preserve" text-anchor="start" x="111.12" y="-642.5" font-family="Helvetica,sans-Serif" font-size="10.00">FName MissionID</text>
<text xml:space="preserve" text-anchor="start" x="101.5" y="-626.5" font-family="Helvetica,sans-Serif" font-size="10.00">#</text>
<text xml:space="preserve" text-anchor="start" x="111.12" y="-626.5" font-family="Helvetica,sans-Serif" font-size="10.00">float MissionProgress</text>
<text xml:space="preserve" text-anchor="start" x="101.12" y="-610.5" font-family="Helvetica,sans-Serif" font-size="10.00">+</text>
<text xml:space="preserve" text-anchor="start" x="111.12" y="-610.5" font-family="Helvetica,sans-Serif" font-size="10.00">AMissionActorBase()</text>
<text xml:space="preserve" text-anchor="start" x="101.12" y="-594.5" font-family="Helvetica,sans-Serif" font-size="10.00">+</text>
<text xml:space="preserve" text-anchor="start" x="111.12" y="-594.5" font-family="Helvetica,sans-Serif" font-size="10.00">virtual float GetCompletion</text>
<text xml:space="preserve" text-anchor="start" x="111.12" y="-582.5" font-family="Helvetica,sans-Serif" font-size="10.00">Threshold() const</text>
<text xml:space="preserve" text-anchor="start" x="101.12" y="-566.5" font-family="Helvetica,sans-Serif" font-size="10.00">+</text>
<text xml:space="preserve" text-anchor="start" x="111.12" y="-566.5" font-family="Helvetica,sans-Serif" font-size="10.00">virtual FName GetMission</text>
<text xml:space="preserve" text-anchor="start" x="111.12" y="-554.5" font-family="Helvetica,sans-Serif" font-size="10.00">ID() const override</text>
<text xml:space="preserve" text-anchor="start" x="101.12" y="-538.5" font-family="Helvetica,sans-Serif" font-size="10.00">+</text>
<text xml:space="preserve" text-anchor="start" x="111.12" y="-538.5" font-family="Helvetica,sans-Serif" font-size="10.00">virtual void NotifyMission</text>
<text xml:space="preserve" text-anchor="start" x="111.12" y="-526.5" font-family="Helvetica,sans-Serif" font-size="10.00">Complete()</text>
<text xml:space="preserve" text-anchor="start" x="101.12" y="-510.5" font-family="Helvetica,sans-Serif" font-size="10.00">+</text>
<text xml:space="preserve" text-anchor="start" x="111.12" y="-510.5" font-family="Helvetica,sans-Serif" font-size="10.00">virtual void NotifyMission</text>
<text xml:space="preserve" text-anchor="start" x="111.12" y="-498.5" font-family="Helvetica,sans-Serif" font-size="10.00">Failed()</text>
<text xml:space="preserve" text-anchor="start" x="101.12" y="-482.5" font-family="Helvetica,sans-Serif" font-size="10.00">+</text>
<text xml:space="preserve" text-anchor="start" x="111.12" y="-482.5" font-family="Helvetica,sans-Serif" font-size="10.00">virtual FMissionComplete</text>
<text xml:space="preserve" text-anchor="start" x="111.12" y="-470.5" font-family="Helvetica,sans-Serif" font-size="10.00"> &amp; OnMissionCompleted()</text>
<text xml:space="preserve" text-anchor="start" x="111.12" y="-458.5" font-family="Helvetica,sans-Serif" font-size="10.00"> override</text>
<text xml:space="preserve" text-anchor="start" x="101.12" y="-442.5" font-family="Helvetica,sans-Serif" font-size="10.00">+</text>
<text xml:space="preserve" text-anchor="start" x="111.12" y="-442.5" font-family="Helvetica,sans-Serif" font-size="10.00">virtual FMissionFailed</text>
<text xml:space="preserve" text-anchor="start" x="111.12" y="-430.5" font-family="Helvetica,sans-Serif" font-size="10.00"> &amp; OnMissionFailed() override</text>
<text xml:space="preserve" text-anchor="start" x="101.12" y="-414.5" font-family="Helvetica,sans-Serif" font-size="10.00">+</text>
<text xml:space="preserve" text-anchor="start" x="111.12" y="-414.5" font-family="Helvetica,sans-Serif" font-size="10.00">virtual void StartMission()</text>
<text xml:space="preserve" text-anchor="start" x="101.5" y="-398.5" font-family="Helvetica,sans-Serif" font-size="10.00">#</text>
<text xml:space="preserve" text-anchor="start" x="111.12" y="-398.5" font-family="Helvetica,sans-Serif" font-size="10.00">virtual void GetLifetime</text>
<text xml:space="preserve" text-anchor="start" x="111.12" y="-386.5" font-family="Helvetica,sans-Serif" font-size="10.00">ReplicatedProps(TArray</text>
<text xml:space="preserve" text-anchor="start" x="111.12" y="-374.5" font-family="Helvetica,sans-Serif" font-size="10.00">&lt; class FLifetimeProperty</text>
<text xml:space="preserve" text-anchor="start" x="111.12" y="-362.5" font-family="Helvetica,sans-Serif" font-size="10.00"> &gt; &amp;OutLifetimeProps) const</text>
<text xml:space="preserve" text-anchor="start" x="111.12" y="-350.5" font-family="Helvetica,sans-Serif" font-size="10.00"> override</text>
<text xml:space="preserve" text-anchor="start" x="101.5" y="-334.5" font-family="Helvetica,sans-Serif" font-size="10.00">#</text>
<text xml:space="preserve" text-anchor="start" x="111.12" y="-334.5" font-family="Helvetica,sans-Serif" font-size="10.00">virtual void OnRep</text>
<text xml:space="preserve" text-anchor="start" x="111.12" y="-322.5" font-family="Helvetica,sans-Serif" font-size="10.00">_MissionProgress()</text>
<polygon fill="#666666" stroke="#666666" points="97.12,-670 97.12,-670 244.12,-670 244.12,-670 97.12,-670"/>
<polygon fill="#666666" stroke="#666666" points="97.12,-622 97.12,-622 109.12,-622 109.12,-622 97.12,-622"/>
<polygon fill="#666666" stroke="#666666" points="109.12,-622 109.12,-622 244.12,-622 244.12,-622 109.12,-622"/>
<polygon fill="none" stroke="#666666" points="97.12,-316 97.12,-688 244.12,-688 244.12,-316 97.12,-316"/>
</a>
</g>
</g>
<!-- Node1&#45;&gt;Node2 -->
<g id="edge1_Node000001_Node000002" class="edge">
<title>Node1&#45;&gt;Node2</title>
<g id="a_edge1_Node000001_Node000002"><a xlink:title=" ">
<path fill="none" stroke="#63b8ff" d="M170.62,-712.93C170.62,-704.95 170.62,-696.57 170.62,-687.93"/>
<polygon fill="none" stroke="#63b8ff" points="167.13,-712.79 170.63,-722.79 174.13,-712.79 167.13,-712.79"/>
</a>
</g>
</g>
<!-- Node3 -->
<g id="Node000003" class="node">
<title>Node3</title>
<g id="a_Node000003"><a xlink:href="class_a_mission___one_bound.html" target="_top" xlink:title=" ">
<polygon fill="white" stroke="none" points="161.25,-280 0,-280 0,0 161.25,0 161.25,-280"/>
<text xml:space="preserve" text-anchor="start" x="34.88" y="-266.5" font-family="Helvetica,sans-Serif" font-size="10.00">AMission_OneBound</text>
<text xml:space="preserve" text-anchor="start" x="4" y="-250.5" font-family="Helvetica,sans-Serif" font-size="10.00">+</text>
<text xml:space="preserve" text-anchor="start" x="14" y="-250.5" font-family="Helvetica,sans-Serif" font-size="10.00">int32 BounceCount</text>
<text xml:space="preserve" text-anchor="start" x="4" y="-234.5" font-family="Helvetica,sans-Serif" font-size="10.00">+</text>
<text xml:space="preserve" text-anchor="start" x="14" y="-234.5" font-family="Helvetica,sans-Serif" font-size="10.00">TSubclassOf&lt; ABouncingBall</text>
<text xml:space="preserve" text-anchor="start" x="14" y="-222.5" font-family="Helvetica,sans-Serif" font-size="10.00"> &gt; BouncingBall</text>
<text xml:space="preserve" text-anchor="start" x="4" y="-206.5" font-family="Helvetica,sans-Serif" font-size="10.00">+</text>
<text xml:space="preserve" text-anchor="start" x="14" y="-206.5" font-family="Helvetica,sans-Serif" font-size="10.00">TSubclassOf&lt; ALandingIndicator</text>
<text xml:space="preserve" text-anchor="start" x="14" y="-194.5" font-family="Helvetica,sans-Serif" font-size="10.00"> &gt; LandingIndicator</text>
<text xml:space="preserve" text-anchor="start" x="4" y="-178.5" font-family="Helvetica,sans-Serif" font-size="10.00">+</text>
<text xml:space="preserve" text-anchor="start" x="14" y="-178.5" font-family="Helvetica,sans-Serif" font-size="10.00">AMission_OneBound()</text>
<text xml:space="preserve" text-anchor="start" x="4" y="-162.5" font-family="Helvetica,sans-Serif" font-size="10.00">+</text>
<text xml:space="preserve" text-anchor="start" x="14" y="-162.5" font-family="Helvetica,sans-Serif" font-size="10.00">void OnBallEnteredIndicator</text>
<text xml:space="preserve" text-anchor="start" x="14" y="-150.5" font-family="Helvetica,sans-Serif" font-size="10.00">(ABouncingBall *Ball)</text>
<text xml:space="preserve" text-anchor="start" x="4" y="-134.5" font-family="Helvetica,sans-Serif" font-size="10.00">+</text>
<text xml:space="preserve" text-anchor="start" x="14" y="-134.5" font-family="Helvetica,sans-Serif" font-size="10.00">virtual void StartMission</text>
<text xml:space="preserve" text-anchor="start" x="14" y="-122.5" font-family="Helvetica,sans-Serif" font-size="10.00">() override</text>
<text xml:space="preserve" text-anchor="start" x="4.38" y="-106.5" font-family="Helvetica,sans-Serif" font-size="10.00">#</text>
<text xml:space="preserve" text-anchor="start" x="14" y="-106.5" font-family="Helvetica,sans-Serif" font-size="10.00">virtual void EndPlay</text>
<text xml:space="preserve" text-anchor="start" x="14" y="-94.5" font-family="Helvetica,sans-Serif" font-size="10.00">(const EEndPlayReason</text>
<text xml:space="preserve" text-anchor="start" x="14" y="-82.5" font-family="Helvetica,sans-Serif" font-size="10.00">::Type EndPlayReason)</text>
<text xml:space="preserve" text-anchor="start" x="14" y="-70.5" font-family="Helvetica,sans-Serif" font-size="10.00"> override</text>
<text xml:space="preserve" text-anchor="start" x="4.38" y="-54.5" font-family="Helvetica,sans-Serif" font-size="10.00">#</text>
<text xml:space="preserve" text-anchor="start" x="14" y="-54.5" font-family="Helvetica,sans-Serif" font-size="10.00">virtual void GetLifetime</text>
<text xml:space="preserve" text-anchor="start" x="14" y="-42.5" font-family="Helvetica,sans-Serif" font-size="10.00">ReplicatedProps(TArray</text>
<text xml:space="preserve" text-anchor="start" x="14" y="-30.5" font-family="Helvetica,sans-Serif" font-size="10.00">&lt; class FLifetimeProperty</text>
<text xml:space="preserve" text-anchor="start" x="14" y="-18.5" font-family="Helvetica,sans-Serif" font-size="10.00"> &gt; &amp;OutLifetimeProps) const</text>
<text xml:space="preserve" text-anchor="start" x="14" y="-6.5" font-family="Helvetica,sans-Serif" font-size="10.00"> override</text>
<polygon fill="#666666" stroke="#666666" points="0,-262 0,-262 161.25,-262 161.25,-262 0,-262"/>
<polygon fill="#666666" stroke="#666666" points="0,-190 0,-190 12,-190 12,-190 0,-190"/>
<polygon fill="#666666" stroke="#666666" points="12,-190 12,-190 161.25,-190 161.25,-190 12,-190"/>
<polygon fill="none" stroke="#666666" points="0,0 0,-280 161.25,-280 161.25,0 0,0"/>
</a>
</g>
</g>
<!-- Node2&#45;&gt;Node3 -->
<g id="edge2_Node000002_Node000003" class="edge">
<title>Node2&#45;&gt;Node3</title>
<g id="a_edge2_Node000002_Node000003"><a xlink:title=" ">
<path fill="none" stroke="#63b8ff" d="M121.71,-305.35C119.56,-296.76 117.43,-288.22 115.32,-279.8"/>
<polygon fill="none" stroke="#63b8ff" points="118.25,-305.93 124.07,-314.79 125.04,-304.24 118.25,-305.93"/>
</a>
</g>
</g>
<!-- Node4 -->
<g id="Node000004" class="node">
<title>Node4</title>
<g id="a_Node000004"><a xlink:href="class_a_mission___splatoon.html" target="_top" xlink:title=" ">
<polygon fill="white" stroke="none" points="342,-226 179.25,-226 179.25,-54 342,-54 342,-226"/>
<text xml:space="preserve" text-anchor="start" x="218.62" y="-212.5" font-family="Helvetica,sans-Serif" font-size="10.00">AMission_Splatoon</text>
<text xml:space="preserve" text-anchor="start" x="183.62" y="-196.5" font-family="Helvetica,sans-Serif" font-size="10.00">#</text>
<text xml:space="preserve" text-anchor="start" x="193.25" y="-196.5" font-family="Helvetica,sans-Serif" font-size="10.00">TSubclassOf&lt; APaintableVolume</text>
<text xml:space="preserve" text-anchor="start" x="193.25" y="-184.5" font-family="Helvetica,sans-Serif" font-size="10.00"> &gt; PaintableVolumeClass</text>
<text xml:space="preserve" text-anchor="start" x="183.25" y="-168.5" font-family="Helvetica,sans-Serif" font-size="10.00">+</text>
<text xml:space="preserve" text-anchor="start" x="193.25" y="-168.5" font-family="Helvetica,sans-Serif" font-size="10.00">AMission_Splatoon()</text>
<text xml:space="preserve" text-anchor="start" x="183.25" y="-152.5" font-family="Helvetica,sans-Serif" font-size="10.00">+</text>
<text xml:space="preserve" text-anchor="start" x="193.25" y="-152.5" font-family="Helvetica,sans-Serif" font-size="10.00">virtual void StartMission</text>
<text xml:space="preserve" text-anchor="start" x="193.25" y="-140.5" font-family="Helvetica,sans-Serif" font-size="10.00">() override</text>
<text xml:space="preserve" text-anchor="start" x="183.62" y="-124.5" font-family="Helvetica,sans-Serif" font-size="10.00">#</text>
<text xml:space="preserve" text-anchor="start" x="193.25" y="-124.5" font-family="Helvetica,sans-Serif" font-size="10.00">virtual void EndPlay</text>
<text xml:space="preserve" text-anchor="start" x="193.25" y="-112.5" font-family="Helvetica,sans-Serif" font-size="10.00">(const EEndPlayReason</text>
<text xml:space="preserve" text-anchor="start" x="193.25" y="-100.5" font-family="Helvetica,sans-Serif" font-size="10.00">::Type EndPlayReason)</text>
<text xml:space="preserve" text-anchor="start" x="193.25" y="-88.5" font-family="Helvetica,sans-Serif" font-size="10.00"> override</text>
<text xml:space="preserve" text-anchor="start" x="183.62" y="-72.5" font-family="Helvetica,sans-Serif" font-size="10.00">#</text>
<text xml:space="preserve" text-anchor="start" x="193.25" y="-72.5" font-family="Helvetica,sans-Serif" font-size="10.00">void OnPaintableVolumeState</text>
<text xml:space="preserve" text-anchor="start" x="193.25" y="-60.5" font-family="Helvetica,sans-Serif" font-size="10.00">Updated()</text>
<polygon fill="#666666" stroke="#666666" points="179.25,-208 179.25,-208 342,-208 342,-208 179.25,-208"/>
<polygon fill="#666666" stroke="#666666" points="179.25,-180 179.25,-180 191.25,-180 191.25,-180 179.25,-180"/>
<polygon fill="#666666" stroke="#666666" points="191.25,-180 191.25,-180 342,-180 342,-180 191.25,-180"/>
<polygon fill="none" stroke="#666666" points="179.25,-54 179.25,-226 342,-226 342,-54 179.25,-54"/>
</a>
</g>
</g>
<!-- Node2&#45;&gt;Node4 -->
<g id="edge3_Node000002_Node000004" class="edge">
<title>Node2&#45;&gt;Node4</title>
<g id="a_edge3_Node000002_Node000004"><a xlink:title=" ">
<path fill="none" stroke="#63b8ff" d="M219.58,-305.16C226.54,-277.36 233.36,-250.06 239.39,-225.96"/>
<polygon fill="none" stroke="#63b8ff" points="216.21,-304.24 217.18,-314.79 223,-305.93 216.21,-304.24"/>
</a>
</g>
</g>
</g>
</svg>

<g id="navigator" transform="translate(0 0)" fill="#404254">
  <rect fill="#f2f5e9" fill-opacity="0.5" stroke="#606060" stroke-width=".5" x="0" y="0" width="60" height="60"/>
  <use id="zoomplus" xlink:href="#zoomPlus" x="17" y="9" onmousedown="handleZoom(evt,'in')"/>
  <use id="zoomminus" xlink:href="#zoomMin" x="42" y="9" onmousedown="handleZoom(evt,'out')"/>
  <use id="reset" xlink:href="#resetDef" x="30" y="36" onmousedown="handleReset()"/>
   <use id="arrowup" xlink:href="#arrowUp" x="0" y="0" onmousedown="handlePan(0,-1)"/>
  <use id="arrowright" xlink:href="#arrowRight" x="0" y="0" onmousedown="handlePan(1,0)"/>
  <use id="arrowdown" xlink:href="#arrowDown" x="0" y="0" onmousedown="handlePan(0,1)"/>
  <use id="arrowleft" xlink:href="#arrowLeft" x="0" y="0" onmousedown="handlePan(-1,0)"/>
</g>
<svg viewBox="0 0 15 15" width="100%" height="30px" preserveAspectRatio="xMaxYMin meet">
 <g id="arrow_out" transform="scale(0.3 0.3)">
  <a xlink:href="class_i_mission_interface__inherit__graph_org.svg" target="_base">
   <rect id="button" ry="5" rx="5" y="6" x="6" height="38" width="38"
        fill="#f2f5e9" fill-opacity="0.5" stroke="#606060" stroke-width="1.0"/>
   <path id="arrow"
     d="M 11.500037,31.436501 C 11.940474,20.09759 22.043105,11.32322 32.158766,21.979434 L 37.068811,17.246167 C 37.068811,17.246167 37.088388,32 37.088388,32 L 22.160133,31.978069 C 22.160133,31.978069 26.997745,27.140456 26.997745,27.140456 C 18.528582,18.264221 13.291696,25.230495 11.500037,31.436501 z"
     style="fill:#404040;"/>
  </a>
 </g>
</svg>

<style type='text/css'>
<![CDATA[
[data-mouse-over-selected='false'] { opacity: 0.7; }
[data-mouse-over-selected='true']  { opacity: 1.0; }
]]>
</style>
<script type="application/ecmascript"><![CDATA[
document.addEventListener('DOMContentLoaded', (event) => {
  highlightEdges();
  highlightAdjacentNodes();
});
]]></script>
</svg>
