<?xml version="1.0" encoding="UTF-8" standalone="no"?>
<!DOCTYPE svg PUBLIC "-//W3C//DTD SVG 1.1//EN"
 "http://www.w3.org/Graphics/SVG/1.1/DTD/svg11.dtd">
<!-- Generated by graphviz version 13.1.1 (20250719.2154)
 -->
<!-- Title: AKPTLobbyDisplayPawn::AttemptInitialStateUpdate Pages: 1 -->
<svg width="467pt" height="58pt"
 viewBox="0.00 0.00 467.00 58.00" xmlns="http://www.w3.org/2000/svg" xmlns:xlink="http://www.w3.org/1999/xlink">
<g id="graph0" class="graph" transform="scale(1 1) rotate(0) translate(4 54)">
<title>AKPTLobbyDisplayPawn::AttemptInitialStateUpdate</title>
<!-- Node1 -->
<g id="Node000001" class="node">
<title>Node1</title>
<g id="a_Node000001"><a xlink:title=" ">
<polygon fill="#999999" stroke="#666666" points="134.5,-32 0,-32 0,0 134.5,0 134.5,-32"/>
<text xml:space="preserve" text-anchor="start" x="8" y="-18.5" font-family="Helvetica,sans-Serif" font-size="10.00">AKPTLobbyDisplayPawn</text>
<text xml:space="preserve" text-anchor="middle" x="67.25" y="-6.5" font-family="Helvetica,sans-Serif" font-size="10.00">::AttemptInitialStateUpdate</text>
</a>
</g>
</g>
<!-- Node2 -->
<g id="Node000002" class="node">
<title>Node2</title>
<g id="a_Node000002"><a xlink:href="class_a_k_p_t_lobby_display_pawn.html#a99b017ba0c3fea7929d9cc297577a5c0" target="_top" xlink:title=" ">
<polygon fill="white" stroke="#666666" points="296.75,-32 170.5,-32 170.5,0 296.75,0 296.75,-32"/>
<text xml:space="preserve" text-anchor="start" x="178.5" y="-18.5" font-family="Helvetica,sans-Serif" font-size="10.00">AKPTLobbyDisplayPawn</text>
<text xml:space="preserve" text-anchor="middle" x="233.62" y="-6.5" font-family="Helvetica,sans-Serif" font-size="10.00">::OnLobbyStateUpdated</text>
</a>
</g>
</g>
<!-- Node1&#45;&gt;Node2 -->
<g id="edge1_Node000001_Node000002" class="edge">
<title>Node1&#45;&gt;Node2</title>
<g id="a_edge1_Node000001_Node000002"><a xlink:title=" ">
<path fill="none" stroke="#63b8ff" d="M134.63,-16C142.63,-16 150.83,-16 158.92,-16"/>
<polygon fill="#63b8ff" stroke="#63b8ff" points="158.74,-19.5 168.74,-16 158.74,-12.5 158.74,-19.5"/>
</a>
</g>
</g>
<!-- Node3 -->
<g id="Node000003" class="node">
<title>Node3</title>
<g id="a_Node000003"><a xlink:href="class_a_k_p_t_lobby_display_pawn.html#aaa058e9fa56e4945087903743b1b792f" target="_top" xlink:title=" ">
<polygon fill="white" stroke="#666666" points="459,-32 332.75,-32 332.75,0 459,0 459,-32"/>
<text xml:space="preserve" text-anchor="start" x="340.75" y="-18.5" font-family="Helvetica,sans-Serif" font-size="10.00">AKPTLobbyDisplayPawn</text>
<text xml:space="preserve" text-anchor="middle" x="395.88" y="-6.5" font-family="Helvetica,sans-Serif" font-size="10.00">::UpdateDisplay</text>
</a>
</g>
</g>
<!-- Node2&#45;&gt;Node3 -->
<g id="edge2_Node000002_Node000003" class="edge">
<title>Node2&#45;&gt;Node3</title>
<g id="a_edge2_Node000002_Node000003"><a xlink:title=" ">
<path fill="none" stroke="#63b8ff" d="M297.04,-16C304.93,-16 313.05,-16 321.09,-16"/>
<polygon fill="#63b8ff" stroke="#63b8ff" points="320.85,-19.5 330.85,-16 320.85,-12.5 320.85,-19.5"/>
</a>
</g>
</g>
<!-- Node3&#45;&gt;Node3 -->
<g id="edge3_Node000003_Node000003" class="edge">
<title>Node3&#45;&gt;Node3</title>
<g id="a_edge3_Node000003_Node000003"><a xlink:title=" ">
<path fill="none" stroke="#63b8ff" d="M366.91,-32.44C361.5,-41.58 371.16,-50 395.88,-50 409.39,-50 418.41,-47.48 422.91,-43.71"/>
<polygon fill="#63b8ff" stroke="#63b8ff" points="426.35,-44.38 424.59,-33.93 419.45,-43.2 426.35,-44.38"/>
</a>
</g>
</g>
</g>
</svg>
