<?xml version="1.0" encoding="UTF-8" standalone="no"?>
<!DOCTYPE svg PUBLIC "-//W3C//DTD SVG 1.1//EN"
 "http://www.w3.org/Graphics/SVG/1.1/DTD/svg11.dtd">
<!-- Generated by graphviz version 13.1.1 (20250719.2154)
 -->
<!-- Title: KPTEditorTarget Pages: 1 -->
<svg width="145pt" height="160pt"
 viewBox="0.00 0.00 145.00 160.00" xmlns="http://www.w3.org/2000/svg" xmlns:xlink="http://www.w3.org/1999/xlink">
<g id="graph0" class="graph" transform="scale(1 1) rotate(0) translate(4 156)">
<title>KPTEditorTarget</title>
<!-- Node1 -->
<g id="Node000001" class="node">
<title>Node1</title>
<g id="a_Node000001"><a xlink:title=" ">
<polygon fill="#999999" stroke="none" points="136.5,-64 0,-64 0,0 136.5,0 136.5,-64"/>
<text xml:space="preserve" text-anchor="start" x="32.25" y="-50.5" font-family="Helvetica,sans-Serif" font-size="10.00">KPTEditorTarget</text>
<text xml:space="preserve" text-anchor="start" x="66.75" y="-34.5" font-family="Helvetica,sans-Serif" font-size="10.00"> </text>
<text xml:space="preserve" text-anchor="start" x="4" y="-18.5" font-family="Helvetica,sans-Serif" font-size="10.00">+</text>
<text xml:space="preserve" text-anchor="start" x="14" y="-18.5" font-family="Helvetica,sans-Serif" font-size="10.00">KPTEditorTarget(TargetInfo</text>
<text xml:space="preserve" text-anchor="start" x="14" y="-6.5" font-family="Helvetica,sans-Serif" font-size="10.00"> Target)</text>
<polygon fill="#666666" stroke="#666666" points="0,-46 0,-46 136.5,-46 136.5,-46 0,-46"/>
<polygon fill="#666666" stroke="#666666" points="0,-30 0,-30 136.5,-30 136.5,-30 0,-30"/>
<polygon fill="none" stroke="#666666" points="0,0 0,-64 136.5,-64 136.5,0 0,0"/>
</a>
</g>
</g>
<!-- Node2 -->
<g id="Node000002" class="node">
<title>Node2</title>
<g id="a_Node000002"><a xlink:title=" ">
<polygon fill="white" stroke="none" points="98.5,-152 38,-152 38,-100 98.5,-100 98.5,-152"/>
<text xml:space="preserve" text-anchor="start" x="42" y="-138.5" font-family="Helvetica,sans-Serif" font-size="10.00">TargetRules</text>
<text xml:space="preserve" text-anchor="start" x="66.75" y="-122.5" font-family="Helvetica,sans-Serif" font-size="10.00"> </text>
<text xml:space="preserve" text-anchor="start" x="66.75" y="-106.5" font-family="Helvetica,sans-Serif" font-size="10.00"> </text>
<polygon fill="#666666" stroke="#666666" points="38,-134 38,-134 98.5,-134 98.5,-134 38,-134"/>
<polygon fill="#666666" stroke="#666666" points="38,-118 38,-118 98.5,-118 98.5,-118 38,-118"/>
<polygon fill="none" stroke="#666666" points="38,-100 38,-152 98.5,-152 98.5,-100 38,-100"/>
</a>
</g>
</g>
<!-- Node2&#45;&gt;Node1 -->
<g id="edge1_Node000001_Node000002" class="edge">
<title>Node2&#45;&gt;Node1</title>
<g id="a_edge1_Node000001_Node000002"><a xlink:title=" ">
<path fill="none" stroke="#63b8ff" d="M68.25,-89.06C68.25,-80.78 68.25,-72.04 68.25,-63.98"/>
<polygon fill="none" stroke="#63b8ff" points="64.75,-88.83 68.25,-98.83 71.75,-88.83 64.75,-88.83"/>
</a>
</g>
</g>
</g>
</svg>
