<?xml version="1.0" encoding="UTF-8" standalone="no"?>
<!DOCTYPE svg PUBLIC "-//W3C//DTD SVG 1.1//EN"
 "http://www.w3.org/Graphics/SVG/1.1/DTD/svg11.dtd">
<!-- Generated by graphviz version 13.1.1 (20250719.2154)
 -->
<!-- Title: UGameplayAbility_BossRockDrop::CollectPlayerLocations Pages: 1 -->
<!--zoomable 90 -->

<svg id="main" version="1.1" xmlns="http://www.w3.org/2000/svg" xmlns:xlink="http://www.w3.org/1999/xlink" xml:space="preserve" onload="init(evt)">

<style type="text/css"><![CDATA[
.node, .edge {opacity: 0.7;}
.node.selected, .edge.selected {opacity: 1;}
.edge:hover path { stroke: red; }
.edge:hover polygon { stroke: red; fill: red; }
]]></style>

<defs>
  <circle id="rim" cx="0" cy="0" r="7"/>
  <circle id="rim2" cx="0" cy="0" r="3.5"/>
  <g id="zoomPlus">
    <use xlink:href="#rim" fill="#404040"><set attributeName="fill" to="#808080" begin="zoomplus.mouseover" end="zoomplus.mouseout"/></use>
    <path d="M-4,0h8M0,-4v8" fill="none" stroke="white" stroke-width="1.5" pointer-events="none"/>
  </g>
  <g id="zoomMin">
    <use xlink:href="#rim" fill="#404040"><set attributeName="fill" to="#808080" begin="zoomminus.mouseover" end="zoomminus.mouseout"/></use>
    <path d="M-4,0h8" fill="none" stroke="white" stroke-width="1.5" pointer-events="none"/>
  </g>
  <g id="arrowUp" transform="translate(30 24)">
    <use xlink:href="#rim"/>
    <path pointer-events="none" fill="none" stroke="white" stroke-width="1.5" d="M0,-3.0v7 M-2.5,-0.5L0,-3.0L2.5,-0.5"/>
  </g>
  <g id="arrowRight" transform="rotate(90) translate(36 -43)">
    <use xlink:href="#rim"/>
    <path pointer-events="none" fill="none" stroke="white" stroke-width="1.5" d="M0,-3.0v7 M-2.5,-0.5L0,-3.0L2.5,-0.5"/>
  </g>
  <g id="arrowDown" transform="rotate(180) translate(-30 -48)">
    <use xlink:href="#rim"/>
    <path pointer-events="none" fill="none" stroke="white" stroke-width="1.5" d="M0,-3.0v7 M-2.5,-0.5L0,-3.0L2.5,-0.5"/>
  </g>
  <g id="arrowLeft" transform="rotate(270) translate(-36 17)">
    <use xlink:href="#rim"/>
    <path pointer-events="none" fill="none" stroke="white" stroke-width="1.5" d="M0,-3.0v7 M-2.5,-0.5L0,-3.0L2.5,-0.5"/>
  </g>
  <g id="resetDef">
    <use xlink:href="#rim2" fill="#404040"><set attributeName="fill" to="#808080" begin="reset.mouseover" end="reset.mouseout"/></use>
  </g>
</defs>
<script type="application/ecmascript">
var viewWidth = 522;
var viewHeight = 90;
var sectionId = 'dynsection-3';
</script>
<script type="application/ecmascript" xlink:href="svg.min.js"/>
<svg id="graph" class="graph">
<g id="viewport">
<title>UGameplayAbility_BossRockDrop::CollectPlayerLocations</title>
<!-- Node1 -->
<g id="Node000001" class="node">
<title>Node1</title>
<g id="a_Node000001"><a xlink:title=" ">
<polygon fill="#999999" stroke="#666666" points="513.75,-57 368,-57 368,-25 513.75,-25 513.75,-57"/>
<text xml:space="preserve" text-anchor="start" x="376" y="-43.5" font-family="Helvetica,sans-Serif" font-size="10.00">UGameplayAbility_BossRock</text>
<text xml:space="preserve" text-anchor="middle" x="440.88" y="-31.5" font-family="Helvetica,sans-Serif" font-size="10.00">Drop::CollectPlayerLocations</text>
</a>
</g>
</g>
<!-- Node2 -->
<g id="Node000002" class="node">
<title>Node2</title>
<g id="a_Node000002"><a xlink:href="class_u_gameplay_ability___boss_rock_drop.html#ae20c146f70f4656b0bad279aee6ed5bd" target="_top" xlink:title=" ">
<polygon fill="white" stroke="#666666" points="148,-82 2.25,-82 2.25,-50 148,-50 148,-82"/>
<text xml:space="preserve" text-anchor="start" x="10.25" y="-68.5" font-family="Helvetica,sans-Serif" font-size="10.00">UGameplayAbility_BossRock</text>
<text xml:space="preserve" text-anchor="middle" x="75.12" y="-56.5" font-family="Helvetica,sans-Serif" font-size="10.00">Drop::ActivateAbility</text>
</a>
</g>
</g>
<!-- Node1&#45;&gt;Node2 -->
<g id="edge1_Node000001_Node000002" class="edge">
<title>Node1&#45;&gt;Node2</title>
<g id="a_edge1_Node000001_Node000002"><a xlink:title=" ">
<path fill="none" stroke="#63b8ff" d="M356.11,-46.76C293.27,-51.08 208.13,-56.93 148.29,-61.04"/>
<polygon fill="#63b8ff" stroke="#63b8ff" points="356.33,-50.25 366.06,-46.07 355.85,-43.27 356.33,-50.25"/>
</a>
</g>
</g>
<!-- Node3 -->
<g id="Node000003" class="node">
<title>Node3</title>
<g id="a_Node000003"><a xlink:href="class_u_gameplay_ability___boss_rock_drop.html#af96f3d05b72995df2afa9a9a9963996f" target="_top" xlink:title=" ">
<polygon fill="white" stroke="#666666" points="332,-35 186.25,-35 186.25,-3 332,-3 332,-35"/>
<text xml:space="preserve" text-anchor="start" x="194.25" y="-21.5" font-family="Helvetica,sans-Serif" font-size="10.00">UGameplayAbility_BossRock</text>
<text xml:space="preserve" text-anchor="middle" x="259.12" y="-9.5" font-family="Helvetica,sans-Serif" font-size="10.00">Drop::StartSingleDropCycle</text>
</a>
</g>
</g>
<!-- Node1&#45;&gt;Node3 -->
<g id="edge2_Node000001_Node000003" class="edge">
<title>Node1&#45;&gt;Node3</title>
<g id="a_edge2_Node000001_Node000003"><a xlink:title=" ">
<path fill="none" stroke="#63b8ff" d="M356.29,-30.77C348.28,-29.79 340.2,-28.8 332.31,-27.84"/>
<polygon fill="#63b8ff" stroke="#63b8ff" points="355.69,-34.22 366.04,-31.96 356.54,-27.27 355.69,-34.22"/>
</a>
</g>
</g>
<!-- Node3&#45;&gt;Node2 -->
<g id="edge3_Node000003_Node000002" class="edge">
<title>Node3&#45;&gt;Node2</title>
<g id="a_edge3_Node000003_Node000002"><a xlink:title=" ">
<path fill="none" stroke="#63b8ff" d="M183.5,-38.27C168.97,-42.02 153.87,-45.92 139.74,-49.57"/>
<polygon fill="#63b8ff" stroke="#63b8ff" points="184.2,-41.71 193,-35.82 182.45,-34.93 184.2,-41.71"/>
</a>
</g>
</g>
<!-- Node4 -->
<g id="Node000004" class="node">
<title>Node4</title>
<g id="a_Node000004"><a xlink:href="class_u_gameplay_ability___boss_rock_drop.html#ae3ea23fe4ff008d87e87ee9fb09eb08f" target="_top" xlink:title=" ">
<polygon fill="white" stroke="#666666" points="150.25,-32 0,-32 0,0 150.25,0 150.25,-32"/>
<text xml:space="preserve" text-anchor="start" x="8" y="-18.5" font-family="Helvetica,sans-Serif" font-size="10.00">UGameplayAbility_BossRock</text>
<text xml:space="preserve" text-anchor="middle" x="75.12" y="-6.5" font-family="Helvetica,sans-Serif" font-size="10.00">Drop::ExecuteSingleRockDrop</text>
</a>
</g>
</g>
<!-- Node3&#45;&gt;Node4 -->
<g id="edge4_Node000003_Node000004" class="edge">
<title>Node3&#45;&gt;Node4</title>
<g id="a_edge4_Node000003_Node000004"><a xlink:title=" ">
<path fill="none" stroke="#63b8ff" d="M174.67,-10.9C166.65,-10.72 158.55,-10.61 150.62,-10.58"/>
<polygon fill="#63b8ff" stroke="#63b8ff" points="174.33,-14.39 184.42,-11.15 174.51,-7.39 174.33,-14.39"/>
</a>
</g>
</g>
<!-- Node4&#45;&gt;Node3 -->
<g id="edge5_Node000004_Node000003" class="edge">
<title>Node4&#45;&gt;Node3</title>
<g id="a_edge5_Node000004_Node000003"><a xlink:title=" ">
<path fill="none" stroke="#63b8ff" d="M161.92,-24.15C169.95,-24.32 178.04,-24.41 185.93,-24.43"/>
<polygon fill="#63b8ff" stroke="#63b8ff" points="162.21,-20.66 152.13,-23.92 162.04,-27.66 162.21,-20.66"/>
</a>
</g>
</g>
</g>
</svg>

<g id="navigator" transform="translate(0 0)" fill="#404254">
  <rect fill="#f2f5e9" fill-opacity="0.5" stroke="#606060" stroke-width=".5" x="0" y="0" width="60" height="60"/>
  <use id="zoomplus" xlink:href="#zoomPlus" x="17" y="9" onmousedown="handleZoom(evt,'in')"/>
  <use id="zoomminus" xlink:href="#zoomMin" x="42" y="9" onmousedown="handleZoom(evt,'out')"/>
  <use id="reset" xlink:href="#resetDef" x="30" y="36" onmousedown="handleReset()"/>
   <use id="arrowup" xlink:href="#arrowUp" x="0" y="0" onmousedown="handlePan(0,-1)"/>
  <use id="arrowright" xlink:href="#arrowRight" x="0" y="0" onmousedown="handlePan(1,0)"/>
  <use id="arrowdown" xlink:href="#arrowDown" x="0" y="0" onmousedown="handlePan(0,1)"/>
  <use id="arrowleft" xlink:href="#arrowLeft" x="0" y="0" onmousedown="handlePan(-1,0)"/>
</g>
<svg viewBox="0 0 15 15" width="100%" height="30px" preserveAspectRatio="xMaxYMin meet">
 <g id="arrow_out" transform="scale(0.3 0.3)">
  <a xlink:href="class_u_gameplay_ability___boss_rock_drop_a7eeb10e4dc8ed26bf45c8270d5c7803c_icgraph_org.svg" target="_base">
   <rect id="button" ry="5" rx="5" y="6" x="6" height="38" width="38"
        fill="#f2f5e9" fill-opacity="0.5" stroke="#606060" stroke-width="1.0"/>
   <path id="arrow"
     d="M 11.500037,31.436501 C 11.940474,20.09759 22.043105,11.32322 32.158766,21.979434 L 37.068811,17.246167 C 37.068811,17.246167 37.088388,32 37.088388,32 L 22.160133,31.978069 C 22.160133,31.978069 26.997745,27.140456 26.997745,27.140456 C 18.528582,18.264221 13.291696,25.230495 11.500037,31.436501 z"
     style="fill:#404040;"/>
  </a>
 </g>
</svg>

<style type='text/css'>
<![CDATA[
[data-mouse-over-selected='false'] { opacity: 0.7; }
[data-mouse-over-selected='true']  { opacity: 1.0; }
]]>
</style>
<script type="application/ecmascript"><![CDATA[
document.addEventListener('DOMContentLoaded', (event) => {
  highlightEdges();
  highlightAdjacentNodes();
});
]]></script>
</svg>
