<?xml version="1.0" encoding="UTF-8" standalone="no"?>
<!DOCTYPE svg PUBLIC "-//W3C//DTD SVG 1.1//EN"
 "http://www.w3.org/Graphics/SVG/1.1/DTD/svg11.dtd">
<!-- Generated by graphviz version 13.1.1 (20250719.2154)
 -->
<!-- Title: UMovementStrategyBase Pages: 1 -->
<svg width="254pt" height="562pt"
 viewBox="0.00 0.00 254.00 562.00" xmlns="http://www.w3.org/2000/svg" xmlns:xlink="http://www.w3.org/1999/xlink">
<g id="graph0" class="graph" transform="scale(1 1) rotate(0) translate(4 558)">
<title>UMovementStrategyBase</title>
<!-- Node1 -->
<g id="Node000001" class="node">
<title>Node1</title>
<g id="a_Node000001"><a xlink:title=" ">
<polygon fill="#999999" stroke="none" points="211,-336 10,-336 10,0 211,0 211,-336"/>
<text xml:space="preserve" text-anchor="start" x="54.25" y="-322.5" font-family="Helvetica,sans-Serif" font-size="10.00">UMovementStrategyBase</text>
<text xml:space="preserve" text-anchor="start" x="14.38" y="-306.5" font-family="Helvetica,sans-Serif" font-size="10.00">#</text>
<text xml:space="preserve" text-anchor="start" x="24" y="-306.5" font-family="Helvetica,sans-Serif" font-size="10.00">int MyIndex</text>
<text xml:space="preserve" text-anchor="start" x="14.38" y="-290.5" font-family="Helvetica,sans-Serif" font-size="10.00">#</text>
<text xml:space="preserve" text-anchor="start" x="24" y="-290.5" font-family="Helvetica,sans-Serif" font-size="10.00">TObjectPtr&lt; AActor</text>
<text xml:space="preserve" text-anchor="start" x="24" y="-278.5" font-family="Helvetica,sans-Serif" font-size="10.00"> &gt; ProjectileOwner</text>
<text xml:space="preserve" text-anchor="start" x="14.38" y="-262.5" font-family="Helvetica,sans-Serif" font-size="10.00">#</text>
<text xml:space="preserve" text-anchor="start" x="24" y="-262.5" font-family="Helvetica,sans-Serif" font-size="10.00">int TotalCount</text>
<text xml:space="preserve" text-anchor="start" x="14" y="-246.5" font-family="Helvetica,sans-Serif" font-size="10.00">+</text>
<text xml:space="preserve" text-anchor="start" x="24" y="-246.5" font-family="Helvetica,sans-Serif" font-size="10.00">UMovementStrategyBase()</text>
<text xml:space="preserve" text-anchor="start" x="14" y="-230.5" font-family="Helvetica,sans-Serif" font-size="10.00">+</text>
<text xml:space="preserve" text-anchor="start" x="24" y="-230.5" font-family="Helvetica,sans-Serif" font-size="10.00">virtual void ActivateStrategy</text>
<text xml:space="preserve" text-anchor="start" x="24" y="-218.5" font-family="Helvetica,sans-Serif" font-size="10.00">(const FDetailedSkillData</text>
<text xml:space="preserve" text-anchor="start" x="24" y="-206.5" font-family="Helvetica,sans-Serif" font-size="10.00"> &amp;InCalculatedData, AActor</text>
<text xml:space="preserve" text-anchor="start" x="24" y="-194.5" font-family="Helvetica,sans-Serif" font-size="10.00"> *NewOwner, int32 InMyIndex,</text>
<text xml:space="preserve" text-anchor="start" x="24" y="-182.5" font-family="Helvetica,sans-Serif" font-size="10.00"> int32 InTotalCount)</text>
<text xml:space="preserve" text-anchor="start" x="14" y="-166.5" font-family="Helvetica,sans-Serif" font-size="10.00">+</text>
<text xml:space="preserve" text-anchor="start" x="24" y="-166.5" font-family="Helvetica,sans-Serif" font-size="10.00">virtual void DeactivateStrategy()</text>
<text xml:space="preserve" text-anchor="start" x="14" y="-150.5" font-family="Helvetica,sans-Serif" font-size="10.00">+</text>
<text xml:space="preserve" text-anchor="start" x="24" y="-150.5" font-family="Helvetica,sans-Serif" font-size="10.00">virtual void Multicast</text>
<text xml:space="preserve" text-anchor="start" x="24" y="-138.5" font-family="Helvetica,sans-Serif" font-size="10.00">_Activate(const FDetailedSkill</text>
<text xml:space="preserve" text-anchor="start" x="24" y="-126.5" font-family="Helvetica,sans-Serif" font-size="10.00">Data &amp;InCalculatedData, AActor</text>
<text xml:space="preserve" text-anchor="start" x="24" y="-114.5" font-family="Helvetica,sans-Serif" font-size="10.00"> *NewOwner, int32 InMyIndex, int32</text>
<text xml:space="preserve" text-anchor="start" x="24" y="-102.5" font-family="Helvetica,sans-Serif" font-size="10.00"> InTotalCount)</text>
<text xml:space="preserve" text-anchor="start" x="14" y="-86.5" font-family="Helvetica,sans-Serif" font-size="10.00">+</text>
<text xml:space="preserve" text-anchor="start" x="24" y="-86.5" font-family="Helvetica,sans-Serif" font-size="10.00">virtual void Multicast</text>
<text xml:space="preserve" text-anchor="start" x="24" y="-74.5" font-family="Helvetica,sans-Serif" font-size="10.00">_Deactivate()</text>
<text xml:space="preserve" text-anchor="start" x="14" y="-58.5" font-family="Helvetica,sans-Serif" font-size="10.00">+</text>
<text xml:space="preserve" text-anchor="start" x="24" y="-58.5" font-family="Helvetica,sans-Serif" font-size="10.00">virtual void TickComponent</text>
<text xml:space="preserve" text-anchor="start" x="24" y="-46.5" font-family="Helvetica,sans-Serif" font-size="10.00">(float DeltaTime, enum ELevelTick</text>
<text xml:space="preserve" text-anchor="start" x="24" y="-34.5" font-family="Helvetica,sans-Serif" font-size="10.00"> TickType, FActorComponentTickFunction</text>
<text xml:space="preserve" text-anchor="start" x="24" y="-22.5" font-family="Helvetica,sans-Serif" font-size="10.00"> *ThisTickFunction) override</text>
<text xml:space="preserve" text-anchor="start" x="14" y="-6.5" font-family="Helvetica,sans-Serif" font-size="10.00">+</text>
<text xml:space="preserve" text-anchor="start" x="24" y="-6.5" font-family="Helvetica,sans-Serif" font-size="10.00">virtual void TriggerFunction()</text>
<polygon fill="#666666" stroke="#666666" points="10,-318 10,-318 211,-318 211,-318 10,-318"/>
<polygon fill="#666666" stroke="#666666" points="10,-258 10,-258 22,-258 22,-258 10,-258"/>
<polygon fill="#666666" stroke="#666666" points="22,-258 22,-258 211,-258 211,-258 22,-258"/>
<polygon fill="none" stroke="#666666" points="10,0 10,-336 211,-336 211,0 10,0"/>
</a>
</g>
</g>
<!-- Node2 -->
<g id="Node000002" class="node">
<title>Node2</title>
<g id="a_Node000002"><a xlink:title=" ">
<polygon fill="white" stroke="none" points="89,-498 0,-498 0,-446 89,-446 89,-498"/>
<text xml:space="preserve" text-anchor="start" x="4" y="-484.5" font-family="Helvetica,sans-Serif" font-size="10.00">UActorComponent</text>
<text xml:space="preserve" text-anchor="start" x="43" y="-468.5" font-family="Helvetica,sans-Serif" font-size="10.00"> </text>
<text xml:space="preserve" text-anchor="start" x="43" y="-452.5" font-family="Helvetica,sans-Serif" font-size="10.00"> </text>
<polygon fill="#666666" stroke="#666666" points="0,-480 0,-480 89,-480 89,-480 0,-480"/>
<polygon fill="#666666" stroke="#666666" points="0,-464 0,-464 89,-464 89,-464 0,-464"/>
<polygon fill="none" stroke="#666666" points="0,-446 0,-498 89,-498 89,-446 0,-446"/>
</a>
</g>
</g>
<!-- Node2&#45;&gt;Node1 -->
<g id="edge1_Node000001_Node000002" class="edge">
<title>Node2&#45;&gt;Node1</title>
<g id="a_edge1_Node000001_Node000002"><a xlink:title=" ">
<path fill="none" stroke="#63b8ff" d="M52.35,-435.1C57.92,-409.57 65.86,-373.27 74.08,-335.66"/>
<polygon fill="none" stroke="#63b8ff" points="49,-434.03 50.28,-444.55 55.83,-435.53 49,-434.03"/>
</a>
</g>
</g>
<!-- Node3 -->
<g id="Node000003" class="node">
<title>Node3</title>
<g id="a_Node000003"><a xlink:href="struct_f_detailed_skill_data.html" target="_top" xlink:title=" ">
<polygon fill="white" stroke="none" points="245.88,-554 107.12,-554 107.12,-390 245.88,-390 245.88,-554"/>
<text xml:space="preserve" text-anchor="start" x="135.62" y="-540.5" font-family="Helvetica,sans-Serif" font-size="10.00">FDetailedSkillData</text>
<text xml:space="preserve" text-anchor="start" x="111.12" y="-524.5" font-family="Helvetica,sans-Serif" font-size="10.00">+</text>
<text xml:space="preserve" text-anchor="start" x="121.12" y="-524.5" font-family="Helvetica,sans-Serif" font-size="10.00">float AttackArea</text>
<text xml:space="preserve" text-anchor="start" x="111.12" y="-508.5" font-family="Helvetica,sans-Serif" font-size="10.00">+</text>
<text xml:space="preserve" text-anchor="start" x="121.12" y="-508.5" font-family="Helvetica,sans-Serif" font-size="10.00">float CooldownTime</text>
<text xml:space="preserve" text-anchor="start" x="111.12" y="-492.5" font-family="Helvetica,sans-Serif" font-size="10.00">+</text>
<text xml:space="preserve" text-anchor="start" x="121.12" y="-492.5" font-family="Helvetica,sans-Serif" font-size="10.00">int32 MaxPierceCount</text>
<text xml:space="preserve" text-anchor="start" x="111.12" y="-476.5" font-family="Helvetica,sans-Serif" font-size="10.00">+</text>
<text xml:space="preserve" text-anchor="start" x="121.12" y="-476.5" font-family="Helvetica,sans-Serif" font-size="10.00">int32 NumToSpawn</text>
<text xml:space="preserve" text-anchor="start" x="111.12" y="-460.5" font-family="Helvetica,sans-Serif" font-size="10.00">+</text>
<text xml:space="preserve" text-anchor="start" x="121.12" y="-460.5" font-family="Helvetica,sans-Serif" font-size="10.00">float ProjectileLife</text>
<text xml:space="preserve" text-anchor="start" x="111.12" y="-444.5" font-family="Helvetica,sans-Serif" font-size="10.00">+</text>
<text xml:space="preserve" text-anchor="start" x="121.12" y="-444.5" font-family="Helvetica,sans-Serif" font-size="10.00">float ProjectileSizeMultiplier</text>
<text xml:space="preserve" text-anchor="start" x="111.12" y="-428.5" font-family="Helvetica,sans-Serif" font-size="10.00">+</text>
<text xml:space="preserve" text-anchor="start" x="121.12" y="-428.5" font-family="Helvetica,sans-Serif" font-size="10.00">float ProjectileSpeed</text>
<text xml:space="preserve" text-anchor="start" x="111.12" y="-412.5" font-family="Helvetica,sans-Serif" font-size="10.00">+</text>
<text xml:space="preserve" text-anchor="start" x="121.12" y="-412.5" font-family="Helvetica,sans-Serif" font-size="10.00">float SkillDamage</text>
<text xml:space="preserve" text-anchor="start" x="175" y="-396.5" font-family="Helvetica,sans-Serif" font-size="10.00"> </text>
<polygon fill="#666666" stroke="#666666" points="107.12,-536 107.12,-536 245.88,-536 245.88,-536 107.12,-536"/>
<polygon fill="#666666" stroke="#666666" points="107.12,-408 107.12,-408 119.12,-408 119.12,-408 107.12,-408"/>
<polygon fill="#666666" stroke="#666666" points="119.12,-408 119.12,-408 245.88,-408 245.88,-408 119.12,-408"/>
<polygon fill="none" stroke="#666666" points="107.12,-390 107.12,-554 245.88,-554 245.88,-390 107.12,-390"/>
</a>
</g>
</g>
<!-- Node3&#45;&gt;Node1 -->
<g id="edge2_Node000001_Node000003" class="edge">
<title>Node3&#45;&gt;Node1</title>
<g id="a_edge2_Node000001_Node000003"><a xlink:title=" ">
<path fill="none" stroke="#63b8ff" d="M158.81,-390.07C155.95,-376.96 152.89,-362.95 149.75,-348.58"/>
<polygon fill="none" stroke="#63b8ff" points="149.72,-348.47 144.53,-343.46 147.16,-336.75 152.35,-341.76 149.72,-348.47"/>
</a>
</g>
<text xml:space="preserve" text-anchor="start" x="156.27" y="-359.5" font-family="Helvetica,sans-Serif" font-size="10.00" fill="grey">#CalculatedData</text>
</g>
</g>
</svg>
