<?xml version="1.0" encoding="UTF-8" standalone="no"?>
<!DOCTYPE svg PUBLIC "-//W3C//DTD SVG 1.1//EN"
 "http://www.w3.org/Graphics/SVG/1.1/DTD/svg11.dtd">
<!-- Generated by graphviz version 13.1.1 (20250719.2154)
 -->
<!-- Title: UCircleMovementStrategy Pages: 1 -->
<!--zoomable 847 -->

<svg id="main" version="1.1" xmlns="http://www.w3.org/2000/svg" xmlns:xlink="http://www.w3.org/1999/xlink" xml:space="preserve" onload="init(evt)">

<style type="text/css"><![CDATA[
.node, .edge {opacity: 0.7;}
.node.selected, .edge.selected {opacity: 1;}
.edge:hover path { stroke: red; }
.edge:hover polygon { stroke: red; fill: red; }
]]></style>

<defs>
  <circle id="rim" cx="0" cy="0" r="7"/>
  <circle id="rim2" cx="0" cy="0" r="3.5"/>
  <g id="zoomPlus">
    <use xlink:href="#rim" fill="#404040"><set attributeName="fill" to="#808080" begin="zoomplus.mouseover" end="zoomplus.mouseout"/></use>
    <path d="M-4,0h8M0,-4v8" fill="none" stroke="white" stroke-width="1.5" pointer-events="none"/>
  </g>
  <g id="zoomMin">
    <use xlink:href="#rim" fill="#404040"><set attributeName="fill" to="#808080" begin="zoomminus.mouseover" end="zoomminus.mouseout"/></use>
    <path d="M-4,0h8" fill="none" stroke="white" stroke-width="1.5" pointer-events="none"/>
  </g>
  <g id="arrowUp" transform="translate(30 24)">
    <use xlink:href="#rim"/>
    <path pointer-events="none" fill="none" stroke="white" stroke-width="1.5" d="M0,-3.0v7 M-2.5,-0.5L0,-3.0L2.5,-0.5"/>
  </g>
  <g id="arrowRight" transform="rotate(90) translate(36 -43)">
    <use xlink:href="#rim"/>
    <path pointer-events="none" fill="none" stroke="white" stroke-width="1.5" d="M0,-3.0v7 M-2.5,-0.5L0,-3.0L2.5,-0.5"/>
  </g>
  <g id="arrowDown" transform="rotate(180) translate(-30 -48)">
    <use xlink:href="#rim"/>
    <path pointer-events="none" fill="none" stroke="white" stroke-width="1.5" d="M0,-3.0v7 M-2.5,-0.5L0,-3.0L2.5,-0.5"/>
  </g>
  <g id="arrowLeft" transform="rotate(270) translate(-36 17)">
    <use xlink:href="#rim"/>
    <path pointer-events="none" fill="none" stroke="white" stroke-width="1.5" d="M0,-3.0v7 M-2.5,-0.5L0,-3.0L2.5,-0.5"/>
  </g>
  <g id="resetDef">
    <use xlink:href="#rim2" fill="#404040"><set attributeName="fill" to="#808080" begin="reset.mouseover" end="reset.mouseout"/></use>
  </g>
</defs>
<script type="application/ecmascript">
var viewWidth = 254;
var viewHeight = 847;
var sectionId = 'dynsection-1';
</script>
<script type="application/ecmascript" xlink:href="svg.min.js"/>
<svg id="graph" class="graph">
<g id="viewport">
<title>UCircleMovementStrategy</title>
<!-- Node1 -->
<g id="Node000001" class="node">
<title>Node1</title>
<g id="a_Node000001"><a xlink:title=" ">
<polygon fill="#999999" stroke="none" points="211,-248 10,-248 10,0 211,0 211,-248"/>
<text xml:space="preserve" text-anchor="start" x="52.75" y="-234.5" font-family="Helvetica,sans-Serif" font-size="10.00">UCircleMovementStrategy</text>
<text xml:space="preserve" text-anchor="start" x="109" y="-218.5" font-family="Helvetica,sans-Serif" font-size="10.00"> </text>
<text xml:space="preserve" text-anchor="start" x="14" y="-202.5" font-family="Helvetica,sans-Serif" font-size="10.00">+</text>
<text xml:space="preserve" text-anchor="start" x="24" y="-202.5" font-family="Helvetica,sans-Serif" font-size="10.00">UCircleMovementStrategy()</text>
<text xml:space="preserve" text-anchor="start" x="14" y="-186.5" font-family="Helvetica,sans-Serif" font-size="10.00">+</text>
<text xml:space="preserve" text-anchor="start" x="24" y="-186.5" font-family="Helvetica,sans-Serif" font-size="10.00">virtual void Multicast</text>
<text xml:space="preserve" text-anchor="start" x="24" y="-174.5" font-family="Helvetica,sans-Serif" font-size="10.00">_Activate_Implementation</text>
<text xml:space="preserve" text-anchor="start" x="24" y="-162.5" font-family="Helvetica,sans-Serif" font-size="10.00">(const FDetailedSkillData</text>
<text xml:space="preserve" text-anchor="start" x="24" y="-150.5" font-family="Helvetica,sans-Serif" font-size="10.00"> &amp;InCalculatedData, AActor</text>
<text xml:space="preserve" text-anchor="start" x="24" y="-138.5" font-family="Helvetica,sans-Serif" font-size="10.00"> *NewOwner, int32 InMyIndex,</text>
<text xml:space="preserve" text-anchor="start" x="24" y="-126.5" font-family="Helvetica,sans-Serif" font-size="10.00"> int32 InTotalCount) override</text>
<text xml:space="preserve" text-anchor="start" x="14" y="-110.5" font-family="Helvetica,sans-Serif" font-size="10.00">+</text>
<text xml:space="preserve" text-anchor="start" x="24" y="-110.5" font-family="Helvetica,sans-Serif" font-size="10.00">virtual void Multicast</text>
<text xml:space="preserve" text-anchor="start" x="24" y="-98.5" font-family="Helvetica,sans-Serif" font-size="10.00">_Deactivate_Implementation</text>
<text xml:space="preserve" text-anchor="start" x="24" y="-86.5" font-family="Helvetica,sans-Serif" font-size="10.00">() override</text>
<text xml:space="preserve" text-anchor="start" x="14" y="-70.5" font-family="Helvetica,sans-Serif" font-size="10.00">+</text>
<text xml:space="preserve" text-anchor="start" x="24" y="-70.5" font-family="Helvetica,sans-Serif" font-size="10.00">virtual void TickComponent</text>
<text xml:space="preserve" text-anchor="start" x="24" y="-58.5" font-family="Helvetica,sans-Serif" font-size="10.00">(float DeltaTime, enum ELevelTick</text>
<text xml:space="preserve" text-anchor="start" x="24" y="-46.5" font-family="Helvetica,sans-Serif" font-size="10.00"> TickType, FActorComponentTickFunction</text>
<text xml:space="preserve" text-anchor="start" x="24" y="-34.5" font-family="Helvetica,sans-Serif" font-size="10.00"> *ThisTickFunction) override</text>
<text xml:space="preserve" text-anchor="start" x="14" y="-18.5" font-family="Helvetica,sans-Serif" font-size="10.00">+</text>
<text xml:space="preserve" text-anchor="start" x="24" y="-18.5" font-family="Helvetica,sans-Serif" font-size="10.00">virtual void TriggerFunction</text>
<text xml:space="preserve" text-anchor="start" x="24" y="-6.5" font-family="Helvetica,sans-Serif" font-size="10.00">() override</text>
<polygon fill="#666666" stroke="#666666" points="10,-230 10,-230 211,-230 211,-230 10,-230"/>
<polygon fill="#666666" stroke="#666666" points="10,-214 10,-214 211,-214 211,-214 10,-214"/>
<polygon fill="none" stroke="#666666" points="10,0 10,-248 211,-248 211,0 10,0"/>
</a>
</g>
</g>
<!-- Node2 -->
<g id="Node000002" class="node">
<title>Node2</title>
<g id="a_Node000002"><a xlink:href="class_u_movement_strategy_base.html" target="_top" xlink:title=" ">
<polygon fill="white" stroke="none" points="211,-621 10,-621 10,-285 211,-285 211,-621"/>
<text xml:space="preserve" text-anchor="start" x="54.25" y="-607.5" font-family="Helvetica,sans-Serif" font-size="10.00">UMovementStrategyBase</text>
<text xml:space="preserve" text-anchor="start" x="14.38" y="-591.5" font-family="Helvetica,sans-Serif" font-size="10.00">#</text>
<text xml:space="preserve" text-anchor="start" x="24" y="-591.5" font-family="Helvetica,sans-Serif" font-size="10.00">int MyIndex</text>
<text xml:space="preserve" text-anchor="start" x="14.38" y="-575.5" font-family="Helvetica,sans-Serif" font-size="10.00">#</text>
<text xml:space="preserve" text-anchor="start" x="24" y="-575.5" font-family="Helvetica,sans-Serif" font-size="10.00">TObjectPtr&lt; AActor</text>
<text xml:space="preserve" text-anchor="start" x="24" y="-563.5" font-family="Helvetica,sans-Serif" font-size="10.00"> &gt; ProjectileOwner</text>
<text xml:space="preserve" text-anchor="start" x="14.38" y="-547.5" font-family="Helvetica,sans-Serif" font-size="10.00">#</text>
<text xml:space="preserve" text-anchor="start" x="24" y="-547.5" font-family="Helvetica,sans-Serif" font-size="10.00">int TotalCount</text>
<text xml:space="preserve" text-anchor="start" x="14" y="-531.5" font-family="Helvetica,sans-Serif" font-size="10.00">+</text>
<text xml:space="preserve" text-anchor="start" x="24" y="-531.5" font-family="Helvetica,sans-Serif" font-size="10.00">UMovementStrategyBase()</text>
<text xml:space="preserve" text-anchor="start" x="14" y="-515.5" font-family="Helvetica,sans-Serif" font-size="10.00">+</text>
<text xml:space="preserve" text-anchor="start" x="24" y="-515.5" font-family="Helvetica,sans-Serif" font-size="10.00">virtual void ActivateStrategy</text>
<text xml:space="preserve" text-anchor="start" x="24" y="-503.5" font-family="Helvetica,sans-Serif" font-size="10.00">(const FDetailedSkillData</text>
<text xml:space="preserve" text-anchor="start" x="24" y="-491.5" font-family="Helvetica,sans-Serif" font-size="10.00"> &amp;InCalculatedData, AActor</text>
<text xml:space="preserve" text-anchor="start" x="24" y="-479.5" font-family="Helvetica,sans-Serif" font-size="10.00"> *NewOwner, int32 InMyIndex,</text>
<text xml:space="preserve" text-anchor="start" x="24" y="-467.5" font-family="Helvetica,sans-Serif" font-size="10.00"> int32 InTotalCount)</text>
<text xml:space="preserve" text-anchor="start" x="14" y="-451.5" font-family="Helvetica,sans-Serif" font-size="10.00">+</text>
<text xml:space="preserve" text-anchor="start" x="24" y="-451.5" font-family="Helvetica,sans-Serif" font-size="10.00">virtual void DeactivateStrategy()</text>
<text xml:space="preserve" text-anchor="start" x="14" y="-435.5" font-family="Helvetica,sans-Serif" font-size="10.00">+</text>
<text xml:space="preserve" text-anchor="start" x="24" y="-435.5" font-family="Helvetica,sans-Serif" font-size="10.00">virtual void Multicast</text>
<text xml:space="preserve" text-anchor="start" x="24" y="-423.5" font-family="Helvetica,sans-Serif" font-size="10.00">_Activate(const FDetailedSkill</text>
<text xml:space="preserve" text-anchor="start" x="24" y="-411.5" font-family="Helvetica,sans-Serif" font-size="10.00">Data &amp;InCalculatedData, AActor</text>
<text xml:space="preserve" text-anchor="start" x="24" y="-399.5" font-family="Helvetica,sans-Serif" font-size="10.00"> *NewOwner, int32 InMyIndex, int32</text>
<text xml:space="preserve" text-anchor="start" x="24" y="-387.5" font-family="Helvetica,sans-Serif" font-size="10.00"> InTotalCount)</text>
<text xml:space="preserve" text-anchor="start" x="14" y="-371.5" font-family="Helvetica,sans-Serif" font-size="10.00">+</text>
<text xml:space="preserve" text-anchor="start" x="24" y="-371.5" font-family="Helvetica,sans-Serif" font-size="10.00">virtual void Multicast</text>
<text xml:space="preserve" text-anchor="start" x="24" y="-359.5" font-family="Helvetica,sans-Serif" font-size="10.00">_Deactivate()</text>
<text xml:space="preserve" text-anchor="start" x="14" y="-343.5" font-family="Helvetica,sans-Serif" font-size="10.00">+</text>
<text xml:space="preserve" text-anchor="start" x="24" y="-343.5" font-family="Helvetica,sans-Serif" font-size="10.00">virtual void TickComponent</text>
<text xml:space="preserve" text-anchor="start" x="24" y="-331.5" font-family="Helvetica,sans-Serif" font-size="10.00">(float DeltaTime, enum ELevelTick</text>
<text xml:space="preserve" text-anchor="start" x="24" y="-319.5" font-family="Helvetica,sans-Serif" font-size="10.00"> TickType, FActorComponentTickFunction</text>
<text xml:space="preserve" text-anchor="start" x="24" y="-307.5" font-family="Helvetica,sans-Serif" font-size="10.00"> *ThisTickFunction) override</text>
<text xml:space="preserve" text-anchor="start" x="14" y="-291.5" font-family="Helvetica,sans-Serif" font-size="10.00">+</text>
<text xml:space="preserve" text-anchor="start" x="24" y="-291.5" font-family="Helvetica,sans-Serif" font-size="10.00">virtual void TriggerFunction()</text>
<polygon fill="#666666" stroke="#666666" points="10,-603 10,-603 211,-603 211,-603 10,-603"/>
<polygon fill="#666666" stroke="#666666" points="10,-543 10,-543 22,-543 22,-543 10,-543"/>
<polygon fill="#666666" stroke="#666666" points="22,-543 22,-543 211,-543 211,-543 22,-543"/>
<polygon fill="none" stroke="#666666" points="10,-285 10,-621 211,-621 211,-285 10,-285"/>
</a>
</g>
</g>
<!-- Node2&#45;&gt;Node1 -->
<g id="edge1_Node000001_Node000002" class="edge">
<title>Node2&#45;&gt;Node1</title>
<g id="a_edge1_Node000001_Node000002"><a xlink:title=" ">
<path fill="none" stroke="#63b8ff" d="M110.5,-273.65C110.5,-264.92 110.5,-256.25 110.5,-247.74"/>
<polygon fill="none" stroke="#63b8ff" points="107,-273.63 110.5,-283.63 114,-273.63 107,-273.63"/>
</a>
</g>
</g>
<!-- Node3 -->
<g id="Node000003" class="node">
<title>Node3</title>
<g id="a_Node000003"><a xlink:title=" ">
<polygon fill="white" stroke="none" points="89,-783 0,-783 0,-731 89,-731 89,-783"/>
<text xml:space="preserve" text-anchor="start" x="4" y="-769.5" font-family="Helvetica,sans-Serif" font-size="10.00">UActorComponent</text>
<text xml:space="preserve" text-anchor="start" x="43" y="-753.5" font-family="Helvetica,sans-Serif" font-size="10.00"> </text>
<text xml:space="preserve" text-anchor="start" x="43" y="-737.5" font-family="Helvetica,sans-Serif" font-size="10.00"> </text>
<polygon fill="#666666" stroke="#666666" points="0,-765 0,-765 89,-765 89,-765 0,-765"/>
<polygon fill="#666666" stroke="#666666" points="0,-749 0,-749 89,-749 89,-749 0,-749"/>
<polygon fill="none" stroke="#666666" points="0,-731 0,-783 89,-783 89,-731 0,-731"/>
</a>
</g>
</g>
<!-- Node3&#45;&gt;Node2 -->
<g id="edge2_Node000002_Node000003" class="edge">
<title>Node3&#45;&gt;Node2</title>
<g id="a_edge2_Node000002_Node000003"><a xlink:title=" ">
<path fill="none" stroke="#63b8ff" d="M52.35,-720.1C57.92,-694.57 65.86,-658.27 74.08,-620.66"/>
<polygon fill="none" stroke="#63b8ff" points="49,-719.03 50.28,-729.55 55.83,-720.53 49,-719.03"/>
</a>
</g>
</g>
<!-- Node4 -->
<g id="Node000004" class="node">
<title>Node4</title>
<g id="a_Node000004"><a xlink:href="struct_f_detailed_skill_data.html" target="_top" xlink:title=" ">
<polygon fill="white" stroke="none" points="245.88,-839 107.12,-839 107.12,-675 245.88,-675 245.88,-839"/>
<text xml:space="preserve" text-anchor="start" x="135.62" y="-825.5" font-family="Helvetica,sans-Serif" font-size="10.00">FDetailedSkillData</text>
<text xml:space="preserve" text-anchor="start" x="111.12" y="-809.5" font-family="Helvetica,sans-Serif" font-size="10.00">+</text>
<text xml:space="preserve" text-anchor="start" x="121.12" y="-809.5" font-family="Helvetica,sans-Serif" font-size="10.00">float AttackArea</text>
<text xml:space="preserve" text-anchor="start" x="111.12" y="-793.5" font-family="Helvetica,sans-Serif" font-size="10.00">+</text>
<text xml:space="preserve" text-anchor="start" x="121.12" y="-793.5" font-family="Helvetica,sans-Serif" font-size="10.00">float CooldownTime</text>
<text xml:space="preserve" text-anchor="start" x="111.12" y="-777.5" font-family="Helvetica,sans-Serif" font-size="10.00">+</text>
<text xml:space="preserve" text-anchor="start" x="121.12" y="-777.5" font-family="Helvetica,sans-Serif" font-size="10.00">int32 MaxPierceCount</text>
<text xml:space="preserve" text-anchor="start" x="111.12" y="-761.5" font-family="Helvetica,sans-Serif" font-size="10.00">+</text>
<text xml:space="preserve" text-anchor="start" x="121.12" y="-761.5" font-family="Helvetica,sans-Serif" font-size="10.00">int32 NumToSpawn</text>
<text xml:space="preserve" text-anchor="start" x="111.12" y="-745.5" font-family="Helvetica,sans-Serif" font-size="10.00">+</text>
<text xml:space="preserve" text-anchor="start" x="121.12" y="-745.5" font-family="Helvetica,sans-Serif" font-size="10.00">float ProjectileLife</text>
<text xml:space="preserve" text-anchor="start" x="111.12" y="-729.5" font-family="Helvetica,sans-Serif" font-size="10.00">+</text>
<text xml:space="preserve" text-anchor="start" x="121.12" y="-729.5" font-family="Helvetica,sans-Serif" font-size="10.00">float ProjectileSizeMultiplier</text>
<text xml:space="preserve" text-anchor="start" x="111.12" y="-713.5" font-family="Helvetica,sans-Serif" font-size="10.00">+</text>
<text xml:space="preserve" text-anchor="start" x="121.12" y="-713.5" font-family="Helvetica,sans-Serif" font-size="10.00">float ProjectileSpeed</text>
<text xml:space="preserve" text-anchor="start" x="111.12" y="-697.5" font-family="Helvetica,sans-Serif" font-size="10.00">+</text>
<text xml:space="preserve" text-anchor="start" x="121.12" y="-697.5" font-family="Helvetica,sans-Serif" font-size="10.00">float SkillDamage</text>
<text xml:space="preserve" text-anchor="start" x="175" y="-681.5" font-family="Helvetica,sans-Serif" font-size="10.00"> </text>
<polygon fill="#666666" stroke="#666666" points="107.12,-821 107.12,-821 245.88,-821 245.88,-821 107.12,-821"/>
<polygon fill="#666666" stroke="#666666" points="107.12,-693 107.12,-693 119.12,-693 119.12,-693 107.12,-693"/>
<polygon fill="#666666" stroke="#666666" points="119.12,-693 119.12,-693 245.88,-693 245.88,-693 119.12,-693"/>
<polygon fill="none" stroke="#666666" points="107.12,-675 107.12,-839 245.88,-839 245.88,-675 107.12,-675"/>
</a>
</g>
</g>
<!-- Node4&#45;&gt;Node2 -->
<g id="edge3_Node000002_Node000004" class="edge">
<title>Node4&#45;&gt;Node2</title>
<g id="a_edge3_Node000002_Node000004"><a xlink:title=" ">
<path fill="none" stroke="#63b8ff" d="M158.81,-675.07C155.95,-661.96 152.89,-647.95 149.75,-633.58"/>
<polygon fill="none" stroke="#63b8ff" points="149.72,-633.47 144.53,-628.46 147.16,-621.75 152.35,-626.76 149.72,-633.47"/>
</a>
</g>
<text xml:space="preserve" text-anchor="start" x="156.27" y="-644.5" font-family="Helvetica,sans-Serif" font-size="10.00" fill="grey">#CalculatedData</text>
</g>
</g>
</svg>

<g id="navigator" transform="translate(0 0)" fill="#404254">
  <rect fill="#f2f5e9" fill-opacity="0.5" stroke="#606060" stroke-width=".5" x="0" y="0" width="60" height="60"/>
  <use id="zoomplus" xlink:href="#zoomPlus" x="17" y="9" onmousedown="handleZoom(evt,'in')"/>
  <use id="zoomminus" xlink:href="#zoomMin" x="42" y="9" onmousedown="handleZoom(evt,'out')"/>
  <use id="reset" xlink:href="#resetDef" x="30" y="36" onmousedown="handleReset()"/>
   <use id="arrowup" xlink:href="#arrowUp" x="0" y="0" onmousedown="handlePan(0,-1)"/>
  <use id="arrowright" xlink:href="#arrowRight" x="0" y="0" onmousedown="handlePan(1,0)"/>
  <use id="arrowdown" xlink:href="#arrowDown" x="0" y="0" onmousedown="handlePan(0,1)"/>
  <use id="arrowleft" xlink:href="#arrowLeft" x="0" y="0" onmousedown="handlePan(-1,0)"/>
</g>
<svg viewBox="0 0 15 15" width="100%" height="30px" preserveAspectRatio="xMaxYMin meet">
 <g id="arrow_out" transform="scale(0.3 0.3)">
  <a xlink:href="class_u_circle_movement_strategy__coll__graph_org.svg" target="_base">
   <rect id="button" ry="5" rx="5" y="6" x="6" height="38" width="38"
        fill="#f2f5e9" fill-opacity="0.5" stroke="#606060" stroke-width="1.0"/>
   <path id="arrow"
     d="M 11.500037,31.436501 C 11.940474,20.09759 22.043105,11.32322 32.158766,21.979434 L 37.068811,17.246167 C 37.068811,17.246167 37.088388,32 37.088388,32 L 22.160133,31.978069 C 22.160133,31.978069 26.997745,27.140456 26.997745,27.140456 C 18.528582,18.264221 13.291696,25.230495 11.500037,31.436501 z"
     style="fill:#404040;"/>
  </a>
 </g>
</svg>

<style type='text/css'>
<![CDATA[
[data-mouse-over-selected='false'] { opacity: 0.7; }
[data-mouse-over-selected='true']  { opacity: 1.0; }
]]>
</style>
<script type="application/ecmascript"><![CDATA[
document.addEventListener('DOMContentLoaded', (event) => {
  highlightEdges();
  highlightAdjacentNodes();
});
]]></script>
</svg>
