<?xml version="1.0" encoding="UTF-8" standalone="no"?>
<!DOCTYPE svg PUBLIC "-//W3C//DTD SVG 1.1//EN"
 "http://www.w3.org/Graphics/SVG/1.1/DTD/svg11.dtd">
<!-- Generated by graphviz version 13.1.1 (20250719.2154)
 -->
<!-- Title: AMinionMonster::OnReturnToPool_Implementation Pages: 1 -->
<svg width="331pt" height="146pt"
 viewBox="0.00 0.00 331.00 146.00" xmlns="http://www.w3.org/2000/svg" xmlns:xlink="http://www.w3.org/1999/xlink">
<g id="graph0" class="graph" transform="scale(1 1) rotate(0) translate(4 142)">
<title>AMinionMonster::OnReturnToPool_Implementation</title>
<!-- Node1 -->
<g id="Node000001" class="node">
<title>Node1</title>
<g id="a_Node000001"><a xlink:title=" ">
<polygon fill="#999999" stroke="#666666" points="134.5,-76 0,-76 0,-44 134.5,-44 134.5,-76"/>
<text xml:space="preserve" text-anchor="start" x="8" y="-62.5" font-family="Helvetica,sans-Serif" font-size="10.00">AMinionMonster::OnReturn</text>
<text xml:space="preserve" text-anchor="middle" x="67.25" y="-50.5" font-family="Helvetica,sans-Serif" font-size="10.00">ToPool_Implementation</text>
</a>
</g>
</g>
<!-- Node2 -->
<g id="Node000002" class="node">
<title>Node2</title>
<g id="a_Node000002"><a xlink:href="class_a_monster_base.html#a806800ef93729cb23610941f16f2786c" target="_top" xlink:title=" ">
<polygon fill="white" stroke="#666666" points="311.38,-138 182.12,-138 182.12,-106 311.38,-106 311.38,-138"/>
<text xml:space="preserve" text-anchor="start" x="190.12" y="-124.5" font-family="Helvetica,sans-Serif" font-size="10.00">AMonsterBase::GetAbility</text>
<text xml:space="preserve" text-anchor="middle" x="246.75" y="-112.5" font-family="Helvetica,sans-Serif" font-size="10.00">SystemComponent</text>
</a>
</g>
</g>
<!-- Node1&#45;&gt;Node2 -->
<g id="edge1_Node000001_Node000002" class="edge">
<title>Node1&#45;&gt;Node2</title>
<g id="a_edge1_Node000001_Node000002"><a xlink:title=" ">
<path fill="none" stroke="#63b8ff" d="M112.95,-76.47C130.81,-82.97 151.59,-90.44 170.5,-97 175.16,-98.62 179.99,-100.27 184.86,-101.92"/>
<polygon fill="#63b8ff" stroke="#63b8ff" points="183.47,-105.15 194.06,-105.03 185.7,-98.51 183.47,-105.15"/>
</a>
</g>
</g>
<!-- Node3 -->
<g id="Node000003" class="node">
<title>Node3</title>
<g id="a_Node000003"><a xlink:href="class_a_minion_monster.html#a84d245ac273bcfc522953e2d2c7964b3" target="_top" xlink:title=" ">
<polygon fill="white" stroke="#666666" points="323,-70 170.5,-70 170.5,-50 323,-50 323,-70"/>
<text xml:space="preserve" text-anchor="middle" x="246.75" y="-56.5" font-family="Helvetica,sans-Serif" font-size="10.00">AMinionMonster::OnTargetDied</text>
</a>
</g>
</g>
<!-- Node1&#45;&gt;Node3 -->
<g id="edge2_Node000001_Node000003" class="edge">
<title>Node1&#45;&gt;Node3</title>
<g id="a_edge2_Node000001_Node000003"><a xlink:title=" ">
<path fill="none" stroke="#63b8ff" d="M134.85,-60C142.67,-60 150.74,-60 158.79,-60"/>
<polygon fill="#63b8ff" stroke="#63b8ff" points="158.61,-63.5 168.61,-60 158.61,-56.5 158.61,-63.5"/>
</a>
</g>
</g>
<!-- Node4 -->
<g id="Node000004" class="node">
<title>Node4</title>
<g id="a_Node000004"><a xlink:href="class_a_minion_monster.html#ae7e6c5d889b8de78285021ecfe796683" target="_top" xlink:title=" ">
<polygon fill="white" stroke="#666666" points="323,-32 170.5,-32 170.5,0 323,0 323,-32"/>
<text xml:space="preserve" text-anchor="start" x="178.5" y="-18.5" font-family="Helvetica,sans-Serif" font-size="10.00">AMinionMonster::UpdateMinion</text>
<text xml:space="preserve" text-anchor="middle" x="246.75" y="-6.5" font-family="Helvetica,sans-Serif" font-size="10.00">State</text>
</a>
</g>
</g>
<!-- Node1&#45;&gt;Node4 -->
<g id="edge4_Node000001_Node000004" class="edge">
<title>Node1&#45;&gt;Node4</title>
<g id="a_edge4_Node000001_Node000004"><a xlink:title=" ">
<path fill="none" stroke="#63b8ff" d="M134.6,-43.55C145.53,-40.84 156.94,-38.01 168.12,-35.24"/>
<polygon fill="#63b8ff" stroke="#63b8ff" points="168.85,-38.67 177.72,-32.86 167.17,-31.87 168.85,-38.67"/>
</a>
</g>
</g>
<!-- Node3&#45;&gt;Node3 -->
<g id="edge3_Node000003_Node000003" class="edge">
<title>Node3&#45;&gt;Node3</title>
<g id="a_edge3_Node000003_Node000003"><a xlink:title=" ">
<path fill="none" stroke="#63b8ff" d="M218.23,-70.34C206.04,-78.98 215.55,-88 246.75,-88 264.3,-88 274.99,-85.14 278.81,-81.11"/>
<polygon fill="#63b8ff" stroke="#63b8ff" points="282.19,-80.18 275.74,-71.78 275.54,-82.37 282.19,-80.18"/>
</a>
</g>
</g>
</g>
</svg>
