<?xml version="1.0" encoding="UTF-8" standalone="no"?>
<!DOCTYPE svg PUBLIC "-//W3C//DTD SVG 1.1//EN"
 "http://www.w3.org/Graphics/SVG/1.1/DTD/svg11.dtd">
<!-- Generated by graphviz version 13.1.1 (20250719.2154)
 -->
<!-- Title: UKPTPlayerAttributeSet::ATTRIBUTE_ACCESSORS Pages: 1 -->
<svg width="660pt" height="141pt"
 viewBox="0.00 0.00 660.00 141.00" xmlns="http://www.w3.org/2000/svg" xmlns:xlink="http://www.w3.org/1999/xlink">
<g id="graph0" class="graph" transform="scale(1 1) rotate(0) translate(4 136.94)">
<title>UKPTPlayerAttributeSet::ATTRIBUTE_ACCESSORS</title>
<!-- Node1 -->
<g id="Node000001" class="node">
<title>Node1</title>
<g id="a_Node000001"><a xlink:title=" ">
<polygon fill="#999999" stroke="#666666" points="146.5,-96 0,-96 0,-64 146.5,-64 146.5,-96"/>
<text xml:space="preserve" text-anchor="start" x="8" y="-82.5" font-family="Helvetica,sans-Serif" font-size="10.00">UKPTPlayerAttributeSet</text>
<text xml:space="preserve" text-anchor="middle" x="73.25" y="-70.5" font-family="Helvetica,sans-Serif" font-size="10.00">::ATTRIBUTE_ACCESSORS</text>
</a>
</g>
</g>
<!-- Node2 -->
<g id="Node000002" class="node">
<title>Node2</title>
<g id="a_Node000002"><a xlink:href="class_u_k_p_t_player_attribute_set.html#af399f8750813c91d7257190317812519" target="_top" xlink:title=" ">
<polygon fill="white" stroke="#666666" points="652,-104 523.5,-104 523.5,-72 652,-72 652,-104"/>
<text xml:space="preserve" text-anchor="start" x="531.5" y="-90.5" font-family="Helvetica,sans-Serif" font-size="10.00">UKPTPlayerAttributeSet</text>
<text xml:space="preserve" text-anchor="middle" x="587.75" y="-78.5" font-family="Helvetica,sans-Serif" font-size="10.00">::UKPTPlayerAttributeSet</text>
</a>
</g>
</g>
<!-- Node1&#45;&gt;Node2 -->
<g id="edge1_Node000001_Node000002" class="edge">
<title>Node1&#45;&gt;Node2</title>
<g id="a_edge1_Node000001_Node000002"><a xlink:title=" ">
<path fill="none" stroke="#63b8ff" d="M105.97,-96.3C127.05,-106.19 155.69,-117.87 182.5,-123 296.16,-144.75 430.41,-124.17 512.02,-106.64"/>
<polygon fill="#63b8ff" stroke="#63b8ff" points="512.68,-110.07 521.7,-104.51 511.18,-103.24 512.68,-110.07"/>
</a>
</g>
</g>
<!-- Node3 -->
<g id="Node000003" class="node">
<title>Node3</title>
<g id="a_Node000003"><a xlink:href="class_u_k_p_t_player_attribute_set.html#aa4a7eb9b5df34c17e1cc753ae89d5e43" target="_top" xlink:title=" ">
<polygon fill="white" stroke="#666666" points="329,-96 182.5,-96 182.5,-64 329,-64 329,-96"/>
<text xml:space="preserve" text-anchor="start" x="190.5" y="-82.5" font-family="Helvetica,sans-Serif" font-size="10.00">UKPTPlayerAttributeSet</text>
<text xml:space="preserve" text-anchor="middle" x="255.75" y="-70.5" font-family="Helvetica,sans-Serif" font-size="10.00">::ATTRIBUTE_ACCESSORS</text>
</a>
</g>
</g>
<!-- Node1&#45;&gt;Node3 -->
<g id="edge2_Node000001_Node000003" class="edge">
<title>Node1&#45;&gt;Node3</title>
<g id="a_edge2_Node000001_Node000003"><a xlink:title=" ">
<path fill="none" stroke="#63b8ff" d="M146.89,-80C154.81,-80 162.92,-80 170.96,-80"/>
<polygon fill="#63b8ff" stroke="#63b8ff" points="170.75,-83.5 180.75,-80 170.75,-76.5 170.75,-83.5"/>
</a>
</g>
</g>
<!-- Node5 -->
<g id="Node000005" class="node">
<title>Node5</title>
<g id="a_Node000005"><a xlink:href="class_u_k_p_t_player_attribute_set.html#a21c37aff30a90baa8f3d22f5cebfc5b7" target="_top" xlink:title=" ">
<polygon fill="white" stroke="#666666" points="487.5,-32 365,-32 365,0 487.5,0 487.5,-32"/>
<text xml:space="preserve" text-anchor="start" x="373" y="-18.5" font-family="Helvetica,sans-Serif" font-size="10.00">UKPTPlayerAttributeSet</text>
<text xml:space="preserve" text-anchor="middle" x="426.25" y="-6.5" font-family="Helvetica,sans-Serif" font-size="10.00">::OnRep_CriticalChance</text>
</a>
</g>
</g>
<!-- Node1&#45;&gt;Node5 -->
<g id="edge7_Node000001_Node000005" class="edge">
<title>Node1&#45;&gt;Node5</title>
<g id="a_edge7_Node000001_Node000005"><a xlink:title=" ">
<path fill="none" stroke="#63b8ff" d="M142.24,-63.56C155.55,-60.55 169.44,-57.55 182.5,-55 239.7,-43.81 304.95,-33.46 353.38,-26.24"/>
<polygon fill="#63b8ff" stroke="#63b8ff" points="353.82,-29.72 363.2,-24.79 352.79,-22.79 353.82,-29.72"/>
</a>
</g>
</g>
<!-- Node3&#45;&gt;Node2 -->
<g id="edge3_Node000003_Node000002" class="edge">
<title>Node3&#45;&gt;Node2</title>
<g id="a_edge3_Node000003_Node000002"><a xlink:title=" ">
<path fill="none" stroke="#63b8ff" d="M329.46,-88.41C341.32,-89.49 353.49,-90.42 365,-91 419.37,-93.76 433.06,-91.82 487.5,-91 495.35,-90.88 503.55,-90.71 511.72,-90.51"/>
<polygon fill="#63b8ff" stroke="#63b8ff" points="511.8,-94.01 521.71,-90.25 511.62,-87.01 511.8,-94.01"/>
</a>
</g>
</g>
<!-- Node3&#45;&gt;Node3 -->
<g id="edge4_Node000003_Node000003" class="edge">
<title>Node3&#45;&gt;Node3</title>
<g id="a_edge4_Node000003_Node000003"><a xlink:title=" ">
<path fill="none" stroke="#63b8ff" d="M225.31,-96.44C219.63,-105.58 229.78,-114 255.75,-114 269.95,-114 279.43,-111.48 284.16,-107.71"/>
<polygon fill="#63b8ff" stroke="#63b8ff" points="287.6,-108.39 285.92,-97.93 280.71,-107.15 287.6,-108.39"/>
</a>
</g>
</g>
<!-- Node4 -->
<g id="Node000004" class="node">
<title>Node4</title>
<g id="a_Node000004"><a xlink:href="class_u_k_p_t_player_attribute_set.html#af9342b340a141c31bf2eb00e34005551" target="_top" xlink:title=" ">
<polygon fill="white" stroke="#666666" points="487.5,-82 365,-82 365,-50 487.5,-50 487.5,-82"/>
<text xml:space="preserve" text-anchor="start" x="373" y="-68.5" font-family="Helvetica,sans-Serif" font-size="10.00">UKPTPlayerAttributeSet</text>
<text xml:space="preserve" text-anchor="middle" x="426.25" y="-56.5" font-family="Helvetica,sans-Serif" font-size="10.00">::OnRep_Luck</text>
</a>
</g>
</g>
<!-- Node3&#45;&gt;Node4 -->
<g id="edge5_Node000003_Node000004" class="edge">
<title>Node3&#45;&gt;Node4</title>
<g id="a_edge5_Node000003_Node000004"><a xlink:title=" ">
<path fill="none" stroke="#63b8ff" d="M329.19,-73.98C337.1,-73.32 345.15,-72.66 353.06,-72"/>
<polygon fill="#63b8ff" stroke="#63b8ff" points="353.32,-75.49 363,-71.17 352.74,-68.51 353.32,-75.49"/>
</a>
</g>
</g>
<!-- Node4&#45;&gt;Node2 -->
<g id="edge6_Node000004_Node000002" class="edge">
<title>Node4&#45;&gt;Node2</title>
<g id="a_edge6_Node000004_Node000002"><a xlink:title=" ">
<path fill="none" stroke="#63b8ff" d="M487.55,-74.32C495.46,-75.41 503.65,-76.54 511.77,-77.66"/>
<polygon fill="#63b8ff" stroke="#63b8ff" points="511.29,-81.12 521.67,-79.02 512.25,-74.19 511.29,-81.12"/>
</a>
</g>
</g>
<!-- Node5&#45;&gt;Node2 -->
<g id="edge8_Node000005_Node000002" class="edge">
<title>Node5&#45;&gt;Node2</title>
<g id="a_edge8_Node000005_Node000002"><a xlink:title=" ">
<path fill="none" stroke="#63b8ff" d="M467.55,-32.4C474.24,-35.22 481.08,-38.15 487.5,-41 505.83,-49.14 525.85,-58.52 543.08,-66.75"/>
<polygon fill="#63b8ff" stroke="#63b8ff" points="541.51,-69.88 552.04,-71.05 544.54,-63.57 541.51,-69.88"/>
</a>
</g>
</g>
</g>
</svg>
