<?xml version="1.0" encoding="UTF-8" standalone="no"?>
<!DOCTYPE svg PUBLIC "-//W3C//DTD SVG 1.1//EN"
 "http://www.w3.org/Graphics/SVG/1.1/DTD/svg11.dtd">
<!-- Generated by graphviz version 13.1.1 (20250719.2154)
 -->
<!-- Title: UUIBase::GetUIManagerSubsystem Pages: 1 -->
<!--zoomable 311 -->

<svg id="main" version="1.1" xmlns="http://www.w3.org/2000/svg" xmlns:xlink="http://www.w3.org/1999/xlink" xml:space="preserve" onload="init(evt)">

<style type="text/css"><![CDATA[
.node, .edge {opacity: 0.7;}
.node.selected, .edge.selected {opacity: 1;}
.edge:hover path { stroke: red; }
.edge:hover polygon { stroke: red; fill: red; }
]]></style>

<defs>
  <circle id="rim" cx="0" cy="0" r="7"/>
  <circle id="rim2" cx="0" cy="0" r="3.5"/>
  <g id="zoomPlus">
    <use xlink:href="#rim" fill="#404040"><set attributeName="fill" to="#808080" begin="zoomplus.mouseover" end="zoomplus.mouseout"/></use>
    <path d="M-4,0h8M0,-4v8" fill="none" stroke="white" stroke-width="1.5" pointer-events="none"/>
  </g>
  <g id="zoomMin">
    <use xlink:href="#rim" fill="#404040"><set attributeName="fill" to="#808080" begin="zoomminus.mouseover" end="zoomminus.mouseout"/></use>
    <path d="M-4,0h8" fill="none" stroke="white" stroke-width="1.5" pointer-events="none"/>
  </g>
  <g id="arrowUp" transform="translate(30 24)">
    <use xlink:href="#rim"/>
    <path pointer-events="none" fill="none" stroke="white" stroke-width="1.5" d="M0,-3.0v7 M-2.5,-0.5L0,-3.0L2.5,-0.5"/>
  </g>
  <g id="arrowRight" transform="rotate(90) translate(36 -43)">
    <use xlink:href="#rim"/>
    <path pointer-events="none" fill="none" stroke="white" stroke-width="1.5" d="M0,-3.0v7 M-2.5,-0.5L0,-3.0L2.5,-0.5"/>
  </g>
  <g id="arrowDown" transform="rotate(180) translate(-30 -48)">
    <use xlink:href="#rim"/>
    <path pointer-events="none" fill="none" stroke="white" stroke-width="1.5" d="M0,-3.0v7 M-2.5,-0.5L0,-3.0L2.5,-0.5"/>
  </g>
  <g id="arrowLeft" transform="rotate(270) translate(-36 17)">
    <use xlink:href="#rim"/>
    <path pointer-events="none" fill="none" stroke="white" stroke-width="1.5" d="M0,-3.0v7 M-2.5,-0.5L0,-3.0L2.5,-0.5"/>
  </g>
  <g id="resetDef">
    <use xlink:href="#rim2" fill="#404040"><set attributeName="fill" to="#808080" begin="reset.mouseover" end="reset.mouseout"/></use>
  </g>
</defs>
<script type="application/ecmascript">
var viewWidth = 563;
var viewHeight = 311;
var sectionId = 'dynsection-2';
</script>
<script type="application/ecmascript" xlink:href="svg.min.js"/>
<svg id="graph" class="graph">
<g id="viewport">
<title>UUIBase::GetUIManagerSubsystem</title>
<!-- Node1 -->
<g id="Node000001" class="node">
<title>Node1</title>
<g id="a_Node000001"><a xlink:title=" ">
<polygon fill="#999999" stroke="#666666" points="555,-165 379.25,-165 379.25,-145 555,-145 555,-165"/>
<text xml:space="preserve" text-anchor="middle" x="467.12" y="-151.5" font-family="Helvetica,sans-Serif" font-size="10.00">UUIBase::GetUIManagerSubsystem</text>
</a>
</g>
</g>
<!-- Node2 -->
<g id="Node000002" class="node">
<title>Node2</title>
<g id="a_Node000002"><a xlink:href="class_u_event_u_i.html#a63b5c4977ff4bce0a6c0039111a5e37b" target="_top" xlink:title=" ">
<polygon fill="white" stroke="#666666" points="329,-303 189.25,-303 189.25,-271 329,-271 329,-303"/>
<text xml:space="preserve" text-anchor="start" x="197.25" y="-289.5" font-family="Helvetica,sans-Serif" font-size="10.00">UEventUI::HandleAnimation</text>
<text xml:space="preserve" text-anchor="middle" x="259.12" y="-277.5" font-family="Helvetica,sans-Serif" font-size="10.00">Finished</text>
</a>
</g>
</g>
<!-- Node1&#45;&gt;Node2 -->
<g id="edge1_Node000001_Node000002" class="edge">
<title>Node1&#45;&gt;Node2</title>
<g id="a_edge1_Node000001_Node000002"><a xlink:title=" ">
<path fill="none" stroke="#63b8ff" d="M449.57,-173.66C427.52,-197.43 386.29,-238.25 343.25,-262 337.44,-265.2 331.18,-268.05 324.78,-270.55"/>
<polygon fill="#63b8ff" stroke="#63b8ff" points="451.87,-176.33 456.02,-166.58 446.7,-171.62 451.87,-176.33"/>
</a>
</g>
</g>
<!-- Node3 -->
<g id="Node000003" class="node">
<title>Node3</title>
<g id="a_Node000003"><a xlink:href="class_u_transition_u_i.html#ab196f60a081ad3cb90e2562cd4da6dc5" target="_top" xlink:title=" ">
<polygon fill="white" stroke="#666666" points="337.62,-253 180.62,-253 180.62,-221 337.62,-221 337.62,-253"/>
<text xml:space="preserve" text-anchor="start" x="188.62" y="-239.5" font-family="Helvetica,sans-Serif" font-size="10.00">UTransitionUI::HandleAnimation</text>
<text xml:space="preserve" text-anchor="middle" x="259.12" y="-227.5" font-family="Helvetica,sans-Serif" font-size="10.00">Finished</text>
</a>
</g>
</g>
<!-- Node1&#45;&gt;Node3 -->
<g id="edge2_Node000001_Node000003" class="edge">
<title>Node1&#45;&gt;Node3</title>
<g id="a_edge2_Node000001_Node000003"><a xlink:title=" ">
<path fill="none" stroke="#63b8ff" d="M435.95,-170.47C411.39,-182.7 375.61,-199.7 343.25,-212 335.36,-215 326.95,-217.88 318.61,-220.56"/>
<polygon fill="#63b8ff" stroke="#63b8ff" points="437.35,-173.68 444.72,-166.06 434.21,-167.42 437.35,-173.68"/>
</a>
</g>
</g>
<!-- Node4 -->
<g id="Node000004" class="node">
<title>Node4</title>
<g id="a_Node000004"><a xlink:href="class_u_pause_u_i.html#a5910729a1146468a2a5a445648d12fa0" target="_top" xlink:title=" ">
<polygon fill="white" stroke="#666666" points="337.62,-165 180.62,-165 180.62,-145 337.62,-145 337.62,-165"/>
<text xml:space="preserve" text-anchor="middle" x="259.12" y="-151.5" font-family="Helvetica,sans-Serif" font-size="10.00">UPauseUI::HandleClickedClose</text>
</a>
</g>
</g>
<!-- Node1&#45;&gt;Node4 -->
<g id="edge3_Node000001_Node000004" class="edge">
<title>Node1&#45;&gt;Node4</title>
<g id="a_edge3_Node000001_Node000004"><a xlink:title=" ">
<path fill="none" stroke="#63b8ff" d="M367.54,-155C357.57,-155 347.54,-155 337.83,-155"/>
<polygon fill="#63b8ff" stroke="#63b8ff" points="367.25,-158.5 377.25,-155 367.25,-151.5 367.25,-158.5"/>
</a>
</g>
</g>
<!-- Node7 -->
<g id="Node000007" class="node">
<title>Node7</title>
<g id="a_Node000007"><a xlink:href="class_u_shop_u_i.html#a86e30b557b9c8efbcb66007ad6987b84" target="_top" xlink:title=" ">
<polygon fill="white" stroke="#666666" points="335,-127 183.25,-127 183.25,-107 335,-107 335,-127"/>
<text xml:space="preserve" text-anchor="middle" x="259.12" y="-113.5" font-family="Helvetica,sans-Serif" font-size="10.00">UShopUI::HandleClickedClose</text>
</a>
</g>
</g>
<!-- Node1&#45;&gt;Node7 -->
<g id="edge6_Node000001_Node000007" class="edge">
<title>Node1&#45;&gt;Node7</title>
<g id="a_edge6_Node000001_Node000007"><a xlink:title=" ">
<path fill="none" stroke="#63b8ff" d="M398.22,-142.47C371.84,-137.61 341.97,-132.1 316.78,-127.45"/>
<polygon fill="#63b8ff" stroke="#63b8ff" points="397.33,-145.87 407.8,-144.24 398.6,-138.99 397.33,-145.87"/>
</a>
</g>
</g>
<!-- Node9 -->
<g id="Node000009" class="node">
<title>Node9</title>
<g id="a_Node000009"><a xlink:href="class_u_pause_u_i.html#ad272156d61dc1a44318b188bf06d403e" target="_top" xlink:title=" ">
<polygon fill="white" stroke="#666666" points="343.25,-203 175,-203 175,-183 343.25,-183 343.25,-203"/>
<text xml:space="preserve" text-anchor="middle" x="259.12" y="-189.5" font-family="Helvetica,sans-Serif" font-size="10.00">UPauseUI::HandleClickedResume</text>
</a>
</g>
</g>
<!-- Node1&#45;&gt;Node9 -->
<g id="edge8_Node000001_Node000009" class="edge">
<title>Node1&#45;&gt;Node9</title>
<g id="a_edge8_Node000001_Node000009"><a xlink:title=" ">
<path fill="none" stroke="#63b8ff" d="M398.22,-167.53C371.84,-172.39 341.97,-177.9 316.78,-182.55"/>
<polygon fill="#63b8ff" stroke="#63b8ff" points="398.6,-171.01 407.8,-165.76 397.33,-164.13 398.6,-171.01"/>
</a>
</g>
</g>
<!-- Node10 -->
<g id="Node000010" class="node">
<title>Node10</title>
<g id="a_Node000010"><a xlink:href="class_u_skill_slot_u_i.html#a767d282f328026f7c4ecf7df95201611" target="_top" xlink:title=" ">
<polygon fill="white" stroke="#666666" points="330.88,-89 187.38,-89 187.38,-57 330.88,-57 330.88,-89"/>
<text xml:space="preserve" text-anchor="start" x="195.38" y="-75.5" font-family="Helvetica,sans-Serif" font-size="10.00">USkillSlotUI::HandleFinished</text>
<text xml:space="preserve" text-anchor="middle" x="259.12" y="-63.5" font-family="Helvetica,sans-Serif" font-size="10.00">OnClickedAnimation</text>
</a>
</g>
</g>
<!-- Node1&#45;&gt;Node10 -->
<g id="edge11_Node000001_Node000010" class="edge">
<title>Node1&#45;&gt;Node10</title>
<g id="a_edge11_Node000001_Node000010"><a xlink:title=" ">
<path fill="none" stroke="#63b8ff" d="M435.95,-139.53C411.39,-127.3 375.61,-110.3 343.25,-98 335.36,-95 326.95,-92.12 318.61,-89.44"/>
<polygon fill="#63b8ff" stroke="#63b8ff" points="434.21,-142.58 444.72,-143.94 437.35,-136.32 434.21,-142.58"/>
</a>
</g>
</g>
<!-- Node11 -->
<g id="Node000011" class="node">
<title>Node11</title>
<g id="a_Node000011"><a xlink:href="class_u_main_u_i.html#a6158fd9774d8fbbe427df565301fe82a" target="_top" xlink:title=" ">
<polygon fill="white" stroke="#666666" points="327.88,-39 190.38,-39 190.38,-19 327.88,-19 327.88,-39"/>
<text xml:space="preserve" text-anchor="middle" x="259.12" y="-25.5" font-family="Helvetica,sans-Serif" font-size="10.00">UMainUI::OnClickedSetting</text>
</a>
</g>
</g>
<!-- Node1&#45;&gt;Node11 -->
<g id="edge12_Node000001_Node000011" class="edge">
<title>Node1&#45;&gt;Node11</title>
<g id="a_edge12_Node000001_Node000011"><a xlink:title=" ">
<path fill="none" stroke="#63b8ff" d="M450.14,-136.25C428.44,-112.05 387.29,-70.4 343.25,-48 336.52,-44.58 329.17,-41.76 321.72,-39.45"/>
<polygon fill="#63b8ff" stroke="#63b8ff" points="447.24,-138.26 456.47,-143.46 452.5,-133.64 447.24,-138.26"/>
</a>
</g>
</g>
<!-- Node5 -->
<g id="Node000005" class="node">
<title>Node5</title>
<g id="a_Node000005"><a xlink:href="class_u_pause_u_i.html#a9eb5b5662314b5e9a43cf4e085176419" target="_top" xlink:title=" ">
<polygon fill="white" stroke="#666666" points="139,-165 0,-165 0,-145 139,-145 139,-165"/>
<text xml:space="preserve" text-anchor="middle" x="69.5" y="-151.5" font-family="Helvetica,sans-Serif" font-size="10.00">UPauseUI::NativeConstruct</text>
</a>
</g>
</g>
<!-- Node4&#45;&gt;Node5 -->
<g id="edge4_Node000004_Node000005" class="edge">
<title>Node4&#45;&gt;Node5</title>
<g id="a_edge4_Node000004_Node000005"><a xlink:title=" ">
<path fill="none" stroke="#63b8ff" d="M168.96,-155C158.96,-155 148.9,-155 139.22,-155"/>
<polygon fill="#63b8ff" stroke="#63b8ff" points="168.67,-158.5 178.67,-155 168.67,-151.5 168.67,-158.5"/>
</a>
</g>
</g>
<!-- Node6 -->
<g id="Node000006" class="node">
<title>Node6</title>
<g id="a_Node000006"><a xlink:href="class_u_pause_u_i.html#a044a4b6a8ff4a00b6065ca292cb165a9" target="_top" xlink:title=" ">
<polygon fill="white" stroke="#666666" points="136.38,-203 2.62,-203 2.62,-183 136.38,-183 136.38,-203"/>
<text xml:space="preserve" text-anchor="middle" x="69.5" y="-189.5" font-family="Helvetica,sans-Serif" font-size="10.00">UPauseUI::NativeDestruct</text>
</a>
</g>
</g>
<!-- Node4&#45;&gt;Node6 -->
<g id="edge5_Node000004_Node000006" class="edge">
<title>Node4&#45;&gt;Node6</title>
<g id="a_edge5_Node000004_Node000006"><a xlink:title=" ">
<path fill="none" stroke="#63b8ff" d="M195.31,-167.72C171.52,-172.54 144.74,-177.96 122.1,-182.55"/>
<polygon fill="#63b8ff" stroke="#63b8ff" points="195.77,-171.2 204.88,-165.78 194.38,-164.34 195.77,-171.2"/>
</a>
</g>
</g>
<!-- Node8 -->
<g id="Node000008" class="node">
<title>Node8</title>
<g id="a_Node000008"><a xlink:href="class_u_shop_u_i.html#ab8d30aa4ab0a8bf7ed1d77aa1f2ba1f5" target="_top" xlink:title=" ">
<polygon fill="white" stroke="#666666" points="136.38,-127 2.62,-127 2.62,-107 136.38,-107 136.38,-127"/>
<text xml:space="preserve" text-anchor="middle" x="69.5" y="-113.5" font-family="Helvetica,sans-Serif" font-size="10.00">UShopUI::NativeConstruct</text>
</a>
</g>
</g>
<!-- Node7&#45;&gt;Node8 -->
<g id="edge7_Node000007_Node000008" class="edge">
<title>Node7&#45;&gt;Node8</title>
<g id="a_edge7_Node000007_Node000008"><a xlink:title=" ">
<path fill="none" stroke="#63b8ff" d="M171.68,-117C159.92,-117 148,-117 136.67,-117"/>
<polygon fill="#63b8ff" stroke="#63b8ff" points="171.38,-120.5 181.38,-117 171.38,-113.5 171.38,-120.5"/>
</a>
</g>
</g>
<!-- Node9&#45;&gt;Node5 -->
<g id="edge9_Node000009_Node000005" class="edge">
<title>Node9&#45;&gt;Node5</title>
<g id="a_edge9_Node000009_Node000005"><a xlink:title=" ">
<path fill="none" stroke="#63b8ff" d="M195.31,-180.28C171.52,-175.46 144.74,-170.04 122.1,-165.45"/>
<polygon fill="#63b8ff" stroke="#63b8ff" points="194.38,-183.66 204.88,-182.22 195.77,-176.8 194.38,-183.66"/>
</a>
</g>
</g>
<!-- Node9&#45;&gt;Node6 -->
<g id="edge10_Node000009_Node000006" class="edge">
<title>Node9&#45;&gt;Node6</title>
<g id="a_edge10_Node000009_Node000006"><a xlink:title=" ">
<path fill="none" stroke="#63b8ff" d="M163.36,-193C154.37,-193 145.38,-193 136.74,-193"/>
<polygon fill="#63b8ff" stroke="#63b8ff" points="163.22,-196.5 173.22,-193 163.22,-189.5 163.22,-196.5"/>
</a>
</g>
</g>
<!-- Node12 -->
<g id="Node000012" class="node">
<title>Node12</title>
<g id="a_Node000012"><a xlink:href="class_u_main_u_i.html#a64fc3061e4828b4d481930c7205a2a48" target="_top" xlink:title=" ">
<polygon fill="white" stroke="#666666" points="135.62,-20 3.38,-20 3.38,0 135.62,0 135.62,-20"/>
<text xml:space="preserve" text-anchor="middle" x="69.5" y="-6.5" font-family="Helvetica,sans-Serif" font-size="10.00">UMainUI::NativeConstruct</text>
</a>
</g>
</g>
<!-- Node11&#45;&gt;Node12 -->
<g id="edge13_Node000011_Node000012" class="edge">
<title>Node11&#45;&gt;Node12</title>
<g id="a_edge13_Node000011_Node000012"><a xlink:title=" ">
<path fill="none" stroke="#63b8ff" d="M178.82,-20.97C164.58,-19.53 149.88,-18.04 136.08,-16.64"/>
<polygon fill="#63b8ff" stroke="#63b8ff" points="178.32,-24.44 188.62,-21.96 179.02,-17.47 178.32,-24.44"/>
</a>
</g>
</g>
<!-- Node13 -->
<g id="Node000013" class="node">
<title>Node13</title>
<g id="a_Node000013"><a xlink:href="class_u_main_u_i.html#a2683c924b81eaceaaaa22fab1a07802f" target="_top" xlink:title=" ">
<polygon fill="white" stroke="#666666" points="133,-58 6,-58 6,-38 133,-38 133,-58"/>
<text xml:space="preserve" text-anchor="middle" x="69.5" y="-44.5" font-family="Helvetica,sans-Serif" font-size="10.00">UMainUI::NativeDestruct</text>
</a>
</g>
</g>
<!-- Node11&#45;&gt;Node13 -->
<g id="edge14_Node000011_Node000013" class="edge">
<title>Node11&#45;&gt;Node13</title>
<g id="a_edge14_Node000011_Node000013"><a xlink:title=" ">
<path fill="none" stroke="#63b8ff" d="M179.1,-37C163.81,-38.55 147.97,-40.15 133.28,-41.64"/>
<polygon fill="#63b8ff" stroke="#63b8ff" points="179.02,-40.53 188.62,-36.04 178.32,-33.56 179.02,-40.53"/>
</a>
</g>
</g>
</g>
</svg>

<g id="navigator" transform="translate(0 0)" fill="#404254">
  <rect fill="#f2f5e9" fill-opacity="0.5" stroke="#606060" stroke-width=".5" x="0" y="0" width="60" height="60"/>
  <use id="zoomplus" xlink:href="#zoomPlus" x="17" y="9" onmousedown="handleZoom(evt,'in')"/>
  <use id="zoomminus" xlink:href="#zoomMin" x="42" y="9" onmousedown="handleZoom(evt,'out')"/>
  <use id="reset" xlink:href="#resetDef" x="30" y="36" onmousedown="handleReset()"/>
   <use id="arrowup" xlink:href="#arrowUp" x="0" y="0" onmousedown="handlePan(0,-1)"/>
  <use id="arrowright" xlink:href="#arrowRight" x="0" y="0" onmousedown="handlePan(1,0)"/>
  <use id="arrowdown" xlink:href="#arrowDown" x="0" y="0" onmousedown="handlePan(0,1)"/>
  <use id="arrowleft" xlink:href="#arrowLeft" x="0" y="0" onmousedown="handlePan(-1,0)"/>
</g>
<svg viewBox="0 0 15 15" width="100%" height="30px" preserveAspectRatio="xMaxYMin meet">
 <g id="arrow_out" transform="scale(0.3 0.3)">
  <a xlink:href="class_u_u_i_base_a7db928b8721c8dede4954eed8695c0e4_icgraph_org.svg" target="_base">
   <rect id="button" ry="5" rx="5" y="6" x="6" height="38" width="38"
        fill="#f2f5e9" fill-opacity="0.5" stroke="#606060" stroke-width="1.0"/>
   <path id="arrow"
     d="M 11.500037,31.436501 C 11.940474,20.09759 22.043105,11.32322 32.158766,21.979434 L 37.068811,17.246167 C 37.068811,17.246167 37.088388,32 37.088388,32 L 22.160133,31.978069 C 22.160133,31.978069 26.997745,27.140456 26.997745,27.140456 C 18.528582,18.264221 13.291696,25.230495 11.500037,31.436501 z"
     style="fill:#404040;"/>
  </a>
 </g>
</svg>

<style type='text/css'>
<![CDATA[
[data-mouse-over-selected='false'] { opacity: 0.7; }
[data-mouse-over-selected='true']  { opacity: 1.0; }
]]>
</style>
<script type="application/ecmascript"><![CDATA[
document.addEventListener('DOMContentLoaded', (event) => {
  highlightEdges();
  highlightAdjacentNodes();
});
]]></script>
</svg>
