<?xml version="1.0" encoding="UTF-8" standalone="no"?>
<!DOCTYPE svg PUBLIC "-//W3C//DTD SVG 1.1//EN"
 "http://www.w3.org/Graphics/SVG/1.1/DTD/svg11.dtd">
<!-- Generated by graphviz version 13.1.1 (20250719.2154)
 -->
<!-- Title: AGCN_PlaySound Pages: 1 -->
<svg width="177pt" height="208pt"
 viewBox="0.00 0.00 177.00 208.00" xmlns="http://www.w3.org/2000/svg" xmlns:xlink="http://www.w3.org/1999/xlink">
<g id="graph0" class="graph" transform="scale(1 1) rotate(0) translate(4 204)">
<title>AGCN_PlaySound</title>
<!-- Node1 -->
<g id="Node000001" class="node">
<title>Node1</title>
<g id="a_Node000001"><a xlink:title=" ">
<polygon fill="#999999" stroke="none" points="168.75,-100 0,-100 0,0 168.75,0 168.75,-100"/>
<text xml:space="preserve" text-anchor="start" x="43.5" y="-86.5" font-family="Helvetica,sans-Serif" font-size="10.00">AGCN_PlaySound</text>
<text xml:space="preserve" text-anchor="start" x="4" y="-70.5" font-family="Helvetica,sans-Serif" font-size="10.00">+</text>
<text xml:space="preserve" text-anchor="start" x="14" y="-70.5" font-family="Helvetica,sans-Serif" font-size="10.00">TObjectPtr&lt; USoundBase</text>
<text xml:space="preserve" text-anchor="start" x="14" y="-58.5" font-family="Helvetica,sans-Serif" font-size="10.00"> &gt; Sound</text>
<text xml:space="preserve" text-anchor="start" x="4" y="-42.5" font-family="Helvetica,sans-Serif" font-size="10.00">+</text>
<text xml:space="preserve" text-anchor="start" x="14" y="-42.5" font-family="Helvetica,sans-Serif" font-size="10.00">virtual bool OnExecute</text>
<text xml:space="preserve" text-anchor="start" x="14" y="-30.5" font-family="Helvetica,sans-Serif" font-size="10.00">_Implementation(AActor</text>
<text xml:space="preserve" text-anchor="start" x="14" y="-18.5" font-family="Helvetica,sans-Serif" font-size="10.00"> *MyTarget, const FGameplayCue</text>
<text xml:space="preserve" text-anchor="start" x="14" y="-6.5" font-family="Helvetica,sans-Serif" font-size="10.00">Parameters &amp;Parameters) override</text>
<polygon fill="#666666" stroke="#666666" points="0,-82 0,-82 168.75,-82 168.75,-82 0,-82"/>
<polygon fill="#666666" stroke="#666666" points="0,-54 0,-54 12,-54 12,-54 0,-54"/>
<polygon fill="#666666" stroke="#666666" points="12,-54 12,-54 168.75,-54 168.75,-54 12,-54"/>
<polygon fill="none" stroke="#666666" points="0,0 0,-100 168.75,-100 168.75,0 0,0"/>
</a>
</g>
</g>
<!-- Node2 -->
<g id="Node000002" class="node">
<title>Node2</title>
<g id="a_Node000002"><a xlink:title=" ">
<polygon fill="white" stroke="none" points="136,-200 32.75,-200 32.75,-136 136,-136 136,-200"/>
<text xml:space="preserve" text-anchor="start" x="36.75" y="-186.5" font-family="Helvetica,sans-Serif" font-size="10.00">AGameplayCueNotify</text>
<text xml:space="preserve" text-anchor="start" x="70.12" y="-174.5" font-family="Helvetica,sans-Serif" font-size="10.00">_Actor</text>
<text xml:space="preserve" text-anchor="start" x="82.88" y="-158.5" font-family="Helvetica,sans-Serif" font-size="10.00"> </text>
<text xml:space="preserve" text-anchor="start" x="82.88" y="-142.5" font-family="Helvetica,sans-Serif" font-size="10.00"> </text>
<polygon fill="#666666" stroke="#666666" points="32.75,-170 32.75,-170 136,-170 136,-170 32.75,-170"/>
<polygon fill="#666666" stroke="#666666" points="32.75,-154 32.75,-154 136,-154 136,-154 32.75,-154"/>
<polygon fill="none" stroke="#666666" points="32.75,-136 32.75,-200 136,-200 136,-136 32.75,-136"/>
</a>
</g>
</g>
<!-- Node2&#45;&gt;Node1 -->
<g id="edge1_Node000001_Node000002" class="edge">
<title>Node2&#45;&gt;Node1</title>
<g id="a_edge1_Node000001_Node000002"><a xlink:title=" ">
<path fill="none" stroke="#63b8ff" d="M84.38,-124.77C84.38,-116.69 84.38,-108.16 84.38,-99.89"/>
<polygon fill="none" stroke="#63b8ff" points="80.88,-124.71 84.38,-134.71 87.88,-124.71 80.88,-124.71"/>
</a>
</g>
</g>
</g>
</svg>
