<?xml version="1.0" encoding="UTF-8" standalone="no"?>
<!DOCTYPE svg PUBLIC "-//W3C//DTD SVG 1.1//EN"
 "http://www.w3.org/Graphics/SVG/1.1/DTD/svg11.dtd">
<!-- Generated by graphviz version 13.1.1 (20250719.2154)
 -->
<!-- Title: UStateManagerComponent::OnRep_CurrentStateTags Pages: 1 -->
<svg width="1131pt" height="190pt"
 viewBox="0.00 0.00 1131.00 190.00" xmlns="http://www.w3.org/2000/svg" xmlns:xlink="http://www.w3.org/1999/xlink">
<g id="graph0" class="graph" transform="scale(1 1) rotate(0) translate(4 186)">
<title>UStateManagerComponent::OnRep_CurrentStateTags</title>
<!-- Node1 -->
<g id="Node000001" class="node">
<title>Node1</title>
<g id="a_Node000001"><a xlink:title=" ">
<polygon fill="#999999" stroke="#666666" points="1122.75,-107 988.25,-107 988.25,-75 1122.75,-75 1122.75,-107"/>
<text xml:space="preserve" text-anchor="start" x="996.25" y="-93.5" font-family="Helvetica,sans-Serif" font-size="10.00">UStateManagerComponent</text>
<text xml:space="preserve" text-anchor="middle" x="1055.5" y="-81.5" font-family="Helvetica,sans-Serif" font-size="10.00">::OnRep_CurrentStateTags</text>
</a>
</g>
</g>
<!-- Node2 -->
<g id="Node000002" class="node">
<title>Node2</title>
<g id="a_Node000002"><a xlink:href="class_u_state_manager_component.html#ae150ce973dfc92b4fc152dfaaabb9e82" target="_top" xlink:title=" ">
<polygon fill="white" stroke="#666666" points="952.25,-182 817.75,-182 817.75,-150 952.25,-150 952.25,-182"/>
<text xml:space="preserve" text-anchor="start" x="825.75" y="-168.5" font-family="Helvetica,sans-Serif" font-size="10.00">UStateManagerComponent</text>
<text xml:space="preserve" text-anchor="middle" x="885" y="-156.5" font-family="Helvetica,sans-Serif" font-size="10.00">::AddStateTag</text>
</a>
</g>
</g>
<!-- Node1&#45;&gt;Node2 -->
<g id="edge1_Node000001_Node000002" class="edge">
<title>Node1&#45;&gt;Node2</title>
<g id="a_edge1_Node000001_Node000002"><a xlink:title=" ">
<path fill="none" stroke="#63b8ff" d="M1012.98,-112.41C994.56,-121.61 972.51,-132.25 952.25,-141 945.48,-143.93 938.24,-146.85 931.13,-149.62"/>
<polygon fill="#63b8ff" stroke="#63b8ff" points="1014.37,-115.62 1021.73,-108 1011.22,-109.37 1014.37,-115.62"/>
</a>
</g>
</g>
<!-- Node3 -->
<g id="Node000003" class="node">
<title>Node3</title>
<g id="a_Node000003"><a xlink:href="class_u_state_manager_component.html#aa02160df8ceffa37f487dfbdfc8cb2fd" target="_top" xlink:title=" ">
<polygon fill="white" stroke="#666666" points="952.25,-132 817.75,-132 817.75,-100 952.25,-100 952.25,-132"/>
<text xml:space="preserve" text-anchor="start" x="825.75" y="-118.5" font-family="Helvetica,sans-Serif" font-size="10.00">UStateManagerComponent</text>
<text xml:space="preserve" text-anchor="middle" x="885" y="-106.5" font-family="Helvetica,sans-Serif" font-size="10.00">::InitialBroadCast</text>
</a>
</g>
</g>
<!-- Node1&#45;&gt;Node3 -->
<g id="edge2_Node000001_Node000003" class="edge">
<title>Node1&#45;&gt;Node3</title>
<g id="a_edge2_Node000001_Node000003"><a xlink:title=" ">
<path fill="none" stroke="#63b8ff" d="M976.65,-102.55C968.64,-103.74 960.54,-104.94 952.66,-106.11"/>
<polygon fill="#63b8ff" stroke="#63b8ff" points="977.03,-106.03 986.41,-101.1 976,-99.11 977.03,-106.03"/>
</a>
</g>
</g>
<!-- Node8 -->
<g id="Node000008" class="node">
<title>Node8</title>
<g id="a_Node000008"><a xlink:href="class_u_state_manager_component.html#a0c94077b36e48b892e9bc72586fe006d" target="_top" xlink:title=" ">
<polygon fill="white" stroke="#666666" points="952.25,-82 817.75,-82 817.75,-50 952.25,-50 952.25,-82"/>
<text xml:space="preserve" text-anchor="start" x="825.75" y="-68.5" font-family="Helvetica,sans-Serif" font-size="10.00">UStateManagerComponent</text>
<text xml:space="preserve" text-anchor="middle" x="885" y="-56.5" font-family="Helvetica,sans-Serif" font-size="10.00">::RemoveStateTag</text>
</a>
</g>
</g>
<!-- Node1&#45;&gt;Node8 -->
<g id="edge7_Node000001_Node000008" class="edge">
<title>Node1&#45;&gt;Node8</title>
<g id="a_edge7_Node000001_Node000008"><a xlink:title=" ">
<path fill="none" stroke="#63b8ff" d="M976.65,-79.45C968.64,-78.26 960.54,-77.06 952.66,-75.89"/>
<polygon fill="#63b8ff" stroke="#63b8ff" points="976,-82.89 986.41,-80.9 977.03,-75.97 976,-82.89"/>
</a>
</g>
</g>
<!-- Node9 -->
<g id="Node000009" class="node">
<title>Node9</title>
<g id="a_Node000009"><a xlink:href="class_u_state_manager_component.html#a7997376c59c148c678b542bbe5ea998d" target="_top" xlink:title=" ">
<polygon fill="white" stroke="#666666" points="952.25,-32 817.75,-32 817.75,0 952.25,0 952.25,-32"/>
<text xml:space="preserve" text-anchor="start" x="825.75" y="-18.5" font-family="Helvetica,sans-Serif" font-size="10.00">UStateManagerComponent</text>
<text xml:space="preserve" text-anchor="middle" x="885" y="-6.5" font-family="Helvetica,sans-Serif" font-size="10.00">::SetStateTags</text>
</a>
</g>
</g>
<!-- Node1&#45;&gt;Node9 -->
<g id="edge8_Node000001_Node000009" class="edge">
<title>Node1&#45;&gt;Node9</title>
<g id="a_edge8_Node000001_Node000009"><a xlink:title=" ">
<path fill="none" stroke="#63b8ff" d="M1012.98,-69.59C994.56,-60.39 972.51,-49.75 952.25,-41 945.48,-38.07 938.24,-35.15 931.13,-32.38"/>
<polygon fill="#63b8ff" stroke="#63b8ff" points="1011.22,-72.63 1021.73,-74 1014.37,-66.38 1011.22,-72.63"/>
</a>
</g>
</g>
<!-- Node4 -->
<g id="Node000004" class="node">
<title>Node4</title>
<g id="a_Node000004"><a xlink:href="class_u_in_game_h_u_d.html#ab7c7e04ab365d90d164230522904ef06" target="_top" xlink:title=" ">
<polygon fill="white" stroke="#666666" points="781.75,-132 595.5,-132 595.5,-100 781.75,-100 781.75,-132"/>
<text xml:space="preserve" text-anchor="start" x="603.5" y="-118.5" font-family="Helvetica,sans-Serif" font-size="10.00">UInGameHUD::InGamePhaseManager</text>
<text xml:space="preserve" text-anchor="middle" x="688.62" y="-106.5" font-family="Helvetica,sans-Serif" font-size="10.00">ReadyHandle</text>
</a>
</g>
</g>
<!-- Node3&#45;&gt;Node4 -->
<g id="edge3_Node000003_Node000004" class="edge">
<title>Node3&#45;&gt;Node4</title>
<g id="a_edge3_Node000003_Node000004"><a xlink:title=" ">
<path fill="none" stroke="#63b8ff" d="M805.95,-116C798.05,-116 789.97,-116 781.93,-116"/>
<polygon fill="#63b8ff" stroke="#63b8ff" points="805.87,-119.5 815.87,-116 805.87,-112.5 805.87,-119.5"/>
</a>
</g>
</g>
<!-- Node5 -->
<g id="Node000005" class="node">
<title>Node5</title>
<g id="a_Node000005"><a xlink:href="class_u_in_game_h_u_d.html#ad4ea3a784dd89f918799a49b145846ba" target="_top" xlink:title=" ">
<polygon fill="white" stroke="#666666" points="559.5,-132 393.5,-132 393.5,-100 559.5,-100 559.5,-132"/>
<text xml:space="preserve" text-anchor="start" x="401.5" y="-118.5" font-family="Helvetica,sans-Serif" font-size="10.00">UInGameHUD::BindToGameState</text>
<text xml:space="preserve" text-anchor="middle" x="476.5" y="-106.5" font-family="Helvetica,sans-Serif" font-size="10.00">Delegates</text>
</a>
</g>
</g>
<!-- Node4&#45;&gt;Node5 -->
<g id="edge4_Node000004_Node000005" class="edge">
<title>Node4&#45;&gt;Node5</title>
<g id="a_edge4_Node000004_Node000005"><a xlink:title=" ">
<path fill="none" stroke="#63b8ff" d="M583.79,-116C575.73,-116 567.66,-116 559.77,-116"/>
<polygon fill="#63b8ff" stroke="#63b8ff" points="583.64,-119.5 593.64,-116 583.64,-112.5 583.64,-119.5"/>
</a>
</g>
</g>
<!-- Node6 -->
<g id="Node000006" class="node">
<title>Node6</title>
<g id="a_Node000006"><a xlink:href="class_u_in_game_h_u_d.html#adecf96b1c0383fa1989f7b5c55bb06ce" target="_top" xlink:title=" ">
<polygon fill="white" stroke="#666666" points="357.5,-126 193.75,-126 193.75,-106 357.5,-106 357.5,-126"/>
<text xml:space="preserve" text-anchor="middle" x="275.62" y="-112.5" font-family="Helvetica,sans-Serif" font-size="10.00">UInGameHUD::OnGameStateSet</text>
</a>
</g>
</g>
<!-- Node5&#45;&gt;Node6 -->
<g id="edge5_Node000005_Node000006" class="edge">
<title>Node5&#45;&gt;Node6</title>
<g id="a_edge5_Node000005_Node000006"><a xlink:title=" ">
<path fill="none" stroke="#63b8ff" d="M381.9,-116C373.89,-116 365.83,-116 357.93,-116"/>
<polygon fill="#63b8ff" stroke="#63b8ff" points="381.66,-119.5 391.66,-116 381.66,-112.5 381.66,-119.5"/>
</a>
</g>
</g>
<!-- Node7 -->
<g id="Node000007" class="node">
<title>Node7</title>
<g id="a_Node000007"><a xlink:href="class_u_in_game_h_u_d.html#ac0dc199f4499dcb804507ef05df5a3f7" target="_top" xlink:title=" ">
<polygon fill="white" stroke="#666666" points="157.75,-126 0,-126 0,-106 157.75,-106 157.75,-126"/>
<text xml:space="preserve" text-anchor="middle" x="78.88" y="-112.5" font-family="Helvetica,sans-Serif" font-size="10.00">UInGameHUD::NativeConstruct</text>
</a>
</g>
</g>
<!-- Node6&#45;&gt;Node7 -->
<g id="edge6_Node000006_Node000007" class="edge">
<title>Node6&#45;&gt;Node7</title>
<g id="a_edge6_Node000006_Node000007"><a xlink:title=" ">
<path fill="none" stroke="#63b8ff" d="M182.14,-116C174.1,-116 166.02,-116 158.11,-116"/>
<polygon fill="#63b8ff" stroke="#63b8ff" points="181.93,-119.5 191.93,-116 181.93,-112.5 181.93,-119.5"/>
</a>
</g>
</g>
</g>
</svg>
