<?xml version="1.0" encoding="UTF-8" standalone="no"?>
<!DOCTYPE svg PUBLIC "-//W3C//DTD SVG 1.1//EN"
 "http://www.w3.org/Graphics/SVG/1.1/DTD/svg11.dtd">
<!-- Generated by graphviz version 13.1.1 (20250719.2154)
 -->
<!-- Title: UPlayerRewardStateComponent::GetPendingRewardCount Pages: 1 -->
<svg width="576pt" height="115pt"
 viewBox="0.00 0.00 576.00 115.00" xmlns="http://www.w3.org/2000/svg" xmlns:xlink="http://www.w3.org/1999/xlink">
<g id="graph0" class="graph" transform="scale(1 1) rotate(0) translate(4 111)">
<title>UPlayerRewardStateComponent::GetPendingRewardCount</title>
<!-- Node1 -->
<g id="Node000001" class="node">
<title>Node1</title>
<g id="a_Node000001"><a xlink:title="처리해야 할 보상의 개수를 반환합니다.">
<polygon fill="#999999" stroke="#666666" points="567.75,-57 409.25,-57 409.25,-25 567.75,-25 567.75,-57"/>
<text xml:space="preserve" text-anchor="start" x="417.25" y="-43.5" font-family="Helvetica,sans-Serif" font-size="10.00">UPlayerRewardStateComponent</text>
<text xml:space="preserve" text-anchor="middle" x="488.5" y="-31.5" font-family="Helvetica,sans-Serif" font-size="10.00">::GetPendingRewardCount</text>
</a>
</g>
</g>
<!-- Node1&#45;&gt;Node1 -->
<g id="edge4_Node000001_Node000001" class="edge">
<title>Node1&#45;&gt;Node1</title>
<g id="a_edge4_Node000001_Node000001"><a xlink:title=" ">
<path fill="none" stroke="#63b8ff" d="M522.84,-68.54C517.24,-72.41 505.79,-75 488.5,-75 457.33,-75 445.15,-66.58 451.97,-57.44"/>
<polygon fill="#63b8ff" stroke="#63b8ff" points="526.24,-69.42 524.74,-58.93 519.37,-68.06 526.24,-69.42"/>
</a>
</g>
</g>
<!-- Node2 -->
<g id="Node000002" class="node">
<title>Node2</title>
<g id="a_Node000002"><a xlink:href="class_u_player_reward_state_component.html#a35d551ab0e1f42b03dc260045adcf645" target="_top" xlink:title=" ">
<polygon fill="white" stroke="#666666" points="373.25,-82 194.5,-82 194.5,-50 373.25,-50 373.25,-82"/>
<text xml:space="preserve" text-anchor="start" x="202.5" y="-68.5" font-family="Helvetica,sans-Serif" font-size="10.00">UPlayerRewardStateComponent</text>
<text xml:space="preserve" text-anchor="middle" x="283.88" y="-56.5" font-family="Helvetica,sans-Serif" font-size="10.00">::BroadCastPendingChoicesChanged</text>
</a>
</g>
</g>
<!-- Node1&#45;&gt;Node2 -->
<g id="edge1_Node000001_Node000002" class="edge">
<title>Node1&#45;&gt;Node2</title>
<g id="a_edge1_Node000001_Node000002"><a xlink:title=" ">
<path fill="none" stroke="#63b8ff" d="M397.65,-52.09C389.65,-53.07 381.55,-54.07 373.56,-55.06"/>
<polygon fill="#63b8ff" stroke="#63b8ff" points="397.87,-55.59 407.37,-50.89 397.01,-48.64 397.87,-55.59"/>
</a>
</g>
</g>
<!-- Node5 -->
<g id="Node000005" class="node">
<title>Node5</title>
<g id="a_Node000005"><a xlink:href="class_u_player_reward_state_component.html#a5afd245392a0fb3428d8a7484c1356f2" target="_top" xlink:title=" ">
<polygon fill="white" stroke="#666666" points="363.12,-32 204.62,-32 204.62,0 363.12,0 363.12,-32"/>
<text xml:space="preserve" text-anchor="start" x="212.62" y="-18.5" font-family="Helvetica,sans-Serif" font-size="10.00">UPlayerRewardStateComponent</text>
<text xml:space="preserve" text-anchor="middle" x="283.88" y="-6.5" font-family="Helvetica,sans-Serif" font-size="10.00">::InitializeBroadCast</text>
</a>
</g>
</g>
<!-- Node1&#45;&gt;Node5 -->
<g id="edge5_Node000001_Node000005" class="edge">
<title>Node1&#45;&gt;Node5</title>
<g id="a_edge5_Node000001_Node000005"><a xlink:title=" ">
<path fill="none" stroke="#63b8ff" d="M397.58,-29.91C386.21,-28.5 374.64,-27.08 363.46,-25.7"/>
<polygon fill="#63b8ff" stroke="#63b8ff" points="397.01,-33.36 407.37,-31.11 397.87,-26.41 397.01,-33.36"/>
</a>
</g>
</g>
<!-- Node3 -->
<g id="Node000003" class="node">
<title>Node3</title>
<g id="a_Node000003"><a xlink:href="class_u_player_reward_state_component.html#a68a049a6a47e5a1afa7d22cd8e6de9de" target="_top" xlink:title="OfferedChoices 배열이 클라이언트로 복제 완료되었을 때 호출됩니다.">
<polygon fill="white" stroke="#666666" points="158.5,-107 0,-107 0,-75 158.5,-75 158.5,-107"/>
<text xml:space="preserve" text-anchor="start" x="8" y="-93.5" font-family="Helvetica,sans-Serif" font-size="10.00">UPlayerRewardStateComponent</text>
<text xml:space="preserve" text-anchor="middle" x="79.25" y="-81.5" font-family="Helvetica,sans-Serif" font-size="10.00">::OnRep_OfferedChoices</text>
</a>
</g>
</g>
<!-- Node2&#45;&gt;Node3 -->
<g id="edge2_Node000002_Node000003" class="edge">
<title>Node2&#45;&gt;Node3</title>
<g id="a_edge2_Node000002_Node000003"><a xlink:title=" ">
<path fill="none" stroke="#63b8ff" d="M182.71,-78.36C174.71,-79.35 166.7,-80.33 158.87,-81.3"/>
<polygon fill="#63b8ff" stroke="#63b8ff" points="183,-81.85 192.5,-77.15 182.15,-74.9 183,-81.85"/>
</a>
</g>
</g>
<!-- Node4 -->
<g id="Node000004" class="node">
<title>Node4</title>
<g id="a_Node000004"><a xlink:href="class_u_player_reward_state_component.html#ad3870d8283288aa39f8ea488eb131f12" target="_top" xlink:title="서버에서만 호출: 새로운 보상 목록을 설정합니다.">
<polygon fill="white" stroke="#666666" points="158.5,-57 0,-57 0,-25 158.5,-25 158.5,-57"/>
<text xml:space="preserve" text-anchor="start" x="8" y="-43.5" font-family="Helvetica,sans-Serif" font-size="10.00">UPlayerRewardStateComponent</text>
<text xml:space="preserve" text-anchor="middle" x="79.25" y="-31.5" font-family="Helvetica,sans-Serif" font-size="10.00">::SetOfferedChoices</text>
</a>
</g>
</g>
<!-- Node2&#45;&gt;Node4 -->
<g id="edge3_Node000002_Node000004" class="edge">
<title>Node2&#45;&gt;Node4</title>
<g id="a_edge3_Node000002_Node000004"><a xlink:title=" ">
<path fill="none" stroke="#63b8ff" d="M182.71,-53.64C174.71,-52.65 166.7,-51.67 158.87,-50.7"/>
<polygon fill="#63b8ff" stroke="#63b8ff" points="182.15,-57.1 192.5,-54.85 183,-50.15 182.15,-57.1"/>
</a>
</g>
</g>
</g>
</svg>
