<?xml version="1.0" encoding="UTF-8" standalone="no"?>
<!DOCTYPE svg PUBLIC "-//W3C//DTD SVG 1.1//EN"
 "http://www.w3.org/Graphics/SVG/1.1/DTD/svg11.dtd">
<!-- Generated by graphviz version 13.1.1 (20250719.2154)
 -->
<!-- Title: UKPTPlayerAttributeSet::UKPTPlayerAttributeSet Pages: 1 -->
<svg width="681pt" height="746pt"
 viewBox="0.00 0.00 681.00 746.00" xmlns="http://www.w3.org/2000/svg" xmlns:xlink="http://www.w3.org/1999/xlink">
<g id="graph0" class="graph" transform="scale(1 1) rotate(0) translate(4 741.99)">
<title>UKPTPlayerAttributeSet::UKPTPlayerAttributeSet</title>
<!-- Node1 -->
<g id="Node000001" class="node">
<title>Node1</title>
<g id="a_Node000001"><a xlink:title=" ">
<polygon fill="#999999" stroke="#666666" points="673,-372.97 544.5,-372.97 544.5,-340.97 673,-340.97 673,-372.97"/>
<text xml:space="preserve" text-anchor="start" x="552.5" y="-359.47" font-family="Helvetica,sans-Serif" font-size="10.00">UKPTPlayerAttributeSet</text>
<text xml:space="preserve" text-anchor="middle" x="608.75" y="-347.47" font-family="Helvetica,sans-Serif" font-size="10.00">::UKPTPlayerAttributeSet</text>
</a>
</g>
</g>
<!-- Node2 -->
<g id="Node000002" class="node">
<title>Node2</title>
<g id="a_Node000002"><a xlink:href="class_u_k_p_t_player_attribute_set.html#ac3bf3a46ba9760619053d10ee02b6ef1" target="_top" xlink:title=" ">
<polygon fill="white" stroke="#666666" points="146.5,-670.97 0,-670.97 0,-638.97 146.5,-638.97 146.5,-670.97"/>
<text xml:space="preserve" text-anchor="start" x="8" y="-657.47" font-family="Helvetica,sans-Serif" font-size="10.00">UKPTPlayerAttributeSet</text>
<text xml:space="preserve" text-anchor="middle" x="73.25" y="-645.47" font-family="Helvetica,sans-Serif" font-size="10.00">::ATTRIBUTE_ACCESSORS</text>
</a>
</g>
</g>
<!-- Node1&#45;&gt;Node2 -->
<g id="edge1_Node000001_Node000002" class="edge">
<title>Node1&#45;&gt;Node2</title>
<g id="a_edge1_Node000001_Node000002"><a xlink:title=" ">
<path fill="none" stroke="#63b8ff" d="M608.41,-384.61C608.27,-447.86 598.32,-603.49 508.5,-679.97 397.93,-774.1 324.68,-731.5 182.5,-701.97 154.22,-696.09 124.25,-682.43 103.03,-671.34"/>
<polygon fill="#63b8ff" stroke="#63b8ff" points="611.91,-384.73 608.34,-374.76 604.91,-384.79 611.91,-384.73"/>
</a>
</g>
</g>
<!-- Node3 -->
<g id="Node000003" class="node">
<title>Node3</title>
<g id="a_Node000003"><a xlink:href="class_u_k_p_t_player_attribute_set.html#acc786b130189c40cf55e6a58368a3925" target="_top" xlink:title=" ">
<polygon fill="white" stroke="#666666" points="146.5,-620.97 0,-620.97 0,-588.97 146.5,-588.97 146.5,-620.97"/>
<text xml:space="preserve" text-anchor="start" x="8" y="-607.47" font-family="Helvetica,sans-Serif" font-size="10.00">UKPTPlayerAttributeSet</text>
<text xml:space="preserve" text-anchor="middle" x="73.25" y="-595.47" font-family="Helvetica,sans-Serif" font-size="10.00">::ATTRIBUTE_ACCESSORS</text>
</a>
</g>
</g>
<!-- Node1&#45;&gt;Node3 -->
<g id="edge2_Node000001_Node000003" class="edge">
<title>Node1&#45;&gt;Node3</title>
<g id="a_edge2_Node000001_Node000003"><a xlink:title=" ">
<path fill="none" stroke="#63b8ff" d="M606.76,-384.72C603.13,-442.4 586.28,-575.62 508.5,-644.97 454.12,-693.45 247.35,-713.18 182.5,-679.97 158.13,-667.48 168.46,-646.32 146.5,-629.97 142.13,-626.72 137.31,-623.87 132.3,-621.37"/>
<polygon fill="#63b8ff" stroke="#63b8ff" points="610.25,-384.98 607.28,-374.81 603.26,-384.61 610.25,-384.98"/>
</a>
</g>
</g>
<!-- Node4 -->
<g id="Node000004" class="node">
<title>Node4</title>
<g id="a_Node000004"><a xlink:href="class_u_k_p_t_player_attribute_set.html#aaccb4f2cf58d289eb2975916a716bbfb" target="_top" xlink:title=" ">
<polygon fill="white" stroke="#666666" points="146.5,-412.97 0,-412.97 0,-380.97 146.5,-380.97 146.5,-412.97"/>
<text xml:space="preserve" text-anchor="start" x="8" y="-399.47" font-family="Helvetica,sans-Serif" font-size="10.00">UKPTPlayerAttributeSet</text>
<text xml:space="preserve" text-anchor="middle" x="73.25" y="-387.47" font-family="Helvetica,sans-Serif" font-size="10.00">::ATTRIBUTE_ACCESSORS</text>
</a>
</g>
</g>
<!-- Node1&#45;&gt;Node4 -->
<g id="edge3_Node000001_Node000004" class="edge">
<title>Node1&#45;&gt;Node4</title>
<g id="a_edge3_Node000001_Node000004"><a xlink:title=" ">
<path fill="none" stroke="#63b8ff" d="M590.82,-382.32C573.37,-405.93 543.8,-439.58 508.5,-453.97 369.43,-510.64 186.48,-445.94 110.13,-413.41"/>
<polygon fill="#63b8ff" stroke="#63b8ff" points="593.48,-384.61 596.44,-374.44 587.78,-380.55 593.48,-384.61"/>
</a>
</g>
</g>
<!-- Node5 -->
<g id="Node000005" class="node">
<title>Node5</title>
<g id="a_Node000005"><a xlink:href="class_u_k_p_t_player_attribute_set.html#a54a39af55450b3d8d28f9f7369c5bf61" target="_top" xlink:title=" ">
<polygon fill="white" stroke="#666666" points="146.5,-250.97 0,-250.97 0,-218.97 146.5,-218.97 146.5,-250.97"/>
<text xml:space="preserve" text-anchor="start" x="8" y="-237.47" font-family="Helvetica,sans-Serif" font-size="10.00">UKPTPlayerAttributeSet</text>
<text xml:space="preserve" text-anchor="middle" x="73.25" y="-225.47" font-family="Helvetica,sans-Serif" font-size="10.00">::ATTRIBUTE_ACCESSORS</text>
</a>
</g>
</g>
<!-- Node1&#45;&gt;Node5 -->
<g id="edge4_Node000001_Node000005" class="edge">
<title>Node1&#45;&gt;Node5</title>
<g id="a_edge4_Node000001_Node000005"><a xlink:title=" ">
<path fill="none" stroke="#63b8ff" d="M606.63,-329.33C602.74,-273.15 585.44,-145.66 508.5,-82.97 452.2,-37.09 241.54,-17.67 182.5,-59.97 142.06,-88.94 173.26,-124.02 146.5,-165.97 133.16,-186.87 112.18,-205.95 96.26,-218.72"/>
<polygon fill="#63b8ff" stroke="#63b8ff" points="603.13,-329.5 607.21,-339.28 610.12,-329.09 603.13,-329.5"/>
</a>
</g>
</g>
<!-- Node6 -->
<g id="Node000006" class="node">
<title>Node6</title>
<g id="a_Node000006"><a xlink:href="class_u_k_p_t_player_attribute_set.html#a7261aed8152b11c300848caf183908dd" target="_top" xlink:title=" ">
<polygon fill="white" stroke="#666666" points="146.5,-156.97 0,-156.97 0,-124.97 146.5,-124.97 146.5,-156.97"/>
<text xml:space="preserve" text-anchor="start" x="8" y="-143.47" font-family="Helvetica,sans-Serif" font-size="10.00">UKPTPlayerAttributeSet</text>
<text xml:space="preserve" text-anchor="middle" x="73.25" y="-131.47" font-family="Helvetica,sans-Serif" font-size="10.00">::ATTRIBUTE_ACCESSORS</text>
</a>
</g>
</g>
<!-- Node1&#45;&gt;Node6 -->
<g id="edge5_Node000001_Node000006" class="edge">
<title>Node1&#45;&gt;Node6</title>
<g id="a_edge5_Node000001_Node000006"><a xlink:title=" ">
<path fill="none" stroke="#63b8ff" d="M603.3,-329.53C591.27,-259.16 555.83,-75.17 508.5,-38.97 450.95,5.06 243.63,5.94 182.5,-32.97 150.63,-53.25 173.64,-83.68 146.5,-109.97 140.52,-115.76 133.29,-120.55 125.74,-124.49"/>
<polygon fill="#63b8ff" stroke="#63b8ff" points="599.79,-329.78 604.9,-339.06 606.69,-328.62 599.79,-329.78"/>
</a>
</g>
</g>
<!-- Node7 -->
<g id="Node000007" class="node">
<title>Node7</title>
<g id="a_Node000007"><a xlink:href="class_u_k_p_t_player_attribute_set.html#aa4a7eb9b5df34c17e1cc753ae89d5e43" target="_top" xlink:title=" ">
<polygon fill="white" stroke="#666666" points="339.5,-350.97 193,-350.97 193,-318.97 339.5,-318.97 339.5,-350.97"/>
<text xml:space="preserve" text-anchor="start" x="201" y="-337.47" font-family="Helvetica,sans-Serif" font-size="10.00">UKPTPlayerAttributeSet</text>
<text xml:space="preserve" text-anchor="middle" x="266.25" y="-325.47" font-family="Helvetica,sans-Serif" font-size="10.00">::ATTRIBUTE_ACCESSORS</text>
</a>
</g>
</g>
<!-- Node1&#45;&gt;Node7 -->
<g id="edge6_Node000001_Node000007" class="edge">
<title>Node1&#45;&gt;Node7</title>
<g id="a_edge6_Node000001_Node000007"><a xlink:title=" ">
<path fill="none" stroke="#63b8ff" d="M532.91,-352.13C475.46,-348.42 396.59,-343.32 339.73,-339.65"/>
<polygon fill="#63b8ff" stroke="#63b8ff" points="532.39,-355.6 542.59,-352.76 532.84,-348.62 532.39,-355.6"/>
</a>
</g>
</g>
<!-- Node8 -->
<g id="Node000008" class="node">
<title>Node8</title>
<g id="a_Node000008"><a xlink:href="class_u_k_p_t_player_attribute_set.html#a2d787ccd6ff19db4387c42d768bc1812" target="_top" xlink:title=" ">
<polygon fill="white" stroke="#666666" points="146.5,-532.97 0,-532.97 0,-500.97 146.5,-500.97 146.5,-532.97"/>
<text xml:space="preserve" text-anchor="start" x="8" y="-519.47" font-family="Helvetica,sans-Serif" font-size="10.00">UKPTPlayerAttributeSet</text>
<text xml:space="preserve" text-anchor="middle" x="73.25" y="-507.47" font-family="Helvetica,sans-Serif" font-size="10.00">::ATTRIBUTE_ACCESSORS</text>
</a>
</g>
</g>
<!-- Node1&#45;&gt;Node8 -->
<g id="edge16_Node000001_Node000008" class="edge">
<title>Node1&#45;&gt;Node8</title>
<g id="a_edge16_Node000001_Node000008"><a xlink:title=" ">
<path fill="none" stroke="#63b8ff" d="M599.32,-383.67C586.22,-420.42 557.27,-485.71 508.5,-517.97 389.81,-596.46 210.07,-558.66 123.83,-533.39"/>
<polygon fill="#63b8ff" stroke="#63b8ff" points="602.47,-385.27 602.39,-374.68 595.84,-383.01 602.47,-385.27"/>
</a>
</g>
</g>
<!-- Node9 -->
<g id="Node000009" class="node">
<title>Node9</title>
<g id="a_Node000009"><a xlink:href="class_u_k_p_t_player_attribute_set.html#aaf7bc48b18716a7e51e0449846c8cbb7" target="_top" xlink:title=" ">
<polygon fill="white" stroke="#666666" points="146.5,-300.97 0,-300.97 0,-268.97 146.5,-268.97 146.5,-300.97"/>
<text xml:space="preserve" text-anchor="start" x="8" y="-287.47" font-family="Helvetica,sans-Serif" font-size="10.00">UKPTPlayerAttributeSet</text>
<text xml:space="preserve" text-anchor="middle" x="73.25" y="-275.47" font-family="Helvetica,sans-Serif" font-size="10.00">::ATTRIBUTE_ACCESSORS</text>
</a>
</g>
</g>
<!-- Node1&#45;&gt;Node9 -->
<g id="edge17_Node000001_Node000009" class="edge">
<title>Node1&#45;&gt;Node9</title>
<g id="a_edge17_Node000001_Node000009"><a xlink:title=" ">
<path fill="none" stroke="#63b8ff" d="M587.33,-332.32C568.72,-311.28 539.48,-281.56 508.5,-262.97 444.81,-224.75 423.31,-221.9 350,-209.97 276.52,-198.01 248.76,-176.03 182.5,-209.97 158.13,-222.45 168.46,-243.61 146.5,-259.97 142.13,-263.21 137.31,-266.06 132.3,-268.56"/>
<polygon fill="#63b8ff" stroke="#63b8ff" points="584.44,-334.34 593.63,-339.61 589.73,-329.76 584.44,-334.34"/>
</a>
</g>
</g>
<!-- Node10 -->
<g id="Node000010" class="node">
<title>Node10</title>
<g id="a_Node000010"><a xlink:href="class_u_k_p_t_player_attribute_set.html#a985c6d40f9248c71ef2cd9b2d990122f" target="_top" xlink:title=" ">
<polygon fill="white" stroke="#666666" points="146.5,-100.97 0,-100.97 0,-68.97 146.5,-68.97 146.5,-100.97"/>
<text xml:space="preserve" text-anchor="start" x="8" y="-87.47" font-family="Helvetica,sans-Serif" font-size="10.00">UKPTPlayerAttributeSet</text>
<text xml:space="preserve" text-anchor="middle" x="73.25" y="-75.47" font-family="Helvetica,sans-Serif" font-size="10.00">::ATTRIBUTE_ACCESSORS</text>
</a>
</g>
</g>
<!-- Node1&#45;&gt;Node10 -->
<g id="edge18_Node000001_Node000010" class="edge">
<title>Node1&#45;&gt;Node10</title>
<g id="a_edge18_Node000001_Node000010"><a xlink:title=" ">
<path fill="none" stroke="#63b8ff" d="M604.27,-329.47C594.02,-253.49 561.35,-43.56 508.5,-2.97 502.86,1.36 184.73,-0.2 182.5,-0.97 143.34,-14.38 107.41,-48.36 88.4,-68.76"/>
<polygon fill="#63b8ff" stroke="#63b8ff" points="600.74,-329.51 605.52,-338.97 607.68,-328.6 600.74,-329.51"/>
</a>
</g>
</g>
<!-- Node11 -->
<g id="Node000011" class="node">
<title>Node11</title>
<g id="a_Node000011"><a xlink:href="class_u_k_p_t_player_attribute_set.html#abb8dd92d42b964526bad2c71b732f63c" target="_top" xlink:title=" ">
<polygon fill="white" stroke="#666666" points="350,-532.97 182.5,-532.97 182.5,-500.97 350,-500.97 350,-532.97"/>
<text xml:space="preserve" text-anchor="start" x="190.5" y="-519.47" font-family="Helvetica,sans-Serif" font-size="10.00">UKPTPlayerAttributeSet</text>
<text xml:space="preserve" text-anchor="middle" x="266.25" y="-507.47" font-family="Helvetica,sans-Serif" font-size="10.00">::OnRep_AdditionalProjectileCount</text>
</a>
</g>
</g>
<!-- Node1&#45;&gt;Node11 -->
<g id="edge19_Node000001_Node000011" class="edge">
<title>Node1&#45;&gt;Node11</title>
<g id="a_edge19_Node000001_Node000011"><a xlink:title=" ">
<path fill="none" stroke="#63b8ff" d="M595.63,-383.41C580.12,-413.94 550.17,-463.04 508.5,-486.97 460.92,-514.29 399.45,-521.6 350.47,-522.17"/>
<polygon fill="#63b8ff" stroke="#63b8ff" points="598.77,-384.95 600.02,-374.43 592.48,-381.88 598.77,-384.95"/>
</a>
</g>
</g>
<!-- Node12 -->
<g id="Node000012" class="node">
<title>Node12</title>
<g id="a_Node000012"><a xlink:href="class_u_k_p_t_player_attribute_set.html#a9c802591f4771203325be347901ed35a" target="_top" xlink:title=" ">
<polygon fill="white" stroke="#666666" points="339.12,-300.97 193.38,-300.97 193.38,-268.97 339.12,-268.97 339.12,-300.97"/>
<text xml:space="preserve" text-anchor="start" x="201.38" y="-287.47" font-family="Helvetica,sans-Serif" font-size="10.00">UKPTPlayerAttributeSet</text>
<text xml:space="preserve" text-anchor="middle" x="266.25" y="-275.47" font-family="Helvetica,sans-Serif" font-size="10.00">::OnRep_AttackAreaMultiplier</text>
</a>
</g>
</g>
<!-- Node1&#45;&gt;Node12 -->
<g id="edge22_Node000001_Node000012" class="edge">
<title>Node1&#45;&gt;Node12</title>
<g id="a_edge22_Node000001_Node000012"><a xlink:title=" ">
<path fill="none" stroke="#63b8ff" d="M532.89,-341.14C475.34,-328.97 396.31,-312.25 339.43,-300.23"/>
<polygon fill="#63b8ff" stroke="#63b8ff" points="532.12,-344.55 542.62,-343.19 533.56,-337.7 532.12,-344.55"/>
</a>
</g>
</g>
<!-- Node13 -->
<g id="Node000013" class="node">
<title>Node13</title>
<g id="a_Node000013"><a xlink:href="class_u_k_p_t_player_attribute_set.html#a21c37aff30a90baa8f3d22f5cebfc5b7" target="_top" xlink:title=" ">
<polygon fill="white" stroke="#666666" points="327.5,-250.97 205,-250.97 205,-218.97 327.5,-218.97 327.5,-250.97"/>
<text xml:space="preserve" text-anchor="start" x="213" y="-237.47" font-family="Helvetica,sans-Serif" font-size="10.00">UKPTPlayerAttributeSet</text>
<text xml:space="preserve" text-anchor="middle" x="266.25" y="-225.47" font-family="Helvetica,sans-Serif" font-size="10.00">::OnRep_CriticalChance</text>
</a>
</g>
</g>
<!-- Node1&#45;&gt;Node13 -->
<g id="edge25_Node000001_Node000013" class="edge">
<title>Node1&#45;&gt;Node13</title>
<g id="a_edge25_Node000001_Node000013"><a xlink:title=" ">
<path fill="none" stroke="#63b8ff" d="M569.44,-335.14C551.34,-325.38 529.2,-314.24 508.5,-305.97 448.5,-281.97 377.25,-261.99 327.8,-249.4"/>
<polygon fill="#63b8ff" stroke="#63b8ff" points="567.54,-338.09 578,-339.81 570.9,-331.95 567.54,-338.09"/>
</a>
</g>
</g>
<!-- Node14 -->
<g id="Node000014" class="node">
<title>Node14</title>
<g id="a_Node000014"><a xlink:href="class_u_k_p_t_player_attribute_set.html#a72fb0dffc4e7a297ff00385666c1bb9e" target="_top" xlink:title=" ">
<polygon fill="white" stroke="#666666" points="329,-620.97 203.5,-620.97 203.5,-588.97 329,-588.97 329,-620.97"/>
<text xml:space="preserve" text-anchor="start" x="211.5" y="-607.47" font-family="Helvetica,sans-Serif" font-size="10.00">UKPTPlayerAttributeSet</text>
<text xml:space="preserve" text-anchor="middle" x="266.25" y="-595.47" font-family="Helvetica,sans-Serif" font-size="10.00">::OnRep_CriticalDamage</text>
</a>
</g>
</g>
<!-- Node1&#45;&gt;Node14 -->
<g id="edge28_Node000001_Node000014" class="edge">
<title>Node1&#45;&gt;Node14</title>
<g id="a_edge28_Node000001_Node000014"><a xlink:title=" ">
<path fill="none" stroke="#63b8ff" d="M603.87,-384.7C595.65,-432.21 571.7,-528.53 508.5,-574.97 456.97,-612.82 381.94,-616.38 329.27,-612.98"/>
<polygon fill="#63b8ff" stroke="#63b8ff" points="607.31,-385.39 605.44,-374.96 600.4,-384.28 607.31,-385.39"/>
</a>
</g>
</g>
<!-- Node15 -->
<g id="Node000015" class="node">
<title>Node15</title>
<g id="a_Node000015"><a xlink:href="class_u_k_p_t_player_attribute_set.html#af9342b340a141c31bf2eb00e34005551" target="_top" xlink:title=" ">
<polygon fill="white" stroke="#666666" points="508.5,-394.97 386,-394.97 386,-362.97 508.5,-362.97 508.5,-394.97"/>
<text xml:space="preserve" text-anchor="start" x="394" y="-381.47" font-family="Helvetica,sans-Serif" font-size="10.00">UKPTPlayerAttributeSet</text>
<text xml:space="preserve" text-anchor="middle" x="447.25" y="-369.47" font-family="Helvetica,sans-Serif" font-size="10.00">::OnRep_Luck</text>
</a>
</g>
</g>
<!-- Node1&#45;&gt;Node15 -->
<g id="edge31_Node000001_Node000015" class="edge">
<title>Node1&#45;&gt;Node15</title>
<g id="a_edge31_Node000001_Node000015"><a xlink:title=" ">
<path fill="none" stroke="#63b8ff" d="M532.95,-367.28C524.9,-368.39 516.79,-369.51 508.93,-370.6"/>
<polygon fill="#63b8ff" stroke="#63b8ff" points="533.33,-370.76 542.75,-365.93 532.37,-363.83 533.33,-370.76"/>
</a>
</g>
</g>
<!-- Node16 -->
<g id="Node000016" class="node">
<title>Node16</title>
<g id="a_Node000016"><a xlink:href="class_u_k_p_t_player_attribute_set.html#a189fec75d51d8c3a55bdc12e5b115068" target="_top" xlink:title=" ">
<polygon fill="white" stroke="#666666" points="508.5,-444.97 386,-444.97 386,-412.97 508.5,-412.97 508.5,-444.97"/>
<text xml:space="preserve" text-anchor="start" x="394" y="-431.47" font-family="Helvetica,sans-Serif" font-size="10.00">UKPTPlayerAttributeSet</text>
<text xml:space="preserve" text-anchor="middle" x="447.25" y="-419.47" font-family="Helvetica,sans-Serif" font-size="10.00">::OnRep_MoveSpeed</text>
</a>
</g>
</g>
<!-- Node1&#45;&gt;Node16 -->
<g id="edge34_Node000001_Node000016" class="edge">
<title>Node1&#45;&gt;Node16</title>
<g id="a_edge34_Node000001_Node000016"><a xlink:title=" ">
<path fill="none" stroke="#63b8ff" d="M564.08,-378.21C546.85,-386.45 526.83,-395.83 508.5,-403.97 502.08,-406.81 495.24,-409.75 488.55,-412.56"/>
<polygon fill="#63b8ff" stroke="#63b8ff" points="565.54,-381.39 573.04,-373.91 562.51,-375.08 565.54,-381.39"/>
</a>
</g>
</g>
<!-- Node17 -->
<g id="Node000017" class="node">
<title>Node17</title>
<g id="a_Node000017"><a xlink:href="class_u_k_p_t_player_attribute_set.html#a220bfb79766fe83d99f887384f333ccf" target="_top" xlink:title=" ">
<polygon fill="white" stroke="#666666" points="344,-162.97 188.5,-162.97 188.5,-118.97 344,-118.97 344,-162.97"/>
<text xml:space="preserve" text-anchor="start" x="196.5" y="-149.47" font-family="Helvetica,sans-Serif" font-size="10.00">UKPTPlayerAttributeSet</text>
<text xml:space="preserve" text-anchor="start" x="196.5" y="-137.47" font-family="Helvetica,sans-Serif" font-size="10.00">::OnRep_PassiveSkillCooldown</text>
<text xml:space="preserve" text-anchor="middle" x="266.25" y="-125.47" font-family="Helvetica,sans-Serif" font-size="10.00">Reduction</text>
</a>
</g>
</g>
<!-- Node1&#45;&gt;Node17 -->
<g id="edge36_Node000001_Node000017" class="edge">
<title>Node1&#45;&gt;Node17</title>
<g id="a_edge36_Node000001_Node000017"><a xlink:title=" ">
<path fill="none" stroke="#63b8ff" d="M600.95,-329.55C589.36,-289.03 561.7,-213.95 508.5,-176.97 460.86,-143.85 395.12,-135.87 344.29,-135.6"/>
<polygon fill="#63b8ff" stroke="#63b8ff" points="597.52,-330.28 603.53,-339.01 604.28,-328.44 597.52,-330.28"/>
</a>
</g>
</g>
<!-- Node18 -->
<g id="Node000018" class="node">
<title>Node18</title>
<g id="a_Node000018"><a xlink:href="class_u_k_p_t_player_attribute_set.html#a298d1450621db7c177cbb86355cc3576" target="_top" xlink:title=" ">
<polygon fill="white" stroke="#666666" points="344.75,-100.97 187.75,-100.97 187.75,-68.97 344.75,-68.97 344.75,-100.97"/>
<text xml:space="preserve" text-anchor="start" x="195.75" y="-87.47" font-family="Helvetica,sans-Serif" font-size="10.00">UKPTPlayerAttributeSet</text>
<text xml:space="preserve" text-anchor="middle" x="266.25" y="-75.47" font-family="Helvetica,sans-Serif" font-size="10.00">::OnRep_ProjectileSizeMultiplier</text>
</a>
</g>
</g>
<!-- Node1&#45;&gt;Node18 -->
<g id="edge39_Node000001_Node000018" class="edge">
<title>Node1&#45;&gt;Node18</title>
<g id="a_edge39_Node000001_Node000018"><a xlink:title=" ">
<path fill="none" stroke="#63b8ff" d="M603.76,-329.47C595.31,-281.8 570.98,-184.1 508.5,-133.97 462.67,-97.19 396.47,-85.78 345.01,-83.1"/>
<polygon fill="#63b8ff" stroke="#63b8ff" points="600.28,-329.93 605.37,-339.22 607.19,-328.79 600.28,-329.93"/>
</a>
</g>
</g>
<!-- Node19 -->
<g id="Node000019" class="node">
<title>Node19</title>
<g id="a_Node000019"><a xlink:href="class_u_k_p_t_player_attribute_set.html#a8f0711e3e133eec6d79467084399122d" target="_top" xlink:title=" ">
<polygon fill="white" stroke="#666666" points="348.88,-670.97 183.62,-670.97 183.62,-638.97 348.88,-638.97 348.88,-670.97"/>
<text xml:space="preserve" text-anchor="start" x="191.62" y="-657.47" font-family="Helvetica,sans-Serif" font-size="10.00">UKPTPlayerAttributeSet</text>
<text xml:space="preserve" text-anchor="middle" x="266.25" y="-645.47" font-family="Helvetica,sans-Serif" font-size="10.00">::OnRep_ProjectileSpeedMultiplier</text>
</a>
</g>
</g>
<!-- Node1&#45;&gt;Node19 -->
<g id="edge42_Node000001_Node000019" class="edge">
<title>Node1&#45;&gt;Node19</title>
<g id="a_edge42_Node000001_Node000019"><a xlink:title=" ">
<path fill="none" stroke="#63b8ff" d="M605.32,-384.56C599.15,-436.83 578.07,-550.16 508.5,-607.97 464.44,-644.58 400.25,-655.71 349.15,-658.03"/>
<polygon fill="#63b8ff" stroke="#63b8ff" points="608.78,-385.05 606.37,-374.74 601.82,-384.31 608.78,-385.05"/>
</a>
</g>
</g>
<!-- Node7&#45;&gt;Node2 -->
<g id="edge7_Node000007_Node000002" class="edge">
<title>Node7&#45;&gt;Node2</title>
<g id="a_edge7_Node000007_Node000002"><a xlink:title=" ">
<path fill="none" stroke="#63b8ff" d="M249.04,-361.15C230.75,-391.63 201.14,-443.92 182.5,-491.97 159.57,-551.06 189.54,-583.43 146.5,-629.97 143.44,-633.28 139.91,-636.15 136.1,-638.65"/>
<polygon fill="#63b8ff" stroke="#63b8ff" points="252.02,-362.99 254.21,-352.62 246.04,-359.36 252.02,-362.99"/>
</a>
</g>
</g>
<!-- Node7&#45;&gt;Node3 -->
<g id="edge8_Node000007_Node000003" class="edge">
<title>Node7&#45;&gt;Node3</title>
<g id="a_edge8_Node000007_Node000003"><a xlink:title=" ">
<path fill="none" stroke="#63b8ff" d="M251.6,-361.21C226.17,-409.69 171.79,-511.15 146.5,-541.97 131.82,-559.85 111.78,-576.88 96.53,-588.72"/>
<polygon fill="#63b8ff" stroke="#63b8ff" points="254.62,-362.99 256.15,-352.51 248.42,-359.75 254.62,-362.99"/>
</a>
</g>
</g>
<!-- Node7&#45;&gt;Node4 -->
<g id="edge9_Node000007_Node000004" class="edge">
<title>Node7&#45;&gt;Node4</title>
<g id="a_edge9_Node000007_Node000004"><a xlink:title=" ">
<path fill="none" stroke="#63b8ff" d="M203.88,-354.88C178.36,-363.17 149.1,-372.67 124.84,-380.54"/>
<polygon fill="#63b8ff" stroke="#63b8ff" points="204.7,-358.3 213.13,-351.88 202.54,-351.64 204.7,-358.3"/>
</a>
</g>
</g>
<!-- Node7&#45;&gt;Node5 -->
<g id="edge10_Node000007_Node000005" class="edge">
<title>Node7&#45;&gt;Node5</title>
<g id="a_edge10_Node000007_Node000005"><a xlink:title=" ">
<path fill="none" stroke="#63b8ff" d="M187.3,-313.15C185.66,-312.14 184.05,-311.07 182.5,-309.97 160.21,-294.05 168.46,-276.32 146.5,-259.97 142.13,-256.72 137.31,-253.87 132.3,-251.37"/>
<polygon fill="#63b8ff" stroke="#63b8ff" points="185.32,-316.06 195.78,-317.74 188.65,-309.9 185.32,-316.06"/>
</a>
</g>
</g>
<!-- Node7&#45;&gt;Node6 -->
<g id="edge11_Node000007_Node000006" class="edge">
<title>Node7&#45;&gt;Node6</title>
<g id="a_edge11_Node000007_Node000006"><a xlink:title=" ">
<path fill="none" stroke="#63b8ff" d="M184.84,-312.07C184.04,-311.39 183.26,-310.69 182.5,-309.97 148.24,-277.45 172.27,-249.55 146.5,-209.97 132.97,-189.18 112.01,-170.08 96.15,-157.28"/>
<polygon fill="#63b8ff" stroke="#63b8ff" points="182.65,-314.8 192.82,-317.76 186.71,-309.1 182.65,-314.8"/>
</a>
</g>
</g>
<!-- Node7&#45;&gt;Node7 -->
<g id="edge12_Node000007_Node000007" class="edge">
<title>Node7&#45;&gt;Node7</title>
<g id="a_edge12_Node000007_Node000007"><a xlink:title=" ">
<path fill="none" stroke="#63b8ff" d="M296.41,-362.67C291.38,-366.45 281.33,-368.97 266.25,-368.97 238.68,-368.97 227.9,-360.55 233.94,-351.41"/>
<polygon fill="#63b8ff" stroke="#63b8ff" points="299.84,-363.37 298.28,-352.89 292.97,-362.06 299.84,-363.37"/>
</a>
</g>
</g>
<!-- Node7&#45;&gt;Node8 -->
<g id="edge13_Node000007_Node000008" class="edge">
<title>Node7&#45;&gt;Node8</title>
<g id="a_edge13_Node000007_Node000008"><a xlink:title=" ">
<path fill="none" stroke="#63b8ff" d="M240.12,-358.91C200.65,-396.52 125.16,-468.45 91.36,-500.66"/>
<polygon fill="#63b8ff" stroke="#63b8ff" points="242.04,-361.91 246.87,-352.48 237.21,-356.85 242.04,-361.91"/>
</a>
</g>
</g>
<!-- Node7&#45;&gt;Node9 -->
<g id="edge14_Node000007_Node000009" class="edge">
<title>Node7&#45;&gt;Node9</title>
<g id="a_edge14_Node000007_Node000009"><a xlink:title=" ">
<path fill="none" stroke="#63b8ff" d="M191.44,-315.64C173.49,-310.95 154.47,-305.97 137.09,-301.42"/>
<polygon fill="#63b8ff" stroke="#63b8ff" points="190.42,-318.99 200.98,-318.14 192.19,-312.22 190.42,-318.99"/>
</a>
</g>
</g>
<!-- Node7&#45;&gt;Node10 -->
<g id="edge15_Node000007_Node000010" class="edge">
<title>Node7&#45;&gt;Node10</title>
<g id="a_edge15_Node000007_Node000010"><a xlink:title=" ">
<path fill="none" stroke="#63b8ff" d="M183.94,-311.51C183.45,-311 182.97,-310.49 182.5,-309.97 123.99,-244.64 201.26,-184.46 146.5,-115.97 141.81,-110.1 135.8,-105.33 129.26,-101.44"/>
<polygon fill="#63b8ff" stroke="#63b8ff" points="181.57,-314.09 191.5,-317.79 186.05,-308.71 181.57,-314.09"/>
</a>
</g>
</g>
<!-- Node11&#45;&gt;Node4 -->
<g id="edge20_Node000011_Node000004" class="edge">
<title>Node11&#45;&gt;Node4</title>
<g id="a_edge20_Node000011_Node000004"><a xlink:title=" ">
<path fill="none" stroke="#63b8ff" d="M201.27,-496.32C194.78,-493.48 188.42,-490.36 182.5,-486.97 146.25,-466.17 110.13,-433 90.14,-413.27"/>
<polygon fill="#63b8ff" stroke="#63b8ff" points="199.52,-499.39 210.1,-499.98 202.2,-492.92 199.52,-499.39"/>
</a>
</g>
</g>
<!-- Node11&#45;&gt;Node8 -->
<g id="edge21_Node000011_Node000008" class="edge">
<title>Node11&#45;&gt;Node8</title>
<g id="a_edge21_Node000011_Node000008"><a xlink:title=" ">
<path fill="none" stroke="#63b8ff" d="M170.67,-516.97C162.62,-516.97 154.56,-516.97 146.72,-516.97"/>
<polygon fill="#63b8ff" stroke="#63b8ff" points="170.52,-520.47 180.52,-516.97 170.52,-513.47 170.52,-520.47"/>
</a>
</g>
</g>
<!-- Node12&#45;&gt;Node4 -->
<g id="edge23_Node000012_Node000004" class="edge">
<title>Node12&#45;&gt;Node4</title>
<g id="a_edge23_Node000012_Node000004"><a xlink:title=" ">
<path fill="none" stroke="#63b8ff" d="M191.36,-305.67C188.33,-307.02 185.36,-308.46 182.5,-309.97 146.24,-329.08 110.4,-361.17 90.42,-380.58"/>
<polygon fill="#63b8ff" stroke="#63b8ff" points="192.57,-308.95 200.48,-301.91 189.9,-302.48 192.57,-308.95"/>
</a>
</g>
</g>
<!-- Node12&#45;&gt;Node9 -->
<g id="edge24_Node000012_Node000009" class="edge">
<title>Node12&#45;&gt;Node9</title>
<g id="a_edge24_Node000012_Node000009"><a xlink:title=" ">
<path fill="none" stroke="#63b8ff" d="M181.58,-284.97C170.02,-284.97 158.22,-284.97 146.88,-284.97"/>
<polygon fill="#63b8ff" stroke="#63b8ff" points="181.53,-288.47 191.53,-284.97 181.53,-281.47 181.53,-288.47"/>
</a>
</g>
</g>
<!-- Node13&#45;&gt;Node4 -->
<g id="edge26_Node000013_Node000004" class="edge">
<title>Node13&#45;&gt;Node4</title>
<g id="a_edge26_Node000013_Node000004"><a xlink:title=" ">
<path fill="none" stroke="#63b8ff" d="M194.59,-252.7C190.35,-254.86 186.28,-257.27 182.5,-259.97 160.21,-275.88 163.26,-288.31 146.5,-309.97 127.04,-335.12 103.27,-363.28 88.45,-380.56"/>
<polygon fill="#63b8ff" stroke="#63b8ff" points="195.68,-256.05 203.36,-248.75 192.81,-249.67 195.68,-256.05"/>
</a>
</g>
</g>
<!-- Node13&#45;&gt;Node5 -->
<g id="edge27_Node000013_Node000005" class="edge">
<title>Node13&#45;&gt;Node5</title>
<g id="a_edge27_Node000013_Node000005"><a xlink:title=" ">
<path fill="none" stroke="#63b8ff" d="M193.15,-234.97C177.99,-234.97 162,-234.97 146.82,-234.97"/>
<polygon fill="#63b8ff" stroke="#63b8ff" points="193.04,-238.47 203.04,-234.97 193.04,-231.47 193.04,-238.47"/>
</a>
</g>
</g>
<!-- Node14&#45;&gt;Node3 -->
<g id="edge29_Node000014_Node000003" class="edge">
<title>Node14&#45;&gt;Node3</title>
<g id="a_edge29_Node000014_Node000003"><a xlink:title=" ">
<path fill="none" stroke="#63b8ff" d="M192.09,-604.97C177.28,-604.97 161.71,-604.97 146.92,-604.97"/>
<polygon fill="#63b8ff" stroke="#63b8ff" points="191.72,-608.47 201.72,-604.97 191.72,-601.47 191.72,-608.47"/>
</a>
</g>
</g>
<!-- Node14&#45;&gt;Node4 -->
<g id="edge30_Node000014_Node000004" class="edge">
<title>Node14&#45;&gt;Node4</title>
<g id="a_edge30_Node000014_Node000004"><a xlink:title=" ">
<path fill="none" stroke="#63b8ff" d="M230.48,-582.01C214.93,-570.89 196.89,-556.75 182.5,-541.97 163.4,-522.35 162.79,-513.98 146.5,-491.97 125.91,-464.15 101.44,-432.2 86.91,-413.34"/>
<polygon fill="#63b8ff" stroke="#63b8ff" points="228.35,-584.79 238.55,-587.66 232.37,-579.06 228.35,-584.79"/>
</a>
</g>
</g>
<!-- Node15&#45;&gt;Node4 -->
<g id="edge32_Node000015_Node000004" class="edge">
<title>Node15&#45;&gt;Node4</title>
<g id="a_edge32_Node000015_Node000004"><a xlink:title=" ">
<path fill="none" stroke="#63b8ff" d="M374.21,-382.45C308.74,-385.62 212.63,-390.27 146.95,-393.45"/>
<polygon fill="#63b8ff" stroke="#63b8ff" points="374.32,-385.95 384.14,-381.97 373.98,-378.96 374.32,-385.95"/>
</a>
</g>
</g>
<!-- Node15&#45;&gt;Node7 -->
<g id="edge33_Node000015_Node000007" class="edge">
<title>Node15&#45;&gt;Node7</title>
<g id="a_edge33_Node000015_Node000007"><a xlink:title=" ">
<path fill="none" stroke="#63b8ff" d="M374.62,-361.36C361.29,-358.08 347.42,-354.67 334.25,-351.43"/>
<polygon fill="#63b8ff" stroke="#63b8ff" points="373.63,-364.72 384.18,-363.71 375.3,-357.92 373.63,-364.72"/>
</a>
</g>
</g>
<!-- Node16&#45;&gt;Node4 -->
<g id="edge35_Node000016_Node000004" class="edge">
<title>Node16&#45;&gt;Node4</title>
<g id="a_edge35_Node000016_Node000004"><a xlink:title=" ">
<path fill="none" stroke="#63b8ff" d="M374.21,-422.77C308.74,-417.14 212.63,-408.87 146.95,-403.22"/>
<polygon fill="#63b8ff" stroke="#63b8ff" points="373.88,-426.25 384.15,-423.62 374.48,-419.28 373.88,-426.25"/>
</a>
</g>
</g>
<!-- Node17&#45;&gt;Node4 -->
<g id="edge37_Node000017_Node000004" class="edge">
<title>Node17&#45;&gt;Node4</title>
<g id="a_edge37_Node000017_Node000004"><a xlink:title=" ">
<path fill="none" stroke="#63b8ff" d="M221.44,-170.34C207.49,-181.42 192.97,-195.01 182.5,-209.97 155.41,-248.66 169.94,-268.96 146.5,-309.97 131.01,-337.07 106.89,-364.06 90.84,-380.63"/>
<polygon fill="#63b8ff" stroke="#63b8ff" points="223.46,-173.2 229.28,-164.35 219.21,-167.64 223.46,-173.2"/>
</a>
</g>
</g>
<!-- Node17&#45;&gt;Node6 -->
<g id="edge38_Node000017_Node000006" class="edge">
<title>Node17&#45;&gt;Node6</title>
<g id="a_edge38_Node000017_Node000006"><a xlink:title=" ">
<path fill="none" stroke="#63b8ff" d="M176.81,-140.97C166.74,-140.97 156.56,-140.97 146.73,-140.97"/>
<polygon fill="#63b8ff" stroke="#63b8ff" points="176.6,-144.47 186.6,-140.97 176.6,-137.47 176.6,-144.47"/>
</a>
</g>
</g>
<!-- Node18&#45;&gt;Node4 -->
<g id="edge40_Node000018_Node000004" class="edge">
<title>Node18&#45;&gt;Node4</title>
<g id="a_edge40_Node000018_Node000004"><a xlink:title=" ">
<path fill="none" stroke="#63b8ff" d="M183.6,-108.77C183.23,-109.16 182.86,-109.56 182.5,-109.97 122.42,-177.4 184.61,-228.08 146.5,-309.97 133.49,-337.91 109.27,-364.3 92.47,-380.53"/>
<polygon fill="#63b8ff" stroke="#63b8ff" points="185.76,-111.53 191.12,-102.39 181.23,-106.19 185.76,-111.53"/>
</a>
</g>
</g>
<!-- Node18&#45;&gt;Node10 -->
<g id="edge41_Node000018_Node000010" class="edge">
<title>Node18&#45;&gt;Node10</title>
<g id="a_edge41_Node000018_Node000010"><a xlink:title=" ">
<path fill="none" stroke="#63b8ff" d="M175.88,-84.97C166.12,-84.97 156.26,-84.97 146.73,-84.97"/>
<polygon fill="#63b8ff" stroke="#63b8ff" points="175.77,-88.47 185.77,-84.97 175.77,-81.47 175.77,-88.47"/>
</a>
</g>
</g>
<!-- Node19&#45;&gt;Node2 -->
<g id="edge43_Node000019_Node000002" class="edge">
<title>Node19&#45;&gt;Node2</title>
<g id="a_edge43_Node000019_Node000002"><a xlink:title=" ">
<path fill="none" stroke="#63b8ff" d="M171.8,-654.97C163.46,-654.97 155.09,-654.97 146.96,-654.97"/>
<polygon fill="#63b8ff" stroke="#63b8ff" points="171.63,-658.47 181.63,-654.97 171.63,-651.47 171.63,-658.47"/>
</a>
</g>
</g>
<!-- Node19&#45;&gt;Node4 -->
<g id="edge44_Node000019_Node000004" class="edge">
<title>Node19&#45;&gt;Node4</title>
<g id="a_edge44_Node000019_Node000004"><a xlink:title=" ">
<path fill="none" stroke="#63b8ff" d="M183.99,-631.46C183.49,-630.97 182.99,-630.47 182.5,-629.97 138.54,-584.3 174.22,-548.97 146.5,-491.97 131.73,-461.59 106.48,-431.38 90.08,-413.44"/>
<polygon fill="#63b8ff" stroke="#63b8ff" points="181.73,-634.13 191.75,-637.56 186.06,-628.63 181.73,-634.13"/>
</a>
</g>
</g>
</g>
</svg>
