<?xml version="1.0" encoding="UTF-8" standalone="no"?>
<!DOCTYPE svg PUBLIC "-//W3C//DTD SVG 1.1//EN"
 "http://www.w3.org/Graphics/SVG/1.1/DTD/svg11.dtd">
<!-- Generated by graphviz version 13.1.1 (20250719.2154)
 -->
<!-- Title: UKPTGameInstance::DestroySession Pages: 1 -->
<svg width="337pt" height="90pt"
 viewBox="0.00 0.00 337.00 90.00" xmlns="http://www.w3.org/2000/svg" xmlns:xlink="http://www.w3.org/1999/xlink">
<g id="graph0" class="graph" transform="scale(1 1) rotate(0) translate(4 86)">
<title>UKPTGameInstance::DestroySession</title>
<!-- Node1 -->
<g id="Node000001" class="node">
<title>Node1</title>
<g id="a_Node000001"><a xlink:title=" ">
<polygon fill="#999999" stroke="#666666" points="147.25,-57 0,-57 0,-25 147.25,-25 147.25,-57"/>
<text xml:space="preserve" text-anchor="start" x="8" y="-43.5" font-family="Helvetica,sans-Serif" font-size="10.00">UKPTGameInstance::Destroy</text>
<text xml:space="preserve" text-anchor="middle" x="73.62" y="-31.5" font-family="Helvetica,sans-Serif" font-size="10.00">Session</text>
</a>
</g>
</g>
<!-- Node2 -->
<g id="Node000002" class="node">
<title>Node2</title>
<g id="a_Node000002"><a xlink:href="class_u_session_manager_subsystem.html#a6846ba200eac4764e0929d76afe96b8a" target="_top" xlink:title=" ">
<polygon fill="white" stroke="#666666" points="329,-82 183.25,-82 183.25,-50 329,-50 329,-82"/>
<text xml:space="preserve" text-anchor="start" x="191.25" y="-68.5" font-family="Helvetica,sans-Serif" font-size="10.00">USessionManagerSubsystem</text>
<text xml:space="preserve" text-anchor="middle" x="256.12" y="-56.5" font-family="Helvetica,sans-Serif" font-size="10.00">::DestroySession</text>
</a>
</g>
</g>
<!-- Node1&#45;&gt;Node2 -->
<g id="edge1_Node000001_Node000002" class="edge">
<title>Node1&#45;&gt;Node2</title>
<g id="a_edge1_Node000001_Node000002"><a xlink:title=" ">
<path fill="none" stroke="#63b8ff" d="M147.52,-51.1C155.43,-52.19 163.53,-53.31 171.56,-54.43"/>
<polygon fill="#63b8ff" stroke="#63b8ff" points="170.95,-57.88 181.34,-55.78 171.91,-50.94 170.95,-57.88"/>
</a>
</g>
</g>
<!-- Node3 -->
<g id="Node000003" class="node">
<title>Node3</title>
<g id="a_Node000003"><a xlink:href="class_u_k_p_t_game_instance.html#a6ef8602fc18fdf7147dc6a74b5039cc8" target="_top" xlink:title=" ">
<polygon fill="white" stroke="#666666" points="326,-32 186.25,-32 186.25,0 326,0 326,-32"/>
<text xml:space="preserve" text-anchor="start" x="194.25" y="-18.5" font-family="Helvetica,sans-Serif" font-size="10.00">UKPTGameInstance::Travel</text>
<text xml:space="preserve" text-anchor="middle" x="256.12" y="-6.5" font-family="Helvetica,sans-Serif" font-size="10.00">ToMainMenu</text>
</a>
</g>
</g>
<!-- Node1&#45;&gt;Node3 -->
<g id="edge2_Node000001_Node000003" class="edge">
<title>Node1&#45;&gt;Node3</title>
<g id="a_edge2_Node000001_Node000003"><a xlink:title=" ">
<path fill="none" stroke="#63b8ff" d="M147.52,-30.9C156.4,-29.67 165.5,-28.41 174.48,-27.17"/>
<polygon fill="#63b8ff" stroke="#63b8ff" points="174.84,-30.65 184.26,-25.82 173.87,-23.72 174.84,-30.65"/>
</a>
</g>
</g>
</g>
</svg>
