<?xml version="1.0" encoding="UTF-8" standalone="no"?>
<!DOCTYPE svg PUBLIC "-//W3C//DTD SVG 1.1//EN"
 "http://www.w3.org/Graphics/SVG/1.1/DTD/svg11.dtd">
<!-- Generated by graphviz version 13.1.1 (20250719.2154)
 -->
<!-- Title: UGetLevelFunctionLibrary Pages: 1 -->
<svg width="182pt" height="184pt"
 viewBox="0.00 0.00 182.00 184.00" xmlns="http://www.w3.org/2000/svg" xmlns:xlink="http://www.w3.org/1999/xlink">
<g id="graph0" class="graph" transform="scale(1 1) rotate(0) translate(4 180)">
<title>UGetLevelFunctionLibrary</title>
<!-- Node1 -->
<g id="Node000001" class="node">
<title>Node1</title>
<g id="a_Node000001"><a xlink:title=" ">
<polygon fill="#999999" stroke="none" points="174,-88 0,-88 0,0 174,0 174,-88"/>
<text xml:space="preserve" text-anchor="start" x="30.38" y="-74.5" font-family="Helvetica,sans-Serif" font-size="10.00">UGetLevelFunctionLibrary</text>
<text xml:space="preserve" text-anchor="start" x="85.5" y="-58.5" font-family="Helvetica,sans-Serif" font-size="10.00"> </text>
<text xml:space="preserve" text-anchor="start" x="4" y="-42.5" font-family="Helvetica,sans-Serif" font-size="10.00">+</text>
<text xml:space="preserve" text-anchor="start" x="14" y="-42.5" font-family="Helvetica,sans-Serif" font-size="10.00">static TArray&lt; TSoftObject</text>
<text xml:space="preserve" text-anchor="start" x="14" y="-30.5" font-family="Helvetica,sans-Serif" font-size="10.00">Ptr&lt; UWorld &gt; &gt; GetAllLevelAssets</text>
<text xml:space="preserve" text-anchor="start" x="14" y="-18.5" font-family="Helvetica,sans-Serif" font-size="10.00">(FString LevelDirectory=&quot;/Game</text>
<text xml:space="preserve" text-anchor="start" x="14" y="-6.5" font-family="Helvetica,sans-Serif" font-size="10.00">/&quot;, bool bRecursive=true)</text>
<polygon fill="#666666" stroke="#666666" points="0,-70 0,-70 174,-70 174,-70 0,-70"/>
<polygon fill="#666666" stroke="#666666" points="0,-54 0,-54 174,-54 174,-54 0,-54"/>
<polygon fill="none" stroke="#666666" points="0,0 0,-88 174,-88 174,0 0,0"/>
</a>
</g>
</g>
<!-- Node2 -->
<g id="Node000002" class="node">
<title>Node2</title>
<g id="a_Node000002"><a xlink:title=" ">
<polygon fill="white" stroke="none" points="147.25,-176 26.75,-176 26.75,-124 147.25,-124 147.25,-176"/>
<text xml:space="preserve" text-anchor="start" x="30.75" y="-162.5" font-family="Helvetica,sans-Serif" font-size="10.00">UBlueprintFunctionLibrary</text>
<text xml:space="preserve" text-anchor="start" x="85.5" y="-146.5" font-family="Helvetica,sans-Serif" font-size="10.00"> </text>
<text xml:space="preserve" text-anchor="start" x="85.5" y="-130.5" font-family="Helvetica,sans-Serif" font-size="10.00"> </text>
<polygon fill="#666666" stroke="#666666" points="26.75,-158 26.75,-158 147.25,-158 147.25,-158 26.75,-158"/>
<polygon fill="#666666" stroke="#666666" points="26.75,-142 26.75,-142 147.25,-142 147.25,-142 26.75,-142"/>
<polygon fill="none" stroke="#666666" points="26.75,-124 26.75,-176 147.25,-176 147.25,-124 26.75,-124"/>
</a>
</g>
</g>
<!-- Node2&#45;&gt;Node1 -->
<g id="edge1_Node000001_Node000002" class="edge">
<title>Node2&#45;&gt;Node1</title>
<g id="a_edge1_Node000001_Node000002"><a xlink:title=" ">
<path fill="none" stroke="#63b8ff" d="M87,-112.84C87,-104.83 87,-96.25 87,-87.99"/>
<polygon fill="none" stroke="#63b8ff" points="83.5,-112.58 87,-122.58 90.5,-112.58 83.5,-112.58"/>
</a>
</g>
</g>
</g>
</svg>
