<?xml version="1.0" encoding="UTF-8" standalone="no"?>
<!DOCTYPE svg PUBLIC "-//W3C//DTD SVG 1.1//EN"
 "http://www.w3.org/Graphics/SVG/1.1/DTD/svg11.dtd">
<!-- Generated by graphviz version 13.1.1 (20250719.2154)
 -->
<!-- Title: UItemAbility Pages: 1 -->
<svg width="342pt" height="344pt"
 viewBox="0.00 0.00 342.00 344.00" xmlns="http://www.w3.org/2000/svg" xmlns:xlink="http://www.w3.org/1999/xlink">
<g id="graph0" class="graph" transform="scale(1 1) rotate(0) translate(4 340)">
<title>UItemAbility</title>
<!-- Node1 -->
<g id="Node000001" class="node">
<title>Node1</title>
<g id="a_Node000001"><a xlink:title=" ">
<polygon fill="#999999" stroke="none" points="333.75,-248 0,-248 0,0 333.75,0 333.75,-248"/>
<text xml:space="preserve" text-anchor="start" x="139.88" y="-234.5" font-family="Helvetica,sans-Serif" font-size="10.00">UItemAbility</text>
<text xml:space="preserve" text-anchor="start" x="4.38" y="-218.5" font-family="Helvetica,sans-Serif" font-size="10.00">#</text>
<text xml:space="preserve" text-anchor="start" x="14" y="-218.5" font-family="Helvetica,sans-Serif" font-size="10.00">int32 AbilityCount</text>
<text xml:space="preserve" text-anchor="start" x="4.38" y="-202.5" font-family="Helvetica,sans-Serif" font-size="10.00">#</text>
<text xml:space="preserve" text-anchor="start" x="14" y="-202.5" font-family="Helvetica,sans-Serif" font-size="10.00">TArray&lt; FActiveGameplayEffect</text>
<text xml:space="preserve" text-anchor="start" x="14" y="-190.5" font-family="Helvetica,sans-Serif" font-size="10.00">Handle &gt; AffectEffectHandles</text>
<text xml:space="preserve" text-anchor="start" x="4.38" y="-174.5" font-family="Helvetica,sans-Serif" font-size="10.00">#</text>
<text xml:space="preserve" text-anchor="start" x="14" y="-174.5" font-family="Helvetica,sans-Serif" font-size="10.00">TSubclassOf&lt; UGameplayEffect</text>
<text xml:space="preserve" text-anchor="start" x="14" y="-162.5" font-family="Helvetica,sans-Serif" font-size="10.00"> &gt; HpUpgrade</text>
<text xml:space="preserve" text-anchor="start" x="4" y="-146.5" font-family="Helvetica,sans-Serif" font-size="10.00">+</text>
<text xml:space="preserve" text-anchor="start" x="14" y="-146.5" font-family="Helvetica,sans-Serif" font-size="10.00">UItemAbility()</text>
<text xml:space="preserve" text-anchor="start" x="4.38" y="-130.5" font-family="Helvetica,sans-Serif" font-size="10.00">#</text>
<text xml:space="preserve" text-anchor="start" x="14" y="-130.5" font-family="Helvetica,sans-Serif" font-size="10.00">virtual void ActivateAbility</text>
<text xml:space="preserve" text-anchor="start" x="14" y="-118.5" font-family="Helvetica,sans-Serif" font-size="10.00">(const FGameplayAbilitySpecHandle</text>
<text xml:space="preserve" text-anchor="start" x="14" y="-106.5" font-family="Helvetica,sans-Serif" font-size="10.00"> Handle, const FGameplayAbilityActorInfo</text>
<text xml:space="preserve" text-anchor="start" x="14" y="-94.5" font-family="Helvetica,sans-Serif" font-size="10.00"> *ActorInfo, const FGameplayAbilityActivationInfo</text>
<text xml:space="preserve" text-anchor="start" x="14" y="-82.5" font-family="Helvetica,sans-Serif" font-size="10.00"> ActivationInfo, const FGameplayEventData *TriggerEventData) override</text>
<text xml:space="preserve" text-anchor="start" x="4.38" y="-66.5" font-family="Helvetica,sans-Serif" font-size="10.00">#</text>
<text xml:space="preserve" text-anchor="start" x="14" y="-66.5" font-family="Helvetica,sans-Serif" font-size="10.00">virtual void EndAbility</text>
<text xml:space="preserve" text-anchor="start" x="14" y="-54.5" font-family="Helvetica,sans-Serif" font-size="10.00">(const FGameplayAbilitySpecHandle</text>
<text xml:space="preserve" text-anchor="start" x="14" y="-42.5" font-family="Helvetica,sans-Serif" font-size="10.00"> Handle, const FGameplayAbilityActorInfo</text>
<text xml:space="preserve" text-anchor="start" x="14" y="-30.5" font-family="Helvetica,sans-Serif" font-size="10.00"> *ActorInfo, const FGameplayAbilityActivationInfo</text>
<text xml:space="preserve" text-anchor="start" x="14" y="-18.5" font-family="Helvetica,sans-Serif" font-size="10.00"> ActivationInfo, bool bReplicateEndAbility,</text>
<text xml:space="preserve" text-anchor="start" x="14" y="-6.5" font-family="Helvetica,sans-Serif" font-size="10.00"> bool bWasCancelled) override</text>
<polygon fill="#666666" stroke="#666666" points="0,-230 0,-230 333.75,-230 333.75,-230 0,-230"/>
<polygon fill="#666666" stroke="#666666" points="0,-158 0,-158 12,-158 12,-158 0,-158"/>
<polygon fill="#666666" stroke="#666666" points="12,-158 12,-158 333.75,-158 333.75,-158 12,-158"/>
<polygon fill="none" stroke="#666666" points="0,0 0,-248 333.75,-248 333.75,0 0,0"/>
</a>
</g>
</g>
<!-- Node2 -->
<g id="Node000002" class="node">
<title>Node2</title>
<g id="a_Node000002"><a xlink:title=" ">
<polygon fill="white" stroke="none" points="210.25,-336 123.5,-336 123.5,-284 210.25,-284 210.25,-336"/>
<text xml:space="preserve" text-anchor="start" x="127.5" y="-322.5" font-family="Helvetica,sans-Serif" font-size="10.00">UGameplayAbility</text>
<text xml:space="preserve" text-anchor="start" x="165.38" y="-306.5" font-family="Helvetica,sans-Serif" font-size="10.00"> </text>
<text xml:space="preserve" text-anchor="start" x="165.38" y="-290.5" font-family="Helvetica,sans-Serif" font-size="10.00"> </text>
<polygon fill="#666666" stroke="#666666" points="123.5,-318 123.5,-318 210.25,-318 210.25,-318 123.5,-318"/>
<polygon fill="#666666" stroke="#666666" points="123.5,-302 123.5,-302 210.25,-302 210.25,-302 123.5,-302"/>
<polygon fill="none" stroke="#666666" points="123.5,-284 123.5,-336 210.25,-336 210.25,-284 123.5,-284"/>
</a>
</g>
</g>
<!-- Node2&#45;&gt;Node1 -->
<g id="edge1_Node000001_Node000002" class="edge">
<title>Node2&#45;&gt;Node1</title>
<g id="a_edge1_Node000001_Node000002"><a xlink:title=" ">
<path fill="none" stroke="#63b8ff" d="M166.88,-272.86C166.88,-265.18 166.88,-256.67 166.88,-247.71"/>
<polygon fill="none" stroke="#63b8ff" points="163.38,-272.67 166.88,-282.67 170.38,-272.67 163.38,-272.67"/>
</a>
</g>
</g>
</g>
</svg>
