<?xml version="1.0" encoding="UTF-8" standalone="no"?>
<!DOCTYPE svg PUBLIC "-//W3C//DTD SVG 1.1//EN"
 "http://www.w3.org/Graphics/SVG/1.1/DTD/svg11.dtd">
<!-- Generated by graphviz version 13.1.1 (20250719.2154)
 -->
<!-- Title: AKPTInGameMode::PlayerIsReadyForNight Pages: 1 -->
<svg width="511pt" height="90pt"
 viewBox="0.00 0.00 511.00 90.00" xmlns="http://www.w3.org/2000/svg" xmlns:xlink="http://www.w3.org/1999/xlink">
<g id="graph0" class="graph" transform="scale(1 1) rotate(0) translate(4 86)">
<title>AKPTInGameMode::PlayerIsReadyForNight</title>
<!-- Node1 -->
<g id="Node000001" class="node">
<title>Node1</title>
<g id="a_Node000001"><a xlink:title="플레이어가 상점에서 &#39;준비 완료&#39; 버튼을 눌렀을 때 호출됩니다.">
<polygon fill="#999999" stroke="#666666" points="142.75,-57 0,-57 0,-25 142.75,-25 142.75,-57"/>
<text xml:space="preserve" text-anchor="start" x="8" y="-43.5" font-family="Helvetica,sans-Serif" font-size="10.00">AKPTInGameMode::PlayerIs</text>
<text xml:space="preserve" text-anchor="middle" x="71.38" y="-31.5" font-family="Helvetica,sans-Serif" font-size="10.00">ReadyForNight</text>
</a>
</g>
</g>
<!-- Node2 -->
<g id="Node000002" class="node">
<title>Node2</title>
<g id="a_Node000002"><a xlink:href="class_a_k_p_t_in_game_mode.html#ad904efb516b64eddf8aef8f50e3c42a1" target="_top" xlink:title="모든 플레이어가 야간 페이즈로 넘어갈 준비가 되었는지 확인합니다.">
<polygon fill="white" stroke="#666666" points="328.25,-82 181.75,-82 181.75,-50 328.25,-50 328.25,-82"/>
<text xml:space="preserve" text-anchor="start" x="189.75" y="-68.5" font-family="Helvetica,sans-Serif" font-size="10.00">AKPTInGameMode::CheckAll</text>
<text xml:space="preserve" text-anchor="middle" x="255" y="-56.5" font-family="Helvetica,sans-Serif" font-size="10.00">PlayersReadyForNight</text>
</a>
</g>
</g>
<!-- Node1&#45;&gt;Node2 -->
<g id="edge1_Node000001_Node000002" class="edge">
<title>Node1&#45;&gt;Node2</title>
<g id="a_edge1_Node000001_Node000002"><a xlink:title=" ">
<path fill="none" stroke="#63b8ff" d="M143.12,-50.74C151.94,-51.95 161.03,-53.2 170.03,-54.44"/>
<polygon fill="#63b8ff" stroke="#63b8ff" points="169.47,-57.9 179.86,-55.79 170.43,-50.96 169.47,-57.9"/>
</a>
</g>
</g>
<!-- Node4 -->
<g id="Node000004" class="node">
<title>Node4</title>
<g id="a_Node000004"><a xlink:href="class_a_k_p_t_player_state.html#ae76783471e033ac0ece5ebe988856b1b" target="_top" xlink:title="업그레이드 선택 기회를 추가합니다.">
<polygon fill="white" stroke="#666666" points="331.25,-32 178.75,-32 178.75,0 331.25,0 331.25,-32"/>
<text xml:space="preserve" text-anchor="start" x="186.75" y="-18.5" font-family="Helvetica,sans-Serif" font-size="10.00">AKPTPlayerState::SetPersonal</text>
<text xml:space="preserve" text-anchor="middle" x="255" y="-6.5" font-family="Helvetica,sans-Serif" font-size="10.00">StateTag</text>
</a>
</g>
</g>
<!-- Node1&#45;&gt;Node4 -->
<g id="edge3_Node000001_Node000004" class="edge">
<title>Node1&#45;&gt;Node4</title>
<g id="a_edge3_Node000001_Node000004"><a xlink:title=" ">
<path fill="none" stroke="#63b8ff" d="M143.12,-31.26C150.97,-30.18 159.03,-29.07 167.06,-27.97"/>
<polygon fill="#63b8ff" stroke="#63b8ff" points="167.42,-31.45 176.85,-26.62 166.46,-24.52 167.42,-31.45"/>
</a>
</g>
</g>
<!-- Node3 -->
<g id="Node000003" class="node">
<title>Node3</title>
<g id="a_Node000003"><a xlink:href="class_a_k_p_t_in_game_mode.html#a87cb6168b8662d3ba2ebc02f0695522c" target="_top" xlink:title=" ">
<polygon fill="white" stroke="#666666" points="503.25,-82 367.25,-82 367.25,-50 503.25,-50 503.25,-82"/>
<text xml:space="preserve" text-anchor="start" x="375.25" y="-68.5" font-family="Helvetica,sans-Serif" font-size="10.00">AKPTInGameMode::Initiate</text>
<text xml:space="preserve" text-anchor="middle" x="435.25" y="-56.5" font-family="Helvetica,sans-Serif" font-size="10.00">PhaseTransition</text>
</a>
</g>
</g>
<!-- Node2&#45;&gt;Node3 -->
<g id="edge2_Node000002_Node000003" class="edge">
<title>Node2&#45;&gt;Node3</title>
<g id="a_edge2_Node000002_Node000003"><a xlink:title=" ">
<path fill="none" stroke="#63b8ff" d="M328.5,-66C337.45,-66 346.62,-66 355.66,-66"/>
<polygon fill="#63b8ff" stroke="#63b8ff" points="355.47,-69.5 365.47,-66 355.47,-62.5 355.47,-69.5"/>
</a>
</g>
</g>
<!-- Node5 -->
<g id="Node000005" class="node">
<title>Node5</title>
<g id="a_Node000005"><a xlink:href="class_a_k_p_t_player_state.html#aa41c46851e05f762ccd8c2fc98aa505a" target="_top" xlink:title=" ">
<polygon fill="white" stroke="#666666" points="500.25,-32 370.25,-32 370.25,0 500.25,0 500.25,-32"/>
<text xml:space="preserve" text-anchor="start" x="378.25" y="-18.5" font-family="Helvetica,sans-Serif" font-size="10.00">AKPTPlayerState::OnRep</text>
<text xml:space="preserve" text-anchor="middle" x="435.25" y="-6.5" font-family="Helvetica,sans-Serif" font-size="10.00">_PersonalStateTag</text>
</a>
</g>
</g>
<!-- Node4&#45;&gt;Node5 -->
<g id="edge4_Node000004_Node000005" class="edge">
<title>Node4&#45;&gt;Node5</title>
<g id="a_edge4_Node000004_Node000005"><a xlink:title=" ">
<path fill="none" stroke="#63b8ff" d="M331.59,-16C340.43,-16 349.46,-16 358.3,-16"/>
<polygon fill="#63b8ff" stroke="#63b8ff" points="358.29,-19.5 368.29,-16 358.29,-12.5 358.29,-19.5"/>
</a>
</g>
</g>
</g>
</svg>
