<?xml version="1.0" encoding="UTF-8" standalone="no"?>
<!DOCTYPE svg PUBLIC "-//W3C//DTD SVG 1.1//EN"
 "http://www.w3.org/Graphics/SVG/1.1/DTD/svg11.dtd">
<!-- Generated by graphviz version 13.1.1 (20250719.2154)
 -->
<!-- Title: UButtonBase Pages: 1 -->
<!--zoomable 708 -->

<svg id="main" version="1.1" xmlns="http://www.w3.org/2000/svg" xmlns:xlink="http://www.w3.org/1999/xlink" xml:space="preserve" onload="init(evt)">

<style type="text/css"><![CDATA[
.node, .edge {opacity: 0.7;}
.node.selected, .edge.selected {opacity: 1;}
.edge:hover path { stroke: red; }
.edge:hover polygon { stroke: red; fill: red; }
]]></style>

<defs>
  <circle id="rim" cx="0" cy="0" r="7"/>
  <circle id="rim2" cx="0" cy="0" r="3.5"/>
  <g id="zoomPlus">
    <use xlink:href="#rim" fill="#404040"><set attributeName="fill" to="#808080" begin="zoomplus.mouseover" end="zoomplus.mouseout"/></use>
    <path d="M-4,0h8M0,-4v8" fill="none" stroke="white" stroke-width="1.5" pointer-events="none"/>
  </g>
  <g id="zoomMin">
    <use xlink:href="#rim" fill="#404040"><set attributeName="fill" to="#808080" begin="zoomminus.mouseover" end="zoomminus.mouseout"/></use>
    <path d="M-4,0h8" fill="none" stroke="white" stroke-width="1.5" pointer-events="none"/>
  </g>
  <g id="arrowUp" transform="translate(30 24)">
    <use xlink:href="#rim"/>
    <path pointer-events="none" fill="none" stroke="white" stroke-width="1.5" d="M0,-3.0v7 M-2.5,-0.5L0,-3.0L2.5,-0.5"/>
  </g>
  <g id="arrowRight" transform="rotate(90) translate(36 -43)">
    <use xlink:href="#rim"/>
    <path pointer-events="none" fill="none" stroke="white" stroke-width="1.5" d="M0,-3.0v7 M-2.5,-0.5L0,-3.0L2.5,-0.5"/>
  </g>
  <g id="arrowDown" transform="rotate(180) translate(-30 -48)">
    <use xlink:href="#rim"/>
    <path pointer-events="none" fill="none" stroke="white" stroke-width="1.5" d="M0,-3.0v7 M-2.5,-0.5L0,-3.0L2.5,-0.5"/>
  </g>
  <g id="arrowLeft" transform="rotate(270) translate(-36 17)">
    <use xlink:href="#rim"/>
    <path pointer-events="none" fill="none" stroke="white" stroke-width="1.5" d="M0,-3.0v7 M-2.5,-0.5L0,-3.0L2.5,-0.5"/>
  </g>
  <g id="resetDef">
    <use xlink:href="#rim2" fill="#404040"><set attributeName="fill" to="#808080" begin="reset.mouseover" end="reset.mouseout"/></use>
  </g>
</defs>
<script type="application/ecmascript">
var viewWidth = 171;
var viewHeight = 708;
var sectionId = 'dynsection-0';
</script>
<script type="application/ecmascript" xlink:href="svg.min.js"/>
<svg id="graph" class="graph">
<g id="viewport">
<title>UButtonBase</title>
<!-- Node1 -->
<g id="Node000001" class="node">
<title>Node1</title>
<g id="a_Node000001"><a xlink:title=" ">
<polygon fill="#999999" stroke="none" points="158.62,-400 4.12,-400 4.12,0 158.62,0 158.62,-400"/>
<text xml:space="preserve" text-anchor="start" x="52.12" y="-386.5" font-family="Helvetica,sans-Serif" font-size="10.00">UButtonBase</text>
<text xml:space="preserve" text-anchor="start" x="8.12" y="-370.5" font-family="Helvetica,sans-Serif" font-size="10.00">+</text>
<text xml:space="preserve" text-anchor="start" x="18.12" y="-370.5" font-family="Helvetica,sans-Serif" font-size="10.00">FOnButtonClickedDelegate</text>
<text xml:space="preserve" text-anchor="start" x="18.12" y="-358.5" font-family="Helvetica,sans-Serif" font-size="10.00"> OnClicked</text>
<text xml:space="preserve" text-anchor="start" x="8.12" y="-342.5" font-family="Helvetica,sans-Serif" font-size="10.00">+</text>
<text xml:space="preserve" text-anchor="start" x="18.12" y="-342.5" font-family="Helvetica,sans-Serif" font-size="10.00">FOnButtonHoveredDelegate</text>
<text xml:space="preserve" text-anchor="start" x="18.12" y="-330.5" font-family="Helvetica,sans-Serif" font-size="10.00"> OnHovered</text>
<text xml:space="preserve" text-anchor="start" x="8.12" y="-314.5" font-family="Helvetica,sans-Serif" font-size="10.00">+</text>
<text xml:space="preserve" text-anchor="start" x="18.12" y="-314.5" font-family="Helvetica,sans-Serif" font-size="10.00">FOnButtonPressedDelegate</text>
<text xml:space="preserve" text-anchor="start" x="18.12" y="-302.5" font-family="Helvetica,sans-Serif" font-size="10.00"> OnPressed</text>
<text xml:space="preserve" text-anchor="start" x="8.12" y="-286.5" font-family="Helvetica,sans-Serif" font-size="10.00">+</text>
<text xml:space="preserve" text-anchor="start" x="18.12" y="-286.5" font-family="Helvetica,sans-Serif" font-size="10.00">FOnButtonReleasedDelegate</text>
<text xml:space="preserve" text-anchor="start" x="18.12" y="-274.5" font-family="Helvetica,sans-Serif" font-size="10.00"> OnReleased</text>
<text xml:space="preserve" text-anchor="start" x="8.12" y="-258.5" font-family="Helvetica,sans-Serif" font-size="10.00">+</text>
<text xml:space="preserve" text-anchor="start" x="18.12" y="-258.5" font-family="Helvetica,sans-Serif" font-size="10.00">FOnButtonUnhoveredDelegate</text>
<text xml:space="preserve" text-anchor="start" x="18.12" y="-246.5" font-family="Helvetica,sans-Serif" font-size="10.00"> OnUnhovered</text>
<text xml:space="preserve" text-anchor="start" x="8.5" y="-230.5" font-family="Helvetica,sans-Serif" font-size="10.00">#</text>
<text xml:space="preserve" text-anchor="start" x="18.12" y="-230.5" font-family="Helvetica,sans-Serif" font-size="10.00">FSlateBrush HoveredBrush</text>
<text xml:space="preserve" text-anchor="start" x="8.5" y="-214.5" font-family="Helvetica,sans-Serif" font-size="10.00">#</text>
<text xml:space="preserve" text-anchor="start" x="18.12" y="-214.5" font-family="Helvetica,sans-Serif" font-size="10.00">UButton * MainButton</text>
<text xml:space="preserve" text-anchor="start" x="8.5" y="-198.5" font-family="Helvetica,sans-Serif" font-size="10.00">#</text>
<text xml:space="preserve" text-anchor="start" x="18.12" y="-198.5" font-family="Helvetica,sans-Serif" font-size="10.00">UImage * MainImage</text>
<text xml:space="preserve" text-anchor="start" x="8.5" y="-182.5" font-family="Helvetica,sans-Serif" font-size="10.00">#</text>
<text xml:space="preserve" text-anchor="start" x="18.12" y="-182.5" font-family="Helvetica,sans-Serif" font-size="10.00">UTextBlock * MainText</text>
<text xml:space="preserve" text-anchor="start" x="8.5" y="-166.5" font-family="Helvetica,sans-Serif" font-size="10.00">#</text>
<text xml:space="preserve" text-anchor="start" x="18.12" y="-166.5" font-family="Helvetica,sans-Serif" font-size="10.00">FSlateBrush NormalBrush</text>
<text xml:space="preserve" text-anchor="start" x="8.5" y="-150.5" font-family="Helvetica,sans-Serif" font-size="10.00">#</text>
<text xml:space="preserve" text-anchor="start" x="18.12" y="-150.5" font-family="Helvetica,sans-Serif" font-size="10.00">FSlateBrush PressedBrush</text>
<text xml:space="preserve" text-anchor="start" x="8.5" y="-134.5" font-family="Helvetica,sans-Serif" font-size="10.00">#</text>
<text xml:space="preserve" text-anchor="start" x="18.12" y="-134.5" font-family="Helvetica,sans-Serif" font-size="10.00">FMargin PressedPadding</text>
<text xml:space="preserve" text-anchor="start" x="8.12" y="-118.5" font-family="Helvetica,sans-Serif" font-size="10.00">+</text>
<text xml:space="preserve" text-anchor="start" x="18.12" y="-118.5" font-family="Helvetica,sans-Serif" font-size="10.00">FText GetMainText()</text>
<text xml:space="preserve" text-anchor="start" x="8.12" y="-102.5" font-family="Helvetica,sans-Serif" font-size="10.00">+</text>
<text xml:space="preserve" text-anchor="start" x="18.12" y="-102.5" font-family="Helvetica,sans-Serif" font-size="10.00">void SetMainText(FText</text>
<text xml:space="preserve" text-anchor="start" x="18.12" y="-90.5" font-family="Helvetica,sans-Serif" font-size="10.00"> Text)</text>
<text xml:space="preserve" text-anchor="start" x="8.5" y="-74.5" font-family="Helvetica,sans-Serif" font-size="10.00">#</text>
<text xml:space="preserve" text-anchor="start" x="18.12" y="-74.5" font-family="Helvetica,sans-Serif" font-size="10.00">virtual void NativeConstruct</text>
<text xml:space="preserve" text-anchor="start" x="18.12" y="-62.5" font-family="Helvetica,sans-Serif" font-size="10.00">() override</text>
<text xml:space="preserve" text-anchor="start" x="8.5" y="-46.5" font-family="Helvetica,sans-Serif" font-size="10.00">#</text>
<text xml:space="preserve" text-anchor="start" x="18.12" y="-46.5" font-family="Helvetica,sans-Serif" font-size="10.00">virtual void NativeDestruct</text>
<text xml:space="preserve" text-anchor="start" x="18.12" y="-34.5" font-family="Helvetica,sans-Serif" font-size="10.00">() override</text>
<text xml:space="preserve" text-anchor="start" x="8.5" y="-18.5" font-family="Helvetica,sans-Serif" font-size="10.00">#</text>
<text xml:space="preserve" text-anchor="start" x="18.12" y="-18.5" font-family="Helvetica,sans-Serif" font-size="10.00">virtual void NativePreConstruct</text>
<text xml:space="preserve" text-anchor="start" x="18.12" y="-6.5" font-family="Helvetica,sans-Serif" font-size="10.00">() override</text>
<polygon fill="#666666" stroke="#666666" points="4.12,-382 4.12,-382 158.62,-382 158.62,-382 4.12,-382"/>
<polygon fill="#666666" stroke="#666666" points="4.12,-130 4.12,-130 16.12,-130 16.12,-130 4.12,-130"/>
<polygon fill="#666666" stroke="#666666" points="16.12,-130 16.12,-130 158.62,-130 158.62,-130 16.12,-130"/>
<polygon fill="none" stroke="#666666" points="4.12,0 4.12,-400 158.62,-400 158.62,0 4.12,0"/>
</a>
</g>
</g>
<!-- Node2 -->
<g id="Node000002" class="node">
<title>Node2</title>
<g id="a_Node000002"><a xlink:href="class_u_u_i_base.html" target="_top" xlink:title=" ">
<polygon fill="white" stroke="none" points="162.75,-612 0,-612 0,-436 162.75,-436 162.75,-612"/>
<text xml:space="preserve" text-anchor="start" x="61.12" y="-598.5" font-family="Helvetica,sans-Serif" font-size="10.00">UUIBase</text>
<text xml:space="preserve" text-anchor="start" x="4.38" y="-582.5" font-family="Helvetica,sans-Serif" font-size="10.00">#</text>
<text xml:space="preserve" text-anchor="start" x="14" y="-582.5" font-family="Helvetica,sans-Serif" font-size="10.00">FWidgetAnimationDynamicEvent</text>
<text xml:space="preserve" text-anchor="start" x="14" y="-570.5" font-family="Helvetica,sans-Serif" font-size="10.00"> AnimationFinishEvent</text>
<text xml:space="preserve" text-anchor="start" x="4" y="-554.5" font-family="Helvetica,sans-Serif" font-size="10.00">+</text>
<text xml:space="preserve" text-anchor="start" x="14" y="-554.5" font-family="Helvetica,sans-Serif" font-size="10.00">UUIManagerSubsystem</text>
<text xml:space="preserve" text-anchor="start" x="14" y="-542.5" font-family="Helvetica,sans-Serif" font-size="10.00"> * GetUIManagerSubsystem()</text>
<text xml:space="preserve" text-anchor="start" x="4" y="-526.5" font-family="Helvetica,sans-Serif" font-size="10.00">+</text>
<text xml:space="preserve" text-anchor="start" x="14" y="-526.5" font-family="Helvetica,sans-Serif" font-size="10.00">virtual void LateInit()</text>
<text xml:space="preserve" text-anchor="start" x="4.38" y="-510.5" font-family="Helvetica,sans-Serif" font-size="10.00">#</text>
<text xml:space="preserve" text-anchor="start" x="14" y="-510.5" font-family="Helvetica,sans-Serif" font-size="10.00">virtual void NativeConstruct</text>
<text xml:space="preserve" text-anchor="start" x="14" y="-498.5" font-family="Helvetica,sans-Serif" font-size="10.00">() override</text>
<text xml:space="preserve" text-anchor="start" x="4.38" y="-482.5" font-family="Helvetica,sans-Serif" font-size="10.00">#</text>
<text xml:space="preserve" text-anchor="start" x="14" y="-482.5" font-family="Helvetica,sans-Serif" font-size="10.00">virtual void NativeDestruct</text>
<text xml:space="preserve" text-anchor="start" x="14" y="-470.5" font-family="Helvetica,sans-Serif" font-size="10.00">() override</text>
<text xml:space="preserve" text-anchor="start" x="4.38" y="-454.5" font-family="Helvetica,sans-Serif" font-size="10.00">#</text>
<text xml:space="preserve" text-anchor="start" x="14" y="-454.5" font-family="Helvetica,sans-Serif" font-size="10.00">virtual void NativePreConstruct</text>
<text xml:space="preserve" text-anchor="start" x="14" y="-442.5" font-family="Helvetica,sans-Serif" font-size="10.00">() override</text>
<polygon fill="#666666" stroke="#666666" points="0,-594 0,-594 162.75,-594 162.75,-594 0,-594"/>
<polygon fill="#666666" stroke="#666666" points="0,-566 0,-566 12,-566 12,-566 0,-566"/>
<polygon fill="#666666" stroke="#666666" points="12,-566 12,-566 162.75,-566 162.75,-566 12,-566"/>
<polygon fill="none" stroke="#666666" points="0,-436 0,-612 162.75,-612 162.75,-436 0,-436"/>
</a>
</g>
</g>
<!-- Node2&#45;&gt;Node1 -->
<g id="edge1_Node000001_Node000002" class="edge">
<title>Node2&#45;&gt;Node1</title>
<g id="a_edge1_Node000001_Node000002"><a xlink:title=" ">
<path fill="none" stroke="#63b8ff" d="M81.38,-424.91C81.38,-416.73 81.38,-408.29 81.38,-399.7"/>
<polygon fill="none" stroke="#63b8ff" points="77.88,-424.77 81.38,-434.77 84.88,-424.77 77.88,-424.77"/>
</a>
</g>
</g>
<!-- Node3 -->
<g id="Node000003" class="node">
<title>Node3</title>
<g id="a_Node000003"><a xlink:title=" ">
<polygon fill="white" stroke="none" points="115,-700 47.75,-700 47.75,-648 115,-648 115,-700"/>
<text xml:space="preserve" text-anchor="start" x="51.75" y="-686.5" font-family="Helvetica,sans-Serif" font-size="10.00">UUserWidget</text>
<text xml:space="preserve" text-anchor="start" x="79.88" y="-670.5" font-family="Helvetica,sans-Serif" font-size="10.00"> </text>
<text xml:space="preserve" text-anchor="start" x="79.88" y="-654.5" font-family="Helvetica,sans-Serif" font-size="10.00"> </text>
<polygon fill="#666666" stroke="#666666" points="47.75,-682 47.75,-682 115,-682 115,-682 47.75,-682"/>
<polygon fill="#666666" stroke="#666666" points="47.75,-666 47.75,-666 115,-666 115,-666 47.75,-666"/>
<polygon fill="none" stroke="#666666" points="47.75,-648 47.75,-700 115,-700 115,-648 47.75,-648"/>
</a>
</g>
</g>
<!-- Node3&#45;&gt;Node2 -->
<g id="edge2_Node000002_Node000003" class="edge">
<title>Node3&#45;&gt;Node2</title>
<g id="a_edge2_Node000002_Node000003"><a xlink:title=" ">
<path fill="none" stroke="#63b8ff" d="M81.38,-636.77C81.38,-629.04 81.38,-620.56 81.38,-611.83"/>
<polygon fill="none" stroke="#63b8ff" points="77.88,-636.71 81.38,-646.71 84.88,-636.71 77.88,-636.71"/>
</a>
</g>
</g>
</g>
</svg>

<g id="navigator" transform="translate(0 0)" fill="#404254">
  <rect fill="#f2f5e9" fill-opacity="0.5" stroke="#606060" stroke-width=".5" x="0" y="0" width="60" height="60"/>
  <use id="zoomplus" xlink:href="#zoomPlus" x="17" y="9" onmousedown="handleZoom(evt,'in')"/>
  <use id="zoomminus" xlink:href="#zoomMin" x="42" y="9" onmousedown="handleZoom(evt,'out')"/>
  <use id="reset" xlink:href="#resetDef" x="30" y="36" onmousedown="handleReset()"/>
   <use id="arrowup" xlink:href="#arrowUp" x="0" y="0" onmousedown="handlePan(0,-1)"/>
  <use id="arrowright" xlink:href="#arrowRight" x="0" y="0" onmousedown="handlePan(1,0)"/>
  <use id="arrowdown" xlink:href="#arrowDown" x="0" y="0" onmousedown="handlePan(0,1)"/>
  <use id="arrowleft" xlink:href="#arrowLeft" x="0" y="0" onmousedown="handlePan(-1,0)"/>
</g>
<svg viewBox="0 0 15 15" width="100%" height="30px" preserveAspectRatio="xMaxYMin meet">
 <g id="arrow_out" transform="scale(0.3 0.3)">
  <a xlink:href="class_u_button_base__inherit__graph_org.svg" target="_base">
   <rect id="button" ry="5" rx="5" y="6" x="6" height="38" width="38"
        fill="#f2f5e9" fill-opacity="0.5" stroke="#606060" stroke-width="1.0"/>
   <path id="arrow"
     d="M 11.500037,31.436501 C 11.940474,20.09759 22.043105,11.32322 32.158766,21.979434 L 37.068811,17.246167 C 37.068811,17.246167 37.088388,32 37.088388,32 L 22.160133,31.978069 C 22.160133,31.978069 26.997745,27.140456 26.997745,27.140456 C 18.528582,18.264221 13.291696,25.230495 11.500037,31.436501 z"
     style="fill:#404040;"/>
  </a>
 </g>
</svg>

<style type='text/css'>
<![CDATA[
[data-mouse-over-selected='false'] { opacity: 0.7; }
[data-mouse-over-selected='true']  { opacity: 1.0; }
]]>
</style>
<script type="application/ecmascript"><![CDATA[
document.addEventListener('DOMContentLoaded', (event) => {
  highlightEdges();
  highlightAdjacentNodes();
});
]]></script>
</svg>
