<?xml version="1.0" encoding="UTF-8" standalone="no"?>
<!DOCTYPE svg PUBLIC "-//W3C//DTD SVG 1.1//EN"
 "http://www.w3.org/Graphics/SVG/1.1/DTD/svg11.dtd">
<!-- Generated by graphviz version 13.1.1 (20250719.2154)
 -->
<!-- Title: UBaseSpawnActorAbility Pages: 1 -->
<svg width="342pt" height="336pt"
 viewBox="0.00 0.00 342.00 336.00" xmlns="http://www.w3.org/2000/svg" xmlns:xlink="http://www.w3.org/1999/xlink">
<g id="graph0" class="graph" transform="scale(1 1) rotate(0) translate(4 332)">
<title>UBaseSpawnActorAbility</title>
<!-- Node1 -->
<g id="Node000001" class="node">
<title>Node1</title>
<g id="a_Node000001"><a xlink:title=" ">
<polygon fill="#999999" stroke="none" points="333.75,-240 0,-240 0,0 333.75,0 333.75,-240"/>
<text xml:space="preserve" text-anchor="start" x="111.75" y="-226.5" font-family="Helvetica,sans-Serif" font-size="10.00">UBaseSpawnActorAbility</text>
<text xml:space="preserve" text-anchor="start" x="4.38" y="-210.5" font-family="Helvetica,sans-Serif" font-size="10.00">#</text>
<text xml:space="preserve" text-anchor="start" x="14" y="-210.5" font-family="Helvetica,sans-Serif" font-size="10.00">TObjectPtr&lt; UAnimMontage</text>
<text xml:space="preserve" text-anchor="start" x="14" y="-198.5" font-family="Helvetica,sans-Serif" font-size="10.00"> &gt; Montage</text>
<text xml:space="preserve" text-anchor="start" x="4.38" y="-182.5" font-family="Helvetica,sans-Serif" font-size="10.00">#</text>
<text xml:space="preserve" text-anchor="start" x="14" y="-182.5" font-family="Helvetica,sans-Serif" font-size="10.00">TSubclassOf&lt; UGameplayEffect</text>
<text xml:space="preserve" text-anchor="start" x="14" y="-170.5" font-family="Helvetica,sans-Serif" font-size="10.00"> &gt; PayloadEffectClass</text>
<text xml:space="preserve" text-anchor="start" x="4.38" y="-154.5" font-family="Helvetica,sans-Serif" font-size="10.00">#</text>
<text xml:space="preserve" text-anchor="start" x="14" y="-154.5" font-family="Helvetica,sans-Serif" font-size="10.00">TSubclassOf&lt; AActor</text>
<text xml:space="preserve" text-anchor="start" x="14" y="-142.5" font-family="Helvetica,sans-Serif" font-size="10.00"> &gt; SpawnActorClass</text>
<text xml:space="preserve" text-anchor="start" x="4" y="-126.5" font-family="Helvetica,sans-Serif" font-size="10.00">+</text>
<text xml:space="preserve" text-anchor="start" x="14" y="-126.5" font-family="Helvetica,sans-Serif" font-size="10.00">virtual void ActivateAbility</text>
<text xml:space="preserve" text-anchor="start" x="14" y="-114.5" font-family="Helvetica,sans-Serif" font-size="10.00">(const FGameplayAbilitySpecHandle</text>
<text xml:space="preserve" text-anchor="start" x="14" y="-102.5" font-family="Helvetica,sans-Serif" font-size="10.00"> Handle, const FGameplayAbilityActorInfo</text>
<text xml:space="preserve" text-anchor="start" x="14" y="-90.5" font-family="Helvetica,sans-Serif" font-size="10.00"> *ActorInfo, const FGameplayAbilityActivationInfo</text>
<text xml:space="preserve" text-anchor="start" x="14" y="-78.5" font-family="Helvetica,sans-Serif" font-size="10.00"> ActivationInfo, const FGameplayEventData *TriggerEventData) override</text>
<text xml:space="preserve" text-anchor="start" x="4" y="-62.5" font-family="Helvetica,sans-Serif" font-size="10.00">+</text>
<text xml:space="preserve" text-anchor="start" x="14" y="-62.5" font-family="Helvetica,sans-Serif" font-size="10.00">void SetTarget(AActor</text>
<text xml:space="preserve" text-anchor="start" x="14" y="-50.5" font-family="Helvetica,sans-Serif" font-size="10.00"> *Target)</text>
<text xml:space="preserve" text-anchor="start" x="4.38" y="-34.5" font-family="Helvetica,sans-Serif" font-size="10.00">#</text>
<text xml:space="preserve" text-anchor="start" x="14" y="-34.5" font-family="Helvetica,sans-Serif" font-size="10.00">void OnAbilityEnd()</text>
<text xml:space="preserve" text-anchor="start" x="4.38" y="-18.5" font-family="Helvetica,sans-Serif" font-size="10.00">#</text>
<text xml:space="preserve" text-anchor="start" x="14" y="-18.5" font-family="Helvetica,sans-Serif" font-size="10.00">virtual void SpawnAbility</text>
<text xml:space="preserve" text-anchor="start" x="14" y="-6.5" font-family="Helvetica,sans-Serif" font-size="10.00">Actor()</text>
<polygon fill="#666666" stroke="#666666" points="0,-222 0,-222 333.75,-222 333.75,-222 0,-222"/>
<polygon fill="#666666" stroke="#666666" points="0,-138 0,-138 12,-138 12,-138 0,-138"/>
<polygon fill="#666666" stroke="#666666" points="12,-138 12,-138 333.75,-138 333.75,-138 12,-138"/>
<polygon fill="none" stroke="#666666" points="0,0 0,-240 333.75,-240 333.75,0 0,0"/>
</a>
</g>
</g>
<!-- Node2 -->
<g id="Node000002" class="node">
<title>Node2</title>
<g id="a_Node000002"><a xlink:title=" ">
<polygon fill="white" stroke="none" points="210.25,-328 123.5,-328 123.5,-276 210.25,-276 210.25,-328"/>
<text xml:space="preserve" text-anchor="start" x="127.5" y="-314.5" font-family="Helvetica,sans-Serif" font-size="10.00">UGameplayAbility</text>
<text xml:space="preserve" text-anchor="start" x="165.38" y="-298.5" font-family="Helvetica,sans-Serif" font-size="10.00"> </text>
<text xml:space="preserve" text-anchor="start" x="165.38" y="-282.5" font-family="Helvetica,sans-Serif" font-size="10.00"> </text>
<polygon fill="#666666" stroke="#666666" points="123.5,-310 123.5,-310 210.25,-310 210.25,-310 123.5,-310"/>
<polygon fill="#666666" stroke="#666666" points="123.5,-294 123.5,-294 210.25,-294 210.25,-294 123.5,-294"/>
<polygon fill="none" stroke="#666666" points="123.5,-276 123.5,-328 210.25,-328 210.25,-276 123.5,-276"/>
</a>
</g>
</g>
<!-- Node2&#45;&gt;Node1 -->
<g id="edge1_Node000001_Node000002" class="edge">
<title>Node2&#45;&gt;Node1</title>
<g id="a_edge1_Node000001_Node000002"><a xlink:title=" ">
<path fill="none" stroke="#63b8ff" d="M166.88,-265.02C166.88,-257.34 166.88,-248.82 166.88,-239.88"/>
<polygon fill="none" stroke="#63b8ff" points="163.38,-264.84 166.88,-274.84 170.38,-264.84 163.38,-264.84"/>
</a>
</g>
</g>
</g>
</svg>
