<?xml version="1.0" encoding="UTF-8" standalone="no"?>
<!DOCTYPE svg PUBLIC "-//W3C//DTD SVG 1.1//EN"
 "http://www.w3.org/Graphics/SVG/1.1/DTD/svg11.dtd">
<!-- Generated by graphviz version 13.1.1 (20250719.2154)
 -->
<!-- Title: UMovementStrategyBase::DeactivateStrategy Pages: 1 -->
<svg width="466pt" height="58pt"
 viewBox="0.00 0.00 466.00 58.00" xmlns="http://www.w3.org/2000/svg" xmlns:xlink="http://www.w3.org/1999/xlink">
<g id="graph0" class="graph" transform="scale(1 1) rotate(0) translate(4 54)">
<title>UMovementStrategyBase::DeactivateStrategy</title>
<!-- Node1 -->
<g id="Node000001" class="node">
<title>Node1</title>
<g id="a_Node000001"><a xlink:title=" ">
<polygon fill="#999999" stroke="#666666" points="457.5,-32 329,-32 329,0 457.5,0 457.5,-32"/>
<text xml:space="preserve" text-anchor="start" x="337" y="-18.5" font-family="Helvetica,sans-Serif" font-size="10.00">UMovementStrategyBase</text>
<text xml:space="preserve" text-anchor="middle" x="393.25" y="-6.5" font-family="Helvetica,sans-Serif" font-size="10.00">::DeactivateStrategy</text>
</a>
</g>
</g>
<!-- Node2 -->
<g id="Node000002" class="node">
<title>Node2</title>
<g id="a_Node000002"><a xlink:href="class_u_movement_strategy_base.html#a88923c77a6e6525d701400f4f63f2824" target="_top" xlink:title=" ">
<polygon fill="white" stroke="#666666" points="293,-32 164.5,-32 164.5,0 293,0 293,-32"/>
<text xml:space="preserve" text-anchor="start" x="172.5" y="-18.5" font-family="Helvetica,sans-Serif" font-size="10.00">UMovementStrategyBase</text>
<text xml:space="preserve" text-anchor="middle" x="228.75" y="-6.5" font-family="Helvetica,sans-Serif" font-size="10.00">::Multicast_Activate</text>
</a>
</g>
</g>
<!-- Node1&#45;&gt;Node2 -->
<g id="edge1_Node000001_Node000002" class="edge">
<title>Node1&#45;&gt;Node2</title>
<g id="a_edge1_Node000001_Node000002"><a xlink:title=" ">
<path fill="none" stroke="#63b8ff" d="M317.61,-16C309.52,-16 301.35,-16 293.4,-16"/>
<polygon fill="#63b8ff" stroke="#63b8ff" points="317.44,-19.5 327.44,-16 317.44,-12.5 317.44,-19.5"/>
</a>
</g>
</g>
<!-- Node2&#45;&gt;Node2 -->
<g id="edge3_Node000002_Node000002" class="edge">
<title>Node2&#45;&gt;Node2</title>
<g id="a_edge3_Node000002_Node000002"><a xlink:title=" ">
<path fill="none" stroke="#63b8ff" d="M256.16,-43.71C251.59,-47.48 242.45,-50 228.75,-50 203.69,-50 193.9,-41.58 199.38,-32.44"/>
<polygon fill="#63b8ff" stroke="#63b8ff" points="259.6,-44.39 257.86,-33.93 252.7,-43.19 259.6,-44.39"/>
</a>
</g>
</g>
<!-- Node3 -->
<g id="Node000003" class="node">
<title>Node3</title>
<g id="a_Node000003"><a xlink:href="class_u_movement_strategy_base.html#a844b563548ea9fde79cb6213cec561bf" target="_top" xlink:title=" ">
<polygon fill="white" stroke="#666666" points="128.5,-32 0,-32 0,0 128.5,0 128.5,-32"/>
<text xml:space="preserve" text-anchor="start" x="8" y="-18.5" font-family="Helvetica,sans-Serif" font-size="10.00">UMovementStrategyBase</text>
<text xml:space="preserve" text-anchor="middle" x="64.25" y="-6.5" font-family="Helvetica,sans-Serif" font-size="10.00">::ActivateStrategy</text>
</a>
</g>
</g>
<!-- Node2&#45;&gt;Node3 -->
<g id="edge2_Node000002_Node000003" class="edge">
<title>Node2&#45;&gt;Node3</title>
<g id="a_edge2_Node000002_Node000003"><a xlink:title=" ">
<path fill="none" stroke="#63b8ff" d="M153.11,-16C145.02,-16 136.85,-16 128.9,-16"/>
<polygon fill="#63b8ff" stroke="#63b8ff" points="152.94,-19.5 162.94,-16 152.94,-12.5 152.94,-19.5"/>
</a>
</g>
</g>
</g>
</svg>
