<?xml version="1.0" encoding="UTF-8" standalone="no"?>
<!DOCTYPE svg PUBLIC "-//W3C//DTD SVG 1.1//EN"
 "http://www.w3.org/Graphics/SVG/1.1/DTD/svg11.dtd">
<!-- Generated by graphviz version 13.1.1 (20250719.2154)
 -->
<!-- Title: UKPTCheatManager::AddSkill Pages: 1 -->
<!--zoomable 140 -->

<svg id="main" version="1.1" xmlns="http://www.w3.org/2000/svg" xmlns:xlink="http://www.w3.org/1999/xlink" xml:space="preserve" onload="init(evt)">

<style type="text/css"><![CDATA[
.node, .edge {opacity: 0.7;}
.node.selected, .edge.selected {opacity: 1;}
.edge:hover path { stroke: red; }
.edge:hover polygon { stroke: red; fill: red; }
]]></style>

<defs>
  <circle id="rim" cx="0" cy="0" r="7"/>
  <circle id="rim2" cx="0" cy="0" r="3.5"/>
  <g id="zoomPlus">
    <use xlink:href="#rim" fill="#404040"><set attributeName="fill" to="#808080" begin="zoomplus.mouseover" end="zoomplus.mouseout"/></use>
    <path d="M-4,0h8M0,-4v8" fill="none" stroke="white" stroke-width="1.5" pointer-events="none"/>
  </g>
  <g id="zoomMin">
    <use xlink:href="#rim" fill="#404040"><set attributeName="fill" to="#808080" begin="zoomminus.mouseover" end="zoomminus.mouseout"/></use>
    <path d="M-4,0h8" fill="none" stroke="white" stroke-width="1.5" pointer-events="none"/>
  </g>
  <g id="arrowUp" transform="translate(30 24)">
    <use xlink:href="#rim"/>
    <path pointer-events="none" fill="none" stroke="white" stroke-width="1.5" d="M0,-3.0v7 M-2.5,-0.5L0,-3.0L2.5,-0.5"/>
  </g>
  <g id="arrowRight" transform="rotate(90) translate(36 -43)">
    <use xlink:href="#rim"/>
    <path pointer-events="none" fill="none" stroke="white" stroke-width="1.5" d="M0,-3.0v7 M-2.5,-0.5L0,-3.0L2.5,-0.5"/>
  </g>
  <g id="arrowDown" transform="rotate(180) translate(-30 -48)">
    <use xlink:href="#rim"/>
    <path pointer-events="none" fill="none" stroke="white" stroke-width="1.5" d="M0,-3.0v7 M-2.5,-0.5L0,-3.0L2.5,-0.5"/>
  </g>
  <g id="arrowLeft" transform="rotate(270) translate(-36 17)">
    <use xlink:href="#rim"/>
    <path pointer-events="none" fill="none" stroke="white" stroke-width="1.5" d="M0,-3.0v7 M-2.5,-0.5L0,-3.0L2.5,-0.5"/>
  </g>
  <g id="resetDef">
    <use xlink:href="#rim2" fill="#404040"><set attributeName="fill" to="#808080" begin="reset.mouseover" end="reset.mouseout"/></use>
  </g>
</defs>
<script type="application/ecmascript">
var viewWidth = 655;
var viewHeight = 140;
var sectionId = 'dynsection-5';
</script>
<script type="application/ecmascript" xlink:href="svg.min.js"/>
<svg id="graph" class="graph">
<g id="viewport">
<title>UKPTCheatManager::AddSkill</title>
<!-- Node1 -->
<g id="Node000001" class="node">
<title>Node1</title>
<g id="a_Node000001"><a xlink:title=" ">
<polygon fill="#999999" stroke="#666666" points="148.75,-76 0,-76 0,-56 148.75,-56 148.75,-76"/>
<text xml:space="preserve" text-anchor="middle" x="74.38" y="-62.5" font-family="Helvetica,sans-Serif" font-size="10.00">UKPTCheatManager::AddSkill</text>
</a>
</g>
</g>
<!-- Node2 -->
<g id="Node000002" class="node">
<title>Node2</title>
<g id="a_Node000002"><a xlink:href="class_u_skill_manager_component.html#ade57574476c2faa9d7356406cdd70b40" target="_top" xlink:title=" ">
<polygon fill="white" stroke="#666666" points="314.75,-82 184.75,-82 184.75,-50 314.75,-50 314.75,-82"/>
<text xml:space="preserve" text-anchor="start" x="192.75" y="-68.5" font-family="Helvetica,sans-Serif" font-size="10.00">USkillManagerComponent</text>
<text xml:space="preserve" text-anchor="middle" x="249.75" y="-56.5" font-family="Helvetica,sans-Serif" font-size="10.00">::AddSkill</text>
</a>
</g>
</g>
<!-- Node1&#45;&gt;Node2 -->
<g id="edge1_Node000001_Node000002" class="edge">
<title>Node1&#45;&gt;Node2</title>
<g id="a_edge1_Node000001_Node000002"><a xlink:title=" ">
<path fill="none" stroke="#63b8ff" d="M149.15,-66C157.02,-66 165.03,-66 172.91,-66"/>
<polygon fill="#63b8ff" stroke="#63b8ff" points="172.84,-69.5 182.84,-66 172.84,-62.5 172.84,-69.5"/>
</a>
</g>
</g>
<!-- Node3 -->
<g id="Node000003" class="node">
<title>Node3</title>
<g id="a_Node000003"><a xlink:href="class_u_skill_manager_component.html#abd079bd1871419539a26030ab82b5cf4" target="_top" xlink:title=" ">
<polygon fill="white" stroke="#666666" points="480.75,-132 350.75,-132 350.75,-100 480.75,-100 480.75,-132"/>
<text xml:space="preserve" text-anchor="start" x="358.75" y="-118.5" font-family="Helvetica,sans-Serif" font-size="10.00">USkillManagerComponent</text>
<text xml:space="preserve" text-anchor="middle" x="415.75" y="-106.5" font-family="Helvetica,sans-Serif" font-size="10.00">::BroadcastSkillChanged</text>
</a>
</g>
</g>
<!-- Node2&#45;&gt;Node3 -->
<g id="edge2_Node000002_Node000003" class="edge">
<title>Node2&#45;&gt;Node3</title>
<g id="a_edge2_Node000002_Node000003"><a xlink:title=" ">
<path fill="none" stroke="#63b8ff" d="M304.45,-82.37C318.96,-86.8 334.81,-91.63 349.86,-96.22"/>
<polygon fill="#63b8ff" stroke="#63b8ff" points="348.62,-99.5 359.2,-99.06 350.66,-92.8 348.62,-99.5"/>
</a>
</g>
</g>
<!-- Node5 -->
<g id="Node000005" class="node">
<title>Node5</title>
<g id="a_Node000005"><a xlink:href="class_u_skill_manager_component.html#a9f545589b45bf8e8dcb86d6a76e46e7d" target="_top" xlink:title=" ">
<polygon fill="white" stroke="#666666" points="480.75,-82 350.75,-82 350.75,-50 480.75,-50 480.75,-82"/>
<text xml:space="preserve" text-anchor="start" x="358.75" y="-68.5" font-family="Helvetica,sans-Serif" font-size="10.00">USkillManagerComponent</text>
<text xml:space="preserve" text-anchor="middle" x="415.75" y="-56.5" font-family="Helvetica,sans-Serif" font-size="10.00">::InitializeGivenAbility</text>
</a>
</g>
</g>
<!-- Node2&#45;&gt;Node5 -->
<g id="edge4_Node000002_Node000005" class="edge">
<title>Node2&#45;&gt;Node5</title>
<g id="a_edge4_Node000002_Node000005"><a xlink:title=" ">
<path fill="none" stroke="#63b8ff" d="M315.1,-66C322.96,-66 331.06,-66 339.08,-66"/>
<polygon fill="#63b8ff" stroke="#63b8ff" points="338.81,-69.5 348.81,-66 338.81,-62.5 338.81,-69.5"/>
</a>
</g>
</g>
<!-- Node8 -->
<g id="Node000008" class="node">
<title>Node8</title>
<g id="a_Node000008"><a xlink:href="class_u_skill_manager_component.html#a3b41166a0321b681e053fea536b461ee" target="_top" xlink:title=" ">
<polygon fill="white" stroke="#666666" points="480.75,-32 350.75,-32 350.75,0 480.75,0 480.75,-32"/>
<text xml:space="preserve" text-anchor="start" x="358.75" y="-18.5" font-family="Helvetica,sans-Serif" font-size="10.00">USkillManagerComponent</text>
<text xml:space="preserve" text-anchor="middle" x="415.75" y="-6.5" font-family="Helvetica,sans-Serif" font-size="10.00">::OnStunTagChanged</text>
</a>
</g>
</g>
<!-- Node2&#45;&gt;Node8 -->
<g id="edge7_Node000002_Node000008" class="edge">
<title>Node2&#45;&gt;Node8</title>
<g id="a_edge7_Node000002_Node000008"><a xlink:title=" ">
<path fill="none" stroke="#63b8ff" d="M304.45,-49.63C318.96,-45.2 334.81,-40.37 349.86,-35.78"/>
<polygon fill="#63b8ff" stroke="#63b8ff" points="350.66,-39.2 359.2,-32.94 348.62,-32.5 350.66,-39.2"/>
</a>
</g>
</g>
<!-- Node4 -->
<g id="Node000004" class="node">
<title>Node4</title>
<g id="a_Node000004"><a xlink:href="class_u_skill_manager_component.html#a300da93de3b72a22e7eb816885db5f88" target="_top" xlink:title=" ">
<polygon fill="white" stroke="#666666" points="646.75,-132 516.75,-132 516.75,-100 646.75,-100 646.75,-132"/>
<text xml:space="preserve" text-anchor="start" x="524.75" y="-118.5" font-family="Helvetica,sans-Serif" font-size="10.00">USkillManagerComponent</text>
<text xml:space="preserve" text-anchor="middle" x="581.75" y="-106.5" font-family="Helvetica,sans-Serif" font-size="10.00">::GetOwnedSkillIDs</text>
</a>
</g>
</g>
<!-- Node3&#45;&gt;Node4 -->
<g id="edge3_Node000003_Node000004" class="edge">
<title>Node3&#45;&gt;Node4</title>
<g id="a_edge3_Node000003_Node000004"><a xlink:title=" ">
<path fill="none" stroke="#63b8ff" d="M481.1,-116C488.96,-116 497.06,-116 505.08,-116"/>
<polygon fill="#63b8ff" stroke="#63b8ff" points="504.81,-119.5 514.81,-116 504.81,-112.5 504.81,-119.5"/>
</a>
</g>
</g>
<!-- Node6 -->
<g id="Node000006" class="node">
<title>Node6</title>
<g id="a_Node000006"><a xlink:href="class_u_base_skill_ability.html#a8e1e476e767f4c1567a3ea52725b9fdd" target="_top" xlink:title=" ">
<polygon fill="white" stroke="#666666" points="635.12,-82 528.38,-82 528.38,-50 635.12,-50 635.12,-82"/>
<text xml:space="preserve" text-anchor="start" x="536.38" y="-68.5" font-family="Helvetica,sans-Serif" font-size="10.00">UBaseSkillAbility::</text>
<text xml:space="preserve" text-anchor="middle" x="581.75" y="-56.5" font-family="Helvetica,sans-Serif" font-size="10.00">CalculateFinalStatus</text>
</a>
</g>
</g>
<!-- Node5&#45;&gt;Node6 -->
<g id="edge5_Node000005_Node000006" class="edge">
<title>Node5&#45;&gt;Node6</title>
<g id="a_edge5_Node000005_Node000006"><a xlink:title=" ">
<path fill="none" stroke="#63b8ff" d="M481.1,-66C492.74,-66 504.88,-66 516.52,-66"/>
<polygon fill="#63b8ff" stroke="#63b8ff" points="516.44,-69.5 526.44,-66 516.44,-62.5 516.44,-69.5"/>
</a>
</g>
</g>
<!-- Node7 -->
<g id="Node000007" class="node">
<title>Node7</title>
<g id="a_Node000007"><a xlink:href="class_u_base_skill_ability.html#ac270dffb5b74e423d2892af6f5e510f8" target="_top" xlink:title=" ">
<polygon fill="white" stroke="#666666" points="632.88,-32 530.62,-32 530.62,0 632.88,0 632.88,-32"/>
<text xml:space="preserve" text-anchor="start" x="538.62" y="-18.5" font-family="Helvetica,sans-Serif" font-size="10.00">UBaseSkillAbility::</text>
<text xml:space="preserve" text-anchor="middle" x="581.75" y="-6.5" font-family="Helvetica,sans-Serif" font-size="10.00">InitializeAbilityTable</text>
</a>
</g>
</g>
<!-- Node5&#45;&gt;Node7 -->
<g id="edge6_Node000005_Node000007" class="edge">
<title>Node5&#45;&gt;Node7</title>
<g id="a_edge6_Node000005_Node000007"><a xlink:title=" ">
<path fill="none" stroke="#63b8ff" d="M470.45,-49.63C486.09,-44.86 503.29,-39.62 519.36,-34.72"/>
<polygon fill="#63b8ff" stroke="#63b8ff" points="520.28,-38.1 528.82,-31.83 518.24,-31.4 520.28,-38.1"/>
</a>
</g>
</g>
</g>
</svg>

<g id="navigator" transform="translate(0 0)" fill="#404254">
  <rect fill="#f2f5e9" fill-opacity="0.5" stroke="#606060" stroke-width=".5" x="0" y="0" width="60" height="60"/>
  <use id="zoomplus" xlink:href="#zoomPlus" x="17" y="9" onmousedown="handleZoom(evt,'in')"/>
  <use id="zoomminus" xlink:href="#zoomMin" x="42" y="9" onmousedown="handleZoom(evt,'out')"/>
  <use id="reset" xlink:href="#resetDef" x="30" y="36" onmousedown="handleReset()"/>
   <use id="arrowup" xlink:href="#arrowUp" x="0" y="0" onmousedown="handlePan(0,-1)"/>
  <use id="arrowright" xlink:href="#arrowRight" x="0" y="0" onmousedown="handlePan(1,0)"/>
  <use id="arrowdown" xlink:href="#arrowDown" x="0" y="0" onmousedown="handlePan(0,1)"/>
  <use id="arrowleft" xlink:href="#arrowLeft" x="0" y="0" onmousedown="handlePan(-1,0)"/>
</g>
<svg viewBox="0 0 15 15" width="100%" height="30px" preserveAspectRatio="xMaxYMin meet">
 <g id="arrow_out" transform="scale(0.3 0.3)">
  <a xlink:href="class_u_k_p_t_cheat_manager_a87e7d4915411e1a1e0d5fa87372114a9_cgraph_org.svg" target="_base">
   <rect id="button" ry="5" rx="5" y="6" x="6" height="38" width="38"
        fill="#f2f5e9" fill-opacity="0.5" stroke="#606060" stroke-width="1.0"/>
   <path id="arrow"
     d="M 11.500037,31.436501 C 11.940474,20.09759 22.043105,11.32322 32.158766,21.979434 L 37.068811,17.246167 C 37.068811,17.246167 37.088388,32 37.088388,32 L 22.160133,31.978069 C 22.160133,31.978069 26.997745,27.140456 26.997745,27.140456 C 18.528582,18.264221 13.291696,25.230495 11.500037,31.436501 z"
     style="fill:#404040;"/>
  </a>
 </g>
</svg>

<style type='text/css'>
<![CDATA[
[data-mouse-over-selected='false'] { opacity: 0.7; }
[data-mouse-over-selected='true']  { opacity: 1.0; }
]]>
</style>
<script type="application/ecmascript"><![CDATA[
document.addEventListener('DOMContentLoaded', (event) => {
  highlightEdges();
  highlightAdjacentNodes();
});
]]></script>
</svg>
