<?xml version="1.0" encoding="UTF-8" standalone="no"?>
<!DOCTYPE svg PUBLIC "-//W3C//DTD SVG 1.1//EN"
 "http://www.w3.org/Graphics/SVG/1.1/DTD/svg11.dtd">
<!-- Generated by graphviz version 13.1.1 (20250719.2154)
 -->
<!-- Title: UKPTLobbyStateComponent::BroadcastSelectedCharacterIDChange Pages: 1 -->
<svg width="520pt" height="52pt"
 viewBox="0.00 0.00 520.00 52.00" xmlns="http://www.w3.org/2000/svg" xmlns:xlink="http://www.w3.org/1999/xlink">
<g id="graph0" class="graph" transform="scale(1 1) rotate(0) translate(4 48)">
<title>UKPTLobbyStateComponent::BroadcastSelectedCharacterIDChange</title>
<!-- Node1 -->
<g id="Node000001" class="node">
<title>Node1</title>
<g id="a_Node000001"><a xlink:title=" ">
<polygon fill="#999999" stroke="#666666" points="511.5,-44 364.25,-44 364.25,0 511.5,0 511.5,-44"/>
<text xml:space="preserve" text-anchor="start" x="372.25" y="-30.5" font-family="Helvetica,sans-Serif" font-size="10.00">UKPTLobbyStateComponent</text>
<text xml:space="preserve" text-anchor="start" x="372.25" y="-18.5" font-family="Helvetica,sans-Serif" font-size="10.00">::BroadcastSelectedCharacter</text>
<text xml:space="preserve" text-anchor="middle" x="437.88" y="-6.5" font-family="Helvetica,sans-Serif" font-size="10.00">IDChange</text>
</a>
</g>
</g>
<!-- Node2 -->
<g id="Node000002" class="node">
<title>Node2</title>
<g id="a_Node000002"><a xlink:href="class_u_k_p_t_lobby_state_component.html#ac81bf6f532fa9503447699b77694ee5f" target="_top" xlink:title=" ">
<polygon fill="white" stroke="#666666" points="328.25,-38 178.75,-38 178.75,-6 328.25,-6 328.25,-38"/>
<text xml:space="preserve" text-anchor="start" x="186.75" y="-24.5" font-family="Helvetica,sans-Serif" font-size="10.00">UKPTLobbyStateComponent</text>
<text xml:space="preserve" text-anchor="middle" x="253.5" y="-12.5" font-family="Helvetica,sans-Serif" font-size="10.00">::OnRep_SelectedCharacterID</text>
</a>
</g>
</g>
<!-- Node1&#45;&gt;Node2 -->
<g id="edge1_Node000001_Node000002" class="edge">
<title>Node1&#45;&gt;Node2</title>
<g id="a_edge1_Node000001_Node000002"><a xlink:title=" ">
<path fill="none" stroke="#63b8ff" d="M352.75,-22C344.74,-22 336.65,-22 328.74,-22"/>
<polygon fill="#63b8ff" stroke="#63b8ff" points="352.5,-25.5 362.5,-22 352.5,-18.5 352.5,-25.5"/>
</a>
</g>
</g>
<!-- Node3 -->
<g id="Node000003" class="node">
<title>Node3</title>
<g id="a_Node000003"><a xlink:href="class_u_k_p_t_lobby_state_component.html#ace741de15feaf7eecba3c429be3995ad" target="_top" xlink:title=" ">
<polygon fill="white" stroke="#666666" points="142.75,-38 0,-38 0,-6 142.75,-6 142.75,-38"/>
<text xml:space="preserve" text-anchor="start" x="8" y="-24.5" font-family="Helvetica,sans-Serif" font-size="10.00">UKPTLobbyStateComponent</text>
<text xml:space="preserve" text-anchor="middle" x="71.38" y="-12.5" font-family="Helvetica,sans-Serif" font-size="10.00">::SetSelectedCharacter</text>
</a>
</g>
</g>
<!-- Node2&#45;&gt;Node3 -->
<g id="edge2_Node000002_Node000003" class="edge">
<title>Node2&#45;&gt;Node3</title>
<g id="a_edge2_Node000002_Node000003"><a xlink:title=" ">
<path fill="none" stroke="#63b8ff" d="M167.18,-22C159.16,-22 151.09,-22 143.23,-22"/>
<polygon fill="#63b8ff" stroke="#63b8ff" points="166.94,-25.5 176.94,-22 166.94,-18.5 166.94,-25.5"/>
</a>
</g>
</g>
</g>
</svg>
