<?xml version="1.0" encoding="UTF-8" standalone="no"?>
<!DOCTYPE svg PUBLIC "-//W3C//DTD SVG 1.1//EN"
 "http://www.w3.org/Graphics/SVG/1.1/DTD/svg11.dtd">
<!-- Generated by graphviz version 13.1.1 (20250719.2154)
 -->
<!-- Title: AKPTInGameMode::AreAllPlayersDead Pages: 1 -->
<svg width="1566pt" height="827pt"
 viewBox="0.00 0.00 1566.00 827.00" xmlns="http://www.w3.org/2000/svg" xmlns:xlink="http://www.w3.org/1999/xlink">
<g id="graph0" class="graph" transform="scale(1 1) rotate(0) translate(4 822.94)">
<title>AKPTInGameMode::AreAllPlayersDead</title>
<!-- Node1 -->
<g id="Node000001" class="node">
<title>Node1</title>
<g id="a_Node000001"><a xlink:title="모든 플레이어가 사망했는지 확인합니다.">
<polygon fill="#999999" stroke="#666666" points="189.25,-231.03 0,-231.03 0,-211.03 189.25,-211.03 189.25,-231.03"/>
<text xml:space="preserve" text-anchor="middle" x="94.62" y="-217.53" font-family="Helvetica,sans-Serif" font-size="10.00">AKPTInGameMode::AreAllPlayersDead</text>
</a>
</g>
</g>
<!-- Node1&#45;&gt;Node1 -->
<g id="edge1_Node000001_Node000001" class="edge">
<title>Node1&#45;&gt;Node1</title>
<g id="a_edge1_Node000001_Node000001"><a xlink:title=" ">
<path fill="none" stroke="#63b8ff" d="M61.16,-231.37C46.86,-240 58.01,-249.03 94.62,-249.03 115.79,-249.03 128.45,-246.01 132.6,-241.8"/>
<polygon fill="#63b8ff" stroke="#63b8ff" points="135.87,-240.55 128.69,-232.76 129.45,-243.32 135.87,-240.55"/>
</a>
</g>
</g>
<!-- Node2 -->
<g id="Node000002" class="node">
<title>Node2</title>
<g id="a_Node000002"><a xlink:href="class_a_k_p_t_in_game_mode.html#aa1438e6b6ee34fd792e397dedd825ff0" target="_top" xlink:title=" ">
<polygon fill="white" stroke="#666666" points="779.5,-796.03 613.5,-796.03 613.5,-764.03 779.5,-764.03 779.5,-796.03"/>
<text xml:space="preserve" text-anchor="start" x="621.5" y="-782.53" font-family="Helvetica,sans-Serif" font-size="10.00">AKPTInGameMode::AreAllPlayers</text>
<text xml:space="preserve" text-anchor="middle" x="696.5" y="-770.53" font-family="Helvetica,sans-Serif" font-size="10.00">Dead_Implementation</text>
</a>
</g>
</g>
<!-- Node1&#45;&gt;Node2 -->
<g id="edge2_Node000001_Node000002" class="edge">
<title>Node1&#45;&gt;Node2</title>
<g id="a_edge2_Node000001_Node000002"><a xlink:title=" ">
<path fill="none" stroke="#63b8ff" d="M96.53,-231.36C102.69,-299.1 140.79,-679.31 225.25,-750.03 337.7,-844.18 523.27,-821.18 624.41,-798.93"/>
<polygon fill="#63b8ff" stroke="#63b8ff" points="624.96,-802.39 633.94,-796.77 623.41,-795.57 624.96,-802.39"/>
</a>
</g>
</g>
<!-- Node4 -->
<g id="Node000004" class="node">
<title>Node4</title>
<g id="a_Node000004"><a xlink:href="class_a_k_p_t_in_game_mode.html#a410acd626df9144d7ebb63b535dbc37b" target="_top" xlink:title=" ">
<polygon fill="white" stroke="#666666" points="379.62,-300.03 230.88,-300.03 230.88,-268.03 379.62,-268.03 379.62,-300.03"/>
<text xml:space="preserve" text-anchor="start" x="238.88" y="-286.53" font-family="Helvetica,sans-Serif" font-size="10.00">AKPTInGameMode::Complete</text>
<text xml:space="preserve" text-anchor="middle" x="305.25" y="-274.53" font-family="Helvetica,sans-Serif" font-size="10.00">PhaseTransition</text>
</a>
</g>
</g>
<!-- Node1&#45;&gt;Node4 -->
<g id="edge4_Node000001_Node000004" class="edge">
<title>Node1&#45;&gt;Node4</title>
<g id="a_edge4_Node000001_Node000004"><a xlink:title=" ">
<path fill="none" stroke="#63b8ff" d="M130.08,-231.43C159.55,-240.33 202.79,-253.39 238.81,-264.27"/>
<polygon fill="#63b8ff" stroke="#63b8ff" points="237.7,-267.59 248.29,-267.13 239.73,-260.89 237.7,-267.59"/>
</a>
</g>
</g>
<!-- Node6 -->
<g id="Node000006" class="node">
<title>Node6</title>
<g id="a_Node000006"><a xlink:href="class_a_k_p_t_in_game_mode.html#a23300b5648c661902a39ec934b2de357" target="_top" xlink:title=" ">
<polygon fill="white" stroke="#666666" points="1170,-708.03 1004,-708.03 1004,-676.03 1170,-676.03 1170,-708.03"/>
<text xml:space="preserve" text-anchor="start" x="1012" y="-694.53" font-family="Helvetica,sans-Serif" font-size="10.00">AKPTInGameMode::SetAllPlayers</text>
<text xml:space="preserve" text-anchor="middle" x="1087" y="-682.53" font-family="Helvetica,sans-Serif" font-size="10.00">SkillEnabled</text>
</a>
</g>
</g>
<!-- Node1&#45;&gt;Node6 -->
<g id="edge51_Node000001_Node000006" class="edge">
<title>Node1&#45;&gt;Node6</title>
<g id="a_edge51_Node000001_Node000006"><a xlink:title=" ">
<path fill="none" stroke="#63b8ff" d="M99.41,-231.38C123.71,-295.91 264.29,-640.03 498.38,-640.03 498.38,-640.03 498.38,-640.03 697.5,-640.03 801.28,-640.03 919.28,-658.48 997.73,-673.4"/>
<polygon fill="#63b8ff" stroke="#63b8ff" points="997.04,-676.83 1007.52,-675.29 998.37,-669.96 997.04,-676.83"/>
</a>
</g>
</g>
<!-- Node7 -->
<g id="Node000007" class="node">
<title>Node7</title>
<g id="a_Node000007"><a xlink:href="class_a_k_p_t_in_game_mode.html#a4d83e6405b91bdefb43aeac062b7b099" target="_top" xlink:title=" ">
<polygon fill="white" stroke="#666666" points="1368.25,-730.03 1218.75,-730.03 1218.75,-698.03 1368.25,-698.03 1368.25,-730.03"/>
<text xml:space="preserve" text-anchor="start" x="1226.75" y="-716.53" font-family="Helvetica,sans-Serif" font-size="10.00">AKPTInGameMode::SetPlayer</text>
<text xml:space="preserve" text-anchor="middle" x="1293.5" y="-704.53" font-family="Helvetica,sans-Serif" font-size="10.00">SkillEnabled</text>
</a>
</g>
</g>
<!-- Node1&#45;&gt;Node7 -->
<g id="edge52_Node000001_Node000007" class="edge">
<title>Node1&#45;&gt;Node7</title>
<g id="a_edge52_Node000001_Node000007"><a xlink:title=" ">
<path fill="none" stroke="#63b8ff" d="M97.31,-231.41C104.85,-275.09 138.96,-446.69 225.25,-554.03 316.64,-667.72 352.5,-736.03 498.38,-736.03 498.38,-736.03 498.38,-736.03 890.12,-736.03 999.71,-736.03 1125.83,-727.79 1207.22,-721.4"/>
<polygon fill="#63b8ff" stroke="#63b8ff" points="1207.21,-724.91 1216.9,-720.63 1206.65,-717.93 1207.21,-724.91"/>
</a>
</g>
</g>
<!-- Node16 -->
<g id="Node000016" class="node">
<title>Node16</title>
<g id="a_Node000016"><a xlink:href="class_a_k_p_t_in_game_mode.html#a87cb6168b8662d3ba2ebc02f0695522c" target="_top" xlink:title=" ">
<polygon fill="white" stroke="#666666" points="1155,-43.03 1019,-43.03 1019,-11.03 1155,-11.03 1155,-43.03"/>
<text xml:space="preserve" text-anchor="start" x="1027" y="-29.53" font-family="Helvetica,sans-Serif" font-size="10.00">AKPTInGameMode::Initiate</text>
<text xml:space="preserve" text-anchor="middle" x="1087" y="-17.53" font-family="Helvetica,sans-Serif" font-size="10.00">PhaseTransition</text>
</a>
</g>
</g>
<!-- Node1&#45;&gt;Node16 -->
<g id="edge50_Node000001_Node000016" class="edge">
<title>Node1&#45;&gt;Node16</title>
<g id="a_edge50_Node000001_Node000016"><a xlink:title=" ">
<path fill="none" stroke="#63b8ff" d="M99,-210.9C110.49,-178.19 151.55,-75.06 225.25,-33.03 330.95,27.25 376.69,-14.03 498.38,-14.03 498.38,-14.03 498.38,-14.03 697.5,-14.03 804.92,-14.03 928.95,-19.05 1007.41,-22.86"/>
<polygon fill="#63b8ff" stroke="#63b8ff" points="1006.97,-26.34 1017.13,-23.33 1007.32,-19.35 1006.97,-26.34"/>
</a>
</g>
</g>
<!-- Node35 -->
<g id="Node000035" class="node">
<title>Node35</title>
<g id="a_Node000035"><a xlink:href="class_a_k_p_t_in_game_mode.html#aa8b93d6bdef1ef7d2ddd4d2018bc94cb" target="_top" xlink:title=" ">
<polygon fill="white" stroke="#666666" points="570,-256.03 428.75,-256.03 428.75,-224.03 570,-224.03 570,-256.03"/>
<text xml:space="preserve" text-anchor="start" x="436.75" y="-242.53" font-family="Helvetica,sans-Serif" font-size="10.00">AKPTInGameMode::Teleport</text>
<text xml:space="preserve" text-anchor="middle" x="499.38" y="-230.53" font-family="Helvetica,sans-Serif" font-size="10.00">PlayerToStart</text>
</a>
</g>
</g>
<!-- Node1&#45;&gt;Node35 -->
<g id="edge53_Node000001_Node000035" class="edge">
<title>Node1&#45;&gt;Node35</title>
<g id="a_edge53_Node000001_Node000035"><a xlink:title=" ">
<path fill="none" stroke="#63b8ff" d="M189.54,-225.46C258.54,-228.71 351.33,-233.09 417.14,-236.2"/>
<polygon fill="#63b8ff" stroke="#63b8ff" points="416.62,-239.67 426.77,-236.65 416.95,-232.68 416.62,-239.67"/>
</a>
</g>
</g>
<!-- Node36 -->
<g id="Node000036" class="node">
<title>Node36</title>
<g id="a_Node000036"><a xlink:href="class_a_k_p_t_in_game_mode.html#a334c0aa77939b7960e58785eff22e00e" target="_top" xlink:title=" ">
<polygon fill="white" stroke="#666666" points="385.25,-174.03 225.25,-174.03 225.25,-142.03 385.25,-142.03 385.25,-174.03"/>
<text xml:space="preserve" text-anchor="start" x="233.25" y="-160.53" font-family="Helvetica,sans-Serif" font-size="10.00">AKPTInGameMode::HandleBoss</text>
<text xml:space="preserve" text-anchor="middle" x="305.25" y="-148.53" font-family="Helvetica,sans-Serif" font-size="10.00">Defeated</text>
</a>
</g>
</g>
<!-- Node1&#45;&gt;Node36 -->
<g id="edge47_Node000001_Node000036" class="edge">
<title>Node1&#45;&gt;Node36</title>
<g id="a_edge47_Node000001_Node000036"><a xlink:title=" ">
<path fill="none" stroke="#63b8ff" d="M130.08,-210.62C159.55,-201.72 202.79,-188.67 238.81,-177.79"/>
<polygon fill="#63b8ff" stroke="#63b8ff" points="239.73,-181.17 248.29,-174.93 237.7,-174.47 239.73,-181.17"/>
</a>
</g>
</g>
<!-- Node37 -->
<g id="Node000037" class="node">
<title>Node37</title>
<g id="a_Node000037"><a xlink:href="class_a_k_p_t_in_game_mode.html#a0368a48967da2d4e05b79760d325efd2" target="_top" xlink:title=" ">
<polygon fill="white" stroke="#666666" points="385.25,-124.03 225.25,-124.03 225.25,-92.03 385.25,-92.03 385.25,-124.03"/>
<text xml:space="preserve" text-anchor="start" x="233.25" y="-110.53" font-family="Helvetica,sans-Serif" font-size="10.00">AKPTInGameMode::HandleBoss</text>
<text xml:space="preserve" text-anchor="middle" x="305.25" y="-98.53" font-family="Helvetica,sans-Serif" font-size="10.00">HPChanged</text>
</a>
</g>
</g>
<!-- Node1&#45;&gt;Node37 -->
<g id="edge48_Node000001_Node000037" class="edge">
<title>Node1&#45;&gt;Node37</title>
<g id="a_edge48_Node000001_Node000037"><a xlink:title=" ">
<path fill="none" stroke="#63b8ff" d="M108.11,-210.71C130.38,-192.73 178.99,-155.46 225.25,-133.03 228.49,-131.46 231.84,-129.96 235.27,-128.53"/>
<polygon fill="#63b8ff" stroke="#63b8ff" points="236.24,-131.9 244.28,-125 233.69,-125.39 236.24,-131.9"/>
</a>
</g>
</g>
<!-- Node38 -->
<g id="Node000038" class="node">
<title>Node38</title>
<g id="a_Node000038"><a xlink:href="class_a_k_p_t_in_game_mode.html#a97f3e2361fae3fa048ea5c3c5f5c41b8" target="_top" xlink:title=" ">
<polygon fill="white" stroke="#666666" points="385.25,-74.03 225.25,-74.03 225.25,-42.03 385.25,-42.03 385.25,-74.03"/>
<text xml:space="preserve" text-anchor="start" x="233.25" y="-60.53" font-family="Helvetica,sans-Serif" font-size="10.00">AKPTInGameMode::HandleBoss</text>
<text xml:space="preserve" text-anchor="middle" x="305.25" y="-48.53" font-family="Helvetica,sans-Serif" font-size="10.00">Spawned</text>
</a>
</g>
</g>
<!-- Node1&#45;&gt;Node38 -->
<g id="edge49_Node000001_Node000038" class="edge">
<title>Node1&#45;&gt;Node38</title>
<g id="a_edge49_Node000001_Node000038"><a xlink:title=" ">
<path fill="none" stroke="#63b8ff" d="M102.47,-210.68C119.88,-185.17 168.49,-118.74 225.25,-83.03 227.25,-81.77 229.31,-80.57 231.43,-79.43"/>
<polygon fill="#63b8ff" stroke="#63b8ff" points="232.81,-82.65 240.29,-75.14 229.76,-76.35 232.81,-82.65"/>
</a>
</g>
</g>
<!-- Node3 -->
<g id="Node000003" class="node">
<title>Node3</title>
<g id="a_Node000003"><a xlink:href="class_a_k_p_t_player_state.html#a3f0fd46533843d108f4569bd68d9b233" target="_top" xlink:title=" ">
<polygon fill="white" stroke="#666666" points="1556,-730.03 1414,-730.03 1414,-698.03 1556,-698.03 1556,-730.03"/>
<text xml:space="preserve" text-anchor="start" x="1422" y="-716.53" font-family="Helvetica,sans-Serif" font-size="10.00">AKPTPlayerState::GetAbility</text>
<text xml:space="preserve" text-anchor="middle" x="1485" y="-704.53" font-family="Helvetica,sans-Serif" font-size="10.00">SystemComponent</text>
</a>
</g>
</g>
<!-- Node2&#45;&gt;Node3 -->
<g id="edge3_Node000002_Node000003" class="edge">
<title>Node2&#45;&gt;Node3</title>
<g id="a_edge3_Node000002_Node000003"><a xlink:title=" ">
<path fill="none" stroke="#63b8ff" d="M779.91,-779.46C908.01,-777.59 1162.39,-769.89 1375.75,-739.03 1386.77,-737.43 1398.33,-735.29 1409.62,-732.92"/>
<polygon fill="#63b8ff" stroke="#63b8ff" points="1410.29,-736.35 1419.32,-730.81 1408.8,-729.51 1410.29,-736.35"/>
</a>
</g>
</g>
<!-- Node5 -->
<g id="Node000005" class="node">
<title>Node5</title>
<g id="a_Node000005"><a xlink:href="class_a_k_p_t_in_game_mode.html#a84edc1df98161132b7b803669c9299a0" target="_top" xlink:title="야간 페이즈를 시작하기 위한 준비 및 전환을 시작합니다.">
<polygon fill="white" stroke="#666666" points="576.75,-382.03 422,-382.03 422,-350.03 576.75,-350.03 576.75,-382.03"/>
<text xml:space="preserve" text-anchor="start" x="430" y="-368.53" font-family="Helvetica,sans-Serif" font-size="10.00">AKPTInGameMode::BeginNight</text>
<text xml:space="preserve" text-anchor="middle" x="499.38" y="-356.53" font-family="Helvetica,sans-Serif" font-size="10.00">PhaseLogic</text>
</a>
</g>
</g>
<!-- Node4&#45;&gt;Node5 -->
<g id="edge5_Node000004_Node000005" class="edge">
<title>Node4&#45;&gt;Node5</title>
<g id="a_edge5_Node000004_Node000005"><a xlink:title=" ">
<path fill="none" stroke="#63b8ff" d="M336.44,-300.51C359.31,-312.63 391.74,-329.01 421.25,-341.03 425.24,-342.65 429.38,-344.25 433.58,-345.8"/>
<polygon fill="#63b8ff" stroke="#63b8ff" points="432.05,-348.97 442.65,-349.03 434.4,-342.37 432.05,-348.97"/>
</a>
</g>
</g>
<!-- Node13 -->
<g id="Node000013" class="node">
<title>Node13</title>
<g id="a_Node000013"><a xlink:href="class_a_k_p_t_in_game_mode.html#a2a532fe05b539d72cc039305ee771c40" target="_top" xlink:title=" ">
<polygon fill="white" stroke="#666666" points="1375.75,-172.03 1211.25,-172.03 1211.25,-140.03 1375.75,-140.03 1375.75,-172.03"/>
<text xml:space="preserve" text-anchor="start" x="1219.25" y="-158.53" font-family="Helvetica,sans-Serif" font-size="10.00">AKPTInGameMode::HandleMatch</text>
<text xml:space="preserve" text-anchor="middle" x="1293.5" y="-146.53" font-family="Helvetica,sans-Serif" font-size="10.00">HasEnded</text>
</a>
</g>
</g>
<!-- Node4&#45;&gt;Node13 -->
<g id="edge33_Node000004_Node000013" class="edge">
<title>Node4&#45;&gt;Node13</title>
<g id="a_edge33_Node000004_Node000013"><a xlink:title=" ">
<path fill="none" stroke="#63b8ff" d="M380.12,-284.89C577.81,-286.62 1108.56,-287.31 1175.25,-246.03 1203.33,-228.64 1185.61,-201.84 1211.25,-181.03 1212.38,-180.11 1213.54,-179.23 1214.73,-178.38"/>
<polygon fill="#63b8ff" stroke="#63b8ff" points="1216.37,-181.48 1223.07,-173.27 1212.71,-175.51 1216.37,-181.48"/>
</a>
</g>
</g>
<!-- Node27 -->
<g id="Node000027" class="node">
<title>Node27</title>
<g id="a_Node000027"><a xlink:href="class_a_k_p_t_in_game_mode.html#a9f93e98963e67a4aec973d492c0b437a" target="_top" xlink:title="새 라운드를 시작합니다.">
<polygon fill="white" stroke="#666666" points="577.5,-332.03 421.25,-332.03 421.25,-312.03 577.5,-312.03 577.5,-332.03"/>
<text xml:space="preserve" text-anchor="middle" x="499.38" y="-318.53" font-family="Helvetica,sans-Serif" font-size="10.00">AKPTInGameMode::StartRound</text>
</a>
</g>
</g>
<!-- Node4&#45;&gt;Node27 -->
<g id="edge34_Node000004_Node000027" class="edge">
<title>Node4&#45;&gt;Node27</title>
<g id="a_edge34_Node000004_Node000027"><a xlink:title=" ">
<path fill="none" stroke="#63b8ff" d="M379.98,-298.61C397.86,-302.15 416.84,-305.9 434.24,-309.34"/>
<polygon fill="#63b8ff" stroke="#63b8ff" points="433.44,-312.75 443.93,-311.26 434.8,-305.89 433.44,-312.75"/>
</a>
</g>
</g>
<!-- Node4&#45;&gt;Node35 -->
<g id="edge46_Node000004_Node000035" class="edge">
<title>Node4&#45;&gt;Node35</title>
<g id="a_edge46_Node000004_Node000035"><a xlink:title=" ">
<path fill="none" stroke="#63b8ff" d="M378.06,-267.58C390.97,-264.63 404.5,-261.53 417.64,-258.52"/>
<polygon fill="#63b8ff" stroke="#63b8ff" points="418.12,-262 427.09,-256.35 416.56,-255.17 418.12,-262"/>
</a>
</g>
</g>
<!-- Node5&#45;&gt;Node6 -->
<g id="edge6_Node000005_Node000006" class="edge">
<title>Node5&#45;&gt;Node6</title>
<g id="a_edge6_Node000005_Node000006"><a xlink:title=" ">
<path fill="none" stroke="#63b8ff" d="M511.86,-382.13C530.57,-407.35 569.96,-456.37 613.5,-486.03 751.7,-580.18 826.23,-529.44 962.75,-626.03 982.55,-640.03 978.26,-654.05 998.75,-667.03 1000.86,-668.36 1003.04,-669.63 1005.28,-670.83"/>
<polygon fill="#63b8ff" stroke="#63b8ff" points="1003.5,-673.86 1014.03,-675.03 1006.53,-667.55 1003.5,-673.86"/>
</a>
</g>
</g>
<!-- Node8 -->
<g id="Node000008" class="node">
<title>Node8</title>
<g id="a_Node000008"><a xlink:href="class_a_k_p_t_in_game_mode.html#acd0b193dd9ce700d2a4cb3953565584c" target="_top" xlink:title="야간 페이즈의 핵심 로직을 실행합니다.">
<polygon fill="white" stroke="#666666" points="772,-381.03 621,-381.03 621,-349.03 772,-349.03 772,-381.03"/>
<text xml:space="preserve" text-anchor="start" x="629" y="-367.53" font-family="Helvetica,sans-Serif" font-size="10.00">AKPTInGameMode::StartNight</text>
<text xml:space="preserve" text-anchor="middle" x="696.5" y="-355.53" font-family="Helvetica,sans-Serif" font-size="10.00">Phase</text>
</a>
</g>
</g>
<!-- Node5&#45;&gt;Node8 -->
<g id="edge9_Node000005_Node000008" class="edge">
<title>Node5&#45;&gt;Node8</title>
<g id="a_edge9_Node000005_Node000008"><a xlink:title=" ">
<path fill="none" stroke="#63b8ff" d="M577.21,-365.63C587.71,-365.58 598.54,-365.52 609.19,-365.47"/>
<polygon fill="#63b8ff" stroke="#63b8ff" points="609.15,-368.97 619.13,-365.42 609.12,-361.97 609.15,-368.97"/>
</a>
</g>
</g>
<!-- Node6&#45;&gt;Node7 -->
<g id="edge7_Node000006_Node000007" class="edge">
<title>Node6&#45;&gt;Node7</title>
<g id="a_edge7_Node000006_Node000007"><a xlink:title=" ">
<path fill="none" stroke="#63b8ff" d="M1170.29,-700.88C1182.45,-702.19 1194.99,-703.54 1207.2,-704.85"/>
<polygon fill="#63b8ff" stroke="#63b8ff" points="1206.48,-708.29 1216.79,-705.88 1207.23,-701.33 1206.48,-708.29"/>
</a>
</g>
</g>
<!-- Node7&#45;&gt;Node3 -->
<g id="edge8_Node000007_Node000003" class="edge">
<title>Node7&#45;&gt;Node3</title>
<g id="a_edge8_Node000007_Node000003"><a xlink:title=" ">
<path fill="none" stroke="#63b8ff" d="M1368.58,-714.03C1379.71,-714.03 1391.25,-714.03 1402.52,-714.03"/>
<polygon fill="#63b8ff" stroke="#63b8ff" points="1402.18,-717.53 1412.18,-714.03 1402.18,-710.53 1402.18,-717.53"/>
</a>
</g>
</g>
<!-- Node9 -->
<g id="Node000009" class="node">
<title>Node9</title>
<g id="a_Node000009"><a xlink:href="class_a_k_p_t_in_game_mode.html#a0e1dec85eeba3835d463238c88f8904b" target="_top" xlink:title="야간 페이즈를 종료하고, 게임 종료 조건을 확인하거나 새 라운드를 시작합니다.">
<polygon fill="white" stroke="#666666" points="962.75,-199.03 815.5,-199.03 815.5,-167.03 962.75,-167.03 962.75,-199.03"/>
<text xml:space="preserve" text-anchor="start" x="823.5" y="-185.53" font-family="Helvetica,sans-Serif" font-size="10.00">AKPTInGameMode::EndNight</text>
<text xml:space="preserve" text-anchor="middle" x="889.12" y="-173.53" font-family="Helvetica,sans-Serif" font-size="10.00">Phase</text>
</a>
</g>
</g>
<!-- Node8&#45;&gt;Node9 -->
<g id="edge10_Node000008_Node000009" class="edge">
<title>Node8&#45;&gt;Node9</title>
<g id="a_edge10_Node000008_Node000009"><a xlink:title=" ">
<path fill="none" stroke="#63b8ff" d="M714.75,-348.56C748.49,-316.34 823.35,-244.87 862.75,-207.25"/>
<polygon fill="#63b8ff" stroke="#63b8ff" points="865.14,-209.81 869.95,-200.38 860.3,-204.75 865.14,-209.81"/>
</a>
</g>
</g>
<!-- Node20 -->
<g id="Node000020" class="node">
<title>Node20</title>
<g id="a_Node000020"><a xlink:href="class_u_stage_manager_subsystem.html#afc484834b3d364a92817a4e6475bc810" target="_top" xlink:title=" ">
<polygon fill="white" stroke="#666666" points="957.12,-398.03 821.12,-398.03 821.12,-366.03 957.12,-366.03 957.12,-398.03"/>
<text xml:space="preserve" text-anchor="start" x="829.12" y="-384.53" font-family="Helvetica,sans-Serif" font-size="10.00">UStageManagerSubsystem</text>
<text xml:space="preserve" text-anchor="middle" x="889.12" y="-372.53" font-family="Helvetica,sans-Serif" font-size="10.00">::GetStageDuration</text>
</a>
</g>
</g>
<!-- Node8&#45;&gt;Node20 -->
<g id="edge23_Node000008_Node000020" class="edge">
<title>Node8&#45;&gt;Node20</title>
<g id="a_edge23_Node000008_Node000020"><a xlink:title=" ">
<path fill="none" stroke="#63b8ff" d="M772.29,-371.7C784.51,-372.79 797.2,-373.92 809.51,-375.02"/>
<polygon fill="#63b8ff" stroke="#63b8ff" points="808.9,-378.48 819.17,-375.88 809.52,-371.5 808.9,-378.48"/>
</a>
</g>
</g>
<!-- Node21 -->
<g id="Node000021" class="node">
<title>Node21</title>
<g id="a_Node000021"><a xlink:href="class_u_stage_manager_subsystem.html#ad0af6446e32468e50889d617d579207f" target="_top" xlink:title=" ">
<polygon fill="white" stroke="#666666" points="957.12,-348.03 821.12,-348.03 821.12,-316.03 957.12,-316.03 957.12,-348.03"/>
<text xml:space="preserve" text-anchor="start" x="829.12" y="-334.53" font-family="Helvetica,sans-Serif" font-size="10.00">UStageManagerSubsystem</text>
<text xml:space="preserve" text-anchor="middle" x="889.12" y="-322.53" font-family="Helvetica,sans-Serif" font-size="10.00">::StartStage</text>
</a>
</g>
</g>
<!-- Node8&#45;&gt;Node21 -->
<g id="edge24_Node000008_Node000021" class="edge">
<title>Node8&#45;&gt;Node21</title>
<g id="a_edge24_Node000008_Node000021"><a xlink:title=" ">
<path fill="none" stroke="#63b8ff" d="M772.29,-352.08C784.51,-349.96 797.2,-347.77 809.51,-345.64"/>
<polygon fill="#63b8ff" stroke="#63b8ff" points="809.93,-349.12 819.19,-343.96 808.74,-342.22 809.93,-349.12"/>
</a>
</g>
</g>
<!-- Node9&#45;&gt;Node1 -->
<g id="edge11_Node000009_Node000001" class="edge">
<title>Node9&#45;&gt;Node1</title>
<g id="a_edge11_Node000009_Node000001"><a xlink:title=" ">
<path fill="none" stroke="#63b8ff" d="M815.01,-186.53C674.09,-193.29 364.41,-208.14 201.14,-215.97"/>
<polygon fill="#63b8ff" stroke="#63b8ff" points="200.98,-212.47 191.16,-216.45 201.32,-219.46 200.98,-212.47"/>
</a>
</g>
</g>
<!-- Node10 -->
<g id="Node000010" class="node">
<title>Node10</title>
<g id="a_Node000010"><a xlink:href="class_a_k_p_t_in_game_mode.html#a447cf5f334247ed8640cee6ae43bc376" target="_top" xlink:title="팀의 경험치를 확인하고 레벨업을 처리합니다.">
<polygon fill="white" stroke="#666666" points="1161.75,-99.03 1012.25,-99.03 1012.25,-67.03 1161.75,-67.03 1161.75,-99.03"/>
<text xml:space="preserve" text-anchor="start" x="1020.25" y="-85.53" font-family="Helvetica,sans-Serif" font-size="10.00">AKPTInGameMode::CheckFor</text>
<text xml:space="preserve" text-anchor="middle" x="1087" y="-73.53" font-family="Helvetica,sans-Serif" font-size="10.00">TeamLevelUp</text>
</a>
</g>
</g>
<!-- Node9&#45;&gt;Node10 -->
<g id="edge12_Node000009_Node000010" class="edge">
<title>Node9&#45;&gt;Node10</title>
<g id="a_edge12_Node000009_Node000010"><a xlink:title=" ">
<path fill="none" stroke="#63b8ff" d="M909.73,-166.54C930.6,-149.72 965.19,-123.9 998.75,-108.03 1002.1,-106.44 1005.57,-104.94 1009.1,-103.52"/>
<polygon fill="#63b8ff" stroke="#63b8ff" points="1010.33,-106.8 1018.46,-100.01 1007.87,-100.24 1010.33,-106.8"/>
</a>
</g>
</g>
<!-- Node12 -->
<g id="Node000012" class="node">
<title>Node12</title>
<g id="a_Node000012"><a xlink:href="class_a_k_p_t_in_game_mode.html#aab8a44dfe87df1106a9eecc225638148" target="_top" xlink:title="게임에서 패배했을 때 호출됩니다.">
<polygon fill="white" stroke="#666666" points="1169.25,-149.03 1004.75,-149.03 1004.75,-117.03 1169.25,-117.03 1169.25,-149.03"/>
<text xml:space="preserve" text-anchor="start" x="1012.75" y="-135.53" font-family="Helvetica,sans-Serif" font-size="10.00">AKPTInGameMode::HandleMatch</text>
<text xml:space="preserve" text-anchor="middle" x="1087" y="-123.53" font-family="Helvetica,sans-Serif" font-size="10.00">Defeat</text>
</a>
</g>
</g>
<!-- Node9&#45;&gt;Node12 -->
<g id="edge14_Node000009_Node000012" class="edge">
<title>Node9&#45;&gt;Node12</title>
<g id="a_edge14_Node000009_Node000012"><a xlink:title=" ">
<path fill="none" stroke="#63b8ff" d="M954.53,-166.59C972.44,-162.02 992.04,-157.01 1010.52,-152.29"/>
<polygon fill="#63b8ff" stroke="#63b8ff" points="1011.26,-155.72 1020.09,-149.85 1009.53,-148.94 1011.26,-155.72"/>
</a>
</g>
</g>
<!-- Node15 -->
<g id="Node000015" class="node">
<title>Node15</title>
<g id="a_Node000015"><a xlink:href="class_a_k_p_t_in_game_mode.html#acde5763daa38af9c93badb25bf0f59d1" target="_top" xlink:title="게임에서 승리했을 때 호출됩니다.">
<polygon fill="white" stroke="#666666" points="1169.25,-199.03 1004.75,-199.03 1004.75,-167.03 1169.25,-167.03 1169.25,-199.03"/>
<text xml:space="preserve" text-anchor="start" x="1012.75" y="-185.53" font-family="Helvetica,sans-Serif" font-size="10.00">AKPTInGameMode::HandleMatch</text>
<text xml:space="preserve" text-anchor="middle" x="1087" y="-173.53" font-family="Helvetica,sans-Serif" font-size="10.00">Victory</text>
</a>
</g>
</g>
<!-- Node9&#45;&gt;Node15 -->
<g id="edge17_Node000009_Node000015" class="edge">
<title>Node9&#45;&gt;Node15</title>
<g id="a_edge17_Node000009_Node000015"><a xlink:title=" ">
<path fill="none" stroke="#63b8ff" d="M963.06,-183.03C972.86,-183.03 983.02,-183.03 993.1,-183.03"/>
<polygon fill="#63b8ff" stroke="#63b8ff" points="992.92,-186.53 1002.92,-183.03 992.92,-179.53 992.92,-186.53"/>
</a>
</g>
</g>
<!-- Node9&#45;&gt;Node16 -->
<g id="edge19_Node000009_Node000016" class="edge">
<title>Node9&#45;&gt;Node16</title>
<g id="a_edge19_Node000009_Node000016"><a xlink:title=" ">
<path fill="none" stroke="#63b8ff" d="M900.14,-166.86C917.24,-140.49 954.57,-88.15 998.75,-58.03 1004.2,-54.31 1010.14,-51 1016.27,-48.04"/>
<polygon fill="#63b8ff" stroke="#63b8ff" points="1017.62,-51.27 1025.34,-44.02 1014.78,-44.87 1017.62,-51.27"/>
</a>
</g>
</g>
<!-- Node17 -->
<g id="Node000017" class="node">
<title>Node17</title>
<g id="a_Node000017"><a xlink:href="class_a_k_p_t_in_game_mode.html#a6855178c3536314307a454f02abe0c82" target="_top" xlink:title=" ">
<polygon fill="white" stroke="#666666" points="1175.25,-237.03 998.75,-237.03 998.75,-217.03 1175.25,-217.03 1175.25,-237.03"/>
<text xml:space="preserve" text-anchor="middle" x="1087" y="-223.53" font-family="Helvetica,sans-Serif" font-size="10.00">AKPTInGameMode::ShareTeamGold</text>
</a>
</g>
</g>
<!-- Node9&#45;&gt;Node17 -->
<g id="edge20_Node000009_Node000017" class="edge">
<title>Node9&#45;&gt;Node17</title>
<g id="a_edge20_Node000009_Node000017"><a xlink:title=" ">
<path fill="none" stroke="#63b8ff" d="M961.09,-199.49C973.63,-202.36 986.57,-205.3 998.75,-208.03 1007.68,-210.03 1017.12,-212.11 1026.38,-214.14"/>
<polygon fill="#63b8ff" stroke="#63b8ff" points="1025.52,-217.54 1036.04,-216.25 1027.02,-210.7 1025.52,-217.54"/>
</a>
</g>
</g>
<!-- Node11 -->
<g id="Node000011" class="node">
<title>Node11</title>
<g id="a_Node000011"><a xlink:href="class_u_player_reward_state_component.html#a9707a634f494b85a8bc0875f09b08b48" target="_top" xlink:title="서버 전용: 처리해야 할 보상을 목록에 추가합니다.">
<polygon fill="white" stroke="#666666" points="1372.75,-99.03 1214.25,-99.03 1214.25,-67.03 1372.75,-67.03 1372.75,-99.03"/>
<text xml:space="preserve" text-anchor="start" x="1222.25" y="-85.53" font-family="Helvetica,sans-Serif" font-size="10.00">UPlayerRewardStateComponent</text>
<text xml:space="preserve" text-anchor="middle" x="1293.5" y="-73.53" font-family="Helvetica,sans-Serif" font-size="10.00">::AddPendingReward</text>
</a>
</g>
</g>
<!-- Node10&#45;&gt;Node11 -->
<g id="edge13_Node000010_Node000011" class="edge">
<title>Node10&#45;&gt;Node11</title>
<g id="a_edge13_Node000010_Node000011"><a xlink:title=" ">
<path fill="none" stroke="#63b8ff" d="M1162.12,-83.03C1175.25,-83.03 1189.04,-83.03 1202.55,-83.03"/>
<polygon fill="#63b8ff" stroke="#63b8ff" points="1202.29,-86.53 1212.29,-83.03 1202.29,-79.53 1202.29,-86.53"/>
</a>
</g>
</g>
<!-- Node12&#45;&gt;Node13 -->
<g id="edge15_Node000012_Node000013" class="edge">
<title>Node12&#45;&gt;Node13</title>
<g id="a_edge15_Node000012_Node000013"><a xlink:title=" ">
<path fill="none" stroke="#63b8ff" d="M1169.71,-142.22C1179.57,-143.33 1189.69,-144.47 1199.7,-145.59"/>
<polygon fill="#63b8ff" stroke="#63b8ff" points="1199.09,-149.04 1209.42,-146.68 1199.87,-142.09 1199.09,-149.04"/>
</a>
</g>
</g>
<!-- Node14 -->
<g id="Node000014" class="node">
<title>Node14</title>
<g id="a_Node000014"><a xlink:href="class_a_k_p_t_in_game_mode.html#aa81ccab3f271d21f9a65bb8f42eb6f70" target="_top" xlink:title=" ">
<polygon fill="white" stroke="#666666" points="1558.25,-172.03 1411.75,-172.03 1411.75,-140.03 1558.25,-140.03 1558.25,-172.03"/>
<text xml:space="preserve" text-anchor="start" x="1419.75" y="-158.53" font-family="Helvetica,sans-Serif" font-size="10.00">AKPTInGameMode::ReturnTo</text>
<text xml:space="preserve" text-anchor="middle" x="1485" y="-146.53" font-family="Helvetica,sans-Serif" font-size="10.00">Lobby</text>
</a>
</g>
</g>
<!-- Node13&#45;&gt;Node14 -->
<g id="edge16_Node000013_Node000014" class="edge">
<title>Node13&#45;&gt;Node14</title>
<g id="a_edge16_Node000013_Node000014"><a xlink:title=" ">
<path fill="none" stroke="#63b8ff" d="M1376.24,-156.03C1384.11,-156.03 1392.11,-156.03 1400.01,-156.03"/>
<polygon fill="#63b8ff" stroke="#63b8ff" points="1399.96,-159.53 1409.96,-156.03 1399.96,-152.53 1399.96,-159.53"/>
</a>
</g>
</g>
<!-- Node15&#45;&gt;Node13 -->
<g id="edge18_Node000015_Node000013" class="edge">
<title>Node15&#45;&gt;Node13</title>
<g id="a_edge18_Node000015_Node000013"><a xlink:title=" ">
<path fill="none" stroke="#63b8ff" d="M1169.71,-172.24C1179.57,-170.94 1189.69,-169.6 1199.7,-168.28"/>
<polygon fill="#63b8ff" stroke="#63b8ff" points="1199.97,-171.77 1209.42,-167 1199.05,-164.84 1199.97,-171.77"/>
</a>
</g>
</g>
<!-- Node18 -->
<g id="Node000018" class="node">
<title>Node18</title>
<g id="a_Node000018"><a xlink:href="class_u_player_wallet_component.html#a7cab4a8e3b21d6b74891e61dd0dbf95c" target="_top" xlink:title=" ">
<polygon fill="white" stroke="#666666" points="1357.75,-222.03 1229.25,-222.03 1229.25,-190.03 1357.75,-190.03 1357.75,-222.03"/>
<text xml:space="preserve" text-anchor="start" x="1237.25" y="-208.53" font-family="Helvetica,sans-Serif" font-size="10.00">UPlayerWalletComponent</text>
<text xml:space="preserve" text-anchor="middle" x="1293.5" y="-196.53" font-family="Helvetica,sans-Serif" font-size="10.00">::AddGold</text>
</a>
</g>
</g>
<!-- Node17&#45;&gt;Node18 -->
<g id="edge21_Node000017_Node000018" class="edge">
<title>Node17&#45;&gt;Node18</title>
<g id="a_edge21_Node000017_Node000018"><a xlink:title=" ">
<path fill="none" stroke="#63b8ff" d="M1175.62,-218.03C1189.59,-216.6 1203.94,-215.12 1217.58,-213.72"/>
<polygon fill="#63b8ff" stroke="#63b8ff" points="1217.76,-217.22 1227.35,-212.72 1217.05,-210.26 1217.76,-217.22"/>
</a>
</g>
</g>
<!-- Node19 -->
<g id="Node000019" class="node">
<title>Node19</title>
<g id="a_Node000019"><a xlink:href="class_u_player_wallet_component.html#ab679569285e7f915b08ffb945b2e2c3a" target="_top" xlink:title=" ">
<polygon fill="white" stroke="#666666" points="1549.25,-222.03 1420.75,-222.03 1420.75,-190.03 1549.25,-190.03 1549.25,-222.03"/>
<text xml:space="preserve" text-anchor="start" x="1428.75" y="-208.53" font-family="Helvetica,sans-Serif" font-size="10.00">UPlayerWalletComponent</text>
<text xml:space="preserve" text-anchor="middle" x="1485" y="-196.53" font-family="Helvetica,sans-Serif" font-size="10.00">::OnRep_Gold</text>
</a>
</g>
</g>
<!-- Node18&#45;&gt;Node19 -->
<g id="edge22_Node000018_Node000019" class="edge">
<title>Node18&#45;&gt;Node19</title>
<g id="a_edge22_Node000018_Node000019"><a xlink:title=" ">
<path fill="none" stroke="#63b8ff" d="M1358.13,-206.03C1374.46,-206.03 1392.19,-206.03 1409.04,-206.03"/>
<polygon fill="#63b8ff" stroke="#63b8ff" points="1409.03,-209.53 1419.03,-206.03 1409.03,-202.53 1409.03,-209.53"/>
</a>
</g>
</g>
<!-- Node22 -->
<g id="Node000022" class="node">
<title>Node22</title>
<g id="a_Node000022"><a xlink:href="class_u_stage_manager_subsystem.html#a10be946619661f166108878489139489" target="_top" xlink:title=" ">
<polygon fill="white" stroke="#666666" points="1155,-366.03 1019,-366.03 1019,-334.03 1155,-334.03 1155,-366.03"/>
<text xml:space="preserve" text-anchor="start" x="1027" y="-352.53" font-family="Helvetica,sans-Serif" font-size="10.00">UStageManagerSubsystem</text>
<text xml:space="preserve" text-anchor="middle" x="1087" y="-340.53" font-family="Helvetica,sans-Serif" font-size="10.00">::SetStageDataToSpawner</text>
</a>
</g>
</g>
<!-- Node21&#45;&gt;Node22 -->
<g id="edge25_Node000021_Node000022" class="edge">
<title>Node21&#45;&gt;Node22</title>
<g id="a_edge25_Node000021_Node000022"><a xlink:title=" ">
<path fill="none" stroke="#63b8ff" d="M957.53,-338.22C973.63,-339.7 990.95,-341.29 1007.49,-342.81"/>
<polygon fill="#63b8ff" stroke="#63b8ff" points="1007.01,-346.28 1017.29,-343.71 1007.65,-339.31 1007.01,-346.28"/>
</a>
</g>
</g>
<!-- Node26 -->
<g id="Node000026" class="node">
<title>Node26</title>
<g id="a_Node000026"><a xlink:href="class_u_stage_manager_subsystem.html#a8a5a0fc89c9effbbb84cb8ea7729d1bc" target="_top" xlink:title=" ">
<polygon fill="white" stroke="#666666" points="1361.5,-272.03 1225.5,-272.03 1225.5,-240.03 1361.5,-240.03 1361.5,-272.03"/>
<text xml:space="preserve" text-anchor="start" x="1233.5" y="-258.53" font-family="Helvetica,sans-Serif" font-size="10.00">UStageManagerSubsystem</text>
<text xml:space="preserve" text-anchor="middle" x="1293.5" y="-246.53" font-family="Helvetica,sans-Serif" font-size="10.00">::StartPhase</text>
</a>
</g>
</g>
<!-- Node21&#45;&gt;Node26 -->
<g id="edge32_Node000021_Node000026" class="edge">
<title>Node21&#45;&gt;Node26</title>
<g id="a_edge32_Node000021_Node000026"><a xlink:title=" ">
<path fill="none" stroke="#63b8ff" d="M957.4,-321.1C1015.27,-311.49 1100.94,-296.77 1175.25,-282.03 1187.75,-279.55 1200.96,-276.77 1213.83,-273.98"/>
<polygon fill="#63b8ff" stroke="#63b8ff" points="1214.53,-277.41 1223.55,-271.85 1213.03,-270.57 1214.53,-277.41"/>
</a>
</g>
</g>
<!-- Node22&#45;&gt;Node22 -->
<g id="edge30_Node000022_Node000022" class="edge">
<title>Node22&#45;&gt;Node22</title>
<g id="a_edge30_Node000022_Node000022"><a xlink:title=" ">
<path fill="none" stroke="#63b8ff" d="M1051.67,-366.47C1045.08,-375.61 1056.85,-384.03 1087,-384.03 1103.49,-384.03 1114.48,-381.51 1119.98,-377.73"/>
<polygon fill="#63b8ff" stroke="#63b8ff" points="1123.4,-378.46 1122.02,-367.95 1116.55,-377.03 1123.4,-378.46"/>
</a>
</g>
</g>
<!-- Node23 -->
<g id="Node000023" class="node">
<title>Node23</title>
<g id="a_Node000023"><a xlink:href="class_u_stage_manager_subsystem.html#a8386ea09d547e37b0110a5f62dd2fb9d" target="_top" xlink:title=" ">
<polygon fill="white" stroke="#666666" points="1361.5,-322.03 1225.5,-322.03 1225.5,-290.03 1361.5,-290.03 1361.5,-322.03"/>
<text xml:space="preserve" text-anchor="start" x="1233.5" y="-308.53" font-family="Helvetica,sans-Serif" font-size="10.00">UStageManagerSubsystem</text>
<text xml:space="preserve" text-anchor="middle" x="1293.5" y="-296.53" font-family="Helvetica,sans-Serif" font-size="10.00">::GetCurrentStageData</text>
</a>
</g>
</g>
<!-- Node22&#45;&gt;Node23 -->
<g id="edge26_Node000022_Node000023" class="edge">
<title>Node22&#45;&gt;Node23</title>
<g id="a_edge26_Node000022_Node000023"><a xlink:title=" ">
<path fill="none" stroke="#63b8ff" d="M1155.24,-335.56C1174.03,-331.52 1194.6,-327.09 1213.97,-322.92"/>
<polygon fill="#63b8ff" stroke="#63b8ff" points="1214.7,-326.35 1223.74,-320.82 1213.22,-319.5 1214.7,-326.35"/>
</a>
</g>
</g>
<!-- Node24 -->
<g id="Node000024" class="node">
<title>Node24</title>
<g id="a_Node000024"><a xlink:href="class_u_stage_manager_subsystem.html#a1b506743975f481d0cd15a1153f0820d" target="_top" xlink:title=" ">
<polygon fill="white" stroke="#666666" points="1553,-388.03 1417,-388.03 1417,-356.03 1553,-356.03 1553,-388.03"/>
<text xml:space="preserve" text-anchor="start" x="1425" y="-374.53" font-family="Helvetica,sans-Serif" font-size="10.00">UStageManagerSubsystem</text>
<text xml:space="preserve" text-anchor="middle" x="1485" y="-362.53" font-family="Helvetica,sans-Serif" font-size="10.00">::GetMaxRoundCount</text>
</a>
</g>
</g>
<!-- Node22&#45;&gt;Node24 -->
<g id="edge27_Node000022_Node000024" class="edge">
<title>Node22&#45;&gt;Node24</title>
<g id="a_edge27_Node000022_Node000024"><a xlink:title=" ">
<path fill="none" stroke="#63b8ff" d="M1155.18,-353.76C1224.4,-357.61 1332.25,-363.6 1405.4,-367.66"/>
<polygon fill="#63b8ff" stroke="#63b8ff" points="1405.14,-371.15 1415.31,-368.21 1405.52,-364.16 1405.14,-371.15"/>
</a>
</g>
</g>
<!-- Node25 -->
<g id="Node000025" class="node">
<title>Node25</title>
<g id="a_Node000025"><a xlink:href="class_u_stage_manager_subsystem.html#acee67f86b9c712f48829d333b472a58a" target="_top" xlink:title=" ">
<polygon fill="white" stroke="#666666" points="1361.5,-410.03 1225.5,-410.03 1225.5,-378.03 1361.5,-378.03 1361.5,-410.03"/>
<text xml:space="preserve" text-anchor="start" x="1233.5" y="-396.53" font-family="Helvetica,sans-Serif" font-size="10.00">UStageManagerSubsystem</text>
<text xml:space="preserve" text-anchor="middle" x="1293.5" y="-384.53" font-family="Helvetica,sans-Serif" font-size="10.00">::IsMaxRound</text>
</a>
</g>
</g>
<!-- Node22&#45;&gt;Node25 -->
<g id="edge28_Node000022_Node000025" class="edge">
<title>Node22&#45;&gt;Node25</title>
<g id="a_edge28_Node000022_Node000025"><a xlink:title=" ">
<path fill="none" stroke="#63b8ff" d="M1155.24,-364.5C1174.03,-368.54 1194.6,-372.96 1213.97,-377.13"/>
<polygon fill="#63b8ff" stroke="#63b8ff" points="1213.22,-380.55 1223.74,-379.23 1214.7,-373.71 1213.22,-380.55"/>
</a>
</g>
</g>
<!-- Node22&#45;&gt;Node26 -->
<g id="edge31_Node000022_Node000026" class="edge">
<title>Node22&#45;&gt;Node26</title>
<g id="a_edge31_Node000022_Node000026"><a xlink:title=" ">
<path fill="none" stroke="#63b8ff" d="M1148.51,-333.62C1157.83,-329.87 1167.07,-325.37 1175.25,-320.03 1195,-307.13 1191.29,-293.6 1211.25,-281.03 1213.25,-279.77 1215.32,-278.57 1217.44,-277.43"/>
<polygon fill="#63b8ff" stroke="#63b8ff" points="1218.82,-280.64 1226.31,-273.14 1215.78,-274.34 1218.82,-280.64"/>
</a>
</g>
</g>
<!-- Node25&#45;&gt;Node24 -->
<g id="edge29_Node000025_Node000024" class="edge">
<title>Node25&#45;&gt;Node24</title>
<g id="a_edge29_Node000025_Node000024"><a xlink:title=" ">
<path fill="none" stroke="#63b8ff" d="M1361.84,-386.21C1375.86,-384.58 1390.76,-382.85 1405.15,-381.18"/>
<polygon fill="#63b8ff" stroke="#63b8ff" points="1405.52,-384.66 1415.05,-380.03 1404.71,-377.71 1405.52,-384.66"/>
</a>
</g>
</g>
<!-- Node28 -->
<g id="Node000028" class="node">
<title>Node28</title>
<g id="a_Node000028"><a xlink:href="class_a_k_p_t_in_game_mode.html#aa4f70056d702908efb82a3a085b2d832" target="_top" xlink:title="주간 페이즈의 시작을 처리합니다.">
<polygon fill="white" stroke="#666666" points="774.25,-477.03 618.75,-477.03 618.75,-445.03 774.25,-445.03 774.25,-477.03"/>
<text xml:space="preserve" text-anchor="start" x="626.75" y="-463.53" font-family="Helvetica,sans-Serif" font-size="10.00">AKPTInGameMode::HandleDay</text>
<text xml:space="preserve" text-anchor="middle" x="696.5" y="-451.53" font-family="Helvetica,sans-Serif" font-size="10.00">Phase</text>
</a>
</g>
</g>
<!-- Node27&#45;&gt;Node28 -->
<g id="edge35_Node000027_Node000028" class="edge">
<title>Node27&#45;&gt;Node28</title>
<g id="a_edge35_Node000027_Node000028"><a xlink:title=" ">
<path fill="none" stroke="#63b8ff" d="M560.68,-332.44C566.61,-334.75 572.34,-337.58 577.5,-341.03 599.96,-356.05 595.17,-370.17 613.5,-390.03 629.45,-407.31 649.35,-424.62 665.55,-437.83"/>
<polygon fill="#63b8ff" stroke="#63b8ff" points="662.96,-440.23 672.94,-443.77 667.34,-434.78 662.96,-440.23"/>
</a>
</g>
</g>
<!-- Node29 -->
<g id="Node000029" class="node">
<title>Node29</title>
<g id="a_Node000029"><a xlink:href="class_a_k_p_t_in_game_mode.html#ad299e138b605334f03841982928f4e6e" target="_top" xlink:title="특정 플레이어를 현재 게임 페이즈에 맞게 초기화합니다.">
<polygon fill="white" stroke="#666666" points="960.5,-522.03 817.75,-522.03 817.75,-490.03 960.5,-490.03 960.5,-522.03"/>
<text xml:space="preserve" text-anchor="start" x="825.75" y="-508.53" font-family="Helvetica,sans-Serif" font-size="10.00">AKPTInGameMode::Initialize</text>
<text xml:space="preserve" text-anchor="middle" x="889.12" y="-496.53" font-family="Helvetica,sans-Serif" font-size="10.00">PlayerForCurrentPhase</text>
</a>
</g>
</g>
<!-- Node28&#45;&gt;Node29 -->
<g id="edge36_Node000028_Node000029" class="edge">
<title>Node28&#45;&gt;Node29</title>
<g id="a_edge36_Node000028_Node000029"><a xlink:title=" ">
<path fill="none" stroke="#63b8ff" d="M767.13,-477.46C780.17,-480.54 793.91,-483.79 807.27,-486.94"/>
<polygon fill="#63b8ff" stroke="#63b8ff" points="806.36,-490.32 816.89,-489.21 807.96,-483.51 806.36,-490.32"/>
</a>
</g>
</g>
<!-- Node29&#45;&gt;Node3 -->
<g id="edge37_Node000029_Node000003" class="edge">
<title>Node29&#45;&gt;Node3</title>
<g id="a_edge37_Node000029_Node000003"><a xlink:title=" ">
<path fill="none" stroke="#63b8ff" d="M940.76,-489.58C998.91,-473.39 1096.45,-454.63 1175.25,-481.03 1300.49,-522.98 1415.54,-638.01 1462.13,-689.06"/>
<polygon fill="#63b8ff" stroke="#63b8ff" points="1459.46,-691.32 1468.75,-696.41 1464.66,-686.64 1459.46,-691.32"/>
</a>
</g>
</g>
<!-- Node29&#45;&gt;Node6 -->
<g id="edge43_Node000029_Node000006" class="edge">
<title>Node29&#45;&gt;Node6</title>
<g id="a_edge43_Node000029_Node000006"><a xlink:title=" ">
<path fill="none" stroke="#63b8ff" d="M918.6,-522.31C933.57,-532.12 951.15,-545.85 962.75,-562.03 991.5,-602.12 962.98,-633.05 998.75,-667.03 999.5,-667.74 1000.27,-668.43 1001.05,-669.1"/>
<polygon fill="#63b8ff" stroke="#63b8ff" points="998.68,-671.71 1008.85,-674.71 1002.77,-666.03 998.68,-671.71"/>
</a>
</g>
</g>
<!-- Node30 -->
<g id="Node000030" class="node">
<title>Node30</title>
<g id="a_Node000030"><a xlink:href="class_a_k_p_t_player_state.html#a6989c3ebb86791d3a7265d8f5dc90b93" target="_top" xlink:title=" ">
<polygon fill="white" stroke="#666666" points="1161.38,-640.03 1012.62,-640.03 1012.62,-608.03 1161.38,-608.03 1161.38,-640.03"/>
<text xml:space="preserve" text-anchor="start" x="1020.62" y="-626.53" font-family="Helvetica,sans-Serif" font-size="10.00">AKPTPlayerState::GetReward</text>
<text xml:space="preserve" text-anchor="middle" x="1087" y="-614.53" font-family="Helvetica,sans-Serif" font-size="10.00">StateComponent</text>
</a>
</g>
</g>
<!-- Node29&#45;&gt;Node30 -->
<g id="edge38_Node000029_Node000030" class="edge">
<title>Node29&#45;&gt;Node30</title>
<g id="a_edge38_Node000029_Node000030"><a xlink:title=" ">
<path fill="none" stroke="#63b8ff" d="M913.03,-522.39C927.67,-533.15 946.82,-547.83 962.75,-562.03 979.88,-577.29 979.06,-587.25 998.75,-599.03 1001.03,-600.39 1003.39,-601.69 1005.81,-602.91"/>
<polygon fill="#63b8ff" stroke="#63b8ff" points="1004.1,-605.98 1014.65,-606.95 1007.01,-599.61 1004.1,-605.98"/>
</a>
</g>
</g>
<!-- Node31 -->
<g id="Node000031" class="node">
<title>Node31</title>
<g id="a_Node000031"><a xlink:href="class_u_player_reward_state_component.html#a13152160f317ee674b6c1dde2d1bb0e7" target="_top" xlink:title="처리해야 할 보상이 남아있는지 확인합니다.">
<polygon fill="white" stroke="#666666" points="1166.25,-572.03 1007.75,-572.03 1007.75,-540.03 1166.25,-540.03 1166.25,-572.03"/>
<text xml:space="preserve" text-anchor="start" x="1015.75" y="-558.53" font-family="Helvetica,sans-Serif" font-size="10.00">UPlayerRewardStateComponent</text>
<text xml:space="preserve" text-anchor="middle" x="1087" y="-546.53" font-family="Helvetica,sans-Serif" font-size="10.00">::HasPendingRewards</text>
</a>
</g>
</g>
<!-- Node29&#45;&gt;Node31 -->
<g id="edge40_Node000029_Node000031" class="edge">
<title>Node29&#45;&gt;Node31</title>
<g id="a_edge40_Node000029_Node000031"><a xlink:title=" ">
<path fill="none" stroke="#63b8ff" d="M954.53,-522.47C972.44,-527.04 992.04,-532.04 1010.52,-536.76"/>
<polygon fill="#63b8ff" stroke="#63b8ff" points="1009.53,-540.12 1020.09,-539.2 1011.26,-533.34 1009.53,-540.12"/>
</a>
</g>
</g>
<!-- Node32 -->
<g id="Node000032" class="node">
<title>Node32</title>
<g id="a_Node000032"><a xlink:href="class_a_k_p_t_in_game_mode.html#a1a9ee04a849c50e213574d166ea3eda5" target="_top" xlink:title="특정 플레이어에게 카드 선택 기회를 제공합니다.">
<polygon fill="white" stroke="#666666" points="1155,-522.03 1019,-522.03 1019,-490.03 1155,-490.03 1155,-522.03"/>
<text xml:space="preserve" text-anchor="start" x="1027" y="-508.53" font-family="Helvetica,sans-Serif" font-size="10.00">AKPTInGameMode::Initiate</text>
<text xml:space="preserve" text-anchor="middle" x="1087" y="-496.53" font-family="Helvetica,sans-Serif" font-size="10.00">RewardPhaseForPlayer</text>
</a>
</g>
</g>
<!-- Node29&#45;&gt;Node32 -->
<g id="edge42_Node000029_Node000032" class="edge">
<title>Node29&#45;&gt;Node32</title>
<g id="a_edge42_Node000029_Node000032"><a xlink:title=" ">
<path fill="none" stroke="#63b8ff" d="M960.84,-506.03C976.01,-506.03 992.12,-506.03 1007.56,-506.03"/>
<polygon fill="#63b8ff" stroke="#63b8ff" points="1007.15,-509.53 1017.15,-506.03 1007.15,-502.53 1007.15,-509.53"/>
</a>
</g>
</g>
<!-- Node33 -->
<g id="Node000033" class="node">
<title>Node33</title>
<g id="a_Node000033"><a xlink:href="class_a_k_p_t_player_state.html#ae76783471e033ac0ece5ebe988856b1b" target="_top" xlink:title="업그레이드 선택 기회를 추가합니다.">
<polygon fill="white" stroke="#666666" points="1163.25,-434.03 1010.75,-434.03 1010.75,-402.03 1163.25,-402.03 1163.25,-434.03"/>
<text xml:space="preserve" text-anchor="start" x="1018.75" y="-420.53" font-family="Helvetica,sans-Serif" font-size="10.00">AKPTPlayerState::SetPersonal</text>
<text xml:space="preserve" text-anchor="middle" x="1087" y="-408.53" font-family="Helvetica,sans-Serif" font-size="10.00">StateTag</text>
</a>
</g>
</g>
<!-- Node29&#45;&gt;Node33 -->
<g id="edge44_Node000029_Node000033" class="edge">
<title>Node29&#45;&gt;Node33</title>
<g id="a_edge44_Node000029_Node000033"><a xlink:title=" ">
<path fill="none" stroke="#63b8ff" d="M917.65,-489.75C939.26,-477.37 970.33,-460.41 998.75,-448.03 1006.51,-444.65 1014.78,-441.38 1023.03,-438.33"/>
<polygon fill="#63b8ff" stroke="#63b8ff" points="1024.16,-441.65 1032.38,-434.97 1021.79,-435.06 1024.16,-441.65"/>
</a>
</g>
</g>
<!-- Node30&#45;&gt;Node30 -->
<g id="edge39_Node000030_Node000030" class="edge">
<title>Node30&#45;&gt;Node30</title>
<g id="a_edge39_Node000030_Node000030"><a xlink:title=" ">
<path fill="none" stroke="#63b8ff" d="M1051.67,-640.47C1045.08,-649.61 1056.85,-658.03 1087,-658.03 1103.49,-658.03 1114.48,-655.51 1119.98,-651.73"/>
<polygon fill="#63b8ff" stroke="#63b8ff" points="1123.4,-652.46 1122.02,-641.95 1116.55,-651.03 1123.4,-652.46"/>
</a>
</g>
</g>
<!-- Node31&#45;&gt;Node31 -->
<g id="edge41_Node000031_Node000031" class="edge">
<title>Node31&#45;&gt;Node31</title>
<g id="a_edge41_Node000031_Node000031"><a xlink:title=" ">
<path fill="none" stroke="#63b8ff" d="M1051.67,-572.47C1045.08,-581.61 1056.85,-590.03 1087,-590.03 1103.49,-590.03 1114.48,-587.51 1119.98,-583.73"/>
<polygon fill="#63b8ff" stroke="#63b8ff" points="1123.4,-584.46 1122.02,-573.95 1116.55,-583.03 1123.4,-584.46"/>
</a>
</g>
</g>
<!-- Node34 -->
<g id="Node000034" class="node">
<title>Node34</title>
<g id="a_Node000034"><a xlink:href="class_a_k_p_t_player_state.html#aa41c46851e05f762ccd8c2fc98aa505a" target="_top" xlink:title=" ">
<polygon fill="white" stroke="#666666" points="1358.5,-460.03 1228.5,-460.03 1228.5,-428.03 1358.5,-428.03 1358.5,-460.03"/>
<text xml:space="preserve" text-anchor="start" x="1236.5" y="-446.53" font-family="Helvetica,sans-Serif" font-size="10.00">AKPTPlayerState::OnRep</text>
<text xml:space="preserve" text-anchor="middle" x="1293.5" y="-434.53" font-family="Helvetica,sans-Serif" font-size="10.00">_PersonalStateTag</text>
</a>
</g>
</g>
<!-- Node33&#45;&gt;Node34 -->
<g id="edge45_Node000033_Node000034" class="edge">
<title>Node33&#45;&gt;Node34</title>
<g id="a_edge45_Node000033_Node000034"><a xlink:title=" ">
<path fill="none" stroke="#63b8ff" d="M1163.57,-427.64C1181.02,-429.85 1199.59,-432.21 1217.04,-434.43"/>
<polygon fill="#63b8ff" stroke="#63b8ff" points="1216.46,-437.89 1226.82,-435.68 1217.34,-430.94 1216.46,-437.89"/>
</a>
</g>
</g>
</g>
</svg>
