<?xml version="1.0" encoding="UTF-8" standalone="no"?>
<!DOCTYPE svg PUBLIC "-//W3C//DTD SVG 1.1//EN"
 "http://www.w3.org/Graphics/SVG/1.1/DTD/svg11.dtd">
<!-- Generated by graphviz version 13.1.1 (20250719.2154)
 -->
<!-- Title: ABossMonsterBase::Multicast_StartDissolveEffect Pages: 1 -->
<svg width="562pt" height="380pt"
 viewBox="0.00 0.00 562.00 380.00" xmlns="http://www.w3.org/2000/svg" xmlns:xlink="http://www.w3.org/1999/xlink">
<g id="graph0" class="graph" transform="scale(1 1) rotate(0) translate(4 376)">
<title>ABossMonsterBase::Multicast_StartDissolveEffect</title>
<!-- Node1 -->
<g id="Node000001" class="node">
<title>Node1</title>
<g id="a_Node000001"><a xlink:title=" ">
<polygon fill="#999999" stroke="#666666" points="148.75,-214 0,-214 0,-182 148.75,-182 148.75,-214"/>
<text xml:space="preserve" text-anchor="start" x="8" y="-200.5" font-family="Helvetica,sans-Serif" font-size="10.00">ABossMonsterBase::Multicast</text>
<text xml:space="preserve" text-anchor="middle" x="74.38" y="-188.5" font-family="Helvetica,sans-Serif" font-size="10.00">_StartDissolveEffect</text>
</a>
</g>
</g>
<!-- Node1&#45;&gt;Node1 -->
<g id="edge6_Node000001_Node000001" class="edge">
<title>Node1&#45;&gt;Node1</title>
<g id="a_edge6_Node000001_Node000001"><a xlink:title=" ">
<path fill="none" stroke="#63b8ff" d="M39.52,-214.44C33.01,-223.58 44.63,-232 74.38,-232 90.64,-232 101.49,-229.48 106.91,-225.71"/>
<polygon fill="#63b8ff" stroke="#63b8ff" points="110.34,-226.43 108.93,-215.93 103.48,-225.01 110.34,-226.43"/>
</a>
</g>
</g>
<!-- Node2 -->
<g id="Node000002" class="node">
<title>Node2</title>
<g id="a_Node000002"><a xlink:href="class_a_boss_monster_base.html#aad59c8c0ed3f6b9090cd0e29d35ae192" target="_top" xlink:title=" ">
<polygon fill="white" stroke="#666666" points="350.75,-372 188.5,-372 188.5,-340 350.75,-340 350.75,-372"/>
<text xml:space="preserve" text-anchor="start" x="196.5" y="-358.5" font-family="Helvetica,sans-Serif" font-size="10.00">ABossMonsterBase::AddStacked</text>
<text xml:space="preserve" text-anchor="middle" x="269.62" y="-346.5" font-family="Helvetica,sans-Serif" font-size="10.00">Damage</text>
</a>
</g>
</g>
<!-- Node1&#45;&gt;Node2 -->
<g id="edge1_Node000001_Node000002" class="edge">
<title>Node1&#45;&gt;Node2</title>
<g id="a_edge1_Node000001_Node000002"><a xlink:title=" ">
<path fill="none" stroke="#63b8ff" d="M85.12,-214.12C102.13,-240.98 139.75,-294.97 184.75,-326 189.48,-329.26 194.61,-332.21 199.92,-334.87"/>
<polygon fill="#63b8ff" stroke="#63b8ff" points="198.36,-338 208.91,-338.99 201.28,-331.64 198.36,-338"/>
</a>
</g>
</g>
<!-- Node3 -->
<g id="Node000003" class="node">
<title>Node3</title>
<g id="a_Node000003"><a xlink:href="class_a_boss_monster_base.html#a4b2b95b0be9b302d6d58c10635dc1cd0" target="_top" xlink:title=" ">
<polygon fill="white" stroke="#666666" points="346.25,-284 193,-284 193,-264 346.25,-264 346.25,-284"/>
<text xml:space="preserve" text-anchor="middle" x="269.62" y="-270.5" font-family="Helvetica,sans-Serif" font-size="10.00">ABossMonsterBase::BeginPlay</text>
</a>
</g>
</g>
<!-- Node1&#45;&gt;Node3 -->
<g id="edge2_Node000001_Node000003" class="edge">
<title>Node1&#45;&gt;Node3</title>
<g id="a_edge2_Node000001_Node000003"><a xlink:title=" ">
<path fill="none" stroke="#63b8ff" d="M106.37,-214.42C127.94,-225.44 157.61,-239.74 184.75,-250 194.85,-253.81 205.82,-257.36 216.4,-260.5"/>
<polygon fill="#63b8ff" stroke="#63b8ff" points="215.2,-263.8 225.77,-263.2 217.13,-257.07 215.2,-263.8"/>
</a>
</g>
</g>
<!-- Node4 -->
<g id="Node000004" class="node">
<title>Node4</title>
<g id="a_Node000004"><a xlink:href="class_a_boss_monster_base.html#a96aef28a337652697596cc5012797c78" target="_top" xlink:title=" ">
<polygon fill="white" stroke="#666666" points="544.5,-321 399.5,-321 399.5,-289 544.5,-289 544.5,-321"/>
<text xml:space="preserve" text-anchor="start" x="407.5" y="-307.5" font-family="Helvetica,sans-Serif" font-size="10.00">ABossMonsterBase::Initialize</text>
<text xml:space="preserve" text-anchor="middle" x="472" y="-295.5" font-family="Helvetica,sans-Serif" font-size="10.00">AbilitySystem</text>
</a>
</g>
</g>
<!-- Node1&#45;&gt;Node4 -->
<g id="edge5_Node000001_Node000004" class="edge">
<title>Node1&#45;&gt;Node4</title>
<g id="a_edge5_Node000001_Node000004"><a xlink:title=" ">
<path fill="none" stroke="#63b8ff" d="M88.06,-214.48C106.52,-236.99 143.15,-276.45 184.75,-293 249.42,-318.72 328.91,-319.91 387.7,-315.7"/>
<polygon fill="#63b8ff" stroke="#63b8ff" points="387.97,-319.19 397.66,-314.91 387.42,-312.21 387.97,-319.19"/>
</a>
</g>
</g>
<!-- Node5 -->
<g id="Node000005" class="node">
<title>Node5</title>
<g id="a_Node000005"><a xlink:href="class_a_boss_monster_base.html#ad00d7b706c434e7c530716da0af6e165" target="_top" xlink:title=" ">
<polygon fill="white" stroke="#666666" points="553.5,-265 390.5,-265 390.5,-233 553.5,-233 553.5,-265"/>
<text xml:space="preserve" text-anchor="start" x="398.5" y="-251.5" font-family="Helvetica,sans-Serif" font-size="10.00">ABossMonsterBase::SendUpdate</text>
<text xml:space="preserve" text-anchor="middle" x="472" y="-239.5" font-family="Helvetica,sans-Serif" font-size="10.00">EventToGameMode</text>
</a>
</g>
</g>
<!-- Node1&#45;&gt;Node5 -->
<g id="edge10_Node000001_Node000005" class="edge">
<title>Node1&#45;&gt;Node5</title>
<g id="a_edge10_Node000001_Node000005"><a xlink:title=" ">
<path fill="none" stroke="#63b8ff" d="M149.12,-211.44C161.01,-213.42 173.21,-215.35 184.75,-217 249.36,-226.21 322.49,-234.35 378.66,-240.11"/>
<polygon fill="#63b8ff" stroke="#63b8ff" points="378.21,-243.59 388.51,-241.12 378.92,-236.62 378.21,-243.59"/>
</a>
</g>
</g>
<!-- Node6 -->
<g id="Node000006" class="node">
<title>Node6</title>
<g id="a_Node000006"><a xlink:href="class_a_boss_monster_base.html#a3b52848f049e5ff80f0c8482db6b3b0f" target="_top" xlink:title=" ">
<polygon fill="white" stroke="#666666" points="354.5,-208 184.75,-208 184.75,-188 354.5,-188 354.5,-208"/>
<text xml:space="preserve" text-anchor="middle" x="269.62" y="-194.5" font-family="Helvetica,sans-Serif" font-size="10.00">ABossMonsterBase::PossessedBy</text>
</a>
</g>
</g>
<!-- Node1&#45;&gt;Node6 -->
<g id="edge7_Node000001_Node000006" class="edge">
<title>Node1&#45;&gt;Node6</title>
<g id="a_edge7_Node000001_Node000006"><a xlink:title=" ">
<path fill="none" stroke="#63b8ff" d="M148.99,-198C156.89,-198 165.01,-198 173.12,-198"/>
<polygon fill="#63b8ff" stroke="#63b8ff" points="173.04,-201.5 183.04,-198 173.04,-194.5 173.04,-201.5"/>
</a>
</g>
</g>
<!-- Node7 -->
<g id="Node000007" class="node">
<title>Node7</title>
<g id="a_Node000007"><a xlink:href="class_a_boss_monster_base.html#aef9ea8fef296e1bb0638775ce217b934" target="_top" xlink:title=" ">
<polygon fill="white" stroke="#666666" points="350,-170 189.25,-170 189.25,-138 350,-138 350,-170"/>
<text xml:space="preserve" text-anchor="start" x="197.25" y="-156.5" font-family="Helvetica,sans-Serif" font-size="10.00">ABossMonsterBase::SendDefeat</text>
<text xml:space="preserve" text-anchor="middle" x="269.62" y="-144.5" font-family="Helvetica,sans-Serif" font-size="10.00">EventToGameMode</text>
</a>
</g>
</g>
<!-- Node1&#45;&gt;Node7 -->
<g id="edge8_Node000001_Node000007" class="edge">
<title>Node1&#45;&gt;Node7</title>
<g id="a_edge8_Node000001_Node000007"><a xlink:title=" ">
<path fill="none" stroke="#63b8ff" d="M147.61,-181.55C159.88,-178.76 172.71,-175.84 185.24,-172.98"/>
<polygon fill="#63b8ff" stroke="#63b8ff" points="185.71,-176.47 194.68,-170.84 184.15,-169.64 185.71,-176.47"/>
</a>
</g>
</g>
<!-- Node8 -->
<g id="Node000008" class="node">
<title>Node8</title>
<g id="a_Node000008"><a xlink:href="class_a_boss_monster_base.html#a076ed5a106ae8e6ff87cafd69ce10793" target="_top" xlink:title=" ">
<polygon fill="white" stroke="#666666" points="350.38,-120 188.88,-120 188.88,-88 350.38,-88 350.38,-120"/>
<text xml:space="preserve" text-anchor="start" x="196.88" y="-106.5" font-family="Helvetica,sans-Serif" font-size="10.00">ABossMonsterBase::SendSpawn</text>
<text xml:space="preserve" text-anchor="middle" x="269.62" y="-94.5" font-family="Helvetica,sans-Serif" font-size="10.00">EventToGameMode</text>
</a>
</g>
</g>
<!-- Node1&#45;&gt;Node8 -->
<g id="edge9_Node000001_Node000008" class="edge">
<title>Node1&#45;&gt;Node8</title>
<g id="a_edge9_Node000001_Node000008"><a xlink:title=" ">
<path fill="none" stroke="#63b8ff" d="M97.4,-181.56C118.79,-166.22 152.65,-143.57 184.75,-129 188.32,-127.38 192.02,-125.83 195.78,-124.36"/>
<polygon fill="#63b8ff" stroke="#63b8ff" points="196.94,-127.67 205.12,-120.93 194.52,-121.1 196.94,-127.67"/>
</a>
</g>
</g>
<!-- Node9 -->
<g id="Node000009" class="node">
<title>Node9</title>
<g id="a_Node000009"><a xlink:href="class_a_boss_monster_base.html#afae75c91bcb32e406d8239386654a58b" target="_top" xlink:title=" ">
<polygon fill="white" stroke="#666666" points="353.75,-70 185.5,-70 185.5,-38 353.75,-38 353.75,-70"/>
<text xml:space="preserve" text-anchor="start" x="193.5" y="-56.5" font-family="Helvetica,sans-Serif" font-size="10.00">ABossMonsterBase::StartDissolve</text>
<text xml:space="preserve" text-anchor="middle" x="269.62" y="-44.5" font-family="Helvetica,sans-Serif" font-size="10.00">Effect</text>
</a>
</g>
</g>
<!-- Node1&#45;&gt;Node9 -->
<g id="edge11_Node000001_Node000009" class="edge">
<title>Node1&#45;&gt;Node9</title>
<g id="a_edge11_Node000001_Node000009"><a xlink:title=" ">
<path fill="none" stroke="#63b8ff" d="M86.07,-181.55C103.62,-155.87 140.97,-106.36 184.75,-79 186.76,-77.74 188.84,-76.54 190.97,-75.4"/>
<polygon fill="#63b8ff" stroke="#63b8ff" points="192.39,-78.61 199.9,-71.13 189.36,-72.29 192.39,-78.61"/>
</a>
</g>
</g>
<!-- Node10 -->
<g id="Node000010" class="node">
<title>Node10</title>
<g id="a_Node000010"><a xlink:href="class_a_boss_monster_base.html#ae9a85f58384f8e9789d540167cb9f59f" target="_top" xlink:title=" ">
<polygon fill="white" stroke="#666666" points="333.5,-20 205.75,-20 205.75,0 333.5,0 333.5,-20"/>
<text xml:space="preserve" text-anchor="middle" x="269.62" y="-6.5" font-family="Helvetica,sans-Serif" font-size="10.00">ABossMonsterBase::Tick</text>
</a>
</g>
</g>
<!-- Node1&#45;&gt;Node10 -->
<g id="edge12_Node000001_Node000010" class="edge">
<title>Node1&#45;&gt;Node10</title>
<g id="a_edge12_Node000001_Node000010"><a xlink:title=" ">
<path fill="none" stroke="#63b8ff" d="M81.03,-181.75C93.79,-147.65 128.16,-68.52 184.75,-29 187.97,-26.75 191.41,-24.77 195,-23.01"/>
<polygon fill="#63b8ff" stroke="#63b8ff" points="196.15,-26.32 204.02,-19.24 193.45,-19.87 196.15,-26.32"/>
</a>
</g>
</g>
<!-- Node3&#45;&gt;Node4 -->
<g id="edge3_Node000003_Node000004" class="edge">
<title>Node3&#45;&gt;Node4</title>
<g id="a_edge3_Node000003_Node000004"><a xlink:title=" ">
<path fill="none" stroke="#63b8ff" d="M338.46,-284.5C354.33,-286.95 371.41,-289.59 387.86,-292.14"/>
<polygon fill="#63b8ff" stroke="#63b8ff" points="387.21,-295.58 397.62,-293.65 388.28,-288.66 387.21,-295.58"/>
</a>
</g>
</g>
<!-- Node3&#45;&gt;Node5 -->
<g id="edge4_Node000003_Node000005" class="edge">
<title>Node3&#45;&gt;Node5</title>
<g id="a_edge4_Node000003_Node000005"><a xlink:title=" ">
<path fill="none" stroke="#63b8ff" d="M346.66,-264.51C357.18,-263.2 368.08,-261.84 378.85,-260.5"/>
<polygon fill="#63b8ff" stroke="#63b8ff" points="379.01,-264 388.5,-259.29 378.15,-257.06 379.01,-264"/>
</a>
</g>
</g>
</g>
</svg>
