<?xml version="1.0" encoding="UTF-8" standalone="no"?>
<!DOCTYPE svg PUBLIC "-//W3C//DTD SVG 1.1//EN"
 "http://www.w3.org/Graphics/SVG/1.1/DTD/svg11.dtd">
<!-- Generated by graphviz version 13.1.1 (20250719.2154)
 -->
<!-- Title: AExperience::On_RepTargetSetting Pages: 1 -->
<svg width="503pt" height="52pt"
 viewBox="0.00 0.00 503.00 52.00" xmlns="http://www.w3.org/2000/svg" xmlns:xlink="http://www.w3.org/1999/xlink">
<g id="graph0" class="graph" transform="scale(1 1) rotate(0) translate(4 48)">
<title>AExperience::On_RepTargetSetting</title>
<!-- Node1 -->
<g id="Node000001" class="node">
<title>Node1</title>
<g id="a_Node000001"><a xlink:title=" ">
<polygon fill="#999999" stroke="#666666" points="495,-32 354.5,-32 354.5,0 495,0 495,-32"/>
<text xml:space="preserve" text-anchor="start" x="362.5" y="-18.5" font-family="Helvetica,sans-Serif" font-size="10.00">AExperience::On_RepTarget</text>
<text xml:space="preserve" text-anchor="middle" x="424.75" y="-6.5" font-family="Helvetica,sans-Serif" font-size="10.00">Setting</text>
</a>
</g>
</g>
<!-- Node2 -->
<g id="Node000002" class="node">
<title>Node2</title>
<g id="a_Node000002"><a xlink:href="class_a_experience.html#a1a5a05df41047f89a3b88d7198a647a0" target="_top" xlink:title=" ">
<polygon fill="white" stroke="#666666" points="318.5,-26 185.5,-26 185.5,-6 318.5,-6 318.5,-26"/>
<text xml:space="preserve" text-anchor="middle" x="252" y="-12.5" font-family="Helvetica,sans-Serif" font-size="10.00">AExperience::OnReturnBP</text>
</a>
</g>
</g>
<!-- Node1&#45;&gt;Node2 -->
<g id="edge1_Node000001_Node000002" class="edge">
<title>Node1&#45;&gt;Node2</title>
<g id="a_edge1_Node000001_Node000002"><a xlink:title=" ">
<path fill="none" stroke="#63b8ff" d="M342.93,-16C334.85,-16 326.71,-16 318.8,-16"/>
<polygon fill="#63b8ff" stroke="#63b8ff" points="342.79,-19.5 352.79,-16 342.79,-12.5 342.79,-19.5"/>
</a>
</g>
</g>
<!-- Node2&#45;&gt;Node2 -->
<g id="edge2_Node000002_Node000002" class="edge">
<title>Node2&#45;&gt;Node2</title>
<g id="a_edge2_Node000002_Node000002"><a xlink:title=" ">
<path fill="none" stroke="#63b8ff" d="M282.85,-37.11C279.18,-41.14 268.89,-44 252,-44 221.97,-44 212.82,-34.98 224.55,-26.34"/>
<polygon fill="#63b8ff" stroke="#63b8ff" points="286.26,-36.26 279.9,-27.78 279.58,-38.37 286.26,-36.26"/>
</a>
</g>
</g>
<!-- Node3 -->
<g id="Node000003" class="node">
<title>Node3</title>
<g id="a_Node000003"><a xlink:href="class_a_experience.html#a6e06a7ca0defd466c4a1fe470fb5c8c4" target="_top" xlink:title=" ">
<polygon fill="white" stroke="#666666" points="149.5,-32 0,-32 0,0 149.5,0 149.5,-32"/>
<text xml:space="preserve" text-anchor="start" x="8" y="-18.5" font-family="Helvetica,sans-Serif" font-size="10.00">AExperience::OnReturnToPool</text>
<text xml:space="preserve" text-anchor="middle" x="74.75" y="-6.5" font-family="Helvetica,sans-Serif" font-size="10.00">_Implementation</text>
</a>
</g>
</g>
<!-- Node2&#45;&gt;Node3 -->
<g id="edge3_Node000002_Node000003" class="edge">
<title>Node2&#45;&gt;Node3</title>
<g id="a_edge3_Node000002_Node000003"><a xlink:title=" ">
<path fill="none" stroke="#63b8ff" d="M174,-16C165.97,-16 157.82,-16 149.82,-16"/>
<polygon fill="#63b8ff" stroke="#63b8ff" points="173.73,-19.5 183.73,-16 173.73,-12.5 173.73,-19.5"/>
</a>
</g>
</g>
</g>
</svg>
