<?xml version="1.0" encoding="UTF-8" standalone="no"?>
<!DOCTYPE svg PUBLIC "-//W3C//DTD SVG 1.1//EN"
 "http://www.w3.org/Graphics/SVG/1.1/DTD/svg11.dtd">
<!-- Generated by graphviz version 13.1.1 (20250719.2154)
 -->
<!-- Title: UKPTGameInstance Pages: 1 -->
<svg width="163pt" height="384pt"
 viewBox="0.00 0.00 163.00 384.00" xmlns="http://www.w3.org/2000/svg" xmlns:xlink="http://www.w3.org/1999/xlink">
<g id="graph0" class="graph" transform="scale(1 1) rotate(0) translate(4 380)">
<title>UKPTGameInstance</title>
<!-- Node1 -->
<g id="Node000001" class="node">
<title>Node1</title>
<g id="a_Node000001"><a xlink:title=" ">
<polygon fill="#999999" stroke="none" points="147.25,-288 7.75,-288 7.75,0 147.25,0 147.25,-288"/>
<text xml:space="preserve" text-anchor="start" x="32.12" y="-274.5" font-family="Helvetica,sans-Serif" font-size="10.00">UKPTGameInstance</text>
<text xml:space="preserve" text-anchor="start" x="11.75" y="-258.5" font-family="Helvetica,sans-Serif" font-size="10.00">+</text>
<text xml:space="preserve" text-anchor="start" x="21.75" y="-258.5" font-family="Helvetica,sans-Serif" font-size="10.00">FOnSessionHostResult</text>
<text xml:space="preserve" text-anchor="start" x="21.75" y="-246.5" font-family="Helvetica,sans-Serif" font-size="10.00"> OnSessionHostResult</text>
<text xml:space="preserve" text-anchor="start" x="11.75" y="-230.5" font-family="Helvetica,sans-Serif" font-size="10.00">+</text>
<text xml:space="preserve" text-anchor="start" x="21.75" y="-230.5" font-family="Helvetica,sans-Serif" font-size="10.00">FOnSessionJoinCompleted</text>
<text xml:space="preserve" text-anchor="start" x="21.75" y="-218.5" font-family="Helvetica,sans-Serif" font-size="10.00"> OnSessionJoinCompleted</text>
<text xml:space="preserve" text-anchor="start" x="11.75" y="-202.5" font-family="Helvetica,sans-Serif" font-size="10.00">+</text>
<text xml:space="preserve" text-anchor="start" x="21.75" y="-202.5" font-family="Helvetica,sans-Serif" font-size="10.00">FOnSessionSearchFinished</text>
<text xml:space="preserve" text-anchor="start" x="21.75" y="-190.5" font-family="Helvetica,sans-Serif" font-size="10.00"> OnSessionSearchFinished</text>
<text xml:space="preserve" text-anchor="start" x="11.75" y="-174.5" font-family="Helvetica,sans-Serif" font-size="10.00">+</text>
<text xml:space="preserve" text-anchor="start" x="21.75" y="-174.5" font-family="Helvetica,sans-Serif" font-size="10.00">void DestroySession()</text>
<text xml:space="preserve" text-anchor="start" x="11.75" y="-158.5" font-family="Helvetica,sans-Serif" font-size="10.00">+</text>
<text xml:space="preserve" text-anchor="start" x="21.75" y="-158.5" font-family="Helvetica,sans-Serif" font-size="10.00">void FindSessions(bool</text>
<text xml:space="preserve" text-anchor="start" x="21.75" y="-146.5" font-family="Helvetica,sans-Serif" font-size="10.00"> bIsLANMatch)</text>
<text xml:space="preserve" text-anchor="start" x="11.75" y="-130.5" font-family="Helvetica,sans-Serif" font-size="10.00">+</text>
<text xml:space="preserve" text-anchor="start" x="21.75" y="-130.5" font-family="Helvetica,sans-Serif" font-size="10.00">void HostSession(bool</text>
<text xml:space="preserve" text-anchor="start" x="21.75" y="-118.5" font-family="Helvetica,sans-Serif" font-size="10.00"> bIsLANMatch, FString</text>
<text xml:space="preserve" text-anchor="start" x="21.75" y="-106.5" font-family="Helvetica,sans-Serif" font-size="10.00"> MapName)</text>
<text xml:space="preserve" text-anchor="start" x="11.75" y="-90.5" font-family="Helvetica,sans-Serif" font-size="10.00">+</text>
<text xml:space="preserve" text-anchor="start" x="21.75" y="-90.5" font-family="Helvetica,sans-Serif" font-size="10.00">virtual void Init()</text>
<text xml:space="preserve" text-anchor="start" x="21.75" y="-78.5" font-family="Helvetica,sans-Serif" font-size="10.00"> override</text>
<text xml:space="preserve" text-anchor="start" x="11.75" y="-62.5" font-family="Helvetica,sans-Serif" font-size="10.00">+</text>
<text xml:space="preserve" text-anchor="start" x="21.75" y="-62.5" font-family="Helvetica,sans-Serif" font-size="10.00">void JoinSessionByIndex</text>
<text xml:space="preserve" text-anchor="start" x="21.75" y="-50.5" font-family="Helvetica,sans-Serif" font-size="10.00">(int32 Index)</text>
<text xml:space="preserve" text-anchor="start" x="11.75" y="-34.5" font-family="Helvetica,sans-Serif" font-size="10.00">+</text>
<text xml:space="preserve" text-anchor="start" x="21.75" y="-34.5" font-family="Helvetica,sans-Serif" font-size="10.00">virtual void Shutdown</text>
<text xml:space="preserve" text-anchor="start" x="21.75" y="-22.5" font-family="Helvetica,sans-Serif" font-size="10.00">() override</text>
<text xml:space="preserve" text-anchor="start" x="11.75" y="-6.5" font-family="Helvetica,sans-Serif" font-size="10.00">+</text>
<text xml:space="preserve" text-anchor="start" x="21.75" y="-6.5" font-family="Helvetica,sans-Serif" font-size="10.00">void TravelToMainMenu()</text>
<polygon fill="#666666" stroke="#666666" points="7.75,-270 7.75,-270 147.25,-270 147.25,-270 7.75,-270"/>
<polygon fill="#666666" stroke="#666666" points="7.75,-186 7.75,-186 19.75,-186 19.75,-186 7.75,-186"/>
<polygon fill="#666666" stroke="#666666" points="19.75,-186 19.75,-186 147.25,-186 147.25,-186 19.75,-186"/>
<polygon fill="none" stroke="#666666" points="7.75,0 7.75,-288 147.25,-288 147.25,0 7.75,0"/>
</a>
</g>
</g>
<!-- Node2 -->
<g id="Node000002" class="node">
<title>Node2</title>
<g id="a_Node000002"><a xlink:title=" ">
<polygon fill="white" stroke="none" points="155,-376 0,-376 0,-324 155,-324 155,-376"/>
<text xml:space="preserve" text-anchor="start" x="4" y="-362.5" font-family="Helvetica,sans-Serif" font-size="10.00">UAdvancedFriendsGameInstance</text>
<text xml:space="preserve" text-anchor="start" x="76" y="-346.5" font-family="Helvetica,sans-Serif" font-size="10.00"> </text>
<text xml:space="preserve" text-anchor="start" x="76" y="-330.5" font-family="Helvetica,sans-Serif" font-size="10.00"> </text>
<polygon fill="#666666" stroke="#666666" points="0,-358 0,-358 155,-358 155,-358 0,-358"/>
<polygon fill="#666666" stroke="#666666" points="0,-342 0,-342 155,-342 155,-342 0,-342"/>
<polygon fill="none" stroke="#666666" points="0,-324 0,-376 155,-376 155,-324 0,-324"/>
</a>
</g>
</g>
<!-- Node2&#45;&gt;Node1 -->
<g id="edge1_Node000001_Node000002" class="edge">
<title>Node2&#45;&gt;Node1</title>
<g id="a_edge1_Node000001_Node000002"><a xlink:title=" ">
<path fill="none" stroke="#63b8ff" d="M77.5,-313.07C77.5,-305.37 77.5,-296.79 77.5,-287.69"/>
<polygon fill="none" stroke="#63b8ff" points="74,-312.88 77.5,-322.88 81,-312.88 74,-312.88"/>
</a>
</g>
</g>
</g>
</svg>
