<?xml version="1.0" encoding="UTF-8" standalone="no"?>
<!DOCTYPE svg PUBLIC "-//W3C//DTD SVG 1.1//EN"
 "http://www.w3.org/Graphics/SVG/1.1/DTD/svg11.dtd">
<!-- Generated by graphviz version 13.1.1 (20250719.2154)
 -->
<!-- Title: AKPTInGameMode::HandleSeamlessTravelPlayer Pages: 1 -->
<!--zoomable 328 -->

<svg id="main" version="1.1" xmlns="http://www.w3.org/2000/svg" xmlns:xlink="http://www.w3.org/1999/xlink" xml:space="preserve" onload="init(evt)">

<style type="text/css"><![CDATA[
.node, .edge {opacity: 0.7;}
.node.selected, .edge.selected {opacity: 1;}
.edge:hover path { stroke: red; }
.edge:hover polygon { stroke: red; fill: red; }
]]></style>

<defs>
  <circle id="rim" cx="0" cy="0" r="7"/>
  <circle id="rim2" cx="0" cy="0" r="3.5"/>
  <g id="zoomPlus">
    <use xlink:href="#rim" fill="#404040"><set attributeName="fill" to="#808080" begin="zoomplus.mouseover" end="zoomplus.mouseout"/></use>
    <path d="M-4,0h8M0,-4v8" fill="none" stroke="white" stroke-width="1.5" pointer-events="none"/>
  </g>
  <g id="zoomMin">
    <use xlink:href="#rim" fill="#404040"><set attributeName="fill" to="#808080" begin="zoomminus.mouseover" end="zoomminus.mouseout"/></use>
    <path d="M-4,0h8" fill="none" stroke="white" stroke-width="1.5" pointer-events="none"/>
  </g>
  <g id="arrowUp" transform="translate(30 24)">
    <use xlink:href="#rim"/>
    <path pointer-events="none" fill="none" stroke="white" stroke-width="1.5" d="M0,-3.0v7 M-2.5,-0.5L0,-3.0L2.5,-0.5"/>
  </g>
  <g id="arrowRight" transform="rotate(90) translate(36 -43)">
    <use xlink:href="#rim"/>
    <path pointer-events="none" fill="none" stroke="white" stroke-width="1.5" d="M0,-3.0v7 M-2.5,-0.5L0,-3.0L2.5,-0.5"/>
  </g>
  <g id="arrowDown" transform="rotate(180) translate(-30 -48)">
    <use xlink:href="#rim"/>
    <path pointer-events="none" fill="none" stroke="white" stroke-width="1.5" d="M0,-3.0v7 M-2.5,-0.5L0,-3.0L2.5,-0.5"/>
  </g>
  <g id="arrowLeft" transform="rotate(270) translate(-36 17)">
    <use xlink:href="#rim"/>
    <path pointer-events="none" fill="none" stroke="white" stroke-width="1.5" d="M0,-3.0v7 M-2.5,-0.5L0,-3.0L2.5,-0.5"/>
  </g>
  <g id="resetDef">
    <use xlink:href="#rim2" fill="#404040"><set attributeName="fill" to="#808080" begin="reset.mouseover" end="reset.mouseout"/></use>
  </g>
</defs>
<script type="application/ecmascript">
var viewWidth = 960;
var viewHeight = 328;
var sectionId = 'dynsection-28';
</script>
<script type="application/ecmascript" xlink:href="svg.min.js"/>
<svg id="graph" class="graph">
<g id="viewport">
<title>AKPTInGameMode::HandleSeamlessTravelPlayer</title>
<!-- Node1 -->
<g id="Node000001" class="node">
<title>Node1</title>
<g id="a_Node000001"><a xlink:title=" ">
<polygon fill="#999999" stroke="#666666" points="181,-179 0,-179 0,-147 181,-147 181,-179"/>
<text xml:space="preserve" text-anchor="start" x="8" y="-165.5" font-family="Helvetica,sans-Serif" font-size="10.00">AKPTInGameMode::HandleSeamless</text>
<text xml:space="preserve" text-anchor="middle" x="90.5" y="-153.5" font-family="Helvetica,sans-Serif" font-size="10.00">TravelPlayer</text>
</a>
</g>
</g>
<!-- Node2 -->
<g id="Node000002" class="node">
<title>Node2</title>
<g id="a_Node000002"><a xlink:href="class_a_k_p_t_player_state.html#a57012cefe259a3b7e78bffd3e86197cd" target="_top" xlink:title=" ">
<polygon fill="white" stroke="#666666" points="386,-195 217,-195 217,-175 386,-175 386,-195"/>
<text xml:space="preserve" text-anchor="middle" x="301.5" y="-181.5" font-family="Helvetica,sans-Serif" font-size="10.00">AKPTPlayerState::GetPersonalTag</text>
</a>
</g>
</g>
<!-- Node1&#45;&gt;Node2 -->
<g id="edge1_Node000001_Node000002" class="edge">
<title>Node1&#45;&gt;Node2</title>
<g id="a_edge1_Node000001_Node000002"><a xlink:title=" ">
<path fill="none" stroke="#63b8ff" d="M181.35,-172.46C189.32,-173.3 197.41,-174.15 205.42,-174.99"/>
<polygon fill="#63b8ff" stroke="#63b8ff" points="204.86,-178.45 215.17,-176.02 205.59,-171.49 204.86,-178.45"/>
</a>
</g>
</g>
<!-- Node3 -->
<g id="Node000003" class="node">
<title>Node3</title>
<g id="a_Node000003"><a xlink:href="class_a_k_p_t_in_game_mode.html#ad299e138b605334f03841982928f4e6e" target="_top" xlink:title="특정 플레이어를 현재 게임 페이즈에 맞게 초기화합니다.">
<polygon fill="white" stroke="#666666" points="372.88,-157 230.12,-157 230.12,-125 372.88,-125 372.88,-157"/>
<text xml:space="preserve" text-anchor="start" x="238.12" y="-143.5" font-family="Helvetica,sans-Serif" font-size="10.00">AKPTInGameMode::Initialize</text>
<text xml:space="preserve" text-anchor="middle" x="301.5" y="-131.5" font-family="Helvetica,sans-Serif" font-size="10.00">PlayerForCurrentPhase</text>
</a>
</g>
</g>
<!-- Node1&#45;&gt;Node3 -->
<g id="edge3_Node000001_Node000003" class="edge">
<title>Node1&#45;&gt;Node3</title>
<g id="a_edge3_Node000001_Node000003"><a xlink:title=" ">
<path fill="none" stroke="#63b8ff" d="M181.35,-153.54C193.59,-152.25 206.1,-150.94 218.2,-149.66"/>
<polygon fill="#63b8ff" stroke="#63b8ff" points="218.57,-153.14 228.15,-148.62 217.83,-146.18 218.57,-153.14"/>
</a>
</g>
</g>
<!-- Node2&#45;&gt;Node2 -->
<g id="edge2_Node000002_Node000002" class="edge">
<title>Node2&#45;&gt;Node2</title>
<g id="a_edge2_Node000002_Node000002"><a xlink:title=" ">
<path fill="none" stroke="#63b8ff" d="M269.17,-195.34C255.35,-203.98 266.13,-213 301.5,-213 321.4,-213 333.51,-210.14 337.85,-206.11"/>
<polygon fill="#63b8ff" stroke="#63b8ff" points="341.13,-204.91 334.36,-196.76 334.57,-207.35 341.13,-204.91"/>
</a>
</g>
</g>
<!-- Node4 -->
<g id="Node000004" class="node">
<title>Node4</title>
<g id="a_Node000004"><a xlink:href="class_a_k_p_t_player_state.html#a3f0fd46533843d108f4569bd68d9b233" target="_top" xlink:title=" ">
<polygon fill="white" stroke="#666666" points="951.5,-243 809.5,-243 809.5,-211 951.5,-211 951.5,-243"/>
<text xml:space="preserve" text-anchor="start" x="817.5" y="-229.5" font-family="Helvetica,sans-Serif" font-size="10.00">AKPTPlayerState::GetAbility</text>
<text xml:space="preserve" text-anchor="middle" x="880.5" y="-217.5" font-family="Helvetica,sans-Serif" font-size="10.00">SystemComponent</text>
</a>
</g>
</g>
<!-- Node3&#45;&gt;Node4 -->
<g id="edge4_Node000003_Node000004" class="edge">
<title>Node3&#45;&gt;Node4</title>
<g id="a_edge4_Node000003_Node000004"><a xlink:title=" ">
<path fill="none" stroke="#63b8ff" d="M373.28,-156.45C377.9,-159.14 382.21,-162.3 386,-166 423.09,-202.25 380.05,-246.5 422,-277 549.34,-369.57 751.67,-290.03 838.13,-248.47"/>
<polygon fill="#63b8ff" stroke="#63b8ff" points="839.52,-251.69 846.97,-244.15 836.45,-245.4 839.52,-251.69"/>
</a>
</g>
</g>
<!-- Node5 -->
<g id="Node000005" class="node">
<title>Node5</title>
<g id="a_Node000005"><a xlink:href="class_a_k_p_t_player_state.html#a6989c3ebb86791d3a7265d8f5dc90b93" target="_top" xlink:title=" ">
<polygon fill="white" stroke="#666666" points="579.38,-250 430.62,-250 430.62,-218 579.38,-218 579.38,-250"/>
<text xml:space="preserve" text-anchor="start" x="438.62" y="-236.5" font-family="Helvetica,sans-Serif" font-size="10.00">AKPTPlayerState::GetReward</text>
<text xml:space="preserve" text-anchor="middle" x="505" y="-224.5" font-family="Helvetica,sans-Serif" font-size="10.00">StateComponent</text>
</a>
</g>
</g>
<!-- Node3&#45;&gt;Node5 -->
<g id="edge5_Node000003_Node000005" class="edge">
<title>Node3&#45;&gt;Node5</title>
<g id="a_edge5_Node000003_Node000005"><a xlink:title=" ">
<path fill="none" stroke="#63b8ff" d="M370.15,-157.44C375.71,-159.92 381.07,-162.75 386,-166 406.82,-179.71 401.22,-195.24 422,-209 423.86,-210.23 425.79,-211.41 427.76,-212.52"/>
<polygon fill="#63b8ff" stroke="#63b8ff" points="426.12,-215.62 436.63,-216.98 429.26,-209.36 426.12,-215.62"/>
</a>
</g>
</g>
<!-- Node6 -->
<g id="Node000006" class="node">
<title>Node6</title>
<g id="a_Node000006"><a xlink:href="class_u_player_reward_state_component.html#a13152160f317ee674b6c1dde2d1bb0e7" target="_top" xlink:title="처리해야 할 보상이 남아있는지 확인합니다.">
<polygon fill="white" stroke="#666666" points="584.25,-182 425.75,-182 425.75,-150 584.25,-150 584.25,-182"/>
<text xml:space="preserve" text-anchor="start" x="433.75" y="-168.5" font-family="Helvetica,sans-Serif" font-size="10.00">UPlayerRewardStateComponent</text>
<text xml:space="preserve" text-anchor="middle" x="505" y="-156.5" font-family="Helvetica,sans-Serif" font-size="10.00">::HasPendingRewards</text>
</a>
</g>
</g>
<!-- Node3&#45;&gt;Node6 -->
<g id="edge7_Node000003_Node000006" class="edge">
<title>Node3&#45;&gt;Node6</title>
<g id="a_edge7_Node000003_Node000006"><a xlink:title=" ">
<path fill="none" stroke="#63b8ff" d="M373.26,-149.78C386.46,-151.42 400.41,-153.15 414.1,-154.85"/>
<polygon fill="#63b8ff" stroke="#63b8ff" points="413.65,-158.32 424.01,-156.08 414.52,-151.37 413.65,-158.32"/>
</a>
</g>
</g>
<!-- Node7 -->
<g id="Node000007" class="node">
<title>Node7</title>
<g id="a_Node000007"><a xlink:href="class_a_k_p_t_in_game_mode.html#a1a9ee04a849c50e213574d166ea3eda5" target="_top" xlink:title="특정 플레이어에게 카드 선택 기회를 제공합니다.">
<polygon fill="white" stroke="#666666" points="573,-132 437,-132 437,-100 573,-100 573,-132"/>
<text xml:space="preserve" text-anchor="start" x="445" y="-118.5" font-family="Helvetica,sans-Serif" font-size="10.00">AKPTInGameMode::Initiate</text>
<text xml:space="preserve" text-anchor="middle" x="505" y="-106.5" font-family="Helvetica,sans-Serif" font-size="10.00">RewardPhaseForPlayer</text>
</a>
</g>
</g>
<!-- Node3&#45;&gt;Node7 -->
<g id="edge9_Node000003_Node000007" class="edge">
<title>Node3&#45;&gt;Node7</title>
<g id="a_edge9_Node000003_Node000007"><a xlink:title=" ">
<path fill="none" stroke="#63b8ff" d="M373.26,-132.22C390.19,-130.12 408.36,-127.87 425.61,-125.73"/>
<polygon fill="#63b8ff" stroke="#63b8ff" points="425.8,-129.23 435.29,-124.52 424.94,-122.28 425.8,-129.23"/>
</a>
</g>
</g>
<!-- Node8 -->
<g id="Node000008" class="node">
<title>Node8</title>
<g id="a_Node000008"><a xlink:href="class_a_k_p_t_in_game_mode.html#a23300b5648c661902a39ec934b2de357" target="_top" xlink:title=" ">
<polygon fill="white" stroke="#666666" points="588,-82 422,-82 422,-50 588,-50 588,-82"/>
<text xml:space="preserve" text-anchor="start" x="430" y="-68.5" font-family="Helvetica,sans-Serif" font-size="10.00">AKPTInGameMode::SetAllPlayers</text>
<text xml:space="preserve" text-anchor="middle" x="505" y="-56.5" font-family="Helvetica,sans-Serif" font-size="10.00">SkillEnabled</text>
</a>
</g>
</g>
<!-- Node3&#45;&gt;Node8 -->
<g id="edge10_Node000003_Node000008" class="edge">
<title>Node3&#45;&gt;Node8</title>
<g id="a_edge10_Node000003_Node000008"><a xlink:title=" ">
<path fill="none" stroke="#63b8ff" d="M339,-124.61C362.47,-114.34 393.76,-101.18 422,-91 426.69,-89.31 431.57,-87.63 436.49,-85.99"/>
<polygon fill="#63b8ff" stroke="#63b8ff" points="437.43,-89.37 445.85,-82.94 435.26,-82.71 437.43,-89.37"/>
</a>
</g>
</g>
<!-- Node10 -->
<g id="Node000010" class="node">
<title>Node10</title>
<g id="a_Node000010"><a xlink:href="class_a_k_p_t_player_state.html#ae76783471e033ac0ece5ebe988856b1b" target="_top" xlink:title="업그레이드 선택 기회를 추가합니다.">
<polygon fill="white" stroke="#666666" points="581.25,-32 428.75,-32 428.75,0 581.25,0 581.25,-32"/>
<text xml:space="preserve" text-anchor="start" x="436.75" y="-18.5" font-family="Helvetica,sans-Serif" font-size="10.00">AKPTPlayerState::SetPersonal</text>
<text xml:space="preserve" text-anchor="middle" x="505" y="-6.5" font-family="Helvetica,sans-Serif" font-size="10.00">StateTag</text>
</a>
</g>
</g>
<!-- Node3&#45;&gt;Node10 -->
<g id="edge13_Node000003_Node000010" class="edge">
<title>Node3&#45;&gt;Node10</title>
<g id="a_edge13_Node000003_Node000010"><a xlink:title=" ">
<path fill="none" stroke="#63b8ff" d="M317.59,-124.82C338.89,-102.88 379.9,-63.8 422,-41 424.67,-39.55 427.43,-38.18 430.26,-36.88"/>
<polygon fill="#63b8ff" stroke="#63b8ff" points="431.47,-40.16 439.32,-33.04 428.75,-33.72 431.47,-40.16"/>
</a>
</g>
</g>
<!-- Node5&#45;&gt;Node5 -->
<g id="edge6_Node000005_Node000005" class="edge">
<title>Node5&#45;&gt;Node5</title>
<g id="a_edge6_Node000005_Node000005"><a xlink:title=" ">
<path fill="none" stroke="#63b8ff" d="M470.41,-250.44C463.95,-259.58 475.48,-268 505,-268 521.14,-268 531.9,-265.48 537.29,-261.71"/>
<polygon fill="#63b8ff" stroke="#63b8ff" points="540.71,-262.42 539.29,-251.93 533.86,-261.02 540.71,-262.42"/>
</a>
</g>
</g>
<!-- Node6&#45;&gt;Node6 -->
<g id="edge8_Node000006_Node000006" class="edge">
<title>Node6&#45;&gt;Node6</title>
<g id="a_edge8_Node000006_Node000006"><a xlink:title=" ">
<path fill="none" stroke="#63b8ff" d="M470.41,-182.44C463.95,-191.58 475.48,-200 505,-200 521.14,-200 531.9,-197.48 537.29,-193.71"/>
<polygon fill="#63b8ff" stroke="#63b8ff" points="540.71,-194.42 539.29,-183.93 533.86,-193.02 540.71,-194.42"/>
</a>
</g>
</g>
<!-- Node9 -->
<g id="Node000009" class="node">
<title>Node9</title>
<g id="a_Node000009"><a xlink:href="class_a_k_p_t_in_game_mode.html#a4d83e6405b91bdefb43aeac062b7b099" target="_top" xlink:title=" ">
<polygon fill="white" stroke="#666666" points="773.5,-175 624,-175 624,-143 773.5,-143 773.5,-175"/>
<text xml:space="preserve" text-anchor="start" x="632" y="-161.5" font-family="Helvetica,sans-Serif" font-size="10.00">AKPTInGameMode::SetPlayer</text>
<text xml:space="preserve" text-anchor="middle" x="698.75" y="-149.5" font-family="Helvetica,sans-Serif" font-size="10.00">SkillEnabled</text>
</a>
</g>
</g>
<!-- Node8&#45;&gt;Node9 -->
<g id="edge11_Node000008_Node000009" class="edge">
<title>Node8&#45;&gt;Node9</title>
<g id="a_edge11_Node000008_Node000009"><a xlink:title=" ">
<path fill="none" stroke="#63b8ff" d="M566.23,-82.39C573.67,-84.99 581.09,-87.87 588,-91 615.62,-103.51 644.7,-121.79 665.98,-136.24"/>
<polygon fill="#63b8ff" stroke="#63b8ff" points="663.71,-138.93 673.93,-141.72 667.68,-133.17 663.71,-138.93"/>
</a>
</g>
</g>
<!-- Node9&#45;&gt;Node4 -->
<g id="edge12_Node000009_Node000004" class="edge">
<title>Node9&#45;&gt;Node4</title>
<g id="a_edge12_Node000009_Node000004"><a xlink:title=" ">
<path fill="none" stroke="#63b8ff" d="M743.26,-175.46C768.01,-184.82 799.22,-196.63 825.52,-206.58"/>
<polygon fill="#63b8ff" stroke="#63b8ff" points="824.07,-209.77 834.66,-210.04 826.55,-203.23 824.07,-209.77"/>
</a>
</g>
</g>
<!-- Node11 -->
<g id="Node000011" class="node">
<title>Node11</title>
<g id="a_Node000011"><a xlink:href="class_a_k_p_t_player_state.html#aa41c46851e05f762ccd8c2fc98aa505a" target="_top" xlink:title=" ">
<polygon fill="white" stroke="#666666" points="763.75,-32 633.75,-32 633.75,0 763.75,0 763.75,-32"/>
<text xml:space="preserve" text-anchor="start" x="641.75" y="-18.5" font-family="Helvetica,sans-Serif" font-size="10.00">AKPTPlayerState::OnRep</text>
<text xml:space="preserve" text-anchor="middle" x="698.75" y="-6.5" font-family="Helvetica,sans-Serif" font-size="10.00">_PersonalStateTag</text>
</a>
</g>
</g>
<!-- Node10&#45;&gt;Node11 -->
<g id="edge14_Node000010_Node000011" class="edge">
<title>Node10&#45;&gt;Node11</title>
<g id="a_edge14_Node000010_Node000011"><a xlink:title=" ">
<path fill="none" stroke="#63b8ff" d="M581.51,-16C594.94,-16 608.92,-16 622.35,-16"/>
<polygon fill="#63b8ff" stroke="#63b8ff" points="621.96,-19.5 631.96,-16 621.96,-12.5 621.96,-19.5"/>
</a>
</g>
</g>
</g>
</svg>

<g id="navigator" transform="translate(0 0)" fill="#404254">
  <rect fill="#f2f5e9" fill-opacity="0.5" stroke="#606060" stroke-width=".5" x="0" y="0" width="60" height="60"/>
  <use id="zoomplus" xlink:href="#zoomPlus" x="17" y="9" onmousedown="handleZoom(evt,'in')"/>
  <use id="zoomminus" xlink:href="#zoomMin" x="42" y="9" onmousedown="handleZoom(evt,'out')"/>
  <use id="reset" xlink:href="#resetDef" x="30" y="36" onmousedown="handleReset()"/>
   <use id="arrowup" xlink:href="#arrowUp" x="0" y="0" onmousedown="handlePan(0,-1)"/>
  <use id="arrowright" xlink:href="#arrowRight" x="0" y="0" onmousedown="handlePan(1,0)"/>
  <use id="arrowdown" xlink:href="#arrowDown" x="0" y="0" onmousedown="handlePan(0,1)"/>
  <use id="arrowleft" xlink:href="#arrowLeft" x="0" y="0" onmousedown="handlePan(-1,0)"/>
</g>
<svg viewBox="0 0 15 15" width="100%" height="30px" preserveAspectRatio="xMaxYMin meet">
 <g id="arrow_out" transform="scale(0.3 0.3)">
  <a xlink:href="class_a_k_p_t_in_game_mode_ac4cacdaa16686d29b0f27a2dd65da50a_cgraph_org.svg" target="_base">
   <rect id="button" ry="5" rx="5" y="6" x="6" height="38" width="38"
        fill="#f2f5e9" fill-opacity="0.5" stroke="#606060" stroke-width="1.0"/>
   <path id="arrow"
     d="M 11.500037,31.436501 C 11.940474,20.09759 22.043105,11.32322 32.158766,21.979434 L 37.068811,17.246167 C 37.068811,17.246167 37.088388,32 37.088388,32 L 22.160133,31.978069 C 22.160133,31.978069 26.997745,27.140456 26.997745,27.140456 C 18.528582,18.264221 13.291696,25.230495 11.500037,31.436501 z"
     style="fill:#404040;"/>
  </a>
 </g>
</svg>

<style type='text/css'>
<![CDATA[
[data-mouse-over-selected='false'] { opacity: 0.7; }
[data-mouse-over-selected='true']  { opacity: 1.0; }
]]>
</style>
<script type="application/ecmascript"><![CDATA[
document.addEventListener('DOMContentLoaded', (event) => {
  highlightEdges();
  highlightAdjacentNodes();
});
]]></script>
</svg>
