<?xml version="1.0" encoding="UTF-8" standalone="no"?>
<!DOCTYPE svg PUBLIC "-//W3C//DTD SVG 1.1//EN"
 "http://www.w3.org/Graphics/SVG/1.1/DTD/svg11.dtd">
<!-- Generated by graphviz version 13.1.1 (20250719.2154)
 -->
<!-- Title: UPlayerShopInteractorComponent Pages: 1 -->
<svg width="181pt" height="280pt"
 viewBox="0.00 0.00 181.00 280.00" xmlns="http://www.w3.org/2000/svg" xmlns:xlink="http://www.w3.org/1999/xlink">

<svg id="main" version="1.1" xmlns="http://www.w3.org/2000/svg" xmlns:xlink="http://www.w3.org/1999/xlink" xml:space="preserve">

<style type="text/css"><![CDATA[
.node, .edge {opacity: 0.7;}
.node.selected, .edge.selected {opacity: 1;}
.edge:hover path { stroke: red; }
.edge:hover polygon { stroke: red; fill: red; }
]]></style>
<script type="application/ecmascript" xlink:href="svg.min.js"/>
<svg id="graph" class="graph">
<g id="graph0" class="graph" transform="scale(1 1) rotate(0) translate(4 276)">
<title>UPlayerShopInteractorComponent</title>
<!-- Node1 -->
<g id="Node000001" class="node">
<title>Node1</title>
<g id="a_Node000001"><a xlink:title=" ">
<polygon fill="#999999" stroke="none" points="173.25,-184 0,-184 0,0 173.25,0 173.25,-184"/>
<text xml:space="preserve" text-anchor="start" x="12" y="-170.5" font-family="Helvetica,sans-Serif" font-size="10.00">UPlayerShopInteractorComponent</text>
<text xml:space="preserve" text-anchor="start" x="85.12" y="-154.5" font-family="Helvetica,sans-Serif" font-size="10.00"> </text>
<text xml:space="preserve" text-anchor="start" x="4" y="-138.5" font-family="Helvetica,sans-Serif" font-size="10.00">+</text>
<text xml:space="preserve" text-anchor="start" x="14" y="-138.5" font-family="Helvetica,sans-Serif" font-size="10.00">UPlayerShopInteractorComponent()</text>
<text xml:space="preserve" text-anchor="start" x="4" y="-122.5" font-family="Helvetica,sans-Serif" font-size="10.00">+</text>
<text xml:space="preserve" text-anchor="start" x="14" y="-122.5" font-family="Helvetica,sans-Serif" font-size="10.00">void RequestPurchaseItem</text>
<text xml:space="preserve" text-anchor="start" x="14" y="-110.5" font-family="Helvetica,sans-Serif" font-size="10.00">(FName ItemID)</text>
<text xml:space="preserve" text-anchor="start" x="4" y="-94.5" font-family="Helvetica,sans-Serif" font-size="10.00">+</text>
<text xml:space="preserve" text-anchor="start" x="14" y="-94.5" font-family="Helvetica,sans-Serif" font-size="10.00">void RequestReadyForNight()</text>
<text xml:space="preserve" text-anchor="start" x="4" y="-78.5" font-family="Helvetica,sans-Serif" font-size="10.00">+</text>
<text xml:space="preserve" text-anchor="start" x="14" y="-78.5" font-family="Helvetica,sans-Serif" font-size="10.00">void RequestReroll()</text>
<text xml:space="preserve" text-anchor="start" x="4.38" y="-62.5" font-family="Helvetica,sans-Serif" font-size="10.00">#</text>
<text xml:space="preserve" text-anchor="start" x="14" y="-62.5" font-family="Helvetica,sans-Serif" font-size="10.00">void Server_RequestPurchase</text>
<text xml:space="preserve" text-anchor="start" x="14" y="-50.5" font-family="Helvetica,sans-Serif" font-size="10.00">Item(FName ItemID)</text>
<text xml:space="preserve" text-anchor="start" x="4.38" y="-34.5" font-family="Helvetica,sans-Serif" font-size="10.00">#</text>
<text xml:space="preserve" text-anchor="start" x="14" y="-34.5" font-family="Helvetica,sans-Serif" font-size="10.00">void Server_RequestReady</text>
<text xml:space="preserve" text-anchor="start" x="14" y="-22.5" font-family="Helvetica,sans-Serif" font-size="10.00">ForNight()</text>
<text xml:space="preserve" text-anchor="start" x="4.38" y="-6.5" font-family="Helvetica,sans-Serif" font-size="10.00">#</text>
<text xml:space="preserve" text-anchor="start" x="14" y="-6.5" font-family="Helvetica,sans-Serif" font-size="10.00">void Server_RequestReroll()</text>
<polygon fill="#666666" stroke="#666666" points="0,-166 0,-166 173.25,-166 173.25,-166 0,-166"/>
<polygon fill="#666666" stroke="#666666" points="0,-150 0,-150 173.25,-150 173.25,-150 0,-150"/>
<polygon fill="none" stroke="#666666" points="0,0 0,-184 173.25,-184 173.25,0 0,0"/>
</a>
</g>
</g>
<!-- Node2 -->
<g id="Node000002" class="node">
<title>Node2</title>
<g id="a_Node000002"><a xlink:title=" ">
<polygon fill="white" stroke="none" points="131.12,-272 42.12,-272 42.12,-220 131.12,-220 131.12,-272"/>
<text xml:space="preserve" text-anchor="start" x="46.12" y="-258.5" font-family="Helvetica,sans-Serif" font-size="10.00">UActorComponent</text>
<text xml:space="preserve" text-anchor="start" x="85.12" y="-242.5" font-family="Helvetica,sans-Serif" font-size="10.00"> </text>
<text xml:space="preserve" text-anchor="start" x="85.12" y="-226.5" font-family="Helvetica,sans-Serif" font-size="10.00"> </text>
<polygon fill="#666666" stroke="#666666" points="42.12,-254 42.12,-254 131.12,-254 131.12,-254 42.12,-254"/>
<polygon fill="#666666" stroke="#666666" points="42.12,-238 42.12,-238 131.12,-238 131.12,-238 42.12,-238"/>
<polygon fill="none" stroke="#666666" points="42.12,-220 42.12,-272 131.12,-272 131.12,-220 42.12,-220"/>
</a>
</g>
</g>
<!-- Node2&#45;&gt;Node1 -->
<g id="edge1_Node000001_Node000002" class="edge">
<title>Node2&#45;&gt;Node1</title>
<g id="a_edge1_Node000001_Node000002"><a xlink:title=" ">
<path fill="none" stroke="#63b8ff" d="M86.62,-208.8C86.62,-201.07 86.62,-192.58 86.62,-183.82"/>
<polygon fill="none" stroke="#63b8ff" points="83.13,-208.73 86.63,-218.73 90.13,-208.73 83.13,-208.73"/>
</a>
</g>
</g>
</g>
</svg>
</svg>

<style type='text/css'>
<![CDATA[
[data-mouse-over-selected='false'] { opacity: 0.7; }
[data-mouse-over-selected='true']  { opacity: 1.0; }
]]>
</style>
<script type="application/ecmascript"><![CDATA[
document.addEventListener('DOMContentLoaded', (event) => {
  highlightEdges();
  highlightAdjacentNodes();
});
]]></script>
</svg>
