<?xml version="1.0" encoding="UTF-8" standalone="no"?>
<!DOCTYPE svg PUBLIC "-//W3C//DTD SVG 1.1//EN"
 "http://www.w3.org/Graphics/SVG/1.1/DTD/svg11.dtd">
<!-- Generated by graphviz version 13.1.1 (20250719.2154)
 -->
<!-- Title: APlayerCharacter::Damaged Pages: 1 -->
<svg width="337pt" height="114pt"
 viewBox="0.00 0.00 337.00 114.00" xmlns="http://www.w3.org/2000/svg" xmlns:xlink="http://www.w3.org/1999/xlink">
<g id="graph0" class="graph" transform="scale(1 1) rotate(0) translate(4 110)">
<title>APlayerCharacter::Damaged</title>
<!-- Node1 -->
<g id="Node000001" class="node">
<title>Node1</title>
<g id="a_Node000001"><a xlink:title=" ">
<polygon fill="#999999" stroke="#666666" points="141.25,-51 0,-51 0,-31 141.25,-31 141.25,-51"/>
<text xml:space="preserve" text-anchor="middle" x="70.62" y="-37.5" font-family="Helvetica,sans-Serif" font-size="10.00">APlayerCharacter::Damaged</text>
</a>
</g>
</g>
<!-- Node2 -->
<g id="Node000002" class="node">
<title>Node2</title>
<g id="a_Node000002"><a xlink:href="class_a_player_character.html#ab7ccbfb071937c5339eac6f6940581e2" target="_top" xlink:title=" ">
<polygon fill="white" stroke="#666666" points="315.5,-88 190.75,-88 190.75,-56 315.5,-56 315.5,-88"/>
<text xml:space="preserve" text-anchor="start" x="198.75" y="-74.5" font-family="Helvetica,sans-Serif" font-size="10.00">APlayerCharacter::Client</text>
<text xml:space="preserve" text-anchor="middle" x="253.12" y="-62.5" font-family="Helvetica,sans-Serif" font-size="10.00">CameraShake</text>
</a>
</g>
</g>
<!-- Node1&#45;&gt;Node2 -->
<g id="edge1_Node000001_Node000002" class="edge">
<title>Node1&#45;&gt;Node2</title>
<g id="a_edge1_Node000001_Node000002"><a xlink:title=" ">
<path fill="none" stroke="#63b8ff" d="M132.73,-51.5C147.71,-54.07 163.89,-56.85 179.36,-59.5"/>
<polygon fill="#63b8ff" stroke="#63b8ff" points="178.52,-62.91 188.97,-61.15 179.71,-56.01 178.52,-62.91"/>
</a>
</g>
</g>
<!-- Node3 -->
<g id="Node000003" class="node">
<title>Node3</title>
<g id="a_Node000003"><a xlink:href="class_a_player_character.html#ae3429aa543253b57ae10136e0eb5fd26" target="_top" xlink:title=" ">
<polygon fill="white" stroke="#666666" points="329,-20 177.25,-20 177.25,0 329,0 329,-20"/>
<text xml:space="preserve" text-anchor="middle" x="253.12" y="-6.5" font-family="Helvetica,sans-Serif" font-size="10.00">APlayerCharacter::MulticastHit</text>
</a>
</g>
</g>
<!-- Node1&#45;&gt;Node3 -->
<g id="edge3_Node000001_Node000003" class="edge">
<title>Node1&#45;&gt;Node3</title>
<g id="a_edge3_Node000001_Node000003"><a xlink:title=" ">
<path fill="none" stroke="#63b8ff" d="M132.73,-30.5C147.88,-27.9 164.25,-25.09 179.87,-22.41"/>
<polygon fill="#63b8ff" stroke="#63b8ff" points="180.32,-25.88 189.59,-20.74 179.14,-18.98 180.32,-25.88"/>
</a>
</g>
</g>
<!-- Node2&#45;&gt;Node2 -->
<g id="edge2_Node000002_Node000002" class="edge">
<title>Node2&#45;&gt;Node2</title>
<g id="a_edge2_Node000002_Node000002"><a xlink:title=" ">
<path fill="none" stroke="#63b8ff" d="M220.54,-88.44C214.46,-97.58 225.32,-106 253.12,-106 268.33,-106 278.47,-103.48 283.54,-99.71"/>
<polygon fill="#63b8ff" stroke="#63b8ff" points="286.97,-100.41 285.42,-89.93 280.09,-99.09 286.97,-100.41"/>
</a>
</g>
</g>
<!-- Node3&#45;&gt;Node3 -->
<g id="edge4_Node000003_Node000003" class="edge">
<title>Node3&#45;&gt;Node3</title>
<g id="a_edge4_Node000003_Node000003"><a xlink:title=" ">
<path fill="none" stroke="#63b8ff" d="M224.13,-20.34C211.74,-28.98 221.4,-38 253.12,-38 270.97,-38 281.83,-35.14 285.72,-31.11"/>
<polygon fill="#63b8ff" stroke="#63b8ff" points="289.09,-30.15 282.6,-21.77 282.45,-32.37 289.09,-30.15"/>
</a>
</g>
</g>
</g>
</svg>
