<?xml version="1.0" encoding="UTF-8" standalone="no"?>
<!DOCTYPE svg PUBLIC "-//W3C//DTD SVG 1.1//EN"
 "http://www.w3.org/Graphics/SVG/1.1/DTD/svg11.dtd">
<!-- Generated by graphviz version 13.1.1 (20250719.2154)
 -->
<!-- Title: UTransitionUI Pages: 1 -->
<svg width="171pt" height="484pt"
 viewBox="0.00 0.00 171.00 484.00" xmlns="http://www.w3.org/2000/svg" xmlns:xlink="http://www.w3.org/1999/xlink">
<g id="graph0" class="graph" transform="scale(1 1) rotate(0) translate(4 480)">
<title>UTransitionUI</title>
<!-- Node1 -->
<g id="Node000001" class="node">
<title>Node1</title>
<g id="a_Node000001"><a xlink:title=" ">
<polygon fill="#999999" stroke="none" points="162.38,-176 0.38,-176 0.38,0 162.38,0 162.38,-176"/>
<text xml:space="preserve" text-anchor="start" x="51" y="-162.5" font-family="Helvetica,sans-Serif" font-size="10.00">UTransitionUI</text>
<text xml:space="preserve" text-anchor="start" x="4.38" y="-146.5" font-family="Helvetica,sans-Serif" font-size="10.00">#</text>
<text xml:space="preserve" text-anchor="start" x="13.62" y="-146.5" font-family="Helvetica,sans-Serif" font-size="10.00">FWidgetAnimationDynamicEvent</text>
<text xml:space="preserve" text-anchor="start" x="13.62" y="-134.5" font-family="Helvetica,sans-Serif" font-size="10.00"> AnimationFinishEvent</text>
<text xml:space="preserve" text-anchor="start" x="4.38" y="-118.5" font-family="Helvetica,sans-Serif" font-size="10.00">#</text>
<text xml:space="preserve" text-anchor="start" x="13.62" y="-118.5" font-family="Helvetica,sans-Serif" font-size="10.00">TObjectPtr&lt; UWidgetAnimation</text>
<text xml:space="preserve" text-anchor="start" x="13.62" y="-106.5" font-family="Helvetica,sans-Serif" font-size="10.00"> &gt; FadeInAnimation</text>
<text xml:space="preserve" text-anchor="start" x="4.38" y="-90.5" font-family="Helvetica,sans-Serif" font-size="10.00">#</text>
<text xml:space="preserve" text-anchor="start" x="13.62" y="-90.5" font-family="Helvetica,sans-Serif" font-size="10.00">void HandleAnimationFinished()</text>
<text xml:space="preserve" text-anchor="start" x="4.38" y="-74.5" font-family="Helvetica,sans-Serif" font-size="10.00">#</text>
<text xml:space="preserve" text-anchor="start" x="13.62" y="-74.5" font-family="Helvetica,sans-Serif" font-size="10.00">virtual void NativeConstruct</text>
<text xml:space="preserve" text-anchor="start" x="13.62" y="-62.5" font-family="Helvetica,sans-Serif" font-size="10.00">() override</text>
<text xml:space="preserve" text-anchor="start" x="4.38" y="-46.5" font-family="Helvetica,sans-Serif" font-size="10.00">#</text>
<text xml:space="preserve" text-anchor="start" x="13.62" y="-46.5" font-family="Helvetica,sans-Serif" font-size="10.00">virtual void NativeDestruct</text>
<text xml:space="preserve" text-anchor="start" x="13.62" y="-34.5" font-family="Helvetica,sans-Serif" font-size="10.00">() override</text>
<text xml:space="preserve" text-anchor="start" x="4.38" y="-18.5" font-family="Helvetica,sans-Serif" font-size="10.00">#</text>
<text xml:space="preserve" text-anchor="start" x="13.62" y="-18.5" font-family="Helvetica,sans-Serif" font-size="10.00">virtual void NativePreConstruct</text>
<text xml:space="preserve" text-anchor="start" x="13.62" y="-6.5" font-family="Helvetica,sans-Serif" font-size="10.00">() override</text>
<polygon fill="#666666" stroke="#666666" points="0.38,-158 0.38,-158 162.38,-158 162.38,-158 0.38,-158"/>
<polygon fill="#666666" stroke="#666666" points="0.38,-102 0.38,-102 11.62,-102 11.62,-102 0.38,-102"/>
<polygon fill="#666666" stroke="#666666" points="11.62,-102 11.62,-102 162.38,-102 162.38,-102 11.62,-102"/>
<polygon fill="none" stroke="#666666" points="0.38,0 0.38,-176 162.38,-176 162.38,0 0.38,0"/>
</a>
</g>
</g>
<!-- Node2 -->
<g id="Node000002" class="node">
<title>Node2</title>
<g id="a_Node000002"><a xlink:href="class_u_u_i_base.html" target="_top" xlink:title=" ">
<polygon fill="white" stroke="none" points="162.75,-388 0,-388 0,-212 162.75,-212 162.75,-388"/>
<text xml:space="preserve" text-anchor="start" x="61.12" y="-374.5" font-family="Helvetica,sans-Serif" font-size="10.00">UUIBase</text>
<text xml:space="preserve" text-anchor="start" x="4.38" y="-358.5" font-family="Helvetica,sans-Serif" font-size="10.00">#</text>
<text xml:space="preserve" text-anchor="start" x="14" y="-358.5" font-family="Helvetica,sans-Serif" font-size="10.00">FWidgetAnimationDynamicEvent</text>
<text xml:space="preserve" text-anchor="start" x="14" y="-346.5" font-family="Helvetica,sans-Serif" font-size="10.00"> AnimationFinishEvent</text>
<text xml:space="preserve" text-anchor="start" x="4" y="-330.5" font-family="Helvetica,sans-Serif" font-size="10.00">+</text>
<text xml:space="preserve" text-anchor="start" x="14" y="-330.5" font-family="Helvetica,sans-Serif" font-size="10.00">UUIManagerSubsystem</text>
<text xml:space="preserve" text-anchor="start" x="14" y="-318.5" font-family="Helvetica,sans-Serif" font-size="10.00"> * GetUIManagerSubsystem()</text>
<text xml:space="preserve" text-anchor="start" x="4" y="-302.5" font-family="Helvetica,sans-Serif" font-size="10.00">+</text>
<text xml:space="preserve" text-anchor="start" x="14" y="-302.5" font-family="Helvetica,sans-Serif" font-size="10.00">virtual void LateInit()</text>
<text xml:space="preserve" text-anchor="start" x="4.38" y="-286.5" font-family="Helvetica,sans-Serif" font-size="10.00">#</text>
<text xml:space="preserve" text-anchor="start" x="14" y="-286.5" font-family="Helvetica,sans-Serif" font-size="10.00">virtual void NativeConstruct</text>
<text xml:space="preserve" text-anchor="start" x="14" y="-274.5" font-family="Helvetica,sans-Serif" font-size="10.00">() override</text>
<text xml:space="preserve" text-anchor="start" x="4.38" y="-258.5" font-family="Helvetica,sans-Serif" font-size="10.00">#</text>
<text xml:space="preserve" text-anchor="start" x="14" y="-258.5" font-family="Helvetica,sans-Serif" font-size="10.00">virtual void NativeDestruct</text>
<text xml:space="preserve" text-anchor="start" x="14" y="-246.5" font-family="Helvetica,sans-Serif" font-size="10.00">() override</text>
<text xml:space="preserve" text-anchor="start" x="4.38" y="-230.5" font-family="Helvetica,sans-Serif" font-size="10.00">#</text>
<text xml:space="preserve" text-anchor="start" x="14" y="-230.5" font-family="Helvetica,sans-Serif" font-size="10.00">virtual void NativePreConstruct</text>
<text xml:space="preserve" text-anchor="start" x="14" y="-218.5" font-family="Helvetica,sans-Serif" font-size="10.00">() override</text>
<polygon fill="#666666" stroke="#666666" points="0,-370 0,-370 162.75,-370 162.75,-370 0,-370"/>
<polygon fill="#666666" stroke="#666666" points="0,-342 0,-342 12,-342 12,-342 0,-342"/>
<polygon fill="#666666" stroke="#666666" points="12,-342 12,-342 162.75,-342 162.75,-342 12,-342"/>
<polygon fill="none" stroke="#666666" points="0,-212 0,-388 162.75,-388 162.75,-212 0,-212"/>
</a>
</g>
</g>
<!-- Node2&#45;&gt;Node1 -->
<g id="edge1_Node000001_Node000002" class="edge">
<title>Node2&#45;&gt;Node1</title>
<g id="a_edge1_Node000001_Node000002"><a xlink:title=" ">
<path fill="none" stroke="#63b8ff" d="M81.38,-200.78C81.38,-192.46 81.38,-184.09 81.38,-175.87"/>
<polygon fill="none" stroke="#63b8ff" points="77.88,-200.56 81.38,-210.56 84.88,-200.56 77.88,-200.56"/>
</a>
</g>
</g>
<!-- Node3 -->
<g id="Node000003" class="node">
<title>Node3</title>
<g id="a_Node000003"><a xlink:title=" ">
<polygon fill="white" stroke="none" points="115,-476 47.75,-476 47.75,-424 115,-424 115,-476"/>
<text xml:space="preserve" text-anchor="start" x="51.75" y="-462.5" font-family="Helvetica,sans-Serif" font-size="10.00">UUserWidget</text>
<text xml:space="preserve" text-anchor="start" x="79.88" y="-446.5" font-family="Helvetica,sans-Serif" font-size="10.00"> </text>
<text xml:space="preserve" text-anchor="start" x="79.88" y="-430.5" font-family="Helvetica,sans-Serif" font-size="10.00"> </text>
<polygon fill="#666666" stroke="#666666" points="47.75,-458 47.75,-458 115,-458 115,-458 47.75,-458"/>
<polygon fill="#666666" stroke="#666666" points="47.75,-442 47.75,-442 115,-442 115,-442 47.75,-442"/>
<polygon fill="none" stroke="#666666" points="47.75,-424 47.75,-476 115,-476 115,-424 47.75,-424"/>
</a>
</g>
</g>
<!-- Node3&#45;&gt;Node2 -->
<g id="edge2_Node000002_Node000003" class="edge">
<title>Node3&#45;&gt;Node2</title>
<g id="a_edge2_Node000002_Node000003"><a xlink:title=" ">
<path fill="none" stroke="#63b8ff" d="M81.38,-412.77C81.38,-405.04 81.38,-396.56 81.38,-387.83"/>
<polygon fill="none" stroke="#63b8ff" points="77.88,-412.71 81.38,-422.71 84.88,-412.71 77.88,-412.71"/>
</a>
</g>
</g>
</g>
</svg>
