<?xml version="1.0" encoding="UTF-8" standalone="no"?>
<!DOCTYPE svg PUBLIC "-//W3C//DTD SVG 1.1//EN"
 "http://www.w3.org/Graphics/SVG/1.1/DTD/svg11.dtd">
<!-- Generated by graphviz version 13.1.1 (20250719.2154)
 -->
<!-- Title: UItemSlotUI::CancelHideTooltipTimer Pages: 1 -->
<svg width="531pt" height="106pt"
 viewBox="0.00 0.00 531.00 106.00" xmlns="http://www.w3.org/2000/svg" xmlns:xlink="http://www.w3.org/1999/xlink">
<g id="graph0" class="graph" transform="scale(1 1) rotate(0) translate(4 102)">
<title>UItemSlotUI::CancelHideTooltipTimer</title>
<!-- Node1 -->
<g id="Node000001" class="node">
<title>Node1</title>
<g id="a_Node000001"><a xlink:title=" ">
<polygon fill="#999999" stroke="#666666" points="522.75,-54 366.5,-54 366.5,-22 522.75,-22 522.75,-54"/>
<text xml:space="preserve" text-anchor="start" x="374.5" y="-40.5" font-family="Helvetica,sans-Serif" font-size="10.00">UItemSlotUI::CancelHideTooltip</text>
<text xml:space="preserve" text-anchor="middle" x="444.62" y="-28.5" font-family="Helvetica,sans-Serif" font-size="10.00">Timer</text>
</a>
</g>
</g>
<!-- Node2 -->
<g id="Node000002" class="node">
<title>Node2</title>
<g id="a_Node000002"><a xlink:href="class_u_item_slot_u_i.html#a7de6ada872906bb5f597e74aa2dd7779" target="_top" xlink:title=" ">
<polygon fill="white" stroke="#666666" points="319.62,-70 194.12,-70 194.12,-50 319.62,-50 319.62,-70"/>
<text xml:space="preserve" text-anchor="middle" x="256.88" y="-56.5" font-family="Helvetica,sans-Serif" font-size="10.00">UItemSlotUI::HideTooltip</text>
</a>
</g>
</g>
<!-- Node1&#45;&gt;Node2 -->
<g id="edge1_Node000001_Node000002" class="edge">
<title>Node1&#45;&gt;Node2</title>
<g id="a_edge1_Node000001_Node000002"><a xlink:title=" ">
<path fill="none" stroke="#63b8ff" d="M354.91,-48.51C343.08,-49.91 331.16,-51.32 319.92,-52.65"/>
<polygon fill="#63b8ff" stroke="#63b8ff" points="355.17,-52 364.69,-47.35 354.35,-45.05 355.17,-52"/>
</a>
</g>
</g>
<!-- Node5 -->
<g id="Node000005" class="node">
<title>Node5</title>
<g id="a_Node000005"><a xlink:href="class_u_item_slot_u_i.html#aa98a4cd4efa1b7ca7c541bb53c583223" target="_top" xlink:title=" ">
<polygon fill="white" stroke="#666666" points="330.5,-32 183.25,-32 183.25,0 330.5,0 330.5,-32"/>
<text xml:space="preserve" text-anchor="start" x="191.25" y="-18.5" font-family="Helvetica,sans-Serif" font-size="10.00">UItemSlotUI::NativeOnMouse</text>
<text xml:space="preserve" text-anchor="middle" x="256.88" y="-6.5" font-family="Helvetica,sans-Serif" font-size="10.00">Enter</text>
</a>
</g>
</g>
<!-- Node1&#45;&gt;Node5 -->
<g id="edge4_Node000001_Node000005" class="edge">
<title>Node1&#45;&gt;Node5</title>
<g id="a_edge4_Node000001_Node000005"><a xlink:title=" ">
<path fill="none" stroke="#63b8ff" d="M354.83,-27.48C346.75,-26.53 338.63,-25.56 330.72,-24.63"/>
<polygon fill="#63b8ff" stroke="#63b8ff" points="354.35,-30.95 364.69,-28.65 355.17,-24 354.35,-30.95"/>
</a>
</g>
</g>
<!-- Node3 -->
<g id="Node000003" class="node">
<title>Node3</title>
<g id="a_Node000003"><a xlink:href="class_u_item_slot_u_i.html#a9ef307fd2a44bbbe6cbf8803a0c7e1da" target="_top" xlink:title=" ">
<polygon fill="white" stroke="#666666" points="147.25,-98 0,-98 0,-66 147.25,-66 147.25,-98"/>
<text xml:space="preserve" text-anchor="start" x="8" y="-84.5" font-family="Helvetica,sans-Serif" font-size="10.00">UItemSlotUI::NativeOnMouse</text>
<text xml:space="preserve" text-anchor="middle" x="73.62" y="-72.5" font-family="Helvetica,sans-Serif" font-size="10.00">Leave</text>
</a>
</g>
</g>
<!-- Node2&#45;&gt;Node3 -->
<g id="edge2_Node000002_Node000003" class="edge">
<title>Node2&#45;&gt;Node3</title>
<g id="a_edge2_Node000002_Node000003"><a xlink:title=" ">
<path fill="none" stroke="#63b8ff" d="M182.42,-68.92C170.94,-70.31 159.07,-71.75 147.6,-73.14"/>
<polygon fill="#63b8ff" stroke="#63b8ff" points="182.74,-72.4 192.25,-67.72 181.9,-65.45 182.74,-72.4"/>
</a>
</g>
</g>
<!-- Node4 -->
<g id="Node000004" class="node">
<title>Node4</title>
<g id="a_Node000004"><a xlink:href="class_u_item_slot_u_i.html#ad9253b75b68c4fb680a6336cfcedd8f1" target="_top" xlink:title=" ">
<polygon fill="white" stroke="#666666" points="130,-48 17.25,-48 17.25,-28 130,-28 130,-48"/>
<text xml:space="preserve" text-anchor="middle" x="73.62" y="-34.5" font-family="Helvetica,sans-Serif" font-size="10.00">UItemSlotUI::SellItem</text>
</a>
</g>
</g>
<!-- Node2&#45;&gt;Node4 -->
<g id="edge3_Node000002_Node000004" class="edge">
<title>Node2&#45;&gt;Node4</title>
<g id="a_edge3_Node000002_Node000004"><a xlink:title=" ">
<path fill="none" stroke="#63b8ff" d="M182.47,-51.09C165.05,-48.98 146.76,-46.76 130.29,-44.76"/>
<polygon fill="#63b8ff" stroke="#63b8ff" points="181.9,-54.55 192.25,-52.28 182.74,-47.6 181.9,-54.55"/>
</a>
</g>
</g>
</g>
</svg>
