<?xml version="1.0" encoding="UTF-8" standalone="no"?>
<!DOCTYPE svg PUBLIC "-//W3C//DTD SVG 1.1//EN"
 "http://www.w3.org/Graphics/SVG/1.1/DTD/svg11.dtd">
<!-- Generated by graphviz version 13.1.1 (20250719.2154)
 -->
<!-- Title: AExperience::On_RepSpawning Pages: 1 -->
<svg width="526pt" height="99pt"
 viewBox="0.00 0.00 526.00 99.00" xmlns="http://www.w3.org/2000/svg" xmlns:xlink="http://www.w3.org/1999/xlink">
<g id="graph0" class="graph" transform="scale(1 1) rotate(0) translate(4 95)">
<title>AExperience::On_RepSpawning</title>
<!-- Node1 -->
<g id="Node000001" class="node">
<title>Node1</title>
<g id="a_Node000001"><a xlink:title=" ">
<polygon fill="#999999" stroke="#666666" points="517.5,-51 361.25,-51 361.25,-31 517.5,-31 517.5,-51"/>
<text xml:space="preserve" text-anchor="middle" x="439.38" y="-37.5" font-family="Helvetica,sans-Serif" font-size="10.00">AExperience::On_RepSpawning</text>
</a>
</g>
</g>
<!-- Node2 -->
<g id="Node000002" class="node">
<title>Node2</title>
<g id="a_Node000002"><a xlink:href="class_a_experience.html#a1a5a05df41047f89a3b88d7198a647a0" target="_top" xlink:title=" ">
<polygon fill="white" stroke="#666666" points="321.88,-73 188.88,-73 188.88,-53 321.88,-53 321.88,-73"/>
<text xml:space="preserve" text-anchor="middle" x="255.38" y="-59.5" font-family="Helvetica,sans-Serif" font-size="10.00">AExperience::OnReturnBP</text>
</a>
</g>
</g>
<!-- Node1&#45;&gt;Node2 -->
<g id="edge1_Node000001_Node000002" class="edge">
<title>Node1&#45;&gt;Node2</title>
<g id="a_edge1_Node000001_Node000002"><a xlink:title=" ">
<path fill="none" stroke="#63b8ff" d="M349.7,-51.72C340.46,-52.84 331.19,-53.96 322.27,-55.03"/>
<polygon fill="#63b8ff" stroke="#63b8ff" points="349.92,-55.22 359.42,-50.54 349.08,-48.27 349.92,-55.22"/>
</a>
</g>
</g>
<!-- Node4 -->
<g id="Node000004" class="node">
<title>Node4</title>
<g id="a_Node000004"><a xlink:href="class_a_experience.html#a8ba86a0ba648d05b8b177594ee7cf3f2" target="_top" xlink:title=" ">
<polygon fill="white" stroke="#666666" points="325.25,-32 185.5,-32 185.5,-12 325.25,-12 325.25,-32"/>
<text xml:space="preserve" text-anchor="middle" x="255.38" y="-18.5" font-family="Helvetica,sans-Serif" font-size="10.00">AExperience::SetSpawnPos</text>
</a>
</g>
</g>
<!-- Node1&#45;&gt;Node4 -->
<g id="edge4_Node000001_Node000004" class="edge">
<title>Node1&#45;&gt;Node4</title>
<g id="a_edge4_Node000001_Node000004"><a xlink:title=" ">
<path fill="none" stroke="#63b8ff" d="M349.61,-31.73C341.57,-30.89 333.52,-30.05 325.69,-29.24"/>
<polygon fill="#63b8ff" stroke="#63b8ff" points="349.11,-35.2 359.42,-32.76 349.84,-28.24 349.11,-35.2"/>
</a>
</g>
</g>
<!-- Node2&#45;&gt;Node2 -->
<g id="edge2_Node000002_Node000002" class="edge">
<title>Node2&#45;&gt;Node2</title>
<g id="a_edge2_Node000002_Node000002"><a xlink:title=" ">
<path fill="none" stroke="#63b8ff" d="M287.64,-84.11C283.79,-88.14 273.04,-91 255.38,-91 223.98,-91 214.41,-81.98 226.68,-73.34"/>
<polygon fill="#63b8ff" stroke="#63b8ff" points="291.01,-83.17 284.55,-74.78 284.37,-85.37 291.01,-83.17"/>
</a>
</g>
</g>
<!-- Node3 -->
<g id="Node000003" class="node">
<title>Node3</title>
<g id="a_Node000003"><a xlink:href="class_a_experience.html#a6e06a7ca0defd466c4a1fe470fb5c8c4" target="_top" xlink:title=" ">
<polygon fill="white" stroke="#666666" points="149.5,-82 0,-82 0,-50 149.5,-50 149.5,-82"/>
<text xml:space="preserve" text-anchor="start" x="8" y="-68.5" font-family="Helvetica,sans-Serif" font-size="10.00">AExperience::OnReturnToPool</text>
<text xml:space="preserve" text-anchor="middle" x="74.75" y="-56.5" font-family="Helvetica,sans-Serif" font-size="10.00">_Implementation</text>
</a>
</g>
</g>
<!-- Node2&#45;&gt;Node3 -->
<g id="edge3_Node000002_Node000003" class="edge">
<title>Node2&#45;&gt;Node3</title>
<g id="a_edge3_Node000002_Node000003"><a xlink:title=" ">
<path fill="none" stroke="#63b8ff" d="M177.22,-64.3C168.12,-64.45 158.86,-64.6 149.8,-64.76"/>
<polygon fill="#63b8ff" stroke="#63b8ff" points="177.17,-67.8 187.11,-64.13 177.05,-60.8 177.17,-67.8"/>
</a>
</g>
</g>
<!-- Node5 -->
<g id="Node000005" class="node">
<title>Node5</title>
<g id="a_Node000005"><a xlink:href="class_a_experience.html#a11c31677042e4c9828d3b1ae49b16a0b" target="_top" xlink:title=" ">
<polygon fill="white" stroke="#666666" points="146.12,-32 3.38,-32 3.38,0 146.12,0 146.12,-32"/>
<text xml:space="preserve" text-anchor="start" x="11.38" y="-18.5" font-family="Helvetica,sans-Serif" font-size="10.00">AExperience::OnSpawnFrom</text>
<text xml:space="preserve" text-anchor="middle" x="74.75" y="-6.5" font-family="Helvetica,sans-Serif" font-size="10.00">Pool_Implementation</text>
</a>
</g>
</g>
<!-- Node4&#45;&gt;Node5 -->
<g id="edge5_Node000004_Node000005" class="edge">
<title>Node4&#45;&gt;Node5</title>
<g id="a_edge5_Node000004_Node000005"><a xlink:title=" ">
<path fill="none" stroke="#63b8ff" d="M173.67,-19.29C164.61,-18.98 155.42,-18.68 146.5,-18.38"/>
<polygon fill="#63b8ff" stroke="#63b8ff" points="173.43,-22.78 183.55,-19.62 173.67,-15.79 173.43,-22.78"/>
</a>
</g>
</g>
</g>
</svg>
