<?xml version="1.0" encoding="UTF-8" standalone="no"?>
<!DOCTYPE svg PUBLIC "-//W3C//DTD SVG 1.1//EN"
 "http://www.w3.org/Graphics/SVG/1.1/DTD/svg11.dtd">
<!-- Generated by graphviz version 13.1.1 (20250719.2154)
 -->
<!-- Title: ACharacterBase::HandleDeath Pages: 1 -->
<svg width="328pt" height="46pt"
 viewBox="0.00 0.00 328.00 46.00" xmlns="http://www.w3.org/2000/svg" xmlns:xlink="http://www.w3.org/1999/xlink">
<g id="graph0" class="graph" transform="scale(1 1) rotate(0) translate(4 42)">
<title>ACharacterBase::HandleDeath</title>
<!-- Node1 -->
<g id="Node000001" class="node">
<title>Node1</title>
<g id="a_Node000001"><a xlink:title=" ">
<polygon fill="#999999" stroke="#666666" points="320,-20 169,-20 169,0 320,0 320,-20"/>
<text xml:space="preserve" text-anchor="middle" x="244.5" y="-6.5" font-family="Helvetica,sans-Serif" font-size="10.00">ACharacterBase::HandleDeath</text>
</a>
</g>
</g>
<!-- Node2 -->
<g id="Node000002" class="node">
<title>Node2</title>
<g id="a_Node000002"><a xlink:href="class_a_character_base.html#af3460531018611a7b3b2c59779c65ead" target="_top" xlink:title=" ">
<polygon fill="white" stroke="#666666" points="133,-20 0,-20 0,0 133,0 133,-20"/>
<text xml:space="preserve" text-anchor="middle" x="66.5" y="-6.5" font-family="Helvetica,sans-Serif" font-size="10.00">ACharacterBase::OnDeath</text>
</a>
</g>
</g>
<!-- Node1&#45;&gt;Node2 -->
<g id="edge1_Node000001_Node000002" class="edge">
<title>Node1&#45;&gt;Node2</title>
<g id="a_edge1_Node000001_Node000002"><a xlink:title=" ">
<path fill="none" stroke="#63b8ff" d="M157.3,-3.25C149.27,-3.24 141.22,-3.3 133.42,-3.44"/>
<polygon fill="#63b8ff" stroke="#63b8ff" points="157.07,-6.75 167.09,-3.31 157.11,0.25 157.07,-6.75"/>
</a>
</g>
</g>
<!-- Node2&#45;&gt;Node1 -->
<g id="edge2_Node000002_Node000001" class="edge">
<title>Node2&#45;&gt;Node1</title>
<g id="a_edge2_Node000002_Node000001"><a xlink:title=" ">
<path fill="none" stroke="#63b8ff" d="M144.86,-16.71C152.75,-16.77 160.75,-16.76 168.6,-16.68"/>
<polygon fill="#63b8ff" stroke="#63b8ff" points="144.98,-13.21 134.94,-16.58 144.89,-20.21 144.98,-13.21"/>
</a>
</g>
</g>
<!-- Node2&#45;&gt;Node2 -->
<g id="edge3_Node000002_Node000002" class="edge">
<title>Node2&#45;&gt;Node2</title>
<g id="a_edge3_Node000002_Node000002"><a xlink:title=" ">
<path fill="none" stroke="#63b8ff" d="M98.29,-31.11C94.5,-35.14 83.9,-38 66.5,-38 35.56,-38 26.13,-28.98 38.22,-20.34"/>
<polygon fill="#63b8ff" stroke="#63b8ff" points="101.68,-30.2 95.25,-21.78 95.02,-32.37 101.68,-30.2"/>
</a>
</g>
</g>
</g>
</svg>
