<?xml version="1.0" encoding="UTF-8" standalone="no"?>
<!DOCTYPE svg PUBLIC "-//W3C//DTD SVG 1.1//EN"
 "http://www.w3.org/Graphics/SVG/1.1/DTD/svg11.dtd">
<!-- Generated by graphviz version 13.1.1 (20250719.2154)
 -->
<!-- Title: AMinionMonster::ServerLogic Pages: 1 -->
<svg width="341pt" height="96pt"
 viewBox="0.00 0.00 341.00 96.00" xmlns="http://www.w3.org/2000/svg" xmlns:xlink="http://www.w3.org/1999/xlink">
<g id="graph0" class="graph" transform="scale(1 1) rotate(0) translate(4 92)">
<title>AMinionMonster::ServerLogic</title>
<!-- Node1 -->
<g id="Node000001" class="node">
<title>Node1</title>
<g id="a_Node000001"><a xlink:title=" ">
<polygon fill="#999999" stroke="#666666" points="144.25,-51 0,-51 0,-31 144.25,-31 144.25,-51"/>
<text xml:space="preserve" text-anchor="middle" x="72.12" y="-37.5" font-family="Helvetica,sans-Serif" font-size="10.00">AMinionMonster::ServerLogic</text>
</a>
</g>
</g>
<!-- Node2 -->
<g id="Node000002" class="node">
<title>Node2</title>
<g id="a_Node000002"><a xlink:href="class_a_monster_base.html#a806800ef93729cb23610941f16f2786c" target="_top" xlink:title=" ">
<polygon fill="white" stroke="#666666" points="321.12,-88 191.88,-88 191.88,-56 321.12,-56 321.12,-88"/>
<text xml:space="preserve" text-anchor="start" x="199.88" y="-74.5" font-family="Helvetica,sans-Serif" font-size="10.00">AMonsterBase::GetAbility</text>
<text xml:space="preserve" text-anchor="middle" x="256.5" y="-62.5" font-family="Helvetica,sans-Serif" font-size="10.00">SystemComponent</text>
</a>
</g>
</g>
<!-- Node1&#45;&gt;Node2 -->
<g id="edge1_Node000001_Node000002" class="edge">
<title>Node1&#45;&gt;Node2</title>
<g id="a_edge1_Node000001_Node000002"><a xlink:title=" ">
<path fill="none" stroke="#63b8ff" d="M134.87,-51.5C149.59,-54 165.45,-56.69 180.69,-59.28"/>
<polygon fill="#63b8ff" stroke="#63b8ff" points="179.7,-62.67 190.15,-60.89 180.88,-55.77 179.7,-62.67"/>
</a>
</g>
</g>
<!-- Node3 -->
<g id="Node000003" class="node">
<title>Node3</title>
<g id="a_Node000003"><a xlink:href="class_a_minion_monster.html#a84d245ac273bcfc522953e2d2c7964b3" target="_top" xlink:title=" ">
<polygon fill="white" stroke="#666666" points="332.75,-20 180.25,-20 180.25,0 332.75,0 332.75,-20"/>
<text xml:space="preserve" text-anchor="middle" x="256.5" y="-6.5" font-family="Helvetica,sans-Serif" font-size="10.00">AMinionMonster::OnTargetDied</text>
</a>
</g>
</g>
<!-- Node1&#45;&gt;Node3 -->
<g id="edge2_Node000001_Node000003" class="edge">
<title>Node1&#45;&gt;Node3</title>
<g id="a_edge2_Node000001_Node000003"><a xlink:title=" ">
<path fill="none" stroke="#63b8ff" d="M134.87,-30.5C150.17,-27.9 166.71,-25.09 182.49,-22.41"/>
<polygon fill="#63b8ff" stroke="#63b8ff" points="183.06,-25.86 192.33,-20.74 181.88,-18.96 183.06,-25.86"/>
</a>
</g>
</g>
<!-- Node3&#45;&gt;Node3 -->
<g id="edge3_Node000003_Node000003" class="edge">
<title>Node3&#45;&gt;Node3</title>
<g id="a_edge3_Node000003_Node000003"><a xlink:title=" ">
<path fill="none" stroke="#63b8ff" d="M227.2,-20.34C214.69,-28.98 224.45,-38 256.5,-38 274.53,-38 285.5,-35.14 289.43,-31.11"/>
<polygon fill="#63b8ff" stroke="#63b8ff" points="292.79,-30.13 286.28,-21.77 286.16,-32.37 292.79,-30.13"/>
</a>
</g>
</g>
</g>
</svg>
