<?xml version="1.0" encoding="UTF-8" standalone="no"?>
<!DOCTYPE svg PUBLIC "-//W3C//DTD SVG 1.1//EN"
 "http://www.w3.org/Graphics/SVG/1.1/DTD/svg11.dtd">
<!-- Generated by graphviz version 13.1.1 (20250719.2154)
 -->
<!-- Title: UUIManagerSubsystem::ShowWidget Pages: 1 -->
<svg width="812pt" height="204pt"
 viewBox="0.00 0.00 812.00 204.00" xmlns="http://www.w3.org/2000/svg" xmlns:xlink="http://www.w3.org/1999/xlink">
<g id="graph0" class="graph" transform="scale(1 1) rotate(0) translate(4 200)">
<title>UUIManagerSubsystem::ShowWidget</title>
<!-- Node1 -->
<g id="Node000001" class="node">
<title>Node1</title>
<g id="a_Node000001"><a xlink:title=" ">
<polygon fill="#999999" stroke="#666666" points="803.75,-130 682.75,-130 682.75,-98 803.75,-98 803.75,-130"/>
<text xml:space="preserve" text-anchor="start" x="690.75" y="-116.5" font-family="Helvetica,sans-Serif" font-size="10.00">UUIManagerSubsystem</text>
<text xml:space="preserve" text-anchor="middle" x="743.25" y="-104.5" font-family="Helvetica,sans-Serif" font-size="10.00">::ShowWidget</text>
</a>
</g>
</g>
<!-- Node2 -->
<g id="Node000002" class="node">
<title>Node2</title>
<g id="a_Node000002"><a xlink:href="class_u_u_i_manager_subsystem.html#ab97849a761dc09f79fcbf69c45fc0ae3" target="_top" xlink:title=" ">
<polygon fill="white" stroke="#666666" points="638.5,-196 517.5,-196 517.5,-164 638.5,-164 638.5,-196"/>
<text xml:space="preserve" text-anchor="start" x="525.5" y="-182.5" font-family="Helvetica,sans-Serif" font-size="10.00">UUIManagerSubsystem</text>
<text xml:space="preserve" text-anchor="middle" x="578" y="-170.5" font-family="Helvetica,sans-Serif" font-size="10.00">::HandleEscapeAction</text>
</a>
</g>
</g>
<!-- Node1&#45;&gt;Node2 -->
<g id="edge1_Node000001_Node000002" class="edge">
<title>Node1&#45;&gt;Node2</title>
<g id="a_edge1_Node000001_Node000002"><a xlink:title=" ">
<path fill="none" stroke="#63b8ff" d="M690.86,-134.78C667.85,-144.08 641.1,-154.89 619.54,-163.61"/>
<polygon fill="#63b8ff" stroke="#63b8ff" points="692.11,-138.04 700.07,-131.05 689.49,-131.55 692.11,-138.04"/>
</a>
</g>
</g>
<!-- Node3 -->
<g id="Node000003" class="node">
<title>Node3</title>
<g id="a_Node000003"><a xlink:href="class_u_u_i_manager_subsystem.html#a8199a73ecef396d77dc15b4049ad7491" target="_top" xlink:title=" ">
<polygon fill="white" stroke="#666666" points="278,-152 157,-152 157,-120 278,-120 278,-152"/>
<text xml:space="preserve" text-anchor="start" x="165" y="-138.5" font-family="Helvetica,sans-Serif" font-size="10.00">UUIManagerSubsystem</text>
<text xml:space="preserve" text-anchor="middle" x="217.5" y="-126.5" font-family="Helvetica,sans-Serif" font-size="10.00">::OnChangeLevel</text>
</a>
</g>
</g>
<!-- Node1&#45;&gt;Node3 -->
<g id="edge2_Node000001_Node000003" class="edge">
<title>Node1&#45;&gt;Node3</title>
<g id="a_edge2_Node000001_Node000003"><a xlink:title=" ">
<path fill="none" stroke="#63b8ff" d="M671.11,-116.99C567.14,-121.36 375.51,-129.4 278.35,-133.49"/>
<polygon fill="#63b8ff" stroke="#63b8ff" points="671.07,-120.49 680.91,-116.58 670.77,-113.5 671.07,-120.49"/>
</a>
</g>
</g>
<!-- Node5 -->
<g id="Node000005" class="node">
<title>Node5</title>
<g id="a_Node000005"><a xlink:href="class_u_u_i_manager_subsystem.html#aec1290f1100ff3c1b7fa144daec04166" target="_top" xlink:title=" ">
<polygon fill="white" stroke="#666666" points="645.62,-108 510.38,-108 510.38,-76 645.62,-76 645.62,-108"/>
<text xml:space="preserve" text-anchor="start" x="518.38" y="-94.5" font-family="Helvetica,sans-Serif" font-size="10.00">UUIManagerSubsystem</text>
<text xml:space="preserve" text-anchor="middle" x="578" y="-82.5" font-family="Helvetica,sans-Serif" font-size="10.00">::OnChangePlayerStateTag</text>
</a>
</g>
</g>
<!-- Node1&#45;&gt;Node5 -->
<g id="edge4_Node000001_Node000005" class="edge">
<title>Node1&#45;&gt;Node5</title>
<g id="a_edge4_Node000001_Node000005"><a xlink:title=" ">
<path fill="none" stroke="#63b8ff" d="M671.14,-104.42C662.8,-103.29 654.31,-102.15 646.02,-101.03"/>
<polygon fill="#63b8ff" stroke="#63b8ff" points="670.51,-107.86 680.89,-105.73 671.45,-100.93 670.51,-107.86"/>
</a>
</g>
</g>
<!-- Node8 -->
<g id="Node000008" class="node">
<title>Node8</title>
<g id="a_Node000008"><a xlink:href="class_u_main_u_i.html#a6158fd9774d8fbbe427df565301fe82a" target="_top" xlink:title=" ">
<polygon fill="white" stroke="#666666" points="646.75,-58 509.25,-58 509.25,-38 646.75,-38 646.75,-58"/>
<text xml:space="preserve" text-anchor="middle" x="578" y="-44.5" font-family="Helvetica,sans-Serif" font-size="10.00">UMainUI::OnClickedSetting</text>
</a>
</g>
</g>
<!-- Node1&#45;&gt;Node8 -->
<g id="edge8_Node000001_Node000008" class="edge">
<title>Node1&#45;&gt;Node8</title>
<g id="a_edge8_Node000001_Node000008"><a xlink:title=" ">
<path fill="none" stroke="#63b8ff" d="M702.32,-92.3C685.48,-83.7 665.47,-74.16 646.75,-67 638.54,-63.86 629.58,-60.98 620.96,-58.47"/>
<polygon fill="#63b8ff" stroke="#63b8ff" points="700.52,-95.31 711.01,-96.82 703.74,-89.1 700.52,-95.31"/>
</a>
</g>
</g>
<!-- Node4 -->
<g id="Node000004" class="node">
<title>Node4</title>
<g id="a_Node000004"><a xlink:href="class_u_u_i_manager_subsystem.html#a0ece8b5888a4cfe5b70f308dcfb28478" target="_top" xlink:title=" ">
<polygon fill="white" stroke="#666666" points="121,-152 0,-152 0,-120 121,-120 121,-152"/>
<text xml:space="preserve" text-anchor="start" x="8" y="-138.5" font-family="Helvetica,sans-Serif" font-size="10.00">UUIManagerSubsystem</text>
<text xml:space="preserve" text-anchor="middle" x="60.5" y="-126.5" font-family="Helvetica,sans-Serif" font-size="10.00">::SetupInitialUI</text>
</a>
</g>
</g>
<!-- Node3&#45;&gt;Node4 -->
<g id="edge3_Node000003_Node000004" class="edge">
<title>Node3&#45;&gt;Node4</title>
<g id="a_edge3_Node000003_Node000004"><a xlink:title=" ">
<path fill="none" stroke="#63b8ff" d="M145.31,-136C137.27,-136 129.14,-136 121.27,-136"/>
<polygon fill="#63b8ff" stroke="#63b8ff" points="145.06,-139.5 155.06,-136 145.06,-132.5 145.06,-139.5"/>
</a>
</g>
</g>
<!-- Node6 -->
<g id="Node000006" class="node">
<title>Node6</title>
<g id="a_Node000006"><a xlink:href="class_u_u_i_manager_subsystem.html#a246ae6eabb3d321cdc4abc2068ca1e61" target="_top" xlink:title=" ">
<polygon fill="white" stroke="#666666" points="473.25,-108 314,-108 314,-76 473.25,-76 473.25,-108"/>
<text xml:space="preserve" text-anchor="start" x="322" y="-94.5" font-family="Helvetica,sans-Serif" font-size="10.00">UUIManagerSubsystem</text>
<text xml:space="preserve" text-anchor="middle" x="393.62" y="-82.5" font-family="Helvetica,sans-Serif" font-size="10.00">::BindPlayerStateAndGameState</text>
</a>
</g>
</g>
<!-- Node5&#45;&gt;Node6 -->
<g id="edge5_Node000005_Node000006" class="edge">
<title>Node5&#45;&gt;Node6</title>
<g id="a_edge5_Node000005_Node000006"><a xlink:title=" ">
<path fill="none" stroke="#63b8ff" d="M498.83,-92C490.45,-92 481.93,-92 473.55,-92"/>
<polygon fill="#63b8ff" stroke="#63b8ff" points="498.61,-95.5 508.61,-92 498.61,-88.5 498.61,-95.5"/>
</a>
</g>
</g>
<!-- Node6&#45;&gt;Node3 -->
<g id="edge7_Node000006_Node000003" class="edge">
<title>Node6&#45;&gt;Node3</title>
<g id="a_edge7_Node000006_Node000003"><a xlink:title=" ">
<path fill="none" stroke="#63b8ff" d="M316.67,-111.19C303.9,-114.42 290.8,-117.73 278.5,-120.84"/>
<polygon fill="#63b8ff" stroke="#63b8ff" points="317.48,-114.6 326.32,-108.75 315.77,-107.81 317.48,-114.6"/>
</a>
</g>
</g>
<!-- Node7 -->
<g id="Node000007" class="node">
<title>Node7</title>
<g id="a_Node000007"><a xlink:href="class_u_u_i_manager_subsystem.html#ae786dee1d051999eb3e98960d96a39d4" target="_top" xlink:title=" ">
<polygon fill="white" stroke="#666666" points="278,-102 157,-102 157,-70 278,-70 278,-102"/>
<text xml:space="preserve" text-anchor="start" x="165" y="-88.5" font-family="Helvetica,sans-Serif" font-size="10.00">UUIManagerSubsystem</text>
<text xml:space="preserve" text-anchor="middle" x="217.5" y="-76.5" font-family="Helvetica,sans-Serif" font-size="10.00">::InitializeForPlayer</text>
</a>
</g>
</g>
<!-- Node6&#45;&gt;Node7 -->
<g id="edge6_Node000006_Node000007" class="edge">
<title>Node6&#45;&gt;Node7</title>
<g id="a_edge6_Node000006_Node000007"><a xlink:title=" ">
<path fill="none" stroke="#63b8ff" d="M302.27,-88.89C294.17,-88.61 286.11,-88.33 278.36,-88.06"/>
<polygon fill="#63b8ff" stroke="#63b8ff" points="302.09,-92.38 312.2,-89.23 302.33,-85.39 302.09,-92.38"/>
</a>
</g>
</g>
<!-- Node9 -->
<g id="Node000009" class="node">
<title>Node9</title>
<g id="a_Node000009"><a xlink:href="class_u_main_u_i.html#a64fc3061e4828b4d481930c7205a2a48" target="_top" xlink:title=" ">
<polygon fill="white" stroke="#666666" points="459.75,-58 327.5,-58 327.5,-38 459.75,-38 459.75,-58"/>
<text xml:space="preserve" text-anchor="middle" x="393.62" y="-44.5" font-family="Helvetica,sans-Serif" font-size="10.00">UMainUI::NativeConstruct</text>
</a>
</g>
</g>
<!-- Node8&#45;&gt;Node9 -->
<g id="edge9_Node000008_Node000009" class="edge">
<title>Node8&#45;&gt;Node9</title>
<g id="a_edge9_Node000008_Node000009"><a xlink:title=" ">
<path fill="none" stroke="#63b8ff" d="M497.45,-48C484.94,-48 472.13,-48 459.99,-48"/>
<polygon fill="#63b8ff" stroke="#63b8ff" points="497.32,-51.5 507.32,-48 497.32,-44.5 497.32,-51.5"/>
</a>
</g>
</g>
<!-- Node10 -->
<g id="Node000010" class="node">
<title>Node10</title>
<g id="a_Node000010"><a xlink:href="class_u_main_u_i.html#a2683c924b81eaceaaaa22fab1a07802f" target="_top" xlink:title=" ">
<polygon fill="white" stroke="#666666" points="457.12,-20 330.12,-20 330.12,0 457.12,0 457.12,-20"/>
<text xml:space="preserve" text-anchor="middle" x="393.62" y="-6.5" font-family="Helvetica,sans-Serif" font-size="10.00">UMainUI::NativeDestruct</text>
</a>
</g>
</g>
<!-- Node8&#45;&gt;Node10 -->
<g id="edge10_Node000008_Node000010" class="edge">
<title>Node8&#45;&gt;Node10</title>
<g id="a_edge10_Node000008_Node000010"><a xlink:title=" ">
<path fill="none" stroke="#63b8ff" d="M515.63,-35.21C492.58,-30.41 466.69,-25.01 444.78,-20.45"/>
<polygon fill="#63b8ff" stroke="#63b8ff" points="514.7,-38.59 525.2,-37.21 516.12,-31.74 514.7,-38.59"/>
</a>
</g>
</g>
</g>
</svg>
