<?xml version="1.0" encoding="UTF-8" standalone="no"?>
<!DOCTYPE svg PUBLIC "-//W3C//DTD SVG 1.1//EN"
 "http://www.w3.org/Graphics/SVG/1.1/DTD/svg11.dtd">
<!-- Generated by graphviz version 13.1.1 (20250719.2154)
 -->
<!-- Title: UKPTPlayerAttributeSet::ATTRIBUTE_ACCESSORS Pages: 1 -->
<svg width="663pt" height="141pt"
 viewBox="0.00 0.00 663.00 141.00" xmlns="http://www.w3.org/2000/svg" xmlns:xlink="http://www.w3.org/1999/xlink">
<g id="graph0" class="graph" transform="scale(1 1) rotate(0) translate(4 137.04)">
<title>UKPTPlayerAttributeSet::ATTRIBUTE_ACCESSORS</title>
<!-- Node1 -->
<g id="Node000001" class="node">
<title>Node1</title>
<g id="a_Node000001"><a xlink:title=" ">
<polygon fill="#999999" stroke="#666666" points="146.5,-96 0,-96 0,-64 146.5,-64 146.5,-96"/>
<text xml:space="preserve" text-anchor="start" x="8" y="-82.5" font-family="Helvetica,sans-Serif" font-size="10.00">UKPTPlayerAttributeSet</text>
<text xml:space="preserve" text-anchor="middle" x="73.25" y="-70.5" font-family="Helvetica,sans-Serif" font-size="10.00">::ATTRIBUTE_ACCESSORS</text>
</a>
</g>
</g>
<!-- Node2 -->
<g id="Node000002" class="node">
<title>Node2</title>
<g id="a_Node000002"><a xlink:href="class_u_k_p_t_player_attribute_set.html#af399f8750813c91d7257190317812519" target="_top" xlink:title=" ">
<polygon fill="white" stroke="#666666" points="655,-104 526.5,-104 526.5,-72 655,-72 655,-104"/>
<text xml:space="preserve" text-anchor="start" x="534.5" y="-90.5" font-family="Helvetica,sans-Serif" font-size="10.00">UKPTPlayerAttributeSet</text>
<text xml:space="preserve" text-anchor="middle" x="590.75" y="-78.5" font-family="Helvetica,sans-Serif" font-size="10.00">::UKPTPlayerAttributeSet</text>
</a>
</g>
</g>
<!-- Node1&#45;&gt;Node2 -->
<g id="edge1_Node000001_Node000002" class="edge">
<title>Node1&#45;&gt;Node2</title>
<g id="a_edge1_Node000001_Node000002"><a xlink:title=" ">
<path fill="none" stroke="#63b8ff" d="M105.97,-96.3C127.05,-106.19 155.69,-117.87 182.5,-123 297.16,-144.94 432.64,-124.23 514.82,-106.62"/>
<polygon fill="#63b8ff" stroke="#63b8ff" points="515.56,-110.04 524.58,-104.49 514.06,-103.21 515.56,-110.04"/>
</a>
</g>
</g>
<!-- Node3 -->
<g id="Node000003" class="node">
<title>Node3</title>
<g id="a_Node000003"><a xlink:href="class_u_k_p_t_player_attribute_set.html#aa4a7eb9b5df34c17e1cc753ae89d5e43" target="_top" xlink:title=" ">
<polygon fill="white" stroke="#666666" points="329,-96 182.5,-96 182.5,-64 329,-64 329,-96"/>
<text xml:space="preserve" text-anchor="start" x="190.5" y="-82.5" font-family="Helvetica,sans-Serif" font-size="10.00">UKPTPlayerAttributeSet</text>
<text xml:space="preserve" text-anchor="middle" x="255.75" y="-70.5" font-family="Helvetica,sans-Serif" font-size="10.00">::ATTRIBUTE_ACCESSORS</text>
</a>
</g>
</g>
<!-- Node1&#45;&gt;Node3 -->
<g id="edge2_Node000001_Node000003" class="edge">
<title>Node1&#45;&gt;Node3</title>
<g id="a_edge2_Node000001_Node000003"><a xlink:title=" ">
<path fill="none" stroke="#63b8ff" d="M146.89,-80C154.81,-80 162.92,-80 170.96,-80"/>
<polygon fill="#63b8ff" stroke="#63b8ff" points="170.75,-83.5 180.75,-80 170.75,-76.5 170.75,-83.5"/>
</a>
</g>
</g>
<!-- Node5 -->
<g id="Node000005" class="node">
<title>Node5</title>
<g id="a_Node000005"><a xlink:href="class_u_k_p_t_player_attribute_set.html#a72fb0dffc4e7a297ff00385666c1bb9e" target="_top" xlink:title=" ">
<polygon fill="white" stroke="#666666" points="490.5,-32 365,-32 365,0 490.5,0 490.5,-32"/>
<text xml:space="preserve" text-anchor="start" x="373" y="-18.5" font-family="Helvetica,sans-Serif" font-size="10.00">UKPTPlayerAttributeSet</text>
<text xml:space="preserve" text-anchor="middle" x="427.75" y="-6.5" font-family="Helvetica,sans-Serif" font-size="10.00">::OnRep_CriticalDamage</text>
</a>
</g>
</g>
<!-- Node1&#45;&gt;Node5 -->
<g id="edge7_Node000001_Node000005" class="edge">
<title>Node1&#45;&gt;Node5</title>
<g id="a_edge7_Node000001_Node000005"><a xlink:title=" ">
<path fill="none" stroke="#63b8ff" d="M142.24,-63.55C155.55,-60.54 169.44,-57.55 182.5,-55 239.57,-43.87 304.59,-33.6 353.19,-26.4"/>
<polygon fill="#63b8ff" stroke="#63b8ff" points="353.67,-29.87 363.06,-24.95 352.65,-22.94 353.67,-29.87"/>
</a>
</g>
</g>
<!-- Node3&#45;&gt;Node2 -->
<g id="edge3_Node000003_Node000002" class="edge">
<title>Node3&#45;&gt;Node2</title>
<g id="a_edge3_Node000003_Node000002"><a xlink:title=" ">
<path fill="none" stroke="#63b8ff" d="M329.46,-88.41C341.32,-89.49 353.49,-90.42 365,-91 420.71,-93.82 434.73,-91.84 490.5,-91 498.35,-90.88 506.55,-90.71 514.72,-90.51"/>
<polygon fill="#63b8ff" stroke="#63b8ff" points="514.8,-94.01 524.71,-90.25 514.62,-87.01 514.8,-94.01"/>
</a>
</g>
</g>
<!-- Node3&#45;&gt;Node3 -->
<g id="edge4_Node000003_Node000003" class="edge">
<title>Node3&#45;&gt;Node3</title>
<g id="a_edge4_Node000003_Node000003"><a xlink:title=" ">
<path fill="none" stroke="#63b8ff" d="M225.04,-96.44C219.31,-105.58 229.55,-114 255.75,-114 270.08,-114 279.63,-111.48 284.41,-107.71"/>
<polygon fill="#63b8ff" stroke="#63b8ff" points="287.85,-108.4 286.19,-97.93 280.96,-107.15 287.85,-108.4"/>
</a>
</g>
</g>
<!-- Node4 -->
<g id="Node000004" class="node">
<title>Node4</title>
<g id="a_Node000004"><a xlink:href="class_u_k_p_t_player_attribute_set.html#af9342b340a141c31bf2eb00e34005551" target="_top" xlink:title=" ">
<polygon fill="white" stroke="#666666" points="489,-82 366.5,-82 366.5,-50 489,-50 489,-82"/>
<text xml:space="preserve" text-anchor="start" x="374.5" y="-68.5" font-family="Helvetica,sans-Serif" font-size="10.00">UKPTPlayerAttributeSet</text>
<text xml:space="preserve" text-anchor="middle" x="427.75" y="-56.5" font-family="Helvetica,sans-Serif" font-size="10.00">::OnRep_Luck</text>
</a>
</g>
</g>
<!-- Node3&#45;&gt;Node4 -->
<g id="edge5_Node000003_Node000004" class="edge">
<title>Node3&#45;&gt;Node4</title>
<g id="a_edge5_Node000003_Node000004"><a xlink:title=" ">
<path fill="none" stroke="#63b8ff" d="M329.34,-74.02C337.78,-73.33 346.38,-72.62 354.81,-71.92"/>
<polygon fill="#63b8ff" stroke="#63b8ff" points="354.98,-75.42 364.66,-71.11 354.4,-68.45 354.98,-75.42"/>
</a>
</g>
</g>
<!-- Node4&#45;&gt;Node2 -->
<g id="edge6_Node000004_Node000002" class="edge">
<title>Node4&#45;&gt;Node2</title>
<g id="a_edge6_Node000004_Node000002"><a xlink:title=" ">
<path fill="none" stroke="#63b8ff" d="M489.16,-74.25C497.53,-75.4 506.22,-76.59 514.82,-77.76"/>
<polygon fill="#63b8ff" stroke="#63b8ff" points="514.16,-81.2 524.54,-79.09 515.11,-74.27 514.16,-81.2"/>
</a>
</g>
</g>
<!-- Node5&#45;&gt;Node2 -->
<g id="edge8_Node000005_Node000002" class="edge">
<title>Node5&#45;&gt;Node2</title>
<g id="a_edge8_Node000005_Node000002"><a xlink:title=" ">
<path fill="none" stroke="#63b8ff" d="M470.41,-32.48C477.15,-35.26 484.04,-38.17 490.5,-41 508.86,-49.06 528.89,-58.43 546.11,-66.67"/>
<polygon fill="#63b8ff" stroke="#63b8ff" points="544.54,-69.8 555.07,-70.98 547.58,-63.49 544.54,-69.8"/>
</a>
</g>
</g>
</g>
</svg>
