<?xml version="1.0" encoding="UTF-8" standalone="no"?>
<!DOCTYPE svg PUBLIC "-//W3C//DTD SVG 1.1//EN"
 "http://www.w3.org/Graphics/SVG/1.1/DTD/svg11.dtd">
<!-- Generated by graphviz version 13.1.1 (20250719.2154)
 -->
<!-- Title: UDamageFloaterUI Pages: 1 -->
<svg width="182pt" height="644pt"
 viewBox="0.00 0.00 182.00 644.00" xmlns="http://www.w3.org/2000/svg" xmlns:xlink="http://www.w3.org/1999/xlink">
<g id="graph0" class="graph" transform="scale(1 1) rotate(0) translate(4 640)">
<title>UDamageFloaterUI</title>
<!-- Node1 -->
<g id="Node000001" class="node">
<title>Node1</title>
<g id="a_Node000001"><a xlink:title=" ">
<polygon fill="#999999" stroke="none" points="174,-336 0,-336 0,0 174,0 174,-336"/>
<text xml:space="preserve" text-anchor="start" x="44.62" y="-322.5" font-family="Helvetica,sans-Serif" font-size="10.00">UDamageFloaterUI</text>
<text xml:space="preserve" text-anchor="start" x="4" y="-306.5" font-family="Helvetica,sans-Serif" font-size="10.00">+</text>
<text xml:space="preserve" text-anchor="start" x="14" y="-306.5" font-family="Helvetica,sans-Serif" font-size="10.00">FOnAnimationFinished</text>
<text xml:space="preserve" text-anchor="start" x="14" y="-294.5" font-family="Helvetica,sans-Serif" font-size="10.00"> OnFinished</text>
<text xml:space="preserve" text-anchor="start" x="4.38" y="-278.5" font-family="Helvetica,sans-Serif" font-size="10.00">#</text>
<text xml:space="preserve" text-anchor="start" x="14" y="-278.5" font-family="Helvetica,sans-Serif" font-size="10.00">FWidgetAnimationDynamicEvent</text>
<text xml:space="preserve" text-anchor="start" x="14" y="-266.5" font-family="Helvetica,sans-Serif" font-size="10.00"> AnimationFinishEvent</text>
<text xml:space="preserve" text-anchor="start" x="4.38" y="-250.5" font-family="Helvetica,sans-Serif" font-size="10.00">#</text>
<text xml:space="preserve" text-anchor="start" x="14" y="-250.5" font-family="Helvetica,sans-Serif" font-size="10.00">bool bIsCritical</text>
<text xml:space="preserve" text-anchor="start" x="4.38" y="-234.5" font-family="Helvetica,sans-Serif" font-size="10.00">#</text>
<text xml:space="preserve" text-anchor="start" x="14" y="-234.5" font-family="Helvetica,sans-Serif" font-size="10.00">TObjectPtr&lt; UWidgetAnimation</text>
<text xml:space="preserve" text-anchor="start" x="14" y="-222.5" font-family="Helvetica,sans-Serif" font-size="10.00"> &gt; CriticalDamageAnimation</text>
<text xml:space="preserve" text-anchor="start" x="4.38" y="-206.5" font-family="Helvetica,sans-Serif" font-size="10.00">#</text>
<text xml:space="preserve" text-anchor="start" x="14" y="-206.5" font-family="Helvetica,sans-Serif" font-size="10.00">UTextBlock * Damage</text>
<text xml:space="preserve" text-anchor="start" x="4.38" y="-190.5" font-family="Helvetica,sans-Serif" font-size="10.00">#</text>
<text xml:space="preserve" text-anchor="start" x="14" y="-190.5" font-family="Helvetica,sans-Serif" font-size="10.00">TObjectPtr&lt; UWidgetAnimation</text>
<text xml:space="preserve" text-anchor="start" x="14" y="-178.5" font-family="Helvetica,sans-Serif" font-size="10.00"> &gt; DamageAnimation</text>
<text xml:space="preserve" text-anchor="start" x="4.38" y="-162.5" font-family="Helvetica,sans-Serif" font-size="10.00">#</text>
<text xml:space="preserve" text-anchor="start" x="14" y="-162.5" font-family="Helvetica,sans-Serif" font-size="10.00">int32 Index</text>
<text xml:space="preserve" text-anchor="start" x="4.38" y="-146.5" font-family="Helvetica,sans-Serif" font-size="10.00">#</text>
<text xml:space="preserve" text-anchor="start" x="14" y="-146.5" font-family="Helvetica,sans-Serif" font-size="10.00">TObjectPtr&lt; UWidgetAnimation</text>
<text xml:space="preserve" text-anchor="start" x="14" y="-134.5" font-family="Helvetica,sans-Serif" font-size="10.00"> &gt; PlayerHitAnimation</text>
<text xml:space="preserve" text-anchor="start" x="4" y="-118.5" font-family="Helvetica,sans-Serif" font-size="10.00">+</text>
<text xml:space="preserve" text-anchor="start" x="14" y="-118.5" font-family="Helvetica,sans-Serif" font-size="10.00">void HandleAnimationFinished()</text>
<text xml:space="preserve" text-anchor="start" x="4" y="-102.5" font-family="Helvetica,sans-Serif" font-size="10.00">+</text>
<text xml:space="preserve" text-anchor="start" x="14" y="-102.5" font-family="Helvetica,sans-Serif" font-size="10.00">void SettingDamageFloater</text>
<text xml:space="preserve" text-anchor="start" x="14" y="-90.5" font-family="Helvetica,sans-Serif" font-size="10.00">(int32 Amount, bool IsCritical=false)</text>
<text xml:space="preserve" text-anchor="start" x="4.38" y="-74.5" font-family="Helvetica,sans-Serif" font-size="10.00">#</text>
<text xml:space="preserve" text-anchor="start" x="14" y="-74.5" font-family="Helvetica,sans-Serif" font-size="10.00">virtual void NativeConstruct</text>
<text xml:space="preserve" text-anchor="start" x="14" y="-62.5" font-family="Helvetica,sans-Serif" font-size="10.00">() override</text>
<text xml:space="preserve" text-anchor="start" x="4.38" y="-46.5" font-family="Helvetica,sans-Serif" font-size="10.00">#</text>
<text xml:space="preserve" text-anchor="start" x="14" y="-46.5" font-family="Helvetica,sans-Serif" font-size="10.00">virtual void NativeDestruct</text>
<text xml:space="preserve" text-anchor="start" x="14" y="-34.5" font-family="Helvetica,sans-Serif" font-size="10.00">() override</text>
<text xml:space="preserve" text-anchor="start" x="4.38" y="-18.5" font-family="Helvetica,sans-Serif" font-size="10.00">#</text>
<text xml:space="preserve" text-anchor="start" x="14" y="-18.5" font-family="Helvetica,sans-Serif" font-size="10.00">virtual void NativePreConstruct</text>
<text xml:space="preserve" text-anchor="start" x="14" y="-6.5" font-family="Helvetica,sans-Serif" font-size="10.00">() override</text>
<polygon fill="#666666" stroke="#666666" points="0,-318 0,-318 174,-318 174,-318 0,-318"/>
<polygon fill="#666666" stroke="#666666" points="0,-130 0,-130 12,-130 12,-130 0,-130"/>
<polygon fill="#666666" stroke="#666666" points="12,-130 12,-130 174,-130 174,-130 12,-130"/>
<polygon fill="none" stroke="#666666" points="0,0 0,-336 174,-336 174,0 0,0"/>
</a>
</g>
</g>
<!-- Node2 -->
<g id="Node000002" class="node">
<title>Node2</title>
<g id="a_Node000002"><a xlink:href="class_u_u_i_base.html" target="_top" xlink:title=" ">
<polygon fill="white" stroke="none" points="168.38,-548 5.62,-548 5.62,-372 168.38,-372 168.38,-548"/>
<text xml:space="preserve" text-anchor="start" x="66.75" y="-534.5" font-family="Helvetica,sans-Serif" font-size="10.00">UUIBase</text>
<text xml:space="preserve" text-anchor="start" x="10" y="-518.5" font-family="Helvetica,sans-Serif" font-size="10.00">#</text>
<text xml:space="preserve" text-anchor="start" x="19.62" y="-518.5" font-family="Helvetica,sans-Serif" font-size="10.00">FWidgetAnimationDynamicEvent</text>
<text xml:space="preserve" text-anchor="start" x="19.62" y="-506.5" font-family="Helvetica,sans-Serif" font-size="10.00"> AnimationFinishEvent</text>
<text xml:space="preserve" text-anchor="start" x="9.62" y="-490.5" font-family="Helvetica,sans-Serif" font-size="10.00">+</text>
<text xml:space="preserve" text-anchor="start" x="19.62" y="-490.5" font-family="Helvetica,sans-Serif" font-size="10.00">UUIManagerSubsystem</text>
<text xml:space="preserve" text-anchor="start" x="19.62" y="-478.5" font-family="Helvetica,sans-Serif" font-size="10.00"> * GetUIManagerSubsystem()</text>
<text xml:space="preserve" text-anchor="start" x="9.62" y="-462.5" font-family="Helvetica,sans-Serif" font-size="10.00">+</text>
<text xml:space="preserve" text-anchor="start" x="19.62" y="-462.5" font-family="Helvetica,sans-Serif" font-size="10.00">virtual void LateInit()</text>
<text xml:space="preserve" text-anchor="start" x="10" y="-446.5" font-family="Helvetica,sans-Serif" font-size="10.00">#</text>
<text xml:space="preserve" text-anchor="start" x="19.62" y="-446.5" font-family="Helvetica,sans-Serif" font-size="10.00">virtual void NativeConstruct</text>
<text xml:space="preserve" text-anchor="start" x="19.62" y="-434.5" font-family="Helvetica,sans-Serif" font-size="10.00">() override</text>
<text xml:space="preserve" text-anchor="start" x="10" y="-418.5" font-family="Helvetica,sans-Serif" font-size="10.00">#</text>
<text xml:space="preserve" text-anchor="start" x="19.62" y="-418.5" font-family="Helvetica,sans-Serif" font-size="10.00">virtual void NativeDestruct</text>
<text xml:space="preserve" text-anchor="start" x="19.62" y="-406.5" font-family="Helvetica,sans-Serif" font-size="10.00">() override</text>
<text xml:space="preserve" text-anchor="start" x="10" y="-390.5" font-family="Helvetica,sans-Serif" font-size="10.00">#</text>
<text xml:space="preserve" text-anchor="start" x="19.62" y="-390.5" font-family="Helvetica,sans-Serif" font-size="10.00">virtual void NativePreConstruct</text>
<text xml:space="preserve" text-anchor="start" x="19.62" y="-378.5" font-family="Helvetica,sans-Serif" font-size="10.00">() override</text>
<polygon fill="#666666" stroke="#666666" points="5.62,-530 5.62,-530 168.38,-530 168.38,-530 5.62,-530"/>
<polygon fill="#666666" stroke="#666666" points="5.62,-502 5.62,-502 17.62,-502 17.62,-502 5.62,-502"/>
<polygon fill="#666666" stroke="#666666" points="17.62,-502 17.62,-502 168.38,-502 168.38,-502 17.62,-502"/>
<polygon fill="none" stroke="#666666" points="5.62,-372 5.62,-548 168.38,-548 168.38,-372 5.62,-372"/>
</a>
</g>
</g>
<!-- Node2&#45;&gt;Node1 -->
<g id="edge1_Node000001_Node000002" class="edge">
<title>Node2&#45;&gt;Node1</title>
<g id="a_edge1_Node000001_Node000002"><a xlink:title=" ">
<path fill="none" stroke="#63b8ff" d="M87,-360.98C87,-352.8 87,-344.4 87,-335.9"/>
<polygon fill="none" stroke="#63b8ff" points="83.5,-360.87 87,-370.87 90.5,-360.87 83.5,-360.87"/>
</a>
</g>
</g>
<!-- Node3 -->
<g id="Node000003" class="node">
<title>Node3</title>
<g id="a_Node000003"><a xlink:title=" ">
<polygon fill="white" stroke="none" points="120.62,-636 53.38,-636 53.38,-584 120.62,-584 120.62,-636"/>
<text xml:space="preserve" text-anchor="start" x="57.38" y="-622.5" font-family="Helvetica,sans-Serif" font-size="10.00">UUserWidget</text>
<text xml:space="preserve" text-anchor="start" x="85.5" y="-606.5" font-family="Helvetica,sans-Serif" font-size="10.00"> </text>
<text xml:space="preserve" text-anchor="start" x="85.5" y="-590.5" font-family="Helvetica,sans-Serif" font-size="10.00"> </text>
<polygon fill="#666666" stroke="#666666" points="53.38,-618 53.38,-618 120.62,-618 120.62,-618 53.38,-618"/>
<polygon fill="#666666" stroke="#666666" points="53.38,-602 53.38,-602 120.62,-602 120.62,-602 53.38,-602"/>
<polygon fill="none" stroke="#666666" points="53.38,-584 53.38,-636 120.62,-636 120.62,-584 53.38,-584"/>
</a>
</g>
</g>
<!-- Node3&#45;&gt;Node2 -->
<g id="edge2_Node000002_Node000003" class="edge">
<title>Node3&#45;&gt;Node2</title>
<g id="a_edge2_Node000002_Node000003"><a xlink:title=" ">
<path fill="none" stroke="#63b8ff" d="M87,-572.77C87,-565.04 87,-556.56 87,-547.83"/>
<polygon fill="none" stroke="#63b8ff" points="83.5,-572.71 87,-582.71 90.5,-572.71 83.5,-572.71"/>
</a>
</g>
</g>
</g>
</svg>
