<?xml version="1.0" encoding="UTF-8" standalone="no"?>
<!DOCTYPE svg PUBLIC "-//W3C//DTD SVG 1.1//EN"
 "http://www.w3.org/Graphics/SVG/1.1/DTD/svg11.dtd">
<!-- Generated by graphviz version 13.1.1 (20250719.2154)
 -->
<!-- Title: AKPTLobbyDisplayPawn::OnLobbyStateUpdated Pages: 1 -->
<svg width="297pt" height="58pt"
 viewBox="0.00 0.00 297.00 58.00" xmlns="http://www.w3.org/2000/svg" xmlns:xlink="http://www.w3.org/1999/xlink">
<g id="graph0" class="graph" transform="scale(1 1) rotate(0) translate(4 54)">
<title>AKPTLobbyDisplayPawn::OnLobbyStateUpdated</title>
<!-- Node1 -->
<g id="Node000001" class="node">
<title>Node1</title>
<g id="a_Node000001"><a xlink:title=" ">
<polygon fill="#999999" stroke="#666666" points="126.25,-32 0,-32 0,0 126.25,0 126.25,-32"/>
<text xml:space="preserve" text-anchor="start" x="8" y="-18.5" font-family="Helvetica,sans-Serif" font-size="10.00">AKPTLobbyDisplayPawn</text>
<text xml:space="preserve" text-anchor="middle" x="63.12" y="-6.5" font-family="Helvetica,sans-Serif" font-size="10.00">::OnLobbyStateUpdated</text>
</a>
</g>
</g>
<!-- Node2 -->
<g id="Node000002" class="node">
<title>Node2</title>
<g id="a_Node000002"><a xlink:href="class_a_k_p_t_lobby_display_pawn.html#aaa058e9fa56e4945087903743b1b792f" target="_top" xlink:title=" ">
<polygon fill="white" stroke="#666666" points="288.5,-32 162.25,-32 162.25,0 288.5,0 288.5,-32"/>
<text xml:space="preserve" text-anchor="start" x="170.25" y="-18.5" font-family="Helvetica,sans-Serif" font-size="10.00">AKPTLobbyDisplayPawn</text>
<text xml:space="preserve" text-anchor="middle" x="225.38" y="-6.5" font-family="Helvetica,sans-Serif" font-size="10.00">::UpdateDisplay</text>
</a>
</g>
</g>
<!-- Node1&#45;&gt;Node2 -->
<g id="edge1_Node000001_Node000002" class="edge">
<title>Node1&#45;&gt;Node2</title>
<g id="a_edge1_Node000001_Node000002"><a xlink:title=" ">
<path fill="none" stroke="#63b8ff" d="M126.54,-16C134.43,-16 142.55,-16 150.59,-16"/>
<polygon fill="#63b8ff" stroke="#63b8ff" points="150.35,-19.5 160.35,-16 150.35,-12.5 150.35,-19.5"/>
</a>
</g>
</g>
<!-- Node2&#45;&gt;Node2 -->
<g id="edge2_Node000002_Node000002" class="edge">
<title>Node2&#45;&gt;Node2</title>
<g id="a_edge2_Node000002_Node000002"><a xlink:title=" ">
<path fill="none" stroke="#63b8ff" d="M196.41,-32.44C191,-41.58 200.66,-50 225.38,-50 238.89,-50 247.91,-47.48 252.41,-43.71"/>
<polygon fill="#63b8ff" stroke="#63b8ff" points="255.85,-44.38 254.09,-33.93 248.95,-43.2 255.85,-44.38"/>
</a>
</g>
</g>
</g>
</svg>
