<?xml version="1.0" encoding="UTF-8" standalone="no"?>
<!DOCTYPE svg PUBLIC "-//W3C//DTD SVG 1.1//EN"
 "http://www.w3.org/Graphics/SVG/1.1/DTD/svg11.dtd">
<!-- Generated by graphviz version 13.1.1 (20250719.2154)
 -->
<!-- Title: ULobbyUI::OnSessionSearchFinished Pages: 1 -->
<svg width="327pt" height="71pt"
 viewBox="0.00 0.00 327.00 71.00" xmlns="http://www.w3.org/2000/svg" xmlns:xlink="http://www.w3.org/1999/xlink">
<g id="graph0" class="graph" transform="scale(1 1) rotate(0) translate(4 67)">
<title>ULobbyUI::OnSessionSearchFinished</title>
<!-- Node1 -->
<g id="Node000001" class="node">
<title>Node1</title>
<g id="a_Node000001"><a xlink:title=" ">
<polygon fill="#999999" stroke="#666666" points="318.5,-45 173.5,-45 173.5,-13 318.5,-13 318.5,-45"/>
<text xml:space="preserve" text-anchor="start" x="181.5" y="-31.5" font-family="Helvetica,sans-Serif" font-size="10.00">ULobbyUI::OnSessionSearch</text>
<text xml:space="preserve" text-anchor="middle" x="246" y="-19.5" font-family="Helvetica,sans-Serif" font-size="10.00">Finished</text>
</a>
</g>
</g>
<!-- Node1&#45;&gt;Node1 -->
<g id="edge3_Node000001_Node000001" class="edge">
<title>Node1&#45;&gt;Node1</title>
<g id="a_edge3_Node000001_Node000001"><a xlink:title=" ">
<path fill="none" stroke="#63b8ff" d="M275.54,-56.71C270.61,-60.48 260.77,-63 246,-63 219,-63 208.45,-54.58 214.36,-45.44"/>
<polygon fill="#63b8ff" stroke="#63b8ff" points="278.97,-57.4 277.37,-46.93 272.09,-56.12 278.97,-57.4"/>
</a>
</g>
</g>
<!-- Node2 -->
<g id="Node000002" class="node">
<title>Node2</title>
<g id="a_Node000002"><a xlink:href="class_u_lobby_u_i.html#a23f225f9b4d655c2a638dc48a5f0810e" target="_top" xlink:title=" ">
<polygon fill="white" stroke="#666666" points="137.5,-58 0,-58 0,-38 137.5,-38 137.5,-58"/>
<text xml:space="preserve" text-anchor="middle" x="68.75" y="-44.5" font-family="Helvetica,sans-Serif" font-size="10.00">ULobbyUI::NativeConstruct</text>
</a>
</g>
</g>
<!-- Node1&#45;&gt;Node2 -->
<g id="edge1_Node000001_Node000002" class="edge">
<title>Node1&#45;&gt;Node2</title>
<g id="a_edge1_Node000001_Node000002"><a xlink:title=" ">
<path fill="none" stroke="#63b8ff" d="M161.86,-38.01C153.78,-38.89 145.66,-39.77 137.75,-40.63"/>
<polygon fill="#63b8ff" stroke="#63b8ff" points="162.14,-41.5 171.71,-36.95 161.39,-34.54 162.14,-41.5"/>
</a>
</g>
</g>
<!-- Node3 -->
<g id="Node000003" class="node">
<title>Node3</title>
<g id="a_Node000003"><a xlink:href="class_u_lobby_u_i.html#a5dbad1b50286a6d2b8726985d6fb7279" target="_top" xlink:title=" ">
<polygon fill="white" stroke="#666666" points="134.88,-20 2.62,-20 2.62,0 134.88,0 134.88,-20"/>
<text xml:space="preserve" text-anchor="middle" x="68.75" y="-6.5" font-family="Helvetica,sans-Serif" font-size="10.00">ULobbyUI::NativeDestruct</text>
</a>
</g>
</g>
<!-- Node1&#45;&gt;Node3 -->
<g id="edge2_Node000001_Node000003" class="edge">
<title>Node1&#45;&gt;Node3</title>
<g id="a_edge2_Node000001_Node000003"><a xlink:title=" ">
<path fill="none" stroke="#63b8ff" d="M161.93,-19.99C152.97,-19.02 143.94,-18.04 135.23,-17.1"/>
<polygon fill="#63b8ff" stroke="#63b8ff" points="161.39,-23.46 171.71,-21.05 162.14,-16.5 161.39,-23.46"/>
</a>
</g>
</g>
</g>
</svg>
