<?xml version="1.0" encoding="UTF-8" standalone="no"?>
<!DOCTYPE svg PUBLIC "-//W3C//DTD SVG 1.1//EN"
 "http://www.w3.org/Graphics/SVG/1.1/DTD/svg11.dtd">
<!-- Generated by graphviz version 13.1.1 (20250719.2154)
 -->
<!-- Title: UInventoryManager::UInventoryManager Pages: 1 -->
<svg width="630pt" height="58pt"
 viewBox="0.00 0.00 630.00 58.00" xmlns="http://www.w3.org/2000/svg" xmlns:xlink="http://www.w3.org/1999/xlink">
<g id="graph0" class="graph" transform="scale(1 1) rotate(0) translate(4 54)">
<title>UInventoryManager::UInventoryManager</title>
<!-- Node1 -->
<g id="Node000001" class="node">
<title>Node1</title>
<g id="a_Node000001"><a xlink:title=" ">
<polygon fill="#999999" stroke="#666666" points="622,-32 514.5,-32 514.5,0 622,0 622,-32"/>
<text xml:space="preserve" text-anchor="start" x="522.5" y="-18.5" font-family="Helvetica,sans-Serif" font-size="10.00">UInventoryManager::</text>
<text xml:space="preserve" text-anchor="middle" x="568.25" y="-6.5" font-family="Helvetica,sans-Serif" font-size="10.00">UInventoryManager</text>
</a>
</g>
</g>
<!-- Node2 -->
<g id="Node000002" class="node">
<title>Node2</title>
<g id="a_Node000002"><a xlink:href="class_u_inventory_manager.html#ab993a5f8cc32d22723e45aae7f00be07" target="_top" xlink:title=" ">
<polygon fill="white" stroke="#666666" points="478.5,-32 340.25,-32 340.25,0 478.5,0 478.5,-32"/>
<text xml:space="preserve" text-anchor="start" x="348.25" y="-18.5" font-family="Helvetica,sans-Serif" font-size="10.00">UInventoryManager::</text>
<text xml:space="preserve" text-anchor="middle" x="409.38" y="-6.5" font-family="Helvetica,sans-Serif" font-size="10.00">GetLifetimeReplicatedProps</text>
</a>
</g>
</g>
<!-- Node1&#45;&gt;Node2 -->
<g id="edge1_Node000001_Node000002" class="edge">
<title>Node1&#45;&gt;Node2</title>
<g id="a_edge1_Node000001_Node000002"><a xlink:title=" ">
<path fill="none" stroke="#63b8ff" d="M502.72,-16C494.81,-16 486.7,-16 478.73,-16"/>
<polygon fill="#63b8ff" stroke="#63b8ff" points="502.63,-19.5 512.63,-16 502.63,-12.5 502.63,-19.5"/>
</a>
</g>
</g>
<!-- Node3 -->
<g id="Node000003" class="node">
<title>Node3</title>
<g id="a_Node000003"><a xlink:href="class_u_inventory_manager.html#affc3d5e5e27c0a4a4ef88c1622c38793" target="_top" xlink:title=" ">
<polygon fill="white" stroke="#666666" points="304.25,-32 172,-32 172,0 304.25,0 304.25,-32"/>
<text xml:space="preserve" text-anchor="start" x="180" y="-18.5" font-family="Helvetica,sans-Serif" font-size="10.00">UInventoryManager::</text>
<text xml:space="preserve" text-anchor="middle" x="238.12" y="-6.5" font-family="Helvetica,sans-Serif" font-size="10.00">ServerAddItemToInventory</text>
</a>
</g>
</g>
<!-- Node2&#45;&gt;Node3 -->
<g id="edge2_Node000002_Node000003" class="edge">
<title>Node2&#45;&gt;Node3</title>
<g id="a_edge2_Node000002_Node000003"><a xlink:title=" ">
<path fill="none" stroke="#63b8ff" d="M328.72,-16C320.68,-16 312.58,-16 304.71,-16"/>
<polygon fill="#63b8ff" stroke="#63b8ff" points="328.51,-19.5 338.51,-16 328.51,-12.5 328.51,-19.5"/>
</a>
</g>
</g>
<!-- Node3&#45;&gt;Node3 -->
<g id="edge4_Node000003_Node000003" class="edge">
<title>Node3&#45;&gt;Node3</title>
<g id="a_edge4_Node000003_Node000003"><a xlink:title=" ">
<path fill="none" stroke="#63b8ff" d="M266.48,-43.71C261.75,-47.48 252.3,-50 238.12,-50 212.21,-50 202.08,-41.58 207.75,-32.44"/>
<polygon fill="#63b8ff" stroke="#63b8ff" points="269.91,-44.39 268.23,-33.93 263.02,-43.16 269.91,-44.39"/>
</a>
</g>
</g>
<!-- Node4 -->
<g id="Node000004" class="node">
<title>Node4</title>
<g id="a_Node000004"><a xlink:href="class_u_shop_manager_subsystem.html#aab60cace693da061856579c41401dd4a" target="_top" xlink:title=" ">
<polygon fill="white" stroke="#666666" points="136,-32 0,-32 0,0 136,0 136,-32"/>
<text xml:space="preserve" text-anchor="start" x="8" y="-18.5" font-family="Helvetica,sans-Serif" font-size="10.00">UShopManagerSubsystem</text>
<text xml:space="preserve" text-anchor="middle" x="68" y="-6.5" font-family="Helvetica,sans-Serif" font-size="10.00">::ProcessPurchaseRequest</text>
</a>
</g>
</g>
<!-- Node3&#45;&gt;Node4 -->
<g id="edge3_Node000003_Node000004" class="edge">
<title>Node3&#45;&gt;Node4</title>
<g id="a_edge3_Node000003_Node000004"><a xlink:title=" ">
<path fill="none" stroke="#63b8ff" d="M160.36,-16C152.31,-16 144.17,-16 136.24,-16"/>
<polygon fill="#63b8ff" stroke="#63b8ff" points="160.13,-19.5 170.13,-16 160.13,-12.5 160.13,-19.5"/>
</a>
</g>
</g>
</g>
</svg>
