<?xml version="1.0" encoding="UTF-8" standalone="no"?>
<!DOCTYPE svg PUBLIC "-//W3C//DTD SVG 1.1//EN"
 "http://www.w3.org/Graphics/SVG/1.1/DTD/svg11.dtd">
<!-- Generated by graphviz version 13.1.1 (20250719.2154)
 -->
<!-- Title: UInGameHUD::TeamStatsComponentsReadyHandle Pages: 1 -->
<!--zoomable 141 -->

<svg id="main" version="1.1" xmlns="http://www.w3.org/2000/svg" xmlns:xlink="http://www.w3.org/1999/xlink" xml:space="preserve" onload="init(evt)">

<style type="text/css"><![CDATA[
.node, .edge {opacity: 0.7;}
.node.selected, .edge.selected {opacity: 1;}
.edge:hover path { stroke: red; }
.edge:hover polygon { stroke: red; fill: red; }
]]></style>

<defs>
  <circle id="rim" cx="0" cy="0" r="7"/>
  <circle id="rim2" cx="0" cy="0" r="3.5"/>
  <g id="zoomPlus">
    <use xlink:href="#rim" fill="#404040"><set attributeName="fill" to="#808080" begin="zoomplus.mouseover" end="zoomplus.mouseout"/></use>
    <path d="M-4,0h8M0,-4v8" fill="none" stroke="white" stroke-width="1.5" pointer-events="none"/>
  </g>
  <g id="zoomMin">
    <use xlink:href="#rim" fill="#404040"><set attributeName="fill" to="#808080" begin="zoomminus.mouseover" end="zoomminus.mouseout"/></use>
    <path d="M-4,0h8" fill="none" stroke="white" stroke-width="1.5" pointer-events="none"/>
  </g>
  <g id="arrowUp" transform="translate(30 24)">
    <use xlink:href="#rim"/>
    <path pointer-events="none" fill="none" stroke="white" stroke-width="1.5" d="M0,-3.0v7 M-2.5,-0.5L0,-3.0L2.5,-0.5"/>
  </g>
  <g id="arrowRight" transform="rotate(90) translate(36 -43)">
    <use xlink:href="#rim"/>
    <path pointer-events="none" fill="none" stroke="white" stroke-width="1.5" d="M0,-3.0v7 M-2.5,-0.5L0,-3.0L2.5,-0.5"/>
  </g>
  <g id="arrowDown" transform="rotate(180) translate(-30 -48)">
    <use xlink:href="#rim"/>
    <path pointer-events="none" fill="none" stroke="white" stroke-width="1.5" d="M0,-3.0v7 M-2.5,-0.5L0,-3.0L2.5,-0.5"/>
  </g>
  <g id="arrowLeft" transform="rotate(270) translate(-36 17)">
    <use xlink:href="#rim"/>
    <path pointer-events="none" fill="none" stroke="white" stroke-width="1.5" d="M0,-3.0v7 M-2.5,-0.5L0,-3.0L2.5,-0.5"/>
  </g>
  <g id="resetDef">
    <use xlink:href="#rim2" fill="#404040"><set attributeName="fill" to="#808080" begin="reset.mouseover" end="reset.mouseout"/></use>
  </g>
</defs>
<script type="application/ecmascript">
var viewWidth = 541;
var viewHeight = 141;
var sectionId = 'dynsection-12';
</script>
<script type="application/ecmascript" xlink:href="svg.min.js"/>
<svg id="graph" class="graph">
<g id="viewport">
<title>UInGameHUD::TeamStatsComponentsReadyHandle</title>
<!-- Node1 -->
<g id="Node000001" class="node">
<title>Node1</title>
<g id="a_Node000001"><a xlink:title=" ">
<polygon fill="#999999" stroke="#666666" points="189.25,-64 0,-64 0,-32 189.25,-32 189.25,-64"/>
<text xml:space="preserve" text-anchor="start" x="8" y="-50.5" font-family="Helvetica,sans-Serif" font-size="10.00">UInGameHUD::TeamStatsComponents</text>
<text xml:space="preserve" text-anchor="middle" x="94.62" y="-38.5" font-family="Helvetica,sans-Serif" font-size="10.00">ReadyHandle</text>
</a>
</g>
</g>
<!-- Node2 -->
<g id="Node000002" class="node">
<title>Node2</title>
<g id="a_Node000002"><a xlink:href="class_u_team_stats_component.html#a02772b4fd5c6a00656403377a0c9ca8d" target="_top" xlink:title=" ">
<polygon fill="white" stroke="#666666" points="356.38,-108 235.38,-108 235.38,-76 356.38,-76 356.38,-108"/>
<text xml:space="preserve" text-anchor="start" x="243.38" y="-94.5" font-family="Helvetica,sans-Serif" font-size="10.00">UTeamStatsComponent</text>
<text xml:space="preserve" text-anchor="middle" x="295.88" y="-82.5" font-family="Helvetica,sans-Serif" font-size="10.00">::BroadcastInitialValues</text>
</a>
</g>
</g>
<!-- Node1&#45;&gt;Node2 -->
<g id="edge1_Node000001_Node000002" class="edge">
<title>Node1&#45;&gt;Node2</title>
<g id="a_edge1_Node000001_Node000002"><a xlink:title=" ">
<path fill="none" stroke="#63b8ff" d="M170.1,-64.45C187.86,-68.37 206.76,-72.54 224.33,-76.42"/>
<polygon fill="#63b8ff" stroke="#63b8ff" points="223.09,-79.73 233.61,-78.47 224.6,-72.9 223.09,-79.73"/>
</a>
</g>
</g>
<!-- Node5 -->
<g id="Node000005" class="node">
<title>Node5</title>
<g id="a_Node000005"><a xlink:href="class_u_in_game_h_u_d.html#a7e1db18a43569f61eaf2b3e499cc4f0d" target="_top" xlink:title=" ">
<polygon fill="white" stroke="#666666" points="363.5,-58 228.25,-58 228.25,-38 363.5,-38 363.5,-58"/>
<text xml:space="preserve" text-anchor="middle" x="295.88" y="-44.5" font-family="Helvetica,sans-Serif" font-size="10.00">UInGameHUD::UpdateExp</text>
</a>
</g>
</g>
<!-- Node1&#45;&gt;Node5 -->
<g id="edge4_Node000001_Node000005" class="edge">
<title>Node1&#45;&gt;Node5</title>
<g id="a_edge4_Node000001_Node000005"><a xlink:title=" ">
<path fill="none" stroke="#63b8ff" d="M189.71,-48C198.67,-48 207.7,-48 216.5,-48"/>
<polygon fill="#63b8ff" stroke="#63b8ff" points="216.39,-51.5 226.39,-48 216.39,-44.5 216.39,-51.5"/>
</a>
</g>
</g>
<!-- Node6 -->
<g id="Node000006" class="node">
<title>Node6</title>
<g id="a_Node000006"><a xlink:href="class_u_in_game_h_u_d.html#abec8edfbf2a43178d1311adb10cf1f8d" target="_top" xlink:title=" ">
<polygon fill="white" stroke="#666666" points="366.5,-20 225.25,-20 225.25,0 366.5,0 366.5,-20"/>
<text xml:space="preserve" text-anchor="middle" x="295.88" y="-6.5" font-family="Helvetica,sans-Serif" font-size="10.00">UInGameHUD::UpdateLevel</text>
</a>
</g>
</g>
<!-- Node1&#45;&gt;Node6 -->
<g id="edge5_Node000001_Node000006" class="edge">
<title>Node1&#45;&gt;Node6</title>
<g id="a_edge5_Node000001_Node000006"><a xlink:title=" ">
<path fill="none" stroke="#63b8ff" d="M181.86,-31.55C197.53,-28.56 213.66,-25.49 228.64,-22.63"/>
<polygon fill="#63b8ff" stroke="#63b8ff" points="229.2,-26.09 238.36,-20.78 227.88,-19.21 229.2,-26.09"/>
</a>
</g>
</g>
<!-- Node3 -->
<g id="Node000003" class="node">
<title>Node3</title>
<g id="a_Node000003"><a xlink:href="class_u_team_stats_component.html#a1029e934e4cbbaee54579856de5fc89a" target="_top" xlink:title=" ">
<polygon fill="white" stroke="#666666" points="533.25,-133 402.5,-133 402.5,-101 533.25,-101 533.25,-133"/>
<text xml:space="preserve" text-anchor="start" x="410.5" y="-119.5" font-family="Helvetica,sans-Serif" font-size="10.00">UTeamStatsComponent</text>
<text xml:space="preserve" text-anchor="middle" x="467.88" y="-107.5" font-family="Helvetica,sans-Serif" font-size="10.00">::OnRep_TeamExperience</text>
</a>
</g>
</g>
<!-- Node2&#45;&gt;Node3 -->
<g id="edge2_Node000002_Node000003" class="edge">
<title>Node2&#45;&gt;Node3</title>
<g id="a_edge2_Node000002_Node000003"><a xlink:title=" ">
<path fill="none" stroke="#63b8ff" d="M356.81,-100.81C367.85,-102.44 379.51,-104.15 390.95,-105.83"/>
<polygon fill="#63b8ff" stroke="#63b8ff" points="390.38,-109.29 400.79,-107.28 391.4,-102.36 390.38,-109.29"/>
</a>
</g>
</g>
<!-- Node4 -->
<g id="Node000004" class="node">
<title>Node4</title>
<g id="a_Node000004"><a xlink:href="class_u_team_stats_component.html#a468a4b3491d730096db1e25973108d28" target="_top" xlink:title=" ">
<polygon fill="white" stroke="#666666" points="528.38,-83 407.38,-83 407.38,-51 528.38,-51 528.38,-83"/>
<text xml:space="preserve" text-anchor="start" x="415.38" y="-69.5" font-family="Helvetica,sans-Serif" font-size="10.00">UTeamStatsComponent</text>
<text xml:space="preserve" text-anchor="middle" x="467.88" y="-57.5" font-family="Helvetica,sans-Serif" font-size="10.00">::OnRep_TeamLevel</text>
</a>
</g>
</g>
<!-- Node2&#45;&gt;Node4 -->
<g id="edge3_Node000002_Node000004" class="edge">
<title>Node2&#45;&gt;Node4</title>
<g id="a_edge3_Node000002_Node000004"><a xlink:title=" ">
<path fill="none" stroke="#63b8ff" d="M356.81,-83.19C369.38,-81.34 382.75,-79.37 395.69,-77.47"/>
<polygon fill="#63b8ff" stroke="#63b8ff" points="396.03,-80.96 405.41,-76.04 395.01,-74.03 396.03,-80.96"/>
</a>
</g>
</g>
</g>
</svg>

<g id="navigator" transform="translate(0 0)" fill="#404254">
  <rect fill="#f2f5e9" fill-opacity="0.5" stroke="#606060" stroke-width=".5" x="0" y="0" width="60" height="60"/>
  <use id="zoomplus" xlink:href="#zoomPlus" x="17" y="9" onmousedown="handleZoom(evt,'in')"/>
  <use id="zoomminus" xlink:href="#zoomMin" x="42" y="9" onmousedown="handleZoom(evt,'out')"/>
  <use id="reset" xlink:href="#resetDef" x="30" y="36" onmousedown="handleReset()"/>
   <use id="arrowup" xlink:href="#arrowUp" x="0" y="0" onmousedown="handlePan(0,-1)"/>
  <use id="arrowright" xlink:href="#arrowRight" x="0" y="0" onmousedown="handlePan(1,0)"/>
  <use id="arrowdown" xlink:href="#arrowDown" x="0" y="0" onmousedown="handlePan(0,1)"/>
  <use id="arrowleft" xlink:href="#arrowLeft" x="0" y="0" onmousedown="handlePan(-1,0)"/>
</g>
<svg viewBox="0 0 15 15" width="100%" height="30px" preserveAspectRatio="xMaxYMin meet">
 <g id="arrow_out" transform="scale(0.3 0.3)">
  <a xlink:href="class_u_in_game_h_u_d_ae5432789c54f0fb4c503b8b353c46029_cgraph_org.svg" target="_base">
   <rect id="button" ry="5" rx="5" y="6" x="6" height="38" width="38"
        fill="#f2f5e9" fill-opacity="0.5" stroke="#606060" stroke-width="1.0"/>
   <path id="arrow"
     d="M 11.500037,31.436501 C 11.940474,20.09759 22.043105,11.32322 32.158766,21.979434 L 37.068811,17.246167 C 37.068811,17.246167 37.088388,32 37.088388,32 L 22.160133,31.978069 C 22.160133,31.978069 26.997745,27.140456 26.997745,27.140456 C 18.528582,18.264221 13.291696,25.230495 11.500037,31.436501 z"
     style="fill:#404040;"/>
  </a>
 </g>
</svg>

<style type='text/css'>
<![CDATA[
[data-mouse-over-selected='false'] { opacity: 0.7; }
[data-mouse-over-selected='true']  { opacity: 1.0; }
]]>
</style>
<script type="application/ecmascript"><![CDATA[
document.addEventListener('DOMContentLoaded', (event) => {
  highlightEdges();
  highlightAdjacentNodes();
});
]]></script>
</svg>
