<?xml version="1.0" encoding="UTF-8" standalone="no"?>
<!DOCTYPE svg PUBLIC "-//W3C//DTD SVG 1.1//EN"
 "http://www.w3.org/Graphics/SVG/1.1/DTD/svg11.dtd">
<!-- Generated by graphviz version 13.1.1 (20250719.2154)
 -->
<!-- Title: AKPTPlayerState::SetPersonalStateTag Pages: 1 -->
<svg width="1744pt" height="291pt"
 viewBox="0.00 0.00 1744.00 291.00" xmlns="http://www.w3.org/2000/svg" xmlns:xlink="http://www.w3.org/1999/xlink">
<g id="graph0" class="graph" transform="scale(1 1) rotate(0) translate(4 287)">
<title>AKPTPlayerState::SetPersonalStateTag</title>
<!-- Node1 -->
<g id="Node000001" class="node">
<title>Node1</title>
<g id="a_Node000001"><a xlink:title="업그레이드 선택 기회를 추가합니다.">
<polygon fill="#999999" stroke="#666666" points="1736.25,-132 1583.75,-132 1583.75,-100 1736.25,-100 1736.25,-132"/>
<text xml:space="preserve" text-anchor="start" x="1591.75" y="-118.5" font-family="Helvetica,sans-Serif" font-size="10.00">AKPTPlayerState::SetPersonal</text>
<text xml:space="preserve" text-anchor="middle" x="1660" y="-106.5" font-family="Helvetica,sans-Serif" font-size="10.00">StateTag</text>
</a>
</g>
</g>
<!-- Node2 -->
<g id="Node000002" class="node">
<title>Node2</title>
<g id="a_Node000002"><a xlink:href="class_a_k_p_t_in_game_mode.html#ad299e138b605334f03841982928f4e6e" target="_top" xlink:title="특정 플레이어를 현재 게임 페이즈에 맞게 초기화합니다.">
<polygon fill="white" stroke="#666666" points="1545.5,-207 1402.75,-207 1402.75,-175 1545.5,-175 1545.5,-207"/>
<text xml:space="preserve" text-anchor="start" x="1410.75" y="-193.5" font-family="Helvetica,sans-Serif" font-size="10.00">AKPTInGameMode::Initialize</text>
<text xml:space="preserve" text-anchor="middle" x="1474.12" y="-181.5" font-family="Helvetica,sans-Serif" font-size="10.00">PlayerForCurrentPhase</text>
</a>
</g>
</g>
<!-- Node1&#45;&gt;Node2 -->
<g id="edge1_Node000001_Node000002" class="edge">
<title>Node1&#45;&gt;Node2</title>
<g id="a_edge1_Node000001_Node000002"><a xlink:title=" ">
<path fill="none" stroke="#63b8ff" d="M1614.33,-137.19C1594.17,-146.47 1569.95,-157.21 1547.75,-166 1540.43,-168.9 1532.63,-171.78 1524.96,-174.52"/>
<polygon fill="#63b8ff" stroke="#63b8ff" points="1615.79,-140.37 1623.39,-132.99 1612.85,-134.02 1615.79,-140.37"/>
</a>
</g>
</g>
<!-- Node17 -->
<g id="Node000017" class="node">
<title>Node17</title>
<g id="a_Node000017"><a xlink:href="class_a_k_p_t_in_game_mode.html#a7759d3555460c0b82e18efc45f771445" target="_top" xlink:title="플레이어가 카드 보상 선택을 마쳤을 때 RewardManagerSubsystem이 호출합니다.">
<polygon fill="white" stroke="#666666" points="1547.75,-157 1400.5,-157 1400.5,-125 1547.75,-125 1547.75,-157"/>
<text xml:space="preserve" text-anchor="start" x="1408.5" y="-143.5" font-family="Helvetica,sans-Serif" font-size="10.00">AKPTInGameMode::OnPlayer</text>
<text xml:space="preserve" text-anchor="middle" x="1474.12" y="-131.5" font-family="Helvetica,sans-Serif" font-size="10.00">FinishedRewardChoice</text>
</a>
</g>
</g>
<!-- Node1&#45;&gt;Node17 -->
<g id="edge20_Node000001_Node000017" class="edge">
<title>Node1&#45;&gt;Node17</title>
<g id="a_edge20_Node000001_Node000017"><a xlink:title=" ">
<path fill="none" stroke="#63b8ff" d="M1572.1,-127.82C1564.05,-128.91 1555.95,-130.01 1548.05,-131.09"/>
<polygon fill="#63b8ff" stroke="#63b8ff" points="1572.48,-131.3 1581.92,-126.48 1571.53,-124.36 1572.48,-131.3"/>
</a>
</g>
</g>
<!-- Node18 -->
<g id="Node000018" class="node">
<title>Node18</title>
<g id="a_Node000018"><a xlink:href="class_a_k_p_t_in_game_mode.html#a5139e6eb55204de25e844d6aa4f49420" target="_top" xlink:title="플레이어가 상점에서 &#39;준비 완료&#39; 버튼을 눌렀을 때 호출됩니다.">
<polygon fill="white" stroke="#666666" points="1545.5,-107 1402.75,-107 1402.75,-75 1545.5,-75 1545.5,-107"/>
<text xml:space="preserve" text-anchor="start" x="1410.75" y="-93.5" font-family="Helvetica,sans-Serif" font-size="10.00">AKPTInGameMode::PlayerIs</text>
<text xml:space="preserve" text-anchor="middle" x="1474.12" y="-81.5" font-family="Helvetica,sans-Serif" font-size="10.00">ReadyForNight</text>
</a>
</g>
</g>
<!-- Node1&#45;&gt;Node18 -->
<g id="edge21_Node000001_Node000018" class="edge">
<title>Node1&#45;&gt;Node18</title>
<g id="a_edge21_Node000001_Node000018"><a xlink:title=" ">
<path fill="none" stroke="#63b8ff" d="M1572.01,-104.17C1563.29,-102.99 1554.51,-101.79 1545.98,-100.63"/>
<polygon fill="#63b8ff" stroke="#63b8ff" points="1571.53,-107.64 1581.92,-105.52 1572.48,-100.7 1571.53,-107.64"/>
</a>
</g>
</g>
<!-- Node19 -->
<g id="Node000019" class="node">
<title>Node19</title>
<g id="a_Node000019"><a xlink:href="class_a_k_p_t_player_state.html#a101f3e49cf5abbbf303907f02f5f0c9f" target="_top" xlink:title=" ">
<polygon fill="white" stroke="#666666" points="1544,-57 1404.25,-57 1404.25,-25 1544,-25 1544,-57"/>
<text xml:space="preserve" text-anchor="start" x="1412.25" y="-43.5" font-family="Helvetica,sans-Serif" font-size="10.00">AKPTPlayerState::ResetFor</text>
<text xml:space="preserve" text-anchor="middle" x="1474.12" y="-31.5" font-family="Helvetica,sans-Serif" font-size="10.00">NewGame</text>
</a>
</g>
</g>
<!-- Node1&#45;&gt;Node19 -->
<g id="edge22_Node000001_Node000019" class="edge">
<title>Node1&#45;&gt;Node19</title>
<g id="a_edge22_Node000001_Node000019"><a xlink:title=" ">
<path fill="none" stroke="#63b8ff" d="M1614.33,-94.81C1594.17,-85.53 1569.95,-74.79 1547.75,-66 1540.43,-63.1 1532.63,-60.22 1524.96,-57.48"/>
<polygon fill="#63b8ff" stroke="#63b8ff" points="1612.85,-97.98 1623.39,-99.01 1615.79,-91.63 1612.85,-97.98"/>
</a>
</g>
</g>
<!-- Node3 -->
<g id="Node000003" class="node">
<title>Node3</title>
<g id="a_Node000003"><a xlink:href="class_a_k_p_t_in_game_mode.html#aa4f70056d702908efb82a3a085b2d832" target="_top" xlink:title="주간 페이즈의 시작을 처리합니다.">
<polygon fill="white" stroke="#666666" points="1351.75,-163 1196.25,-163 1196.25,-131 1351.75,-131 1351.75,-163"/>
<text xml:space="preserve" text-anchor="start" x="1204.25" y="-149.5" font-family="Helvetica,sans-Serif" font-size="10.00">AKPTInGameMode::HandleDay</text>
<text xml:space="preserve" text-anchor="middle" x="1274" y="-137.5" font-family="Helvetica,sans-Serif" font-size="10.00">Phase</text>
</a>
</g>
</g>
<!-- Node2&#45;&gt;Node3 -->
<g id="edge2_Node000002_Node000003" class="edge">
<title>Node2&#45;&gt;Node3</title>
<g id="a_edge2_Node000002_Node000003"><a xlink:title=" ">
<path fill="none" stroke="#63b8ff" d="M1391.32,-172.83C1377.3,-169.72 1362.81,-166.5 1349.01,-163.44"/>
<polygon fill="#63b8ff" stroke="#63b8ff" points="1390.44,-176.22 1400.96,-174.97 1391.96,-169.39 1390.44,-176.22"/>
</a>
</g>
</g>
<!-- Node15 -->
<g id="Node000015" class="node">
<title>Node15</title>
<g id="a_Node000015"><a xlink:href="class_a_k_p_t_in_game_mode.html#ac4cacdaa16686d29b0f27a2dd65da50a" target="_top" xlink:title=" ">
<polygon fill="white" stroke="#666666" points="1364.5,-251 1183.5,-251 1183.5,-219 1364.5,-219 1364.5,-251"/>
<text xml:space="preserve" text-anchor="start" x="1191.5" y="-237.5" font-family="Helvetica,sans-Serif" font-size="10.00">AKPTInGameMode::HandleSeamless</text>
<text xml:space="preserve" text-anchor="middle" x="1274" y="-225.5" font-family="Helvetica,sans-Serif" font-size="10.00">TravelPlayer</text>
</a>
</g>
</g>
<!-- Node2&#45;&gt;Node15 -->
<g id="edge18_Node000002_Node000015" class="edge">
<title>Node2&#45;&gt;Node15</title>
<g id="a_edge18_Node000002_Node000015"><a xlink:title=" ">
<path fill="none" stroke="#63b8ff" d="M1391.32,-209.17C1377.3,-212.28 1362.81,-215.5 1349.01,-218.56"/>
<polygon fill="#63b8ff" stroke="#63b8ff" points="1391.96,-212.61 1400.96,-207.03 1390.44,-205.78 1391.96,-212.61"/>
</a>
</g>
</g>
<!-- Node16 -->
<g id="Node000016" class="node">
<title>Node16</title>
<g id="a_Node000016"><a xlink:href="class_a_k_p_t_in_game_mode.html#a1e36de33cf04e0c3a9f6ac97910e3d5f" target="_top" xlink:title=" ">
<polygon fill="white" stroke="#666666" points="1355.5,-201 1192.5,-201 1192.5,-181 1355.5,-181 1355.5,-201"/>
<text xml:space="preserve" text-anchor="middle" x="1274" y="-187.5" font-family="Helvetica,sans-Serif" font-size="10.00">AKPTInGameMode::OnPostLogin</text>
</a>
</g>
</g>
<!-- Node2&#45;&gt;Node16 -->
<g id="edge19_Node000002_Node000016" class="edge">
<title>Node2&#45;&gt;Node16</title>
<g id="a_edge19_Node000002_Node000016"><a xlink:title=" ">
<path fill="none" stroke="#63b8ff" d="M1390.95,-191C1379.32,-191 1367.38,-191 1355.79,-191"/>
<polygon fill="#63b8ff" stroke="#63b8ff" points="1390.92,-194.5 1400.92,-191 1390.92,-187.5 1390.92,-194.5"/>
</a>
</g>
</g>
<!-- Node4 -->
<g id="Node000004" class="node">
<title>Node4</title>
<g id="a_Node000004"><a xlink:href="class_a_k_p_t_in_game_mode.html#a9f93e98963e67a4aec973d492c0b437a" target="_top" xlink:title="새 라운드를 시작합니다.">
<polygon fill="white" stroke="#666666" points="1147.5,-157 991.25,-157 991.25,-137 1147.5,-137 1147.5,-157"/>
<text xml:space="preserve" text-anchor="middle" x="1069.38" y="-143.5" font-family="Helvetica,sans-Serif" font-size="10.00">AKPTInGameMode::StartRound</text>
</a>
</g>
</g>
<!-- Node3&#45;&gt;Node4 -->
<g id="edge3_Node000003_Node000004" class="edge">
<title>Node3&#45;&gt;Node4</title>
<g id="a_edge3_Node000003_Node000004"><a xlink:title=" ">
<path fill="none" stroke="#63b8ff" d="M1184.62,-147C1172.31,-147 1159.75,-147 1147.68,-147"/>
<polygon fill="#63b8ff" stroke="#63b8ff" points="1184.3,-150.5 1194.3,-147 1184.3,-143.5 1184.3,-150.5"/>
</a>
</g>
</g>
<!-- Node5 -->
<g id="Node000005" class="node">
<title>Node5</title>
<g id="a_Node000005"><a xlink:href="class_a_k_p_t_in_game_mode.html#a410acd626df9144d7ebb63b535dbc37b" target="_top" xlink:title=" ">
<polygon fill="white" stroke="#666666" points="955.25,-185 806.5,-185 806.5,-153 955.25,-153 955.25,-185"/>
<text xml:space="preserve" text-anchor="start" x="814.5" y="-171.5" font-family="Helvetica,sans-Serif" font-size="10.00">AKPTInGameMode::Complete</text>
<text xml:space="preserve" text-anchor="middle" x="880.88" y="-159.5" font-family="Helvetica,sans-Serif" font-size="10.00">PhaseTransition</text>
</a>
</g>
</g>
<!-- Node4&#45;&gt;Node5 -->
<g id="edge4_Node000004_Node000005" class="edge">
<title>Node4&#45;&gt;Node5</title>
<g id="a_edge4_Node000004_Node000005"><a xlink:title=" ">
<path fill="none" stroke="#63b8ff" d="M979.57,-157.48C971.52,-158.43 963.42,-159.38 955.52,-160.31"/>
<polygon fill="#63b8ff" stroke="#63b8ff" points="979.88,-160.96 989.4,-156.32 979.06,-154.01 979.88,-160.96"/>
</a>
</g>
</g>
<!-- Node14 -->
<g id="Node000014" class="node">
<title>Node14</title>
<g id="a_Node000014"><a xlink:href="class_a_k_p_t_in_game_mode.html#a88de57fba9da892b172c9106affe14f3" target="_top" xlink:title=" ">
<polygon fill="white" stroke="#666666" points="954.5,-135 807.25,-135 807.25,-115 954.5,-115 954.5,-135"/>
<text xml:space="preserve" text-anchor="middle" x="880.88" y="-121.5" font-family="Helvetica,sans-Serif" font-size="10.00">AKPTInGameMode::StartPlay</text>
</a>
</g>
</g>
<!-- Node4&#45;&gt;Node14 -->
<g id="edge17_Node000004_Node000014" class="edge">
<title>Node4&#45;&gt;Node14</title>
<g id="a_edge17_Node000004_Node000014"><a xlink:title=" ">
<path fill="none" stroke="#63b8ff" d="M979.66,-136.53C971.37,-135.56 963.04,-134.57 954.92,-133.62"/>
<polygon fill="#63b8ff" stroke="#63b8ff" points="979.06,-139.99 989.4,-137.68 979.88,-133.04 979.06,-139.99"/>
</a>
</g>
</g>
<!-- Node6 -->
<g id="Node000006" class="node">
<title>Node6</title>
<g id="a_Node000006"><a xlink:href="class_a_k_p_t_in_game_mode.html#a1c856c37dce7343a381723b5d842ecf7" target="_top" xlink:title="모든 플레이어가 사망했는지 확인합니다.">
<polygon fill="white" stroke="#666666" points="770.5,-201 581.25,-201 581.25,-181 770.5,-181 770.5,-201"/>
<text xml:space="preserve" text-anchor="middle" x="675.88" y="-187.5" font-family="Helvetica,sans-Serif" font-size="10.00">AKPTInGameMode::AreAllPlayersDead</text>
</a>
</g>
</g>
<!-- Node5&#45;&gt;Node6 -->
<g id="edge5_Node000005_Node000006" class="edge">
<title>Node5&#45;&gt;Node6</title>
<g id="a_edge5_Node000005_Node000006"><a xlink:title=" ">
<path fill="none" stroke="#63b8ff" d="M794.6,-178.24C786.73,-179.09 778.73,-179.96 770.79,-180.82"/>
<polygon fill="#63b8ff" stroke="#63b8ff" points="794.94,-181.72 804.51,-177.17 794.19,-174.77 794.94,-181.72"/>
</a>
</g>
</g>
<!-- Node6&#45;&gt;Node6 -->
<g id="edge6_Node000006_Node000006" class="edge">
<title>Node6&#45;&gt;Node6</title>
<g id="a_edge6_Node000006_Node000006"><a xlink:title=" ">
<path fill="none" stroke="#63b8ff" d="M712.49,-212.11C708.12,-216.14 695.92,-219 675.88,-219 640.24,-219 629.38,-209.98 643.3,-201.34"/>
<polygon fill="#63b8ff" stroke="#63b8ff" points="715.77,-210.89 708.98,-202.76 709.22,-213.35 715.77,-210.89"/>
</a>
</g>
</g>
<!-- Node7 -->
<g id="Node000007" class="node">
<title>Node7</title>
<g id="a_Node000007"><a xlink:href="class_a_k_p_t_in_game_mode.html#a0e1dec85eeba3835d463238c88f8904b" target="_top" xlink:title="야간 페이즈를 종료하고, 게임 종료 조건을 확인하거나 새 라운드를 시작합니다.">
<polygon fill="white" stroke="#666666" points="535.12,-207 387.88,-207 387.88,-175 535.12,-175 535.12,-207"/>
<text xml:space="preserve" text-anchor="start" x="395.88" y="-193.5" font-family="Helvetica,sans-Serif" font-size="10.00">AKPTInGameMode::EndNight</text>
<text xml:space="preserve" text-anchor="middle" x="461.5" y="-181.5" font-family="Helvetica,sans-Serif" font-size="10.00">Phase</text>
</a>
</g>
</g>
<!-- Node6&#45;&gt;Node7 -->
<g id="edge7_Node000006_Node000007" class="edge">
<title>Node6&#45;&gt;Node7</title>
<g id="a_edge7_Node000006_Node000007"><a xlink:title=" ">
<path fill="none" stroke="#63b8ff" d="M569.35,-191C557.89,-191 546.41,-191 535.46,-191"/>
<polygon fill="#63b8ff" stroke="#63b8ff" points="569.28,-194.5 579.28,-191 569.28,-187.5 569.28,-194.5"/>
</a>
</g>
</g>
<!-- Node10 -->
<g id="Node000010" class="node">
<title>Node10</title>
<g id="a_Node000010"><a xlink:href="class_a_k_p_t_in_game_mode.html#a3a63b6ea26b3ef6a916ca7b5fed4813f" target="_top" xlink:title="플레이어가 사망했을 때 호출됩니다.">
<polygon fill="white" stroke="#666666" points="545.25,-245 377.75,-245 377.75,-225 545.25,-225 545.25,-245"/>
<text xml:space="preserve" text-anchor="middle" x="461.5" y="-231.5" font-family="Helvetica,sans-Serif" font-size="10.00">AKPTInGameMode::OnPlayerDied</text>
</a>
</g>
</g>
<!-- Node6&#45;&gt;Node10 -->
<g id="edge11_Node000006_Node000010" class="edge">
<title>Node6&#45;&gt;Node10</title>
<g id="a_edge11_Node000006_Node000010"><a xlink:title=" ">
<path fill="none" stroke="#63b8ff" d="M613.32,-203.75C581.5,-210.35 543.15,-218.29 513.08,-224.52"/>
<polygon fill="#63b8ff" stroke="#63b8ff" points="613.71,-207.25 622.79,-201.79 612.29,-200.39 613.71,-207.25"/>
</a>
</g>
</g>
<!-- Node8 -->
<g id="Node000008" class="node">
<title>Node8</title>
<g id="a_Node000008"><a xlink:href="class_a_k_p_t_in_game_mode.html#acd0b193dd9ce700d2a4cb3953565584c" target="_top" xlink:title="야간 페이즈의 핵심 로직을 실행합니다.">
<polygon fill="white" stroke="#666666" points="341.75,-207 190.75,-207 190.75,-175 341.75,-175 341.75,-207"/>
<text xml:space="preserve" text-anchor="start" x="198.75" y="-193.5" font-family="Helvetica,sans-Serif" font-size="10.00">AKPTInGameMode::StartNight</text>
<text xml:space="preserve" text-anchor="middle" x="266.25" y="-181.5" font-family="Helvetica,sans-Serif" font-size="10.00">Phase</text>
</a>
</g>
</g>
<!-- Node7&#45;&gt;Node8 -->
<g id="edge8_Node000007_Node000008" class="edge">
<title>Node7&#45;&gt;Node8</title>
<g id="a_edge8_Node000007_Node000008"><a xlink:title=" ">
<path fill="none" stroke="#63b8ff" d="M376.17,-191C364.81,-191 353.21,-191 342.02,-191"/>
<polygon fill="#63b8ff" stroke="#63b8ff" points="375.93,-194.5 385.93,-191 375.93,-187.5 375.93,-194.5"/>
</a>
</g>
</g>
<!-- Node9 -->
<g id="Node000009" class="node">
<title>Node9</title>
<g id="a_Node000009"><a xlink:href="class_a_k_p_t_in_game_mode.html#a84edc1df98161132b7b803669c9299a0" target="_top" xlink:title="야간 페이즈를 시작하기 위한 준비 및 전환을 시작합니다.">
<polygon fill="white" stroke="#666666" points="154.75,-185 0,-185 0,-153 154.75,-153 154.75,-185"/>
<text xml:space="preserve" text-anchor="start" x="8" y="-171.5" font-family="Helvetica,sans-Serif" font-size="10.00">AKPTInGameMode::BeginNight</text>
<text xml:space="preserve" text-anchor="middle" x="77.38" y="-159.5" font-family="Helvetica,sans-Serif" font-size="10.00">PhaseLogic</text>
</a>
</g>
</g>
<!-- Node8&#45;&gt;Node9 -->
<g id="edge9_Node000008_Node000009" class="edge">
<title>Node8&#45;&gt;Node9</title>
<g id="a_edge9_Node000008_Node000009"><a xlink:title=" ">
<path fill="none" stroke="#63b8ff" d="M179.1,-180.86C171.11,-179.92 163.05,-178.97 155.16,-178.04"/>
<polygon fill="#63b8ff" stroke="#63b8ff" points="178.47,-184.31 188.81,-182 179.29,-177.36 178.47,-184.31"/>
</a>
</g>
</g>
<!-- Node9&#45;&gt;Node5 -->
<g id="edge10_Node000009_Node000005" class="edge">
<title>Node9&#45;&gt;Node5</title>
<g id="a_edge10_Node000009_Node000005"><a xlink:title=" ">
<path fill="none" stroke="#63b8ff" d="M166.64,-166.42C174.79,-166.25 182.92,-166.1 190.75,-166 414.91,-163.01 680.11,-166 806.19,-167.82"/>
<polygon fill="#63b8ff" stroke="#63b8ff" points="166.57,-162.92 156.65,-166.64 166.73,-169.92 166.57,-162.92"/>
</a>
</g>
</g>
<!-- Node11 -->
<g id="Node000011" class="node">
<title>Node11</title>
<g id="a_Node000011"><a xlink:href="class_a_player_character.html#aa38c751d8495a3e3d999eafad23d7a88" target="_top" xlink:title=" ">
<polygon fill="white" stroke="#666666" points="323.38,-283 209.12,-283 209.12,-263 323.38,-263 323.38,-283"/>
<text xml:space="preserve" text-anchor="middle" x="266.25" y="-269.5" font-family="Helvetica,sans-Serif" font-size="10.00">APlayerCharacter::Die</text>
</a>
</g>
</g>
<!-- Node10&#45;&gt;Node11 -->
<g id="edge12_Node000010_Node000011" class="edge">
<title>Node10&#45;&gt;Node11</title>
<g id="a_edge12_Node000010_Node000011"><a xlink:title=" ">
<path fill="none" stroke="#63b8ff" d="M396.13,-247.66C371.55,-252.49 343.82,-257.94 320.39,-262.55"/>
<polygon fill="#63b8ff" stroke="#63b8ff" points="396.56,-251.14 405.7,-245.78 395.21,-244.27 396.56,-251.14"/>
</a>
</g>
</g>
<!-- Node12 -->
<g id="Node000012" class="node">
<title>Node12</title>
<g id="a_Node000012"><a xlink:href="class_a_character_base.html#af4c20a0d4ddeb41b0eb305b807bcfc9d" target="_top" xlink:title=" ">
<polygon fill="white" stroke="#666666" points="341.75,-245 190.75,-245 190.75,-225 341.75,-225 341.75,-245"/>
<text xml:space="preserve" text-anchor="middle" x="266.25" y="-231.5" font-family="Helvetica,sans-Serif" font-size="10.00">ACharacterBase::HandleDeath</text>
</a>
</g>
</g>
<!-- Node10&#45;&gt;Node12 -->
<g id="edge13_Node000010_Node000012" class="edge">
<title>Node10&#45;&gt;Node12</title>
<g id="a_edge13_Node000010_Node000012"><a xlink:title=" ">
<path fill="none" stroke="#63b8ff" d="M366.06,-235C357.99,-235 349.91,-235 342.03,-235"/>
<polygon fill="#63b8ff" stroke="#63b8ff" points="365.91,-238.5 375.91,-235 365.91,-231.5 365.91,-238.5"/>
</a>
</g>
</g>
<!-- Node13 -->
<g id="Node000013" class="node">
<title>Node13</title>
<g id="a_Node000013"><a xlink:href="class_a_character_base.html#af3460531018611a7b3b2c59779c65ead" target="_top" xlink:title=" ">
<polygon fill="white" stroke="#666666" points="143.88,-245 10.88,-245 10.88,-225 143.88,-225 143.88,-245"/>
<text xml:space="preserve" text-anchor="middle" x="77.38" y="-231.5" font-family="Helvetica,sans-Serif" font-size="10.00">ACharacterBase::OnDeath</text>
</a>
</g>
</g>
<!-- Node12&#45;&gt;Node13 -->
<g id="edge14_Node000012_Node000013" class="edge">
<title>Node12&#45;&gt;Node13</title>
<g id="a_edge14_Node000012_Node000013"><a xlink:title=" ">
<path fill="none" stroke="#63b8ff" d="M179.15,-228.27C167.44,-228.21 155.56,-228.29 144.28,-228.52"/>
<polygon fill="#63b8ff" stroke="#63b8ff" points="178.77,-231.77 188.8,-228.36 178.84,-224.77 178.77,-231.77"/>
</a>
</g>
</g>
<!-- Node13&#45;&gt;Node12 -->
<g id="edge15_Node000013_Node000012" class="edge">
<title>Node13&#45;&gt;Node12</title>
<g id="a_edge15_Node000013_Node000012"><a xlink:title=" ">
<path fill="none" stroke="#63b8ff" d="M155.61,-241.66C167.09,-241.79 178.89,-241.78 190.32,-241.63"/>
<polygon fill="#63b8ff" stroke="#63b8ff" points="155.85,-238.16 145.79,-241.51 155.74,-245.16 155.85,-238.16"/>
</a>
</g>
</g>
<!-- Node13&#45;&gt;Node13 -->
<g id="edge16_Node000013_Node000013" class="edge">
<title>Node13&#45;&gt;Node13</title>
<g id="a_edge16_Node000013_Node000013"><a xlink:title=" ">
<path fill="none" stroke="#63b8ff" d="M111.11,-256.11C107.09,-260.14 95.84,-263 77.38,-263 44.54,-263 34.54,-253.98 47.36,-245.34"/>
<polygon fill="#63b8ff" stroke="#63b8ff" points="114.46,-255.08 107.88,-246.77 107.84,-257.36 114.46,-255.08"/>
</a>
</g>
</g>
<!-- Node20 -->
<g id="Node000020" class="node">
<title>Node20</title>
<g id="a_Node000020"><a xlink:href="class_a_k_p_t_lobby_game_mode.html#a3630fe9a12a1f9e5c395275fde8ba7cd" target="_top" xlink:title=" ">
<polygon fill="white" stroke="#666666" points="1346.5,-32 1201.5,-32 1201.5,0 1346.5,0 1346.5,-32"/>
<text xml:space="preserve" text-anchor="start" x="1209.5" y="-18.5" font-family="Helvetica,sans-Serif" font-size="10.00">AKPTLobbyGameMode::</text>
<text xml:space="preserve" text-anchor="middle" x="1274" y="-6.5" font-family="Helvetica,sans-Serif" font-size="10.00">HandleSeamlessTravelPlayer</text>
</a>
</g>
</g>
<!-- Node19&#45;&gt;Node20 -->
<g id="edge23_Node000019_Node000020" class="edge">
<title>Node19&#45;&gt;Node20</title>
<g id="a_edge23_Node000019_Node000020"><a xlink:title=" ">
<path fill="none" stroke="#63b8ff" d="M1392.45,-30.82C1377.38,-28.92 1361.73,-26.94 1346.94,-25.08"/>
<polygon fill="#63b8ff" stroke="#63b8ff" points="1391.97,-34.29 1402.33,-32.07 1392.85,-27.34 1391.97,-34.29"/>
</a>
</g>
</g>
<!-- Node21 -->
<g id="Node000021" class="node">
<title>Node21</title>
<g id="a_Node000021"><a xlink:href="class_a_k_p_t_lobby_game_mode.html#a1a3f3bc09c67eb1c2dcd2e434e177258" target="_top" xlink:title=" ">
<polygon fill="white" stroke="#666666" points="1336.38,-82 1211.62,-82 1211.62,-50 1336.38,-50 1336.38,-82"/>
<text xml:space="preserve" text-anchor="start" x="1219.62" y="-68.5" font-family="Helvetica,sans-Serif" font-size="10.00">AKPTLobbyGameMode::</text>
<text xml:space="preserve" text-anchor="middle" x="1274" y="-56.5" font-family="Helvetica,sans-Serif" font-size="10.00">PostLogin</text>
</a>
</g>
</g>
<!-- Node19&#45;&gt;Node21 -->
<g id="edge24_Node000019_Node000021" class="edge">
<title>Node19&#45;&gt;Node21</title>
<g id="a_edge24_Node000019_Node000021"><a xlink:title=" ">
<path fill="none" stroke="#63b8ff" d="M1392.65,-51.15C1373.97,-53.51 1354.38,-55.98 1336.65,-58.22"/>
<polygon fill="#63b8ff" stroke="#63b8ff" points="1392.85,-54.66 1402.33,-49.93 1391.97,-47.71 1392.85,-54.66"/>
</a>
</g>
</g>
</g>
</svg>
