<?xml version="1.0" encoding="UTF-8" standalone="no"?>
<!DOCTYPE svg PUBLIC "-//W3C//DTD SVG 1.1//EN"
 "http://www.w3.org/Graphics/SVG/1.1/DTD/svg11.dtd">
<!-- Generated by graphviz version 13.1.1 (20250719.2154)
 -->
<!-- Title: UKPTCheatManager::AddSkill Pages: 1 -->
<svg width="655pt" height="140pt"
 viewBox="0.00 0.00 655.00 140.00" xmlns="http://www.w3.org/2000/svg" xmlns:xlink="http://www.w3.org/1999/xlink">
<g id="graph0" class="graph" transform="scale(1 1) rotate(0) translate(4 136)">
<title>UKPTCheatManager::AddSkill</title>
<!-- Node1 -->
<g id="Node000001" class="node">
<title>Node1</title>
<g id="a_Node000001"><a xlink:title=" ">
<polygon fill="#999999" stroke="#666666" points="148.75,-76 0,-76 0,-56 148.75,-56 148.75,-76"/>
<text xml:space="preserve" text-anchor="middle" x="74.38" y="-62.5" font-family="Helvetica,sans-Serif" font-size="10.00">UKPTCheatManager::AddSkill</text>
</a>
</g>
</g>
<!-- Node2 -->
<g id="Node000002" class="node">
<title>Node2</title>
<g id="a_Node000002"><a xlink:href="class_u_skill_manager_component.html#ade57574476c2faa9d7356406cdd70b40" target="_top" xlink:title=" ">
<polygon fill="white" stroke="#666666" points="314.75,-82 184.75,-82 184.75,-50 314.75,-50 314.75,-82"/>
<text xml:space="preserve" text-anchor="start" x="192.75" y="-68.5" font-family="Helvetica,sans-Serif" font-size="10.00">USkillManagerComponent</text>
<text xml:space="preserve" text-anchor="middle" x="249.75" y="-56.5" font-family="Helvetica,sans-Serif" font-size="10.00">::AddSkill</text>
</a>
</g>
</g>
<!-- Node1&#45;&gt;Node2 -->
<g id="edge1_Node000001_Node000002" class="edge">
<title>Node1&#45;&gt;Node2</title>
<g id="a_edge1_Node000001_Node000002"><a xlink:title=" ">
<path fill="none" stroke="#63b8ff" d="M149.15,-66C157.02,-66 165.03,-66 172.91,-66"/>
<polygon fill="#63b8ff" stroke="#63b8ff" points="172.84,-69.5 182.84,-66 172.84,-62.5 172.84,-69.5"/>
</a>
</g>
</g>
<!-- Node3 -->
<g id="Node000003" class="node">
<title>Node3</title>
<g id="a_Node000003"><a xlink:href="class_u_skill_manager_component.html#abd079bd1871419539a26030ab82b5cf4" target="_top" xlink:title=" ">
<polygon fill="white" stroke="#666666" points="480.75,-132 350.75,-132 350.75,-100 480.75,-100 480.75,-132"/>
<text xml:space="preserve" text-anchor="start" x="358.75" y="-118.5" font-family="Helvetica,sans-Serif" font-size="10.00">USkillManagerComponent</text>
<text xml:space="preserve" text-anchor="middle" x="415.75" y="-106.5" font-family="Helvetica,sans-Serif" font-size="10.00">::BroadcastSkillChanged</text>
</a>
</g>
</g>
<!-- Node2&#45;&gt;Node3 -->
<g id="edge2_Node000002_Node000003" class="edge">
<title>Node2&#45;&gt;Node3</title>
<g id="a_edge2_Node000002_Node000003"><a xlink:title=" ">
<path fill="none" stroke="#63b8ff" d="M304.45,-82.37C318.96,-86.8 334.81,-91.63 349.86,-96.22"/>
<polygon fill="#63b8ff" stroke="#63b8ff" points="348.62,-99.5 359.2,-99.06 350.66,-92.8 348.62,-99.5"/>
</a>
</g>
</g>
<!-- Node5 -->
<g id="Node000005" class="node">
<title>Node5</title>
<g id="a_Node000005"><a xlink:href="class_u_skill_manager_component.html#a9f545589b45bf8e8dcb86d6a76e46e7d" target="_top" xlink:title=" ">
<polygon fill="white" stroke="#666666" points="480.75,-82 350.75,-82 350.75,-50 480.75,-50 480.75,-82"/>
<text xml:space="preserve" text-anchor="start" x="358.75" y="-68.5" font-family="Helvetica,sans-Serif" font-size="10.00">USkillManagerComponent</text>
<text xml:space="preserve" text-anchor="middle" x="415.75" y="-56.5" font-family="Helvetica,sans-Serif" font-size="10.00">::InitializeGivenAbility</text>
</a>
</g>
</g>
<!-- Node2&#45;&gt;Node5 -->
<g id="edge4_Node000002_Node000005" class="edge">
<title>Node2&#45;&gt;Node5</title>
<g id="a_edge4_Node000002_Node000005"><a xlink:title=" ">
<path fill="none" stroke="#63b8ff" d="M315.1,-66C322.96,-66 331.06,-66 339.08,-66"/>
<polygon fill="#63b8ff" stroke="#63b8ff" points="338.81,-69.5 348.81,-66 338.81,-62.5 338.81,-69.5"/>
</a>
</g>
</g>
<!-- Node8 -->
<g id="Node000008" class="node">
<title>Node8</title>
<g id="a_Node000008"><a xlink:href="class_u_skill_manager_component.html#a3b41166a0321b681e053fea536b461ee" target="_top" xlink:title=" ">
<polygon fill="white" stroke="#666666" points="480.75,-32 350.75,-32 350.75,0 480.75,0 480.75,-32"/>
<text xml:space="preserve" text-anchor="start" x="358.75" y="-18.5" font-family="Helvetica,sans-Serif" font-size="10.00">USkillManagerComponent</text>
<text xml:space="preserve" text-anchor="middle" x="415.75" y="-6.5" font-family="Helvetica,sans-Serif" font-size="10.00">::OnStunTagChanged</text>
</a>
</g>
</g>
<!-- Node2&#45;&gt;Node8 -->
<g id="edge7_Node000002_Node000008" class="edge">
<title>Node2&#45;&gt;Node8</title>
<g id="a_edge7_Node000002_Node000008"><a xlink:title=" ">
<path fill="none" stroke="#63b8ff" d="M304.45,-49.63C318.96,-45.2 334.81,-40.37 349.86,-35.78"/>
<polygon fill="#63b8ff" stroke="#63b8ff" points="350.66,-39.2 359.2,-32.94 348.62,-32.5 350.66,-39.2"/>
</a>
</g>
</g>
<!-- Node4 -->
<g id="Node000004" class="node">
<title>Node4</title>
<g id="a_Node000004"><a xlink:href="class_u_skill_manager_component.html#a300da93de3b72a22e7eb816885db5f88" target="_top" xlink:title=" ">
<polygon fill="white" stroke="#666666" points="646.75,-132 516.75,-132 516.75,-100 646.75,-100 646.75,-132"/>
<text xml:space="preserve" text-anchor="start" x="524.75" y="-118.5" font-family="Helvetica,sans-Serif" font-size="10.00">USkillManagerComponent</text>
<text xml:space="preserve" text-anchor="middle" x="581.75" y="-106.5" font-family="Helvetica,sans-Serif" font-size="10.00">::GetOwnedSkillIDs</text>
</a>
</g>
</g>
<!-- Node3&#45;&gt;Node4 -->
<g id="edge3_Node000003_Node000004" class="edge">
<title>Node3&#45;&gt;Node4</title>
<g id="a_edge3_Node000003_Node000004"><a xlink:title=" ">
<path fill="none" stroke="#63b8ff" d="M481.1,-116C488.96,-116 497.06,-116 505.08,-116"/>
<polygon fill="#63b8ff" stroke="#63b8ff" points="504.81,-119.5 514.81,-116 504.81,-112.5 504.81,-119.5"/>
</a>
</g>
</g>
<!-- Node6 -->
<g id="Node000006" class="node">
<title>Node6</title>
<g id="a_Node000006"><a xlink:href="class_u_base_skill_ability.html#a8e1e476e767f4c1567a3ea52725b9fdd" target="_top" xlink:title=" ">
<polygon fill="white" stroke="#666666" points="635.12,-82 528.38,-82 528.38,-50 635.12,-50 635.12,-82"/>
<text xml:space="preserve" text-anchor="start" x="536.38" y="-68.5" font-family="Helvetica,sans-Serif" font-size="10.00">UBaseSkillAbility::</text>
<text xml:space="preserve" text-anchor="middle" x="581.75" y="-56.5" font-family="Helvetica,sans-Serif" font-size="10.00">CalculateFinalStatus</text>
</a>
</g>
</g>
<!-- Node5&#45;&gt;Node6 -->
<g id="edge5_Node000005_Node000006" class="edge">
<title>Node5&#45;&gt;Node6</title>
<g id="a_edge5_Node000005_Node000006"><a xlink:title=" ">
<path fill="none" stroke="#63b8ff" d="M481.1,-66C492.74,-66 504.88,-66 516.52,-66"/>
<polygon fill="#63b8ff" stroke="#63b8ff" points="516.44,-69.5 526.44,-66 516.44,-62.5 516.44,-69.5"/>
</a>
</g>
</g>
<!-- Node7 -->
<g id="Node000007" class="node">
<title>Node7</title>
<g id="a_Node000007"><a xlink:href="class_u_base_skill_ability.html#ac270dffb5b74e423d2892af6f5e510f8" target="_top" xlink:title=" ">
<polygon fill="white" stroke="#666666" points="632.88,-32 530.62,-32 530.62,0 632.88,0 632.88,-32"/>
<text xml:space="preserve" text-anchor="start" x="538.62" y="-18.5" font-family="Helvetica,sans-Serif" font-size="10.00">UBaseSkillAbility::</text>
<text xml:space="preserve" text-anchor="middle" x="581.75" y="-6.5" font-family="Helvetica,sans-Serif" font-size="10.00">InitializeAbilityTable</text>
</a>
</g>
</g>
<!-- Node5&#45;&gt;Node7 -->
<g id="edge6_Node000005_Node000007" class="edge">
<title>Node5&#45;&gt;Node7</title>
<g id="a_edge6_Node000005_Node000007"><a xlink:title=" ">
<path fill="none" stroke="#63b8ff" d="M470.45,-49.63C486.09,-44.86 503.29,-39.62 519.36,-34.72"/>
<polygon fill="#63b8ff" stroke="#63b8ff" points="520.28,-38.1 528.82,-31.83 518.24,-31.4 520.28,-38.1"/>
</a>
</g>
</g>
</g>
</svg>
