<?xml version="1.0" encoding="UTF-8" standalone="no"?>
<!DOCTYPE svg PUBLIC "-//W3C//DTD SVG 1.1//EN"
 "http://www.w3.org/Graphics/SVG/1.1/DTD/svg11.dtd">
<!-- Generated by graphviz version 13.1.1 (20250719.2154)
 -->
<!-- Title: AMonsterBase::GetAbilitySystemComponent Pages: 1 -->
<svg width="670pt" height="242pt"
 viewBox="0.00 0.00 670.00 242.00" xmlns="http://www.w3.org/2000/svg" xmlns:xlink="http://www.w3.org/1999/xlink">
<g id="graph0" class="graph" transform="scale(1 1) rotate(0) translate(4 238)">
<title>AMonsterBase::GetAbilitySystemComponent</title>
<!-- Node1 -->
<g id="Node000001" class="node">
<title>Node1</title>
<g id="a_Node000001"><a xlink:title=" ">
<polygon fill="#999999" stroke="#666666" points="661.75,-142 532.5,-142 532.5,-110 661.75,-110 661.75,-142"/>
<text xml:space="preserve" text-anchor="start" x="540.5" y="-128.5" font-family="Helvetica,sans-Serif" font-size="10.00">AMonsterBase::GetAbility</text>
<text xml:space="preserve" text-anchor="middle" x="597.12" y="-116.5" font-family="Helvetica,sans-Serif" font-size="10.00">SystemComponent</text>
</a>
</g>
</g>
<!-- Node2 -->
<g id="Node000002" class="node">
<title>Node2</title>
<g id="a_Node000002"><a xlink:href="class_a_minion_monster.html#abd4b5c33c2b5e3657138bd6a078458d9" target="_top" xlink:title=" ">
<polygon fill="white" stroke="#666666" points="486,-234 349.25,-234 349.25,-214 486,-214 486,-234"/>
<text xml:space="preserve" text-anchor="middle" x="417.62" y="-220.5" font-family="Helvetica,sans-Serif" font-size="10.00">AMinionMonster::BeginPlay</text>
</a>
</g>
</g>
<!-- Node1&#45;&gt;Node2 -->
<g id="edge1_Node000001_Node000002" class="edge">
<title>Node1&#45;&gt;Node2</title>
<g id="a_edge1_Node000001_Node000002"><a xlink:title=" ">
<path fill="none" stroke="#63b8ff" d="M571.72,-150.37C552.74,-168.01 524.92,-191.1 496.5,-205 489.5,-208.42 481.83,-211.26 474.13,-213.6"/>
<polygon fill="#63b8ff" stroke="#63b8ff" points="574.11,-152.93 578.95,-143.5 569.29,-147.85 574.11,-152.93"/>
</a>
</g>
</g>
<!-- Node3 -->
<g id="Node000003" class="node">
<title>Node3</title>
<g id="a_Node000003"><a xlink:href="class_a_minion_monster.html#afa673a065f725133d8e430587d6b4cb9" target="_top" xlink:title=" ">
<polygon fill="white" stroke="#666666" points="489.75,-196 345.5,-196 345.5,-176 489.75,-176 489.75,-196"/>
<text xml:space="preserve" text-anchor="middle" x="417.62" y="-182.5" font-family="Helvetica,sans-Serif" font-size="10.00">AMinionMonster::FinishDying</text>
</a>
</g>
</g>
<!-- Node1&#45;&gt;Node3 -->
<g id="edge2_Node000001_Node000003" class="edge">
<title>Node1&#45;&gt;Node3</title>
<g id="a_edge2_Node000001_Node000003"><a xlink:title=" ">
<path fill="none" stroke="#63b8ff" d="M549.67,-146.82C533.09,-153.8 514.15,-161.25 496.5,-167 486.84,-170.15 476.36,-173.04 466.31,-175.58"/>
<polygon fill="#63b8ff" stroke="#63b8ff" points="550.97,-150.07 558.79,-142.93 548.22,-143.64 550.97,-150.07"/>
</a>
</g>
</g>
<!-- Node5 -->
<g id="Node000005" class="node">
<title>Node5</title>
<g id="a_Node000005"><a xlink:href="class_a_minion_monster.html#a617617f553cc4a44ab771182d6a5baeb" target="_top" xlink:title=" ">
<polygon fill="white" stroke="#666666" points="483.38,-158 351.88,-158 351.88,-138 483.38,-138 483.38,-158"/>
<text xml:space="preserve" text-anchor="middle" x="417.62" y="-144.5" font-family="Helvetica,sans-Serif" font-size="10.00">AMinionMonster::OnDeath</text>
</a>
</g>
</g>
<!-- Node1&#45;&gt;Node5 -->
<g id="edge5_Node000001_Node000005" class="edge">
<title>Node1&#45;&gt;Node5</title>
<g id="a_edge5_Node000001_Node000005"><a xlink:title=" ">
<path fill="none" stroke="#63b8ff" d="M520.86,-135.33C508.53,-136.86 495.86,-138.43 483.81,-139.92"/>
<polygon fill="#63b8ff" stroke="#63b8ff" points="521.05,-138.83 530.54,-134.13 520.19,-131.89 521.05,-138.83"/>
</a>
</g>
</g>
<!-- Node8 -->
<g id="Node000008" class="node">
<title>Node8</title>
<g id="a_Node000008"><a xlink:href="class_a_minion_monster.html#aef4ee3d8dedd4094d93c19d4ac32ca6a" target="_top" xlink:title=" ">
<polygon fill="white" stroke="#666666" points="484.88,-120 350.38,-120 350.38,-88 484.88,-88 484.88,-120"/>
<text xml:space="preserve" text-anchor="start" x="358.38" y="-106.5" font-family="Helvetica,sans-Serif" font-size="10.00">AMinionMonster::OnReturn</text>
<text xml:space="preserve" text-anchor="middle" x="417.62" y="-94.5" font-family="Helvetica,sans-Serif" font-size="10.00">ToPool_Implementation</text>
</a>
</g>
</g>
<!-- Node1&#45;&gt;Node8 -->
<g id="edge9_Node000001_Node000008" class="edge">
<title>Node1&#45;&gt;Node8</title>
<g id="a_edge9_Node000001_Node000008"><a xlink:title=" ">
<path fill="none" stroke="#63b8ff" d="M520.85,-116.67C509.04,-115.21 496.9,-113.7 485.3,-112.26"/>
<polygon fill="#63b8ff" stroke="#63b8ff" points="520.19,-120.11 530.54,-117.87 521.05,-113.17 520.19,-120.11"/>
</a>
</g>
</g>
<!-- Node9 -->
<g id="Node000009" class="node">
<title>Node9</title>
<g id="a_Node000009"><a xlink:href="class_a_minion_monster.html#a9d04c28642a18379b51b882681acb85a" target="_top" xlink:title=" ">
<polygon fill="white" stroke="#666666" points="496.5,-70 338.75,-70 338.75,-38 496.5,-38 496.5,-70"/>
<text xml:space="preserve" text-anchor="start" x="346.75" y="-56.5" font-family="Helvetica,sans-Serif" font-size="10.00">AMinionMonster::OnSpawnFrom</text>
<text xml:space="preserve" text-anchor="middle" x="417.62" y="-44.5" font-family="Helvetica,sans-Serif" font-size="10.00">Pool_Implementation</text>
</a>
</g>
</g>
<!-- Node1&#45;&gt;Node9 -->
<g id="edge10_Node000001_Node000009" class="edge">
<title>Node1&#45;&gt;Node9</title>
<g id="a_edge10_Node000001_Node000009"><a xlink:title=" ">
<path fill="none" stroke="#63b8ff" d="M554.32,-104.79C536.7,-96.25 515.83,-86.63 496.5,-79 488.97,-76.03 480.93,-73.14 472.99,-70.45"/>
<polygon fill="#63b8ff" stroke="#63b8ff" points="552.41,-107.75 562.93,-109.01 555.49,-101.47 552.41,-107.75"/>
</a>
</g>
</g>
<!-- Node10 -->
<g id="Node000010" class="node">
<title>Node10</title>
<g id="a_Node000010"><a xlink:href="class_a_minion_monster.html#a8e858fecfccc8fd45d96ce265fc1c4a0" target="_top" xlink:title=" ">
<polygon fill="white" stroke="#666666" points="489.75,-20 345.5,-20 345.5,0 489.75,0 489.75,-20"/>
<text xml:space="preserve" text-anchor="middle" x="417.62" y="-6.5" font-family="Helvetica,sans-Serif" font-size="10.00">AMinionMonster::ServerLogic</text>
</a>
</g>
</g>
<!-- Node1&#45;&gt;Node10 -->
<g id="edge11_Node000001_Node000010" class="edge">
<title>Node1&#45;&gt;Node10</title>
<g id="a_edge11_Node000001_Node000010"><a xlink:title=" ">
<path fill="none" stroke="#63b8ff" d="M576.77,-100.65C558.47,-78.45 529.02,-47.01 496.5,-29 490.29,-25.56 483.46,-22.74 476.51,-20.42"/>
<polygon fill="#63b8ff" stroke="#63b8ff" points="573.97,-102.75 582.96,-108.35 579.42,-98.36 573.97,-102.75"/>
</a>
</g>
</g>
<!-- Node4 -->
<g id="Node000004" class="node">
<title>Node4</title>
<g id="a_Node000004"><a xlink:href="class_a_minion_monster.html#a0dc3c10547100acaed04aa410111401b" target="_top" xlink:title=" ">
<polygon fill="white" stroke="#666666" points="302.75,-214 170.5,-214 170.5,-182 302.75,-182 302.75,-214"/>
<text xml:space="preserve" text-anchor="start" x="178.5" y="-200.5" font-family="Helvetica,sans-Serif" font-size="10.00">AMinionMonster::Multicast</text>
<text xml:space="preserve" text-anchor="middle" x="236.62" y="-188.5" font-family="Helvetica,sans-Serif" font-size="10.00">SetDesiredRotator</text>
</a>
</g>
</g>
<!-- Node3&#45;&gt;Node4 -->
<g id="edge3_Node000003_Node000004" class="edge">
<title>Node3&#45;&gt;Node4</title>
<g id="a_edge3_Node000003_Node000004"><a xlink:title=" ">
<path fill="none" stroke="#63b8ff" d="M333.66,-191.56C323.45,-192.25 313.13,-192.94 303.23,-193.6"/>
<polygon fill="#63b8ff" stroke="#63b8ff" points="333.85,-195.06 343.6,-190.9 333.39,-188.07 333.85,-195.06"/>
</a>
</g>
</g>
<!-- Node4&#45;&gt;Node4 -->
<g id="edge4_Node000004_Node000004" class="edge">
<title>Node4&#45;&gt;Node4</title>
<g id="a_edge4_Node000004_Node000004"><a xlink:title=" ">
<path fill="none" stroke="#63b8ff" d="M264.85,-225.71C260.14,-229.48 250.74,-232 236.62,-232 210.82,-232 200.74,-223.58 206.39,-214.44"/>
<polygon fill="#63b8ff" stroke="#63b8ff" points="268.28,-226.39 266.6,-215.93 261.39,-225.16 268.28,-226.39"/>
</a>
</g>
</g>
<!-- Node6 -->
<g id="Node000006" class="node">
<title>Node6</title>
<g id="a_Node000006"><a xlink:href="class_a_minion_monster.html#a3a16bd11e82fc828ec71c56674926af8" target="_top" xlink:title=" ">
<polygon fill="white" stroke="#666666" points="295.62,-146 177.62,-146 177.62,-126 295.62,-126 295.62,-146"/>
<text xml:space="preserve" text-anchor="middle" x="236.62" y="-132.5" font-family="Helvetica,sans-Serif" font-size="10.00">AMinionMonster::OnHit</text>
</a>
</g>
</g>
<!-- Node5&#45;&gt;Node6 -->
<g id="edge6_Node000005_Node000006" class="edge">
<title>Node5&#45;&gt;Node6</title>
<g id="a_edge6_Node000005_Node000006"><a xlink:title=" ">
<path fill="none" stroke="#63b8ff" d="M340.26,-142.88C325.4,-141.88 310.05,-140.86 295.89,-139.91"/>
<polygon fill="#63b8ff" stroke="#63b8ff" points="339.77,-146.36 349.99,-143.53 340.24,-139.37 339.77,-146.36"/>
</a>
</g>
</g>
<!-- Node6&#45;&gt;Node6 -->
<g id="edge8_Node000006_Node000006" class="edge">
<title>Node6&#45;&gt;Node6</title>
<g id="a_edge8_Node000006_Node000006"><a xlink:title=" ">
<path fill="none" stroke="#63b8ff" d="M266.56,-157.44C262.7,-161.3 252.73,-164 236.62,-164 207.18,-164 198.21,-154.98 209.71,-146.34"/>
<polygon fill="#63b8ff" stroke="#63b8ff" points="269.94,-156.53 263.93,-147.8 263.19,-158.37 269.94,-156.53"/>
</a>
</g>
</g>
<!-- Node7 -->
<g id="Node000007" class="node">
<title>Node7</title>
<g id="a_Node000007"><a xlink:href="class_a_minion_monster.html#a41a9c88f2978aa1667ec1555037bb71a" target="_top" xlink:title=" ">
<polygon fill="white" stroke="#666666" points="134.5,-146 0,-146 0,-126 134.5,-126 134.5,-146"/>
<text xml:space="preserve" text-anchor="middle" x="67.25" y="-132.5" font-family="Helvetica,sans-Serif" font-size="10.00">AMinionMonster::Damaged</text>
</a>
</g>
</g>
<!-- Node6&#45;&gt;Node7 -->
<g id="edge7_Node000006_Node000007" class="edge">
<title>Node6&#45;&gt;Node7</title>
<g id="a_edge7_Node000006_Node000007"><a xlink:title=" ">
<path fill="none" stroke="#63b8ff" d="M166.05,-136C155.72,-136 145.09,-136 134.83,-136"/>
<polygon fill="#63b8ff" stroke="#63b8ff" points="166.04,-139.5 176.04,-136 166.04,-132.5 166.04,-139.5"/>
</a>
</g>
</g>
</g>
</svg>
