<?xml version="1.0" encoding="UTF-8" standalone="no"?>
<!DOCTYPE svg PUBLIC "-//W3C//DTD SVG 1.1//EN"
 "http://www.w3.org/Graphics/SVG/1.1/DTD/svg11.dtd">
<!-- Generated by graphviz version 13.1.1 (20250719.2154)
 -->
<!-- Title: UUIManagerSubsystem::GetSingletonWidgetInstanceId Pages: 1 -->
<!--zoomable 279 -->

<svg id="main" version="1.1" xmlns="http://www.w3.org/2000/svg" xmlns:xlink="http://www.w3.org/1999/xlink" xml:space="preserve" onload="init(evt)">

<style type="text/css"><![CDATA[
.node, .edge {opacity: 0.7;}
.node.selected, .edge.selected {opacity: 1;}
.edge:hover path { stroke: red; }
.edge:hover polygon { stroke: red; fill: red; }
]]></style>

<defs>
  <circle id="rim" cx="0" cy="0" r="7"/>
  <circle id="rim2" cx="0" cy="0" r="3.5"/>
  <g id="zoomPlus">
    <use xlink:href="#rim" fill="#404040"><set attributeName="fill" to="#808080" begin="zoomplus.mouseover" end="zoomplus.mouseout"/></use>
    <path d="M-4,0h8M0,-4v8" fill="none" stroke="white" stroke-width="1.5" pointer-events="none"/>
  </g>
  <g id="zoomMin">
    <use xlink:href="#rim" fill="#404040"><set attributeName="fill" to="#808080" begin="zoomminus.mouseover" end="zoomminus.mouseout"/></use>
    <path d="M-4,0h8" fill="none" stroke="white" stroke-width="1.5" pointer-events="none"/>
  </g>
  <g id="arrowUp" transform="translate(30 24)">
    <use xlink:href="#rim"/>
    <path pointer-events="none" fill="none" stroke="white" stroke-width="1.5" d="M0,-3.0v7 M-2.5,-0.5L0,-3.0L2.5,-0.5"/>
  </g>
  <g id="arrowRight" transform="rotate(90) translate(36 -43)">
    <use xlink:href="#rim"/>
    <path pointer-events="none" fill="none" stroke="white" stroke-width="1.5" d="M0,-3.0v7 M-2.5,-0.5L0,-3.0L2.5,-0.5"/>
  </g>
  <g id="arrowDown" transform="rotate(180) translate(-30 -48)">
    <use xlink:href="#rim"/>
    <path pointer-events="none" fill="none" stroke="white" stroke-width="1.5" d="M0,-3.0v7 M-2.5,-0.5L0,-3.0L2.5,-0.5"/>
  </g>
  <g id="arrowLeft" transform="rotate(270) translate(-36 17)">
    <use xlink:href="#rim"/>
    <path pointer-events="none" fill="none" stroke="white" stroke-width="1.5" d="M0,-3.0v7 M-2.5,-0.5L0,-3.0L2.5,-0.5"/>
  </g>
  <g id="resetDef">
    <use xlink:href="#rim2" fill="#404040"><set attributeName="fill" to="#808080" begin="reset.mouseover" end="reset.mouseout"/></use>
  </g>
</defs>
<script type="application/ecmascript">
var viewWidth = 876;
var viewHeight = 279;
var sectionId = 'dynsection-12';
</script>
<script type="application/ecmascript" xlink:href="svg.min.js"/>
<svg id="graph" class="graph">
<g id="viewport">
<title>UUIManagerSubsystem::GetSingletonWidgetInstanceId</title>
<!-- Node1 -->
<g id="Node000001" class="node">
<title>Node1</title>
<g id="a_Node000001"><a xlink:title=" ">
<polygon fill="#999999" stroke="#666666" points="868.25,-170 713.5,-170 713.5,-138 868.25,-138 868.25,-170"/>
<text xml:space="preserve" text-anchor="start" x="721.5" y="-156.5" font-family="Helvetica,sans-Serif" font-size="10.00">UUIManagerSubsystem</text>
<text xml:space="preserve" text-anchor="middle" x="790.88" y="-144.5" font-family="Helvetica,sans-Serif" font-size="10.00">::GetSingletonWidgetInstanceId</text>
</a>
</g>
</g>
<!-- Node2 -->
<g id="Node000002" class="node">
<title>Node2</title>
<g id="a_Node000002"><a xlink:href="class_u_u_i_manager_subsystem.html#ab3585385436c5b97ecb36a19c318ff4d" target="_top" xlink:title="지정된 ID를 가진 &#39;싱글톤&#39; 위젯 객체 포인터를 반환합니다.">
<polygon fill="white" stroke="#666666" points="653.88,-271 532.88,-271 532.88,-239 653.88,-239 653.88,-271"/>
<text xml:space="preserve" text-anchor="start" x="540.88" y="-257.5" font-family="Helvetica,sans-Serif" font-size="10.00">UUIManagerSubsystem</text>
<text xml:space="preserve" text-anchor="middle" x="593.38" y="-245.5" font-family="Helvetica,sans-Serif" font-size="10.00">::GetSingletonWidget</text>
</a>
</g>
</g>
<!-- Node1&#45;&gt;Node2 -->
<g id="edge1_Node000001_Node000002" class="edge">
<title>Node1&#45;&gt;Node2</title>
<g id="a_edge1_Node000001_Node000002"><a xlink:title=" ">
<path fill="none" stroke="#63b8ff" d="M760.84,-177.26C738.98,-193.84 707.71,-215.65 677.5,-230 670.15,-233.49 662.2,-236.62 654.23,-239.39"/>
<polygon fill="#63b8ff" stroke="#63b8ff" points="762.91,-180.08 768.69,-171.21 758.63,-174.54 762.91,-180.08"/>
</a>
</g>
</g>
<!-- Node3 -->
<g id="Node000003" class="node">
<title>Node3</title>
<g id="a_Node000003"><a xlink:href="class_u_pause_u_i.html#a5910729a1146468a2a5a445648d12fa0" target="_top" xlink:title=" ">
<polygon fill="white" stroke="#666666" points="671.88,-221 514.88,-221 514.88,-201 671.88,-201 671.88,-221"/>
<text xml:space="preserve" text-anchor="middle" x="593.38" y="-207.5" font-family="Helvetica,sans-Serif" font-size="10.00">UPauseUI::HandleClickedClose</text>
</a>
</g>
</g>
<!-- Node1&#45;&gt;Node3 -->
<g id="edge2_Node000001_Node000003" class="edge">
<title>Node1&#45;&gt;Node3</title>
<g id="a_edge2_Node000001_Node000003"><a xlink:title=" ">
<path fill="none" stroke="#63b8ff" d="M733.73,-174.23C715.87,-180.33 695.96,-186.78 677.5,-192 666.67,-195.06 654.95,-197.98 643.81,-200.57"/>
<polygon fill="#63b8ff" stroke="#63b8ff" points="734.81,-177.56 743.12,-170.99 732.52,-170.95 734.81,-177.56"/>
</a>
</g>
</g>
<!-- Node6 -->
<g id="Node000006" class="node">
<title>Node6</title>
<g id="a_Node000006"><a xlink:href="class_u_shop_u_i.html#a86e30b557b9c8efbcb66007ad6987b84" target="_top" xlink:title=" ">
<polygon fill="white" stroke="#666666" points="669.25,-145 517.5,-145 517.5,-125 669.25,-125 669.25,-145"/>
<text xml:space="preserve" text-anchor="middle" x="593.38" y="-131.5" font-family="Helvetica,sans-Serif" font-size="10.00">UShopUI::HandleClickedClose</text>
</a>
</g>
</g>
<!-- Node1&#45;&gt;Node6 -->
<g id="edge5_Node000001_Node000006" class="edge">
<title>Node1&#45;&gt;Node6</title>
<g id="a_edge5_Node000001_Node000006"><a xlink:title=" ">
<path fill="none" stroke="#63b8ff" d="M701.98,-145.46C691.16,-144.41 680.18,-143.34 669.58,-142.31"/>
<polygon fill="#63b8ff" stroke="#63b8ff" points="701.37,-148.92 711.66,-146.4 702.05,-141.95 701.37,-148.92"/>
</a>
</g>
</g>
<!-- Node8 -->
<g id="Node000008" class="node">
<title>Node8</title>
<g id="a_Node000008"><a xlink:href="class_u_pause_u_i.html#ad272156d61dc1a44318b188bf06d403e" target="_top" xlink:title=" ">
<polygon fill="white" stroke="#666666" points="677.5,-183 509.25,-183 509.25,-163 677.5,-163 677.5,-183"/>
<text xml:space="preserve" text-anchor="middle" x="593.38" y="-169.5" font-family="Helvetica,sans-Serif" font-size="10.00">UPauseUI::HandleClickedResume</text>
</a>
</g>
</g>
<!-- Node1&#45;&gt;Node8 -->
<g id="edge7_Node000001_Node000008" class="edge">
<title>Node1&#45;&gt;Node8</title>
<g id="a_edge7_Node000001_Node000008"><a xlink:title=" ">
<path fill="none" stroke="#63b8ff" d="M701.96,-162.54C693.98,-163.32 685.91,-164.1 677.96,-164.88"/>
<polygon fill="#63b8ff" stroke="#63b8ff" points="702.05,-166.05 711.66,-161.6 701.37,-159.08 702.05,-166.05"/>
</a>
</g>
</g>
<!-- Node9 -->
<g id="Node000009" class="node">
<title>Node9</title>
<g id="a_Node000009"><a xlink:href="class_u_u_i_manager_subsystem.html#ab97849a761dc09f79fcbf69c45fc0ae3" target="_top" xlink:title=" ">
<polygon fill="white" stroke="#666666" points="653.88,-107 532.88,-107 532.88,-75 653.88,-75 653.88,-107"/>
<text xml:space="preserve" text-anchor="start" x="540.88" y="-93.5" font-family="Helvetica,sans-Serif" font-size="10.00">UUIManagerSubsystem</text>
<text xml:space="preserve" text-anchor="middle" x="593.38" y="-81.5" font-family="Helvetica,sans-Serif" font-size="10.00">::HandleEscapeAction</text>
</a>
</g>
</g>
<!-- Node1&#45;&gt;Node9 -->
<g id="edge10_Node000001_Node000009" class="edge">
<title>Node1&#45;&gt;Node9</title>
<g id="a_edge10_Node000001_Node000009"><a xlink:title=" ">
<path fill="none" stroke="#63b8ff" d="M731.83,-133.95C714.4,-128.05 695.21,-121.66 677.5,-116 668.6,-113.16 659.13,-110.23 649.9,-107.41"/>
<polygon fill="#63b8ff" stroke="#63b8ff" points="730.39,-137.16 740.99,-137.07 732.65,-130.53 730.39,-137.16"/>
</a>
</g>
</g>
<!-- Node10 -->
<g id="Node000010" class="node">
<title>Node10</title>
<g id="a_Node000010"><a xlink:href="class_u_u_i_manager_subsystem.html#aec1290f1100ff3c1b7fa144daec04166" target="_top" xlink:title=" ">
<polygon fill="white" stroke="#666666" points="661,-57 525.75,-57 525.75,-25 661,-25 661,-57"/>
<text xml:space="preserve" text-anchor="start" x="533.75" y="-43.5" font-family="Helvetica,sans-Serif" font-size="10.00">UUIManagerSubsystem</text>
<text xml:space="preserve" text-anchor="middle" x="593.38" y="-31.5" font-family="Helvetica,sans-Serif" font-size="10.00">::OnChangePlayerStateTag</text>
</a>
</g>
</g>
<!-- Node1&#45;&gt;Node10 -->
<g id="edge11_Node000001_Node000010" class="edge">
<title>Node1&#45;&gt;Node10</title>
<g id="a_edge11_Node000001_Node000010"><a xlink:title=" ">
<path fill="none" stroke="#63b8ff" d="M765.13,-130.15C743.54,-110.49 710.56,-83.14 677.5,-66 671.35,-62.81 664.72,-59.96 657.99,-57.43"/>
<polygon fill="#63b8ff" stroke="#63b8ff" points="762.55,-132.53 772.27,-136.76 767.31,-127.39 762.55,-132.53"/>
</a>
</g>
</g>
<!-- Node4 -->
<g id="Node000004" class="node">
<title>Node4</title>
<g id="a_Node000004"><a xlink:href="class_u_pause_u_i.html#a9eb5b5662314b5e9a43cf4e085176419" target="_top" xlink:title=" ">
<polygon fill="white" stroke="#666666" points="463.12,-221 324.12,-221 324.12,-201 463.12,-201 463.12,-221"/>
<text xml:space="preserve" text-anchor="middle" x="393.62" y="-207.5" font-family="Helvetica,sans-Serif" font-size="10.00">UPauseUI::NativeConstruct</text>
</a>
</g>
</g>
<!-- Node3&#45;&gt;Node4 -->
<g id="edge3_Node000003_Node000004" class="edge">
<title>Node3&#45;&gt;Node4</title>
<g id="a_edge3_Node000003_Node000004"><a xlink:title=" ">
<path fill="none" stroke="#63b8ff" d="M503.34,-211C489.95,-211 476.32,-211 463.44,-211"/>
<polygon fill="#63b8ff" stroke="#63b8ff" points="502.99,-214.5 512.99,-211 502.99,-207.5 502.99,-214.5"/>
</a>
</g>
</g>
<!-- Node5 -->
<g id="Node000005" class="node">
<title>Node5</title>
<g id="a_Node000005"><a xlink:href="class_u_pause_u_i.html#a044a4b6a8ff4a00b6065ca292cb165a9" target="_top" xlink:title=" ">
<polygon fill="white" stroke="#666666" points="460.5,-183 326.75,-183 326.75,-163 460.5,-163 460.5,-183"/>
<text xml:space="preserve" text-anchor="middle" x="393.62" y="-169.5" font-family="Helvetica,sans-Serif" font-size="10.00">UPauseUI::NativeDestruct</text>
</a>
</g>
</g>
<!-- Node3&#45;&gt;Node5 -->
<g id="edge4_Node000003_Node000005" class="edge">
<title>Node3&#45;&gt;Node5</title>
<g id="a_edge4_Node000003_Node000005"><a xlink:title=" ">
<path fill="none" stroke="#63b8ff" d="M526.51,-198.34C501.35,-193.51 472.98,-188.06 449.01,-183.45"/>
<polygon fill="#63b8ff" stroke="#63b8ff" points="525.85,-201.78 536.33,-200.23 527.17,-194.91 525.85,-201.78"/>
</a>
</g>
</g>
<!-- Node7 -->
<g id="Node000007" class="node">
<title>Node7</title>
<g id="a_Node000007"><a xlink:href="class_u_shop_u_i.html#ab8d30aa4ab0a8bf7ed1d77aa1f2ba1f5" target="_top" xlink:title=" ">
<polygon fill="white" stroke="#666666" points="460.5,-145 326.75,-145 326.75,-125 460.5,-125 460.5,-145"/>
<text xml:space="preserve" text-anchor="middle" x="393.62" y="-131.5" font-family="Helvetica,sans-Serif" font-size="10.00">UShopUI::NativeConstruct</text>
</a>
</g>
</g>
<!-- Node6&#45;&gt;Node7 -->
<g id="edge6_Node000006_Node000007" class="edge">
<title>Node6&#45;&gt;Node7</title>
<g id="a_edge6_Node000006_Node000007"><a xlink:title=" ">
<path fill="none" stroke="#63b8ff" d="M505.62,-135C490.55,-135 475.09,-135 460.69,-135"/>
<polygon fill="#63b8ff" stroke="#63b8ff" points="505.54,-138.5 515.54,-135 505.54,-131.5 505.54,-138.5"/>
</a>
</g>
</g>
<!-- Node8&#45;&gt;Node4 -->
<g id="edge8_Node000008_Node000004" class="edge">
<title>Node8&#45;&gt;Node4</title>
<g id="a_edge8_Node000008_Node000004"><a xlink:title=" ">
<path fill="none" stroke="#63b8ff" d="M526.51,-185.66C501.35,-190.49 472.98,-195.94 449.01,-200.55"/>
<polygon fill="#63b8ff" stroke="#63b8ff" points="527.17,-189.09 536.33,-183.77 525.85,-182.22 527.17,-189.09"/>
</a>
</g>
</g>
<!-- Node8&#45;&gt;Node5 -->
<g id="edge9_Node000008_Node000005" class="edge">
<title>Node8&#45;&gt;Node5</title>
<g id="a_edge9_Node000008_Node000005"><a xlink:title=" ">
<path fill="none" stroke="#63b8ff" d="M497.46,-173C485.07,-173 472.6,-173 460.82,-173"/>
<polygon fill="#63b8ff" stroke="#63b8ff" points="497.28,-176.5 507.28,-173 497.28,-169.5 497.28,-176.5"/>
</a>
</g>
</g>
<!-- Node11 -->
<g id="Node000011" class="node">
<title>Node11</title>
<g id="a_Node000011"><a xlink:href="class_u_u_i_manager_subsystem.html#a246ae6eabb3d321cdc4abc2068ca1e61" target="_top" xlink:title=" ">
<polygon fill="white" stroke="#666666" points="473.25,-57 314,-57 314,-25 473.25,-25 473.25,-57"/>
<text xml:space="preserve" text-anchor="start" x="322" y="-43.5" font-family="Helvetica,sans-Serif" font-size="10.00">UUIManagerSubsystem</text>
<text xml:space="preserve" text-anchor="middle" x="393.62" y="-31.5" font-family="Helvetica,sans-Serif" font-size="10.00">::BindPlayerStateAndGameState</text>
</a>
</g>
</g>
<!-- Node10&#45;&gt;Node11 -->
<g id="edge12_Node000010_Node000011" class="edge">
<title>Node10&#45;&gt;Node11</title>
<g id="a_edge12_Node000010_Node000011"><a xlink:title=" ">
<path fill="none" stroke="#63b8ff" d="M514.3,-41C500.87,-41 486.91,-41 473.46,-41"/>
<polygon fill="#63b8ff" stroke="#63b8ff" points="513.91,-44.5 523.91,-41 513.91,-37.5 513.91,-44.5"/>
</a>
</g>
</g>
<!-- Node12 -->
<g id="Node000012" class="node">
<title>Node12</title>
<g id="a_Node000012"><a xlink:href="class_u_u_i_manager_subsystem.html#ae786dee1d051999eb3e98960d96a39d4" target="_top" xlink:title=" ">
<polygon fill="white" stroke="#666666" points="278,-82 157,-82 157,-50 278,-50 278,-82"/>
<text xml:space="preserve" text-anchor="start" x="165" y="-68.5" font-family="Helvetica,sans-Serif" font-size="10.00">UUIManagerSubsystem</text>
<text xml:space="preserve" text-anchor="middle" x="217.5" y="-56.5" font-family="Helvetica,sans-Serif" font-size="10.00">::InitializeForPlayer</text>
</a>
</g>
</g>
<!-- Node11&#45;&gt;Node12 -->
<g id="edge13_Node000011_Node000012" class="edge">
<title>Node11&#45;&gt;Node12</title>
<g id="a_edge13_Node000011_Node000012"><a xlink:title=" ">
<path fill="none" stroke="#63b8ff" d="M302.55,-53.93C294.35,-55.11 286.19,-56.28 278.36,-57.41"/>
<polygon fill="#63b8ff" stroke="#63b8ff" points="302.81,-57.43 312.22,-52.54 301.82,-50.5 302.81,-57.43"/>
</a>
</g>
</g>
<!-- Node13 -->
<g id="Node000013" class="node">
<title>Node13</title>
<g id="a_Node000013"><a xlink:href="class_u_u_i_manager_subsystem.html#a8199a73ecef396d77dc15b4049ad7491" target="_top" xlink:title=" ">
<polygon fill="white" stroke="#666666" points="278,-32 157,-32 157,0 278,0 278,-32"/>
<text xml:space="preserve" text-anchor="start" x="165" y="-18.5" font-family="Helvetica,sans-Serif" font-size="10.00">UUIManagerSubsystem</text>
<text xml:space="preserve" text-anchor="middle" x="217.5" y="-6.5" font-family="Helvetica,sans-Serif" font-size="10.00">::OnChangeLevel</text>
</a>
</g>
</g>
<!-- Node11&#45;&gt;Node13 -->
<g id="edge14_Node000011_Node000013" class="edge">
<title>Node11&#45;&gt;Node13</title>
<g id="a_edge14_Node000011_Node000013"><a xlink:title=" ">
<path fill="none" stroke="#63b8ff" d="M302.55,-28.07C294.35,-26.89 286.19,-25.72 278.36,-24.59"/>
<polygon fill="#63b8ff" stroke="#63b8ff" points="301.82,-31.5 312.22,-29.46 302.81,-24.57 301.82,-31.5"/>
</a>
</g>
</g>
<!-- Node14 -->
<g id="Node000014" class="node">
<title>Node14</title>
<g id="a_Node000014"><a xlink:href="class_u_u_i_manager_subsystem.html#a0ece8b5888a4cfe5b70f308dcfb28478" target="_top" xlink:title=" ">
<polygon fill="white" stroke="#666666" points="121,-32 0,-32 0,0 121,0 121,-32"/>
<text xml:space="preserve" text-anchor="start" x="8" y="-18.5" font-family="Helvetica,sans-Serif" font-size="10.00">UUIManagerSubsystem</text>
<text xml:space="preserve" text-anchor="middle" x="60.5" y="-6.5" font-family="Helvetica,sans-Serif" font-size="10.00">::SetupInitialUI</text>
</a>
</g>
</g>
<!-- Node13&#45;&gt;Node14 -->
<g id="edge15_Node000013_Node000014" class="edge">
<title>Node13&#45;&gt;Node14</title>
<g id="a_edge15_Node000013_Node000014"><a xlink:title=" ">
<path fill="none" stroke="#63b8ff" d="M145.31,-16C137.27,-16 129.14,-16 121.27,-16"/>
<polygon fill="#63b8ff" stroke="#63b8ff" points="145.06,-19.5 155.06,-16 145.06,-12.5 145.06,-19.5"/>
</a>
</g>
</g>
</g>
</svg>

<g id="navigator" transform="translate(0 0)" fill="#404254">
  <rect fill="#f2f5e9" fill-opacity="0.5" stroke="#606060" stroke-width=".5" x="0" y="0" width="60" height="60"/>
  <use id="zoomplus" xlink:href="#zoomPlus" x="17" y="9" onmousedown="handleZoom(evt,'in')"/>
  <use id="zoomminus" xlink:href="#zoomMin" x="42" y="9" onmousedown="handleZoom(evt,'out')"/>
  <use id="reset" xlink:href="#resetDef" x="30" y="36" onmousedown="handleReset()"/>
   <use id="arrowup" xlink:href="#arrowUp" x="0" y="0" onmousedown="handlePan(0,-1)"/>
  <use id="arrowright" xlink:href="#arrowRight" x="0" y="0" onmousedown="handlePan(1,0)"/>
  <use id="arrowdown" xlink:href="#arrowDown" x="0" y="0" onmousedown="handlePan(0,1)"/>
  <use id="arrowleft" xlink:href="#arrowLeft" x="0" y="0" onmousedown="handlePan(-1,0)"/>
</g>
<svg viewBox="0 0 15 15" width="100%" height="30px" preserveAspectRatio="xMaxYMin meet">
 <g id="arrow_out" transform="scale(0.3 0.3)">
  <a xlink:href="class_u_u_i_manager_subsystem_aed4b9c08eec4848386a3a89108827ffd_icgraph_org.svg" target="_base">
   <rect id="button" ry="5" rx="5" y="6" x="6" height="38" width="38"
        fill="#f2f5e9" fill-opacity="0.5" stroke="#606060" stroke-width="1.0"/>
   <path id="arrow"
     d="M 11.500037,31.436501 C 11.940474,20.09759 22.043105,11.32322 32.158766,21.979434 L 37.068811,17.246167 C 37.068811,17.246167 37.088388,32 37.088388,32 L 22.160133,31.978069 C 22.160133,31.978069 26.997745,27.140456 26.997745,27.140456 C 18.528582,18.264221 13.291696,25.230495 11.500037,31.436501 z"
     style="fill:#404040;"/>
  </a>
 </g>
</svg>

<style type='text/css'>
<![CDATA[
[data-mouse-over-selected='false'] { opacity: 0.7; }
[data-mouse-over-selected='true']  { opacity: 1.0; }
]]>
</style>
<script type="application/ecmascript"><![CDATA[
document.addEventListener('DOMContentLoaded', (event) => {
  highlightEdges();
  highlightAdjacentNodes();
});
]]></script>
</svg>
