<?xml version="1.0" encoding="UTF-8" standalone="no"?>
<!DOCTYPE svg PUBLIC "-//W3C//DTD SVG 1.1//EN"
 "http://www.w3.org/Graphics/SVG/1.1/DTD/svg11.dtd">
<!-- Generated by graphviz version 13.1.1 (20250719.2154)
 -->
<!-- Title: UKPTBaseAttributeSet::ATTRIBUTE_ACCESSORS Pages: 1 -->
<!--zoomable 417 -->

<svg id="main" version="1.1" xmlns="http://www.w3.org/2000/svg" xmlns:xlink="http://www.w3.org/1999/xlink" xml:space="preserve" onload="init(evt)">

<style type="text/css"><![CDATA[
.node, .edge {opacity: 0.7;}
.node.selected, .edge.selected {opacity: 1;}
.edge:hover path { stroke: red; }
.edge:hover polygon { stroke: red; fill: red; }
]]></style>

<defs>
  <circle id="rim" cx="0" cy="0" r="7"/>
  <circle id="rim2" cx="0" cy="0" r="3.5"/>
  <g id="zoomPlus">
    <use xlink:href="#rim" fill="#404040"><set attributeName="fill" to="#808080" begin="zoomplus.mouseover" end="zoomplus.mouseout"/></use>
    <path d="M-4,0h8M0,-4v8" fill="none" stroke="white" stroke-width="1.5" pointer-events="none"/>
  </g>
  <g id="zoomMin">
    <use xlink:href="#rim" fill="#404040"><set attributeName="fill" to="#808080" begin="zoomminus.mouseover" end="zoomminus.mouseout"/></use>
    <path d="M-4,0h8" fill="none" stroke="white" stroke-width="1.5" pointer-events="none"/>
  </g>
  <g id="arrowUp" transform="translate(30 24)">
    <use xlink:href="#rim"/>
    <path pointer-events="none" fill="none" stroke="white" stroke-width="1.5" d="M0,-3.0v7 M-2.5,-0.5L0,-3.0L2.5,-0.5"/>
  </g>
  <g id="arrowRight" transform="rotate(90) translate(36 -43)">
    <use xlink:href="#rim"/>
    <path pointer-events="none" fill="none" stroke="white" stroke-width="1.5" d="M0,-3.0v7 M-2.5,-0.5L0,-3.0L2.5,-0.5"/>
  </g>
  <g id="arrowDown" transform="rotate(180) translate(-30 -48)">
    <use xlink:href="#rim"/>
    <path pointer-events="none" fill="none" stroke="white" stroke-width="1.5" d="M0,-3.0v7 M-2.5,-0.5L0,-3.0L2.5,-0.5"/>
  </g>
  <g id="arrowLeft" transform="rotate(270) translate(-36 17)">
    <use xlink:href="#rim"/>
    <path pointer-events="none" fill="none" stroke="white" stroke-width="1.5" d="M0,-3.0v7 M-2.5,-0.5L0,-3.0L2.5,-0.5"/>
  </g>
  <g id="resetDef">
    <use xlink:href="#rim2" fill="#404040"><set attributeName="fill" to="#808080" begin="reset.mouseover" end="reset.mouseout"/></use>
  </g>
</defs>
<script type="application/ecmascript">
var viewWidth = 674;
var viewHeight = 417;
var sectionId = 'dynsection-4';
</script>
<script type="application/ecmascript" xlink:href="svg.min.js"/>
<svg id="graph" class="graph">
<g id="viewport">
<title>UKPTBaseAttributeSet::ATTRIBUTE_ACCESSORS</title>
<!-- Node1 -->
<g id="Node000001" class="node">
<title>Node1</title>
<g id="a_Node000001"><a xlink:title=" ">
<polygon fill="#999999" stroke="#666666" points="146.5,-220 0,-220 0,-188 146.5,-188 146.5,-220"/>
<text xml:space="preserve" text-anchor="start" x="8" y="-206.5" font-family="Helvetica,sans-Serif" font-size="10.00">UKPTBaseAttributeSet</text>
<text xml:space="preserve" text-anchor="middle" x="73.25" y="-194.5" font-family="Helvetica,sans-Serif" font-size="10.00">::ATTRIBUTE_ACCESSORS</text>
</a>
</g>
</g>
<!-- Node2 -->
<g id="Node000002" class="node">
<title>Node2</title>
<g id="a_Node000002"><a xlink:href="class_u_k_p_t_base_attribute_set.html#af69775654b04dbbf60e63520305eb677" target="_top" xlink:title=" ">
<polygon fill="white" stroke="#666666" points="665.5,-289 542.25,-289 542.25,-257 665.5,-257 665.5,-289"/>
<text xml:space="preserve" text-anchor="start" x="550.25" y="-275.5" font-family="Helvetica,sans-Serif" font-size="10.00">UKPTBaseAttributeSet</text>
<text xml:space="preserve" text-anchor="middle" x="603.88" y="-263.5" font-family="Helvetica,sans-Serif" font-size="10.00">::UKPTBaseAttributeSet</text>
</a>
</g>
</g>
<!-- Node1&#45;&gt;Node2 -->
<g id="edge1_Node000001_Node000002" class="edge">
<title>Node1&#45;&gt;Node2</title>
<g id="a_edge1_Node000001_Node000002"><a xlink:title=" ">
<path fill="none" stroke="#63b8ff" d="M78.91,-220.45C90,-256.06 121.67,-339.72 182.5,-373 309.24,-442.33 373.11,-400.07 506.25,-344 532.96,-332.75 559.19,-312.74 577.57,-296.82"/>
<polygon fill="#63b8ff" stroke="#63b8ff" points="579.65,-299.66 584.8,-290.4 575,-294.43 579.65,-299.66"/>
</a>
</g>
</g>
<!-- Node3 -->
<g id="Node000003" class="node">
<title>Node3</title>
<g id="a_Node000003"><a xlink:href="class_u_k_p_t_base_attribute_set.html#a0ba619d0da98bad19dd79d40adfad15a" target="_top" xlink:title=" ">
<polygon fill="white" stroke="#666666" points="329.75,-346 183.25,-346 183.25,-314 329.75,-314 329.75,-346"/>
<text xml:space="preserve" text-anchor="start" x="191.25" y="-332.5" font-family="Helvetica,sans-Serif" font-size="10.00">UKPTBaseAttributeSet</text>
<text xml:space="preserve" text-anchor="middle" x="256.5" y="-320.5" font-family="Helvetica,sans-Serif" font-size="10.00">::ATTRIBUTE_ACCESSORS</text>
</a>
</g>
</g>
<!-- Node1&#45;&gt;Node3 -->
<g id="edge2_Node000001_Node000003" class="edge">
<title>Node1&#45;&gt;Node3</title>
<g id="a_edge2_Node000001_Node000003"><a xlink:title=" ">
<path fill="none" stroke="#63b8ff" d="M89.38,-220.48C109.16,-241.25 145.63,-277 182.5,-300 187.59,-303.17 193.07,-306.14 198.66,-308.87"/>
<polygon fill="#63b8ff" stroke="#63b8ff" points="196.86,-311.9 207.4,-312.91 199.79,-305.54 196.86,-311.9"/>
</a>
</g>
</g>
<!-- Node4 -->
<g id="Node000004" class="node">
<title>Node4</title>
<g id="a_Node000004"><a xlink:href="class_u_k_p_t_base_attribute_set.html#a100e8ad1ed6278e7e3ccfb90d3cfe65f" target="_top" xlink:title=" ">
<polygon fill="white" stroke="#666666" points="495,-314 377.75,-314 377.75,-282 495,-282 495,-314"/>
<text xml:space="preserve" text-anchor="start" x="385.75" y="-300.5" font-family="Helvetica,sans-Serif" font-size="10.00">UKPTBaseAttributeSet</text>
<text xml:space="preserve" text-anchor="middle" x="436.38" y="-288.5" font-family="Helvetica,sans-Serif" font-size="10.00">::OnRep_MaxHealth</text>
</a>
</g>
</g>
<!-- Node1&#45;&gt;Node4 -->
<g id="edge13_Node000001_Node000004" class="edge">
<title>Node1&#45;&gt;Node4</title>
<g id="a_edge13_Node000001_Node000004"><a xlink:title=" ">
<path fill="none" stroke="#63b8ff" d="M107.68,-220.41C128.73,-230.19 156.71,-242.17 182.5,-250 243.32,-268.46 314.62,-281.23 365.98,-288.93"/>
<polygon fill="#63b8ff" stroke="#63b8ff" points="365.38,-292.37 375.78,-290.37 366.4,-285.45 365.38,-292.37"/>
</a>
</g>
</g>
<!-- Node5 -->
<g id="Node000005" class="node">
<title>Node5</title>
<g id="a_Node000005"><a xlink:href="class_u_k_p_t_base_attribute_set.html#ab965caf8a7e82744d0e1c0e1fafec15c" target="_top" xlink:title=" ">
<polygon fill="white" stroke="#666666" points="495,-264 377.75,-264 377.75,-232 495,-232 495,-264"/>
<text xml:space="preserve" text-anchor="start" x="385.75" y="-250.5" font-family="Helvetica,sans-Serif" font-size="10.00">UKPTBaseAttributeSet</text>
<text xml:space="preserve" text-anchor="middle" x="436.38" y="-238.5" font-family="Helvetica,sans-Serif" font-size="10.00">::OnRep_AttackPower</text>
</a>
</g>
</g>
<!-- Node1&#45;&gt;Node5 -->
<g id="edge7_Node000001_Node000005" class="edge">
<title>Node1&#45;&gt;Node5</title>
<g id="a_edge7_Node000001_Node000005"><a xlink:title=" ">
<path fill="none" stroke="#63b8ff" d="M138.34,-220.49C152.78,-223.74 168.1,-226.81 182.5,-229 244.21,-238.39 315.13,-243.21 366.13,-245.63"/>
<polygon fill="#63b8ff" stroke="#63b8ff" points="365.68,-249.12 375.83,-246.08 366,-242.13 365.68,-249.12"/>
</a>
</g>
</g>
<!-- Node6 -->
<g id="Node000006" class="node">
<title>Node6</title>
<g id="a_Node000006"><a xlink:href="class_u_k_p_t_base_attribute_set.html#a6831b4466594f48c32a6d2e9a1a44181" target="_top" xlink:title=" ">
<polygon fill="white" stroke="#666666" points="317.75,-220 195.25,-220 195.25,-188 317.75,-188 317.75,-220"/>
<text xml:space="preserve" text-anchor="start" x="203.25" y="-206.5" font-family="Helvetica,sans-Serif" font-size="10.00">UKPTBaseAttributeSet</text>
<text xml:space="preserve" text-anchor="middle" x="256.5" y="-194.5" font-family="Helvetica,sans-Serif" font-size="10.00">::OnRep_DefensePower</text>
</a>
</g>
</g>
<!-- Node1&#45;&gt;Node6 -->
<g id="edge9_Node000001_Node000006" class="edge">
<title>Node1&#45;&gt;Node6</title>
<g id="a_edge9_Node000001_Node000006"><a xlink:title=" ">
<path fill="none" stroke="#63b8ff" d="M146.93,-204C159.02,-204 171.55,-204 183.62,-204"/>
<polygon fill="#63b8ff" stroke="#63b8ff" points="183.51,-207.5 193.51,-204 183.51,-200.5 183.51,-207.5"/>
</a>
</g>
</g>
<!-- Node7 -->
<g id="Node000007" class="node">
<title>Node7</title>
<g id="a_Node000007"><a xlink:href="class_u_k_p_t_base_attribute_set.html#a6296a071c5afc870ebb9bb8dbc797bcf" target="_top" xlink:title=" ">
<polygon fill="white" stroke="#666666" points="495,-176 377.75,-176 377.75,-144 495,-144 495,-176"/>
<text xml:space="preserve" text-anchor="start" x="385.75" y="-162.5" font-family="Helvetica,sans-Serif" font-size="10.00">UKPTBaseAttributeSet</text>
<text xml:space="preserve" text-anchor="middle" x="436.38" y="-150.5" font-family="Helvetica,sans-Serif" font-size="10.00">::OnRep_Health</text>
</a>
</g>
</g>
<!-- Node1&#45;&gt;Node7 -->
<g id="edge11_Node000001_Node000007" class="edge">
<title>Node1&#45;&gt;Node7</title>
<g id="a_edge11_Node000001_Node000007"><a xlink:title=" ">
<path fill="none" stroke="#63b8ff" d="M138.34,-187.51C152.78,-184.26 168.1,-181.19 182.5,-179 244.21,-169.61 315.13,-164.79 366.13,-162.37"/>
<polygon fill="#63b8ff" stroke="#63b8ff" points="366,-165.87 375.83,-161.92 365.68,-158.88 366,-165.87"/>
</a>
</g>
</g>
<!-- Node8 -->
<g id="Node000008" class="node">
<title>Node8</title>
<g id="a_Node000008"><a xlink:href="class_u_k_p_t_base_attribute_set.html#afc4d5faaf00935c85fec041169977759" target="_top" xlink:title=" ">
<polygon fill="white" stroke="#666666" points="330.5,-132 182.5,-132 182.5,-100 330.5,-100 330.5,-132"/>
<text xml:space="preserve" text-anchor="start" x="190.5" y="-118.5" font-family="Helvetica,sans-Serif" font-size="10.00">UKPTBaseAttributeSet</text>
<text xml:space="preserve" text-anchor="middle" x="256.5" y="-106.5" font-family="Helvetica,sans-Serif" font-size="10.00">::PostGameplayEffectExecute</text>
</a>
</g>
</g>
<!-- Node1&#45;&gt;Node8 -->
<g id="edge14_Node000001_Node000008" class="edge">
<title>Node1&#45;&gt;Node8</title>
<g id="a_edge14_Node000001_Node000008"><a xlink:title=" ">
<path fill="none" stroke="#63b8ff" d="M102.79,-187.68C124.38,-175.58 154.93,-159.01 182.5,-146 189.16,-142.86 196.24,-139.71 203.27,-136.7"/>
<polygon fill="#63b8ff" stroke="#63b8ff" points="204.23,-140.1 212.09,-133 201.52,-133.64 204.23,-140.1"/>
</a>
</g>
</g>
<!-- Node12 -->
<g id="Node000012" class="node">
<title>Node12</title>
<g id="a_Node000012"><a xlink:href="class_u_k_p_t_base_attribute_set.html#a27934874e3d6c7e84cbc0aaab03f9a7b" target="_top" xlink:title=" ">
<polygon fill="white" stroke="#666666" points="321.5,-82 191.5,-82 191.5,-50 321.5,-50 321.5,-82"/>
<text xml:space="preserve" text-anchor="start" x="199.5" y="-68.5" font-family="Helvetica,sans-Serif" font-size="10.00">UKPTBaseAttributeSet</text>
<text xml:space="preserve" text-anchor="middle" x="256.5" y="-56.5" font-family="Helvetica,sans-Serif" font-size="10.00">::PreAttributeBaseChange</text>
</a>
</g>
</g>
<!-- Node1&#45;&gt;Node12 -->
<g id="edge20_Node000001_Node000012" class="edge">
<title>Node1&#45;&gt;Node12</title>
<g id="a_edge20_Node000001_Node000012"><a xlink:title=" ">
<path fill="none" stroke="#63b8ff" d="M85.71,-187.8C103.7,-163.5 140.83,-117.62 182.5,-91 184.48,-89.73 186.54,-88.52 188.65,-87.36"/>
<polygon fill="#63b8ff" stroke="#63b8ff" points="190.05,-90.57 197.47,-83.01 186.95,-84.3 190.05,-90.57"/>
</a>
</g>
</g>
<!-- Node13 -->
<g id="Node000013" class="node">
<title>Node13</title>
<g id="a_Node000013"><a xlink:href="class_u_k_p_t_base_attribute_set.html#a5e7b0125c00c264e15ca6cbc95de3c8c" target="_top" xlink:title=" ">
<polygon fill="white" stroke="#666666" points="315.12,-32 197.88,-32 197.88,0 315.12,0 315.12,-32"/>
<text xml:space="preserve" text-anchor="start" x="205.88" y="-18.5" font-family="Helvetica,sans-Serif" font-size="10.00">UKPTBaseAttributeSet</text>
<text xml:space="preserve" text-anchor="middle" x="256.5" y="-6.5" font-family="Helvetica,sans-Serif" font-size="10.00">::PreAttributeChange</text>
</a>
</g>
</g>
<!-- Node1&#45;&gt;Node13 -->
<g id="edge21_Node000001_Node000013" class="edge">
<title>Node1&#45;&gt;Node13</title>
<g id="a_edge21_Node000001_Node000013"><a xlink:title=" ">
<path fill="none" stroke="#63b8ff" d="M80.83,-187.54C94.7,-154.86 130.06,-81.47 182.5,-41 184.21,-39.68 185.99,-38.43 187.84,-37.24"/>
<polygon fill="#63b8ff" stroke="#63b8ff" points="189.15,-40.52 196.14,-32.56 185.71,-34.42 189.15,-40.52"/>
</a>
</g>
</g>
<!-- Node3&#45;&gt;Node2 -->
<g id="edge3_Node000003_Node000002" class="edge">
<title>Node3&#45;&gt;Node2</title>
<g id="a_edge3_Node000003_Node000002"><a xlink:title=" ">
<path fill="none" stroke="#63b8ff" d="M329.99,-336.39C380.26,-338.79 448.32,-337.97 506.25,-323 528.37,-317.29 551.15,-305.81 569.04,-295.3"/>
<polygon fill="#63b8ff" stroke="#63b8ff" points="570.67,-298.4 577.4,-290.22 567.04,-292.41 570.67,-298.4"/>
</a>
</g>
</g>
<!-- Node3&#45;&gt;Node3 -->
<g id="edge4_Node000003_Node000003" class="edge">
<title>Node3&#45;&gt;Node3</title>
<g id="a_edge4_Node000003_Node000003"><a xlink:title=" ">
<path fill="none" stroke="#63b8ff" d="M224.39,-346.44C218.39,-355.58 229.1,-364 256.5,-364 271.49,-364 281.48,-361.48 286.48,-357.71"/>
<polygon fill="#63b8ff" stroke="#63b8ff" points="289.9,-358.41 288.33,-347.93 283.03,-357.1 289.9,-358.41"/>
</a>
</g>
</g>
<!-- Node3&#45;&gt;Node4 -->
<g id="edge5_Node000003_Node000004" class="edge">
<title>Node3&#45;&gt;Node4</title>
<g id="a_edge5_Node000003_Node000004"><a xlink:title=" ">
<path fill="none" stroke="#63b8ff" d="M330.11,-316.94C342.04,-314.79 354.39,-312.57 366.24,-310.44"/>
<polygon fill="#63b8ff" stroke="#63b8ff" points="366.71,-313.91 375.93,-308.69 365.47,-307.02 366.71,-313.91"/>
</a>
</g>
</g>
<!-- Node4&#45;&gt;Node2 -->
<g id="edge6_Node000004_Node000002" class="edge">
<title>Node4&#45;&gt;Node2</title>
<g id="a_edge6_Node000004_Node000002"><a xlink:title=" ">
<path fill="none" stroke="#63b8ff" d="M495.26,-289.26C506.7,-287.53 518.85,-285.69 530.69,-283.9"/>
<polygon fill="#63b8ff" stroke="#63b8ff" points="531.07,-287.39 540.44,-282.43 530.02,-280.46 531.07,-287.39"/>
</a>
</g>
</g>
<!-- Node5&#45;&gt;Node2 -->
<g id="edge8_Node000005_Node000002" class="edge">
<title>Node5&#45;&gt;Node2</title>
<g id="a_edge8_Node000005_Node000002"><a xlink:title=" ">
<path fill="none" stroke="#63b8ff" d="M495.26,-256.74C506.7,-258.47 518.85,-260.31 530.69,-262.1"/>
<polygon fill="#63b8ff" stroke="#63b8ff" points="530.02,-265.54 540.44,-263.57 531.07,-258.61 530.02,-265.54"/>
</a>
</g>
</g>
<!-- Node6&#45;&gt;Node2 -->
<g id="edge10_Node000006_Node000002" class="edge">
<title>Node6&#45;&gt;Node2</title>
<g id="a_edge10_Node000006_Node000002"><a xlink:title=" ">
<path fill="none" stroke="#63b8ff" d="M318.24,-201.94C369.35,-201.78 443.86,-205.27 506.25,-223 528.07,-229.2 550.68,-240.59 568.54,-250.93"/>
<polygon fill="#63b8ff" stroke="#63b8ff" points="566.52,-253.8 576.9,-255.91 570.11,-247.79 566.52,-253.8"/>
</a>
</g>
</g>
<!-- Node7&#45;&gt;Node2 -->
<g id="edge12_Node000007_Node000002" class="edge">
<title>Node7&#45;&gt;Node2</title>
<g id="a_edge12_Node000007_Node000002"><a xlink:title=" ">
<path fill="none" stroke="#63b8ff" d="M480.64,-176.48C489.37,-180.45 498.29,-185.01 506.25,-190 533.1,-206.84 560.16,-230.84 578.79,-248.7"/>
<polygon fill="#63b8ff" stroke="#63b8ff" points="576.29,-251.14 585.89,-255.61 581.17,-246.13 576.29,-251.14"/>
</a>
</g>
</g>
<!-- Node8&#45;&gt;Node7 -->
<g id="edge17_Node000008_Node000007" class="edge">
<title>Node8&#45;&gt;Node7</title>
<g id="a_edge17_Node000008_Node000007"><a xlink:title=" ">
<path fill="none" stroke="#63b8ff" d="M323.99,-132.45C337.85,-135.87 352.48,-139.5 366.43,-142.95"/>
<polygon fill="#63b8ff" stroke="#63b8ff" points="365.42,-146.3 375.97,-145.31 367.1,-139.51 365.42,-146.3"/>
</a>
</g>
</g>
<!-- Node9 -->
<g id="Node000009" class="node">
<title>Node9</title>
<g id="a_Node000009"><a xlink:href="class_i_combat_interface.html#ae9a9f51ad046ac0fc7537e993e0b2fed" target="_top" xlink:title=" ">
<polygon fill="white" stroke="#666666" points="506.25,-126 366.5,-126 366.5,-106 506.25,-106 506.25,-126"/>
<text xml:space="preserve" text-anchor="middle" x="436.38" y="-112.5" font-family="Helvetica,sans-Serif" font-size="10.00">ICombatInterface::Damaged</text>
</a>
</g>
</g>
<!-- Node8&#45;&gt;Node9 -->
<g id="edge15_Node000008_Node000009" class="edge">
<title>Node8&#45;&gt;Node9</title>
<g id="a_edge15_Node000008_Node000009"><a xlink:title=" ">
<path fill="none" stroke="#63b8ff" d="M330.88,-116C338.81,-116 346.92,-116 354.93,-116"/>
<polygon fill="#63b8ff" stroke="#63b8ff" points="354.66,-119.5 364.66,-116 354.66,-112.5 354.66,-119.5"/>
</a>
</g>
</g>
<!-- Node10 -->
<g id="Node000010" class="node">
<title>Node10</title>
<g id="a_Node000010"><a xlink:href="class_i_combat_interface.html#acd16baa2ee3b73a96c58a27153c31da2" target="_top" xlink:title=" ">
<polygon fill="white" stroke="#666666" points="492.75,-88 380,-88 380,-68 492.75,-68 492.75,-88"/>
<text xml:space="preserve" text-anchor="middle" x="436.38" y="-74.5" font-family="Helvetica,sans-Serif" font-size="10.00">ICombatInterface::Die</text>
</a>
</g>
</g>
<!-- Node8&#45;&gt;Node10 -->
<g id="edge16_Node000008_Node000010" class="edge">
<title>Node8&#45;&gt;Node10</title>
<g id="a_edge16_Node000008_Node000010"><a xlink:title=" ">
<path fill="none" stroke="#63b8ff" d="M330.88,-100.32C345.6,-97.18 360.91,-93.91 375.13,-90.87"/>
<polygon fill="#63b8ff" stroke="#63b8ff" points="375.74,-94.32 384.78,-88.81 374.27,-87.47 375.74,-94.32"/>
</a>
</g>
</g>
<!-- Node11 -->
<g id="Node000011" class="node">
<title>Node11</title>
<g id="a_Node000011"><a xlink:href="class_a_k_p_t_main_player_controller.html#ad1e65e5d3959ee87aa91fd8b3b826570" target="_top" xlink:title=" ">
<polygon fill="white" stroke="#666666" points="502.88,-32 369.88,-32 369.88,0 502.88,0 502.88,-32"/>
<text xml:space="preserve" text-anchor="start" x="377.88" y="-18.5" font-family="Helvetica,sans-Serif" font-size="10.00">AKPTMainPlayerController</text>
<text xml:space="preserve" text-anchor="middle" x="436.38" y="-6.5" font-family="Helvetica,sans-Serif" font-size="10.00">::ShowDamageFloater</text>
</a>
</g>
</g>
<!-- Node8&#45;&gt;Node11 -->
<g id="edge18_Node000008_Node000011" class="edge">
<title>Node8&#45;&gt;Node11</title>
<g id="a_edge18_Node000008_Node000011"><a xlink:title=" ">
<path fill="none" stroke="#63b8ff" d="M313.15,-99.56C319.16,-97.02 325.06,-94.17 330.5,-91 348.99,-80.21 349.36,-71.83 366.5,-59 376.17,-51.77 387.07,-44.56 397.31,-38.18"/>
<polygon fill="#63b8ff" stroke="#63b8ff" points="398.86,-41.33 405.56,-33.12 395.2,-35.36 398.86,-41.33"/>
</a>
</g>
</g>
<!-- Node11&#45;&gt;Node11 -->
<g id="edge19_Node000011_Node000011" class="edge">
<title>Node11&#45;&gt;Node11</title>
<g id="a_edge19_Node000011_Node000011"><a xlink:title=" ">
<path fill="none" stroke="#63b8ff" d="M406.47,-32.44C400.89,-41.58 410.86,-50 436.38,-50 450.33,-50 459.63,-47.48 464.29,-43.71"/>
<polygon fill="#63b8ff" stroke="#63b8ff" points="467.72,-44.39 466.02,-33.93 460.83,-43.17 467.72,-44.39"/>
</a>
</g>
</g>
</g>
</svg>

<g id="navigator" transform="translate(0 0)" fill="#404254">
  <rect fill="#f2f5e9" fill-opacity="0.5" stroke="#606060" stroke-width=".5" x="0" y="0" width="60" height="60"/>
  <use id="zoomplus" xlink:href="#zoomPlus" x="17" y="9" onmousedown="handleZoom(evt,'in')"/>
  <use id="zoomminus" xlink:href="#zoomMin" x="42" y="9" onmousedown="handleZoom(evt,'out')"/>
  <use id="reset" xlink:href="#resetDef" x="30" y="36" onmousedown="handleReset()"/>
   <use id="arrowup" xlink:href="#arrowUp" x="0" y="0" onmousedown="handlePan(0,-1)"/>
  <use id="arrowright" xlink:href="#arrowRight" x="0" y="0" onmousedown="handlePan(1,0)"/>
  <use id="arrowdown" xlink:href="#arrowDown" x="0" y="0" onmousedown="handlePan(0,1)"/>
  <use id="arrowleft" xlink:href="#arrowLeft" x="0" y="0" onmousedown="handlePan(-1,0)"/>
</g>
<svg viewBox="0 0 15 15" width="100%" height="30px" preserveAspectRatio="xMaxYMin meet">
 <g id="arrow_out" transform="scale(0.3 0.3)">
  <a xlink:href="class_u_k_p_t_base_attribute_set_a225f828fc9a99dbe8962a5fefb7518e6_cgraph_org.svg" target="_base">
   <rect id="button" ry="5" rx="5" y="6" x="6" height="38" width="38"
        fill="#f2f5e9" fill-opacity="0.5" stroke="#606060" stroke-width="1.0"/>
   <path id="arrow"
     d="M 11.500037,31.436501 C 11.940474,20.09759 22.043105,11.32322 32.158766,21.979434 L 37.068811,17.246167 C 37.068811,17.246167 37.088388,32 37.088388,32 L 22.160133,31.978069 C 22.160133,31.978069 26.997745,27.140456 26.997745,27.140456 C 18.528582,18.264221 13.291696,25.230495 11.500037,31.436501 z"
     style="fill:#404040;"/>
  </a>
 </g>
</svg>

<style type='text/css'>
<![CDATA[
[data-mouse-over-selected='false'] { opacity: 0.7; }
[data-mouse-over-selected='true']  { opacity: 1.0; }
]]>
</style>
<script type="application/ecmascript"><![CDATA[
document.addEventListener('DOMContentLoaded', (event) => {
  highlightEdges();
  highlightAdjacentNodes();
});
]]></script>
</svg>
