<?xml version="1.0" encoding="UTF-8" standalone="no"?>
<!DOCTYPE svg PUBLIC "-//W3C//DTD SVG 1.1//EN"
 "http://www.w3.org/Graphics/SVG/1.1/DTD/svg11.dtd">
<!-- Generated by graphviz version 13.1.1 (20250719.2154)
 -->
<!-- Title: UActiveAbilityBase Pages: 1 -->
<svg width="1046pt" height="688pt"
 viewBox="0.00 0.00 1046.00 688.00" xmlns="http://www.w3.org/2000/svg" xmlns:xlink="http://www.w3.org/1999/xlink">
<g id="graph0" class="graph" transform="scale(1 1) rotate(0) translate(4 684)">
<title>UActiveAbilityBase</title>
<!-- Node1 -->
<g id="Node000001" class="node">
<title>Node1</title>
<g id="a_Node000001"><a xlink:title=" ">
<polygon fill="#999999" stroke="none" points="636.25,-592 401.5,-592 401.5,-444 636.25,-444 636.25,-592"/>
<text xml:space="preserve" text-anchor="start" x="476.5" y="-578.5" font-family="Helvetica,sans-Serif" font-size="10.00">UActiveAbilityBase</text>
<text xml:space="preserve" text-anchor="start" x="405.5" y="-562.5" font-family="Helvetica,sans-Serif" font-size="10.00">+</text>
<text xml:space="preserve" text-anchor="start" x="415.5" y="-562.5" font-family="Helvetica,sans-Serif" font-size="10.00">float Cooldown</text>
<text xml:space="preserve" text-anchor="start" x="405.5" y="-546.5" font-family="Helvetica,sans-Serif" font-size="10.00">+</text>
<text xml:space="preserve" text-anchor="start" x="415.5" y="-546.5" font-family="Helvetica,sans-Serif" font-size="10.00">FGameplayTag CooldownTag</text>
<text xml:space="preserve" text-anchor="start" x="405.5" y="-530.5" font-family="Helvetica,sans-Serif" font-size="10.00">+</text>
<text xml:space="preserve" text-anchor="start" x="415.5" y="-530.5" font-family="Helvetica,sans-Serif" font-size="10.00">FGameplayTag InputTag</text>
<text xml:space="preserve" text-anchor="start" x="405.5" y="-514.5" font-family="Helvetica,sans-Serif" font-size="10.00">+</text>
<text xml:space="preserve" text-anchor="start" x="415.5" y="-514.5" font-family="Helvetica,sans-Serif" font-size="10.00">FGameplayTag SkillTag</text>
<text xml:space="preserve" text-anchor="start" x="405.88" y="-498.5" font-family="Helvetica,sans-Serif" font-size="10.00">#</text>
<text xml:space="preserve" text-anchor="start" x="415.5" y="-498.5" font-family="Helvetica,sans-Serif" font-size="10.00">virtual void ApplyCooldown</text>
<text xml:space="preserve" text-anchor="start" x="415.5" y="-486.5" font-family="Helvetica,sans-Serif" font-size="10.00">(const FGameplayAbilitySpecHandle</text>
<text xml:space="preserve" text-anchor="start" x="415.5" y="-474.5" font-family="Helvetica,sans-Serif" font-size="10.00"> Handle, const FGameplayAbilityActorInfo</text>
<text xml:space="preserve" text-anchor="start" x="415.5" y="-462.5" font-family="Helvetica,sans-Serif" font-size="10.00"> *ActorInfo, const FGameplayAbilityActivationInfo</text>
<text xml:space="preserve" text-anchor="start" x="415.5" y="-450.5" font-family="Helvetica,sans-Serif" font-size="10.00"> ActivationInfo) const override</text>
<polygon fill="#666666" stroke="#666666" points="401.5,-574 401.5,-574 636.25,-574 636.25,-574 401.5,-574"/>
<polygon fill="#666666" stroke="#666666" points="401.5,-510 401.5,-510 413.5,-510 413.5,-510 401.5,-510"/>
<polygon fill="#666666" stroke="#666666" points="413.5,-510 413.5,-510 636.25,-510 636.25,-510 413.5,-510"/>
<polygon fill="none" stroke="#666666" points="401.5,-444 401.5,-592 636.25,-592 636.25,-444 401.5,-444"/>
</a>
</g>
</g>
<!-- Node3 -->
<g id="Node000003" class="node">
<title>Node3</title>
<g id="a_Node000003"><a xlink:href="class_u_active_ability___counter.html" target="_top" xlink:title=" ">
<polygon fill="white" stroke="none" points="333.75,-408 0,-408 0,0 333.75,0 333.75,-408"/>
<text xml:space="preserve" text-anchor="start" x="115.88" y="-394.5" font-family="Helvetica,sans-Serif" font-size="10.00">UActiveAbility_Counter</text>
<text xml:space="preserve" text-anchor="start" x="4.38" y="-378.5" font-family="Helvetica,sans-Serif" font-size="10.00">#</text>
<text xml:space="preserve" text-anchor="start" x="14" y="-378.5" font-family="Helvetica,sans-Serif" font-size="10.00">float BaseDamage</text>
<text xml:space="preserve" text-anchor="start" x="4.38" y="-362.5" font-family="Helvetica,sans-Serif" font-size="10.00">#</text>
<text xml:space="preserve" text-anchor="start" x="14" y="-362.5" font-family="Helvetica,sans-Serif" font-size="10.00">bool bShowDebug</text>
<text xml:space="preserve" text-anchor="start" x="4.38" y="-346.5" font-family="Helvetica,sans-Serif" font-size="10.00">#</text>
<text xml:space="preserve" text-anchor="start" x="14" y="-346.5" font-family="Helvetica,sans-Serif" font-size="10.00">TObjectPtr&lt; UAnimMontage</text>
<text xml:space="preserve" text-anchor="start" x="14" y="-334.5" font-family="Helvetica,sans-Serif" font-size="10.00"> &gt; CounterMontage</text>
<text xml:space="preserve" text-anchor="start" x="4.38" y="-318.5" font-family="Helvetica,sans-Serif" font-size="10.00">#</text>
<text xml:space="preserve" text-anchor="start" x="14" y="-318.5" font-family="Helvetica,sans-Serif" font-size="10.00">FGameplayTag CriticalMultiplierTag</text>
<text xml:space="preserve" text-anchor="start" x="4.38" y="-302.5" font-family="Helvetica,sans-Serif" font-size="10.00">#</text>
<text xml:space="preserve" text-anchor="start" x="14" y="-302.5" font-family="Helvetica,sans-Serif" font-size="10.00">FGameplayTag CriticalTag</text>
<text xml:space="preserve" text-anchor="start" x="4.38" y="-286.5" font-family="Helvetica,sans-Serif" font-size="10.00">#</text>
<text xml:space="preserve" text-anchor="start" x="14" y="-286.5" font-family="Helvetica,sans-Serif" font-size="10.00">FGameplayTag DamageTag</text>
<text xml:space="preserve" text-anchor="start" x="4.38" y="-270.5" font-family="Helvetica,sans-Serif" font-size="10.00">#</text>
<text xml:space="preserve" text-anchor="start" x="14" y="-270.5" font-family="Helvetica,sans-Serif" font-size="10.00">float Duration</text>
<text xml:space="preserve" text-anchor="start" x="4.38" y="-254.5" font-family="Helvetica,sans-Serif" font-size="10.00">#</text>
<text xml:space="preserve" text-anchor="start" x="14" y="-254.5" font-family="Helvetica,sans-Serif" font-size="10.00">TSubclassOf&lt; AActor</text>
<text xml:space="preserve" text-anchor="start" x="14" y="-242.5" font-family="Helvetica,sans-Serif" font-size="10.00"> &gt; FilterClass</text>
<text xml:space="preserve" text-anchor="start" x="4.38" y="-226.5" font-family="Helvetica,sans-Serif" font-size="10.00">#</text>
<text xml:space="preserve" text-anchor="start" x="14" y="-226.5" font-family="Helvetica,sans-Serif" font-size="10.00">FVector HalfSize</text>
<text xml:space="preserve" text-anchor="start" x="4.38" y="-210.5" font-family="Helvetica,sans-Serif" font-size="10.00">#</text>
<text xml:space="preserve" text-anchor="start" x="14" y="-210.5" font-family="Helvetica,sans-Serif" font-size="10.00">TSubclassOf&lt; UGameplayEffect</text>
<text xml:space="preserve" text-anchor="start" x="14" y="-198.5" font-family="Helvetica,sans-Serif" font-size="10.00"> &gt; PayloadEffectClass</text>
<text xml:space="preserve" text-anchor="start" x="4.38" y="-182.5" font-family="Helvetica,sans-Serif" font-size="10.00">#</text>
<text xml:space="preserve" text-anchor="start" x="14" y="-182.5" font-family="Helvetica,sans-Serif" font-size="10.00">float TickInterval</text>
<text xml:space="preserve" text-anchor="start" x="4.38" y="-166.5" font-family="Helvetica,sans-Serif" font-size="10.00">#</text>
<text xml:space="preserve" text-anchor="start" x="14" y="-166.5" font-family="Helvetica,sans-Serif" font-size="10.00">ETraceShape TraceShape</text>
<text xml:space="preserve" text-anchor="start" x="4" y="-150.5" font-family="Helvetica,sans-Serif" font-size="10.00">+</text>
<text xml:space="preserve" text-anchor="start" x="14" y="-150.5" font-family="Helvetica,sans-Serif" font-size="10.00">virtual void ActivateAbility</text>
<text xml:space="preserve" text-anchor="start" x="14" y="-138.5" font-family="Helvetica,sans-Serif" font-size="10.00">(const FGameplayAbilitySpecHandle</text>
<text xml:space="preserve" text-anchor="start" x="14" y="-126.5" font-family="Helvetica,sans-Serif" font-size="10.00"> Handle, const FGameplayAbilityActorInfo</text>
<text xml:space="preserve" text-anchor="start" x="14" y="-114.5" font-family="Helvetica,sans-Serif" font-size="10.00"> *ActorInfo, const FGameplayAbilityActivationInfo</text>
<text xml:space="preserve" text-anchor="start" x="14" y="-102.5" font-family="Helvetica,sans-Serif" font-size="10.00"> ActivationInfo, const FGameplayEventData *TriggerEventData) override</text>
<text xml:space="preserve" text-anchor="start" x="4.38" y="-86.5" font-family="Helvetica,sans-Serif" font-size="10.00">#</text>
<text xml:space="preserve" text-anchor="start" x="14" y="-86.5" font-family="Helvetica,sans-Serif" font-size="10.00">void ApplyEffectToTarget</text>
<text xml:space="preserve" text-anchor="start" x="14" y="-74.5" font-family="Helvetica,sans-Serif" font-size="10.00">(AActor *Target, float</text>
<text xml:space="preserve" text-anchor="start" x="14" y="-62.5" font-family="Helvetica,sans-Serif" font-size="10.00"> DamageAmount)</text>
<text xml:space="preserve" text-anchor="start" x="4.38" y="-46.5" font-family="Helvetica,sans-Serif" font-size="10.00">#</text>
<text xml:space="preserve" text-anchor="start" x="14" y="-46.5" font-family="Helvetica,sans-Serif" font-size="10.00">void ExecuteTrace()</text>
<text xml:space="preserve" text-anchor="start" x="4.38" y="-30.5" font-family="Helvetica,sans-Serif" font-size="10.00">#</text>
<text xml:space="preserve" text-anchor="start" x="14" y="-30.5" font-family="Helvetica,sans-Serif" font-size="10.00">void OnTraceHit(const</text>
<text xml:space="preserve" text-anchor="start" x="14" y="-18.5" font-family="Helvetica,sans-Serif" font-size="10.00"> FGameplayAbilityTargetData</text>
<text xml:space="preserve" text-anchor="start" x="14" y="-6.5" font-family="Helvetica,sans-Serif" font-size="10.00">Handle &amp;TargetData)</text>
<polygon fill="#666666" stroke="#666666" points="0,-390 0,-390 333.75,-390 333.75,-390 0,-390"/>
<polygon fill="#666666" stroke="#666666" points="0,-162 0,-162 12,-162 12,-162 0,-162"/>
<polygon fill="#666666" stroke="#666666" points="12,-162 12,-162 333.75,-162 333.75,-162 12,-162"/>
<polygon fill="none" stroke="#666666" points="0,0 0,-408 333.75,-408 333.75,0 0,0"/>
</a>
</g>
</g>
<!-- Node1&#45;&gt;Node3 -->
<g id="edge2_Node000001_Node000003" class="edge">
<title>Node1&#45;&gt;Node3</title>
<g id="a_edge2_Node000001_Node000003"><a xlink:title=" ">
<path fill="none" stroke="#63b8ff" d="M392.22,-445.07C375.05,-433.47 358.11,-420.98 342.88,-408 339.77,-405.35 336.67,-402.65 333.58,-399.9"/>
<polygon fill="none" stroke="#63b8ff" points="390.25,-447.96 400.52,-450.58 394.13,-442.13 390.25,-447.96"/>
</a>
</g>
</g>
<!-- Node4 -->
<g id="Node000004" class="node">
<title>Node4</title>
<g id="a_Node000004"><a xlink:href="class_u_active_ability___dash.html" target="_top" xlink:title=" ">
<polygon fill="white" stroke="none" points="685.75,-296 352,-296 352,-112 685.75,-112 685.75,-296"/>
<text xml:space="preserve" text-anchor="start" x="473.5" y="-282.5" font-family="Helvetica,sans-Serif" font-size="10.00">UActiveAbility_Dash</text>
<text xml:space="preserve" text-anchor="start" x="356.38" y="-266.5" font-family="Helvetica,sans-Serif" font-size="10.00">#</text>
<text xml:space="preserve" text-anchor="start" x="366" y="-266.5" font-family="Helvetica,sans-Serif" font-size="10.00">float BaseDashDistance</text>
<text xml:space="preserve" text-anchor="start" x="356.38" y="-250.5" font-family="Helvetica,sans-Serif" font-size="10.00">#</text>
<text xml:space="preserve" text-anchor="start" x="366" y="-250.5" font-family="Helvetica,sans-Serif" font-size="10.00">TObjectPtr&lt; UCurveTable</text>
<text xml:space="preserve" text-anchor="start" x="366" y="-238.5" font-family="Helvetica,sans-Serif" font-size="10.00"> &gt; DashDistanceTable</text>
<text xml:space="preserve" text-anchor="start" x="356.38" y="-222.5" font-family="Helvetica,sans-Serif" font-size="10.00">#</text>
<text xml:space="preserve" text-anchor="start" x="366" y="-222.5" font-family="Helvetica,sans-Serif" font-size="10.00">TObjectPtr&lt; UNiagaraSystem</text>
<text xml:space="preserve" text-anchor="start" x="366" y="-210.5" font-family="Helvetica,sans-Serif" font-size="10.00"> &gt; DashEffect</text>
<text xml:space="preserve" text-anchor="start" x="356.38" y="-194.5" font-family="Helvetica,sans-Serif" font-size="10.00">#</text>
<text xml:space="preserve" text-anchor="start" x="366" y="-194.5" font-family="Helvetica,sans-Serif" font-size="10.00">TObjectPtr&lt; UAnimMontage</text>
<text xml:space="preserve" text-anchor="start" x="366" y="-182.5" font-family="Helvetica,sans-Serif" font-size="10.00"> &gt; DashMontage</text>
<text xml:space="preserve" text-anchor="start" x="356" y="-166.5" font-family="Helvetica,sans-Serif" font-size="10.00">+</text>
<text xml:space="preserve" text-anchor="start" x="366" y="-166.5" font-family="Helvetica,sans-Serif" font-size="10.00">virtual void ActivateAbility</text>
<text xml:space="preserve" text-anchor="start" x="366" y="-154.5" font-family="Helvetica,sans-Serif" font-size="10.00">(const FGameplayAbilitySpecHandle</text>
<text xml:space="preserve" text-anchor="start" x="366" y="-142.5" font-family="Helvetica,sans-Serif" font-size="10.00"> Handle, const FGameplayAbilityActorInfo</text>
<text xml:space="preserve" text-anchor="start" x="366" y="-130.5" font-family="Helvetica,sans-Serif" font-size="10.00"> *ActorInfo, const FGameplayAbilityActivationInfo</text>
<text xml:space="preserve" text-anchor="start" x="366" y="-118.5" font-family="Helvetica,sans-Serif" font-size="10.00"> ActivationInfo, const FGameplayEventData *TriggerEventData) override</text>
<polygon fill="#666666" stroke="#666666" points="352,-278 352,-278 685.75,-278 685.75,-278 352,-278"/>
<polygon fill="#666666" stroke="#666666" points="352,-178 352,-178 364,-178 364,-178 352,-178"/>
<polygon fill="#666666" stroke="#666666" points="364,-178 364,-178 685.75,-178 685.75,-178 364,-178"/>
<polygon fill="none" stroke="#666666" points="352,-112 352,-296 685.75,-296 685.75,-112 352,-112"/>
</a>
</g>
</g>
<!-- Node1&#45;&gt;Node4 -->
<g id="edge3_Node000001_Node000004" class="edge">
<title>Node1&#45;&gt;Node4</title>
<g id="a_edge3_Node000001_Node000004"><a xlink:title=" ">
<path fill="none" stroke="#63b8ff" d="M518.88,-432.83C518.88,-390.45 518.88,-339.02 518.88,-295.76"/>
<polygon fill="none" stroke="#63b8ff" points="515.38,-432.73 518.88,-442.73 522.38,-432.73 515.38,-432.73"/>
</a>
</g>
</g>
<!-- Node5 -->
<g id="Node000005" class="node">
<title>Node5</title>
<g id="a_Node000005"><a xlink:href="class_u_active_ability___slash.html" target="_top" xlink:title=" ">
<polygon fill="white" stroke="none" points="1037.75,-310 704,-310 704,-98 1037.75,-98 1037.75,-310"/>
<text xml:space="preserve" text-anchor="start" x="824.75" y="-296.5" font-family="Helvetica,sans-Serif" font-size="10.00">UActiveAbility_Slash</text>
<text xml:space="preserve" text-anchor="start" x="708.38" y="-280.5" font-family="Helvetica,sans-Serif" font-size="10.00">#</text>
<text xml:space="preserve" text-anchor="start" x="718" y="-280.5" font-family="Helvetica,sans-Serif" font-size="10.00">float BaseDamage</text>
<text xml:space="preserve" text-anchor="start" x="708.38" y="-264.5" font-family="Helvetica,sans-Serif" font-size="10.00">#</text>
<text xml:space="preserve" text-anchor="start" x="718" y="-264.5" font-family="Helvetica,sans-Serif" font-size="10.00">TSubclassOf&lt; UGameplayEffect</text>
<text xml:space="preserve" text-anchor="start" x="718" y="-252.5" font-family="Helvetica,sans-Serif" font-size="10.00"> &gt; PayloadEffectClass</text>
<text xml:space="preserve" text-anchor="start" x="708.38" y="-236.5" font-family="Helvetica,sans-Serif" font-size="10.00">#</text>
<text xml:space="preserve" text-anchor="start" x="718" y="-236.5" font-family="Helvetica,sans-Serif" font-size="10.00">FDetailedSkillData</text>
<text xml:space="preserve" text-anchor="start" x="718" y="-224.5" font-family="Helvetica,sans-Serif" font-size="10.00"> SkillSpawnData</text>
<text xml:space="preserve" text-anchor="start" x="708.38" y="-208.5" font-family="Helvetica,sans-Serif" font-size="10.00">#</text>
<text xml:space="preserve" text-anchor="start" x="718" y="-208.5" font-family="Helvetica,sans-Serif" font-size="10.00">TObjectPtr&lt; UAnimMontage</text>
<text xml:space="preserve" text-anchor="start" x="718" y="-196.5" font-family="Helvetica,sans-Serif" font-size="10.00"> &gt; SlashMontage</text>
<text xml:space="preserve" text-anchor="start" x="708.38" y="-180.5" font-family="Helvetica,sans-Serif" font-size="10.00">#</text>
<text xml:space="preserve" text-anchor="start" x="718" y="-180.5" font-family="Helvetica,sans-Serif" font-size="10.00">TSubclassOf&lt; AProjectile</text>
<text xml:space="preserve" text-anchor="start" x="718" y="-168.5" font-family="Helvetica,sans-Serif" font-size="10.00">Base &gt; SlashProjectileClass</text>
<text xml:space="preserve" text-anchor="start" x="708" y="-152.5" font-family="Helvetica,sans-Serif" font-size="10.00">+</text>
<text xml:space="preserve" text-anchor="start" x="718" y="-152.5" font-family="Helvetica,sans-Serif" font-size="10.00">virtual void ActivateAbility</text>
<text xml:space="preserve" text-anchor="start" x="718" y="-140.5" font-family="Helvetica,sans-Serif" font-size="10.00">(const FGameplayAbilitySpecHandle</text>
<text xml:space="preserve" text-anchor="start" x="718" y="-128.5" font-family="Helvetica,sans-Serif" font-size="10.00"> Handle, const FGameplayAbilityActorInfo</text>
<text xml:space="preserve" text-anchor="start" x="718" y="-116.5" font-family="Helvetica,sans-Serif" font-size="10.00"> *ActorInfo, const FGameplayAbilityActivationInfo</text>
<text xml:space="preserve" text-anchor="start" x="718" y="-104.5" font-family="Helvetica,sans-Serif" font-size="10.00"> ActivationInfo, const FGameplayEventData *TriggerEventData) override</text>
<polygon fill="#666666" stroke="#666666" points="704,-292 704,-292 1037.75,-292 1037.75,-292 704,-292"/>
<polygon fill="#666666" stroke="#666666" points="704,-164 704,-164 716,-164 716,-164 704,-164"/>
<polygon fill="#666666" stroke="#666666" points="716,-164 716,-164 1037.75,-164 1037.75,-164 716,-164"/>
<polygon fill="none" stroke="#666666" points="704,-98 704,-310 1037.75,-310 1037.75,-98 704,-98"/>
</a>
</g>
</g>
<!-- Node1&#45;&gt;Node5 -->
<g id="edge4_Node000001_Node000005" class="edge">
<title>Node1&#45;&gt;Node5</title>
<g id="a_edge4_Node000001_Node000005"><a xlink:title=" ">
<path fill="none" stroke="#63b8ff" d="M645.53,-445.07C662.7,-433.47 679.64,-420.98 694.88,-408 728.96,-378.96 762.24,-343.16 790.51,-309.74"/>
<polygon fill="none" stroke="#63b8ff" points="643.62,-442.13 637.23,-450.58 647.5,-447.96 643.62,-442.13"/>
</a>
</g>
</g>
<!-- Node2 -->
<g id="Node000002" class="node">
<title>Node2</title>
<g id="a_Node000002"><a xlink:title=" ">
<polygon fill="white" stroke="none" points="562.25,-680 475.5,-680 475.5,-628 562.25,-628 562.25,-680"/>
<text xml:space="preserve" text-anchor="start" x="479.5" y="-666.5" font-family="Helvetica,sans-Serif" font-size="10.00">UGameplayAbility</text>
<text xml:space="preserve" text-anchor="start" x="517.38" y="-650.5" font-family="Helvetica,sans-Serif" font-size="10.00"> </text>
<text xml:space="preserve" text-anchor="start" x="517.38" y="-634.5" font-family="Helvetica,sans-Serif" font-size="10.00"> </text>
<polygon fill="#666666" stroke="#666666" points="475.5,-662 475.5,-662 562.25,-662 562.25,-662 475.5,-662"/>
<polygon fill="#666666" stroke="#666666" points="475.5,-646 475.5,-646 562.25,-646 562.25,-646 475.5,-646"/>
<polygon fill="none" stroke="#666666" points="475.5,-628 475.5,-680 562.25,-680 562.25,-628 475.5,-628"/>
</a>
</g>
</g>
<!-- Node2&#45;&gt;Node1 -->
<g id="edge1_Node000001_Node000002" class="edge">
<title>Node2&#45;&gt;Node1</title>
<g id="a_edge1_Node000001_Node000002"><a xlink:title=" ">
<path fill="none" stroke="#63b8ff" d="M518.88,-616.61C518.88,-608.87 518.88,-600.44 518.88,-591.88"/>
<polygon fill="none" stroke="#63b8ff" points="515.38,-616.6 518.88,-626.6 522.38,-616.6 515.38,-616.6"/>
</a>
</g>
</g>
</g>
</svg>
