<?xml version="1.0" encoding="UTF-8" standalone="no"?>
<!DOCTYPE svg PUBLIC "-//W3C//DTD SVG 1.1//EN"
 "http://www.w3.org/Graphics/SVG/1.1/DTD/svg11.dtd">
<!-- Generated by graphviz version 13.1.1 (20250719.2154)
 -->
<!-- Title: AProjectileBase::OnCapsuleBeginOverlap Pages: 1 -->
<!--zoomable 174 -->

<svg id="main" version="1.1" xmlns="http://www.w3.org/2000/svg" xmlns:xlink="http://www.w3.org/1999/xlink" xml:space="preserve" onload="init(evt)">

<style type="text/css"><![CDATA[
.node, .edge {opacity: 0.7;}
.node.selected, .edge.selected {opacity: 1;}
.edge:hover path { stroke: red; }
.edge:hover polygon { stroke: red; fill: red; }
]]></style>

<defs>
  <circle id="rim" cx="0" cy="0" r="7"/>
  <circle id="rim2" cx="0" cy="0" r="3.5"/>
  <g id="zoomPlus">
    <use xlink:href="#rim" fill="#404040"><set attributeName="fill" to="#808080" begin="zoomplus.mouseover" end="zoomplus.mouseout"/></use>
    <path d="M-4,0h8M0,-4v8" fill="none" stroke="white" stroke-width="1.5" pointer-events="none"/>
  </g>
  <g id="zoomMin">
    <use xlink:href="#rim" fill="#404040"><set attributeName="fill" to="#808080" begin="zoomminus.mouseover" end="zoomminus.mouseout"/></use>
    <path d="M-4,0h8" fill="none" stroke="white" stroke-width="1.5" pointer-events="none"/>
  </g>
  <g id="arrowUp" transform="translate(30 24)">
    <use xlink:href="#rim"/>
    <path pointer-events="none" fill="none" stroke="white" stroke-width="1.5" d="M0,-3.0v7 M-2.5,-0.5L0,-3.0L2.5,-0.5"/>
  </g>
  <g id="arrowRight" transform="rotate(90) translate(36 -43)">
    <use xlink:href="#rim"/>
    <path pointer-events="none" fill="none" stroke="white" stroke-width="1.5" d="M0,-3.0v7 M-2.5,-0.5L0,-3.0L2.5,-0.5"/>
  </g>
  <g id="arrowDown" transform="rotate(180) translate(-30 -48)">
    <use xlink:href="#rim"/>
    <path pointer-events="none" fill="none" stroke="white" stroke-width="1.5" d="M0,-3.0v7 M-2.5,-0.5L0,-3.0L2.5,-0.5"/>
  </g>
  <g id="arrowLeft" transform="rotate(270) translate(-36 17)">
    <use xlink:href="#rim"/>
    <path pointer-events="none" fill="none" stroke="white" stroke-width="1.5" d="M0,-3.0v7 M-2.5,-0.5L0,-3.0L2.5,-0.5"/>
  </g>
  <g id="resetDef">
    <use xlink:href="#rim2" fill="#404040"><set attributeName="fill" to="#808080" begin="reset.mouseover" end="reset.mouseout"/></use>
  </g>
</defs>
<script type="application/ecmascript">
var viewWidth = 535;
var viewHeight = 174;
var sectionId = 'dynsection-20';
</script>
<script type="application/ecmascript" xlink:href="svg.min.js"/>
<svg id="graph" class="graph">
<g id="viewport">
<title>AProjectileBase::OnCapsuleBeginOverlap</title>
<!-- Node1 -->
<g id="Node000001" class="node">
<title>Node1</title>
<g id="a_Node000001"><a xlink:title=" ">
<polygon fill="#999999" stroke="#666666" points="526.5,-100 386,-100 386,-68 526.5,-68 526.5,-100"/>
<text xml:space="preserve" text-anchor="start" x="394" y="-86.5" font-family="Helvetica,sans-Serif" font-size="10.00">AProjectileBase::OnCapsule</text>
<text xml:space="preserve" text-anchor="middle" x="456.25" y="-74.5" font-family="Helvetica,sans-Serif" font-size="10.00">BeginOverlap</text>
</a>
</g>
</g>
<!-- Node2 -->
<g id="Node000002" class="node">
<title>Node2</title>
<g id="a_Node000002"><a xlink:href="class_a_projectile_base.html#a4af0692f0f34f13e9252c856b34ef20e" target="_top" xlink:title=" ">
<polygon fill="white" stroke="#666666" points="344.38,-153 198.62,-153 198.62,-121 344.38,-121 344.38,-153"/>
<text xml:space="preserve" text-anchor="start" x="206.62" y="-139.5" font-family="Helvetica,sans-Serif" font-size="10.00">AProjectileBase::OnActivated</text>
<text xml:space="preserve" text-anchor="middle" x="271.5" y="-127.5" font-family="Helvetica,sans-Serif" font-size="10.00">_Implementation</text>
</a>
</g>
</g>
<!-- Node1&#45;&gt;Node2 -->
<g id="edge1_Node000001_Node000002" class="edge">
<title>Node1&#45;&gt;Node2</title>
<g id="a_edge1_Node000001_Node000002"><a xlink:title=" ">
<path fill="none" stroke="#63b8ff" d="M387.37,-103.69C368.26,-109.23 347.68,-115.2 329.29,-120.53"/>
<polygon fill="#63b8ff" stroke="#63b8ff" points="388.35,-107.05 396.97,-100.9 386.4,-100.32 388.35,-107.05"/>
</a>
</g>
</g>
<!-- Node4 -->
<g id="Node000004" class="node">
<title>Node4</title>
<g id="a_Node000004"><a xlink:href="class_a_projectile_base.html#a834538bec800ff94ae07ef0c9e8c46e2" target="_top" xlink:title=" ">
<polygon fill="white" stroke="#666666" points="350,-100 193,-100 193,-68 350,-68 350,-100"/>
<text xml:space="preserve" text-anchor="start" x="201" y="-86.5" font-family="Helvetica,sans-Serif" font-size="10.00">AProjectileBase::OnDeactivated</text>
<text xml:space="preserve" text-anchor="middle" x="271.5" y="-74.5" font-family="Helvetica,sans-Serif" font-size="10.00">_Implementation</text>
</a>
</g>
</g>
<!-- Node1&#45;&gt;Node4 -->
<g id="edge4_Node000001_Node000004" class="edge">
<title>Node1&#45;&gt;Node4</title>
<g id="a_edge4_Node000001_Node000004"><a xlink:title=" ">
<path fill="none" stroke="#63b8ff" d="M374.19,-84C366.31,-84 358.32,-84 350.46,-84"/>
<polygon fill="#63b8ff" stroke="#63b8ff" points="374.13,-87.5 384.13,-84 374.13,-80.5 374.13,-87.5"/>
</a>
</g>
</g>
<!-- Node6 -->
<g id="Node000006" class="node">
<title>Node6</title>
<g id="a_Node000006"><a xlink:href="class_a_delay_projectile_base.html#a21e41ef4c2deb55b121b92134fc730ff" target="_top" xlink:title=" ">
<polygon fill="white" stroke="#666666" points="327.12,-32 215.88,-32 215.88,0 327.12,0 327.12,-32"/>
<text xml:space="preserve" text-anchor="start" x="223.88" y="-18.5" font-family="Helvetica,sans-Serif" font-size="10.00">ADelayProjectileBase</text>
<text xml:space="preserve" text-anchor="middle" x="271.5" y="-6.5" font-family="Helvetica,sans-Serif" font-size="10.00">::OnGroundHit</text>
</a>
</g>
</g>
<!-- Node1&#45;&gt;Node6 -->
<g id="edge7_Node000001_Node000006" class="edge">
<title>Node1&#45;&gt;Node6</title>
<g id="a_edge7_Node000001_Node000006"><a xlink:title=" ">
<path fill="none" stroke="#63b8ff" d="M400.27,-63.54C373.52,-53.59 341.79,-41.78 316.65,-32.43"/>
<polygon fill="#63b8ff" stroke="#63b8ff" points="399,-66.8 409.59,-67.01 401.44,-60.24 399,-66.8"/>
</a>
</g>
</g>
<!-- Node3 -->
<g id="Node000003" class="node">
<title>Node3</title>
<g id="a_Node000003"><a xlink:href="class_a_projectile_base.html#a98af5749663255a0ea9dbcfb5849fe9b" target="_top" xlink:title=" ">
<polygon fill="white" stroke="#666666" points="151.38,-148 5.62,-148 5.62,-128 151.38,-128 151.38,-148"/>
<text xml:space="preserve" text-anchor="middle" x="78.5" y="-134.5" font-family="Helvetica,sans-Serif" font-size="10.00">AProjectileBase::OnActivated</text>
</a>
</g>
</g>
<!-- Node2&#45;&gt;Node3 -->
<g id="edge2_Node000002_Node000003" class="edge">
<title>Node2&#45;&gt;Node3</title>
<g id="a_edge2_Node000002_Node000003"><a xlink:title=" ">
<path fill="none" stroke="#63b8ff" d="M187.11,-137.44C175.35,-137.5 163.34,-137.56 151.81,-137.62"/>
<polygon fill="#63b8ff" stroke="#63b8ff" points="186.8,-140.94 196.78,-137.39 186.76,-133.94 186.8,-140.94"/>
</a>
</g>
</g>
<!-- Node3&#45;&gt;Node3 -->
<g id="edge3_Node000003_Node000003" class="edge">
<title>Node3&#45;&gt;Node3</title>
<g id="a_edge3_Node000003_Node000003"><a xlink:title=" ">
<path fill="none" stroke="#63b8ff" d="M112.97,-159.11C108.86,-163.14 97.37,-166 78.5,-166 44.95,-166 34.73,-156.98 47.83,-148.34"/>
<polygon fill="#63b8ff" stroke="#63b8ff" points="116.3,-158.03 109.67,-149.77 109.7,-160.36 116.3,-158.03"/>
</a>
</g>
</g>
<!-- Node5 -->
<g id="Node000005" class="node">
<title>Node5</title>
<g id="a_Node000005"><a xlink:href="class_a_projectile_base.html#a2aeab30c3d7437bdbbb092d66c2cf7e1" target="_top" xlink:title=" ">
<polygon fill="white" stroke="#666666" points="157,-92 0,-92 0,-72 157,-72 157,-92"/>
<text xml:space="preserve" text-anchor="middle" x="78.5" y="-78.5" font-family="Helvetica,sans-Serif" font-size="10.00">AProjectileBase::OnDeactivated</text>
</a>
</g>
</g>
<!-- Node4&#45;&gt;Node5 -->
<g id="edge5_Node000004_Node000005" class="edge">
<title>Node4&#45;&gt;Node5</title>
<g id="a_edge5_Node000004_Node000005"><a xlink:title=" ">
<path fill="none" stroke="#63b8ff" d="M181.25,-83.07C173.22,-82.98 165.13,-82.9 157.21,-82.81"/>
<polygon fill="#63b8ff" stroke="#63b8ff" points="180.99,-86.56 191.02,-83.17 181.06,-79.56 180.99,-86.56"/>
</a>
</g>
</g>
<!-- Node5&#45;&gt;Node5 -->
<g id="edge6_Node000005_Node000005" class="edge">
<title>Node5&#45;&gt;Node5</title>
<g id="a_edge6_Node000005_Node000005"><a xlink:title=" ">
<path fill="none" stroke="#63b8ff" d="M112.97,-103.11C108.86,-107.14 97.37,-110 78.5,-110 44.95,-110 34.73,-100.98 47.83,-92.34"/>
<polygon fill="#63b8ff" stroke="#63b8ff" points="116.3,-102.03 109.67,-93.77 109.7,-104.36 116.3,-102.03"/>
</a>
</g>
</g>
<!-- Node6&#45;&gt;Node6 -->
<g id="edge9_Node000006_Node000006" class="edge">
<title>Node6&#45;&gt;Node6</title>
<g id="a_edge9_Node000006_Node000006"><a xlink:title=" ">
<path fill="none" stroke="#63b8ff" d="M302.29,-43.71C297.15,-47.48 286.89,-50 271.5,-50 243.35,-50 232.36,-41.58 238.52,-32.44"/>
<polygon fill="#63b8ff" stroke="#63b8ff" points="305.72,-44.41 304.19,-33.93 298.85,-43.07 305.72,-44.41"/>
</a>
</g>
</g>
<!-- Node7 -->
<g id="Node000007" class="node">
<title>Node7</title>
<g id="a_Node000007"><a xlink:href="class_a_delay_projectile_base.html#a2ee2f7c1e60d44c30e70b862fe60b65e" target="_top" xlink:title=" ">
<polygon fill="white" stroke="#666666" points="152.5,-32 4.5,-32 4.5,0 152.5,0 152.5,-32"/>
<text xml:space="preserve" text-anchor="start" x="12.5" y="-18.5" font-family="Helvetica,sans-Serif" font-size="10.00">ADelayProjectileBase</text>
<text xml:space="preserve" text-anchor="middle" x="78.5" y="-6.5" font-family="Helvetica,sans-Serif" font-size="10.00">::OnActivated_Implementation</text>
</a>
</g>
</g>
<!-- Node6&#45;&gt;Node7 -->
<g id="edge8_Node000006_Node000007" class="edge">
<title>Node6&#45;&gt;Node7</title>
<g id="a_edge8_Node000006_Node000007"><a xlink:title=" ">
<path fill="none" stroke="#63b8ff" d="M204.27,-16C187.7,-16 169.83,-16 152.93,-16"/>
<polygon fill="#63b8ff" stroke="#63b8ff" points="204,-19.5 214,-16 204,-12.5 204,-19.5"/>
</a>
</g>
</g>
</g>
</svg>

<g id="navigator" transform="translate(0 0)" fill="#404254">
  <rect fill="#f2f5e9" fill-opacity="0.5" stroke="#606060" stroke-width=".5" x="0" y="0" width="60" height="60"/>
  <use id="zoomplus" xlink:href="#zoomPlus" x="17" y="9" onmousedown="handleZoom(evt,'in')"/>
  <use id="zoomminus" xlink:href="#zoomMin" x="42" y="9" onmousedown="handleZoom(evt,'out')"/>
  <use id="reset" xlink:href="#resetDef" x="30" y="36" onmousedown="handleReset()"/>
   <use id="arrowup" xlink:href="#arrowUp" x="0" y="0" onmousedown="handlePan(0,-1)"/>
  <use id="arrowright" xlink:href="#arrowRight" x="0" y="0" onmousedown="handlePan(1,0)"/>
  <use id="arrowdown" xlink:href="#arrowDown" x="0" y="0" onmousedown="handlePan(0,1)"/>
  <use id="arrowleft" xlink:href="#arrowLeft" x="0" y="0" onmousedown="handlePan(-1,0)"/>
</g>
<svg viewBox="0 0 15 15" width="100%" height="30px" preserveAspectRatio="xMaxYMin meet">
 <g id="arrow_out" transform="scale(0.3 0.3)">
  <a xlink:href="class_a_projectile_base_a183da78e0cee66595989812aec0ff7c9_icgraph_org.svg" target="_base">
   <rect id="button" ry="5" rx="5" y="6" x="6" height="38" width="38"
        fill="#f2f5e9" fill-opacity="0.5" stroke="#606060" stroke-width="1.0"/>
   <path id="arrow"
     d="M 11.500037,31.436501 C 11.940474,20.09759 22.043105,11.32322 32.158766,21.979434 L 37.068811,17.246167 C 37.068811,17.246167 37.088388,32 37.088388,32 L 22.160133,31.978069 C 22.160133,31.978069 26.997745,27.140456 26.997745,27.140456 C 18.528582,18.264221 13.291696,25.230495 11.500037,31.436501 z"
     style="fill:#404040;"/>
  </a>
 </g>
</svg>

<style type='text/css'>
<![CDATA[
[data-mouse-over-selected='false'] { opacity: 0.7; }
[data-mouse-over-selected='true']  { opacity: 1.0; }
]]>
</style>
<script type="application/ecmascript"><![CDATA[
document.addEventListener('DOMContentLoaded', (event) => {
  highlightEdges();
  highlightAdjacentNodes();
});
]]></script>
</svg>
