<?xml version="1.0" encoding="UTF-8" standalone="no"?>
<!DOCTYPE svg PUBLIC "-//W3C//DTD SVG 1.1//EN"
 "http://www.w3.org/Graphics/SVG/1.1/DTD/svg11.dtd">
<!-- Generated by graphviz version 13.1.1 (20250719.2154)
 -->
<!-- Title: UKPTPlayerAttributeSet::ATTRIBUTE_ACCESSORS Pages: 1 -->
<svg width="693pt" height="152pt"
 viewBox="0.00 0.00 693.00 152.00" xmlns="http://www.w3.org/2000/svg" xmlns:xlink="http://www.w3.org/1999/xlink">
<g id="graph0" class="graph" transform="scale(1 1) rotate(0) translate(4 148.29)">
<title>UKPTPlayerAttributeSet::ATTRIBUTE_ACCESSORS</title>
<!-- Node1 -->
<g id="Node000001" class="node">
<title>Node1</title>
<g id="a_Node000001"><a xlink:title=" ">
<polygon fill="#999999" stroke="#666666" points="146.5,-106 0,-106 0,-74 146.5,-74 146.5,-106"/>
<text xml:space="preserve" text-anchor="start" x="8" y="-92.5" font-family="Helvetica,sans-Serif" font-size="10.00">UKPTPlayerAttributeSet</text>
<text xml:space="preserve" text-anchor="middle" x="73.25" y="-80.5" font-family="Helvetica,sans-Serif" font-size="10.00">::ATTRIBUTE_ACCESSORS</text>
</a>
</g>
</g>
<!-- Node2 -->
<g id="Node000002" class="node">
<title>Node2</title>
<g id="a_Node000002"><a xlink:href="class_u_k_p_t_player_attribute_set.html#af399f8750813c91d7257190317812519" target="_top" xlink:title=" ">
<polygon fill="white" stroke="#666666" points="685,-116 556.5,-116 556.5,-84 685,-84 685,-116"/>
<text xml:space="preserve" text-anchor="start" x="564.5" y="-102.5" font-family="Helvetica,sans-Serif" font-size="10.00">UKPTPlayerAttributeSet</text>
<text xml:space="preserve" text-anchor="middle" x="620.75" y="-90.5" font-family="Helvetica,sans-Serif" font-size="10.00">::UKPTPlayerAttributeSet</text>
</a>
</g>
</g>
<!-- Node1&#45;&gt;Node2 -->
<g id="edge1_Node000001_Node000002" class="edge">
<title>Node1&#45;&gt;Node2</title>
<g id="a_edge1_Node000001_Node000002"><a xlink:title=" ">
<path fill="none" stroke="#63b8ff" d="M105.97,-106.3C127.05,-116.19 155.69,-127.87 182.5,-133 308.21,-157.05 457.4,-135.28 545,-117.5"/>
<polygon fill="#63b8ff" stroke="#63b8ff" points="545.6,-120.95 554.68,-115.49 544.18,-114.09 545.6,-120.95"/>
</a>
</g>
</g>
<!-- Node3 -->
<g id="Node000003" class="node">
<title>Node3</title>
<g id="a_Node000003"><a xlink:href="class_u_k_p_t_player_attribute_set.html#aa4a7eb9b5df34c17e1cc753ae89d5e43" target="_top" xlink:title=" ">
<polygon fill="white" stroke="#666666" points="329,-106 182.5,-106 182.5,-74 329,-74 329,-106"/>
<text xml:space="preserve" text-anchor="start" x="190.5" y="-92.5" font-family="Helvetica,sans-Serif" font-size="10.00">UKPTPlayerAttributeSet</text>
<text xml:space="preserve" text-anchor="middle" x="255.75" y="-80.5" font-family="Helvetica,sans-Serif" font-size="10.00">::ATTRIBUTE_ACCESSORS</text>
</a>
</g>
</g>
<!-- Node1&#45;&gt;Node3 -->
<g id="edge2_Node000001_Node000003" class="edge">
<title>Node1&#45;&gt;Node3</title>
<g id="a_edge2_Node000001_Node000003"><a xlink:title=" ">
<path fill="none" stroke="#63b8ff" d="M146.89,-90C154.81,-90 162.92,-90 170.96,-90"/>
<polygon fill="#63b8ff" stroke="#63b8ff" points="170.75,-93.5 180.75,-90 170.75,-86.5 170.75,-93.5"/>
</a>
</g>
</g>
<!-- Node5 -->
<g id="Node000005" class="node">
<title>Node5</title>
<g id="a_Node000005"><a xlink:href="class_u_k_p_t_player_attribute_set.html#a220bfb79766fe83d99f887384f333ccf" target="_top" xlink:title=" ">
<polygon fill="white" stroke="#666666" points="520.5,-44 365,-44 365,0 520.5,0 520.5,-44"/>
<text xml:space="preserve" text-anchor="start" x="373" y="-30.5" font-family="Helvetica,sans-Serif" font-size="10.00">UKPTPlayerAttributeSet</text>
<text xml:space="preserve" text-anchor="start" x="373" y="-18.5" font-family="Helvetica,sans-Serif" font-size="10.00">::OnRep_PassiveSkillCooldown</text>
<text xml:space="preserve" text-anchor="middle" x="442.75" y="-6.5" font-family="Helvetica,sans-Serif" font-size="10.00">Reduction</text>
</a>
</g>
</g>
<!-- Node1&#45;&gt;Node5 -->
<g id="edge7_Node000001_Node000005" class="edge">
<title>Node1&#45;&gt;Node5</title>
<g id="a_edge7_Node000001_Node000005"><a xlink:title=" ">
<path fill="none" stroke="#63b8ff" d="M142.54,-73.55C155.76,-70.55 169.54,-67.57 182.5,-65 239.19,-53.76 303.25,-43.12 353.51,-35.23"/>
<polygon fill="#63b8ff" stroke="#63b8ff" points="353.83,-38.72 363.17,-33.72 352.75,-31.81 353.83,-38.72"/>
</a>
</g>
</g>
<!-- Node3&#45;&gt;Node2 -->
<g id="edge3_Node000003_Node000002" class="edge">
<title>Node3&#45;&gt;Node2</title>
<g id="a_edge3_Node000003_Node000002"><a xlink:title=" ">
<path fill="none" stroke="#63b8ff" d="M329.43,-99.94C341.3,-101.21 353.47,-102.31 365,-103 433.99,-107.13 451.4,-104.04 520.5,-103 528.35,-102.88 536.55,-102.71 544.72,-102.51"/>
<polygon fill="#63b8ff" stroke="#63b8ff" points="544.8,-106.01 554.71,-102.25 544.62,-99.01 544.8,-106.01"/>
</a>
</g>
</g>
<!-- Node3&#45;&gt;Node3 -->
<g id="edge4_Node000003_Node000003" class="edge">
<title>Node3&#45;&gt;Node3</title>
<g id="a_edge4_Node000003_Node000003"><a xlink:title=" ">
<path fill="none" stroke="#63b8ff" d="M223.17,-106.44C217.09,-115.58 227.95,-124 255.75,-124 270.95,-124 281.09,-121.48 286.16,-117.71"/>
<polygon fill="#63b8ff" stroke="#63b8ff" points="289.59,-118.41 288.05,-107.93 282.72,-117.09 289.59,-118.41"/>
</a>
</g>
</g>
<!-- Node4 -->
<g id="Node000004" class="node">
<title>Node4</title>
<g id="a_Node000004"><a xlink:href="class_u_k_p_t_player_attribute_set.html#af9342b340a141c31bf2eb00e34005551" target="_top" xlink:title=" ">
<polygon fill="white" stroke="#666666" points="504,-94 381.5,-94 381.5,-62 504,-62 504,-94"/>
<text xml:space="preserve" text-anchor="start" x="389.5" y="-80.5" font-family="Helvetica,sans-Serif" font-size="10.00">UKPTPlayerAttributeSet</text>
<text xml:space="preserve" text-anchor="middle" x="442.75" y="-68.5" font-family="Helvetica,sans-Serif" font-size="10.00">::OnRep_Luck</text>
</a>
</g>
</g>
<!-- Node3&#45;&gt;Node4 -->
<g id="edge5_Node000003_Node000004" class="edge">
<title>Node3&#45;&gt;Node4</title>
<g id="a_edge5_Node000003_Node000004"><a xlink:title=" ">
<path fill="none" stroke="#63b8ff" d="M329.34,-85.29C342.57,-84.43 356.37,-83.54 369.59,-82.68"/>
<polygon fill="#63b8ff" stroke="#63b8ff" points="369.76,-86.18 379.52,-82.04 369.31,-79.19 369.76,-86.18"/>
</a>
</g>
</g>
<!-- Node4&#45;&gt;Node2 -->
<g id="edge6_Node000004_Node000002" class="edge">
<title>Node4&#45;&gt;Node2</title>
<g id="a_edge6_Node000004_Node000002"><a xlink:title=" ">
<path fill="none" stroke="#63b8ff" d="M504.32,-85.57C517.37,-87.2 531.32,-88.95 544.84,-90.64"/>
<polygon fill="#63b8ff" stroke="#63b8ff" points="544.21,-94.08 554.57,-91.85 545.08,-87.14 544.21,-94.08"/>
</a>
</g>
</g>
<!-- Node5&#45;&gt;Node2 -->
<g id="edge8_Node000005_Node000002" class="edge">
<title>Node5&#45;&gt;Node2</title>
<g id="a_edge8_Node000005_Node000002"><a xlink:title=" ">
<path fill="none" stroke="#63b8ff" d="M500.49,-44.48C507.26,-47.29 514.05,-50.17 520.5,-53 538.86,-61.05 558.89,-70.42 576.11,-78.66"/>
<polygon fill="#63b8ff" stroke="#63b8ff" points="574.54,-81.79 585.07,-82.97 577.58,-75.48 574.54,-81.79"/>
</a>
</g>
</g>
</g>
</svg>
