<?xml version="1.0" encoding="UTF-8" standalone="no"?>
<!DOCTYPE svg PUBLIC "-//W3C//DTD SVG 1.1//EN"
 "http://www.w3.org/Graphics/SVG/1.1/DTD/svg11.dtd">
<!-- Generated by graphviz version 13.1.1 (20250719.2154)
 -->
<!-- Title: AExperience::SetSpawnPos Pages: 1 -->
<svg width="510pt" height="46pt"
 viewBox="0.00 0.00 510.00 46.00" xmlns="http://www.w3.org/2000/svg" xmlns:xlink="http://www.w3.org/1999/xlink">
<g id="graph0" class="graph" transform="scale(1 1) rotate(0) translate(4 42)">
<title>AExperience::SetSpawnPos</title>
<!-- Node1 -->
<g id="Node000001" class="node">
<title>Node1</title>
<g id="a_Node000001"><a xlink:title=" ">
<polygon fill="#999999" stroke="#666666" points="139.75,-20 0,-20 0,0 139.75,0 139.75,-20"/>
<text xml:space="preserve" text-anchor="middle" x="69.88" y="-6.5" font-family="Helvetica,sans-Serif" font-size="10.00">AExperience::SetSpawnPos</text>
</a>
</g>
</g>
<!-- Node2 -->
<g id="Node000002" class="node">
<title>Node2</title>
<g id="a_Node000002"><a xlink:href="class_a_experience.html#af8fc3569d3b7189f0e4383eaa439e9cf" target="_top" xlink:title=" ">
<polygon fill="white" stroke="#666666" points="332,-20 175.75,-20 175.75,0 332,0 332,-20"/>
<text xml:space="preserve" text-anchor="middle" x="253.88" y="-6.5" font-family="Helvetica,sans-Serif" font-size="10.00">AExperience::On_RepSpawning</text>
</a>
</g>
</g>
<!-- Node1&#45;&gt;Node2 -->
<g id="edge1_Node000001_Node000002" class="edge">
<title>Node1&#45;&gt;Node2</title>
<g id="a_edge1_Node000001_Node000002"><a xlink:title=" ">
<path fill="none" stroke="#63b8ff" d="M140.2,-10C148.05,-10 156.13,-10 164.19,-10"/>
<polygon fill="#63b8ff" stroke="#63b8ff" points="164.02,-13.5 174.02,-10 164.02,-6.5 164.02,-13.5"/>
</a>
</g>
</g>
<!-- Node3 -->
<g id="Node000003" class="node">
<title>Node3</title>
<g id="a_Node000003"><a xlink:href="class_a_experience.html#a69f2ef051b6dd9344813c3d7592ff5b4" target="_top" xlink:title=" ">
<polygon fill="white" stroke="#666666" points="501.75,-20 368,-20 368,0 501.75,0 501.75,-20"/>
<text xml:space="preserve" text-anchor="middle" x="434.88" y="-6.5" font-family="Helvetica,sans-Serif" font-size="10.00">AExperience::OnSpawnBP</text>
</a>
</g>
</g>
<!-- Node2&#45;&gt;Node3 -->
<g id="edge2_Node000002_Node000003" class="edge">
<title>Node2&#45;&gt;Node3</title>
<g id="a_edge2_Node000002_Node000003"><a xlink:title=" ">
<path fill="none" stroke="#63b8ff" d="M332.35,-10C340.22,-10 348.22,-10 356.09,-10"/>
<polygon fill="#63b8ff" stroke="#63b8ff" points="356,-13.5 366,-10 356,-6.5 356,-13.5"/>
</a>
</g>
</g>
<!-- Node3&#45;&gt;Node3 -->
<g id="edge3_Node000003_Node000003" class="edge">
<title>Node3&#45;&gt;Node3</title>
<g id="a_edge3_Node000003_Node000003"><a xlink:title=" ">
<path fill="none" stroke="#63b8ff" d="M406.12,-20.34C393.83,-28.98 403.41,-38 434.88,-38 452.57,-38 463.35,-35.14 467.2,-31.11"/>
<polygon fill="#63b8ff" stroke="#63b8ff" points="470.58,-30.17 464.11,-21.78 463.93,-32.37 470.58,-30.17"/>
</a>
</g>
</g>
</g>
</svg>
