<?xml version="1.0" encoding="UTF-8" standalone="no"?>
<!DOCTYPE svg PUBLIC "-//W3C//DTD SVG 1.1//EN"
 "http://www.w3.org/Graphics/SVG/1.1/DTD/svg11.dtd">
<!-- Generated by graphviz version 13.1.1 (20250719.2154)
 -->
<!-- Title: UMovementStrategyBase::ActivateStrategy Pages: 1 -->
<svg width="795pt" height="90pt"
 viewBox="0.00 0.00 795.00 90.00" xmlns="http://www.w3.org/2000/svg" xmlns:xlink="http://www.w3.org/1999/xlink">
<g id="graph0" class="graph" transform="scale(1 1) rotate(0) translate(4 86)">
<title>UMovementStrategyBase::ActivateStrategy</title>
<!-- Node1 -->
<g id="Node000001" class="node">
<title>Node1</title>
<g id="a_Node000001"><a xlink:title=" ">
<polygon fill="#999999" stroke="#666666" points="128.5,-57 0,-57 0,-25 128.5,-25 128.5,-57"/>
<text xml:space="preserve" text-anchor="start" x="8" y="-43.5" font-family="Helvetica,sans-Serif" font-size="10.00">UMovementStrategyBase</text>
<text xml:space="preserve" text-anchor="middle" x="64.25" y="-31.5" font-family="Helvetica,sans-Serif" font-size="10.00">::ActivateStrategy</text>
</a>
</g>
</g>
<!-- Node2 -->
<g id="Node000002" class="node">
<title>Node2</title>
<g id="a_Node000002"><a xlink:href="class_u_movement_strategy_base.html#a88923c77a6e6525d701400f4f63f2824" target="_top" xlink:title=" ">
<polygon fill="white" stroke="#666666" points="293,-57 164.5,-57 164.5,-25 293,-25 293,-57"/>
<text xml:space="preserve" text-anchor="start" x="172.5" y="-43.5" font-family="Helvetica,sans-Serif" font-size="10.00">UMovementStrategyBase</text>
<text xml:space="preserve" text-anchor="middle" x="228.75" y="-31.5" font-family="Helvetica,sans-Serif" font-size="10.00">::Multicast_Activate</text>
</a>
</g>
</g>
<!-- Node1&#45;&gt;Node2 -->
<g id="edge1_Node000001_Node000002" class="edge">
<title>Node1&#45;&gt;Node2</title>
<g id="a_edge1_Node000001_Node000002"><a xlink:title=" ">
<path fill="none" stroke="#63b8ff" d="M128.54,-41C136.48,-41 144.65,-41 152.74,-41"/>
<polygon fill="#63b8ff" stroke="#63b8ff" points="152.58,-44.5 162.58,-41 152.58,-37.5 152.58,-44.5"/>
</a>
</g>
</g>
<!-- Node2&#45;&gt;Node2 -->
<g id="edge7_Node000002_Node000002" class="edge">
<title>Node2&#45;&gt;Node2</title>
<g id="a_edge7_Node000002_Node000002"><a xlink:title=" ">
<path fill="none" stroke="#63b8ff" d="M199.38,-57.44C193.9,-66.58 203.69,-75 228.75,-75 242.45,-75 251.59,-72.48 256.16,-68.71"/>
<polygon fill="#63b8ff" stroke="#63b8ff" points="259.6,-69.39 257.86,-58.93 252.7,-68.19 259.6,-69.39"/>
</a>
</g>
</g>
<!-- Node3 -->
<g id="Node000003" class="node">
<title>Node3</title>
<g id="a_Node000003"><a xlink:href="class_u_movement_strategy_base.html#a96436384d7ef7fcbf7cb55628d2d7087" target="_top" xlink:title=" ">
<polygon fill="white" stroke="#666666" points="457.5,-57 329,-57 329,-25 457.5,-25 457.5,-57"/>
<text xml:space="preserve" text-anchor="start" x="337" y="-43.5" font-family="Helvetica,sans-Serif" font-size="10.00">UMovementStrategyBase</text>
<text xml:space="preserve" text-anchor="middle" x="393.25" y="-31.5" font-family="Helvetica,sans-Serif" font-size="10.00">::DeactivateStrategy</text>
</a>
</g>
</g>
<!-- Node2&#45;&gt;Node3 -->
<g id="edge2_Node000002_Node000003" class="edge">
<title>Node2&#45;&gt;Node3</title>
<g id="a_edge2_Node000002_Node000003"><a xlink:title=" ">
<path fill="none" stroke="#63b8ff" d="M293.04,-41C300.98,-41 309.15,-41 317.24,-41"/>
<polygon fill="#63b8ff" stroke="#63b8ff" points="317.08,-44.5 327.08,-41 317.08,-37.5 317.08,-44.5"/>
</a>
</g>
</g>
<!-- Node4 -->
<g id="Node000004" class="node">
<title>Node4</title>
<g id="a_Node000004"><a xlink:href="class_u_movement_strategy_base.html#a5727613e54d88ba4548ca6aa45047cf7" target="_top" xlink:title=" ">
<polygon fill="white" stroke="#666666" points="622,-57 493.5,-57 493.5,-25 622,-25 622,-57"/>
<text xml:space="preserve" text-anchor="start" x="501.5" y="-43.5" font-family="Helvetica,sans-Serif" font-size="10.00">UMovementStrategyBase</text>
<text xml:space="preserve" text-anchor="middle" x="557.75" y="-31.5" font-family="Helvetica,sans-Serif" font-size="10.00">::Multicast_Deactivate</text>
</a>
</g>
</g>
<!-- Node3&#45;&gt;Node4 -->
<g id="edge3_Node000003_Node000004" class="edge">
<title>Node3&#45;&gt;Node4</title>
<g id="a_edge3_Node000003_Node000004"><a xlink:title=" ">
<path fill="none" stroke="#63b8ff" d="M457.54,-41C465.48,-41 473.65,-41 481.74,-41"/>
<polygon fill="#63b8ff" stroke="#63b8ff" points="481.58,-44.5 491.58,-41 481.58,-37.5 481.58,-44.5"/>
</a>
</g>
</g>
<!-- Node4&#45;&gt;Node4 -->
<g id="edge4_Node000004_Node000004" class="edge">
<title>Node4&#45;&gt;Node4</title>
<g id="a_edge4_Node000004_Node000004"><a xlink:title=" ">
<path fill="none" stroke="#63b8ff" d="M528.38,-57.44C522.9,-66.58 532.69,-75 557.75,-75 571.45,-75 580.59,-72.48 585.16,-68.71"/>
<polygon fill="#63b8ff" stroke="#63b8ff" points="588.6,-69.39 586.86,-58.93 581.7,-68.19 588.6,-69.39"/>
</a>
</g>
</g>
<!-- Node5 -->
<g id="Node000005" class="node">
<title>Node5</title>
<g id="a_Node000005"><a xlink:href="class_u_movement_strategy_base.html#ad695122e4a3051a102423dc2de3a536f" target="_top" xlink:title=" ">
<polygon fill="white" stroke="#666666" points="786.5,-82 658,-82 658,-50 786.5,-50 786.5,-82"/>
<text xml:space="preserve" text-anchor="start" x="666" y="-68.5" font-family="Helvetica,sans-Serif" font-size="10.00">UMovementStrategyBase</text>
<text xml:space="preserve" text-anchor="middle" x="722.25" y="-56.5" font-family="Helvetica,sans-Serif" font-size="10.00">::TickComponent</text>
</a>
</g>
</g>
<!-- Node4&#45;&gt;Node5 -->
<g id="edge5_Node000004_Node000005" class="edge">
<title>Node4&#45;&gt;Node5</title>
<g id="a_edge5_Node000004_Node000005"><a xlink:title=" ">
<path fill="none" stroke="#63b8ff" d="M622.04,-50.74C629.98,-51.96 638.15,-53.22 646.24,-54.46"/>
<polygon fill="#63b8ff" stroke="#63b8ff" points="645.68,-57.92 656.1,-55.98 646.75,-51 645.68,-57.92"/>
</a>
</g>
</g>
<!-- Node6 -->
<g id="Node000006" class="node">
<title>Node6</title>
<g id="a_Node000006"><a xlink:href="class_u_movement_strategy_base.html#afb1e3a026dba401038425f8fd1a24a6e" target="_top" xlink:title=" ">
<polygon fill="white" stroke="#666666" points="786.5,-32 658,-32 658,0 786.5,0 786.5,-32"/>
<text xml:space="preserve" text-anchor="start" x="666" y="-18.5" font-family="Helvetica,sans-Serif" font-size="10.00">UMovementStrategyBase</text>
<text xml:space="preserve" text-anchor="middle" x="722.25" y="-6.5" font-family="Helvetica,sans-Serif" font-size="10.00">::TriggerFunction</text>
</a>
</g>
</g>
<!-- Node4&#45;&gt;Node6 -->
<g id="edge6_Node000004_Node000006" class="edge">
<title>Node4&#45;&gt;Node6</title>
<g id="a_edge6_Node000004_Node000006"><a xlink:title=" ">
<path fill="none" stroke="#63b8ff" d="M622.04,-31.26C629.98,-30.04 638.15,-28.78 646.24,-27.54"/>
<polygon fill="#63b8ff" stroke="#63b8ff" points="646.75,-31 656.1,-26.02 645.68,-24.08 646.75,-31"/>
</a>
</g>
</g>
</g>
</svg>
