<?xml version="1.0" encoding="UTF-8" standalone="no"?>
<!DOCTYPE svg PUBLIC "-//W3C//DTD SVG 1.1//EN"
 "http://www.w3.org/Graphics/SVG/1.1/DTD/svg11.dtd">
<!-- Generated by graphviz version 13.1.1 (20250719.2154)
 -->
<!-- Title: UBaseLaserAttackAbility::SpawnLaserIndicator Pages: 1 -->
<svg width="466pt" height="108pt"
 viewBox="0.00 0.00 466.00 108.00" xmlns="http://www.w3.org/2000/svg" xmlns:xlink="http://www.w3.org/1999/xlink">

<svg id="main" version="1.1" xmlns="http://www.w3.org/2000/svg" xmlns:xlink="http://www.w3.org/1999/xlink" xml:space="preserve">

<style type="text/css"><![CDATA[
.node, .edge {opacity: 0.7;}
.node.selected, .edge.selected {opacity: 1;}
.edge:hover path { stroke: red; }
.edge:hover polygon { stroke: red; fill: red; }
]]></style>
<script type="application/ecmascript" xlink:href="svg.min.js"/>
<svg id="graph" class="graph">
<g id="graph0" class="graph" transform="scale(1 1) rotate(0) translate(4 104)">
<title>UBaseLaserAttackAbility::SpawnLaserIndicator</title>
<!-- Node1 -->
<g id="Node000001" class="node">
<title>Node1</title>
<g id="a_Node000001"><a xlink:title=" ">
<polygon fill="#999999" stroke="#666666" points="125.5,-66 0,-66 0,-34 125.5,-34 125.5,-66"/>
<text xml:space="preserve" text-anchor="start" x="8" y="-52.5" font-family="Helvetica,sans-Serif" font-size="10.00">UBaseLaserAttackAbility</text>
<text xml:space="preserve" text-anchor="middle" x="62.75" y="-40.5" font-family="Helvetica,sans-Serif" font-size="10.00">::SpawnLaserIndicator</text>
</a>
</g>
</g>
<!-- Node2 -->
<g id="Node000002" class="node">
<title>Node2</title>
<g id="a_Node000002"><a xlink:href="class_u_base_laser_attack_ability.html#a872ab3f13348f056b6148f62cf3fffc7" target="_top" xlink:title=" ">
<polygon fill="white" stroke="#666666" points="287,-100 161.5,-100 161.5,-68 287,-68 287,-100"/>
<text xml:space="preserve" text-anchor="start" x="169.5" y="-86.5" font-family="Helvetica,sans-Serif" font-size="10.00">UBaseLaserAttackAbility</text>
<text xml:space="preserve" text-anchor="middle" x="224.25" y="-74.5" font-family="Helvetica,sans-Serif" font-size="10.00">::EndAbility</text>
</a>
</g>
</g>
<!-- Node1&#45;&gt;Node2 -->
<g id="edge1_Node000001_Node000002" class="edge">
<title>Node1&#45;&gt;Node2</title>
<g id="a_edge1_Node000001_Node000002"><a xlink:title=" ">
<path fill="none" stroke="#63b8ff" d="M125.87,-63.24C133.72,-64.92 141.81,-66.64 149.81,-68.35"/>
<polygon fill="#63b8ff" stroke="#63b8ff" points="149.04,-71.76 159.55,-70.42 150.5,-64.91 149.04,-71.76"/>
</a>
</g>
</g>
<!-- Node4 -->
<g id="Node000004" class="node">
<title>Node4</title>
<g id="a_Node000004"><a xlink:href="class_a_square_indicator_actor.html#a2f5271475cd69b91c4b29e06fa7e5cd2" target="_top" xlink:title=" ">
<polygon fill="white" stroke="#666666" points="281.38,-41 167.12,-41 167.12,-9 281.38,-9 281.38,-41"/>
<text xml:space="preserve" text-anchor="start" x="175.12" y="-27.5" font-family="Helvetica,sans-Serif" font-size="10.00">ASquareIndicatorActor</text>
<text xml:space="preserve" text-anchor="middle" x="224.25" y="-15.5" font-family="Helvetica,sans-Serif" font-size="10.00">::InitializeIndicator</text>
</a>
</g>
</g>
<!-- Node1&#45;&gt;Node4 -->
<g id="edge4_Node000001_Node000004" class="edge">
<title>Node1&#45;&gt;Node4</title>
<g id="a_edge4_Node000001_Node000004"><a xlink:title=" ">
<path fill="none" stroke="#63b8ff" d="M125.87,-40.26C135.56,-38.75 145.6,-37.17 155.4,-35.63"/>
<polygon fill="#63b8ff" stroke="#63b8ff" points="155.93,-39.09 165.26,-34.09 154.84,-32.18 155.93,-39.09"/>
</a>
</g>
</g>
<!-- Node3 -->
<g id="Node000003" class="node">
<title>Node3</title>
<g id="a_Node000003"><a xlink:href="class_u_base_laser_attack_ability.html#a1f265f5b299f3057b632ab3d32970ea6" target="_top" xlink:title="Cleans up all spawned lasers and stops timers.">
<polygon fill="white" stroke="#666666" points="453,-100 327.5,-100 327.5,-68 453,-68 453,-100"/>
<text xml:space="preserve" text-anchor="start" x="335.5" y="-86.5" font-family="Helvetica,sans-Serif" font-size="10.00">UBaseLaserAttackAbility</text>
<text xml:space="preserve" text-anchor="middle" x="390.25" y="-74.5" font-family="Helvetica,sans-Serif" font-size="10.00">::FinishLaserAttack</text>
</a>
</g>
</g>
<!-- Node2&#45;&gt;Node3 -->
<g id="edge2_Node000002_Node000003" class="edge">
<title>Node2&#45;&gt;Node3</title>
<g id="a_edge2_Node000002_Node000003"><a xlink:title=" ">
<path fill="none" stroke="#63b8ff" d="M287.25,-77.43C296.54,-77.26 306.19,-77.21 315.69,-77.28"/>
<polygon fill="#63b8ff" stroke="#63b8ff" points="315.6,-80.78 325.65,-77.41 315.69,-73.78 315.6,-80.78"/>
</a>
</g>
</g>
<!-- Node3&#45;&gt;Node2 -->
<g id="edge3_Node000003_Node000002" class="edge">
<title>Node3&#45;&gt;Node2</title>
<g id="a_edge3_Node000003_Node000002"><a xlink:title=" ">
<path fill="none" stroke="#63b8ff" d="M327.16,-90.57C317.87,-90.74 308.22,-90.79 298.72,-90.72"/>
<polygon fill="#63b8ff" stroke="#63b8ff" points="298.81,-87.22 288.76,-90.59 298.72,-94.22 298.81,-87.22"/>
</a>
</g>
</g>
<!-- Node5 -->
<g id="Node000005" class="node">
<title>Node5</title>
<g id="a_Node000005"><a xlink:href="class_a_square_indicator_actor.html#abaa166e37d10c0f111215543b145e586" target="_top" xlink:title=" ">
<polygon fill="white" stroke="#666666" points="457.5,-32 323,-32 323,0 457.5,0 457.5,-32"/>
<text xml:space="preserve" text-anchor="start" x="331" y="-18.5" font-family="Helvetica,sans-Serif" font-size="10.00">ASquareIndicatorActor</text>
<text xml:space="preserve" text-anchor="middle" x="390.25" y="-6.5" font-family="Helvetica,sans-Serif" font-size="10.00">::Multicast_SpawnIndicator</text>
</a>
</g>
</g>
<!-- Node4&#45;&gt;Node5 -->
<g id="edge5_Node000004_Node000005" class="edge">
<title>Node4&#45;&gt;Node5</title>
<g id="a_edge5_Node000004_Node000005"><a xlink:title=" ">
<path fill="none" stroke="#63b8ff" d="M281.69,-21.9C291.25,-21.38 301.32,-20.83 311.32,-20.28"/>
<polygon fill="#63b8ff" stroke="#63b8ff" points="311.23,-23.79 321.02,-19.74 310.85,-16.8 311.23,-23.79"/>
</a>
</g>
</g>
<!-- Node5&#45;&gt;Node5 -->
<g id="edge6_Node000005_Node000005" class="edge">
<title>Node5&#45;&gt;Node5</title>
<g id="a_edge6_Node000005_Node000005"><a xlink:title=" ">
<path fill="none" stroke="#63b8ff" d="M360.61,-32.44C355.08,-41.58 364.96,-50 390.25,-50 404.08,-50 413.3,-47.48 417.91,-43.71"/>
<polygon fill="#63b8ff" stroke="#63b8ff" points="421.35,-44.39 419.62,-33.93 414.45,-43.18 421.35,-44.39"/>
</a>
</g>
</g>
</g>
</svg>
</svg>

<style type='text/css'>
<![CDATA[
[data-mouse-over-selected='false'] { opacity: 0.7; }
[data-mouse-over-selected='true']  { opacity: 1.0; }
]]>
</style>
<script type="application/ecmascript"><![CDATA[
document.addEventListener('DOMContentLoaded', (event) => {
  highlightEdges();
  highlightAdjacentNodes();
});
]]></script>
</svg>
