<?xml version="1.0" encoding="UTF-8" standalone="no"?>
<!DOCTYPE svg PUBLIC "-//W3C//DTD SVG 1.1//EN"
 "http://www.w3.org/Graphics/SVG/1.1/DTD/svg11.dtd">
<!-- Generated by graphviz version 13.1.1 (20250719.2154)
 -->
<!-- Title: UButtonFlatBase Pages: 1 -->
<svg width="171pt" height="524pt"
 viewBox="0.00 0.00 171.00 524.00" xmlns="http://www.w3.org/2000/svg" xmlns:xlink="http://www.w3.org/1999/xlink">
<g id="graph0" class="graph" transform="scale(1 1) rotate(0) translate(4 520)">
<title>UButtonFlatBase</title>
<!-- Node1 -->
<g id="Node000001" class="node">
<title>Node1</title>
<g id="a_Node000001"><a xlink:title=" ">
<polygon fill="#999999" stroke="none" points="158.62,-216 4.12,-216 4.12,0 158.62,0 158.62,-216"/>
<text xml:space="preserve" text-anchor="start" x="43.88" y="-202.5" font-family="Helvetica,sans-Serif" font-size="10.00">UButtonFlatBase</text>
<text xml:space="preserve" text-anchor="start" x="8.12" y="-186.5" font-family="Helvetica,sans-Serif" font-size="10.00">+</text>
<text xml:space="preserve" text-anchor="start" x="18.12" y="-186.5" font-family="Helvetica,sans-Serif" font-size="10.00">FText BtnTextValue</text>
<text xml:space="preserve" text-anchor="start" x="8.12" y="-170.5" font-family="Helvetica,sans-Serif" font-size="10.00">+</text>
<text xml:space="preserve" text-anchor="start" x="18.12" y="-170.5" font-family="Helvetica,sans-Serif" font-size="10.00">FSlateFontInfo Font</text>
<text xml:space="preserve" text-anchor="start" x="8.12" y="-154.5" font-family="Helvetica,sans-Serif" font-size="10.00">+</text>
<text xml:space="preserve" text-anchor="start" x="18.12" y="-154.5" font-family="Helvetica,sans-Serif" font-size="10.00">float Height</text>
<text xml:space="preserve" text-anchor="start" x="8.12" y="-138.5" font-family="Helvetica,sans-Serif" font-size="10.00">+</text>
<text xml:space="preserve" text-anchor="start" x="18.12" y="-138.5" font-family="Helvetica,sans-Serif" font-size="10.00">float Width</text>
<text xml:space="preserve" text-anchor="start" x="8.5" y="-122.5" font-family="Helvetica,sans-Serif" font-size="10.00">#</text>
<text xml:space="preserve" text-anchor="start" x="18.12" y="-122.5" font-family="Helvetica,sans-Serif" font-size="10.00">UButton * Button</text>
<text xml:space="preserve" text-anchor="start" x="8.5" y="-106.5" font-family="Helvetica,sans-Serif" font-size="10.00">#</text>
<text xml:space="preserve" text-anchor="start" x="18.12" y="-106.5" font-family="Helvetica,sans-Serif" font-size="10.00">USizeBox * SizeBox</text>
<text xml:space="preserve" text-anchor="start" x="8.5" y="-90.5" font-family="Helvetica,sans-Serif" font-size="10.00">#</text>
<text xml:space="preserve" text-anchor="start" x="18.12" y="-90.5" font-family="Helvetica,sans-Serif" font-size="10.00">UTextBlock * Text</text>
<text xml:space="preserve" text-anchor="start" x="8.5" y="-74.5" font-family="Helvetica,sans-Serif" font-size="10.00">#</text>
<text xml:space="preserve" text-anchor="start" x="18.12" y="-74.5" font-family="Helvetica,sans-Serif" font-size="10.00">virtual void NativeConstruct</text>
<text xml:space="preserve" text-anchor="start" x="18.12" y="-62.5" font-family="Helvetica,sans-Serif" font-size="10.00">() override</text>
<text xml:space="preserve" text-anchor="start" x="8.5" y="-46.5" font-family="Helvetica,sans-Serif" font-size="10.00">#</text>
<text xml:space="preserve" text-anchor="start" x="18.12" y="-46.5" font-family="Helvetica,sans-Serif" font-size="10.00">virtual void NativeDestruct</text>
<text xml:space="preserve" text-anchor="start" x="18.12" y="-34.5" font-family="Helvetica,sans-Serif" font-size="10.00">() override</text>
<text xml:space="preserve" text-anchor="start" x="8.5" y="-18.5" font-family="Helvetica,sans-Serif" font-size="10.00">#</text>
<text xml:space="preserve" text-anchor="start" x="18.12" y="-18.5" font-family="Helvetica,sans-Serif" font-size="10.00">virtual void NativePreConstruct</text>
<text xml:space="preserve" text-anchor="start" x="18.12" y="-6.5" font-family="Helvetica,sans-Serif" font-size="10.00">() override</text>
<polygon fill="#666666" stroke="#666666" points="4.12,-198 4.12,-198 158.62,-198 158.62,-198 4.12,-198"/>
<polygon fill="#666666" stroke="#666666" points="4.12,-86 4.12,-86 16.12,-86 16.12,-86 4.12,-86"/>
<polygon fill="#666666" stroke="#666666" points="16.12,-86 16.12,-86 158.62,-86 158.62,-86 16.12,-86"/>
<polygon fill="none" stroke="#666666" points="4.12,0 4.12,-216 158.62,-216 158.62,0 4.12,0"/>
</a>
</g>
</g>
<!-- Node2 -->
<g id="Node000002" class="node">
<title>Node2</title>
<g id="a_Node000002"><a xlink:href="class_u_u_i_base.html" target="_top" xlink:title=" ">
<polygon fill="white" stroke="none" points="162.75,-428 0,-428 0,-252 162.75,-252 162.75,-428"/>
<text xml:space="preserve" text-anchor="start" x="61.12" y="-414.5" font-family="Helvetica,sans-Serif" font-size="10.00">UUIBase</text>
<text xml:space="preserve" text-anchor="start" x="4.38" y="-398.5" font-family="Helvetica,sans-Serif" font-size="10.00">#</text>
<text xml:space="preserve" text-anchor="start" x="14" y="-398.5" font-family="Helvetica,sans-Serif" font-size="10.00">FWidgetAnimationDynamicEvent</text>
<text xml:space="preserve" text-anchor="start" x="14" y="-386.5" font-family="Helvetica,sans-Serif" font-size="10.00"> AnimationFinishEvent</text>
<text xml:space="preserve" text-anchor="start" x="4" y="-370.5" font-family="Helvetica,sans-Serif" font-size="10.00">+</text>
<text xml:space="preserve" text-anchor="start" x="14" y="-370.5" font-family="Helvetica,sans-Serif" font-size="10.00">UUIManagerSubsystem</text>
<text xml:space="preserve" text-anchor="start" x="14" y="-358.5" font-family="Helvetica,sans-Serif" font-size="10.00"> * GetUIManagerSubsystem()</text>
<text xml:space="preserve" text-anchor="start" x="4" y="-342.5" font-family="Helvetica,sans-Serif" font-size="10.00">+</text>
<text xml:space="preserve" text-anchor="start" x="14" y="-342.5" font-family="Helvetica,sans-Serif" font-size="10.00">virtual void LateInit()</text>
<text xml:space="preserve" text-anchor="start" x="4.38" y="-326.5" font-family="Helvetica,sans-Serif" font-size="10.00">#</text>
<text xml:space="preserve" text-anchor="start" x="14" y="-326.5" font-family="Helvetica,sans-Serif" font-size="10.00">virtual void NativeConstruct</text>
<text xml:space="preserve" text-anchor="start" x="14" y="-314.5" font-family="Helvetica,sans-Serif" font-size="10.00">() override</text>
<text xml:space="preserve" text-anchor="start" x="4.38" y="-298.5" font-family="Helvetica,sans-Serif" font-size="10.00">#</text>
<text xml:space="preserve" text-anchor="start" x="14" y="-298.5" font-family="Helvetica,sans-Serif" font-size="10.00">virtual void NativeDestruct</text>
<text xml:space="preserve" text-anchor="start" x="14" y="-286.5" font-family="Helvetica,sans-Serif" font-size="10.00">() override</text>
<text xml:space="preserve" text-anchor="start" x="4.38" y="-270.5" font-family="Helvetica,sans-Serif" font-size="10.00">#</text>
<text xml:space="preserve" text-anchor="start" x="14" y="-270.5" font-family="Helvetica,sans-Serif" font-size="10.00">virtual void NativePreConstruct</text>
<text xml:space="preserve" text-anchor="start" x="14" y="-258.5" font-family="Helvetica,sans-Serif" font-size="10.00">() override</text>
<polygon fill="#666666" stroke="#666666" points="0,-410 0,-410 162.75,-410 162.75,-410 0,-410"/>
<polygon fill="#666666" stroke="#666666" points="0,-382 0,-382 12,-382 12,-382 0,-382"/>
<polygon fill="#666666" stroke="#666666" points="12,-382 12,-382 162.75,-382 162.75,-382 12,-382"/>
<polygon fill="none" stroke="#666666" points="0,-252 0,-428 162.75,-428 162.75,-252 0,-252"/>
</a>
</g>
</g>
<!-- Node2&#45;&gt;Node1 -->
<g id="edge1_Node000001_Node000002" class="edge">
<title>Node2&#45;&gt;Node1</title>
<g id="a_edge1_Node000001_Node000002"><a xlink:title=" ">
<path fill="none" stroke="#63b8ff" d="M81.38,-240.57C81.38,-232.38 81.38,-224.08 81.38,-215.83"/>
<polygon fill="none" stroke="#63b8ff" points="77.88,-240.53 81.38,-250.53 84.88,-240.53 77.88,-240.53"/>
</a>
</g>
</g>
<!-- Node3 -->
<g id="Node000003" class="node">
<title>Node3</title>
<g id="a_Node000003"><a xlink:title=" ">
<polygon fill="white" stroke="none" points="115,-516 47.75,-516 47.75,-464 115,-464 115,-516"/>
<text xml:space="preserve" text-anchor="start" x="51.75" y="-502.5" font-family="Helvetica,sans-Serif" font-size="10.00">UUserWidget</text>
<text xml:space="preserve" text-anchor="start" x="79.88" y="-486.5" font-family="Helvetica,sans-Serif" font-size="10.00"> </text>
<text xml:space="preserve" text-anchor="start" x="79.88" y="-470.5" font-family="Helvetica,sans-Serif" font-size="10.00"> </text>
<polygon fill="#666666" stroke="#666666" points="47.75,-498 47.75,-498 115,-498 115,-498 47.75,-498"/>
<polygon fill="#666666" stroke="#666666" points="47.75,-482 47.75,-482 115,-482 115,-482 47.75,-482"/>
<polygon fill="none" stroke="#666666" points="47.75,-464 47.75,-516 115,-516 115,-464 47.75,-464"/>
</a>
</g>
</g>
<!-- Node3&#45;&gt;Node2 -->
<g id="edge2_Node000002_Node000003" class="edge">
<title>Node3&#45;&gt;Node2</title>
<g id="a_edge2_Node000002_Node000003"><a xlink:title=" ">
<path fill="none" stroke="#63b8ff" d="M81.38,-452.77C81.38,-445.04 81.38,-436.56 81.38,-427.83"/>
<polygon fill="none" stroke="#63b8ff" points="77.88,-452.71 81.38,-462.71 84.88,-452.71 77.88,-452.71"/>
</a>
</g>
</g>
</g>
</svg>
