<?xml version="1.0" encoding="UTF-8" standalone="no"?>
<!DOCTYPE svg PUBLIC "-//W3C//DTD SVG 1.1//EN"
 "http://www.w3.org/Graphics/SVG/1.1/DTD/svg11.dtd">
<!-- Generated by graphviz version 13.1.1 (20250719.2154)
 -->
<!-- Title: UItemSlotTooltip Pages: 1 -->
<!--zoomable 728 -->

<svg id="main" version="1.1" xmlns="http://www.w3.org/2000/svg" xmlns:xlink="http://www.w3.org/1999/xlink" xml:space="preserve" onload="init(evt)">

<style type="text/css"><![CDATA[
.node, .edge {opacity: 0.7;}
.node.selected, .edge.selected {opacity: 1;}
.edge:hover path { stroke: red; }
.edge:hover polygon { stroke: red; fill: red; }
]]></style>

<defs>
  <circle id="rim" cx="0" cy="0" r="7"/>
  <circle id="rim2" cx="0" cy="0" r="3.5"/>
  <g id="zoomPlus">
    <use xlink:href="#rim" fill="#404040"><set attributeName="fill" to="#808080" begin="zoomplus.mouseover" end="zoomplus.mouseout"/></use>
    <path d="M-4,0h8M0,-4v8" fill="none" stroke="white" stroke-width="1.5" pointer-events="none"/>
  </g>
  <g id="zoomMin">
    <use xlink:href="#rim" fill="#404040"><set attributeName="fill" to="#808080" begin="zoomminus.mouseover" end="zoomminus.mouseout"/></use>
    <path d="M-4,0h8" fill="none" stroke="white" stroke-width="1.5" pointer-events="none"/>
  </g>
  <g id="arrowUp" transform="translate(30 24)">
    <use xlink:href="#rim"/>
    <path pointer-events="none" fill="none" stroke="white" stroke-width="1.5" d="M0,-3.0v7 M-2.5,-0.5L0,-3.0L2.5,-0.5"/>
  </g>
  <g id="arrowRight" transform="rotate(90) translate(36 -43)">
    <use xlink:href="#rim"/>
    <path pointer-events="none" fill="none" stroke="white" stroke-width="1.5" d="M0,-3.0v7 M-2.5,-0.5L0,-3.0L2.5,-0.5"/>
  </g>
  <g id="arrowDown" transform="rotate(180) translate(-30 -48)">
    <use xlink:href="#rim"/>
    <path pointer-events="none" fill="none" stroke="white" stroke-width="1.5" d="M0,-3.0v7 M-2.5,-0.5L0,-3.0L2.5,-0.5"/>
  </g>
  <g id="arrowLeft" transform="rotate(270) translate(-36 17)">
    <use xlink:href="#rim"/>
    <path pointer-events="none" fill="none" stroke="white" stroke-width="1.5" d="M0,-3.0v7 M-2.5,-0.5L0,-3.0L2.5,-0.5"/>
  </g>
  <g id="resetDef">
    <use xlink:href="#rim2" fill="#404040"><set attributeName="fill" to="#808080" begin="reset.mouseover" end="reset.mouseout"/></use>
  </g>
</defs>
<script type="application/ecmascript">
var viewWidth = 196;
var viewHeight = 728;
var sectionId = 'dynsection-0';
</script>
<script type="application/ecmascript" xlink:href="svg.min.js"/>
<svg id="graph" class="graph">
<g id="viewport">
<title>UItemSlotTooltip</title>
<!-- Node1 -->
<g id="Node000001" class="node">
<title>Node1</title>
<g id="a_Node000001"><a xlink:title=" ">
<polygon fill="#999999" stroke="none" points="188.25,-420 0,-420 0,0 188.25,0 188.25,-420"/>
<text xml:space="preserve" text-anchor="start" x="57.75" y="-406.5" font-family="Helvetica,sans-Serif" font-size="10.00">UItemSlotTooltip</text>
<text xml:space="preserve" text-anchor="start" x="4.38" y="-390.5" font-family="Helvetica,sans-Serif" font-size="10.00">#</text>
<text xml:space="preserve" text-anchor="start" x="14" y="-390.5" font-family="Helvetica,sans-Serif" font-size="10.00">TObjectPtr&lt; UTextBlock</text>
<text xml:space="preserve" text-anchor="start" x="14" y="-378.5" font-family="Helvetica,sans-Serif" font-size="10.00"> &gt; ItemDesc</text>
<text xml:space="preserve" text-anchor="start" x="4.38" y="-362.5" font-family="Helvetica,sans-Serif" font-size="10.00">#</text>
<text xml:space="preserve" text-anchor="start" x="14" y="-362.5" font-family="Helvetica,sans-Serif" font-size="10.00">TObjectPtr&lt; UImage</text>
<text xml:space="preserve" text-anchor="start" x="14" y="-350.5" font-family="Helvetica,sans-Serif" font-size="10.00"> &gt; ItemIcon</text>
<text xml:space="preserve" text-anchor="start" x="4.38" y="-334.5" font-family="Helvetica,sans-Serif" font-size="10.00">#</text>
<text xml:space="preserve" text-anchor="start" x="14" y="-334.5" font-family="Helvetica,sans-Serif" font-size="10.00">TObjectPtr&lt; UTextBlock</text>
<text xml:space="preserve" text-anchor="start" x="14" y="-322.5" font-family="Helvetica,sans-Serif" font-size="10.00"> &gt; ItemName</text>
<text xml:space="preserve" text-anchor="start" x="4.38" y="-306.5" font-family="Helvetica,sans-Serif" font-size="10.00">#</text>
<text xml:space="preserve" text-anchor="start" x="14" y="-306.5" font-family="Helvetica,sans-Serif" font-size="10.00">TObjectPtr&lt; UItemSlotUI</text>
<text xml:space="preserve" text-anchor="start" x="14" y="-294.5" font-family="Helvetica,sans-Serif" font-size="10.00"> &gt; OwnerItemSlot</text>
<text xml:space="preserve" text-anchor="start" x="4.38" y="-278.5" font-family="Helvetica,sans-Serif" font-size="10.00">#</text>
<text xml:space="preserve" text-anchor="start" x="14" y="-278.5" font-family="Helvetica,sans-Serif" font-size="10.00">TObjectPtr&lt; UButtonText</text>
<text xml:space="preserve" text-anchor="start" x="14" y="-266.5" font-family="Helvetica,sans-Serif" font-size="10.00"> &gt; SellButton</text>
<text xml:space="preserve" text-anchor="start" x="4" y="-250.5" font-family="Helvetica,sans-Serif" font-size="10.00">+</text>
<text xml:space="preserve" text-anchor="start" x="14" y="-250.5" font-family="Helvetica,sans-Serif" font-size="10.00">void InitializeItemSlotTooltip</text>
<text xml:space="preserve" text-anchor="start" x="14" y="-238.5" font-family="Helvetica,sans-Serif" font-size="10.00">(UItemSlotUI *InOwner, const</text>
<text xml:space="preserve" text-anchor="start" x="14" y="-226.5" font-family="Helvetica,sans-Serif" font-size="10.00"> FItemDataRow &amp;ItemData)</text>
<text xml:space="preserve" text-anchor="start" x="4" y="-210.5" font-family="Helvetica,sans-Serif" font-size="10.00">+</text>
<text xml:space="preserve" text-anchor="start" x="14" y="-210.5" font-family="Helvetica,sans-Serif" font-size="10.00">void UpdateTooltip</text>
<text xml:space="preserve" text-anchor="start" x="14" y="-198.5" font-family="Helvetica,sans-Serif" font-size="10.00">(FItemDataRow ItemData)</text>
<text xml:space="preserve" text-anchor="start" x="4.38" y="-182.5" font-family="Helvetica,sans-Serif" font-size="10.00">#</text>
<text xml:space="preserve" text-anchor="start" x="14" y="-182.5" font-family="Helvetica,sans-Serif" font-size="10.00">void HandleSellButtonClicked()</text>
<text xml:space="preserve" text-anchor="start" x="4.38" y="-166.5" font-family="Helvetica,sans-Serif" font-size="10.00">#</text>
<text xml:space="preserve" text-anchor="start" x="14" y="-166.5" font-family="Helvetica,sans-Serif" font-size="10.00">virtual void NativeConstruct</text>
<text xml:space="preserve" text-anchor="start" x="14" y="-154.5" font-family="Helvetica,sans-Serif" font-size="10.00">() override</text>
<text xml:space="preserve" text-anchor="start" x="4.38" y="-138.5" font-family="Helvetica,sans-Serif" font-size="10.00">#</text>
<text xml:space="preserve" text-anchor="start" x="14" y="-138.5" font-family="Helvetica,sans-Serif" font-size="10.00">virtual void NativeDestruct</text>
<text xml:space="preserve" text-anchor="start" x="14" y="-126.5" font-family="Helvetica,sans-Serif" font-size="10.00">() override</text>
<text xml:space="preserve" text-anchor="start" x="4.38" y="-110.5" font-family="Helvetica,sans-Serif" font-size="10.00">#</text>
<text xml:space="preserve" text-anchor="start" x="14" y="-110.5" font-family="Helvetica,sans-Serif" font-size="10.00">virtual void NativeOnMouse</text>
<text xml:space="preserve" text-anchor="start" x="14" y="-98.5" font-family="Helvetica,sans-Serif" font-size="10.00">Enter(const FGeometry &amp;MyGeometry,</text>
<text xml:space="preserve" text-anchor="start" x="14" y="-86.5" font-family="Helvetica,sans-Serif" font-size="10.00"> const FPointerEvent &amp;MouseEvent)</text>
<text xml:space="preserve" text-anchor="start" x="14" y="-74.5" font-family="Helvetica,sans-Serif" font-size="10.00"> override</text>
<text xml:space="preserve" text-anchor="start" x="4.38" y="-58.5" font-family="Helvetica,sans-Serif" font-size="10.00">#</text>
<text xml:space="preserve" text-anchor="start" x="14" y="-58.5" font-family="Helvetica,sans-Serif" font-size="10.00">virtual void NativeOnMouse</text>
<text xml:space="preserve" text-anchor="start" x="14" y="-46.5" font-family="Helvetica,sans-Serif" font-size="10.00">Leave(const FPointerEvent</text>
<text xml:space="preserve" text-anchor="start" x="14" y="-34.5" font-family="Helvetica,sans-Serif" font-size="10.00"> &amp;MouseEvent) override</text>
<text xml:space="preserve" text-anchor="start" x="4.38" y="-18.5" font-family="Helvetica,sans-Serif" font-size="10.00">#</text>
<text xml:space="preserve" text-anchor="start" x="14" y="-18.5" font-family="Helvetica,sans-Serif" font-size="10.00">virtual void NativePreConstruct</text>
<text xml:space="preserve" text-anchor="start" x="14" y="-6.5" font-family="Helvetica,sans-Serif" font-size="10.00">() override</text>
<polygon fill="#666666" stroke="#666666" points="0,-402 0,-402 188.25,-402 188.25,-402 0,-402"/>
<polygon fill="#666666" stroke="#666666" points="0,-262 0,-262 12,-262 12,-262 0,-262"/>
<polygon fill="#666666" stroke="#666666" points="12,-262 12,-262 188.25,-262 188.25,-262 12,-262"/>
<polygon fill="none" stroke="#666666" points="0,0 0,-420 188.25,-420 188.25,0 0,0"/>
</a>
</g>
</g>
<!-- Node2 -->
<g id="Node000002" class="node">
<title>Node2</title>
<g id="a_Node000002"><a xlink:href="class_u_u_i_base.html" target="_top" xlink:title=" ">
<polygon fill="white" stroke="none" points="175.5,-632 12.75,-632 12.75,-456 175.5,-456 175.5,-632"/>
<text xml:space="preserve" text-anchor="start" x="73.88" y="-618.5" font-family="Helvetica,sans-Serif" font-size="10.00">UUIBase</text>
<text xml:space="preserve" text-anchor="start" x="17.12" y="-602.5" font-family="Helvetica,sans-Serif" font-size="10.00">#</text>
<text xml:space="preserve" text-anchor="start" x="26.75" y="-602.5" font-family="Helvetica,sans-Serif" font-size="10.00">FWidgetAnimationDynamicEvent</text>
<text xml:space="preserve" text-anchor="start" x="26.75" y="-590.5" font-family="Helvetica,sans-Serif" font-size="10.00"> AnimationFinishEvent</text>
<text xml:space="preserve" text-anchor="start" x="16.75" y="-574.5" font-family="Helvetica,sans-Serif" font-size="10.00">+</text>
<text xml:space="preserve" text-anchor="start" x="26.75" y="-574.5" font-family="Helvetica,sans-Serif" font-size="10.00">UUIManagerSubsystem</text>
<text xml:space="preserve" text-anchor="start" x="26.75" y="-562.5" font-family="Helvetica,sans-Serif" font-size="10.00"> * GetUIManagerSubsystem()</text>
<text xml:space="preserve" text-anchor="start" x="16.75" y="-546.5" font-family="Helvetica,sans-Serif" font-size="10.00">+</text>
<text xml:space="preserve" text-anchor="start" x="26.75" y="-546.5" font-family="Helvetica,sans-Serif" font-size="10.00">virtual void LateInit()</text>
<text xml:space="preserve" text-anchor="start" x="17.12" y="-530.5" font-family="Helvetica,sans-Serif" font-size="10.00">#</text>
<text xml:space="preserve" text-anchor="start" x="26.75" y="-530.5" font-family="Helvetica,sans-Serif" font-size="10.00">virtual void NativeConstruct</text>
<text xml:space="preserve" text-anchor="start" x="26.75" y="-518.5" font-family="Helvetica,sans-Serif" font-size="10.00">() override</text>
<text xml:space="preserve" text-anchor="start" x="17.12" y="-502.5" font-family="Helvetica,sans-Serif" font-size="10.00">#</text>
<text xml:space="preserve" text-anchor="start" x="26.75" y="-502.5" font-family="Helvetica,sans-Serif" font-size="10.00">virtual void NativeDestruct</text>
<text xml:space="preserve" text-anchor="start" x="26.75" y="-490.5" font-family="Helvetica,sans-Serif" font-size="10.00">() override</text>
<text xml:space="preserve" text-anchor="start" x="17.12" y="-474.5" font-family="Helvetica,sans-Serif" font-size="10.00">#</text>
<text xml:space="preserve" text-anchor="start" x="26.75" y="-474.5" font-family="Helvetica,sans-Serif" font-size="10.00">virtual void NativePreConstruct</text>
<text xml:space="preserve" text-anchor="start" x="26.75" y="-462.5" font-family="Helvetica,sans-Serif" font-size="10.00">() override</text>
<polygon fill="#666666" stroke="#666666" points="12.75,-614 12.75,-614 175.5,-614 175.5,-614 12.75,-614"/>
<polygon fill="#666666" stroke="#666666" points="12.75,-586 12.75,-586 24.75,-586 24.75,-586 12.75,-586"/>
<polygon fill="#666666" stroke="#666666" points="24.75,-586 24.75,-586 175.5,-586 175.5,-586 24.75,-586"/>
<polygon fill="none" stroke="#666666" points="12.75,-456 12.75,-632 175.5,-632 175.5,-456 12.75,-456"/>
</a>
</g>
</g>
<!-- Node2&#45;&gt;Node1 -->
<g id="edge1_Node000001_Node000002" class="edge">
<title>Node2&#45;&gt;Node1</title>
<g id="a_edge1_Node000001_Node000002"><a xlink:title=" ">
<path fill="none" stroke="#63b8ff" d="M94.12,-444.93C94.12,-436.83 94.12,-428.47 94.12,-419.94"/>
<polygon fill="none" stroke="#63b8ff" points="90.63,-444.69 94.13,-454.69 97.63,-444.69 90.63,-444.69"/>
</a>
</g>
</g>
<!-- Node3 -->
<g id="Node000003" class="node">
<title>Node3</title>
<g id="a_Node000003"><a xlink:title=" ">
<polygon fill="white" stroke="none" points="127.75,-720 60.5,-720 60.5,-668 127.75,-668 127.75,-720"/>
<text xml:space="preserve" text-anchor="start" x="64.5" y="-706.5" font-family="Helvetica,sans-Serif" font-size="10.00">UUserWidget</text>
<text xml:space="preserve" text-anchor="start" x="92.62" y="-690.5" font-family="Helvetica,sans-Serif" font-size="10.00"> </text>
<text xml:space="preserve" text-anchor="start" x="92.62" y="-674.5" font-family="Helvetica,sans-Serif" font-size="10.00"> </text>
<polygon fill="#666666" stroke="#666666" points="60.5,-702 60.5,-702 127.75,-702 127.75,-702 60.5,-702"/>
<polygon fill="#666666" stroke="#666666" points="60.5,-686 60.5,-686 127.75,-686 127.75,-686 60.5,-686"/>
<polygon fill="none" stroke="#666666" points="60.5,-668 60.5,-720 127.75,-720 127.75,-668 60.5,-668"/>
</a>
</g>
</g>
<!-- Node3&#45;&gt;Node2 -->
<g id="edge2_Node000002_Node000003" class="edge">
<title>Node3&#45;&gt;Node2</title>
<g id="a_edge2_Node000002_Node000003"><a xlink:title=" ">
<path fill="none" stroke="#63b8ff" d="M94.12,-656.77C94.12,-649.04 94.12,-640.56 94.12,-631.83"/>
<polygon fill="none" stroke="#63b8ff" points="90.63,-656.71 94.13,-666.71 97.63,-656.71 90.63,-656.71"/>
</a>
</g>
</g>
</g>
</svg>

<g id="navigator" transform="translate(0 0)" fill="#404254">
  <rect fill="#f2f5e9" fill-opacity="0.5" stroke="#606060" stroke-width=".5" x="0" y="0" width="60" height="60"/>
  <use id="zoomplus" xlink:href="#zoomPlus" x="17" y="9" onmousedown="handleZoom(evt,'in')"/>
  <use id="zoomminus" xlink:href="#zoomMin" x="42" y="9" onmousedown="handleZoom(evt,'out')"/>
  <use id="reset" xlink:href="#resetDef" x="30" y="36" onmousedown="handleReset()"/>
   <use id="arrowup" xlink:href="#arrowUp" x="0" y="0" onmousedown="handlePan(0,-1)"/>
  <use id="arrowright" xlink:href="#arrowRight" x="0" y="0" onmousedown="handlePan(1,0)"/>
  <use id="arrowdown" xlink:href="#arrowDown" x="0" y="0" onmousedown="handlePan(0,1)"/>
  <use id="arrowleft" xlink:href="#arrowLeft" x="0" y="0" onmousedown="handlePan(-1,0)"/>
</g>
<svg viewBox="0 0 15 15" width="100%" height="30px" preserveAspectRatio="xMaxYMin meet">
 <g id="arrow_out" transform="scale(0.3 0.3)">
  <a xlink:href="class_u_item_slot_tooltip__inherit__graph_org.svg" target="_base">
   <rect id="button" ry="5" rx="5" y="6" x="6" height="38" width="38"
        fill="#f2f5e9" fill-opacity="0.5" stroke="#606060" stroke-width="1.0"/>
   <path id="arrow"
     d="M 11.500037,31.436501 C 11.940474,20.09759 22.043105,11.32322 32.158766,21.979434 L 37.068811,17.246167 C 37.068811,17.246167 37.088388,32 37.088388,32 L 22.160133,31.978069 C 22.160133,31.978069 26.997745,27.140456 26.997745,27.140456 C 18.528582,18.264221 13.291696,25.230495 11.500037,31.436501 z"
     style="fill:#404040;"/>
  </a>
 </g>
</svg>

<style type='text/css'>
<![CDATA[
[data-mouse-over-selected='false'] { opacity: 0.7; }
[data-mouse-over-selected='true']  { opacity: 1.0; }
]]>
</style>
<script type="application/ecmascript"><![CDATA[
document.addEventListener('DOMContentLoaded', (event) => {
  highlightEdges();
  highlightAdjacentNodes();
});
]]></script>
</svg>
