<?xml version="1.0" encoding="UTF-8" standalone="no"?>
<!DOCTYPE svg PUBLIC "-//W3C//DTD SVG 1.1//EN"
 "http://www.w3.org/Graphics/SVG/1.1/DTD/svg11.dtd">
<!-- Generated by graphviz version 13.1.1 (20250719.2154)
 -->
<!-- Title: ABossMonsterBase::Tick Pages: 1 -->
<svg width="481pt" height="58pt"
 viewBox="0.00 0.00 481.00 58.00" xmlns="http://www.w3.org/2000/svg" xmlns:xlink="http://www.w3.org/1999/xlink">

<svg id="main" version="1.1" xmlns="http://www.w3.org/2000/svg" xmlns:xlink="http://www.w3.org/1999/xlink" xml:space="preserve">

<style type="text/css"><![CDATA[
.node, .edge {opacity: 0.7;}
.node.selected, .edge.selected {opacity: 1;}
.edge:hover path { stroke: red; }
.edge:hover polygon { stroke: red; fill: red; }
]]></style>
<script type="application/ecmascript" xlink:href="svg.min.js"/>
<svg id="graph" class="graph">
<g id="graph0" class="graph" transform="scale(1 1) rotate(0) translate(4 54)">
<title>ABossMonsterBase::Tick</title>
<!-- Node1 -->
<g id="Node000001" class="node">
<title>Node1</title>
<g id="a_Node000001"><a xlink:title=" ">
<polygon fill="#999999" stroke="#666666" points="472.5,-26 344.75,-26 344.75,-6 472.5,-6 472.5,-26"/>
<text xml:space="preserve" text-anchor="middle" x="408.62" y="-12.5" font-family="Helvetica,sans-Serif" font-size="10.00">ABossMonsterBase::Tick</text>
</a>
</g>
</g>
<!-- Node2 -->
<g id="Node000002" class="node">
<title>Node2</title>
<g id="a_Node000002"><a xlink:href="class_a_boss_monster_base.html#a148ab71c8d5d40090cc9f63fe81065b3" target="_top" xlink:title=" ">
<polygon fill="white" stroke="#666666" points="308.75,-32 160,-32 160,0 308.75,0 308.75,-32"/>
<text xml:space="preserve" text-anchor="start" x="168" y="-18.5" font-family="Helvetica,sans-Serif" font-size="10.00">ABossMonsterBase::Multicast</text>
<text xml:space="preserve" text-anchor="middle" x="234.38" y="-6.5" font-family="Helvetica,sans-Serif" font-size="10.00">_StartDissolveEffect</text>
</a>
</g>
</g>
<!-- Node1&#45;&gt;Node2 -->
<g id="edge1_Node000001_Node000002" class="edge">
<title>Node1&#45;&gt;Node2</title>
<g id="a_edge1_Node000001_Node000002"><a xlink:title=" ">
<path fill="none" stroke="#63b8ff" d="M332.96,-16C325.03,-16 316.96,-16 309.03,-16"/>
<polygon fill="#63b8ff" stroke="#63b8ff" points="332.95,-19.5 342.95,-16 332.95,-12.5 332.95,-19.5"/>
</a>
</g>
</g>
<!-- Node2&#45;&gt;Node2 -->
<g id="edge3_Node000002_Node000002" class="edge">
<title>Node2&#45;&gt;Node2</title>
<g id="a_edge3_Node000002_Node000002"><a xlink:title=" ">
<path fill="none" stroke="#63b8ff" d="M263.1,-43.71C258.31,-47.48 248.74,-50 234.38,-50 208.11,-50 197.86,-41.58 203.6,-32.44"/>
<polygon fill="#63b8ff" stroke="#63b8ff" points="266.53,-44.4 264.88,-33.93 259.65,-43.14 266.53,-44.4"/>
</a>
</g>
</g>
<!-- Node3 -->
<g id="Node000003" class="node">
<title>Node3</title>
<g id="a_Node000003"><a xlink:href="class_a_boss_monster_base.html#a3a77a8ea16e8085f13e426f1eab5c5c7" target="_top" xlink:title=" ">
<polygon fill="white" stroke="#666666" points="124,-26 0,-26 0,-6 124,-6 124,-26"/>
<text xml:space="preserve" text-anchor="middle" x="62" y="-12.5" font-family="Helvetica,sans-Serif" font-size="10.00">ABossMonsterBase::Die</text>
</a>
</g>
</g>
<!-- Node2&#45;&gt;Node3 -->
<g id="edge2_Node000002_Node000003" class="edge">
<title>Node2&#45;&gt;Node3</title>
<g id="a_edge2_Node000002_Node000003"><a xlink:title=" ">
<path fill="none" stroke="#63b8ff" d="M148.25,-16C140.18,-16 132.11,-16 124.32,-16"/>
<polygon fill="#63b8ff" stroke="#63b8ff" points="148.12,-19.5 158.12,-16 148.12,-12.5 148.12,-19.5"/>
</a>
</g>
</g>
</g>
</svg>
</svg>

<style type='text/css'>
<![CDATA[
[data-mouse-over-selected='false'] { opacity: 0.7; }
[data-mouse-over-selected='true']  { opacity: 1.0; }
]]>
</style>
<script type="application/ecmascript"><![CDATA[
document.addEventListener('DOMContentLoaded', (event) => {
  highlightEdges();
  highlightAdjacentNodes();
});
]]></script>
</svg>
