<?xml version="1.0" encoding="UTF-8" standalone="no"?>
<!DOCTYPE svg PUBLIC "-//W3C//DTD SVG 1.1//EN"
 "http://www.w3.org/Graphics/SVG/1.1/DTD/svg11.dtd">
<!-- Generated by graphviz version 13.1.1 (20250719.2154)
 -->
<!-- Title: AKPTLobbyPlayerController::RequestSelectCharacter Pages: 1 -->
<svg width="669pt" height="162pt"
 viewBox="0.00 0.00 669.00 162.00" xmlns="http://www.w3.org/2000/svg" xmlns:xlink="http://www.w3.org/1999/xlink">
<g id="graph0" class="graph" transform="scale(1 1) rotate(0) translate(4 158)">
<title>AKPTLobbyPlayerController::RequestSelectCharacter</title>
<!-- Node1 -->
<g id="Node000001" class="node">
<title>Node1</title>
<g id="a_Node000001"><a xlink:title=" ">
<polygon fill="#999999" stroke="#666666" points="138.25,-98 0,-98 0,-66 138.25,-66 138.25,-98"/>
<text xml:space="preserve" text-anchor="start" x="8" y="-84.5" font-family="Helvetica,sans-Serif" font-size="10.00">AKPTLobbyPlayerController</text>
<text xml:space="preserve" text-anchor="middle" x="69.12" y="-72.5" font-family="Helvetica,sans-Serif" font-size="10.00">::RequestSelectCharacter</text>
</a>
</g>
</g>
<!-- Node2 -->
<g id="Node000002" class="node">
<title>Node2</title>
<g id="a_Node000002"><a xlink:href="class_a_k_p_t_lobby_player_controller.html#a59c9366cd56cc64e871da1ffa6c5f2cc" target="_top" xlink:title=" ">
<polygon fill="white" stroke="#666666" points="312.5,-98 174.25,-98 174.25,-66 312.5,-66 312.5,-98"/>
<text xml:space="preserve" text-anchor="start" x="182.25" y="-84.5" font-family="Helvetica,sans-Serif" font-size="10.00">AKPTLobbyPlayerController</text>
<text xml:space="preserve" text-anchor="middle" x="243.38" y="-72.5" font-family="Helvetica,sans-Serif" font-size="10.00">::Server_SelectCharacter</text>
</a>
</g>
</g>
<!-- Node1&#45;&gt;Node2 -->
<g id="edge1_Node000001_Node000002" class="edge">
<title>Node1&#45;&gt;Node2</title>
<g id="a_edge1_Node000001_Node000002"><a xlink:title=" ">
<path fill="none" stroke="#63b8ff" d="M138.7,-82C146.45,-82 154.4,-82 162.29,-82"/>
<polygon fill="#63b8ff" stroke="#63b8ff" points="162.24,-85.5 172.24,-82 162.24,-78.5 162.24,-85.5"/>
</a>
</g>
</g>
<!-- Node2&#45;&gt;Node2 -->
<g id="edge7_Node000002_Node000002" class="edge">
<title>Node2&#45;&gt;Node2</title>
<g id="a_edge7_Node000002_Node000002"><a xlink:title=" ">
<path fill="none" stroke="#63b8ff" d="M212.27,-98.44C206.46,-107.58 216.83,-116 243.38,-116 257.89,-116 267.57,-113.48 272.41,-109.71"/>
<polygon fill="#63b8ff" stroke="#63b8ff" points="275.84,-110.4 274.21,-99.93 268.96,-109.13 275.84,-110.4"/>
</a>
</g>
</g>
<!-- Node3 -->
<g id="Node000003" class="node">
<title>Node3</title>
<g id="a_Node000003"><a xlink:href="class_a_k_p_t_lobby_player_controller.html#aed631b62d6aa2bff4969e7b4b22ec9ae" target="_top" xlink:title=" ">
<polygon fill="white" stroke="#666666" points="486.75,-120 348.5,-120 348.5,-88 486.75,-88 486.75,-120"/>
<text xml:space="preserve" text-anchor="start" x="356.5" y="-106.5" font-family="Helvetica,sans-Serif" font-size="10.00">AKPTLobbyPlayerController</text>
<text xml:space="preserve" text-anchor="middle" x="417.62" y="-94.5" font-family="Helvetica,sans-Serif" font-size="10.00">::BeginPlay</text>
</a>
</g>
</g>
<!-- Node2&#45;&gt;Node3 -->
<g id="edge2_Node000002_Node000003" class="edge">
<title>Node2&#45;&gt;Node3</title>
<g id="a_edge2_Node000002_Node000003"><a xlink:title=" ">
<path fill="none" stroke="#63b8ff" d="M312.95,-90.76C320.79,-91.76 328.84,-92.79 336.81,-93.81"/>
<polygon fill="#63b8ff" stroke="#63b8ff" points="336.14,-97.25 346.51,-95.04 337.03,-90.31 336.14,-97.25"/>
</a>
</g>
</g>
<!-- Node4 -->
<g id="Node000004" class="node">
<title>Node4</title>
<g id="a_Node000004"><a xlink:href="class_a_k_p_t_lobby_player_controller.html#ad0a944b2a4df4237b8b961eebb4ca1e1" target="_top" xlink:title=" ">
<polygon fill="white" stroke="#666666" points="661,-154 522.75,-154 522.75,-122 661,-122 661,-154"/>
<text xml:space="preserve" text-anchor="start" x="530.75" y="-140.5" font-family="Helvetica,sans-Serif" font-size="10.00">AKPTLobbyPlayerController</text>
<text xml:space="preserve" text-anchor="middle" x="591.88" y="-128.5" font-family="Helvetica,sans-Serif" font-size="10.00">::CreateLobbyWidget</text>
</a>
</g>
</g>
<!-- Node2&#45;&gt;Node4 -->
<g id="edge5_Node000002_Node000004" class="edge">
<title>Node2&#45;&gt;Node4</title>
<g id="a_edge5_Node000002_Node000004"><a xlink:title=" ">
<path fill="none" stroke="#63b8ff" d="M272.49,-98.3C292.86,-109.19 321.47,-122.65 348.5,-129 401.73,-141.49 463.31,-143.63 511.08,-142.7"/>
<polygon fill="#63b8ff" stroke="#63b8ff" points="510.87,-146.21 520.78,-142.46 510.7,-139.21 510.87,-146.21"/>
</a>
</g>
</g>
<!-- Node5 -->
<g id="Node000005" class="node">
<title>Node5</title>
<g id="a_Node000005"><a xlink:href="class_a_k_p_t_lobby_player_controller.html#ac612045f4dabb0881f558a1a266ebd18" target="_top" xlink:title=" ">
<polygon fill="white" stroke="#666666" points="661,-95 522.75,-95 522.75,-63 661,-63 661,-95"/>
<text xml:space="preserve" text-anchor="start" x="530.75" y="-81.5" font-family="Helvetica,sans-Serif" font-size="10.00">AKPTLobbyPlayerController</text>
<text xml:space="preserve" text-anchor="middle" x="591.88" y="-69.5" font-family="Helvetica,sans-Serif" font-size="10.00">::TryToSetLobbyCamera</text>
</a>
</g>
</g>
<!-- Node2&#45;&gt;Node5 -->
<g id="edge8_Node000002_Node000005" class="edge">
<title>Node2&#45;&gt;Node5</title>
<g id="a_edge8_Node000002_Node000005"><a xlink:title=" ">
<path fill="none" stroke="#63b8ff" d="M312.98,-79.74C324.82,-79.43 337.02,-79.17 348.5,-79 402.72,-78.22 463.78,-78.22 511.04,-78.42"/>
<polygon fill="#63b8ff" stroke="#63b8ff" points="510.91,-81.92 520.93,-78.47 510.94,-74.92 510.91,-81.92"/>
</a>
</g>
</g>
<!-- Node6 -->
<g id="Node000006" class="node">
<title>Node6</title>
<g id="a_Node000006"><a xlink:href="class_a_k_p_t_lobby_player_controller.html#a0f474796b79489cca5ff654c30e25e1a" target="_top" xlink:title=" ">
<polygon fill="white" stroke="#666666" points="486.75,-32 348.5,-32 348.5,0 486.75,0 486.75,-32"/>
<text xml:space="preserve" text-anchor="start" x="356.5" y="-18.5" font-family="Helvetica,sans-Serif" font-size="10.00">AKPTLobbyPlayerController</text>
<text xml:space="preserve" text-anchor="middle" x="417.62" y="-6.5" font-family="Helvetica,sans-Serif" font-size="10.00">::EndPlay</text>
</a>
</g>
</g>
<!-- Node2&#45;&gt;Node6 -->
<g id="edge6_Node000002_Node000006" class="edge">
<title>Node2&#45;&gt;Node6</title>
<g id="a_edge6_Node000002_Node000006"><a xlink:title=" ">
<path fill="none" stroke="#63b8ff" d="M287.4,-65.52C310.4,-56.7 338.93,-45.77 363.33,-36.42"/>
<polygon fill="#63b8ff" stroke="#63b8ff" points="364.35,-39.78 372.44,-32.93 361.85,-33.24 364.35,-39.78"/>
</a>
</g>
</g>
<!-- Node3&#45;&gt;Node4 -->
<g id="edge3_Node000003_Node000004" class="edge">
<title>Node3&#45;&gt;Node4</title>
<g id="a_edge3_Node000003_Node000004"><a xlink:title=" ">
<path fill="none" stroke="#63b8ff" d="M487.2,-117.54C495.04,-119.08 503.09,-120.67 511.06,-122.25"/>
<polygon fill="#63b8ff" stroke="#63b8ff" points="510.28,-125.66 520.77,-124.16 511.64,-118.79 510.28,-125.66"/>
</a>
</g>
</g>
<!-- Node3&#45;&gt;Node5 -->
<g id="edge4_Node000003_Node000005" class="edge">
<title>Node3&#45;&gt;Node5</title>
<g id="a_edge4_Node000003_Node000005"><a xlink:title=" ">
<path fill="none" stroke="#63b8ff" d="M487.2,-94.05C495.04,-92.91 503.09,-91.74 511.06,-90.58"/>
<polygon fill="#63b8ff" stroke="#63b8ff" points="511.37,-94.08 520.76,-89.18 510.36,-87.15 511.37,-94.08"/>
</a>
</g>
</g>
</g>
</svg>
