<?xml version="1.0" encoding="UTF-8" standalone="no"?>
<!DOCTYPE svg PUBLIC "-//W3C//DTD SVG 1.1//EN"
 "http://www.w3.org/Graphics/SVG/1.1/DTD/svg11.dtd">
<!-- Generated by graphviz version 13.1.1 (20250719.2154)
 -->
<!-- Title: UGameplayAbility_TraceBase::OnTraceHitBP Pages: 1 -->
<svg width="705pt" height="128pt"
 viewBox="0.00 0.00 705.00 128.00" xmlns="http://www.w3.org/2000/svg" xmlns:xlink="http://www.w3.org/1999/xlink">
<g id="graph0" class="graph" transform="scale(1 1) rotate(0) translate(4 124)">
<title>UGameplayAbility_TraceBase::OnTraceHitBP</title>
<!-- Node1 -->
<g id="Node000001" class="node">
<title>Node1</title>
<g id="a_Node000001"><a xlink:title=" ">
<polygon fill="#999999" stroke="#666666" points="147.25,-54 0,-54 0,-22 147.25,-22 147.25,-54"/>
<text xml:space="preserve" text-anchor="start" x="8" y="-40.5" font-family="Helvetica,sans-Serif" font-size="10.00">UGameplayAbility_TraceBase</text>
<text xml:space="preserve" text-anchor="middle" x="73.62" y="-28.5" font-family="Helvetica,sans-Serif" font-size="10.00">::OnTraceHitBP</text>
</a>
</g>
</g>
<!-- Node1&#45;&gt;Node1 -->
<g id="edge7_Node000001_Node000001" class="edge">
<title>Node1&#45;&gt;Node1</title>
<g id="a_edge7_Node000001_Node000001"><a xlink:title=" ">
<path fill="none" stroke="#63b8ff" d="M40.91,-54.44C34.8,-63.58 45.71,-72 73.62,-72 88.89,-72 99.07,-69.48 104.16,-65.71"/>
<polygon fill="#63b8ff" stroke="#63b8ff" points="107.59,-66.41 106.05,-55.93 100.72,-65.08 107.59,-66.41"/>
</a>
</g>
</g>
<!-- Node2 -->
<g id="Node000002" class="node">
<title>Node2</title>
<g id="a_Node000002"><a xlink:href="class_u_gameplay_ability___trace_base.html#a8cbf0758a9b7e43db6f8ece876f468da" target="_top" xlink:title=" ">
<polygon fill="white" stroke="#666666" points="330.5,-120 183.25,-120 183.25,-88 330.5,-88 330.5,-120"/>
<text xml:space="preserve" text-anchor="start" x="191.25" y="-106.5" font-family="Helvetica,sans-Serif" font-size="10.00">UGameplayAbility_TraceBase</text>
<text xml:space="preserve" text-anchor="middle" x="256.88" y="-94.5" font-family="Helvetica,sans-Serif" font-size="10.00">::ActivateAbility</text>
</a>
</g>
</g>
<!-- Node1&#45;&gt;Node2 -->
<g id="edge1_Node000001_Node000002" class="edge">
<title>Node1&#45;&gt;Node2</title>
<g id="a_edge1_Node000001_Node000002"><a xlink:title=" ">
<path fill="none" stroke="#63b8ff" d="M119.89,-54.48C144.21,-63.34 174.39,-74.33 200.14,-83.7"/>
<polygon fill="#63b8ff" stroke="#63b8ff" points="198.85,-86.96 209.45,-87.09 201.25,-80.38 198.85,-86.96"/>
</a>
</g>
</g>
<!-- Node3 -->
<g id="Node000003" class="node">
<title>Node3</title>
<g id="a_Node000003"><a xlink:href="class_u_gameplay_ability___trace_base.html#a6ab220e0256558c7742e77bf52ef7329" target="_top" xlink:title=" ">
<polygon fill="white" stroke="#666666" points="697,-54 549.75,-54 549.75,-22 697,-22 697,-54"/>
<text xml:space="preserve" text-anchor="start" x="557.75" y="-40.5" font-family="Helvetica,sans-Serif" font-size="10.00">UGameplayAbility_TraceBase</text>
<text xml:space="preserve" text-anchor="middle" x="623.38" y="-28.5" font-family="Helvetica,sans-Serif" font-size="10.00">::ApplyEffectToTarget</text>
</a>
</g>
</g>
<!-- Node1&#45;&gt;Node3 -->
<g id="edge2_Node000001_Node000003" class="edge">
<title>Node1&#45;&gt;Node3</title>
<g id="a_edge2_Node000001_Node000003"><a xlink:title=" ">
<path fill="none" stroke="#63b8ff" d="M147.66,-40.29C159.55,-40.59 171.74,-40.84 183.25,-41 330.12,-43.03 366.88,-43.03 513.75,-41 521.57,-40.89 529.71,-40.74 537.85,-40.56"/>
<polygon fill="#63b8ff" stroke="#63b8ff" points="537.91,-44.06 547.83,-40.33 537.75,-37.06 537.91,-44.06"/>
</a>
</g>
</g>
<!-- Node4 -->
<g id="Node000004" class="node">
<title>Node4</title>
<g id="a_Node000004"><a xlink:href="class_u_gameplay_ability___trace_base.html#af45bd75cfce61a7c8368270e14ba2da2" target="_top" xlink:title=" ">
<polygon fill="white" stroke="#666666" points="330.5,-32 183.25,-32 183.25,0 330.5,0 330.5,-32"/>
<text xml:space="preserve" text-anchor="start" x="191.25" y="-18.5" font-family="Helvetica,sans-Serif" font-size="10.00">UGameplayAbility_TraceBase</text>
<text xml:space="preserve" text-anchor="middle" x="256.88" y="-6.5" font-family="Helvetica,sans-Serif" font-size="10.00">::HandleTraceResult</text>
</a>
</g>
</g>
<!-- Node1&#45;&gt;Node4 -->
<g id="edge3_Node000001_Node000004" class="edge">
<title>Node1&#45;&gt;Node4</title>
<g id="a_edge3_Node000001_Node000004"><a xlink:title=" ">
<path fill="none" stroke="#63b8ff" d="M147.56,-22.51C155.45,-21.45 163.53,-20.44 171.54,-19.5"/>
<polygon fill="#63b8ff" stroke="#63b8ff" points="171.74,-23 181.29,-18.4 170.96,-16.04 171.74,-23"/>
</a>
</g>
</g>
<!-- Node4&#45;&gt;Node1 -->
<g id="edge6_Node000004_Node000001" class="edge">
<title>Node4&#45;&gt;Node1</title>
<g id="a_edge6_Node000004_Node000001"><a xlink:title=" ">
<path fill="none" stroke="#63b8ff" d="M182.79,-31.51C174.9,-32.57 166.82,-33.58 158.81,-34.52"/>
<polygon fill="#63b8ff" stroke="#63b8ff" points="158.61,-31.02 149.07,-35.61 159.4,-37.97 158.61,-31.02"/>
</a>
</g>
</g>
<!-- Node5 -->
<g id="Node000005" class="node">
<title>Node5</title>
<g id="a_Node000005"><a xlink:href="class_u_gameplay_ability___trace_base.html#a9228e5548e9603d5db0a4851528699b9" target="_top" xlink:title=" ">
<polygon fill="white" stroke="#666666" points="513.75,-32 366.5,-32 366.5,0 513.75,0 513.75,-32"/>
<text xml:space="preserve" text-anchor="start" x="374.5" y="-18.5" font-family="Helvetica,sans-Serif" font-size="10.00">UGameplayAbility_TraceBase</text>
<text xml:space="preserve" text-anchor="middle" x="440.12" y="-6.5" font-family="Helvetica,sans-Serif" font-size="10.00">::OnTraceHit</text>
</a>
</g>
</g>
<!-- Node4&#45;&gt;Node5 -->
<g id="edge4_Node000004_Node000005" class="edge">
<title>Node4&#45;&gt;Node5</title>
<g id="a_edge4_Node000004_Node000005"><a xlink:title=" ">
<path fill="none" stroke="#63b8ff" d="M330.81,-16C338.7,-16 346.78,-16 354.79,-16"/>
<polygon fill="#63b8ff" stroke="#63b8ff" points="354.53,-19.5 364.53,-16 354.53,-12.5 354.53,-19.5"/>
</a>
</g>
</g>
<!-- Node5&#45;&gt;Node3 -->
<g id="edge5_Node000005_Node000003" class="edge">
<title>Node5&#45;&gt;Node3</title>
<g id="a_edge5_Node000005_Node000003"><a xlink:title=" ">
<path fill="none" stroke="#63b8ff" d="M514.06,-24.85C521.95,-25.81 530.03,-26.79 538.04,-27.76"/>
<polygon fill="#63b8ff" stroke="#63b8ff" points="537.44,-31.22 547.79,-28.95 538.28,-24.27 537.44,-31.22"/>
</a>
</g>
</g>
</g>
</svg>
