<?xml version="1.0" encoding="UTF-8" standalone="no"?>
<!DOCTYPE svg PUBLIC "-//W3C//DTD SVG 1.1//EN"
 "http://www.w3.org/Graphics/SVG/1.1/DTD/svg11.dtd">
<!-- Generated by graphviz version 13.1.1 (20250719.2154)
 -->
<!-- Title: UKPTCheatManager::ShowAllViewportWidget Pages: 1 -->
<svg width="376pt" height="52pt"
 viewBox="0.00 0.00 376.00 52.00" xmlns="http://www.w3.org/2000/svg" xmlns:xlink="http://www.w3.org/1999/xlink">
<g id="graph0" class="graph" transform="scale(1 1) rotate(0) translate(4 48)">
<title>UKPTCheatManager::ShowAllViewportWidget</title>
<!-- Node1 -->
<g id="Node000001" class="node">
<title>Node1</title>
<g id="a_Node000001"><a xlink:title=" ">
<polygon fill="#999999" stroke="#666666" points="368,-32 219.25,-32 219.25,0 368,0 368,-32"/>
<text xml:space="preserve" text-anchor="start" x="227.25" y="-18.5" font-family="Helvetica,sans-Serif" font-size="10.00">UKPTCheatManager::ShowAll</text>
<text xml:space="preserve" text-anchor="middle" x="293.62" y="-6.5" font-family="Helvetica,sans-Serif" font-size="10.00">ViewportWidget</text>
</a>
</g>
</g>
<!-- Node2 -->
<g id="Node000002" class="node">
<title>Node2</title>
<g id="a_Node000002"><a xlink:href="class_u_k_p_t_cheat_manager.html#a2db2b43e9c11f9fcd6676f1571d45e92" target="_top" xlink:title=" ">
<polygon fill="white" stroke="#666666" points="183.25,-26 0,-26 0,-6 183.25,-6 183.25,-26"/>
<text xml:space="preserve" text-anchor="middle" x="91.62" y="-12.5" font-family="Helvetica,sans-Serif" font-size="10.00">UKPTCheatManager::ForceTriggerTag</text>
</a>
</g>
</g>
<!-- Node1&#45;&gt;Node2 -->
<g id="edge1_Node000001_Node000002" class="edge">
<title>Node1&#45;&gt;Node2</title>
<g id="a_edge1_Node000001_Node000002"><a xlink:title=" ">
<path fill="none" stroke="#63b8ff" d="M207.74,-16C199.69,-16 191.51,-16 183.41,-16"/>
<polygon fill="#63b8ff" stroke="#63b8ff" points="207.49,-19.5 217.49,-16 207.49,-12.5 207.49,-19.5"/>
</a>
</g>
</g>
<!-- Node2&#45;&gt;Node2 -->
<g id="edge2_Node000002_Node000002" class="edge">
<title>Node2&#45;&gt;Node2</title>
<g id="a_edge2_Node000002_Node000002"><a xlink:title=" ">
<path fill="none" stroke="#63b8ff" d="M127.7,-37.11C123.4,-41.14 111.38,-44 91.62,-44 56.51,-44 45.81,-34.98 59.53,-26.34"/>
<polygon fill="#63b8ff" stroke="#63b8ff" points="131,-35.92 124.25,-27.76 124.43,-38.35 131,-35.92"/>
</a>
</g>
</g>
</g>
</svg>
