<?xml version="1.0" encoding="UTF-8" standalone="no"?>
<!DOCTYPE svg PUBLIC "-//W3C//DTD SVG 1.1//EN"
 "http://www.w3.org/Graphics/SVG/1.1/DTD/svg11.dtd">
<!-- Generated by graphviz version 13.1.1 (20250719.2154)
 -->
<!-- Title: AProjectileBase::OnDeactivated_Implementation Pages: 1 -->
<svg width="873pt" height="84pt"
 viewBox="0.00 0.00 873.00 84.00" xmlns="http://www.w3.org/2000/svg" xmlns:xlink="http://www.w3.org/1999/xlink">
<g id="graph0" class="graph" transform="scale(1 1) rotate(0) translate(4 80)">
<title>AProjectileBase::OnDeactivated_Implementation</title>
<!-- Node1 -->
<g id="Node000001" class="node">
<title>Node1</title>
<g id="a_Node000001"><a xlink:title=" ">
<polygon fill="#999999" stroke="#666666" points="157,-54 0,-54 0,-22 157,-22 157,-54"/>
<text xml:space="preserve" text-anchor="start" x="8" y="-40.5" font-family="Helvetica,sans-Serif" font-size="10.00">AProjectileBase::OnDeactivated</text>
<text xml:space="preserve" text-anchor="middle" x="78.5" y="-28.5" font-family="Helvetica,sans-Serif" font-size="10.00">_Implementation</text>
</a>
</g>
</g>
<!-- Node2 -->
<g id="Node000002" class="node">
<title>Node2</title>
<g id="a_Node000002"><a xlink:href="class_a_projectile_base.html#a183da78e0cee66595989812aec0ff7c9" target="_top" xlink:title=" ">
<polygon fill="white" stroke="#666666" points="333.5,-54 193,-54 193,-22 333.5,-22 333.5,-54"/>
<text xml:space="preserve" text-anchor="start" x="201" y="-40.5" font-family="Helvetica,sans-Serif" font-size="10.00">AProjectileBase::OnCapsule</text>
<text xml:space="preserve" text-anchor="middle" x="263.25" y="-28.5" font-family="Helvetica,sans-Serif" font-size="10.00">BeginOverlap</text>
</a>
</g>
</g>
<!-- Node1&#45;&gt;Node2 -->
<g id="edge1_Node000001_Node000002" class="edge">
<title>Node1&#45;&gt;Node2</title>
<g id="a_edge1_Node000001_Node000002"><a xlink:title=" ">
<path fill="none" stroke="#63b8ff" d="M157.27,-38C165.26,-38 173.39,-38 181.41,-38"/>
<polygon fill="#63b8ff" stroke="#63b8ff" points="181.14,-41.5 191.14,-38 181.14,-34.5 181.14,-41.5"/>
</a>
</g>
</g>
<!-- Node3 -->
<g id="Node000003" class="node">
<title>Node3</title>
<g id="a_Node000003"><a xlink:href="class_a_projectile_base.html#a643fc0b4a82ec643f5d958ec6a30a060" target="_top" xlink:title=" ">
<polygon fill="white" stroke="#666666" points="522.75,-76 369.5,-76 369.5,-44 522.75,-44 522.75,-76"/>
<text xml:space="preserve" text-anchor="start" x="377.5" y="-62.5" font-family="Helvetica,sans-Serif" font-size="10.00">AProjectileBase::ApplyDamage</text>
<text xml:space="preserve" text-anchor="middle" x="446.12" y="-50.5" font-family="Helvetica,sans-Serif" font-size="10.00">ToTarget</text>
</a>
</g>
</g>
<!-- Node2&#45;&gt;Node3 -->
<g id="edge2_Node000002_Node000003" class="edge">
<title>Node2&#45;&gt;Node3</title>
<g id="a_edge2_Node000002_Node000003"><a xlink:title=" ">
<path fill="none" stroke="#63b8ff" d="M333.92,-46.47C341.77,-47.43 349.84,-48.41 357.87,-49.39"/>
<polygon fill="#63b8ff" stroke="#63b8ff" points="357.33,-52.85 367.67,-50.58 358.17,-45.9 357.33,-52.85"/>
</a>
</g>
</g>
<!-- Node4 -->
<g id="Node000004" class="node">
<title>Node4</title>
<g id="a_Node000004"><a xlink:href="class_a_projectile_base.html#a2276af661735f8971f6af66c6db7633d" target="_top" xlink:title=" ">
<polygon fill="white" stroke="#666666" points="521.62,-26 370.62,-26 370.62,-6 521.62,-6 521.62,-26"/>
<text xml:space="preserve" text-anchor="middle" x="446.12" y="-12.5" font-family="Helvetica,sans-Serif" font-size="10.00">AProjectileBase::ReturnToPool</text>
</a>
</g>
</g>
<!-- Node2&#45;&gt;Node4 -->
<g id="edge3_Node000002_Node000004" class="edge">
<title>Node2&#45;&gt;Node4</title>
<g id="a_edge3_Node000002_Node000004"><a xlink:title=" ">
<path fill="none" stroke="#63b8ff" d="M333.92,-29.53C342.13,-28.53 350.58,-27.5 358.99,-26.48"/>
<polygon fill="#63b8ff" stroke="#63b8ff" points="359.38,-29.96 368.88,-25.27 358.53,-23.01 359.38,-29.96"/>
</a>
</g>
</g>
<!-- Node5 -->
<g id="Node000005" class="node">
<title>Node5</title>
<g id="a_Node000005"><a xlink:href="class_a_projectile_base.html#a56f85c58a5c516ddd3e66fbb115eb20d" target="_top" xlink:title=" ">
<polygon fill="white" stroke="#666666" points="697.75,-32 558.75,-32 558.75,0 697.75,0 697.75,-32"/>
<text xml:space="preserve" text-anchor="start" x="566.75" y="-18.5" font-family="Helvetica,sans-Serif" font-size="10.00">AProjectileBase::Deactivate</text>
<text xml:space="preserve" text-anchor="middle" x="628.25" y="-6.5" font-family="Helvetica,sans-Serif" font-size="10.00">Projectile</text>
</a>
</g>
</g>
<!-- Node4&#45;&gt;Node5 -->
<g id="edge4_Node000004_Node000005" class="edge">
<title>Node4&#45;&gt;Node5</title>
<g id="a_edge4_Node000004_Node000005"><a xlink:title=" ">
<path fill="none" stroke="#63b8ff" d="M521.95,-16C530.26,-16 538.74,-16 547.11,-16"/>
<polygon fill="#63b8ff" stroke="#63b8ff" points="546.91,-19.5 556.91,-16 546.91,-12.5 546.91,-19.5"/>
</a>
</g>
</g>
<!-- Node6 -->
<g id="Node000006" class="node">
<title>Node6</title>
<g id="a_Node000006"><a xlink:href="class_a_projectile_base.html#a76b21edb2d7e6427f03a3be58488ef52" target="_top" xlink:title=" ">
<polygon fill="white" stroke="#666666" points="865.25,-32 733.75,-32 733.75,0 865.25,0 865.25,-32"/>
<text xml:space="preserve" text-anchor="start" x="741.75" y="-18.5" font-family="Helvetica,sans-Serif" font-size="10.00">AProjectileBase::Multicast</text>
<text xml:space="preserve" text-anchor="middle" x="799.5" y="-6.5" font-family="Helvetica,sans-Serif" font-size="10.00">_Deactivate</text>
</a>
</g>
</g>
<!-- Node5&#45;&gt;Node6 -->
<g id="edge5_Node000005_Node000006" class="edge">
<title>Node5&#45;&gt;Node6</title>
<g id="a_edge5_Node000005_Node000006"><a xlink:title=" ">
<path fill="none" stroke="#63b8ff" d="M698.09,-16C705.9,-16 713.89,-16 721.8,-16"/>
<polygon fill="#63b8ff" stroke="#63b8ff" points="721.76,-19.5 731.76,-16 721.76,-12.5 721.76,-19.5"/>
</a>
</g>
</g>
<!-- Node6&#45;&gt;Node6 -->
<g id="edge6_Node000006_Node000006" class="edge">
<title>Node6&#45;&gt;Node6</title>
<g id="a_edge6_Node000006_Node000006"><a xlink:title=" ">
<path fill="none" stroke="#63b8ff" d="M768.93,-32.44C763.22,-41.58 773.41,-50 799.5,-50 813.77,-50 823.28,-47.48 828.04,-43.71"/>
<polygon fill="#63b8ff" stroke="#63b8ff" points="831.47,-44.4 829.8,-33.93 824.58,-43.15 831.47,-44.4"/>
</a>
</g>
</g>
</g>
</svg>
