<?xml version="1.0" encoding="UTF-8" standalone="no"?>
<!DOCTYPE svg PUBLIC "-//W3C//DTD SVG 1.1//EN"
 "http://www.w3.org/Graphics/SVG/1.1/DTD/svg11.dtd">
<!-- Generated by graphviz version 13.1.1 (20250719.2154)
 -->
<!-- Title: UBaseSkillAbility::SpawnAndInitializeProjectile Pages: 1 -->
<svg width="447pt" height="71pt"
 viewBox="0.00 0.00 447.00 71.00" xmlns="http://www.w3.org/2000/svg" xmlns:xlink="http://www.w3.org/1999/xlink">
<g id="graph0" class="graph" transform="scale(1 1) rotate(0) translate(4 67)">
<title>UBaseSkillAbility::SpawnAndInitializeProjectile</title>
<!-- Node1 -->
<g id="Node000001" class="node">
<title>Node1</title>
<g id="a_Node000001"><a xlink:title=" ">
<polygon fill="#999999" stroke="#666666" points="438.75,-63 299,-63 299,-31 438.75,-31 438.75,-63"/>
<text xml:space="preserve" text-anchor="start" x="307" y="-49.5" font-family="Helvetica,sans-Serif" font-size="10.00">UBaseSkillAbility::</text>
<text xml:space="preserve" text-anchor="middle" x="368.88" y="-37.5" font-family="Helvetica,sans-Serif" font-size="10.00">SpawnAndInitializeProjectile</text>
</a>
</g>
</g>
<!-- Node2 -->
<g id="Node000002" class="node">
<title>Node2</title>
<g id="a_Node000002"><a xlink:href="class_u_orbit_skill_ability.html#a30cfb801f01a4750000faaa655b36ae8" target="_top" xlink:title=" ">
<polygon fill="white" stroke="#666666" points="90.25,-63 0,-63 0,-31 90.25,-31 90.25,-63"/>
<text xml:space="preserve" text-anchor="start" x="8" y="-49.5" font-family="Helvetica,sans-Serif" font-size="10.00">UOrbitSkillAbility</text>
<text xml:space="preserve" text-anchor="middle" x="45.12" y="-37.5" font-family="Helvetica,sans-Serif" font-size="10.00">::ActivateAbility</text>
</a>
</g>
</g>
<!-- Node1&#45;&gt;Node2 -->
<g id="edge1_Node000001_Node000002" class="edge">
<title>Node1&#45;&gt;Node2</title>
<g id="a_edge1_Node000001_Node000002"><a xlink:title=" ">
<path fill="none" stroke="#63b8ff" d="M287.4,-57.15C279.17,-57.91 270.92,-58.55 263,-59 202.32,-62.46 186.86,-63.51 126.25,-59 114.61,-58.13 102.09,-56.57 90.49,-54.85"/>
<polygon fill="#63b8ff" stroke="#63b8ff" points="287.46,-60.66 297.08,-56.2 286.78,-53.69 287.46,-60.66"/>
</a>
</g>
</g>
<!-- Node3 -->
<g id="Node000003" class="node">
<title>Node3</title>
<g id="a_Node000003"><a xlink:href="class_u_base_skill_ability.html#ade62b76d04ebd1cfb7fd24381996b226" target="_top" xlink:title=" ">
<polygon fill="white" stroke="#666666" points="263,-32 126.25,-32 126.25,0 263,0 263,-32"/>
<text xml:space="preserve" text-anchor="start" x="134.25" y="-18.5" font-family="Helvetica,sans-Serif" font-size="10.00">UBaseSkillAbility::</text>
<text xml:space="preserve" text-anchor="middle" x="194.62" y="-6.5" font-family="Helvetica,sans-Serif" font-size="10.00">CalculateSpawnTransforms</text>
</a>
</g>
</g>
<!-- Node1&#45;&gt;Node3 -->
<g id="edge2_Node000001_Node000003" class="edge">
<title>Node1&#45;&gt;Node3</title>
<g id="a_edge2_Node000001_Node000003"><a xlink:title=" ">
<path fill="none" stroke="#63b8ff" d="M287.74,-32.58C279.57,-31.11 271.33,-29.62 263.31,-28.18"/>
<polygon fill="#63b8ff" stroke="#63b8ff" points="286.86,-35.97 297.32,-34.3 288.1,-29.09 286.86,-35.97"/>
</a>
</g>
</g>
<!-- Node3&#45;&gt;Node2 -->
<g id="edge3_Node000003_Node000002" class="edge">
<title>Node3&#45;&gt;Node2</title>
<g id="a_edge3_Node000003_Node000002"><a xlink:title=" ">
<path fill="none" stroke="#63b8ff" d="M114.68,-32.59C106.44,-34.32 98.3,-36.03 90.65,-37.64"/>
<polygon fill="#63b8ff" stroke="#63b8ff" points="115.37,-36.02 124.44,-30.54 113.93,-29.17 115.37,-36.02"/>
</a>
</g>
</g>
<!-- Node3&#45;&gt;Node3 -->
<g id="edge4_Node000003_Node000003" class="edge">
<title>Node3&#45;&gt;Node3</title>
<g id="a_edge4_Node000003_Node000003"><a xlink:title=" ">
<path fill="none" stroke="#63b8ff" d="M219.54,-43.71C215.38,-47.48 207.08,-50 194.62,-50 171.85,-50 162.95,-41.58 167.94,-32.44"/>
<polygon fill="#63b8ff" stroke="#63b8ff" points="222.98,-44.36 221.08,-33.94 216.06,-43.27 222.98,-44.36"/>
</a>
</g>
</g>
</g>
</svg>
