<?xml version="1.0" encoding="UTF-8" standalone="no"?>
<!DOCTYPE svg PUBLIC "-//W3C//DTD SVG 1.1//EN"
 "http://www.w3.org/Graphics/SVG/1.1/DTD/svg11.dtd">
<!-- Generated by graphviz version 13.1.1 (20250719.2154)
 -->
<!-- Title: UGameplayAbility_TraceBase::ExecuteTrace Pages: 1 -->
<!--zoomable 158 -->

<svg id="main" version="1.1" xmlns="http://www.w3.org/2000/svg" xmlns:xlink="http://www.w3.org/1999/xlink" xml:space="preserve" onload="init(evt)">

<style type="text/css"><![CDATA[
.node, .edge {opacity: 0.7;}
.node.selected, .edge.selected {opacity: 1;}
.edge:hover path { stroke: red; }
.edge:hover polygon { stroke: red; fill: red; }
]]></style>

<defs>
  <circle id="rim" cx="0" cy="0" r="7"/>
  <circle id="rim2" cx="0" cy="0" r="3.5"/>
  <g id="zoomPlus">
    <use xlink:href="#rim" fill="#404040"><set attributeName="fill" to="#808080" begin="zoomplus.mouseover" end="zoomplus.mouseout"/></use>
    <path d="M-4,0h8M0,-4v8" fill="none" stroke="white" stroke-width="1.5" pointer-events="none"/>
  </g>
  <g id="zoomMin">
    <use xlink:href="#rim" fill="#404040"><set attributeName="fill" to="#808080" begin="zoomminus.mouseover" end="zoomminus.mouseout"/></use>
    <path d="M-4,0h8" fill="none" stroke="white" stroke-width="1.5" pointer-events="none"/>
  </g>
  <g id="arrowUp" transform="translate(30 24)">
    <use xlink:href="#rim"/>
    <path pointer-events="none" fill="none" stroke="white" stroke-width="1.5" d="M0,-3.0v7 M-2.5,-0.5L0,-3.0L2.5,-0.5"/>
  </g>
  <g id="arrowRight" transform="rotate(90) translate(36 -43)">
    <use xlink:href="#rim"/>
    <path pointer-events="none" fill="none" stroke="white" stroke-width="1.5" d="M0,-3.0v7 M-2.5,-0.5L0,-3.0L2.5,-0.5"/>
  </g>
  <g id="arrowDown" transform="rotate(180) translate(-30 -48)">
    <use xlink:href="#rim"/>
    <path pointer-events="none" fill="none" stroke="white" stroke-width="1.5" d="M0,-3.0v7 M-2.5,-0.5L0,-3.0L2.5,-0.5"/>
  </g>
  <g id="arrowLeft" transform="rotate(270) translate(-36 17)">
    <use xlink:href="#rim"/>
    <path pointer-events="none" fill="none" stroke="white" stroke-width="1.5" d="M0,-3.0v7 M-2.5,-0.5L0,-3.0L2.5,-0.5"/>
  </g>
  <g id="resetDef">
    <use xlink:href="#rim2" fill="#404040"><set attributeName="fill" to="#808080" begin="reset.mouseover" end="reset.mouseout"/></use>
  </g>
</defs>
<script type="application/ecmascript">
var viewWidth = 705;
var viewHeight = 158;
var sectionId = 'dynsection-6';
</script>
<script type="application/ecmascript" xlink:href="svg.min.js"/>
<svg id="graph" class="graph">
<g id="viewport">
<title>UGameplayAbility_TraceBase::ExecuteTrace</title>
<!-- Node1 -->
<g id="Node000001" class="node">
<title>Node1</title>
<g id="a_Node000001"><a xlink:title=" ">
<polygon fill="#999999" stroke="#666666" points="147.25,-82 0,-82 0,-50 147.25,-50 147.25,-82"/>
<text xml:space="preserve" text-anchor="start" x="8" y="-68.5" font-family="Helvetica,sans-Serif" font-size="10.00">UGameplayAbility_TraceBase</text>
<text xml:space="preserve" text-anchor="middle" x="73.62" y="-56.5" font-family="Helvetica,sans-Serif" font-size="10.00">::ExecuteTrace</text>
</a>
</g>
</g>
<!-- Node2 -->
<g id="Node000002" class="node">
<title>Node2</title>
<g id="a_Node000002"><a xlink:href="class_u_gameplay_ability___trace_base.html#a6b22bc5fc3e92d81ce0a96824287e23c" target="_top" xlink:title=" ">
<polygon fill="white" stroke="#666666" points="330.5,-132 183.25,-132 183.25,-100 330.5,-100 330.5,-132"/>
<text xml:space="preserve" text-anchor="start" x="191.25" y="-118.5" font-family="Helvetica,sans-Serif" font-size="10.00">UGameplayAbility_TraceBase</text>
<text xml:space="preserve" text-anchor="middle" x="256.88" y="-106.5" font-family="Helvetica,sans-Serif" font-size="10.00">::CalculateTracePoints</text>
</a>
</g>
</g>
<!-- Node1&#45;&gt;Node2 -->
<g id="edge1_Node000001_Node000002" class="edge">
<title>Node1&#45;&gt;Node2</title>
<g id="a_edge1_Node000001_Node000002"><a xlink:title=" ">
<path fill="none" stroke="#63b8ff" d="M134.22,-82.44C150.56,-86.95 168.42,-91.88 185.31,-96.53"/>
<polygon fill="#63b8ff" stroke="#63b8ff" points="184.21,-99.86 194.78,-99.15 186.07,-93.11 184.21,-99.86"/>
</a>
</g>
</g>
<!-- Node3 -->
<g id="Node000003" class="node">
<title>Node3</title>
<g id="a_Node000003"><a xlink:href="class_u_gameplay_ability___trace_base.html#af45bd75cfce61a7c8368270e14ba2da2" target="_top" xlink:title=" ">
<polygon fill="white" stroke="#666666" points="330.5,-82 183.25,-82 183.25,-50 330.5,-50 330.5,-82"/>
<text xml:space="preserve" text-anchor="start" x="191.25" y="-68.5" font-family="Helvetica,sans-Serif" font-size="10.00">UGameplayAbility_TraceBase</text>
<text xml:space="preserve" text-anchor="middle" x="256.88" y="-56.5" font-family="Helvetica,sans-Serif" font-size="10.00">::HandleTraceResult</text>
</a>
</g>
</g>
<!-- Node1&#45;&gt;Node3 -->
<g id="edge3_Node000001_Node000003" class="edge">
<title>Node1&#45;&gt;Node3</title>
<g id="a_edge3_Node000001_Node000003"><a xlink:title=" ">
<path fill="none" stroke="#63b8ff" d="M147.56,-66C155.45,-66 163.53,-66 171.54,-66"/>
<polygon fill="#63b8ff" stroke="#63b8ff" points="171.28,-69.5 181.28,-66 171.28,-62.5 171.28,-69.5"/>
</a>
</g>
</g>
<!-- Node8 -->
<g id="Node000008" class="node">
<title>Node8</title>
<g id="a_Node000008"><a xlink:href="class_u_ability_task___trace.html#aa06c0d6db644bb80df707ec0eb27c221" target="_top" xlink:title=" ">
<polygon fill="white" stroke="#666666" points="307.62,-32 206.12,-32 206.12,0 307.62,0 307.62,-32"/>
<text xml:space="preserve" text-anchor="start" x="214.12" y="-18.5" font-family="Helvetica,sans-Serif" font-size="10.00">UAbilityTask_Trace</text>
<text xml:space="preserve" text-anchor="middle" x="256.88" y="-6.5" font-family="Helvetica,sans-Serif" font-size="10.00">::TraceTask</text>
</a>
</g>
</g>
<!-- Node1&#45;&gt;Node8 -->
<g id="edge11_Node000001_Node000008" class="edge">
<title>Node1&#45;&gt;Node8</title>
<g id="a_edge11_Node000001_Node000008"><a xlink:title=" ">
<path fill="none" stroke="#63b8ff" d="M134.22,-49.56C153.63,-44.2 175.2,-38.25 194.73,-32.87"/>
<polygon fill="#63b8ff" stroke="#63b8ff" points="195.47,-36.29 204.18,-30.26 193.61,-29.55 195.47,-36.29"/>
</a>
</g>
</g>
<!-- Node2&#45;&gt;Node2 -->
<g id="edge2_Node000002_Node000002" class="edge">
<title>Node2&#45;&gt;Node2</title>
<g id="a_edge2_Node000002_Node000002"><a xlink:title=" ">
<path fill="none" stroke="#63b8ff" d="M224.16,-132.44C218.05,-141.58 228.96,-150 256.88,-150 272.14,-150 282.32,-147.48 287.41,-143.71"/>
<polygon fill="#63b8ff" stroke="#63b8ff" points="290.84,-144.41 289.3,-133.93 283.97,-143.08 290.84,-144.41"/>
</a>
</g>
</g>
<!-- Node4 -->
<g id="Node000004" class="node">
<title>Node4</title>
<g id="a_Node000004"><a xlink:href="class_u_gameplay_ability___trace_base.html#a9228e5548e9603d5db0a4851528699b9" target="_top" xlink:title=" ">
<polygon fill="white" stroke="#666666" points="513.75,-150 366.5,-150 366.5,-118 513.75,-118 513.75,-150"/>
<text xml:space="preserve" text-anchor="start" x="374.5" y="-136.5" font-family="Helvetica,sans-Serif" font-size="10.00">UGameplayAbility_TraceBase</text>
<text xml:space="preserve" text-anchor="middle" x="440.12" y="-124.5" font-family="Helvetica,sans-Serif" font-size="10.00">::OnTraceHit</text>
</a>
</g>
</g>
<!-- Node3&#45;&gt;Node4 -->
<g id="edge4_Node000003_Node000004" class="edge">
<title>Node3&#45;&gt;Node4</title>
<g id="a_edge4_Node000003_Node000004"><a xlink:title=" ">
<path fill="none" stroke="#63b8ff" d="M308.6,-82.5C316,-85.19 323.49,-88.06 330.5,-91 346.99,-97.93 350.01,-102.07 366.5,-109 370.11,-110.52 373.85,-112.02 377.65,-113.48"/>
<polygon fill="#63b8ff" stroke="#63b8ff" points="376.39,-116.75 386.98,-116.97 378.84,-110.19 376.39,-116.75"/>
</a>
</g>
</g>
<!-- Node6 -->
<g id="Node000006" class="node">
<title>Node6</title>
<g id="a_Node000006"><a xlink:href="class_u_gameplay_ability___trace_base.html#aab02c5cd24012484672817a3959eae8b" target="_top" xlink:title=" ">
<polygon fill="white" stroke="#666666" points="513.75,-82 366.5,-82 366.5,-50 513.75,-50 513.75,-82"/>
<text xml:space="preserve" text-anchor="start" x="374.5" y="-68.5" font-family="Helvetica,sans-Serif" font-size="10.00">UGameplayAbility_TraceBase</text>
<text xml:space="preserve" text-anchor="middle" x="440.12" y="-56.5" font-family="Helvetica,sans-Serif" font-size="10.00">::OnTraceHitBP</text>
</a>
</g>
</g>
<!-- Node3&#45;&gt;Node6 -->
<g id="edge6_Node000003_Node000006" class="edge">
<title>Node3&#45;&gt;Node6</title>
<g id="a_edge6_Node000003_Node000006"><a xlink:title=" ">
<path fill="none" stroke="#63b8ff" d="M330.81,-59.37C338.7,-59.26 346.78,-59.23 354.79,-59.26"/>
<polygon fill="#63b8ff" stroke="#63b8ff" points="354.5,-62.76 364.53,-59.35 354.56,-55.76 354.5,-62.76"/>
</a>
</g>
</g>
<!-- Node5 -->
<g id="Node000005" class="node">
<title>Node5</title>
<g id="a_Node000005"><a xlink:href="class_u_gameplay_ability___trace_base.html#a6ab220e0256558c7742e77bf52ef7329" target="_top" xlink:title=" ">
<polygon fill="white" stroke="#666666" points="697,-141 549.75,-141 549.75,-109 697,-109 697,-141"/>
<text xml:space="preserve" text-anchor="start" x="557.75" y="-127.5" font-family="Helvetica,sans-Serif" font-size="10.00">UGameplayAbility_TraceBase</text>
<text xml:space="preserve" text-anchor="middle" x="623.38" y="-115.5" font-family="Helvetica,sans-Serif" font-size="10.00">::ApplyEffectToTarget</text>
</a>
</g>
</g>
<!-- Node4&#45;&gt;Node5 -->
<g id="edge5_Node000004_Node000005" class="edge">
<title>Node4&#45;&gt;Node5</title>
<g id="a_edge5_Node000004_Node000005"><a xlink:title=" ">
<path fill="none" stroke="#63b8ff" d="M514.06,-130.38C521.95,-129.99 530.03,-129.59 538.04,-129.19"/>
<polygon fill="#63b8ff" stroke="#63b8ff" points="537.97,-132.7 547.78,-128.7 537.62,-125.7 537.97,-132.7"/>
</a>
</g>
</g>
<!-- Node6&#45;&gt;Node3 -->
<g id="edge9_Node000006_Node000003" class="edge">
<title>Node6&#45;&gt;Node3</title>
<g id="a_edge9_Node000006_Node000003"><a xlink:title=" ">
<path fill="none" stroke="#63b8ff" d="M366.04,-72.64C358.15,-72.74 350.07,-72.77 342.06,-72.73"/>
<polygon fill="#63b8ff" stroke="#63b8ff" points="342.36,-69.24 332.33,-72.65 342.29,-76.24 342.36,-69.24"/>
</a>
</g>
</g>
<!-- Node6&#45;&gt;Node5 -->
<g id="edge8_Node000006_Node000005" class="edge">
<title>Node6&#45;&gt;Node5</title>
<g id="a_edge8_Node000006_Node000005"><a xlink:title=" ">
<path fill="none" stroke="#63b8ff" d="M491.61,-82.43C513.13,-89.44 538.42,-97.67 561,-105.02"/>
<polygon fill="#63b8ff" stroke="#63b8ff" points="559.81,-108.32 570.4,-108.08 561.98,-101.66 559.81,-108.32"/>
</a>
</g>
</g>
<!-- Node6&#45;&gt;Node6 -->
<g id="edge10_Node000006_Node000006" class="edge">
<title>Node6&#45;&gt;Node6</title>
<g id="a_edge10_Node000006_Node000006"><a xlink:title=" ">
<path fill="none" stroke="#63b8ff" d="M407.41,-82.44C401.3,-91.58 412.21,-100 440.12,-100 455.39,-100 465.57,-97.48 470.66,-93.71"/>
<polygon fill="#63b8ff" stroke="#63b8ff" points="474.09,-94.41 472.55,-83.93 467.22,-93.08 474.09,-94.41"/>
</a>
</g>
</g>
<!-- Node7 -->
<g id="Node000007" class="node">
<title>Node7</title>
<g id="a_Node000007"><a xlink:href="class_u_gameplay_ability___trace_base.html#a8cbf0758a9b7e43db6f8ece876f468da" target="_top" xlink:title=" ">
<polygon fill="white" stroke="#666666" points="697,-82 549.75,-82 549.75,-50 697,-50 697,-82"/>
<text xml:space="preserve" text-anchor="start" x="557.75" y="-68.5" font-family="Helvetica,sans-Serif" font-size="10.00">UGameplayAbility_TraceBase</text>
<text xml:space="preserve" text-anchor="middle" x="623.38" y="-56.5" font-family="Helvetica,sans-Serif" font-size="10.00">::ActivateAbility</text>
</a>
</g>
</g>
<!-- Node6&#45;&gt;Node7 -->
<g id="edge7_Node000006_Node000007" class="edge">
<title>Node6&#45;&gt;Node7</title>
<g id="a_edge7_Node000006_Node000007"><a xlink:title=" ">
<path fill="none" stroke="#63b8ff" d="M514.06,-66C521.95,-66 530.03,-66 538.04,-66"/>
<polygon fill="#63b8ff" stroke="#63b8ff" points="537.78,-69.5 547.78,-66 537.78,-62.5 537.78,-69.5"/>
</a>
</g>
</g>
</g>
</svg>

<g id="navigator" transform="translate(0 0)" fill="#404254">
  <rect fill="#f2f5e9" fill-opacity="0.5" stroke="#606060" stroke-width=".5" x="0" y="0" width="60" height="60"/>
  <use id="zoomplus" xlink:href="#zoomPlus" x="17" y="9" onmousedown="handleZoom(evt,'in')"/>
  <use id="zoomminus" xlink:href="#zoomMin" x="42" y="9" onmousedown="handleZoom(evt,'out')"/>
  <use id="reset" xlink:href="#resetDef" x="30" y="36" onmousedown="handleReset()"/>
   <use id="arrowup" xlink:href="#arrowUp" x="0" y="0" onmousedown="handlePan(0,-1)"/>
  <use id="arrowright" xlink:href="#arrowRight" x="0" y="0" onmousedown="handlePan(1,0)"/>
  <use id="arrowdown" xlink:href="#arrowDown" x="0" y="0" onmousedown="handlePan(0,1)"/>
  <use id="arrowleft" xlink:href="#arrowLeft" x="0" y="0" onmousedown="handlePan(-1,0)"/>
</g>
<svg viewBox="0 0 15 15" width="100%" height="30px" preserveAspectRatio="xMaxYMin meet">
 <g id="arrow_out" transform="scale(0.3 0.3)">
  <a xlink:href="class_u_gameplay_ability___trace_base_a5166fe938f5e822a37e7526d8b95d271_cgraph_org.svg" target="_base">
   <rect id="button" ry="5" rx="5" y="6" x="6" height="38" width="38"
        fill="#f2f5e9" fill-opacity="0.5" stroke="#606060" stroke-width="1.0"/>
   <path id="arrow"
     d="M 11.500037,31.436501 C 11.940474,20.09759 22.043105,11.32322 32.158766,21.979434 L 37.068811,17.246167 C 37.068811,17.246167 37.088388,32 37.088388,32 L 22.160133,31.978069 C 22.160133,31.978069 26.997745,27.140456 26.997745,27.140456 C 18.528582,18.264221 13.291696,25.230495 11.500037,31.436501 z"
     style="fill:#404040;"/>
  </a>
 </g>
</svg>

<style type='text/css'>
<![CDATA[
[data-mouse-over-selected='false'] { opacity: 0.7; }
[data-mouse-over-selected='true']  { opacity: 1.0; }
]]>
</style>
<script type="application/ecmascript"><![CDATA[
document.addEventListener('DOMContentLoaded', (event) => {
  highlightEdges();
  highlightAdjacentNodes();
});
]]></script>
</svg>
