<?xml version="1.0" encoding="UTF-8" standalone="no"?>
<!DOCTYPE svg PUBLIC "-//W3C//DTD SVG 1.1//EN"
 "http://www.w3.org/Graphics/SVG/1.1/DTD/svg11.dtd">
<!-- Generated by graphviz version 13.1.1 (20250719.2154)
 -->
<!-- Title: UBaseLaserAttackAbility::SpawnAndStartLasers Pages: 1 -->
<!--zoomable 173 -->

<svg id="main" version="1.1" xmlns="http://www.w3.org/2000/svg" xmlns:xlink="http://www.w3.org/1999/xlink" xml:space="preserve" onload="init(evt)">

<style type="text/css"><![CDATA[
.node, .edge {opacity: 0.7;}
.node.selected, .edge.selected {opacity: 1;}
.edge:hover path { stroke: red; }
.edge:hover polygon { stroke: red; fill: red; }
]]></style>

<defs>
  <circle id="rim" cx="0" cy="0" r="7"/>
  <circle id="rim2" cx="0" cy="0" r="3.5"/>
  <g id="zoomPlus">
    <use xlink:href="#rim" fill="#404040"><set attributeName="fill" to="#808080" begin="zoomplus.mouseover" end="zoomplus.mouseout"/></use>
    <path d="M-4,0h8M0,-4v8" fill="none" stroke="white" stroke-width="1.5" pointer-events="none"/>
  </g>
  <g id="zoomMin">
    <use xlink:href="#rim" fill="#404040"><set attributeName="fill" to="#808080" begin="zoomminus.mouseover" end="zoomminus.mouseout"/></use>
    <path d="M-4,0h8" fill="none" stroke="white" stroke-width="1.5" pointer-events="none"/>
  </g>
  <g id="arrowUp" transform="translate(30 24)">
    <use xlink:href="#rim"/>
    <path pointer-events="none" fill="none" stroke="white" stroke-width="1.5" d="M0,-3.0v7 M-2.5,-0.5L0,-3.0L2.5,-0.5"/>
  </g>
  <g id="arrowRight" transform="rotate(90) translate(36 -43)">
    <use xlink:href="#rim"/>
    <path pointer-events="none" fill="none" stroke="white" stroke-width="1.5" d="M0,-3.0v7 M-2.5,-0.5L0,-3.0L2.5,-0.5"/>
  </g>
  <g id="arrowDown" transform="rotate(180) translate(-30 -48)">
    <use xlink:href="#rim"/>
    <path pointer-events="none" fill="none" stroke="white" stroke-width="1.5" d="M0,-3.0v7 M-2.5,-0.5L0,-3.0L2.5,-0.5"/>
  </g>
  <g id="arrowLeft" transform="rotate(270) translate(-36 17)">
    <use xlink:href="#rim"/>
    <path pointer-events="none" fill="none" stroke="white" stroke-width="1.5" d="M0,-3.0v7 M-2.5,-0.5L0,-3.0L2.5,-0.5"/>
  </g>
  <g id="resetDef">
    <use xlink:href="#rim2" fill="#404040"><set attributeName="fill" to="#808080" begin="reset.mouseover" end="reset.mouseout"/></use>
  </g>
</defs>
<script type="application/ecmascript">
var viewWidth = 514;
var viewHeight = 173;
var sectionId = 'dynsection-13';
</script>
<script type="application/ecmascript" xlink:href="svg.min.js"/>
<svg id="graph" class="graph">
<g id="viewport">
<title>UBaseLaserAttackAbility::SpawnAndStartLasers</title>
<!-- Node1 -->
<g id="Node000001" class="node">
<title>Node1</title>
<g id="a_Node000001"><a xlink:title="Spawns the laser beams and starts their rotation and damage ticks.">
<polygon fill="#999999" stroke="#666666" points="125.5,-105 0,-105 0,-73 125.5,-73 125.5,-105"/>
<text xml:space="preserve" text-anchor="start" x="8" y="-91.5" font-family="Helvetica,sans-Serif" font-size="10.00">UBaseLaserAttackAbility</text>
<text xml:space="preserve" text-anchor="middle" x="62.75" y="-79.5" font-family="Helvetica,sans-Serif" font-size="10.00">::SpawnAndStartLasers</text>
</a>
</g>
</g>
<!-- Node2 -->
<g id="Node000002" class="node">
<title>Node2</title>
<g id="a_Node000002"><a xlink:href="class_a_laser_beam.html#afe56308672c73f22ea50ced018ca6f5d" target="_top" xlink:title=" ">
<polygon fill="white" stroke="#666666" points="300.88,-165 162.62,-165 162.62,-145 300.88,-145 300.88,-165"/>
<text xml:space="preserve" text-anchor="middle" x="231.75" y="-151.5" font-family="Helvetica,sans-Serif" font-size="10.00">ALaserBeam::ActivateLaser</text>
</a>
</g>
</g>
<!-- Node1&#45;&gt;Node2 -->
<g id="edge1_Node000001_Node000002" class="edge">
<title>Node1&#45;&gt;Node2</title>
<g id="a_edge1_Node000001_Node000002"><a xlink:title=" ">
<path fill="none" stroke="#63b8ff" d="M94.38,-105.49C113.34,-115.25 138.4,-127.36 161.5,-136 166.49,-137.87 171.75,-139.64 177.04,-141.3"/>
<polygon fill="#63b8ff" stroke="#63b8ff" points="175.85,-144.6 186.43,-144.1 177.85,-137.89 175.85,-144.6"/>
</a>
</g>
</g>
<!-- Node3 -->
<g id="Node000003" class="node">
<title>Node3</title>
<g id="a_Node000003"><a xlink:href="class_u_base_laser_attack_ability.html#a872ab3f13348f056b6148f62cf3fffc7" target="_top" xlink:title=" ">
<polygon fill="white" stroke="#666666" points="294.5,-127 169,-127 169,-95 294.5,-95 294.5,-127"/>
<text xml:space="preserve" text-anchor="start" x="177" y="-113.5" font-family="Helvetica,sans-Serif" font-size="10.00">UBaseLaserAttackAbility</text>
<text xml:space="preserve" text-anchor="middle" x="231.75" y="-101.5" font-family="Helvetica,sans-Serif" font-size="10.00">::EndAbility</text>
</a>
</g>
</g>
<!-- Node1&#45;&gt;Node3 -->
<g id="edge2_Node000001_Node000003" class="edge">
<title>Node1&#45;&gt;Node3</title>
<g id="a_edge2_Node000001_Node000003"><a xlink:title=" ">
<path fill="none" stroke="#63b8ff" d="M125.93,-97.19C136.15,-98.54 146.82,-99.94 157.28,-101.32"/>
<polygon fill="#63b8ff" stroke="#63b8ff" points="156.64,-104.77 167.01,-102.6 157.56,-97.83 156.64,-104.77"/>
</a>
</g>
</g>
<!-- Node4 -->
<g id="Node000004" class="node">
<title>Node4</title>
<g id="a_Node000004"><a xlink:href="class_u_base_laser_attack_ability.html#a1f265f5b299f3057b632ab3d32970ea6" target="_top" xlink:title="Cleans up all spawned lasers and stops timers.">
<polygon fill="white" stroke="#666666" points="484.5,-127 359,-127 359,-95 484.5,-95 484.5,-127"/>
<text xml:space="preserve" text-anchor="start" x="367" y="-113.5" font-family="Helvetica,sans-Serif" font-size="10.00">UBaseLaserAttackAbility</text>
<text xml:space="preserve" text-anchor="middle" x="421.75" y="-101.5" font-family="Helvetica,sans-Serif" font-size="10.00">::FinishLaserAttack</text>
</a>
</g>
</g>
<!-- Node1&#45;&gt;Node4 -->
<g id="edge5_Node000001_Node000004" class="edge">
<title>Node1&#45;&gt;Node4</title>
<g id="a_edge5_Node000001_Node000004"><a xlink:title=" ">
<path fill="none" stroke="#63b8ff" d="M125.8,-86.81C137.65,-86.47 149.96,-86.18 161.5,-86 223.94,-85.04 239.89,-79.53 302,-86 316.78,-87.54 332.43,-90.13 347.34,-93.07"/>
<polygon fill="#63b8ff" stroke="#63b8ff" points="346.6,-96.49 357.1,-95.07 348.01,-89.63 346.6,-96.49"/>
</a>
</g>
</g>
<!-- Node5 -->
<g id="Node000005" class="node">
<title>Node5</title>
<g id="a_Node000005"><a xlink:href="class_a_laser_beam.html#a11ecd803838b440840e791e3e9ecddab" target="_top" xlink:title=" ">
<polygon fill="white" stroke="#666666" points="302,-39 161.5,-39 161.5,-19 302,-19 302,-39"/>
<text xml:space="preserve" text-anchor="middle" x="231.75" y="-25.5" font-family="Helvetica,sans-Serif" font-size="10.00">ALaserBeam::InitiallizeLaser</text>
</a>
</g>
</g>
<!-- Node1&#45;&gt;Node5 -->
<g id="edge6_Node000001_Node000005" class="edge">
<title>Node1&#45;&gt;Node5</title>
<g id="a_edge6_Node000001_Node000005"><a xlink:title=" ">
<path fill="none" stroke="#63b8ff" d="M107.97,-72.51C124.71,-66.32 143.96,-59.27 161.5,-53 170.63,-49.74 180.46,-46.29 189.76,-43.06"/>
<polygon fill="#63b8ff" stroke="#63b8ff" points="190.63,-46.46 198.94,-39.88 188.34,-39.85 190.63,-46.46"/>
</a>
</g>
</g>
<!-- Node3&#45;&gt;Node4 -->
<g id="edge3_Node000003_Node000004" class="edge">
<title>Node3&#45;&gt;Node4</title>
<g id="a_edge3_Node000003_Node000004"><a xlink:title=" ">
<path fill="none" stroke="#63b8ff" d="M294.83,-104.61C311.67,-104.22 330.07,-104.15 347.47,-104.4"/>
<polygon fill="#63b8ff" stroke="#63b8ff" points="347.16,-107.89 357.22,-104.58 347.29,-100.89 347.16,-107.89"/>
</a>
</g>
</g>
<!-- Node4&#45;&gt;Node3 -->
<g id="edge4_Node000004_Node000003" class="edge">
<title>Node4&#45;&gt;Node3</title>
<g id="a_edge4_Node000004_Node000003"><a xlink:title=" ">
<path fill="none" stroke="#63b8ff" d="M358.74,-117.39C341.89,-117.78 323.5,-117.85 306.1,-117.6"/>
<polygon fill="#63b8ff" stroke="#63b8ff" points="306.41,-114.11 296.34,-117.42 306.28,-121.11 306.41,-114.11"/>
</a>
</g>
</g>
<!-- Node6 -->
<g id="Node000006" class="node">
<title>Node6</title>
<g id="a_Node000006"><a xlink:href="class_a_laser_beam.html#ad8bdeaad72d677a90b75a369bb62320e" target="_top" xlink:title=" ">
<polygon fill="white" stroke="#666666" points="505.5,-58 338,-58 338,-38 505.5,-38 505.5,-58"/>
<text xml:space="preserve" text-anchor="middle" x="421.75" y="-44.5" font-family="Helvetica,sans-Serif" font-size="10.00">ALaserBeam::OnRep_LaserLength</text>
</a>
</g>
</g>
<!-- Node5&#45;&gt;Node6 -->
<g id="edge7_Node000005_Node000006" class="edge">
<title>Node5&#45;&gt;Node6</title>
<g id="a_edge7_Node000005_Node000006"><a xlink:title=" ">
<path fill="none" stroke="#63b8ff" d="M302.49,-36.05C310.3,-36.84 318.35,-37.65 326.41,-38.47"/>
<polygon fill="#63b8ff" stroke="#63b8ff" points="325.97,-41.94 336.27,-39.46 326.67,-34.97 325.97,-41.94"/>
</a>
</g>
</g>
<!-- Node7 -->
<g id="Node000007" class="node">
<title>Node7</title>
<g id="a_Node000007"><a xlink:href="class_a_laser_beam.html#a111ed739e94f25374d405dc8fc83edf9" target="_top" xlink:title=" ">
<polygon fill="white" stroke="#666666" points="503.62,-20 339.88,-20 339.88,0 503.62,0 503.62,-20"/>
<text xml:space="preserve" text-anchor="middle" x="421.75" y="-6.5" font-family="Helvetica,sans-Serif" font-size="10.00">ALaserBeam::OnRep_LaserWidth</text>
</a>
</g>
</g>
<!-- Node5&#45;&gt;Node7 -->
<g id="edge8_Node000005_Node000007" class="edge">
<title>Node5&#45;&gt;Node7</title>
<g id="a_edge8_Node000005_Node000007"><a xlink:title=" ">
<path fill="none" stroke="#63b8ff" d="M302.49,-21.95C310.84,-21.11 319.47,-20.24 328.09,-19.36"/>
<polygon fill="#63b8ff" stroke="#63b8ff" points="328.28,-22.86 337.88,-18.38 327.57,-15.9 328.28,-22.86"/>
</a>
</g>
</g>
</g>
</svg>

<g id="navigator" transform="translate(0 0)" fill="#404254">
  <rect fill="#f2f5e9" fill-opacity="0.5" stroke="#606060" stroke-width=".5" x="0" y="0" width="60" height="60"/>
  <use id="zoomplus" xlink:href="#zoomPlus" x="17" y="9" onmousedown="handleZoom(evt,'in')"/>
  <use id="zoomminus" xlink:href="#zoomMin" x="42" y="9" onmousedown="handleZoom(evt,'out')"/>
  <use id="reset" xlink:href="#resetDef" x="30" y="36" onmousedown="handleReset()"/>
   <use id="arrowup" xlink:href="#arrowUp" x="0" y="0" onmousedown="handlePan(0,-1)"/>
  <use id="arrowright" xlink:href="#arrowRight" x="0" y="0" onmousedown="handlePan(1,0)"/>
  <use id="arrowdown" xlink:href="#arrowDown" x="0" y="0" onmousedown="handlePan(0,1)"/>
  <use id="arrowleft" xlink:href="#arrowLeft" x="0" y="0" onmousedown="handlePan(-1,0)"/>
</g>
<svg viewBox="0 0 15 15" width="100%" height="30px" preserveAspectRatio="xMaxYMin meet">
 <g id="arrow_out" transform="scale(0.3 0.3)">
  <a xlink:href="class_u_base_laser_attack_ability_ac49822a928fe96077caded42985e05d7_cgraph_org.svg" target="_base">
   <rect id="button" ry="5" rx="5" y="6" x="6" height="38" width="38"
        fill="#f2f5e9" fill-opacity="0.5" stroke="#606060" stroke-width="1.0"/>
   <path id="arrow"
     d="M 11.500037,31.436501 C 11.940474,20.09759 22.043105,11.32322 32.158766,21.979434 L 37.068811,17.246167 C 37.068811,17.246167 37.088388,32 37.088388,32 L 22.160133,31.978069 C 22.160133,31.978069 26.997745,27.140456 26.997745,27.140456 C 18.528582,18.264221 13.291696,25.230495 11.500037,31.436501 z"
     style="fill:#404040;"/>
  </a>
 </g>
</svg>

<style type='text/css'>
<![CDATA[
[data-mouse-over-selected='false'] { opacity: 0.7; }
[data-mouse-over-selected='true']  { opacity: 1.0; }
]]>
</style>
<script type="application/ecmascript"><![CDATA[
document.addEventListener('DOMContentLoaded', (event) => {
  highlightEdges();
  highlightAdjacentNodes();
});
]]></script>
</svg>
