<?xml version="1.0" encoding="UTF-8" standalone="no"?>
<!DOCTYPE svg PUBLIC "-//W3C//DTD SVG 1.1//EN"
 "http://www.w3.org/Graphics/SVG/1.1/DTD/svg11.dtd">
<!-- Generated by graphviz version 13.1.1 (20250719.2154)
 -->
<!-- Title: UUIManagerSubsystem::InitializeForPlayer Pages: 1 -->
<!--zoomable 222 -->

<svg id="main" version="1.1" xmlns="http://www.w3.org/2000/svg" xmlns:xlink="http://www.w3.org/1999/xlink" xml:space="preserve" onload="init(evt)">

<style type="text/css"><![CDATA[
.node, .edge {opacity: 0.7;}
.node.selected, .edge.selected {opacity: 1;}
.edge:hover path { stroke: red; }
.edge:hover polygon { stroke: red; fill: red; }
]]></style>

<defs>
  <circle id="rim" cx="0" cy="0" r="7"/>
  <circle id="rim2" cx="0" cy="0" r="3.5"/>
  <g id="zoomPlus">
    <use xlink:href="#rim" fill="#404040"><set attributeName="fill" to="#808080" begin="zoomplus.mouseover" end="zoomplus.mouseout"/></use>
    <path d="M-4,0h8M0,-4v8" fill="none" stroke="white" stroke-width="1.5" pointer-events="none"/>
  </g>
  <g id="zoomMin">
    <use xlink:href="#rim" fill="#404040"><set attributeName="fill" to="#808080" begin="zoomminus.mouseover" end="zoomminus.mouseout"/></use>
    <path d="M-4,0h8" fill="none" stroke="white" stroke-width="1.5" pointer-events="none"/>
  </g>
  <g id="arrowUp" transform="translate(30 24)">
    <use xlink:href="#rim"/>
    <path pointer-events="none" fill="none" stroke="white" stroke-width="1.5" d="M0,-3.0v7 M-2.5,-0.5L0,-3.0L2.5,-0.5"/>
  </g>
  <g id="arrowRight" transform="rotate(90) translate(36 -43)">
    <use xlink:href="#rim"/>
    <path pointer-events="none" fill="none" stroke="white" stroke-width="1.5" d="M0,-3.0v7 M-2.5,-0.5L0,-3.0L2.5,-0.5"/>
  </g>
  <g id="arrowDown" transform="rotate(180) translate(-30 -48)">
    <use xlink:href="#rim"/>
    <path pointer-events="none" fill="none" stroke="white" stroke-width="1.5" d="M0,-3.0v7 M-2.5,-0.5L0,-3.0L2.5,-0.5"/>
  </g>
  <g id="arrowLeft" transform="rotate(270) translate(-36 17)">
    <use xlink:href="#rim"/>
    <path pointer-events="none" fill="none" stroke="white" stroke-width="1.5" d="M0,-3.0v7 M-2.5,-0.5L0,-3.0L2.5,-0.5"/>
  </g>
  <g id="resetDef">
    <use xlink:href="#rim2" fill="#404040"><set attributeName="fill" to="#808080" begin="reset.mouseover" end="reset.mouseout"/></use>
  </g>
</defs>
<script type="application/ecmascript">
var viewWidth = 1214;
var viewHeight = 222;
var sectionId = 'dynsection-18';
</script>
<script type="application/ecmascript" xlink:href="svg.min.js"/>
<svg id="graph" class="graph">
<g id="viewport">
<title>UUIManagerSubsystem::InitializeForPlayer</title>
<!-- Node1 -->
<g id="Node000001" class="node">
<title>Node1</title>
<g id="a_Node000001"><a xlink:title=" ">
<polygon fill="#999999" stroke="#666666" points="121,-107 0,-107 0,-75 121,-75 121,-107"/>
<text xml:space="preserve" text-anchor="start" x="8" y="-93.5" font-family="Helvetica,sans-Serif" font-size="10.00">UUIManagerSubsystem</text>
<text xml:space="preserve" text-anchor="middle" x="60.5" y="-81.5" font-family="Helvetica,sans-Serif" font-size="10.00">::InitializeForPlayer</text>
</a>
</g>
</g>
<!-- Node2 -->
<g id="Node000002" class="node">
<title>Node2</title>
<g id="a_Node000002"><a xlink:href="class_u_u_i_manager_subsystem.html#a246ae6eabb3d321cdc4abc2068ca1e61" target="_top" xlink:title=" ">
<polygon fill="white" stroke="#666666" points="316.25,-107 157,-107 157,-75 316.25,-75 316.25,-107"/>
<text xml:space="preserve" text-anchor="start" x="165" y="-93.5" font-family="Helvetica,sans-Serif" font-size="10.00">UUIManagerSubsystem</text>
<text xml:space="preserve" text-anchor="middle" x="236.62" y="-81.5" font-family="Helvetica,sans-Serif" font-size="10.00">::BindPlayerStateAndGameState</text>
</a>
</g>
</g>
<!-- Node1&#45;&gt;Node2 -->
<g id="edge1_Node000001_Node000002" class="edge">
<title>Node1&#45;&gt;Node2</title>
<g id="a_edge1_Node000001_Node000002"><a xlink:title=" ">
<path fill="none" stroke="#63b8ff" d="M121.42,-91C129.11,-91 137.12,-91 145.16,-91"/>
<polygon fill="#63b8ff" stroke="#63b8ff" points="145.01,-94.5 155.01,-91 145.01,-87.5 145.01,-94.5"/>
</a>
</g>
</g>
<!-- Node3 -->
<g id="Node000003" class="node">
<title>Node3</title>
<g id="a_Node000003"><a xlink:href="class_a_k_p_t_player_state.html#a57012cefe259a3b7e78bffd3e86197cd" target="_top" xlink:title=" ">
<polygon fill="white" stroke="#666666" points="521.25,-170 352.25,-170 352.25,-150 521.25,-150 521.25,-170"/>
<text xml:space="preserve" text-anchor="middle" x="436.75" y="-156.5" font-family="Helvetica,sans-Serif" font-size="10.00">AKPTPlayerState::GetPersonalTag</text>
</a>
</g>
</g>
<!-- Node2&#45;&gt;Node3 -->
<g id="edge2_Node000002_Node000003" class="edge">
<title>Node2&#45;&gt;Node3</title>
<g id="a_edge2_Node000002_Node000003"><a xlink:title=" ">
<path fill="none" stroke="#63b8ff" d="M270.59,-107.35C293.15,-118.05 323.99,-131.71 352.25,-141 358.49,-143.05 365.07,-144.96 371.68,-146.72"/>
<polygon fill="#63b8ff" stroke="#63b8ff" points="370.76,-150.09 381.31,-149.15 372.47,-143.31 370.76,-150.09"/>
</a>
</g>
</g>
<!-- Node4 -->
<g id="Node000004" class="node">
<title>Node4</title>
<g id="a_Node000004"><a xlink:href="class_u_u_i_manager_subsystem.html#ac0719470d72fdf3bd3d14b976ad44e33" target="_top" xlink:title=" ">
<polygon fill="white" stroke="#666666" points="503.62,-82 369.88,-82 369.88,-50 503.62,-50 503.62,-82"/>
<text xml:space="preserve" text-anchor="start" x="377.88" y="-68.5" font-family="Helvetica,sans-Serif" font-size="10.00">UUIManagerSubsystem</text>
<text xml:space="preserve" text-anchor="middle" x="436.75" y="-56.5" font-family="Helvetica,sans-Serif" font-size="10.00">::OnChangeGameStateTag</text>
</a>
</g>
</g>
<!-- Node2&#45;&gt;Node4 -->
<g id="edge4_Node000002_Node000004" class="edge">
<title>Node2&#45;&gt;Node4</title>
<g id="a_edge4_Node000002_Node000004"><a xlink:title=" ">
<path fill="none" stroke="#63b8ff" d="M316.5,-81.05C330.24,-79.31 344.52,-77.51 358.23,-75.78"/>
<polygon fill="#63b8ff" stroke="#63b8ff" points="358.6,-79.26 368.08,-74.54 357.72,-72.32 358.6,-79.26"/>
</a>
</g>
</g>
<!-- Node10 -->
<g id="Node000010" class="node">
<title>Node10</title>
<g id="a_Node000010"><a xlink:href="class_u_u_i_manager_subsystem.html#aec1290f1100ff3c1b7fa144daec04166" target="_top" xlink:title=" ">
<polygon fill="white" stroke="#666666" points="504.38,-132 369.12,-132 369.12,-100 504.38,-100 504.38,-132"/>
<text xml:space="preserve" text-anchor="start" x="377.12" y="-118.5" font-family="Helvetica,sans-Serif" font-size="10.00">UUIManagerSubsystem</text>
<text xml:space="preserve" text-anchor="middle" x="436.75" y="-106.5" font-family="Helvetica,sans-Serif" font-size="10.00">::OnChangePlayerStateTag</text>
</a>
</g>
</g>
<!-- Node2&#45;&gt;Node10 -->
<g id="edge10_Node000002_Node000010" class="edge">
<title>Node2&#45;&gt;Node10</title>
<g id="a_edge10_Node000002_Node000010"><a xlink:title=" ">
<path fill="none" stroke="#63b8ff" d="M316.5,-100.95C329.99,-102.65 344,-104.42 357.47,-106.12"/>
<polygon fill="#63b8ff" stroke="#63b8ff" points="356.78,-109.56 367.14,-107.34 357.65,-102.62 356.78,-109.56"/>
</a>
</g>
</g>
<!-- Node14 -->
<g id="Node000014" class="node">
<title>Node14</title>
<g id="a_Node000014"><a xlink:href="class_u_u_i_manager_subsystem.html#a066e62274dc1670d298997fa8f052b2d" target="_top" xlink:title=" ">
<polygon fill="white" stroke="#666666" points="497.25,-32 376.25,-32 376.25,0 497.25,0 497.25,-32"/>
<text xml:space="preserve" text-anchor="start" x="384.25" y="-18.5" font-family="Helvetica,sans-Serif" font-size="10.00">UUIManagerSubsystem</text>
<text xml:space="preserve" text-anchor="middle" x="436.75" y="-6.5" font-family="Helvetica,sans-Serif" font-size="10.00">::ShowStayWidget</text>
</a>
</g>
</g>
<!-- Node2&#45;&gt;Node14 -->
<g id="edge17_Node000002_Node000014" class="edge">
<title>Node2&#45;&gt;Node14</title>
<g id="a_edge17_Node000002_Node000014"><a xlink:title=" ">
<path fill="none" stroke="#63b8ff" d="M272.3,-74.57C294.81,-64.24 324.93,-51.01 352.25,-41 356.93,-39.28 361.79,-37.6 366.71,-35.96"/>
<polygon fill="#63b8ff" stroke="#63b8ff" points="367.64,-39.34 376.07,-32.92 365.48,-32.68 367.64,-39.34"/>
</a>
</g>
</g>
<!-- Node3&#45;&gt;Node3 -->
<g id="edge3_Node000003_Node000003" class="edge">
<title>Node3&#45;&gt;Node3</title>
<g id="a_edge3_Node000003_Node000003"><a xlink:title=" ">
<path fill="none" stroke="#63b8ff" d="M405.31,-170.34C391.87,-178.98 402.35,-188 436.75,-188 456.1,-188 467.88,-185.14 472.09,-181.11"/>
<polygon fill="#63b8ff" stroke="#63b8ff" points="475.4,-179.97 468.71,-171.76 468.82,-182.36 475.4,-179.97"/>
</a>
</g>
</g>
<!-- Node5 -->
<g id="Node000005" class="node">
<title>Node5</title>
<g id="a_Node000005"><a xlink:href="class_u_u_i_manager_subsystem.html#a3d1d102db04c24f74872b749cc41e0cf" target="_top" xlink:title=" ">
<polygon fill="white" stroke="#666666" points="695.12,-76 574.12,-76 574.12,-44 695.12,-44 695.12,-76"/>
<text xml:space="preserve" text-anchor="start" x="582.12" y="-62.5" font-family="Helvetica,sans-Serif" font-size="10.00">UUIManagerSubsystem</text>
<text xml:space="preserve" text-anchor="middle" x="634.62" y="-50.5" font-family="Helvetica,sans-Serif" font-size="10.00">::ShowEventWidget</text>
</a>
</g>
</g>
<!-- Node4&#45;&gt;Node5 -->
<g id="edge5_Node000004_Node000005" class="edge">
<title>Node4&#45;&gt;Node5</title>
<g id="a_edge5_Node000004_Node000005"><a xlink:title=" ">
<path fill="none" stroke="#63b8ff" d="M504.06,-63.97C522.81,-63.39 543.29,-62.77 562.31,-62.18"/>
<polygon fill="#63b8ff" stroke="#63b8ff" points="562.23,-65.69 572.12,-61.88 562.02,-58.69 562.23,-65.69"/>
</a>
</g>
</g>
<!-- Node6 -->
<g id="Node000006" class="node">
<title>Node6</title>
<g id="a_Node000006"><a xlink:href="class_u_u_i_manager_subsystem.html#ae6e92a8dab7f856443cfe5c4d00b25c9" target="_top" xlink:title=" ">
<polygon fill="white" stroke="#666666" points="869,-98 748,-98 748,-66 869,-66 869,-98"/>
<text xml:space="preserve" text-anchor="start" x="756" y="-84.5" font-family="Helvetica,sans-Serif" font-size="10.00">UUIManagerSubsystem</text>
<text xml:space="preserve" text-anchor="middle" x="808.5" y="-72.5" font-family="Helvetica,sans-Serif" font-size="10.00">::ActivateWidget</text>
</a>
</g>
</g>
<!-- Node5&#45;&gt;Node6 -->
<g id="edge6_Node000005_Node000006" class="edge">
<title>Node5&#45;&gt;Node6</title>
<g id="a_edge6_Node000005_Node000006"><a xlink:title=" ">
<path fill="none" stroke="#63b8ff" d="M695.26,-67.63C708.51,-69.33 722.69,-71.14 736.36,-72.89"/>
<polygon fill="#63b8ff" stroke="#63b8ff" points="735.82,-76.35 746.18,-74.15 736.71,-69.41 735.82,-76.35"/>
</a>
</g>
</g>
<!-- Node9 -->
<g id="Node000009" class="node">
<title>Node9</title>
<g id="a_Node000009"><a xlink:href="class_u_u_i_manager_subsystem.html#af61f694a539b5d427654903bc5944cf0" target="_top" xlink:title=" ">
<polygon fill="white" stroke="#666666" points="869,-159 748,-159 748,-127 869,-127 869,-159"/>
<text xml:space="preserve" text-anchor="start" x="756" y="-145.5" font-family="Helvetica,sans-Serif" font-size="10.00">UUIManagerSubsystem</text>
<text xml:space="preserve" text-anchor="middle" x="808.5" y="-133.5" font-family="Helvetica,sans-Serif" font-size="10.00">::GetOrCreateWidget</text>
</a>
</g>
</g>
<!-- Node5&#45;&gt;Node9 -->
<g id="edge9_Node000005_Node000009" class="edge">
<title>Node5&#45;&gt;Node9</title>
<g id="a_edge9_Node000005_Node000009"><a xlink:title=" ">
<path fill="none" stroke="#63b8ff" d="M690.87,-76.38C698.08,-79.01 705.29,-81.9 712,-85 729.02,-92.86 731.98,-97.26 748,-107 755.23,-111.4 762.97,-116.09 770.39,-120.58"/>
<polygon fill="#63b8ff" stroke="#63b8ff" points="768.57,-123.57 778.94,-125.75 772.19,-117.58 768.57,-123.57"/>
</a>
</g>
</g>
<!-- Node7 -->
<g id="Node000007" class="node">
<title>Node7</title>
<g id="a_Node000007"><a xlink:href="class_u_u_i_manager_subsystem.html#acaac8367f6b3ad4c0509900d7f01b65a" target="_top" xlink:title=" ">
<polygon fill="white" stroke="#666666" points="1048.5,-148 905,-148 905,-116 1048.5,-116 1048.5,-148"/>
<text xml:space="preserve" text-anchor="start" x="913" y="-134.5" font-family="Helvetica,sans-Serif" font-size="10.00">UUIManagerSubsystem</text>
<text xml:space="preserve" text-anchor="middle" x="976.75" y="-122.5" font-family="Helvetica,sans-Serif" font-size="10.00">::UpdateInputModeAndFocus</text>
</a>
</g>
</g>
<!-- Node6&#45;&gt;Node7 -->
<g id="edge7_Node000006_Node000007" class="edge">
<title>Node6&#45;&gt;Node7</title>
<g id="a_edge7_Node000006_Node000007"><a xlink:title=" ">
<path fill="none" stroke="#63b8ff" d="M863.94,-98.37C878.64,-102.8 894.72,-107.63 909.97,-112.22"/>
<polygon fill="#63b8ff" stroke="#63b8ff" points="908.87,-115.54 919.46,-115.07 910.89,-108.84 908.87,-115.54"/>
</a>
</g>
</g>
<!-- Node8 -->
<g id="Node000008" class="node">
<title>Node8</title>
<g id="a_Node000008"><a xlink:href="class_u_u_i_manager_subsystem.html#a6c815ab68107e8e616ddb62dd3391d2c" target="_top" xlink:title=" ">
<polygon fill="white" stroke="#666666" points="1205.5,-148 1084.5,-148 1084.5,-116 1205.5,-116 1205.5,-148"/>
<text xml:space="preserve" text-anchor="start" x="1092.5" y="-134.5" font-family="Helvetica,sans-Serif" font-size="10.00">UUIManagerSubsystem</text>
<text xml:space="preserve" text-anchor="middle" x="1145" y="-122.5" font-family="Helvetica,sans-Serif" font-size="10.00">::SetUIInputMode</text>
</a>
</g>
</g>
<!-- Node7&#45;&gt;Node8 -->
<g id="edge8_Node000007_Node000008" class="edge">
<title>Node7&#45;&gt;Node8</title>
<g id="a_edge8_Node000007_Node000008"><a xlink:title=" ">
<path fill="none" stroke="#63b8ff" d="M1048.74,-132C1056.68,-132 1064.78,-132 1072.73,-132"/>
<polygon fill="#63b8ff" stroke="#63b8ff" points="1072.72,-135.5 1082.72,-132 1072.72,-128.5 1072.72,-135.5"/>
</a>
</g>
</g>
<!-- Node11 -->
<g id="Node000011" class="node">
<title>Node11</title>
<g id="a_Node000011"><a xlink:href="class_u_u_i_manager_subsystem.html#aed4b9c08eec4848386a3a89108827ffd" target="_top" xlink:title=" ">
<polygon fill="white" stroke="#666666" points="712,-126 557.25,-126 557.25,-94 712,-94 712,-126"/>
<text xml:space="preserve" text-anchor="start" x="565.25" y="-112.5" font-family="Helvetica,sans-Serif" font-size="10.00">UUIManagerSubsystem</text>
<text xml:space="preserve" text-anchor="middle" x="634.62" y="-100.5" font-family="Helvetica,sans-Serif" font-size="10.00">::GetSingletonWidgetInstanceId</text>
</a>
</g>
</g>
<!-- Node10&#45;&gt;Node11 -->
<g id="edge11_Node000010_Node000011" class="edge">
<title>Node10&#45;&gt;Node11</title>
<g id="a_edge11_Node000010_Node000011"><a xlink:title=" ">
<path fill="none" stroke="#63b8ff" d="M504.61,-113.95C517.77,-113.55 531.77,-113.12 545.5,-112.7"/>
<polygon fill="#63b8ff" stroke="#63b8ff" points="545.56,-116.2 555.44,-112.39 545.34,-109.2 545.56,-116.2"/>
</a>
</g>
</g>
<!-- Node12 -->
<g id="Node000012" class="node">
<title>Node12</title>
<g id="a_Node000012"><a xlink:href="class_u_u_i_manager_subsystem.html#a1e0415f5fab1f4658e1aee52f1ee1a0b" target="_top" xlink:title="지정된 인스턴스 ID의 위젯을 화면에서 숨깁니다.">
<polygon fill="white" stroke="#666666" points="869,-214 748,-214 748,-182 869,-182 869,-214"/>
<text xml:space="preserve" text-anchor="start" x="756" y="-200.5" font-family="Helvetica,sans-Serif" font-size="10.00">UUIManagerSubsystem</text>
<text xml:space="preserve" text-anchor="middle" x="808.5" y="-188.5" font-family="Helvetica,sans-Serif" font-size="10.00">::HideWidget</text>
</a>
</g>
</g>
<!-- Node10&#45;&gt;Node12 -->
<g id="edge12_Node000010_Node000012" class="edge">
<title>Node10&#45;&gt;Node12</title>
<g id="a_edge12_Node000010_Node000012"><a xlink:title=" ">
<path fill="none" stroke="#63b8ff" d="M504.59,-132C510.44,-134.58 516.09,-137.56 521.25,-141 542.27,-155.02 534.71,-173.59 557.25,-185 612.67,-213.05 684.11,-213.85 736.47,-209.08"/>
<polygon fill="#63b8ff" stroke="#63b8ff" points="736.57,-212.59 746.16,-208.1 735.86,-205.62 736.57,-212.59"/>
</a>
</g>
</g>
<!-- Node13 -->
<g id="Node000013" class="node">
<title>Node13</title>
<g id="a_Node000013"><a xlink:href="class_u_u_i_manager_subsystem.html#a291d9552775bf1843f433b3e363b0543" target="_top" xlink:title=" ">
<polygon fill="white" stroke="#666666" points="695.12,-176 574.12,-176 574.12,-144 695.12,-144 695.12,-176"/>
<text xml:space="preserve" text-anchor="start" x="582.12" y="-162.5" font-family="Helvetica,sans-Serif" font-size="10.00">UUIManagerSubsystem</text>
<text xml:space="preserve" text-anchor="middle" x="634.62" y="-150.5" font-family="Helvetica,sans-Serif" font-size="10.00">::ShowWidget</text>
</a>
</g>
</g>
<!-- Node10&#45;&gt;Node13 -->
<g id="edge14_Node000010_Node000013" class="edge">
<title>Node10&#45;&gt;Node13</title>
<g id="a_edge14_Node000010_Node000013"><a xlink:title=" ">
<path fill="none" stroke="#63b8ff" d="M504.61,-131.02C523.24,-135.2 543.54,-139.76 562.41,-144"/>
<polygon fill="#63b8ff" stroke="#63b8ff" points="561.63,-147.41 572.15,-146.19 563.16,-140.58 561.63,-147.41"/>
</a>
</g>
</g>
<!-- Node12&#45;&gt;Node7 -->
<g id="edge13_Node000012_Node000007" class="edge">
<title>Node12&#45;&gt;Node7</title>
<g id="a_edge13_Node000012_Node000007"><a xlink:title=" ">
<path fill="none" stroke="#63b8ff" d="M851.02,-181.52C873.12,-172.74 900.51,-161.87 923.99,-152.55"/>
<polygon fill="#63b8ff" stroke="#63b8ff" points="925.06,-155.89 933.06,-148.95 922.48,-149.38 925.06,-155.89"/>
</a>
</g>
</g>
<!-- Node13&#45;&gt;Node6 -->
<g id="edge15_Node000013_Node000006" class="edge">
<title>Node13&#45;&gt;Node6</title>
<g id="a_edge15_Node000013_Node000006"><a xlink:title=" ">
<path fill="none" stroke="#63b8ff" d="M689.93,-143.64C697.43,-140.97 704.97,-138.07 712,-135 732.19,-126.19 753.73,-114.46 771.23,-104.27"/>
<polygon fill="#63b8ff" stroke="#63b8ff" points="772.89,-107.35 779.72,-99.26 769.33,-101.33 772.89,-107.35"/>
</a>
</g>
</g>
<!-- Node13&#45;&gt;Node9 -->
<g id="edge16_Node000013_Node000009" class="edge">
<title>Node13&#45;&gt;Node9</title>
<g id="a_edge16_Node000013_Node000009"><a xlink:title=" ">
<path fill="none" stroke="#63b8ff" d="M695.26,-154.1C708.51,-152.79 722.69,-151.39 736.36,-150.04"/>
<polygon fill="#63b8ff" stroke="#63b8ff" points="736.57,-153.53 746.18,-149.07 735.88,-146.57 736.57,-153.53"/>
</a>
</g>
</g>
<!-- Node14&#45;&gt;Node6 -->
<g id="edge18_Node000014_Node000006" class="edge">
<title>Node14&#45;&gt;Node6</title>
<g id="a_edge18_Node000014_Node000006"><a xlink:title=" ">
<path fill="none" stroke="#63b8ff" d="M497.69,-13.56C554,-12.81 640.11,-15.63 712,-35 732.73,-40.59 754.32,-50.79 771.71,-60.26"/>
<polygon fill="#63b8ff" stroke="#63b8ff" points="769.68,-63.13 780.11,-64.97 773.1,-57.02 769.68,-63.13"/>
</a>
</g>
</g>
</g>
</svg>

<g id="navigator" transform="translate(0 0)" fill="#404254">
  <rect fill="#f2f5e9" fill-opacity="0.5" stroke="#606060" stroke-width=".5" x="0" y="0" width="60" height="60"/>
  <use id="zoomplus" xlink:href="#zoomPlus" x="17" y="9" onmousedown="handleZoom(evt,'in')"/>
  <use id="zoomminus" xlink:href="#zoomMin" x="42" y="9" onmousedown="handleZoom(evt,'out')"/>
  <use id="reset" xlink:href="#resetDef" x="30" y="36" onmousedown="handleReset()"/>
   <use id="arrowup" xlink:href="#arrowUp" x="0" y="0" onmousedown="handlePan(0,-1)"/>
  <use id="arrowright" xlink:href="#arrowRight" x="0" y="0" onmousedown="handlePan(1,0)"/>
  <use id="arrowdown" xlink:href="#arrowDown" x="0" y="0" onmousedown="handlePan(0,1)"/>
  <use id="arrowleft" xlink:href="#arrowLeft" x="0" y="0" onmousedown="handlePan(-1,0)"/>
</g>
<svg viewBox="0 0 15 15" width="100%" height="30px" preserveAspectRatio="xMaxYMin meet">
 <g id="arrow_out" transform="scale(0.3 0.3)">
  <a xlink:href="class_u_u_i_manager_subsystem_ae786dee1d051999eb3e98960d96a39d4_cgraph_org.svg" target="_base">
   <rect id="button" ry="5" rx="5" y="6" x="6" height="38" width="38"
        fill="#f2f5e9" fill-opacity="0.5" stroke="#606060" stroke-width="1.0"/>
   <path id="arrow"
     d="M 11.500037,31.436501 C 11.940474,20.09759 22.043105,11.32322 32.158766,21.979434 L 37.068811,17.246167 C 37.068811,17.246167 37.088388,32 37.088388,32 L 22.160133,31.978069 C 22.160133,31.978069 26.997745,27.140456 26.997745,27.140456 C 18.528582,18.264221 13.291696,25.230495 11.500037,31.436501 z"
     style="fill:#404040;"/>
  </a>
 </g>
</svg>

<style type='text/css'>
<![CDATA[
[data-mouse-over-selected='false'] { opacity: 0.7; }
[data-mouse-over-selected='true']  { opacity: 1.0; }
]]>
</style>
<script type="application/ecmascript"><![CDATA[
document.addEventListener('DOMContentLoaded', (event) => {
  highlightEdges();
  highlightAdjacentNodes();
});
]]></script>
</svg>
