<?xml version="1.0" encoding="UTF-8" standalone="no"?>
<!DOCTYPE svg PUBLIC "-//W3C//DTD SVG 1.1//EN"
 "http://www.w3.org/Graphics/SVG/1.1/DTD/svg11.dtd">
<!-- Generated by graphviz version 13.1.1 (20250719.2154)
 -->
<!-- Title: UStageManagerSubsystem::GetCurrentStageData Pages: 1 -->
<svg width="1835pt" height="97pt"
 viewBox="0.00 0.00 1835.00 97.00" xmlns="http://www.w3.org/2000/svg" xmlns:xlink="http://www.w3.org/1999/xlink">
<g id="graph0" class="graph" transform="scale(1 1) rotate(0) translate(4 93)">
<title>UStageManagerSubsystem::GetCurrentStageData</title>
<!-- Node1 -->
<g id="Node000001" class="node">
<title>Node1</title>
<g id="a_Node000001"><a xlink:title=" ">
<polygon fill="#999999" stroke="#666666" points="1827.25,-54 1691.25,-54 1691.25,-22 1827.25,-22 1827.25,-54"/>
<text xml:space="preserve" text-anchor="start" x="1699.25" y="-40.5" font-family="Helvetica,sans-Serif" font-size="10.00">UStageManagerSubsystem</text>
<text xml:space="preserve" text-anchor="middle" x="1759.25" y="-28.5" font-family="Helvetica,sans-Serif" font-size="10.00">::GetCurrentStageData</text>
</a>
</g>
</g>
<!-- Node2 -->
<g id="Node000002" class="node">
<title>Node2</title>
<g id="a_Node000002"><a xlink:href="class_u_stage_manager_subsystem.html#a10be946619661f166108878489139489" target="_top" xlink:title=" ">
<polygon fill="white" stroke="#666666" points="1655.25,-54 1519.25,-54 1519.25,-22 1655.25,-22 1655.25,-54"/>
<text xml:space="preserve" text-anchor="start" x="1527.25" y="-40.5" font-family="Helvetica,sans-Serif" font-size="10.00">UStageManagerSubsystem</text>
<text xml:space="preserve" text-anchor="middle" x="1587.25" y="-28.5" font-family="Helvetica,sans-Serif" font-size="10.00">::SetStageDataToSpawner</text>
</a>
</g>
</g>
<!-- Node1&#45;&gt;Node2 -->
<g id="edge1_Node000001_Node000002" class="edge">
<title>Node1&#45;&gt;Node2</title>
<g id="a_edge1_Node000001_Node000002"><a xlink:title=" ">
<path fill="none" stroke="#63b8ff" d="M1679.71,-38C1671.62,-38 1663.46,-38 1655.51,-38"/>
<polygon fill="#63b8ff" stroke="#63b8ff" points="1679.55,-41.5 1689.55,-38 1679.55,-34.5 1679.55,-41.5"/>
</a>
</g>
</g>
<!-- Node2&#45;&gt;Node2 -->
<g id="edge2_Node000002_Node000002" class="edge">
<title>Node2&#45;&gt;Node2</title>
<g id="a_edge2_Node000002_Node000002"><a xlink:title=" ">
<path fill="none" stroke="#63b8ff" d="M1615.91,-65.71C1611.13,-69.48 1601.58,-72 1587.25,-72 1561.05,-72 1550.81,-63.58 1556.54,-54.44"/>
<polygon fill="#63b8ff" stroke="#63b8ff" points="1619.35,-66.4 1617.69,-55.93 1612.46,-65.15 1619.35,-66.4"/>
</a>
</g>
</g>
<!-- Node3 -->
<g id="Node000003" class="node">
<title>Node3</title>
<g id="a_Node000003"><a xlink:href="class_u_stage_manager_subsystem.html#ad0af6446e32468e50889d617d579207f" target="_top" xlink:title=" ">
<polygon fill="white" stroke="#666666" points="1483.25,-54 1347.25,-54 1347.25,-22 1483.25,-22 1483.25,-54"/>
<text xml:space="preserve" text-anchor="start" x="1355.25" y="-40.5" font-family="Helvetica,sans-Serif" font-size="10.00">UStageManagerSubsystem</text>
<text xml:space="preserve" text-anchor="middle" x="1415.25" y="-28.5" font-family="Helvetica,sans-Serif" font-size="10.00">::StartStage</text>
</a>
</g>
</g>
<!-- Node2&#45;&gt;Node3 -->
<g id="edge3_Node000002_Node000003" class="edge">
<title>Node2&#45;&gt;Node3</title>
<g id="a_edge3_Node000002_Node000003"><a xlink:title=" ">
<path fill="none" stroke="#63b8ff" d="M1507.71,-38C1499.62,-38 1491.46,-38 1483.51,-38"/>
<polygon fill="#63b8ff" stroke="#63b8ff" points="1507.55,-41.5 1517.55,-38 1507.55,-34.5 1507.55,-41.5"/>
</a>
</g>
</g>
<!-- Node4 -->
<g id="Node000004" class="node">
<title>Node4</title>
<g id="a_Node000004"><a xlink:href="class_a_k_p_t_in_game_mode.html#acd0b193dd9ce700d2a4cb3953565584c" target="_top" xlink:title="야간 페이즈의 핵심 로직을 실행합니다.">
<polygon fill="white" stroke="#666666" points="1311.25,-54 1160.25,-54 1160.25,-22 1311.25,-22 1311.25,-54"/>
<text xml:space="preserve" text-anchor="start" x="1168.25" y="-40.5" font-family="Helvetica,sans-Serif" font-size="10.00">AKPTInGameMode::StartNight</text>
<text xml:space="preserve" text-anchor="middle" x="1235.75" y="-28.5" font-family="Helvetica,sans-Serif" font-size="10.00">Phase</text>
</a>
</g>
</g>
<!-- Node3&#45;&gt;Node4 -->
<g id="edge4_Node000003_Node000004" class="edge">
<title>Node3&#45;&gt;Node4</title>
<g id="a_edge4_Node000003_Node000004"><a xlink:title=" ">
<path fill="none" stroke="#63b8ff" d="M1335.64,-38C1327.61,-38 1319.47,-38 1311.48,-38"/>
<polygon fill="#63b8ff" stroke="#63b8ff" points="1335.38,-41.5 1345.38,-38 1335.38,-34.5 1335.38,-41.5"/>
</a>
</g>
</g>
<!-- Node5 -->
<g id="Node000005" class="node">
<title>Node5</title>
<g id="a_Node000005"><a xlink:href="class_a_k_p_t_in_game_mode.html#a84edc1df98161132b7b803669c9299a0" target="_top" xlink:title="야간 페이즈를 시작하기 위한 준비 및 전환을 시작합니다.">
<polygon fill="white" stroke="#666666" points="1124.25,-76 969.5,-76 969.5,-44 1124.25,-44 1124.25,-76"/>
<text xml:space="preserve" text-anchor="start" x="977.5" y="-62.5" font-family="Helvetica,sans-Serif" font-size="10.00">AKPTInGameMode::BeginNight</text>
<text xml:space="preserve" text-anchor="middle" x="1046.88" y="-50.5" font-family="Helvetica,sans-Serif" font-size="10.00">PhaseLogic</text>
</a>
</g>
</g>
<!-- Node4&#45;&gt;Node5 -->
<g id="edge5_Node000004_Node000005" class="edge">
<title>Node4&#45;&gt;Node5</title>
<g id="a_edge5_Node000004_Node000005"><a xlink:title=" ">
<path fill="none" stroke="#63b8ff" d="M1148.6,-48.14C1140.61,-49.08 1132.55,-50.03 1124.66,-50.96"/>
<polygon fill="#63b8ff" stroke="#63b8ff" points="1148.79,-51.64 1158.31,-47 1147.97,-44.69 1148.79,-51.64"/>
</a>
</g>
</g>
<!-- Node6 -->
<g id="Node000006" class="node">
<title>Node6</title>
<g id="a_Node000006"><a xlink:href="class_a_k_p_t_in_game_mode.html#a410acd626df9144d7ebb63b535dbc37b" target="_top" xlink:title=" ">
<polygon fill="white" stroke="#666666" points="933.5,-76 784.75,-76 784.75,-44 933.5,-44 933.5,-76"/>
<text xml:space="preserve" text-anchor="start" x="792.75" y="-62.5" font-family="Helvetica,sans-Serif" font-size="10.00">AKPTInGameMode::Complete</text>
<text xml:space="preserve" text-anchor="middle" x="859.12" y="-50.5" font-family="Helvetica,sans-Serif" font-size="10.00">PhaseTransition</text>
</a>
</g>
</g>
<!-- Node5&#45;&gt;Node6 -->
<g id="edge6_Node000005_Node000006" class="edge">
<title>Node5&#45;&gt;Node6</title>
<g id="a_edge6_Node000005_Node000006"><a xlink:title=" ">
<path fill="none" stroke="#63b8ff" d="M957.93,-60C949.88,-60 941.79,-60 933.88,-60"/>
<polygon fill="#63b8ff" stroke="#63b8ff" points="957.74,-63.5 967.74,-60 957.74,-56.5 957.74,-63.5"/>
</a>
</g>
</g>
<!-- Node7 -->
<g id="Node000007" class="node">
<title>Node7</title>
<g id="a_Node000007"><a xlink:href="class_a_k_p_t_in_game_mode.html#a1c856c37dce7343a381723b5d842ecf7" target="_top" xlink:title="모든 플레이어가 사망했는지 확인합니다.">
<polygon fill="white" stroke="#666666" points="748.75,-70 559.5,-70 559.5,-50 748.75,-50 748.75,-70"/>
<text xml:space="preserve" text-anchor="middle" x="654.12" y="-56.5" font-family="Helvetica,sans-Serif" font-size="10.00">AKPTInGameMode::AreAllPlayersDead</text>
</a>
</g>
</g>
<!-- Node6&#45;&gt;Node7 -->
<g id="edge7_Node000006_Node000007" class="edge">
<title>Node6&#45;&gt;Node7</title>
<g id="a_edge7_Node000006_Node000007"><a xlink:title=" ">
<path fill="none" stroke="#63b8ff" d="M772.85,-60C764.98,-60 756.98,-60 749.04,-60"/>
<polygon fill="#63b8ff" stroke="#63b8ff" points="772.75,-63.5 782.75,-60 772.75,-56.5 772.75,-63.5"/>
</a>
</g>
</g>
<!-- Node7&#45;&gt;Node7 -->
<g id="edge8_Node000007_Node000007" class="edge">
<title>Node7&#45;&gt;Node7</title>
<g id="a_edge8_Node000007_Node000007"><a xlink:title=" ">
<path fill="none" stroke="#63b8ff" d="M690.74,-81.11C686.37,-85.14 674.17,-88 654.12,-88 618.49,-88 607.63,-78.98 621.55,-70.34"/>
<polygon fill="#63b8ff" stroke="#63b8ff" points="694.02,-79.89 687.23,-71.76 687.47,-82.35 694.02,-79.89"/>
</a>
</g>
</g>
<!-- Node8 -->
<g id="Node000008" class="node">
<title>Node8</title>
<g id="a_Node000008"><a xlink:href="class_a_k_p_t_in_game_mode.html#a0e1dec85eeba3835d463238c88f8904b" target="_top" xlink:title="야간 페이즈를 종료하고, 게임 종료 조건을 확인하거나 새 라운드를 시작합니다.">
<polygon fill="white" stroke="#666666" points="513.38,-32 366.12,-32 366.12,0 513.38,0 513.38,-32"/>
<text xml:space="preserve" text-anchor="start" x="374.12" y="-18.5" font-family="Helvetica,sans-Serif" font-size="10.00">AKPTInGameMode::EndNight</text>
<text xml:space="preserve" text-anchor="middle" x="439.75" y="-6.5" font-family="Helvetica,sans-Serif" font-size="10.00">Phase</text>
</a>
</g>
</g>
<!-- Node7&#45;&gt;Node8 -->
<g id="edge9_Node000007_Node000008" class="edge">
<title>Node7&#45;&gt;Node8</title>
<g id="a_edge9_Node000007_Node000008"><a xlink:title=" ">
<path fill="none" stroke="#63b8ff" d="M591.32,-47.2C567.09,-42.18 539.1,-36.38 513.87,-31.15"/>
<polygon fill="#63b8ff" stroke="#63b8ff" points="590.54,-50.61 601.04,-49.21 591.96,-43.75 590.54,-50.61"/>
</a>
</g>
</g>
<!-- Node9 -->
<g id="Node000009" class="node">
<title>Node9</title>
<g id="a_Node000009"><a xlink:href="class_a_k_p_t_in_game_mode.html#a3a63b6ea26b3ef6a916ca7b5fed4813f" target="_top" xlink:title="플레이어가 사망했을 때 호출됩니다.">
<polygon fill="white" stroke="#666666" points="523.5,-70 356,-70 356,-50 523.5,-50 523.5,-70"/>
<text xml:space="preserve" text-anchor="middle" x="439.75" y="-56.5" font-family="Helvetica,sans-Serif" font-size="10.00">AKPTInGameMode::OnPlayerDied</text>
</a>
</g>
</g>
<!-- Node7&#45;&gt;Node9 -->
<g id="edge11_Node000007_Node000009" class="edge">
<title>Node7&#45;&gt;Node9</title>
<g id="a_edge11_Node000007_Node000009"><a xlink:title=" ">
<path fill="none" stroke="#63b8ff" d="M547.7,-60C539.66,-60 531.62,-60 523.75,-60"/>
<polygon fill="#63b8ff" stroke="#63b8ff" points="547.53,-63.5 557.53,-60 547.53,-56.5 547.53,-63.5"/>
</a>
</g>
</g>
<!-- Node8&#45;&gt;Node4 -->
<g id="edge10_Node000008_Node000004" class="edge">
<title>Node8&#45;&gt;Node4</title>
<g id="a_edge10_Node000008_Node000004"><a xlink:title=" ">
<path fill="none" stroke="#63b8ff" d="M525.18,-18.34C681.09,-22.66 1011.76,-31.82 1160.05,-35.93"/>
<polygon fill="#63b8ff" stroke="#63b8ff" points="525.41,-14.84 515.32,-18.07 525.22,-21.84 525.41,-14.84"/>
</a>
</g>
</g>
<!-- Node10 -->
<g id="Node000010" class="node">
<title>Node10</title>
<g id="a_Node000010"><a xlink:href="class_a_player_character.html#aa38c751d8495a3e3d999eafad23d7a88" target="_top" xlink:title=" ">
<polygon fill="white" stroke="#666666" points="301.62,-89 187.38,-89 187.38,-69 301.62,-69 301.62,-89"/>
<text xml:space="preserve" text-anchor="middle" x="244.5" y="-75.5" font-family="Helvetica,sans-Serif" font-size="10.00">APlayerCharacter::Die</text>
</a>
</g>
</g>
<!-- Node9&#45;&gt;Node10 -->
<g id="edge12_Node000009_Node000010" class="edge">
<title>Node9&#45;&gt;Node10</title>
<g id="a_edge12_Node000009_Node000010"><a xlink:title=" ">
<path fill="none" stroke="#63b8ff" d="M344.58,-69.26C330.03,-70.69 315.4,-72.13 302.02,-73.44"/>
<polygon fill="#63b8ff" stroke="#63b8ff" points="344.56,-72.78 354.17,-68.32 343.87,-65.81 344.56,-72.78"/>
</a>
</g>
</g>
<!-- Node11 -->
<g id="Node000011" class="node">
<title>Node11</title>
<g id="a_Node000011"><a xlink:href="class_a_character_base.html#af4c20a0d4ddeb41b0eb305b807bcfc9d" target="_top" xlink:title=" ">
<polygon fill="white" stroke="#666666" points="320,-51 169,-51 169,-31 320,-31 320,-51"/>
<text xml:space="preserve" text-anchor="middle" x="244.5" y="-37.5" font-family="Helvetica,sans-Serif" font-size="10.00">ACharacterBase::HandleDeath</text>
</a>
</g>
</g>
<!-- Node9&#45;&gt;Node11 -->
<g id="edge13_Node000009_Node000011" class="edge">
<title>Node9&#45;&gt;Node11</title>
<g id="a_edge13_Node000009_Node000011"><a xlink:title=" ">
<path fill="none" stroke="#63b8ff" d="M344.31,-50.71C336.24,-49.92 328.16,-49.13 320.28,-48.35"/>
<polygon fill="#63b8ff" stroke="#63b8ff" points="343.87,-54.19 354.17,-51.68 344.56,-47.22 343.87,-54.19"/>
</a>
</g>
</g>
<!-- Node12 -->
<g id="Node000012" class="node">
<title>Node12</title>
<g id="a_Node000012"><a xlink:href="class_a_character_base.html#af3460531018611a7b3b2c59779c65ead" target="_top" xlink:title=" ">
<polygon fill="white" stroke="#666666" points="133,-51 0,-51 0,-31 133,-31 133,-51"/>
<text xml:space="preserve" text-anchor="middle" x="66.5" y="-37.5" font-family="Helvetica,sans-Serif" font-size="10.00">ACharacterBase::OnDeath</text>
</a>
</g>
</g>
<!-- Node11&#45;&gt;Node12 -->
<g id="edge14_Node000011_Node000012" class="edge">
<title>Node11&#45;&gt;Node12</title>
<g id="a_edge14_Node000011_Node000012"><a xlink:title=" ">
<path fill="none" stroke="#63b8ff" d="M157.3,-34.25C149.27,-34.24 141.22,-34.3 133.42,-34.44"/>
<polygon fill="#63b8ff" stroke="#63b8ff" points="157.07,-37.75 167.09,-34.31 157.11,-30.75 157.07,-37.75"/>
</a>
</g>
</g>
<!-- Node12&#45;&gt;Node11 -->
<g id="edge15_Node000012_Node000011" class="edge">
<title>Node12&#45;&gt;Node11</title>
<g id="a_edge15_Node000012_Node000011"><a xlink:title=" ">
<path fill="none" stroke="#63b8ff" d="M144.86,-47.71C152.75,-47.77 160.75,-47.76 168.6,-47.68"/>
<polygon fill="#63b8ff" stroke="#63b8ff" points="144.98,-44.21 134.94,-47.58 144.89,-51.21 144.98,-44.21"/>
</a>
</g>
</g>
<!-- Node12&#45;&gt;Node12 -->
<g id="edge16_Node000012_Node000012" class="edge">
<title>Node12&#45;&gt;Node12</title>
<g id="a_edge16_Node000012_Node000012"><a xlink:title=" ">
<path fill="none" stroke="#63b8ff" d="M98.29,-62.11C94.5,-66.14 83.9,-69 66.5,-69 35.56,-69 26.13,-59.98 38.22,-51.34"/>
<polygon fill="#63b8ff" stroke="#63b8ff" points="101.68,-61.2 95.25,-52.78 95.02,-63.37 101.68,-61.2"/>
</a>
</g>
</g>
</g>
</svg>
