<?xml version="1.0" encoding="UTF-8" standalone="no"?>
<!DOCTYPE svg PUBLIC "-//W3C//DTD SVG 1.1//EN"
 "http://www.w3.org/Graphics/SVG/1.1/DTD/svg11.dtd">
<!-- Generated by graphviz version 13.1.1 (20250719.2154)
 -->
<!-- Title: AGameplayAbilityTargetActor_Mini Pages: 1 -->
<svg width="168pt" height="200pt"
 viewBox="0.00 0.00 168.00 200.00" xmlns="http://www.w3.org/2000/svg" xmlns:xlink="http://www.w3.org/1999/xlink">

<svg id="main" version="1.1" xmlns="http://www.w3.org/2000/svg" xmlns:xlink="http://www.w3.org/1999/xlink" xml:space="preserve">

<style type="text/css"><![CDATA[
.node, .edge {opacity: 0.7;}
.node.selected, .edge.selected {opacity: 1;}
.edge:hover path { stroke: red; }
.edge:hover polygon { stroke: red; fill: red; }
]]></style>
<script type="application/ecmascript" xlink:href="svg.min.js"/>
<svg id="graph" class="graph">
<g id="graph0" class="graph" transform="scale(1 1) rotate(0) translate(4 196)">
<title>AGameplayAbilityTargetActor_Mini</title>
<!-- Node1 -->
<g id="Node000001" class="node">
<title>Node1</title>
<g id="a_Node000001"><a xlink:title=" ">
<polygon fill="#999999" stroke="none" points="159.5,-104 0,-104 0,0 159.5,0 159.5,-104"/>
<text xml:space="preserve" text-anchor="start" x="4" y="-90.5" font-family="Helvetica,sans-Serif" font-size="10.00">AGameplayAbilityTargetActor_Mini</text>
<text xml:space="preserve" text-anchor="start" x="78.25" y="-74.5" font-family="Helvetica,sans-Serif" font-size="10.00"> </text>
<text xml:space="preserve" text-anchor="start" x="7.31" y="-58.5" font-family="Helvetica,sans-Serif" font-size="10.00">+</text>
<text xml:space="preserve" text-anchor="start" x="20.62" y="-58.5" font-family="Helvetica,sans-Serif" font-size="10.00">AGameplayAbilityTargetActor</text>
<text xml:space="preserve" text-anchor="start" x="20.62" y="-46.5" font-family="Helvetica,sans-Serif" font-size="10.00">_Mini()</text>
<text xml:space="preserve" text-anchor="start" x="7.31" y="-30.5" font-family="Helvetica,sans-Serif" font-size="10.00">+</text>
<text xml:space="preserve" text-anchor="start" x="20.62" y="-30.5" font-family="Helvetica,sans-Serif" font-size="10.00">virtual void StartTargeting</text>
<text xml:space="preserve" text-anchor="start" x="20.62" y="-18.5" font-family="Helvetica,sans-Serif" font-size="10.00">(UGameplayAbility *Ability)</text>
<text xml:space="preserve" text-anchor="start" x="20.62" y="-6.5" font-family="Helvetica,sans-Serif" font-size="10.00"> override</text>
<polygon fill="#666666" stroke="#666666" points="0,-86 0,-86 159.5,-86 159.5,-86 0,-86"/>
<polygon fill="#666666" stroke="#666666" points="0,-70 0,-70 159.5,-70 159.5,-70 0,-70"/>
<polygon fill="none" stroke="#666666" points="0,0 0,-104 159.5,-104 159.5,0 0,0"/>
</a>
</g>
</g>
<!-- Node2 -->
<g id="Node000002" class="node">
<title>Node2</title>
<g id="a_Node000002"><a xlink:title=" ">
<polygon fill="white" stroke="none" points="147.88,-192 11.62,-192 11.62,-140 147.88,-140 147.88,-192"/>
<text xml:space="preserve" text-anchor="start" x="15.62" y="-178.5" font-family="Helvetica,sans-Serif" font-size="10.00">AGameplayAbilityTargetActor</text>
<text xml:space="preserve" text-anchor="start" x="78.25" y="-162.5" font-family="Helvetica,sans-Serif" font-size="10.00"> </text>
<text xml:space="preserve" text-anchor="start" x="78.25" y="-146.5" font-family="Helvetica,sans-Serif" font-size="10.00"> </text>
<polygon fill="#666666" stroke="#666666" points="11.62,-174 11.62,-174 147.88,-174 147.88,-174 11.62,-174"/>
<polygon fill="#666666" stroke="#666666" points="11.62,-158 11.62,-158 147.88,-158 147.88,-158 11.62,-158"/>
<polygon fill="none" stroke="#666666" points="11.62,-140 11.62,-192 147.88,-192 147.88,-140 11.62,-140"/>
</a>
</g>
</g>
<!-- Node2&#45;&gt;Node1 -->
<g id="edge1_Node000001_Node000002" class="edge">
<title>Node2&#45;&gt;Node1</title>
<g id="a_edge1_Node000001_Node000002"><a xlink:title=" ">
<path fill="none" stroke="#63b8ff" d="M79.75,-128.71C79.75,-120.8 79.75,-112.3 79.75,-103.95"/>
<polygon fill="none" stroke="#63b8ff" points="76.25,-128.63 79.75,-138.63 83.25,-128.63 76.25,-128.63"/>
</a>
</g>
</g>
</g>
</svg>
</svg>

<style type='text/css'>
<![CDATA[
[data-mouse-over-selected='false'] { opacity: 0.7; }
[data-mouse-over-selected='true']  { opacity: 1.0; }
]]>
</style>
<script type="application/ecmascript"><![CDATA[
document.addEventListener('DOMContentLoaded', (event) => {
  highlightEdges();
  highlightAdjacentNodes();
});
]]></script>
</svg>
