<?xml version="1.0" encoding="UTF-8" standalone="no"?>
<!DOCTYPE svg PUBLIC "-//W3C//DTD SVG 1.1//EN"
 "http://www.w3.org/Graphics/SVG/1.1/DTD/svg11.dtd">
<!-- Generated by graphviz version 13.1.1 (20250719.2154)
 -->
<!-- Title: AKPTMainPlayerController::ShowDamageFloater Pages: 1 -->
<svg width="508pt" height="58pt"
 viewBox="0.00 0.00 508.00 58.00" xmlns="http://www.w3.org/2000/svg" xmlns:xlink="http://www.w3.org/1999/xlink">
<g id="graph0" class="graph" transform="scale(1 1) rotate(0) translate(4 54)">
<title>AKPTMainPlayerController::ShowDamageFloater</title>
<!-- Node1 -->
<g id="Node000001" class="node">
<title>Node1</title>
<g id="a_Node000001"><a xlink:title=" ">
<polygon fill="#999999" stroke="#666666" points="499.5,-32 366.5,-32 366.5,0 499.5,0 499.5,-32"/>
<text xml:space="preserve" text-anchor="start" x="374.5" y="-18.5" font-family="Helvetica,sans-Serif" font-size="10.00">AKPTMainPlayerController</text>
<text xml:space="preserve" text-anchor="middle" x="433" y="-6.5" font-family="Helvetica,sans-Serif" font-size="10.00">::ShowDamageFloater</text>
</a>
</g>
</g>
<!-- Node1&#45;&gt;Node1 -->
<g id="edge3_Node000001_Node000001" class="edge">
<title>Node1&#45;&gt;Node1</title>
<g id="a_edge3_Node000001_Node000001"><a xlink:title=" ">
<path fill="none" stroke="#63b8ff" d="M462.41,-43.71C457.51,-47.48 447.7,-50 433,-50 406.11,-50 395.61,-41.58 401.49,-32.44"/>
<polygon fill="#63b8ff" stroke="#63b8ff" points="465.84,-44.4 464.23,-33.93 458.96,-43.12 465.84,-44.4"/>
</a>
</g>
</g>
<!-- Node2 -->
<g id="Node000002" class="node">
<title>Node2</title>
<g id="a_Node000002"><a xlink:href="class_u_k_p_t_base_attribute_set.html#afc4d5faaf00935c85fec041169977759" target="_top" xlink:title=" ">
<polygon fill="white" stroke="#666666" points="330.5,-32 182.5,-32 182.5,0 330.5,0 330.5,-32"/>
<text xml:space="preserve" text-anchor="start" x="190.5" y="-18.5" font-family="Helvetica,sans-Serif" font-size="10.00">UKPTBaseAttributeSet</text>
<text xml:space="preserve" text-anchor="middle" x="256.5" y="-6.5" font-family="Helvetica,sans-Serif" font-size="10.00">::PostGameplayEffectExecute</text>
</a>
</g>
</g>
<!-- Node1&#45;&gt;Node2 -->
<g id="edge1_Node000001_Node000002" class="edge">
<title>Node1&#45;&gt;Node2</title>
<g id="a_edge1_Node000001_Node000002"><a xlink:title=" ">
<path fill="none" stroke="#63b8ff" d="M354.58,-16C346.7,-16 338.71,-16 330.87,-16"/>
<polygon fill="#63b8ff" stroke="#63b8ff" points="354.52,-19.5 364.52,-16 354.52,-12.5 354.52,-19.5"/>
</a>
</g>
</g>
<!-- Node3 -->
<g id="Node000003" class="node">
<title>Node3</title>
<g id="a_Node000003"><a xlink:href="class_u_k_p_t_base_attribute_set.html#a225f828fc9a99dbe8962a5fefb7518e6" target="_top" xlink:title=" ">
<polygon fill="white" stroke="#666666" points="146.5,-32 0,-32 0,0 146.5,0 146.5,-32"/>
<text xml:space="preserve" text-anchor="start" x="8" y="-18.5" font-family="Helvetica,sans-Serif" font-size="10.00">UKPTBaseAttributeSet</text>
<text xml:space="preserve" text-anchor="middle" x="73.25" y="-6.5" font-family="Helvetica,sans-Serif" font-size="10.00">::ATTRIBUTE_ACCESSORS</text>
</a>
</g>
</g>
<!-- Node2&#45;&gt;Node3 -->
<g id="edge2_Node000002_Node000003" class="edge">
<title>Node2&#45;&gt;Node3</title>
<g id="a_edge2_Node000002_Node000003"><a xlink:title=" ">
<path fill="none" stroke="#63b8ff" d="M170.54,-16C162.65,-16 154.7,-16 146.93,-16"/>
<polygon fill="#63b8ff" stroke="#63b8ff" points="170.53,-19.5 180.53,-16 170.53,-12.5 170.53,-19.5"/>
</a>
</g>
</g>
</g>
</svg>
