<?xml version="1.0" encoding="UTF-8" standalone="no"?>
<!DOCTYPE svg PUBLIC "-//W3C//DTD SVG 1.1//EN"
 "http://www.w3.org/Graphics/SVG/1.1/DTD/svg11.dtd">
<!-- Generated by graphviz version 13.1.1 (20250719.2154)
 -->
<!-- Title: UUIManagerSubsystem::HideWidget Pages: 1 -->
<svg width="843pt" height="379pt"
 viewBox="0.00 0.00 843.00 379.00" xmlns="http://www.w3.org/2000/svg" xmlns:xlink="http://www.w3.org/1999/xlink">
<g id="graph0" class="graph" transform="scale(1 1) rotate(0) translate(4 375)">
<title>UUIManagerSubsystem::HideWidget</title>
<!-- Node1 -->
<g id="Node000001" class="node">
<title>Node1</title>
<g id="a_Node000001"><a xlink:title="지정된 인스턴스 ID의 위젯을 화면에서 숨깁니다.">
<polygon fill="#999999" stroke="#666666" points="834.5,-220 713.5,-220 713.5,-188 834.5,-188 834.5,-220"/>
<text xml:space="preserve" text-anchor="start" x="721.5" y="-206.5" font-family="Helvetica,sans-Serif" font-size="10.00">UUIManagerSubsystem</text>
<text xml:space="preserve" text-anchor="middle" x="774" y="-194.5" font-family="Helvetica,sans-Serif" font-size="10.00">::HideWidget</text>
</a>
</g>
</g>
<!-- Node2 -->
<g id="Node000002" class="node">
<title>Node2</title>
<g id="a_Node000002"><a xlink:href="class_u_event_u_i.html#a63b5c4977ff4bce0a6c0039111a5e37b" target="_top" xlink:title=" ">
<polygon fill="white" stroke="#666666" points="663.25,-371 523.5,-371 523.5,-339 663.25,-339 663.25,-371"/>
<text xml:space="preserve" text-anchor="start" x="531.5" y="-357.5" font-family="Helvetica,sans-Serif" font-size="10.00">UEventUI::HandleAnimation</text>
<text xml:space="preserve" text-anchor="middle" x="593.38" y="-345.5" font-family="Helvetica,sans-Serif" font-size="10.00">Finished</text>
</a>
</g>
</g>
<!-- Node1&#45;&gt;Node2 -->
<g id="edge1_Node000001_Node000002" class="edge">
<title>Node1&#45;&gt;Node2</title>
<g id="a_edge1_Node000001_Node000002"><a xlink:title=" ">
<path fill="none" stroke="#63b8ff" d="M759.71,-230.23C743.9,-258.84 714.88,-304.03 677.5,-330 672.8,-333.27 667.66,-336.12 662.32,-338.6"/>
<polygon fill="#63b8ff" stroke="#63b8ff" points="762.76,-231.95 764.4,-221.48 756.59,-228.64 762.76,-231.95"/>
</a>
</g>
</g>
<!-- Node3 -->
<g id="Node000003" class="node">
<title>Node3</title>
<g id="a_Node000003"><a xlink:href="class_u_transition_u_i.html#ab196f60a081ad3cb90e2562cd4da6dc5" target="_top" xlink:title=" ">
<polygon fill="white" stroke="#666666" points="671.88,-321 514.88,-321 514.88,-289 671.88,-289 671.88,-321"/>
<text xml:space="preserve" text-anchor="start" x="522.88" y="-307.5" font-family="Helvetica,sans-Serif" font-size="10.00">UTransitionUI::HandleAnimation</text>
<text xml:space="preserve" text-anchor="middle" x="593.38" y="-295.5" font-family="Helvetica,sans-Serif" font-size="10.00">Finished</text>
</a>
</g>
</g>
<!-- Node1&#45;&gt;Node3 -->
<g id="edge2_Node000001_Node000003" class="edge">
<title>Node1&#45;&gt;Node3</title>
<g id="a_edge2_Node000001_Node000003"><a xlink:title=" ">
<path fill="none" stroke="#63b8ff" d="M748.17,-228.17C729.91,-244.78 703.8,-266.24 677.5,-280 671.36,-283.21 664.74,-286.08 658.01,-288.62"/>
<polygon fill="#63b8ff" stroke="#63b8ff" points="750.41,-230.86 755.35,-221.49 745.65,-225.73 750.41,-230.86"/>
</a>
</g>
</g>
<!-- Node4 -->
<g id="Node000004" class="node">
<title>Node4</title>
<g id="a_Node000004"><a xlink:href="class_u_pause_u_i.html#a5910729a1146468a2a5a445648d12fa0" target="_top" xlink:title=" ">
<polygon fill="white" stroke="#666666" points="671.88,-271 514.88,-271 514.88,-251 671.88,-251 671.88,-271"/>
<text xml:space="preserve" text-anchor="middle" x="593.38" y="-257.5" font-family="Helvetica,sans-Serif" font-size="10.00">UPauseUI::HandleClickedClose</text>
</a>
</g>
</g>
<!-- Node1&#45;&gt;Node4 -->
<g id="edge3_Node000001_Node000004" class="edge">
<title>Node1&#45;&gt;Node4</title>
<g id="a_edge3_Node000001_Node000004"><a xlink:title=" ">
<path fill="none" stroke="#63b8ff" d="M725.2,-224.69C710.11,-230.77 693.27,-237.09 677.5,-242 667.32,-245.17 656.3,-248.06 645.7,-250.57"/>
<polygon fill="#63b8ff" stroke="#63b8ff" points="726.51,-227.94 734.43,-220.91 723.85,-221.46 726.51,-227.94"/>
</a>
</g>
</g>
<!-- Node7 -->
<g id="Node000007" class="node">
<title>Node7</title>
<g id="a_Node000007"><a xlink:href="class_u_shop_u_i.html#a86e30b557b9c8efbcb66007ad6987b84" target="_top" xlink:title=" ">
<polygon fill="white" stroke="#666666" points="669.25,-195 517.5,-195 517.5,-175 669.25,-175 669.25,-195"/>
<text xml:space="preserve" text-anchor="middle" x="593.38" y="-181.5" font-family="Helvetica,sans-Serif" font-size="10.00">UShopUI::HandleClickedClose</text>
</a>
</g>
</g>
<!-- Node1&#45;&gt;Node7 -->
<g id="edge6_Node000001_Node000007" class="edge">
<title>Node1&#45;&gt;Node7</title>
<g id="a_edge6_Node000001_Node000007"><a xlink:title=" ">
<path fill="none" stroke="#63b8ff" d="M701.76,-196.42C691.23,-195.3 680.35,-194.15 669.74,-193.02"/>
<polygon fill="#63b8ff" stroke="#63b8ff" points="701.2,-199.88 711.52,-197.46 701.94,-192.92 701.2,-199.88"/>
</a>
</g>
</g>
<!-- Node9 -->
<g id="Node000009" class="node">
<title>Node9</title>
<g id="a_Node000009"><a xlink:href="class_u_pause_u_i.html#ad272156d61dc1a44318b188bf06d403e" target="_top" xlink:title=" ">
<polygon fill="white" stroke="#666666" points="677.5,-233 509.25,-233 509.25,-213 677.5,-213 677.5,-233"/>
<text xml:space="preserve" text-anchor="middle" x="593.38" y="-219.5" font-family="Helvetica,sans-Serif" font-size="10.00">UPauseUI::HandleClickedResume</text>
</a>
</g>
</g>
<!-- Node1&#45;&gt;Node9 -->
<g id="edge8_Node000001_Node000009" class="edge">
<title>Node1&#45;&gt;Node9</title>
<g id="a_edge8_Node000001_Node000009"><a xlink:title=" ">
<path fill="none" stroke="#63b8ff" d="M701.65,-211.59C693.77,-212.43 685.7,-213.29 677.69,-214.14"/>
<polygon fill="#63b8ff" stroke="#63b8ff" points="701.94,-215.08 711.52,-210.54 701.2,-208.12 701.94,-215.08"/>
</a>
</g>
</g>
<!-- Node10 -->
<g id="Node000010" class="node">
<title>Node10</title>
<g id="a_Node000010"><a xlink:href="class_u_u_i_manager_subsystem.html#ab97849a761dc09f79fcbf69c45fc0ae3" target="_top" xlink:title=" ">
<polygon fill="white" stroke="#666666" points="653.88,-157 532.88,-157 532.88,-125 653.88,-125 653.88,-157"/>
<text xml:space="preserve" text-anchor="start" x="540.88" y="-143.5" font-family="Helvetica,sans-Serif" font-size="10.00">UUIManagerSubsystem</text>
<text xml:space="preserve" text-anchor="middle" x="593.38" y="-131.5" font-family="Helvetica,sans-Serif" font-size="10.00">::HandleEscapeAction</text>
</a>
</g>
</g>
<!-- Node1&#45;&gt;Node10 -->
<g id="edge11_Node000001_Node000010" class="edge">
<title>Node1&#45;&gt;Node10</title>
<g id="a_edge11_Node000001_Node000010"><a xlink:title=" ">
<path fill="none" stroke="#63b8ff" d="M723.41,-183.32C708.72,-177.46 692.55,-171.25 677.5,-166 669.1,-163.07 660.16,-160.17 651.37,-157.43"/>
<polygon fill="#63b8ff" stroke="#63b8ff" points="721.81,-186.45 732.39,-186.95 724.43,-179.96 721.81,-186.45"/>
</a>
</g>
</g>
<!-- Node11 -->
<g id="Node000011" class="node">
<title>Node11</title>
<g id="a_Node000011"><a xlink:href="class_u_skill_slot_u_i.html#a767d282f328026f7c4ecf7df95201611" target="_top" xlink:title=" ">
<polygon fill="white" stroke="#666666" points="665.12,-107 521.62,-107 521.62,-75 665.12,-75 665.12,-107"/>
<text xml:space="preserve" text-anchor="start" x="529.62" y="-93.5" font-family="Helvetica,sans-Serif" font-size="10.00">USkillSlotUI::HandleFinished</text>
<text xml:space="preserve" text-anchor="middle" x="593.38" y="-81.5" font-family="Helvetica,sans-Serif" font-size="10.00">OnClickedAnimation</text>
</a>
</g>
</g>
<!-- Node1&#45;&gt;Node11 -->
<g id="edge12_Node000001_Node000011" class="edge">
<title>Node1&#45;&gt;Node11</title>
<g id="a_edge12_Node000001_Node000011"><a xlink:title=" ">
<path fill="none" stroke="#63b8ff" d="M751.93,-179.17C733.98,-159.47 706.54,-132.56 677.5,-116 671.87,-112.79 665.79,-109.95 659.56,-107.45"/>
<polygon fill="#63b8ff" stroke="#63b8ff" points="749.21,-181.38 758.48,-186.52 754.44,-176.73 749.21,-181.38"/>
</a>
</g>
</g>
<!-- Node12 -->
<g id="Node000012" class="node">
<title>Node12</title>
<g id="a_Node000012"><a xlink:href="class_u_u_i_manager_subsystem.html#aec1290f1100ff3c1b7fa144daec04166" target="_top" xlink:title=" ">
<polygon fill="white" stroke="#666666" points="661,-57 525.75,-57 525.75,-25 661,-25 661,-57"/>
<text xml:space="preserve" text-anchor="start" x="533.75" y="-43.5" font-family="Helvetica,sans-Serif" font-size="10.00">UUIManagerSubsystem</text>
<text xml:space="preserve" text-anchor="middle" x="593.38" y="-31.5" font-family="Helvetica,sans-Serif" font-size="10.00">::OnChangePlayerStateTag</text>
</a>
</g>
</g>
<!-- Node1&#45;&gt;Node12 -->
<g id="edge13_Node000001_Node000012" class="edge">
<title>Node1&#45;&gt;Node12</title>
<g id="a_edge13_Node000001_Node000012"><a xlink:title=" ">
<path fill="none" stroke="#63b8ff" d="M761.46,-177.58C746.51,-146.4 717.55,-95.13 677.5,-66 672.5,-62.37 666.97,-59.25 661.21,-56.59"/>
<polygon fill="#63b8ff" stroke="#63b8ff" points="758.14,-178.73 765.52,-186.33 764.49,-175.79 758.14,-178.73"/>
</a>
</g>
</g>
<!-- Node5 -->
<g id="Node000005" class="node">
<title>Node5</title>
<g id="a_Node000005"><a xlink:href="class_u_pause_u_i.html#a9eb5b5662314b5e9a43cf4e085176419" target="_top" xlink:title=" ">
<polygon fill="white" stroke="#666666" points="463.12,-271 324.12,-271 324.12,-251 463.12,-251 463.12,-271"/>
<text xml:space="preserve" text-anchor="middle" x="393.62" y="-257.5" font-family="Helvetica,sans-Serif" font-size="10.00">UPauseUI::NativeConstruct</text>
</a>
</g>
</g>
<!-- Node4&#45;&gt;Node5 -->
<g id="edge4_Node000004_Node000005" class="edge">
<title>Node4&#45;&gt;Node5</title>
<g id="a_edge4_Node000004_Node000005"><a xlink:title=" ">
<path fill="none" stroke="#63b8ff" d="M503.34,-261C489.95,-261 476.32,-261 463.44,-261"/>
<polygon fill="#63b8ff" stroke="#63b8ff" points="502.99,-264.5 512.99,-261 502.99,-257.5 502.99,-264.5"/>
</a>
</g>
</g>
<!-- Node6 -->
<g id="Node000006" class="node">
<title>Node6</title>
<g id="a_Node000006"><a xlink:href="class_u_pause_u_i.html#a044a4b6a8ff4a00b6065ca292cb165a9" target="_top" xlink:title=" ">
<polygon fill="white" stroke="#666666" points="460.5,-233 326.75,-233 326.75,-213 460.5,-213 460.5,-233"/>
<text xml:space="preserve" text-anchor="middle" x="393.62" y="-219.5" font-family="Helvetica,sans-Serif" font-size="10.00">UPauseUI::NativeDestruct</text>
</a>
</g>
</g>
<!-- Node4&#45;&gt;Node6 -->
<g id="edge5_Node000004_Node000006" class="edge">
<title>Node4&#45;&gt;Node6</title>
<g id="a_edge5_Node000004_Node000006"><a xlink:title=" ">
<path fill="none" stroke="#63b8ff" d="M526.51,-248.34C501.35,-243.51 472.98,-238.06 449.01,-233.45"/>
<polygon fill="#63b8ff" stroke="#63b8ff" points="525.85,-251.78 536.33,-250.23 527.17,-244.91 525.85,-251.78"/>
</a>
</g>
</g>
<!-- Node8 -->
<g id="Node000008" class="node">
<title>Node8</title>
<g id="a_Node000008"><a xlink:href="class_u_shop_u_i.html#ab8d30aa4ab0a8bf7ed1d77aa1f2ba1f5" target="_top" xlink:title=" ">
<polygon fill="white" stroke="#666666" points="460.5,-195 326.75,-195 326.75,-175 460.5,-175 460.5,-195"/>
<text xml:space="preserve" text-anchor="middle" x="393.62" y="-181.5" font-family="Helvetica,sans-Serif" font-size="10.00">UShopUI::NativeConstruct</text>
</a>
</g>
</g>
<!-- Node7&#45;&gt;Node8 -->
<g id="edge7_Node000007_Node000008" class="edge">
<title>Node7&#45;&gt;Node8</title>
<g id="a_edge7_Node000007_Node000008"><a xlink:title=" ">
<path fill="none" stroke="#63b8ff" d="M505.62,-185C490.55,-185 475.09,-185 460.69,-185"/>
<polygon fill="#63b8ff" stroke="#63b8ff" points="505.54,-188.5 515.54,-185 505.54,-181.5 505.54,-188.5"/>
</a>
</g>
</g>
<!-- Node9&#45;&gt;Node5 -->
<g id="edge9_Node000009_Node000005" class="edge">
<title>Node9&#45;&gt;Node5</title>
<g id="a_edge9_Node000009_Node000005"><a xlink:title=" ">
<path fill="none" stroke="#63b8ff" d="M526.51,-235.66C501.35,-240.49 472.98,-245.94 449.01,-250.55"/>
<polygon fill="#63b8ff" stroke="#63b8ff" points="527.17,-239.09 536.33,-233.77 525.85,-232.22 527.17,-239.09"/>
</a>
</g>
</g>
<!-- Node9&#45;&gt;Node6 -->
<g id="edge10_Node000009_Node000006" class="edge">
<title>Node9&#45;&gt;Node6</title>
<g id="a_edge10_Node000009_Node000006"><a xlink:title=" ">
<path fill="none" stroke="#63b8ff" d="M497.46,-223C485.07,-223 472.6,-223 460.82,-223"/>
<polygon fill="#63b8ff" stroke="#63b8ff" points="497.28,-226.5 507.28,-223 497.28,-219.5 497.28,-226.5"/>
</a>
</g>
</g>
<!-- Node13 -->
<g id="Node000013" class="node">
<title>Node13</title>
<g id="a_Node000013"><a xlink:href="class_u_u_i_manager_subsystem.html#a246ae6eabb3d321cdc4abc2068ca1e61" target="_top" xlink:title=" ">
<polygon fill="white" stroke="#666666" points="473.25,-57 314,-57 314,-25 473.25,-25 473.25,-57"/>
<text xml:space="preserve" text-anchor="start" x="322" y="-43.5" font-family="Helvetica,sans-Serif" font-size="10.00">UUIManagerSubsystem</text>
<text xml:space="preserve" text-anchor="middle" x="393.62" y="-31.5" font-family="Helvetica,sans-Serif" font-size="10.00">::BindPlayerStateAndGameState</text>
</a>
</g>
</g>
<!-- Node12&#45;&gt;Node13 -->
<g id="edge14_Node000012_Node000013" class="edge">
<title>Node12&#45;&gt;Node13</title>
<g id="a_edge14_Node000012_Node000013"><a xlink:title=" ">
<path fill="none" stroke="#63b8ff" d="M514.3,-41C500.87,-41 486.91,-41 473.46,-41"/>
<polygon fill="#63b8ff" stroke="#63b8ff" points="513.91,-44.5 523.91,-41 513.91,-37.5 513.91,-44.5"/>
</a>
</g>
</g>
<!-- Node14 -->
<g id="Node000014" class="node">
<title>Node14</title>
<g id="a_Node000014"><a xlink:href="class_u_u_i_manager_subsystem.html#ae786dee1d051999eb3e98960d96a39d4" target="_top" xlink:title=" ">
<polygon fill="white" stroke="#666666" points="278,-82 157,-82 157,-50 278,-50 278,-82"/>
<text xml:space="preserve" text-anchor="start" x="165" y="-68.5" font-family="Helvetica,sans-Serif" font-size="10.00">UUIManagerSubsystem</text>
<text xml:space="preserve" text-anchor="middle" x="217.5" y="-56.5" font-family="Helvetica,sans-Serif" font-size="10.00">::InitializeForPlayer</text>
</a>
</g>
</g>
<!-- Node13&#45;&gt;Node14 -->
<g id="edge15_Node000013_Node000014" class="edge">
<title>Node13&#45;&gt;Node14</title>
<g id="a_edge15_Node000013_Node000014"><a xlink:title=" ">
<path fill="none" stroke="#63b8ff" d="M302.55,-53.93C294.35,-55.11 286.19,-56.28 278.36,-57.41"/>
<polygon fill="#63b8ff" stroke="#63b8ff" points="302.81,-57.43 312.22,-52.54 301.82,-50.5 302.81,-57.43"/>
</a>
</g>
</g>
<!-- Node15 -->
<g id="Node000015" class="node">
<title>Node15</title>
<g id="a_Node000015"><a xlink:href="class_u_u_i_manager_subsystem.html#a8199a73ecef396d77dc15b4049ad7491" target="_top" xlink:title=" ">
<polygon fill="white" stroke="#666666" points="278,-32 157,-32 157,0 278,0 278,-32"/>
<text xml:space="preserve" text-anchor="start" x="165" y="-18.5" font-family="Helvetica,sans-Serif" font-size="10.00">UUIManagerSubsystem</text>
<text xml:space="preserve" text-anchor="middle" x="217.5" y="-6.5" font-family="Helvetica,sans-Serif" font-size="10.00">::OnChangeLevel</text>
</a>
</g>
</g>
<!-- Node13&#45;&gt;Node15 -->
<g id="edge16_Node000013_Node000015" class="edge">
<title>Node13&#45;&gt;Node15</title>
<g id="a_edge16_Node000013_Node000015"><a xlink:title=" ">
<path fill="none" stroke="#63b8ff" d="M302.55,-28.07C294.35,-26.89 286.19,-25.72 278.36,-24.59"/>
<polygon fill="#63b8ff" stroke="#63b8ff" points="301.82,-31.5 312.22,-29.46 302.81,-24.57 301.82,-31.5"/>
</a>
</g>
</g>
<!-- Node16 -->
<g id="Node000016" class="node">
<title>Node16</title>
<g id="a_Node000016"><a xlink:href="class_u_u_i_manager_subsystem.html#a0ece8b5888a4cfe5b70f308dcfb28478" target="_top" xlink:title=" ">
<polygon fill="white" stroke="#666666" points="121,-32 0,-32 0,0 121,0 121,-32"/>
<text xml:space="preserve" text-anchor="start" x="8" y="-18.5" font-family="Helvetica,sans-Serif" font-size="10.00">UUIManagerSubsystem</text>
<text xml:space="preserve" text-anchor="middle" x="60.5" y="-6.5" font-family="Helvetica,sans-Serif" font-size="10.00">::SetupInitialUI</text>
</a>
</g>
</g>
<!-- Node15&#45;&gt;Node16 -->
<g id="edge17_Node000015_Node000016" class="edge">
<title>Node15&#45;&gt;Node16</title>
<g id="a_edge17_Node000015_Node000016"><a xlink:title=" ">
<path fill="none" stroke="#63b8ff" d="M145.31,-16C137.27,-16 129.14,-16 121.27,-16"/>
<polygon fill="#63b8ff" stroke="#63b8ff" points="145.06,-19.5 155.06,-16 145.06,-12.5 145.06,-19.5"/>
</a>
</g>
</g>
</g>
</svg>
