<?xml version="1.0" encoding="UTF-8" standalone="no"?>
<!DOCTYPE svg PUBLIC "-//W3C//DTD SVG 1.1//EN"
 "http://www.w3.org/Graphics/SVG/1.1/DTD/svg11.dtd">
<!-- Generated by graphviz version 13.1.1 (20250719.2154)
 -->
<!-- Title: USkillAttributeSet::USkillAttributeSet Pages: 1 -->
<svg width="309pt" height="340pt"
 viewBox="0.00 0.00 309.00 340.00" xmlns="http://www.w3.org/2000/svg" xmlns:xlink="http://www.w3.org/1999/xlink">

<svg id="main" version="1.1" xmlns="http://www.w3.org/2000/svg" xmlns:xlink="http://www.w3.org/1999/xlink" xml:space="preserve">

<style type="text/css"><![CDATA[
.node, .edge {opacity: 0.7;}
.node.selected, .edge.selected {opacity: 1;}
.edge:hover path { stroke: red; }
.edge:hover polygon { stroke: red; fill: red; }
]]></style>
<script type="application/ecmascript" xlink:href="svg.min.js"/>
<svg id="graph" class="graph">
<g id="graph0" class="graph" transform="scale(1 1) rotate(0) translate(4 336)">
<title>USkillAttributeSet::USkillAttributeSet</title>
<!-- Node1 -->
<g id="Node000001" class="node">
<title>Node1</title>
<g id="a_Node000001"><a xlink:title=" ">
<polygon fill="#999999" stroke="#666666" points="301.25,-182 201.25,-182 201.25,-150 301.25,-150 301.25,-182"/>
<text xml:space="preserve" text-anchor="start" x="209.25" y="-168.5" font-family="Helvetica,sans-Serif" font-size="10.00">USkillAttributeSet</text>
<text xml:space="preserve" text-anchor="middle" x="251.25" y="-156.5" font-family="Helvetica,sans-Serif" font-size="10.00">::USkillAttributeSet</text>
</a>
</g>
</g>
<!-- Node2 -->
<g id="Node000002" class="node">
<title>Node2</title>
<g id="a_Node000002"><a xlink:href="class_u_skill_attribute_set.html#a8c4f0b584d5b89975b2f7f0bf068d251" target="_top" xlink:title=" ">
<polygon fill="white" stroke="#666666" points="154.75,-332 10.5,-332 10.5,-300 154.75,-300 154.75,-332"/>
<text xml:space="preserve" text-anchor="start" x="18.5" y="-318.5" font-family="Helvetica,sans-Serif" font-size="10.00">USkillAttributeSet</text>
<text xml:space="preserve" text-anchor="middle" x="82.62" y="-306.5" font-family="Helvetica,sans-Serif" font-size="10.00">::GetLifetimeReplicatedProps</text>
</a>
</g>
</g>
<!-- Node1&#45;&gt;Node2 -->
<g id="edge1_Node000001_Node000002" class="edge">
<title>Node1&#45;&gt;Node2</title>
<g id="a_edge1_Node000001_Node000002"><a xlink:title=" ">
<path fill="none" stroke="#63b8ff" d="M238.68,-192.83C225.09,-221.23 199.93,-265.42 165.25,-291 160.84,-294.25 155.99,-297.09 150.94,-299.56"/>
<polygon fill="#63b8ff" stroke="#63b8ff" points="241.83,-194.35 242.84,-183.8 235.47,-191.42 241.83,-194.35"/>
</a>
</g>
</g>
<!-- Node3 -->
<g id="Node000003" class="node">
<title>Node3</title>
<g id="a_Node000003"><a xlink:href="class_u_skill_attribute_set.html#ac4a7a6ecc375eb8c8eb690b3badcc0d1" target="_top" xlink:title=" ">
<polygon fill="white" stroke="#666666" points="155.5,-282 9.75,-282 9.75,-250 155.5,-250 155.5,-282"/>
<text xml:space="preserve" text-anchor="start" x="17.75" y="-268.5" font-family="Helvetica,sans-Serif" font-size="10.00">USkillAttributeSet</text>
<text xml:space="preserve" text-anchor="middle" x="82.62" y="-256.5" font-family="Helvetica,sans-Serif" font-size="10.00">::OnRep_AttackAreaMultiplier</text>
</a>
</g>
</g>
<!-- Node1&#45;&gt;Node3 -->
<g id="edge2_Node000001_Node000003" class="edge">
<title>Node1&#45;&gt;Node3</title>
<g id="a_edge2_Node000001_Node000003"><a xlink:title=" ">
<path fill="none" stroke="#63b8ff" d="M228.11,-190.38C212.07,-206.74 189.09,-227.66 165.25,-241 159.56,-244.18 153.41,-247.01 147.14,-249.51"/>
<polygon fill="#63b8ff" stroke="#63b8ff" points="230.4,-193.04 234.78,-183.4 225.34,-188.2 230.4,-193.04"/>
</a>
</g>
</g>
<!-- Node4 -->
<g id="Node000004" class="node">
<title>Node4</title>
<g id="a_Node000004"><a xlink:href="class_u_skill_attribute_set.html#ada4168d68f2e9bd18e1fdaaa1717b9de" target="_top" xlink:title=" ">
<polygon fill="white" stroke="#666666" points="148.38,-232 16.88,-232 16.88,-200 148.38,-200 148.38,-232"/>
<text xml:space="preserve" text-anchor="start" x="24.88" y="-218.5" font-family="Helvetica,sans-Serif" font-size="10.00">USkillAttributeSet</text>
<text xml:space="preserve" text-anchor="middle" x="82.62" y="-206.5" font-family="Helvetica,sans-Serif" font-size="10.00">::OnRep_BonusProjectiles</text>
</a>
</g>
</g>
<!-- Node1&#45;&gt;Node4 -->
<g id="edge3_Node000001_Node000004" class="edge">
<title>Node1&#45;&gt;Node4</title>
<g id="a_edge3_Node000001_Node000004"><a xlink:title=" ">
<path fill="none" stroke="#63b8ff" d="M190.28,-183.99C173.38,-189.07 155.08,-194.56 138.49,-199.54"/>
<polygon fill="#63b8ff" stroke="#63b8ff" points="191.14,-187.39 199.71,-181.17 189.12,-180.69 191.14,-187.39"/>
</a>
</g>
</g>
<!-- Node5 -->
<g id="Node000005" class="node">
<title>Node5</title>
<g id="a_Node000005"><a xlink:href="class_u_skill_attribute_set.html#a367b574c4730bf90c7f0d9822f16b2c5" target="_top" xlink:title=" ">
<polygon fill="white" stroke="#666666" points="154,-182 11.25,-182 11.25,-150 154,-150 154,-182"/>
<text xml:space="preserve" text-anchor="start" x="19.25" y="-168.5" font-family="Helvetica,sans-Serif" font-size="10.00">USkillAttributeSet</text>
<text xml:space="preserve" text-anchor="middle" x="82.62" y="-156.5" font-family="Helvetica,sans-Serif" font-size="10.00">::OnRep_CoolDownMultiplier</text>
</a>
</g>
</g>
<!-- Node1&#45;&gt;Node5 -->
<g id="edge4_Node000001_Node000005" class="edge">
<title>Node1&#45;&gt;Node5</title>
<g id="a_edge4_Node000001_Node000005"><a xlink:title=" ">
<path fill="none" stroke="#63b8ff" d="M189.86,-166C178.31,-166 166.12,-166 154.28,-166"/>
<polygon fill="#63b8ff" stroke="#63b8ff" points="189.64,-169.5 199.64,-166 189.64,-162.5 189.64,-169.5"/>
</a>
</g>
</g>
<!-- Node6 -->
<g id="Node000006" class="node">
<title>Node6</title>
<g id="a_Node000006"><a xlink:href="class_u_skill_attribute_set.html#a877d1e3e82348524cc3ffb43ec266e45" target="_top" xlink:title=" ">
<polygon fill="white" stroke="#666666" points="149.5,-132 15.75,-132 15.75,-100 149.5,-100 149.5,-132"/>
<text xml:space="preserve" text-anchor="start" x="23.75" y="-118.5" font-family="Helvetica,sans-Serif" font-size="10.00">USkillAttributeSet</text>
<text xml:space="preserve" text-anchor="middle" x="82.62" y="-106.5" font-family="Helvetica,sans-Serif" font-size="10.00">::OnRep_DamageMultiplier</text>
</a>
</g>
</g>
<!-- Node1&#45;&gt;Node6 -->
<g id="edge5_Node000001_Node000006" class="edge">
<title>Node1&#45;&gt;Node6</title>
<g id="a_edge5_Node000001_Node000006"><a xlink:title=" ">
<path fill="none" stroke="#63b8ff" d="M190.28,-148.01C173.38,-142.93 155.08,-137.44 138.49,-132.46"/>
<polygon fill="#63b8ff" stroke="#63b8ff" points="189.12,-151.31 199.71,-150.83 191.14,-144.61 189.12,-151.31"/>
</a>
</g>
</g>
<!-- Node7 -->
<g id="Node000007" class="node">
<title>Node7</title>
<g id="a_Node000007"><a xlink:href="class_u_skill_attribute_set.html#ac7142f79c865eaabadcb6e2b3e3f542c" target="_top" xlink:title=" ">
<polygon fill="white" stroke="#666666" points="161.12,-82 4.12,-82 4.12,-50 161.12,-50 161.12,-82"/>
<text xml:space="preserve" text-anchor="start" x="12.12" y="-68.5" font-family="Helvetica,sans-Serif" font-size="10.00">USkillAttributeSet</text>
<text xml:space="preserve" text-anchor="middle" x="82.62" y="-56.5" font-family="Helvetica,sans-Serif" font-size="10.00">::OnRep_ProjectileSizeMultiplier</text>
</a>
</g>
</g>
<!-- Node1&#45;&gt;Node7 -->
<g id="edge6_Node000001_Node000007" class="edge">
<title>Node1&#45;&gt;Node7</title>
<g id="a_edge6_Node000001_Node000007"><a xlink:title=" ">
<path fill="none" stroke="#63b8ff" d="M228.11,-141.62C212.07,-125.26 189.09,-104.34 165.25,-91 159.56,-87.82 153.41,-84.99 147.14,-82.49"/>
<polygon fill="#63b8ff" stroke="#63b8ff" points="225.34,-143.8 234.78,-148.6 230.4,-138.96 225.34,-143.8"/>
</a>
</g>
</g>
<!-- Node8 -->
<g id="Node000008" class="node">
<title>Node8</title>
<g id="a_Node000008"><a xlink:href="class_u_skill_attribute_set.html#a2588807bdbcee16283a1c8304c562366" target="_top" xlink:title=" ">
<polygon fill="white" stroke="#666666" points="165.25,-32 0,-32 0,0 165.25,0 165.25,-32"/>
<text xml:space="preserve" text-anchor="start" x="8" y="-18.5" font-family="Helvetica,sans-Serif" font-size="10.00">USkillAttributeSet</text>
<text xml:space="preserve" text-anchor="middle" x="82.62" y="-6.5" font-family="Helvetica,sans-Serif" font-size="10.00">::OnRep_ProjectileSpeedMultiplier</text>
</a>
</g>
</g>
<!-- Node1&#45;&gt;Node8 -->
<g id="edge7_Node000001_Node000008" class="edge">
<title>Node1&#45;&gt;Node8</title>
<g id="a_edge7_Node000001_Node000008"><a xlink:title=" ">
<path fill="none" stroke="#63b8ff" d="M238.68,-139.17C225.09,-110.77 199.93,-66.58 165.25,-41 160.84,-37.75 155.99,-34.91 150.94,-32.44"/>
<polygon fill="#63b8ff" stroke="#63b8ff" points="235.47,-140.58 242.84,-148.2 241.83,-137.65 235.47,-140.58"/>
</a>
</g>
</g>
</g>
</svg>
</svg>

<style type='text/css'>
<![CDATA[
[data-mouse-over-selected='false'] { opacity: 0.7; }
[data-mouse-over-selected='true']  { opacity: 1.0; }
]]>
</style>
<script type="application/ecmascript"><![CDATA[
document.addEventListener('DOMContentLoaded', (event) => {
  highlightEdges();
  highlightAdjacentNodes();
});
]]></script>
</svg>
