<?xml version="1.0" encoding="UTF-8" standalone="no"?>
<!DOCTYPE svg PUBLIC "-//W3C//DTD SVG 1.1//EN"
 "http://www.w3.org/Graphics/SVG/1.1/DTD/svg11.dtd">
<!-- Generated by graphviz version 13.1.1 (20250719.2154)
 -->
<!-- Title: UBGMManager Pages: 1 -->
<svg width="184pt" height="396pt"
 viewBox="0.00 0.00 184.00 396.00" xmlns="http://www.w3.org/2000/svg" xmlns:xlink="http://www.w3.org/1999/xlink">
<g id="graph0" class="graph" transform="scale(1 1) rotate(0) translate(4 392)">
<title>UBGMManager</title>
<!-- Node1 -->
<g id="Node000001" class="node">
<title>Node1</title>
<g id="a_Node000001"><a xlink:title=" ">
<polygon fill="#999999" stroke="none" points="175.5,-300 0,-300 0,0 175.5,0 175.5,-300"/>
<text xml:space="preserve" text-anchor="start" x="54" y="-286.5" font-family="Helvetica,sans-Serif" font-size="10.00">UBGMManager</text>
<text xml:space="preserve" text-anchor="start" x="4.38" y="-270.5" font-family="Helvetica,sans-Serif" font-size="10.00">#</text>
<text xml:space="preserve" text-anchor="start" x="14" y="-270.5" font-family="Helvetica,sans-Serif" font-size="10.00">TObjectPtr&lt; AActor</text>
<text xml:space="preserve" text-anchor="start" x="14" y="-258.5" font-family="Helvetica,sans-Serif" font-size="10.00"> &gt; AudioHostActor</text>
<text xml:space="preserve" text-anchor="start" x="4.38" y="-242.5" font-family="Helvetica,sans-Serif" font-size="10.00">#</text>
<text xml:space="preserve" text-anchor="start" x="14" y="-242.5" font-family="Helvetica,sans-Serif" font-size="10.00">TObjectPtr&lt; UAudioComponent</text>
<text xml:space="preserve" text-anchor="start" x="14" y="-230.5" font-family="Helvetica,sans-Serif" font-size="10.00"> &gt; BGMAudioComponent</text>
<text xml:space="preserve" text-anchor="start" x="4.38" y="-214.5" font-family="Helvetica,sans-Serif" font-size="10.00">#</text>
<text xml:space="preserve" text-anchor="start" x="14" y="-214.5" font-family="Helvetica,sans-Serif" font-size="10.00">TObjectPtr&lt; USoundClass</text>
<text xml:space="preserve" text-anchor="start" x="14" y="-202.5" font-family="Helvetica,sans-Serif" font-size="10.00"> &gt; BGMSoundClass</text>
<text xml:space="preserve" text-anchor="start" x="4.38" y="-186.5" font-family="Helvetica,sans-Serif" font-size="10.00">#</text>
<text xml:space="preserve" text-anchor="start" x="14" y="-186.5" font-family="Helvetica,sans-Serif" font-size="10.00">TObjectPtr&lt; UDataTable</text>
<text xml:space="preserve" text-anchor="start" x="14" y="-174.5" font-family="Helvetica,sans-Serif" font-size="10.00"> &gt; BGMTable</text>
<text xml:space="preserve" text-anchor="start" x="4" y="-158.5" font-family="Helvetica,sans-Serif" font-size="10.00">+</text>
<text xml:space="preserve" text-anchor="start" x="14" y="-158.5" font-family="Helvetica,sans-Serif" font-size="10.00">UBGMManager()</text>
<text xml:space="preserve" text-anchor="start" x="4" y="-142.5" font-family="Helvetica,sans-Serif" font-size="10.00">+</text>
<text xml:space="preserve" text-anchor="start" x="14" y="-142.5" font-family="Helvetica,sans-Serif" font-size="10.00">void BGMInit(UAudioComponent</text>
<text xml:space="preserve" text-anchor="start" x="14" y="-130.5" font-family="Helvetica,sans-Serif" font-size="10.00"> *audio)</text>
<text xml:space="preserve" text-anchor="start" x="4" y="-114.5" font-family="Helvetica,sans-Serif" font-size="10.00">+</text>
<text xml:space="preserve" text-anchor="start" x="14" y="-114.5" font-family="Helvetica,sans-Serif" font-size="10.00">virtual void Deinitialize</text>
<text xml:space="preserve" text-anchor="start" x="14" y="-102.5" font-family="Helvetica,sans-Serif" font-size="10.00">() override</text>
<text xml:space="preserve" text-anchor="start" x="4" y="-86.5" font-family="Helvetica,sans-Serif" font-size="10.00">+</text>
<text xml:space="preserve" text-anchor="start" x="14" y="-86.5" font-family="Helvetica,sans-Serif" font-size="10.00">virtual void Initialize</text>
<text xml:space="preserve" text-anchor="start" x="14" y="-74.5" font-family="Helvetica,sans-Serif" font-size="10.00">(FSubsystemCollectionBase</text>
<text xml:space="preserve" text-anchor="start" x="14" y="-62.5" font-family="Helvetica,sans-Serif" font-size="10.00"> &amp;Collection) override</text>
<text xml:space="preserve" text-anchor="start" x="4" y="-46.5" font-family="Helvetica,sans-Serif" font-size="10.00">+</text>
<text xml:space="preserve" text-anchor="start" x="14" y="-46.5" font-family="Helvetica,sans-Serif" font-size="10.00">void PlayBGM(FName</text>
<text xml:space="preserve" text-anchor="start" x="14" y="-34.5" font-family="Helvetica,sans-Serif" font-size="10.00"> InName, float FadeInDuration=1.0f)</text>
<text xml:space="preserve" text-anchor="start" x="4" y="-18.5" font-family="Helvetica,sans-Serif" font-size="10.00">+</text>
<text xml:space="preserve" text-anchor="start" x="14" y="-18.5" font-family="Helvetica,sans-Serif" font-size="10.00">void StopBGM(float</text>
<text xml:space="preserve" text-anchor="start" x="14" y="-6.5" font-family="Helvetica,sans-Serif" font-size="10.00"> FadeOutDuration=1.0f)</text>
<polygon fill="#666666" stroke="#666666" points="0,-282 0,-282 175.5,-282 175.5,-282 0,-282"/>
<polygon fill="#666666" stroke="#666666" points="0,-170 0,-170 12,-170 12,-170 0,-170"/>
<polygon fill="#666666" stroke="#666666" points="12,-170 12,-170 175.5,-170 175.5,-170 12,-170"/>
<polygon fill="none" stroke="#666666" points="0,0 0,-300 175.5,-300 175.5,0 0,0"/>
</a>
</g>
</g>
<!-- Node2 -->
<g id="Node000002" class="node">
<title>Node2</title>
<g id="a_Node000002"><a xlink:title=" ">
<polygon fill="white" stroke="none" points="152.12,-388 23.38,-388 23.38,-336 152.12,-336 152.12,-388"/>
<text xml:space="preserve" text-anchor="start" x="27.38" y="-374.5" font-family="Helvetica,sans-Serif" font-size="10.00">UGameInstanceSubsystem</text>
<text xml:space="preserve" text-anchor="start" x="86.25" y="-358.5" font-family="Helvetica,sans-Serif" font-size="10.00"> </text>
<text xml:space="preserve" text-anchor="start" x="86.25" y="-342.5" font-family="Helvetica,sans-Serif" font-size="10.00"> </text>
<polygon fill="#666666" stroke="#666666" points="23.38,-370 23.38,-370 152.12,-370 152.12,-370 23.38,-370"/>
<polygon fill="#666666" stroke="#666666" points="23.38,-354 23.38,-354 152.12,-354 152.12,-354 23.38,-354"/>
<polygon fill="none" stroke="#666666" points="23.38,-336 23.38,-388 152.12,-388 152.12,-336 23.38,-336"/>
</a>
</g>
</g>
<!-- Node2&#45;&gt;Node1 -->
<g id="edge1_Node000001_Node000002" class="edge">
<title>Node2&#45;&gt;Node1</title>
<g id="a_edge1_Node000001_Node000002"><a xlink:title=" ">
<path fill="none" stroke="#63b8ff" d="M87.75,-324.58C87.75,-317.01 87.75,-308.6 87.75,-299.68"/>
<polygon fill="none" stroke="#63b8ff" points="84.25,-324.57 87.75,-334.57 91.25,-324.57 84.25,-324.57"/>
</a>
</g>
</g>
</g>
</svg>
