<?xml version="1.0" encoding="UTF-8" standalone="no"?>
<!DOCTYPE svg PUBLIC "-//W3C//DTD SVG 1.1//EN"
 "http://www.w3.org/Graphics/SVG/1.1/DTD/svg11.dtd">
<!-- Generated by graphviz version 13.1.1 (20250719.2154)
 -->
<!-- Title: AKPTLobbyGameMode Pages: 1 -->
<svg width="200pt" height="404pt"
 viewBox="0.00 0.00 200.00 404.00" xmlns="http://www.w3.org/2000/svg" xmlns:xlink="http://www.w3.org/1999/xlink">
<g id="graph0" class="graph" transform="scale(1 1) rotate(0) translate(4 400)">
<title>AKPTLobbyGameMode</title>
<!-- Node1 -->
<g id="Node000001" class="node">
<title>Node1</title>
<g id="a_Node000001"><a xlink:title=" ">
<polygon fill="#999999" stroke="none" points="192,-308 0,-308 0,0 192,0 192,-308"/>
<text xml:space="preserve" text-anchor="start" x="44.62" y="-294.5" font-family="Helvetica,sans-Serif" font-size="10.00">AKPTLobbyGameMode</text>
<text xml:space="preserve" text-anchor="start" x="4.38" y="-278.5" font-family="Helvetica,sans-Serif" font-size="10.00">#</text>
<text xml:space="preserve" text-anchor="start" x="14" y="-278.5" font-family="Helvetica,sans-Serif" font-size="10.00">TObjectPtr&lt; UDataTable</text>
<text xml:space="preserve" text-anchor="start" x="14" y="-266.5" font-family="Helvetica,sans-Serif" font-size="10.00"> &gt; CharacterDataTable</text>
<text xml:space="preserve" text-anchor="start" x="4.38" y="-250.5" font-family="Helvetica,sans-Serif" font-size="10.00">#</text>
<text xml:space="preserve" text-anchor="start" x="14" y="-250.5" font-family="Helvetica,sans-Serif" font-size="10.00">FName MainGameLevelURL</text>
<text xml:space="preserve" text-anchor="start" x="4" y="-234.5" font-family="Helvetica,sans-Serif" font-size="10.00">+</text>
<text xml:space="preserve" text-anchor="start" x="14" y="-234.5" font-family="Helvetica,sans-Serif" font-size="10.00">AKPTLobbyGameMode()</text>
<text xml:space="preserve" text-anchor="start" x="4" y="-218.5" font-family="Helvetica,sans-Serif" font-size="10.00">+</text>
<text xml:space="preserve" text-anchor="start" x="14" y="-218.5" font-family="Helvetica,sans-Serif" font-size="10.00">void UpdatePlayerReadyState</text>
<text xml:space="preserve" text-anchor="start" x="14" y="-206.5" font-family="Helvetica,sans-Serif" font-size="10.00">(AController *PlayerController,</text>
<text xml:space="preserve" text-anchor="start" x="14" y="-194.5" font-family="Helvetica,sans-Serif" font-size="10.00"> bool bIsReady)</text>
<text xml:space="preserve" text-anchor="start" x="4" y="-178.5" font-family="Helvetica,sans-Serif" font-size="10.00">+</text>
<text xml:space="preserve" text-anchor="start" x="14" y="-178.5" font-family="Helvetica,sans-Serif" font-size="10.00">void UpdatePlayerSelected</text>
<text xml:space="preserve" text-anchor="start" x="14" y="-166.5" font-family="Helvetica,sans-Serif" font-size="10.00">Character(AController *PlayerController,</text>
<text xml:space="preserve" text-anchor="start" x="14" y="-154.5" font-family="Helvetica,sans-Serif" font-size="10.00"> FGameplayTag CharacterID)</text>
<text xml:space="preserve" text-anchor="start" x="4.38" y="-138.5" font-family="Helvetica,sans-Serif" font-size="10.00">#</text>
<text xml:space="preserve" text-anchor="start" x="14" y="-138.5" font-family="Helvetica,sans-Serif" font-size="10.00">virtual void BeginPlay</text>
<text xml:space="preserve" text-anchor="start" x="14" y="-126.5" font-family="Helvetica,sans-Serif" font-size="10.00">() override</text>
<text xml:space="preserve" text-anchor="start" x="4.38" y="-110.5" font-family="Helvetica,sans-Serif" font-size="10.00">#</text>
<text xml:space="preserve" text-anchor="start" x="14" y="-110.5" font-family="Helvetica,sans-Serif" font-size="10.00">virtual void HandleSeamless</text>
<text xml:space="preserve" text-anchor="start" x="14" y="-98.5" font-family="Helvetica,sans-Serif" font-size="10.00">TravelPlayer(AController</text>
<text xml:space="preserve" text-anchor="start" x="14" y="-86.5" font-family="Helvetica,sans-Serif" font-size="10.00"> *&amp;C) override</text>
<text xml:space="preserve" text-anchor="start" x="4.38" y="-70.5" font-family="Helvetica,sans-Serif" font-size="10.00">#</text>
<text xml:space="preserve" text-anchor="start" x="14" y="-70.5" font-family="Helvetica,sans-Serif" font-size="10.00">virtual void Logout</text>
<text xml:space="preserve" text-anchor="start" x="14" y="-58.5" font-family="Helvetica,sans-Serif" font-size="10.00">(AController *Exiting)</text>
<text xml:space="preserve" text-anchor="start" x="14" y="-46.5" font-family="Helvetica,sans-Serif" font-size="10.00"> override</text>
<text xml:space="preserve" text-anchor="start" x="4.38" y="-30.5" font-family="Helvetica,sans-Serif" font-size="10.00">#</text>
<text xml:space="preserve" text-anchor="start" x="14" y="-30.5" font-family="Helvetica,sans-Serif" font-size="10.00">virtual void PostLogin</text>
<text xml:space="preserve" text-anchor="start" x="14" y="-18.5" font-family="Helvetica,sans-Serif" font-size="10.00">(APlayerController *NewPlayer)</text>
<text xml:space="preserve" text-anchor="start" x="14" y="-6.5" font-family="Helvetica,sans-Serif" font-size="10.00"> override</text>
<polygon fill="#666666" stroke="#666666" points="0,-290 0,-290 192,-290 192,-290 0,-290"/>
<polygon fill="#666666" stroke="#666666" points="0,-246 0,-246 12,-246 12,-246 0,-246"/>
<polygon fill="#666666" stroke="#666666" points="12,-246 12,-246 192,-246 192,-246 12,-246"/>
<polygon fill="none" stroke="#666666" points="0,0 0,-308 192,-308 192,0 0,0"/>
</a>
</g>
</g>
<!-- Node2 -->
<g id="Node000002" class="node">
<title>Node2</title>
<g id="a_Node000002"><a xlink:title=" ">
<polygon fill="white" stroke="none" points="128.5,-396 63.5,-396 63.5,-344 128.5,-344 128.5,-396"/>
<text xml:space="preserve" text-anchor="start" x="67.5" y="-382.5" font-family="Helvetica,sans-Serif" font-size="10.00">AGameMode</text>
<text xml:space="preserve" text-anchor="start" x="94.5" y="-366.5" font-family="Helvetica,sans-Serif" font-size="10.00"> </text>
<text xml:space="preserve" text-anchor="start" x="94.5" y="-350.5" font-family="Helvetica,sans-Serif" font-size="10.00"> </text>
<polygon fill="#666666" stroke="#666666" points="63.5,-378 63.5,-378 128.5,-378 128.5,-378 63.5,-378"/>
<polygon fill="#666666" stroke="#666666" points="63.5,-362 63.5,-362 128.5,-362 128.5,-362 63.5,-362"/>
<polygon fill="none" stroke="#666666" points="63.5,-344 63.5,-396 128.5,-396 128.5,-344 63.5,-344"/>
</a>
</g>
</g>
<!-- Node2&#45;&gt;Node1 -->
<g id="edge1_Node000001_Node000002" class="edge">
<title>Node2&#45;&gt;Node1</title>
<g id="a_edge1_Node000001_Node000002"><a xlink:title=" ">
<path fill="none" stroke="#63b8ff" d="M96,-332.61C96,-325.1 96,-316.75 96,-307.89"/>
<polygon fill="none" stroke="#63b8ff" points="92.5,-332.52 96,-342.52 99.5,-332.52 92.5,-332.52"/>
</a>
</g>
</g>
</g>
</svg>
