<?xml version="1.0" encoding="UTF-8" standalone="no"?>
<!DOCTYPE svg PUBLIC "-//W3C//DTD SVG 1.1//EN"
 "http://www.w3.org/Graphics/SVG/1.1/DTD/svg11.dtd">
<!-- Generated by graphviz version 13.1.1 (20250719.2154)
 -->
<!-- Title: ADelayProjectileBase::CallProcessMultiHit Pages: 1 -->
<svg width="451pt" height="58pt"
 viewBox="0.00 0.00 451.00 58.00" xmlns="http://www.w3.org/2000/svg" xmlns:xlink="http://www.w3.org/1999/xlink">
<g id="graph0" class="graph" transform="scale(1 1) rotate(0) translate(4 54)">
<title>ADelayProjectileBase::CallProcessMultiHit</title>
<!-- Node1 -->
<g id="Node000001" class="node">
<title>Node1</title>
<g id="a_Node000001"><a xlink:title=" ">
<polygon fill="#999999" stroke="#666666" points="442.5,-32 331.25,-32 331.25,0 442.5,0 442.5,-32"/>
<text xml:space="preserve" text-anchor="start" x="339.25" y="-18.5" font-family="Helvetica,sans-Serif" font-size="10.00">ADelayProjectileBase</text>
<text xml:space="preserve" text-anchor="middle" x="386.88" y="-6.5" font-family="Helvetica,sans-Serif" font-size="10.00">::CallProcessMultiHit</text>
</a>
</g>
</g>
<!-- Node2 -->
<g id="Node000002" class="node">
<title>Node2</title>
<g id="a_Node000002"><a xlink:href="class_a_delay_projectile_base.html#a21e41ef4c2deb55b121b92134fc730ff" target="_top" xlink:title=" ">
<polygon fill="white" stroke="#666666" points="295.25,-32 184,-32 184,0 295.25,0 295.25,-32"/>
<text xml:space="preserve" text-anchor="start" x="192" y="-18.5" font-family="Helvetica,sans-Serif" font-size="10.00">ADelayProjectileBase</text>
<text xml:space="preserve" text-anchor="middle" x="239.62" y="-6.5" font-family="Helvetica,sans-Serif" font-size="10.00">::OnGroundHit</text>
</a>
</g>
</g>
<!-- Node1&#45;&gt;Node2 -->
<g id="edge1_Node000001_Node000002" class="edge">
<title>Node1&#45;&gt;Node2</title>
<g id="a_edge1_Node000001_Node000002"><a xlink:title=" ">
<path fill="none" stroke="#63b8ff" d="M319.69,-16C311.64,-16 303.48,-16 295.62,-16"/>
<polygon fill="#63b8ff" stroke="#63b8ff" points="319.45,-19.5 329.45,-16 319.45,-12.5 319.45,-19.5"/>
</a>
</g>
</g>
<!-- Node2&#45;&gt;Node2 -->
<g id="edge3_Node000002_Node000002" class="edge">
<title>Node2&#45;&gt;Node2</title>
<g id="a_edge3_Node000002_Node000002"><a xlink:title=" ">
<path fill="none" stroke="#63b8ff" d="M264.16,-43.71C260.07,-47.48 251.89,-50 239.62,-50 217.19,-50 208.43,-41.58 213.34,-32.44"/>
<polygon fill="#63b8ff" stroke="#63b8ff" points="267.6,-44.36 265.68,-33.94 260.69,-43.28 267.6,-44.36"/>
</a>
</g>
</g>
<!-- Node3 -->
<g id="Node000003" class="node">
<title>Node3</title>
<g id="a_Node000003"><a xlink:href="class_a_delay_projectile_base.html#a2ee2f7c1e60d44c30e70b862fe60b65e" target="_top" xlink:title=" ">
<polygon fill="white" stroke="#666666" points="148,-32 0,-32 0,0 148,0 148,-32"/>
<text xml:space="preserve" text-anchor="start" x="8" y="-18.5" font-family="Helvetica,sans-Serif" font-size="10.00">ADelayProjectileBase</text>
<text xml:space="preserve" text-anchor="middle" x="74" y="-6.5" font-family="Helvetica,sans-Serif" font-size="10.00">::OnActivated_Implementation</text>
</a>
</g>
</g>
<!-- Node2&#45;&gt;Node3 -->
<g id="edge2_Node000002_Node000003" class="edge">
<title>Node2&#45;&gt;Node3</title>
<g id="a_edge2_Node000002_Node000003"><a xlink:title=" ">
<path fill="none" stroke="#63b8ff" d="M172.32,-16C164.44,-16 156.37,-16 148.4,-16"/>
<polygon fill="#63b8ff" stroke="#63b8ff" points="172.17,-19.5 182.17,-16 172.17,-12.5 172.17,-19.5"/>
</a>
</g>
</g>
</g>
</svg>
