<?xml version="1.0" encoding="UTF-8" standalone="no"?>
<!DOCTYPE svg PUBLIC "-//W3C//DTD SVG 1.1//EN"
 "http://www.w3.org/Graphics/SVG/1.1/DTD/svg11.dtd">
<!-- Generated by graphviz version 13.1.1 (20250719.2154)
 -->
<!-- Title: UKPTBaseAttributeSet::OnRep_Health Pages: 1 -->
<svg width="492pt" height="62pt"
 viewBox="0.00 0.00 492.00 62.00" xmlns="http://www.w3.org/2000/svg" xmlns:xlink="http://www.w3.org/1999/xlink">

<svg id="main" version="1.1" xmlns="http://www.w3.org/2000/svg" xmlns:xlink="http://www.w3.org/1999/xlink" xml:space="preserve">

<style type="text/css"><![CDATA[
.node, .edge {opacity: 0.7;}
.node.selected, .edge.selected {opacity: 1;}
.edge:hover path { stroke: red; }
.edge:hover polygon { stroke: red; fill: red; }
]]></style>
<script type="application/ecmascript" xlink:href="svg.min.js"/>
<svg id="graph" class="graph">
<g id="graph0" class="graph" transform="scale(1 1) rotate(0) translate(4 58)">
<title>UKPTBaseAttributeSet::OnRep_Health</title>
<!-- Node1 -->
<g id="Node000001" class="node">
<title>Node1</title>
<g id="a_Node000001"><a xlink:title=" ">
<polygon fill="#999999" stroke="#666666" points="483.75,-54 366.5,-54 366.5,-22 483.75,-22 483.75,-54"/>
<text xml:space="preserve" text-anchor="start" x="374.5" y="-40.5" font-family="Helvetica,sans-Serif" font-size="10.00">UKPTBaseAttributeSet</text>
<text xml:space="preserve" text-anchor="middle" x="425.12" y="-28.5" font-family="Helvetica,sans-Serif" font-size="10.00">::OnRep_Health</text>
</a>
</g>
</g>
<!-- Node2 -->
<g id="Node000002" class="node">
<title>Node2</title>
<g id="a_Node000002"><a xlink:href="class_u_k_p_t_base_attribute_set.html#a225f828fc9a99dbe8962a5fefb7518e6" target="_top" xlink:title=" ">
<polygon fill="white" stroke="#666666" points="146.5,-54 0,-54 0,-22 146.5,-22 146.5,-54"/>
<text xml:space="preserve" text-anchor="start" x="8" y="-40.5" font-family="Helvetica,sans-Serif" font-size="10.00">UKPTBaseAttributeSet</text>
<text xml:space="preserve" text-anchor="middle" x="73.25" y="-28.5" font-family="Helvetica,sans-Serif" font-size="10.00">::ATTRIBUTE_ACCESSORS</text>
</a>
</g>
</g>
<!-- Node1&#45;&gt;Node2 -->
<g id="edge1_Node000001_Node000002" class="edge">
<title>Node1&#45;&gt;Node2</title>
<g id="a_edge1_Node000001_Node000002"><a xlink:title=" ">
<path fill="none" stroke="#63b8ff" d="M354.73,-40.47C346.56,-40.69 338.35,-40.87 330.5,-41 264.73,-42.05 248.27,-41.91 182.5,-41 170.94,-40.84 158.68,-40.58 146.74,-40.29"/>
<polygon fill="#63b8ff" stroke="#63b8ff" points="354.79,-43.97 364.68,-40.19 354.59,-36.97 354.79,-43.97"/>
</a>
</g>
</g>
<!-- Node3 -->
<g id="Node000003" class="node">
<title>Node3</title>
<g id="a_Node000003"><a xlink:href="class_u_k_p_t_base_attribute_set.html#afc4d5faaf00935c85fec041169977759" target="_top" xlink:title=" ">
<polygon fill="white" stroke="#666666" points="330.5,-32 182.5,-32 182.5,0 330.5,0 330.5,-32"/>
<text xml:space="preserve" text-anchor="start" x="190.5" y="-18.5" font-family="Helvetica,sans-Serif" font-size="10.00">UKPTBaseAttributeSet</text>
<text xml:space="preserve" text-anchor="middle" x="256.5" y="-6.5" font-family="Helvetica,sans-Serif" font-size="10.00">::PostGameplayEffectExecute</text>
</a>
</g>
</g>
<!-- Node1&#45;&gt;Node3 -->
<g id="edge2_Node000001_Node000003" class="edge">
<title>Node1&#45;&gt;Node3</title>
<g id="a_edge2_Node000001_Node000003"><a xlink:title=" ">
<path fill="none" stroke="#63b8ff" d="M355.11,-28.89C347.07,-27.83 338.85,-26.74 330.76,-25.67"/>
<polygon fill="#63b8ff" stroke="#63b8ff" points="354.44,-32.33 364.81,-30.17 355.36,-25.39 354.44,-32.33"/>
</a>
</g>
</g>
<!-- Node3&#45;&gt;Node2 -->
<g id="edge3_Node000003_Node000002" class="edge">
<title>Node3&#45;&gt;Node2</title>
<g id="a_edge3_Node000003_Node000002"><a xlink:title=" ">
<path fill="none" stroke="#63b8ff" d="M170.82,-26.28C162.84,-27.25 154.79,-28.22 146.93,-29.18"/>
<polygon fill="#63b8ff" stroke="#63b8ff" points="171.03,-29.78 180.54,-25.1 170.19,-22.83 171.03,-29.78"/>
</a>
</g>
</g>
</g>
</svg>
</svg>

<style type='text/css'>
<![CDATA[
[data-mouse-over-selected='false'] { opacity: 0.7; }
[data-mouse-over-selected='true']  { opacity: 1.0; }
]]>
</style>
<script type="application/ecmascript"><![CDATA[
document.addEventListener('DOMContentLoaded', (event) => {
  highlightEdges();
  highlightAdjacentNodes();
});
]]></script>
</svg>
