<?xml version="1.0" encoding="UTF-8" standalone="no"?>
<!DOCTYPE svg PUBLIC "-//W3C//DTD SVG 1.1//EN"
 "http://www.w3.org/Graphics/SVG/1.1/DTD/svg11.dtd">
<!-- Generated by graphviz version 13.1.1 (20250719.2154)
 -->
<!-- Title: UStraightSeqSkillAbility::ActivateAbility Pages: 1 -->
<svg width="1208pt" height="283pt"
 viewBox="0.00 0.00 1208.00 283.00" xmlns="http://www.w3.org/2000/svg" xmlns:xlink="http://www.w3.org/1999/xlink">
<g id="graph0" class="graph" transform="scale(1 1) rotate(0) translate(4 279)">
<title>UStraightSeqSkillAbility::ActivateAbility</title>
<!-- Node1 -->
<g id="Node000001" class="node">
<title>Node1</title>
<g id="a_Node000001"><a xlink:title=" ">
<polygon fill="#999999" stroke="#666666" points="120.25,-132 0,-132 0,-100 120.25,-100 120.25,-132"/>
<text xml:space="preserve" text-anchor="start" x="8" y="-118.5" font-family="Helvetica,sans-Serif" font-size="10.00">UStraightSeqSkillAbility</text>
<text xml:space="preserve" text-anchor="middle" x="60.12" y="-106.5" font-family="Helvetica,sans-Serif" font-size="10.00">::ActivateAbility</text>
</a>
</g>
</g>
<!-- Node2 -->
<g id="Node000002" class="node">
<title>Node2</title>
<g id="a_Node000002"><a xlink:href="class_u_straight_seq_skill_ability.html#a207d39125f09d62a172614e0490a0f14" target="_top" xlink:title=" ">
<polygon fill="white" stroke="#666666" points="302,-132 156.25,-132 156.25,-100 302,-100 302,-132"/>
<text xml:space="preserve" text-anchor="start" x="164.25" y="-118.5" font-family="Helvetica,sans-Serif" font-size="10.00">UStraightSeqSkillAbility</text>
<text xml:space="preserve" text-anchor="middle" x="229.12" y="-106.5" font-family="Helvetica,sans-Serif" font-size="10.00">::SpawnAndInitializeProjectile</text>
</a>
</g>
</g>
<!-- Node1&#45;&gt;Node2 -->
<g id="edge1_Node000001_Node000002" class="edge">
<title>Node1&#45;&gt;Node2</title>
<g id="a_edge1_Node000001_Node000002"><a xlink:title=" ">
<path fill="none" stroke="#63b8ff" d="M120.47,-116C128.25,-116 136.33,-116 144.41,-116"/>
<polygon fill="#63b8ff" stroke="#63b8ff" points="144.29,-119.5 154.29,-116 144.29,-112.5 144.29,-119.5"/>
</a>
</g>
</g>
<!-- Node3 -->
<g id="Node000003" class="node">
<title>Node3</title>
<g id="a_Node000003"><a xlink:href="class_a_projectile_base.html#ac67469fcdd8411a27a35b524a43f4d32" target="_top" xlink:title=" ">
<polygon fill="white" stroke="#666666" points="470.62,-232 342.88,-232 342.88,-200 470.62,-200 470.62,-232"/>
<text xml:space="preserve" text-anchor="start" x="350.88" y="-218.5" font-family="Helvetica,sans-Serif" font-size="10.00">AProjectileBase::Activate</text>
<text xml:space="preserve" text-anchor="middle" x="406.75" y="-206.5" font-family="Helvetica,sans-Serif" font-size="10.00">Projectile</text>
</a>
</g>
</g>
<!-- Node2&#45;&gt;Node3 -->
<g id="edge2_Node000002_Node000003" class="edge">
<title>Node2&#45;&gt;Node3</title>
<g id="a_edge2_Node000002_Node000003"><a xlink:title=" ">
<path fill="none" stroke="#63b8ff" d="M250.21,-132.31C271.16,-148.74 305.43,-174.02 338,-191 340.67,-192.39 343.44,-193.74 346.25,-195.05"/>
<polygon fill="#63b8ff" stroke="#63b8ff" points="344.67,-198.18 355.24,-198.96 347.47,-191.76 344.67,-198.18"/>
</a>
</g>
</g>
<!-- Node9 -->
<g id="Node000009" class="node">
<title>Node9</title>
<g id="a_Node000009"><a xlink:href="class_u_base_skill_ability.html#a417674acacd1245fc05ddbb5bfbbfbcc" target="_top" xlink:title=" ">
<polygon fill="white" stroke="#666666" points="458.25,-182 355.25,-182 355.25,-150 458.25,-150 458.25,-182"/>
<text xml:space="preserve" text-anchor="start" x="363.25" y="-168.5" font-family="Helvetica,sans-Serif" font-size="10.00">UBaseSkillAbility::</text>
<text xml:space="preserve" text-anchor="middle" x="406.75" y="-156.5" font-family="Helvetica,sans-Serif" font-size="10.00">ApplySkillCooldown</text>
</a>
</g>
</g>
<!-- Node2&#45;&gt;Node9 -->
<g id="edge10_Node000002_Node000009" class="edge">
<title>Node2&#45;&gt;Node9</title>
<g id="a_edge10_Node000002_Node000009"><a xlink:title=" ">
<path fill="none" stroke="#63b8ff" d="M287.63,-132.37C305.69,-137.51 325.71,-143.21 344.05,-148.43"/>
<polygon fill="#63b8ff" stroke="#63b8ff" points="342.89,-151.74 353.46,-151.11 344.8,-145.01 342.89,-151.74"/>
</a>
</g>
</g>
<!-- Node10 -->
<g id="Node000010" class="node">
<title>Node10</title>
<g id="a_Node000010"><a xlink:href="class_u_straight_seq_skill_ability.html#a5372151f236161b19c69b13f1884aa00" target="_top" xlink:title=" ">
<polygon fill="white" stroke="#666666" points="475.5,-132 338,-132 338,-100 475.5,-100 475.5,-132"/>
<text xml:space="preserve" text-anchor="start" x="346" y="-118.5" font-family="Helvetica,sans-Serif" font-size="10.00">UStraightSeqSkillAbility</text>
<text xml:space="preserve" text-anchor="middle" x="406.75" y="-106.5" font-family="Helvetica,sans-Serif" font-size="10.00">::CalculateSpawnTransform</text>
</a>
</g>
</g>
<!-- Node2&#45;&gt;Node10 -->
<g id="edge11_Node000002_Node000010" class="edge">
<title>Node2&#45;&gt;Node10</title>
<g id="a_edge11_Node000002_Node000010"><a xlink:title=" ">
<path fill="none" stroke="#63b8ff" d="M302.32,-116C310.14,-116 318.13,-116 326.03,-116"/>
<polygon fill="#63b8ff" stroke="#63b8ff" points="326,-119.5 336,-116 326,-112.5 326,-119.5"/>
</a>
</g>
</g>
<!-- Node11 -->
<g id="Node000011" class="node">
<title>Node11</title>
<g id="a_Node000011"><a xlink:href="class_u_straight_seq_skill_ability.html#a7c25e68a106c24b8aab17b18ce1f532e" target="_top" xlink:title=" ">
<polygon fill="white" stroke="#666666" points="466.88,-82 346.62,-82 346.62,-50 466.88,-50 466.88,-82"/>
<text xml:space="preserve" text-anchor="start" x="354.62" y="-68.5" font-family="Helvetica,sans-Serif" font-size="10.00">UStraightSeqSkillAbility</text>
<text xml:space="preserve" text-anchor="middle" x="406.75" y="-56.5" font-family="Helvetica,sans-Serif" font-size="10.00">::OnEndAbility</text>
</a>
</g>
</g>
<!-- Node2&#45;&gt;Node11 -->
<g id="edge12_Node000002_Node000011" class="edge">
<title>Node2&#45;&gt;Node11</title>
<g id="a_edge12_Node000002_Node000011"><a xlink:title=" ">
<path fill="none" stroke="#63b8ff" d="M287.63,-99.63C303.47,-95.12 320.81,-90.18 337.2,-85.52"/>
<polygon fill="#63b8ff" stroke="#63b8ff" points="337.7,-89.01 346.36,-82.91 335.78,-82.28 337.7,-89.01"/>
</a>
</g>
</g>
<!-- Node12 -->
<g id="Node000012" class="node">
<title>Node12</title>
<g id="a_Node000012"><a xlink:href="class_u_projectile_pool_subsystem.html#ab3f6d4e27cfee8b6b1368e6809a94488" target="_top" xlink:title=" ">
<polygon fill="white" stroke="#666666" points="473.25,-32 340.25,-32 340.25,0 473.25,0 473.25,-32"/>
<text xml:space="preserve" text-anchor="start" x="348.25" y="-18.5" font-family="Helvetica,sans-Serif" font-size="10.00">UProjectilePoolSubsystem</text>
<text xml:space="preserve" text-anchor="middle" x="406.75" y="-6.5" font-family="Helvetica,sans-Serif" font-size="10.00">::RequestProjectile</text>
</a>
</g>
</g>
<!-- Node2&#45;&gt;Node12 -->
<g id="edge13_Node000002_Node000012" class="edge">
<title>Node2&#45;&gt;Node12</title>
<g id="a_edge13_Node000002_Node000012"><a xlink:title=" ">
<path fill="none" stroke="#63b8ff" d="M250.21,-99.69C271.16,-83.26 305.43,-57.98 338,-41 340.67,-39.61 343.44,-38.26 346.25,-36.95"/>
<polygon fill="#63b8ff" stroke="#63b8ff" points="347.47,-40.24 355.24,-33.04 344.67,-33.82 347.47,-40.24"/>
</a>
</g>
</g>
<!-- Node4 -->
<g id="Node000004" class="node">
<title>Node4</title>
<g id="a_Node000004"><a xlink:href="class_a_projectile_base.html#af029d253170fd4537553bbdada80b4c1" target="_top" xlink:title=" ">
<polygon fill="white" stroke="#666666" points="656.88,-257 525.38,-257 525.38,-225 656.88,-225 656.88,-257"/>
<text xml:space="preserve" text-anchor="start" x="533.38" y="-243.5" font-family="Helvetica,sans-Serif" font-size="10.00">AProjectileBase::Multicast</text>
<text xml:space="preserve" text-anchor="middle" x="591.12" y="-231.5" font-family="Helvetica,sans-Serif" font-size="10.00">_Activate</text>
</a>
</g>
</g>
<!-- Node3&#45;&gt;Node4 -->
<g id="edge3_Node000003_Node000004" class="edge">
<title>Node3&#45;&gt;Node4</title>
<g id="a_edge3_Node000003_Node000004"><a xlink:title=" ">
<path fill="none" stroke="#63b8ff" d="M471.02,-224.67C484.82,-226.57 499.57,-228.59 513.82,-230.54"/>
<polygon fill="#63b8ff" stroke="#63b8ff" points="513.22,-233.99 523.61,-231.88 514.17,-227.06 513.22,-233.99"/>
</a>
</g>
</g>
<!-- Node5 -->
<g id="Node000005" class="node">
<title>Node5</title>
<g id="a_Node000005"><a xlink:href="class_a_projectile_base.html#a5469168d24245574326a686059bf6ca8" target="_top" xlink:title=" ">
<polygon fill="white" stroke="#666666" points="662.5,-207 519.75,-207 519.75,-175 662.5,-175 662.5,-207"/>
<text xml:space="preserve" text-anchor="start" x="527.75" y="-193.5" font-family="Helvetica,sans-Serif" font-size="10.00">AProjectileBase::OnLifeSpan</text>
<text xml:space="preserve" text-anchor="middle" x="591.12" y="-181.5" font-family="Helvetica,sans-Serif" font-size="10.00">Expired</text>
</a>
</g>
</g>
<!-- Node3&#45;&gt;Node5 -->
<g id="edge5_Node000003_Node000005" class="edge">
<title>Node3&#45;&gt;Node5</title>
<g id="a_edge5_Node000003_Node000005"><a xlink:title=" ">
<path fill="none" stroke="#63b8ff" d="M471.02,-207.33C483,-205.69 495.68,-203.95 508.13,-202.24"/>
<polygon fill="#63b8ff" stroke="#63b8ff" points="508.54,-205.72 517.98,-200.89 507.59,-198.78 508.54,-205.72"/>
</a>
</g>
</g>
<!-- Node4&#45;&gt;Node4 -->
<g id="edge4_Node000004_Node000004" class="edge">
<title>Node4&#45;&gt;Node4</title>
<g id="a_edge4_Node000004_Node000004"><a xlink:title=" ">
<path fill="none" stroke="#63b8ff" d="M558.21,-257.44C552.06,-266.58 563.04,-275 591.12,-275 606.49,-275 616.73,-272.48 621.85,-268.71"/>
<polygon fill="#63b8ff" stroke="#63b8ff" points="625.28,-269.41 623.75,-258.93 618.41,-268.08 625.28,-269.41"/>
</a>
</g>
</g>
<!-- Node6 -->
<g id="Node000006" class="node">
<title>Node6</title>
<g id="a_Node000006"><a xlink:href="class_a_projectile_base.html#a2276af661735f8971f6af66c6db7633d" target="_top" xlink:title=" ">
<polygon fill="white" stroke="#666666" points="857.75,-201 706.75,-201 706.75,-181 857.75,-181 857.75,-201"/>
<text xml:space="preserve" text-anchor="middle" x="782.25" y="-187.5" font-family="Helvetica,sans-Serif" font-size="10.00">AProjectileBase::ReturnToPool</text>
</a>
</g>
</g>
<!-- Node5&#45;&gt;Node6 -->
<g id="edge6_Node000005_Node000006" class="edge">
<title>Node5&#45;&gt;Node6</title>
<g id="a_edge6_Node000005_Node000006"><a xlink:title=" ">
<path fill="none" stroke="#63b8ff" d="M662.82,-191C673.41,-191 684.42,-191 695.29,-191"/>
<polygon fill="#63b8ff" stroke="#63b8ff" points="695.02,-194.5 705.02,-191 695.02,-187.5 695.02,-194.5"/>
</a>
</g>
</g>
<!-- Node7 -->
<g id="Node000007" class="node">
<title>Node7</title>
<g id="a_Node000007"><a xlink:href="class_a_projectile_base.html#a56f85c58a5c516ddd3e66fbb115eb20d" target="_top" xlink:title=" ">
<polygon fill="white" stroke="#666666" points="1032.75,-207 893.75,-207 893.75,-175 1032.75,-175 1032.75,-207"/>
<text xml:space="preserve" text-anchor="start" x="901.75" y="-193.5" font-family="Helvetica,sans-Serif" font-size="10.00">AProjectileBase::Deactivate</text>
<text xml:space="preserve" text-anchor="middle" x="963.25" y="-181.5" font-family="Helvetica,sans-Serif" font-size="10.00">Projectile</text>
</a>
</g>
</g>
<!-- Node6&#45;&gt;Node7 -->
<g id="edge7_Node000006_Node000007" class="edge">
<title>Node6&#45;&gt;Node7</title>
<g id="a_edge7_Node000006_Node000007"><a xlink:title=" ">
<path fill="none" stroke="#63b8ff" d="M858.12,-191C865.98,-191 873.98,-191 881.9,-191"/>
<polygon fill="#63b8ff" stroke="#63b8ff" points="881.87,-194.5 891.87,-191 881.87,-187.5 881.87,-194.5"/>
</a>
</g>
</g>
<!-- Node8 -->
<g id="Node000008" class="node">
<title>Node8</title>
<g id="a_Node000008"><a xlink:href="class_a_projectile_base.html#a76b21edb2d7e6427f03a3be58488ef52" target="_top" xlink:title=" ">
<polygon fill="white" stroke="#666666" points="1200.25,-207 1068.75,-207 1068.75,-175 1200.25,-175 1200.25,-207"/>
<text xml:space="preserve" text-anchor="start" x="1076.75" y="-193.5" font-family="Helvetica,sans-Serif" font-size="10.00">AProjectileBase::Multicast</text>
<text xml:space="preserve" text-anchor="middle" x="1134.5" y="-181.5" font-family="Helvetica,sans-Serif" font-size="10.00">_Deactivate</text>
</a>
</g>
</g>
<!-- Node7&#45;&gt;Node8 -->
<g id="edge8_Node000007_Node000008" class="edge">
<title>Node7&#45;&gt;Node8</title>
<g id="a_edge8_Node000007_Node000008"><a xlink:title=" ">
<path fill="none" stroke="#63b8ff" d="M1033.09,-191C1040.9,-191 1048.89,-191 1056.8,-191"/>
<polygon fill="#63b8ff" stroke="#63b8ff" points="1056.76,-194.5 1066.76,-191 1056.76,-187.5 1056.76,-194.5"/>
</a>
</g>
</g>
<!-- Node8&#45;&gt;Node8 -->
<g id="edge9_Node000008_Node000008" class="edge">
<title>Node8&#45;&gt;Node8</title>
<g id="a_edge9_Node000008_Node000008"><a xlink:title=" ">
<path fill="none" stroke="#63b8ff" d="M1103.93,-207.44C1098.22,-216.58 1108.41,-225 1134.5,-225 1148.77,-225 1158.28,-222.48 1163.04,-218.71"/>
<polygon fill="#63b8ff" stroke="#63b8ff" points="1166.47,-219.4 1164.8,-208.93 1159.58,-218.15 1166.47,-219.4"/>
</a>
</g>
</g>
<!-- Node13 -->
<g id="Node000013" class="node">
<title>Node13</title>
<g id="a_Node000013"><a xlink:href="class_a_projectile_base.html#aed98ae66bdee935c0599c6b220123111" target="_top" xlink:title=" ">
<polygon fill="white" stroke="#666666" points="670.75,-26 511.5,-26 511.5,-6 670.75,-6 670.75,-26"/>
<text xml:space="preserve" text-anchor="middle" x="591.12" y="-12.5" font-family="Helvetica,sans-Serif" font-size="10.00">AProjectileBase::SetOwningPool</text>
</a>
</g>
</g>
<!-- Node12&#45;&gt;Node13 -->
<g id="edge14_Node000012_Node000013" class="edge">
<title>Node12&#45;&gt;Node13</title>
<g id="a_edge14_Node000012_Node000013"><a xlink:title=" ">
<path fill="none" stroke="#63b8ff" d="M473.59,-16C482.03,-16 490.79,-16 499.54,-16"/>
<polygon fill="#63b8ff" stroke="#63b8ff" points="499.5,-19.5 509.5,-16 499.5,-12.5 499.5,-19.5"/>
</a>
</g>
</g>
</g>
</svg>
