<?xml version="1.0" encoding="UTF-8" standalone="no"?>
<!DOCTYPE svg PUBLIC "-//W3C//DTD SVG 1.1//EN"
 "http://www.w3.org/Graphics/SVG/1.1/DTD/svg11.dtd">
<!-- Generated by graphviz version 13.1.1 (20250719.2154)
 -->
<!-- Title: UUIManagerSubsystem::BindPlayerStateAndGameState Pages: 1 -->
<!--zoomable 222 -->

<svg id="main" version="1.1" xmlns="http://www.w3.org/2000/svg" xmlns:xlink="http://www.w3.org/1999/xlink" xml:space="preserve" onload="init(evt)">

<style type="text/css"><![CDATA[
.node, .edge {opacity: 0.7;}
.node.selected, .edge.selected {opacity: 1;}
.edge:hover path { stroke: red; }
.edge:hover polygon { stroke: red; fill: red; }
]]></style>

<defs>
  <circle id="rim" cx="0" cy="0" r="7"/>
  <circle id="rim2" cx="0" cy="0" r="3.5"/>
  <g id="zoomPlus">
    <use xlink:href="#rim" fill="#404040"><set attributeName="fill" to="#808080" begin="zoomplus.mouseover" end="zoomplus.mouseout"/></use>
    <path d="M-4,0h8M0,-4v8" fill="none" stroke="white" stroke-width="1.5" pointer-events="none"/>
  </g>
  <g id="zoomMin">
    <use xlink:href="#rim" fill="#404040"><set attributeName="fill" to="#808080" begin="zoomminus.mouseover" end="zoomminus.mouseout"/></use>
    <path d="M-4,0h8" fill="none" stroke="white" stroke-width="1.5" pointer-events="none"/>
  </g>
  <g id="arrowUp" transform="translate(30 24)">
    <use xlink:href="#rim"/>
    <path pointer-events="none" fill="none" stroke="white" stroke-width="1.5" d="M0,-3.0v7 M-2.5,-0.5L0,-3.0L2.5,-0.5"/>
  </g>
  <g id="arrowRight" transform="rotate(90) translate(36 -43)">
    <use xlink:href="#rim"/>
    <path pointer-events="none" fill="none" stroke="white" stroke-width="1.5" d="M0,-3.0v7 M-2.5,-0.5L0,-3.0L2.5,-0.5"/>
  </g>
  <g id="arrowDown" transform="rotate(180) translate(-30 -48)">
    <use xlink:href="#rim"/>
    <path pointer-events="none" fill="none" stroke="white" stroke-width="1.5" d="M0,-3.0v7 M-2.5,-0.5L0,-3.0L2.5,-0.5"/>
  </g>
  <g id="arrowLeft" transform="rotate(270) translate(-36 17)">
    <use xlink:href="#rim"/>
    <path pointer-events="none" fill="none" stroke="white" stroke-width="1.5" d="M0,-3.0v7 M-2.5,-0.5L0,-3.0L2.5,-0.5"/>
  </g>
  <g id="resetDef">
    <use xlink:href="#rim2" fill="#404040"><set attributeName="fill" to="#808080" begin="reset.mouseover" end="reset.mouseout"/></use>
  </g>
</defs>
<script type="application/ecmascript">
var viewWidth = 1057;
var viewHeight = 222;
var sectionId = 'dynsection-5';
</script>
<script type="application/ecmascript" xlink:href="svg.min.js"/>
<svg id="graph" class="graph">
<g id="viewport">
<title>UUIManagerSubsystem::BindPlayerStateAndGameState</title>
<!-- Node1 -->
<g id="Node000001" class="node">
<title>Node1</title>
<g id="a_Node000001"><a xlink:title=" ">
<polygon fill="#999999" stroke="#666666" points="159.25,-107 0,-107 0,-75 159.25,-75 159.25,-107"/>
<text xml:space="preserve" text-anchor="start" x="8" y="-93.5" font-family="Helvetica,sans-Serif" font-size="10.00">UUIManagerSubsystem</text>
<text xml:space="preserve" text-anchor="middle" x="79.62" y="-81.5" font-family="Helvetica,sans-Serif" font-size="10.00">::BindPlayerStateAndGameState</text>
</a>
</g>
</g>
<!-- Node2 -->
<g id="Node000002" class="node">
<title>Node2</title>
<g id="a_Node000002"><a xlink:href="class_a_k_p_t_player_state.html#a57012cefe259a3b7e78bffd3e86197cd" target="_top" xlink:title=" ">
<polygon fill="white" stroke="#666666" points="364.25,-170 195.25,-170 195.25,-150 364.25,-150 364.25,-170"/>
<text xml:space="preserve" text-anchor="middle" x="279.75" y="-156.5" font-family="Helvetica,sans-Serif" font-size="10.00">AKPTPlayerState::GetPersonalTag</text>
</a>
</g>
</g>
<!-- Node1&#45;&gt;Node2 -->
<g id="edge1_Node000001_Node000002" class="edge">
<title>Node1&#45;&gt;Node2</title>
<g id="a_edge1_Node000001_Node000002"><a xlink:title=" ">
<path fill="none" stroke="#63b8ff" d="M113.59,-107.35C136.15,-118.05 166.99,-131.71 195.25,-141 201.49,-143.05 208.07,-144.96 214.68,-146.72"/>
<polygon fill="#63b8ff" stroke="#63b8ff" points="213.76,-150.09 224.31,-149.15 215.47,-143.31 213.76,-150.09"/>
</a>
</g>
</g>
<!-- Node3 -->
<g id="Node000003" class="node">
<title>Node3</title>
<g id="a_Node000003"><a xlink:href="class_u_u_i_manager_subsystem.html#ac0719470d72fdf3bd3d14b976ad44e33" target="_top" xlink:title=" ">
<polygon fill="white" stroke="#666666" points="346.62,-82 212.88,-82 212.88,-50 346.62,-50 346.62,-82"/>
<text xml:space="preserve" text-anchor="start" x="220.88" y="-68.5" font-family="Helvetica,sans-Serif" font-size="10.00">UUIManagerSubsystem</text>
<text xml:space="preserve" text-anchor="middle" x="279.75" y="-56.5" font-family="Helvetica,sans-Serif" font-size="10.00">::OnChangeGameStateTag</text>
</a>
</g>
</g>
<!-- Node1&#45;&gt;Node3 -->
<g id="edge3_Node000001_Node000003" class="edge">
<title>Node1&#45;&gt;Node3</title>
<g id="a_edge3_Node000001_Node000003"><a xlink:title=" ">
<path fill="none" stroke="#63b8ff" d="M159.5,-81.05C173.24,-79.31 187.52,-77.51 201.23,-75.78"/>
<polygon fill="#63b8ff" stroke="#63b8ff" points="201.6,-79.26 211.08,-74.54 200.72,-72.32 201.6,-79.26"/>
</a>
</g>
</g>
<!-- Node9 -->
<g id="Node000009" class="node">
<title>Node9</title>
<g id="a_Node000009"><a xlink:href="class_u_u_i_manager_subsystem.html#aec1290f1100ff3c1b7fa144daec04166" target="_top" xlink:title=" ">
<polygon fill="white" stroke="#666666" points="347.38,-132 212.12,-132 212.12,-100 347.38,-100 347.38,-132"/>
<text xml:space="preserve" text-anchor="start" x="220.12" y="-118.5" font-family="Helvetica,sans-Serif" font-size="10.00">UUIManagerSubsystem</text>
<text xml:space="preserve" text-anchor="middle" x="279.75" y="-106.5" font-family="Helvetica,sans-Serif" font-size="10.00">::OnChangePlayerStateTag</text>
</a>
</g>
</g>
<!-- Node1&#45;&gt;Node9 -->
<g id="edge9_Node000001_Node000009" class="edge">
<title>Node1&#45;&gt;Node9</title>
<g id="a_edge9_Node000001_Node000009"><a xlink:title=" ">
<path fill="none" stroke="#63b8ff" d="M159.5,-100.95C172.99,-102.65 187,-104.42 200.47,-106.12"/>
<polygon fill="#63b8ff" stroke="#63b8ff" points="199.78,-109.56 210.14,-107.34 200.65,-102.62 199.78,-109.56"/>
</a>
</g>
</g>
<!-- Node13 -->
<g id="Node000013" class="node">
<title>Node13</title>
<g id="a_Node000013"><a xlink:href="class_u_u_i_manager_subsystem.html#a066e62274dc1670d298997fa8f052b2d" target="_top" xlink:title=" ">
<polygon fill="white" stroke="#666666" points="340.25,-32 219.25,-32 219.25,0 340.25,0 340.25,-32"/>
<text xml:space="preserve" text-anchor="start" x="227.25" y="-18.5" font-family="Helvetica,sans-Serif" font-size="10.00">UUIManagerSubsystem</text>
<text xml:space="preserve" text-anchor="middle" x="279.75" y="-6.5" font-family="Helvetica,sans-Serif" font-size="10.00">::ShowStayWidget</text>
</a>
</g>
</g>
<!-- Node1&#45;&gt;Node13 -->
<g id="edge16_Node000001_Node000013" class="edge">
<title>Node1&#45;&gt;Node13</title>
<g id="a_edge16_Node000001_Node000013"><a xlink:title=" ">
<path fill="none" stroke="#63b8ff" d="M115.3,-74.57C137.81,-64.24 167.93,-51.01 195.25,-41 199.93,-39.28 204.79,-37.6 209.71,-35.96"/>
<polygon fill="#63b8ff" stroke="#63b8ff" points="210.64,-39.34 219.07,-32.92 208.48,-32.68 210.64,-39.34"/>
</a>
</g>
</g>
<!-- Node2&#45;&gt;Node2 -->
<g id="edge2_Node000002_Node000002" class="edge">
<title>Node2&#45;&gt;Node2</title>
<g id="a_edge2_Node000002_Node000002"><a xlink:title=" ">
<path fill="none" stroke="#63b8ff" d="M248.31,-170.34C234.87,-178.98 245.35,-188 279.75,-188 299.1,-188 310.88,-185.14 315.09,-181.11"/>
<polygon fill="#63b8ff" stroke="#63b8ff" points="318.4,-179.97 311.71,-171.76 311.82,-182.36 318.4,-179.97"/>
</a>
</g>
</g>
<!-- Node4 -->
<g id="Node000004" class="node">
<title>Node4</title>
<g id="a_Node000004"><a xlink:href="class_u_u_i_manager_subsystem.html#a3d1d102db04c24f74872b749cc41e0cf" target="_top" xlink:title=" ">
<polygon fill="white" stroke="#666666" points="538.12,-76 417.12,-76 417.12,-44 538.12,-44 538.12,-76"/>
<text xml:space="preserve" text-anchor="start" x="425.12" y="-62.5" font-family="Helvetica,sans-Serif" font-size="10.00">UUIManagerSubsystem</text>
<text xml:space="preserve" text-anchor="middle" x="477.62" y="-50.5" font-family="Helvetica,sans-Serif" font-size="10.00">::ShowEventWidget</text>
</a>
</g>
</g>
<!-- Node3&#45;&gt;Node4 -->
<g id="edge4_Node000003_Node000004" class="edge">
<title>Node3&#45;&gt;Node4</title>
<g id="a_edge4_Node000003_Node000004"><a xlink:title=" ">
<path fill="none" stroke="#63b8ff" d="M347.06,-63.97C365.81,-63.39 386.29,-62.77 405.31,-62.18"/>
<polygon fill="#63b8ff" stroke="#63b8ff" points="405.23,-65.69 415.12,-61.88 405.02,-58.69 405.23,-65.69"/>
</a>
</g>
</g>
<!-- Node5 -->
<g id="Node000005" class="node">
<title>Node5</title>
<g id="a_Node000005"><a xlink:href="class_u_u_i_manager_subsystem.html#ae6e92a8dab7f856443cfe5c4d00b25c9" target="_top" xlink:title=" ">
<polygon fill="white" stroke="#666666" points="712,-98 591,-98 591,-66 712,-66 712,-98"/>
<text xml:space="preserve" text-anchor="start" x="599" y="-84.5" font-family="Helvetica,sans-Serif" font-size="10.00">UUIManagerSubsystem</text>
<text xml:space="preserve" text-anchor="middle" x="651.5" y="-72.5" font-family="Helvetica,sans-Serif" font-size="10.00">::ActivateWidget</text>
</a>
</g>
</g>
<!-- Node4&#45;&gt;Node5 -->
<g id="edge5_Node000004_Node000005" class="edge">
<title>Node4&#45;&gt;Node5</title>
<g id="a_edge5_Node000004_Node000005"><a xlink:title=" ">
<path fill="none" stroke="#63b8ff" d="M538.26,-67.63C551.51,-69.33 565.69,-71.14 579.36,-72.89"/>
<polygon fill="#63b8ff" stroke="#63b8ff" points="578.82,-76.35 589.18,-74.15 579.71,-69.41 578.82,-76.35"/>
</a>
</g>
</g>
<!-- Node8 -->
<g id="Node000008" class="node">
<title>Node8</title>
<g id="a_Node000008"><a xlink:href="class_u_u_i_manager_subsystem.html#af61f694a539b5d427654903bc5944cf0" target="_top" xlink:title=" ">
<polygon fill="white" stroke="#666666" points="712,-159 591,-159 591,-127 712,-127 712,-159"/>
<text xml:space="preserve" text-anchor="start" x="599" y="-145.5" font-family="Helvetica,sans-Serif" font-size="10.00">UUIManagerSubsystem</text>
<text xml:space="preserve" text-anchor="middle" x="651.5" y="-133.5" font-family="Helvetica,sans-Serif" font-size="10.00">::GetOrCreateWidget</text>
</a>
</g>
</g>
<!-- Node4&#45;&gt;Node8 -->
<g id="edge8_Node000004_Node000008" class="edge">
<title>Node4&#45;&gt;Node8</title>
<g id="a_edge8_Node000004_Node000008"><a xlink:title=" ">
<path fill="none" stroke="#63b8ff" d="M533.87,-76.38C541.08,-79.01 548.29,-81.9 555,-85 572.02,-92.86 574.98,-97.26 591,-107 598.23,-111.4 605.97,-116.09 613.39,-120.58"/>
<polygon fill="#63b8ff" stroke="#63b8ff" points="611.57,-123.57 621.94,-125.75 615.19,-117.58 611.57,-123.57"/>
</a>
</g>
</g>
<!-- Node6 -->
<g id="Node000006" class="node">
<title>Node6</title>
<g id="a_Node000006"><a xlink:href="class_u_u_i_manager_subsystem.html#acaac8367f6b3ad4c0509900d7f01b65a" target="_top" xlink:title=" ">
<polygon fill="white" stroke="#666666" points="891.5,-148 748,-148 748,-116 891.5,-116 891.5,-148"/>
<text xml:space="preserve" text-anchor="start" x="756" y="-134.5" font-family="Helvetica,sans-Serif" font-size="10.00">UUIManagerSubsystem</text>
<text xml:space="preserve" text-anchor="middle" x="819.75" y="-122.5" font-family="Helvetica,sans-Serif" font-size="10.00">::UpdateInputModeAndFocus</text>
</a>
</g>
</g>
<!-- Node5&#45;&gt;Node6 -->
<g id="edge6_Node000005_Node000006" class="edge">
<title>Node5&#45;&gt;Node6</title>
<g id="a_edge6_Node000005_Node000006"><a xlink:title=" ">
<path fill="none" stroke="#63b8ff" d="M706.94,-98.37C721.64,-102.8 737.72,-107.63 752.97,-112.22"/>
<polygon fill="#63b8ff" stroke="#63b8ff" points="751.87,-115.54 762.46,-115.07 753.89,-108.84 751.87,-115.54"/>
</a>
</g>
</g>
<!-- Node7 -->
<g id="Node000007" class="node">
<title>Node7</title>
<g id="a_Node000007"><a xlink:href="class_u_u_i_manager_subsystem.html#a6c815ab68107e8e616ddb62dd3391d2c" target="_top" xlink:title=" ">
<polygon fill="white" stroke="#666666" points="1048.5,-148 927.5,-148 927.5,-116 1048.5,-116 1048.5,-148"/>
<text xml:space="preserve" text-anchor="start" x="935.5" y="-134.5" font-family="Helvetica,sans-Serif" font-size="10.00">UUIManagerSubsystem</text>
<text xml:space="preserve" text-anchor="middle" x="988" y="-122.5" font-family="Helvetica,sans-Serif" font-size="10.00">::SetUIInputMode</text>
</a>
</g>
</g>
<!-- Node6&#45;&gt;Node7 -->
<g id="edge7_Node000006_Node000007" class="edge">
<title>Node6&#45;&gt;Node7</title>
<g id="a_edge7_Node000006_Node000007"><a xlink:title=" ">
<path fill="none" stroke="#63b8ff" d="M891.74,-132C899.68,-132 907.78,-132 915.73,-132"/>
<polygon fill="#63b8ff" stroke="#63b8ff" points="915.72,-135.5 925.72,-132 915.72,-128.5 915.72,-135.5"/>
</a>
</g>
</g>
<!-- Node10 -->
<g id="Node000010" class="node">
<title>Node10</title>
<g id="a_Node000010"><a xlink:href="class_u_u_i_manager_subsystem.html#aed4b9c08eec4848386a3a89108827ffd" target="_top" xlink:title=" ">
<polygon fill="white" stroke="#666666" points="555,-126 400.25,-126 400.25,-94 555,-94 555,-126"/>
<text xml:space="preserve" text-anchor="start" x="408.25" y="-112.5" font-family="Helvetica,sans-Serif" font-size="10.00">UUIManagerSubsystem</text>
<text xml:space="preserve" text-anchor="middle" x="477.62" y="-100.5" font-family="Helvetica,sans-Serif" font-size="10.00">::GetSingletonWidgetInstanceId</text>
</a>
</g>
</g>
<!-- Node9&#45;&gt;Node10 -->
<g id="edge10_Node000009_Node000010" class="edge">
<title>Node9&#45;&gt;Node10</title>
<g id="a_edge10_Node000009_Node000010"><a xlink:title=" ">
<path fill="none" stroke="#63b8ff" d="M347.61,-113.95C360.77,-113.55 374.77,-113.12 388.5,-112.7"/>
<polygon fill="#63b8ff" stroke="#63b8ff" points="388.56,-116.2 398.44,-112.39 388.34,-109.2 388.56,-116.2"/>
</a>
</g>
</g>
<!-- Node11 -->
<g id="Node000011" class="node">
<title>Node11</title>
<g id="a_Node000011"><a xlink:href="class_u_u_i_manager_subsystem.html#a1e0415f5fab1f4658e1aee52f1ee1a0b" target="_top" xlink:title="지정된 인스턴스 ID의 위젯을 화면에서 숨깁니다.">
<polygon fill="white" stroke="#666666" points="712,-214 591,-214 591,-182 712,-182 712,-214"/>
<text xml:space="preserve" text-anchor="start" x="599" y="-200.5" font-family="Helvetica,sans-Serif" font-size="10.00">UUIManagerSubsystem</text>
<text xml:space="preserve" text-anchor="middle" x="651.5" y="-188.5" font-family="Helvetica,sans-Serif" font-size="10.00">::HideWidget</text>
</a>
</g>
</g>
<!-- Node9&#45;&gt;Node11 -->
<g id="edge11_Node000009_Node000011" class="edge">
<title>Node9&#45;&gt;Node11</title>
<g id="a_edge11_Node000009_Node000011"><a xlink:title=" ">
<path fill="none" stroke="#63b8ff" d="M347.59,-132C353.44,-134.58 359.09,-137.56 364.25,-141 385.27,-155.02 377.71,-173.59 400.25,-185 455.67,-213.05 527.11,-213.85 579.47,-209.08"/>
<polygon fill="#63b8ff" stroke="#63b8ff" points="579.57,-212.59 589.16,-208.1 578.86,-205.62 579.57,-212.59"/>
</a>
</g>
</g>
<!-- Node12 -->
<g id="Node000012" class="node">
<title>Node12</title>
<g id="a_Node000012"><a xlink:href="class_u_u_i_manager_subsystem.html#a291d9552775bf1843f433b3e363b0543" target="_top" xlink:title=" ">
<polygon fill="white" stroke="#666666" points="538.12,-176 417.12,-176 417.12,-144 538.12,-144 538.12,-176"/>
<text xml:space="preserve" text-anchor="start" x="425.12" y="-162.5" font-family="Helvetica,sans-Serif" font-size="10.00">UUIManagerSubsystem</text>
<text xml:space="preserve" text-anchor="middle" x="477.62" y="-150.5" font-family="Helvetica,sans-Serif" font-size="10.00">::ShowWidget</text>
</a>
</g>
</g>
<!-- Node9&#45;&gt;Node12 -->
<g id="edge13_Node000009_Node000012" class="edge">
<title>Node9&#45;&gt;Node12</title>
<g id="a_edge13_Node000009_Node000012"><a xlink:title=" ">
<path fill="none" stroke="#63b8ff" d="M347.61,-131.02C366.24,-135.2 386.54,-139.76 405.41,-144"/>
<polygon fill="#63b8ff" stroke="#63b8ff" points="404.63,-147.41 415.15,-146.19 406.16,-140.58 404.63,-147.41"/>
</a>
</g>
</g>
<!-- Node11&#45;&gt;Node6 -->
<g id="edge12_Node000011_Node000006" class="edge">
<title>Node11&#45;&gt;Node6</title>
<g id="a_edge12_Node000011_Node000006"><a xlink:title=" ">
<path fill="none" stroke="#63b8ff" d="M694.02,-181.52C716.12,-172.74 743.51,-161.87 766.99,-152.55"/>
<polygon fill="#63b8ff" stroke="#63b8ff" points="768.06,-155.89 776.06,-148.95 765.48,-149.38 768.06,-155.89"/>
</a>
</g>
</g>
<!-- Node12&#45;&gt;Node5 -->
<g id="edge14_Node000012_Node000005" class="edge">
<title>Node12&#45;&gt;Node5</title>
<g id="a_edge14_Node000012_Node000005"><a xlink:title=" ">
<path fill="none" stroke="#63b8ff" d="M532.93,-143.64C540.43,-140.97 547.97,-138.07 555,-135 575.19,-126.19 596.73,-114.46 614.23,-104.27"/>
<polygon fill="#63b8ff" stroke="#63b8ff" points="615.89,-107.35 622.72,-99.26 612.33,-101.33 615.89,-107.35"/>
</a>
</g>
</g>
<!-- Node12&#45;&gt;Node8 -->
<g id="edge15_Node000012_Node000008" class="edge">
<title>Node12&#45;&gt;Node8</title>
<g id="a_edge15_Node000012_Node000008"><a xlink:title=" ">
<path fill="none" stroke="#63b8ff" d="M538.26,-154.1C551.51,-152.79 565.69,-151.39 579.36,-150.04"/>
<polygon fill="#63b8ff" stroke="#63b8ff" points="579.57,-153.53 589.18,-149.07 578.88,-146.57 579.57,-153.53"/>
</a>
</g>
</g>
<!-- Node13&#45;&gt;Node5 -->
<g id="edge17_Node000013_Node000005" class="edge">
<title>Node13&#45;&gt;Node5</title>
<g id="a_edge17_Node000013_Node000005"><a xlink:title=" ">
<path fill="none" stroke="#63b8ff" d="M340.69,-13.56C397,-12.81 483.11,-15.63 555,-35 575.73,-40.59 597.32,-50.79 614.71,-60.26"/>
<polygon fill="#63b8ff" stroke="#63b8ff" points="612.68,-63.13 623.11,-64.97 616.1,-57.02 612.68,-63.13"/>
</a>
</g>
</g>
</g>
</svg>

<g id="navigator" transform="translate(0 0)" fill="#404254">
  <rect fill="#f2f5e9" fill-opacity="0.5" stroke="#606060" stroke-width=".5" x="0" y="0" width="60" height="60"/>
  <use id="zoomplus" xlink:href="#zoomPlus" x="17" y="9" onmousedown="handleZoom(evt,'in')"/>
  <use id="zoomminus" xlink:href="#zoomMin" x="42" y="9" onmousedown="handleZoom(evt,'out')"/>
  <use id="reset" xlink:href="#resetDef" x="30" y="36" onmousedown="handleReset()"/>
   <use id="arrowup" xlink:href="#arrowUp" x="0" y="0" onmousedown="handlePan(0,-1)"/>
  <use id="arrowright" xlink:href="#arrowRight" x="0" y="0" onmousedown="handlePan(1,0)"/>
  <use id="arrowdown" xlink:href="#arrowDown" x="0" y="0" onmousedown="handlePan(0,1)"/>
  <use id="arrowleft" xlink:href="#arrowLeft" x="0" y="0" onmousedown="handlePan(-1,0)"/>
</g>
<svg viewBox="0 0 15 15" width="100%" height="30px" preserveAspectRatio="xMaxYMin meet">
 <g id="arrow_out" transform="scale(0.3 0.3)">
  <a xlink:href="class_u_u_i_manager_subsystem_a246ae6eabb3d321cdc4abc2068ca1e61_cgraph_org.svg" target="_base">
   <rect id="button" ry="5" rx="5" y="6" x="6" height="38" width="38"
        fill="#f2f5e9" fill-opacity="0.5" stroke="#606060" stroke-width="1.0"/>
   <path id="arrow"
     d="M 11.500037,31.436501 C 11.940474,20.09759 22.043105,11.32322 32.158766,21.979434 L 37.068811,17.246167 C 37.068811,17.246167 37.088388,32 37.088388,32 L 22.160133,31.978069 C 22.160133,31.978069 26.997745,27.140456 26.997745,27.140456 C 18.528582,18.264221 13.291696,25.230495 11.500037,31.436501 z"
     style="fill:#404040;"/>
  </a>
 </g>
</svg>

<style type='text/css'>
<![CDATA[
[data-mouse-over-selected='false'] { opacity: 0.7; }
[data-mouse-over-selected='true']  { opacity: 1.0; }
]]>
</style>
<script type="application/ecmascript"><![CDATA[
document.addEventListener('DOMContentLoaded', (event) => {
  highlightEdges();
  highlightAdjacentNodes();
});
]]></script>
</svg>
