<?xml version="1.0" encoding="UTF-8" standalone="no"?>
<!DOCTYPE svg PUBLIC "-//W3C//DTD SVG 1.1//EN"
 "http://www.w3.org/Graphics/SVG/1.1/DTD/svg11.dtd">
<!-- Generated by graphviz version 13.1.1 (20250719.2154)
 -->
<!-- Title: AExperience::OnReturnBP Pages: 1 -->
<!--zoomable 242 -->

<svg id="main" version="1.1" xmlns="http://www.w3.org/2000/svg" xmlns:xlink="http://www.w3.org/1999/xlink" xml:space="preserve" onload="init(evt)">

<style type="text/css"><![CDATA[
.node, .edge {opacity: 0.7;}
.node.selected, .edge.selected {opacity: 1;}
.edge:hover path { stroke: red; }
.edge:hover polygon { stroke: red; fill: red; }
]]></style>

<defs>
  <circle id="rim" cx="0" cy="0" r="7"/>
  <circle id="rim2" cx="0" cy="0" r="3.5"/>
  <g id="zoomPlus">
    <use xlink:href="#rim" fill="#404040"><set attributeName="fill" to="#808080" begin="zoomplus.mouseover" end="zoomplus.mouseout"/></use>
    <path d="M-4,0h8M0,-4v8" fill="none" stroke="white" stroke-width="1.5" pointer-events="none"/>
  </g>
  <g id="zoomMin">
    <use xlink:href="#rim" fill="#404040"><set attributeName="fill" to="#808080" begin="zoomminus.mouseover" end="zoomminus.mouseout"/></use>
    <path d="M-4,0h8" fill="none" stroke="white" stroke-width="1.5" pointer-events="none"/>
  </g>
  <g id="arrowUp" transform="translate(30 24)">
    <use xlink:href="#rim"/>
    <path pointer-events="none" fill="none" stroke="white" stroke-width="1.5" d="M0,-3.0v7 M-2.5,-0.5L0,-3.0L2.5,-0.5"/>
  </g>
  <g id="arrowRight" transform="rotate(90) translate(36 -43)">
    <use xlink:href="#rim"/>
    <path pointer-events="none" fill="none" stroke="white" stroke-width="1.5" d="M0,-3.0v7 M-2.5,-0.5L0,-3.0L2.5,-0.5"/>
  </g>
  <g id="arrowDown" transform="rotate(180) translate(-30 -48)">
    <use xlink:href="#rim"/>
    <path pointer-events="none" fill="none" stroke="white" stroke-width="1.5" d="M0,-3.0v7 M-2.5,-0.5L0,-3.0L2.5,-0.5"/>
  </g>
  <g id="arrowLeft" transform="rotate(270) translate(-36 17)">
    <use xlink:href="#rim"/>
    <path pointer-events="none" fill="none" stroke="white" stroke-width="1.5" d="M0,-3.0v7 M-2.5,-0.5L0,-3.0L2.5,-0.5"/>
  </g>
  <g id="resetDef">
    <use xlink:href="#rim2" fill="#404040"><set attributeName="fill" to="#808080" begin="reset.mouseover" end="reset.mouseout"/></use>
  </g>
</defs>
<script type="application/ecmascript">
var viewWidth = 503;
var viewHeight = 242;
var sectionId = 'dynsection-11';
</script>
<script type="application/ecmascript" xlink:href="svg.min.js"/>
<svg id="graph" class="graph">
<g id="viewport">
<title>AExperience::OnReturnBP</title>
<!-- Node1 -->
<g id="Node000001" class="node">
<title>Node1</title>
<g id="a_Node000001"><a xlink:title=" ">
<polygon fill="#999999" stroke="#666666" points="133,-124 0,-124 0,-104 133,-104 133,-124"/>
<text xml:space="preserve" text-anchor="middle" x="66.5" y="-110.5" font-family="Helvetica,sans-Serif" font-size="10.00">AExperience::OnReturnBP</text>
</a>
</g>
</g>
<!-- Node1&#45;&gt;Node1 -->
<g id="edge9_Node000001_Node000001" class="edge">
<title>Node1&#45;&gt;Node1</title>
<g id="a_edge9_Node000001_Node000001"><a xlink:title=" ">
<path fill="none" stroke="#63b8ff" d="M37.8,-124.34C25.54,-132.98 35.1,-142 66.5,-142 84.16,-142 94.91,-139.14 98.76,-135.11"/>
<polygon fill="#63b8ff" stroke="#63b8ff" points="102.14,-134.17 95.67,-125.78 95.49,-136.37 102.14,-134.17"/>
</a>
</g>
</g>
<!-- Node2 -->
<g id="Node000002" class="node">
<title>Node2</title>
<g id="a_Node000002"><a xlink:href="class_a_experience.html#a0f3c047dcabdf18c3223fd782957b556" target="_top" xlink:title=" ">
<polygon fill="white" stroke="#666666" points="323.75,-234 170.5,-234 170.5,-214 323.75,-214 323.75,-234"/>
<text xml:space="preserve" text-anchor="middle" x="247.12" y="-220.5" font-family="Helvetica,sans-Serif" font-size="10.00">AExperience::ExpBeginOverlap</text>
</a>
</g>
</g>
<!-- Node1&#45;&gt;Node2 -->
<g id="edge1_Node000001_Node000002" class="edge">
<title>Node1&#45;&gt;Node2</title>
<g id="a_edge1_Node000001_Node000002"><a xlink:title=" ">
<path fill="none" stroke="#63b8ff" d="M75.83,-124.24C91.82,-143.2 128.83,-183.77 169,-205 172.23,-206.71 175.62,-208.27 179.1,-209.69"/>
<polygon fill="#63b8ff" stroke="#63b8ff" points="177.72,-212.91 188.32,-213.03 180.11,-206.33 177.72,-212.91"/>
</a>
</g>
</g>
<!-- Node3 -->
<g id="Node000003" class="node">
<title>Node3</title>
<g id="a_Node000003"><a xlink:href="class_a_experience.html#add4d450944d2ce2056f9cf93962c3a92" target="_top" xlink:title=" ">
<polygon fill="white" stroke="#666666" points="311,-196 183.25,-196 183.25,-164 311,-164 311,-196"/>
<text xml:space="preserve" text-anchor="start" x="191.25" y="-182.5" font-family="Helvetica,sans-Serif" font-size="10.00">AExperience::GetLifetime</text>
<text xml:space="preserve" text-anchor="middle" x="247.12" y="-170.5" font-family="Helvetica,sans-Serif" font-size="10.00">ReplicatedProps</text>
</a>
</g>
</g>
<!-- Node1&#45;&gt;Node3 -->
<g id="edge2_Node000001_Node000003" class="edge">
<title>Node1&#45;&gt;Node3</title>
<g id="a_edge2_Node000001_Node000003"><a xlink:title=" ">
<path fill="none" stroke="#63b8ff" d="M91.92,-124.43C112.37,-133.02 142.39,-145.33 169,-155 173.59,-156.67 178.35,-158.34 183.15,-159.99"/>
<polygon fill="#63b8ff" stroke="#63b8ff" points="181.65,-163.18 192.25,-163.07 183.89,-156.55 181.65,-163.18"/>
</a>
</g>
</g>
<!-- Node5 -->
<g id="Node000005" class="node">
<title>Node5</title>
<g id="a_Node000005"><a xlink:href="class_a_experience.html#af8fc3569d3b7189f0e4383eaa439e9cf" target="_top" xlink:title=" ">
<polygon fill="white" stroke="#666666" points="325.25,-146 169,-146 169,-126 325.25,-126 325.25,-146"/>
<text xml:space="preserve" text-anchor="middle" x="247.12" y="-132.5" font-family="Helvetica,sans-Serif" font-size="10.00">AExperience::On_RepSpawning</text>
</a>
</g>
</g>
<!-- Node1&#45;&gt;Node5 -->
<g id="edge4_Node000001_Node000005" class="edge">
<title>Node1&#45;&gt;Node5</title>
<g id="a_edge4_Node000001_Node000005"><a xlink:title=" ">
<path fill="none" stroke="#63b8ff" d="M133.25,-122.1C141.1,-123.06 149.2,-124.06 157.3,-125.06"/>
<polygon fill="#63b8ff" stroke="#63b8ff" points="156.86,-128.53 167.21,-126.28 157.72,-121.58 156.86,-128.53"/>
</a>
</g>
</g>
<!-- Node7 -->
<g id="Node000007" class="node">
<title>Node7</title>
<g id="a_Node000007"><a xlink:href="class_a_experience.html#a01783a5acf33d3b7b8a9fbf884c7b49f" target="_top" xlink:title=" ">
<polygon fill="white" stroke="#666666" points="317.38,-108 176.88,-108 176.88,-76 317.38,-76 317.38,-108"/>
<text xml:space="preserve" text-anchor="start" x="184.88" y="-94.5" font-family="Helvetica,sans-Serif" font-size="10.00">AExperience::On_RepTarget</text>
<text xml:space="preserve" text-anchor="middle" x="247.12" y="-82.5" font-family="Helvetica,sans-Serif" font-size="10.00">Setting</text>
</a>
</g>
</g>
<!-- Node1&#45;&gt;Node7 -->
<g id="edge7_Node000001_Node000007" class="edge">
<title>Node1&#45;&gt;Node7</title>
<g id="a_edge7_Node000001_Node000007"><a xlink:title=" ">
<path fill="none" stroke="#63b8ff" d="M133.25,-105.9C143.74,-104.61 154.69,-103.26 165.47,-101.93"/>
<polygon fill="#63b8ff" stroke="#63b8ff" points="165.61,-105.44 175.11,-100.75 164.76,-98.5 165.61,-105.44"/>
</a>
</g>
</g>
<!-- Node8 -->
<g id="Node000008" class="node">
<title>Node8</title>
<g id="a_Node000008"><a xlink:href="class_a_experience.html#a8c6f1c0398bc1d8f78f966f56aa7dd57" target="_top" xlink:title=" ">
<polygon fill="white" stroke="#666666" points="314.38,-58 179.88,-58 179.88,-38 314.38,-38 314.38,-58"/>
<text xml:space="preserve" text-anchor="middle" x="247.12" y="-44.5" font-family="Helvetica,sans-Serif" font-size="10.00">AExperience::OnGroundHit</text>
</a>
</g>
</g>
<!-- Node1&#45;&gt;Node8 -->
<g id="edge8_Node000001_Node000008" class="edge">
<title>Node1&#45;&gt;Node8</title>
<g id="a_edge8_Node000001_Node000008"><a xlink:title=" ">
<path fill="none" stroke="#63b8ff" d="M86.87,-103.66C106.96,-93.28 139.5,-77.36 169,-67 174.69,-65 180.69,-63.13 186.73,-61.4"/>
<polygon fill="#63b8ff" stroke="#63b8ff" points="187.38,-64.85 196.11,-58.85 185.54,-58.1 187.38,-64.85"/>
</a>
</g>
</g>
<!-- Node9 -->
<g id="Node000009" class="node">
<title>Node9</title>
<g id="a_Node000009"><a xlink:href="class_a_experience.html#a207eb32f5e0b215f30cbcb2404aa059d" target="_top" xlink:title=" ">
<polygon fill="white" stroke="#666666" points="295.25,-20 199,-20 199,0 295.25,0 295.25,-20"/>
<text xml:space="preserve" text-anchor="middle" x="247.12" y="-6.5" font-family="Helvetica,sans-Serif" font-size="10.00">AExperience::Tick</text>
</a>
</g>
</g>
<!-- Node1&#45;&gt;Node9 -->
<g id="edge10_Node000001_Node000009" class="edge">
<title>Node1&#45;&gt;Node9</title>
<g id="a_edge10_Node000001_Node000009"><a xlink:title=" ">
<path fill="none" stroke="#63b8ff" d="M76.76,-103.62C93.4,-85.61 130.26,-48.65 169,-29 174.91,-26 181.32,-23.46 187.83,-21.31"/>
<polygon fill="#63b8ff" stroke="#63b8ff" points="188.77,-24.68 197.36,-18.48 186.78,-17.97 188.77,-24.68"/>
</a>
</g>
</g>
<!-- Node4 -->
<g id="Node000004" class="node">
<title>Node4</title>
<g id="a_Node000004"><a xlink:href="class_a_experience.html#ae40d10083cffc2a203ec22e92c174180" target="_top" xlink:title=" ">
<polygon fill="white" stroke="#666666" points="494.62,-196 361.62,-196 361.62,-176 494.62,-176 494.62,-196"/>
<text xml:space="preserve" text-anchor="middle" x="428.12" y="-182.5" font-family="Helvetica,sans-Serif" font-size="10.00">AExperience::AExperience</text>
</a>
</g>
</g>
<!-- Node3&#45;&gt;Node4 -->
<g id="edge3_Node000003_Node000004" class="edge">
<title>Node3&#45;&gt;Node4</title>
<g id="a_edge3_Node000003_Node000004"><a xlink:title=" ">
<path fill="none" stroke="#63b8ff" d="M311.49,-182.12C324.01,-182.54 337.28,-182.99 350.2,-183.42"/>
<polygon fill="#63b8ff" stroke="#63b8ff" points="349.8,-186.91 359.91,-183.75 350.04,-179.91 349.8,-186.91"/>
</a>
</g>
</g>
<!-- Node6 -->
<g id="Node000006" class="node">
<title>Node6</title>
<g id="a_Node000006"><a xlink:href="class_a_experience.html#a69f2ef051b6dd9344813c3d7592ff5b4" target="_top" xlink:title=" ">
<polygon fill="white" stroke="#666666" points="495,-140 361.25,-140 361.25,-120 495,-120 495,-140"/>
<text xml:space="preserve" text-anchor="middle" x="428.12" y="-126.5" font-family="Helvetica,sans-Serif" font-size="10.00">AExperience::OnSpawnBP</text>
</a>
</g>
</g>
<!-- Node5&#45;&gt;Node6 -->
<g id="edge5_Node000005_Node000006" class="edge">
<title>Node5&#45;&gt;Node6</title>
<g id="a_edge5_Node000005_Node000006"><a xlink:title=" ">
<path fill="none" stroke="#63b8ff" d="M325.6,-133.4C333.47,-133.14 341.47,-132.87 349.34,-132.61"/>
<polygon fill="#63b8ff" stroke="#63b8ff" points="349.37,-136.11 359.25,-132.28 349.14,-129.11 349.37,-136.11"/>
</a>
</g>
</g>
<!-- Node6&#45;&gt;Node6 -->
<g id="edge6_Node000006_Node000006" class="edge">
<title>Node6&#45;&gt;Node6</title>
<g id="a_edge6_Node000006_Node000006"><a xlink:title=" ">
<path fill="none" stroke="#63b8ff" d="M399.37,-140.34C387.08,-148.98 396.66,-158 428.12,-158 445.82,-158 456.6,-155.14 460.45,-151.11"/>
<polygon fill="#63b8ff" stroke="#63b8ff" points="463.83,-150.17 457.36,-141.78 457.18,-152.37 463.83,-150.17"/>
</a>
</g>
</g>
</g>
</svg>

<g id="navigator" transform="translate(0 0)" fill="#404254">
  <rect fill="#f2f5e9" fill-opacity="0.5" stroke="#606060" stroke-width=".5" x="0" y="0" width="60" height="60"/>
  <use id="zoomplus" xlink:href="#zoomPlus" x="17" y="9" onmousedown="handleZoom(evt,'in')"/>
  <use id="zoomminus" xlink:href="#zoomMin" x="42" y="9" onmousedown="handleZoom(evt,'out')"/>
  <use id="reset" xlink:href="#resetDef" x="30" y="36" onmousedown="handleReset()"/>
   <use id="arrowup" xlink:href="#arrowUp" x="0" y="0" onmousedown="handlePan(0,-1)"/>
  <use id="arrowright" xlink:href="#arrowRight" x="0" y="0" onmousedown="handlePan(1,0)"/>
  <use id="arrowdown" xlink:href="#arrowDown" x="0" y="0" onmousedown="handlePan(0,1)"/>
  <use id="arrowleft" xlink:href="#arrowLeft" x="0" y="0" onmousedown="handlePan(-1,0)"/>
</g>
<svg viewBox="0 0 15 15" width="100%" height="30px" preserveAspectRatio="xMaxYMin meet">
 <g id="arrow_out" transform="scale(0.3 0.3)">
  <a xlink:href="class_a_experience_a1a5a05df41047f89a3b88d7198a647a0_cgraph_org.svg" target="_base">
   <rect id="button" ry="5" rx="5" y="6" x="6" height="38" width="38"
        fill="#f2f5e9" fill-opacity="0.5" stroke="#606060" stroke-width="1.0"/>
   <path id="arrow"
     d="M 11.500037,31.436501 C 11.940474,20.09759 22.043105,11.32322 32.158766,21.979434 L 37.068811,17.246167 C 37.068811,17.246167 37.088388,32 37.088388,32 L 22.160133,31.978069 C 22.160133,31.978069 26.997745,27.140456 26.997745,27.140456 C 18.528582,18.264221 13.291696,25.230495 11.500037,31.436501 z"
     style="fill:#404040;"/>
  </a>
 </g>
</svg>

<style type='text/css'>
<![CDATA[
[data-mouse-over-selected='false'] { opacity: 0.7; }
[data-mouse-over-selected='true']  { opacity: 1.0; }
]]>
</style>
<script type="application/ecmascript"><![CDATA[
document.addEventListener('DOMContentLoaded', (event) => {
  highlightEdges();
  highlightAdjacentNodes();
});
]]></script>
</svg>
