<?xml version="1.0" encoding="UTF-8" standalone="no"?>
<!DOCTYPE svg PUBLIC "-//W3C//DTD SVG 1.1//EN"
 "http://www.w3.org/Graphics/SVG/1.1/DTD/svg11.dtd">
<!-- Generated by graphviz version 13.1.1 (20250719.2154)
 -->
<!-- Title: UKPTCheatManager::AddItem Pages: 1 -->
<svg width="861pt" height="309pt"
 viewBox="0.00 0.00 861.00 309.00" xmlns="http://www.w3.org/2000/svg" xmlns:xlink="http://www.w3.org/1999/xlink">
<g id="graph0" class="graph" transform="scale(1 1) rotate(0) translate(4 305)">
<title>UKPTCheatManager::AddItem</title>
<!-- Node1 -->
<g id="Node000001" class="node">
<title>Node1</title>
<g id="a_Node000001"><a xlink:title=" ">
<polygon fill="#999999" stroke="#666666" points="149.5,-119 0,-119 0,-99 149.5,-99 149.5,-119"/>
<text xml:space="preserve" text-anchor="middle" x="74.75" y="-105.5" font-family="Helvetica,sans-Serif" font-size="10.00">UKPTCheatManager::AddItem</text>
</a>
</g>
</g>
<!-- Node1&#45;&gt;Node1 -->
<g id="edge1_Node000001_Node000001" class="edge">
<title>Node1&#45;&gt;Node1</title>
<g id="a_edge1_Node000001_Node000001"><a xlink:title=" ">
<path fill="none" stroke="#63b8ff" d="M43.73,-119.34C30.47,-127.98 40.81,-137 74.75,-137 93.84,-137 105.47,-134.14 109.62,-130.11"/>
<polygon fill="#63b8ff" stroke="#63b8ff" points="112.94,-129 106.28,-120.76 106.35,-131.36 112.94,-129"/>
</a>
</g>
</g>
<!-- Node2 -->
<g id="Node000002" class="node">
<title>Node2</title>
<g id="a_Node000002"><a xlink:href="class_u_k_p_t_cheat_manager.html#a87e7d4915411e1a1e0d5fa87372114a9" target="_top" xlink:title=" ">
<polygon fill="white" stroke="#666666" points="344.38,-187 195.62,-187 195.62,-167 344.38,-167 344.38,-187"/>
<text xml:space="preserve" text-anchor="middle" x="270" y="-173.5" font-family="Helvetica,sans-Serif" font-size="10.00">UKPTCheatManager::AddSkill</text>
</a>
</g>
</g>
<!-- Node1&#45;&gt;Node2 -->
<g id="edge2_Node000001_Node000002" class="edge">
<title>Node1&#45;&gt;Node2</title>
<g id="a_edge2_Node000001_Node000002"><a xlink:title=" ">
<path fill="none" stroke="#63b8ff" d="M101.75,-119.48C123.88,-128.28 156.59,-140.98 185.5,-151 197.58,-155.19 210.75,-159.43 222.99,-163.25"/>
<polygon fill="#63b8ff" stroke="#63b8ff" points="221.87,-166.56 232.45,-166.17 223.93,-159.88 221.87,-166.56"/>
</a>
</g>
</g>
<!-- Node10 -->
<g id="Node000010" class="node">
<title>Node10</title>
<g id="a_Node000010"><a xlink:href="class_u_k_p_t_cheat_manager.html#a2f6a2c23884c9b374fc32b17cbc45b98" target="_top" xlink:title=" ">
<polygon fill="white" stroke="#666666" points="347.38,-142 192.62,-142 192.62,-122 347.38,-122 347.38,-142"/>
<text xml:space="preserve" text-anchor="middle" x="270" y="-128.5" font-family="Helvetica,sans-Serif" font-size="10.00">UKPTCheatManager::ApplyBuff</text>
</a>
</g>
</g>
<!-- Node1&#45;&gt;Node10 -->
<g id="edge10_Node000001_Node000010" class="edge">
<title>Node1&#45;&gt;Node10</title>
<g id="a_edge10_Node000001_Node000010"><a xlink:title=" ">
<path fill="none" stroke="#63b8ff" d="M149.91,-117.83C160.07,-119.04 170.59,-120.29 180.97,-121.52"/>
<polygon fill="#63b8ff" stroke="#63b8ff" points="180.31,-124.97 190.65,-122.68 181.13,-118.02 180.31,-124.97"/>
</a>
</g>
</g>
<!-- Node13 -->
<g id="Node000013" class="node">
<title>Node13</title>
<g id="a_Node000013"><a xlink:href="class_u_k_p_t_cheat_manager.html#ab6e715a2dbc2c08726f644b6bd0c6e12" target="_top" xlink:title=" ">
<polygon fill="white" stroke="#666666" points="352.62,-103 187.38,-103 187.38,-71 352.62,-71 352.62,-103"/>
<text xml:space="preserve" text-anchor="start" x="195.38" y="-89.5" font-family="Helvetica,sans-Serif" font-size="10.00">UKPTCheatManager::PrintCurrent</text>
<text xml:space="preserve" text-anchor="middle" x="270" y="-77.5" font-family="Helvetica,sans-Serif" font-size="10.00">SkillStatus</text>
</a>
</g>
</g>
<!-- Node1&#45;&gt;Node13 -->
<g id="edge14_Node000001_Node000013" class="edge">
<title>Node1&#45;&gt;Node13</title>
<g id="a_edge14_Node000001_Node000013"><a xlink:title=" ">
<path fill="none" stroke="#63b8ff" d="M149.91,-100.56C158.35,-99.6 167.03,-98.61 175.67,-97.62"/>
<polygon fill="#63b8ff" stroke="#63b8ff" points="175.95,-101.12 185.49,-96.51 175.16,-94.16 175.95,-101.12"/>
</a>
</g>
</g>
<!-- Node15 -->
<g id="Node000015" class="node">
<title>Node15</title>
<g id="a_Node000015"><a xlink:href="class_u_k_p_t_cheat_manager.html#ad680147373532691154ba6be8ce3aed3" target="_top" xlink:title=" ">
<polygon fill="white" stroke="#666666" points="354.5,-41 185.5,-41 185.5,-21 354.5,-21 354.5,-41"/>
<text xml:space="preserve" text-anchor="middle" x="270" y="-27.5" font-family="Helvetica,sans-Serif" font-size="10.00">UKPTCheatManager::RemoveItem</text>
</a>
</g>
</g>
<!-- Node1&#45;&gt;Node15 -->
<g id="edge16_Node000001_Node000015" class="edge">
<title>Node1&#45;&gt;Node15</title>
<g id="a_edge16_Node000001_Node000015"><a xlink:title=" ">
<path fill="none" stroke="#63b8ff" d="M99.16,-98.58C121.29,-88.82 155.47,-74 185.5,-62 199.66,-56.34 215.31,-50.44 229.19,-45.33"/>
<polygon fill="#63b8ff" stroke="#63b8ff" points="230.27,-48.66 238.46,-41.93 227.87,-42.08 230.27,-48.66"/>
</a>
</g>
</g>
<!-- Node3 -->
<g id="Node000003" class="node">
<title>Node3</title>
<g id="a_Node000003"><a xlink:href="class_u_skill_manager_component.html#ade57574476c2faa9d7356406cdd70b40" target="_top" xlink:title=" ">
<polygon fill="white" stroke="#666666" points="520.5,-234 390.5,-234 390.5,-202 520.5,-202 520.5,-234"/>
<text xml:space="preserve" text-anchor="start" x="398.5" y="-220.5" font-family="Helvetica,sans-Serif" font-size="10.00">USkillManagerComponent</text>
<text xml:space="preserve" text-anchor="middle" x="455.5" y="-208.5" font-family="Helvetica,sans-Serif" font-size="10.00">::AddSkill</text>
</a>
</g>
</g>
<!-- Node2&#45;&gt;Node3 -->
<g id="edge3_Node000002_Node000003" class="edge">
<title>Node2&#45;&gt;Node3</title>
<g id="a_edge3_Node000002_Node000003"><a xlink:title=" ">
<path fill="none" stroke="#63b8ff" d="M317.78,-187.45C336.41,-191.62 358.33,-196.51 379.09,-201.15"/>
<polygon fill="#63b8ff" stroke="#63b8ff" points="378.15,-204.53 388.68,-203.29 379.68,-197.7 378.15,-204.53"/>
</a>
</g>
</g>
<!-- Node4 -->
<g id="Node000004" class="node">
<title>Node4</title>
<g id="a_Node000004"><a xlink:href="class_u_skill_manager_component.html#abd079bd1871419539a26030ab82b5cf4" target="_top" xlink:title=" ">
<polygon fill="white" stroke="#666666" points="686.5,-301 556.5,-301 556.5,-269 686.5,-269 686.5,-301"/>
<text xml:space="preserve" text-anchor="start" x="564.5" y="-287.5" font-family="Helvetica,sans-Serif" font-size="10.00">USkillManagerComponent</text>
<text xml:space="preserve" text-anchor="middle" x="621.5" y="-275.5" font-family="Helvetica,sans-Serif" font-size="10.00">::BroadcastSkillChanged</text>
</a>
</g>
</g>
<!-- Node3&#45;&gt;Node4 -->
<g id="edge4_Node000003_Node000004" class="edge">
<title>Node3&#45;&gt;Node4</title>
<g id="a_edge4_Node000003_Node000004"><a xlink:title=" ">
<path fill="none" stroke="#63b8ff" d="M494.87,-234.38C513.44,-242.24 536.08,-251.73 556.5,-260 560.09,-261.46 563.8,-262.94 567.54,-264.43"/>
<polygon fill="#63b8ff" stroke="#63b8ff" points="566.1,-267.63 576.69,-268.05 568.68,-261.12 566.1,-267.63"/>
</a>
</g>
</g>
<!-- Node6 -->
<g id="Node000006" class="node">
<title>Node6</title>
<g id="a_Node000006"><a xlink:href="class_u_skill_manager_component.html#a9f545589b45bf8e8dcb86d6a76e46e7d" target="_top" xlink:title=" ">
<polygon fill="white" stroke="#666666" points="686.5,-251 556.5,-251 556.5,-219 686.5,-219 686.5,-251"/>
<text xml:space="preserve" text-anchor="start" x="564.5" y="-237.5" font-family="Helvetica,sans-Serif" font-size="10.00">USkillManagerComponent</text>
<text xml:space="preserve" text-anchor="middle" x="621.5" y="-225.5" font-family="Helvetica,sans-Serif" font-size="10.00">::InitializeGivenAbility</text>
</a>
</g>
</g>
<!-- Node3&#45;&gt;Node6 -->
<g id="edge6_Node000003_Node000006" class="edge">
<title>Node3&#45;&gt;Node6</title>
<g id="a_edge6_Node000003_Node000006"><a xlink:title=" ">
<path fill="none" stroke="#63b8ff" d="M520.85,-224.67C528.71,-225.49 536.81,-226.32 544.83,-227.16"/>
<polygon fill="#63b8ff" stroke="#63b8ff" points="544.26,-230.62 554.56,-228.17 544.98,-223.65 544.26,-230.62"/>
</a>
</g>
</g>
<!-- Node9 -->
<g id="Node000009" class="node">
<title>Node9</title>
<g id="a_Node000009"><a xlink:href="class_u_skill_manager_component.html#a3b41166a0321b681e053fea536b461ee" target="_top" xlink:title=" ">
<polygon fill="white" stroke="#666666" points="686.5,-201 556.5,-201 556.5,-169 686.5,-169 686.5,-201"/>
<text xml:space="preserve" text-anchor="start" x="564.5" y="-187.5" font-family="Helvetica,sans-Serif" font-size="10.00">USkillManagerComponent</text>
<text xml:space="preserve" text-anchor="middle" x="621.5" y="-175.5" font-family="Helvetica,sans-Serif" font-size="10.00">::OnStunTagChanged</text>
</a>
</g>
</g>
<!-- Node3&#45;&gt;Node9 -->
<g id="edge9_Node000003_Node000009" class="edge">
<title>Node3&#45;&gt;Node9</title>
<g id="a_edge9_Node000003_Node000009"><a xlink:title=" ">
<path fill="none" stroke="#63b8ff" d="M520.85,-205.05C528.71,-203.47 536.81,-201.84 544.83,-200.23"/>
<polygon fill="#63b8ff" stroke="#63b8ff" points="545.47,-203.67 554.59,-198.26 544.09,-196.8 545.47,-203.67"/>
</a>
</g>
</g>
<!-- Node5 -->
<g id="Node000005" class="node">
<title>Node5</title>
<g id="a_Node000005"><a xlink:href="class_u_skill_manager_component.html#a300da93de3b72a22e7eb816885db5f88" target="_top" xlink:title=" ">
<polygon fill="white" stroke="#666666" points="852.5,-301 722.5,-301 722.5,-269 852.5,-269 852.5,-301"/>
<text xml:space="preserve" text-anchor="start" x="730.5" y="-287.5" font-family="Helvetica,sans-Serif" font-size="10.00">USkillManagerComponent</text>
<text xml:space="preserve" text-anchor="middle" x="787.5" y="-275.5" font-family="Helvetica,sans-Serif" font-size="10.00">::GetOwnedSkillIDs</text>
</a>
</g>
</g>
<!-- Node4&#45;&gt;Node5 -->
<g id="edge5_Node000004_Node000005" class="edge">
<title>Node4&#45;&gt;Node5</title>
<g id="a_edge5_Node000004_Node000005"><a xlink:title=" ">
<path fill="none" stroke="#63b8ff" d="M686.85,-285C694.71,-285 702.81,-285 710.83,-285"/>
<polygon fill="#63b8ff" stroke="#63b8ff" points="710.56,-288.5 720.56,-285 710.56,-281.5 710.56,-288.5"/>
</a>
</g>
</g>
<!-- Node7 -->
<g id="Node000007" class="node">
<title>Node7</title>
<g id="a_Node000007"><a xlink:href="class_u_base_skill_ability.html#a8e1e476e767f4c1567a3ea52725b9fdd" target="_top" xlink:title=" ">
<polygon fill="white" stroke="#666666" points="840.88,-251 734.12,-251 734.12,-219 840.88,-219 840.88,-251"/>
<text xml:space="preserve" text-anchor="start" x="742.12" y="-237.5" font-family="Helvetica,sans-Serif" font-size="10.00">UBaseSkillAbility::</text>
<text xml:space="preserve" text-anchor="middle" x="787.5" y="-225.5" font-family="Helvetica,sans-Serif" font-size="10.00">CalculateFinalStatus</text>
</a>
</g>
</g>
<!-- Node6&#45;&gt;Node7 -->
<g id="edge7_Node000006_Node000007" class="edge">
<title>Node6&#45;&gt;Node7</title>
<g id="a_edge7_Node000006_Node000007"><a xlink:title=" ">
<path fill="none" stroke="#63b8ff" d="M686.85,-235C698.49,-235 710.63,-235 722.27,-235"/>
<polygon fill="#63b8ff" stroke="#63b8ff" points="722.19,-238.5 732.19,-235 722.19,-231.5 722.19,-238.5"/>
</a>
</g>
</g>
<!-- Node8 -->
<g id="Node000008" class="node">
<title>Node8</title>
<g id="a_Node000008"><a xlink:href="class_u_base_skill_ability.html#ac270dffb5b74e423d2892af6f5e510f8" target="_top" xlink:title=" ">
<polygon fill="white" stroke="#666666" points="838.62,-201 736.38,-201 736.38,-169 838.62,-169 838.62,-201"/>
<text xml:space="preserve" text-anchor="start" x="744.38" y="-187.5" font-family="Helvetica,sans-Serif" font-size="10.00">UBaseSkillAbility::</text>
<text xml:space="preserve" text-anchor="middle" x="787.5" y="-175.5" font-family="Helvetica,sans-Serif" font-size="10.00">InitializeAbilityTable</text>
</a>
</g>
</g>
<!-- Node6&#45;&gt;Node8 -->
<g id="edge8_Node000006_Node000008" class="edge">
<title>Node6&#45;&gt;Node8</title>
<g id="a_edge8_Node000006_Node000008"><a xlink:title=" ">
<path fill="none" stroke="#63b8ff" d="M676.2,-218.63C691.84,-213.86 709.04,-208.62 725.11,-203.72"/>
<polygon fill="#63b8ff" stroke="#63b8ff" points="726.03,-207.1 734.57,-200.83 723.99,-200.4 726.03,-207.1"/>
</a>
</g>
</g>
<!-- Node11 -->
<g id="Node000011" class="node">
<title>Node11</title>
<g id="a_Node000011"><a xlink:href="class_u_skill_buff_system_statics.html#a251cdb91c889fc43c1645ff6396ebd13" target="_top" xlink:title=" ">
<polygon fill="white" stroke="#666666" points="517.5,-150 393.5,-150 393.5,-118 517.5,-118 517.5,-150"/>
<text xml:space="preserve" text-anchor="start" x="401.5" y="-136.5" font-family="Helvetica,sans-Serif" font-size="10.00">USkillBuffSystemStatics</text>
<text xml:space="preserve" text-anchor="middle" x="455.5" y="-124.5" font-family="Helvetica,sans-Serif" font-size="10.00">::ApplyBuff</text>
</a>
</g>
</g>
<!-- Node10&#45;&gt;Node11 -->
<g id="edge11_Node000010_Node000011" class="edge">
<title>Node10&#45;&gt;Node11</title>
<g id="a_edge11_Node000010_Node000011"><a xlink:title=" ">
<path fill="none" stroke="#63b8ff" d="M347.76,-132.84C358.98,-132.96 370.52,-133.08 381.66,-133.21"/>
<polygon fill="#63b8ff" stroke="#63b8ff" points="381.55,-136.71 391.59,-133.31 381.63,-129.71 381.55,-136.71"/>
</a>
</g>
</g>
<!-- Node12 -->
<g id="Node000012" class="node">
<title>Node12</title>
<g id="a_Node000012"><a xlink:href="struct_f_magnitude_by_rarity.html#a0fc048b3197b409649ad98007b8189d6" target="_top" xlink:title=" ">
<polygon fill="white" stroke="#666666" points="683.12,-133 559.88,-133 559.88,-101 683.12,-101 683.12,-133"/>
<text xml:space="preserve" text-anchor="start" x="567.88" y="-119.5" font-family="Helvetica,sans-Serif" font-size="10.00">FMagnitudeByRarity</text>
<text xml:space="preserve" text-anchor="middle" x="621.5" y="-107.5" font-family="Helvetica,sans-Serif" font-size="10.00">::GetMagnitudeForRarity</text>
</a>
</g>
</g>
<!-- Node11&#45;&gt;Node12 -->
<g id="edge12_Node000011_Node000012" class="edge">
<title>Node11&#45;&gt;Node12</title>
<g id="a_edge12_Node000011_Node000012"><a xlink:title=" ">
<path fill="none" stroke="#63b8ff" d="M517.57,-127.67C527.49,-126.64 537.86,-125.57 548.02,-124.51"/>
<polygon fill="#63b8ff" stroke="#63b8ff" points="548.29,-128 557.88,-123.49 547.57,-121.04 548.29,-128"/>
</a>
</g>
</g>
<!-- Node12&#45;&gt;Node12 -->
<g id="edge13_Node000012_Node000012" class="edge">
<title>Node12&#45;&gt;Node12</title>
<g id="a_edge13_Node000012_Node000012"><a xlink:title=" ">
<path fill="none" stroke="#63b8ff" d="M591.86,-133.44C586.33,-142.58 596.21,-151 621.5,-151 635.33,-151 644.55,-148.48 649.16,-144.71"/>
<polygon fill="#63b8ff" stroke="#63b8ff" points="652.6,-145.39 650.87,-134.93 645.7,-144.18 652.6,-145.39"/>
</a>
</g>
</g>
<!-- Node14 -->
<g id="Node000014" class="node">
<title>Node14</title>
<g id="a_Node000014"><a xlink:href="class_u_skill_buff_system_statics.html#aa9aa30ae17bec437d00fb1e3c277d73e" target="_top" xlink:title=" ">
<polygon fill="white" stroke="#666666" points="517.5,-100 393.5,-100 393.5,-68 517.5,-68 517.5,-100"/>
<text xml:space="preserve" text-anchor="start" x="401.5" y="-86.5" font-family="Helvetica,sans-Serif" font-size="10.00">USkillBuffSystemStatics</text>
<text xml:space="preserve" text-anchor="middle" x="455.5" y="-74.5" font-family="Helvetica,sans-Serif" font-size="10.00">::GetSkillStatus</text>
</a>
</g>
</g>
<!-- Node13&#45;&gt;Node14 -->
<g id="edge15_Node000013_Node000014" class="edge">
<title>Node13&#45;&gt;Node14</title>
<g id="a_edge15_Node000013_Node000014"><a xlink:title=" ">
<path fill="none" stroke="#63b8ff" d="M353.09,-85.66C362.65,-85.5 372.36,-85.34 381.79,-85.19"/>
<polygon fill="#63b8ff" stroke="#63b8ff" points="381.67,-88.69 391.61,-85.03 381.55,-81.69 381.67,-88.69"/>
</a>
</g>
</g>
<!-- Node16 -->
<g id="Node000016" class="node">
<title>Node16</title>
<g id="a_Node000016"><a xlink:href="class_u_inventory_manager.html#a3b3f70075ad63d4e9a454068ac6d26b9" target="_top" xlink:title=" ">
<polygon fill="white" stroke="#666666" points="509.25,-32 401.75,-32 401.75,0 509.25,0 509.25,-32"/>
<text xml:space="preserve" text-anchor="start" x="409.75" y="-18.5" font-family="Helvetica,sans-Serif" font-size="10.00">UInventoryManager::</text>
<text xml:space="preserve" text-anchor="middle" x="455.5" y="-6.5" font-family="Helvetica,sans-Serif" font-size="10.00">ServerRemoveItem</text>
</a>
</g>
</g>
<!-- Node15&#45;&gt;Node16 -->
<g id="edge17_Node000015_Node000016" class="edge">
<title>Node15&#45;&gt;Node16</title>
<g id="a_edge17_Node000015_Node000016"><a xlink:title=" ">
<path fill="none" stroke="#63b8ff" d="M354.96,-24.14C366.78,-23.17 378.78,-22.19 390.15,-21.26"/>
<polygon fill="#63b8ff" stroke="#63b8ff" points="390.1,-24.78 399.78,-20.47 389.53,-17.8 390.1,-24.78"/>
</a>
</g>
</g>
<!-- Node16&#45;&gt;Node16 -->
<g id="edge18_Node000016_Node000016" class="edge">
<title>Node16&#45;&gt;Node16</title>
<g id="a_edge18_Node000016_Node000016"><a xlink:title=" ">
<path fill="none" stroke="#63b8ff" d="M425.86,-32.44C420.33,-41.58 430.21,-50 455.5,-50 469.33,-50 478.55,-47.48 483.16,-43.71"/>
<polygon fill="#63b8ff" stroke="#63b8ff" points="486.6,-44.39 484.87,-33.93 479.7,-43.18 486.6,-44.39"/>
</a>
</g>
</g>
</g>
</svg>
