<?xml version="1.0" encoding="UTF-8" standalone="no"?>
<!DOCTYPE svg PUBLIC "-//W3C//DTD SVG 1.1//EN"
 "http://www.w3.org/Graphics/SVG/1.1/DTD/svg11.dtd">
<!-- Generated by graphviz version 13.1.1 (20250719.2154)
 -->
<!-- Title: AKPTInGameMode::TeleportPlayerToStart Pages: 1 -->
<!--zoomable 182 -->

<svg id="main" version="1.1" xmlns="http://www.w3.org/2000/svg" xmlns:xlink="http://www.w3.org/1999/xlink" xml:space="preserve" onload="init(evt)">

<style type="text/css"><![CDATA[
.node, .edge {opacity: 0.7;}
.node.selected, .edge.selected {opacity: 1;}
.edge:hover path { stroke: red; }
.edge:hover polygon { stroke: red; fill: red; }
]]></style>

<defs>
  <circle id="rim" cx="0" cy="0" r="7"/>
  <circle id="rim2" cx="0" cy="0" r="3.5"/>
  <g id="zoomPlus">
    <use xlink:href="#rim" fill="#404040"><set attributeName="fill" to="#808080" begin="zoomplus.mouseover" end="zoomplus.mouseout"/></use>
    <path d="M-4,0h8M0,-4v8" fill="none" stroke="white" stroke-width="1.5" pointer-events="none"/>
  </g>
  <g id="zoomMin">
    <use xlink:href="#rim" fill="#404040"><set attributeName="fill" to="#808080" begin="zoomminus.mouseover" end="zoomminus.mouseout"/></use>
    <path d="M-4,0h8" fill="none" stroke="white" stroke-width="1.5" pointer-events="none"/>
  </g>
  <g id="arrowUp" transform="translate(30 24)">
    <use xlink:href="#rim"/>
    <path pointer-events="none" fill="none" stroke="white" stroke-width="1.5" d="M0,-3.0v7 M-2.5,-0.5L0,-3.0L2.5,-0.5"/>
  </g>
  <g id="arrowRight" transform="rotate(90) translate(36 -43)">
    <use xlink:href="#rim"/>
    <path pointer-events="none" fill="none" stroke="white" stroke-width="1.5" d="M0,-3.0v7 M-2.5,-0.5L0,-3.0L2.5,-0.5"/>
  </g>
  <g id="arrowDown" transform="rotate(180) translate(-30 -48)">
    <use xlink:href="#rim"/>
    <path pointer-events="none" fill="none" stroke="white" stroke-width="1.5" d="M0,-3.0v7 M-2.5,-0.5L0,-3.0L2.5,-0.5"/>
  </g>
  <g id="arrowLeft" transform="rotate(270) translate(-36 17)">
    <use xlink:href="#rim"/>
    <path pointer-events="none" fill="none" stroke="white" stroke-width="1.5" d="M0,-3.0v7 M-2.5,-0.5L0,-3.0L2.5,-0.5"/>
  </g>
  <g id="resetDef">
    <use xlink:href="#rim2" fill="#404040"><set attributeName="fill" to="#808080" begin="reset.mouseover" end="reset.mouseout"/></use>
  </g>
</defs>
<script type="application/ecmascript">
var viewWidth = 1141;
var viewHeight = 182;
var sectionId = 'dynsection-52';
</script>
<script type="application/ecmascript" xlink:href="svg.min.js"/>
<svg id="graph" class="graph">
<g id="viewport">
<title>AKPTInGameMode::TeleportPlayerToStart</title>
<!-- Node1 -->
<g id="Node000001" class="node">
<title>Node1</title>
<g id="a_Node000001"><a xlink:title=" ">
<polygon fill="#999999" stroke="#666666" points="1132.5,-35 991.25,-35 991.25,-3 1132.5,-3 1132.5,-35"/>
<text xml:space="preserve" text-anchor="start" x="999.25" y="-21.5" font-family="Helvetica,sans-Serif" font-size="10.00">AKPTInGameMode::Teleport</text>
<text xml:space="preserve" text-anchor="middle" x="1061.88" y="-9.5" font-family="Helvetica,sans-Serif" font-size="10.00">PlayerToStart</text>
</a>
</g>
</g>
<!-- Node2 -->
<g id="Node000002" class="node">
<title>Node2</title>
<g id="a_Node000002"><a xlink:href="class_a_k_p_t_in_game_mode.html#a1c856c37dce7343a381723b5d842ecf7" target="_top" xlink:title="모든 플레이어가 사망했는지 확인합니다.">
<polygon fill="white" stroke="#666666" points="955.25,-67 766,-67 766,-47 955.25,-47 955.25,-67"/>
<text xml:space="preserve" text-anchor="middle" x="860.62" y="-53.5" font-family="Helvetica,sans-Serif" font-size="10.00">AKPTInGameMode::AreAllPlayersDead</text>
</a>
</g>
</g>
<!-- Node1&#45;&gt;Node2 -->
<g id="edge1_Node000001_Node000002" class="edge">
<title>Node1&#45;&gt;Node2</title>
<g id="a_edge1_Node000001_Node000002"><a xlink:title=" ">
<path fill="none" stroke="#63b8ff" d="M979.87,-34.45C958.52,-38.52 935.98,-42.82 916.37,-46.56"/>
<polygon fill="#63b8ff" stroke="#63b8ff" points="980.25,-37.94 989.42,-32.63 978.94,-31.06 980.25,-37.94"/>
</a>
</g>
</g>
<!-- Node6 -->
<g id="Node000006" class="node">
<title>Node6</title>
<g id="a_Node000006"><a xlink:href="class_a_k_p_t_in_game_mode.html#a410acd626df9144d7ebb63b535dbc37b" target="_top" xlink:title=" ">
<polygon fill="white" stroke="#666666" points="148.75,-54 0,-54 0,-22 148.75,-22 148.75,-54"/>
<text xml:space="preserve" text-anchor="start" x="8" y="-40.5" font-family="Helvetica,sans-Serif" font-size="10.00">AKPTInGameMode::Complete</text>
<text xml:space="preserve" text-anchor="middle" x="74.38" y="-28.5" font-family="Helvetica,sans-Serif" font-size="10.00">PhaseTransition</text>
</a>
</g>
</g>
<!-- Node1&#45;&gt;Node6 -->
<g id="edge14_Node000001_Node000006" class="edge">
<title>Node1&#45;&gt;Node6</title>
<g id="a_edge14_Node000001_Node000006"><a xlink:title=" ">
<path fill="none" stroke="#63b8ff" d="M979.6,-13.06C896.23,-7.49 762.76,0 647.25,0 647.25,0 647.25,0 450,0 345.08,0 224.46,-14.94 149.08,-26.08"/>
<polygon fill="#63b8ff" stroke="#63b8ff" points="979.3,-16.55 989.52,-13.73 979.78,-9.56 979.3,-16.55"/>
</a>
</g>
</g>
<!-- Node2&#45;&gt;Node2 -->
<g id="edge2_Node000002_Node000002" class="edge">
<title>Node2&#45;&gt;Node2</title>
<g id="a_edge2_Node000002_Node000002"><a xlink:title=" ">
<path fill="none" stroke="#63b8ff" d="M896.57,-78.11C892.28,-82.14 880.3,-85 860.62,-85 825.64,-85 814.98,-75.98 828.65,-67.34"/>
<polygon fill="#63b8ff" stroke="#63b8ff" points="899.87,-76.93 893.12,-68.76 893.3,-79.35 899.87,-76.93"/>
</a>
</g>
</g>
<!-- Node3 -->
<g id="Node000003" class="node">
<title>Node3</title>
<g id="a_Node000003"><a xlink:href="class_a_k_p_t_in_game_mode.html#a0e1dec85eeba3835d463238c88f8904b" target="_top" xlink:title="야간 페이즈를 종료하고, 게임 종료 조건을 확인하거나 새 라운드를 시작합니다.">
<polygon fill="white" stroke="#666666" points="719.88,-155 572.62,-155 572.62,-123 719.88,-123 719.88,-155"/>
<text xml:space="preserve" text-anchor="start" x="580.62" y="-141.5" font-family="Helvetica,sans-Serif" font-size="10.00">AKPTInGameMode::EndNight</text>
<text xml:space="preserve" text-anchor="middle" x="646.25" y="-129.5" font-family="Helvetica,sans-Serif" font-size="10.00">Phase</text>
</a>
</g>
</g>
<!-- Node2&#45;&gt;Node3 -->
<g id="edge3_Node000002_Node000003" class="edge">
<title>Node2&#45;&gt;Node3</title>
<g id="a_edge3_Node000002_Node000003"><a xlink:title=" ">
<path fill="none" stroke="#63b8ff" d="M822.36,-71.39C785.28,-85.7 728.47,-107.64 689.68,-122.62"/>
<polygon fill="#63b8ff" stroke="#63b8ff" points="823.25,-74.8 831.32,-67.93 820.73,-68.27 823.25,-74.8"/>
</a>
</g>
</g>
<!-- Node7 -->
<g id="Node000007" class="node">
<title>Node7</title>
<g id="a_Node000007"><a xlink:href="class_a_k_p_t_in_game_mode.html#a3a63b6ea26b3ef6a916ca7b5fed4813f" target="_top" xlink:title="플레이어가 사망했을 때 호출됩니다.">
<polygon fill="white" stroke="#666666" points="730,-86 562.5,-86 562.5,-66 730,-66 730,-86"/>
<text xml:space="preserve" text-anchor="middle" x="646.25" y="-72.5" font-family="Helvetica,sans-Serif" font-size="10.00">AKPTInGameMode::OnPlayerDied</text>
</a>
</g>
</g>
<!-- Node2&#45;&gt;Node7 -->
<g id="edge8_Node000002_Node000007" class="edge">
<title>Node2&#45;&gt;Node7</title>
<g id="a_edge8_Node000002_Node000007"><a xlink:title=" ">
<path fill="none" stroke="#63b8ff" d="M754.2,-66.43C746.16,-67.15 738.12,-67.87 730.25,-68.57"/>
<polygon fill="#63b8ff" stroke="#63b8ff" points="754.39,-69.93 764.04,-65.55 753.77,-62.96 754.39,-69.93"/>
</a>
</g>
</g>
<!-- Node4 -->
<g id="Node000004" class="node">
<title>Node4</title>
<g id="a_Node000004"><a xlink:href="class_a_k_p_t_in_game_mode.html#acd0b193dd9ce700d2a4cb3953565584c" target="_top" xlink:title="야간 페이즈의 핵심 로직을 실행합니다.">
<polygon fill="white" stroke="#666666" points="526.5,-174 375.5,-174 375.5,-142 526.5,-142 526.5,-174"/>
<text xml:space="preserve" text-anchor="start" x="383.5" y="-160.5" font-family="Helvetica,sans-Serif" font-size="10.00">AKPTInGameMode::StartNight</text>
<text xml:space="preserve" text-anchor="middle" x="451" y="-148.5" font-family="Helvetica,sans-Serif" font-size="10.00">Phase</text>
</a>
</g>
</g>
<!-- Node3&#45;&gt;Node4 -->
<g id="edge4_Node000003_Node000004" class="edge">
<title>Node3&#45;&gt;Node4</title>
<g id="a_edge4_Node000003_Node000004"><a xlink:title=" ">
<path fill="none" stroke="#63b8ff" d="M560.92,-147.29C549.56,-148.41 537.96,-149.55 526.77,-150.65"/>
<polygon fill="#63b8ff" stroke="#63b8ff" points="561.07,-150.79 570.68,-146.33 560.39,-143.83 561.07,-150.79"/>
</a>
</g>
</g>
<!-- Node5 -->
<g id="Node000005" class="node">
<title>Node5</title>
<g id="a_Node000005"><a xlink:href="class_a_k_p_t_in_game_mode.html#a84edc1df98161132b7b803669c9299a0" target="_top" xlink:title="야간 페이즈를 시작하기 위한 준비 및 전환을 시작합니다.">
<polygon fill="white" stroke="#666666" points="339.5,-164 184.75,-164 184.75,-132 339.5,-132 339.5,-164"/>
<text xml:space="preserve" text-anchor="start" x="192.75" y="-150.5" font-family="Helvetica,sans-Serif" font-size="10.00">AKPTInGameMode::BeginNight</text>
<text xml:space="preserve" text-anchor="middle" x="262.12" y="-138.5" font-family="Helvetica,sans-Serif" font-size="10.00">PhaseLogic</text>
</a>
</g>
</g>
<!-- Node4&#45;&gt;Node5 -->
<g id="edge5_Node000004_Node000005" class="edge">
<title>Node4&#45;&gt;Node5</title>
<g id="a_edge5_Node000004_Node000005"><a xlink:title=" ">
<path fill="none" stroke="#63b8ff" d="M363.57,-153.38C355.67,-152.95 347.71,-152.53 339.91,-152.11"/>
<polygon fill="#63b8ff" stroke="#63b8ff" points="363.38,-156.87 373.56,-153.91 363.76,-149.88 363.38,-156.87"/>
</a>
</g>
</g>
<!-- Node5&#45;&gt;Node6 -->
<g id="edge6_Node000005_Node000006" class="edge">
<title>Node5&#45;&gt;Node6</title>
<g id="a_edge6_Node000005_Node000006"><a xlink:title=" ">
<path fill="none" stroke="#63b8ff" d="M211.84,-126.92C202.69,-122.59 193.33,-117.86 184.75,-113 152.9,-94.96 118.42,-70.39 96.86,-54.37"/>
<polygon fill="#63b8ff" stroke="#63b8ff" points="210.1,-129.97 220.65,-131 213.04,-123.62 210.1,-129.97"/>
</a>
</g>
</g>
<!-- Node6&#45;&gt;Node2 -->
<g id="edge7_Node000006_Node000002" class="edge">
<title>Node6&#45;&gt;Node2</title>
<g id="a_edge7_Node000006_Node000002"><a xlink:title=" ">
<path fill="none" stroke="#63b8ff" d="M160.46,-40.06C308.41,-43.65 611.96,-51 765.81,-54.73"/>
<polygon fill="#63b8ff" stroke="#63b8ff" points="160.81,-36.57 150.73,-39.83 160.64,-43.57 160.81,-36.57"/>
</a>
</g>
</g>
<!-- Node8 -->
<g id="Node000008" class="node">
<title>Node8</title>
<g id="a_Node000008"><a xlink:href="class_a_player_character.html#aa38c751d8495a3e3d999eafad23d7a88" target="_top" xlink:title=" ">
<polygon fill="white" stroke="#666666" points="508.12,-124 393.88,-124 393.88,-104 508.12,-104 508.12,-124"/>
<text xml:space="preserve" text-anchor="middle" x="451" y="-110.5" font-family="Helvetica,sans-Serif" font-size="10.00">APlayerCharacter::Die</text>
</a>
</g>
</g>
<!-- Node7&#45;&gt;Node8 -->
<g id="edge9_Node000007_Node000008" class="edge">
<title>Node7&#45;&gt;Node8</title>
<g id="a_edge9_Node000007_Node000008"><a xlink:title=" ">
<path fill="none" stroke="#63b8ff" d="M580.88,-88.66C556.3,-93.49 528.57,-98.94 505.14,-103.55"/>
<polygon fill="#63b8ff" stroke="#63b8ff" points="581.31,-92.14 590.45,-86.78 579.96,-85.27 581.31,-92.14"/>
</a>
</g>
</g>
<!-- Node9 -->
<g id="Node000009" class="node">
<title>Node9</title>
<g id="a_Node000009"><a xlink:href="class_a_character_base.html#af4c20a0d4ddeb41b0eb305b807bcfc9d" target="_top" xlink:title=" ">
<polygon fill="white" stroke="#666666" points="526.5,-86 375.5,-86 375.5,-66 526.5,-66 526.5,-86"/>
<text xml:space="preserve" text-anchor="middle" x="451" y="-72.5" font-family="Helvetica,sans-Serif" font-size="10.00">ACharacterBase::HandleDeath</text>
</a>
</g>
</g>
<!-- Node7&#45;&gt;Node9 -->
<g id="edge10_Node000007_Node000009" class="edge">
<title>Node7&#45;&gt;Node9</title>
<g id="a_edge10_Node000007_Node000009"><a xlink:title=" ">
<path fill="none" stroke="#63b8ff" d="M550.81,-76C542.74,-76 534.66,-76 526.78,-76"/>
<polygon fill="#63b8ff" stroke="#63b8ff" points="550.66,-79.5 560.66,-76 550.66,-72.5 550.66,-79.5"/>
</a>
</g>
</g>
<!-- Node10 -->
<g id="Node000010" class="node">
<title>Node10</title>
<g id="a_Node000010"><a xlink:href="class_a_character_base.html#af3460531018611a7b3b2c59779c65ead" target="_top" xlink:title=" ">
<polygon fill="white" stroke="#666666" points="328.62,-86 195.62,-86 195.62,-66 328.62,-66 328.62,-86"/>
<text xml:space="preserve" text-anchor="middle" x="262.12" y="-72.5" font-family="Helvetica,sans-Serif" font-size="10.00">ACharacterBase::OnDeath</text>
</a>
</g>
</g>
<!-- Node9&#45;&gt;Node10 -->
<g id="edge11_Node000009_Node000010" class="edge">
<title>Node9&#45;&gt;Node10</title>
<g id="a_edge11_Node000009_Node000010"><a xlink:title=" ">
<path fill="none" stroke="#63b8ff" d="M363.9,-69.27C352.19,-69.21 340.31,-69.29 329.03,-69.52"/>
<polygon fill="#63b8ff" stroke="#63b8ff" points="363.52,-72.77 373.55,-69.36 363.59,-65.77 363.52,-72.77"/>
</a>
</g>
</g>
<!-- Node10&#45;&gt;Node9 -->
<g id="edge12_Node000010_Node000009" class="edge">
<title>Node10&#45;&gt;Node9</title>
<g id="a_edge12_Node000010_Node000009"><a xlink:title=" ">
<path fill="none" stroke="#63b8ff" d="M340.36,-82.66C351.84,-82.79 363.64,-82.78 375.07,-82.63"/>
<polygon fill="#63b8ff" stroke="#63b8ff" points="340.6,-79.16 330.54,-82.51 340.49,-86.16 340.6,-79.16"/>
</a>
</g>
</g>
<!-- Node10&#45;&gt;Node10 -->
<g id="edge13_Node000010_Node000010" class="edge">
<title>Node10&#45;&gt;Node10</title>
<g id="a_edge13_Node000010_Node000010"><a xlink:title=" ">
<path fill="none" stroke="#63b8ff" d="M295.66,-97.11C291.66,-101.14 280.48,-104 262.12,-104 229.49,-104 219.54,-94.98 232.29,-86.34"/>
<polygon fill="#63b8ff" stroke="#63b8ff" points="299.01,-96.09 292.45,-87.77 292.39,-98.36 299.01,-96.09"/>
</a>
</g>
</g>
</g>
</svg>

<g id="navigator" transform="translate(0 0)" fill="#404254">
  <rect fill="#f2f5e9" fill-opacity="0.5" stroke="#606060" stroke-width=".5" x="0" y="0" width="60" height="60"/>
  <use id="zoomplus" xlink:href="#zoomPlus" x="17" y="9" onmousedown="handleZoom(evt,'in')"/>
  <use id="zoomminus" xlink:href="#zoomMin" x="42" y="9" onmousedown="handleZoom(evt,'out')"/>
  <use id="reset" xlink:href="#resetDef" x="30" y="36" onmousedown="handleReset()"/>
   <use id="arrowup" xlink:href="#arrowUp" x="0" y="0" onmousedown="handlePan(0,-1)"/>
  <use id="arrowright" xlink:href="#arrowRight" x="0" y="0" onmousedown="handlePan(1,0)"/>
  <use id="arrowdown" xlink:href="#arrowDown" x="0" y="0" onmousedown="handlePan(0,1)"/>
  <use id="arrowleft" xlink:href="#arrowLeft" x="0" y="0" onmousedown="handlePan(-1,0)"/>
</g>
<svg viewBox="0 0 15 15" width="100%" height="30px" preserveAspectRatio="xMaxYMin meet">
 <g id="arrow_out" transform="scale(0.3 0.3)">
  <a xlink:href="class_a_k_p_t_in_game_mode_aa8b93d6bdef1ef7d2ddd4d2018bc94cb_icgraph_org.svg" target="_base">
   <rect id="button" ry="5" rx="5" y="6" x="6" height="38" width="38"
        fill="#f2f5e9" fill-opacity="0.5" stroke="#606060" stroke-width="1.0"/>
   <path id="arrow"
     d="M 11.500037,31.436501 C 11.940474,20.09759 22.043105,11.32322 32.158766,21.979434 L 37.068811,17.246167 C 37.068811,17.246167 37.088388,32 37.088388,32 L 22.160133,31.978069 C 22.160133,31.978069 26.997745,27.140456 26.997745,27.140456 C 18.528582,18.264221 13.291696,25.230495 11.500037,31.436501 z"
     style="fill:#404040;"/>
  </a>
 </g>
</svg>

<style type='text/css'>
<![CDATA[
[data-mouse-over-selected='false'] { opacity: 0.7; }
[data-mouse-over-selected='true']  { opacity: 1.0; }
]]>
</style>
<script type="application/ecmascript"><![CDATA[
document.addEventListener('DOMContentLoaded', (event) => {
  highlightEdges();
  highlightAdjacentNodes();
});
]]></script>
</svg>
