<?xml version="1.0" encoding="UTF-8" standalone="no"?>
<!DOCTYPE svg PUBLIC "-//W3C//DTD SVG 1.1//EN"
 "http://www.w3.org/Graphics/SVG/1.1/DTD/svg11.dtd">
<!-- Generated by graphviz version 13.1.1 (20250719.2154)
 -->
<!-- Title: ULobbyUI Pages: 1 -->
<svg width="171pt" height="456pt"
 viewBox="0.00 0.00 171.00 456.00" xmlns="http://www.w3.org/2000/svg" xmlns:xlink="http://www.w3.org/1999/xlink">
<g id="graph0" class="graph" transform="scale(1 1) rotate(0) translate(4 452)">
<title>ULobbyUI</title>
<!-- Node1 -->
<g id="Node000001" class="node">
<title>Node1</title>
<g id="a_Node000001"><a xlink:title=" ">
<polygon fill="#999999" stroke="none" points="158.25,-148 4.5,-148 4.5,0 158.25,0 158.25,-148"/>
<text xml:space="preserve" text-anchor="start" x="59.25" y="-134.5" font-family="Helvetica,sans-Serif" font-size="10.00">ULobbyUI</text>
<text xml:space="preserve" text-anchor="start" x="8.5" y="-118.5" font-family="Helvetica,sans-Serif" font-size="10.00">#</text>
<text xml:space="preserve" text-anchor="start" x="17.75" y="-118.5" font-family="Helvetica,sans-Serif" font-size="10.00">float SearchAnimationInterval</text>
<text xml:space="preserve" text-anchor="start" x="8.5" y="-102.5" font-family="Helvetica,sans-Serif" font-size="10.00">#</text>
<text xml:space="preserve" text-anchor="start" x="17.75" y="-102.5" font-family="Helvetica,sans-Serif" font-size="10.00">virtual void NativeConstruct</text>
<text xml:space="preserve" text-anchor="start" x="17.75" y="-90.5" font-family="Helvetica,sans-Serif" font-size="10.00">() override</text>
<text xml:space="preserve" text-anchor="start" x="8.5" y="-74.5" font-family="Helvetica,sans-Serif" font-size="10.00">#</text>
<text xml:space="preserve" text-anchor="start" x="17.75" y="-74.5" font-family="Helvetica,sans-Serif" font-size="10.00">virtual void NativeDestruct</text>
<text xml:space="preserve" text-anchor="start" x="17.75" y="-62.5" font-family="Helvetica,sans-Serif" font-size="10.00">() override</text>
<text xml:space="preserve" text-anchor="start" x="8.5" y="-46.5" font-family="Helvetica,sans-Serif" font-size="10.00">#</text>
<text xml:space="preserve" text-anchor="start" x="17.75" y="-46.5" font-family="Helvetica,sans-Serif" font-size="10.00">void OnSessionSearchFinished</text>
<text xml:space="preserve" text-anchor="start" x="17.75" y="-34.5" font-family="Helvetica,sans-Serif" font-size="10.00">(bool bWasSuccessful, const</text>
<text xml:space="preserve" text-anchor="start" x="17.75" y="-22.5" font-family="Helvetica,sans-Serif" font-size="10.00"> FString &amp;Message)</text>
<text xml:space="preserve" text-anchor="start" x="8.5" y="-6.5" font-family="Helvetica,sans-Serif" font-size="10.00">#</text>
<text xml:space="preserve" text-anchor="start" x="17.75" y="-6.5" font-family="Helvetica,sans-Serif" font-size="10.00">void UpdateSearchStatusText()</text>
<polygon fill="#666666" stroke="#666666" points="4.5,-130 4.5,-130 158.25,-130 158.25,-130 4.5,-130"/>
<polygon fill="#666666" stroke="#666666" points="4.5,-114 4.5,-114 15.75,-114 15.75,-114 4.5,-114"/>
<polygon fill="#666666" stroke="#666666" points="15.75,-114 15.75,-114 158.25,-114 158.25,-114 15.75,-114"/>
<polygon fill="none" stroke="#666666" points="4.5,0 4.5,-148 158.25,-148 158.25,0 4.5,0"/>
</a>
</g>
</g>
<!-- Node2 -->
<g id="Node000002" class="node">
<title>Node2</title>
<g id="a_Node000002"><a xlink:href="class_u_u_i_base.html" target="_top" xlink:title=" ">
<polygon fill="white" stroke="none" points="162.75,-360 0,-360 0,-184 162.75,-184 162.75,-360"/>
<text xml:space="preserve" text-anchor="start" x="61.12" y="-346.5" font-family="Helvetica,sans-Serif" font-size="10.00">UUIBase</text>
<text xml:space="preserve" text-anchor="start" x="4.38" y="-330.5" font-family="Helvetica,sans-Serif" font-size="10.00">#</text>
<text xml:space="preserve" text-anchor="start" x="14" y="-330.5" font-family="Helvetica,sans-Serif" font-size="10.00">FWidgetAnimationDynamicEvent</text>
<text xml:space="preserve" text-anchor="start" x="14" y="-318.5" font-family="Helvetica,sans-Serif" font-size="10.00"> AnimationFinishEvent</text>
<text xml:space="preserve" text-anchor="start" x="4" y="-302.5" font-family="Helvetica,sans-Serif" font-size="10.00">+</text>
<text xml:space="preserve" text-anchor="start" x="14" y="-302.5" font-family="Helvetica,sans-Serif" font-size="10.00">UUIManagerSubsystem</text>
<text xml:space="preserve" text-anchor="start" x="14" y="-290.5" font-family="Helvetica,sans-Serif" font-size="10.00"> * GetUIManagerSubsystem()</text>
<text xml:space="preserve" text-anchor="start" x="4" y="-274.5" font-family="Helvetica,sans-Serif" font-size="10.00">+</text>
<text xml:space="preserve" text-anchor="start" x="14" y="-274.5" font-family="Helvetica,sans-Serif" font-size="10.00">virtual void LateInit()</text>
<text xml:space="preserve" text-anchor="start" x="4.38" y="-258.5" font-family="Helvetica,sans-Serif" font-size="10.00">#</text>
<text xml:space="preserve" text-anchor="start" x="14" y="-258.5" font-family="Helvetica,sans-Serif" font-size="10.00">virtual void NativeConstruct</text>
<text xml:space="preserve" text-anchor="start" x="14" y="-246.5" font-family="Helvetica,sans-Serif" font-size="10.00">() override</text>
<text xml:space="preserve" text-anchor="start" x="4.38" y="-230.5" font-family="Helvetica,sans-Serif" font-size="10.00">#</text>
<text xml:space="preserve" text-anchor="start" x="14" y="-230.5" font-family="Helvetica,sans-Serif" font-size="10.00">virtual void NativeDestruct</text>
<text xml:space="preserve" text-anchor="start" x="14" y="-218.5" font-family="Helvetica,sans-Serif" font-size="10.00">() override</text>
<text xml:space="preserve" text-anchor="start" x="4.38" y="-202.5" font-family="Helvetica,sans-Serif" font-size="10.00">#</text>
<text xml:space="preserve" text-anchor="start" x="14" y="-202.5" font-family="Helvetica,sans-Serif" font-size="10.00">virtual void NativePreConstruct</text>
<text xml:space="preserve" text-anchor="start" x="14" y="-190.5" font-family="Helvetica,sans-Serif" font-size="10.00">() override</text>
<polygon fill="#666666" stroke="#666666" points="0,-342 0,-342 162.75,-342 162.75,-342 0,-342"/>
<polygon fill="#666666" stroke="#666666" points="0,-314 0,-314 12,-314 12,-314 0,-314"/>
<polygon fill="#666666" stroke="#666666" points="12,-314 12,-314 162.75,-314 162.75,-314 12,-314"/>
<polygon fill="none" stroke="#666666" points="0,-184 0,-360 162.75,-360 162.75,-184 0,-184"/>
</a>
</g>
</g>
<!-- Node2&#45;&gt;Node1 -->
<g id="edge1_Node000001_Node000002" class="edge">
<title>Node2&#45;&gt;Node1</title>
<g id="a_edge1_Node000001_Node000002"><a xlink:title=" ">
<path fill="none" stroke="#63b8ff" d="M81.38,-172.8C81.38,-164.45 81.38,-156.09 81.38,-147.99"/>
<polygon fill="none" stroke="#63b8ff" points="77.88,-172.66 81.38,-182.66 84.88,-172.66 77.88,-172.66"/>
</a>
</g>
</g>
<!-- Node3 -->
<g id="Node000003" class="node">
<title>Node3</title>
<g id="a_Node000003"><a xlink:title=" ">
<polygon fill="white" stroke="none" points="115,-448 47.75,-448 47.75,-396 115,-396 115,-448"/>
<text xml:space="preserve" text-anchor="start" x="51.75" y="-434.5" font-family="Helvetica,sans-Serif" font-size="10.00">UUserWidget</text>
<text xml:space="preserve" text-anchor="start" x="79.88" y="-418.5" font-family="Helvetica,sans-Serif" font-size="10.00"> </text>
<text xml:space="preserve" text-anchor="start" x="79.88" y="-402.5" font-family="Helvetica,sans-Serif" font-size="10.00"> </text>
<polygon fill="#666666" stroke="#666666" points="47.75,-430 47.75,-430 115,-430 115,-430 47.75,-430"/>
<polygon fill="#666666" stroke="#666666" points="47.75,-414 47.75,-414 115,-414 115,-414 47.75,-414"/>
<polygon fill="none" stroke="#666666" points="47.75,-396 47.75,-448 115,-448 115,-396 47.75,-396"/>
</a>
</g>
</g>
<!-- Node3&#45;&gt;Node2 -->
<g id="edge2_Node000002_Node000003" class="edge">
<title>Node3&#45;&gt;Node2</title>
<g id="a_edge2_Node000002_Node000003"><a xlink:title=" ">
<path fill="none" stroke="#63b8ff" d="M81.38,-384.77C81.38,-377.04 81.38,-368.56 81.38,-359.83"/>
<polygon fill="none" stroke="#63b8ff" points="77.88,-384.71 81.38,-394.71 84.88,-384.71 77.88,-384.71"/>
</a>
</g>
</g>
</g>
</svg>
