<?xml version="1.0" encoding="UTF-8" standalone="no"?>
<!DOCTYPE svg PUBLIC "-//W3C//DTD SVG 1.1//EN"
 "http://www.w3.org/Graphics/SVG/1.1/DTD/svg11.dtd">
<!-- Generated by graphviz version 13.1.1 (20250719.2154)
 -->
<!-- Title: UOrbitSkillAbility::ActivateAbility Pages: 1 -->
<svg width="1341pt" height="190pt"
 viewBox="0.00 0.00 1341.00 190.00" xmlns="http://www.w3.org/2000/svg" xmlns:xlink="http://www.w3.org/1999/xlink">
<g id="graph0" class="graph" transform="scale(1 1) rotate(0) translate(4 186)">
<title>UOrbitSkillAbility::ActivateAbility</title>
<!-- Node1 -->
<g id="Node000001" class="node">
<title>Node1</title>
<g id="a_Node000001"><a xlink:title=" ">
<polygon fill="#999999" stroke="#666666" points="90.25,-98 0,-98 0,-66 90.25,-66 90.25,-98"/>
<text xml:space="preserve" text-anchor="start" x="8" y="-84.5" font-family="Helvetica,sans-Serif" font-size="10.00">UOrbitSkillAbility</text>
<text xml:space="preserve" text-anchor="middle" x="45.12" y="-72.5" font-family="Helvetica,sans-Serif" font-size="10.00">::ActivateAbility</text>
</a>
</g>
</g>
<!-- Node2 -->
<g id="Node000002" class="node">
<title>Node2</title>
<g id="a_Node000002"><a xlink:href="class_u_base_skill_ability.html#a417674acacd1245fc05ddbb5bfbbfbcc" target="_top" xlink:title=" ">
<polygon fill="white" stroke="#666666" points="420.38,-182 317.38,-182 317.38,-150 420.38,-150 420.38,-182"/>
<text xml:space="preserve" text-anchor="start" x="325.38" y="-168.5" font-family="Helvetica,sans-Serif" font-size="10.00">UBaseSkillAbility::</text>
<text xml:space="preserve" text-anchor="middle" x="368.88" y="-156.5" font-family="Helvetica,sans-Serif" font-size="10.00">ApplySkillCooldown</text>
</a>
</g>
</g>
<!-- Node1&#45;&gt;Node2 -->
<g id="edge1_Node000001_Node000002" class="edge">
<title>Node1&#45;&gt;Node2</title>
<g id="a_edge1_Node000001_Node000002"><a xlink:title=" ">
<path fill="none" stroke="#63b8ff" d="M60.53,-98.37C75.3,-113.92 99.8,-136.44 126.25,-147 184.07,-170.1 255.78,-172.84 306,-171.04"/>
<polygon fill="#63b8ff" stroke="#63b8ff" points="305.98,-174.55 315.82,-170.61 305.67,-167.55 305.98,-174.55"/>
</a>
</g>
</g>
<!-- Node3 -->
<g id="Node000003" class="node">
<title>Node3</title>
<g id="a_Node000003"><a xlink:href="class_u_base_skill_ability.html#ade62b76d04ebd1cfb7fd24381996b226" target="_top" xlink:title=" ">
<polygon fill="white" stroke="#666666" points="263,-120 126.25,-120 126.25,-88 263,-88 263,-120"/>
<text xml:space="preserve" text-anchor="start" x="134.25" y="-106.5" font-family="Helvetica,sans-Serif" font-size="10.00">UBaseSkillAbility::</text>
<text xml:space="preserve" text-anchor="middle" x="194.62" y="-94.5" font-family="Helvetica,sans-Serif" font-size="10.00">CalculateSpawnTransforms</text>
</a>
</g>
</g>
<!-- Node1&#45;&gt;Node3 -->
<g id="edge2_Node000001_Node000003" class="edge">
<title>Node1&#45;&gt;Node3</title>
<g id="a_edge2_Node000001_Node000003"><a xlink:title=" ">
<path fill="none" stroke="#63b8ff" d="M90.38,-88.6C98.08,-89.75 106.3,-90.97 114.6,-92.21"/>
<polygon fill="#63b8ff" stroke="#63b8ff" points="114.04,-95.67 124.44,-93.68 115.07,-88.74 114.04,-95.67"/>
</a>
</g>
</g>
<!-- Node5 -->
<g id="Node000005" class="node">
<title>Node5</title>
<g id="a_Node000005"><a xlink:href="class_u_base_skill_ability.html#add7b774bb674e60d694ab62b61e24378" target="_top" xlink:title=" ">
<polygon fill="white" stroke="#666666" points="438.75,-70 299,-70 299,-38 438.75,-38 438.75,-70"/>
<text xml:space="preserve" text-anchor="start" x="307" y="-56.5" font-family="Helvetica,sans-Serif" font-size="10.00">UBaseSkillAbility::</text>
<text xml:space="preserve" text-anchor="middle" x="368.88" y="-44.5" font-family="Helvetica,sans-Serif" font-size="10.00">SpawnAndInitializeProjectile</text>
</a>
</g>
</g>
<!-- Node1&#45;&gt;Node5 -->
<g id="edge18_Node000001_Node000005" class="edge">
<title>Node1&#45;&gt;Node5</title>
<g id="a_edge18_Node000001_Node000005"><a xlink:title=" ">
<path fill="none" stroke="#63b8ff" d="M90.53,-78.14C141.16,-73.73 224.97,-66.44 287.24,-61.02"/>
<polygon fill="#63b8ff" stroke="#63b8ff" points="287.43,-64.51 297.09,-60.16 286.82,-57.54 287.43,-64.51"/>
</a>
</g>
</g>
<!-- Node14 -->
<g id="Node000014" class="node">
<title>Node14</title>
<g id="a_Node000014"><a xlink:href="class_u_base_skill_ability.html#a1fa54aaab0a6c87d2296637a99572b03" target="_top" xlink:title=" ">
<polygon fill="white" stroke="#666666" points="243.5,-32 145.75,-32 145.75,0 243.5,0 243.5,-32"/>
<text xml:space="preserve" text-anchor="start" x="153.75" y="-18.5" font-family="Helvetica,sans-Serif" font-size="10.00">UBaseSkillAbility::</text>
<text xml:space="preserve" text-anchor="middle" x="194.62" y="-6.5" font-family="Helvetica,sans-Serif" font-size="10.00">OnEndAbility</text>
</a>
</g>
</g>
<!-- Node1&#45;&gt;Node14 -->
<g id="edge17_Node000001_Node000014" class="edge">
<title>Node1&#45;&gt;Node14</title>
<g id="a_edge17_Node000001_Node000014"><a xlink:title=" ">
<path fill="none" stroke="#63b8ff" d="M82.41,-65.67C96.14,-59.49 111.91,-52.41 126.25,-46 132.69,-43.12 139.49,-40.09 146.18,-37.1"/>
<polygon fill="#63b8ff" stroke="#63b8ff" points="147.46,-40.37 155.17,-33.1 144.61,-33.97 147.46,-40.37"/>
</a>
</g>
</g>
<!-- Node3&#45;&gt;Node2 -->
<g id="edge3_Node000003_Node000002" class="edge">
<title>Node3&#45;&gt;Node2</title>
<g id="a_edge3_Node000003_Node000002"><a xlink:title=" ">
<path fill="none" stroke="#63b8ff" d="M241.33,-120.45C262.93,-128.23 288.91,-137.58 311.7,-145.78"/>
<polygon fill="#63b8ff" stroke="#63b8ff" points="310.23,-148.97 320.83,-149.07 312.61,-142.39 310.23,-148.97"/>
</a>
</g>
</g>
<!-- Node3&#45;&gt;Node3 -->
<g id="edge4_Node000003_Node000003" class="edge">
<title>Node3&#45;&gt;Node3</title>
<g id="a_edge4_Node000003_Node000003"><a xlink:title=" ">
<path fill="none" stroke="#63b8ff" d="M167.94,-120.44C162.95,-129.58 171.85,-138 194.62,-138 207.08,-138 215.38,-135.48 219.54,-131.71"/>
<polygon fill="#63b8ff" stroke="#63b8ff" points="222.98,-132.36 221.08,-121.94 216.06,-131.27 222.98,-132.36"/>
</a>
</g>
</g>
<!-- Node4 -->
<g id="Node000004" class="node">
<title>Node4</title>
<g id="a_Node000004"><a xlink:href="class_u_base_skill_ability.html#a988e116be17c7d118f11aa1a91b9e0c4" target="_top" xlink:title=" ">
<polygon fill="white" stroke="#666666" points="437.25,-132 300.5,-132 300.5,-88 437.25,-88 437.25,-132"/>
<text xml:space="preserve" text-anchor="start" x="308.5" y="-118.5" font-family="Helvetica,sans-Serif" font-size="10.00">UBaseSkillAbility::</text>
<text xml:space="preserve" text-anchor="start" x="308.5" y="-106.5" font-family="Helvetica,sans-Serif" font-size="10.00">CalculateSpawnTransforms</text>
<text xml:space="preserve" text-anchor="middle" x="368.88" y="-94.5" font-family="Helvetica,sans-Serif" font-size="10.00">_Implementation</text>
</a>
</g>
</g>
<!-- Node3&#45;&gt;Node4 -->
<g id="edge5_Node000003_Node000004" class="edge">
<title>Node3&#45;&gt;Node4</title>
<g id="a_edge5_Node000003_Node000004"><a xlink:title=" ">
<path fill="none" stroke="#63b8ff" d="M263.21,-106.35C271.66,-106.65 280.37,-106.95 288.97,-107.25"/>
<polygon fill="#63b8ff" stroke="#63b8ff" points="288.58,-110.74 298.69,-107.59 288.82,-103.74 288.58,-110.74"/>
</a>
</g>
</g>
<!-- Node3&#45;&gt;Node5 -->
<g id="edge6_Node000003_Node000005" class="edge">
<title>Node3&#45;&gt;Node5</title>
<g id="a_edge6_Node000003_Node000005"><a xlink:title=" ">
<path fill="none" stroke="#63b8ff" d="M252.03,-87.63C267.41,-83.16 284.24,-78.28 300.18,-73.65"/>
<polygon fill="#63b8ff" stroke="#63b8ff" points="300.97,-77.07 309.6,-70.92 299.02,-70.34 300.97,-77.07"/>
</a>
</g>
</g>
<!-- Node6 -->
<g id="Node000006" class="node">
<title>Node6</title>
<g id="a_Node000006"><a xlink:href="class_a_projectile_base.html#ac67469fcdd8411a27a35b524a43f4d32" target="_top" xlink:title=" ">
<polygon fill="white" stroke="#666666" points="605.12,-95 477.38,-95 477.38,-63 605.12,-63 605.12,-95"/>
<text xml:space="preserve" text-anchor="start" x="485.38" y="-81.5" font-family="Helvetica,sans-Serif" font-size="10.00">AProjectileBase::Activate</text>
<text xml:space="preserve" text-anchor="middle" x="541.25" y="-69.5" font-family="Helvetica,sans-Serif" font-size="10.00">Projectile</text>
</a>
</g>
</g>
<!-- Node5&#45;&gt;Node6 -->
<g id="edge7_Node000005_Node000006" class="edge">
<title>Node5&#45;&gt;Node6</title>
<g id="a_edge7_Node000005_Node000006"><a xlink:title=" ">
<path fill="none" stroke="#63b8ff" d="M439.17,-64.17C447.98,-65.46 457.03,-66.79 465.91,-68.09"/>
<polygon fill="#63b8ff" stroke="#63b8ff" points="465.15,-71.52 475.55,-69.51 466.17,-64.59 465.15,-71.52"/>
</a>
</g>
</g>
<!-- Node12 -->
<g id="Node000012" class="node">
<title>Node12</title>
<g id="a_Node000012"><a xlink:href="class_u_projectile_pool_subsystem.html#ab3f6d4e27cfee8b6b1368e6809a94488" target="_top" xlink:title=" ">
<polygon fill="white" stroke="#666666" points="607.75,-45 474.75,-45 474.75,-13 607.75,-13 607.75,-45"/>
<text xml:space="preserve" text-anchor="start" x="482.75" y="-31.5" font-family="Helvetica,sans-Serif" font-size="10.00">UProjectilePoolSubsystem</text>
<text xml:space="preserve" text-anchor="middle" x="541.25" y="-19.5" font-family="Helvetica,sans-Serif" font-size="10.00">::RequestProjectile</text>
</a>
</g>
</g>
<!-- Node5&#45;&gt;Node12 -->
<g id="edge15_Node000005_Node000012" class="edge">
<title>Node5&#45;&gt;Node12</title>
<g id="a_edge15_Node000005_Node000012"><a xlink:title=" ">
<path fill="none" stroke="#63b8ff" d="M439.17,-43.83C447.06,-42.67 455.14,-41.49 463.12,-40.32"/>
<polygon fill="#63b8ff" stroke="#63b8ff" points="463.43,-43.81 472.82,-38.89 462.42,-36.88 463.43,-43.81"/>
</a>
</g>
</g>
<!-- Node7 -->
<g id="Node000007" class="node">
<title>Node7</title>
<g id="a_Node000007"><a xlink:href="class_a_projectile_base.html#af029d253170fd4537553bbdada80b4c1" target="_top" xlink:title=" ">
<polygon fill="white" stroke="#666666" points="789.12,-142 657.62,-142 657.62,-110 789.12,-110 789.12,-142"/>
<text xml:space="preserve" text-anchor="start" x="665.62" y="-128.5" font-family="Helvetica,sans-Serif" font-size="10.00">AProjectileBase::Multicast</text>
<text xml:space="preserve" text-anchor="middle" x="723.38" y="-116.5" font-family="Helvetica,sans-Serif" font-size="10.00">_Activate</text>
</a>
</g>
</g>
<!-- Node6&#45;&gt;Node7 -->
<g id="edge8_Node000006_Node000007" class="edge">
<title>Node6&#45;&gt;Node7</title>
<g id="a_edge8_Node000006_Node000007"><a xlink:title=" ">
<path fill="none" stroke="#63b8ff" d="M605.25,-95.44C619.23,-99.09 634.18,-102.99 648.56,-106.74"/>
<polygon fill="#63b8ff" stroke="#63b8ff" points="647.39,-110.05 657.95,-109.19 649.15,-103.28 647.39,-110.05"/>
</a>
</g>
</g>
<!-- Node8 -->
<g id="Node000008" class="node">
<title>Node8</title>
<g id="a_Node000008"><a xlink:href="class_a_projectile_base.html#a5469168d24245574326a686059bf6ca8" target="_top" xlink:title=" ">
<polygon fill="white" stroke="#666666" points="794.75,-92 652,-92 652,-60 794.75,-60 794.75,-92"/>
<text xml:space="preserve" text-anchor="start" x="660" y="-78.5" font-family="Helvetica,sans-Serif" font-size="10.00">AProjectileBase::OnLifeSpan</text>
<text xml:space="preserve" text-anchor="middle" x="723.38" y="-66.5" font-family="Helvetica,sans-Serif" font-size="10.00">Expired</text>
</a>
</g>
</g>
<!-- Node6&#45;&gt;Node8 -->
<g id="edge10_Node000006_Node000008" class="edge">
<title>Node6&#45;&gt;Node8</title>
<g id="a_edge10_Node000006_Node000008"><a xlink:title=" ">
<path fill="none" stroke="#63b8ff" d="M605.5,-77.95C616.79,-77.76 628.71,-77.56 640.43,-77.36"/>
<polygon fill="#63b8ff" stroke="#63b8ff" points="640.14,-80.87 650.08,-77.2 640.02,-73.87 640.14,-80.87"/>
</a>
</g>
</g>
<!-- Node7&#45;&gt;Node7 -->
<g id="edge9_Node000007_Node000007" class="edge">
<title>Node7&#45;&gt;Node7</title>
<g id="a_edge9_Node000007_Node000007"><a xlink:title=" ">
<path fill="none" stroke="#63b8ff" d="M690.86,-142.44C684.79,-151.58 695.63,-160 723.38,-160 738.55,-160 748.67,-157.48 753.73,-153.71"/>
<polygon fill="#63b8ff" stroke="#63b8ff" points="757.15,-154.41 755.6,-143.93 750.28,-153.09 757.15,-154.41"/>
</a>
</g>
</g>
<!-- Node9 -->
<g id="Node000009" class="node">
<title>Node9</title>
<g id="a_Node000009"><a xlink:href="class_a_projectile_base.html#a2276af661735f8971f6af66c6db7633d" target="_top" xlink:title=" ">
<polygon fill="white" stroke="#666666" points="990,-86 839,-86 839,-66 990,-66 990,-86"/>
<text xml:space="preserve" text-anchor="middle" x="914.5" y="-72.5" font-family="Helvetica,sans-Serif" font-size="10.00">AProjectileBase::ReturnToPool</text>
</a>
</g>
</g>
<!-- Node8&#45;&gt;Node9 -->
<g id="edge11_Node000008_Node000009" class="edge">
<title>Node8&#45;&gt;Node9</title>
<g id="a_edge11_Node000008_Node000009"><a xlink:title=" ">
<path fill="none" stroke="#63b8ff" d="M795.07,-76C805.66,-76 816.67,-76 827.54,-76"/>
<polygon fill="#63b8ff" stroke="#63b8ff" points="827.27,-79.5 837.27,-76 827.27,-72.5 827.27,-79.5"/>
</a>
</g>
</g>
<!-- Node10 -->
<g id="Node000010" class="node">
<title>Node10</title>
<g id="a_Node000010"><a xlink:href="class_a_projectile_base.html#a56f85c58a5c516ddd3e66fbb115eb20d" target="_top" xlink:title=" ">
<polygon fill="white" stroke="#666666" points="1165,-92 1026,-92 1026,-60 1165,-60 1165,-92"/>
<text xml:space="preserve" text-anchor="start" x="1034" y="-78.5" font-family="Helvetica,sans-Serif" font-size="10.00">AProjectileBase::Deactivate</text>
<text xml:space="preserve" text-anchor="middle" x="1095.5" y="-66.5" font-family="Helvetica,sans-Serif" font-size="10.00">Projectile</text>
</a>
</g>
</g>
<!-- Node9&#45;&gt;Node10 -->
<g id="edge12_Node000009_Node000010" class="edge">
<title>Node9&#45;&gt;Node10</title>
<g id="a_edge12_Node000009_Node000010"><a xlink:title=" ">
<path fill="none" stroke="#63b8ff" d="M990.37,-76C998.23,-76 1006.23,-76 1014.15,-76"/>
<polygon fill="#63b8ff" stroke="#63b8ff" points="1014.12,-79.5 1024.12,-76 1014.12,-72.5 1014.12,-79.5"/>
</a>
</g>
</g>
<!-- Node11 -->
<g id="Node000011" class="node">
<title>Node11</title>
<g id="a_Node000011"><a xlink:href="class_a_projectile_base.html#a76b21edb2d7e6427f03a3be58488ef52" target="_top" xlink:title=" ">
<polygon fill="white" stroke="#666666" points="1332.5,-92 1201,-92 1201,-60 1332.5,-60 1332.5,-92"/>
<text xml:space="preserve" text-anchor="start" x="1209" y="-78.5" font-family="Helvetica,sans-Serif" font-size="10.00">AProjectileBase::Multicast</text>
<text xml:space="preserve" text-anchor="middle" x="1266.75" y="-66.5" font-family="Helvetica,sans-Serif" font-size="10.00">_Deactivate</text>
</a>
</g>
</g>
<!-- Node10&#45;&gt;Node11 -->
<g id="edge13_Node000010_Node000011" class="edge">
<title>Node10&#45;&gt;Node11</title>
<g id="a_edge13_Node000010_Node000011"><a xlink:title=" ">
<path fill="none" stroke="#63b8ff" d="M1165.34,-76C1173.15,-76 1181.14,-76 1189.05,-76"/>
<polygon fill="#63b8ff" stroke="#63b8ff" points="1189.01,-79.5 1199.01,-76 1189.01,-72.5 1189.01,-79.5"/>
</a>
</g>
</g>
<!-- Node11&#45;&gt;Node11 -->
<g id="edge14_Node000011_Node000011" class="edge">
<title>Node11&#45;&gt;Node11</title>
<g id="a_edge14_Node000011_Node000011"><a xlink:title=" ">
<path fill="none" stroke="#63b8ff" d="M1236.18,-92.44C1230.47,-101.58 1240.66,-110 1266.75,-110 1281.02,-110 1290.53,-107.48 1295.29,-103.71"/>
<polygon fill="#63b8ff" stroke="#63b8ff" points="1298.72,-104.4 1297.05,-93.93 1291.83,-103.15 1298.72,-104.4"/>
</a>
</g>
</g>
<!-- Node13 -->
<g id="Node000013" class="node">
<title>Node13</title>
<g id="a_Node000013"><a xlink:href="class_a_projectile_base.html#aed98ae66bdee935c0599c6b220123111" target="_top" xlink:title=" ">
<polygon fill="white" stroke="#666666" points="803,-39 643.75,-39 643.75,-19 803,-19 803,-39"/>
<text xml:space="preserve" text-anchor="middle" x="723.38" y="-25.5" font-family="Helvetica,sans-Serif" font-size="10.00">AProjectileBase::SetOwningPool</text>
</a>
</g>
</g>
<!-- Node12&#45;&gt;Node13 -->
<g id="edge16_Node000012_Node000013" class="edge">
<title>Node12&#45;&gt;Node13</title>
<g id="a_edge16_Node000012_Node000013"><a xlink:title=" ">
<path fill="none" stroke="#63b8ff" d="M608.04,-29C615.83,-29 623.88,-29 631.93,-29"/>
<polygon fill="#63b8ff" stroke="#63b8ff" points="631.78,-32.5 641.78,-29 631.78,-25.5 631.78,-32.5"/>
</a>
</g>
</g>
</g>
</svg>
