<?xml version="1.0" encoding="UTF-8" standalone="no"?>
<!DOCTYPE svg PUBLIC "-//W3C//DTD SVG 1.1//EN"
 "http://www.w3.org/Graphics/SVG/1.1/DTD/svg11.dtd">
<!-- Generated by graphviz version 13.1.1 (20250719.2154)
 -->
<!-- Title: UShopUI::NativeConstruct Pages: 1 -->
<svg width="897pt" height="331pt"
 viewBox="0.00 0.00 897.00 331.00" xmlns="http://www.w3.org/2000/svg" xmlns:xlink="http://www.w3.org/1999/xlink">
<g id="graph0" class="graph" transform="scale(1 1) rotate(0) translate(4 327)">
<title>UShopUI::NativeConstruct</title>
<!-- Node1 -->
<g id="Node000001" class="node">
<title>Node1</title>
<g id="a_Node000001"><a xlink:title=" ">
<polygon fill="#999999" stroke="#666666" points="133.75,-207 0,-207 0,-187 133.75,-187 133.75,-207"/>
<text xml:space="preserve" text-anchor="middle" x="66.88" y="-193.5" font-family="Helvetica,sans-Serif" font-size="10.00">UShopUI::NativeConstruct</text>
</a>
</g>
</g>
<!-- Node2 -->
<g id="Node000002" class="node">
<title>Node2</title>
<g id="a_Node000002"><a xlink:href="class_u_shop_u_i.html#a86e30b557b9c8efbcb66007ad6987b84" target="_top" xlink:title=" ">
<polygon fill="white" stroke="#666666" points="321.5,-251 169.75,-251 169.75,-231 321.5,-231 321.5,-251"/>
<text xml:space="preserve" text-anchor="middle" x="245.62" y="-237.5" font-family="Helvetica,sans-Serif" font-size="10.00">UShopUI::HandleClickedClose</text>
</a>
</g>
</g>
<!-- Node1&#45;&gt;Node2 -->
<g id="edge1_Node000001_Node000002" class="edge">
<title>Node1&#45;&gt;Node2</title>
<g id="a_edge1_Node000001_Node000002"><a xlink:title=" ">
<path fill="none" stroke="#63b8ff" d="M109.76,-207.43C134.33,-213.54 165.59,-221.32 191.83,-227.86"/>
<polygon fill="#63b8ff" stroke="#63b8ff" points="190.71,-231.19 201.26,-230.21 192.41,-224.39 190.71,-231.19"/>
</a>
</g>
</g>
<!-- Node8 -->
<g id="Node000008" class="node">
<title>Node8</title>
<g id="a_Node000008"><a xlink:href="class_u_shop_u_i.html#ada9ebdeacdaf91a5e2196772511f26bd" target="_top" xlink:title=" ">
<polygon fill="white" stroke="#666666" points="321.5,-207 169.75,-207 169.75,-187 321.5,-187 321.5,-207"/>
<text xml:space="preserve" text-anchor="middle" x="245.62" y="-193.5" font-family="Helvetica,sans-Serif" font-size="10.00">UShopUI::HandleClickedReroll</text>
</a>
</g>
</g>
<!-- Node1&#45;&gt;Node8 -->
<g id="edge7_Node000001_Node000008" class="edge">
<title>Node1&#45;&gt;Node8</title>
<g id="a_edge7_Node000001_Node000008"><a xlink:title=" ">
<path fill="none" stroke="#63b8ff" d="M134.19,-197C141.98,-197 150.02,-197 158.03,-197"/>
<polygon fill="#63b8ff" stroke="#63b8ff" points="157.81,-200.5 167.81,-197 157.81,-193.5 157.81,-200.5"/>
</a>
</g>
</g>
<!-- Node9 -->
<g id="Node000009" class="node">
<title>Node9</title>
<g id="a_Node000009"><a xlink:href="class_u_shop_u_i.html#ab6eba1623182f0c5644886c65af5f8b3" target="_top" xlink:title=" ">
<polygon fill="white" stroke="#666666" points="316.25,-157 175,-157 175,-137 316.25,-137 316.25,-157"/>
<text xml:space="preserve" text-anchor="middle" x="245.62" y="-143.5" font-family="Helvetica,sans-Serif" font-size="10.00">UShopUI::OnPlayerStateSet</text>
</a>
</g>
</g>
<!-- Node1&#45;&gt;Node9 -->
<g id="edge8_Node000001_Node000009" class="edge">
<title>Node1&#45;&gt;Node9</title>
<g id="a_edge8_Node000001_Node000009"><a xlink:title=" ">
<path fill="none" stroke="#63b8ff" d="M104.93,-186.52C131.56,-178.98 167.7,-168.76 196.56,-160.6"/>
<polygon fill="#63b8ff" stroke="#63b8ff" points="197.5,-163.97 206.16,-157.88 195.59,-157.23 197.5,-163.97"/>
</a>
</g>
</g>
<!-- Node3 -->
<g id="Node000003" class="node">
<title>Node3</title>
<g id="a_Node000003"><a xlink:href="class_u_u_i_manager_subsystem.html#aed4b9c08eec4848386a3a89108827ffd" target="_top" xlink:title=" ">
<polygon fill="white" stroke="#666666" points="522.75,-323 368,-323 368,-291 522.75,-291 522.75,-323"/>
<text xml:space="preserve" text-anchor="start" x="376" y="-309.5" font-family="Helvetica,sans-Serif" font-size="10.00">UUIManagerSubsystem</text>
<text xml:space="preserve" text-anchor="middle" x="445.38" y="-297.5" font-family="Helvetica,sans-Serif" font-size="10.00">::GetSingletonWidgetInstanceId</text>
</a>
</g>
</g>
<!-- Node2&#45;&gt;Node3 -->
<g id="edge2_Node000002_Node000003" class="edge">
<title>Node2&#45;&gt;Node3</title>
<g id="a_edge2_Node000002_Node000003"><a xlink:title=" ">
<path fill="none" stroke="#63b8ff" d="M272.87,-251.33C295.21,-259.97 328.25,-272.4 357.5,-282 362.86,-283.76 368.43,-285.52 374.04,-287.24"/>
<polygon fill="#63b8ff" stroke="#63b8ff" points="372.81,-290.53 383.4,-290.07 374.83,-283.82 372.81,-290.53"/>
</a>
</g>
</g>
<!-- Node4 -->
<g id="Node000004" class="node">
<title>Node4</title>
<g id="a_Node000004"><a xlink:href="class_u_u_i_base.html#a7db928b8721c8dede4954eed8695c0e4" target="_top" xlink:title=" ">
<polygon fill="white" stroke="#666666" points="533.25,-273 357.5,-273 357.5,-253 533.25,-253 533.25,-273"/>
<text xml:space="preserve" text-anchor="middle" x="445.38" y="-259.5" font-family="Helvetica,sans-Serif" font-size="10.00">UUIBase::GetUIManagerSubsystem</text>
</a>
</g>
</g>
<!-- Node2&#45;&gt;Node4 -->
<g id="edge3_Node000002_Node000004" class="edge">
<title>Node2&#45;&gt;Node4</title>
<g id="a_edge3_Node000002_Node000004"><a xlink:title=" ">
<path fill="none" stroke="#63b8ff" d="M321.95,-249.38C329.74,-250.25 337.74,-251.14 345.73,-252.03"/>
<polygon fill="#63b8ff" stroke="#63b8ff" points="345.18,-255.49 355.51,-253.11 345.95,-248.53 345.18,-255.49"/>
</a>
</g>
</g>
<!-- Node5 -->
<g id="Node000005" class="node">
<title>Node5</title>
<g id="a_Node000005"><a xlink:href="class_u_u_i_manager_subsystem.html#a1e0415f5fab1f4658e1aee52f1ee1a0b" target="_top" xlink:title="지정된 인스턴스 ID의 위젯을 화면에서 숨깁니다.">
<polygon fill="white" stroke="#666666" points="505.88,-235 384.88,-235 384.88,-203 505.88,-203 505.88,-235"/>
<text xml:space="preserve" text-anchor="start" x="392.88" y="-221.5" font-family="Helvetica,sans-Serif" font-size="10.00">UUIManagerSubsystem</text>
<text xml:space="preserve" text-anchor="middle" x="445.38" y="-209.5" font-family="Helvetica,sans-Serif" font-size="10.00">::HideWidget</text>
</a>
</g>
</g>
<!-- Node2&#45;&gt;Node5 -->
<g id="edge4_Node000002_Node000005" class="edge">
<title>Node2&#45;&gt;Node5</title>
<g id="a_edge4_Node000002_Node000005"><a xlink:title=" ">
<path fill="none" stroke="#63b8ff" d="M321.95,-232.62C338.8,-230.75 356.62,-228.76 373.29,-226.91"/>
<polygon fill="#63b8ff" stroke="#63b8ff" points="373.57,-230.4 383.12,-225.81 372.79,-223.44 373.57,-230.4"/>
</a>
</g>
</g>
<!-- Node6 -->
<g id="Node000006" class="node">
<title>Node6</title>
<g id="a_Node000006"><a xlink:href="class_u_u_i_manager_subsystem.html#acaac8367f6b3ad4c0509900d7f01b65a" target="_top" xlink:title=" ">
<polygon fill="white" stroke="#666666" points="722.5,-284 579,-284 579,-252 722.5,-252 722.5,-284"/>
<text xml:space="preserve" text-anchor="start" x="587" y="-270.5" font-family="Helvetica,sans-Serif" font-size="10.00">UUIManagerSubsystem</text>
<text xml:space="preserve" text-anchor="middle" x="650.75" y="-258.5" font-family="Helvetica,sans-Serif" font-size="10.00">::UpdateInputModeAndFocus</text>
</a>
</g>
</g>
<!-- Node5&#45;&gt;Node6 -->
<g id="edge5_Node000005_Node000006" class="edge">
<title>Node5&#45;&gt;Node6</title>
<g id="a_edge5_Node000005_Node000006"><a xlink:title=" ">
<path fill="none" stroke="#63b8ff" d="M506.29,-233.44C526.35,-238.27 549.03,-243.73 570.33,-248.87"/>
<polygon fill="#63b8ff" stroke="#63b8ff" points="569.32,-252.22 579.86,-251.16 570.96,-245.42 569.32,-252.22"/>
</a>
</g>
</g>
<!-- Node7 -->
<g id="Node000007" class="node">
<title>Node7</title>
<g id="a_Node000007"><a xlink:href="class_u_u_i_manager_subsystem.html#a6c815ab68107e8e616ddb62dd3391d2c" target="_top" xlink:title=" ">
<polygon fill="white" stroke="#666666" points="889.25,-284 768.25,-284 768.25,-252 889.25,-252 889.25,-284"/>
<text xml:space="preserve" text-anchor="start" x="776.25" y="-270.5" font-family="Helvetica,sans-Serif" font-size="10.00">UUIManagerSubsystem</text>
<text xml:space="preserve" text-anchor="middle" x="828.75" y="-258.5" font-family="Helvetica,sans-Serif" font-size="10.00">::SetUIInputMode</text>
</a>
</g>
</g>
<!-- Node6&#45;&gt;Node7 -->
<g id="edge6_Node000006_Node000007" class="edge">
<title>Node6&#45;&gt;Node7</title>
<g id="a_edge6_Node000006_Node000007"><a xlink:title=" ">
<path fill="none" stroke="#63b8ff" d="M722.83,-268C733.95,-268 745.44,-268 756.56,-268"/>
<polygon fill="#63b8ff" stroke="#63b8ff" points="756.46,-271.5 766.46,-268 756.46,-264.5 756.46,-271.5"/>
</a>
</g>
</g>
<!-- Node10 -->
<g id="Node000010" class="node">
<title>Node10</title>
<g id="a_Node000010"><a xlink:href="class_u_shop_u_i.html#a4c04b00e51e3f9b202b95d09b119de8f" target="_top" xlink:title=" ">
<polygon fill="white" stroke="#666666" points="517.5,-174 373.25,-174 373.25,-142 517.5,-142 517.5,-174"/>
<text xml:space="preserve" text-anchor="start" x="381.25" y="-160.5" font-family="Helvetica,sans-Serif" font-size="10.00">UShopUI::InitializeShopState</text>
<text xml:space="preserve" text-anchor="middle" x="445.38" y="-148.5" font-family="Helvetica,sans-Serif" font-size="10.00">Bindings</text>
</a>
</g>
</g>
<!-- Node9&#45;&gt;Node10 -->
<g id="edge9_Node000009_Node000010" class="edge">
<title>Node9&#45;&gt;Node10</title>
<g id="a_edge9_Node000009_Node000010"><a xlink:title=" ">
<path fill="none" stroke="#63b8ff" d="M316.62,-150.89C331.14,-151.7 346.57,-152.56 361.5,-153.39"/>
<polygon fill="#63b8ff" stroke="#63b8ff" points="361.11,-156.87 371.29,-153.93 361.5,-149.88 361.11,-156.87"/>
</a>
</g>
</g>
<!-- Node14 -->
<g id="Node000014" class="node">
<title>Node14</title>
<g id="a_Node000014"><a xlink:href="class_u_shop_u_i.html#acd415ee3a7ed77868e02887e70e320f1" target="_top" xlink:title=" ">
<polygon fill="white" stroke="#666666" points="508.12,-108 382.62,-108 382.62,-76 508.12,-76 508.12,-108"/>
<text xml:space="preserve" text-anchor="start" x="390.62" y="-94.5" font-family="Helvetica,sans-Serif" font-size="10.00">UShopUI::InitializeWallet</text>
<text xml:space="preserve" text-anchor="middle" x="445.38" y="-82.5" font-family="Helvetica,sans-Serif" font-size="10.00">Events</text>
</a>
</g>
</g>
<!-- Node9&#45;&gt;Node14 -->
<g id="edge13_Node000009_Node000014" class="edge">
<title>Node9&#45;&gt;Node14</title>
<g id="a_edge13_Node000009_Node000014"><a xlink:title=" ">
<path fill="none" stroke="#63b8ff" d="M284.29,-136.53C309.64,-129.47 343.84,-119.96 374.12,-111.54"/>
<polygon fill="#63b8ff" stroke="#63b8ff" points="374.92,-114.95 383.62,-108.9 373.04,-108.21 374.92,-114.95"/>
</a>
</g>
</g>
<!-- Node17 -->
<g id="Node000017" class="node">
<title>Node17</title>
<g id="a_Node000017"><a xlink:href="class_u_shop_u_i.html#aec5728ab9fdc554d5ebc34aab1c5a075" target="_top" xlink:title=" ">
<polygon fill="white" stroke="#666666" points="512.62,-42 378.12,-42 378.12,-10 512.62,-10 512.62,-42"/>
<text xml:space="preserve" text-anchor="start" x="386.12" y="-28.5" font-family="Helvetica,sans-Serif" font-size="10.00">UShopUI::UpdateInventory</text>
<text xml:space="preserve" text-anchor="middle" x="445.38" y="-16.5" font-family="Helvetica,sans-Serif" font-size="10.00">Bindings</text>
</a>
</g>
</g>
<!-- Node9&#45;&gt;Node17 -->
<g id="edge16_Node000009_Node000017" class="edge">
<title>Node9&#45;&gt;Node17</title>
<g id="a_edge16_Node000009_Node000017"><a xlink:title=" ">
<path fill="none" stroke="#63b8ff" d="M259.4,-136.58C279.51,-120.47 320.09,-89.07 357.5,-67 369.4,-59.98 382.69,-53.21 395.22,-47.27"/>
<polygon fill="#63b8ff" stroke="#63b8ff" points="396.56,-50.51 404.16,-43.12 393.62,-44.16 396.56,-50.51"/>
</a>
</g>
</g>
<!-- Node11 -->
<g id="Node000011" class="node">
<title>Node11</title>
<g id="a_Node000011"><a xlink:href="class_u_player_shop_state_component.html#a078059700c5316cabc7d861369c3f281" target="_top" xlink:title=" ">
<polygon fill="white" stroke="#666666" points="724.38,-234 577.12,-234 577.12,-202 724.38,-202 724.38,-234"/>
<text xml:space="preserve" text-anchor="start" x="585.12" y="-220.5" font-family="Helvetica,sans-Serif" font-size="10.00">UPlayerShopStateComponent</text>
<text xml:space="preserve" text-anchor="middle" x="650.75" y="-208.5" font-family="Helvetica,sans-Serif" font-size="10.00">::BroadcastInitialValues</text>
</a>
</g>
</g>
<!-- Node10&#45;&gt;Node11 -->
<g id="edge10_Node000010_Node000011" class="edge">
<title>Node10&#45;&gt;Node11</title>
<g id="a_edge10_Node000010_Node000011"><a xlink:title=" ">
<path fill="none" stroke="#63b8ff" d="M502.22,-174.47C527.22,-181.85 556.9,-190.61 583.06,-198.33"/>
<polygon fill="#63b8ff" stroke="#63b8ff" points="582,-201.66 592.58,-201.13 583.98,-194.95 582,-201.66"/>
</a>
</g>
</g>
<!-- Node12 -->
<g id="Node000012" class="node">
<title>Node12</title>
<g id="a_Node000012"><a xlink:href="class_u_shop_u_i.html#a95de2e9bace7f58e6e1edb779ad2c315" target="_top" xlink:title=" ">
<polygon fill="white" stroke="#666666" points="721,-184 580.5,-184 580.5,-164 721,-164 721,-184"/>
<text xml:space="preserve" text-anchor="middle" x="650.75" y="-170.5" font-family="Helvetica,sans-Serif" font-size="10.00">UShopUI::UpdateRerollCost</text>
</a>
</g>
</g>
<!-- Node10&#45;&gt;Node12 -->
<g id="edge11_Node000010_Node000012" class="edge">
<title>Node10&#45;&gt;Node12</title>
<g id="a_edge11_Node000010_Node000012"><a xlink:title=" ">
<path fill="none" stroke="#63b8ff" d="M517.79,-163.62C534.41,-164.93 552.21,-166.33 569.2,-167.66"/>
<polygon fill="#63b8ff" stroke="#63b8ff" points="568.46,-171.12 578.71,-168.41 569.01,-164.14 568.46,-171.12"/>
</a>
</g>
</g>
<!-- Node13 -->
<g id="Node000013" class="node">
<title>Node13</title>
<g id="a_Node000013"><a xlink:href="class_u_shop_u_i.html#a6ac15391515db01ec002ad18e30657c6" target="_top" xlink:title=" ">
<polygon fill="white" stroke="#666666" points="714.25,-146 587.25,-146 587.25,-126 714.25,-126 714.25,-146"/>
<text xml:space="preserve" text-anchor="middle" x="650.75" y="-132.5" font-family="Helvetica,sans-Serif" font-size="10.00">UShopUI::UpdateShopUI</text>
</a>
</g>
</g>
<!-- Node10&#45;&gt;Node13 -->
<g id="edge12_Node000010_Node000013" class="edge">
<title>Node10&#45;&gt;Node13</title>
<g id="a_edge12_Node000010_Node000013"><a xlink:title=" ">
<path fill="none" stroke="#63b8ff" d="M517.79,-150.27C536.55,-148.25 556.82,-146.05 575.72,-144.01"/>
<polygon fill="#63b8ff" stroke="#63b8ff" points="575.9,-147.51 585.46,-142.95 575.15,-140.55 575.9,-147.51"/>
</a>
</g>
</g>
<!-- Node15 -->
<g id="Node000015" class="node">
<title>Node15</title>
<g id="a_Node000015"><a xlink:href="class_u_player_wallet_component.html#ac18a8cff3cae7dacd942d37f3c0a0155" target="_top" xlink:title=" ">
<polygon fill="white" stroke="#666666" points="715,-108 586.5,-108 586.5,-76 715,-76 715,-108"/>
<text xml:space="preserve" text-anchor="start" x="594.5" y="-94.5" font-family="Helvetica,sans-Serif" font-size="10.00">UPlayerWalletComponent</text>
<text xml:space="preserve" text-anchor="middle" x="650.75" y="-82.5" font-family="Helvetica,sans-Serif" font-size="10.00">::BroadcastInitialValues</text>
</a>
</g>
</g>
<!-- Node14&#45;&gt;Node15 -->
<g id="edge14_Node000014_Node000015" class="edge">
<title>Node14&#45;&gt;Node15</title>
<g id="a_edge14_Node000014_Node000015"><a xlink:title=" ">
<path fill="none" stroke="#63b8ff" d="M508.5,-92C529.49,-92 553.14,-92 575,-92"/>
<polygon fill="#63b8ff" stroke="#63b8ff" points="574.74,-95.5 584.74,-92 574.74,-88.5 574.74,-95.5"/>
</a>
</g>
</g>
<!-- Node16 -->
<g id="Node000016" class="node">
<title>Node16</title>
<g id="a_Node000016"><a xlink:href="class_u_shop_u_i.html#afb6c36fae37308fde008155569288662" target="_top" xlink:title=" ">
<polygon fill="white" stroke="#666666" points="707.88,-58 593.62,-58 593.62,-38 707.88,-38 707.88,-58"/>
<text xml:space="preserve" text-anchor="middle" x="650.75" y="-44.5" font-family="Helvetica,sans-Serif" font-size="10.00">UShopUI::UpdateGold</text>
</a>
</g>
</g>
<!-- Node14&#45;&gt;Node16 -->
<g id="edge15_Node000014_Node000016" class="edge">
<title>Node14&#45;&gt;Node16</title>
<g id="a_edge15_Node000014_Node000016"><a xlink:title=" ">
<path fill="none" stroke="#63b8ff" d="M508.5,-78.56C534.45,-72.95 564.47,-66.45 590.14,-60.9"/>
<polygon fill="#63b8ff" stroke="#63b8ff" points="590.71,-64.35 599.75,-58.82 589.23,-57.51 590.71,-64.35"/>
</a>
</g>
</g>
<!-- Node18 -->
<g id="Node000018" class="node">
<title>Node18</title>
<g id="a_Node000018"><a xlink:href="class_u_inventory_u_i.html#acdd39c140fa026f46f9752565a706880" target="_top" xlink:title=" ">
<polygon fill="white" stroke="#666666" points="732.25,-20 569.25,-20 569.25,0 732.25,0 732.25,-20"/>
<text xml:space="preserve" text-anchor="middle" x="650.75" y="-6.5" font-family="Helvetica,sans-Serif" font-size="10.00">UInventoryUI::UpdateInventoryUI</text>
</a>
</g>
</g>
<!-- Node17&#45;&gt;Node18 -->
<g id="edge17_Node000017_Node000018" class="edge">
<title>Node17&#45;&gt;Node18</title>
<g id="a_edge17_Node000017_Node000018"><a xlink:title=" ">
<path fill="none" stroke="#63b8ff" d="M512.97,-20.76C527.18,-19.64 542.44,-18.44 557.43,-17.26"/>
<polygon fill="#63b8ff" stroke="#63b8ff" points="557.61,-20.76 567.3,-16.49 557.06,-13.78 557.61,-20.76"/>
</a>
</g>
</g>
</g>
</svg>
