<?xml version="1.0" encoding="UTF-8" standalone="no"?>
<!DOCTYPE svg PUBLIC "-//W3C//DTD SVG 1.1//EN"
 "http://www.w3.org/Graphics/SVG/1.1/DTD/svg11.dtd">
<!-- Generated by graphviz version 13.1.1 (20250719.2154)
 -->
<!-- Title: UBaseLaserAttackAbility::EndAbility Pages: 1 -->
<svg width="457pt" height="196pt"
 viewBox="0.00 0.00 457.00 196.00" xmlns="http://www.w3.org/2000/svg" xmlns:xlink="http://www.w3.org/1999/xlink">
<g id="graph0" class="graph" transform="scale(1 1) rotate(0) translate(4 192)">
<title>UBaseLaserAttackAbility::EndAbility</title>
<!-- Node1 -->
<g id="Node000001" class="node">
<title>Node1</title>
<g id="a_Node000001"><a xlink:title=" ">
<polygon fill="#999999" stroke="#666666" points="448.5,-120 323,-120 323,-88 448.5,-88 448.5,-120"/>
<text xml:space="preserve" text-anchor="start" x="331" y="-106.5" font-family="Helvetica,sans-Serif" font-size="10.00">UBaseLaserAttackAbility</text>
<text xml:space="preserve" text-anchor="middle" x="385.75" y="-94.5" font-family="Helvetica,sans-Serif" font-size="10.00">::EndAbility</text>
</a>
</g>
</g>
<!-- Node2 -->
<g id="Node000002" class="node">
<title>Node2</title>
<g id="a_Node000002"><a xlink:href="class_u_base_laser_attack_ability.html#ad1a11b3bbe71ec74e20323116cad88fe" target="_top" xlink:title="This function is meant to be implemented in Blueprint to define the ability&#39;s activation flow.">
<polygon fill="white" stroke="#666666" points="287,-170 161.5,-170 161.5,-138 287,-138 287,-170"/>
<text xml:space="preserve" text-anchor="start" x="169.5" y="-156.5" font-family="Helvetica,sans-Serif" font-size="10.00">UBaseLaserAttackAbility</text>
<text xml:space="preserve" text-anchor="middle" x="224.25" y="-144.5" font-family="Helvetica,sans-Serif" font-size="10.00">::ActivateAbility_BP</text>
</a>
</g>
</g>
<!-- Node1&#45;&gt;Node2 -->
<g id="edge1_Node000001_Node000002" class="edge">
<title>Node1&#45;&gt;Node2</title>
<g id="a_edge1_Node000001_Node000002"><a xlink:title=" ">
<path fill="none" stroke="#63b8ff" d="M321.62,-123.79C307.13,-128.33 291.86,-133.12 277.87,-137.51"/>
<polygon fill="#63b8ff" stroke="#63b8ff" points="322.58,-127.16 331.08,-120.82 320.49,-120.48 322.58,-127.16"/>
</a>
</g>
</g>
<!-- Node4 -->
<g id="Node000004" class="node">
<title>Node4</title>
<g id="a_Node000004"><a xlink:href="class_u_base_laser_attack_ability.html#a1f265f5b299f3057b632ab3d32970ea6" target="_top" xlink:title="Cleans up all spawned lasers and stops timers.">
<polygon fill="white" stroke="#666666" points="287,-120 161.5,-120 161.5,-88 287,-88 287,-120"/>
<text xml:space="preserve" text-anchor="start" x="169.5" y="-106.5" font-family="Helvetica,sans-Serif" font-size="10.00">UBaseLaserAttackAbility</text>
<text xml:space="preserve" text-anchor="middle" x="224.25" y="-94.5" font-family="Helvetica,sans-Serif" font-size="10.00">::FinishLaserAttack</text>
</a>
</g>
</g>
<!-- Node1&#45;&gt;Node4 -->
<g id="edge5_Node000001_Node000004" class="edge">
<title>Node1&#45;&gt;Node4</title>
<g id="a_edge5_Node000001_Node000004"><a xlink:title=" ">
<path fill="none" stroke="#63b8ff" d="M311.13,-97.27C303.22,-97.22 295.23,-97.26 287.47,-97.4"/>
<polygon fill="#63b8ff" stroke="#63b8ff" points="311.07,-100.77 321.11,-97.38 311.15,-93.77 311.07,-100.77"/>
</a>
</g>
</g>
<!-- Node5 -->
<g id="Node000005" class="node">
<title>Node5</title>
<g id="a_Node000005"><a xlink:href="class_u_base_laser_attack_ability.html#ac49822a928fe96077caded42985e05d7" target="_top" xlink:title="Spawns the laser beams and starts their rotation and damage ticks.">
<polygon fill="white" stroke="#666666" points="125.5,-98 0,-98 0,-66 125.5,-66 125.5,-98"/>
<text xml:space="preserve" text-anchor="start" x="8" y="-84.5" font-family="Helvetica,sans-Serif" font-size="10.00">UBaseLaserAttackAbility</text>
<text xml:space="preserve" text-anchor="middle" x="62.75" y="-72.5" font-family="Helvetica,sans-Serif" font-size="10.00">::SpawnAndStartLasers</text>
</a>
</g>
</g>
<!-- Node1&#45;&gt;Node5 -->
<g id="edge8_Node000001_Node000005" class="edge">
<title>Node1&#45;&gt;Node5</title>
<g id="a_edge8_Node000001_Node000005"><a xlink:title=" ">
<path fill="none" stroke="#63b8ff" d="M319.38,-84.89C308.65,-82.44 297.58,-80.33 287,-79 232.77,-72.18 170.56,-73.78 125.6,-76.6"/>
<polygon fill="#63b8ff" stroke="#63b8ff" points="318.4,-88.25 328.94,-87.18 320.04,-81.44 318.4,-88.25"/>
</a>
</g>
</g>
<!-- Node6 -->
<g id="Node000006" class="node">
<title>Node6</title>
<g id="a_Node000006"><a xlink:href="class_u_base_laser_attack_ability.html#a674fe5df0cdc156691878ce8e00f15f2" target="_top" xlink:title=" ">
<polygon fill="white" stroke="#666666" points="287,-32 161.5,-32 161.5,0 287,0 287,-32"/>
<text xml:space="preserve" text-anchor="start" x="169.5" y="-18.5" font-family="Helvetica,sans-Serif" font-size="10.00">UBaseLaserAttackAbility</text>
<text xml:space="preserve" text-anchor="middle" x="224.25" y="-6.5" font-family="Helvetica,sans-Serif" font-size="10.00">::SpawnLaserIndicator</text>
</a>
</g>
</g>
<!-- Node1&#45;&gt;Node6 -->
<g id="edge9_Node000001_Node000006" class="edge">
<title>Node1&#45;&gt;Node6</title>
<g id="a_edge9_Node000001_Node000006"><a xlink:title=" ">
<path fill="none" stroke="#63b8ff" d="M348.87,-81.74C330.56,-70.63 307.82,-57.21 287,-46 278.5,-41.42 269.2,-36.74 260.45,-32.47"/>
<polygon fill="#63b8ff" stroke="#63b8ff" points="346.89,-84.63 357.25,-86.85 350.54,-78.66 346.89,-84.63"/>
</a>
</g>
</g>
<!-- Node2&#45;&gt;Node2 -->
<g id="edge4_Node000002_Node000002" class="edge">
<title>Node2&#45;&gt;Node2</title>
<g id="a_edge4_Node000002_Node000002"><a xlink:title=" ">
<path fill="none" stroke="#63b8ff" d="M251.16,-181.71C246.68,-185.48 237.71,-188 224.25,-188 199.65,-188 190.04,-179.58 195.42,-170.44"/>
<polygon fill="#63b8ff" stroke="#63b8ff" points="254.6,-182.38 252.83,-171.93 247.7,-181.2 254.6,-182.38"/>
</a>
</g>
</g>
<!-- Node3 -->
<g id="Node000003" class="node">
<title>Node3</title>
<g id="a_Node000003"><a xlink:href="class_u_base_laser_attack_ability.html#a26ff67b6441cf3c270bb40024bb261f0" target="_top" xlink:title=" ">
<polygon fill="white" stroke="#666666" points="125.5,-170 0,-170 0,-138 125.5,-138 125.5,-170"/>
<text xml:space="preserve" text-anchor="start" x="8" y="-156.5" font-family="Helvetica,sans-Serif" font-size="10.00">UBaseLaserAttackAbility</text>
<text xml:space="preserve" text-anchor="middle" x="62.75" y="-144.5" font-family="Helvetica,sans-Serif" font-size="10.00">::ActivateAbility</text>
</a>
</g>
</g>
<!-- Node2&#45;&gt;Node3 -->
<g id="edge2_Node000002_Node000003" class="edge">
<title>Node2&#45;&gt;Node3</title>
<g id="a_edge2_Node000002_Node000003"><a xlink:title=" ">
<path fill="none" stroke="#63b8ff" d="M149.63,-147.27C141.72,-147.22 133.73,-147.26 125.97,-147.4"/>
<polygon fill="#63b8ff" stroke="#63b8ff" points="149.57,-150.77 159.61,-147.38 149.65,-143.77 149.57,-150.77"/>
</a>
</g>
</g>
<!-- Node3&#45;&gt;Node2 -->
<g id="edge3_Node000003_Node000002" class="edge">
<title>Node3&#45;&gt;Node2</title>
<g id="a_edge3_Node000003_Node000002"><a xlink:title=" ">
<path fill="none" stroke="#63b8ff" d="M137.46,-160.73C145.38,-160.78 153.37,-160.73 161.13,-160.6"/>
<polygon fill="#63b8ff" stroke="#63b8ff" points="137.52,-157.23 127.48,-160.62 137.44,-164.23 137.52,-157.23"/>
</a>
</g>
</g>
<!-- Node4&#45;&gt;Node1 -->
<g id="edge6_Node000004_Node000001" class="edge">
<title>Node4&#45;&gt;Node1</title>
<g id="a_edge6_Node000004_Node000001"><a xlink:title=" ">
<path fill="none" stroke="#63b8ff" d="M298.96,-110.73C306.88,-110.78 314.87,-110.73 322.63,-110.6"/>
<polygon fill="#63b8ff" stroke="#63b8ff" points="299.02,-107.23 288.98,-110.62 298.94,-114.23 299.02,-107.23"/>
</a>
</g>
</g>
<!-- Node4&#45;&gt;Node5 -->
<g id="edge7_Node000004_Node000005" class="edge">
<title>Node4&#45;&gt;Node5</title>
<g id="a_edge7_Node000004_Node000005"><a xlink:title=" ">
<path fill="none" stroke="#63b8ff" d="M149.91,-93.88C141.9,-92.78 133.82,-91.66 125.97,-90.58"/>
<polygon fill="#63b8ff" stroke="#63b8ff" points="149.24,-97.33 159.63,-95.22 150.2,-90.39 149.24,-97.33"/>
</a>
</g>
</g>
</g>
</svg>
