<?xml version="1.0" encoding="UTF-8" standalone="no"?>
<!DOCTYPE svg PUBLIC "-//W3C//DTD SVG 1.1//EN"
 "http://www.w3.org/Graphics/SVG/1.1/DTD/svg11.dtd">
<!-- Generated by graphviz version 13.1.1 (20250719.2154)
 -->
<!-- Title: AExperience::OnReturnBP Pages: 1 -->
<svg width="503pt" height="242pt"
 viewBox="0.00 0.00 503.00 242.00" xmlns="http://www.w3.org/2000/svg" xmlns:xlink="http://www.w3.org/1999/xlink">
<g id="graph0" class="graph" transform="scale(1 1) rotate(0) translate(4 238)">
<title>AExperience::OnReturnBP</title>
<!-- Node1 -->
<g id="Node000001" class="node">
<title>Node1</title>
<g id="a_Node000001"><a xlink:title=" ">
<polygon fill="#999999" stroke="#666666" points="133,-124 0,-124 0,-104 133,-104 133,-124"/>
<text xml:space="preserve" text-anchor="middle" x="66.5" y="-110.5" font-family="Helvetica,sans-Serif" font-size="10.00">AExperience::OnReturnBP</text>
</a>
</g>
</g>
<!-- Node1&#45;&gt;Node1 -->
<g id="edge9_Node000001_Node000001" class="edge">
<title>Node1&#45;&gt;Node1</title>
<g id="a_edge9_Node000001_Node000001"><a xlink:title=" ">
<path fill="none" stroke="#63b8ff" d="M37.8,-124.34C25.54,-132.98 35.1,-142 66.5,-142 84.16,-142 94.91,-139.14 98.76,-135.11"/>
<polygon fill="#63b8ff" stroke="#63b8ff" points="102.14,-134.17 95.67,-125.78 95.49,-136.37 102.14,-134.17"/>
</a>
</g>
</g>
<!-- Node2 -->
<g id="Node000002" class="node">
<title>Node2</title>
<g id="a_Node000002"><a xlink:href="class_a_experience.html#a0f3c047dcabdf18c3223fd782957b556" target="_top" xlink:title=" ">
<polygon fill="white" stroke="#666666" points="323.75,-234 170.5,-234 170.5,-214 323.75,-214 323.75,-234"/>
<text xml:space="preserve" text-anchor="middle" x="247.12" y="-220.5" font-family="Helvetica,sans-Serif" font-size="10.00">AExperience::ExpBeginOverlap</text>
</a>
</g>
</g>
<!-- Node1&#45;&gt;Node2 -->
<g id="edge1_Node000001_Node000002" class="edge">
<title>Node1&#45;&gt;Node2</title>
<g id="a_edge1_Node000001_Node000002"><a xlink:title=" ">
<path fill="none" stroke="#63b8ff" d="M75.83,-124.24C91.82,-143.2 128.83,-183.77 169,-205 172.23,-206.71 175.62,-208.27 179.1,-209.69"/>
<polygon fill="#63b8ff" stroke="#63b8ff" points="177.72,-212.91 188.32,-213.03 180.11,-206.33 177.72,-212.91"/>
</a>
</g>
</g>
<!-- Node3 -->
<g id="Node000003" class="node">
<title>Node3</title>
<g id="a_Node000003"><a xlink:href="class_a_experience.html#add4d450944d2ce2056f9cf93962c3a92" target="_top" xlink:title=" ">
<polygon fill="white" stroke="#666666" points="311,-196 183.25,-196 183.25,-164 311,-164 311,-196"/>
<text xml:space="preserve" text-anchor="start" x="191.25" y="-182.5" font-family="Helvetica,sans-Serif" font-size="10.00">AExperience::GetLifetime</text>
<text xml:space="preserve" text-anchor="middle" x="247.12" y="-170.5" font-family="Helvetica,sans-Serif" font-size="10.00">ReplicatedProps</text>
</a>
</g>
</g>
<!-- Node1&#45;&gt;Node3 -->
<g id="edge2_Node000001_Node000003" class="edge">
<title>Node1&#45;&gt;Node3</title>
<g id="a_edge2_Node000001_Node000003"><a xlink:title=" ">
<path fill="none" stroke="#63b8ff" d="M91.92,-124.43C112.37,-133.02 142.39,-145.33 169,-155 173.59,-156.67 178.35,-158.34 183.15,-159.99"/>
<polygon fill="#63b8ff" stroke="#63b8ff" points="181.65,-163.18 192.25,-163.07 183.89,-156.55 181.65,-163.18"/>
</a>
</g>
</g>
<!-- Node5 -->
<g id="Node000005" class="node">
<title>Node5</title>
<g id="a_Node000005"><a xlink:href="class_a_experience.html#af8fc3569d3b7189f0e4383eaa439e9cf" target="_top" xlink:title=" ">
<polygon fill="white" stroke="#666666" points="325.25,-146 169,-146 169,-126 325.25,-126 325.25,-146"/>
<text xml:space="preserve" text-anchor="middle" x="247.12" y="-132.5" font-family="Helvetica,sans-Serif" font-size="10.00">AExperience::On_RepSpawning</text>
</a>
</g>
</g>
<!-- Node1&#45;&gt;Node5 -->
<g id="edge4_Node000001_Node000005" class="edge">
<title>Node1&#45;&gt;Node5</title>
<g id="a_edge4_Node000001_Node000005"><a xlink:title=" ">
<path fill="none" stroke="#63b8ff" d="M133.25,-122.1C141.1,-123.06 149.2,-124.06 157.3,-125.06"/>
<polygon fill="#63b8ff" stroke="#63b8ff" points="156.86,-128.53 167.21,-126.28 157.72,-121.58 156.86,-128.53"/>
</a>
</g>
</g>
<!-- Node7 -->
<g id="Node000007" class="node">
<title>Node7</title>
<g id="a_Node000007"><a xlink:href="class_a_experience.html#a01783a5acf33d3b7b8a9fbf884c7b49f" target="_top" xlink:title=" ">
<polygon fill="white" stroke="#666666" points="317.38,-108 176.88,-108 176.88,-76 317.38,-76 317.38,-108"/>
<text xml:space="preserve" text-anchor="start" x="184.88" y="-94.5" font-family="Helvetica,sans-Serif" font-size="10.00">AExperience::On_RepTarget</text>
<text xml:space="preserve" text-anchor="middle" x="247.12" y="-82.5" font-family="Helvetica,sans-Serif" font-size="10.00">Setting</text>
</a>
</g>
</g>
<!-- Node1&#45;&gt;Node7 -->
<g id="edge7_Node000001_Node000007" class="edge">
<title>Node1&#45;&gt;Node7</title>
<g id="a_edge7_Node000001_Node000007"><a xlink:title=" ">
<path fill="none" stroke="#63b8ff" d="M133.25,-105.9C143.74,-104.61 154.69,-103.26 165.47,-101.93"/>
<polygon fill="#63b8ff" stroke="#63b8ff" points="165.61,-105.44 175.11,-100.75 164.76,-98.5 165.61,-105.44"/>
</a>
</g>
</g>
<!-- Node8 -->
<g id="Node000008" class="node">
<title>Node8</title>
<g id="a_Node000008"><a xlink:href="class_a_experience.html#a8c6f1c0398bc1d8f78f966f56aa7dd57" target="_top" xlink:title=" ">
<polygon fill="white" stroke="#666666" points="314.38,-58 179.88,-58 179.88,-38 314.38,-38 314.38,-58"/>
<text xml:space="preserve" text-anchor="middle" x="247.12" y="-44.5" font-family="Helvetica,sans-Serif" font-size="10.00">AExperience::OnGroundHit</text>
</a>
</g>
</g>
<!-- Node1&#45;&gt;Node8 -->
<g id="edge8_Node000001_Node000008" class="edge">
<title>Node1&#45;&gt;Node8</title>
<g id="a_edge8_Node000001_Node000008"><a xlink:title=" ">
<path fill="none" stroke="#63b8ff" d="M86.87,-103.66C106.96,-93.28 139.5,-77.36 169,-67 174.69,-65 180.69,-63.13 186.73,-61.4"/>
<polygon fill="#63b8ff" stroke="#63b8ff" points="187.38,-64.85 196.11,-58.85 185.54,-58.1 187.38,-64.85"/>
</a>
</g>
</g>
<!-- Node9 -->
<g id="Node000009" class="node">
<title>Node9</title>
<g id="a_Node000009"><a xlink:href="class_a_experience.html#a207eb32f5e0b215f30cbcb2404aa059d" target="_top" xlink:title=" ">
<polygon fill="white" stroke="#666666" points="295.25,-20 199,-20 199,0 295.25,0 295.25,-20"/>
<text xml:space="preserve" text-anchor="middle" x="247.12" y="-6.5" font-family="Helvetica,sans-Serif" font-size="10.00">AExperience::Tick</text>
</a>
</g>
</g>
<!-- Node1&#45;&gt;Node9 -->
<g id="edge10_Node000001_Node000009" class="edge">
<title>Node1&#45;&gt;Node9</title>
<g id="a_edge10_Node000001_Node000009"><a xlink:title=" ">
<path fill="none" stroke="#63b8ff" d="M76.76,-103.62C93.4,-85.61 130.26,-48.65 169,-29 174.91,-26 181.32,-23.46 187.83,-21.31"/>
<polygon fill="#63b8ff" stroke="#63b8ff" points="188.77,-24.68 197.36,-18.48 186.78,-17.97 188.77,-24.68"/>
</a>
</g>
</g>
<!-- Node4 -->
<g id="Node000004" class="node">
<title>Node4</title>
<g id="a_Node000004"><a xlink:href="class_a_experience.html#ae40d10083cffc2a203ec22e92c174180" target="_top" xlink:title=" ">
<polygon fill="white" stroke="#666666" points="494.62,-196 361.62,-196 361.62,-176 494.62,-176 494.62,-196"/>
<text xml:space="preserve" text-anchor="middle" x="428.12" y="-182.5" font-family="Helvetica,sans-Serif" font-size="10.00">AExperience::AExperience</text>
</a>
</g>
</g>
<!-- Node3&#45;&gt;Node4 -->
<g id="edge3_Node000003_Node000004" class="edge">
<title>Node3&#45;&gt;Node4</title>
<g id="a_edge3_Node000003_Node000004"><a xlink:title=" ">
<path fill="none" stroke="#63b8ff" d="M311.49,-182.12C324.01,-182.54 337.28,-182.99 350.2,-183.42"/>
<polygon fill="#63b8ff" stroke="#63b8ff" points="349.8,-186.91 359.91,-183.75 350.04,-179.91 349.8,-186.91"/>
</a>
</g>
</g>
<!-- Node6 -->
<g id="Node000006" class="node">
<title>Node6</title>
<g id="a_Node000006"><a xlink:href="class_a_experience.html#a69f2ef051b6dd9344813c3d7592ff5b4" target="_top" xlink:title=" ">
<polygon fill="white" stroke="#666666" points="495,-140 361.25,-140 361.25,-120 495,-120 495,-140"/>
<text xml:space="preserve" text-anchor="middle" x="428.12" y="-126.5" font-family="Helvetica,sans-Serif" font-size="10.00">AExperience::OnSpawnBP</text>
</a>
</g>
</g>
<!-- Node5&#45;&gt;Node6 -->
<g id="edge5_Node000005_Node000006" class="edge">
<title>Node5&#45;&gt;Node6</title>
<g id="a_edge5_Node000005_Node000006"><a xlink:title=" ">
<path fill="none" stroke="#63b8ff" d="M325.6,-133.4C333.47,-133.14 341.47,-132.87 349.34,-132.61"/>
<polygon fill="#63b8ff" stroke="#63b8ff" points="349.37,-136.11 359.25,-132.28 349.14,-129.11 349.37,-136.11"/>
</a>
</g>
</g>
<!-- Node6&#45;&gt;Node6 -->
<g id="edge6_Node000006_Node000006" class="edge">
<title>Node6&#45;&gt;Node6</title>
<g id="a_edge6_Node000006_Node000006"><a xlink:title=" ">
<path fill="none" stroke="#63b8ff" d="M399.37,-140.34C387.08,-148.98 396.66,-158 428.12,-158 445.82,-158 456.6,-155.14 460.45,-151.11"/>
<polygon fill="#63b8ff" stroke="#63b8ff" points="463.83,-150.17 457.36,-141.78 457.18,-152.37 463.83,-150.17"/>
</a>
</g>
</g>
</g>
</svg>
