<?xml version="1.0" encoding="UTF-8" standalone="no"?>
<!DOCTYPE svg PUBLIC "-//W3C//DTD SVG 1.1//EN"
 "http://www.w3.org/Graphics/SVG/1.1/DTD/svg11.dtd">
<!-- Generated by graphviz version 13.1.1 (20250719.2154)
 -->
<!-- Title: UStateManagerComponent Pages: 1 -->
<!--zoomable 692 -->

<svg id="main" version="1.1" xmlns="http://www.w3.org/2000/svg" xmlns:xlink="http://www.w3.org/1999/xlink" xml:space="preserve" onload="init(evt)">

<style type="text/css"><![CDATA[
.node, .edge {opacity: 0.7;}
.node.selected, .edge.selected {opacity: 1;}
.edge:hover path { stroke: red; }
.edge:hover polygon { stroke: red; fill: red; }
]]></style>

<defs>
  <circle id="rim" cx="0" cy="0" r="7"/>
  <circle id="rim2" cx="0" cy="0" r="3.5"/>
  <g id="zoomPlus">
    <use xlink:href="#rim" fill="#404040"><set attributeName="fill" to="#808080" begin="zoomplus.mouseover" end="zoomplus.mouseout"/></use>
    <path d="M-4,0h8M0,-4v8" fill="none" stroke="white" stroke-width="1.5" pointer-events="none"/>
  </g>
  <g id="zoomMin">
    <use xlink:href="#rim" fill="#404040"><set attributeName="fill" to="#808080" begin="zoomminus.mouseover" end="zoomminus.mouseout"/></use>
    <path d="M-4,0h8" fill="none" stroke="white" stroke-width="1.5" pointer-events="none"/>
  </g>
  <g id="arrowUp" transform="translate(30 24)">
    <use xlink:href="#rim"/>
    <path pointer-events="none" fill="none" stroke="white" stroke-width="1.5" d="M0,-3.0v7 M-2.5,-0.5L0,-3.0L2.5,-0.5"/>
  </g>
  <g id="arrowRight" transform="rotate(90) translate(36 -43)">
    <use xlink:href="#rim"/>
    <path pointer-events="none" fill="none" stroke="white" stroke-width="1.5" d="M0,-3.0v7 M-2.5,-0.5L0,-3.0L2.5,-0.5"/>
  </g>
  <g id="arrowDown" transform="rotate(180) translate(-30 -48)">
    <use xlink:href="#rim"/>
    <path pointer-events="none" fill="none" stroke="white" stroke-width="1.5" d="M0,-3.0v7 M-2.5,-0.5L0,-3.0L2.5,-0.5"/>
  </g>
  <g id="arrowLeft" transform="rotate(270) translate(-36 17)">
    <use xlink:href="#rim"/>
    <path pointer-events="none" fill="none" stroke="white" stroke-width="1.5" d="M0,-3.0v7 M-2.5,-0.5L0,-3.0L2.5,-0.5"/>
  </g>
  <g id="resetDef">
    <use xlink:href="#rim2" fill="#404040"><set attributeName="fill" to="#808080" begin="reset.mouseover" end="reset.mouseout"/></use>
  </g>
</defs>
<script type="application/ecmascript">
var viewWidth = 380;
var viewHeight = 692;
var sectionId = 'dynsection-0';
</script>
<script type="application/ecmascript" xlink:href="svg.min.js"/>
<svg id="graph" class="graph">
<g id="viewport">
<title>UStateManagerComponent</title>
<!-- Node1 -->
<g id="Node000001" class="node">
<title>Node1</title>
<g id="a_Node000001"><a xlink:title=" ">
<polygon fill="#999999" stroke="none" points="274.38,-596 101.12,-596 101.12,-184 274.38,-184 274.38,-596"/>
<text xml:space="preserve" text-anchor="start" x="128.5" y="-582.5" font-family="Helvetica,sans-Serif" font-size="10.00">UStateManagerComponent</text>
<text xml:space="preserve" text-anchor="start" x="105.12" y="-566.5" font-family="Helvetica,sans-Serif" font-size="10.00">+</text>
<text xml:space="preserve" text-anchor="start" x="115.12" y="-566.5" font-family="Helvetica,sans-Serif" font-size="10.00">FOnStateTagsChanged</text>
<text xml:space="preserve" text-anchor="start" x="115.12" y="-554.5" font-family="Helvetica,sans-Serif" font-size="10.00"> OnStateTagsChanged</text>
<text xml:space="preserve" text-anchor="start" x="105.5" y="-538.5" font-family="Helvetica,sans-Serif" font-size="10.00">#</text>
<text xml:space="preserve" text-anchor="start" x="115.12" y="-538.5" font-family="Helvetica,sans-Serif" font-size="10.00">FGameplayTagContainer</text>
<text xml:space="preserve" text-anchor="start" x="115.12" y="-526.5" font-family="Helvetica,sans-Serif" font-size="10.00"> CurrentStateTags</text>
<text xml:space="preserve" text-anchor="start" x="105.5" y="-510.5" font-family="Helvetica,sans-Serif" font-size="10.00">#</text>
<text xml:space="preserve" text-anchor="start" x="115.12" y="-510.5" font-family="Helvetica,sans-Serif" font-size="10.00">float StateEndTime</text>
<text xml:space="preserve" text-anchor="start" x="105.12" y="-494.5" font-family="Helvetica,sans-Serif" font-size="10.00">+</text>
<text xml:space="preserve" text-anchor="start" x="115.12" y="-494.5" font-family="Helvetica,sans-Serif" font-size="10.00">UStateManagerComponent()</text>
<text xml:space="preserve" text-anchor="start" x="105.12" y="-478.5" font-family="Helvetica,sans-Serif" font-size="10.00">+</text>
<text xml:space="preserve" text-anchor="start" x="115.12" y="-478.5" font-family="Helvetica,sans-Serif" font-size="10.00">void AddStateTag(const</text>
<text xml:space="preserve" text-anchor="start" x="115.12" y="-466.5" font-family="Helvetica,sans-Serif" font-size="10.00"> FGameplayTag &amp;Tag)</text>
<text xml:space="preserve" text-anchor="start" x="105.12" y="-450.5" font-family="Helvetica,sans-Serif" font-size="10.00">+</text>
<text xml:space="preserve" text-anchor="start" x="115.12" y="-450.5" font-family="Helvetica,sans-Serif" font-size="10.00">virtual void BeginPlay</text>
<text xml:space="preserve" text-anchor="start" x="115.12" y="-438.5" font-family="Helvetica,sans-Serif" font-size="10.00">() override</text>
<text xml:space="preserve" text-anchor="start" x="105.12" y="-422.5" font-family="Helvetica,sans-Serif" font-size="10.00">+</text>
<text xml:space="preserve" text-anchor="start" x="115.12" y="-422.5" font-family="Helvetica,sans-Serif" font-size="10.00">const FGameplayTagContainer</text>
<text xml:space="preserve" text-anchor="start" x="115.12" y="-410.5" font-family="Helvetica,sans-Serif" font-size="10.00"> &amp; GetCurrentStateTags() const</text>
<text xml:space="preserve" text-anchor="start" x="105.12" y="-394.5" font-family="Helvetica,sans-Serif" font-size="10.00">+</text>
<text xml:space="preserve" text-anchor="start" x="115.12" y="-394.5" font-family="Helvetica,sans-Serif" font-size="10.00">virtual void GetLifetime</text>
<text xml:space="preserve" text-anchor="start" x="115.12" y="-382.5" font-family="Helvetica,sans-Serif" font-size="10.00">ReplicatedProps(TArray</text>
<text xml:space="preserve" text-anchor="start" x="115.12" y="-370.5" font-family="Helvetica,sans-Serif" font-size="10.00">&lt; FLifetimeProperty &gt; &amp;OutLifetime</text>
<text xml:space="preserve" text-anchor="start" x="115.12" y="-358.5" font-family="Helvetica,sans-Serif" font-size="10.00">Props) const override</text>
<text xml:space="preserve" text-anchor="start" x="105.12" y="-342.5" font-family="Helvetica,sans-Serif" font-size="10.00">+</text>
<text xml:space="preserve" text-anchor="start" x="115.12" y="-342.5" font-family="Helvetica,sans-Serif" font-size="10.00">float GetRemainingTime</text>
<text xml:space="preserve" text-anchor="start" x="115.12" y="-330.5" font-family="Helvetica,sans-Serif" font-size="10.00">() const</text>
<text xml:space="preserve" text-anchor="start" x="105.12" y="-314.5" font-family="Helvetica,sans-Serif" font-size="10.00">+</text>
<text xml:space="preserve" text-anchor="start" x="115.12" y="-314.5" font-family="Helvetica,sans-Serif" font-size="10.00">void InitialBroadCast()</text>
<text xml:space="preserve" text-anchor="start" x="105.12" y="-298.5" font-family="Helvetica,sans-Serif" font-size="10.00">+</text>
<text xml:space="preserve" text-anchor="start" x="115.12" y="-298.5" font-family="Helvetica,sans-Serif" font-size="10.00">void RemoveStateTag</text>
<text xml:space="preserve" text-anchor="start" x="115.12" y="-286.5" font-family="Helvetica,sans-Serif" font-size="10.00">(const FGameplayTag &amp;Tag)</text>
<text xml:space="preserve" text-anchor="start" x="105.12" y="-270.5" font-family="Helvetica,sans-Serif" font-size="10.00">+</text>
<text xml:space="preserve" text-anchor="start" x="115.12" y="-270.5" font-family="Helvetica,sans-Serif" font-size="10.00">void SetRemainingTime</text>
<text xml:space="preserve" text-anchor="start" x="115.12" y="-258.5" font-family="Helvetica,sans-Serif" font-size="10.00">(float NewTime)</text>
<text xml:space="preserve" text-anchor="start" x="105.12" y="-242.5" font-family="Helvetica,sans-Serif" font-size="10.00">+</text>
<text xml:space="preserve" text-anchor="start" x="115.12" y="-242.5" font-family="Helvetica,sans-Serif" font-size="10.00">void SetStateTags(const</text>
<text xml:space="preserve" text-anchor="start" x="115.12" y="-230.5" font-family="Helvetica,sans-Serif" font-size="10.00"> FGameplayTagContainer</text>
<text xml:space="preserve" text-anchor="start" x="115.12" y="-218.5" font-family="Helvetica,sans-Serif" font-size="10.00"> &amp;Tags)</text>
<text xml:space="preserve" text-anchor="start" x="105.5" y="-202.5" font-family="Helvetica,sans-Serif" font-size="10.00">#</text>
<text xml:space="preserve" text-anchor="start" x="115.12" y="-202.5" font-family="Helvetica,sans-Serif" font-size="10.00">virtual void OnRep</text>
<text xml:space="preserve" text-anchor="start" x="115.12" y="-190.5" font-family="Helvetica,sans-Serif" font-size="10.00">_CurrentStateTags()</text>
<polygon fill="#666666" stroke="#666666" points="101.12,-578 101.12,-578 274.38,-578 274.38,-578 101.12,-578"/>
<polygon fill="#666666" stroke="#666666" points="101.12,-506 101.12,-506 113.12,-506 113.12,-506 101.12,-506"/>
<polygon fill="#666666" stroke="#666666" points="113.12,-506 113.12,-506 274.38,-506 274.38,-506 113.12,-506"/>
<polygon fill="none" stroke="#666666" points="101.12,-184 101.12,-596 274.38,-596 274.38,-184 101.12,-184"/>
</a>
</g>
</g>
<!-- Node3 -->
<g id="Node000003" class="node">
<title>Node3</title>
<g id="a_Node000003"><a xlink:href="class_u_in_game_phase_manager_component.html" target="_top" xlink:title=" ">
<polygon fill="white" stroke="none" points="181.5,-148 0,-148 0,0 181.5,0 181.5,-148"/>
<text xml:space="preserve" text-anchor="start" x="12" y="-134.5" font-family="Helvetica,sans-Serif" font-size="10.00">UInGamePhaseManagerComponent</text>
<text xml:space="preserve" text-anchor="start" x="89.25" y="-118.5" font-family="Helvetica,sans-Serif" font-size="10.00"> </text>
<text xml:space="preserve" text-anchor="start" x="4" y="-102.5" font-family="Helvetica,sans-Serif" font-size="10.00">+</text>
<text xml:space="preserve" text-anchor="start" x="14" y="-102.5" font-family="Helvetica,sans-Serif" font-size="10.00">UInGamePhaseManagerComponent()</text>
<text xml:space="preserve" text-anchor="start" x="4" y="-86.5" font-family="Helvetica,sans-Serif" font-size="10.00">+</text>
<text xml:space="preserve" text-anchor="start" x="14" y="-86.5" font-family="Helvetica,sans-Serif" font-size="10.00">int32 GetCurrentRound</text>
<text xml:space="preserve" text-anchor="start" x="14" y="-74.5" font-family="Helvetica,sans-Serif" font-size="10.00">() const</text>
<text xml:space="preserve" text-anchor="start" x="4" y="-58.5" font-family="Helvetica,sans-Serif" font-size="10.00">+</text>
<text xml:space="preserve" text-anchor="start" x="14" y="-58.5" font-family="Helvetica,sans-Serif" font-size="10.00">virtual void GetLifetime</text>
<text xml:space="preserve" text-anchor="start" x="14" y="-46.5" font-family="Helvetica,sans-Serif" font-size="10.00">ReplicatedProps(TArray</text>
<text xml:space="preserve" text-anchor="start" x="14" y="-34.5" font-family="Helvetica,sans-Serif" font-size="10.00">&lt; FLifetimeProperty &gt; &amp;OutLifetime</text>
<text xml:space="preserve" text-anchor="start" x="14" y="-22.5" font-family="Helvetica,sans-Serif" font-size="10.00">Props) const override</text>
<text xml:space="preserve" text-anchor="start" x="4" y="-6.5" font-family="Helvetica,sans-Serif" font-size="10.00">+</text>
<text xml:space="preserve" text-anchor="start" x="14" y="-6.5" font-family="Helvetica,sans-Serif" font-size="10.00">void IncrementRound()</text>
<polygon fill="#666666" stroke="#666666" points="0,-130 0,-130 181.5,-130 181.5,-130 0,-130"/>
<polygon fill="#666666" stroke="#666666" points="0,-114 0,-114 181.5,-114 181.5,-114 0,-114"/>
<polygon fill="none" stroke="#666666" points="0,0 0,-148 181.5,-148 181.5,0 0,0"/>
</a>
</g>
</g>
<!-- Node1&#45;&gt;Node3 -->
<g id="edge2_Node000001_Node000003" class="edge">
<title>Node1&#45;&gt;Node3</title>
<g id="a_edge2_Node000001_Node000003"><a xlink:title=" ">
<path fill="none" stroke="#63b8ff" d="M121.17,-173.47C118.44,-164.63 115.8,-156.09 113.29,-147.97"/>
<polygon fill="none" stroke="#63b8ff" points="117.8,-174.41 124.09,-182.94 124.49,-172.35 117.8,-174.41"/>
</a>
</g>
</g>
<!-- Node4 -->
<g id="Node000004" class="node">
<title>Node4</title>
<g id="a_Node000004"><a xlink:href="class_u_lobby_state_manager_component.html" target="_top" xlink:title=" ">
<polygon fill="white" stroke="none" points="372.38,-146 199.12,-146 199.12,-2 372.38,-2 372.38,-146"/>
<text xml:space="preserve" text-anchor="start" x="213.38" y="-132.5" font-family="Helvetica,sans-Serif" font-size="10.00">ULobbyStateManagerComponent</text>
<text xml:space="preserve" text-anchor="start" x="284.25" y="-116.5" font-family="Helvetica,sans-Serif" font-size="10.00"> </text>
<text xml:space="preserve" text-anchor="start" x="203.12" y="-100.5" font-family="Helvetica,sans-Serif" font-size="10.00">+</text>
<text xml:space="preserve" text-anchor="start" x="213.12" y="-100.5" font-family="Helvetica,sans-Serif" font-size="10.00">virtual void GetLifetime</text>
<text xml:space="preserve" text-anchor="start" x="213.12" y="-88.5" font-family="Helvetica,sans-Serif" font-size="10.00">ReplicatedProps(TArray</text>
<text xml:space="preserve" text-anchor="start" x="213.12" y="-76.5" font-family="Helvetica,sans-Serif" font-size="10.00">&lt; FLifetimeProperty &gt; &amp;OutLifetime</text>
<text xml:space="preserve" text-anchor="start" x="213.12" y="-64.5" font-family="Helvetica,sans-Serif" font-size="10.00">Props) const override</text>
<text xml:space="preserve" text-anchor="start" x="203.12" y="-48.5" font-family="Helvetica,sans-Serif" font-size="10.00">+</text>
<text xml:space="preserve" text-anchor="start" x="213.12" y="-48.5" font-family="Helvetica,sans-Serif" font-size="10.00">int32 GetReadyPlayerCount</text>
<text xml:space="preserve" text-anchor="start" x="213.12" y="-36.5" font-family="Helvetica,sans-Serif" font-size="10.00">() const</text>
<text xml:space="preserve" text-anchor="start" x="203.12" y="-20.5" font-family="Helvetica,sans-Serif" font-size="10.00">+</text>
<text xml:space="preserve" text-anchor="start" x="213.12" y="-20.5" font-family="Helvetica,sans-Serif" font-size="10.00">void SetReadyPlayerCount</text>
<text xml:space="preserve" text-anchor="start" x="213.12" y="-8.5" font-family="Helvetica,sans-Serif" font-size="10.00">(int32 Count)</text>
<polygon fill="#666666" stroke="#666666" points="199.12,-128 199.12,-128 372.38,-128 372.38,-128 199.12,-128"/>
<polygon fill="#666666" stroke="#666666" points="199.12,-112 199.12,-112 372.38,-112 372.38,-112 199.12,-112"/>
<polygon fill="none" stroke="#666666" points="199.12,-2 199.12,-146 372.38,-146 372.38,-2 199.12,-2"/>
</a>
</g>
</g>
<!-- Node1&#45;&gt;Node4 -->
<g id="edge3_Node000001_Node000004" class="edge">
<title>Node1&#45;&gt;Node4</title>
<g id="a_edge3_Node000001_Node000004"><a xlink:title=" ">
<path fill="none" stroke="#63b8ff" d="M255.04,-173.4C258.04,-163.79 260.93,-154.52 263.66,-145.78"/>
<polygon fill="none" stroke="#63b8ff" points="251.7,-172.35 252.06,-182.94 258.38,-174.43 251.7,-172.35"/>
</a>
</g>
</g>
<!-- Node2 -->
<g id="Node000002" class="node">
<title>Node2</title>
<g id="a_Node000002"><a xlink:title=" ">
<polygon fill="white" stroke="none" points="232.25,-684 143.25,-684 143.25,-632 232.25,-632 232.25,-684"/>
<text xml:space="preserve" text-anchor="start" x="147.25" y="-670.5" font-family="Helvetica,sans-Serif" font-size="10.00">UActorComponent</text>
<text xml:space="preserve" text-anchor="start" x="186.25" y="-654.5" font-family="Helvetica,sans-Serif" font-size="10.00"> </text>
<text xml:space="preserve" text-anchor="start" x="186.25" y="-638.5" font-family="Helvetica,sans-Serif" font-size="10.00"> </text>
<polygon fill="#666666" stroke="#666666" points="143.25,-666 143.25,-666 232.25,-666 232.25,-666 143.25,-666"/>
<polygon fill="#666666" stroke="#666666" points="143.25,-650 143.25,-650 232.25,-650 232.25,-650 143.25,-650"/>
<polygon fill="none" stroke="#666666" points="143.25,-632 143.25,-684 232.25,-684 232.25,-632 143.25,-632"/>
</a>
</g>
</g>
<!-- Node2&#45;&gt;Node1 -->
<g id="edge1_Node000001_Node000002" class="edge">
<title>Node2&#45;&gt;Node1</title>
<g id="a_edge1_Node000001_Node000002"><a xlink:title=" ">
<path fill="none" stroke="#63b8ff" d="M187.75,-621.05C187.75,-613.52 187.75,-605.08 187.75,-596"/>
<polygon fill="none" stroke="#63b8ff" points="184.25,-620.94 187.75,-630.94 191.25,-620.94 184.25,-620.94"/>
</a>
</g>
</g>
</g>
</svg>

<g id="navigator" transform="translate(0 0)" fill="#404254">
  <rect fill="#f2f5e9" fill-opacity="0.5" stroke="#606060" stroke-width=".5" x="0" y="0" width="60" height="60"/>
  <use id="zoomplus" xlink:href="#zoomPlus" x="17" y="9" onmousedown="handleZoom(evt,'in')"/>
  <use id="zoomminus" xlink:href="#zoomMin" x="42" y="9" onmousedown="handleZoom(evt,'out')"/>
  <use id="reset" xlink:href="#resetDef" x="30" y="36" onmousedown="handleReset()"/>
   <use id="arrowup" xlink:href="#arrowUp" x="0" y="0" onmousedown="handlePan(0,-1)"/>
  <use id="arrowright" xlink:href="#arrowRight" x="0" y="0" onmousedown="handlePan(1,0)"/>
  <use id="arrowdown" xlink:href="#arrowDown" x="0" y="0" onmousedown="handlePan(0,1)"/>
  <use id="arrowleft" xlink:href="#arrowLeft" x="0" y="0" onmousedown="handlePan(-1,0)"/>
</g>
<svg viewBox="0 0 15 15" width="100%" height="30px" preserveAspectRatio="xMaxYMin meet">
 <g id="arrow_out" transform="scale(0.3 0.3)">
  <a xlink:href="class_u_state_manager_component__inherit__graph_org.svg" target="_base">
   <rect id="button" ry="5" rx="5" y="6" x="6" height="38" width="38"
        fill="#f2f5e9" fill-opacity="0.5" stroke="#606060" stroke-width="1.0"/>
   <path id="arrow"
     d="M 11.500037,31.436501 C 11.940474,20.09759 22.043105,11.32322 32.158766,21.979434 L 37.068811,17.246167 C 37.068811,17.246167 37.088388,32 37.088388,32 L 22.160133,31.978069 C 22.160133,31.978069 26.997745,27.140456 26.997745,27.140456 C 18.528582,18.264221 13.291696,25.230495 11.500037,31.436501 z"
     style="fill:#404040;"/>
  </a>
 </g>
</svg>

<style type='text/css'>
<![CDATA[
[data-mouse-over-selected='false'] { opacity: 0.7; }
[data-mouse-over-selected='true']  { opacity: 1.0; }
]]>
</style>
<script type="application/ecmascript"><![CDATA[
document.addEventListener('DOMContentLoaded', (event) => {
  highlightEdges();
  highlightAdjacentNodes();
});
]]></script>
</svg>
