<?xml version="1.0" encoding="UTF-8" standalone="no"?>
<!DOCTYPE svg PUBLIC "-//W3C//DTD SVG 1.1//EN"
 "http://www.w3.org/Graphics/SVG/1.1/DTD/svg11.dtd">
<!-- Generated by graphviz version 13.1.1 (20250719.2154)
 -->
<!-- Title: AKPTLobbyPlayerController::RequestSelectCharacter Pages: 1 -->
<!--zoomable 162 -->

<svg id="main" version="1.1" xmlns="http://www.w3.org/2000/svg" xmlns:xlink="http://www.w3.org/1999/xlink" xml:space="preserve" onload="init(evt)">

<style type="text/css"><![CDATA[
.node, .edge {opacity: 0.7;}
.node.selected, .edge.selected {opacity: 1;}
.edge:hover path { stroke: red; }
.edge:hover polygon { stroke: red; fill: red; }
]]></style>

<defs>
  <circle id="rim" cx="0" cy="0" r="7"/>
  <circle id="rim2" cx="0" cy="0" r="3.5"/>
  <g id="zoomPlus">
    <use xlink:href="#rim" fill="#404040"><set attributeName="fill" to="#808080" begin="zoomplus.mouseover" end="zoomplus.mouseout"/></use>
    <path d="M-4,0h8M0,-4v8" fill="none" stroke="white" stroke-width="1.5" pointer-events="none"/>
  </g>
  <g id="zoomMin">
    <use xlink:href="#rim" fill="#404040"><set attributeName="fill" to="#808080" begin="zoomminus.mouseover" end="zoomminus.mouseout"/></use>
    <path d="M-4,0h8" fill="none" stroke="white" stroke-width="1.5" pointer-events="none"/>
  </g>
  <g id="arrowUp" transform="translate(30 24)">
    <use xlink:href="#rim"/>
    <path pointer-events="none" fill="none" stroke="white" stroke-width="1.5" d="M0,-3.0v7 M-2.5,-0.5L0,-3.0L2.5,-0.5"/>
  </g>
  <g id="arrowRight" transform="rotate(90) translate(36 -43)">
    <use xlink:href="#rim"/>
    <path pointer-events="none" fill="none" stroke="white" stroke-width="1.5" d="M0,-3.0v7 M-2.5,-0.5L0,-3.0L2.5,-0.5"/>
  </g>
  <g id="arrowDown" transform="rotate(180) translate(-30 -48)">
    <use xlink:href="#rim"/>
    <path pointer-events="none" fill="none" stroke="white" stroke-width="1.5" d="M0,-3.0v7 M-2.5,-0.5L0,-3.0L2.5,-0.5"/>
  </g>
  <g id="arrowLeft" transform="rotate(270) translate(-36 17)">
    <use xlink:href="#rim"/>
    <path pointer-events="none" fill="none" stroke="white" stroke-width="1.5" d="M0,-3.0v7 M-2.5,-0.5L0,-3.0L2.5,-0.5"/>
  </g>
  <g id="resetDef">
    <use xlink:href="#rim2" fill="#404040"><set attributeName="fill" to="#808080" begin="reset.mouseover" end="reset.mouseout"/></use>
  </g>
</defs>
<script type="application/ecmascript">
var viewWidth = 669;
var viewHeight = 162;
var sectionId = 'dynsection-6';
</script>
<script type="application/ecmascript" xlink:href="svg.min.js"/>
<svg id="graph" class="graph">
<g id="viewport">
<title>AKPTLobbyPlayerController::RequestSelectCharacter</title>
<!-- Node1 -->
<g id="Node000001" class="node">
<title>Node1</title>
<g id="a_Node000001"><a xlink:title=" ">
<polygon fill="#999999" stroke="#666666" points="138.25,-98 0,-98 0,-66 138.25,-66 138.25,-98"/>
<text xml:space="preserve" text-anchor="start" x="8" y="-84.5" font-family="Helvetica,sans-Serif" font-size="10.00">AKPTLobbyPlayerController</text>
<text xml:space="preserve" text-anchor="middle" x="69.12" y="-72.5" font-family="Helvetica,sans-Serif" font-size="10.00">::RequestSelectCharacter</text>
</a>
</g>
</g>
<!-- Node2 -->
<g id="Node000002" class="node">
<title>Node2</title>
<g id="a_Node000002"><a xlink:href="class_a_k_p_t_lobby_player_controller.html#a59c9366cd56cc64e871da1ffa6c5f2cc" target="_top" xlink:title=" ">
<polygon fill="white" stroke="#666666" points="312.5,-98 174.25,-98 174.25,-66 312.5,-66 312.5,-98"/>
<text xml:space="preserve" text-anchor="start" x="182.25" y="-84.5" font-family="Helvetica,sans-Serif" font-size="10.00">AKPTLobbyPlayerController</text>
<text xml:space="preserve" text-anchor="middle" x="243.38" y="-72.5" font-family="Helvetica,sans-Serif" font-size="10.00">::Server_SelectCharacter</text>
</a>
</g>
</g>
<!-- Node1&#45;&gt;Node2 -->
<g id="edge1_Node000001_Node000002" class="edge">
<title>Node1&#45;&gt;Node2</title>
<g id="a_edge1_Node000001_Node000002"><a xlink:title=" ">
<path fill="none" stroke="#63b8ff" d="M138.7,-82C146.45,-82 154.4,-82 162.29,-82"/>
<polygon fill="#63b8ff" stroke="#63b8ff" points="162.24,-85.5 172.24,-82 162.24,-78.5 162.24,-85.5"/>
</a>
</g>
</g>
<!-- Node2&#45;&gt;Node2 -->
<g id="edge7_Node000002_Node000002" class="edge">
<title>Node2&#45;&gt;Node2</title>
<g id="a_edge7_Node000002_Node000002"><a xlink:title=" ">
<path fill="none" stroke="#63b8ff" d="M212.27,-98.44C206.46,-107.58 216.83,-116 243.38,-116 257.89,-116 267.57,-113.48 272.41,-109.71"/>
<polygon fill="#63b8ff" stroke="#63b8ff" points="275.84,-110.4 274.21,-99.93 268.96,-109.13 275.84,-110.4"/>
</a>
</g>
</g>
<!-- Node3 -->
<g id="Node000003" class="node">
<title>Node3</title>
<g id="a_Node000003"><a xlink:href="class_a_k_p_t_lobby_player_controller.html#aed631b62d6aa2bff4969e7b4b22ec9ae" target="_top" xlink:title=" ">
<polygon fill="white" stroke="#666666" points="486.75,-120 348.5,-120 348.5,-88 486.75,-88 486.75,-120"/>
<text xml:space="preserve" text-anchor="start" x="356.5" y="-106.5" font-family="Helvetica,sans-Serif" font-size="10.00">AKPTLobbyPlayerController</text>
<text xml:space="preserve" text-anchor="middle" x="417.62" y="-94.5" font-family="Helvetica,sans-Serif" font-size="10.00">::BeginPlay</text>
</a>
</g>
</g>
<!-- Node2&#45;&gt;Node3 -->
<g id="edge2_Node000002_Node000003" class="edge">
<title>Node2&#45;&gt;Node3</title>
<g id="a_edge2_Node000002_Node000003"><a xlink:title=" ">
<path fill="none" stroke="#63b8ff" d="M312.95,-90.76C320.79,-91.76 328.84,-92.79 336.81,-93.81"/>
<polygon fill="#63b8ff" stroke="#63b8ff" points="336.14,-97.25 346.51,-95.04 337.03,-90.31 336.14,-97.25"/>
</a>
</g>
</g>
<!-- Node4 -->
<g id="Node000004" class="node">
<title>Node4</title>
<g id="a_Node000004"><a xlink:href="class_a_k_p_t_lobby_player_controller.html#ad0a944b2a4df4237b8b961eebb4ca1e1" target="_top" xlink:title=" ">
<polygon fill="white" stroke="#666666" points="661,-154 522.75,-154 522.75,-122 661,-122 661,-154"/>
<text xml:space="preserve" text-anchor="start" x="530.75" y="-140.5" font-family="Helvetica,sans-Serif" font-size="10.00">AKPTLobbyPlayerController</text>
<text xml:space="preserve" text-anchor="middle" x="591.88" y="-128.5" font-family="Helvetica,sans-Serif" font-size="10.00">::CreateLobbyWidget</text>
</a>
</g>
</g>
<!-- Node2&#45;&gt;Node4 -->
<g id="edge5_Node000002_Node000004" class="edge">
<title>Node2&#45;&gt;Node4</title>
<g id="a_edge5_Node000002_Node000004"><a xlink:title=" ">
<path fill="none" stroke="#63b8ff" d="M272.49,-98.3C292.86,-109.19 321.47,-122.65 348.5,-129 401.73,-141.49 463.31,-143.63 511.08,-142.7"/>
<polygon fill="#63b8ff" stroke="#63b8ff" points="510.87,-146.21 520.78,-142.46 510.7,-139.21 510.87,-146.21"/>
</a>
</g>
</g>
<!-- Node5 -->
<g id="Node000005" class="node">
<title>Node5</title>
<g id="a_Node000005"><a xlink:href="class_a_k_p_t_lobby_player_controller.html#ac612045f4dabb0881f558a1a266ebd18" target="_top" xlink:title=" ">
<polygon fill="white" stroke="#666666" points="661,-95 522.75,-95 522.75,-63 661,-63 661,-95"/>
<text xml:space="preserve" text-anchor="start" x="530.75" y="-81.5" font-family="Helvetica,sans-Serif" font-size="10.00">AKPTLobbyPlayerController</text>
<text xml:space="preserve" text-anchor="middle" x="591.88" y="-69.5" font-family="Helvetica,sans-Serif" font-size="10.00">::TryToSetLobbyCamera</text>
</a>
</g>
</g>
<!-- Node2&#45;&gt;Node5 -->
<g id="edge8_Node000002_Node000005" class="edge">
<title>Node2&#45;&gt;Node5</title>
<g id="a_edge8_Node000002_Node000005"><a xlink:title=" ">
<path fill="none" stroke="#63b8ff" d="M312.98,-79.74C324.82,-79.43 337.02,-79.17 348.5,-79 402.72,-78.22 463.78,-78.22 511.04,-78.42"/>
<polygon fill="#63b8ff" stroke="#63b8ff" points="510.91,-81.92 520.93,-78.47 510.94,-74.92 510.91,-81.92"/>
</a>
</g>
</g>
<!-- Node6 -->
<g id="Node000006" class="node">
<title>Node6</title>
<g id="a_Node000006"><a xlink:href="class_a_k_p_t_lobby_player_controller.html#a0f474796b79489cca5ff654c30e25e1a" target="_top" xlink:title=" ">
<polygon fill="white" stroke="#666666" points="486.75,-32 348.5,-32 348.5,0 486.75,0 486.75,-32"/>
<text xml:space="preserve" text-anchor="start" x="356.5" y="-18.5" font-family="Helvetica,sans-Serif" font-size="10.00">AKPTLobbyPlayerController</text>
<text xml:space="preserve" text-anchor="middle" x="417.62" y="-6.5" font-family="Helvetica,sans-Serif" font-size="10.00">::EndPlay</text>
</a>
</g>
</g>
<!-- Node2&#45;&gt;Node6 -->
<g id="edge6_Node000002_Node000006" class="edge">
<title>Node2&#45;&gt;Node6</title>
<g id="a_edge6_Node000002_Node000006"><a xlink:title=" ">
<path fill="none" stroke="#63b8ff" d="M287.4,-65.52C310.4,-56.7 338.93,-45.77 363.33,-36.42"/>
<polygon fill="#63b8ff" stroke="#63b8ff" points="364.35,-39.78 372.44,-32.93 361.85,-33.24 364.35,-39.78"/>
</a>
</g>
</g>
<!-- Node3&#45;&gt;Node4 -->
<g id="edge3_Node000003_Node000004" class="edge">
<title>Node3&#45;&gt;Node4</title>
<g id="a_edge3_Node000003_Node000004"><a xlink:title=" ">
<path fill="none" stroke="#63b8ff" d="M487.2,-117.54C495.04,-119.08 503.09,-120.67 511.06,-122.25"/>
<polygon fill="#63b8ff" stroke="#63b8ff" points="510.28,-125.66 520.77,-124.16 511.64,-118.79 510.28,-125.66"/>
</a>
</g>
</g>
<!-- Node3&#45;&gt;Node5 -->
<g id="edge4_Node000003_Node000005" class="edge">
<title>Node3&#45;&gt;Node5</title>
<g id="a_edge4_Node000003_Node000005"><a xlink:title=" ">
<path fill="none" stroke="#63b8ff" d="M487.2,-94.05C495.04,-92.91 503.09,-91.74 511.06,-90.58"/>
<polygon fill="#63b8ff" stroke="#63b8ff" points="511.37,-94.08 520.76,-89.18 510.36,-87.15 511.37,-94.08"/>
</a>
</g>
</g>
</g>
</svg>

<g id="navigator" transform="translate(0 0)" fill="#404254">
  <rect fill="#f2f5e9" fill-opacity="0.5" stroke="#606060" stroke-width=".5" x="0" y="0" width="60" height="60"/>
  <use id="zoomplus" xlink:href="#zoomPlus" x="17" y="9" onmousedown="handleZoom(evt,'in')"/>
  <use id="zoomminus" xlink:href="#zoomMin" x="42" y="9" onmousedown="handleZoom(evt,'out')"/>
  <use id="reset" xlink:href="#resetDef" x="30" y="36" onmousedown="handleReset()"/>
   <use id="arrowup" xlink:href="#arrowUp" x="0" y="0" onmousedown="handlePan(0,-1)"/>
  <use id="arrowright" xlink:href="#arrowRight" x="0" y="0" onmousedown="handlePan(1,0)"/>
  <use id="arrowdown" xlink:href="#arrowDown" x="0" y="0" onmousedown="handlePan(0,1)"/>
  <use id="arrowleft" xlink:href="#arrowLeft" x="0" y="0" onmousedown="handlePan(-1,0)"/>
</g>
<svg viewBox="0 0 15 15" width="100%" height="30px" preserveAspectRatio="xMaxYMin meet">
 <g id="arrow_out" transform="scale(0.3 0.3)">
  <a xlink:href="class_a_k_p_t_lobby_player_controller_a7a184f940bbc89d9a398437bf3845a8c_cgraph_org.svg" target="_base">
   <rect id="button" ry="5" rx="5" y="6" x="6" height="38" width="38"
        fill="#f2f5e9" fill-opacity="0.5" stroke="#606060" stroke-width="1.0"/>
   <path id="arrow"
     d="M 11.500037,31.436501 C 11.940474,20.09759 22.043105,11.32322 32.158766,21.979434 L 37.068811,17.246167 C 37.068811,17.246167 37.088388,32 37.088388,32 L 22.160133,31.978069 C 22.160133,31.978069 26.997745,27.140456 26.997745,27.140456 C 18.528582,18.264221 13.291696,25.230495 11.500037,31.436501 z"
     style="fill:#404040;"/>
  </a>
 </g>
</svg>

<style type='text/css'>
<![CDATA[
[data-mouse-over-selected='false'] { opacity: 0.7; }
[data-mouse-over-selected='true']  { opacity: 1.0; }
]]>
</style>
<script type="application/ecmascript"><![CDATA[
document.addEventListener('DOMContentLoaded', (event) => {
  highlightEdges();
  highlightAdjacentNodes();
});
]]></script>
</svg>
