<?xml version="1.0" encoding="UTF-8" standalone="no"?>
<!DOCTYPE svg PUBLIC "-//W3C//DTD SVG 1.1//EN"
 "http://www.w3.org/Graphics/SVG/1.1/DTD/svg11.dtd">
<!-- Generated by graphviz version 13.1.1 (20250719.2154)
 -->
<!-- Title: AAreaHazard::ApplyEffectToTarget Pages: 1 -->
<svg width="523pt" height="66pt"
 viewBox="0.00 0.00 523.00 66.00" xmlns="http://www.w3.org/2000/svg" xmlns:xlink="http://www.w3.org/1999/xlink">
<g id="graph0" class="graph" transform="scale(1 1) rotate(0) translate(4 62)">
<title>AAreaHazard::ApplyEffectToTarget</title>
<!-- Node1 -->
<g id="Node000001" class="node">
<title>Node1</title>
<g id="a_Node000001"><a xlink:title=" ">
<polygon fill="#999999" stroke="#666666" points="515.25,-45 384.5,-45 384.5,-13 515.25,-13 515.25,-45"/>
<text xml:space="preserve" text-anchor="start" x="392.5" y="-31.5" font-family="Helvetica,sans-Serif" font-size="10.00">AAreaHazard::ApplyEffect</text>
<text xml:space="preserve" text-anchor="middle" x="449.88" y="-19.5" font-family="Helvetica,sans-Serif" font-size="10.00">ToTarget</text>
</a>
</g>
</g>
<!-- Node2 -->
<g id="Node000002" class="node">
<title>Node2</title>
<g id="a_Node000002"><a xlink:href="class_a_area_hazard.html#af9d0f183dfa48a1becd97c99172e33d6" target="_top" xlink:title=" ">
<polygon fill="white" stroke="#666666" points="346.62,-58 198.62,-58 198.62,-38 346.62,-38 346.62,-58"/>
<text xml:space="preserve" text-anchor="middle" x="272.62" y="-44.5" font-family="Helvetica,sans-Serif" font-size="10.00">AAreaHazard::ActivateHazard</text>
</a>
</g>
</g>
<!-- Node1&#45;&gt;Node2 -->
<g id="edge1_Node000001_Node000002" class="edge">
<title>Node1&#45;&gt;Node2</title>
<g id="a_edge1_Node000001_Node000002"><a xlink:title=" ">
<path fill="none" stroke="#63b8ff" d="M372.92,-37.23C364.31,-38.17 355.55,-39.12 346.98,-40.05"/>
<polygon fill="#63b8ff" stroke="#63b8ff" points="373.05,-40.74 382.61,-36.18 372.29,-33.78 373.05,-40.74"/>
</a>
</g>
</g>
<!-- Node4 -->
<g id="Node000004" class="node">
<title>Node4</title>
<g id="a_Node000004"><a xlink:href="class_a_area_hazard.html#af8d0dba4ea83c0c16335dbad95946bf1" target="_top" xlink:title=" ">
<polygon fill="white" stroke="#666666" points="348.5,-20 196.75,-20 196.75,0 348.5,0 348.5,-20"/>
<text xml:space="preserve" text-anchor="middle" x="272.62" y="-6.5" font-family="Helvetica,sans-Serif" font-size="10.00">AAreaHazard::OnBeginOverlap</text>
</a>
</g>
</g>
<!-- Node1&#45;&gt;Node4 -->
<g id="edge3_Node000001_Node000004" class="edge">
<title>Node1&#45;&gt;Node4</title>
<g id="a_edge3_Node000001_Node000004"><a xlink:title=" ">
<path fill="none" stroke="#63b8ff" d="M372.91,-20.76C364.91,-19.9 356.77,-19.01 348.78,-18.15"/>
<polygon fill="#63b8ff" stroke="#63b8ff" points="372.29,-24.22 382.61,-21.82 373.05,-17.26 372.29,-24.22"/>
</a>
</g>
</g>
<!-- Node3 -->
<g id="Node000003" class="node">
<title>Node3</title>
<g id="a_Node000003"><a xlink:href="class_a_area_hazard.html#affe525f8354dd2bb5192cc33a27c1347" target="_top" xlink:title=" ">
<polygon fill="white" stroke="#666666" points="160.75,-58 0,-58 0,-38 160.75,-38 160.75,-58"/>
<text xml:space="preserve" text-anchor="middle" x="80.38" y="-44.5" font-family="Helvetica,sans-Serif" font-size="10.00">AAreaHazard::SetHazardParams</text>
</a>
</g>
</g>
<!-- Node2&#45;&gt;Node3 -->
<g id="edge2_Node000002_Node000003" class="edge">
<title>Node2&#45;&gt;Node3</title>
<g id="a_edge2_Node000002_Node000003"><a xlink:title=" ">
<path fill="none" stroke="#63b8ff" d="M187.03,-48C178.35,-48 169.56,-48 160.94,-48"/>
<polygon fill="#63b8ff" stroke="#63b8ff" points="186.83,-51.5 196.83,-48 186.83,-44.5 186.83,-51.5"/>
</a>
</g>
</g>
<!-- Node5 -->
<g id="Node000005" class="node">
<title>Node5</title>
<g id="a_Node000005"><a xlink:href="class_a_area_hazard.html#a094d9ed4bcce32d6750c651ac8bacf15" target="_top" xlink:title=" ">
<polygon fill="white" stroke="#666666" points="142.75,-20 18,-20 18,0 142.75,0 142.75,-20"/>
<text xml:space="preserve" text-anchor="middle" x="80.38" y="-6.5" font-family="Helvetica,sans-Serif" font-size="10.00">AAreaHazard::BeginPlay</text>
</a>
</g>
</g>
<!-- Node4&#45;&gt;Node5 -->
<g id="edge4_Node000004_Node000005" class="edge">
<title>Node4&#45;&gt;Node5</title>
<g id="a_edge4_Node000004_Node000005"><a xlink:title=" ">
<path fill="none" stroke="#63b8ff" d="M185.16,-10C170.99,-10 156.58,-10 143.17,-10"/>
<polygon fill="#63b8ff" stroke="#63b8ff" points="184.92,-13.5 194.92,-10 184.92,-6.5 184.92,-13.5"/>
</a>
</g>
</g>
</g>
</svg>
