<?xml version="1.0" encoding="UTF-8" standalone="no"?>
<!DOCTYPE svg PUBLIC "-//W3C//DTD SVG 1.1//EN"
 "http://www.w3.org/Graphics/SVG/1.1/DTD/svg11.dtd">
<!-- Generated by graphviz version 13.1.1 (20250719.2154)
 -->
<!-- Title: AMinionMonster::MulticastSetDesiredRotator Pages: 1 -->
<svg width="532pt" height="334pt"
 viewBox="0.00 0.00 532.00 334.00" xmlns="http://www.w3.org/2000/svg" xmlns:xlink="http://www.w3.org/1999/xlink">
<g id="graph0" class="graph" transform="scale(1 1) rotate(0) translate(4 330)">
<title>AMinionMonster::MulticastSetDesiredRotator</title>
<!-- Node1 -->
<g id="Node000001" class="node">
<title>Node1</title>
<g id="a_Node000001"><a xlink:title=" ">
<polygon fill="#999999" stroke="#666666" points="132.25,-176 0,-176 0,-144 132.25,-144 132.25,-176"/>
<text xml:space="preserve" text-anchor="start" x="8" y="-162.5" font-family="Helvetica,sans-Serif" font-size="10.00">AMinionMonster::Multicast</text>
<text xml:space="preserve" text-anchor="middle" x="66.12" y="-150.5" font-family="Helvetica,sans-Serif" font-size="10.00">SetDesiredRotator</text>
</a>
</g>
</g>
<!-- Node1&#45;&gt;Node1 -->
<g id="edge5_Node000001_Node000001" class="edge">
<title>Node1&#45;&gt;Node1</title>
<g id="a_edge5_Node000001_Node000001"><a xlink:title=" ">
<path fill="none" stroke="#63b8ff" d="M33.54,-176.44C27.46,-185.58 38.32,-194 66.12,-194 81.33,-194 91.47,-191.48 96.54,-187.71"/>
<polygon fill="#63b8ff" stroke="#63b8ff" points="99.97,-188.41 98.42,-177.93 93.09,-187.09 99.97,-188.41"/>
</a>
</g>
</g>
<!-- Node2 -->
<g id="Node000002" class="node">
<title>Node2</title>
<g id="a_Node000002"><a xlink:href="class_a_minion_monster.html#ae43c84a0c54f363183929ec3e07cbead" target="_top" xlink:title=" ">
<polygon fill="white" stroke="#666666" points="312.88,-326 184.38,-326 184.38,-294 312.88,-294 312.88,-326"/>
<text xml:space="preserve" text-anchor="start" x="192.38" y="-312.5" font-family="Helvetica,sans-Serif" font-size="10.00">AMinionMonster::Activate</text>
<text xml:space="preserve" text-anchor="middle" x="248.62" y="-300.5" font-family="Helvetica,sans-Serif" font-size="10.00">DamageFloater</text>
</a>
</g>
</g>
<!-- Node1&#45;&gt;Node2 -->
<g id="edge1_Node000001_Node000002" class="edge">
<title>Node1&#45;&gt;Node2</title>
<g id="a_edge1_Node000001_Node000002"><a xlink:title=" ">
<path fill="none" stroke="#63b8ff" d="M76.05,-176.37C91.4,-203.03 125.34,-255.78 168.25,-285 170.09,-286.25 171.99,-287.44 173.94,-288.57"/>
<polygon fill="#63b8ff" stroke="#63b8ff" points="172.23,-291.63 182.72,-293.08 175.42,-285.4 172.23,-291.63"/>
</a>
</g>
</g>
<!-- Node3 -->
<g id="Node000003" class="node">
<title>Node3</title>
<g id="a_Node000003"><a xlink:href="class_a_minion_monster.html#afa673a065f725133d8e430587d6b4cb9" target="_top" xlink:title=" ">
<polygon fill="white" stroke="#666666" points="320.75,-276 176.5,-276 176.5,-256 320.75,-256 320.75,-276"/>
<text xml:space="preserve" text-anchor="middle" x="248.62" y="-262.5" font-family="Helvetica,sans-Serif" font-size="10.00">AMinionMonster::FinishDying</text>
</a>
</g>
</g>
<!-- Node1&#45;&gt;Node3 -->
<g id="edge2_Node000001_Node000003" class="edge">
<title>Node1&#45;&gt;Node3</title>
<g id="a_edge2_Node000001_Node000003"><a xlink:title=" ">
<path fill="none" stroke="#63b8ff" d="M81.51,-176.44C99.71,-196.21 132.99,-228.97 168.25,-247 171.7,-248.76 175.31,-250.37 179.02,-251.82"/>
<polygon fill="#63b8ff" stroke="#63b8ff" points="177.64,-255.05 188.23,-255.05 179.96,-248.44 177.64,-255.05"/>
</a>
</g>
</g>
<!-- Node6 -->
<g id="Node000006" class="node">
<title>Node6</title>
<g id="a_Node000006"><a xlink:href="class_a_minion_monster.html#a45150a2594b5f489332a13ed092638f3" target="_top" xlink:title=" ">
<polygon fill="white" stroke="#666666" points="310.25,-238 187,-238 187,-206 310.25,-206 310.25,-238"/>
<text xml:space="preserve" text-anchor="start" x="195" y="-224.5" font-family="Helvetica,sans-Serif" font-size="10.00">AMinionMonster::OnRep</text>
<text xml:space="preserve" text-anchor="middle" x="248.62" y="-212.5" font-family="Helvetica,sans-Serif" font-size="10.00">_SpawnLocation</text>
</a>
</g>
</g>
<!-- Node1&#45;&gt;Node6 -->
<g id="edge6_Node000001_Node000006" class="edge">
<title>Node1&#45;&gt;Node6</title>
<g id="a_edge6_Node000001_Node000006"><a xlink:title=" ">
<path fill="none" stroke="#63b8ff" d="M110.77,-176.46C128.54,-183.04 149.31,-190.56 168.25,-197 173.2,-198.69 178.34,-200.39 183.52,-202.09"/>
<polygon fill="#63b8ff" stroke="#63b8ff" points="182.11,-205.31 192.71,-205.06 184.27,-198.65 182.11,-205.31"/>
</a>
</g>
</g>
<!-- Node7 -->
<g id="Node000007" class="node">
<title>Node7</title>
<g id="a_Node000007"><a xlink:href="class_a_minion_monster.html#a84d245ac273bcfc522953e2d2c7964b3" target="_top" xlink:title=" ">
<polygon fill="white" stroke="#666666" points="324.88,-170 172.38,-170 172.38,-150 324.88,-150 324.88,-170"/>
<text xml:space="preserve" text-anchor="middle" x="248.62" y="-156.5" font-family="Helvetica,sans-Serif" font-size="10.00">AMinionMonster::OnTargetDied</text>
</a>
</g>
</g>
<!-- Node1&#45;&gt;Node7 -->
<g id="edge7_Node000001_Node000007" class="edge">
<title>Node1&#45;&gt;Node7</title>
<g id="a_edge7_Node000001_Node000007"><a xlink:title=" ">
<path fill="none" stroke="#63b8ff" d="M132.54,-160C141.65,-160 151.13,-160 160.56,-160"/>
<polygon fill="#63b8ff" stroke="#63b8ff" points="160.5,-163.5 170.5,-160 160.5,-156.5 160.5,-163.5"/>
</a>
</g>
</g>
<!-- Node8 -->
<g id="Node000008" class="node">
<title>Node8</title>
<g id="a_Node000008"><a xlink:href="class_a_minion_monster.html#ac7f7238f040b7b0747852d5686571f8f" target="_top" xlink:title=" ">
<polygon fill="white" stroke="#666666" points="317,-132 180.25,-132 180.25,-100 317,-100 317,-132"/>
<text xml:space="preserve" text-anchor="start" x="188.25" y="-118.5" font-family="Helvetica,sans-Serif" font-size="10.00">AMinionMonster::SmoothTo</text>
<text xml:space="preserve" text-anchor="middle" x="248.62" y="-106.5" font-family="Helvetica,sans-Serif" font-size="10.00">ServerPosition</text>
</a>
</g>
</g>
<!-- Node1&#45;&gt;Node8 -->
<g id="edge9_Node000001_Node000008" class="edge">
<title>Node1&#45;&gt;Node8</title>
<g id="a_edge9_Node000001_Node000008"><a xlink:title=" ">
<path fill="none" stroke="#63b8ff" d="M132.54,-144.05C144.36,-141.17 156.8,-138.14 168.95,-135.18"/>
<polygon fill="#63b8ff" stroke="#63b8ff" points="169.64,-138.61 178.53,-132.84 167.98,-131.81 169.64,-138.61"/>
</a>
</g>
</g>
<!-- Node9 -->
<g id="Node000009" class="node">
<title>Node9</title>
<g id="a_Node000009"><a xlink:href="class_a_minion_monster.html#a156f349f4943df609b1541a5050ed972" target="_top" xlink:title=" ">
<polygon fill="white" stroke="#666666" points="329,-82 168.25,-82 168.25,-50 329,-50 329,-82"/>
<text xml:space="preserve" text-anchor="start" x="176.25" y="-68.5" font-family="Helvetica,sans-Serif" font-size="10.00">AMinionMonster::UpdateFlocking</text>
<text xml:space="preserve" text-anchor="middle" x="248.62" y="-56.5" font-family="Helvetica,sans-Serif" font-size="10.00">Location</text>
</a>
</g>
</g>
<!-- Node1&#45;&gt;Node9 -->
<g id="edge10_Node000001_Node000009" class="edge">
<title>Node1&#45;&gt;Node9</title>
<g id="a_edge10_Node000001_Node000009"><a xlink:title=" ">
<path fill="none" stroke="#63b8ff" d="M87.33,-143.56C107,-128.22 138.23,-105.57 168.25,-91 171.5,-89.42 174.87,-87.91 178.31,-86.48"/>
<polygon fill="#63b8ff" stroke="#63b8ff" points="179.33,-89.84 187.37,-82.93 176.78,-83.32 179.33,-89.84"/>
</a>
</g>
</g>
<!-- Node10 -->
<g id="Node000010" class="node">
<title>Node10</title>
<g id="a_Node000010"><a xlink:href="class_a_minion_monster.html#ae7e6c5d889b8de78285021ecfe796683" target="_top" xlink:title=" ">
<polygon fill="white" stroke="#666666" points="324.88,-32 172.38,-32 172.38,0 324.88,0 324.88,-32"/>
<text xml:space="preserve" text-anchor="start" x="180.38" y="-18.5" font-family="Helvetica,sans-Serif" font-size="10.00">AMinionMonster::UpdateMinion</text>
<text xml:space="preserve" text-anchor="middle" x="248.62" y="-6.5" font-family="Helvetica,sans-Serif" font-size="10.00">State</text>
</a>
</g>
</g>
<!-- Node1&#45;&gt;Node10 -->
<g id="edge11_Node000001_Node000010" class="edge">
<title>Node1&#45;&gt;Node10</title>
<g id="a_edge11_Node000001_Node000010"><a xlink:title=" ">
<path fill="none" stroke="#63b8ff" d="M76.76,-143.6C92.63,-117.99 126.68,-68.58 168.25,-41 170.1,-39.77 172.02,-38.6 173.98,-37.49"/>
<polygon fill="#63b8ff" stroke="#63b8ff" points="175.45,-40.66 182.8,-33.03 172.29,-34.42 175.45,-40.66"/>
</a>
</g>
</g>
<!-- Node4 -->
<g id="Node000004" class="node">
<title>Node4</title>
<g id="a_Node000004"><a xlink:href="class_a_monster_base.html#a806800ef93729cb23610941f16f2786c" target="_top" xlink:title=" ">
<polygon fill="white" stroke="#666666" points="509.25,-304 380,-304 380,-272 509.25,-272 509.25,-304"/>
<text xml:space="preserve" text-anchor="start" x="388" y="-290.5" font-family="Helvetica,sans-Serif" font-size="10.00">AMonsterBase::GetAbility</text>
<text xml:space="preserve" text-anchor="middle" x="444.62" y="-278.5" font-family="Helvetica,sans-Serif" font-size="10.00">SystemComponent</text>
</a>
</g>
</g>
<!-- Node3&#45;&gt;Node4 -->
<g id="edge3_Node000003_Node000004" class="edge">
<title>Node3&#45;&gt;Node4</title>
<g id="a_edge3_Node000003_Node000004"><a xlink:title=" ">
<path fill="none" stroke="#63b8ff" d="M321.04,-274.1C336.51,-275.85 352.92,-277.71 368.53,-279.48"/>
<polygon fill="#63b8ff" stroke="#63b8ff" points="367.9,-282.94 378.23,-280.58 368.69,-275.98 367.9,-282.94"/>
</a>
</g>
</g>
<!-- Node5 -->
<g id="Node000005" class="node">
<title>Node5</title>
<g id="a_Node000005"><a xlink:href="class_u_pool_sub_system.html#a13674eeb60968e86a0a06840070cf751" target="_top" xlink:title=" ">
<polygon fill="white" stroke="#666666" points="524.25,-254 365,-254 365,-234 524.25,-234 524.25,-254"/>
<text xml:space="preserve" text-anchor="middle" x="444.62" y="-240.5" font-family="Helvetica,sans-Serif" font-size="10.00">UPoolSubSystem::ReturnToPool</text>
</a>
</g>
</g>
<!-- Node3&#45;&gt;Node5 -->
<g id="edge4_Node000003_Node000005" class="edge">
<title>Node3&#45;&gt;Node5</title>
<g id="a_edge4_Node000003_Node000005"><a xlink:title=" ">
<path fill="none" stroke="#63b8ff" d="M321.04,-257.9C331.54,-256.71 342.48,-255.47 353.3,-254.24"/>
<polygon fill="#63b8ff" stroke="#63b8ff" points="353.47,-257.75 363.01,-253.14 352.68,-250.79 353.47,-257.75"/>
</a>
</g>
</g>
<!-- Node7&#45;&gt;Node7 -->
<g id="edge8_Node000007_Node000007" class="edge">
<title>Node7&#45;&gt;Node7</title>
<g id="a_edge8_Node000007_Node000007"><a xlink:title=" ">
<path fill="none" stroke="#63b8ff" d="M219.63,-170.34C207.24,-178.98 216.9,-188 248.62,-188 266.47,-188 277.33,-185.14 281.22,-181.11"/>
<polygon fill="#63b8ff" stroke="#63b8ff" points="284.59,-180.15 278.1,-171.77 277.95,-182.37 284.59,-180.15"/>
</a>
</g>
</g>
</g>
</svg>
