<?xml version="1.0" encoding="UTF-8" standalone="no"?>
<!DOCTYPE svg PUBLIC "-//W3C//DTD SVG 1.1//EN"
 "http://www.w3.org/Graphics/SVG/1.1/DTD/svg11.dtd">
<!-- Generated by graphviz version 13.1.1 (20250719.2154)
 -->
<!-- Title: AFlockingManager Pages: 1 -->
<svg width="154pt" height="300pt"
 viewBox="0.00 0.00 154.00 300.00" xmlns="http://www.w3.org/2000/svg" xmlns:xlink="http://www.w3.org/1999/xlink">
<g id="graph0" class="graph" transform="scale(1 1) rotate(0) translate(4 296)">
<title>AFlockingManager</title>
<!-- Node1 -->
<g id="Node000001" class="node">
<title>Node1</title>
<g id="a_Node000001"><a xlink:title=" ">
<polygon fill="#999999" stroke="none" points="146.25,-204 0,-204 0,0 146.25,0 146.25,-204"/>
<text xml:space="preserve" text-anchor="start" x="32.62" y="-190.5" font-family="Helvetica,sans-Serif" font-size="10.00">AFlockingManager</text>
<text xml:space="preserve" text-anchor="start" x="4" y="-174.5" font-family="Helvetica,sans-Serif" font-size="10.00">+</text>
<text xml:space="preserve" text-anchor="start" x="14" y="-174.5" font-family="Helvetica,sans-Serif" font-size="10.00">bool bUseMultithreading</text>
<text xml:space="preserve" text-anchor="start" x="4" y="-158.5" font-family="Helvetica,sans-Serif" font-size="10.00">+</text>
<text xml:space="preserve" text-anchor="start" x="14" y="-158.5" font-family="Helvetica,sans-Serif" font-size="10.00">int32 ThreadCount</text>
<text xml:space="preserve" text-anchor="start" x="4" y="-142.5" font-family="Helvetica,sans-Serif" font-size="10.00">+</text>
<text xml:space="preserve" text-anchor="start" x="14" y="-142.5" font-family="Helvetica,sans-Serif" font-size="10.00">AFlockingManager()</text>
<text xml:space="preserve" text-anchor="start" x="4" y="-126.5" font-family="Helvetica,sans-Serif" font-size="10.00">+</text>
<text xml:space="preserve" text-anchor="start" x="14" y="-126.5" font-family="Helvetica,sans-Serif" font-size="10.00">void RegisterEnemy</text>
<text xml:space="preserve" text-anchor="start" x="14" y="-114.5" font-family="Helvetica,sans-Serif" font-size="10.00">(UEnemyFlockingComponent</text>
<text xml:space="preserve" text-anchor="start" x="14" y="-102.5" font-family="Helvetica,sans-Serif" font-size="10.00"> *Enemy)</text>
<text xml:space="preserve" text-anchor="start" x="4" y="-86.5" font-family="Helvetica,sans-Serif" font-size="10.00">+</text>
<text xml:space="preserve" text-anchor="start" x="14" y="-86.5" font-family="Helvetica,sans-Serif" font-size="10.00">void UnregisterEnemy</text>
<text xml:space="preserve" text-anchor="start" x="14" y="-74.5" font-family="Helvetica,sans-Serif" font-size="10.00">(UEnemyFlockingComponent</text>
<text xml:space="preserve" text-anchor="start" x="14" y="-62.5" font-family="Helvetica,sans-Serif" font-size="10.00"> *Enemy)</text>
<text xml:space="preserve" text-anchor="start" x="4.38" y="-46.5" font-family="Helvetica,sans-Serif" font-size="10.00">#</text>
<text xml:space="preserve" text-anchor="start" x="14" y="-46.5" font-family="Helvetica,sans-Serif" font-size="10.00">virtual void BeginPlay</text>
<text xml:space="preserve" text-anchor="start" x="14" y="-34.5" font-family="Helvetica,sans-Serif" font-size="10.00">() override</text>
<text xml:space="preserve" text-anchor="start" x="4.38" y="-18.5" font-family="Helvetica,sans-Serif" font-size="10.00">#</text>
<text xml:space="preserve" text-anchor="start" x="14" y="-18.5" font-family="Helvetica,sans-Serif" font-size="10.00">virtual void Tick(float</text>
<text xml:space="preserve" text-anchor="start" x="14" y="-6.5" font-family="Helvetica,sans-Serif" font-size="10.00"> DeltaTime) override</text>
<polygon fill="#666666" stroke="#666666" points="0,-186 0,-186 146.25,-186 146.25,-186 0,-186"/>
<polygon fill="#666666" stroke="#666666" points="0,-154 0,-154 12,-154 12,-154 0,-154"/>
<polygon fill="#666666" stroke="#666666" points="12,-154 12,-154 146.25,-154 146.25,-154 12,-154"/>
<polygon fill="none" stroke="#666666" points="0,0 0,-204 146.25,-204 146.25,0 0,0"/>
</a>
</g>
</g>
<!-- Node2 -->
<g id="Node000002" class="node">
<title>Node2</title>
<g id="a_Node000002"><a xlink:title=" ">
<polygon fill="white" stroke="none" points="92.12,-292 54.12,-292 54.12,-240 92.12,-240 92.12,-292"/>
<text xml:space="preserve" text-anchor="start" x="58.12" y="-278.5" font-family="Helvetica,sans-Serif" font-size="10.00">AActor</text>
<text xml:space="preserve" text-anchor="start" x="71.62" y="-262.5" font-family="Helvetica,sans-Serif" font-size="10.00"> </text>
<text xml:space="preserve" text-anchor="start" x="71.62" y="-246.5" font-family="Helvetica,sans-Serif" font-size="10.00"> </text>
<polygon fill="#666666" stroke="#666666" points="54.12,-274 54.12,-274 92.12,-274 92.12,-274 54.12,-274"/>
<polygon fill="#666666" stroke="#666666" points="54.12,-258 54.12,-258 92.12,-258 92.12,-258 54.12,-258"/>
<polygon fill="none" stroke="#666666" points="54.12,-240 54.12,-292 92.12,-292 92.12,-240 54.12,-240"/>
</a>
</g>
</g>
<!-- Node2&#45;&gt;Node1 -->
<g id="edge1_Node000001_Node000002" class="edge">
<title>Node2&#45;&gt;Node1</title>
<g id="a_edge1_Node000001_Node000002"><a xlink:title=" ">
<path fill="none" stroke="#63b8ff" d="M73.12,-228.75C73.12,-221.13 73.12,-212.73 73.12,-204"/>
<polygon fill="none" stroke="#63b8ff" points="69.63,-228.53 73.13,-238.53 76.63,-228.53 69.63,-228.53"/>
</a>
</g>
</g>
</g>
</svg>
