<?xml version="1.0" encoding="UTF-8" standalone="no"?>
<!DOCTYPE svg PUBLIC "-//W3C//DTD SVG 1.1//EN"
 "http://www.w3.org/Graphics/SVG/1.1/DTD/svg11.dtd">
<!-- Generated by graphviz version 13.1.1 (20250719.2154)
 -->
<!-- Title: UBaseSkillAbility::SpawnAndInitializeProjectile Pages: 1 -->
<svg width="1042pt" height="155pt"
 viewBox="0.00 0.00 1042.00 155.00" xmlns="http://www.w3.org/2000/svg" xmlns:xlink="http://www.w3.org/1999/xlink">
<g id="graph0" class="graph" transform="scale(1 1) rotate(0) translate(4 151)">
<title>UBaseSkillAbility::SpawnAndInitializeProjectile</title>
<!-- Node1 -->
<g id="Node000001" class="node">
<title>Node1</title>
<g id="a_Node000001"><a xlink:title=" ">
<polygon fill="#999999" stroke="#666666" points="139.75,-57 0,-57 0,-25 139.75,-25 139.75,-57"/>
<text xml:space="preserve" text-anchor="start" x="8" y="-43.5" font-family="Helvetica,sans-Serif" font-size="10.00">UBaseSkillAbility::</text>
<text xml:space="preserve" text-anchor="middle" x="69.88" y="-31.5" font-family="Helvetica,sans-Serif" font-size="10.00">SpawnAndInitializeProjectile</text>
</a>
</g>
</g>
<!-- Node2 -->
<g id="Node000002" class="node">
<title>Node2</title>
<g id="a_Node000002"><a xlink:href="class_a_projectile_base.html#ac67469fcdd8411a27a35b524a43f4d32" target="_top" xlink:title=" ">
<polygon fill="white" stroke="#666666" points="306.12,-82 178.38,-82 178.38,-50 306.12,-50 306.12,-82"/>
<text xml:space="preserve" text-anchor="start" x="186.38" y="-68.5" font-family="Helvetica,sans-Serif" font-size="10.00">AProjectileBase::Activate</text>
<text xml:space="preserve" text-anchor="middle" x="242.25" y="-56.5" font-family="Helvetica,sans-Serif" font-size="10.00">Projectile</text>
</a>
</g>
</g>
<!-- Node1&#45;&gt;Node2 -->
<g id="edge1_Node000001_Node000002" class="edge">
<title>Node1&#45;&gt;Node2</title>
<g id="a_edge1_Node000001_Node000002"><a xlink:title=" ">
<path fill="none" stroke="#63b8ff" d="M140.17,-51.17C148.98,-52.46 158.03,-53.79 166.91,-55.09"/>
<polygon fill="#63b8ff" stroke="#63b8ff" points="166.15,-58.52 176.55,-56.51 167.17,-51.59 166.15,-58.52"/>
</a>
</g>
</g>
<!-- Node8 -->
<g id="Node000008" class="node">
<title>Node8</title>
<g id="a_Node000008"><a xlink:href="class_u_projectile_pool_subsystem.html#ab3f6d4e27cfee8b6b1368e6809a94488" target="_top" xlink:title=" ">
<polygon fill="white" stroke="#666666" points="308.75,-32 175.75,-32 175.75,0 308.75,0 308.75,-32"/>
<text xml:space="preserve" text-anchor="start" x="183.75" y="-18.5" font-family="Helvetica,sans-Serif" font-size="10.00">UProjectilePoolSubsystem</text>
<text xml:space="preserve" text-anchor="middle" x="242.25" y="-6.5" font-family="Helvetica,sans-Serif" font-size="10.00">::RequestProjectile</text>
</a>
</g>
</g>
<!-- Node1&#45;&gt;Node8 -->
<g id="edge9_Node000001_Node000008" class="edge">
<title>Node1&#45;&gt;Node8</title>
<g id="a_edge9_Node000001_Node000008"><a xlink:title=" ">
<path fill="none" stroke="#63b8ff" d="M140.17,-30.83C148.06,-29.67 156.14,-28.49 164.12,-27.32"/>
<polygon fill="#63b8ff" stroke="#63b8ff" points="164.43,-30.81 173.82,-25.89 163.42,-23.88 164.43,-30.81"/>
</a>
</g>
</g>
<!-- Node3 -->
<g id="Node000003" class="node">
<title>Node3</title>
<g id="a_Node000003"><a xlink:href="class_a_projectile_base.html#af029d253170fd4537553bbdada80b4c1" target="_top" xlink:title=" ">
<polygon fill="white" stroke="#666666" points="490.12,-129 358.62,-129 358.62,-97 490.12,-97 490.12,-129"/>
<text xml:space="preserve" text-anchor="start" x="366.62" y="-115.5" font-family="Helvetica,sans-Serif" font-size="10.00">AProjectileBase::Multicast</text>
<text xml:space="preserve" text-anchor="middle" x="424.38" y="-103.5" font-family="Helvetica,sans-Serif" font-size="10.00">_Activate</text>
</a>
</g>
</g>
<!-- Node2&#45;&gt;Node3 -->
<g id="edge2_Node000002_Node000003" class="edge">
<title>Node2&#45;&gt;Node3</title>
<g id="a_edge2_Node000002_Node000003"><a xlink:title=" ">
<path fill="none" stroke="#63b8ff" d="M306.25,-82.44C320.23,-86.09 335.18,-89.99 349.56,-93.74"/>
<polygon fill="#63b8ff" stroke="#63b8ff" points="348.39,-97.05 358.95,-96.19 350.15,-90.28 348.39,-97.05"/>
</a>
</g>
</g>
<!-- Node4 -->
<g id="Node000004" class="node">
<title>Node4</title>
<g id="a_Node000004"><a xlink:href="class_a_projectile_base.html#a5469168d24245574326a686059bf6ca8" target="_top" xlink:title=" ">
<polygon fill="white" stroke="#666666" points="495.75,-79 353,-79 353,-47 495.75,-47 495.75,-79"/>
<text xml:space="preserve" text-anchor="start" x="361" y="-65.5" font-family="Helvetica,sans-Serif" font-size="10.00">AProjectileBase::OnLifeSpan</text>
<text xml:space="preserve" text-anchor="middle" x="424.38" y="-53.5" font-family="Helvetica,sans-Serif" font-size="10.00">Expired</text>
</a>
</g>
</g>
<!-- Node2&#45;&gt;Node4 -->
<g id="edge4_Node000002_Node000004" class="edge">
<title>Node2&#45;&gt;Node4</title>
<g id="a_edge4_Node000002_Node000004"><a xlink:title=" ">
<path fill="none" stroke="#63b8ff" d="M306.5,-64.95C317.79,-64.76 329.71,-64.56 341.43,-64.36"/>
<polygon fill="#63b8ff" stroke="#63b8ff" points="341.14,-67.87 351.08,-64.2 341.02,-60.87 341.14,-67.87"/>
</a>
</g>
</g>
<!-- Node3&#45;&gt;Node3 -->
<g id="edge3_Node000003_Node000003" class="edge">
<title>Node3&#45;&gt;Node3</title>
<g id="a_edge3_Node000003_Node000003"><a xlink:title=" ">
<path fill="none" stroke="#63b8ff" d="M391.86,-129.44C385.79,-138.58 396.63,-147 424.38,-147 439.55,-147 449.67,-144.48 454.73,-140.71"/>
<polygon fill="#63b8ff" stroke="#63b8ff" points="458.15,-141.41 456.6,-130.93 451.28,-140.09 458.15,-141.41"/>
</a>
</g>
</g>
<!-- Node5 -->
<g id="Node000005" class="node">
<title>Node5</title>
<g id="a_Node000005"><a xlink:href="class_a_projectile_base.html#a2276af661735f8971f6af66c6db7633d" target="_top" xlink:title=" ">
<polygon fill="white" stroke="#666666" points="691,-73 540,-73 540,-53 691,-53 691,-73"/>
<text xml:space="preserve" text-anchor="middle" x="615.5" y="-59.5" font-family="Helvetica,sans-Serif" font-size="10.00">AProjectileBase::ReturnToPool</text>
</a>
</g>
</g>
<!-- Node4&#45;&gt;Node5 -->
<g id="edge5_Node000004_Node000005" class="edge">
<title>Node4&#45;&gt;Node5</title>
<g id="a_edge5_Node000004_Node000005"><a xlink:title=" ">
<path fill="none" stroke="#63b8ff" d="M496.07,-63C506.66,-63 517.67,-63 528.54,-63"/>
<polygon fill="#63b8ff" stroke="#63b8ff" points="528.27,-66.5 538.27,-63 528.27,-59.5 528.27,-66.5"/>
</a>
</g>
</g>
<!-- Node6 -->
<g id="Node000006" class="node">
<title>Node6</title>
<g id="a_Node000006"><a xlink:href="class_a_projectile_base.html#a56f85c58a5c516ddd3e66fbb115eb20d" target="_top" xlink:title=" ">
<polygon fill="white" stroke="#666666" points="866,-79 727,-79 727,-47 866,-47 866,-79"/>
<text xml:space="preserve" text-anchor="start" x="735" y="-65.5" font-family="Helvetica,sans-Serif" font-size="10.00">AProjectileBase::Deactivate</text>
<text xml:space="preserve" text-anchor="middle" x="796.5" y="-53.5" font-family="Helvetica,sans-Serif" font-size="10.00">Projectile</text>
</a>
</g>
</g>
<!-- Node5&#45;&gt;Node6 -->
<g id="edge6_Node000005_Node000006" class="edge">
<title>Node5&#45;&gt;Node6</title>
<g id="a_edge6_Node000005_Node000006"><a xlink:title=" ">
<path fill="none" stroke="#63b8ff" d="M691.37,-63C699.23,-63 707.23,-63 715.15,-63"/>
<polygon fill="#63b8ff" stroke="#63b8ff" points="715.12,-66.5 725.12,-63 715.12,-59.5 715.12,-66.5"/>
</a>
</g>
</g>
<!-- Node7 -->
<g id="Node000007" class="node">
<title>Node7</title>
<g id="a_Node000007"><a xlink:href="class_a_projectile_base.html#a76b21edb2d7e6427f03a3be58488ef52" target="_top" xlink:title=" ">
<polygon fill="white" stroke="#666666" points="1033.5,-79 902,-79 902,-47 1033.5,-47 1033.5,-79"/>
<text xml:space="preserve" text-anchor="start" x="910" y="-65.5" font-family="Helvetica,sans-Serif" font-size="10.00">AProjectileBase::Multicast</text>
<text xml:space="preserve" text-anchor="middle" x="967.75" y="-53.5" font-family="Helvetica,sans-Serif" font-size="10.00">_Deactivate</text>
</a>
</g>
</g>
<!-- Node6&#45;&gt;Node7 -->
<g id="edge7_Node000006_Node000007" class="edge">
<title>Node6&#45;&gt;Node7</title>
<g id="a_edge7_Node000006_Node000007"><a xlink:title=" ">
<path fill="none" stroke="#63b8ff" d="M866.34,-63C874.15,-63 882.14,-63 890.05,-63"/>
<polygon fill="#63b8ff" stroke="#63b8ff" points="890.01,-66.5 900.01,-63 890.01,-59.5 890.01,-66.5"/>
</a>
</g>
</g>
<!-- Node7&#45;&gt;Node7 -->
<g id="edge8_Node000007_Node000007" class="edge">
<title>Node7&#45;&gt;Node7</title>
<g id="a_edge8_Node000007_Node000007"><a xlink:title=" ">
<path fill="none" stroke="#63b8ff" d="M937.18,-79.44C931.47,-88.58 941.66,-97 967.75,-97 982.02,-97 991.53,-94.48 996.29,-90.71"/>
<polygon fill="#63b8ff" stroke="#63b8ff" points="999.72,-91.4 998.05,-80.93 992.83,-90.15 999.72,-91.4"/>
</a>
</g>
</g>
<!-- Node9 -->
<g id="Node000009" class="node">
<title>Node9</title>
<g id="a_Node000009"><a xlink:href="class_a_projectile_base.html#aed98ae66bdee935c0599c6b220123111" target="_top" xlink:title=" ">
<polygon fill="white" stroke="#666666" points="504,-26 344.75,-26 344.75,-6 504,-6 504,-26"/>
<text xml:space="preserve" text-anchor="middle" x="424.38" y="-12.5" font-family="Helvetica,sans-Serif" font-size="10.00">AProjectileBase::SetOwningPool</text>
</a>
</g>
</g>
<!-- Node8&#45;&gt;Node9 -->
<g id="edge10_Node000008_Node000009" class="edge">
<title>Node8&#45;&gt;Node9</title>
<g id="a_edge10_Node000008_Node000009"><a xlink:title=" ">
<path fill="none" stroke="#63b8ff" d="M309.04,-16C316.83,-16 324.88,-16 332.93,-16"/>
<polygon fill="#63b8ff" stroke="#63b8ff" points="332.78,-19.5 342.78,-16 332.78,-12.5 332.78,-19.5"/>
</a>
</g>
</g>
</g>
</svg>
