<?xml version="1.0" encoding="UTF-8" standalone="no"?>
<!DOCTYPE svg PUBLIC "-//W3C//DTD SVG 1.1//EN"
 "http://www.w3.org/Graphics/SVG/1.1/DTD/svg11.dtd">
<!-- Generated by graphviz version 13.1.1 (20250719.2154)
 -->
<!-- Title: USessionManagerSubsystem::JoinSession Pages: 1 -->
<svg width="356pt" height="108pt"
 viewBox="0.00 0.00 356.00 108.00" xmlns="http://www.w3.org/2000/svg" xmlns:xlink="http://www.w3.org/1999/xlink">
<g id="graph0" class="graph" transform="scale(1 1) rotate(0) translate(4 104)">
<title>USessionManagerSubsystem::JoinSession</title>
<!-- Node1 -->
<g id="Node000001" class="node">
<title>Node1</title>
<g id="a_Node000001"><a xlink:title=" ">
<polygon fill="#999999" stroke="#666666" points="347.75,-66 202,-66 202,-34 347.75,-34 347.75,-66"/>
<text xml:space="preserve" text-anchor="start" x="210" y="-52.5" font-family="Helvetica,sans-Serif" font-size="10.00">USessionManagerSubsystem</text>
<text xml:space="preserve" text-anchor="middle" x="274.88" y="-40.5" font-family="Helvetica,sans-Serif" font-size="10.00">::JoinSession</text>
</a>
</g>
</g>
<!-- Node2 -->
<g id="Node000002" class="node">
<title>Node2</title>
<g id="a_Node000002"><a xlink:href="class_u_k_p_t_game_instance.html#a62ea4b50c620155f8a633c5bae834eaa" target="_top" xlink:title=" ">
<polygon fill="white" stroke="#666666" points="166,-100 0,-100 0,-68 166,-68 166,-100"/>
<text xml:space="preserve" text-anchor="start" x="8" y="-86.5" font-family="Helvetica,sans-Serif" font-size="10.00">UKPTGameInstance::JoinSession</text>
<text xml:space="preserve" text-anchor="middle" x="83" y="-74.5" font-family="Helvetica,sans-Serif" font-size="10.00">ByIndex</text>
</a>
</g>
</g>
<!-- Node1&#45;&gt;Node2 -->
<g id="edge1_Node000001_Node000002" class="edge">
<title>Node1&#45;&gt;Node2</title>
<g id="a_edge1_Node000001_Node000002"><a xlink:title=" ">
<path fill="none" stroke="#63b8ff" d="M190.35,-64.96C182.36,-66.39 174.26,-67.84 166.28,-69.27"/>
<polygon fill="#63b8ff" stroke="#63b8ff" points="190.83,-68.43 200.06,-63.22 189.6,-61.54 190.83,-68.43"/>
</a>
</g>
</g>
<!-- Node3 -->
<g id="Node000003" class="node">
<title>Node3</title>
<g id="a_Node000003"><a xlink:href="class_u_session_manager_subsystem.html#a1fd21ef6dd10342bfccc3db126ed5c4b" target="_top" xlink:title=" ">
<polygon fill="white" stroke="#666666" points="155.88,-32 10.12,-32 10.12,0 155.88,0 155.88,-32"/>
<text xml:space="preserve" text-anchor="start" x="18.12" y="-18.5" font-family="Helvetica,sans-Serif" font-size="10.00">USessionManagerSubsystem</text>
<text xml:space="preserve" text-anchor="middle" x="83" y="-6.5" font-family="Helvetica,sans-Serif" font-size="10.00">::KptCreateSession</text>
</a>
</g>
</g>
<!-- Node1&#45;&gt;Node3 -->
<g id="edge2_Node000001_Node000003" class="edge">
<title>Node1&#45;&gt;Node3</title>
<g id="a_edge2_Node000001_Node000003"><a xlink:title=" ">
<path fill="none" stroke="#63b8ff" d="M190.27,-35.03C178.88,-32.99 167.28,-30.91 156.12,-28.91"/>
<polygon fill="#63b8ff" stroke="#63b8ff" points="189.6,-38.46 200.06,-36.78 190.83,-31.57 189.6,-38.46"/>
</a>
</g>
</g>
<!-- Node3&#45;&gt;Node3 -->
<g id="edge3_Node000003_Node000003" class="edge">
<title>Node3&#45;&gt;Node3</title>
<g id="a_edge3_Node000003_Node000003"><a xlink:title=" ">
<path fill="none" stroke="#63b8ff" d="M114.98,-43.71C109.64,-47.48 98.99,-50 83,-50 53.77,-50 42.35,-41.58 48.74,-32.44"/>
<polygon fill="#63b8ff" stroke="#63b8ff" points="118.4,-44.42 116.95,-33.93 111.54,-43.03 118.4,-44.42"/>
</a>
</g>
</g>
</g>
</svg>
