<?xml version="1.0" encoding="UTF-8" standalone="no"?>
<!DOCTYPE svg PUBLIC "-//W3C//DTD SVG 1.1//EN"
 "http://www.w3.org/Graphics/SVG/1.1/DTD/svg11.dtd">
<!-- Generated by graphviz version 13.1.1 (20250719.2154)
 -->
<!-- Title: UButtonBase Pages: 1 -->
<svg width="171pt" height="708pt"
 viewBox="0.00 0.00 171.00 708.00" xmlns="http://www.w3.org/2000/svg" xmlns:xlink="http://www.w3.org/1999/xlink">
<g id="graph0" class="graph" transform="scale(1 1) rotate(0) translate(4 704)">
<title>UButtonBase</title>
<!-- Node1 -->
<g id="Node000001" class="node">
<title>Node1</title>
<g id="a_Node000001"><a xlink:title=" ">
<polygon fill="#999999" stroke="none" points="158.62,-400 4.12,-400 4.12,0 158.62,0 158.62,-400"/>
<text xml:space="preserve" text-anchor="start" x="52.12" y="-386.5" font-family="Helvetica,sans-Serif" font-size="10.00">UButtonBase</text>
<text xml:space="preserve" text-anchor="start" x="8.12" y="-370.5" font-family="Helvetica,sans-Serif" font-size="10.00">+</text>
<text xml:space="preserve" text-anchor="start" x="18.12" y="-370.5" font-family="Helvetica,sans-Serif" font-size="10.00">FOnButtonClickedDelegate</text>
<text xml:space="preserve" text-anchor="start" x="18.12" y="-358.5" font-family="Helvetica,sans-Serif" font-size="10.00"> OnClicked</text>
<text xml:space="preserve" text-anchor="start" x="8.12" y="-342.5" font-family="Helvetica,sans-Serif" font-size="10.00">+</text>
<text xml:space="preserve" text-anchor="start" x="18.12" y="-342.5" font-family="Helvetica,sans-Serif" font-size="10.00">FOnButtonHoveredDelegate</text>
<text xml:space="preserve" text-anchor="start" x="18.12" y="-330.5" font-family="Helvetica,sans-Serif" font-size="10.00"> OnHovered</text>
<text xml:space="preserve" text-anchor="start" x="8.12" y="-314.5" font-family="Helvetica,sans-Serif" font-size="10.00">+</text>
<text xml:space="preserve" text-anchor="start" x="18.12" y="-314.5" font-family="Helvetica,sans-Serif" font-size="10.00">FOnButtonPressedDelegate</text>
<text xml:space="preserve" text-anchor="start" x="18.12" y="-302.5" font-family="Helvetica,sans-Serif" font-size="10.00"> OnPressed</text>
<text xml:space="preserve" text-anchor="start" x="8.12" y="-286.5" font-family="Helvetica,sans-Serif" font-size="10.00">+</text>
<text xml:space="preserve" text-anchor="start" x="18.12" y="-286.5" font-family="Helvetica,sans-Serif" font-size="10.00">FOnButtonReleasedDelegate</text>
<text xml:space="preserve" text-anchor="start" x="18.12" y="-274.5" font-family="Helvetica,sans-Serif" font-size="10.00"> OnReleased</text>
<text xml:space="preserve" text-anchor="start" x="8.12" y="-258.5" font-family="Helvetica,sans-Serif" font-size="10.00">+</text>
<text xml:space="preserve" text-anchor="start" x="18.12" y="-258.5" font-family="Helvetica,sans-Serif" font-size="10.00">FOnButtonUnhoveredDelegate</text>
<text xml:space="preserve" text-anchor="start" x="18.12" y="-246.5" font-family="Helvetica,sans-Serif" font-size="10.00"> OnUnhovered</text>
<text xml:space="preserve" text-anchor="start" x="8.5" y="-230.5" font-family="Helvetica,sans-Serif" font-size="10.00">#</text>
<text xml:space="preserve" text-anchor="start" x="18.12" y="-230.5" font-family="Helvetica,sans-Serif" font-size="10.00">FSlateBrush HoveredBrush</text>
<text xml:space="preserve" text-anchor="start" x="8.5" y="-214.5" font-family="Helvetica,sans-Serif" font-size="10.00">#</text>
<text xml:space="preserve" text-anchor="start" x="18.12" y="-214.5" font-family="Helvetica,sans-Serif" font-size="10.00">UButton * MainButton</text>
<text xml:space="preserve" text-anchor="start" x="8.5" y="-198.5" font-family="Helvetica,sans-Serif" font-size="10.00">#</text>
<text xml:space="preserve" text-anchor="start" x="18.12" y="-198.5" font-family="Helvetica,sans-Serif" font-size="10.00">UImage * MainImage</text>
<text xml:space="preserve" text-anchor="start" x="8.5" y="-182.5" font-family="Helvetica,sans-Serif" font-size="10.00">#</text>
<text xml:space="preserve" text-anchor="start" x="18.12" y="-182.5" font-family="Helvetica,sans-Serif" font-size="10.00">UTextBlock * MainText</text>
<text xml:space="preserve" text-anchor="start" x="8.5" y="-166.5" font-family="Helvetica,sans-Serif" font-size="10.00">#</text>
<text xml:space="preserve" text-anchor="start" x="18.12" y="-166.5" font-family="Helvetica,sans-Serif" font-size="10.00">FSlateBrush NormalBrush</text>
<text xml:space="preserve" text-anchor="start" x="8.5" y="-150.5" font-family="Helvetica,sans-Serif" font-size="10.00">#</text>
<text xml:space="preserve" text-anchor="start" x="18.12" y="-150.5" font-family="Helvetica,sans-Serif" font-size="10.00">FSlateBrush PressedBrush</text>
<text xml:space="preserve" text-anchor="start" x="8.5" y="-134.5" font-family="Helvetica,sans-Serif" font-size="10.00">#</text>
<text xml:space="preserve" text-anchor="start" x="18.12" y="-134.5" font-family="Helvetica,sans-Serif" font-size="10.00">FMargin PressedPadding</text>
<text xml:space="preserve" text-anchor="start" x="8.12" y="-118.5" font-family="Helvetica,sans-Serif" font-size="10.00">+</text>
<text xml:space="preserve" text-anchor="start" x="18.12" y="-118.5" font-family="Helvetica,sans-Serif" font-size="10.00">FText GetMainText()</text>
<text xml:space="preserve" text-anchor="start" x="8.12" y="-102.5" font-family="Helvetica,sans-Serif" font-size="10.00">+</text>
<text xml:space="preserve" text-anchor="start" x="18.12" y="-102.5" font-family="Helvetica,sans-Serif" font-size="10.00">void SetMainText(FText</text>
<text xml:space="preserve" text-anchor="start" x="18.12" y="-90.5" font-family="Helvetica,sans-Serif" font-size="10.00"> Text)</text>
<text xml:space="preserve" text-anchor="start" x="8.5" y="-74.5" font-family="Helvetica,sans-Serif" font-size="10.00">#</text>
<text xml:space="preserve" text-anchor="start" x="18.12" y="-74.5" font-family="Helvetica,sans-Serif" font-size="10.00">virtual void NativeConstruct</text>
<text xml:space="preserve" text-anchor="start" x="18.12" y="-62.5" font-family="Helvetica,sans-Serif" font-size="10.00">() override</text>
<text xml:space="preserve" text-anchor="start" x="8.5" y="-46.5" font-family="Helvetica,sans-Serif" font-size="10.00">#</text>
<text xml:space="preserve" text-anchor="start" x="18.12" y="-46.5" font-family="Helvetica,sans-Serif" font-size="10.00">virtual void NativeDestruct</text>
<text xml:space="preserve" text-anchor="start" x="18.12" y="-34.5" font-family="Helvetica,sans-Serif" font-size="10.00">() override</text>
<text xml:space="preserve" text-anchor="start" x="8.5" y="-18.5" font-family="Helvetica,sans-Serif" font-size="10.00">#</text>
<text xml:space="preserve" text-anchor="start" x="18.12" y="-18.5" font-family="Helvetica,sans-Serif" font-size="10.00">virtual void NativePreConstruct</text>
<text xml:space="preserve" text-anchor="start" x="18.12" y="-6.5" font-family="Helvetica,sans-Serif" font-size="10.00">() override</text>
<polygon fill="#666666" stroke="#666666" points="4.12,-382 4.12,-382 158.62,-382 158.62,-382 4.12,-382"/>
<polygon fill="#666666" stroke="#666666" points="4.12,-130 4.12,-130 16.12,-130 16.12,-130 4.12,-130"/>
<polygon fill="#666666" stroke="#666666" points="16.12,-130 16.12,-130 158.62,-130 158.62,-130 16.12,-130"/>
<polygon fill="none" stroke="#666666" points="4.12,0 4.12,-400 158.62,-400 158.62,0 4.12,0"/>
</a>
</g>
</g>
<!-- Node2 -->
<g id="Node000002" class="node">
<title>Node2</title>
<g id="a_Node000002"><a xlink:href="class_u_u_i_base.html" target="_top" xlink:title=" ">
<polygon fill="white" stroke="none" points="162.75,-612 0,-612 0,-436 162.75,-436 162.75,-612"/>
<text xml:space="preserve" text-anchor="start" x="61.12" y="-598.5" font-family="Helvetica,sans-Serif" font-size="10.00">UUIBase</text>
<text xml:space="preserve" text-anchor="start" x="4.38" y="-582.5" font-family="Helvetica,sans-Serif" font-size="10.00">#</text>
<text xml:space="preserve" text-anchor="start" x="14" y="-582.5" font-family="Helvetica,sans-Serif" font-size="10.00">FWidgetAnimationDynamicEvent</text>
<text xml:space="preserve" text-anchor="start" x="14" y="-570.5" font-family="Helvetica,sans-Serif" font-size="10.00"> AnimationFinishEvent</text>
<text xml:space="preserve" text-anchor="start" x="4" y="-554.5" font-family="Helvetica,sans-Serif" font-size="10.00">+</text>
<text xml:space="preserve" text-anchor="start" x="14" y="-554.5" font-family="Helvetica,sans-Serif" font-size="10.00">UUIManagerSubsystem</text>
<text xml:space="preserve" text-anchor="start" x="14" y="-542.5" font-family="Helvetica,sans-Serif" font-size="10.00"> * GetUIManagerSubsystem()</text>
<text xml:space="preserve" text-anchor="start" x="4" y="-526.5" font-family="Helvetica,sans-Serif" font-size="10.00">+</text>
<text xml:space="preserve" text-anchor="start" x="14" y="-526.5" font-family="Helvetica,sans-Serif" font-size="10.00">virtual void LateInit()</text>
<text xml:space="preserve" text-anchor="start" x="4.38" y="-510.5" font-family="Helvetica,sans-Serif" font-size="10.00">#</text>
<text xml:space="preserve" text-anchor="start" x="14" y="-510.5" font-family="Helvetica,sans-Serif" font-size="10.00">virtual void NativeConstruct</text>
<text xml:space="preserve" text-anchor="start" x="14" y="-498.5" font-family="Helvetica,sans-Serif" font-size="10.00">() override</text>
<text xml:space="preserve" text-anchor="start" x="4.38" y="-482.5" font-family="Helvetica,sans-Serif" font-size="10.00">#</text>
<text xml:space="preserve" text-anchor="start" x="14" y="-482.5" font-family="Helvetica,sans-Serif" font-size="10.00">virtual void NativeDestruct</text>
<text xml:space="preserve" text-anchor="start" x="14" y="-470.5" font-family="Helvetica,sans-Serif" font-size="10.00">() override</text>
<text xml:space="preserve" text-anchor="start" x="4.38" y="-454.5" font-family="Helvetica,sans-Serif" font-size="10.00">#</text>
<text xml:space="preserve" text-anchor="start" x="14" y="-454.5" font-family="Helvetica,sans-Serif" font-size="10.00">virtual void NativePreConstruct</text>
<text xml:space="preserve" text-anchor="start" x="14" y="-442.5" font-family="Helvetica,sans-Serif" font-size="10.00">() override</text>
<polygon fill="#666666" stroke="#666666" points="0,-594 0,-594 162.75,-594 162.75,-594 0,-594"/>
<polygon fill="#666666" stroke="#666666" points="0,-566 0,-566 12,-566 12,-566 0,-566"/>
<polygon fill="#666666" stroke="#666666" points="12,-566 12,-566 162.75,-566 162.75,-566 12,-566"/>
<polygon fill="none" stroke="#666666" points="0,-436 0,-612 162.75,-612 162.75,-436 0,-436"/>
</a>
</g>
</g>
<!-- Node2&#45;&gt;Node1 -->
<g id="edge1_Node000001_Node000002" class="edge">
<title>Node2&#45;&gt;Node1</title>
<g id="a_edge1_Node000001_Node000002"><a xlink:title=" ">
<path fill="none" stroke="#63b8ff" d="M81.38,-424.91C81.38,-416.73 81.38,-408.29 81.38,-399.7"/>
<polygon fill="none" stroke="#63b8ff" points="77.88,-424.77 81.38,-434.77 84.88,-424.77 77.88,-424.77"/>
</a>
</g>
</g>
<!-- Node3 -->
<g id="Node000003" class="node">
<title>Node3</title>
<g id="a_Node000003"><a xlink:title=" ">
<polygon fill="white" stroke="none" points="115,-700 47.75,-700 47.75,-648 115,-648 115,-700"/>
<text xml:space="preserve" text-anchor="start" x="51.75" y="-686.5" font-family="Helvetica,sans-Serif" font-size="10.00">UUserWidget</text>
<text xml:space="preserve" text-anchor="start" x="79.88" y="-670.5" font-family="Helvetica,sans-Serif" font-size="10.00"> </text>
<text xml:space="preserve" text-anchor="start" x="79.88" y="-654.5" font-family="Helvetica,sans-Serif" font-size="10.00"> </text>
<polygon fill="#666666" stroke="#666666" points="47.75,-682 47.75,-682 115,-682 115,-682 47.75,-682"/>
<polygon fill="#666666" stroke="#666666" points="47.75,-666 47.75,-666 115,-666 115,-666 47.75,-666"/>
<polygon fill="none" stroke="#666666" points="47.75,-648 47.75,-700 115,-700 115,-648 47.75,-648"/>
</a>
</g>
</g>
<!-- Node3&#45;&gt;Node2 -->
<g id="edge2_Node000002_Node000003" class="edge">
<title>Node3&#45;&gt;Node2</title>
<g id="a_edge2_Node000002_Node000003"><a xlink:title=" ">
<path fill="none" stroke="#63b8ff" d="M81.38,-636.77C81.38,-629.04 81.38,-620.56 81.38,-611.83"/>
<polygon fill="none" stroke="#63b8ff" points="77.88,-636.71 81.38,-646.71 84.88,-636.71 77.88,-636.71"/>
</a>
</g>
</g>
</g>
</svg>
