<?xml version="1.0" encoding="UTF-8" standalone="no"?>
<!DOCTYPE svg PUBLIC "-//W3C//DTD SVG 1.1//EN"
 "http://www.w3.org/Graphics/SVG/1.1/DTD/svg11.dtd">
<!-- Generated by graphviz version 13.1.1 (20250719.2154)
 -->
<!-- Title: UKPTPlayerAttributeSet::ATTRIBUTE_ACCESSORS Pages: 1 -->
<!--zoomable 141 -->

<svg id="main" version="1.1" xmlns="http://www.w3.org/2000/svg" xmlns:xlink="http://www.w3.org/1999/xlink" xml:space="preserve" onload="init(evt)">

<style type="text/css"><![CDATA[
.node, .edge {opacity: 0.7;}
.node.selected, .edge.selected {opacity: 1;}
.edge:hover path { stroke: red; }
.edge:hover polygon { stroke: red; fill: red; }
]]></style>

<defs>
  <circle id="rim" cx="0" cy="0" r="7"/>
  <circle id="rim2" cx="0" cy="0" r="3.5"/>
  <g id="zoomPlus">
    <use xlink:href="#rim" fill="#404040"><set attributeName="fill" to="#808080" begin="zoomplus.mouseover" end="zoomplus.mouseout"/></use>
    <path d="M-4,0h8M0,-4v8" fill="none" stroke="white" stroke-width="1.5" pointer-events="none"/>
  </g>
  <g id="zoomMin">
    <use xlink:href="#rim" fill="#404040"><set attributeName="fill" to="#808080" begin="zoomminus.mouseover" end="zoomminus.mouseout"/></use>
    <path d="M-4,0h8" fill="none" stroke="white" stroke-width="1.5" pointer-events="none"/>
  </g>
  <g id="arrowUp" transform="translate(30 24)">
    <use xlink:href="#rim"/>
    <path pointer-events="none" fill="none" stroke="white" stroke-width="1.5" d="M0,-3.0v7 M-2.5,-0.5L0,-3.0L2.5,-0.5"/>
  </g>
  <g id="arrowRight" transform="rotate(90) translate(36 -43)">
    <use xlink:href="#rim"/>
    <path pointer-events="none" fill="none" stroke="white" stroke-width="1.5" d="M0,-3.0v7 M-2.5,-0.5L0,-3.0L2.5,-0.5"/>
  </g>
  <g id="arrowDown" transform="rotate(180) translate(-30 -48)">
    <use xlink:href="#rim"/>
    <path pointer-events="none" fill="none" stroke="white" stroke-width="1.5" d="M0,-3.0v7 M-2.5,-0.5L0,-3.0L2.5,-0.5"/>
  </g>
  <g id="arrowLeft" transform="rotate(270) translate(-36 17)">
    <use xlink:href="#rim"/>
    <path pointer-events="none" fill="none" stroke="white" stroke-width="1.5" d="M0,-3.0v7 M-2.5,-0.5L0,-3.0L2.5,-0.5"/>
  </g>
  <g id="resetDef">
    <use xlink:href="#rim2" fill="#404040"><set attributeName="fill" to="#808080" begin="reset.mouseover" end="reset.mouseout"/></use>
  </g>
</defs>
<script type="application/ecmascript">
var viewWidth = 660;
var viewHeight = 141;
var sectionId = 'dynsection-6';
</script>
<script type="application/ecmascript" xlink:href="svg.min.js"/>
<svg id="graph" class="graph">
<g id="viewport">
<title>UKPTPlayerAttributeSet::ATTRIBUTE_ACCESSORS</title>
<!-- Node1 -->
<g id="Node000001" class="node">
<title>Node1</title>
<g id="a_Node000001"><a xlink:title=" ">
<polygon fill="#999999" stroke="#666666" points="146.5,-96 0,-96 0,-64 146.5,-64 146.5,-96"/>
<text xml:space="preserve" text-anchor="start" x="8" y="-82.5" font-family="Helvetica,sans-Serif" font-size="10.00">UKPTPlayerAttributeSet</text>
<text xml:space="preserve" text-anchor="middle" x="73.25" y="-70.5" font-family="Helvetica,sans-Serif" font-size="10.00">::ATTRIBUTE_ACCESSORS</text>
</a>
</g>
</g>
<!-- Node2 -->
<g id="Node000002" class="node">
<title>Node2</title>
<g id="a_Node000002"><a xlink:href="class_u_k_p_t_player_attribute_set.html#af399f8750813c91d7257190317812519" target="_top" xlink:title=" ">
<polygon fill="white" stroke="#666666" points="652,-104 523.5,-104 523.5,-72 652,-72 652,-104"/>
<text xml:space="preserve" text-anchor="start" x="531.5" y="-90.5" font-family="Helvetica,sans-Serif" font-size="10.00">UKPTPlayerAttributeSet</text>
<text xml:space="preserve" text-anchor="middle" x="587.75" y="-78.5" font-family="Helvetica,sans-Serif" font-size="10.00">::UKPTPlayerAttributeSet</text>
</a>
</g>
</g>
<!-- Node1&#45;&gt;Node2 -->
<g id="edge1_Node000001_Node000002" class="edge">
<title>Node1&#45;&gt;Node2</title>
<g id="a_edge1_Node000001_Node000002"><a xlink:title=" ">
<path fill="none" stroke="#63b8ff" d="M105.97,-96.3C127.05,-106.19 155.69,-117.87 182.5,-123 296.16,-144.75 430.41,-124.17 512.02,-106.64"/>
<polygon fill="#63b8ff" stroke="#63b8ff" points="512.68,-110.07 521.7,-104.51 511.18,-103.24 512.68,-110.07"/>
</a>
</g>
</g>
<!-- Node3 -->
<g id="Node000003" class="node">
<title>Node3</title>
<g id="a_Node000003"><a xlink:href="class_u_k_p_t_player_attribute_set.html#aa4a7eb9b5df34c17e1cc753ae89d5e43" target="_top" xlink:title=" ">
<polygon fill="white" stroke="#666666" points="329,-96 182.5,-96 182.5,-64 329,-64 329,-96"/>
<text xml:space="preserve" text-anchor="start" x="190.5" y="-82.5" font-family="Helvetica,sans-Serif" font-size="10.00">UKPTPlayerAttributeSet</text>
<text xml:space="preserve" text-anchor="middle" x="255.75" y="-70.5" font-family="Helvetica,sans-Serif" font-size="10.00">::ATTRIBUTE_ACCESSORS</text>
</a>
</g>
</g>
<!-- Node1&#45;&gt;Node3 -->
<g id="edge2_Node000001_Node000003" class="edge">
<title>Node1&#45;&gt;Node3</title>
<g id="a_edge2_Node000001_Node000003"><a xlink:title=" ">
<path fill="none" stroke="#63b8ff" d="M146.89,-80C154.81,-80 162.92,-80 170.96,-80"/>
<polygon fill="#63b8ff" stroke="#63b8ff" points="170.75,-83.5 180.75,-80 170.75,-76.5 170.75,-83.5"/>
</a>
</g>
</g>
<!-- Node5 -->
<g id="Node000005" class="node">
<title>Node5</title>
<g id="a_Node000005"><a xlink:href="class_u_k_p_t_player_attribute_set.html#a21c37aff30a90baa8f3d22f5cebfc5b7" target="_top" xlink:title=" ">
<polygon fill="white" stroke="#666666" points="487.5,-32 365,-32 365,0 487.5,0 487.5,-32"/>
<text xml:space="preserve" text-anchor="start" x="373" y="-18.5" font-family="Helvetica,sans-Serif" font-size="10.00">UKPTPlayerAttributeSet</text>
<text xml:space="preserve" text-anchor="middle" x="426.25" y="-6.5" font-family="Helvetica,sans-Serif" font-size="10.00">::OnRep_CriticalChance</text>
</a>
</g>
</g>
<!-- Node1&#45;&gt;Node5 -->
<g id="edge7_Node000001_Node000005" class="edge">
<title>Node1&#45;&gt;Node5</title>
<g id="a_edge7_Node000001_Node000005"><a xlink:title=" ">
<path fill="none" stroke="#63b8ff" d="M142.24,-63.56C155.55,-60.55 169.44,-57.55 182.5,-55 239.7,-43.81 304.95,-33.46 353.38,-26.24"/>
<polygon fill="#63b8ff" stroke="#63b8ff" points="353.82,-29.72 363.2,-24.79 352.79,-22.79 353.82,-29.72"/>
</a>
</g>
</g>
<!-- Node3&#45;&gt;Node2 -->
<g id="edge3_Node000003_Node000002" class="edge">
<title>Node3&#45;&gt;Node2</title>
<g id="a_edge3_Node000003_Node000002"><a xlink:title=" ">
<path fill="none" stroke="#63b8ff" d="M329.46,-88.41C341.32,-89.49 353.49,-90.42 365,-91 419.37,-93.76 433.06,-91.82 487.5,-91 495.35,-90.88 503.55,-90.71 511.72,-90.51"/>
<polygon fill="#63b8ff" stroke="#63b8ff" points="511.8,-94.01 521.71,-90.25 511.62,-87.01 511.8,-94.01"/>
</a>
</g>
</g>
<!-- Node3&#45;&gt;Node3 -->
<g id="edge4_Node000003_Node000003" class="edge">
<title>Node3&#45;&gt;Node3</title>
<g id="a_edge4_Node000003_Node000003"><a xlink:title=" ">
<path fill="none" stroke="#63b8ff" d="M225.31,-96.44C219.63,-105.58 229.78,-114 255.75,-114 269.95,-114 279.43,-111.48 284.16,-107.71"/>
<polygon fill="#63b8ff" stroke="#63b8ff" points="287.6,-108.39 285.92,-97.93 280.71,-107.15 287.6,-108.39"/>
</a>
</g>
</g>
<!-- Node4 -->
<g id="Node000004" class="node">
<title>Node4</title>
<g id="a_Node000004"><a xlink:href="class_u_k_p_t_player_attribute_set.html#af9342b340a141c31bf2eb00e34005551" target="_top" xlink:title=" ">
<polygon fill="white" stroke="#666666" points="487.5,-82 365,-82 365,-50 487.5,-50 487.5,-82"/>
<text xml:space="preserve" text-anchor="start" x="373" y="-68.5" font-family="Helvetica,sans-Serif" font-size="10.00">UKPTPlayerAttributeSet</text>
<text xml:space="preserve" text-anchor="middle" x="426.25" y="-56.5" font-family="Helvetica,sans-Serif" font-size="10.00">::OnRep_Luck</text>
</a>
</g>
</g>
<!-- Node3&#45;&gt;Node4 -->
<g id="edge5_Node000003_Node000004" class="edge">
<title>Node3&#45;&gt;Node4</title>
<g id="a_edge5_Node000003_Node000004"><a xlink:title=" ">
<path fill="none" stroke="#63b8ff" d="M329.19,-73.98C337.1,-73.32 345.15,-72.66 353.06,-72"/>
<polygon fill="#63b8ff" stroke="#63b8ff" points="353.32,-75.49 363,-71.17 352.74,-68.51 353.32,-75.49"/>
</a>
</g>
</g>
<!-- Node4&#45;&gt;Node2 -->
<g id="edge6_Node000004_Node000002" class="edge">
<title>Node4&#45;&gt;Node2</title>
<g id="a_edge6_Node000004_Node000002"><a xlink:title=" ">
<path fill="none" stroke="#63b8ff" d="M487.55,-74.32C495.46,-75.41 503.65,-76.54 511.77,-77.66"/>
<polygon fill="#63b8ff" stroke="#63b8ff" points="511.29,-81.12 521.67,-79.02 512.25,-74.19 511.29,-81.12"/>
</a>
</g>
</g>
<!-- Node5&#45;&gt;Node2 -->
<g id="edge8_Node000005_Node000002" class="edge">
<title>Node5&#45;&gt;Node2</title>
<g id="a_edge8_Node000005_Node000002"><a xlink:title=" ">
<path fill="none" stroke="#63b8ff" d="M467.55,-32.4C474.24,-35.22 481.08,-38.15 487.5,-41 505.83,-49.14 525.85,-58.52 543.08,-66.75"/>
<polygon fill="#63b8ff" stroke="#63b8ff" points="541.51,-69.88 552.04,-71.05 544.54,-63.57 541.51,-69.88"/>
</a>
</g>
</g>
</g>
</svg>

<g id="navigator" transform="translate(0 0)" fill="#404254">
  <rect fill="#f2f5e9" fill-opacity="0.5" stroke="#606060" stroke-width=".5" x="0" y="0" width="60" height="60"/>
  <use id="zoomplus" xlink:href="#zoomPlus" x="17" y="9" onmousedown="handleZoom(evt,'in')"/>
  <use id="zoomminus" xlink:href="#zoomMin" x="42" y="9" onmousedown="handleZoom(evt,'out')"/>
  <use id="reset" xlink:href="#resetDef" x="30" y="36" onmousedown="handleReset()"/>
   <use id="arrowup" xlink:href="#arrowUp" x="0" y="0" onmousedown="handlePan(0,-1)"/>
  <use id="arrowright" xlink:href="#arrowRight" x="0" y="0" onmousedown="handlePan(1,0)"/>
  <use id="arrowdown" xlink:href="#arrowDown" x="0" y="0" onmousedown="handlePan(0,1)"/>
  <use id="arrowleft" xlink:href="#arrowLeft" x="0" y="0" onmousedown="handlePan(-1,0)"/>
</g>
<svg viewBox="0 0 15 15" width="100%" height="30px" preserveAspectRatio="xMaxYMin meet">
 <g id="arrow_out" transform="scale(0.3 0.3)">
  <a xlink:href="class_u_k_p_t_player_attribute_set_a54a39af55450b3d8d28f9f7369c5bf61_cgraph_org.svg" target="_base">
   <rect id="button" ry="5" rx="5" y="6" x="6" height="38" width="38"
        fill="#f2f5e9" fill-opacity="0.5" stroke="#606060" stroke-width="1.0"/>
   <path id="arrow"
     d="M 11.500037,31.436501 C 11.940474,20.09759 22.043105,11.32322 32.158766,21.979434 L 37.068811,17.246167 C 37.068811,17.246167 37.088388,32 37.088388,32 L 22.160133,31.978069 C 22.160133,31.978069 26.997745,27.140456 26.997745,27.140456 C 18.528582,18.264221 13.291696,25.230495 11.500037,31.436501 z"
     style="fill:#404040;"/>
  </a>
 </g>
</svg>

<style type='text/css'>
<![CDATA[
[data-mouse-over-selected='false'] { opacity: 0.7; }
[data-mouse-over-selected='true']  { opacity: 1.0; }
]]>
</style>
<script type="application/ecmascript"><![CDATA[
document.addEventListener('DOMContentLoaded', (event) => {
  highlightEdges();
  highlightAdjacentNodes();
});
]]></script>
</svg>
