<?xml version="1.0" encoding="UTF-8" standalone="no"?>
<!DOCTYPE svg PUBLIC "-//W3C//DTD SVG 1.1//EN"
 "http://www.w3.org/Graphics/SVG/1.1/DTD/svg11.dtd">
<!-- Generated by graphviz version 13.1.1 (20250719.2154)
 -->
<!-- Title: UShopUI::HandleClickedClose Pages: 1 -->
<svg width="708pt" height="128pt"
 viewBox="0.00 0.00 708.00 128.00" xmlns="http://www.w3.org/2000/svg" xmlns:xlink="http://www.w3.org/1999/xlink">
<g id="graph0" class="graph" transform="scale(1 1) rotate(0) translate(4 124)">
<title>UShopUI::HandleClickedClose</title>
<!-- Node1 -->
<g id="Node000001" class="node">
<title>Node1</title>
<g id="a_Node000001"><a xlink:title=" ">
<polygon fill="#999999" stroke="#666666" points="151.75,-70 0,-70 0,-50 151.75,-50 151.75,-70"/>
<text xml:space="preserve" text-anchor="middle" x="75.88" y="-56.5" font-family="Helvetica,sans-Serif" font-size="10.00">UShopUI::HandleClickedClose</text>
</a>
</g>
</g>
<!-- Node2 -->
<g id="Node000002" class="node">
<title>Node2</title>
<g id="a_Node000002"><a xlink:href="class_u_u_i_manager_subsystem.html#aed4b9c08eec4848386a3a89108827ffd" target="_top" xlink:title=" ">
<polygon fill="white" stroke="#666666" points="353,-120 198.25,-120 198.25,-88 353,-88 353,-120"/>
<text xml:space="preserve" text-anchor="start" x="206.25" y="-106.5" font-family="Helvetica,sans-Serif" font-size="10.00">UUIManagerSubsystem</text>
<text xml:space="preserve" text-anchor="middle" x="275.62" y="-94.5" font-family="Helvetica,sans-Serif" font-size="10.00">::GetSingletonWidgetInstanceId</text>
</a>
</g>
</g>
<!-- Node1&#45;&gt;Node2 -->
<g id="edge1_Node000001_Node000002" class="edge">
<title>Node1&#45;&gt;Node2</title>
<g id="a_edge1_Node000001_Node000002"><a xlink:title=" ">
<path fill="none" stroke="#63b8ff" d="M123.99,-70.48C143.72,-74.87 167.29,-80.12 189.85,-85.14"/>
<polygon fill="#63b8ff" stroke="#63b8ff" points="188.83,-88.49 199.35,-87.25 190.35,-81.66 188.83,-88.49"/>
</a>
</g>
</g>
<!-- Node3 -->
<g id="Node000003" class="node">
<title>Node3</title>
<g id="a_Node000003"><a xlink:href="class_u_u_i_base.html#a7db928b8721c8dede4954eed8695c0e4" target="_top" xlink:title=" ">
<polygon fill="white" stroke="#666666" points="363.5,-70 187.75,-70 187.75,-50 363.5,-50 363.5,-70"/>
<text xml:space="preserve" text-anchor="middle" x="275.62" y="-56.5" font-family="Helvetica,sans-Serif" font-size="10.00">UUIBase::GetUIManagerSubsystem</text>
</a>
</g>
</g>
<!-- Node1&#45;&gt;Node3 -->
<g id="edge2_Node000001_Node000003" class="edge">
<title>Node1&#45;&gt;Node3</title>
<g id="a_edge2_Node000001_Node000003"><a xlink:title=" ">
<path fill="none" stroke="#63b8ff" d="M152.2,-60C159.99,-60 167.99,-60 175.98,-60"/>
<polygon fill="#63b8ff" stroke="#63b8ff" points="175.75,-63.5 185.75,-60 175.75,-56.5 175.75,-63.5"/>
</a>
</g>
</g>
<!-- Node4 -->
<g id="Node000004" class="node">
<title>Node4</title>
<g id="a_Node000004"><a xlink:href="class_u_u_i_manager_subsystem.html#a1e0415f5fab1f4658e1aee52f1ee1a0b" target="_top" xlink:title="지정된 인스턴스 ID의 위젯을 화면에서 숨깁니다.">
<polygon fill="white" stroke="#666666" points="336.12,-32 215.12,-32 215.12,0 336.12,0 336.12,-32"/>
<text xml:space="preserve" text-anchor="start" x="223.12" y="-18.5" font-family="Helvetica,sans-Serif" font-size="10.00">UUIManagerSubsystem</text>
<text xml:space="preserve" text-anchor="middle" x="275.62" y="-6.5" font-family="Helvetica,sans-Serif" font-size="10.00">::HideWidget</text>
</a>
</g>
</g>
<!-- Node1&#45;&gt;Node4 -->
<g id="edge3_Node000001_Node000004" class="edge">
<title>Node1&#45;&gt;Node4</title>
<g id="a_edge3_Node000001_Node000004"><a xlink:title=" ">
<path fill="none" stroke="#63b8ff" d="M123.99,-49.52C147.78,-44.22 177.14,-37.69 203.6,-31.8"/>
<polygon fill="#63b8ff" stroke="#63b8ff" points="204.26,-35.24 213.26,-29.65 202.74,-28.41 204.26,-35.24"/>
</a>
</g>
</g>
<!-- Node5 -->
<g id="Node000005" class="node">
<title>Node5</title>
<g id="a_Node000005"><a xlink:href="class_u_u_i_manager_subsystem.html#acaac8367f6b3ad4c0509900d7f01b65a" target="_top" xlink:title=" ">
<polygon fill="white" stroke="#666666" points="543,-32 399.5,-32 399.5,0 543,0 543,-32"/>
<text xml:space="preserve" text-anchor="start" x="407.5" y="-18.5" font-family="Helvetica,sans-Serif" font-size="10.00">UUIManagerSubsystem</text>
<text xml:space="preserve" text-anchor="middle" x="471.25" y="-6.5" font-family="Helvetica,sans-Serif" font-size="10.00">::UpdateInputModeAndFocus</text>
</a>
</g>
</g>
<!-- Node4&#45;&gt;Node5 -->
<g id="edge4_Node000004_Node000005" class="edge">
<title>Node4&#45;&gt;Node5</title>
<g id="a_edge4_Node000004_Node000005"><a xlink:title=" ">
<path fill="none" stroke="#63b8ff" d="M336.56,-16C352.78,-16 370.62,-16 387.84,-16"/>
<polygon fill="#63b8ff" stroke="#63b8ff" points="387.53,-19.5 397.53,-16 387.53,-12.5 387.53,-19.5"/>
</a>
</g>
</g>
<!-- Node6 -->
<g id="Node000006" class="node">
<title>Node6</title>
<g id="a_Node000006"><a xlink:href="class_u_u_i_manager_subsystem.html#a6c815ab68107e8e616ddb62dd3391d2c" target="_top" xlink:title=" ">
<polygon fill="white" stroke="#666666" points="700,-32 579,-32 579,0 700,0 700,-32"/>
<text xml:space="preserve" text-anchor="start" x="587" y="-18.5" font-family="Helvetica,sans-Serif" font-size="10.00">UUIManagerSubsystem</text>
<text xml:space="preserve" text-anchor="middle" x="639.5" y="-6.5" font-family="Helvetica,sans-Serif" font-size="10.00">::SetUIInputMode</text>
</a>
</g>
</g>
<!-- Node5&#45;&gt;Node6 -->
<g id="edge5_Node000005_Node000006" class="edge">
<title>Node5&#45;&gt;Node6</title>
<g id="a_edge5_Node000005_Node000006"><a xlink:title=" ">
<path fill="none" stroke="#63b8ff" d="M543.24,-16C551.18,-16 559.28,-16 567.23,-16"/>
<polygon fill="#63b8ff" stroke="#63b8ff" points="567.22,-19.5 577.22,-16 567.22,-12.5 567.22,-19.5"/>
</a>
</g>
</g>
</g>
</svg>
