<?xml version="1.0" encoding="UTF-8" standalone="no"?>
<!DOCTYPE svg PUBLIC "-//W3C//DTD SVG 1.1//EN"
 "http://www.w3.org/Graphics/SVG/1.1/DTD/svg11.dtd">
<!-- Generated by graphviz version 13.1.1 (20250719.2154)
 -->
<!-- Title: UBaseLaserAttackAbility::ActivateAbility Pages: 1 -->
<svg width="643pt" height="90pt"
 viewBox="0.00 0.00 643.00 90.00" xmlns="http://www.w3.org/2000/svg" xmlns:xlink="http://www.w3.org/1999/xlink">
<g id="graph0" class="graph" transform="scale(1 1) rotate(0) translate(4 86)">
<title>UBaseLaserAttackAbility::ActivateAbility</title>
<!-- Node1 -->
<g id="Node000001" class="node">
<title>Node1</title>
<g id="a_Node000001"><a xlink:title=" ">
<polygon fill="#999999" stroke="#666666" points="125.5,-57 0,-57 0,-25 125.5,-25 125.5,-57"/>
<text xml:space="preserve" text-anchor="start" x="8" y="-43.5" font-family="Helvetica,sans-Serif" font-size="10.00">UBaseLaserAttackAbility</text>
<text xml:space="preserve" text-anchor="middle" x="62.75" y="-31.5" font-family="Helvetica,sans-Serif" font-size="10.00">::ActivateAbility</text>
</a>
</g>
</g>
<!-- Node2 -->
<g id="Node000002" class="node">
<title>Node2</title>
<g id="a_Node000002"><a xlink:href="class_u_base_laser_attack_ability.html#ad1a11b3bbe71ec74e20323116cad88fe" target="_top" xlink:title="This function is meant to be implemented in Blueprint to define the ability&#39;s activation flow.">
<polygon fill="white" stroke="#666666" points="287,-57 161.5,-57 161.5,-25 287,-25 287,-57"/>
<text xml:space="preserve" text-anchor="start" x="169.5" y="-43.5" font-family="Helvetica,sans-Serif" font-size="10.00">UBaseLaserAttackAbility</text>
<text xml:space="preserve" text-anchor="middle" x="224.25" y="-31.5" font-family="Helvetica,sans-Serif" font-size="10.00">::ActivateAbility_BP</text>
</a>
</g>
</g>
<!-- Node1&#45;&gt;Node2 -->
<g id="edge1_Node000001_Node000002" class="edge">
<title>Node1&#45;&gt;Node2</title>
<g id="a_edge1_Node000001_Node000002"><a xlink:title=" ">
<path fill="none" stroke="#63b8ff" d="M125.87,-34.4C133.63,-34.27 141.62,-34.22 149.54,-34.27"/>
<polygon fill="#63b8ff" stroke="#63b8ff" points="149.48,-37.77 159.52,-34.38 149.56,-30.77 149.48,-37.77"/>
</a>
</g>
</g>
<!-- Node2&#45;&gt;Node1 -->
<g id="edge2_Node000002_Node000001" class="edge">
<title>Node2&#45;&gt;Node1</title>
<g id="a_edge2_Node000002_Node000001"><a xlink:title=" ">
<path fill="none" stroke="#63b8ff" d="M161.03,-47.6C153.27,-47.74 145.28,-47.78 137.37,-47.73"/>
<polygon fill="#63b8ff" stroke="#63b8ff" points="137.43,-44.23 127.39,-47.62 137.35,-51.23 137.43,-44.23"/>
</a>
</g>
</g>
<!-- Node2&#45;&gt;Node2 -->
<g id="edge3_Node000002_Node000002" class="edge">
<title>Node2&#45;&gt;Node2</title>
<g id="a_edge3_Node000002_Node000002"><a xlink:title=" ">
<path fill="none" stroke="#63b8ff" d="M195.42,-57.44C190.04,-66.58 199.65,-75 224.25,-75 237.71,-75 246.68,-72.48 251.16,-68.71"/>
<polygon fill="#63b8ff" stroke="#63b8ff" points="254.6,-69.38 252.83,-58.93 247.7,-68.2 254.6,-69.38"/>
</a>
</g>
</g>
<!-- Node3 -->
<g id="Node000003" class="node">
<title>Node3</title>
<g id="a_Node000003"><a xlink:href="class_u_base_laser_attack_ability.html#a872ab3f13348f056b6148f62cf3fffc7" target="_top" xlink:title=" ">
<polygon fill="white" stroke="#666666" points="457.88,-82 332.38,-82 332.38,-50 457.88,-50 457.88,-82"/>
<text xml:space="preserve" text-anchor="start" x="340.38" y="-68.5" font-family="Helvetica,sans-Serif" font-size="10.00">UBaseLaserAttackAbility</text>
<text xml:space="preserve" text-anchor="middle" x="395.12" y="-56.5" font-family="Helvetica,sans-Serif" font-size="10.00">::EndAbility</text>
</a>
</g>
</g>
<!-- Node2&#45;&gt;Node3 -->
<g id="edge4_Node000002_Node000003" class="edge">
<title>Node2&#45;&gt;Node3</title>
<g id="a_edge4_Node000002_Node000003"><a xlink:title=" ">
<path fill="none" stroke="#63b8ff" d="M287.17,-50.17C298.12,-51.79 309.6,-53.49 320.82,-55.15"/>
<polygon fill="#63b8ff" stroke="#63b8ff" points="320.02,-58.57 330.43,-56.57 321.05,-51.64 320.02,-58.57"/>
</a>
</g>
</g>
<!-- Node5 -->
<g id="Node000005" class="node">
<title>Node5</title>
<g id="a_Node000005"><a xlink:href="class_u_base_laser_attack_ability.html#aa398b1c8400be1004cc48ab88c2372a9" target="_top" xlink:title=" ">
<polygon fill="white" stroke="#666666" points="467.25,-32 323,-32 323,0 467.25,0 467.25,-32"/>
<text xml:space="preserve" text-anchor="start" x="331" y="-18.5" font-family="Helvetica,sans-Serif" font-size="10.00">UBaseLaserAttackAbility</text>
<text xml:space="preserve" text-anchor="middle" x="395.12" y="-6.5" font-family="Helvetica,sans-Serif" font-size="10.00">::GetLifetimeReplicatedProps</text>
</a>
</g>
</g>
<!-- Node2&#45;&gt;Node5 -->
<g id="edge7_Node000002_Node000005" class="edge">
<title>Node2&#45;&gt;Node5</title>
<g id="a_edge7_Node000002_Node000005"><a xlink:title=" ">
<path fill="none" stroke="#63b8ff" d="M287.17,-31.83C295.13,-30.65 303.38,-29.43 311.61,-28.22"/>
<polygon fill="#63b8ff" stroke="#63b8ff" points="311.9,-31.71 321.28,-26.78 310.87,-24.79 311.9,-31.71"/>
</a>
</g>
</g>
<!-- Node4 -->
<g id="Node000004" class="node">
<title>Node4</title>
<g id="a_Node000004"><a xlink:href="class_u_base_laser_attack_ability.html#a1f265f5b299f3057b632ab3d32970ea6" target="_top" xlink:title="Cleans up all spawned lasers and stops timers.">
<polygon fill="white" stroke="#666666" points="631.75,-82 506.25,-82 506.25,-50 631.75,-50 631.75,-82"/>
<text xml:space="preserve" text-anchor="start" x="514.25" y="-68.5" font-family="Helvetica,sans-Serif" font-size="10.00">UBaseLaserAttackAbility</text>
<text xml:space="preserve" text-anchor="middle" x="569" y="-56.5" font-family="Helvetica,sans-Serif" font-size="10.00">::FinishLaserAttack</text>
</a>
</g>
</g>
<!-- Node3&#45;&gt;Node4 -->
<g id="edge5_Node000003_Node000004" class="edge">
<title>Node3&#45;&gt;Node4</title>
<g id="a_edge5_Node000003_Node000004"><a xlink:title=" ">
<path fill="none" stroke="#63b8ff" d="M458.18,-59.49C469.91,-59.25 482.28,-59.19 494.33,-59.31"/>
<polygon fill="#63b8ff" stroke="#63b8ff" points="494.19,-62.81 504.24,-59.46 494.29,-55.81 494.19,-62.81"/>
</a>
</g>
</g>
<!-- Node4&#45;&gt;Node3 -->
<g id="edge6_Node000004_Node000003" class="edge">
<title>Node4&#45;&gt;Node3</title>
<g id="a_edge6_Node000004_Node000003"><a xlink:title=" ">
<path fill="none" stroke="#63b8ff" d="M505.75,-72.52C494.01,-72.75 481.63,-72.81 469.59,-72.69"/>
<polygon fill="#63b8ff" stroke="#63b8ff" points="469.74,-69.19 459.69,-72.54 469.63,-76.19 469.74,-69.19"/>
</a>
</g>
</g>
<!-- Node6 -->
<g id="Node000006" class="node">
<title>Node6</title>
<g id="a_Node000006"><a xlink:href="class_u_base_laser_attack_ability.html#abd26ecf6cee23237e9249ce68b42fa62" target="_top" xlink:title=" ">
<polygon fill="white" stroke="#666666" points="634.75,-32 503.25,-32 503.25,0 634.75,0 634.75,-32"/>
<text xml:space="preserve" text-anchor="start" x="511.25" y="-18.5" font-family="Helvetica,sans-Serif" font-size="10.00">UBaseLaserAttackAbility</text>
<text xml:space="preserve" text-anchor="middle" x="569" y="-6.5" font-family="Helvetica,sans-Serif" font-size="10.00">::UBaseLaserAttackAbility</text>
</a>
</g>
</g>
<!-- Node5&#45;&gt;Node6 -->
<g id="edge8_Node000005_Node000006" class="edge">
<title>Node5&#45;&gt;Node6</title>
<g id="a_edge8_Node000005_Node000006"><a xlink:title=" ">
<path fill="none" stroke="#63b8ff" d="M467.52,-16C475.39,-16 483.43,-16 491.36,-16"/>
<polygon fill="#63b8ff" stroke="#63b8ff" points="491.36,-19.5 501.36,-16 491.36,-12.5 491.36,-19.5"/>
</a>
</g>
</g>
</g>
</svg>
