<?xml version="1.0" encoding="UTF-8" standalone="no"?>
<!DOCTYPE svg PUBLIC "-//W3C//DTD SVG 1.1//EN"
 "http://www.w3.org/Graphics/SVG/1.1/DTD/svg11.dtd">
<!-- Generated by graphviz version 13.1.1 (20250719.2154)
 -->
<!-- Title: UBaseSkillAbility::ApplySkillCooldown Pages: 1 -->
<svg width="449pt" height="126pt"
 viewBox="0.00 0.00 449.00 126.00" xmlns="http://www.w3.org/2000/svg" xmlns:xlink="http://www.w3.org/1999/xlink">

<svg id="main" version="1.1" xmlns="http://www.w3.org/2000/svg" xmlns:xlink="http://www.w3.org/1999/xlink" xml:space="preserve">

<style type="text/css"><![CDATA[
.node, .edge {opacity: 0.7;}
.node.selected, .edge.selected {opacity: 1;}
.edge:hover path { stroke: red; }
.edge:hover polygon { stroke: red; fill: red; }
]]></style>
<script type="application/ecmascript" xlink:href="svg.min.js"/>
<svg id="graph" class="graph">
<g id="graph0" class="graph" transform="scale(1 1) rotate(0) translate(4 121.7)">
<title>UBaseSkillAbility::ApplySkillCooldown</title>
<!-- Node1 -->
<g id="Node000001" class="node">
<title>Node1</title>
<g id="a_Node000001"><a xlink:title=" ">
<polygon fill="#999999" stroke="#666666" points="441,-82 338,-82 338,-50 441,-50 441,-82"/>
<text xml:space="preserve" text-anchor="start" x="346" y="-68.5" font-family="Helvetica,sans-Serif" font-size="10.00">UBaseSkillAbility::</text>
<text xml:space="preserve" text-anchor="middle" x="389.5" y="-56.5" font-family="Helvetica,sans-Serif" font-size="10.00">ApplySkillCooldown</text>
</a>
</g>
</g>
<!-- Node2 -->
<g id="Node000002" class="node">
<title>Node2</title>
<g id="a_Node000002"><a xlink:href="class_u_orbit_skill_ability.html#a30cfb801f01a4750000faaa655b36ae8" target="_top" xlink:title=" ">
<polygon fill="white" stroke="#666666" points="105.25,-113 15,-113 15,-81 105.25,-81 105.25,-113"/>
<text xml:space="preserve" text-anchor="start" x="23" y="-99.5" font-family="Helvetica,sans-Serif" font-size="10.00">UOrbitSkillAbility</text>
<text xml:space="preserve" text-anchor="middle" x="60.12" y="-87.5" font-family="Helvetica,sans-Serif" font-size="10.00">::ActivateAbility</text>
</a>
</g>
</g>
<!-- Node1&#45;&gt;Node2 -->
<g id="edge1_Node000001_Node000002" class="edge">
<title>Node1&#45;&gt;Node2</title>
<g id="a_edge1_Node000001_Node000002"><a xlink:title=" ">
<path fill="none" stroke="#63b8ff" d="M353.24,-88.15C338.08,-96.42 319.78,-104.83 302,-109 234.95,-124.75 154.61,-115.3 105.75,-106.54"/>
<polygon fill="#63b8ff" stroke="#63b8ff" points="354.91,-91.22 361.88,-83.24 351.46,-85.14 354.91,-91.22"/>
</a>
</g>
</g>
<!-- Node3 -->
<g id="Node000003" class="node">
<title>Node3</title>
<g id="a_Node000003"><a xlink:href="class_u_base_skill_ability.html#ade62b76d04ebd1cfb7fd24381996b226" target="_top" xlink:title=" ">
<polygon fill="white" stroke="#666666" points="297.5,-82 160.75,-82 160.75,-50 297.5,-50 297.5,-82"/>
<text xml:space="preserve" text-anchor="start" x="168.75" y="-68.5" font-family="Helvetica,sans-Serif" font-size="10.00">UBaseSkillAbility::</text>
<text xml:space="preserve" text-anchor="middle" x="229.12" y="-56.5" font-family="Helvetica,sans-Serif" font-size="10.00">CalculateSpawnTransforms</text>
</a>
</g>
</g>
<!-- Node1&#45;&gt;Node3 -->
<g id="edge2_Node000001_Node000003" class="edge">
<title>Node1&#45;&gt;Node3</title>
<g id="a_edge2_Node000001_Node000003"><a xlink:title=" ">
<path fill="none" stroke="#63b8ff" d="M326.3,-66C316.94,-66 307.24,-66 297.77,-66"/>
<polygon fill="#63b8ff" stroke="#63b8ff" points="326,-69.5 336,-66 326,-62.5 326,-69.5"/>
</a>
</g>
</g>
<!-- Node4 -->
<g id="Node000004" class="node">
<title>Node4</title>
<g id="a_Node000004"><a xlink:href="class_u_straight_seq_skill_ability.html#a207d39125f09d62a172614e0490a0f14" target="_top" xlink:title=" ">
<polygon fill="white" stroke="#666666" points="302,-32 156.25,-32 156.25,0 302,0 302,-32"/>
<text xml:space="preserve" text-anchor="start" x="164.25" y="-18.5" font-family="Helvetica,sans-Serif" font-size="10.00">UStraightSeqSkillAbility</text>
<text xml:space="preserve" text-anchor="middle" x="229.12" y="-6.5" font-family="Helvetica,sans-Serif" font-size="10.00">::SpawnAndInitializeProjectile</text>
</a>
</g>
</g>
<!-- Node1&#45;&gt;Node4 -->
<g id="edge5_Node000001_Node000004" class="edge">
<title>Node1&#45;&gt;Node4</title>
<g id="a_edge5_Node000001_Node000004"><a xlink:title=" ">
<path fill="none" stroke="#63b8ff" d="M326.54,-46.44C311.93,-41.83 296.5,-36.96 282.37,-32.49"/>
<polygon fill="#63b8ff" stroke="#63b8ff" points="325.48,-49.78 336.07,-49.45 327.59,-43.1 325.48,-49.78"/>
</a>
</g>
</g>
<!-- Node3&#45;&gt;Node2 -->
<g id="edge3_Node000003_Node000002" class="edge">
<title>Node3&#45;&gt;Node2</title>
<g id="a_edge3_Node000003_Node000002"><a xlink:title=" ">
<path fill="none" stroke="#63b8ff" d="M149.66,-80.57C134.42,-83.39 118.96,-86.26 105.32,-88.8"/>
<polygon fill="#63b8ff" stroke="#63b8ff" points="150,-84.06 159.19,-78.8 148.72,-77.18 150,-84.06"/>
</a>
</g>
</g>
<!-- Node3&#45;&gt;Node3 -->
<g id="edge4_Node000003_Node000003" class="edge">
<title>Node3&#45;&gt;Node3</title>
<g id="a_edge4_Node000003_Node000003"><a xlink:title=" ">
<path fill="none" stroke="#63b8ff" d="M255.85,-93.71C251.39,-97.48 242.49,-100 229.12,-100 204.69,-100 195.15,-91.58 200.49,-82.44"/>
<polygon fill="#63b8ff" stroke="#63b8ff" points="259.29,-94.38 257.5,-83.94 252.38,-93.21 259.29,-94.38"/>
</a>
</g>
</g>
<!-- Node5 -->
<g id="Node000005" class="node">
<title>Node5</title>
<g id="a_Node000005"><a xlink:href="class_u_straight_seq_skill_ability.html#a6d9f4b84aaff3534ef4b2ad2dba6954c" target="_top" xlink:title=" ">
<polygon fill="white" stroke="#666666" points="120.25,-32 0,-32 0,0 120.25,0 120.25,-32"/>
<text xml:space="preserve" text-anchor="start" x="8" y="-18.5" font-family="Helvetica,sans-Serif" font-size="10.00">UStraightSeqSkillAbility</text>
<text xml:space="preserve" text-anchor="middle" x="60.12" y="-6.5" font-family="Helvetica,sans-Serif" font-size="10.00">::ActivateAbility</text>
</a>
</g>
</g>
<!-- Node4&#45;&gt;Node5 -->
<g id="edge6_Node000004_Node000005" class="edge">
<title>Node4&#45;&gt;Node5</title>
<g id="a_edge6_Node000004_Node000005"><a xlink:title=" ">
<path fill="none" stroke="#63b8ff" d="M144.52,-16C136.49,-16 128.45,-16 120.72,-16"/>
<polygon fill="#63b8ff" stroke="#63b8ff" points="144.33,-19.5 154.33,-16 144.33,-12.5 144.33,-19.5"/>
</a>
</g>
</g>
</g>
</svg>
</svg>

<style type='text/css'>
<![CDATA[
[data-mouse-over-selected='false'] { opacity: 0.7; }
[data-mouse-over-selected='true']  { opacity: 1.0; }
]]>
</style>
<script type="application/ecmascript"><![CDATA[
document.addEventListener('DOMContentLoaded', (event) => {
  highlightEdges();
  highlightAdjacentNodes();
});
]]></script>
</svg>
