<?xml version="1.0" encoding="UTF-8" standalone="no"?>
<!DOCTYPE svg PUBLIC "-//W3C//DTD SVG 1.1//EN"
 "http://www.w3.org/Graphics/SVG/1.1/DTD/svg11.dtd">
<!-- Generated by graphviz version 13.1.1 (20250719.2154)
 -->
<!-- Title: AKPTInGameMode::StartRound Pages: 1 -->
<svg width="1156pt" height="176pt"
 viewBox="0.00 0.00 1156.00 176.00" xmlns="http://www.w3.org/2000/svg" xmlns:xlink="http://www.w3.org/1999/xlink">
<g id="graph0" class="graph" transform="scale(1 1) rotate(0) translate(4 172)">
<title>AKPTInGameMode::StartRound</title>
<!-- Node1 -->
<g id="Node000001" class="node">
<title>Node1</title>
<g id="a_Node000001"><a xlink:title="새 라운드를 시작합니다.">
<polygon fill="#999999" stroke="#666666" points="1147.5,-42 991.25,-42 991.25,-22 1147.5,-22 1147.5,-42"/>
<text xml:space="preserve" text-anchor="middle" x="1069.38" y="-28.5" font-family="Helvetica,sans-Serif" font-size="10.00">AKPTInGameMode::StartRound</text>
</a>
</g>
</g>
<!-- Node2 -->
<g id="Node000002" class="node">
<title>Node2</title>
<g id="a_Node000002"><a xlink:href="class_a_k_p_t_in_game_mode.html#a410acd626df9144d7ebb63b535dbc37b" target="_top" xlink:title=" ">
<polygon fill="white" stroke="#666666" points="955.25,-70 806.5,-70 806.5,-38 955.25,-38 955.25,-70"/>
<text xml:space="preserve" text-anchor="start" x="814.5" y="-56.5" font-family="Helvetica,sans-Serif" font-size="10.00">AKPTInGameMode::Complete</text>
<text xml:space="preserve" text-anchor="middle" x="880.88" y="-44.5" font-family="Helvetica,sans-Serif" font-size="10.00">PhaseTransition</text>
</a>
</g>
</g>
<!-- Node1&#45;&gt;Node2 -->
<g id="edge1_Node000001_Node000002" class="edge">
<title>Node1&#45;&gt;Node2</title>
<g id="a_edge1_Node000001_Node000002"><a xlink:title=" ">
<path fill="none" stroke="#63b8ff" d="M979.57,-42.48C971.52,-43.43 963.42,-44.38 955.52,-45.31"/>
<polygon fill="#63b8ff" stroke="#63b8ff" points="979.88,-45.96 989.4,-41.32 979.06,-39.01 979.88,-45.96"/>
</a>
</g>
</g>
<!-- Node11 -->
<g id="Node000011" class="node">
<title>Node11</title>
<g id="a_Node000011"><a xlink:href="class_a_k_p_t_in_game_mode.html#a88de57fba9da892b172c9106affe14f3" target="_top" xlink:title=" ">
<polygon fill="white" stroke="#666666" points="954.5,-20 807.25,-20 807.25,0 954.5,0 954.5,-20"/>
<text xml:space="preserve" text-anchor="middle" x="880.88" y="-6.5" font-family="Helvetica,sans-Serif" font-size="10.00">AKPTInGameMode::StartPlay</text>
</a>
</g>
</g>
<!-- Node1&#45;&gt;Node11 -->
<g id="edge14_Node000001_Node000011" class="edge">
<title>Node1&#45;&gt;Node11</title>
<g id="a_edge14_Node000001_Node000011"><a xlink:title=" ">
<path fill="none" stroke="#63b8ff" d="M979.66,-21.53C971.37,-20.56 963.04,-19.57 954.92,-18.62"/>
<polygon fill="#63b8ff" stroke="#63b8ff" points="979.06,-24.99 989.4,-22.68 979.88,-18.04 979.06,-24.99"/>
</a>
</g>
</g>
<!-- Node3 -->
<g id="Node000003" class="node">
<title>Node3</title>
<g id="a_Node000003"><a xlink:href="class_a_k_p_t_in_game_mode.html#a1c856c37dce7343a381723b5d842ecf7" target="_top" xlink:title="모든 플레이어가 사망했는지 확인합니다.">
<polygon fill="white" stroke="#666666" points="770.5,-86 581.25,-86 581.25,-66 770.5,-66 770.5,-86"/>
<text xml:space="preserve" text-anchor="middle" x="675.88" y="-72.5" font-family="Helvetica,sans-Serif" font-size="10.00">AKPTInGameMode::AreAllPlayersDead</text>
</a>
</g>
</g>
<!-- Node2&#45;&gt;Node3 -->
<g id="edge2_Node000002_Node000003" class="edge">
<title>Node2&#45;&gt;Node3</title>
<g id="a_edge2_Node000002_Node000003"><a xlink:title=" ">
<path fill="none" stroke="#63b8ff" d="M794.6,-63.24C786.73,-64.09 778.73,-64.96 770.79,-65.82"/>
<polygon fill="#63b8ff" stroke="#63b8ff" points="794.94,-66.72 804.51,-62.17 794.19,-59.77 794.94,-66.72"/>
</a>
</g>
</g>
<!-- Node3&#45;&gt;Node3 -->
<g id="edge3_Node000003_Node000003" class="edge">
<title>Node3&#45;&gt;Node3</title>
<g id="a_edge3_Node000003_Node000003"><a xlink:title=" ">
<path fill="none" stroke="#63b8ff" d="M712.49,-97.11C708.12,-101.14 695.92,-104 675.88,-104 640.24,-104 629.38,-94.98 643.3,-86.34"/>
<polygon fill="#63b8ff" stroke="#63b8ff" points="715.77,-95.89 708.98,-87.76 709.22,-98.35 715.77,-95.89"/>
</a>
</g>
</g>
<!-- Node4 -->
<g id="Node000004" class="node">
<title>Node4</title>
<g id="a_Node000004"><a xlink:href="class_a_k_p_t_in_game_mode.html#a0e1dec85eeba3835d463238c88f8904b" target="_top" xlink:title="야간 페이즈를 종료하고, 게임 종료 조건을 확인하거나 새 라운드를 시작합니다.">
<polygon fill="white" stroke="#666666" points="535.12,-92 387.88,-92 387.88,-60 535.12,-60 535.12,-92"/>
<text xml:space="preserve" text-anchor="start" x="395.88" y="-78.5" font-family="Helvetica,sans-Serif" font-size="10.00">AKPTInGameMode::EndNight</text>
<text xml:space="preserve" text-anchor="middle" x="461.5" y="-66.5" font-family="Helvetica,sans-Serif" font-size="10.00">Phase</text>
</a>
</g>
</g>
<!-- Node3&#45;&gt;Node4 -->
<g id="edge4_Node000003_Node000004" class="edge">
<title>Node3&#45;&gt;Node4</title>
<g id="a_edge4_Node000003_Node000004"><a xlink:title=" ">
<path fill="none" stroke="#63b8ff" d="M569.35,-76C557.89,-76 546.41,-76 535.46,-76"/>
<polygon fill="#63b8ff" stroke="#63b8ff" points="569.28,-79.5 579.28,-76 569.28,-72.5 569.28,-79.5"/>
</a>
</g>
</g>
<!-- Node7 -->
<g id="Node000007" class="node">
<title>Node7</title>
<g id="a_Node000007"><a xlink:href="class_a_k_p_t_in_game_mode.html#a3a63b6ea26b3ef6a916ca7b5fed4813f" target="_top" xlink:title="플레이어가 사망했을 때 호출됩니다.">
<polygon fill="white" stroke="#666666" points="545.25,-130 377.75,-130 377.75,-110 545.25,-110 545.25,-130"/>
<text xml:space="preserve" text-anchor="middle" x="461.5" y="-116.5" font-family="Helvetica,sans-Serif" font-size="10.00">AKPTInGameMode::OnPlayerDied</text>
</a>
</g>
</g>
<!-- Node3&#45;&gt;Node7 -->
<g id="edge8_Node000003_Node000007" class="edge">
<title>Node3&#45;&gt;Node7</title>
<g id="a_edge8_Node000003_Node000007"><a xlink:title=" ">
<path fill="none" stroke="#63b8ff" d="M613.32,-88.75C581.5,-95.35 543.15,-103.29 513.08,-109.52"/>
<polygon fill="#63b8ff" stroke="#63b8ff" points="613.71,-92.25 622.79,-86.79 612.29,-85.39 613.71,-92.25"/>
</a>
</g>
</g>
<!-- Node5 -->
<g id="Node000005" class="node">
<title>Node5</title>
<g id="a_Node000005"><a xlink:href="class_a_k_p_t_in_game_mode.html#acd0b193dd9ce700d2a4cb3953565584c" target="_top" xlink:title="야간 페이즈의 핵심 로직을 실행합니다.">
<polygon fill="white" stroke="#666666" points="341.75,-92 190.75,-92 190.75,-60 341.75,-60 341.75,-92"/>
<text xml:space="preserve" text-anchor="start" x="198.75" y="-78.5" font-family="Helvetica,sans-Serif" font-size="10.00">AKPTInGameMode::StartNight</text>
<text xml:space="preserve" text-anchor="middle" x="266.25" y="-66.5" font-family="Helvetica,sans-Serif" font-size="10.00">Phase</text>
</a>
</g>
</g>
<!-- Node4&#45;&gt;Node5 -->
<g id="edge5_Node000004_Node000005" class="edge">
<title>Node4&#45;&gt;Node5</title>
<g id="a_edge5_Node000004_Node000005"><a xlink:title=" ">
<path fill="none" stroke="#63b8ff" d="M376.17,-76C364.81,-76 353.21,-76 342.02,-76"/>
<polygon fill="#63b8ff" stroke="#63b8ff" points="375.93,-79.5 385.93,-76 375.93,-72.5 375.93,-79.5"/>
</a>
</g>
</g>
<!-- Node6 -->
<g id="Node000006" class="node">
<title>Node6</title>
<g id="a_Node000006"><a xlink:href="class_a_k_p_t_in_game_mode.html#a84edc1df98161132b7b803669c9299a0" target="_top" xlink:title="야간 페이즈를 시작하기 위한 준비 및 전환을 시작합니다.">
<polygon fill="white" stroke="#666666" points="154.75,-70 0,-70 0,-38 154.75,-38 154.75,-70"/>
<text xml:space="preserve" text-anchor="start" x="8" y="-56.5" font-family="Helvetica,sans-Serif" font-size="10.00">AKPTInGameMode::BeginNight</text>
<text xml:space="preserve" text-anchor="middle" x="77.38" y="-44.5" font-family="Helvetica,sans-Serif" font-size="10.00">PhaseLogic</text>
</a>
</g>
</g>
<!-- Node5&#45;&gt;Node6 -->
<g id="edge6_Node000005_Node000006" class="edge">
<title>Node5&#45;&gt;Node6</title>
<g id="a_edge6_Node000005_Node000006"><a xlink:title=" ">
<path fill="none" stroke="#63b8ff" d="M179.1,-65.86C171.11,-64.92 163.05,-63.97 155.16,-63.04"/>
<polygon fill="#63b8ff" stroke="#63b8ff" points="178.47,-69.31 188.81,-67 179.29,-62.36 178.47,-69.31"/>
</a>
</g>
</g>
<!-- Node6&#45;&gt;Node2 -->
<g id="edge7_Node000006_Node000002" class="edge">
<title>Node6&#45;&gt;Node2</title>
<g id="a_edge7_Node000006_Node000002"><a xlink:title=" ">
<path fill="none" stroke="#63b8ff" d="M166.64,-51.42C174.79,-51.25 182.92,-51.1 190.75,-51 414.91,-48.01 680.11,-51 806.19,-52.82"/>
<polygon fill="#63b8ff" stroke="#63b8ff" points="166.57,-47.92 156.65,-51.64 166.73,-54.92 166.57,-47.92"/>
</a>
</g>
</g>
<!-- Node8 -->
<g id="Node000008" class="node">
<title>Node8</title>
<g id="a_Node000008"><a xlink:href="class_a_player_character.html#aa38c751d8495a3e3d999eafad23d7a88" target="_top" xlink:title=" ">
<polygon fill="white" stroke="#666666" points="323.38,-168 209.12,-168 209.12,-148 323.38,-148 323.38,-168"/>
<text xml:space="preserve" text-anchor="middle" x="266.25" y="-154.5" font-family="Helvetica,sans-Serif" font-size="10.00">APlayerCharacter::Die</text>
</a>
</g>
</g>
<!-- Node7&#45;&gt;Node8 -->
<g id="edge9_Node000007_Node000008" class="edge">
<title>Node7&#45;&gt;Node8</title>
<g id="a_edge9_Node000007_Node000008"><a xlink:title=" ">
<path fill="none" stroke="#63b8ff" d="M396.13,-132.66C371.55,-137.49 343.82,-142.94 320.39,-147.55"/>
<polygon fill="#63b8ff" stroke="#63b8ff" points="396.56,-136.14 405.7,-130.78 395.21,-129.27 396.56,-136.14"/>
</a>
</g>
</g>
<!-- Node9 -->
<g id="Node000009" class="node">
<title>Node9</title>
<g id="a_Node000009"><a xlink:href="class_a_character_base.html#af4c20a0d4ddeb41b0eb305b807bcfc9d" target="_top" xlink:title=" ">
<polygon fill="white" stroke="#666666" points="341.75,-130 190.75,-130 190.75,-110 341.75,-110 341.75,-130"/>
<text xml:space="preserve" text-anchor="middle" x="266.25" y="-116.5" font-family="Helvetica,sans-Serif" font-size="10.00">ACharacterBase::HandleDeath</text>
</a>
</g>
</g>
<!-- Node7&#45;&gt;Node9 -->
<g id="edge10_Node000007_Node000009" class="edge">
<title>Node7&#45;&gt;Node9</title>
<g id="a_edge10_Node000007_Node000009"><a xlink:title=" ">
<path fill="none" stroke="#63b8ff" d="M366.06,-120C357.99,-120 349.91,-120 342.03,-120"/>
<polygon fill="#63b8ff" stroke="#63b8ff" points="365.91,-123.5 375.91,-120 365.91,-116.5 365.91,-123.5"/>
</a>
</g>
</g>
<!-- Node10 -->
<g id="Node000010" class="node">
<title>Node10</title>
<g id="a_Node000010"><a xlink:href="class_a_character_base.html#af3460531018611a7b3b2c59779c65ead" target="_top" xlink:title=" ">
<polygon fill="white" stroke="#666666" points="143.88,-130 10.88,-130 10.88,-110 143.88,-110 143.88,-130"/>
<text xml:space="preserve" text-anchor="middle" x="77.38" y="-116.5" font-family="Helvetica,sans-Serif" font-size="10.00">ACharacterBase::OnDeath</text>
</a>
</g>
</g>
<!-- Node9&#45;&gt;Node10 -->
<g id="edge11_Node000009_Node000010" class="edge">
<title>Node9&#45;&gt;Node10</title>
<g id="a_edge11_Node000009_Node000010"><a xlink:title=" ">
<path fill="none" stroke="#63b8ff" d="M179.15,-113.27C167.44,-113.21 155.56,-113.29 144.28,-113.52"/>
<polygon fill="#63b8ff" stroke="#63b8ff" points="178.77,-116.77 188.8,-113.36 178.84,-109.77 178.77,-116.77"/>
</a>
</g>
</g>
<!-- Node10&#45;&gt;Node9 -->
<g id="edge12_Node000010_Node000009" class="edge">
<title>Node10&#45;&gt;Node9</title>
<g id="a_edge12_Node000010_Node000009"><a xlink:title=" ">
<path fill="none" stroke="#63b8ff" d="M155.61,-126.66C167.09,-126.79 178.89,-126.78 190.32,-126.63"/>
<polygon fill="#63b8ff" stroke="#63b8ff" points="155.85,-123.16 145.79,-126.51 155.74,-130.16 155.85,-123.16"/>
</a>
</g>
</g>
<!-- Node10&#45;&gt;Node10 -->
<g id="edge13_Node000010_Node000010" class="edge">
<title>Node10&#45;&gt;Node10</title>
<g id="a_edge13_Node000010_Node000010"><a xlink:title=" ">
<path fill="none" stroke="#63b8ff" d="M111.11,-141.11C107.09,-145.14 95.84,-148 77.38,-148 44.54,-148 34.54,-138.98 47.36,-130.34"/>
<polygon fill="#63b8ff" stroke="#63b8ff" points="114.46,-140.08 107.88,-131.77 107.84,-142.36 114.46,-140.08"/>
</a>
</g>
</g>
</g>
</svg>
