<?xml version="1.0" encoding="UTF-8" standalone="no"?>
<!DOCTYPE svg PUBLIC "-//W3C//DTD SVG 1.1//EN"
 "http://www.w3.org/Graphics/SVG/1.1/DTD/svg11.dtd">
<!-- Generated by graphviz version 13.1.1 (20250719.2154)
 -->
<!-- Title: AKPTInGameMode::InitializePlayerForCurrentPhase Pages: 1 -->
<!--zoomable 315 -->

<svg id="main" version="1.1" xmlns="http://www.w3.org/2000/svg" xmlns:xlink="http://www.w3.org/1999/xlink" xml:space="preserve" onload="init(evt)">

<style type="text/css"><![CDATA[
.node, .edge {opacity: 0.7;}
.node.selected, .edge.selected {opacity: 1;}
.edge:hover path { stroke: red; }
.edge:hover polygon { stroke: red; fill: red; }
]]></style>

<defs>
  <circle id="rim" cx="0" cy="0" r="7"/>
  <circle id="rim2" cx="0" cy="0" r="3.5"/>
  <g id="zoomPlus">
    <use xlink:href="#rim" fill="#404040"><set attributeName="fill" to="#808080" begin="zoomplus.mouseover" end="zoomplus.mouseout"/></use>
    <path d="M-4,0h8M0,-4v8" fill="none" stroke="white" stroke-width="1.5" pointer-events="none"/>
  </g>
  <g id="zoomMin">
    <use xlink:href="#rim" fill="#404040"><set attributeName="fill" to="#808080" begin="zoomminus.mouseover" end="zoomminus.mouseout"/></use>
    <path d="M-4,0h8" fill="none" stroke="white" stroke-width="1.5" pointer-events="none"/>
  </g>
  <g id="arrowUp" transform="translate(30 24)">
    <use xlink:href="#rim"/>
    <path pointer-events="none" fill="none" stroke="white" stroke-width="1.5" d="M0,-3.0v7 M-2.5,-0.5L0,-3.0L2.5,-0.5"/>
  </g>
  <g id="arrowRight" transform="rotate(90) translate(36 -43)">
    <use xlink:href="#rim"/>
    <path pointer-events="none" fill="none" stroke="white" stroke-width="1.5" d="M0,-3.0v7 M-2.5,-0.5L0,-3.0L2.5,-0.5"/>
  </g>
  <g id="arrowDown" transform="rotate(180) translate(-30 -48)">
    <use xlink:href="#rim"/>
    <path pointer-events="none" fill="none" stroke="white" stroke-width="1.5" d="M0,-3.0v7 M-2.5,-0.5L0,-3.0L2.5,-0.5"/>
  </g>
  <g id="arrowLeft" transform="rotate(270) translate(-36 17)">
    <use xlink:href="#rim"/>
    <path pointer-events="none" fill="none" stroke="white" stroke-width="1.5" d="M0,-3.0v7 M-2.5,-0.5L0,-3.0L2.5,-0.5"/>
  </g>
  <g id="resetDef">
    <use xlink:href="#rim2" fill="#404040"><set attributeName="fill" to="#808080" begin="reset.mouseover" end="reset.mouseout"/></use>
  </g>
</defs>
<script type="application/ecmascript">
var viewWidth = 716;
var viewHeight = 315;
var sectionId = 'dynsection-29';
</script>
<script type="application/ecmascript" xlink:href="svg.min.js"/>
<svg id="graph" class="graph">
<g id="viewport">
<title>AKPTInGameMode::InitializePlayerForCurrentPhase</title>
<!-- Node1 -->
<g id="Node000001" class="node">
<title>Node1</title>
<g id="a_Node000001"><a xlink:title="특정 플레이어를 현재 게임 페이즈에 맞게 초기화합니다.">
<polygon fill="#999999" stroke="#666666" points="142.75,-157 0,-157 0,-125 142.75,-125 142.75,-157"/>
<text xml:space="preserve" text-anchor="start" x="8" y="-143.5" font-family="Helvetica,sans-Serif" font-size="10.00">AKPTInGameMode::Initialize</text>
<text xml:space="preserve" text-anchor="middle" x="71.38" y="-131.5" font-family="Helvetica,sans-Serif" font-size="10.00">PlayerForCurrentPhase</text>
</a>
</g>
</g>
<!-- Node2 -->
<g id="Node000002" class="node">
<title>Node2</title>
<g id="a_Node000002"><a xlink:href="class_a_k_p_t_player_state.html#a3f0fd46533843d108f4569bd68d9b233" target="_top" xlink:title=" ">
<polygon fill="white" stroke="#666666" points="708.25,-243 566.25,-243 566.25,-211 708.25,-211 708.25,-243"/>
<text xml:space="preserve" text-anchor="start" x="574.25" y="-229.5" font-family="Helvetica,sans-Serif" font-size="10.00">AKPTPlayerState::GetAbility</text>
<text xml:space="preserve" text-anchor="middle" x="637.25" y="-217.5" font-family="Helvetica,sans-Serif" font-size="10.00">SystemComponent</text>
</a>
</g>
</g>
<!-- Node1&#45;&gt;Node2 -->
<g id="edge1_Node000001_Node000002" class="edge">
<title>Node1&#45;&gt;Node2</title>
<g id="a_edge1_Node000001_Node000002"><a xlink:title=" ">
<path fill="none" stroke="#63b8ff" d="M79.08,-157.05C92.69,-187.23 126.74,-251.65 178.75,-277 316.16,-343.97 503.71,-282.92 589.71,-247.79"/>
<polygon fill="#63b8ff" stroke="#63b8ff" points="590.88,-251.09 598.77,-244.02 588.2,-244.63 590.88,-251.09"/>
</a>
</g>
</g>
<!-- Node3 -->
<g id="Node000003" class="node">
<title>Node3</title>
<g id="a_Node000003"><a xlink:href="class_a_k_p_t_player_state.html#a6989c3ebb86791d3a7265d8f5dc90b93" target="_top" xlink:title=" ">
<polygon fill="white" stroke="#666666" points="336.12,-250 187.38,-250 187.38,-218 336.12,-218 336.12,-250"/>
<text xml:space="preserve" text-anchor="start" x="195.38" y="-236.5" font-family="Helvetica,sans-Serif" font-size="10.00">AKPTPlayerState::GetReward</text>
<text xml:space="preserve" text-anchor="middle" x="261.75" y="-224.5" font-family="Helvetica,sans-Serif" font-size="10.00">StateComponent</text>
</a>
</g>
</g>
<!-- Node1&#45;&gt;Node3 -->
<g id="edge2_Node000001_Node000003" class="edge">
<title>Node1&#45;&gt;Node3</title>
<g id="a_edge2_Node000001_Node000003"><a xlink:title=" ">
<path fill="none" stroke="#63b8ff" d="M94.18,-157.46C114.99,-172.56 147.7,-194.67 178.75,-209 182.23,-210.61 185.85,-212.15 189.53,-213.61"/>
<polygon fill="#63b8ff" stroke="#63b8ff" points="188.03,-216.79 198.62,-217.01 190.48,-210.23 188.03,-216.79"/>
</a>
</g>
</g>
<!-- Node4 -->
<g id="Node000004" class="node">
<title>Node4</title>
<g id="a_Node000004"><a xlink:href="class_u_player_reward_state_component.html#a13152160f317ee674b6c1dde2d1bb0e7" target="_top" xlink:title="처리해야 할 보상이 남아있는지 확인합니다.">
<polygon fill="white" stroke="#666666" points="341,-182 182.5,-182 182.5,-150 341,-150 341,-182"/>
<text xml:space="preserve" text-anchor="start" x="190.5" y="-168.5" font-family="Helvetica,sans-Serif" font-size="10.00">UPlayerRewardStateComponent</text>
<text xml:space="preserve" text-anchor="middle" x="261.75" y="-156.5" font-family="Helvetica,sans-Serif" font-size="10.00">::HasPendingRewards</text>
</a>
</g>
</g>
<!-- Node1&#45;&gt;Node4 -->
<g id="edge4_Node000001_Node000004" class="edge">
<title>Node1&#45;&gt;Node4</title>
<g id="a_edge4_Node000001_Node000004"><a xlink:title=" ">
<path fill="none" stroke="#63b8ff" d="M143.05,-150.38C152.11,-151.58 161.47,-152.82 170.78,-154.06"/>
<polygon fill="#63b8ff" stroke="#63b8ff" points="170.21,-157.52 180.59,-155.36 171.13,-150.58 170.21,-157.52"/>
</a>
</g>
</g>
<!-- Node5 -->
<g id="Node000005" class="node">
<title>Node5</title>
<g id="a_Node000005"><a xlink:href="class_a_k_p_t_in_game_mode.html#a1a9ee04a849c50e213574d166ea3eda5" target="_top" xlink:title="특정 플레이어에게 카드 선택 기회를 제공합니다.">
<polygon fill="white" stroke="#666666" points="329.75,-132 193.75,-132 193.75,-100 329.75,-100 329.75,-132"/>
<text xml:space="preserve" text-anchor="start" x="201.75" y="-118.5" font-family="Helvetica,sans-Serif" font-size="10.00">AKPTInGameMode::Initiate</text>
<text xml:space="preserve" text-anchor="middle" x="261.75" y="-106.5" font-family="Helvetica,sans-Serif" font-size="10.00">RewardPhaseForPlayer</text>
</a>
</g>
</g>
<!-- Node1&#45;&gt;Node5 -->
<g id="edge6_Node000001_Node000005" class="edge">
<title>Node1&#45;&gt;Node5</title>
<g id="a_edge6_Node000001_Node000005"><a xlink:title=" ">
<path fill="none" stroke="#63b8ff" d="M143.05,-131.62C155.81,-129.93 169.19,-128.15 182.15,-126.43"/>
<polygon fill="#63b8ff" stroke="#63b8ff" points="182.46,-129.92 191.92,-125.14 181.54,-122.98 182.46,-129.92"/>
</a>
</g>
</g>
<!-- Node6 -->
<g id="Node000006" class="node">
<title>Node6</title>
<g id="a_Node000006"><a xlink:href="class_a_k_p_t_in_game_mode.html#a23300b5648c661902a39ec934b2de357" target="_top" xlink:title=" ">
<polygon fill="white" stroke="#666666" points="344.75,-82 178.75,-82 178.75,-50 344.75,-50 344.75,-82"/>
<text xml:space="preserve" text-anchor="start" x="186.75" y="-68.5" font-family="Helvetica,sans-Serif" font-size="10.00">AKPTInGameMode::SetAllPlayers</text>
<text xml:space="preserve" text-anchor="middle" x="261.75" y="-56.5" font-family="Helvetica,sans-Serif" font-size="10.00">SkillEnabled</text>
</a>
</g>
</g>
<!-- Node1&#45;&gt;Node6 -->
<g id="edge7_Node000001_Node000006" class="edge">
<title>Node1&#45;&gt;Node6</title>
<g id="a_edge7_Node000001_Node000006"><a xlink:title=" ">
<path fill="none" stroke="#63b8ff" d="M103.97,-124.69C124.87,-114.26 153.04,-100.9 178.75,-91 183.12,-89.31 187.66,-87.67 192.26,-86.07"/>
<polygon fill="#63b8ff" stroke="#63b8ff" points="193.25,-89.43 201.61,-82.93 191.02,-82.8 193.25,-89.43"/>
</a>
</g>
</g>
<!-- Node8 -->
<g id="Node000008" class="node">
<title>Node8</title>
<g id="a_Node000008"><a xlink:href="class_a_k_p_t_player_state.html#ae76783471e033ac0ece5ebe988856b1b" target="_top" xlink:title="업그레이드 선택 기회를 추가합니다.">
<polygon fill="white" stroke="#666666" points="338,-32 185.5,-32 185.5,0 338,0 338,-32"/>
<text xml:space="preserve" text-anchor="start" x="193.5" y="-18.5" font-family="Helvetica,sans-Serif" font-size="10.00">AKPTPlayerState::SetPersonal</text>
<text xml:space="preserve" text-anchor="middle" x="261.75" y="-6.5" font-family="Helvetica,sans-Serif" font-size="10.00">StateTag</text>
</a>
</g>
</g>
<!-- Node1&#45;&gt;Node8 -->
<g id="edge10_Node000001_Node000008" class="edge">
<title>Node1&#45;&gt;Node8</title>
<g id="a_edge10_Node000001_Node000008"><a xlink:title=" ">
<path fill="none" stroke="#63b8ff" d="M85.42,-124.74C103.94,-102.69 139.93,-63.5 178.75,-41 181.09,-39.65 183.5,-38.36 185.98,-37.14"/>
<polygon fill="#63b8ff" stroke="#63b8ff" points="187.34,-40.36 195.03,-33.08 184.48,-33.97 187.34,-40.36"/>
</a>
</g>
</g>
<!-- Node3&#45;&gt;Node3 -->
<g id="edge3_Node000003_Node000003" class="edge">
<title>Node3&#45;&gt;Node3</title>
<g id="a_edge3_Node000003_Node000003"><a xlink:title=" ">
<path fill="none" stroke="#63b8ff" d="M227.76,-250.44C221.42,-259.58 232.75,-268 261.75,-268 277.61,-268 288.19,-265.48 293.48,-261.71"/>
<polygon fill="#63b8ff" stroke="#63b8ff" points="296.9,-262.42 295.44,-251.93 290.04,-261.04 296.9,-262.42"/>
</a>
</g>
</g>
<!-- Node4&#45;&gt;Node4 -->
<g id="edge5_Node000004_Node000004" class="edge">
<title>Node4&#45;&gt;Node4</title>
<g id="a_edge5_Node000004_Node000004"><a xlink:title=" ">
<path fill="none" stroke="#63b8ff" d="M227.76,-182.44C221.42,-191.58 232.75,-200 261.75,-200 277.61,-200 288.19,-197.48 293.48,-193.71"/>
<polygon fill="#63b8ff" stroke="#63b8ff" points="296.9,-194.42 295.44,-183.93 290.04,-193.04 296.9,-194.42"/>
</a>
</g>
</g>
<!-- Node7 -->
<g id="Node000007" class="node">
<title>Node7</title>
<g id="a_Node000007"><a xlink:href="class_a_k_p_t_in_game_mode.html#a4d83e6405b91bdefb43aeac062b7b099" target="_top" xlink:title=" ">
<polygon fill="white" stroke="#666666" points="530.25,-175 380.75,-175 380.75,-143 530.25,-143 530.25,-175"/>
<text xml:space="preserve" text-anchor="start" x="388.75" y="-161.5" font-family="Helvetica,sans-Serif" font-size="10.00">AKPTInGameMode::SetPlayer</text>
<text xml:space="preserve" text-anchor="middle" x="455.5" y="-149.5" font-family="Helvetica,sans-Serif" font-size="10.00">SkillEnabled</text>
</a>
</g>
</g>
<!-- Node6&#45;&gt;Node7 -->
<g id="edge8_Node000006_Node000007" class="edge">
<title>Node6&#45;&gt;Node7</title>
<g id="a_edge8_Node000006_Node000007"><a xlink:title=" ">
<path fill="none" stroke="#63b8ff" d="M322.98,-82.39C330.42,-84.99 337.84,-87.87 344.75,-91 372.37,-103.51 401.45,-121.79 422.73,-136.24"/>
<polygon fill="#63b8ff" stroke="#63b8ff" points="420.46,-138.93 430.68,-141.72 424.43,-133.17 420.46,-138.93"/>
</a>
</g>
</g>
<!-- Node7&#45;&gt;Node2 -->
<g id="edge9_Node000007_Node000002" class="edge">
<title>Node7&#45;&gt;Node2</title>
<g id="a_edge9_Node000007_Node000002"><a xlink:title=" ">
<path fill="none" stroke="#63b8ff" d="M500.01,-175.46C524.76,-184.82 555.97,-196.63 582.27,-206.58"/>
<polygon fill="#63b8ff" stroke="#63b8ff" points="580.82,-209.77 591.41,-210.04 583.3,-203.23 580.82,-209.77"/>
</a>
</g>
</g>
<!-- Node9 -->
<g id="Node000009" class="node">
<title>Node9</title>
<g id="a_Node000009"><a xlink:href="class_a_k_p_t_player_state.html#aa41c46851e05f762ccd8c2fc98aa505a" target="_top" xlink:title=" ">
<polygon fill="white" stroke="#666666" points="520.5,-32 390.5,-32 390.5,0 520.5,0 520.5,-32"/>
<text xml:space="preserve" text-anchor="start" x="398.5" y="-18.5" font-family="Helvetica,sans-Serif" font-size="10.00">AKPTPlayerState::OnRep</text>
<text xml:space="preserve" text-anchor="middle" x="455.5" y="-6.5" font-family="Helvetica,sans-Serif" font-size="10.00">_PersonalStateTag</text>
</a>
</g>
</g>
<!-- Node8&#45;&gt;Node9 -->
<g id="edge11_Node000008_Node000009" class="edge">
<title>Node8&#45;&gt;Node9</title>
<g id="a_edge11_Node000008_Node000009"><a xlink:title=" ">
<path fill="none" stroke="#63b8ff" d="M338.26,-16C351.69,-16 365.67,-16 379.1,-16"/>
<polygon fill="#63b8ff" stroke="#63b8ff" points="378.71,-19.5 388.71,-16 378.71,-12.5 378.71,-19.5"/>
</a>
</g>
</g>
</g>
</svg>

<g id="navigator" transform="translate(0 0)" fill="#404254">
  <rect fill="#f2f5e9" fill-opacity="0.5" stroke="#606060" stroke-width=".5" x="0" y="0" width="60" height="60"/>
  <use id="zoomplus" xlink:href="#zoomPlus" x="17" y="9" onmousedown="handleZoom(evt,'in')"/>
  <use id="zoomminus" xlink:href="#zoomMin" x="42" y="9" onmousedown="handleZoom(evt,'out')"/>
  <use id="reset" xlink:href="#resetDef" x="30" y="36" onmousedown="handleReset()"/>
   <use id="arrowup" xlink:href="#arrowUp" x="0" y="0" onmousedown="handlePan(0,-1)"/>
  <use id="arrowright" xlink:href="#arrowRight" x="0" y="0" onmousedown="handlePan(1,0)"/>
  <use id="arrowdown" xlink:href="#arrowDown" x="0" y="0" onmousedown="handlePan(0,1)"/>
  <use id="arrowleft" xlink:href="#arrowLeft" x="0" y="0" onmousedown="handlePan(-1,0)"/>
</g>
<svg viewBox="0 0 15 15" width="100%" height="30px" preserveAspectRatio="xMaxYMin meet">
 <g id="arrow_out" transform="scale(0.3 0.3)">
  <a xlink:href="class_a_k_p_t_in_game_mode_ad299e138b605334f03841982928f4e6e_cgraph_org.svg" target="_base">
   <rect id="button" ry="5" rx="5" y="6" x="6" height="38" width="38"
        fill="#f2f5e9" fill-opacity="0.5" stroke="#606060" stroke-width="1.0"/>
   <path id="arrow"
     d="M 11.500037,31.436501 C 11.940474,20.09759 22.043105,11.32322 32.158766,21.979434 L 37.068811,17.246167 C 37.068811,17.246167 37.088388,32 37.088388,32 L 22.160133,31.978069 C 22.160133,31.978069 26.997745,27.140456 26.997745,27.140456 C 18.528582,18.264221 13.291696,25.230495 11.500037,31.436501 z"
     style="fill:#404040;"/>
  </a>
 </g>
</svg>

<style type='text/css'>
<![CDATA[
[data-mouse-over-selected='false'] { opacity: 0.7; }
[data-mouse-over-selected='true']  { opacity: 1.0; }
]]>
</style>
<script type="application/ecmascript"><![CDATA[
document.addEventListener('DOMContentLoaded', (event) => {
  highlightEdges();
  highlightAdjacentNodes();
});
]]></script>
</svg>
