<?xml version="1.0" encoding="UTF-8" standalone="no"?>
<!DOCTYPE svg PUBLIC "-//W3C//DTD SVG 1.1//EN"
 "http://www.w3.org/Graphics/SVG/1.1/DTD/svg11.dtd">
<!-- Generated by graphviz version 13.1.1 (20250719.2154)
 -->
<!-- Title: UStageManagerSubsystem::SetStageDataToSpawner Pages: 1 -->
<svg width="488pt" height="178pt"
 viewBox="0.00 0.00 488.00 178.00" xmlns="http://www.w3.org/2000/svg" xmlns:xlink="http://www.w3.org/1999/xlink">
<g id="graph0" class="graph" transform="scale(1 1) rotate(0) translate(4 174)">
<title>UStageManagerSubsystem::SetStageDataToSpawner</title>
<!-- Node1 -->
<g id="Node000001" class="node">
<title>Node1</title>
<g id="a_Node000001"><a xlink:title=" ">
<polygon fill="#999999" stroke="#666666" points="136,-104 0,-104 0,-72 136,-72 136,-104"/>
<text xml:space="preserve" text-anchor="start" x="8" y="-90.5" font-family="Helvetica,sans-Serif" font-size="10.00">UStageManagerSubsystem</text>
<text xml:space="preserve" text-anchor="middle" x="68" y="-78.5" font-family="Helvetica,sans-Serif" font-size="10.00">::SetStageDataToSpawner</text>
</a>
</g>
</g>
<!-- Node1&#45;&gt;Node1 -->
<g id="edge5_Node000001_Node000001" class="edge">
<title>Node1&#45;&gt;Node1</title>
<g id="a_edge5_Node000001_Node000001"><a xlink:title=" ">
<path fill="none" stroke="#63b8ff" d="M37.29,-104.44C31.56,-113.58 41.8,-122 68,-122 82.33,-122 91.88,-119.48 96.66,-115.71"/>
<polygon fill="#63b8ff" stroke="#63b8ff" points="100.1,-116.4 98.44,-105.93 93.21,-115.15 100.1,-116.4"/>
</a>
</g>
</g>
<!-- Node2 -->
<g id="Node000002" class="node">
<title>Node2</title>
<g id="a_Node000002"><a xlink:href="class_u_stage_manager_subsystem.html#a8386ea09d547e37b0110a5f62dd2fb9d" target="_top" xlink:title=" ">
<polygon fill="white" stroke="#666666" points="308,-170 172,-170 172,-138 308,-138 308,-170"/>
<text xml:space="preserve" text-anchor="start" x="180" y="-156.5" font-family="Helvetica,sans-Serif" font-size="10.00">UStageManagerSubsystem</text>
<text xml:space="preserve" text-anchor="middle" x="240" y="-144.5" font-family="Helvetica,sans-Serif" font-size="10.00">::GetCurrentStageData</text>
</a>
</g>
</g>
<!-- Node1&#45;&gt;Node2 -->
<g id="edge1_Node000001_Node000002" class="edge">
<title>Node1&#45;&gt;Node2</title>
<g id="a_edge1_Node000001_Node000002"><a xlink:title=" ">
<path fill="none" stroke="#63b8ff" d="M111.46,-104.48C134.06,-113.26 162.07,-124.13 186.07,-133.45"/>
<polygon fill="#63b8ff" stroke="#63b8ff" points="184.79,-136.71 195.38,-137.06 187.32,-130.18 184.79,-136.71"/>
</a>
</g>
</g>
<!-- Node3 -->
<g id="Node000003" class="node">
<title>Node3</title>
<g id="a_Node000003"><a xlink:href="class_u_stage_manager_subsystem.html#a1b506743975f481d0cd15a1153f0820d" target="_top" xlink:title=" ">
<polygon fill="white" stroke="#666666" points="480,-104 344,-104 344,-72 480,-72 480,-104"/>
<text xml:space="preserve" text-anchor="start" x="352" y="-90.5" font-family="Helvetica,sans-Serif" font-size="10.00">UStageManagerSubsystem</text>
<text xml:space="preserve" text-anchor="middle" x="412" y="-78.5" font-family="Helvetica,sans-Serif" font-size="10.00">::GetMaxRoundCount</text>
</a>
</g>
</g>
<!-- Node1&#45;&gt;Node3 -->
<g id="edge2_Node000001_Node000003" class="edge">
<title>Node1&#45;&gt;Node3</title>
<g id="a_edge2_Node000001_Node000003"><a xlink:title=" ">
<path fill="none" stroke="#63b8ff" d="M136.31,-90.24C148.2,-90.56 160.46,-90.83 172,-91 232.44,-91.88 247.56,-91.88 308,-91 315.84,-90.89 324.02,-90.72 332.19,-90.53"/>
<polygon fill="#63b8ff" stroke="#63b8ff" points="332.27,-94.03 342.18,-90.28 332.09,-87.03 332.27,-94.03"/>
</a>
</g>
</g>
<!-- Node4 -->
<g id="Node000004" class="node">
<title>Node4</title>
<g id="a_Node000004"><a xlink:href="class_u_stage_manager_subsystem.html#acee67f86b9c712f48829d333b472a58a" target="_top" xlink:title=" ">
<polygon fill="white" stroke="#666666" points="308,-82 172,-82 172,-50 308,-50 308,-82"/>
<text xml:space="preserve" text-anchor="start" x="180" y="-68.5" font-family="Helvetica,sans-Serif" font-size="10.00">UStageManagerSubsystem</text>
<text xml:space="preserve" text-anchor="middle" x="240" y="-56.5" font-family="Helvetica,sans-Serif" font-size="10.00">::IsMaxRound</text>
</a>
</g>
</g>
<!-- Node1&#45;&gt;Node4 -->
<g id="edge3_Node000001_Node000004" class="edge">
<title>Node1&#45;&gt;Node4</title>
<g id="a_edge3_Node000001_Node000004"><a xlink:title=" ">
<path fill="none" stroke="#63b8ff" d="M136.19,-79.31C144.14,-78.28 152.3,-77.22 160.39,-76.17"/>
<polygon fill="#63b8ff" stroke="#63b8ff" points="160.77,-79.65 170.24,-74.9 159.88,-72.71 160.77,-79.65"/>
</a>
</g>
</g>
<!-- Node5 -->
<g id="Node000005" class="node">
<title>Node5</title>
<g id="a_Node000005"><a xlink:href="class_u_stage_manager_subsystem.html#a8a5a0fc89c9effbbb84cb8ea7729d1bc" target="_top" xlink:title=" ">
<polygon fill="white" stroke="#666666" points="308,-32 172,-32 172,0 308,0 308,-32"/>
<text xml:space="preserve" text-anchor="start" x="180" y="-18.5" font-family="Helvetica,sans-Serif" font-size="10.00">UStageManagerSubsystem</text>
<text xml:space="preserve" text-anchor="middle" x="240" y="-6.5" font-family="Helvetica,sans-Serif" font-size="10.00">::StartPhase</text>
</a>
</g>
</g>
<!-- Node1&#45;&gt;Node5 -->
<g id="edge6_Node000001_Node000005" class="edge">
<title>Node1&#45;&gt;Node5</title>
<g id="a_edge6_Node000001_Node000005"><a xlink:title=" ">
<path fill="none" stroke="#63b8ff" d="M103.53,-71.5C123.41,-62.19 148.94,-50.55 172,-41 175.61,-39.51 179.34,-38 183.11,-36.51"/>
<polygon fill="#63b8ff" stroke="#63b8ff" points="184.31,-39.8 192.37,-32.92 181.78,-33.28 184.31,-39.8"/>
</a>
</g>
</g>
<!-- Node4&#45;&gt;Node3 -->
<g id="edge4_Node000004_Node000003" class="edge">
<title>Node4&#45;&gt;Node3</title>
<g id="a_edge4_Node000004_Node000003"><a xlink:title=" ">
<path fill="none" stroke="#63b8ff" d="M308.19,-74.69C316.14,-75.72 324.3,-76.78 332.39,-77.83"/>
<polygon fill="#63b8ff" stroke="#63b8ff" points="331.88,-81.29 342.24,-79.1 332.77,-74.35 331.88,-81.29"/>
</a>
</g>
</g>
</g>
</svg>
