<?xml version="1.0" encoding="UTF-8" standalone="no"?>
<!DOCTYPE svg PUBLIC "-//W3C//DTD SVG 1.1//EN"
 "http://www.w3.org/Graphics/SVG/1.1/DTD/svg11.dtd">
<!-- Generated by graphviz version 13.1.1 (20250719.2154)
 -->
<!-- Title: ADelayProjectileBase::OnGroundHit Pages: 1 -->
<svg width="840pt" height="128pt"
 viewBox="0.00 0.00 840.00 128.00" xmlns="http://www.w3.org/2000/svg" xmlns:xlink="http://www.w3.org/1999/xlink">
<g id="graph0" class="graph" transform="scale(1 1) rotate(0) translate(4 124)">
<title>ADelayProjectileBase::OnGroundHit</title>
<!-- Node1 -->
<g id="Node000001" class="node">
<title>Node1</title>
<g id="a_Node000001"><a xlink:title=" ">
<polygon fill="#999999" stroke="#666666" points="111.25,-70 0,-70 0,-38 111.25,-38 111.25,-70"/>
<text xml:space="preserve" text-anchor="start" x="8" y="-56.5" font-family="Helvetica,sans-Serif" font-size="10.00">ADelayProjectileBase</text>
<text xml:space="preserve" text-anchor="middle" x="55.62" y="-44.5" font-family="Helvetica,sans-Serif" font-size="10.00">::OnGroundHit</text>
</a>
</g>
</g>
<!-- Node1&#45;&gt;Node1 -->
<g id="edge10_Node000001_Node000001" class="edge">
<title>Node1&#45;&gt;Node1</title>
<g id="a_edge10_Node000001_Node000001"><a xlink:title=" ">
<path fill="none" stroke="#63b8ff" d="M26.73,-70.44C21.33,-79.58 30.96,-88 55.62,-88 69.11,-88 78.1,-85.48 82.6,-81.71"/>
<polygon fill="#63b8ff" stroke="#63b8ff" points="86.04,-82.38 84.27,-71.93 79.14,-81.2 86.04,-82.38"/>
</a>
</g>
</g>
<!-- Node2 -->
<g id="Node000002" class="node">
<title>Node2</title>
<g id="a_Node000002"><a xlink:href="class_a_delay_projectile_base.html#ad1e9ceeb62eadddb485f7c448193c862" target="_top" xlink:title=" ">
<polygon fill="white" stroke="#666666" points="273.12,-120 161.88,-120 161.88,-88 273.12,-88 273.12,-120"/>
<text xml:space="preserve" text-anchor="start" x="169.88" y="-106.5" font-family="Helvetica,sans-Serif" font-size="10.00">ADelayProjectileBase</text>
<text xml:space="preserve" text-anchor="middle" x="217.5" y="-94.5" font-family="Helvetica,sans-Serif" font-size="10.00">::CallProcessMultiHit</text>
</a>
</g>
</g>
<!-- Node1&#45;&gt;Node2 -->
<g id="edge1_Node000001_Node000002" class="edge">
<title>Node1&#45;&gt;Node2</title>
<g id="a_edge1_Node000001_Node000002"><a xlink:title=" ">
<path fill="none" stroke="#63b8ff" d="M108.97,-70.37C122.98,-74.75 138.27,-79.54 152.82,-84.08"/>
<polygon fill="#63b8ff" stroke="#63b8ff" points="151.73,-87.41 162.32,-87.05 153.82,-80.73 151.73,-87.41"/>
</a>
</g>
</g>
<!-- Node5 -->
<g id="Node000005" class="node">
<title>Node5</title>
<g id="a_Node000005"><a xlink:href="class_a_projectile_base.html#a183da78e0cee66595989812aec0ff7c9" target="_top" xlink:title=" ">
<polygon fill="white" stroke="#666666" points="287.75,-70 147.25,-70 147.25,-38 287.75,-38 287.75,-70"/>
<text xml:space="preserve" text-anchor="start" x="155.25" y="-56.5" font-family="Helvetica,sans-Serif" font-size="10.00">AProjectileBase::OnCapsule</text>
<text xml:space="preserve" text-anchor="middle" x="217.5" y="-44.5" font-family="Helvetica,sans-Serif" font-size="10.00">BeginOverlap</text>
</a>
</g>
</g>
<!-- Node1&#45;&gt;Node5 -->
<g id="edge4_Node000001_Node000005" class="edge">
<title>Node1&#45;&gt;Node5</title>
<g id="a_edge4_Node000001_Node000005"><a xlink:title=" ">
<path fill="none" stroke="#63b8ff" d="M111.64,-54C119.38,-54 127.46,-54 135.56,-54"/>
<polygon fill="#63b8ff" stroke="#63b8ff" points="135.46,-57.5 145.46,-54 135.46,-50.5 135.46,-57.5"/>
</a>
</g>
</g>
<!-- Node6 -->
<g id="Node000006" class="node">
<title>Node6</title>
<g id="a_Node000006"><a xlink:href="class_a_projectile_base.html#a2276af661735f8971f6af66c6db7633d" target="_top" xlink:title=" ">
<polygon fill="white" stroke="#666666" points="474.75,-26 323.75,-26 323.75,-6 474.75,-6 474.75,-26"/>
<text xml:space="preserve" text-anchor="middle" x="399.25" y="-12.5" font-family="Helvetica,sans-Serif" font-size="10.00">AProjectileBase::ReturnToPool</text>
</a>
</g>
</g>
<!-- Node1&#45;&gt;Node6 -->
<g id="edge11_Node000001_Node000006" class="edge">
<title>Node1&#45;&gt;Node6</title>
<g id="a_edge11_Node000001_Node000006"><a xlink:title=" ">
<path fill="none" stroke="#63b8ff" d="M108.43,-37.63C121.02,-34.23 134.52,-31.06 147.25,-29 201.58,-20.21 263.31,-16.92 311.96,-15.85"/>
<polygon fill="#63b8ff" stroke="#63b8ff" points="311.95,-19.35 321.88,-15.67 311.81,-12.36 311.95,-19.35"/>
</a>
</g>
</g>
<!-- Node3 -->
<g id="Node000003" class="node">
<title>Node3</title>
<g id="a_Node000003"><a xlink:href="class_a_projectile_base.html#a808564bfde8ad88e8379b7d576ed2626" target="_top" xlink:title=" ">
<polygon fill="white" stroke="#666666" points="463.12,-118 335.38,-118 335.38,-86 463.12,-86 463.12,-118"/>
<text xml:space="preserve" text-anchor="start" x="343.38" y="-104.5" font-family="Helvetica,sans-Serif" font-size="10.00">AProjectileBase::Process</text>
<text xml:space="preserve" text-anchor="middle" x="399.25" y="-92.5" font-family="Helvetica,sans-Serif" font-size="10.00">MultiHit</text>
</a>
</g>
</g>
<!-- Node2&#45;&gt;Node3 -->
<g id="edge2_Node000002_Node000003" class="edge">
<title>Node2&#45;&gt;Node3</title>
<g id="a_edge2_Node000002_Node000003"><a xlink:title=" ">
<path fill="none" stroke="#63b8ff" d="M273.41,-103.39C289.26,-103.21 306.84,-103.02 323.67,-102.83"/>
<polygon fill="#63b8ff" stroke="#63b8ff" points="323.71,-106.33 333.67,-102.72 323.63,-99.33 323.71,-106.33"/>
</a>
</g>
</g>
<!-- Node4 -->
<g id="Node000004" class="node">
<title>Node4</title>
<g id="a_Node000004"><a xlink:href="class_a_projectile_base.html#a643fc0b4a82ec643f5d958ec6a30a060" target="_top" xlink:title=" ">
<polygon fill="white" stroke="#666666" points="664,-98 510.75,-98 510.75,-66 664,-66 664,-98"/>
<text xml:space="preserve" text-anchor="start" x="518.75" y="-84.5" font-family="Helvetica,sans-Serif" font-size="10.00">AProjectileBase::ApplyDamage</text>
<text xml:space="preserve" text-anchor="middle" x="587.38" y="-72.5" font-family="Helvetica,sans-Serif" font-size="10.00">ToTarget</text>
</a>
</g>
</g>
<!-- Node3&#45;&gt;Node4 -->
<g id="edge3_Node000003_Node000004" class="edge">
<title>Node3&#45;&gt;Node4</title>
<g id="a_edge3_Node000003_Node000004"><a xlink:title=" ">
<path fill="none" stroke="#63b8ff" d="M463.52,-95.2C474.94,-93.97 487.03,-92.67 499,-91.39"/>
<polygon fill="#63b8ff" stroke="#63b8ff" points="499.33,-94.87 508.9,-90.33 498.58,-87.91 499.33,-94.87"/>
</a>
</g>
</g>
<!-- Node5&#45;&gt;Node4 -->
<g id="edge5_Node000005_Node000004" class="edge">
<title>Node5&#45;&gt;Node4</title>
<g id="a_edge5_Node000005_Node000004"><a xlink:title=" ">
<path fill="none" stroke="#63b8ff" d="M288.13,-59.3C347.96,-63.85 434.54,-70.44 499.01,-75.35"/>
<polygon fill="#63b8ff" stroke="#63b8ff" points="498.63,-78.83 508.87,-76.1 499.16,-71.85 498.63,-78.83"/>
</a>
</g>
</g>
<!-- Node5&#45;&gt;Node6 -->
<g id="edge6_Node000005_Node000006" class="edge">
<title>Node5&#45;&gt;Node6</title>
<g id="a_edge6_Node000005_Node000006"><a xlink:title=" ">
<path fill="none" stroke="#63b8ff" d="M288,-39.31C304.45,-35.83 321.87,-32.15 337.88,-28.76"/>
<polygon fill="#63b8ff" stroke="#63b8ff" points="338.17,-32.28 347.23,-26.79 336.72,-25.43 338.17,-32.28"/>
</a>
</g>
</g>
<!-- Node7 -->
<g id="Node000007" class="node">
<title>Node7</title>
<g id="a_Node000007"><a xlink:href="class_a_projectile_base.html#a56f85c58a5c516ddd3e66fbb115eb20d" target="_top" xlink:title=" ">
<polygon fill="white" stroke="#666666" points="656.88,-32 517.88,-32 517.88,0 656.88,0 656.88,-32"/>
<text xml:space="preserve" text-anchor="start" x="525.88" y="-18.5" font-family="Helvetica,sans-Serif" font-size="10.00">AProjectileBase::Deactivate</text>
<text xml:space="preserve" text-anchor="middle" x="587.38" y="-6.5" font-family="Helvetica,sans-Serif" font-size="10.00">Projectile</text>
</a>
</g>
</g>
<!-- Node6&#45;&gt;Node7 -->
<g id="edge7_Node000006_Node000007" class="edge">
<title>Node6&#45;&gt;Node7</title>
<g id="a_edge7_Node000006_Node000007"><a xlink:title=" ">
<path fill="none" stroke="#63b8ff" d="M475.15,-16C485.35,-16 495.86,-16 506.15,-16"/>
<polygon fill="#63b8ff" stroke="#63b8ff" points="506.13,-19.5 516.13,-16 506.13,-12.5 506.13,-19.5"/>
</a>
</g>
</g>
<!-- Node8 -->
<g id="Node000008" class="node">
<title>Node8</title>
<g id="a_Node000008"><a xlink:href="class_a_projectile_base.html#a76b21edb2d7e6427f03a3be58488ef52" target="_top" xlink:title=" ">
<polygon fill="white" stroke="#666666" points="831.5,-32 700,-32 700,0 831.5,0 831.5,-32"/>
<text xml:space="preserve" text-anchor="start" x="708" y="-18.5" font-family="Helvetica,sans-Serif" font-size="10.00">AProjectileBase::Multicast</text>
<text xml:space="preserve" text-anchor="middle" x="765.75" y="-6.5" font-family="Helvetica,sans-Serif" font-size="10.00">_Deactivate</text>
</a>
</g>
</g>
<!-- Node7&#45;&gt;Node8 -->
<g id="edge8_Node000007_Node000008" class="edge">
<title>Node7&#45;&gt;Node8</title>
<g id="a_edge8_Node000007_Node000008"><a xlink:title=" ">
<path fill="none" stroke="#63b8ff" d="M657.32,-16C667.43,-16 677.9,-16 688.15,-16"/>
<polygon fill="#63b8ff" stroke="#63b8ff" points="688.09,-19.5 698.09,-16 688.09,-12.5 688.09,-19.5"/>
</a>
</g>
</g>
<!-- Node8&#45;&gt;Node8 -->
<g id="edge9_Node000008_Node000008" class="edge">
<title>Node8&#45;&gt;Node8</title>
<g id="a_edge9_Node000008_Node000008"><a xlink:title=" ">
<path fill="none" stroke="#63b8ff" d="M733.91,-32.44C727.96,-41.58 738.58,-50 765.75,-50 780.61,-50 790.52,-47.48 795.48,-43.71"/>
<polygon fill="#63b8ff" stroke="#63b8ff" points="798.91,-44.4 797.32,-33.93 792.03,-43.11 798.91,-44.4"/>
</a>
</g>
</g>
</g>
</svg>
