<?xml version="1.0" encoding="UTF-8" standalone="no"?>
<!DOCTYPE svg PUBLIC "-//W3C//DTD SVG 1.1//EN"
 "http://www.w3.org/Graphics/SVG/1.1/DTD/svg11.dtd">
<!-- Generated by graphviz version 13.1.1 (20250719.2154)
 -->
<!-- Title: UInGameHUD::BindToGameStateDelegates Pages: 1 -->
<svg width="776pt" height="216pt"
 viewBox="0.00 0.00 776.00 216.00" xmlns="http://www.w3.org/2000/svg" xmlns:xlink="http://www.w3.org/1999/xlink">
<g id="graph0" class="graph" transform="scale(1 1) rotate(0) translate(4 212)">
<title>UInGameHUD::BindToGameStateDelegates</title>
<!-- Node1 -->
<g id="Node000001" class="node">
<title>Node1</title>
<g id="a_Node000001"><a xlink:title=" ">
<polygon fill="#999999" stroke="#666666" points="166,-111 0,-111 0,-79 166,-79 166,-111"/>
<text xml:space="preserve" text-anchor="start" x="8" y="-97.5" font-family="Helvetica,sans-Serif" font-size="10.00">UInGameHUD::BindToGameState</text>
<text xml:space="preserve" text-anchor="middle" x="83" y="-85.5" font-family="Helvetica,sans-Serif" font-size="10.00">Delegates</text>
</a>
</g>
</g>
<!-- Node2 -->
<g id="Node000002" class="node">
<title>Node2</title>
<g id="a_Node000002"><a xlink:href="class_u_in_game_h_u_d.html#ab7c7e04ab365d90d164230522904ef06" target="_top" xlink:title=" ">
<polygon fill="white" stroke="#666666" points="389.75,-158 203.5,-158 203.5,-126 389.75,-126 389.75,-158"/>
<text xml:space="preserve" text-anchor="start" x="211.5" y="-144.5" font-family="Helvetica,sans-Serif" font-size="10.00">UInGameHUD::InGamePhaseManager</text>
<text xml:space="preserve" text-anchor="middle" x="296.62" y="-132.5" font-family="Helvetica,sans-Serif" font-size="10.00">ReadyHandle</text>
</a>
</g>
</g>
<!-- Node1&#45;&gt;Node2 -->
<g id="edge1_Node000001_Node000002" class="edge">
<title>Node1&#45;&gt;Node2</title>
<g id="a_edge1_Node000001_Node000002"><a xlink:title=" ">
<path fill="none" stroke="#63b8ff" d="M158.02,-111.44C175.09,-115.23 193.39,-119.29 210.88,-123.18"/>
<polygon fill="#63b8ff" stroke="#63b8ff" points="209.65,-126.49 220.17,-125.24 211.17,-119.66 209.65,-126.49"/>
</a>
</g>
</g>
<!-- Node6 -->
<g id="Node000006" class="node">
<title>Node6</title>
<g id="a_Node000006"><a xlink:href="class_u_in_game_h_u_d.html#ae5432789c54f0fb4c503b8b353c46029" target="_top" xlink:title=" ">
<polygon fill="white" stroke="#666666" points="391.25,-86 202,-86 202,-54 391.25,-54 391.25,-86"/>
<text xml:space="preserve" text-anchor="start" x="210" y="-72.5" font-family="Helvetica,sans-Serif" font-size="10.00">UInGameHUD::TeamStatsComponents</text>
<text xml:space="preserve" text-anchor="middle" x="296.62" y="-60.5" font-family="Helvetica,sans-Serif" font-size="10.00">ReadyHandle</text>
</a>
</g>
</g>
<!-- Node1&#45;&gt;Node6 -->
<g id="edge5_Node000001_Node000006" class="edge">
<title>Node1&#45;&gt;Node6</title>
<g id="a_edge5_Node000001_Node000006"><a xlink:title=" ">
<path fill="none" stroke="#63b8ff" d="M166.43,-85.26C174.31,-84.33 182.38,-83.38 190.45,-82.42"/>
<polygon fill="#63b8ff" stroke="#63b8ff" points="190.81,-85.91 200.33,-81.26 189.99,-78.96 190.81,-85.91"/>
</a>
</g>
</g>
<!-- Node3 -->
<g id="Node000003" class="node">
<title>Node3</title>
<g id="a_Node000003"><a xlink:href="class_u_state_manager_component.html#aa02160df8ceffa37f487dfbdfc8cb2fd" target="_top" xlink:title=" ">
<polygon fill="white" stroke="#666666" points="579.38,-208 444.88,-208 444.88,-176 579.38,-176 579.38,-208"/>
<text xml:space="preserve" text-anchor="start" x="452.88" y="-194.5" font-family="Helvetica,sans-Serif" font-size="10.00">UStateManagerComponent</text>
<text xml:space="preserve" text-anchor="middle" x="512.12" y="-182.5" font-family="Helvetica,sans-Serif" font-size="10.00">::InitialBroadCast</text>
</a>
</g>
</g>
<!-- Node2&#45;&gt;Node3 -->
<g id="edge2_Node000002_Node000003" class="edge">
<title>Node2&#45;&gt;Node3</title>
<g id="a_edge2_Node000002_Node000003"><a xlink:title=" ">
<path fill="none" stroke="#63b8ff" d="M367.83,-158.44C388.84,-163.36 412,-168.78 433.46,-173.81"/>
<polygon fill="#63b8ff" stroke="#63b8ff" points="432.5,-177.18 443.03,-176.05 434.09,-170.36 432.5,-177.18"/>
</a>
</g>
</g>
<!-- Node5 -->
<g id="Node000005" class="node">
<title>Node5</title>
<g id="a_Node000005"><a xlink:href="class_u_in_game_h_u_d.html#a202062936a0a60c05aac96f89709a2cf" target="_top" xlink:title=" ">
<polygon fill="white" stroke="#666666" points="597,-158 427.25,-158 427.25,-126 597,-126 597,-158"/>
<text xml:space="preserve" text-anchor="start" x="435.25" y="-144.5" font-family="Helvetica,sans-Serif" font-size="10.00">UInGameHUD::StateTagsChanged</text>
<text xml:space="preserve" text-anchor="middle" x="512.12" y="-132.5" font-family="Helvetica,sans-Serif" font-size="10.00">SetPhaseText</text>
</a>
</g>
</g>
<!-- Node2&#45;&gt;Node5 -->
<g id="edge4_Node000002_Node000005" class="edge">
<title>Node2&#45;&gt;Node5</title>
<g id="a_edge4_Node000002_Node000005"><a xlink:title=" ">
<path fill="none" stroke="#63b8ff" d="M390.03,-142C398.47,-142 407.04,-142 415.51,-142"/>
<polygon fill="#63b8ff" stroke="#63b8ff" points="415.47,-145.5 425.47,-142 415.47,-138.5 415.47,-145.5"/>
</a>
</g>
</g>
<!-- Node4 -->
<g id="Node000004" class="node">
<title>Node4</title>
<g id="a_Node000004"><a xlink:href="class_u_state_manager_component.html#ac4e405056aaabb201b59d2885dcc22be" target="_top" xlink:title=" ">
<polygon fill="white" stroke="#666666" points="767.5,-208 633,-208 633,-176 767.5,-176 767.5,-208"/>
<text xml:space="preserve" text-anchor="start" x="641" y="-194.5" font-family="Helvetica,sans-Serif" font-size="10.00">UStateManagerComponent</text>
<text xml:space="preserve" text-anchor="middle" x="700.25" y="-182.5" font-family="Helvetica,sans-Serif" font-size="10.00">::OnRep_CurrentStateTags</text>
</a>
</g>
</g>
<!-- Node3&#45;&gt;Node4 -->
<g id="edge3_Node000003_Node000004" class="edge">
<title>Node3&#45;&gt;Node4</title>
<g id="a_edge3_Node000003_Node000004"><a xlink:title=" ">
<path fill="none" stroke="#63b8ff" d="M579.79,-192C593.24,-192 607.49,-192 621.28,-192"/>
<polygon fill="#63b8ff" stroke="#63b8ff" points="621.22,-195.5 631.22,-192 621.22,-188.5 621.22,-195.5"/>
</a>
</g>
</g>
<!-- Node7 -->
<g id="Node000007" class="node">
<title>Node7</title>
<g id="a_Node000007"><a xlink:href="class_u_team_stats_component.html#a02772b4fd5c6a00656403377a0c9ca8d" target="_top" xlink:title=" ">
<polygon fill="white" stroke="#666666" points="572.62,-108 451.62,-108 451.62,-76 572.62,-76 572.62,-108"/>
<text xml:space="preserve" text-anchor="start" x="459.62" y="-94.5" font-family="Helvetica,sans-Serif" font-size="10.00">UTeamStatsComponent</text>
<text xml:space="preserve" text-anchor="middle" x="512.12" y="-82.5" font-family="Helvetica,sans-Serif" font-size="10.00">::BroadcastInitialValues</text>
</a>
</g>
</g>
<!-- Node6&#45;&gt;Node7 -->
<g id="edge6_Node000006_Node000007" class="edge">
<title>Node6&#45;&gt;Node7</title>
<g id="a_edge6_Node000006_Node000007"><a xlink:title=" ">
<path fill="none" stroke="#63b8ff" d="M391.58,-79.68C407.87,-81.36 424.57,-83.08 440.13,-84.68"/>
<polygon fill="#63b8ff" stroke="#63b8ff" points="439.41,-88.13 449.72,-85.67 440.13,-81.17 439.41,-88.13"/>
</a>
</g>
</g>
<!-- Node10 -->
<g id="Node000010" class="node">
<title>Node10</title>
<g id="a_Node000010"><a xlink:href="class_u_in_game_h_u_d.html#a7e1db18a43569f61eaf2b3e499cc4f0d" target="_top" xlink:title=" ">
<polygon fill="white" stroke="#666666" points="579.75,-58 444.5,-58 444.5,-38 579.75,-38 579.75,-58"/>
<text xml:space="preserve" text-anchor="middle" x="512.12" y="-44.5" font-family="Helvetica,sans-Serif" font-size="10.00">UInGameHUD::UpdateExp</text>
</a>
</g>
</g>
<!-- Node6&#45;&gt;Node10 -->
<g id="edge9_Node000006_Node000010" class="edge">
<title>Node6&#45;&gt;Node10</title>
<g id="a_edge9_Node000006_Node000010"><a xlink:title=" ">
<path fill="none" stroke="#63b8ff" d="M391.58,-60.32C405.39,-58.9 419.49,-57.44 432.94,-56.06"/>
<polygon fill="#63b8ff" stroke="#63b8ff" points="432.96,-59.57 442.55,-55.07 432.24,-52.61 432.96,-59.57"/>
</a>
</g>
</g>
<!-- Node11 -->
<g id="Node000011" class="node">
<title>Node11</title>
<g id="a_Node000011"><a xlink:href="class_u_in_game_h_u_d.html#abec8edfbf2a43178d1311adb10cf1f8d" target="_top" xlink:title=" ">
<polygon fill="white" stroke="#666666" points="582.75,-20 441.5,-20 441.5,0 582.75,0 582.75,-20"/>
<text xml:space="preserve" text-anchor="middle" x="512.12" y="-6.5" font-family="Helvetica,sans-Serif" font-size="10.00">UInGameHUD::UpdateLevel</text>
</a>
</g>
</g>
<!-- Node6&#45;&gt;Node11 -->
<g id="edge10_Node000006_Node000011" class="edge">
<title>Node6&#45;&gt;Node11</title>
<g id="a_edge10_Node000006_Node000011"><a xlink:title=" ">
<path fill="none" stroke="#63b8ff" d="M346.28,-53.55C370.48,-45.64 400.25,-36.31 427.25,-29 434.79,-26.96 442.76,-24.95 450.65,-23.06"/>
<polygon fill="#63b8ff" stroke="#63b8ff" points="451.31,-26.5 460.25,-20.81 449.72,-19.69 451.31,-26.5"/>
</a>
</g>
</g>
<!-- Node8 -->
<g id="Node000008" class="node">
<title>Node8</title>
<g id="a_Node000008"><a xlink:href="class_u_team_stats_component.html#a1029e934e4cbbaee54579856de5fc89a" target="_top" xlink:title=" ">
<polygon fill="white" stroke="#666666" points="765.62,-133 634.88,-133 634.88,-101 765.62,-101 765.62,-133"/>
<text xml:space="preserve" text-anchor="start" x="642.88" y="-119.5" font-family="Helvetica,sans-Serif" font-size="10.00">UTeamStatsComponent</text>
<text xml:space="preserve" text-anchor="middle" x="700.25" y="-107.5" font-family="Helvetica,sans-Serif" font-size="10.00">::OnRep_TeamExperience</text>
</a>
</g>
</g>
<!-- Node7&#45;&gt;Node8 -->
<g id="edge7_Node000007_Node000008" class="edge">
<title>Node7&#45;&gt;Node8</title>
<g id="a_edge7_Node000007_Node000008"><a xlink:title=" ">
<path fill="none" stroke="#63b8ff" d="M573.04,-100.05C589.17,-102.21 606.82,-104.59 623.68,-106.85"/>
<polygon fill="#63b8ff" stroke="#63b8ff" points="622.75,-110.26 633.12,-108.12 623.68,-103.32 622.75,-110.26"/>
</a>
</g>
</g>
<!-- Node9 -->
<g id="Node000009" class="node">
<title>Node9</title>
<g id="a_Node000009"><a xlink:href="class_u_team_stats_component.html#a468a4b3491d730096db1e25973108d28" target="_top" xlink:title=" ">
<polygon fill="white" stroke="#666666" points="760.75,-83 639.75,-83 639.75,-51 760.75,-51 760.75,-83"/>
<text xml:space="preserve" text-anchor="start" x="647.75" y="-69.5" font-family="Helvetica,sans-Serif" font-size="10.00">UTeamStatsComponent</text>
<text xml:space="preserve" text-anchor="middle" x="700.25" y="-57.5" font-family="Helvetica,sans-Serif" font-size="10.00">::OnRep_TeamLevel</text>
</a>
</g>
</g>
<!-- Node7&#45;&gt;Node9 -->
<g id="edge8_Node000007_Node000009" class="edge">
<title>Node7&#45;&gt;Node9</title>
<g id="a_edge8_Node000007_Node000009"><a xlink:title=" ">
<path fill="none" stroke="#63b8ff" d="M573.04,-83.95C590.64,-81.59 610.06,-78.98 628.28,-76.53"/>
<polygon fill="#63b8ff" stroke="#63b8ff" points="628.5,-80.03 637.95,-75.23 627.57,-73.1 628.5,-80.03"/>
</a>
</g>
</g>
</g>
</svg>
