<?xml version="1.0" encoding="UTF-8" standalone="no"?>
<!DOCTYPE svg PUBLIC "-//W3C//DTD SVG 1.1//EN"
 "http://www.w3.org/Graphics/SVG/1.1/DTD/svg11.dtd">
<!-- Generated by graphviz version 13.1.1 (20250719.2154)
 -->
<!-- Title: UMainUI::NativeConstruct Pages: 1 -->
<svg width="1036pt" height="157pt"
 viewBox="0.00 0.00 1036.00 157.00" xmlns="http://www.w3.org/2000/svg" xmlns:xlink="http://www.w3.org/1999/xlink">
<g id="graph0" class="graph" transform="scale(1 1) rotate(0) translate(4 153)">
<title>UMainUI::NativeConstruct</title>
<!-- Node1 -->
<g id="Node000001" class="node">
<title>Node1</title>
<g id="a_Node000001"><a xlink:title=" ">
<polygon fill="#999999" stroke="#666666" points="132.25,-111 0,-111 0,-91 132.25,-91 132.25,-111"/>
<text xml:space="preserve" text-anchor="middle" x="66.12" y="-97.5" font-family="Helvetica,sans-Serif" font-size="10.00">UMainUI::NativeConstruct</text>
</a>
</g>
</g>
<!-- Node2 -->
<g id="Node000002" class="node">
<title>Node2</title>
<g id="a_Node000002"><a xlink:href="class_u_main_u_i.html#ad49ab3d178a8f9e6aa0bca8554ce520e" target="_top" xlink:title=" ">
<polygon fill="white" stroke="#666666" points="320.75,-149 169.75,-149 169.75,-129 320.75,-129 320.75,-149"/>
<text xml:space="preserve" text-anchor="middle" x="245.25" y="-135.5" font-family="Helvetica,sans-Serif" font-size="10.00">UMainUI::OnClickedGameQuit</text>
</a>
</g>
</g>
<!-- Node1&#45;&gt;Node2 -->
<g id="edge1_Node000001_Node000002" class="edge">
<title>Node1&#45;&gt;Node2</title>
<g id="a_edge1_Node000001_Node000002"><a xlink:title=" ">
<path fill="none" stroke="#63b8ff" d="M115.99,-111.48C137.19,-116.03 162.22,-121.4 184.51,-126.18"/>
<polygon fill="#63b8ff" stroke="#63b8ff" points="183.55,-129.56 194.06,-128.23 185.02,-122.71 183.55,-129.56"/>
</a>
</g>
</g>
<!-- Node3 -->
<g id="Node000003" class="node">
<title>Node3</title>
<g id="a_Node000003"><a xlink:href="class_u_main_u_i.html#a2fd6fdfa0f3d233fa4a5686c3e573674" target="_top" xlink:title=" ">
<polygon fill="white" stroke="#666666" points="322.25,-111 168.25,-111 168.25,-91 322.25,-91 322.25,-111"/>
<text xml:space="preserve" text-anchor="middle" x="245.25" y="-97.5" font-family="Helvetica,sans-Serif" font-size="10.00">UMainUI::OnClickedGameStart</text>
</a>
</g>
</g>
<!-- Node1&#45;&gt;Node3 -->
<g id="edge2_Node000001_Node000003" class="edge">
<title>Node1&#45;&gt;Node3</title>
<g id="a_edge2_Node000001_Node000003"><a xlink:title=" ">
<path fill="none" stroke="#63b8ff" d="M132.58,-101C140.41,-101 148.51,-101 156.6,-101"/>
<polygon fill="#63b8ff" stroke="#63b8ff" points="156.48,-104.5 166.48,-101 156.48,-97.5 156.48,-104.5"/>
</a>
</g>
</g>
<!-- Node4 -->
<g id="Node000004" class="node">
<title>Node4</title>
<g id="a_Node000004"><a xlink:href="class_u_main_u_i.html#a6158fd9774d8fbbe427df565301fe82a" target="_top" xlink:title=" ">
<polygon fill="white" stroke="#666666" points="314,-73 176.5,-73 176.5,-53 314,-53 314,-73"/>
<text xml:space="preserve" text-anchor="middle" x="245.25" y="-59.5" font-family="Helvetica,sans-Serif" font-size="10.00">UMainUI::OnClickedSetting</text>
</a>
</g>
</g>
<!-- Node1&#45;&gt;Node4 -->
<g id="edge3_Node000001_Node000004" class="edge">
<title>Node1&#45;&gt;Node4</title>
<g id="a_edge3_Node000001_Node000004"><a xlink:title=" ">
<path fill="none" stroke="#63b8ff" d="M115.99,-90.52C137.19,-85.97 162.22,-80.6 184.51,-75.82"/>
<polygon fill="#63b8ff" stroke="#63b8ff" points="185.02,-79.29 194.06,-73.77 183.55,-72.44 185.02,-79.29"/>
</a>
</g>
</g>
<!-- Node5 -->
<g id="Node000005" class="node">
<title>Node5</title>
<g id="a_Node000005"><a xlink:href="class_u_u_i_base.html#a7db928b8721c8dede4954eed8695c0e4" target="_top" xlink:title=" ">
<polygon fill="white" stroke="#666666" points="534,-95 358.25,-95 358.25,-75 534,-75 534,-95"/>
<text xml:space="preserve" text-anchor="middle" x="446.12" y="-81.5" font-family="Helvetica,sans-Serif" font-size="10.00">UUIBase::GetUIManagerSubsystem</text>
</a>
</g>
</g>
<!-- Node4&#45;&gt;Node5 -->
<g id="edge4_Node000004_Node000005" class="edge">
<title>Node4&#45;&gt;Node5</title>
<g id="a_edge4_Node000004_Node000005"><a xlink:title=" ">
<path fill="none" stroke="#63b8ff" d="M314.41,-70.54C324.84,-71.69 335.79,-72.9 346.71,-74.11"/>
<polygon fill="#63b8ff" stroke="#63b8ff" points="346.24,-77.58 356.57,-75.2 347.01,-70.63 346.24,-77.58"/>
</a>
</g>
</g>
<!-- Node6 -->
<g id="Node000006" class="node">
<title>Node6</title>
<g id="a_Node000006"><a xlink:href="class_u_u_i_manager_subsystem.html#a291d9552775bf1843f433b3e363b0543" target="_top" xlink:title=" ">
<polygon fill="white" stroke="#666666" points="506.62,-57 385.62,-57 385.62,-25 506.62,-25 506.62,-57"/>
<text xml:space="preserve" text-anchor="start" x="393.62" y="-43.5" font-family="Helvetica,sans-Serif" font-size="10.00">UUIManagerSubsystem</text>
<text xml:space="preserve" text-anchor="middle" x="446.12" y="-31.5" font-family="Helvetica,sans-Serif" font-size="10.00">::ShowWidget</text>
</a>
</g>
</g>
<!-- Node4&#45;&gt;Node6 -->
<g id="edge5_Node000004_Node000006" class="edge">
<title>Node4&#45;&gt;Node6</title>
<g id="a_edge5_Node000004_Node000006"><a xlink:title=" ">
<path fill="none" stroke="#63b8ff" d="M314.41,-55.46C333.68,-53.33 354.7,-51 374.13,-48.85"/>
<polygon fill="#63b8ff" stroke="#63b8ff" points="374.3,-52.36 383.86,-47.78 373.53,-45.4 374.3,-52.36"/>
</a>
</g>
</g>
<!-- Node7 -->
<g id="Node000007" class="node">
<title>Node7</title>
<g id="a_Node000007"><a xlink:href="class_u_u_i_manager_subsystem.html#ae6e92a8dab7f856443cfe5c4d00b25c9" target="_top" xlink:title=" ">
<polygon fill="white" stroke="#666666" points="691,-82 570,-82 570,-50 691,-50 691,-82"/>
<text xml:space="preserve" text-anchor="start" x="578" y="-68.5" font-family="Helvetica,sans-Serif" font-size="10.00">UUIManagerSubsystem</text>
<text xml:space="preserve" text-anchor="middle" x="630.5" y="-56.5" font-family="Helvetica,sans-Serif" font-size="10.00">::ActivateWidget</text>
</a>
</g>
</g>
<!-- Node6&#45;&gt;Node7 -->
<g id="edge6_Node000006_Node000007" class="edge">
<title>Node6&#45;&gt;Node7</title>
<g id="a_edge6_Node000006_Node000007"><a xlink:title=" ">
<path fill="none" stroke="#63b8ff" d="M507.09,-49.22C523.62,-51.49 541.69,-53.96 558.76,-56.3"/>
<polygon fill="#63b8ff" stroke="#63b8ff" points="557.92,-59.72 568.31,-57.61 558.87,-52.79 557.92,-59.72"/>
</a>
</g>
</g>
<!-- Node10 -->
<g id="Node000010" class="node">
<title>Node10</title>
<g id="a_Node000010"><a xlink:href="class_u_u_i_manager_subsystem.html#af61f694a539b5d427654903bc5944cf0" target="_top" xlink:title=" ">
<polygon fill="white" stroke="#666666" points="691,-32 570,-32 570,0 691,0 691,-32"/>
<text xml:space="preserve" text-anchor="start" x="578" y="-18.5" font-family="Helvetica,sans-Serif" font-size="10.00">UUIManagerSubsystem</text>
<text xml:space="preserve" text-anchor="middle" x="630.5" y="-6.5" font-family="Helvetica,sans-Serif" font-size="10.00">::GetOrCreateWidget</text>
</a>
</g>
</g>
<!-- Node6&#45;&gt;Node10 -->
<g id="edge9_Node000006_Node000010" class="edge">
<title>Node6&#45;&gt;Node10</title>
<g id="a_edge9_Node000006_Node000010"><a xlink:title=" ">
<path fill="none" stroke="#63b8ff" d="M507.09,-32.78C523.62,-30.51 541.69,-28.04 558.76,-25.7"/>
<polygon fill="#63b8ff" stroke="#63b8ff" points="558.87,-29.21 568.31,-24.39 557.92,-22.28 558.87,-29.21"/>
</a>
</g>
</g>
<!-- Node8 -->
<g id="Node000008" class="node">
<title>Node8</title>
<g id="a_Node000008"><a xlink:href="class_u_u_i_manager_subsystem.html#acaac8367f6b3ad4c0509900d7f01b65a" target="_top" xlink:title=" ">
<polygon fill="white" stroke="#666666" points="870.5,-82 727,-82 727,-50 870.5,-50 870.5,-82"/>
<text xml:space="preserve" text-anchor="start" x="735" y="-68.5" font-family="Helvetica,sans-Serif" font-size="10.00">UUIManagerSubsystem</text>
<text xml:space="preserve" text-anchor="middle" x="798.75" y="-56.5" font-family="Helvetica,sans-Serif" font-size="10.00">::UpdateInputModeAndFocus</text>
</a>
</g>
</g>
<!-- Node7&#45;&gt;Node8 -->
<g id="edge7_Node000007_Node000008" class="edge">
<title>Node7&#45;&gt;Node8</title>
<g id="a_edge7_Node000007_Node000008"><a xlink:title=" ">
<path fill="none" stroke="#63b8ff" d="M691.05,-66C698.9,-66 707.06,-66 715.21,-66"/>
<polygon fill="#63b8ff" stroke="#63b8ff" points="715.19,-69.5 725.19,-66 715.19,-62.5 715.19,-69.5"/>
</a>
</g>
</g>
<!-- Node9 -->
<g id="Node000009" class="node">
<title>Node9</title>
<g id="a_Node000009"><a xlink:href="class_u_u_i_manager_subsystem.html#a6c815ab68107e8e616ddb62dd3391d2c" target="_top" xlink:title=" ">
<polygon fill="white" stroke="#666666" points="1027.5,-82 906.5,-82 906.5,-50 1027.5,-50 1027.5,-82"/>
<text xml:space="preserve" text-anchor="start" x="914.5" y="-68.5" font-family="Helvetica,sans-Serif" font-size="10.00">UUIManagerSubsystem</text>
<text xml:space="preserve" text-anchor="middle" x="967" y="-56.5" font-family="Helvetica,sans-Serif" font-size="10.00">::SetUIInputMode</text>
</a>
</g>
</g>
<!-- Node8&#45;&gt;Node9 -->
<g id="edge8_Node000008_Node000009" class="edge">
<title>Node8&#45;&gt;Node9</title>
<g id="a_edge8_Node000008_Node000009"><a xlink:title=" ">
<path fill="none" stroke="#63b8ff" d="M870.74,-66C878.68,-66 886.78,-66 894.73,-66"/>
<polygon fill="#63b8ff" stroke="#63b8ff" points="894.72,-69.5 904.72,-66 894.72,-62.5 894.72,-69.5"/>
</a>
</g>
</g>
</g>
</svg>
