<?xml version="1.0" encoding="UTF-8" standalone="no"?>
<!DOCTYPE svg PUBLIC "-//W3C//DTD SVG 1.1//EN"
 "http://www.w3.org/Graphics/SVG/1.1/DTD/svg11.dtd">
<!-- Generated by graphviz version 13.1.1 (20250719.2154)
 -->
<!-- Title: UActiveAbility_Slash Pages: 1 -->
<svg width="342pt" height="492pt"
 viewBox="0.00 0.00 342.00 492.00" xmlns="http://www.w3.org/2000/svg" xmlns:xlink="http://www.w3.org/1999/xlink">
<g id="graph0" class="graph" transform="scale(1 1) rotate(0) translate(4 488)">
<title>UActiveAbility_Slash</title>
<!-- Node1 -->
<g id="Node000001" class="node">
<title>Node1</title>
<g id="a_Node000001"><a xlink:title=" ">
<polygon fill="#999999" stroke="none" points="333.75,-212 0,-212 0,0 333.75,0 333.75,-212"/>
<text xml:space="preserve" text-anchor="start" x="120.75" y="-198.5" font-family="Helvetica,sans-Serif" font-size="10.00">UActiveAbility_Slash</text>
<text xml:space="preserve" text-anchor="start" x="4.38" y="-182.5" font-family="Helvetica,sans-Serif" font-size="10.00">#</text>
<text xml:space="preserve" text-anchor="start" x="14" y="-182.5" font-family="Helvetica,sans-Serif" font-size="10.00">float BaseDamage</text>
<text xml:space="preserve" text-anchor="start" x="4.38" y="-166.5" font-family="Helvetica,sans-Serif" font-size="10.00">#</text>
<text xml:space="preserve" text-anchor="start" x="14" y="-166.5" font-family="Helvetica,sans-Serif" font-size="10.00">TSubclassOf&lt; UGameplayEffect</text>
<text xml:space="preserve" text-anchor="start" x="14" y="-154.5" font-family="Helvetica,sans-Serif" font-size="10.00"> &gt; PayloadEffectClass</text>
<text xml:space="preserve" text-anchor="start" x="4.38" y="-138.5" font-family="Helvetica,sans-Serif" font-size="10.00">#</text>
<text xml:space="preserve" text-anchor="start" x="14" y="-138.5" font-family="Helvetica,sans-Serif" font-size="10.00">FDetailedSkillData</text>
<text xml:space="preserve" text-anchor="start" x="14" y="-126.5" font-family="Helvetica,sans-Serif" font-size="10.00"> SkillSpawnData</text>
<text xml:space="preserve" text-anchor="start" x="4.38" y="-110.5" font-family="Helvetica,sans-Serif" font-size="10.00">#</text>
<text xml:space="preserve" text-anchor="start" x="14" y="-110.5" font-family="Helvetica,sans-Serif" font-size="10.00">TObjectPtr&lt; UAnimMontage</text>
<text xml:space="preserve" text-anchor="start" x="14" y="-98.5" font-family="Helvetica,sans-Serif" font-size="10.00"> &gt; SlashMontage</text>
<text xml:space="preserve" text-anchor="start" x="4.38" y="-82.5" font-family="Helvetica,sans-Serif" font-size="10.00">#</text>
<text xml:space="preserve" text-anchor="start" x="14" y="-82.5" font-family="Helvetica,sans-Serif" font-size="10.00">TSubclassOf&lt; AProjectile</text>
<text xml:space="preserve" text-anchor="start" x="14" y="-70.5" font-family="Helvetica,sans-Serif" font-size="10.00">Base &gt; SlashProjectileClass</text>
<text xml:space="preserve" text-anchor="start" x="4" y="-54.5" font-family="Helvetica,sans-Serif" font-size="10.00">+</text>
<text xml:space="preserve" text-anchor="start" x="14" y="-54.5" font-family="Helvetica,sans-Serif" font-size="10.00">virtual void ActivateAbility</text>
<text xml:space="preserve" text-anchor="start" x="14" y="-42.5" font-family="Helvetica,sans-Serif" font-size="10.00">(const FGameplayAbilitySpecHandle</text>
<text xml:space="preserve" text-anchor="start" x="14" y="-30.5" font-family="Helvetica,sans-Serif" font-size="10.00"> Handle, const FGameplayAbilityActorInfo</text>
<text xml:space="preserve" text-anchor="start" x="14" y="-18.5" font-family="Helvetica,sans-Serif" font-size="10.00"> *ActorInfo, const FGameplayAbilityActivationInfo</text>
<text xml:space="preserve" text-anchor="start" x="14" y="-6.5" font-family="Helvetica,sans-Serif" font-size="10.00"> ActivationInfo, const FGameplayEventData *TriggerEventData) override</text>
<polygon fill="#666666" stroke="#666666" points="0,-194 0,-194 333.75,-194 333.75,-194 0,-194"/>
<polygon fill="#666666" stroke="#666666" points="0,-66 0,-66 12,-66 12,-66 0,-66"/>
<polygon fill="#666666" stroke="#666666" points="12,-66 12,-66 333.75,-66 333.75,-66 12,-66"/>
<polygon fill="none" stroke="#666666" points="0,0 0,-212 333.75,-212 333.75,0 0,0"/>
</a>
</g>
</g>
<!-- Node2 -->
<g id="Node000002" class="node">
<title>Node2</title>
<g id="a_Node000002"><a xlink:href="class_u_active_ability_base.html" target="_top" xlink:title=" ">
<polygon fill="white" stroke="none" points="284.25,-396 49.5,-396 49.5,-248 284.25,-248 284.25,-396"/>
<text xml:space="preserve" text-anchor="start" x="124.5" y="-382.5" font-family="Helvetica,sans-Serif" font-size="10.00">UActiveAbilityBase</text>
<text xml:space="preserve" text-anchor="start" x="53.5" y="-366.5" font-family="Helvetica,sans-Serif" font-size="10.00">+</text>
<text xml:space="preserve" text-anchor="start" x="63.5" y="-366.5" font-family="Helvetica,sans-Serif" font-size="10.00">float Cooldown</text>
<text xml:space="preserve" text-anchor="start" x="53.5" y="-350.5" font-family="Helvetica,sans-Serif" font-size="10.00">+</text>
<text xml:space="preserve" text-anchor="start" x="63.5" y="-350.5" font-family="Helvetica,sans-Serif" font-size="10.00">FGameplayTag CooldownTag</text>
<text xml:space="preserve" text-anchor="start" x="53.5" y="-334.5" font-family="Helvetica,sans-Serif" font-size="10.00">+</text>
<text xml:space="preserve" text-anchor="start" x="63.5" y="-334.5" font-family="Helvetica,sans-Serif" font-size="10.00">FGameplayTag InputTag</text>
<text xml:space="preserve" text-anchor="start" x="53.5" y="-318.5" font-family="Helvetica,sans-Serif" font-size="10.00">+</text>
<text xml:space="preserve" text-anchor="start" x="63.5" y="-318.5" font-family="Helvetica,sans-Serif" font-size="10.00">FGameplayTag SkillTag</text>
<text xml:space="preserve" text-anchor="start" x="53.88" y="-302.5" font-family="Helvetica,sans-Serif" font-size="10.00">#</text>
<text xml:space="preserve" text-anchor="start" x="63.5" y="-302.5" font-family="Helvetica,sans-Serif" font-size="10.00">virtual void ApplyCooldown</text>
<text xml:space="preserve" text-anchor="start" x="63.5" y="-290.5" font-family="Helvetica,sans-Serif" font-size="10.00">(const FGameplayAbilitySpecHandle</text>
<text xml:space="preserve" text-anchor="start" x="63.5" y="-278.5" font-family="Helvetica,sans-Serif" font-size="10.00"> Handle, const FGameplayAbilityActorInfo</text>
<text xml:space="preserve" text-anchor="start" x="63.5" y="-266.5" font-family="Helvetica,sans-Serif" font-size="10.00"> *ActorInfo, const FGameplayAbilityActivationInfo</text>
<text xml:space="preserve" text-anchor="start" x="63.5" y="-254.5" font-family="Helvetica,sans-Serif" font-size="10.00"> ActivationInfo) const override</text>
<polygon fill="#666666" stroke="#666666" points="49.5,-378 49.5,-378 284.25,-378 284.25,-378 49.5,-378"/>
<polygon fill="#666666" stroke="#666666" points="49.5,-314 49.5,-314 61.5,-314 61.5,-314 49.5,-314"/>
<polygon fill="#666666" stroke="#666666" points="61.5,-314 61.5,-314 284.25,-314 284.25,-314 61.5,-314"/>
<polygon fill="none" stroke="#666666" points="49.5,-248 49.5,-396 284.25,-396 284.25,-248 49.5,-248"/>
</a>
</g>
</g>
<!-- Node2&#45;&gt;Node1 -->
<g id="edge1_Node000001_Node000002" class="edge">
<title>Node2&#45;&gt;Node1</title>
<g id="a_edge1_Node000001_Node000002"><a xlink:title=" ">
<path fill="none" stroke="#63b8ff" d="M166.88,-236.79C166.88,-228.58 166.88,-220.18 166.88,-211.8"/>
<polygon fill="none" stroke="#63b8ff" points="163.38,-236.74 166.88,-246.74 170.38,-236.74 163.38,-236.74"/>
</a>
</g>
</g>
<!-- Node3 -->
<g id="Node000003" class="node">
<title>Node3</title>
<g id="a_Node000003"><a xlink:title=" ">
<polygon fill="white" stroke="none" points="210.25,-484 123.5,-484 123.5,-432 210.25,-432 210.25,-484"/>
<text xml:space="preserve" text-anchor="start" x="127.5" y="-470.5" font-family="Helvetica,sans-Serif" font-size="10.00">UGameplayAbility</text>
<text xml:space="preserve" text-anchor="start" x="165.38" y="-454.5" font-family="Helvetica,sans-Serif" font-size="10.00"> </text>
<text xml:space="preserve" text-anchor="start" x="165.38" y="-438.5" font-family="Helvetica,sans-Serif" font-size="10.00"> </text>
<polygon fill="#666666" stroke="#666666" points="123.5,-466 123.5,-466 210.25,-466 210.25,-466 123.5,-466"/>
<polygon fill="#666666" stroke="#666666" points="123.5,-450 123.5,-450 210.25,-450 210.25,-450 123.5,-450"/>
<polygon fill="none" stroke="#666666" points="123.5,-432 123.5,-484 210.25,-484 210.25,-432 123.5,-432"/>
</a>
</g>
</g>
<!-- Node3&#45;&gt;Node2 -->
<g id="edge2_Node000002_Node000003" class="edge">
<title>Node3&#45;&gt;Node2</title>
<g id="a_edge2_Node000002_Node000003"><a xlink:title=" ">
<path fill="none" stroke="#63b8ff" d="M166.88,-420.61C166.88,-412.87 166.88,-404.44 166.88,-395.88"/>
<polygon fill="none" stroke="#63b8ff" points="163.38,-420.6 166.88,-430.6 170.38,-420.6 163.38,-420.6"/>
</a>
</g>
</g>
</g>
</svg>
