<?xml version="1.0" encoding="UTF-8" standalone="no"?>
<!DOCTYPE svg PUBLIC "-//W3C//DTD SVG 1.1//EN"
 "http://www.w3.org/Graphics/SVG/1.1/DTD/svg11.dtd">
<!-- Generated by graphviz version 13.1.1 (20250719.2154)
 -->
<!-- Title: AProjectileBase::OnActivated_Implementation Pages: 1 -->
<svg width="862pt" height="90pt"
 viewBox="0.00 0.00 862.00 90.00" xmlns="http://www.w3.org/2000/svg" xmlns:xlink="http://www.w3.org/1999/xlink">
<g id="graph0" class="graph" transform="scale(1 1) rotate(0) translate(4 86)">
<title>AProjectileBase::OnActivated_Implementation</title>
<!-- Node1 -->
<g id="Node000001" class="node">
<title>Node1</title>
<g id="a_Node000001"><a xlink:title=" ">
<polygon fill="#999999" stroke="#666666" points="145.75,-57 0,-57 0,-25 145.75,-25 145.75,-57"/>
<text xml:space="preserve" text-anchor="start" x="8" y="-43.5" font-family="Helvetica,sans-Serif" font-size="10.00">AProjectileBase::OnActivated</text>
<text xml:space="preserve" text-anchor="middle" x="72.88" y="-31.5" font-family="Helvetica,sans-Serif" font-size="10.00">_Implementation</text>
</a>
</g>
</g>
<!-- Node2 -->
<g id="Node000002" class="node">
<title>Node2</title>
<g id="a_Node000002"><a xlink:href="class_a_projectile_base.html#a183da78e0cee66595989812aec0ff7c9" target="_top" xlink:title=" ">
<polygon fill="white" stroke="#666666" points="322.25,-32 181.75,-32 181.75,0 322.25,0 322.25,-32"/>
<text xml:space="preserve" text-anchor="start" x="189.75" y="-18.5" font-family="Helvetica,sans-Serif" font-size="10.00">AProjectileBase::OnCapsule</text>
<text xml:space="preserve" text-anchor="middle" x="252" y="-6.5" font-family="Helvetica,sans-Serif" font-size="10.00">BeginOverlap</text>
</a>
</g>
</g>
<!-- Node1&#45;&gt;Node2 -->
<g id="edge1_Node000001_Node000002" class="edge">
<title>Node1&#45;&gt;Node2</title>
<g id="a_edge1_Node000001_Node000002"><a xlink:title=" ">
<path fill="none" stroke="#63b8ff" d="M146.17,-30.8C154.11,-29.68 162.22,-28.53 170.24,-27.4"/>
<polygon fill="#63b8ff" stroke="#63b8ff" points="170.6,-30.88 180.01,-26.02 169.62,-23.95 170.6,-30.88"/>
</a>
</g>
</g>
<!-- Node7 -->
<g id="Node000007" class="node">
<title>Node7</title>
<g id="a_Node000007"><a xlink:href="class_a_projectile_base.html#a808564bfde8ad88e8379b7d576ed2626" target="_top" xlink:title=" ">
<polygon fill="white" stroke="#666666" points="315.88,-82 188.12,-82 188.12,-50 315.88,-50 315.88,-82"/>
<text xml:space="preserve" text-anchor="start" x="196.12" y="-68.5" font-family="Helvetica,sans-Serif" font-size="10.00">AProjectileBase::Process</text>
<text xml:space="preserve" text-anchor="middle" x="252" y="-56.5" font-family="Helvetica,sans-Serif" font-size="10.00">MultiHit</text>
</a>
</g>
</g>
<!-- Node1&#45;&gt;Node7 -->
<g id="edge7_Node000001_Node000007" class="edge">
<title>Node1&#45;&gt;Node7</title>
<g id="a_edge7_Node000001_Node000007"><a xlink:title=" ">
<path fill="none" stroke="#63b8ff" d="M146.17,-51.2C156.18,-52.62 166.48,-54.07 176.52,-55.49"/>
<polygon fill="#63b8ff" stroke="#63b8ff" points="175.84,-58.93 186.24,-56.86 176.82,-52 175.84,-58.93"/>
</a>
</g>
</g>
<!-- Node3 -->
<g id="Node000003" class="node">
<title>Node3</title>
<g id="a_Node000003"><a xlink:href="class_a_projectile_base.html#a643fc0b4a82ec643f5d958ec6a30a060" target="_top" xlink:title=" ">
<polygon fill="white" stroke="#666666" points="511.5,-79 358.25,-79 358.25,-47 511.5,-47 511.5,-79"/>
<text xml:space="preserve" text-anchor="start" x="366.25" y="-65.5" font-family="Helvetica,sans-Serif" font-size="10.00">AProjectileBase::ApplyDamage</text>
<text xml:space="preserve" text-anchor="middle" x="434.88" y="-53.5" font-family="Helvetica,sans-Serif" font-size="10.00">ToTarget</text>
</a>
</g>
</g>
<!-- Node2&#45;&gt;Node3 -->
<g id="edge2_Node000002_Node000003" class="edge">
<title>Node2&#45;&gt;Node3</title>
<g id="a_edge2_Node000002_Node000003"><a xlink:title=" ">
<path fill="none" stroke="#63b8ff" d="M316.26,-32.44C330.31,-36.09 345.31,-39.99 359.75,-43.74"/>
<polygon fill="#63b8ff" stroke="#63b8ff" points="358.63,-47.06 369.18,-46.19 360.39,-40.29 358.63,-47.06"/>
</a>
</g>
</g>
<!-- Node4 -->
<g id="Node000004" class="node">
<title>Node4</title>
<g id="a_Node000004"><a xlink:href="class_a_projectile_base.html#a2276af661735f8971f6af66c6db7633d" target="_top" xlink:title=" ">
<polygon fill="white" stroke="#666666" points="510.38,-26 359.38,-26 359.38,-6 510.38,-6 510.38,-26"/>
<text xml:space="preserve" text-anchor="middle" x="434.88" y="-12.5" font-family="Helvetica,sans-Serif" font-size="10.00">AProjectileBase::ReturnToPool</text>
</a>
</g>
</g>
<!-- Node2&#45;&gt;Node4 -->
<g id="edge3_Node000002_Node000004" class="edge">
<title>Node2&#45;&gt;Node4</title>
<g id="a_edge3_Node000002_Node000004"><a xlink:title=" ">
<path fill="none" stroke="#63b8ff" d="M322.67,-16C330.88,-16 339.33,-16 347.74,-16"/>
<polygon fill="#63b8ff" stroke="#63b8ff" points="347.62,-19.5 357.62,-16 347.62,-12.5 347.62,-19.5"/>
</a>
</g>
</g>
<!-- Node5 -->
<g id="Node000005" class="node">
<title>Node5</title>
<g id="a_Node000005"><a xlink:href="class_a_projectile_base.html#a56f85c58a5c516ddd3e66fbb115eb20d" target="_top" xlink:title=" ">
<polygon fill="white" stroke="#666666" points="686.5,-32 547.5,-32 547.5,0 686.5,0 686.5,-32"/>
<text xml:space="preserve" text-anchor="start" x="555.5" y="-18.5" font-family="Helvetica,sans-Serif" font-size="10.00">AProjectileBase::Deactivate</text>
<text xml:space="preserve" text-anchor="middle" x="617" y="-6.5" font-family="Helvetica,sans-Serif" font-size="10.00">Projectile</text>
</a>
</g>
</g>
<!-- Node4&#45;&gt;Node5 -->
<g id="edge4_Node000004_Node000005" class="edge">
<title>Node4&#45;&gt;Node5</title>
<g id="a_edge4_Node000004_Node000005"><a xlink:title=" ">
<path fill="none" stroke="#63b8ff" d="M510.7,-16C519.01,-16 527.49,-16 535.86,-16"/>
<polygon fill="#63b8ff" stroke="#63b8ff" points="535.66,-19.5 545.66,-16 535.66,-12.5 535.66,-19.5"/>
</a>
</g>
</g>
<!-- Node6 -->
<g id="Node000006" class="node">
<title>Node6</title>
<g id="a_Node000006"><a xlink:href="class_a_projectile_base.html#a76b21edb2d7e6427f03a3be58488ef52" target="_top" xlink:title=" ">
<polygon fill="white" stroke="#666666" points="854,-32 722.5,-32 722.5,0 854,0 854,-32"/>
<text xml:space="preserve" text-anchor="start" x="730.5" y="-18.5" font-family="Helvetica,sans-Serif" font-size="10.00">AProjectileBase::Multicast</text>
<text xml:space="preserve" text-anchor="middle" x="788.25" y="-6.5" font-family="Helvetica,sans-Serif" font-size="10.00">_Deactivate</text>
</a>
</g>
</g>
<!-- Node5&#45;&gt;Node6 -->
<g id="edge5_Node000005_Node000006" class="edge">
<title>Node5&#45;&gt;Node6</title>
<g id="a_edge5_Node000005_Node000006"><a xlink:title=" ">
<path fill="none" stroke="#63b8ff" d="M686.84,-16C694.65,-16 702.64,-16 710.55,-16"/>
<polygon fill="#63b8ff" stroke="#63b8ff" points="710.51,-19.5 720.51,-16 710.51,-12.5 710.51,-19.5"/>
</a>
</g>
</g>
<!-- Node6&#45;&gt;Node6 -->
<g id="edge6_Node000006_Node000006" class="edge">
<title>Node6&#45;&gt;Node6</title>
<g id="a_edge6_Node000006_Node000006"><a xlink:title=" ">
<path fill="none" stroke="#63b8ff" d="M757.68,-32.44C751.97,-41.58 762.16,-50 788.25,-50 802.52,-50 812.03,-47.48 816.79,-43.71"/>
<polygon fill="#63b8ff" stroke="#63b8ff" points="820.22,-44.4 818.55,-33.93 813.33,-43.15 820.22,-44.4"/>
</a>
</g>
</g>
<!-- Node7&#45;&gt;Node3 -->
<g id="edge8_Node000007_Node000003" class="edge">
<title>Node7&#45;&gt;Node3</title>
<g id="a_edge8_Node000007_Node000003"><a xlink:title=" ">
<path fill="none" stroke="#63b8ff" d="M316.26,-64.95C326.03,-64.79 336.27,-64.62 346.45,-64.45"/>
<polygon fill="#63b8ff" stroke="#63b8ff" points="346.45,-67.95 356.39,-64.29 346.33,-60.95 346.45,-67.95"/>
</a>
</g>
</g>
</g>
</svg>
