<?xml version="1.0" encoding="UTF-8" standalone="no"?>
<!DOCTYPE svg PUBLIC "-//W3C//DTD SVG 1.1//EN"
 "http://www.w3.org/Graphics/SVG/1.1/DTD/svg11.dtd">
<!-- Generated by graphviz version 13.1.1 (20250719.2154)
 -->
<!-- Title: AProjectileBase::ProcessMultiHit Pages: 1 -->
<svg width="683pt" height="114pt"
 viewBox="0.00 0.00 683.00 114.00" xmlns="http://www.w3.org/2000/svg" xmlns:xlink="http://www.w3.org/1999/xlink">
<g id="graph0" class="graph" transform="scale(1 1) rotate(0) translate(4 110)">
<title>AProjectileBase::ProcessMultiHit</title>
<!-- Node1 -->
<g id="Node000001" class="node">
<title>Node1</title>
<g id="a_Node000001"><a xlink:title=" ">
<polygon fill="#999999" stroke="#666666" points="675.25,-57 547.5,-57 547.5,-25 675.25,-25 675.25,-57"/>
<text xml:space="preserve" text-anchor="start" x="555.5" y="-43.5" font-family="Helvetica,sans-Serif" font-size="10.00">AProjectileBase::Process</text>
<text xml:space="preserve" text-anchor="middle" x="611.38" y="-31.5" font-family="Helvetica,sans-Serif" font-size="10.00">MultiHit</text>
</a>
</g>
</g>
<!-- Node2 -->
<g id="Node000002" class="node">
<title>Node2</title>
<g id="a_Node000002"><a xlink:href="class_a_delay_projectile_base.html#ad1e9ceeb62eadddb485f7c448193c862" target="_top" xlink:title=" ">
<polygon fill="white" stroke="#666666" points="494.25,-85 383,-85 383,-53 494.25,-53 494.25,-85"/>
<text xml:space="preserve" text-anchor="start" x="391" y="-71.5" font-family="Helvetica,sans-Serif" font-size="10.00">ADelayProjectileBase</text>
<text xml:space="preserve" text-anchor="middle" x="438.62" y="-59.5" font-family="Helvetica,sans-Serif" font-size="10.00">::CallProcessMultiHit</text>
</a>
</g>
</g>
<!-- Node1&#45;&gt;Node2 -->
<g id="edge1_Node000001_Node000002" class="edge">
<title>Node1&#45;&gt;Node2</title>
<g id="a_edge1_Node000001_Node000002"><a xlink:title=" ">
<path fill="none" stroke="#63b8ff" d="M536.19,-53.16C522.22,-55.46 507.85,-57.81 494.59,-59.99"/>
<polygon fill="#63b8ff" stroke="#63b8ff" points="536.48,-56.66 545.79,-51.59 535.35,-49.76 536.48,-56.66"/>
</a>
</g>
</g>
<!-- Node5 -->
<g id="Node000005" class="node">
<title>Node5</title>
<g id="a_Node000005"><a xlink:href="class_a_projectile_base.html#a4af0692f0f34f13e9252c856b34ef20e" target="_top" xlink:title=" ">
<polygon fill="white" stroke="#666666" points="511.5,-32 365.75,-32 365.75,0 511.5,0 511.5,-32"/>
<text xml:space="preserve" text-anchor="start" x="373.75" y="-18.5" font-family="Helvetica,sans-Serif" font-size="10.00">AProjectileBase::OnActivated</text>
<text xml:space="preserve" text-anchor="middle" x="438.62" y="-6.5" font-family="Helvetica,sans-Serif" font-size="10.00">_Implementation</text>
</a>
</g>
</g>
<!-- Node1&#45;&gt;Node5 -->
<g id="edge5_Node000001_Node000005" class="edge">
<title>Node1&#45;&gt;Node5</title>
<g id="a_edge5_Node000001_Node000005"><a xlink:title=" ">
<path fill="none" stroke="#63b8ff" d="M536.08,-30.12C528.08,-28.95 519.95,-27.76 511.97,-26.59"/>
<polygon fill="#63b8ff" stroke="#63b8ff" points="535.38,-33.56 545.78,-31.54 536.39,-26.63 535.38,-33.56"/>
</a>
</g>
</g>
<!-- Node3 -->
<g id="Node000003" class="node">
<title>Node3</title>
<g id="a_Node000003"><a xlink:href="class_a_delay_projectile_base.html#a21e41ef4c2deb55b121b92134fc730ff" target="_top" xlink:title=" ">
<polygon fill="white" stroke="#666666" points="312.5,-88 201.25,-88 201.25,-56 312.5,-56 312.5,-88"/>
<text xml:space="preserve" text-anchor="start" x="209.25" y="-74.5" font-family="Helvetica,sans-Serif" font-size="10.00">ADelayProjectileBase</text>
<text xml:space="preserve" text-anchor="middle" x="256.88" y="-62.5" font-family="Helvetica,sans-Serif" font-size="10.00">::OnGroundHit</text>
</a>
</g>
</g>
<!-- Node2&#45;&gt;Node3 -->
<g id="edge2_Node000002_Node000003" class="edge">
<title>Node2&#45;&gt;Node3</title>
<g id="a_edge2_Node000002_Node000003"><a xlink:title=" ">
<path fill="none" stroke="#63b8ff" d="M371.28,-70.11C352.03,-70.43 331.22,-70.78 312.76,-71.08"/>
<polygon fill="#63b8ff" stroke="#63b8ff" points="371.26,-73.61 381.2,-69.94 371.15,-66.61 371.26,-73.61"/>
</a>
</g>
</g>
<!-- Node3&#45;&gt;Node3 -->
<g id="edge4_Node000003_Node000003" class="edge">
<title>Node3&#45;&gt;Node3</title>
<g id="a_edge4_Node000003_Node000003"><a xlink:title=" ">
<path fill="none" stroke="#63b8ff" d="M287.16,-99.71C282.11,-103.48 272.02,-106 256.88,-106 229.19,-106 218.37,-97.58 224.43,-88.44"/>
<polygon fill="#63b8ff" stroke="#63b8ff" points="290.59,-100.41 289.04,-89.93 283.72,-99.09 290.59,-100.41"/>
</a>
</g>
</g>
<!-- Node4 -->
<g id="Node000004" class="node">
<title>Node4</title>
<g id="a_Node000004"><a xlink:href="class_a_delay_projectile_base.html#a2ee2f7c1e60d44c30e70b862fe60b65e" target="_top" xlink:title=" ">
<polygon fill="white" stroke="#666666" points="148,-88 0,-88 0,-56 148,-56 148,-88"/>
<text xml:space="preserve" text-anchor="start" x="8" y="-74.5" font-family="Helvetica,sans-Serif" font-size="10.00">ADelayProjectileBase</text>
<text xml:space="preserve" text-anchor="middle" x="74" y="-62.5" font-family="Helvetica,sans-Serif" font-size="10.00">::OnActivated_Implementation</text>
</a>
</g>
</g>
<!-- Node3&#45;&gt;Node4 -->
<g id="edge3_Node000003_Node000004" class="edge">
<title>Node3&#45;&gt;Node4</title>
<g id="a_edge3_Node000003_Node000004"><a xlink:title=" ">
<path fill="none" stroke="#63b8ff" d="M189.95,-72C176.41,-72 162.06,-72 148.28,-72"/>
<polygon fill="#63b8ff" stroke="#63b8ff" points="189.6,-75.5 199.6,-72 189.6,-68.5 189.6,-75.5"/>
</a>
</g>
</g>
<!-- Node6 -->
<g id="Node000006" class="node">
<title>Node6</title>
<g id="a_Node000006"><a xlink:href="class_a_projectile_base.html#a98af5749663255a0ea9dbcfb5849fe9b" target="_top" xlink:title=" ">
<polygon fill="white" stroke="#666666" points="329.75,-20 184,-20 184,0 329.75,0 329.75,-20"/>
<text xml:space="preserve" text-anchor="middle" x="256.88" y="-6.5" font-family="Helvetica,sans-Serif" font-size="10.00">AProjectileBase::OnActivated</text>
</a>
</g>
</g>
<!-- Node5&#45;&gt;Node6 -->
<g id="edge6_Node000005_Node000006" class="edge">
<title>Node5&#45;&gt;Node6</title>
<g id="a_edge6_Node000005_Node000006"><a xlink:title=" ">
<path fill="none" stroke="#63b8ff" d="M354.04,-13.21C346.03,-12.94 337.95,-12.67 330.06,-12.41"/>
<polygon fill="#63b8ff" stroke="#63b8ff" points="353.67,-16.7 363.78,-13.53 353.9,-9.7 353.67,-16.7"/>
</a>
</g>
</g>
<!-- Node6&#45;&gt;Node6 -->
<g id="edge7_Node000006_Node000006" class="edge">
<title>Node6&#45;&gt;Node6</title>
<g id="a_edge7_Node000006_Node000006"><a xlink:title=" ">
<path fill="none" stroke="#63b8ff" d="M289.34,-31.11C285.47,-35.14 274.65,-38 256.88,-38 225.28,-38 215.66,-28.98 228,-20.34"/>
<polygon fill="#63b8ff" stroke="#63b8ff" points="292.71,-30.16 286.23,-21.77 286.07,-32.37 292.71,-30.16"/>
</a>
</g>
</g>
</g>
</svg>
