<?xml version="1.0" encoding="UTF-8" standalone="no"?>
<!DOCTYPE svg PUBLIC "-//W3C//DTD SVG 1.1//EN"
 "http://www.w3.org/Graphics/SVG/1.1/DTD/svg11.dtd">
<!-- Generated by graphviz version 13.1.1 (20250719.2154)
 -->
<!-- Title: ACharacterBase::InitializeAbilitySystem Pages: 1 -->
<svg width="341pt" height="78pt"
 viewBox="0.00 0.00 341.00 78.00" xmlns="http://www.w3.org/2000/svg" xmlns:xlink="http://www.w3.org/1999/xlink">
<g id="graph0" class="graph" transform="scale(1 1) rotate(0) translate(4 74)">
<title>ACharacterBase::InitializeAbilitySystem</title>
<!-- Node1 -->
<g id="Node000001" class="node">
<title>Node1</title>
<g id="a_Node000001"><a xlink:title=" ">
<polygon fill="#999999" stroke="#666666" points="130,-48 0,-48 0,-16 130,-16 130,-48"/>
<text xml:space="preserve" text-anchor="start" x="8" y="-34.5" font-family="Helvetica,sans-Serif" font-size="10.00">ACharacterBase::Initialize</text>
<text xml:space="preserve" text-anchor="middle" x="65" y="-22.5" font-family="Helvetica,sans-Serif" font-size="10.00">AbilitySystem</text>
</a>
</g>
</g>
<!-- Node2 -->
<g id="Node000002" class="node">
<title>Node2</title>
<g id="a_Node000002"><a xlink:href="class_a_k_p_t_player_state.html#a3f0fd46533843d108f4569bd68d9b233" target="_top" xlink:title=" ">
<polygon fill="white" stroke="#666666" points="320.38,-70 178.38,-70 178.38,-38 320.38,-38 320.38,-70"/>
<text xml:space="preserve" text-anchor="start" x="186.38" y="-56.5" font-family="Helvetica,sans-Serif" font-size="10.00">AKPTPlayerState::GetAbility</text>
<text xml:space="preserve" text-anchor="middle" x="249.38" y="-44.5" font-family="Helvetica,sans-Serif" font-size="10.00">SystemComponent</text>
</a>
</g>
</g>
<!-- Node1&#45;&gt;Node2 -->
<g id="edge1_Node000001_Node000002" class="edge">
<title>Node1&#45;&gt;Node2</title>
<g id="a_edge1_Node000001_Node000002"><a xlink:title=" ">
<path fill="none" stroke="#63b8ff" d="M130.3,-39.76C142.15,-41.19 154.68,-42.7 166.96,-44.18"/>
<polygon fill="#63b8ff" stroke="#63b8ff" points="166.3,-47.62 176.64,-45.35 167.13,-40.67 166.3,-47.62"/>
</a>
</g>
</g>
<!-- Node3 -->
<g id="Node000003" class="node">
<title>Node3</title>
<g id="a_Node000003"><a xlink:href="class_a_k_p_t_player_state.html#ada4f68af7bd5cdad585719dd13b64e86" target="_top" xlink:title=" ">
<polygon fill="white" stroke="#666666" points="332.75,-20 166,-20 166,0 332.75,0 332.75,-20"/>
<text xml:space="preserve" text-anchor="middle" x="249.38" y="-6.5" font-family="Helvetica,sans-Serif" font-size="10.00">AKPTPlayerState::GetAttributeSet</text>
</a>
</g>
</g>
<!-- Node1&#45;&gt;Node3 -->
<g id="edge2_Node000001_Node000003" class="edge">
<title>Node1&#45;&gt;Node3</title>
<g id="a_edge2_Node000001_Node000003"><a xlink:title=" ">
<path fill="none" stroke="#63b8ff" d="M130.3,-24.24C138.2,-23.29 146.39,-22.3 154.61,-21.31"/>
<polygon fill="#63b8ff" stroke="#63b8ff" points="154.8,-24.81 164.31,-20.14 153.96,-17.86 154.8,-24.81"/>
</a>
</g>
</g>
</g>
</svg>
