<?xml version="1.0" encoding="UTF-8" standalone="no"?>
<!DOCTYPE svg PUBLIC "-//W3C//DTD SVG 1.1//EN"
 "http://www.w3.org/Graphics/SVG/1.1/DTD/svg11.dtd">
<!-- Generated by graphviz version 13.1.1 (20250719.2154)
 -->
<!-- Title: UMovementStrategyBase Pages: 1 -->
<!--zoomable 744 -->

<svg id="main" version="1.1" xmlns="http://www.w3.org/2000/svg" xmlns:xlink="http://www.w3.org/1999/xlink" xml:space="preserve" onload="init(evt)">

<style type="text/css"><![CDATA[
.node, .edge {opacity: 0.7;}
.node.selected, .edge.selected {opacity: 1;}
.edge:hover path { stroke: red; }
.edge:hover polygon { stroke: red; fill: red; }
]]></style>

<defs>
  <circle id="rim" cx="0" cy="0" r="7"/>
  <circle id="rim2" cx="0" cy="0" r="3.5"/>
  <g id="zoomPlus">
    <use xlink:href="#rim" fill="#404040"><set attributeName="fill" to="#808080" begin="zoomplus.mouseover" end="zoomplus.mouseout"/></use>
    <path d="M-4,0h8M0,-4v8" fill="none" stroke="white" stroke-width="1.5" pointer-events="none"/>
  </g>
  <g id="zoomMin">
    <use xlink:href="#rim" fill="#404040"><set attributeName="fill" to="#808080" begin="zoomminus.mouseover" end="zoomminus.mouseout"/></use>
    <path d="M-4,0h8" fill="none" stroke="white" stroke-width="1.5" pointer-events="none"/>
  </g>
  <g id="arrowUp" transform="translate(30 24)">
    <use xlink:href="#rim"/>
    <path pointer-events="none" fill="none" stroke="white" stroke-width="1.5" d="M0,-3.0v7 M-2.5,-0.5L0,-3.0L2.5,-0.5"/>
  </g>
  <g id="arrowRight" transform="rotate(90) translate(36 -43)">
    <use xlink:href="#rim"/>
    <path pointer-events="none" fill="none" stroke="white" stroke-width="1.5" d="M0,-3.0v7 M-2.5,-0.5L0,-3.0L2.5,-0.5"/>
  </g>
  <g id="arrowDown" transform="rotate(180) translate(-30 -48)">
    <use xlink:href="#rim"/>
    <path pointer-events="none" fill="none" stroke="white" stroke-width="1.5" d="M0,-3.0v7 M-2.5,-0.5L0,-3.0L2.5,-0.5"/>
  </g>
  <g id="arrowLeft" transform="rotate(270) translate(-36 17)">
    <use xlink:href="#rim"/>
    <path pointer-events="none" fill="none" stroke="white" stroke-width="1.5" d="M0,-3.0v7 M-2.5,-0.5L0,-3.0L2.5,-0.5"/>
  </g>
  <g id="resetDef">
    <use xlink:href="#rim2" fill="#404040"><set attributeName="fill" to="#808080" begin="reset.mouseover" end="reset.mouseout"/></use>
  </g>
</defs>
<script type="application/ecmascript">
var viewWidth = 380;
var viewHeight = 744;
var sectionId = 'dynsection-0';
</script>
<script type="application/ecmascript" xlink:href="svg.min.js"/>
<svg id="graph" class="graph">
<g id="viewport">
<title>UMovementStrategyBase</title>
<!-- Node1 -->
<g id="Node000001" class="node">
<title>Node1</title>
<g id="a_Node000001"><a xlink:title=" ">
<polygon fill="#999999" stroke="none" points="298,-648 97,-648 97,-284 298,-284 298,-648"/>
<text xml:space="preserve" text-anchor="start" x="141.25" y="-634.5" font-family="Helvetica,sans-Serif" font-size="10.00">UMovementStrategyBase</text>
<text xml:space="preserve" text-anchor="start" x="101.38" y="-618.5" font-family="Helvetica,sans-Serif" font-size="10.00">#</text>
<text xml:space="preserve" text-anchor="start" x="111" y="-618.5" font-family="Helvetica,sans-Serif" font-size="10.00">FDetailedSkillData</text>
<text xml:space="preserve" text-anchor="start" x="111" y="-606.5" font-family="Helvetica,sans-Serif" font-size="10.00"> CalculatedData</text>
<text xml:space="preserve" text-anchor="start" x="101.38" y="-590.5" font-family="Helvetica,sans-Serif" font-size="10.00">#</text>
<text xml:space="preserve" text-anchor="start" x="111" y="-590.5" font-family="Helvetica,sans-Serif" font-size="10.00">int MyIndex</text>
<text xml:space="preserve" text-anchor="start" x="101.38" y="-574.5" font-family="Helvetica,sans-Serif" font-size="10.00">#</text>
<text xml:space="preserve" text-anchor="start" x="111" y="-574.5" font-family="Helvetica,sans-Serif" font-size="10.00">TObjectPtr&lt; AActor</text>
<text xml:space="preserve" text-anchor="start" x="111" y="-562.5" font-family="Helvetica,sans-Serif" font-size="10.00"> &gt; ProjectileOwner</text>
<text xml:space="preserve" text-anchor="start" x="101.38" y="-546.5" font-family="Helvetica,sans-Serif" font-size="10.00">#</text>
<text xml:space="preserve" text-anchor="start" x="111" y="-546.5" font-family="Helvetica,sans-Serif" font-size="10.00">int TotalCount</text>
<text xml:space="preserve" text-anchor="start" x="101" y="-530.5" font-family="Helvetica,sans-Serif" font-size="10.00">+</text>
<text xml:space="preserve" text-anchor="start" x="111" y="-530.5" font-family="Helvetica,sans-Serif" font-size="10.00">UMovementStrategyBase()</text>
<text xml:space="preserve" text-anchor="start" x="101" y="-514.5" font-family="Helvetica,sans-Serif" font-size="10.00">+</text>
<text xml:space="preserve" text-anchor="start" x="111" y="-514.5" font-family="Helvetica,sans-Serif" font-size="10.00">virtual void ActivateStrategy</text>
<text xml:space="preserve" text-anchor="start" x="111" y="-502.5" font-family="Helvetica,sans-Serif" font-size="10.00">(const FDetailedSkillData</text>
<text xml:space="preserve" text-anchor="start" x="111" y="-490.5" font-family="Helvetica,sans-Serif" font-size="10.00"> &amp;InCalculatedData, AActor</text>
<text xml:space="preserve" text-anchor="start" x="111" y="-478.5" font-family="Helvetica,sans-Serif" font-size="10.00"> *NewOwner, int32 InMyIndex,</text>
<text xml:space="preserve" text-anchor="start" x="111" y="-466.5" font-family="Helvetica,sans-Serif" font-size="10.00"> int32 InTotalCount)</text>
<text xml:space="preserve" text-anchor="start" x="101" y="-450.5" font-family="Helvetica,sans-Serif" font-size="10.00">+</text>
<text xml:space="preserve" text-anchor="start" x="111" y="-450.5" font-family="Helvetica,sans-Serif" font-size="10.00">virtual void DeactivateStrategy()</text>
<text xml:space="preserve" text-anchor="start" x="101" y="-434.5" font-family="Helvetica,sans-Serif" font-size="10.00">+</text>
<text xml:space="preserve" text-anchor="start" x="111" y="-434.5" font-family="Helvetica,sans-Serif" font-size="10.00">virtual void Multicast</text>
<text xml:space="preserve" text-anchor="start" x="111" y="-422.5" font-family="Helvetica,sans-Serif" font-size="10.00">_Activate(const FDetailedSkill</text>
<text xml:space="preserve" text-anchor="start" x="111" y="-410.5" font-family="Helvetica,sans-Serif" font-size="10.00">Data &amp;InCalculatedData, AActor</text>
<text xml:space="preserve" text-anchor="start" x="111" y="-398.5" font-family="Helvetica,sans-Serif" font-size="10.00"> *NewOwner, int32 InMyIndex, int32</text>
<text xml:space="preserve" text-anchor="start" x="111" y="-386.5" font-family="Helvetica,sans-Serif" font-size="10.00"> InTotalCount)</text>
<text xml:space="preserve" text-anchor="start" x="101" y="-370.5" font-family="Helvetica,sans-Serif" font-size="10.00">+</text>
<text xml:space="preserve" text-anchor="start" x="111" y="-370.5" font-family="Helvetica,sans-Serif" font-size="10.00">virtual void Multicast</text>
<text xml:space="preserve" text-anchor="start" x="111" y="-358.5" font-family="Helvetica,sans-Serif" font-size="10.00">_Deactivate()</text>
<text xml:space="preserve" text-anchor="start" x="101" y="-342.5" font-family="Helvetica,sans-Serif" font-size="10.00">+</text>
<text xml:space="preserve" text-anchor="start" x="111" y="-342.5" font-family="Helvetica,sans-Serif" font-size="10.00">virtual void TickComponent</text>
<text xml:space="preserve" text-anchor="start" x="111" y="-330.5" font-family="Helvetica,sans-Serif" font-size="10.00">(float DeltaTime, enum ELevelTick</text>
<text xml:space="preserve" text-anchor="start" x="111" y="-318.5" font-family="Helvetica,sans-Serif" font-size="10.00"> TickType, FActorComponentTickFunction</text>
<text xml:space="preserve" text-anchor="start" x="111" y="-306.5" font-family="Helvetica,sans-Serif" font-size="10.00"> *ThisTickFunction) override</text>
<text xml:space="preserve" text-anchor="start" x="101" y="-290.5" font-family="Helvetica,sans-Serif" font-size="10.00">+</text>
<text xml:space="preserve" text-anchor="start" x="111" y="-290.5" font-family="Helvetica,sans-Serif" font-size="10.00">virtual void TriggerFunction()</text>
<polygon fill="#666666" stroke="#666666" points="97,-630 97,-630 298,-630 298,-630 97,-630"/>
<polygon fill="#666666" stroke="#666666" points="97,-542 97,-542 109,-542 109,-542 97,-542"/>
<polygon fill="#666666" stroke="#666666" points="109,-542 109,-542 298,-542 298,-542 109,-542"/>
<polygon fill="none" stroke="#666666" points="97,-284 97,-648 298,-648 298,-284 97,-284"/>
</a>
</g>
</g>
<!-- Node3 -->
<g id="Node000003" class="node">
<title>Node3</title>
<g id="a_Node000003"><a xlink:href="class_u_circle_movement_strategy.html" target="_top" xlink:title=" ">
<polygon fill="white" stroke="none" points="201,-248 0,-248 0,0 201,0 201,-248"/>
<text xml:space="preserve" text-anchor="start" x="42.75" y="-234.5" font-family="Helvetica,sans-Serif" font-size="10.00">UCircleMovementStrategy</text>
<text xml:space="preserve" text-anchor="start" x="99" y="-218.5" font-family="Helvetica,sans-Serif" font-size="10.00"> </text>
<text xml:space="preserve" text-anchor="start" x="4" y="-202.5" font-family="Helvetica,sans-Serif" font-size="10.00">+</text>
<text xml:space="preserve" text-anchor="start" x="14" y="-202.5" font-family="Helvetica,sans-Serif" font-size="10.00">UCircleMovementStrategy()</text>
<text xml:space="preserve" text-anchor="start" x="4" y="-186.5" font-family="Helvetica,sans-Serif" font-size="10.00">+</text>
<text xml:space="preserve" text-anchor="start" x="14" y="-186.5" font-family="Helvetica,sans-Serif" font-size="10.00">virtual void Multicast</text>
<text xml:space="preserve" text-anchor="start" x="14" y="-174.5" font-family="Helvetica,sans-Serif" font-size="10.00">_Activate_Implementation</text>
<text xml:space="preserve" text-anchor="start" x="14" y="-162.5" font-family="Helvetica,sans-Serif" font-size="10.00">(const FDetailedSkillData</text>
<text xml:space="preserve" text-anchor="start" x="14" y="-150.5" font-family="Helvetica,sans-Serif" font-size="10.00"> &amp;InCalculatedData, AActor</text>
<text xml:space="preserve" text-anchor="start" x="14" y="-138.5" font-family="Helvetica,sans-Serif" font-size="10.00"> *NewOwner, int32 InMyIndex,</text>
<text xml:space="preserve" text-anchor="start" x="14" y="-126.5" font-family="Helvetica,sans-Serif" font-size="10.00"> int32 InTotalCount) override</text>
<text xml:space="preserve" text-anchor="start" x="4" y="-110.5" font-family="Helvetica,sans-Serif" font-size="10.00">+</text>
<text xml:space="preserve" text-anchor="start" x="14" y="-110.5" font-family="Helvetica,sans-Serif" font-size="10.00">virtual void Multicast</text>
<text xml:space="preserve" text-anchor="start" x="14" y="-98.5" font-family="Helvetica,sans-Serif" font-size="10.00">_Deactivate_Implementation</text>
<text xml:space="preserve" text-anchor="start" x="14" y="-86.5" font-family="Helvetica,sans-Serif" font-size="10.00">() override</text>
<text xml:space="preserve" text-anchor="start" x="4" y="-70.5" font-family="Helvetica,sans-Serif" font-size="10.00">+</text>
<text xml:space="preserve" text-anchor="start" x="14" y="-70.5" font-family="Helvetica,sans-Serif" font-size="10.00">virtual void TickComponent</text>
<text xml:space="preserve" text-anchor="start" x="14" y="-58.5" font-family="Helvetica,sans-Serif" font-size="10.00">(float DeltaTime, enum ELevelTick</text>
<text xml:space="preserve" text-anchor="start" x="14" y="-46.5" font-family="Helvetica,sans-Serif" font-size="10.00"> TickType, FActorComponentTickFunction</text>
<text xml:space="preserve" text-anchor="start" x="14" y="-34.5" font-family="Helvetica,sans-Serif" font-size="10.00"> *ThisTickFunction) override</text>
<text xml:space="preserve" text-anchor="start" x="4" y="-18.5" font-family="Helvetica,sans-Serif" font-size="10.00">+</text>
<text xml:space="preserve" text-anchor="start" x="14" y="-18.5" font-family="Helvetica,sans-Serif" font-size="10.00">virtual void TriggerFunction</text>
<text xml:space="preserve" text-anchor="start" x="14" y="-6.5" font-family="Helvetica,sans-Serif" font-size="10.00">() override</text>
<polygon fill="#666666" stroke="#666666" points="0,-230 0,-230 201,-230 201,-230 0,-230"/>
<polygon fill="#666666" stroke="#666666" points="0,-214 0,-214 201,-214 201,-214 0,-214"/>
<polygon fill="none" stroke="#666666" points="0,0 0,-248 201,-248 201,0 0,0"/>
</a>
</g>
</g>
<!-- Node1&#45;&gt;Node3 -->
<g id="edge2_Node000001_Node000003" class="edge">
<title>Node1&#45;&gt;Node3</title>
<g id="a_edge2_Node000001_Node000003"><a xlink:title=" ">
<path fill="none" stroke="#63b8ff" d="M142.78,-273.2C140.34,-264.66 137.93,-256.2 135.56,-247.9"/>
<polygon fill="none" stroke="#63b8ff" points="139.35,-273.94 145.46,-282.59 146.08,-272.02 139.35,-273.94"/>
</a>
</g>
</g>
<!-- Node4 -->
<g id="Node000004" class="node">
<title>Node4</title>
<g id="a_Node000004"><a xlink:href="class_u_follow_movement_strategy.html" target="_top" xlink:title=" ">
<polygon fill="white" stroke="none" points="371.62,-188 219.38,-188 219.38,-60 371.62,-60 371.62,-188"/>
<text xml:space="preserve" text-anchor="start" x="236.25" y="-174.5" font-family="Helvetica,sans-Serif" font-size="10.00">UFollowMovementStrategy</text>
<text xml:space="preserve" text-anchor="start" x="294" y="-158.5" font-family="Helvetica,sans-Serif" font-size="10.00"> </text>
<text xml:space="preserve" text-anchor="start" x="223.38" y="-142.5" font-family="Helvetica,sans-Serif" font-size="10.00">+</text>
<text xml:space="preserve" text-anchor="start" x="233.38" y="-142.5" font-family="Helvetica,sans-Serif" font-size="10.00">virtual void ActivateStrategy</text>
<text xml:space="preserve" text-anchor="start" x="233.38" y="-130.5" font-family="Helvetica,sans-Serif" font-size="10.00">(const FDetailedSkillData</text>
<text xml:space="preserve" text-anchor="start" x="233.38" y="-118.5" font-family="Helvetica,sans-Serif" font-size="10.00"> &amp;InCalculatedData, AActor</text>
<text xml:space="preserve" text-anchor="start" x="233.38" y="-106.5" font-family="Helvetica,sans-Serif" font-size="10.00"> *NewOwner, int32 InMyIndex,</text>
<text xml:space="preserve" text-anchor="start" x="233.38" y="-94.5" font-family="Helvetica,sans-Serif" font-size="10.00"> int32 InTotalCount) override</text>
<text xml:space="preserve" text-anchor="start" x="223.38" y="-78.5" font-family="Helvetica,sans-Serif" font-size="10.00">+</text>
<text xml:space="preserve" text-anchor="start" x="233.38" y="-78.5" font-family="Helvetica,sans-Serif" font-size="10.00">virtual void DeactivateStrategy</text>
<text xml:space="preserve" text-anchor="start" x="233.38" y="-66.5" font-family="Helvetica,sans-Serif" font-size="10.00">() override</text>
<polygon fill="#666666" stroke="#666666" points="219.38,-170 219.38,-170 371.62,-170 371.62,-170 219.38,-170"/>
<polygon fill="#666666" stroke="#666666" points="219.38,-154 219.38,-154 371.62,-154 371.62,-154 219.38,-154"/>
<polygon fill="none" stroke="#666666" points="219.38,-60 219.38,-188 371.62,-188 371.62,-60 219.38,-60"/>
</a>
</g>
</g>
<!-- Node1&#45;&gt;Node4 -->
<g id="edge3_Node000001_Node000004" class="edge">
<title>Node1&#45;&gt;Node4</title>
<g id="a_edge3_Node000001_Node000004"><a xlink:title=" ">
<path fill="none" stroke="#63b8ff" d="M252.8,-273.14C261.67,-242.38 270.25,-212.6 277.37,-187.9"/>
<polygon fill="none" stroke="#63b8ff" points="249.48,-272.02 250.08,-282.6 256.21,-273.96 249.48,-272.02"/>
</a>
</g>
</g>
<!-- Node2 -->
<g id="Node000002" class="node">
<title>Node2</title>
<g id="a_Node000002"><a xlink:title=" ">
<polygon fill="white" stroke="none" points="242,-736 153,-736 153,-684 242,-684 242,-736"/>
<text xml:space="preserve" text-anchor="start" x="157" y="-722.5" font-family="Helvetica,sans-Serif" font-size="10.00">UActorComponent</text>
<text xml:space="preserve" text-anchor="start" x="196" y="-706.5" font-family="Helvetica,sans-Serif" font-size="10.00"> </text>
<text xml:space="preserve" text-anchor="start" x="196" y="-690.5" font-family="Helvetica,sans-Serif" font-size="10.00"> </text>
<polygon fill="#666666" stroke="#666666" points="153,-718 153,-718 242,-718 242,-718 153,-718"/>
<polygon fill="#666666" stroke="#666666" points="153,-702 153,-702 242,-702 242,-702 153,-702"/>
<polygon fill="none" stroke="#666666" points="153,-684 153,-736 242,-736 242,-684 153,-684"/>
</a>
</g>
</g>
<!-- Node2&#45;&gt;Node1 -->
<g id="edge1_Node000001_Node000002" class="edge">
<title>Node2&#45;&gt;Node1</title>
<g id="a_edge1_Node000001_Node000002"><a xlink:title=" ">
<path fill="none" stroke="#63b8ff" d="M197.5,-672.65C197.5,-665.17 197.5,-656.82 197.5,-647.89"/>
<polygon fill="none" stroke="#63b8ff" points="194,-672.5 197.5,-682.5 201,-672.5 194,-672.5"/>
</a>
</g>
</g>
</g>
</svg>

<g id="navigator" transform="translate(0 0)" fill="#404254">
  <rect fill="#f2f5e9" fill-opacity="0.5" stroke="#606060" stroke-width=".5" x="0" y="0" width="60" height="60"/>
  <use id="zoomplus" xlink:href="#zoomPlus" x="17" y="9" onmousedown="handleZoom(evt,'in')"/>
  <use id="zoomminus" xlink:href="#zoomMin" x="42" y="9" onmousedown="handleZoom(evt,'out')"/>
  <use id="reset" xlink:href="#resetDef" x="30" y="36" onmousedown="handleReset()"/>
   <use id="arrowup" xlink:href="#arrowUp" x="0" y="0" onmousedown="handlePan(0,-1)"/>
  <use id="arrowright" xlink:href="#arrowRight" x="0" y="0" onmousedown="handlePan(1,0)"/>
  <use id="arrowdown" xlink:href="#arrowDown" x="0" y="0" onmousedown="handlePan(0,1)"/>
  <use id="arrowleft" xlink:href="#arrowLeft" x="0" y="0" onmousedown="handlePan(-1,0)"/>
</g>
<svg viewBox="0 0 15 15" width="100%" height="30px" preserveAspectRatio="xMaxYMin meet">
 <g id="arrow_out" transform="scale(0.3 0.3)">
  <a xlink:href="class_u_movement_strategy_base__inherit__graph_org.svg" target="_base">
   <rect id="button" ry="5" rx="5" y="6" x="6" height="38" width="38"
        fill="#f2f5e9" fill-opacity="0.5" stroke="#606060" stroke-width="1.0"/>
   <path id="arrow"
     d="M 11.500037,31.436501 C 11.940474,20.09759 22.043105,11.32322 32.158766,21.979434 L 37.068811,17.246167 C 37.068811,17.246167 37.088388,32 37.088388,32 L 22.160133,31.978069 C 22.160133,31.978069 26.997745,27.140456 26.997745,27.140456 C 18.528582,18.264221 13.291696,25.230495 11.500037,31.436501 z"
     style="fill:#404040;"/>
  </a>
 </g>
</svg>

<style type='text/css'>
<![CDATA[
[data-mouse-over-selected='false'] { opacity: 0.7; }
[data-mouse-over-selected='true']  { opacity: 1.0; }
]]>
</style>
<script type="application/ecmascript"><![CDATA[
document.addEventListener('DOMContentLoaded', (event) => {
  highlightEdges();
  highlightAdjacentNodes();
});
]]></script>
</svg>
