<?xml version="1.0" encoding="UTF-8" standalone="no"?>
<!DOCTYPE svg PUBLIC "-//W3C//DTD SVG 1.1//EN"
 "http://www.w3.org/Graphics/SVG/1.1/DTD/svg11.dtd">
<!-- Generated by graphviz version 13.1.1 (20250719.2154)
 -->
<!-- Title: UGameplayAbility_TraceBase::CalculateTracePoints Pages: 1 -->
<svg width="888pt" height="58pt"
 viewBox="0.00 0.00 888.00 58.00" xmlns="http://www.w3.org/2000/svg" xmlns:xlink="http://www.w3.org/1999/xlink">
<g id="graph0" class="graph" transform="scale(1 1) rotate(0) translate(4 54)">
<title>UGameplayAbility_TraceBase::CalculateTracePoints</title>
<!-- Node1 -->
<g id="Node000001" class="node">
<title>Node1</title>
<g id="a_Node000001"><a xlink:title=" ">
<polygon fill="#999999" stroke="#666666" points="880.25,-32 733,-32 733,0 880.25,0 880.25,-32"/>
<text xml:space="preserve" text-anchor="start" x="741" y="-18.5" font-family="Helvetica,sans-Serif" font-size="10.00">UGameplayAbility_TraceBase</text>
<text xml:space="preserve" text-anchor="middle" x="806.62" y="-6.5" font-family="Helvetica,sans-Serif" font-size="10.00">::CalculateTracePoints</text>
</a>
</g>
</g>
<!-- Node1&#45;&gt;Node1 -->
<g id="edge1_Node000001_Node000001" class="edge">
<title>Node1&#45;&gt;Node1</title>
<g id="a_edge1_Node000001_Node000001"><a xlink:title=" ">
<path fill="none" stroke="#63b8ff" d="M837.16,-43.71C832.07,-47.48 821.89,-50 806.62,-50 778.71,-50 767.8,-41.58 773.91,-32.44"/>
<polygon fill="#63b8ff" stroke="#63b8ff" points="840.59,-44.41 839.05,-33.93 833.72,-43.08 840.59,-44.41"/>
</a>
</g>
</g>
<!-- Node2 -->
<g id="Node000002" class="node">
<title>Node2</title>
<g id="a_Node000002"><a xlink:href="class_u_gameplay_ability___trace_base.html#a5166fe938f5e822a37e7526d8b95d271" target="_top" xlink:title=" ">
<polygon fill="white" stroke="#666666" points="697,-32 549.75,-32 549.75,0 697,0 697,-32"/>
<text xml:space="preserve" text-anchor="start" x="557.75" y="-18.5" font-family="Helvetica,sans-Serif" font-size="10.00">UGameplayAbility_TraceBase</text>
<text xml:space="preserve" text-anchor="middle" x="623.38" y="-6.5" font-family="Helvetica,sans-Serif" font-size="10.00">::ExecuteTrace</text>
</a>
</g>
</g>
<!-- Node1&#45;&gt;Node2 -->
<g id="edge2_Node000001_Node000002" class="edge">
<title>Node1&#45;&gt;Node2</title>
<g id="a_edge2_Node000001_Node000002"><a xlink:title=" ">
<path fill="none" stroke="#63b8ff" d="M721.44,-16C713.43,-16 705.35,-16 697.46,-16"/>
<polygon fill="#63b8ff" stroke="#63b8ff" points="721.17,-19.5 731.17,-16 721.17,-12.5 721.17,-19.5"/>
</a>
</g>
</g>
<!-- Node3 -->
<g id="Node000003" class="node">
<title>Node3</title>
<g id="a_Node000003"><a xlink:href="class_u_gameplay_ability___boss_rock_drop.html#ae3ea23fe4ff008d87e87ee9fb09eb08f" target="_top" xlink:title=" ">
<polygon fill="white" stroke="#666666" points="513.75,-32 363.5,-32 363.5,0 513.75,0 513.75,-32"/>
<text xml:space="preserve" text-anchor="start" x="371.5" y="-18.5" font-family="Helvetica,sans-Serif" font-size="10.00">UGameplayAbility_BossRock</text>
<text xml:space="preserve" text-anchor="middle" x="438.62" y="-6.5" font-family="Helvetica,sans-Serif" font-size="10.00">Drop::ExecuteSingleRockDrop</text>
</a>
</g>
</g>
<!-- Node2&#45;&gt;Node3 -->
<g id="edge3_Node000002_Node000003" class="edge">
<title>Node2&#45;&gt;Node3</title>
<g id="a_edge3_Node000002_Node000003"><a xlink:title=" ">
<path fill="none" stroke="#63b8ff" d="M538.08,-16C530.05,-16 521.95,-16 514.02,-16"/>
<polygon fill="#63b8ff" stroke="#63b8ff" points="537.85,-19.5 547.85,-16 537.85,-12.5 537.85,-19.5"/>
</a>
</g>
</g>
<!-- Node4 -->
<g id="Node000004" class="node">
<title>Node4</title>
<g id="a_Node000004"><a xlink:href="class_u_gameplay_ability___boss_rock_drop.html#af96f3d05b72995df2afa9a9a9963996f" target="_top" xlink:title=" ">
<polygon fill="white" stroke="#666666" points="327.5,-32 181.75,-32 181.75,0 327.5,0 327.5,-32"/>
<text xml:space="preserve" text-anchor="start" x="189.75" y="-18.5" font-family="Helvetica,sans-Serif" font-size="10.00">UGameplayAbility_BossRock</text>
<text xml:space="preserve" text-anchor="middle" x="254.62" y="-6.5" font-family="Helvetica,sans-Serif" font-size="10.00">Drop::StartSingleDropCycle</text>
</a>
</g>
</g>
<!-- Node3&#45;&gt;Node4 -->
<g id="edge4_Node000003_Node000004" class="edge">
<title>Node3&#45;&gt;Node4</title>
<g id="a_edge4_Node000003_Node000004"><a xlink:title=" ">
<path fill="none" stroke="#63b8ff" d="M351.76,-9.26C343.71,-9.23 335.61,-9.27 327.71,-9.38"/>
<polygon fill="#63b8ff" stroke="#63b8ff" points="351.53,-12.76 361.56,-9.34 351.59,-5.76 351.53,-12.76"/>
</a>
</g>
</g>
<!-- Node4&#45;&gt;Node3 -->
<g id="edge6_Node000004_Node000003" class="edge">
<title>Node4&#45;&gt;Node3</title>
<g id="a_edge6_Node000004_Node000003"><a xlink:title=" ">
<path fill="none" stroke="#63b8ff" d="M338.99,-22.73C347.02,-22.77 355.13,-22.75 363.07,-22.65"/>
<polygon fill="#63b8ff" stroke="#63b8ff" points="339.26,-19.23 329.22,-22.63 339.19,-26.23 339.26,-19.23"/>
</a>
</g>
</g>
<!-- Node5 -->
<g id="Node000005" class="node">
<title>Node5</title>
<g id="a_Node000005"><a xlink:href="class_u_gameplay_ability___boss_rock_drop.html#ae20c146f70f4656b0bad279aee6ed5bd" target="_top" xlink:title=" ">
<polygon fill="white" stroke="#666666" points="145.75,-32 0,-32 0,0 145.75,0 145.75,-32"/>
<text xml:space="preserve" text-anchor="start" x="8" y="-18.5" font-family="Helvetica,sans-Serif" font-size="10.00">UGameplayAbility_BossRock</text>
<text xml:space="preserve" text-anchor="middle" x="72.88" y="-6.5" font-family="Helvetica,sans-Serif" font-size="10.00">Drop::ActivateAbility</text>
</a>
</g>
</g>
<!-- Node4&#45;&gt;Node5 -->
<g id="edge5_Node000004_Node000005" class="edge">
<title>Node4&#45;&gt;Node5</title>
<g id="a_edge5_Node000004_Node000005"><a xlink:title=" ">
<path fill="none" stroke="#63b8ff" d="M170.04,-16C162.03,-16 153.95,-16 146.06,-16"/>
<polygon fill="#63b8ff" stroke="#63b8ff" points="169.78,-19.5 179.78,-16 169.78,-12.5 169.78,-19.5"/>
</a>
</g>
</g>
</g>
</svg>
