<?xml version="1.0" encoding="UTF-8" standalone="no"?>
<!DOCTYPE svg PUBLIC "-//W3C//DTD SVG 1.1//EN"
 "http://www.w3.org/Graphics/SVG/1.1/DTD/svg11.dtd">
<!-- Generated by graphviz version 13.1.1 (20250719.2154)
 -->
<!-- Title: UItemAbility Pages: 1 -->
<svg width="692pt" height="584pt"
 viewBox="0.00 0.00 692.00 584.00" xmlns="http://www.w3.org/2000/svg" xmlns:xlink="http://www.w3.org/1999/xlink">
<g id="graph0" class="graph" transform="scale(1 1) rotate(0) translate(4 580)">
<title>UItemAbility</title>
<!-- Node1 -->
<g id="Node000001" class="node">
<title>Node1</title>
<g id="a_Node000001"><a xlink:title=" ">
<polygon fill="#999999" stroke="none" points="508.75,-488 175,-488 175,-240 508.75,-240 508.75,-488"/>
<text xml:space="preserve" text-anchor="start" x="314.88" y="-474.5" font-family="Helvetica,sans-Serif" font-size="10.00">UItemAbility</text>
<text xml:space="preserve" text-anchor="start" x="179.38" y="-458.5" font-family="Helvetica,sans-Serif" font-size="10.00">#</text>
<text xml:space="preserve" text-anchor="start" x="189" y="-458.5" font-family="Helvetica,sans-Serif" font-size="10.00">int32 AbilityCount</text>
<text xml:space="preserve" text-anchor="start" x="179.38" y="-442.5" font-family="Helvetica,sans-Serif" font-size="10.00">#</text>
<text xml:space="preserve" text-anchor="start" x="189" y="-442.5" font-family="Helvetica,sans-Serif" font-size="10.00">TArray&lt; FActiveGameplayEffect</text>
<text xml:space="preserve" text-anchor="start" x="189" y="-430.5" font-family="Helvetica,sans-Serif" font-size="10.00">Handle &gt; AffectEffectHandles</text>
<text xml:space="preserve" text-anchor="start" x="179.38" y="-414.5" font-family="Helvetica,sans-Serif" font-size="10.00">#</text>
<text xml:space="preserve" text-anchor="start" x="189" y="-414.5" font-family="Helvetica,sans-Serif" font-size="10.00">TSubclassOf&lt; UGameplayEffect</text>
<text xml:space="preserve" text-anchor="start" x="189" y="-402.5" font-family="Helvetica,sans-Serif" font-size="10.00"> &gt; HpUpgrade</text>
<text xml:space="preserve" text-anchor="start" x="179" y="-386.5" font-family="Helvetica,sans-Serif" font-size="10.00">+</text>
<text xml:space="preserve" text-anchor="start" x="189" y="-386.5" font-family="Helvetica,sans-Serif" font-size="10.00">UItemAbility()</text>
<text xml:space="preserve" text-anchor="start" x="179.38" y="-370.5" font-family="Helvetica,sans-Serif" font-size="10.00">#</text>
<text xml:space="preserve" text-anchor="start" x="189" y="-370.5" font-family="Helvetica,sans-Serif" font-size="10.00">virtual void ActivateAbility</text>
<text xml:space="preserve" text-anchor="start" x="189" y="-358.5" font-family="Helvetica,sans-Serif" font-size="10.00">(const FGameplayAbilitySpecHandle</text>
<text xml:space="preserve" text-anchor="start" x="189" y="-346.5" font-family="Helvetica,sans-Serif" font-size="10.00"> Handle, const FGameplayAbilityActorInfo</text>
<text xml:space="preserve" text-anchor="start" x="189" y="-334.5" font-family="Helvetica,sans-Serif" font-size="10.00"> *ActorInfo, const FGameplayAbilityActivationInfo</text>
<text xml:space="preserve" text-anchor="start" x="189" y="-322.5" font-family="Helvetica,sans-Serif" font-size="10.00"> ActivationInfo, const FGameplayEventData *TriggerEventData) override</text>
<text xml:space="preserve" text-anchor="start" x="179.38" y="-306.5" font-family="Helvetica,sans-Serif" font-size="10.00">#</text>
<text xml:space="preserve" text-anchor="start" x="189" y="-306.5" font-family="Helvetica,sans-Serif" font-size="10.00">virtual void EndAbility</text>
<text xml:space="preserve" text-anchor="start" x="189" y="-294.5" font-family="Helvetica,sans-Serif" font-size="10.00">(const FGameplayAbilitySpecHandle</text>
<text xml:space="preserve" text-anchor="start" x="189" y="-282.5" font-family="Helvetica,sans-Serif" font-size="10.00"> Handle, const FGameplayAbilityActorInfo</text>
<text xml:space="preserve" text-anchor="start" x="189" y="-270.5" font-family="Helvetica,sans-Serif" font-size="10.00"> *ActorInfo, const FGameplayAbilityActivationInfo</text>
<text xml:space="preserve" text-anchor="start" x="189" y="-258.5" font-family="Helvetica,sans-Serif" font-size="10.00"> ActivationInfo, bool bReplicateEndAbility,</text>
<text xml:space="preserve" text-anchor="start" x="189" y="-246.5" font-family="Helvetica,sans-Serif" font-size="10.00"> bool bWasCancelled) override</text>
<polygon fill="#666666" stroke="#666666" points="175,-470 175,-470 508.75,-470 508.75,-470 175,-470"/>
<polygon fill="#666666" stroke="#666666" points="175,-398 175,-398 187,-398 187,-398 175,-398"/>
<polygon fill="#666666" stroke="#666666" points="187,-398 187,-398 508.75,-398 508.75,-398 187,-398"/>
<polygon fill="none" stroke="#666666" points="175,-240 175,-488 508.75,-488 508.75,-240 175,-240"/>
</a>
</g>
</g>
<!-- Node3 -->
<g id="Node000003" class="node">
<title>Node3</title>
<g id="a_Node000003"><a xlink:href="class_u_flame_emblem_ability.html" target="_top" xlink:title=" ">
<polygon fill="white" stroke="none" points="333.75,-204 0,-204 0,0 333.75,0 333.75,-204"/>
<text xml:space="preserve" text-anchor="start" x="118.12" y="-190.5" font-family="Helvetica,sans-Serif" font-size="10.00">UFlameEmblemAbility</text>
<text xml:space="preserve" text-anchor="start" x="4.38" y="-174.5" font-family="Helvetica,sans-Serif" font-size="10.00">#</text>
<text xml:space="preserve" text-anchor="start" x="14" y="-174.5" font-family="Helvetica,sans-Serif" font-size="10.00">TSubclassOf&lt; UGameplayEffect</text>
<text xml:space="preserve" text-anchor="start" x="14" y="-162.5" font-family="Helvetica,sans-Serif" font-size="10.00"> &gt; FlameEffect</text>
<text xml:space="preserve" text-anchor="start" x="4" y="-146.5" font-family="Helvetica,sans-Serif" font-size="10.00">+</text>
<text xml:space="preserve" text-anchor="start" x="14" y="-146.5" font-family="Helvetica,sans-Serif" font-size="10.00">UFlameEmblemAbility()</text>
<text xml:space="preserve" text-anchor="start" x="4.38" y="-130.5" font-family="Helvetica,sans-Serif" font-size="10.00">#</text>
<text xml:space="preserve" text-anchor="start" x="14" y="-130.5" font-family="Helvetica,sans-Serif" font-size="10.00">virtual void ActivateAbility</text>
<text xml:space="preserve" text-anchor="start" x="14" y="-118.5" font-family="Helvetica,sans-Serif" font-size="10.00">(const FGameplayAbilitySpecHandle</text>
<text xml:space="preserve" text-anchor="start" x="14" y="-106.5" font-family="Helvetica,sans-Serif" font-size="10.00"> Handle, const FGameplayAbilityActorInfo</text>
<text xml:space="preserve" text-anchor="start" x="14" y="-94.5" font-family="Helvetica,sans-Serif" font-size="10.00"> *ActorInfo, const FGameplayAbilityActivationInfo</text>
<text xml:space="preserve" text-anchor="start" x="14" y="-82.5" font-family="Helvetica,sans-Serif" font-size="10.00"> ActivationInfo, const FGameplayEventData *TriggerEventData) override</text>
<text xml:space="preserve" text-anchor="start" x="4.38" y="-66.5" font-family="Helvetica,sans-Serif" font-size="10.00">#</text>
<text xml:space="preserve" text-anchor="start" x="14" y="-66.5" font-family="Helvetica,sans-Serif" font-size="10.00">virtual void EndAbility</text>
<text xml:space="preserve" text-anchor="start" x="14" y="-54.5" font-family="Helvetica,sans-Serif" font-size="10.00">(const FGameplayAbilitySpecHandle</text>
<text xml:space="preserve" text-anchor="start" x="14" y="-42.5" font-family="Helvetica,sans-Serif" font-size="10.00"> Handle, const FGameplayAbilityActorInfo</text>
<text xml:space="preserve" text-anchor="start" x="14" y="-30.5" font-family="Helvetica,sans-Serif" font-size="10.00"> *ActorInfo, const FGameplayAbilityActivationInfo</text>
<text xml:space="preserve" text-anchor="start" x="14" y="-18.5" font-family="Helvetica,sans-Serif" font-size="10.00"> ActivationInfo, bool bReplicateEndAbility,</text>
<text xml:space="preserve" text-anchor="start" x="14" y="-6.5" font-family="Helvetica,sans-Serif" font-size="10.00"> bool bWasCancelled) override</text>
<polygon fill="#666666" stroke="#666666" points="0,-186 0,-186 333.75,-186 333.75,-186 0,-186"/>
<polygon fill="#666666" stroke="#666666" points="0,-158 0,-158 12,-158 12,-158 0,-158"/>
<polygon fill="#666666" stroke="#666666" points="12,-158 12,-158 333.75,-158 333.75,-158 12,-158"/>
<polygon fill="none" stroke="#666666" points="0,0 0,-204 333.75,-204 333.75,0 0,0"/>
</a>
</g>
</g>
<!-- Node1&#45;&gt;Node3 -->
<g id="edge2_Node000001_Node000003" class="edge">
<title>Node1&#45;&gt;Node3</title>
<g id="a_edge2_Node000001_Node000003"><a xlink:title=" ">
<path fill="none" stroke="#63b8ff" d="M252.87,-230.77C246.76,-221.68 240.65,-212.61 234.67,-203.73"/>
<polygon fill="none" stroke="#63b8ff" points="249.91,-232.64 258.4,-238.98 255.72,-228.73 249.91,-232.64"/>
</a>
</g>
</g>
<!-- Node4 -->
<g id="Node000004" class="node">
<title>Node4</title>
<g id="a_Node000004"><a xlink:href="class_u_stack_item_ability.html" target="_top" xlink:title=" ">
<polygon fill="white" stroke="none" points="684.38,-196 351.38,-196 351.38,-8 684.38,-8 684.38,-196"/>
<text xml:space="preserve" text-anchor="start" x="478.12" y="-182.5" font-family="Helvetica,sans-Serif" font-size="10.00">UStackItemAbility</text>
<text xml:space="preserve" text-anchor="start" x="355.38" y="-166.5" font-family="Helvetica,sans-Serif" font-size="10.00">#</text>
<text xml:space="preserve" text-anchor="start" x="364.62" y="-166.5" font-family="Helvetica,sans-Serif" font-size="10.00">TSubclassOf&lt; UGameplayEffect</text>
<text xml:space="preserve" text-anchor="start" x="364.62" y="-154.5" font-family="Helvetica,sans-Serif" font-size="10.00"> &gt; BuffEffect</text>
<text xml:space="preserve" text-anchor="start" x="355.38" y="-138.5" font-family="Helvetica,sans-Serif" font-size="10.00">#</text>
<text xml:space="preserve" text-anchor="start" x="364.62" y="-138.5" font-family="Helvetica,sans-Serif" font-size="10.00">virtual void ActivateAbility</text>
<text xml:space="preserve" text-anchor="start" x="364.62" y="-126.5" font-family="Helvetica,sans-Serif" font-size="10.00">(const FGameplayAbilitySpecHandle</text>
<text xml:space="preserve" text-anchor="start" x="364.62" y="-114.5" font-family="Helvetica,sans-Serif" font-size="10.00"> Handle, const FGameplayAbilityActorInfo</text>
<text xml:space="preserve" text-anchor="start" x="364.62" y="-102.5" font-family="Helvetica,sans-Serif" font-size="10.00"> *ActorInfo, const FGameplayAbilityActivationInfo</text>
<text xml:space="preserve" text-anchor="start" x="364.62" y="-90.5" font-family="Helvetica,sans-Serif" font-size="10.00"> ActivationInfo, const FGameplayEventData *TriggerEventData) override</text>
<text xml:space="preserve" text-anchor="start" x="355.38" y="-74.5" font-family="Helvetica,sans-Serif" font-size="10.00">#</text>
<text xml:space="preserve" text-anchor="start" x="364.62" y="-74.5" font-family="Helvetica,sans-Serif" font-size="10.00">virtual void EndAbility</text>
<text xml:space="preserve" text-anchor="start" x="364.62" y="-62.5" font-family="Helvetica,sans-Serif" font-size="10.00">(const FGameplayAbilitySpecHandle</text>
<text xml:space="preserve" text-anchor="start" x="364.62" y="-50.5" font-family="Helvetica,sans-Serif" font-size="10.00"> Handle, const FGameplayAbilityActorInfo</text>
<text xml:space="preserve" text-anchor="start" x="364.62" y="-38.5" font-family="Helvetica,sans-Serif" font-size="10.00"> *ActorInfo, const FGameplayAbilityActivationInfo</text>
<text xml:space="preserve" text-anchor="start" x="364.62" y="-26.5" font-family="Helvetica,sans-Serif" font-size="10.00"> ActivationInfo, bool bReplicateEndAbility,</text>
<text xml:space="preserve" text-anchor="start" x="364.62" y="-14.5" font-family="Helvetica,sans-Serif" font-size="10.00"> bool bWasCancelled) override</text>
<polygon fill="#666666" stroke="#666666" points="351.38,-178 351.38,-178 684.38,-178 684.38,-178 351.38,-178"/>
<polygon fill="#666666" stroke="#666666" points="351.38,-150 351.38,-150 362.62,-150 362.62,-150 351.38,-150"/>
<polygon fill="#666666" stroke="#666666" points="362.62,-150 362.62,-150 684.38,-150 684.38,-150 362.62,-150"/>
<polygon fill="none" stroke="#666666" points="351.38,-8 351.38,-196 684.38,-196 684.38,-8 351.38,-8"/>
</a>
</g>
</g>
<!-- Node1&#45;&gt;Node4 -->
<g id="edge3_Node000001_Node000004" class="edge">
<title>Node1&#45;&gt;Node4</title>
<g id="a_edge3_Node000001_Node000004"><a xlink:title=" ">
<path fill="none" stroke="#63b8ff" d="M431.41,-230.74C439.42,-218.9 447.42,-207.08 455.14,-195.68"/>
<polygon fill="none" stroke="#63b8ff" points="428.53,-228.74 425.83,-238.98 434.33,-232.66 428.53,-228.74"/>
</a>
</g>
</g>
<!-- Node2 -->
<g id="Node000002" class="node">
<title>Node2</title>
<g id="a_Node000002"><a xlink:title=" ">
<polygon fill="white" stroke="none" points="385.25,-576 298.5,-576 298.5,-524 385.25,-524 385.25,-576"/>
<text xml:space="preserve" text-anchor="start" x="302.5" y="-562.5" font-family="Helvetica,sans-Serif" font-size="10.00">UGameplayAbility</text>
<text xml:space="preserve" text-anchor="start" x="340.38" y="-546.5" font-family="Helvetica,sans-Serif" font-size="10.00"> </text>
<text xml:space="preserve" text-anchor="start" x="340.38" y="-530.5" font-family="Helvetica,sans-Serif" font-size="10.00"> </text>
<polygon fill="#666666" stroke="#666666" points="298.5,-558 298.5,-558 385.25,-558 385.25,-558 298.5,-558"/>
<polygon fill="#666666" stroke="#666666" points="298.5,-542 298.5,-542 385.25,-542 385.25,-542 298.5,-542"/>
<polygon fill="none" stroke="#666666" points="298.5,-524 298.5,-576 385.25,-576 385.25,-524 298.5,-524"/>
</a>
</g>
</g>
<!-- Node2&#45;&gt;Node1 -->
<g id="edge1_Node000001_Node000002" class="edge">
<title>Node2&#45;&gt;Node1</title>
<g id="a_edge1_Node000001_Node000002"><a xlink:title=" ">
<path fill="none" stroke="#63b8ff" d="M341.88,-512.86C341.88,-505.18 341.88,-496.67 341.88,-487.71"/>
<polygon fill="none" stroke="#63b8ff" points="338.38,-512.67 341.88,-522.67 345.38,-512.67 338.38,-512.67"/>
</a>
</g>
</g>
</g>
</svg>
