<?xml version="1.0" encoding="UTF-8" standalone="no"?>
<!DOCTYPE svg PUBLIC "-//W3C//DTD SVG 1.1//EN"
 "http://www.w3.org/Graphics/SVG/1.1/DTD/svg11.dtd">
<!-- Generated by graphviz version 13.1.1 (20250719.2154)
 -->
<!-- Title: AKPTInGameMode::InitiatePhaseTransition Pages: 1 -->
<!--zoomable 204 -->

<svg id="main" version="1.1" xmlns="http://www.w3.org/2000/svg" xmlns:xlink="http://www.w3.org/1999/xlink" xml:space="preserve" onload="init(evt)">

<style type="text/css"><![CDATA[
.node, .edge {opacity: 0.7;}
.node.selected, .edge.selected {opacity: 1;}
.edge:hover path { stroke: red; }
.edge:hover polygon { stroke: red; fill: red; }
]]></style>

<defs>
  <circle id="rim" cx="0" cy="0" r="7"/>
  <circle id="rim2" cx="0" cy="0" r="3.5"/>
  <g id="zoomPlus">
    <use xlink:href="#rim" fill="#404040"><set attributeName="fill" to="#808080" begin="zoomplus.mouseover" end="zoomplus.mouseout"/></use>
    <path d="M-4,0h8M0,-4v8" fill="none" stroke="white" stroke-width="1.5" pointer-events="none"/>
  </g>
  <g id="zoomMin">
    <use xlink:href="#rim" fill="#404040"><set attributeName="fill" to="#808080" begin="zoomminus.mouseover" end="zoomminus.mouseout"/></use>
    <path d="M-4,0h8" fill="none" stroke="white" stroke-width="1.5" pointer-events="none"/>
  </g>
  <g id="arrowUp" transform="translate(30 24)">
    <use xlink:href="#rim"/>
    <path pointer-events="none" fill="none" stroke="white" stroke-width="1.5" d="M0,-3.0v7 M-2.5,-0.5L0,-3.0L2.5,-0.5"/>
  </g>
  <g id="arrowRight" transform="rotate(90) translate(36 -43)">
    <use xlink:href="#rim"/>
    <path pointer-events="none" fill="none" stroke="white" stroke-width="1.5" d="M0,-3.0v7 M-2.5,-0.5L0,-3.0L2.5,-0.5"/>
  </g>
  <g id="arrowDown" transform="rotate(180) translate(-30 -48)">
    <use xlink:href="#rim"/>
    <path pointer-events="none" fill="none" stroke="white" stroke-width="1.5" d="M0,-3.0v7 M-2.5,-0.5L0,-3.0L2.5,-0.5"/>
  </g>
  <g id="arrowLeft" transform="rotate(270) translate(-36 17)">
    <use xlink:href="#rim"/>
    <path pointer-events="none" fill="none" stroke="white" stroke-width="1.5" d="M0,-3.0v7 M-2.5,-0.5L0,-3.0L2.5,-0.5"/>
  </g>
  <g id="resetDef">
    <use xlink:href="#rim2" fill="#404040"><set attributeName="fill" to="#808080" begin="reset.mouseover" end="reset.mouseout"/></use>
  </g>
</defs>
<script type="application/ecmascript">
var viewWidth = 1135;
var viewHeight = 204;
var sectionId = 'dynsection-31';
</script>
<script type="application/ecmascript" xlink:href="svg.min.js"/>
<svg id="graph" class="graph">
<g id="viewport">
<title>AKPTInGameMode::InitiatePhaseTransition</title>
<!-- Node1 -->
<g id="Node000001" class="node">
<title>Node1</title>
<g id="a_Node000001"><a xlink:title=" ">
<polygon fill="#999999" stroke="#666666" points="1127.25,-108 991.25,-108 991.25,-76 1127.25,-76 1127.25,-108"/>
<text xml:space="preserve" text-anchor="start" x="999.25" y="-94.5" font-family="Helvetica,sans-Serif" font-size="10.00">AKPTInGameMode::Initiate</text>
<text xml:space="preserve" text-anchor="middle" x="1059.25" y="-82.5" font-family="Helvetica,sans-Serif" font-size="10.00">PhaseTransition</text>
</a>
</g>
</g>
<!-- Node2 -->
<g id="Node000002" class="node">
<title>Node2</title>
<g id="a_Node000002"><a xlink:href="class_a_k_p_t_in_game_mode.html#a1c856c37dce7343a381723b5d842ecf7" target="_top" xlink:title="모든 플레이어가 사망했는지 확인합니다.">
<polygon fill="white" stroke="#666666" points="955.25,-102 766,-102 766,-82 955.25,-82 955.25,-102"/>
<text xml:space="preserve" text-anchor="middle" x="860.62" y="-88.5" font-family="Helvetica,sans-Serif" font-size="10.00">AKPTInGameMode::AreAllPlayersDead</text>
</a>
</g>
</g>
<!-- Node1&#45;&gt;Node2 -->
<g id="edge1_Node000001_Node000002" class="edge">
<title>Node1&#45;&gt;Node2</title>
<g id="a_edge1_Node000001_Node000002"><a xlink:title=" ">
<path fill="none" stroke="#63b8ff" d="M979.52,-92C971.69,-92 963.67,-92 955.7,-92"/>
<polygon fill="#63b8ff" stroke="#63b8ff" points="979.34,-95.5 989.34,-92 979.34,-88.5 979.34,-95.5"/>
</a>
</g>
</g>
<!-- Node3 -->
<g id="Node000003" class="node">
<title>Node3</title>
<g id="a_Node000003"><a xlink:href="class_a_k_p_t_in_game_mode.html#a0e1dec85eeba3835d463238c88f8904b" target="_top" xlink:title="야간 페이즈를 종료하고, 게임 종료 조건을 확인하거나 새 라운드를 시작합니다.">
<polygon fill="white" stroke="#666666" points="719.88,-164 572.62,-164 572.62,-132 719.88,-132 719.88,-164"/>
<text xml:space="preserve" text-anchor="start" x="580.62" y="-150.5" font-family="Helvetica,sans-Serif" font-size="10.00">AKPTInGameMode::EndNight</text>
<text xml:space="preserve" text-anchor="middle" x="646.25" y="-138.5" font-family="Helvetica,sans-Serif" font-size="10.00">Phase</text>
</a>
</g>
</g>
<!-- Node1&#45;&gt;Node3 -->
<g id="edge16_Node000001_Node000003" class="edge">
<title>Node1&#45;&gt;Node3</title>
<g id="a_edge16_Node000001_Node000003"><a xlink:title=" ">
<path fill="none" stroke="#63b8ff" d="M1010.53,-112.32C993.4,-118.76 973.74,-125.19 955.25,-129 876.02,-145.33 783.1,-149 720.2,-149.27"/>
<polygon fill="#63b8ff" stroke="#63b8ff" points="1011.36,-115.75 1019.42,-108.88 1008.83,-109.23 1011.36,-115.75"/>
</a>
</g>
</g>
<!-- Node11 -->
<g id="Node000011" class="node">
<title>Node11</title>
<g id="a_Node000011"><a xlink:href="class_a_k_p_t_in_game_mode.html#ad904efb516b64eddf8aef8f50e3c42a1" target="_top" xlink:title="모든 플레이어가 야간 페이즈로 넘어갈 준비가 되었는지 확인합니다.">
<polygon fill="white" stroke="#666666" points="933.88,-51 787.38,-51 787.38,-19 933.88,-19 933.88,-51"/>
<text xml:space="preserve" text-anchor="start" x="795.38" y="-37.5" font-family="Helvetica,sans-Serif" font-size="10.00">AKPTInGameMode::CheckAll</text>
<text xml:space="preserve" text-anchor="middle" x="860.62" y="-25.5" font-family="Helvetica,sans-Serif" font-size="10.00">PlayersReadyForNight</text>
</a>
</g>
</g>
<!-- Node1&#45;&gt;Node11 -->
<g id="edge14_Node000001_Node000011" class="edge">
<title>Node1&#45;&gt;Node11</title>
<g id="a_edge14_Node000001_Node000011"><a xlink:title=" ">
<path fill="none" stroke="#63b8ff" d="M990.44,-72.34C966.94,-65.53 940.88,-57.97 918.37,-51.45"/>
<polygon fill="#63b8ff" stroke="#63b8ff" points="989.35,-75.67 999.92,-75.09 991.29,-68.95 989.35,-75.67"/>
</a>
</g>
</g>
<!-- Node2&#45;&gt;Node2 -->
<g id="edge2_Node000002_Node000002" class="edge">
<title>Node2&#45;&gt;Node2</title>
<g id="a_edge2_Node000002_Node000002"><a xlink:title=" ">
<path fill="none" stroke="#63b8ff" d="M896.1,-113.11C891.87,-117.14 880.05,-120 860.62,-120 826.1,-120 815.58,-110.98 829.07,-102.34"/>
<polygon fill="#63b8ff" stroke="#63b8ff" points="899.41,-111.96 892.7,-103.76 892.83,-114.36 899.41,-111.96"/>
</a>
</g>
</g>
<!-- Node2&#45;&gt;Node3 -->
<g id="edge3_Node000002_Node000003" class="edge">
<title>Node2&#45;&gt;Node3</title>
<g id="a_edge3_Node000002_Node000003"><a xlink:title=" ">
<path fill="none" stroke="#63b8ff" d="M809.16,-105.31C779.27,-113.19 741.17,-123.24 709.44,-131.6"/>
<polygon fill="#63b8ff" stroke="#63b8ff" points="809.94,-108.72 818.71,-102.79 808.15,-101.95 809.94,-108.72"/>
</a>
</g>
</g>
<!-- Node7 -->
<g id="Node000007" class="node">
<title>Node7</title>
<g id="a_Node000007"><a xlink:href="class_a_k_p_t_in_game_mode.html#a3a63b6ea26b3ef6a916ca7b5fed4813f" target="_top" xlink:title="플레이어가 사망했을 때 호출됩니다.">
<polygon fill="white" stroke="#666666" points="730,-108 562.5,-108 562.5,-88 730,-88 730,-108"/>
<text xml:space="preserve" text-anchor="middle" x="646.25" y="-94.5" font-family="Helvetica,sans-Serif" font-size="10.00">AKPTInGameMode::OnPlayerDied</text>
</a>
</g>
</g>
<!-- Node2&#45;&gt;Node7 -->
<g id="edge8_Node000002_Node000007" class="edge">
<title>Node2&#45;&gt;Node7</title>
<g id="a_edge8_Node000002_Node000007"><a xlink:title=" ">
<path fill="none" stroke="#63b8ff" d="M754.2,-94.98C746.16,-95.21 738.12,-95.43 730.25,-95.66"/>
<polygon fill="#63b8ff" stroke="#63b8ff" points="754.14,-98.48 764.03,-94.7 753.94,-91.48 754.14,-98.48"/>
</a>
</g>
</g>
<!-- Node4 -->
<g id="Node000004" class="node">
<title>Node4</title>
<g id="a_Node000004"><a xlink:href="class_a_k_p_t_in_game_mode.html#acd0b193dd9ce700d2a4cb3953565584c" target="_top" xlink:title="야간 페이즈의 핵심 로직을 실행합니다.">
<polygon fill="white" stroke="#666666" points="526.5,-196 375.5,-196 375.5,-164 526.5,-164 526.5,-196"/>
<text xml:space="preserve" text-anchor="start" x="383.5" y="-182.5" font-family="Helvetica,sans-Serif" font-size="10.00">AKPTInGameMode::StartNight</text>
<text xml:space="preserve" text-anchor="middle" x="451" y="-170.5" font-family="Helvetica,sans-Serif" font-size="10.00">Phase</text>
</a>
</g>
</g>
<!-- Node3&#45;&gt;Node4 -->
<g id="edge4_Node000003_Node000004" class="edge">
<title>Node3&#45;&gt;Node4</title>
<g id="a_edge4_Node000003_Node000004"><a xlink:title=" ">
<path fill="none" stroke="#63b8ff" d="M560.92,-161.96C549.56,-163.85 537.96,-165.77 526.77,-167.62"/>
<polygon fill="#63b8ff" stroke="#63b8ff" points="561.4,-165.43 570.7,-160.35 560.26,-158.53 561.4,-165.43"/>
</a>
</g>
</g>
<!-- Node5 -->
<g id="Node000005" class="node">
<title>Node5</title>
<g id="a_Node000005"><a xlink:href="class_a_k_p_t_in_game_mode.html#a84edc1df98161132b7b803669c9299a0" target="_top" xlink:title="야간 페이즈를 시작하기 위한 준비 및 전환을 시작합니다.">
<polygon fill="white" stroke="#666666" points="339.5,-186 184.75,-186 184.75,-154 339.5,-154 339.5,-186"/>
<text xml:space="preserve" text-anchor="start" x="192.75" y="-172.5" font-family="Helvetica,sans-Serif" font-size="10.00">AKPTInGameMode::BeginNight</text>
<text xml:space="preserve" text-anchor="middle" x="262.12" y="-160.5" font-family="Helvetica,sans-Serif" font-size="10.00">PhaseLogic</text>
</a>
</g>
</g>
<!-- Node4&#45;&gt;Node5 -->
<g id="edge5_Node000004_Node000005" class="edge">
<title>Node4&#45;&gt;Node5</title>
<g id="a_edge5_Node000004_Node000005"><a xlink:title=" ">
<path fill="none" stroke="#63b8ff" d="M363.57,-175.38C355.67,-174.95 347.71,-174.53 339.91,-174.11"/>
<polygon fill="#63b8ff" stroke="#63b8ff" points="363.38,-178.87 373.56,-175.91 363.76,-171.88 363.38,-178.87"/>
</a>
</g>
</g>
<!-- Node6 -->
<g id="Node000006" class="node">
<title>Node6</title>
<g id="a_Node000006"><a xlink:href="class_a_k_p_t_in_game_mode.html#a410acd626df9144d7ebb63b535dbc37b" target="_top" xlink:title=" ">
<polygon fill="white" stroke="#666666" points="148.75,-126 0,-126 0,-94 148.75,-94 148.75,-126"/>
<text xml:space="preserve" text-anchor="start" x="8" y="-112.5" font-family="Helvetica,sans-Serif" font-size="10.00">AKPTInGameMode::Complete</text>
<text xml:space="preserve" text-anchor="middle" x="74.38" y="-100.5" font-family="Helvetica,sans-Serif" font-size="10.00">PhaseTransition</text>
</a>
</g>
</g>
<!-- Node5&#45;&gt;Node6 -->
<g id="edge6_Node000005_Node000006" class="edge">
<title>Node5&#45;&gt;Node6</title>
<g id="a_edge6_Node000005_Node000006"><a xlink:title=" ">
<path fill="none" stroke="#63b8ff" d="M199.7,-150.16C175.94,-142.48 149.06,-133.8 126.39,-126.48"/>
<polygon fill="#63b8ff" stroke="#63b8ff" points="198.34,-153.4 208.93,-153.14 200.49,-146.74 198.34,-153.4"/>
</a>
</g>
</g>
<!-- Node6&#45;&gt;Node2 -->
<g id="edge7_Node000006_Node000002" class="edge">
<title>Node6&#45;&gt;Node2</title>
<g id="a_edge7_Node000006_Node000002"><a xlink:title=" ">
<path fill="none" stroke="#63b8ff" d="M133.7,-90.26C150.03,-85.61 167.91,-81.34 184.75,-79 424.78,-45.64 487.97,-66.89 730,-79 741.75,-79.59 754.07,-80.47 766.25,-81.51"/>
<polygon fill="#63b8ff" stroke="#63b8ff" points="132.73,-86.89 124.13,-93.08 134.71,-93.61 132.73,-86.89"/>
</a>
</g>
</g>
<!-- Node8 -->
<g id="Node000008" class="node">
<title>Node8</title>
<g id="a_Node000008"><a xlink:href="class_a_player_character.html#aa38c751d8495a3e3d999eafad23d7a88" target="_top" xlink:title=" ">
<polygon fill="white" stroke="#666666" points="508.12,-146 393.88,-146 393.88,-126 508.12,-126 508.12,-146"/>
<text xml:space="preserve" text-anchor="middle" x="451" y="-132.5" font-family="Helvetica,sans-Serif" font-size="10.00">APlayerCharacter::Die</text>
</a>
</g>
</g>
<!-- Node7&#45;&gt;Node8 -->
<g id="edge9_Node000007_Node000008" class="edge">
<title>Node7&#45;&gt;Node8</title>
<g id="a_edge9_Node000007_Node000008"><a xlink:title=" ">
<path fill="none" stroke="#63b8ff" d="M580.88,-110.66C556.3,-115.49 528.57,-120.94 505.14,-125.55"/>
<polygon fill="#63b8ff" stroke="#63b8ff" points="581.31,-114.14 590.45,-108.78 579.96,-107.27 581.31,-114.14"/>
</a>
</g>
</g>
<!-- Node9 -->
<g id="Node000009" class="node">
<title>Node9</title>
<g id="a_Node000009"><a xlink:href="class_a_character_base.html#af4c20a0d4ddeb41b0eb305b807bcfc9d" target="_top" xlink:title=" ">
<polygon fill="white" stroke="#666666" points="526.5,-108 375.5,-108 375.5,-88 526.5,-88 526.5,-108"/>
<text xml:space="preserve" text-anchor="middle" x="451" y="-94.5" font-family="Helvetica,sans-Serif" font-size="10.00">ACharacterBase::HandleDeath</text>
</a>
</g>
</g>
<!-- Node7&#45;&gt;Node9 -->
<g id="edge10_Node000007_Node000009" class="edge">
<title>Node7&#45;&gt;Node9</title>
<g id="a_edge10_Node000007_Node000009"><a xlink:title=" ">
<path fill="none" stroke="#63b8ff" d="M550.81,-98C542.74,-98 534.66,-98 526.78,-98"/>
<polygon fill="#63b8ff" stroke="#63b8ff" points="550.66,-101.5 560.66,-98 550.66,-94.5 550.66,-101.5"/>
</a>
</g>
</g>
<!-- Node10 -->
<g id="Node000010" class="node">
<title>Node10</title>
<g id="a_Node000010"><a xlink:href="class_a_character_base.html#af3460531018611a7b3b2c59779c65ead" target="_top" xlink:title=" ">
<polygon fill="white" stroke="#666666" points="328.62,-108 195.62,-108 195.62,-88 328.62,-88 328.62,-108"/>
<text xml:space="preserve" text-anchor="middle" x="262.12" y="-94.5" font-family="Helvetica,sans-Serif" font-size="10.00">ACharacterBase::OnDeath</text>
</a>
</g>
</g>
<!-- Node9&#45;&gt;Node10 -->
<g id="edge11_Node000009_Node000010" class="edge">
<title>Node9&#45;&gt;Node10</title>
<g id="a_edge11_Node000009_Node000010"><a xlink:title=" ">
<path fill="none" stroke="#63b8ff" d="M363.9,-91.27C352.19,-91.21 340.31,-91.29 329.03,-91.52"/>
<polygon fill="#63b8ff" stroke="#63b8ff" points="363.52,-94.77 373.55,-91.36 363.59,-87.77 363.52,-94.77"/>
</a>
</g>
</g>
<!-- Node10&#45;&gt;Node9 -->
<g id="edge12_Node000010_Node000009" class="edge">
<title>Node10&#45;&gt;Node9</title>
<g id="a_edge12_Node000010_Node000009"><a xlink:title=" ">
<path fill="none" stroke="#63b8ff" d="M340.36,-104.66C351.84,-104.79 363.64,-104.78 375.07,-104.63"/>
<polygon fill="#63b8ff" stroke="#63b8ff" points="340.6,-101.16 330.54,-104.51 340.49,-108.16 340.6,-101.16"/>
</a>
</g>
</g>
<!-- Node10&#45;&gt;Node10 -->
<g id="edge13_Node000010_Node000010" class="edge">
<title>Node10&#45;&gt;Node10</title>
<g id="a_edge13_Node000010_Node000010"><a xlink:title=" ">
<path fill="none" stroke="#63b8ff" d="M295.66,-119.11C291.66,-123.14 280.48,-126 262.12,-126 229.49,-126 219.54,-116.98 232.29,-108.34"/>
<polygon fill="#63b8ff" stroke="#63b8ff" points="299.01,-118.09 292.45,-109.77 292.39,-120.36 299.01,-118.09"/>
</a>
</g>
</g>
<!-- Node12 -->
<g id="Node000012" class="node">
<title>Node12</title>
<g id="a_Node000012"><a xlink:href="class_a_k_p_t_in_game_mode.html#a5139e6eb55204de25e844d6aa4f49420" target="_top" xlink:title="플레이어가 상점에서 &#39;준비 완료&#39; 버튼을 눌렀을 때 호출됩니다.">
<polygon fill="white" stroke="#666666" points="717.62,-32 574.88,-32 574.88,0 717.62,0 717.62,-32"/>
<text xml:space="preserve" text-anchor="start" x="582.88" y="-18.5" font-family="Helvetica,sans-Serif" font-size="10.00">AKPTInGameMode::PlayerIs</text>
<text xml:space="preserve" text-anchor="middle" x="646.25" y="-6.5" font-family="Helvetica,sans-Serif" font-size="10.00">ReadyForNight</text>
</a>
</g>
</g>
<!-- Node11&#45;&gt;Node12 -->
<g id="edge15_Node000011_Node000012" class="edge">
<title>Node11&#45;&gt;Node12</title>
<g id="a_edge15_Node000011_Node000012"><a xlink:title=" ">
<path fill="none" stroke="#63b8ff" d="M775.7,-27.49C756.59,-25.78 736.48,-23.98 717.98,-22.33"/>
<polygon fill="#63b8ff" stroke="#63b8ff" points="775.35,-30.97 785.62,-28.38 775.98,-24 775.35,-30.97"/>
</a>
</g>
</g>
</g>
</svg>

<g id="navigator" transform="translate(0 0)" fill="#404254">
  <rect fill="#f2f5e9" fill-opacity="0.5" stroke="#606060" stroke-width=".5" x="0" y="0" width="60" height="60"/>
  <use id="zoomplus" xlink:href="#zoomPlus" x="17" y="9" onmousedown="handleZoom(evt,'in')"/>
  <use id="zoomminus" xlink:href="#zoomMin" x="42" y="9" onmousedown="handleZoom(evt,'out')"/>
  <use id="reset" xlink:href="#resetDef" x="30" y="36" onmousedown="handleReset()"/>
   <use id="arrowup" xlink:href="#arrowUp" x="0" y="0" onmousedown="handlePan(0,-1)"/>
  <use id="arrowright" xlink:href="#arrowRight" x="0" y="0" onmousedown="handlePan(1,0)"/>
  <use id="arrowdown" xlink:href="#arrowDown" x="0" y="0" onmousedown="handlePan(0,1)"/>
  <use id="arrowleft" xlink:href="#arrowLeft" x="0" y="0" onmousedown="handlePan(-1,0)"/>
</g>
<svg viewBox="0 0 15 15" width="100%" height="30px" preserveAspectRatio="xMaxYMin meet">
 <g id="arrow_out" transform="scale(0.3 0.3)">
  <a xlink:href="class_a_k_p_t_in_game_mode_a87cb6168b8662d3ba2ebc02f0695522c_icgraph_org.svg" target="_base">
   <rect id="button" ry="5" rx="5" y="6" x="6" height="38" width="38"
        fill="#f2f5e9" fill-opacity="0.5" stroke="#606060" stroke-width="1.0"/>
   <path id="arrow"
     d="M 11.500037,31.436501 C 11.940474,20.09759 22.043105,11.32322 32.158766,21.979434 L 37.068811,17.246167 C 37.068811,17.246167 37.088388,32 37.088388,32 L 22.160133,31.978069 C 22.160133,31.978069 26.997745,27.140456 26.997745,27.140456 C 18.528582,18.264221 13.291696,25.230495 11.500037,31.436501 z"
     style="fill:#404040;"/>
  </a>
 </g>
</svg>

<style type='text/css'>
<![CDATA[
[data-mouse-over-selected='false'] { opacity: 0.7; }
[data-mouse-over-selected='true']  { opacity: 1.0; }
]]>
</style>
<script type="application/ecmascript"><![CDATA[
document.addEventListener('DOMContentLoaded', (event) => {
  highlightEdges();
  highlightAdjacentNodes();
});
]]></script>
</svg>
