<?xml version="1.0" encoding="UTF-8" standalone="no"?>
<!DOCTYPE svg PUBLIC "-//W3C//DTD SVG 1.1//EN"
 "http://www.w3.org/Graphics/SVG/1.1/DTD/svg11.dtd">
<!-- Generated by graphviz version 13.1.1 (20250719.2154)
 -->
<!-- Title: UItemAbility Pages: 1 -->
<!--zoomable 584 -->

<svg id="main" version="1.1" xmlns="http://www.w3.org/2000/svg" xmlns:xlink="http://www.w3.org/1999/xlink" xml:space="preserve" onload="init(evt)">

<style type="text/css"><![CDATA[
.node, .edge {opacity: 0.7;}
.node.selected, .edge.selected {opacity: 1;}
.edge:hover path { stroke: red; }
.edge:hover polygon { stroke: red; fill: red; }
]]></style>

<defs>
  <circle id="rim" cx="0" cy="0" r="7"/>
  <circle id="rim2" cx="0" cy="0" r="3.5"/>
  <g id="zoomPlus">
    <use xlink:href="#rim" fill="#404040"><set attributeName="fill" to="#808080" begin="zoomplus.mouseover" end="zoomplus.mouseout"/></use>
    <path d="M-4,0h8M0,-4v8" fill="none" stroke="white" stroke-width="1.5" pointer-events="none"/>
  </g>
  <g id="zoomMin">
    <use xlink:href="#rim" fill="#404040"><set attributeName="fill" to="#808080" begin="zoomminus.mouseover" end="zoomminus.mouseout"/></use>
    <path d="M-4,0h8" fill="none" stroke="white" stroke-width="1.5" pointer-events="none"/>
  </g>
  <g id="arrowUp" transform="translate(30 24)">
    <use xlink:href="#rim"/>
    <path pointer-events="none" fill="none" stroke="white" stroke-width="1.5" d="M0,-3.0v7 M-2.5,-0.5L0,-3.0L2.5,-0.5"/>
  </g>
  <g id="arrowRight" transform="rotate(90) translate(36 -43)">
    <use xlink:href="#rim"/>
    <path pointer-events="none" fill="none" stroke="white" stroke-width="1.5" d="M0,-3.0v7 M-2.5,-0.5L0,-3.0L2.5,-0.5"/>
  </g>
  <g id="arrowDown" transform="rotate(180) translate(-30 -48)">
    <use xlink:href="#rim"/>
    <path pointer-events="none" fill="none" stroke="white" stroke-width="1.5" d="M0,-3.0v7 M-2.5,-0.5L0,-3.0L2.5,-0.5"/>
  </g>
  <g id="arrowLeft" transform="rotate(270) translate(-36 17)">
    <use xlink:href="#rim"/>
    <path pointer-events="none" fill="none" stroke="white" stroke-width="1.5" d="M0,-3.0v7 M-2.5,-0.5L0,-3.0L2.5,-0.5"/>
  </g>
  <g id="resetDef">
    <use xlink:href="#rim2" fill="#404040"><set attributeName="fill" to="#808080" begin="reset.mouseover" end="reset.mouseout"/></use>
  </g>
</defs>
<script type="application/ecmascript">
var viewWidth = 692;
var viewHeight = 584;
var sectionId = 'dynsection-0';
</script>
<script type="application/ecmascript" xlink:href="svg.min.js"/>
<svg id="graph" class="graph">
<g id="viewport">
<title>UItemAbility</title>
<!-- Node1 -->
<g id="Node000001" class="node">
<title>Node1</title>
<g id="a_Node000001"><a xlink:title=" ">
<polygon fill="#999999" stroke="none" points="508.75,-488 175,-488 175,-240 508.75,-240 508.75,-488"/>
<text xml:space="preserve" text-anchor="start" x="314.88" y="-474.5" font-family="Helvetica,sans-Serif" font-size="10.00">UItemAbility</text>
<text xml:space="preserve" text-anchor="start" x="179.38" y="-458.5" font-family="Helvetica,sans-Serif" font-size="10.00">#</text>
<text xml:space="preserve" text-anchor="start" x="189" y="-458.5" font-family="Helvetica,sans-Serif" font-size="10.00">int32 AbilityCount</text>
<text xml:space="preserve" text-anchor="start" x="179.38" y="-442.5" font-family="Helvetica,sans-Serif" font-size="10.00">#</text>
<text xml:space="preserve" text-anchor="start" x="189" y="-442.5" font-family="Helvetica,sans-Serif" font-size="10.00">TArray&lt; FActiveGameplayEffect</text>
<text xml:space="preserve" text-anchor="start" x="189" y="-430.5" font-family="Helvetica,sans-Serif" font-size="10.00">Handle &gt; AffectEffectHandles</text>
<text xml:space="preserve" text-anchor="start" x="179.38" y="-414.5" font-family="Helvetica,sans-Serif" font-size="10.00">#</text>
<text xml:space="preserve" text-anchor="start" x="189" y="-414.5" font-family="Helvetica,sans-Serif" font-size="10.00">TSubclassOf&lt; UGameplayEffect</text>
<text xml:space="preserve" text-anchor="start" x="189" y="-402.5" font-family="Helvetica,sans-Serif" font-size="10.00"> &gt; HpUpgrade</text>
<text xml:space="preserve" text-anchor="start" x="179" y="-386.5" font-family="Helvetica,sans-Serif" font-size="10.00">+</text>
<text xml:space="preserve" text-anchor="start" x="189" y="-386.5" font-family="Helvetica,sans-Serif" font-size="10.00">UItemAbility()</text>
<text xml:space="preserve" text-anchor="start" x="179.38" y="-370.5" font-family="Helvetica,sans-Serif" font-size="10.00">#</text>
<text xml:space="preserve" text-anchor="start" x="189" y="-370.5" font-family="Helvetica,sans-Serif" font-size="10.00">virtual void ActivateAbility</text>
<text xml:space="preserve" text-anchor="start" x="189" y="-358.5" font-family="Helvetica,sans-Serif" font-size="10.00">(const FGameplayAbilitySpecHandle</text>
<text xml:space="preserve" text-anchor="start" x="189" y="-346.5" font-family="Helvetica,sans-Serif" font-size="10.00"> Handle, const FGameplayAbilityActorInfo</text>
<text xml:space="preserve" text-anchor="start" x="189" y="-334.5" font-family="Helvetica,sans-Serif" font-size="10.00"> *ActorInfo, const FGameplayAbilityActivationInfo</text>
<text xml:space="preserve" text-anchor="start" x="189" y="-322.5" font-family="Helvetica,sans-Serif" font-size="10.00"> ActivationInfo, const FGameplayEventData *TriggerEventData) override</text>
<text xml:space="preserve" text-anchor="start" x="179.38" y="-306.5" font-family="Helvetica,sans-Serif" font-size="10.00">#</text>
<text xml:space="preserve" text-anchor="start" x="189" y="-306.5" font-family="Helvetica,sans-Serif" font-size="10.00">virtual void EndAbility</text>
<text xml:space="preserve" text-anchor="start" x="189" y="-294.5" font-family="Helvetica,sans-Serif" font-size="10.00">(const FGameplayAbilitySpecHandle</text>
<text xml:space="preserve" text-anchor="start" x="189" y="-282.5" font-family="Helvetica,sans-Serif" font-size="10.00"> Handle, const FGameplayAbilityActorInfo</text>
<text xml:space="preserve" text-anchor="start" x="189" y="-270.5" font-family="Helvetica,sans-Serif" font-size="10.00"> *ActorInfo, const FGameplayAbilityActivationInfo</text>
<text xml:space="preserve" text-anchor="start" x="189" y="-258.5" font-family="Helvetica,sans-Serif" font-size="10.00"> ActivationInfo, bool bReplicateEndAbility,</text>
<text xml:space="preserve" text-anchor="start" x="189" y="-246.5" font-family="Helvetica,sans-Serif" font-size="10.00"> bool bWasCancelled) override</text>
<polygon fill="#666666" stroke="#666666" points="175,-470 175,-470 508.75,-470 508.75,-470 175,-470"/>
<polygon fill="#666666" stroke="#666666" points="175,-398 175,-398 187,-398 187,-398 175,-398"/>
<polygon fill="#666666" stroke="#666666" points="187,-398 187,-398 508.75,-398 508.75,-398 187,-398"/>
<polygon fill="none" stroke="#666666" points="175,-240 175,-488 508.75,-488 508.75,-240 175,-240"/>
</a>
</g>
</g>
<!-- Node3 -->
<g id="Node000003" class="node">
<title>Node3</title>
<g id="a_Node000003"><a xlink:href="class_u_flame_emblem_ability.html" target="_top" xlink:title=" ">
<polygon fill="white" stroke="none" points="333.75,-204 0,-204 0,0 333.75,0 333.75,-204"/>
<text xml:space="preserve" text-anchor="start" x="118.12" y="-190.5" font-family="Helvetica,sans-Serif" font-size="10.00">UFlameEmblemAbility</text>
<text xml:space="preserve" text-anchor="start" x="4.38" y="-174.5" font-family="Helvetica,sans-Serif" font-size="10.00">#</text>
<text xml:space="preserve" text-anchor="start" x="14" y="-174.5" font-family="Helvetica,sans-Serif" font-size="10.00">TSubclassOf&lt; UGameplayEffect</text>
<text xml:space="preserve" text-anchor="start" x="14" y="-162.5" font-family="Helvetica,sans-Serif" font-size="10.00"> &gt; FlameEffect</text>
<text xml:space="preserve" text-anchor="start" x="4" y="-146.5" font-family="Helvetica,sans-Serif" font-size="10.00">+</text>
<text xml:space="preserve" text-anchor="start" x="14" y="-146.5" font-family="Helvetica,sans-Serif" font-size="10.00">UFlameEmblemAbility()</text>
<text xml:space="preserve" text-anchor="start" x="4.38" y="-130.5" font-family="Helvetica,sans-Serif" font-size="10.00">#</text>
<text xml:space="preserve" text-anchor="start" x="14" y="-130.5" font-family="Helvetica,sans-Serif" font-size="10.00">virtual void ActivateAbility</text>
<text xml:space="preserve" text-anchor="start" x="14" y="-118.5" font-family="Helvetica,sans-Serif" font-size="10.00">(const FGameplayAbilitySpecHandle</text>
<text xml:space="preserve" text-anchor="start" x="14" y="-106.5" font-family="Helvetica,sans-Serif" font-size="10.00"> Handle, const FGameplayAbilityActorInfo</text>
<text xml:space="preserve" text-anchor="start" x="14" y="-94.5" font-family="Helvetica,sans-Serif" font-size="10.00"> *ActorInfo, const FGameplayAbilityActivationInfo</text>
<text xml:space="preserve" text-anchor="start" x="14" y="-82.5" font-family="Helvetica,sans-Serif" font-size="10.00"> ActivationInfo, const FGameplayEventData *TriggerEventData) override</text>
<text xml:space="preserve" text-anchor="start" x="4.38" y="-66.5" font-family="Helvetica,sans-Serif" font-size="10.00">#</text>
<text xml:space="preserve" text-anchor="start" x="14" y="-66.5" font-family="Helvetica,sans-Serif" font-size="10.00">virtual void EndAbility</text>
<text xml:space="preserve" text-anchor="start" x="14" y="-54.5" font-family="Helvetica,sans-Serif" font-size="10.00">(const FGameplayAbilitySpecHandle</text>
<text xml:space="preserve" text-anchor="start" x="14" y="-42.5" font-family="Helvetica,sans-Serif" font-size="10.00"> Handle, const FGameplayAbilityActorInfo</text>
<text xml:space="preserve" text-anchor="start" x="14" y="-30.5" font-family="Helvetica,sans-Serif" font-size="10.00"> *ActorInfo, const FGameplayAbilityActivationInfo</text>
<text xml:space="preserve" text-anchor="start" x="14" y="-18.5" font-family="Helvetica,sans-Serif" font-size="10.00"> ActivationInfo, bool bReplicateEndAbility,</text>
<text xml:space="preserve" text-anchor="start" x="14" y="-6.5" font-family="Helvetica,sans-Serif" font-size="10.00"> bool bWasCancelled) override</text>
<polygon fill="#666666" stroke="#666666" points="0,-186 0,-186 333.75,-186 333.75,-186 0,-186"/>
<polygon fill="#666666" stroke="#666666" points="0,-158 0,-158 12,-158 12,-158 0,-158"/>
<polygon fill="#666666" stroke="#666666" points="12,-158 12,-158 333.75,-158 333.75,-158 12,-158"/>
<polygon fill="none" stroke="#666666" points="0,0 0,-204 333.75,-204 333.75,0 0,0"/>
</a>
</g>
</g>
<!-- Node1&#45;&gt;Node3 -->
<g id="edge2_Node000001_Node000003" class="edge">
<title>Node1&#45;&gt;Node3</title>
<g id="a_edge2_Node000001_Node000003"><a xlink:title=" ">
<path fill="none" stroke="#63b8ff" d="M252.87,-230.77C246.76,-221.68 240.65,-212.61 234.67,-203.73"/>
<polygon fill="none" stroke="#63b8ff" points="249.91,-232.64 258.4,-238.98 255.72,-228.73 249.91,-232.64"/>
</a>
</g>
</g>
<!-- Node4 -->
<g id="Node000004" class="node">
<title>Node4</title>
<g id="a_Node000004"><a xlink:href="class_u_stack_item_ability.html" target="_top" xlink:title=" ">
<polygon fill="white" stroke="none" points="684.38,-196 351.38,-196 351.38,-8 684.38,-8 684.38,-196"/>
<text xml:space="preserve" text-anchor="start" x="478.12" y="-182.5" font-family="Helvetica,sans-Serif" font-size="10.00">UStackItemAbility</text>
<text xml:space="preserve" text-anchor="start" x="355.38" y="-166.5" font-family="Helvetica,sans-Serif" font-size="10.00">#</text>
<text xml:space="preserve" text-anchor="start" x="364.62" y="-166.5" font-family="Helvetica,sans-Serif" font-size="10.00">TSubclassOf&lt; UGameplayEffect</text>
<text xml:space="preserve" text-anchor="start" x="364.62" y="-154.5" font-family="Helvetica,sans-Serif" font-size="10.00"> &gt; BuffEffect</text>
<text xml:space="preserve" text-anchor="start" x="355.38" y="-138.5" font-family="Helvetica,sans-Serif" font-size="10.00">#</text>
<text xml:space="preserve" text-anchor="start" x="364.62" y="-138.5" font-family="Helvetica,sans-Serif" font-size="10.00">virtual void ActivateAbility</text>
<text xml:space="preserve" text-anchor="start" x="364.62" y="-126.5" font-family="Helvetica,sans-Serif" font-size="10.00">(const FGameplayAbilitySpecHandle</text>
<text xml:space="preserve" text-anchor="start" x="364.62" y="-114.5" font-family="Helvetica,sans-Serif" font-size="10.00"> Handle, const FGameplayAbilityActorInfo</text>
<text xml:space="preserve" text-anchor="start" x="364.62" y="-102.5" font-family="Helvetica,sans-Serif" font-size="10.00"> *ActorInfo, const FGameplayAbilityActivationInfo</text>
<text xml:space="preserve" text-anchor="start" x="364.62" y="-90.5" font-family="Helvetica,sans-Serif" font-size="10.00"> ActivationInfo, const FGameplayEventData *TriggerEventData) override</text>
<text xml:space="preserve" text-anchor="start" x="355.38" y="-74.5" font-family="Helvetica,sans-Serif" font-size="10.00">#</text>
<text xml:space="preserve" text-anchor="start" x="364.62" y="-74.5" font-family="Helvetica,sans-Serif" font-size="10.00">virtual void EndAbility</text>
<text xml:space="preserve" text-anchor="start" x="364.62" y="-62.5" font-family="Helvetica,sans-Serif" font-size="10.00">(const FGameplayAbilitySpecHandle</text>
<text xml:space="preserve" text-anchor="start" x="364.62" y="-50.5" font-family="Helvetica,sans-Serif" font-size="10.00"> Handle, const FGameplayAbilityActorInfo</text>
<text xml:space="preserve" text-anchor="start" x="364.62" y="-38.5" font-family="Helvetica,sans-Serif" font-size="10.00"> *ActorInfo, const FGameplayAbilityActivationInfo</text>
<text xml:space="preserve" text-anchor="start" x="364.62" y="-26.5" font-family="Helvetica,sans-Serif" font-size="10.00"> ActivationInfo, bool bReplicateEndAbility,</text>
<text xml:space="preserve" text-anchor="start" x="364.62" y="-14.5" font-family="Helvetica,sans-Serif" font-size="10.00"> bool bWasCancelled) override</text>
<polygon fill="#666666" stroke="#666666" points="351.38,-178 351.38,-178 684.38,-178 684.38,-178 351.38,-178"/>
<polygon fill="#666666" stroke="#666666" points="351.38,-150 351.38,-150 362.62,-150 362.62,-150 351.38,-150"/>
<polygon fill="#666666" stroke="#666666" points="362.62,-150 362.62,-150 684.38,-150 684.38,-150 362.62,-150"/>
<polygon fill="none" stroke="#666666" points="351.38,-8 351.38,-196 684.38,-196 684.38,-8 351.38,-8"/>
</a>
</g>
</g>
<!-- Node1&#45;&gt;Node4 -->
<g id="edge3_Node000001_Node000004" class="edge">
<title>Node1&#45;&gt;Node4</title>
<g id="a_edge3_Node000001_Node000004"><a xlink:title=" ">
<path fill="none" stroke="#63b8ff" d="M431.41,-230.74C439.42,-218.9 447.42,-207.08 455.14,-195.68"/>
<polygon fill="none" stroke="#63b8ff" points="428.53,-228.74 425.83,-238.98 434.33,-232.66 428.53,-228.74"/>
</a>
</g>
</g>
<!-- Node2 -->
<g id="Node000002" class="node">
<title>Node2</title>
<g id="a_Node000002"><a xlink:title=" ">
<polygon fill="white" stroke="none" points="385.25,-576 298.5,-576 298.5,-524 385.25,-524 385.25,-576"/>
<text xml:space="preserve" text-anchor="start" x="302.5" y="-562.5" font-family="Helvetica,sans-Serif" font-size="10.00">UGameplayAbility</text>
<text xml:space="preserve" text-anchor="start" x="340.38" y="-546.5" font-family="Helvetica,sans-Serif" font-size="10.00"> </text>
<text xml:space="preserve" text-anchor="start" x="340.38" y="-530.5" font-family="Helvetica,sans-Serif" font-size="10.00"> </text>
<polygon fill="#666666" stroke="#666666" points="298.5,-558 298.5,-558 385.25,-558 385.25,-558 298.5,-558"/>
<polygon fill="#666666" stroke="#666666" points="298.5,-542 298.5,-542 385.25,-542 385.25,-542 298.5,-542"/>
<polygon fill="none" stroke="#666666" points="298.5,-524 298.5,-576 385.25,-576 385.25,-524 298.5,-524"/>
</a>
</g>
</g>
<!-- Node2&#45;&gt;Node1 -->
<g id="edge1_Node000001_Node000002" class="edge">
<title>Node2&#45;&gt;Node1</title>
<g id="a_edge1_Node000001_Node000002"><a xlink:title=" ">
<path fill="none" stroke="#63b8ff" d="M341.88,-512.86C341.88,-505.18 341.88,-496.67 341.88,-487.71"/>
<polygon fill="none" stroke="#63b8ff" points="338.38,-512.67 341.88,-522.67 345.38,-512.67 338.38,-512.67"/>
</a>
</g>
</g>
</g>
</svg>

<g id="navigator" transform="translate(0 0)" fill="#404254">
  <rect fill="#f2f5e9" fill-opacity="0.5" stroke="#606060" stroke-width=".5" x="0" y="0" width="60" height="60"/>
  <use id="zoomplus" xlink:href="#zoomPlus" x="17" y="9" onmousedown="handleZoom(evt,'in')"/>
  <use id="zoomminus" xlink:href="#zoomMin" x="42" y="9" onmousedown="handleZoom(evt,'out')"/>
  <use id="reset" xlink:href="#resetDef" x="30" y="36" onmousedown="handleReset()"/>
   <use id="arrowup" xlink:href="#arrowUp" x="0" y="0" onmousedown="handlePan(0,-1)"/>
  <use id="arrowright" xlink:href="#arrowRight" x="0" y="0" onmousedown="handlePan(1,0)"/>
  <use id="arrowdown" xlink:href="#arrowDown" x="0" y="0" onmousedown="handlePan(0,1)"/>
  <use id="arrowleft" xlink:href="#arrowLeft" x="0" y="0" onmousedown="handlePan(-1,0)"/>
</g>
<svg viewBox="0 0 15 15" width="100%" height="30px" preserveAspectRatio="xMaxYMin meet">
 <g id="arrow_out" transform="scale(0.3 0.3)">
  <a xlink:href="class_u_item_ability__inherit__graph_org.svg" target="_base">
   <rect id="button" ry="5" rx="5" y="6" x="6" height="38" width="38"
        fill="#f2f5e9" fill-opacity="0.5" stroke="#606060" stroke-width="1.0"/>
   <path id="arrow"
     d="M 11.500037,31.436501 C 11.940474,20.09759 22.043105,11.32322 32.158766,21.979434 L 37.068811,17.246167 C 37.068811,17.246167 37.088388,32 37.088388,32 L 22.160133,31.978069 C 22.160133,31.978069 26.997745,27.140456 26.997745,27.140456 C 18.528582,18.264221 13.291696,25.230495 11.500037,31.436501 z"
     style="fill:#404040;"/>
  </a>
 </g>
</svg>

<style type='text/css'>
<![CDATA[
[data-mouse-over-selected='false'] { opacity: 0.7; }
[data-mouse-over-selected='true']  { opacity: 1.0; }
]]>
</style>
<script type="application/ecmascript"><![CDATA[
document.addEventListener('DOMContentLoaded', (event) => {
  highlightEdges();
  highlightAdjacentNodes();
});
]]></script>
</svg>
