<?xml version="1.0" encoding="UTF-8" standalone="no"?>
<!DOCTYPE svg PUBLIC "-//W3C//DTD SVG 1.1//EN"
 "http://www.w3.org/Graphics/SVG/1.1/DTD/svg11.dtd">
<!-- Generated by graphviz version 13.1.1 (20250719.2154)
 -->
<!-- Title: UGameplayAbility_TraceBase::OnTraceHit Pages: 1 -->
<svg width="1072pt" height="108pt"
 viewBox="0.00 0.00 1072.00 108.00" xmlns="http://www.w3.org/2000/svg" xmlns:xlink="http://www.w3.org/1999/xlink">
<g id="graph0" class="graph" transform="scale(1 1) rotate(0) translate(4 104)">
<title>UGameplayAbility_TraceBase::OnTraceHit</title>
<!-- Node1 -->
<g id="Node000001" class="node">
<title>Node1</title>
<g id="a_Node000001"><a xlink:title=" ">
<polygon fill="#999999" stroke="#666666" points="1063.5,-32 916.25,-32 916.25,0 1063.5,0 1063.5,-32"/>
<text xml:space="preserve" text-anchor="start" x="924.25" y="-18.5" font-family="Helvetica,sans-Serif" font-size="10.00">UGameplayAbility_TraceBase</text>
<text xml:space="preserve" text-anchor="middle" x="989.88" y="-6.5" font-family="Helvetica,sans-Serif" font-size="10.00">::OnTraceHit</text>
</a>
</g>
</g>
<!-- Node2 -->
<g id="Node000002" class="node">
<title>Node2</title>
<g id="a_Node000002"><a xlink:href="class_u_gameplay_ability___trace_base.html#af45bd75cfce61a7c8368270e14ba2da2" target="_top" xlink:title=" ">
<polygon fill="white" stroke="#666666" points="880.25,-32 733,-32 733,0 880.25,0 880.25,-32"/>
<text xml:space="preserve" text-anchor="start" x="741" y="-18.5" font-family="Helvetica,sans-Serif" font-size="10.00">UGameplayAbility_TraceBase</text>
<text xml:space="preserve" text-anchor="middle" x="806.62" y="-6.5" font-family="Helvetica,sans-Serif" font-size="10.00">::HandleTraceResult</text>
</a>
</g>
</g>
<!-- Node1&#45;&gt;Node2 -->
<g id="edge1_Node000001_Node000002" class="edge">
<title>Node1&#45;&gt;Node2</title>
<g id="a_edge1_Node000001_Node000002"><a xlink:title=" ">
<path fill="none" stroke="#63b8ff" d="M904.69,-16C896.68,-16 888.6,-16 880.71,-16"/>
<polygon fill="#63b8ff" stroke="#63b8ff" points="904.42,-19.5 914.42,-16 904.42,-12.5 904.42,-19.5"/>
</a>
</g>
</g>
<!-- Node3 -->
<g id="Node000003" class="node">
<title>Node3</title>
<g id="a_Node000003"><a xlink:href="class_u_gameplay_ability___trace_base.html#a5166fe938f5e822a37e7526d8b95d271" target="_top" xlink:title=" ">
<polygon fill="white" stroke="#666666" points="697,-100 549.75,-100 549.75,-68 697,-68 697,-100"/>
<text xml:space="preserve" text-anchor="start" x="557.75" y="-86.5" font-family="Helvetica,sans-Serif" font-size="10.00">UGameplayAbility_TraceBase</text>
<text xml:space="preserve" text-anchor="middle" x="623.38" y="-74.5" font-family="Helvetica,sans-Serif" font-size="10.00">::ExecuteTrace</text>
</a>
</g>
</g>
<!-- Node2&#45;&gt;Node3 -->
<g id="edge2_Node000002_Node000003" class="edge">
<title>Node2&#45;&gt;Node3</title>
<g id="a_edge2_Node000002_Node000003"><a xlink:title=" ">
<path fill="none" stroke="#63b8ff" d="M754.65,-36.73C736.52,-43.96 715.91,-52 697,-59 689.25,-61.87 680.99,-64.81 672.92,-67.63"/>
<polygon fill="#63b8ff" stroke="#63b8ff" points="755.91,-40 763.89,-33.03 753.31,-33.5 755.91,-40"/>
</a>
</g>
</g>
<!-- Node7 -->
<g id="Node000007" class="node">
<title>Node7</title>
<g id="a_Node000007"><a xlink:href="class_u_gameplay_ability___trace_base.html#aab02c5cd24012484672817a3959eae8b" target="_top" xlink:title=" ">
<polygon fill="white" stroke="#666666" points="697,-32 549.75,-32 549.75,0 697,0 697,-32"/>
<text xml:space="preserve" text-anchor="start" x="557.75" y="-18.5" font-family="Helvetica,sans-Serif" font-size="10.00">UGameplayAbility_TraceBase</text>
<text xml:space="preserve" text-anchor="middle" x="623.38" y="-6.5" font-family="Helvetica,sans-Serif" font-size="10.00">::OnTraceHitBP</text>
</a>
</g>
</g>
<!-- Node2&#45;&gt;Node7 -->
<g id="edge7_Node000002_Node000007" class="edge">
<title>Node2&#45;&gt;Node7</title>
<g id="a_edge7_Node000002_Node000007"><a xlink:title=" ">
<path fill="none" stroke="#63b8ff" d="M721.44,-9.27C713.43,-9.23 705.35,-9.26 697.46,-9.36"/>
<polygon fill="#63b8ff" stroke="#63b8ff" points="721.14,-12.76 731.17,-9.35 721.21,-5.76 721.14,-12.76"/>
</a>
</g>
</g>
<!-- Node4 -->
<g id="Node000004" class="node">
<title>Node4</title>
<g id="a_Node000004"><a xlink:href="class_u_gameplay_ability___boss_rock_drop.html#ae3ea23fe4ff008d87e87ee9fb09eb08f" target="_top" xlink:title=" ">
<polygon fill="white" stroke="#666666" points="513.75,-100 363.5,-100 363.5,-68 513.75,-68 513.75,-100"/>
<text xml:space="preserve" text-anchor="start" x="371.5" y="-86.5" font-family="Helvetica,sans-Serif" font-size="10.00">UGameplayAbility_BossRock</text>
<text xml:space="preserve" text-anchor="middle" x="438.62" y="-74.5" font-family="Helvetica,sans-Serif" font-size="10.00">Drop::ExecuteSingleRockDrop</text>
</a>
</g>
</g>
<!-- Node3&#45;&gt;Node4 -->
<g id="edge3_Node000003_Node000004" class="edge">
<title>Node3&#45;&gt;Node4</title>
<g id="a_edge3_Node000003_Node000004"><a xlink:title=" ">
<path fill="none" stroke="#63b8ff" d="M538.08,-84C530.05,-84 521.95,-84 514.02,-84"/>
<polygon fill="#63b8ff" stroke="#63b8ff" points="537.85,-87.5 547.85,-84 537.85,-80.5 537.85,-87.5"/>
</a>
</g>
</g>
<!-- Node5 -->
<g id="Node000005" class="node">
<title>Node5</title>
<g id="a_Node000005"><a xlink:href="class_u_gameplay_ability___boss_rock_drop.html#af96f3d05b72995df2afa9a9a9963996f" target="_top" xlink:title=" ">
<polygon fill="white" stroke="#666666" points="327.5,-100 181.75,-100 181.75,-68 327.5,-68 327.5,-100"/>
<text xml:space="preserve" text-anchor="start" x="189.75" y="-86.5" font-family="Helvetica,sans-Serif" font-size="10.00">UGameplayAbility_BossRock</text>
<text xml:space="preserve" text-anchor="middle" x="254.62" y="-74.5" font-family="Helvetica,sans-Serif" font-size="10.00">Drop::StartSingleDropCycle</text>
</a>
</g>
</g>
<!-- Node4&#45;&gt;Node5 -->
<g id="edge4_Node000004_Node000005" class="edge">
<title>Node4&#45;&gt;Node5</title>
<g id="a_edge4_Node000004_Node000005"><a xlink:title=" ">
<path fill="none" stroke="#63b8ff" d="M351.76,-77.26C343.71,-77.23 335.61,-77.27 327.71,-77.38"/>
<polygon fill="#63b8ff" stroke="#63b8ff" points="351.53,-80.76 361.56,-77.34 351.59,-73.76 351.53,-80.76"/>
</a>
</g>
</g>
<!-- Node5&#45;&gt;Node4 -->
<g id="edge6_Node000005_Node000004" class="edge">
<title>Node5&#45;&gt;Node4</title>
<g id="a_edge6_Node000005_Node000004"><a xlink:title=" ">
<path fill="none" stroke="#63b8ff" d="M338.99,-90.73C347.02,-90.77 355.13,-90.75 363.07,-90.65"/>
<polygon fill="#63b8ff" stroke="#63b8ff" points="339.26,-87.23 329.22,-90.63 339.19,-94.23 339.26,-87.23"/>
</a>
</g>
</g>
<!-- Node6 -->
<g id="Node000006" class="node">
<title>Node6</title>
<g id="a_Node000006"><a xlink:href="class_u_gameplay_ability___boss_rock_drop.html#ae20c146f70f4656b0bad279aee6ed5bd" target="_top" xlink:title=" ">
<polygon fill="white" stroke="#666666" points="145.75,-100 0,-100 0,-68 145.75,-68 145.75,-100"/>
<text xml:space="preserve" text-anchor="start" x="8" y="-86.5" font-family="Helvetica,sans-Serif" font-size="10.00">UGameplayAbility_BossRock</text>
<text xml:space="preserve" text-anchor="middle" x="72.88" y="-74.5" font-family="Helvetica,sans-Serif" font-size="10.00">Drop::ActivateAbility</text>
</a>
</g>
</g>
<!-- Node5&#45;&gt;Node6 -->
<g id="edge5_Node000005_Node000006" class="edge">
<title>Node5&#45;&gt;Node6</title>
<g id="a_edge5_Node000005_Node000006"><a xlink:title=" ">
<path fill="none" stroke="#63b8ff" d="M170.04,-84C162.03,-84 153.95,-84 146.06,-84"/>
<polygon fill="#63b8ff" stroke="#63b8ff" points="169.78,-87.5 179.78,-84 169.78,-80.5 169.78,-87.5"/>
</a>
</g>
</g>
<!-- Node7&#45;&gt;Node2 -->
<g id="edge8_Node000007_Node000002" class="edge">
<title>Node7&#45;&gt;Node2</title>
<g id="a_edge8_Node000007_Node000002"><a xlink:title=" ">
<path fill="none" stroke="#63b8ff" d="M708.71,-22.74C716.72,-22.77 724.8,-22.74 732.69,-22.63"/>
<polygon fill="#63b8ff" stroke="#63b8ff" points="709,-19.24 698.97,-22.65 708.94,-26.24 709,-19.24"/>
</a>
</g>
</g>
<!-- Node7&#45;&gt;Node7 -->
<g id="edge9_Node000007_Node000007" class="edge">
<title>Node7&#45;&gt;Node7</title>
<g id="a_edge9_Node000007_Node000007"><a xlink:title=" ">
<path fill="none" stroke="#63b8ff" d="M653.91,-43.71C648.82,-47.48 638.64,-50 623.38,-50 595.46,-50 584.55,-41.58 590.66,-32.44"/>
<polygon fill="#63b8ff" stroke="#63b8ff" points="657.34,-44.41 655.8,-33.93 650.47,-43.08 657.34,-44.41"/>
</a>
</g>
</g>
</g>
</svg>
