<?xml version="1.0" encoding="UTF-8" standalone="no"?>
<!DOCTYPE svg PUBLIC "-//W3C//DTD SVG 1.1//EN"
 "http://www.w3.org/Graphics/SVG/1.1/DTD/svg11.dtd">
<!-- Generated by graphviz version 13.1.1 (20250719.2154)
 -->
<!-- Title: UKPTCheatManager::ForceTriggerTag Pages: 1 -->
<svg width="401pt" height="78pt"
 viewBox="0.00 0.00 401.00 78.00" xmlns="http://www.w3.org/2000/svg" xmlns:xlink="http://www.w3.org/1999/xlink">
<g id="graph0" class="graph" transform="scale(1 1) rotate(0) translate(4 74)">
<title>UKPTCheatManager::ForceTriggerTag</title>
<!-- Node1 -->
<g id="Node000001" class="node">
<title>Node1</title>
<g id="a_Node000001"><a xlink:title=" ">
<polygon fill="#999999" stroke="#666666" points="183.25,-48 0,-48 0,-28 183.25,-28 183.25,-48"/>
<text xml:space="preserve" text-anchor="middle" x="91.62" y="-34.5" font-family="Helvetica,sans-Serif" font-size="10.00">UKPTCheatManager::ForceTriggerTag</text>
</a>
</g>
</g>
<!-- Node1&#45;&gt;Node1 -->
<g id="edge2_Node000001_Node000001" class="edge">
<title>Node1&#45;&gt;Node1</title>
<g id="a_edge2_Node000001_Node000001"><a xlink:title=" ">
<path fill="none" stroke="#63b8ff" d="M57.32,-48.48C43.13,-57.08 54.57,-66 91.62,-66 112.47,-66 125.21,-63.18 129.84,-59.18"/>
<polygon fill="#63b8ff" stroke="#63b8ff" points="133.17,-58.1 126.45,-49.91 126.59,-60.5 133.17,-58.1"/>
</a>
</g>
</g>
<!-- Node2 -->
<g id="Node000002" class="node">
<title>Node2</title>
<g id="a_Node000002"><a xlink:href="class_u_k_p_t_cheat_manager.html#a605ba879388129cb2c8f8f1e9732cf28" target="_top" xlink:title=" ">
<polygon fill="white" stroke="#666666" points="392.75,-70 219.25,-70 219.25,-50 392.75,-50 392.75,-70"/>
<text xml:space="preserve" text-anchor="middle" x="306" y="-56.5" font-family="Helvetica,sans-Serif" font-size="10.00">UKPTCheatManager::AddExprience</text>
</a>
</g>
</g>
<!-- Node1&#45;&gt;Node2 -->
<g id="edge1_Node000001_Node000002" class="edge">
<title>Node1&#45;&gt;Node2</title>
<g id="a_edge1_Node000001_Node000002"><a xlink:title=" ">
<path fill="none" stroke="#63b8ff" d="M183.62,-47.43C191.57,-48.25 199.65,-49.09 207.65,-49.92"/>
<polygon fill="#63b8ff" stroke="#63b8ff" points="207.1,-53.38 217.41,-50.93 207.82,-46.41 207.1,-53.38"/>
</a>
</g>
</g>
<!-- Node3 -->
<g id="Node000003" class="node">
<title>Node3</title>
<g id="a_Node000003"><a xlink:href="class_u_k_p_t_cheat_manager.html#a269aace758de63df5a17b72523336094" target="_top" xlink:title=" ">
<polygon fill="white" stroke="#666666" points="380.38,-32 231.62,-32 231.62,0 380.38,0 380.38,-32"/>
<text xml:space="preserve" text-anchor="start" x="239.62" y="-18.5" font-family="Helvetica,sans-Serif" font-size="10.00">UKPTCheatManager::ShowAll</text>
<text xml:space="preserve" text-anchor="middle" x="306" y="-6.5" font-family="Helvetica,sans-Serif" font-size="10.00">ViewportWidget</text>
</a>
</g>
</g>
<!-- Node1&#45;&gt;Node3 -->
<g id="edge3_Node000001_Node000003" class="edge">
<title>Node1&#45;&gt;Node3</title>
<g id="a_edge3_Node000001_Node000003"><a xlink:title=" ">
<path fill="none" stroke="#63b8ff" d="M183.62,-28.57C195.64,-27.33 207.94,-26.05 219.87,-24.82"/>
<polygon fill="#63b8ff" stroke="#63b8ff" points="220.08,-28.32 229.66,-23.8 219.35,-21.35 220.08,-28.32"/>
</a>
</g>
</g>
</g>
</svg>
