<?xml version="1.0" encoding="UTF-8" standalone="no"?>
<!DOCTYPE svg PUBLIC "-//W3C//DTD SVG 1.1//EN"
 "http://www.w3.org/Graphics/SVG/1.1/DTD/svg11.dtd">
<!-- Generated by graphviz version 13.1.1 (20250719.2154)
 -->
<!-- Title: AMinionMonster::UpdateMinionState Pages: 1 -->
<!--zoomable 234 -->

<svg id="main" version="1.1" xmlns="http://www.w3.org/2000/svg" xmlns:xlink="http://www.w3.org/1999/xlink" xml:space="preserve" onload="init(evt)">

<style type="text/css"><![CDATA[
.node, .edge {opacity: 0.7;}
.node.selected, .edge.selected {opacity: 1;}
.edge:hover path { stroke: red; }
.edge:hover polygon { stroke: red; fill: red; }
]]></style>

<defs>
  <circle id="rim" cx="0" cy="0" r="7"/>
  <circle id="rim2" cx="0" cy="0" r="3.5"/>
  <g id="zoomPlus">
    <use xlink:href="#rim" fill="#404040"><set attributeName="fill" to="#808080" begin="zoomplus.mouseover" end="zoomplus.mouseout"/></use>
    <path d="M-4,0h8M0,-4v8" fill="none" stroke="white" stroke-width="1.5" pointer-events="none"/>
  </g>
  <g id="zoomMin">
    <use xlink:href="#rim" fill="#404040"><set attributeName="fill" to="#808080" begin="zoomminus.mouseover" end="zoomminus.mouseout"/></use>
    <path d="M-4,0h8" fill="none" stroke="white" stroke-width="1.5" pointer-events="none"/>
  </g>
  <g id="arrowUp" transform="translate(30 24)">
    <use xlink:href="#rim"/>
    <path pointer-events="none" fill="none" stroke="white" stroke-width="1.5" d="M0,-3.0v7 M-2.5,-0.5L0,-3.0L2.5,-0.5"/>
  </g>
  <g id="arrowRight" transform="rotate(90) translate(36 -43)">
    <use xlink:href="#rim"/>
    <path pointer-events="none" fill="none" stroke="white" stroke-width="1.5" d="M0,-3.0v7 M-2.5,-0.5L0,-3.0L2.5,-0.5"/>
  </g>
  <g id="arrowDown" transform="rotate(180) translate(-30 -48)">
    <use xlink:href="#rim"/>
    <path pointer-events="none" fill="none" stroke="white" stroke-width="1.5" d="M0,-3.0v7 M-2.5,-0.5L0,-3.0L2.5,-0.5"/>
  </g>
  <g id="arrowLeft" transform="rotate(270) translate(-36 17)">
    <use xlink:href="#rim"/>
    <path pointer-events="none" fill="none" stroke="white" stroke-width="1.5" d="M0,-3.0v7 M-2.5,-0.5L0,-3.0L2.5,-0.5"/>
  </g>
  <g id="resetDef">
    <use xlink:href="#rim2" fill="#404040"><set attributeName="fill" to="#808080" begin="reset.mouseover" end="reset.mouseout"/></use>
  </g>
</defs>
<script type="application/ecmascript">
var viewWidth = 679;
var viewHeight = 234;
var sectionId = 'dynsection-27';
</script>
<script type="application/ecmascript" xlink:href="svg.min.js"/>
<svg id="graph" class="graph">
<g id="viewport">
<title>AMinionMonster::UpdateMinionState</title>
<!-- Node1 -->
<g id="Node000001" class="node">
<title>Node1</title>
<g id="a_Node000001"><a xlink:title=" ">
<polygon fill="#999999" stroke="#666666" points="670.75,-126 518.25,-126 518.25,-94 670.75,-94 670.75,-126"/>
<text xml:space="preserve" text-anchor="start" x="526.25" y="-112.5" font-family="Helvetica,sans-Serif" font-size="10.00">AMinionMonster::UpdateMinion</text>
<text xml:space="preserve" text-anchor="middle" x="594.5" y="-100.5" font-family="Helvetica,sans-Serif" font-size="10.00">State</text>
</a>
</g>
</g>
<!-- Node2 -->
<g id="Node000002" class="node">
<title>Node2</title>
<g id="a_Node000002"><a xlink:href="class_a_minion_monster.html#a29f5923d1bd032d55820869e72c67c80" target="_top" xlink:title=" ">
<polygon fill="white" stroke="#666666" points="457.12,-226 349.62,-226 349.62,-206 457.12,-206 457.12,-226"/>
<text xml:space="preserve" text-anchor="middle" x="403.38" y="-212.5" font-family="Helvetica,sans-Serif" font-size="10.00">AMinionMonster::Die</text>
</a>
</g>
</g>
<!-- Node1&#45;&gt;Node2 -->
<g id="edge1_Node000001_Node000002" class="edge">
<title>Node1&#45;&gt;Node2</title>
<g id="a_edge1_Node000001_Node000002"><a xlink:title=" ">
<path fill="none" stroke="#63b8ff" d="M569.22,-134.03C547.98,-153.74 515.41,-180.92 482.25,-197 474.49,-200.76 465.92,-203.82 457.38,-206.29"/>
<polygon fill="#63b8ff" stroke="#63b8ff" points="571.37,-136.81 576.23,-127.39 566.56,-131.73 571.37,-136.81"/>
</a>
</g>
</g>
<!-- Node3 -->
<g id="Node000003" class="node">
<title>Node3</title>
<g id="a_Node000003"><a xlink:href="class_a_minion_monster.html#a0dc3c10547100acaed04aa410111401b" target="_top" xlink:title=" ">
<polygon fill="white" stroke="#666666" points="469.5,-170 337.25,-170 337.25,-138 469.5,-138 469.5,-170"/>
<text xml:space="preserve" text-anchor="start" x="345.25" y="-156.5" font-family="Helvetica,sans-Serif" font-size="10.00">AMinionMonster::Multicast</text>
<text xml:space="preserve" text-anchor="middle" x="403.38" y="-144.5" font-family="Helvetica,sans-Serif" font-size="10.00">SetDesiredRotator</text>
</a>
</g>
</g>
<!-- Node1&#45;&gt;Node3 -->
<g id="edge2_Node000001_Node000003" class="edge">
<title>Node1&#45;&gt;Node3</title>
<g id="a_edge2_Node000001_Node000003"><a xlink:title=" ">
<path fill="none" stroke="#63b8ff" d="M511.72,-129.03C497.77,-132.27 483.44,-135.6 469.98,-138.74"/>
<polygon fill="#63b8ff" stroke="#63b8ff" points="512.39,-132.46 521.33,-126.79 510.8,-125.65 512.39,-132.46"/>
</a>
</g>
</g>
<!-- Node4 -->
<g id="Node000004" class="node">
<title>Node4</title>
<g id="a_Node000004"><a xlink:href="class_a_minion_monster.html#a617617f553cc4a44ab771182d6a5baeb" target="_top" xlink:title=" ">
<polygon fill="white" stroke="#666666" points="469.12,-120 337.62,-120 337.62,-100 469.12,-100 469.12,-120"/>
<text xml:space="preserve" text-anchor="middle" x="403.38" y="-106.5" font-family="Helvetica,sans-Serif" font-size="10.00">AMinionMonster::OnDeath</text>
</a>
</g>
</g>
<!-- Node1&#45;&gt;Node4 -->
<g id="edge4_Node000001_Node000004" class="edge">
<title>Node1&#45;&gt;Node4</title>
<g id="a_edge4_Node000001_Node000004"><a xlink:title=" ">
<path fill="none" stroke="#63b8ff" d="M506.55,-110C494.07,-110 481.41,-110 469.45,-110"/>
<polygon fill="#63b8ff" stroke="#63b8ff" points="506.42,-113.5 516.42,-110 506.42,-106.5 506.42,-113.5"/>
</a>
</g>
</g>
<!-- Node7 -->
<g id="Node000007" class="node">
<title>Node7</title>
<g id="a_Node000007"><a xlink:href="class_a_minion_monster.html#aef4ee3d8dedd4094d93c19d4ac32ca6a" target="_top" xlink:title=" ">
<polygon fill="white" stroke="#666666" points="470.62,-82 336.12,-82 336.12,-50 470.62,-50 470.62,-82"/>
<text xml:space="preserve" text-anchor="start" x="344.12" y="-68.5" font-family="Helvetica,sans-Serif" font-size="10.00">AMinionMonster::OnReturn</text>
<text xml:space="preserve" text-anchor="middle" x="403.38" y="-56.5" font-family="Helvetica,sans-Serif" font-size="10.00">ToPool_Implementation</text>
</a>
</g>
</g>
<!-- Node1&#45;&gt;Node7 -->
<g id="edge8_Node000001_Node000007" class="edge">
<title>Node1&#45;&gt;Node7</title>
<g id="a_edge8_Node000001_Node000007"><a xlink:title=" ">
<path fill="none" stroke="#63b8ff" d="M511.93,-91.02C498.23,-87.84 484.17,-84.56 470.91,-81.48"/>
<polygon fill="#63b8ff" stroke="#63b8ff" points="510.8,-94.35 521.33,-93.21 512.39,-87.54 510.8,-94.35"/>
</a>
</g>
</g>
<!-- Node8 -->
<g id="Node000008" class="node">
<title>Node8</title>
<g id="a_Node000008"><a xlink:href="class_a_minion_monster.html#a9d04c28642a18379b51b882681acb85a" target="_top" xlink:title=" ">
<polygon fill="white" stroke="#666666" points="482.25,-32 324.5,-32 324.5,0 482.25,0 482.25,-32"/>
<text xml:space="preserve" text-anchor="start" x="332.5" y="-18.5" font-family="Helvetica,sans-Serif" font-size="10.00">AMinionMonster::OnSpawnFrom</text>
<text xml:space="preserve" text-anchor="middle" x="403.38" y="-6.5" font-family="Helvetica,sans-Serif" font-size="10.00">Pool_Implementation</text>
</a>
</g>
</g>
<!-- Node1&#45;&gt;Node8 -->
<g id="edge9_Node000001_Node000008" class="edge">
<title>Node1&#45;&gt;Node8</title>
<g id="a_edge9_Node000001_Node000008"><a xlink:title=" ">
<path fill="none" stroke="#63b8ff" d="M561.65,-87.33C540.02,-72.67 510.34,-53.98 482.25,-41 475.55,-37.9 468.35,-35.03 461.15,-32.42"/>
<polygon fill="#63b8ff" stroke="#63b8ff" points="559.52,-90.11 569.74,-92.88 563.48,-84.34 559.52,-90.11"/>
</a>
</g>
</g>
<!-- Node3&#45;&gt;Node3 -->
<g id="edge3_Node000003_Node000003" class="edge">
<title>Node3&#45;&gt;Node3</title>
<g id="a_edge3_Node000003_Node000003"><a xlink:title=" ">
<path fill="none" stroke="#63b8ff" d="M432.35,-181.71C427.52,-185.48 417.86,-188 403.38,-188 376.89,-188 366.54,-179.58 372.33,-170.44"/>
<polygon fill="#63b8ff" stroke="#63b8ff" points="435.78,-182.4 434.14,-171.93 428.9,-181.14 435.78,-182.4"/>
</a>
</g>
</g>
<!-- Node5 -->
<g id="Node000005" class="node">
<title>Node5</title>
<g id="a_Node000005"><a xlink:href="class_a_minion_monster.html#a3a16bd11e82fc828ec71c56674926af8" target="_top" xlink:title=" ">
<polygon fill="white" stroke="#666666" points="288.5,-120 170.5,-120 170.5,-100 288.5,-100 288.5,-120"/>
<text xml:space="preserve" text-anchor="middle" x="229.5" y="-106.5" font-family="Helvetica,sans-Serif" font-size="10.00">AMinionMonster::OnHit</text>
</a>
</g>
</g>
<!-- Node4&#45;&gt;Node5 -->
<g id="edge5_Node000004_Node000005" class="edge">
<title>Node4&#45;&gt;Node5</title>
<g id="a_edge5_Node000004_Node000005"><a xlink:title=" ">
<path fill="none" stroke="#63b8ff" d="M326.03,-110C313.53,-110 300.76,-110 288.79,-110"/>
<polygon fill="#63b8ff" stroke="#63b8ff" points="325.88,-113.5 335.88,-110 325.88,-106.5 325.88,-113.5"/>
</a>
</g>
</g>
<!-- Node5&#45;&gt;Node5 -->
<g id="edge7_Node000005_Node000005" class="edge">
<title>Node5&#45;&gt;Node5</title>
<g id="a_edge7_Node000005_Node000005"><a xlink:title=" ">
<path fill="none" stroke="#63b8ff" d="M258.18,-131.44C254.48,-135.3 244.92,-138 229.5,-138 201.3,-138 192.7,-128.98 203.72,-120.34"/>
<polygon fill="#63b8ff" stroke="#63b8ff" points="261.57,-130.6 255.66,-121.8 254.8,-132.36 261.57,-130.6"/>
</a>
</g>
</g>
<!-- Node6 -->
<g id="Node000006" class="node">
<title>Node6</title>
<g id="a_Node000006"><a xlink:href="class_a_minion_monster.html#a41a9c88f2978aa1667ec1555037bb71a" target="_top" xlink:title=" ">
<polygon fill="white" stroke="#666666" points="134.5,-120 0,-120 0,-100 134.5,-100 134.5,-120"/>
<text xml:space="preserve" text-anchor="middle" x="67.25" y="-106.5" font-family="Helvetica,sans-Serif" font-size="10.00">AMinionMonster::Damaged</text>
</a>
</g>
</g>
<!-- Node5&#45;&gt;Node6 -->
<g id="edge6_Node000005_Node000006" class="edge">
<title>Node5&#45;&gt;Node6</title>
<g id="a_edge6_Node000005_Node000006"><a xlink:title=" ">
<path fill="none" stroke="#63b8ff" d="M158.75,-110C150.84,-110 142.8,-110 134.93,-110"/>
<polygon fill="#63b8ff" stroke="#63b8ff" points="158.68,-113.5 168.68,-110 158.68,-106.5 158.68,-113.5"/>
</a>
</g>
</g>
</g>
</svg>

<g id="navigator" transform="translate(0 0)" fill="#404254">
  <rect fill="#f2f5e9" fill-opacity="0.5" stroke="#606060" stroke-width=".5" x="0" y="0" width="60" height="60"/>
  <use id="zoomplus" xlink:href="#zoomPlus" x="17" y="9" onmousedown="handleZoom(evt,'in')"/>
  <use id="zoomminus" xlink:href="#zoomMin" x="42" y="9" onmousedown="handleZoom(evt,'out')"/>
  <use id="reset" xlink:href="#resetDef" x="30" y="36" onmousedown="handleReset()"/>
   <use id="arrowup" xlink:href="#arrowUp" x="0" y="0" onmousedown="handlePan(0,-1)"/>
  <use id="arrowright" xlink:href="#arrowRight" x="0" y="0" onmousedown="handlePan(1,0)"/>
  <use id="arrowdown" xlink:href="#arrowDown" x="0" y="0" onmousedown="handlePan(0,1)"/>
  <use id="arrowleft" xlink:href="#arrowLeft" x="0" y="0" onmousedown="handlePan(-1,0)"/>
</g>
<svg viewBox="0 0 15 15" width="100%" height="30px" preserveAspectRatio="xMaxYMin meet">
 <g id="arrow_out" transform="scale(0.3 0.3)">
  <a xlink:href="class_a_minion_monster_ae7e6c5d889b8de78285021ecfe796683_icgraph_org.svg" target="_base">
   <rect id="button" ry="5" rx="5" y="6" x="6" height="38" width="38"
        fill="#f2f5e9" fill-opacity="0.5" stroke="#606060" stroke-width="1.0"/>
   <path id="arrow"
     d="M 11.500037,31.436501 C 11.940474,20.09759 22.043105,11.32322 32.158766,21.979434 L 37.068811,17.246167 C 37.068811,17.246167 37.088388,32 37.088388,32 L 22.160133,31.978069 C 22.160133,31.978069 26.997745,27.140456 26.997745,27.140456 C 18.528582,18.264221 13.291696,25.230495 11.500037,31.436501 z"
     style="fill:#404040;"/>
  </a>
 </g>
</svg>

<style type='text/css'>
<![CDATA[
[data-mouse-over-selected='false'] { opacity: 0.7; }
[data-mouse-over-selected='true']  { opacity: 1.0; }
]]>
</style>
<script type="application/ecmascript"><![CDATA[
document.addEventListener('DOMContentLoaded', (event) => {
  highlightEdges();
  highlightAdjacentNodes();
});
]]></script>
</svg>
