<?xml version="1.0" encoding="UTF-8" standalone="no"?>
<!DOCTYPE svg PUBLIC "-//W3C//DTD SVG 1.1//EN"
 "http://www.w3.org/Graphics/SVG/1.1/DTD/svg11.dtd">
<!-- Generated by graphviz version 13.1.1 (20250719.2154)
 -->
<!-- Title: AMission_OneBound Pages: 1 -->
<!--zoomable 852 -->

<svg id="main" version="1.1" xmlns="http://www.w3.org/2000/svg" xmlns:xlink="http://www.w3.org/1999/xlink" xml:space="preserve" onload="init(evt)">

<style type="text/css"><![CDATA[
.node, .edge {opacity: 0.7;}
.node.selected, .edge.selected {opacity: 1;}
.edge:hover path { stroke: red; }
.edge:hover polygon { stroke: red; fill: red; }
]]></style>

<defs>
  <circle id="rim" cx="0" cy="0" r="7"/>
  <circle id="rim2" cx="0" cy="0" r="3.5"/>
  <g id="zoomPlus">
    <use xlink:href="#rim" fill="#404040"><set attributeName="fill" to="#808080" begin="zoomplus.mouseover" end="zoomplus.mouseout"/></use>
    <path d="M-4,0h8M0,-4v8" fill="none" stroke="white" stroke-width="1.5" pointer-events="none"/>
  </g>
  <g id="zoomMin">
    <use xlink:href="#rim" fill="#404040"><set attributeName="fill" to="#808080" begin="zoomminus.mouseover" end="zoomminus.mouseout"/></use>
    <path d="M-4,0h8" fill="none" stroke="white" stroke-width="1.5" pointer-events="none"/>
  </g>
  <g id="arrowUp" transform="translate(30 24)">
    <use xlink:href="#rim"/>
    <path pointer-events="none" fill="none" stroke="white" stroke-width="1.5" d="M0,-3.0v7 M-2.5,-0.5L0,-3.0L2.5,-0.5"/>
  </g>
  <g id="arrowRight" transform="rotate(90) translate(36 -43)">
    <use xlink:href="#rim"/>
    <path pointer-events="none" fill="none" stroke="white" stroke-width="1.5" d="M0,-3.0v7 M-2.5,-0.5L0,-3.0L2.5,-0.5"/>
  </g>
  <g id="arrowDown" transform="rotate(180) translate(-30 -48)">
    <use xlink:href="#rim"/>
    <path pointer-events="none" fill="none" stroke="white" stroke-width="1.5" d="M0,-3.0v7 M-2.5,-0.5L0,-3.0L2.5,-0.5"/>
  </g>
  <g id="arrowLeft" transform="rotate(270) translate(-36 17)">
    <use xlink:href="#rim"/>
    <path pointer-events="none" fill="none" stroke="white" stroke-width="1.5" d="M0,-3.0v7 M-2.5,-0.5L0,-3.0L2.5,-0.5"/>
  </g>
  <g id="resetDef">
    <use xlink:href="#rim2" fill="#404040"><set attributeName="fill" to="#808080" begin="reset.mouseover" end="reset.mouseout"/></use>
  </g>
</defs>
<script type="application/ecmascript">
var viewWidth = 214;
var viewHeight = 852;
var sectionId = 'dynsection-0';
</script>
<script type="application/ecmascript" xlink:href="svg.min.js"/>
<svg id="graph" class="graph">
<g id="viewport">
<title>AMission_OneBound</title>
<!-- Node1 -->
<g id="Node000001" class="node">
<title>Node1</title>
<g id="a_Node000001"><a xlink:title=" ">
<polygon fill="#999999" stroke="none" points="161.25,-280 0,-280 0,0 161.25,0 161.25,-280"/>
<text xml:space="preserve" text-anchor="start" x="34.88" y="-266.5" font-family="Helvetica,sans-Serif" font-size="10.00">AMission_OneBound</text>
<text xml:space="preserve" text-anchor="start" x="4" y="-250.5" font-family="Helvetica,sans-Serif" font-size="10.00">+</text>
<text xml:space="preserve" text-anchor="start" x="14" y="-250.5" font-family="Helvetica,sans-Serif" font-size="10.00">int32 BounceCount</text>
<text xml:space="preserve" text-anchor="start" x="4" y="-234.5" font-family="Helvetica,sans-Serif" font-size="10.00">+</text>
<text xml:space="preserve" text-anchor="start" x="14" y="-234.5" font-family="Helvetica,sans-Serif" font-size="10.00">TSubclassOf&lt; ABouncingBall</text>
<text xml:space="preserve" text-anchor="start" x="14" y="-222.5" font-family="Helvetica,sans-Serif" font-size="10.00"> &gt; BouncingBall</text>
<text xml:space="preserve" text-anchor="start" x="4" y="-206.5" font-family="Helvetica,sans-Serif" font-size="10.00">+</text>
<text xml:space="preserve" text-anchor="start" x="14" y="-206.5" font-family="Helvetica,sans-Serif" font-size="10.00">TSubclassOf&lt; ALandingIndicator</text>
<text xml:space="preserve" text-anchor="start" x="14" y="-194.5" font-family="Helvetica,sans-Serif" font-size="10.00"> &gt; LandingIndicator</text>
<text xml:space="preserve" text-anchor="start" x="4" y="-178.5" font-family="Helvetica,sans-Serif" font-size="10.00">+</text>
<text xml:space="preserve" text-anchor="start" x="14" y="-178.5" font-family="Helvetica,sans-Serif" font-size="10.00">AMission_OneBound()</text>
<text xml:space="preserve" text-anchor="start" x="4" y="-162.5" font-family="Helvetica,sans-Serif" font-size="10.00">+</text>
<text xml:space="preserve" text-anchor="start" x="14" y="-162.5" font-family="Helvetica,sans-Serif" font-size="10.00">void OnBallEnteredIndicator</text>
<text xml:space="preserve" text-anchor="start" x="14" y="-150.5" font-family="Helvetica,sans-Serif" font-size="10.00">(ABouncingBall *Ball)</text>
<text xml:space="preserve" text-anchor="start" x="4" y="-134.5" font-family="Helvetica,sans-Serif" font-size="10.00">+</text>
<text xml:space="preserve" text-anchor="start" x="14" y="-134.5" font-family="Helvetica,sans-Serif" font-size="10.00">virtual void StartMission</text>
<text xml:space="preserve" text-anchor="start" x="14" y="-122.5" font-family="Helvetica,sans-Serif" font-size="10.00">() override</text>
<text xml:space="preserve" text-anchor="start" x="4.38" y="-106.5" font-family="Helvetica,sans-Serif" font-size="10.00">#</text>
<text xml:space="preserve" text-anchor="start" x="14" y="-106.5" font-family="Helvetica,sans-Serif" font-size="10.00">virtual void EndPlay</text>
<text xml:space="preserve" text-anchor="start" x="14" y="-94.5" font-family="Helvetica,sans-Serif" font-size="10.00">(const EEndPlayReason</text>
<text xml:space="preserve" text-anchor="start" x="14" y="-82.5" font-family="Helvetica,sans-Serif" font-size="10.00">::Type EndPlayReason)</text>
<text xml:space="preserve" text-anchor="start" x="14" y="-70.5" font-family="Helvetica,sans-Serif" font-size="10.00"> override</text>
<text xml:space="preserve" text-anchor="start" x="4.38" y="-54.5" font-family="Helvetica,sans-Serif" font-size="10.00">#</text>
<text xml:space="preserve" text-anchor="start" x="14" y="-54.5" font-family="Helvetica,sans-Serif" font-size="10.00">virtual void GetLifetime</text>
<text xml:space="preserve" text-anchor="start" x="14" y="-42.5" font-family="Helvetica,sans-Serif" font-size="10.00">ReplicatedProps(TArray</text>
<text xml:space="preserve" text-anchor="start" x="14" y="-30.5" font-family="Helvetica,sans-Serif" font-size="10.00">&lt; class FLifetimeProperty</text>
<text xml:space="preserve" text-anchor="start" x="14" y="-18.5" font-family="Helvetica,sans-Serif" font-size="10.00"> &gt; &amp;OutLifetimeProps) const</text>
<text xml:space="preserve" text-anchor="start" x="14" y="-6.5" font-family="Helvetica,sans-Serif" font-size="10.00"> override</text>
<polygon fill="#666666" stroke="#666666" points="0,-262 0,-262 161.25,-262 161.25,-262 0,-262"/>
<polygon fill="#666666" stroke="#666666" points="0,-190 0,-190 12,-190 12,-190 0,-190"/>
<polygon fill="#666666" stroke="#666666" points="12,-190 12,-190 161.25,-190 161.25,-190 12,-190"/>
<polygon fill="none" stroke="#666666" points="0,0 0,-280 161.25,-280 161.25,0 0,0"/>
</a>
</g>
</g>
<!-- Node2 -->
<g id="Node000002" class="node">
<title>Node2</title>
<g id="a_Node000002"><a xlink:href="class_a_mission_actor_base.html" target="_top" xlink:title=" ">
<polygon fill="white" stroke="none" points="154.12,-688 7.12,-688 7.12,-316 154.12,-316 154.12,-688"/>
<text xml:space="preserve" text-anchor="start" x="37.5" y="-674.5" font-family="Helvetica,sans-Serif" font-size="10.00">AMissionActorBase</text>
<text xml:space="preserve" text-anchor="start" x="11.5" y="-658.5" font-family="Helvetica,sans-Serif" font-size="10.00">#</text>
<text xml:space="preserve" text-anchor="start" x="21.12" y="-658.5" font-family="Helvetica,sans-Serif" font-size="10.00">float CompletionThreshold</text>
<text xml:space="preserve" text-anchor="start" x="11.5" y="-642.5" font-family="Helvetica,sans-Serif" font-size="10.00">#</text>
<text xml:space="preserve" text-anchor="start" x="21.12" y="-642.5" font-family="Helvetica,sans-Serif" font-size="10.00">FName MissionID</text>
<text xml:space="preserve" text-anchor="start" x="11.5" y="-626.5" font-family="Helvetica,sans-Serif" font-size="10.00">#</text>
<text xml:space="preserve" text-anchor="start" x="21.12" y="-626.5" font-family="Helvetica,sans-Serif" font-size="10.00">float MissionProgress</text>
<text xml:space="preserve" text-anchor="start" x="11.12" y="-610.5" font-family="Helvetica,sans-Serif" font-size="10.00">+</text>
<text xml:space="preserve" text-anchor="start" x="21.12" y="-610.5" font-family="Helvetica,sans-Serif" font-size="10.00">AMissionActorBase()</text>
<text xml:space="preserve" text-anchor="start" x="11.12" y="-594.5" font-family="Helvetica,sans-Serif" font-size="10.00">+</text>
<text xml:space="preserve" text-anchor="start" x="21.12" y="-594.5" font-family="Helvetica,sans-Serif" font-size="10.00">virtual float GetCompletion</text>
<text xml:space="preserve" text-anchor="start" x="21.12" y="-582.5" font-family="Helvetica,sans-Serif" font-size="10.00">Threshold() const</text>
<text xml:space="preserve" text-anchor="start" x="11.12" y="-566.5" font-family="Helvetica,sans-Serif" font-size="10.00">+</text>
<text xml:space="preserve" text-anchor="start" x="21.12" y="-566.5" font-family="Helvetica,sans-Serif" font-size="10.00">virtual FName GetMission</text>
<text xml:space="preserve" text-anchor="start" x="21.12" y="-554.5" font-family="Helvetica,sans-Serif" font-size="10.00">ID() const override</text>
<text xml:space="preserve" text-anchor="start" x="11.12" y="-538.5" font-family="Helvetica,sans-Serif" font-size="10.00">+</text>
<text xml:space="preserve" text-anchor="start" x="21.12" y="-538.5" font-family="Helvetica,sans-Serif" font-size="10.00">virtual void NotifyMission</text>
<text xml:space="preserve" text-anchor="start" x="21.12" y="-526.5" font-family="Helvetica,sans-Serif" font-size="10.00">Complete()</text>
<text xml:space="preserve" text-anchor="start" x="11.12" y="-510.5" font-family="Helvetica,sans-Serif" font-size="10.00">+</text>
<text xml:space="preserve" text-anchor="start" x="21.12" y="-510.5" font-family="Helvetica,sans-Serif" font-size="10.00">virtual void NotifyMission</text>
<text xml:space="preserve" text-anchor="start" x="21.12" y="-498.5" font-family="Helvetica,sans-Serif" font-size="10.00">Failed()</text>
<text xml:space="preserve" text-anchor="start" x="11.12" y="-482.5" font-family="Helvetica,sans-Serif" font-size="10.00">+</text>
<text xml:space="preserve" text-anchor="start" x="21.12" y="-482.5" font-family="Helvetica,sans-Serif" font-size="10.00">virtual FMissionComplete</text>
<text xml:space="preserve" text-anchor="start" x="21.12" y="-470.5" font-family="Helvetica,sans-Serif" font-size="10.00"> &amp; OnMissionCompleted()</text>
<text xml:space="preserve" text-anchor="start" x="21.12" y="-458.5" font-family="Helvetica,sans-Serif" font-size="10.00"> override</text>
<text xml:space="preserve" text-anchor="start" x="11.12" y="-442.5" font-family="Helvetica,sans-Serif" font-size="10.00">+</text>
<text xml:space="preserve" text-anchor="start" x="21.12" y="-442.5" font-family="Helvetica,sans-Serif" font-size="10.00">virtual FMissionFailed</text>
<text xml:space="preserve" text-anchor="start" x="21.12" y="-430.5" font-family="Helvetica,sans-Serif" font-size="10.00"> &amp; OnMissionFailed() override</text>
<text xml:space="preserve" text-anchor="start" x="11.12" y="-414.5" font-family="Helvetica,sans-Serif" font-size="10.00">+</text>
<text xml:space="preserve" text-anchor="start" x="21.12" y="-414.5" font-family="Helvetica,sans-Serif" font-size="10.00">virtual void StartMission()</text>
<text xml:space="preserve" text-anchor="start" x="11.5" y="-398.5" font-family="Helvetica,sans-Serif" font-size="10.00">#</text>
<text xml:space="preserve" text-anchor="start" x="21.12" y="-398.5" font-family="Helvetica,sans-Serif" font-size="10.00">virtual void GetLifetime</text>
<text xml:space="preserve" text-anchor="start" x="21.12" y="-386.5" font-family="Helvetica,sans-Serif" font-size="10.00">ReplicatedProps(TArray</text>
<text xml:space="preserve" text-anchor="start" x="21.12" y="-374.5" font-family="Helvetica,sans-Serif" font-size="10.00">&lt; class FLifetimeProperty</text>
<text xml:space="preserve" text-anchor="start" x="21.12" y="-362.5" font-family="Helvetica,sans-Serif" font-size="10.00"> &gt; &amp;OutLifetimeProps) const</text>
<text xml:space="preserve" text-anchor="start" x="21.12" y="-350.5" font-family="Helvetica,sans-Serif" font-size="10.00"> override</text>
<text xml:space="preserve" text-anchor="start" x="11.5" y="-334.5" font-family="Helvetica,sans-Serif" font-size="10.00">#</text>
<text xml:space="preserve" text-anchor="start" x="21.12" y="-334.5" font-family="Helvetica,sans-Serif" font-size="10.00">virtual void OnRep</text>
<text xml:space="preserve" text-anchor="start" x="21.12" y="-322.5" font-family="Helvetica,sans-Serif" font-size="10.00">_MissionProgress()</text>
<polygon fill="#666666" stroke="#666666" points="7.12,-670 7.12,-670 154.12,-670 154.12,-670 7.12,-670"/>
<polygon fill="#666666" stroke="#666666" points="7.12,-622 7.12,-622 19.12,-622 19.12,-622 7.12,-622"/>
<polygon fill="#666666" stroke="#666666" points="19.12,-622 19.12,-622 154.12,-622 154.12,-622 19.12,-622"/>
<polygon fill="none" stroke="#666666" points="7.12,-316 7.12,-688 154.12,-688 154.12,-316 7.12,-316"/>
</a>
</g>
</g>
<!-- Node2&#45;&gt;Node1 -->
<g id="edge1_Node000001_Node000002" class="edge">
<title>Node2&#45;&gt;Node1</title>
<g id="a_edge1_Node000001_Node000002"><a xlink:title=" ">
<path fill="none" stroke="#63b8ff" d="M80.62,-304.78C80.62,-296.38 80.62,-288.03 80.62,-279.8"/>
<polygon fill="none" stroke="#63b8ff" points="77.13,-304.74 80.63,-314.74 84.13,-304.74 77.13,-304.74"/>
</a>
</g>
</g>
<!-- Node3 -->
<g id="Node000003" class="node">
<title>Node3</title>
<g id="a_Node000003"><a xlink:title=" ">
<polygon fill="white" stroke="none" points="45.62,-810 7.62,-810 7.62,-758 45.62,-758 45.62,-810"/>
<text xml:space="preserve" text-anchor="start" x="11.62" y="-796.5" font-family="Helvetica,sans-Serif" font-size="10.00">AActor</text>
<text xml:space="preserve" text-anchor="start" x="25.12" y="-780.5" font-family="Helvetica,sans-Serif" font-size="10.00"> </text>
<text xml:space="preserve" text-anchor="start" x="25.12" y="-764.5" font-family="Helvetica,sans-Serif" font-size="10.00"> </text>
<polygon fill="#666666" stroke="#666666" points="7.62,-792 7.62,-792 45.62,-792 45.62,-792 7.62,-792"/>
<polygon fill="#666666" stroke="#666666" points="7.62,-776 7.62,-776 45.62,-776 45.62,-776 7.62,-776"/>
<polygon fill="none" stroke="#666666" points="7.62,-758 7.62,-810 45.62,-810 45.62,-758 7.62,-758"/>
</a>
</g>
</g>
<!-- Node3&#45;&gt;Node2 -->
<g id="edge2_Node000002_Node000003" class="edge">
<title>Node3&#45;&gt;Node2</title>
<g id="a_edge2_Node000002_Node000003"><a xlink:title=" ">
<path fill="none" stroke="#63b8ff" d="M33.55,-747.08C36.7,-730.77 40.68,-710.12 44.99,-687.78"/>
<polygon fill="none" stroke="#63b8ff" points="30.16,-746.18 31.7,-756.67 37.03,-747.51 30.16,-746.18"/>
</a>
</g>
</g>
<!-- Node4 -->
<g id="Node000004" class="node">
<title>Node4</title>
<g id="a_Node000004"><a xlink:href="class_i_mission_interface.html" target="_top" xlink:title=" ">
<polygon fill="white" stroke="none" points="205.5,-844 63.75,-844 63.75,-724 205.5,-724 205.5,-844"/>
<text xml:space="preserve" text-anchor="start" x="97.12" y="-830.5" font-family="Helvetica,sans-Serif" font-size="10.00">IMissionInterface</text>
<text xml:space="preserve" text-anchor="start" x="133.12" y="-814.5" font-family="Helvetica,sans-Serif" font-size="10.00"> </text>
<text xml:space="preserve" text-anchor="start" x="67.75" y="-798.5" font-family="Helvetica,sans-Serif" font-size="10.00">+</text>
<text xml:space="preserve" text-anchor="start" x="77.75" y="-798.5" font-family="Helvetica,sans-Serif" font-size="10.00">virtual FName GetMission</text>
<text xml:space="preserve" text-anchor="start" x="77.75" y="-786.5" font-family="Helvetica,sans-Serif" font-size="10.00">ID() const =0</text>
<text xml:space="preserve" text-anchor="start" x="67.75" y="-770.5" font-family="Helvetica,sans-Serif" font-size="10.00">+</text>
<text xml:space="preserve" text-anchor="start" x="77.75" y="-770.5" font-family="Helvetica,sans-Serif" font-size="10.00">virtual FMissionComplete</text>
<text xml:space="preserve" text-anchor="start" x="77.75" y="-758.5" font-family="Helvetica,sans-Serif" font-size="10.00"> &amp; OnMissionCompleted()=0</text>
<text xml:space="preserve" text-anchor="start" x="67.75" y="-742.5" font-family="Helvetica,sans-Serif" font-size="10.00">+</text>
<text xml:space="preserve" text-anchor="start" x="77.75" y="-742.5" font-family="Helvetica,sans-Serif" font-size="10.00">virtual FMissionFailed</text>
<text xml:space="preserve" text-anchor="start" x="77.75" y="-730.5" font-family="Helvetica,sans-Serif" font-size="10.00"> &amp; OnMissionFailed()=0</text>
<polygon fill="#666666" stroke="#666666" points="63.75,-826 63.75,-826 205.5,-826 205.5,-826 63.75,-826"/>
<polygon fill="#666666" stroke="#666666" points="63.75,-810 63.75,-810 205.5,-810 205.5,-810 63.75,-810"/>
<polygon fill="none" stroke="#666666" points="63.75,-724 63.75,-844 205.5,-844 205.5,-724 63.75,-724"/>
</a>
</g>
</g>
<!-- Node4&#45;&gt;Node2 -->
<g id="edge3_Node000002_Node000004" class="edge">
<title>Node4&#45;&gt;Node2</title>
<g id="a_edge3_Node000002_Node000004"><a xlink:title=" ">
<path fill="none" stroke="#63b8ff" d="M121.16,-713.2C119.61,-705.14 117.97,-696.67 116.29,-687.93"/>
<polygon fill="none" stroke="#63b8ff" points="117.69,-713.66 123.02,-722.82 124.56,-712.33 117.69,-713.66"/>
</a>
</g>
</g>
</g>
</svg>

<g id="navigator" transform="translate(0 0)" fill="#404254">
  <rect fill="#f2f5e9" fill-opacity="0.5" stroke="#606060" stroke-width=".5" x="0" y="0" width="60" height="60"/>
  <use id="zoomplus" xlink:href="#zoomPlus" x="17" y="9" onmousedown="handleZoom(evt,'in')"/>
  <use id="zoomminus" xlink:href="#zoomMin" x="42" y="9" onmousedown="handleZoom(evt,'out')"/>
  <use id="reset" xlink:href="#resetDef" x="30" y="36" onmousedown="handleReset()"/>
   <use id="arrowup" xlink:href="#arrowUp" x="0" y="0" onmousedown="handlePan(0,-1)"/>
  <use id="arrowright" xlink:href="#arrowRight" x="0" y="0" onmousedown="handlePan(1,0)"/>
  <use id="arrowdown" xlink:href="#arrowDown" x="0" y="0" onmousedown="handlePan(0,1)"/>
  <use id="arrowleft" xlink:href="#arrowLeft" x="0" y="0" onmousedown="handlePan(-1,0)"/>
</g>
<svg viewBox="0 0 15 15" width="100%" height="30px" preserveAspectRatio="xMaxYMin meet">
 <g id="arrow_out" transform="scale(0.3 0.3)">
  <a xlink:href="class_a_mission___one_bound__inherit__graph_org.svg" target="_base">
   <rect id="button" ry="5" rx="5" y="6" x="6" height="38" width="38"
        fill="#f2f5e9" fill-opacity="0.5" stroke="#606060" stroke-width="1.0"/>
   <path id="arrow"
     d="M 11.500037,31.436501 C 11.940474,20.09759 22.043105,11.32322 32.158766,21.979434 L 37.068811,17.246167 C 37.068811,17.246167 37.088388,32 37.088388,32 L 22.160133,31.978069 C 22.160133,31.978069 26.997745,27.140456 26.997745,27.140456 C 18.528582,18.264221 13.291696,25.230495 11.500037,31.436501 z"
     style="fill:#404040;"/>
  </a>
 </g>
</svg>

<style type='text/css'>
<![CDATA[
[data-mouse-over-selected='false'] { opacity: 0.7; }
[data-mouse-over-selected='true']  { opacity: 1.0; }
]]>
</style>
<script type="application/ecmascript"><![CDATA[
document.addEventListener('DOMContentLoaded', (event) => {
  highlightEdges();
  highlightAdjacentNodes();
});
]]></script>
</svg>
