<?xml version="1.0" encoding="UTF-8" standalone="no"?>
<!DOCTYPE svg PUBLIC "-//W3C//DTD SVG 1.1//EN"
 "http://www.w3.org/Graphics/SVG/1.1/DTD/svg11.dtd">
<!-- Generated by graphviz version 13.1.1 (20250719.2154)
 -->
<!-- Title: AKPTInGameMode::StartRound Pages: 1 -->
<svg width="1100pt" height="315pt"
 viewBox="0.00 0.00 1100.00 315.00" xmlns="http://www.w3.org/2000/svg" xmlns:xlink="http://www.w3.org/1999/xlink">
<g id="graph0" class="graph" transform="scale(1 1) rotate(0) translate(4 311.38)">
<title>AKPTInGameMode::StartRound</title>
<!-- Node1 -->
<g id="Node000001" class="node">
<title>Node1</title>
<g id="a_Node000001"><a xlink:title="새 라운드를 시작합니다.">
<polygon fill="#999999" stroke="#666666" points="156.25,-151 0,-151 0,-131 156.25,-131 156.25,-151"/>
<text xml:space="preserve" text-anchor="middle" x="78.12" y="-137.5" font-family="Helvetica,sans-Serif" font-size="10.00">AKPTInGameMode::StartRound</text>
</a>
</g>
</g>
<!-- Node2 -->
<g id="Node000002" class="node">
<title>Node2</title>
<g id="a_Node000002"><a xlink:href="class_a_k_p_t_in_game_mode.html#aa4f70056d702908efb82a3a085b2d832" target="_top" xlink:title="주간 페이즈의 시작을 처리합니다.">
<polygon fill="white" stroke="#666666" points="347.75,-157 192.25,-157 192.25,-125 347.75,-125 347.75,-157"/>
<text xml:space="preserve" text-anchor="start" x="200.25" y="-143.5" font-family="Helvetica,sans-Serif" font-size="10.00">AKPTInGameMode::HandleDay</text>
<text xml:space="preserve" text-anchor="middle" x="270" y="-131.5" font-family="Helvetica,sans-Serif" font-size="10.00">Phase</text>
</a>
</g>
</g>
<!-- Node1&#45;&gt;Node2 -->
<g id="edge1_Node000001_Node000002" class="edge">
<title>Node1&#45;&gt;Node2</title>
<g id="a_edge1_Node000001_Node000002"><a xlink:title=" ">
<path fill="none" stroke="#63b8ff" d="M156.63,-141C164.57,-141 172.69,-141 180.74,-141"/>
<polygon fill="#63b8ff" stroke="#63b8ff" points="180.54,-144.5 190.54,-141 180.54,-137.5 180.54,-144.5"/>
</a>
</g>
</g>
<!-- Node3 -->
<g id="Node000003" class="node">
<title>Node3</title>
<g id="a_Node000003"><a xlink:href="class_a_k_p_t_in_game_mode.html#ad299e138b605334f03841982928f4e6e" target="_top" xlink:title="특정 플레이어를 현재 게임 페이즈에 맞게 초기화합니다.">
<polygon fill="white" stroke="#666666" points="526.5,-157 383.75,-157 383.75,-125 526.5,-125 526.5,-157"/>
<text xml:space="preserve" text-anchor="start" x="391.75" y="-143.5" font-family="Helvetica,sans-Serif" font-size="10.00">AKPTInGameMode::Initialize</text>
<text xml:space="preserve" text-anchor="middle" x="455.12" y="-131.5" font-family="Helvetica,sans-Serif" font-size="10.00">PlayerForCurrentPhase</text>
</a>
</g>
</g>
<!-- Node2&#45;&gt;Node3 -->
<g id="edge2_Node000002_Node000003" class="edge">
<title>Node2&#45;&gt;Node3</title>
<g id="a_edge2_Node000002_Node000003"><a xlink:title=" ">
<path fill="none" stroke="#63b8ff" d="M348.13,-141C356.1,-141 364.23,-141 372.25,-141"/>
<polygon fill="#63b8ff" stroke="#63b8ff" points="371.98,-144.5 381.98,-141 371.98,-137.5 371.98,-144.5"/>
</a>
</g>
</g>
<!-- Node4 -->
<g id="Node000004" class="node">
<title>Node4</title>
<g id="a_Node000004"><a xlink:href="class_a_k_p_t_player_state.html#a3f0fd46533843d108f4569bd68d9b233" target="_top" xlink:title=" ">
<polygon fill="white" stroke="#666666" points="1092,-243 950,-243 950,-211 1092,-211 1092,-243"/>
<text xml:space="preserve" text-anchor="start" x="958" y="-229.5" font-family="Helvetica,sans-Serif" font-size="10.00">AKPTPlayerState::GetAbility</text>
<text xml:space="preserve" text-anchor="middle" x="1021" y="-217.5" font-family="Helvetica,sans-Serif" font-size="10.00">SystemComponent</text>
</a>
</g>
</g>
<!-- Node3&#45;&gt;Node4 -->
<g id="edge3_Node000003_Node000004" class="edge">
<title>Node3&#45;&gt;Node4</title>
<g id="a_edge3_Node000003_Node000004"><a xlink:title=" ">
<path fill="none" stroke="#63b8ff" d="M462.83,-157.05C476.44,-187.23 510.49,-251.65 562.5,-277 699.91,-343.97 887.46,-282.92 973.46,-247.79"/>
<polygon fill="#63b8ff" stroke="#63b8ff" points="974.63,-251.09 982.52,-244.02 971.95,-244.63 974.63,-251.09"/>
</a>
</g>
</g>
<!-- Node5 -->
<g id="Node000005" class="node">
<title>Node5</title>
<g id="a_Node000005"><a xlink:href="class_a_k_p_t_player_state.html#a6989c3ebb86791d3a7265d8f5dc90b93" target="_top" xlink:title=" ">
<polygon fill="white" stroke="#666666" points="719.88,-250 571.12,-250 571.12,-218 719.88,-218 719.88,-250"/>
<text xml:space="preserve" text-anchor="start" x="579.12" y="-236.5" font-family="Helvetica,sans-Serif" font-size="10.00">AKPTPlayerState::GetReward</text>
<text xml:space="preserve" text-anchor="middle" x="645.5" y="-224.5" font-family="Helvetica,sans-Serif" font-size="10.00">StateComponent</text>
</a>
</g>
</g>
<!-- Node3&#45;&gt;Node5 -->
<g id="edge4_Node000003_Node000005" class="edge">
<title>Node3&#45;&gt;Node5</title>
<g id="a_edge4_Node000003_Node000005"><a xlink:title=" ">
<path fill="none" stroke="#63b8ff" d="M477.93,-157.46C498.74,-172.56 531.45,-194.67 562.5,-209 565.98,-210.61 569.6,-212.15 573.28,-213.61"/>
<polygon fill="#63b8ff" stroke="#63b8ff" points="571.78,-216.79 582.37,-217.01 574.23,-210.23 571.78,-216.79"/>
</a>
</g>
</g>
<!-- Node6 -->
<g id="Node000006" class="node">
<title>Node6</title>
<g id="a_Node000006"><a xlink:href="class_u_player_reward_state_component.html#a13152160f317ee674b6c1dde2d1bb0e7" target="_top" xlink:title="처리해야 할 보상이 남아있는지 확인합니다.">
<polygon fill="white" stroke="#666666" points="724.75,-182 566.25,-182 566.25,-150 724.75,-150 724.75,-182"/>
<text xml:space="preserve" text-anchor="start" x="574.25" y="-168.5" font-family="Helvetica,sans-Serif" font-size="10.00">UPlayerRewardStateComponent</text>
<text xml:space="preserve" text-anchor="middle" x="645.5" y="-156.5" font-family="Helvetica,sans-Serif" font-size="10.00">::HasPendingRewards</text>
</a>
</g>
</g>
<!-- Node3&#45;&gt;Node6 -->
<g id="edge6_Node000003_Node000006" class="edge">
<title>Node3&#45;&gt;Node6</title>
<g id="a_edge6_Node000003_Node000006"><a xlink:title=" ">
<path fill="none" stroke="#63b8ff" d="M526.8,-150.38C535.86,-151.58 545.22,-152.82 554.53,-154.06"/>
<polygon fill="#63b8ff" stroke="#63b8ff" points="553.96,-157.52 564.34,-155.36 554.88,-150.58 553.96,-157.52"/>
</a>
</g>
</g>
<!-- Node7 -->
<g id="Node000007" class="node">
<title>Node7</title>
<g id="a_Node000007"><a xlink:href="class_a_k_p_t_in_game_mode.html#a1a9ee04a849c50e213574d166ea3eda5" target="_top" xlink:title="특정 플레이어에게 카드 선택 기회를 제공합니다.">
<polygon fill="white" stroke="#666666" points="713.5,-132 577.5,-132 577.5,-100 713.5,-100 713.5,-132"/>
<text xml:space="preserve" text-anchor="start" x="585.5" y="-118.5" font-family="Helvetica,sans-Serif" font-size="10.00">AKPTInGameMode::Initiate</text>
<text xml:space="preserve" text-anchor="middle" x="645.5" y="-106.5" font-family="Helvetica,sans-Serif" font-size="10.00">RewardPhaseForPlayer</text>
</a>
</g>
</g>
<!-- Node3&#45;&gt;Node7 -->
<g id="edge8_Node000003_Node000007" class="edge">
<title>Node3&#45;&gt;Node7</title>
<g id="a_edge8_Node000003_Node000007"><a xlink:title=" ">
<path fill="none" stroke="#63b8ff" d="M526.8,-131.62C539.56,-129.93 552.94,-128.15 565.9,-126.43"/>
<polygon fill="#63b8ff" stroke="#63b8ff" points="566.21,-129.92 575.67,-125.14 565.29,-122.98 566.21,-129.92"/>
</a>
</g>
</g>
<!-- Node8 -->
<g id="Node000008" class="node">
<title>Node8</title>
<g id="a_Node000008"><a xlink:href="class_a_k_p_t_in_game_mode.html#a23300b5648c661902a39ec934b2de357" target="_top" xlink:title=" ">
<polygon fill="white" stroke="#666666" points="728.5,-82 562.5,-82 562.5,-50 728.5,-50 728.5,-82"/>
<text xml:space="preserve" text-anchor="start" x="570.5" y="-68.5" font-family="Helvetica,sans-Serif" font-size="10.00">AKPTInGameMode::SetAllPlayers</text>
<text xml:space="preserve" text-anchor="middle" x="645.5" y="-56.5" font-family="Helvetica,sans-Serif" font-size="10.00">SkillEnabled</text>
</a>
</g>
</g>
<!-- Node3&#45;&gt;Node8 -->
<g id="edge9_Node000003_Node000008" class="edge">
<title>Node3&#45;&gt;Node8</title>
<g id="a_edge9_Node000003_Node000008"><a xlink:title=" ">
<path fill="none" stroke="#63b8ff" d="M487.72,-124.69C508.62,-114.26 536.79,-100.9 562.5,-91 566.87,-89.31 571.41,-87.67 576.01,-86.07"/>
<polygon fill="#63b8ff" stroke="#63b8ff" points="577,-89.43 585.36,-82.93 574.77,-82.8 577,-89.43"/>
</a>
</g>
</g>
<!-- Node10 -->
<g id="Node000010" class="node">
<title>Node10</title>
<g id="a_Node000010"><a xlink:href="class_a_k_p_t_player_state.html#ae76783471e033ac0ece5ebe988856b1b" target="_top" xlink:title="업그레이드 선택 기회를 추가합니다.">
<polygon fill="white" stroke="#666666" points="721.75,-32 569.25,-32 569.25,0 721.75,0 721.75,-32"/>
<text xml:space="preserve" text-anchor="start" x="577.25" y="-18.5" font-family="Helvetica,sans-Serif" font-size="10.00">AKPTPlayerState::SetPersonal</text>
<text xml:space="preserve" text-anchor="middle" x="645.5" y="-6.5" font-family="Helvetica,sans-Serif" font-size="10.00">StateTag</text>
</a>
</g>
</g>
<!-- Node3&#45;&gt;Node10 -->
<g id="edge12_Node000003_Node000010" class="edge">
<title>Node3&#45;&gt;Node10</title>
<g id="a_edge12_Node000003_Node000010"><a xlink:title=" ">
<path fill="none" stroke="#63b8ff" d="M469.17,-124.74C487.69,-102.69 523.68,-63.5 562.5,-41 564.84,-39.65 567.25,-38.36 569.73,-37.14"/>
<polygon fill="#63b8ff" stroke="#63b8ff" points="571.09,-40.36 578.78,-33.08 568.23,-33.97 571.09,-40.36"/>
</a>
</g>
</g>
<!-- Node5&#45;&gt;Node5 -->
<g id="edge5_Node000005_Node000005" class="edge">
<title>Node5&#45;&gt;Node5</title>
<g id="a_edge5_Node000005_Node000005"><a xlink:title=" ">
<path fill="none" stroke="#63b8ff" d="M611.51,-250.44C605.17,-259.58 616.5,-268 645.5,-268 661.36,-268 671.94,-265.48 677.23,-261.71"/>
<polygon fill="#63b8ff" stroke="#63b8ff" points="680.65,-262.42 679.19,-251.93 673.79,-261.04 680.65,-262.42"/>
</a>
</g>
</g>
<!-- Node6&#45;&gt;Node6 -->
<g id="edge7_Node000006_Node000006" class="edge">
<title>Node6&#45;&gt;Node6</title>
<g id="a_edge7_Node000006_Node000006"><a xlink:title=" ">
<path fill="none" stroke="#63b8ff" d="M611.51,-182.44C605.17,-191.58 616.5,-200 645.5,-200 661.36,-200 671.94,-197.48 677.23,-193.71"/>
<polygon fill="#63b8ff" stroke="#63b8ff" points="680.65,-194.42 679.19,-183.93 673.79,-193.04 680.65,-194.42"/>
</a>
</g>
</g>
<!-- Node9 -->
<g id="Node000009" class="node">
<title>Node9</title>
<g id="a_Node000009"><a xlink:href="class_a_k_p_t_in_game_mode.html#a4d83e6405b91bdefb43aeac062b7b099" target="_top" xlink:title=" ">
<polygon fill="white" stroke="#666666" points="914,-175 764.5,-175 764.5,-143 914,-143 914,-175"/>
<text xml:space="preserve" text-anchor="start" x="772.5" y="-161.5" font-family="Helvetica,sans-Serif" font-size="10.00">AKPTInGameMode::SetPlayer</text>
<text xml:space="preserve" text-anchor="middle" x="839.25" y="-149.5" font-family="Helvetica,sans-Serif" font-size="10.00">SkillEnabled</text>
</a>
</g>
</g>
<!-- Node8&#45;&gt;Node9 -->
<g id="edge10_Node000008_Node000009" class="edge">
<title>Node8&#45;&gt;Node9</title>
<g id="a_edge10_Node000008_Node000009"><a xlink:title=" ">
<path fill="none" stroke="#63b8ff" d="M706.73,-82.39C714.17,-84.99 721.59,-87.87 728.5,-91 756.12,-103.51 785.2,-121.79 806.48,-136.24"/>
<polygon fill="#63b8ff" stroke="#63b8ff" points="804.21,-138.93 814.43,-141.72 808.18,-133.17 804.21,-138.93"/>
</a>
</g>
</g>
<!-- Node9&#45;&gt;Node4 -->
<g id="edge11_Node000009_Node000004" class="edge">
<title>Node9&#45;&gt;Node4</title>
<g id="a_edge11_Node000009_Node000004"><a xlink:title=" ">
<path fill="none" stroke="#63b8ff" d="M883.76,-175.46C908.51,-184.82 939.72,-196.63 966.02,-206.58"/>
<polygon fill="#63b8ff" stroke="#63b8ff" points="964.57,-209.77 975.16,-210.04 967.05,-203.23 964.57,-209.77"/>
</a>
</g>
</g>
<!-- Node11 -->
<g id="Node000011" class="node">
<title>Node11</title>
<g id="a_Node000011"><a xlink:href="class_a_k_p_t_player_state.html#aa41c46851e05f762ccd8c2fc98aa505a" target="_top" xlink:title=" ">
<polygon fill="white" stroke="#666666" points="904.25,-32 774.25,-32 774.25,0 904.25,0 904.25,-32"/>
<text xml:space="preserve" text-anchor="start" x="782.25" y="-18.5" font-family="Helvetica,sans-Serif" font-size="10.00">AKPTPlayerState::OnRep</text>
<text xml:space="preserve" text-anchor="middle" x="839.25" y="-6.5" font-family="Helvetica,sans-Serif" font-size="10.00">_PersonalStateTag</text>
</a>
</g>
</g>
<!-- Node10&#45;&gt;Node11 -->
<g id="edge13_Node000010_Node000011" class="edge">
<title>Node10&#45;&gt;Node11</title>
<g id="a_edge13_Node000010_Node000011"><a xlink:title=" ">
<path fill="none" stroke="#63b8ff" d="M722.01,-16C735.44,-16 749.42,-16 762.85,-16"/>
<polygon fill="#63b8ff" stroke="#63b8ff" points="762.46,-19.5 772.46,-16 762.46,-12.5 762.46,-19.5"/>
</a>
</g>
</g>
</g>
</svg>
