<?xml version="1.0" encoding="UTF-8" standalone="no"?>
<!DOCTYPE svg PUBLIC "-//W3C//DTD SVG 1.1//EN"
 "http://www.w3.org/Graphics/SVG/1.1/DTD/svg11.dtd">
<!-- Generated by graphviz version 13.1.1 (20250719.2154)
 -->
<!-- Title: ABossMonsterBase::BeginPlay Pages: 1 -->
<svg width="360pt" height="90pt"
 viewBox="0.00 0.00 360.00 90.00" xmlns="http://www.w3.org/2000/svg" xmlns:xlink="http://www.w3.org/1999/xlink">
<g id="graph0" class="graph" transform="scale(1 1) rotate(0) translate(4 86)">
<title>ABossMonsterBase::BeginPlay</title>
<!-- Node1 -->
<g id="Node000001" class="node">
<title>Node1</title>
<g id="a_Node000001"><a xlink:title=" ">
<polygon fill="#999999" stroke="#666666" points="153.25,-51 0,-51 0,-31 153.25,-31 153.25,-51"/>
<text xml:space="preserve" text-anchor="middle" x="76.62" y="-37.5" font-family="Helvetica,sans-Serif" font-size="10.00">ABossMonsterBase::BeginPlay</text>
</a>
</g>
</g>
<!-- Node2 -->
<g id="Node000002" class="node">
<title>Node2</title>
<g id="a_Node000002"><a xlink:href="class_a_boss_monster_base.html#a96aef28a337652697596cc5012797c78" target="_top" xlink:title=" ">
<polygon fill="white" stroke="#666666" points="343.25,-82 198.25,-82 198.25,-50 343.25,-50 343.25,-82"/>
<text xml:space="preserve" text-anchor="start" x="206.25" y="-68.5" font-family="Helvetica,sans-Serif" font-size="10.00">ABossMonsterBase::Initialize</text>
<text xml:space="preserve" text-anchor="middle" x="270.75" y="-56.5" font-family="Helvetica,sans-Serif" font-size="10.00">AbilitySystem</text>
</a>
</g>
</g>
<!-- Node1&#45;&gt;Node2 -->
<g id="edge1_Node000001_Node000002" class="edge">
<title>Node1&#45;&gt;Node2</title>
<g id="a_edge1_Node000001_Node000002"><a xlink:title=" ">
<path fill="none" stroke="#63b8ff" d="M153.56,-50.88C164.38,-52.29 175.56,-53.74 186.51,-55.17"/>
<polygon fill="#63b8ff" stroke="#63b8ff" points="185.94,-58.62 196.31,-56.44 186.85,-51.68 185.94,-58.62"/>
</a>
</g>
</g>
<!-- Node3 -->
<g id="Node000003" class="node">
<title>Node3</title>
<g id="a_Node000003"><a xlink:href="class_a_boss_monster_base.html#ad00d7b706c434e7c530716da0af6e165" target="_top" xlink:title=" ">
<polygon fill="white" stroke="#666666" points="352.25,-32 189.25,-32 189.25,0 352.25,0 352.25,-32"/>
<text xml:space="preserve" text-anchor="start" x="197.25" y="-18.5" font-family="Helvetica,sans-Serif" font-size="10.00">ABossMonsterBase::SendUpdate</text>
<text xml:space="preserve" text-anchor="middle" x="270.75" y="-6.5" font-family="Helvetica,sans-Serif" font-size="10.00">EventToGameMode</text>
</a>
</g>
</g>
<!-- Node1&#45;&gt;Node3 -->
<g id="edge2_Node000001_Node000003" class="edge">
<title>Node1&#45;&gt;Node3</title>
<g id="a_edge2_Node000001_Node000003"><a xlink:title=" ">
<path fill="none" stroke="#63b8ff" d="M153.56,-31.12C161.47,-30.09 169.58,-29.04 177.64,-27.99"/>
<polygon fill="#63b8ff" stroke="#63b8ff" points="178.03,-31.46 187.5,-26.7 177.13,-24.52 178.03,-31.46"/>
</a>
</g>
</g>
</g>
</svg>
