<?xml version="1.0" encoding="UTF-8" standalone="no"?>
<!DOCTYPE svg PUBLIC "-//W3C//DTD SVG 1.1//EN"
 "http://www.w3.org/Graphics/SVG/1.1/DTD/svg11.dtd">
<!-- Generated by graphviz version 13.1.1 (20250719.2154)
 -->
<!-- Title: UPauseUI::HandleClickedClose Pages: 1 -->
<svg width="340pt" height="66pt"
 viewBox="0.00 0.00 340.00 66.00" xmlns="http://www.w3.org/2000/svg" xmlns:xlink="http://www.w3.org/1999/xlink">
<g id="graph0" class="graph" transform="scale(1 1) rotate(0) translate(4 62)">
<title>UPauseUI::HandleClickedClose</title>
<!-- Node1 -->
<g id="Node000001" class="node">
<title>Node1</title>
<g id="a_Node000001"><a xlink:title=" ">
<polygon fill="#999999" stroke="#666666" points="332,-39 175,-39 175,-19 332,-19 332,-39"/>
<text xml:space="preserve" text-anchor="middle" x="253.5" y="-25.5" font-family="Helvetica,sans-Serif" font-size="10.00">UPauseUI::HandleClickedClose</text>
</a>
</g>
</g>
<!-- Node2 -->
<g id="Node000002" class="node">
<title>Node2</title>
<g id="a_Node000002"><a xlink:href="class_u_pause_u_i.html#a9eb5b5662314b5e9a43cf4e085176419" target="_top" xlink:title=" ">
<polygon fill="white" stroke="#666666" points="139,-58 0,-58 0,-38 139,-38 139,-58"/>
<text xml:space="preserve" text-anchor="middle" x="69.5" y="-44.5" font-family="Helvetica,sans-Serif" font-size="10.00">UPauseUI::NativeConstruct</text>
</a>
</g>
</g>
<!-- Node1&#45;&gt;Node2 -->
<g id="edge1_Node000001_Node000002" class="edge">
<title>Node1&#45;&gt;Node2</title>
<g id="a_edge1_Node000001_Node000002"><a xlink:title=" ">
<path fill="none" stroke="#63b8ff" d="M163.24,-38.32C155.23,-39.15 147.21,-39.99 139.42,-40.81"/>
<polygon fill="#63b8ff" stroke="#63b8ff" points="163.44,-41.82 173.02,-37.3 162.71,-34.85 163.44,-41.82"/>
</a>
</g>
</g>
<!-- Node3 -->
<g id="Node000003" class="node">
<title>Node3</title>
<g id="a_Node000003"><a xlink:href="class_u_pause_u_i.html#a044a4b6a8ff4a00b6065ca292cb165a9" target="_top" xlink:title=" ">
<polygon fill="white" stroke="#666666" points="136.38,-20 2.62,-20 2.62,0 136.38,0 136.38,-20"/>
<text xml:space="preserve" text-anchor="middle" x="69.5" y="-6.5" font-family="Helvetica,sans-Serif" font-size="10.00">UPauseUI::NativeDestruct</text>
</a>
</g>
</g>
<!-- Node1&#45;&gt;Node3 -->
<g id="edge2_Node000001_Node000003" class="edge">
<title>Node1&#45;&gt;Node3</title>
<g id="a_edge2_Node000001_Node000003"><a xlink:title=" ">
<path fill="none" stroke="#63b8ff" d="M163.29,-19.69C154.39,-18.76 145.47,-17.83 136.86,-16.93"/>
<polygon fill="#63b8ff" stroke="#63b8ff" points="162.71,-23.15 173.02,-20.7 163.44,-16.18 162.71,-23.15"/>
</a>
</g>
</g>
</g>
</svg>
