<?xml version="1.0" encoding="UTF-8" standalone="no"?>
<!DOCTYPE svg PUBLIC "-//W3C//DTD SVG 1.1//EN"
 "http://www.w3.org/Graphics/SVG/1.1/DTD/svg11.dtd">
<!-- Generated by graphviz version 13.1.1 (20250719.2154)
 -->
<!-- Title: UBaseMeleeAttackAbility::SpawnCircleIndicator Pages: 1 -->
<svg width="451pt" height="58pt"
 viewBox="0.00 0.00 451.00 58.00" xmlns="http://www.w3.org/2000/svg" xmlns:xlink="http://www.w3.org/1999/xlink">
<g id="graph0" class="graph" transform="scale(1 1) rotate(0) translate(4 54)">
<title>UBaseMeleeAttackAbility::SpawnCircleIndicator</title>
<!-- Node1 -->
<g id="Node000001" class="node">
<title>Node1</title>
<g id="a_Node000001"><a xlink:title=" ">
<polygon fill="#999999" stroke="#666666" points="127.75,-32 0,-32 0,0 127.75,0 127.75,-32"/>
<text xml:space="preserve" text-anchor="start" x="8" y="-18.5" font-family="Helvetica,sans-Serif" font-size="10.00">UBaseMeleeAttackAbility</text>
<text xml:space="preserve" text-anchor="middle" x="63.88" y="-6.5" font-family="Helvetica,sans-Serif" font-size="10.00">::SpawnCircleIndicator</text>
</a>
</g>
</g>
<!-- Node2 -->
<g id="Node000002" class="node">
<title>Node2</title>
<g id="a_Node000002"><a xlink:href="class_a_circle_indicator_actor.html#ad7df12439df0682fd2cd15dd578e7291" target="_top" xlink:title=" ">
<polygon fill="white" stroke="#666666" points="272.75,-32 163.75,-32 163.75,0 272.75,0 272.75,-32"/>
<text xml:space="preserve" text-anchor="start" x="171.75" y="-18.5" font-family="Helvetica,sans-Serif" font-size="10.00">ACircleIndicatorActor</text>
<text xml:space="preserve" text-anchor="middle" x="218.25" y="-6.5" font-family="Helvetica,sans-Serif" font-size="10.00">::InitializeIndicator</text>
</a>
</g>
</g>
<!-- Node1&#45;&gt;Node2 -->
<g id="edge1_Node000001_Node000002" class="edge">
<title>Node1&#45;&gt;Node2</title>
<g id="a_edge1_Node000001_Node000002"><a xlink:title=" ">
<path fill="none" stroke="#63b8ff" d="M128.17,-16C136.08,-16 144.18,-16 152.12,-16"/>
<polygon fill="#63b8ff" stroke="#63b8ff" points="152.08,-19.5 162.08,-16 152.08,-12.5 152.08,-19.5"/>
</a>
</g>
</g>
<!-- Node3 -->
<g id="Node000003" class="node">
<title>Node3</title>
<g id="a_Node000003"><a xlink:href="class_a_circle_indicator_actor.html#ae0dbae87bba9c951f4a7667c74201565" target="_top" xlink:title=" ">
<polygon fill="white" stroke="#666666" points="443.25,-32 308.75,-32 308.75,0 443.25,0 443.25,-32"/>
<text xml:space="preserve" text-anchor="start" x="316.75" y="-18.5" font-family="Helvetica,sans-Serif" font-size="10.00">ACircleIndicatorActor</text>
<text xml:space="preserve" text-anchor="middle" x="376" y="-6.5" font-family="Helvetica,sans-Serif" font-size="10.00">::Multicast_SpawnIndicator</text>
</a>
</g>
</g>
<!-- Node2&#45;&gt;Node3 -->
<g id="edge2_Node000002_Node000003" class="edge">
<title>Node2&#45;&gt;Node3</title>
<g id="a_edge2_Node000002_Node000003"><a xlink:title=" ">
<path fill="none" stroke="#63b8ff" d="M272.85,-16C280.63,-16 288.76,-16 296.9,-16"/>
<polygon fill="#63b8ff" stroke="#63b8ff" points="296.85,-19.5 306.85,-16 296.85,-12.5 296.85,-19.5"/>
</a>
</g>
</g>
<!-- Node3&#45;&gt;Node3 -->
<g id="edge3_Node000003_Node000003" class="edge">
<title>Node3&#45;&gt;Node3</title>
<g id="a_edge3_Node000003_Node000003"><a xlink:title=" ">
<path fill="none" stroke="#63b8ff" d="M347.84,-32.44C342.58,-41.58 351.97,-50 376,-50 389.14,-50 397.91,-47.48 402.29,-43.71"/>
<polygon fill="#63b8ff" stroke="#63b8ff" points="405.73,-44.37 403.91,-33.94 398.82,-43.23 405.73,-44.37"/>
</a>
</g>
</g>
</g>
</svg>
