<?xml version="1.0" encoding="UTF-8" standalone="no"?>
<!DOCTYPE svg PUBLIC "-//W3C//DTD SVG 1.1//EN"
 "http://www.w3.org/Graphics/SVG/1.1/DTD/svg11.dtd">
<!-- Generated by graphviz version 13.1.1 (20250719.2154)
 -->
<!-- Title: UInGameHUD::OnGameStateSet Pages: 1 -->
<svg width="975pt" height="216pt"
 viewBox="0.00 0.00 975.00 216.00" xmlns="http://www.w3.org/2000/svg" xmlns:xlink="http://www.w3.org/1999/xlink">
<g id="graph0" class="graph" transform="scale(1 1) rotate(0) translate(4 212)">
<title>UInGameHUD::OnGameStateSet</title>
<!-- Node1 -->
<g id="Node000001" class="node">
<title>Node1</title>
<g id="a_Node000001"><a xlink:title=" ">
<polygon fill="#999999" stroke="#666666" points="163.75,-105 0,-105 0,-85 163.75,-85 163.75,-105"/>
<text xml:space="preserve" text-anchor="middle" x="81.88" y="-91.5" font-family="Helvetica,sans-Serif" font-size="10.00">UInGameHUD::OnGameStateSet</text>
</a>
</g>
</g>
<!-- Node2 -->
<g id="Node000002" class="node">
<title>Node2</title>
<g id="a_Node000002"><a xlink:href="class_u_in_game_h_u_d.html#ad4ea3a784dd89f918799a49b145846ba" target="_top" xlink:title=" ">
<polygon fill="white" stroke="#666666" points="365.75,-111 199.75,-111 199.75,-79 365.75,-79 365.75,-111"/>
<text xml:space="preserve" text-anchor="start" x="207.75" y="-97.5" font-family="Helvetica,sans-Serif" font-size="10.00">UInGameHUD::BindToGameState</text>
<text xml:space="preserve" text-anchor="middle" x="282.75" y="-85.5" font-family="Helvetica,sans-Serif" font-size="10.00">Delegates</text>
</a>
</g>
</g>
<!-- Node1&#45;&gt;Node2 -->
<g id="edge1_Node000001_Node000002" class="edge">
<title>Node1&#45;&gt;Node2</title>
<g id="a_edge1_Node000001_Node000002"><a xlink:title=" ">
<path fill="none" stroke="#63b8ff" d="M164.05,-95C172.01,-95 180.13,-95 188.19,-95"/>
<polygon fill="#63b8ff" stroke="#63b8ff" points="188.03,-98.5 198.03,-95 188.03,-91.5 188.03,-98.5"/>
</a>
</g>
</g>
<!-- Node3 -->
<g id="Node000003" class="node">
<title>Node3</title>
<g id="a_Node000003"><a xlink:href="class_u_in_game_h_u_d.html#ab7c7e04ab365d90d164230522904ef06" target="_top" xlink:title=" ">
<polygon fill="white" stroke="#666666" points="589.5,-158 403.25,-158 403.25,-126 589.5,-126 589.5,-158"/>
<text xml:space="preserve" text-anchor="start" x="411.25" y="-144.5" font-family="Helvetica,sans-Serif" font-size="10.00">UInGameHUD::InGamePhaseManager</text>
<text xml:space="preserve" text-anchor="middle" x="496.38" y="-132.5" font-family="Helvetica,sans-Serif" font-size="10.00">ReadyHandle</text>
</a>
</g>
</g>
<!-- Node2&#45;&gt;Node3 -->
<g id="edge2_Node000002_Node000003" class="edge">
<title>Node2&#45;&gt;Node3</title>
<g id="a_edge2_Node000002_Node000003"><a xlink:title=" ">
<path fill="none" stroke="#63b8ff" d="M357.77,-111.44C374.84,-115.23 393.14,-119.29 410.63,-123.18"/>
<polygon fill="#63b8ff" stroke="#63b8ff" points="409.4,-126.49 419.92,-125.24 410.92,-119.66 409.4,-126.49"/>
</a>
</g>
</g>
<!-- Node7 -->
<g id="Node000007" class="node">
<title>Node7</title>
<g id="a_Node000007"><a xlink:href="class_u_in_game_h_u_d.html#ae5432789c54f0fb4c503b8b353c46029" target="_top" xlink:title=" ">
<polygon fill="white" stroke="#666666" points="591,-86 401.75,-86 401.75,-54 591,-54 591,-86"/>
<text xml:space="preserve" text-anchor="start" x="409.75" y="-72.5" font-family="Helvetica,sans-Serif" font-size="10.00">UInGameHUD::TeamStatsComponents</text>
<text xml:space="preserve" text-anchor="middle" x="496.38" y="-60.5" font-family="Helvetica,sans-Serif" font-size="10.00">ReadyHandle</text>
</a>
</g>
</g>
<!-- Node2&#45;&gt;Node7 -->
<g id="edge6_Node000002_Node000007" class="edge">
<title>Node2&#45;&gt;Node7</title>
<g id="a_edge6_Node000002_Node000007"><a xlink:title=" ">
<path fill="none" stroke="#63b8ff" d="M366.18,-85.26C374.06,-84.33 382.13,-83.38 390.2,-82.42"/>
<polygon fill="#63b8ff" stroke="#63b8ff" points="390.56,-85.91 400.08,-81.26 389.74,-78.96 390.56,-85.91"/>
</a>
</g>
</g>
<!-- Node4 -->
<g id="Node000004" class="node">
<title>Node4</title>
<g id="a_Node000004"><a xlink:href="class_u_state_manager_component.html#aa02160df8ceffa37f487dfbdfc8cb2fd" target="_top" xlink:title=" ">
<polygon fill="white" stroke="#666666" points="779.12,-208 644.62,-208 644.62,-176 779.12,-176 779.12,-208"/>
<text xml:space="preserve" text-anchor="start" x="652.62" y="-194.5" font-family="Helvetica,sans-Serif" font-size="10.00">UStateManagerComponent</text>
<text xml:space="preserve" text-anchor="middle" x="711.88" y="-182.5" font-family="Helvetica,sans-Serif" font-size="10.00">::InitialBroadCast</text>
</a>
</g>
</g>
<!-- Node3&#45;&gt;Node4 -->
<g id="edge3_Node000003_Node000004" class="edge">
<title>Node3&#45;&gt;Node4</title>
<g id="a_edge3_Node000003_Node000004"><a xlink:title=" ">
<path fill="none" stroke="#63b8ff" d="M567.58,-158.44C588.59,-163.36 611.75,-168.78 633.21,-173.81"/>
<polygon fill="#63b8ff" stroke="#63b8ff" points="632.25,-177.18 642.78,-176.05 633.84,-170.36 632.25,-177.18"/>
</a>
</g>
</g>
<!-- Node6 -->
<g id="Node000006" class="node">
<title>Node6</title>
<g id="a_Node000006"><a xlink:href="class_u_in_game_h_u_d.html#a202062936a0a60c05aac96f89709a2cf" target="_top" xlink:title=" ">
<polygon fill="white" stroke="#666666" points="796.75,-158 627,-158 627,-126 796.75,-126 796.75,-158"/>
<text xml:space="preserve" text-anchor="start" x="635" y="-144.5" font-family="Helvetica,sans-Serif" font-size="10.00">UInGameHUD::StateTagsChanged</text>
<text xml:space="preserve" text-anchor="middle" x="711.88" y="-132.5" font-family="Helvetica,sans-Serif" font-size="10.00">SetPhaseText</text>
</a>
</g>
</g>
<!-- Node3&#45;&gt;Node6 -->
<g id="edge5_Node000003_Node000006" class="edge">
<title>Node3&#45;&gt;Node6</title>
<g id="a_edge5_Node000003_Node000006"><a xlink:title=" ">
<path fill="none" stroke="#63b8ff" d="M589.78,-142C598.22,-142 606.79,-142 615.26,-142"/>
<polygon fill="#63b8ff" stroke="#63b8ff" points="615.22,-145.5 625.22,-142 615.22,-138.5 615.22,-145.5"/>
</a>
</g>
</g>
<!-- Node5 -->
<g id="Node000005" class="node">
<title>Node5</title>
<g id="a_Node000005"><a xlink:href="class_u_state_manager_component.html#ac4e405056aaabb201b59d2885dcc22be" target="_top" xlink:title=" ">
<polygon fill="white" stroke="#666666" points="967.25,-208 832.75,-208 832.75,-176 967.25,-176 967.25,-208"/>
<text xml:space="preserve" text-anchor="start" x="840.75" y="-194.5" font-family="Helvetica,sans-Serif" font-size="10.00">UStateManagerComponent</text>
<text xml:space="preserve" text-anchor="middle" x="900" y="-182.5" font-family="Helvetica,sans-Serif" font-size="10.00">::OnRep_CurrentStateTags</text>
</a>
</g>
</g>
<!-- Node4&#45;&gt;Node5 -->
<g id="edge4_Node000004_Node000005" class="edge">
<title>Node4&#45;&gt;Node5</title>
<g id="a_edge4_Node000004_Node000005"><a xlink:title=" ">
<path fill="none" stroke="#63b8ff" d="M779.54,-192C792.99,-192 807.24,-192 821.03,-192"/>
<polygon fill="#63b8ff" stroke="#63b8ff" points="820.97,-195.5 830.97,-192 820.97,-188.5 820.97,-195.5"/>
</a>
</g>
</g>
<!-- Node8 -->
<g id="Node000008" class="node">
<title>Node8</title>
<g id="a_Node000008"><a xlink:href="class_u_team_stats_component.html#a02772b4fd5c6a00656403377a0c9ca8d" target="_top" xlink:title=" ">
<polygon fill="white" stroke="#666666" points="772.38,-108 651.38,-108 651.38,-76 772.38,-76 772.38,-108"/>
<text xml:space="preserve" text-anchor="start" x="659.38" y="-94.5" font-family="Helvetica,sans-Serif" font-size="10.00">UTeamStatsComponent</text>
<text xml:space="preserve" text-anchor="middle" x="711.88" y="-82.5" font-family="Helvetica,sans-Serif" font-size="10.00">::BroadcastInitialValues</text>
</a>
</g>
</g>
<!-- Node7&#45;&gt;Node8 -->
<g id="edge7_Node000007_Node000008" class="edge">
<title>Node7&#45;&gt;Node8</title>
<g id="a_edge7_Node000007_Node000008"><a xlink:title=" ">
<path fill="none" stroke="#63b8ff" d="M591.33,-79.68C607.62,-81.36 624.32,-83.08 639.88,-84.68"/>
<polygon fill="#63b8ff" stroke="#63b8ff" points="639.16,-88.13 649.47,-85.67 639.88,-81.17 639.16,-88.13"/>
</a>
</g>
</g>
<!-- Node11 -->
<g id="Node000011" class="node">
<title>Node11</title>
<g id="a_Node000011"><a xlink:href="class_u_in_game_h_u_d.html#a7e1db18a43569f61eaf2b3e499cc4f0d" target="_top" xlink:title=" ">
<polygon fill="white" stroke="#666666" points="779.5,-58 644.25,-58 644.25,-38 779.5,-38 779.5,-58"/>
<text xml:space="preserve" text-anchor="middle" x="711.88" y="-44.5" font-family="Helvetica,sans-Serif" font-size="10.00">UInGameHUD::UpdateExp</text>
</a>
</g>
</g>
<!-- Node7&#45;&gt;Node11 -->
<g id="edge10_Node000007_Node000011" class="edge">
<title>Node7&#45;&gt;Node11</title>
<g id="a_edge10_Node000007_Node000011"><a xlink:title=" ">
<path fill="none" stroke="#63b8ff" d="M591.33,-60.32C605.14,-58.9 619.24,-57.44 632.69,-56.06"/>
<polygon fill="#63b8ff" stroke="#63b8ff" points="632.71,-59.57 642.3,-55.07 631.99,-52.61 632.71,-59.57"/>
</a>
</g>
</g>
<!-- Node12 -->
<g id="Node000012" class="node">
<title>Node12</title>
<g id="a_Node000012"><a xlink:href="class_u_in_game_h_u_d.html#abec8edfbf2a43178d1311adb10cf1f8d" target="_top" xlink:title=" ">
<polygon fill="white" stroke="#666666" points="782.5,-20 641.25,-20 641.25,0 782.5,0 782.5,-20"/>
<text xml:space="preserve" text-anchor="middle" x="711.88" y="-6.5" font-family="Helvetica,sans-Serif" font-size="10.00">UInGameHUD::UpdateLevel</text>
</a>
</g>
</g>
<!-- Node7&#45;&gt;Node12 -->
<g id="edge11_Node000007_Node000012" class="edge">
<title>Node7&#45;&gt;Node12</title>
<g id="a_edge11_Node000007_Node000012"><a xlink:title=" ">
<path fill="none" stroke="#63b8ff" d="M546.03,-53.55C570.23,-45.64 600,-36.31 627,-29 634.54,-26.96 642.51,-24.95 650.4,-23.06"/>
<polygon fill="#63b8ff" stroke="#63b8ff" points="651.06,-26.5 660,-20.81 649.47,-19.69 651.06,-26.5"/>
</a>
</g>
</g>
<!-- Node9 -->
<g id="Node000009" class="node">
<title>Node9</title>
<g id="a_Node000009"><a xlink:href="class_u_team_stats_component.html#a1029e934e4cbbaee54579856de5fc89a" target="_top" xlink:title=" ">
<polygon fill="white" stroke="#666666" points="965.38,-133 834.62,-133 834.62,-101 965.38,-101 965.38,-133"/>
<text xml:space="preserve" text-anchor="start" x="842.62" y="-119.5" font-family="Helvetica,sans-Serif" font-size="10.00">UTeamStatsComponent</text>
<text xml:space="preserve" text-anchor="middle" x="900" y="-107.5" font-family="Helvetica,sans-Serif" font-size="10.00">::OnRep_TeamExperience</text>
</a>
</g>
</g>
<!-- Node8&#45;&gt;Node9 -->
<g id="edge8_Node000008_Node000009" class="edge">
<title>Node8&#45;&gt;Node9</title>
<g id="a_edge8_Node000008_Node000009"><a xlink:title=" ">
<path fill="none" stroke="#63b8ff" d="M772.79,-100.05C788.92,-102.21 806.57,-104.59 823.43,-106.85"/>
<polygon fill="#63b8ff" stroke="#63b8ff" points="822.5,-110.26 832.87,-108.12 823.43,-103.32 822.5,-110.26"/>
</a>
</g>
</g>
<!-- Node10 -->
<g id="Node000010" class="node">
<title>Node10</title>
<g id="a_Node000010"><a xlink:href="class_u_team_stats_component.html#a468a4b3491d730096db1e25973108d28" target="_top" xlink:title=" ">
<polygon fill="white" stroke="#666666" points="960.5,-83 839.5,-83 839.5,-51 960.5,-51 960.5,-83"/>
<text xml:space="preserve" text-anchor="start" x="847.5" y="-69.5" font-family="Helvetica,sans-Serif" font-size="10.00">UTeamStatsComponent</text>
<text xml:space="preserve" text-anchor="middle" x="900" y="-57.5" font-family="Helvetica,sans-Serif" font-size="10.00">::OnRep_TeamLevel</text>
</a>
</g>
</g>
<!-- Node8&#45;&gt;Node10 -->
<g id="edge9_Node000008_Node000010" class="edge">
<title>Node8&#45;&gt;Node10</title>
<g id="a_edge9_Node000008_Node000010"><a xlink:title=" ">
<path fill="none" stroke="#63b8ff" d="M772.79,-83.95C790.39,-81.59 809.81,-78.98 828.03,-76.53"/>
<polygon fill="#63b8ff" stroke="#63b8ff" points="828.25,-80.03 837.7,-75.23 827.32,-73.1 828.25,-80.03"/>
</a>
</g>
</g>
</g>
</svg>
