<?xml version="1.0" encoding="UTF-8" standalone="no"?>
<!DOCTYPE svg PUBLIC "-//W3C//DTD SVG 1.1//EN"
 "http://www.w3.org/Graphics/SVG/1.1/DTD/svg11.dtd">
<!-- Generated by graphviz version 13.1.1 (20250719.2154)
 -->
<!-- Title: AKPTInGameMode::InitializePlayerForCurrentPhase Pages: 1 -->
<!--zoomable 248 -->

<svg id="main" version="1.1" xmlns="http://www.w3.org/2000/svg" xmlns:xlink="http://www.w3.org/1999/xlink" xml:space="preserve" onload="init(evt)">

<style type="text/css"><![CDATA[
.node, .edge {opacity: 0.7;}
.node.selected, .edge.selected {opacity: 1;}
.edge:hover path { stroke: red; }
.edge:hover polygon { stroke: red; fill: red; }
]]></style>

<defs>
  <circle id="rim" cx="0" cy="0" r="7"/>
  <circle id="rim2" cx="0" cy="0" r="3.5"/>
  <g id="zoomPlus">
    <use xlink:href="#rim" fill="#404040"><set attributeName="fill" to="#808080" begin="zoomplus.mouseover" end="zoomplus.mouseout"/></use>
    <path d="M-4,0h8M0,-4v8" fill="none" stroke="white" stroke-width="1.5" pointer-events="none"/>
  </g>
  <g id="zoomMin">
    <use xlink:href="#rim" fill="#404040"><set attributeName="fill" to="#808080" begin="zoomminus.mouseover" end="zoomminus.mouseout"/></use>
    <path d="M-4,0h8" fill="none" stroke="white" stroke-width="1.5" pointer-events="none"/>
  </g>
  <g id="arrowUp" transform="translate(30 24)">
    <use xlink:href="#rim"/>
    <path pointer-events="none" fill="none" stroke="white" stroke-width="1.5" d="M0,-3.0v7 M-2.5,-0.5L0,-3.0L2.5,-0.5"/>
  </g>
  <g id="arrowRight" transform="rotate(90) translate(36 -43)">
    <use xlink:href="#rim"/>
    <path pointer-events="none" fill="none" stroke="white" stroke-width="1.5" d="M0,-3.0v7 M-2.5,-0.5L0,-3.0L2.5,-0.5"/>
  </g>
  <g id="arrowDown" transform="rotate(180) translate(-30 -48)">
    <use xlink:href="#rim"/>
    <path pointer-events="none" fill="none" stroke="white" stroke-width="1.5" d="M0,-3.0v7 M-2.5,-0.5L0,-3.0L2.5,-0.5"/>
  </g>
  <g id="arrowLeft" transform="rotate(270) translate(-36 17)">
    <use xlink:href="#rim"/>
    <path pointer-events="none" fill="none" stroke="white" stroke-width="1.5" d="M0,-3.0v7 M-2.5,-0.5L0,-3.0L2.5,-0.5"/>
  </g>
  <g id="resetDef">
    <use xlink:href="#rim2" fill="#404040"><set attributeName="fill" to="#808080" begin="reset.mouseover" end="reset.mouseout"/></use>
  </g>
</defs>
<script type="application/ecmascript">
var viewWidth = 1551;
var viewHeight = 248;
var sectionId = 'dynsection-30';
</script>
<script type="application/ecmascript" xlink:href="svg.min.js"/>
<svg id="graph" class="graph">
<g id="viewport">
<title>AKPTInGameMode::InitializePlayerForCurrentPhase</title>
<!-- Node1 -->
<g id="Node000001" class="node">
<title>Node1</title>
<g id="a_Node000001"><a xlink:title="특정 플레이어를 현재 게임 페이즈에 맞게 초기화합니다.">
<polygon fill="#999999" stroke="#666666" points="1543.25,-70 1400.5,-70 1400.5,-38 1543.25,-38 1543.25,-70"/>
<text xml:space="preserve" text-anchor="start" x="1408.5" y="-56.5" font-family="Helvetica,sans-Serif" font-size="10.00">AKPTInGameMode::Initialize</text>
<text xml:space="preserve" text-anchor="middle" x="1471.88" y="-44.5" font-family="Helvetica,sans-Serif" font-size="10.00">PlayerForCurrentPhase</text>
</a>
</g>
</g>
<!-- Node2 -->
<g id="Node000002" class="node">
<title>Node2</title>
<g id="a_Node000002"><a xlink:href="class_a_k_p_t_in_game_mode.html#aa4f70056d702908efb82a3a085b2d832" target="_top" xlink:title="주간 페이즈의 시작을 처리합니다.">
<polygon fill="white" stroke="#666666" points="1351.75,-120 1196.25,-120 1196.25,-88 1351.75,-88 1351.75,-120"/>
<text xml:space="preserve" text-anchor="start" x="1204.25" y="-106.5" font-family="Helvetica,sans-Serif" font-size="10.00">AKPTInGameMode::HandleDay</text>
<text xml:space="preserve" text-anchor="middle" x="1274" y="-94.5" font-family="Helvetica,sans-Serif" font-size="10.00">Phase</text>
</a>
</g>
</g>
<!-- Node1&#45;&gt;Node2 -->
<g id="edge1_Node000001_Node000002" class="edge">
<title>Node1&#45;&gt;Node2</title>
<g id="a_edge1_Node000001_Node000002"><a xlink:title=" ">
<path fill="none" stroke="#63b8ff" d="M1395.44,-73.26C1376.96,-77.97 1357.35,-82.98 1339.45,-87.55"/>
<polygon fill="#63b8ff" stroke="#63b8ff" points="1396.18,-76.68 1405,-70.82 1394.45,-69.9 1396.18,-76.68"/>
</a>
</g>
</g>
<!-- Node14 -->
<g id="Node000014" class="node">
<title>Node14</title>
<g id="a_Node000014"><a xlink:href="class_a_k_p_t_in_game_mode.html#ac4cacdaa16686d29b0f27a2dd65da50a" target="_top" xlink:title=" ">
<polygon fill="white" stroke="#666666" points="1364.5,-70 1183.5,-70 1183.5,-38 1364.5,-38 1364.5,-70"/>
<text xml:space="preserve" text-anchor="start" x="1191.5" y="-56.5" font-family="Helvetica,sans-Serif" font-size="10.00">AKPTInGameMode::HandleSeamless</text>
<text xml:space="preserve" text-anchor="middle" x="1274" y="-44.5" font-family="Helvetica,sans-Serif" font-size="10.00">TravelPlayer</text>
</a>
</g>
</g>
<!-- Node1&#45;&gt;Node14 -->
<g id="edge17_Node000001_Node000014" class="edge">
<title>Node1&#45;&gt;Node14</title>
<g id="a_edge17_Node000001_Node000014"><a xlink:title=" ">
<path fill="none" stroke="#63b8ff" d="M1388.68,-54C1380.76,-54 1372.7,-54 1364.71,-54"/>
<polygon fill="#63b8ff" stroke="#63b8ff" points="1388.65,-57.5 1398.65,-54 1388.65,-50.5 1388.65,-57.5"/>
</a>
</g>
</g>
<!-- Node15 -->
<g id="Node000015" class="node">
<title>Node15</title>
<g id="a_Node000015"><a xlink:href="class_a_k_p_t_in_game_mode.html#a1e36de33cf04e0c3a9f6ac97910e3d5f" target="_top" xlink:title=" ">
<polygon fill="white" stroke="#666666" points="1355.5,-20 1192.5,-20 1192.5,0 1355.5,0 1355.5,-20"/>
<text xml:space="preserve" text-anchor="middle" x="1274" y="-6.5" font-family="Helvetica,sans-Serif" font-size="10.00">AKPTInGameMode::OnPostLogin</text>
</a>
</g>
</g>
<!-- Node1&#45;&gt;Node15 -->
<g id="edge18_Node000001_Node000015" class="edge">
<title>Node1&#45;&gt;Node15</title>
<g id="a_edge18_Node000001_Node000015"><a xlink:title=" ">
<path fill="none" stroke="#63b8ff" d="M1390.59,-34.94C1381.79,-32.91 1372.96,-30.89 1364.5,-29 1351.79,-26.16 1338.04,-23.19 1325.22,-20.46"/>
<polygon fill="#63b8ff" stroke="#63b8ff" points="1389.68,-38.32 1400.21,-37.17 1391.26,-31.5 1389.68,-38.32"/>
</a>
</g>
</g>
<!-- Node3 -->
<g id="Node000003" class="node">
<title>Node3</title>
<g id="a_Node000003"><a xlink:href="class_a_k_p_t_in_game_mode.html#a9f93e98963e67a4aec973d492c0b437a" target="_top" xlink:title="새 라운드를 시작합니다.">
<polygon fill="white" stroke="#666666" points="1147.5,-114 991.25,-114 991.25,-94 1147.5,-94 1147.5,-114"/>
<text xml:space="preserve" text-anchor="middle" x="1069.38" y="-100.5" font-family="Helvetica,sans-Serif" font-size="10.00">AKPTInGameMode::StartRound</text>
</a>
</g>
</g>
<!-- Node2&#45;&gt;Node3 -->
<g id="edge2_Node000002_Node000003" class="edge">
<title>Node2&#45;&gt;Node3</title>
<g id="a_edge2_Node000002_Node000003"><a xlink:title=" ">
<path fill="none" stroke="#63b8ff" d="M1184.62,-104C1172.31,-104 1159.75,-104 1147.68,-104"/>
<polygon fill="#63b8ff" stroke="#63b8ff" points="1184.3,-107.5 1194.3,-104 1184.3,-100.5 1184.3,-107.5"/>
</a>
</g>
</g>
<!-- Node4 -->
<g id="Node000004" class="node">
<title>Node4</title>
<g id="a_Node000004"><a xlink:href="class_a_k_p_t_in_game_mode.html#a410acd626df9144d7ebb63b535dbc37b" target="_top" xlink:title=" ">
<polygon fill="white" stroke="#666666" points="955.25,-142 806.5,-142 806.5,-110 955.25,-110 955.25,-142"/>
<text xml:space="preserve" text-anchor="start" x="814.5" y="-128.5" font-family="Helvetica,sans-Serif" font-size="10.00">AKPTInGameMode::Complete</text>
<text xml:space="preserve" text-anchor="middle" x="880.88" y="-116.5" font-family="Helvetica,sans-Serif" font-size="10.00">PhaseTransition</text>
</a>
</g>
</g>
<!-- Node3&#45;&gt;Node4 -->
<g id="edge3_Node000003_Node000004" class="edge">
<title>Node3&#45;&gt;Node4</title>
<g id="a_edge3_Node000003_Node000004"><a xlink:title=" ">
<path fill="none" stroke="#63b8ff" d="M979.57,-114.48C971.52,-115.43 963.42,-116.38 955.52,-117.31"/>
<polygon fill="#63b8ff" stroke="#63b8ff" points="979.88,-117.96 989.4,-113.32 979.06,-111.01 979.88,-117.96"/>
</a>
</g>
</g>
<!-- Node13 -->
<g id="Node000013" class="node">
<title>Node13</title>
<g id="a_Node000013"><a xlink:href="class_a_k_p_t_in_game_mode.html#a88de57fba9da892b172c9106affe14f3" target="_top" xlink:title=" ">
<polygon fill="white" stroke="#666666" points="954.5,-92 807.25,-92 807.25,-72 954.5,-72 954.5,-92"/>
<text xml:space="preserve" text-anchor="middle" x="880.88" y="-78.5" font-family="Helvetica,sans-Serif" font-size="10.00">AKPTInGameMode::StartPlay</text>
</a>
</g>
</g>
<!-- Node3&#45;&gt;Node13 -->
<g id="edge16_Node000003_Node000013" class="edge">
<title>Node3&#45;&gt;Node13</title>
<g id="a_edge16_Node000003_Node000013"><a xlink:title=" ">
<path fill="none" stroke="#63b8ff" d="M979.66,-93.53C971.37,-92.56 963.04,-91.57 954.92,-90.62"/>
<polygon fill="#63b8ff" stroke="#63b8ff" points="979.06,-96.99 989.4,-94.68 979.88,-90.04 979.06,-96.99"/>
</a>
</g>
</g>
<!-- Node5 -->
<g id="Node000005" class="node">
<title>Node5</title>
<g id="a_Node000005"><a xlink:href="class_a_k_p_t_in_game_mode.html#a1c856c37dce7343a381723b5d842ecf7" target="_top" xlink:title="모든 플레이어가 사망했는지 확인합니다.">
<polygon fill="white" stroke="#666666" points="770.5,-158 581.25,-158 581.25,-138 770.5,-138 770.5,-158"/>
<text xml:space="preserve" text-anchor="middle" x="675.88" y="-144.5" font-family="Helvetica,sans-Serif" font-size="10.00">AKPTInGameMode::AreAllPlayersDead</text>
</a>
</g>
</g>
<!-- Node4&#45;&gt;Node5 -->
<g id="edge4_Node000004_Node000005" class="edge">
<title>Node4&#45;&gt;Node5</title>
<g id="a_edge4_Node000004_Node000005"><a xlink:title=" ">
<path fill="none" stroke="#63b8ff" d="M794.6,-135.24C786.73,-136.09 778.73,-136.96 770.79,-137.82"/>
<polygon fill="#63b8ff" stroke="#63b8ff" points="794.94,-138.72 804.51,-134.17 794.19,-131.77 794.94,-138.72"/>
</a>
</g>
</g>
<!-- Node5&#45;&gt;Node5 -->
<g id="edge5_Node000005_Node000005" class="edge">
<title>Node5&#45;&gt;Node5</title>
<g id="a_edge5_Node000005_Node000005"><a xlink:title=" ">
<path fill="none" stroke="#63b8ff" d="M712.49,-169.11C708.12,-173.14 695.92,-176 675.88,-176 640.24,-176 629.38,-166.98 643.3,-158.34"/>
<polygon fill="#63b8ff" stroke="#63b8ff" points="715.77,-167.89 708.98,-159.76 709.22,-170.35 715.77,-167.89"/>
</a>
</g>
</g>
<!-- Node6 -->
<g id="Node000006" class="node">
<title>Node6</title>
<g id="a_Node000006"><a xlink:href="class_a_k_p_t_in_game_mode.html#a0e1dec85eeba3835d463238c88f8904b" target="_top" xlink:title="야간 페이즈를 종료하고, 게임 종료 조건을 확인하거나 새 라운드를 시작합니다.">
<polygon fill="white" stroke="#666666" points="535.12,-164 387.88,-164 387.88,-132 535.12,-132 535.12,-164"/>
<text xml:space="preserve" text-anchor="start" x="395.88" y="-150.5" font-family="Helvetica,sans-Serif" font-size="10.00">AKPTInGameMode::EndNight</text>
<text xml:space="preserve" text-anchor="middle" x="461.5" y="-138.5" font-family="Helvetica,sans-Serif" font-size="10.00">Phase</text>
</a>
</g>
</g>
<!-- Node5&#45;&gt;Node6 -->
<g id="edge6_Node000005_Node000006" class="edge">
<title>Node5&#45;&gt;Node6</title>
<g id="a_edge6_Node000005_Node000006"><a xlink:title=" ">
<path fill="none" stroke="#63b8ff" d="M569.35,-148C557.89,-148 546.41,-148 535.46,-148"/>
<polygon fill="#63b8ff" stroke="#63b8ff" points="569.28,-151.5 579.28,-148 569.28,-144.5 569.28,-151.5"/>
</a>
</g>
</g>
<!-- Node9 -->
<g id="Node000009" class="node">
<title>Node9</title>
<g id="a_Node000009"><a xlink:href="class_a_k_p_t_in_game_mode.html#a3a63b6ea26b3ef6a916ca7b5fed4813f" target="_top" xlink:title="플레이어가 사망했을 때 호출됩니다.">
<polygon fill="white" stroke="#666666" points="545.25,-202 377.75,-202 377.75,-182 545.25,-182 545.25,-202"/>
<text xml:space="preserve" text-anchor="middle" x="461.5" y="-188.5" font-family="Helvetica,sans-Serif" font-size="10.00">AKPTInGameMode::OnPlayerDied</text>
</a>
</g>
</g>
<!-- Node5&#45;&gt;Node9 -->
<g id="edge10_Node000005_Node000009" class="edge">
<title>Node5&#45;&gt;Node9</title>
<g id="a_edge10_Node000005_Node000009"><a xlink:title=" ">
<path fill="none" stroke="#63b8ff" d="M613.32,-160.75C581.5,-167.35 543.15,-175.29 513.08,-181.52"/>
<polygon fill="#63b8ff" stroke="#63b8ff" points="613.71,-164.25 622.79,-158.79 612.29,-157.39 613.71,-164.25"/>
</a>
</g>
</g>
<!-- Node7 -->
<g id="Node000007" class="node">
<title>Node7</title>
<g id="a_Node000007"><a xlink:href="class_a_k_p_t_in_game_mode.html#acd0b193dd9ce700d2a4cb3953565584c" target="_top" xlink:title="야간 페이즈의 핵심 로직을 실행합니다.">
<polygon fill="white" stroke="#666666" points="341.75,-164 190.75,-164 190.75,-132 341.75,-132 341.75,-164"/>
<text xml:space="preserve" text-anchor="start" x="198.75" y="-150.5" font-family="Helvetica,sans-Serif" font-size="10.00">AKPTInGameMode::StartNight</text>
<text xml:space="preserve" text-anchor="middle" x="266.25" y="-138.5" font-family="Helvetica,sans-Serif" font-size="10.00">Phase</text>
</a>
</g>
</g>
<!-- Node6&#45;&gt;Node7 -->
<g id="edge7_Node000006_Node000007" class="edge">
<title>Node6&#45;&gt;Node7</title>
<g id="a_edge7_Node000006_Node000007"><a xlink:title=" ">
<path fill="none" stroke="#63b8ff" d="M376.17,-148C364.81,-148 353.21,-148 342.02,-148"/>
<polygon fill="#63b8ff" stroke="#63b8ff" points="375.93,-151.5 385.93,-148 375.93,-144.5 375.93,-151.5"/>
</a>
</g>
</g>
<!-- Node8 -->
<g id="Node000008" class="node">
<title>Node8</title>
<g id="a_Node000008"><a xlink:href="class_a_k_p_t_in_game_mode.html#a84edc1df98161132b7b803669c9299a0" target="_top" xlink:title="야간 페이즈를 시작하기 위한 준비 및 전환을 시작합니다.">
<polygon fill="white" stroke="#666666" points="154.75,-142 0,-142 0,-110 154.75,-110 154.75,-142"/>
<text xml:space="preserve" text-anchor="start" x="8" y="-128.5" font-family="Helvetica,sans-Serif" font-size="10.00">AKPTInGameMode::BeginNight</text>
<text xml:space="preserve" text-anchor="middle" x="77.38" y="-116.5" font-family="Helvetica,sans-Serif" font-size="10.00">PhaseLogic</text>
</a>
</g>
</g>
<!-- Node7&#45;&gt;Node8 -->
<g id="edge8_Node000007_Node000008" class="edge">
<title>Node7&#45;&gt;Node8</title>
<g id="a_edge8_Node000007_Node000008"><a xlink:title=" ">
<path fill="none" stroke="#63b8ff" d="M179.1,-137.86C171.11,-136.92 163.05,-135.97 155.16,-135.04"/>
<polygon fill="#63b8ff" stroke="#63b8ff" points="178.47,-141.31 188.81,-139 179.29,-134.36 178.47,-141.31"/>
</a>
</g>
</g>
<!-- Node8&#45;&gt;Node4 -->
<g id="edge9_Node000008_Node000004" class="edge">
<title>Node8&#45;&gt;Node4</title>
<g id="a_edge9_Node000008_Node000004"><a xlink:title=" ">
<path fill="none" stroke="#63b8ff" d="M166.64,-123.42C174.79,-123.25 182.92,-123.1 190.75,-123 414.91,-120.01 680.11,-123 806.19,-124.82"/>
<polygon fill="#63b8ff" stroke="#63b8ff" points="166.57,-119.92 156.65,-123.64 166.73,-126.92 166.57,-119.92"/>
</a>
</g>
</g>
<!-- Node10 -->
<g id="Node000010" class="node">
<title>Node10</title>
<g id="a_Node000010"><a xlink:href="class_a_player_character.html#aa38c751d8495a3e3d999eafad23d7a88" target="_top" xlink:title=" ">
<polygon fill="white" stroke="#666666" points="323.38,-240 209.12,-240 209.12,-220 323.38,-220 323.38,-240"/>
<text xml:space="preserve" text-anchor="middle" x="266.25" y="-226.5" font-family="Helvetica,sans-Serif" font-size="10.00">APlayerCharacter::Die</text>
</a>
</g>
</g>
<!-- Node9&#45;&gt;Node10 -->
<g id="edge11_Node000009_Node000010" class="edge">
<title>Node9&#45;&gt;Node10</title>
<g id="a_edge11_Node000009_Node000010"><a xlink:title=" ">
<path fill="none" stroke="#63b8ff" d="M396.13,-204.66C371.55,-209.49 343.82,-214.94 320.39,-219.55"/>
<polygon fill="#63b8ff" stroke="#63b8ff" points="396.56,-208.14 405.7,-202.78 395.21,-201.27 396.56,-208.14"/>
</a>
</g>
</g>
<!-- Node11 -->
<g id="Node000011" class="node">
<title>Node11</title>
<g id="a_Node000011"><a xlink:href="class_a_character_base.html#af4c20a0d4ddeb41b0eb305b807bcfc9d" target="_top" xlink:title=" ">
<polygon fill="white" stroke="#666666" points="341.75,-202 190.75,-202 190.75,-182 341.75,-182 341.75,-202"/>
<text xml:space="preserve" text-anchor="middle" x="266.25" y="-188.5" font-family="Helvetica,sans-Serif" font-size="10.00">ACharacterBase::HandleDeath</text>
</a>
</g>
</g>
<!-- Node9&#45;&gt;Node11 -->
<g id="edge12_Node000009_Node000011" class="edge">
<title>Node9&#45;&gt;Node11</title>
<g id="a_edge12_Node000009_Node000011"><a xlink:title=" ">
<path fill="none" stroke="#63b8ff" d="M366.06,-192C357.99,-192 349.91,-192 342.03,-192"/>
<polygon fill="#63b8ff" stroke="#63b8ff" points="365.91,-195.5 375.91,-192 365.91,-188.5 365.91,-195.5"/>
</a>
</g>
</g>
<!-- Node12 -->
<g id="Node000012" class="node">
<title>Node12</title>
<g id="a_Node000012"><a xlink:href="class_a_character_base.html#af3460531018611a7b3b2c59779c65ead" target="_top" xlink:title=" ">
<polygon fill="white" stroke="#666666" points="143.88,-202 10.88,-202 10.88,-182 143.88,-182 143.88,-202"/>
<text xml:space="preserve" text-anchor="middle" x="77.38" y="-188.5" font-family="Helvetica,sans-Serif" font-size="10.00">ACharacterBase::OnDeath</text>
</a>
</g>
</g>
<!-- Node11&#45;&gt;Node12 -->
<g id="edge13_Node000011_Node000012" class="edge">
<title>Node11&#45;&gt;Node12</title>
<g id="a_edge13_Node000011_Node000012"><a xlink:title=" ">
<path fill="none" stroke="#63b8ff" d="M179.15,-185.27C167.44,-185.21 155.56,-185.29 144.28,-185.52"/>
<polygon fill="#63b8ff" stroke="#63b8ff" points="178.77,-188.77 188.8,-185.36 178.84,-181.77 178.77,-188.77"/>
</a>
</g>
</g>
<!-- Node12&#45;&gt;Node11 -->
<g id="edge14_Node000012_Node000011" class="edge">
<title>Node12&#45;&gt;Node11</title>
<g id="a_edge14_Node000012_Node000011"><a xlink:title=" ">
<path fill="none" stroke="#63b8ff" d="M155.61,-198.66C167.09,-198.79 178.89,-198.78 190.32,-198.63"/>
<polygon fill="#63b8ff" stroke="#63b8ff" points="155.85,-195.16 145.79,-198.51 155.74,-202.16 155.85,-195.16"/>
</a>
</g>
</g>
<!-- Node12&#45;&gt;Node12 -->
<g id="edge15_Node000012_Node000012" class="edge">
<title>Node12&#45;&gt;Node12</title>
<g id="a_edge15_Node000012_Node000012"><a xlink:title=" ">
<path fill="none" stroke="#63b8ff" d="M111.11,-213.11C107.09,-217.14 95.84,-220 77.38,-220 44.54,-220 34.54,-210.98 47.36,-202.34"/>
<polygon fill="#63b8ff" stroke="#63b8ff" points="114.46,-212.08 107.88,-203.77 107.84,-214.36 114.46,-212.08"/>
</a>
</g>
</g>
</g>
</svg>

<g id="navigator" transform="translate(0 0)" fill="#404254">
  <rect fill="#f2f5e9" fill-opacity="0.5" stroke="#606060" stroke-width=".5" x="0" y="0" width="60" height="60"/>
  <use id="zoomplus" xlink:href="#zoomPlus" x="17" y="9" onmousedown="handleZoom(evt,'in')"/>
  <use id="zoomminus" xlink:href="#zoomMin" x="42" y="9" onmousedown="handleZoom(evt,'out')"/>
  <use id="reset" xlink:href="#resetDef" x="30" y="36" onmousedown="handleReset()"/>
   <use id="arrowup" xlink:href="#arrowUp" x="0" y="0" onmousedown="handlePan(0,-1)"/>
  <use id="arrowright" xlink:href="#arrowRight" x="0" y="0" onmousedown="handlePan(1,0)"/>
  <use id="arrowdown" xlink:href="#arrowDown" x="0" y="0" onmousedown="handlePan(0,1)"/>
  <use id="arrowleft" xlink:href="#arrowLeft" x="0" y="0" onmousedown="handlePan(-1,0)"/>
</g>
<svg viewBox="0 0 15 15" width="100%" height="30px" preserveAspectRatio="xMaxYMin meet">
 <g id="arrow_out" transform="scale(0.3 0.3)">
  <a xlink:href="class_a_k_p_t_in_game_mode_ad299e138b605334f03841982928f4e6e_icgraph_org.svg" target="_base">
   <rect id="button" ry="5" rx="5" y="6" x="6" height="38" width="38"
        fill="#f2f5e9" fill-opacity="0.5" stroke="#606060" stroke-width="1.0"/>
   <path id="arrow"
     d="M 11.500037,31.436501 C 11.940474,20.09759 22.043105,11.32322 32.158766,21.979434 L 37.068811,17.246167 C 37.068811,17.246167 37.088388,32 37.088388,32 L 22.160133,31.978069 C 22.160133,31.978069 26.997745,27.140456 26.997745,27.140456 C 18.528582,18.264221 13.291696,25.230495 11.500037,31.436501 z"
     style="fill:#404040;"/>
  </a>
 </g>
</svg>

<style type='text/css'>
<![CDATA[
[data-mouse-over-selected='false'] { opacity: 0.7; }
[data-mouse-over-selected='true']  { opacity: 1.0; }
]]>
</style>
<script type="application/ecmascript"><![CDATA[
document.addEventListener('DOMContentLoaded', (event) => {
  highlightEdges();
  highlightAdjacentNodes();
});
]]></script>
</svg>
