<?xml version="1.0" encoding="UTF-8" standalone="no"?>
<!DOCTYPE svg PUBLIC "-//W3C//DTD SVG 1.1//EN"
 "http://www.w3.org/Graphics/SVG/1.1/DTD/svg11.dtd">
<!-- Generated by graphviz version 13.1.1 (20250719.2154)
 -->
<!-- Title: UBaseLaserAttackAbility::SpawnAndStartLasers Pages: 1 -->
<svg width="514pt" height="173pt"
 viewBox="0.00 0.00 514.00 173.00" xmlns="http://www.w3.org/2000/svg" xmlns:xlink="http://www.w3.org/1999/xlink">
<g id="graph0" class="graph" transform="scale(1 1) rotate(0) translate(4 169)">
<title>UBaseLaserAttackAbility::SpawnAndStartLasers</title>
<!-- Node1 -->
<g id="Node000001" class="node">
<title>Node1</title>
<g id="a_Node000001"><a xlink:title="Spawns the laser beams and starts their rotation and damage ticks.">
<polygon fill="#999999" stroke="#666666" points="125.5,-105 0,-105 0,-73 125.5,-73 125.5,-105"/>
<text xml:space="preserve" text-anchor="start" x="8" y="-91.5" font-family="Helvetica,sans-Serif" font-size="10.00">UBaseLaserAttackAbility</text>
<text xml:space="preserve" text-anchor="middle" x="62.75" y="-79.5" font-family="Helvetica,sans-Serif" font-size="10.00">::SpawnAndStartLasers</text>
</a>
</g>
</g>
<!-- Node2 -->
<g id="Node000002" class="node">
<title>Node2</title>
<g id="a_Node000002"><a xlink:href="class_a_laser_beam.html#afe56308672c73f22ea50ced018ca6f5d" target="_top" xlink:title=" ">
<polygon fill="white" stroke="#666666" points="300.88,-165 162.62,-165 162.62,-145 300.88,-145 300.88,-165"/>
<text xml:space="preserve" text-anchor="middle" x="231.75" y="-151.5" font-family="Helvetica,sans-Serif" font-size="10.00">ALaserBeam::ActivateLaser</text>
</a>
</g>
</g>
<!-- Node1&#45;&gt;Node2 -->
<g id="edge1_Node000001_Node000002" class="edge">
<title>Node1&#45;&gt;Node2</title>
<g id="a_edge1_Node000001_Node000002"><a xlink:title=" ">
<path fill="none" stroke="#63b8ff" d="M94.38,-105.49C113.34,-115.25 138.4,-127.36 161.5,-136 166.49,-137.87 171.75,-139.64 177.04,-141.3"/>
<polygon fill="#63b8ff" stroke="#63b8ff" points="175.85,-144.6 186.43,-144.1 177.85,-137.89 175.85,-144.6"/>
</a>
</g>
</g>
<!-- Node3 -->
<g id="Node000003" class="node">
<title>Node3</title>
<g id="a_Node000003"><a xlink:href="class_u_base_laser_attack_ability.html#a872ab3f13348f056b6148f62cf3fffc7" target="_top" xlink:title=" ">
<polygon fill="white" stroke="#666666" points="294.5,-127 169,-127 169,-95 294.5,-95 294.5,-127"/>
<text xml:space="preserve" text-anchor="start" x="177" y="-113.5" font-family="Helvetica,sans-Serif" font-size="10.00">UBaseLaserAttackAbility</text>
<text xml:space="preserve" text-anchor="middle" x="231.75" y="-101.5" font-family="Helvetica,sans-Serif" font-size="10.00">::EndAbility</text>
</a>
</g>
</g>
<!-- Node1&#45;&gt;Node3 -->
<g id="edge2_Node000001_Node000003" class="edge">
<title>Node1&#45;&gt;Node3</title>
<g id="a_edge2_Node000001_Node000003"><a xlink:title=" ">
<path fill="none" stroke="#63b8ff" d="M125.93,-97.19C136.15,-98.54 146.82,-99.94 157.28,-101.32"/>
<polygon fill="#63b8ff" stroke="#63b8ff" points="156.64,-104.77 167.01,-102.6 157.56,-97.83 156.64,-104.77"/>
</a>
</g>
</g>
<!-- Node4 -->
<g id="Node000004" class="node">
<title>Node4</title>
<g id="a_Node000004"><a xlink:href="class_u_base_laser_attack_ability.html#a1f265f5b299f3057b632ab3d32970ea6" target="_top" xlink:title="Cleans up all spawned lasers and stops timers.">
<polygon fill="white" stroke="#666666" points="484.5,-127 359,-127 359,-95 484.5,-95 484.5,-127"/>
<text xml:space="preserve" text-anchor="start" x="367" y="-113.5" font-family="Helvetica,sans-Serif" font-size="10.00">UBaseLaserAttackAbility</text>
<text xml:space="preserve" text-anchor="middle" x="421.75" y="-101.5" font-family="Helvetica,sans-Serif" font-size="10.00">::FinishLaserAttack</text>
</a>
</g>
</g>
<!-- Node1&#45;&gt;Node4 -->
<g id="edge5_Node000001_Node000004" class="edge">
<title>Node1&#45;&gt;Node4</title>
<g id="a_edge5_Node000001_Node000004"><a xlink:title=" ">
<path fill="none" stroke="#63b8ff" d="M125.8,-86.81C137.65,-86.47 149.96,-86.18 161.5,-86 223.94,-85.04 239.89,-79.53 302,-86 316.78,-87.54 332.43,-90.13 347.34,-93.07"/>
<polygon fill="#63b8ff" stroke="#63b8ff" points="346.6,-96.49 357.1,-95.07 348.01,-89.63 346.6,-96.49"/>
</a>
</g>
</g>
<!-- Node5 -->
<g id="Node000005" class="node">
<title>Node5</title>
<g id="a_Node000005"><a xlink:href="class_a_laser_beam.html#a11ecd803838b440840e791e3e9ecddab" target="_top" xlink:title=" ">
<polygon fill="white" stroke="#666666" points="302,-39 161.5,-39 161.5,-19 302,-19 302,-39"/>
<text xml:space="preserve" text-anchor="middle" x="231.75" y="-25.5" font-family="Helvetica,sans-Serif" font-size="10.00">ALaserBeam::InitiallizeLaser</text>
</a>
</g>
</g>
<!-- Node1&#45;&gt;Node5 -->
<g id="edge6_Node000001_Node000005" class="edge">
<title>Node1&#45;&gt;Node5</title>
<g id="a_edge6_Node000001_Node000005"><a xlink:title=" ">
<path fill="none" stroke="#63b8ff" d="M107.97,-72.51C124.71,-66.32 143.96,-59.27 161.5,-53 170.63,-49.74 180.46,-46.29 189.76,-43.06"/>
<polygon fill="#63b8ff" stroke="#63b8ff" points="190.63,-46.46 198.94,-39.88 188.34,-39.85 190.63,-46.46"/>
</a>
</g>
</g>
<!-- Node3&#45;&gt;Node4 -->
<g id="edge3_Node000003_Node000004" class="edge">
<title>Node3&#45;&gt;Node4</title>
<g id="a_edge3_Node000003_Node000004"><a xlink:title=" ">
<path fill="none" stroke="#63b8ff" d="M294.83,-104.61C311.67,-104.22 330.07,-104.15 347.47,-104.4"/>
<polygon fill="#63b8ff" stroke="#63b8ff" points="347.16,-107.89 357.22,-104.58 347.29,-100.89 347.16,-107.89"/>
</a>
</g>
</g>
<!-- Node4&#45;&gt;Node3 -->
<g id="edge4_Node000004_Node000003" class="edge">
<title>Node4&#45;&gt;Node3</title>
<g id="a_edge4_Node000004_Node000003"><a xlink:title=" ">
<path fill="none" stroke="#63b8ff" d="M358.74,-117.39C341.89,-117.78 323.5,-117.85 306.1,-117.6"/>
<polygon fill="#63b8ff" stroke="#63b8ff" points="306.41,-114.11 296.34,-117.42 306.28,-121.11 306.41,-114.11"/>
</a>
</g>
</g>
<!-- Node6 -->
<g id="Node000006" class="node">
<title>Node6</title>
<g id="a_Node000006"><a xlink:href="class_a_laser_beam.html#ad8bdeaad72d677a90b75a369bb62320e" target="_top" xlink:title=" ">
<polygon fill="white" stroke="#666666" points="505.5,-58 338,-58 338,-38 505.5,-38 505.5,-58"/>
<text xml:space="preserve" text-anchor="middle" x="421.75" y="-44.5" font-family="Helvetica,sans-Serif" font-size="10.00">ALaserBeam::OnRep_LaserLength</text>
</a>
</g>
</g>
<!-- Node5&#45;&gt;Node6 -->
<g id="edge7_Node000005_Node000006" class="edge">
<title>Node5&#45;&gt;Node6</title>
<g id="a_edge7_Node000005_Node000006"><a xlink:title=" ">
<path fill="none" stroke="#63b8ff" d="M302.49,-36.05C310.3,-36.84 318.35,-37.65 326.41,-38.47"/>
<polygon fill="#63b8ff" stroke="#63b8ff" points="325.97,-41.94 336.27,-39.46 326.67,-34.97 325.97,-41.94"/>
</a>
</g>
</g>
<!-- Node7 -->
<g id="Node000007" class="node">
<title>Node7</title>
<g id="a_Node000007"><a xlink:href="class_a_laser_beam.html#a111ed739e94f25374d405dc8fc83edf9" target="_top" xlink:title=" ">
<polygon fill="white" stroke="#666666" points="503.62,-20 339.88,-20 339.88,0 503.62,0 503.62,-20"/>
<text xml:space="preserve" text-anchor="middle" x="421.75" y="-6.5" font-family="Helvetica,sans-Serif" font-size="10.00">ALaserBeam::OnRep_LaserWidth</text>
</a>
</g>
</g>
<!-- Node5&#45;&gt;Node7 -->
<g id="edge8_Node000005_Node000007" class="edge">
<title>Node5&#45;&gt;Node7</title>
<g id="a_edge8_Node000005_Node000007"><a xlink:title=" ">
<path fill="none" stroke="#63b8ff" d="M302.49,-21.95C310.84,-21.11 319.47,-20.24 328.09,-19.36"/>
<polygon fill="#63b8ff" stroke="#63b8ff" points="328.28,-22.86 337.88,-18.38 327.57,-15.9 328.28,-22.86"/>
</a>
</g>
</g>
</g>
</svg>
