<?xml version="1.0" encoding="UTF-8" standalone="no"?>
<!DOCTYPE svg PUBLIC "-//W3C//DTD SVG 1.1//EN"
 "http://www.w3.org/Graphics/SVG/1.1/DTD/svg11.dtd">
<!-- Generated by graphviz version 13.1.1 (20250719.2154)
 -->
<!-- Title: AMission_Splatoon Pages: 1 -->
<!--zoomable 744 -->

<svg id="main" version="1.1" xmlns="http://www.w3.org/2000/svg" xmlns:xlink="http://www.w3.org/1999/xlink" xml:space="preserve" onload="init(evt)">

<style type="text/css"><![CDATA[
.node, .edge {opacity: 0.7;}
.node.selected, .edge.selected {opacity: 1;}
.edge:hover path { stroke: red; }
.edge:hover polygon { stroke: red; fill: red; }
]]></style>

<defs>
  <circle id="rim" cx="0" cy="0" r="7"/>
  <circle id="rim2" cx="0" cy="0" r="3.5"/>
  <g id="zoomPlus">
    <use xlink:href="#rim" fill="#404040"><set attributeName="fill" to="#808080" begin="zoomplus.mouseover" end="zoomplus.mouseout"/></use>
    <path d="M-4,0h8M0,-4v8" fill="none" stroke="white" stroke-width="1.5" pointer-events="none"/>
  </g>
  <g id="zoomMin">
    <use xlink:href="#rim" fill="#404040"><set attributeName="fill" to="#808080" begin="zoomminus.mouseover" end="zoomminus.mouseout"/></use>
    <path d="M-4,0h8" fill="none" stroke="white" stroke-width="1.5" pointer-events="none"/>
  </g>
  <g id="arrowUp" transform="translate(30 24)">
    <use xlink:href="#rim"/>
    <path pointer-events="none" fill="none" stroke="white" stroke-width="1.5" d="M0,-3.0v7 M-2.5,-0.5L0,-3.0L2.5,-0.5"/>
  </g>
  <g id="arrowRight" transform="rotate(90) translate(36 -43)">
    <use xlink:href="#rim"/>
    <path pointer-events="none" fill="none" stroke="white" stroke-width="1.5" d="M0,-3.0v7 M-2.5,-0.5L0,-3.0L2.5,-0.5"/>
  </g>
  <g id="arrowDown" transform="rotate(180) translate(-30 -48)">
    <use xlink:href="#rim"/>
    <path pointer-events="none" fill="none" stroke="white" stroke-width="1.5" d="M0,-3.0v7 M-2.5,-0.5L0,-3.0L2.5,-0.5"/>
  </g>
  <g id="arrowLeft" transform="rotate(270) translate(-36 17)">
    <use xlink:href="#rim"/>
    <path pointer-events="none" fill="none" stroke="white" stroke-width="1.5" d="M0,-3.0v7 M-2.5,-0.5L0,-3.0L2.5,-0.5"/>
  </g>
  <g id="resetDef">
    <use xlink:href="#rim2" fill="#404040"><set attributeName="fill" to="#808080" begin="reset.mouseover" end="reset.mouseout"/></use>
  </g>
</defs>
<script type="application/ecmascript">
var viewWidth = 214;
var viewHeight = 744;
var sectionId = 'dynsection-0';
</script>
<script type="application/ecmascript" xlink:href="svg.min.js"/>
<svg id="graph" class="graph">
<g id="viewport">
<title>AMission_Splatoon</title>
<!-- Node1 -->
<g id="Node000001" class="node">
<title>Node1</title>
<g id="a_Node000001"><a xlink:title=" ">
<polygon fill="#999999" stroke="none" points="162.75,-172 0,-172 0,0 162.75,0 162.75,-172"/>
<text xml:space="preserve" text-anchor="start" x="39.38" y="-158.5" font-family="Helvetica,sans-Serif" font-size="10.00">AMission_Splatoon</text>
<text xml:space="preserve" text-anchor="start" x="4.38" y="-142.5" font-family="Helvetica,sans-Serif" font-size="10.00">#</text>
<text xml:space="preserve" text-anchor="start" x="14" y="-142.5" font-family="Helvetica,sans-Serif" font-size="10.00">TSubclassOf&lt; APaintableVolume</text>
<text xml:space="preserve" text-anchor="start" x="14" y="-130.5" font-family="Helvetica,sans-Serif" font-size="10.00"> &gt; PaintableVolumeClass</text>
<text xml:space="preserve" text-anchor="start" x="4" y="-114.5" font-family="Helvetica,sans-Serif" font-size="10.00">+</text>
<text xml:space="preserve" text-anchor="start" x="14" y="-114.5" font-family="Helvetica,sans-Serif" font-size="10.00">AMission_Splatoon()</text>
<text xml:space="preserve" text-anchor="start" x="4" y="-98.5" font-family="Helvetica,sans-Serif" font-size="10.00">+</text>
<text xml:space="preserve" text-anchor="start" x="14" y="-98.5" font-family="Helvetica,sans-Serif" font-size="10.00">virtual void StartMission</text>
<text xml:space="preserve" text-anchor="start" x="14" y="-86.5" font-family="Helvetica,sans-Serif" font-size="10.00">() override</text>
<text xml:space="preserve" text-anchor="start" x="4.38" y="-70.5" font-family="Helvetica,sans-Serif" font-size="10.00">#</text>
<text xml:space="preserve" text-anchor="start" x="14" y="-70.5" font-family="Helvetica,sans-Serif" font-size="10.00">virtual void EndPlay</text>
<text xml:space="preserve" text-anchor="start" x="14" y="-58.5" font-family="Helvetica,sans-Serif" font-size="10.00">(const EEndPlayReason</text>
<text xml:space="preserve" text-anchor="start" x="14" y="-46.5" font-family="Helvetica,sans-Serif" font-size="10.00">::Type EndPlayReason)</text>
<text xml:space="preserve" text-anchor="start" x="14" y="-34.5" font-family="Helvetica,sans-Serif" font-size="10.00"> override</text>
<text xml:space="preserve" text-anchor="start" x="4.38" y="-18.5" font-family="Helvetica,sans-Serif" font-size="10.00">#</text>
<text xml:space="preserve" text-anchor="start" x="14" y="-18.5" font-family="Helvetica,sans-Serif" font-size="10.00">void OnPaintableVolumeState</text>
<text xml:space="preserve" text-anchor="start" x="14" y="-6.5" font-family="Helvetica,sans-Serif" font-size="10.00">Updated()</text>
<polygon fill="#666666" stroke="#666666" points="0,-154 0,-154 162.75,-154 162.75,-154 0,-154"/>
<polygon fill="#666666" stroke="#666666" points="0,-126 0,-126 12,-126 12,-126 0,-126"/>
<polygon fill="#666666" stroke="#666666" points="12,-126 12,-126 162.75,-126 162.75,-126 12,-126"/>
<polygon fill="none" stroke="#666666" points="0,0 0,-172 162.75,-172 162.75,0 0,0"/>
</a>
</g>
</g>
<!-- Node2 -->
<g id="Node000002" class="node">
<title>Node2</title>
<g id="a_Node000002"><a xlink:href="class_a_mission_actor_base.html" target="_top" xlink:title=" ">
<polygon fill="white" stroke="none" points="154.88,-580 7.88,-580 7.88,-208 154.88,-208 154.88,-580"/>
<text xml:space="preserve" text-anchor="start" x="38.25" y="-566.5" font-family="Helvetica,sans-Serif" font-size="10.00">AMissionActorBase</text>
<text xml:space="preserve" text-anchor="start" x="12.25" y="-550.5" font-family="Helvetica,sans-Serif" font-size="10.00">#</text>
<text xml:space="preserve" text-anchor="start" x="21.88" y="-550.5" font-family="Helvetica,sans-Serif" font-size="10.00">float CompletionThreshold</text>
<text xml:space="preserve" text-anchor="start" x="12.25" y="-534.5" font-family="Helvetica,sans-Serif" font-size="10.00">#</text>
<text xml:space="preserve" text-anchor="start" x="21.88" y="-534.5" font-family="Helvetica,sans-Serif" font-size="10.00">FName MissionID</text>
<text xml:space="preserve" text-anchor="start" x="12.25" y="-518.5" font-family="Helvetica,sans-Serif" font-size="10.00">#</text>
<text xml:space="preserve" text-anchor="start" x="21.88" y="-518.5" font-family="Helvetica,sans-Serif" font-size="10.00">float MissionProgress</text>
<text xml:space="preserve" text-anchor="start" x="11.88" y="-502.5" font-family="Helvetica,sans-Serif" font-size="10.00">+</text>
<text xml:space="preserve" text-anchor="start" x="21.88" y="-502.5" font-family="Helvetica,sans-Serif" font-size="10.00">AMissionActorBase()</text>
<text xml:space="preserve" text-anchor="start" x="11.88" y="-486.5" font-family="Helvetica,sans-Serif" font-size="10.00">+</text>
<text xml:space="preserve" text-anchor="start" x="21.88" y="-486.5" font-family="Helvetica,sans-Serif" font-size="10.00">virtual float GetCompletion</text>
<text xml:space="preserve" text-anchor="start" x="21.88" y="-474.5" font-family="Helvetica,sans-Serif" font-size="10.00">Threshold() const</text>
<text xml:space="preserve" text-anchor="start" x="11.88" y="-458.5" font-family="Helvetica,sans-Serif" font-size="10.00">+</text>
<text xml:space="preserve" text-anchor="start" x="21.88" y="-458.5" font-family="Helvetica,sans-Serif" font-size="10.00">virtual FName GetMission</text>
<text xml:space="preserve" text-anchor="start" x="21.88" y="-446.5" font-family="Helvetica,sans-Serif" font-size="10.00">ID() const override</text>
<text xml:space="preserve" text-anchor="start" x="11.88" y="-430.5" font-family="Helvetica,sans-Serif" font-size="10.00">+</text>
<text xml:space="preserve" text-anchor="start" x="21.88" y="-430.5" font-family="Helvetica,sans-Serif" font-size="10.00">virtual void NotifyMission</text>
<text xml:space="preserve" text-anchor="start" x="21.88" y="-418.5" font-family="Helvetica,sans-Serif" font-size="10.00">Complete()</text>
<text xml:space="preserve" text-anchor="start" x="11.88" y="-402.5" font-family="Helvetica,sans-Serif" font-size="10.00">+</text>
<text xml:space="preserve" text-anchor="start" x="21.88" y="-402.5" font-family="Helvetica,sans-Serif" font-size="10.00">virtual void NotifyMission</text>
<text xml:space="preserve" text-anchor="start" x="21.88" y="-390.5" font-family="Helvetica,sans-Serif" font-size="10.00">Failed()</text>
<text xml:space="preserve" text-anchor="start" x="11.88" y="-374.5" font-family="Helvetica,sans-Serif" font-size="10.00">+</text>
<text xml:space="preserve" text-anchor="start" x="21.88" y="-374.5" font-family="Helvetica,sans-Serif" font-size="10.00">virtual FMissionComplete</text>
<text xml:space="preserve" text-anchor="start" x="21.88" y="-362.5" font-family="Helvetica,sans-Serif" font-size="10.00"> &amp; OnMissionCompleted()</text>
<text xml:space="preserve" text-anchor="start" x="21.88" y="-350.5" font-family="Helvetica,sans-Serif" font-size="10.00"> override</text>
<text xml:space="preserve" text-anchor="start" x="11.88" y="-334.5" font-family="Helvetica,sans-Serif" font-size="10.00">+</text>
<text xml:space="preserve" text-anchor="start" x="21.88" y="-334.5" font-family="Helvetica,sans-Serif" font-size="10.00">virtual FMissionFailed</text>
<text xml:space="preserve" text-anchor="start" x="21.88" y="-322.5" font-family="Helvetica,sans-Serif" font-size="10.00"> &amp; OnMissionFailed() override</text>
<text xml:space="preserve" text-anchor="start" x="11.88" y="-306.5" font-family="Helvetica,sans-Serif" font-size="10.00">+</text>
<text xml:space="preserve" text-anchor="start" x="21.88" y="-306.5" font-family="Helvetica,sans-Serif" font-size="10.00">virtual void StartMission()</text>
<text xml:space="preserve" text-anchor="start" x="12.25" y="-290.5" font-family="Helvetica,sans-Serif" font-size="10.00">#</text>
<text xml:space="preserve" text-anchor="start" x="21.88" y="-290.5" font-family="Helvetica,sans-Serif" font-size="10.00">virtual void GetLifetime</text>
<text xml:space="preserve" text-anchor="start" x="21.88" y="-278.5" font-family="Helvetica,sans-Serif" font-size="10.00">ReplicatedProps(TArray</text>
<text xml:space="preserve" text-anchor="start" x="21.88" y="-266.5" font-family="Helvetica,sans-Serif" font-size="10.00">&lt; class FLifetimeProperty</text>
<text xml:space="preserve" text-anchor="start" x="21.88" y="-254.5" font-family="Helvetica,sans-Serif" font-size="10.00"> &gt; &amp;OutLifetimeProps) const</text>
<text xml:space="preserve" text-anchor="start" x="21.88" y="-242.5" font-family="Helvetica,sans-Serif" font-size="10.00"> override</text>
<text xml:space="preserve" text-anchor="start" x="12.25" y="-226.5" font-family="Helvetica,sans-Serif" font-size="10.00">#</text>
<text xml:space="preserve" text-anchor="start" x="21.88" y="-226.5" font-family="Helvetica,sans-Serif" font-size="10.00">virtual void OnRep</text>
<text xml:space="preserve" text-anchor="start" x="21.88" y="-214.5" font-family="Helvetica,sans-Serif" font-size="10.00">_MissionProgress()</text>
<polygon fill="#666666" stroke="#666666" points="7.88,-562 7.88,-562 154.88,-562 154.88,-562 7.88,-562"/>
<polygon fill="#666666" stroke="#666666" points="7.88,-514 7.88,-514 19.88,-514 19.88,-514 7.88,-514"/>
<polygon fill="#666666" stroke="#666666" points="19.88,-514 19.88,-514 154.88,-514 154.88,-514 19.88,-514"/>
<polygon fill="none" stroke="#666666" points="7.88,-208 7.88,-580 154.88,-580 154.88,-208 7.88,-208"/>
</a>
</g>
</g>
<!-- Node2&#45;&gt;Node1 -->
<g id="edge1_Node000001_Node000002" class="edge">
<title>Node2&#45;&gt;Node1</title>
<g id="a_edge1_Node000001_Node000002"><a xlink:title=" ">
<path fill="none" stroke="#63b8ff" d="M81.38,-196.94C81.38,-188.31 81.38,-179.88 81.38,-171.78"/>
<polygon fill="none" stroke="#63b8ff" points="77.88,-196.87 81.38,-206.87 84.88,-196.87 77.88,-196.87"/>
</a>
</g>
</g>
<!-- Node3 -->
<g id="Node000003" class="node">
<title>Node3</title>
<g id="a_Node000003"><a xlink:title=" ">
<polygon fill="white" stroke="none" points="46.38,-702 8.38,-702 8.38,-650 46.38,-650 46.38,-702"/>
<text xml:space="preserve" text-anchor="start" x="12.38" y="-688.5" font-family="Helvetica,sans-Serif" font-size="10.00">AActor</text>
<text xml:space="preserve" text-anchor="start" x="25.88" y="-672.5" font-family="Helvetica,sans-Serif" font-size="10.00"> </text>
<text xml:space="preserve" text-anchor="start" x="25.88" y="-656.5" font-family="Helvetica,sans-Serif" font-size="10.00"> </text>
<polygon fill="#666666" stroke="#666666" points="8.38,-684 8.38,-684 46.38,-684 46.38,-684 8.38,-684"/>
<polygon fill="#666666" stroke="#666666" points="8.38,-668 8.38,-668 46.38,-668 46.38,-668 8.38,-668"/>
<polygon fill="none" stroke="#666666" points="8.38,-650 8.38,-702 46.38,-702 46.38,-650 8.38,-650"/>
</a>
</g>
</g>
<!-- Node3&#45;&gt;Node2 -->
<g id="edge2_Node000002_Node000003" class="edge">
<title>Node3&#45;&gt;Node2</title>
<g id="a_edge2_Node000002_Node000003"><a xlink:title=" ">
<path fill="none" stroke="#63b8ff" d="M34.3,-639.08C37.45,-622.77 41.43,-602.12 45.74,-579.78"/>
<polygon fill="none" stroke="#63b8ff" points="30.91,-638.18 32.45,-648.67 37.78,-639.51 30.91,-638.18"/>
</a>
</g>
</g>
<!-- Node4 -->
<g id="Node000004" class="node">
<title>Node4</title>
<g id="a_Node000004"><a xlink:href="class_i_mission_interface.html" target="_top" xlink:title=" ">
<polygon fill="white" stroke="none" points="206.25,-736 64.5,-736 64.5,-616 206.25,-616 206.25,-736"/>
<text xml:space="preserve" text-anchor="start" x="97.88" y="-722.5" font-family="Helvetica,sans-Serif" font-size="10.00">IMissionInterface</text>
<text xml:space="preserve" text-anchor="start" x="133.88" y="-706.5" font-family="Helvetica,sans-Serif" font-size="10.00"> </text>
<text xml:space="preserve" text-anchor="start" x="68.5" y="-690.5" font-family="Helvetica,sans-Serif" font-size="10.00">+</text>
<text xml:space="preserve" text-anchor="start" x="78.5" y="-690.5" font-family="Helvetica,sans-Serif" font-size="10.00">virtual FName GetMission</text>
<text xml:space="preserve" text-anchor="start" x="78.5" y="-678.5" font-family="Helvetica,sans-Serif" font-size="10.00">ID() const =0</text>
<text xml:space="preserve" text-anchor="start" x="68.5" y="-662.5" font-family="Helvetica,sans-Serif" font-size="10.00">+</text>
<text xml:space="preserve" text-anchor="start" x="78.5" y="-662.5" font-family="Helvetica,sans-Serif" font-size="10.00">virtual FMissionComplete</text>
<text xml:space="preserve" text-anchor="start" x="78.5" y="-650.5" font-family="Helvetica,sans-Serif" font-size="10.00"> &amp; OnMissionCompleted()=0</text>
<text xml:space="preserve" text-anchor="start" x="68.5" y="-634.5" font-family="Helvetica,sans-Serif" font-size="10.00">+</text>
<text xml:space="preserve" text-anchor="start" x="78.5" y="-634.5" font-family="Helvetica,sans-Serif" font-size="10.00">virtual FMissionFailed</text>
<text xml:space="preserve" text-anchor="start" x="78.5" y="-622.5" font-family="Helvetica,sans-Serif" font-size="10.00"> &amp; OnMissionFailed()=0</text>
<polygon fill="#666666" stroke="#666666" points="64.5,-718 64.5,-718 206.25,-718 206.25,-718 64.5,-718"/>
<polygon fill="#666666" stroke="#666666" points="64.5,-702 64.5,-702 206.25,-702 206.25,-702 64.5,-702"/>
<polygon fill="none" stroke="#666666" points="64.5,-616 64.5,-736 206.25,-736 206.25,-616 64.5,-616"/>
</a>
</g>
</g>
<!-- Node4&#45;&gt;Node2 -->
<g id="edge3_Node000002_Node000004" class="edge">
<title>Node4&#45;&gt;Node2</title>
<g id="a_edge3_Node000002_Node000004"><a xlink:title=" ">
<path fill="none" stroke="#63b8ff" d="M121.91,-605.2C120.36,-597.14 118.72,-588.67 117.04,-579.93"/>
<polygon fill="none" stroke="#63b8ff" points="118.44,-605.66 123.77,-614.82 125.31,-604.33 118.44,-605.66"/>
</a>
</g>
</g>
</g>
</svg>

<g id="navigator" transform="translate(0 0)" fill="#404254">
  <rect fill="#f2f5e9" fill-opacity="0.5" stroke="#606060" stroke-width=".5" x="0" y="0" width="60" height="60"/>
  <use id="zoomplus" xlink:href="#zoomPlus" x="17" y="9" onmousedown="handleZoom(evt,'in')"/>
  <use id="zoomminus" xlink:href="#zoomMin" x="42" y="9" onmousedown="handleZoom(evt,'out')"/>
  <use id="reset" xlink:href="#resetDef" x="30" y="36" onmousedown="handleReset()"/>
   <use id="arrowup" xlink:href="#arrowUp" x="0" y="0" onmousedown="handlePan(0,-1)"/>
  <use id="arrowright" xlink:href="#arrowRight" x="0" y="0" onmousedown="handlePan(1,0)"/>
  <use id="arrowdown" xlink:href="#arrowDown" x="0" y="0" onmousedown="handlePan(0,1)"/>
  <use id="arrowleft" xlink:href="#arrowLeft" x="0" y="0" onmousedown="handlePan(-1,0)"/>
</g>
<svg viewBox="0 0 15 15" width="100%" height="30px" preserveAspectRatio="xMaxYMin meet">
 <g id="arrow_out" transform="scale(0.3 0.3)">
  <a xlink:href="class_a_mission___splatoon__inherit__graph_org.svg" target="_base">
   <rect id="button" ry="5" rx="5" y="6" x="6" height="38" width="38"
        fill="#f2f5e9" fill-opacity="0.5" stroke="#606060" stroke-width="1.0"/>
   <path id="arrow"
     d="M 11.500037,31.436501 C 11.940474,20.09759 22.043105,11.32322 32.158766,21.979434 L 37.068811,17.246167 C 37.068811,17.246167 37.088388,32 37.088388,32 L 22.160133,31.978069 C 22.160133,31.978069 26.997745,27.140456 26.997745,27.140456 C 18.528582,18.264221 13.291696,25.230495 11.500037,31.436501 z"
     style="fill:#404040;"/>
  </a>
 </g>
</svg>

<style type='text/css'>
<![CDATA[
[data-mouse-over-selected='false'] { opacity: 0.7; }
[data-mouse-over-selected='true']  { opacity: 1.0; }
]]>
</style>
<script type="application/ecmascript"><![CDATA[
document.addEventListener('DOMContentLoaded', (event) => {
  highlightEdges();
  highlightAdjacentNodes();
});
]]></script>
</svg>
