<?xml version="1.0" encoding="UTF-8" standalone="no"?>
<!DOCTYPE svg PUBLIC "-//W3C//DTD SVG 1.1//EN"
 "http://www.w3.org/Graphics/SVG/1.1/DTD/svg11.dtd">
<!-- Generated by graphviz version 13.1.1 (20250719.2154)
 -->
<!-- Title: UStraightSeqSkillAbility::SpawnAndInitializeProjectile Pages: 1 -->
<!--zoomable 283 -->

<svg id="main" version="1.1" xmlns="http://www.w3.org/2000/svg" xmlns:xlink="http://www.w3.org/1999/xlink" xml:space="preserve" onload="init(evt)">

<style type="text/css"><![CDATA[
.node, .edge {opacity: 0.7;}
.node.selected, .edge.selected {opacity: 1;}
.edge:hover path { stroke: red; }
.edge:hover polygon { stroke: red; fill: red; }
]]></style>

<defs>
  <circle id="rim" cx="0" cy="0" r="7"/>
  <circle id="rim2" cx="0" cy="0" r="3.5"/>
  <g id="zoomPlus">
    <use xlink:href="#rim" fill="#404040"><set attributeName="fill" to="#808080" begin="zoomplus.mouseover" end="zoomplus.mouseout"/></use>
    <path d="M-4,0h8M0,-4v8" fill="none" stroke="white" stroke-width="1.5" pointer-events="none"/>
  </g>
  <g id="zoomMin">
    <use xlink:href="#rim" fill="#404040"><set attributeName="fill" to="#808080" begin="zoomminus.mouseover" end="zoomminus.mouseout"/></use>
    <path d="M-4,0h8" fill="none" stroke="white" stroke-width="1.5" pointer-events="none"/>
  </g>
  <g id="arrowUp" transform="translate(30 24)">
    <use xlink:href="#rim"/>
    <path pointer-events="none" fill="none" stroke="white" stroke-width="1.5" d="M0,-3.0v7 M-2.5,-0.5L0,-3.0L2.5,-0.5"/>
  </g>
  <g id="arrowRight" transform="rotate(90) translate(36 -43)">
    <use xlink:href="#rim"/>
    <path pointer-events="none" fill="none" stroke="white" stroke-width="1.5" d="M0,-3.0v7 M-2.5,-0.5L0,-3.0L2.5,-0.5"/>
  </g>
  <g id="arrowDown" transform="rotate(180) translate(-30 -48)">
    <use xlink:href="#rim"/>
    <path pointer-events="none" fill="none" stroke="white" stroke-width="1.5" d="M0,-3.0v7 M-2.5,-0.5L0,-3.0L2.5,-0.5"/>
  </g>
  <g id="arrowLeft" transform="rotate(270) translate(-36 17)">
    <use xlink:href="#rim"/>
    <path pointer-events="none" fill="none" stroke="white" stroke-width="1.5" d="M0,-3.0v7 M-2.5,-0.5L0,-3.0L2.5,-0.5"/>
  </g>
  <g id="resetDef">
    <use xlink:href="#rim2" fill="#404040"><set attributeName="fill" to="#808080" begin="reset.mouseover" end="reset.mouseout"/></use>
  </g>
</defs>
<script type="application/ecmascript">
var viewWidth = 1052;
var viewHeight = 283;
var sectionId = 'dynsection-5';
</script>
<script type="application/ecmascript" xlink:href="svg.min.js"/>
<svg id="graph" class="graph">
<g id="viewport">
<title>UStraightSeqSkillAbility::SpawnAndInitializeProjectile</title>
<!-- Node1 -->
<g id="Node000001" class="node">
<title>Node1</title>
<g id="a_Node000001"><a xlink:title=" ">
<polygon fill="#999999" stroke="#666666" points="145.75,-132 0,-132 0,-100 145.75,-100 145.75,-132"/>
<text xml:space="preserve" text-anchor="start" x="8" y="-118.5" font-family="Helvetica,sans-Serif" font-size="10.00">UStraightSeqSkillAbility</text>
<text xml:space="preserve" text-anchor="middle" x="72.88" y="-106.5" font-family="Helvetica,sans-Serif" font-size="10.00">::SpawnAndInitializeProjectile</text>
</a>
</g>
</g>
<!-- Node2 -->
<g id="Node000002" class="node">
<title>Node2</title>
<g id="a_Node000002"><a xlink:href="class_a_projectile_base.html#ac67469fcdd8411a27a35b524a43f4d32" target="_top" xlink:title=" ">
<polygon fill="white" stroke="#666666" points="314.38,-232 186.62,-232 186.62,-200 314.38,-200 314.38,-232"/>
<text xml:space="preserve" text-anchor="start" x="194.62" y="-218.5" font-family="Helvetica,sans-Serif" font-size="10.00">AProjectileBase::Activate</text>
<text xml:space="preserve" text-anchor="middle" x="250.5" y="-206.5" font-family="Helvetica,sans-Serif" font-size="10.00">Projectile</text>
</a>
</g>
</g>
<!-- Node1&#45;&gt;Node2 -->
<g id="edge1_Node000001_Node000002" class="edge">
<title>Node1&#45;&gt;Node2</title>
<g id="a_edge1_Node000001_Node000002"><a xlink:title=" ">
<path fill="none" stroke="#63b8ff" d="M93.96,-132.31C114.91,-148.74 149.18,-174.02 181.75,-191 184.42,-192.39 187.19,-193.74 190,-195.05"/>
<polygon fill="#63b8ff" stroke="#63b8ff" points="188.42,-198.18 198.99,-198.96 191.22,-191.76 188.42,-198.18"/>
</a>
</g>
</g>
<!-- Node8 -->
<g id="Node000008" class="node">
<title>Node8</title>
<g id="a_Node000008"><a xlink:href="class_u_base_skill_ability.html#a417674acacd1245fc05ddbb5bfbbfbcc" target="_top" xlink:title=" ">
<polygon fill="white" stroke="#666666" points="302,-182 199,-182 199,-150 302,-150 302,-182"/>
<text xml:space="preserve" text-anchor="start" x="207" y="-168.5" font-family="Helvetica,sans-Serif" font-size="10.00">UBaseSkillAbility::</text>
<text xml:space="preserve" text-anchor="middle" x="250.5" y="-156.5" font-family="Helvetica,sans-Serif" font-size="10.00">ApplySkillCooldown</text>
</a>
</g>
</g>
<!-- Node1&#45;&gt;Node8 -->
<g id="edge9_Node000001_Node000008" class="edge">
<title>Node1&#45;&gt;Node8</title>
<g id="a_edge9_Node000001_Node000008"><a xlink:title=" ">
<path fill="none" stroke="#63b8ff" d="M131.38,-132.37C149.44,-137.51 169.46,-143.21 187.8,-148.43"/>
<polygon fill="#63b8ff" stroke="#63b8ff" points="186.64,-151.74 197.21,-151.11 188.55,-145.01 186.64,-151.74"/>
</a>
</g>
</g>
<!-- Node9 -->
<g id="Node000009" class="node">
<title>Node9</title>
<g id="a_Node000009"><a xlink:href="class_u_straight_seq_skill_ability.html#a5372151f236161b19c69b13f1884aa00" target="_top" xlink:title=" ">
<polygon fill="white" stroke="#666666" points="319.25,-132 181.75,-132 181.75,-100 319.25,-100 319.25,-132"/>
<text xml:space="preserve" text-anchor="start" x="189.75" y="-118.5" font-family="Helvetica,sans-Serif" font-size="10.00">UStraightSeqSkillAbility</text>
<text xml:space="preserve" text-anchor="middle" x="250.5" y="-106.5" font-family="Helvetica,sans-Serif" font-size="10.00">::CalculateSpawnTransform</text>
</a>
</g>
</g>
<!-- Node1&#45;&gt;Node9 -->
<g id="edge10_Node000001_Node000009" class="edge">
<title>Node1&#45;&gt;Node9</title>
<g id="a_edge10_Node000001_Node000009"><a xlink:title=" ">
<path fill="none" stroke="#63b8ff" d="M146.07,-116C153.89,-116 161.88,-116 169.78,-116"/>
<polygon fill="#63b8ff" stroke="#63b8ff" points="169.75,-119.5 179.75,-116 169.75,-112.5 169.75,-119.5"/>
</a>
</g>
</g>
<!-- Node10 -->
<g id="Node000010" class="node">
<title>Node10</title>
<g id="a_Node000010"><a xlink:href="class_u_straight_seq_skill_ability.html#a7c25e68a106c24b8aab17b18ce1f532e" target="_top" xlink:title=" ">
<polygon fill="white" stroke="#666666" points="310.62,-82 190.38,-82 190.38,-50 310.62,-50 310.62,-82"/>
<text xml:space="preserve" text-anchor="start" x="198.38" y="-68.5" font-family="Helvetica,sans-Serif" font-size="10.00">UStraightSeqSkillAbility</text>
<text xml:space="preserve" text-anchor="middle" x="250.5" y="-56.5" font-family="Helvetica,sans-Serif" font-size="10.00">::OnEndAbility</text>
</a>
</g>
</g>
<!-- Node1&#45;&gt;Node10 -->
<g id="edge11_Node000001_Node000010" class="edge">
<title>Node1&#45;&gt;Node10</title>
<g id="a_edge11_Node000001_Node000010"><a xlink:title=" ">
<path fill="none" stroke="#63b8ff" d="M131.38,-99.63C147.22,-95.12 164.56,-90.18 180.95,-85.52"/>
<polygon fill="#63b8ff" stroke="#63b8ff" points="181.45,-89.01 190.11,-82.91 179.53,-82.28 181.45,-89.01"/>
</a>
</g>
</g>
<!-- Node11 -->
<g id="Node000011" class="node">
<title>Node11</title>
<g id="a_Node000011"><a xlink:href="class_u_projectile_pool_subsystem.html#ab3f6d4e27cfee8b6b1368e6809a94488" target="_top" xlink:title=" ">
<polygon fill="white" stroke="#666666" points="317,-32 184,-32 184,0 317,0 317,-32"/>
<text xml:space="preserve" text-anchor="start" x="192" y="-18.5" font-family="Helvetica,sans-Serif" font-size="10.00">UProjectilePoolSubsystem</text>
<text xml:space="preserve" text-anchor="middle" x="250.5" y="-6.5" font-family="Helvetica,sans-Serif" font-size="10.00">::RequestProjectile</text>
</a>
</g>
</g>
<!-- Node1&#45;&gt;Node11 -->
<g id="edge12_Node000001_Node000011" class="edge">
<title>Node1&#45;&gt;Node11</title>
<g id="a_edge12_Node000001_Node000011"><a xlink:title=" ">
<path fill="none" stroke="#63b8ff" d="M93.96,-99.69C114.91,-83.26 149.18,-57.98 181.75,-41 184.42,-39.61 187.19,-38.26 190,-36.95"/>
<polygon fill="#63b8ff" stroke="#63b8ff" points="191.22,-40.24 198.99,-33.04 188.42,-33.82 191.22,-40.24"/>
</a>
</g>
</g>
<!-- Node3 -->
<g id="Node000003" class="node">
<title>Node3</title>
<g id="a_Node000003"><a xlink:href="class_a_projectile_base.html#af029d253170fd4537553bbdada80b4c1" target="_top" xlink:title=" ">
<polygon fill="white" stroke="#666666" points="500.62,-257 369.12,-257 369.12,-225 500.62,-225 500.62,-257"/>
<text xml:space="preserve" text-anchor="start" x="377.12" y="-243.5" font-family="Helvetica,sans-Serif" font-size="10.00">AProjectileBase::Multicast</text>
<text xml:space="preserve" text-anchor="middle" x="434.88" y="-231.5" font-family="Helvetica,sans-Serif" font-size="10.00">_Activate</text>
</a>
</g>
</g>
<!-- Node2&#45;&gt;Node3 -->
<g id="edge2_Node000002_Node000003" class="edge">
<title>Node2&#45;&gt;Node3</title>
<g id="a_edge2_Node000002_Node000003"><a xlink:title=" ">
<path fill="none" stroke="#63b8ff" d="M314.77,-224.67C328.57,-226.57 343.32,-228.59 357.57,-230.54"/>
<polygon fill="#63b8ff" stroke="#63b8ff" points="356.97,-233.99 367.36,-231.88 357.92,-227.06 356.97,-233.99"/>
</a>
</g>
</g>
<!-- Node4 -->
<g id="Node000004" class="node">
<title>Node4</title>
<g id="a_Node000004"><a xlink:href="class_a_projectile_base.html#a5469168d24245574326a686059bf6ca8" target="_top" xlink:title=" ">
<polygon fill="white" stroke="#666666" points="506.25,-207 363.5,-207 363.5,-175 506.25,-175 506.25,-207"/>
<text xml:space="preserve" text-anchor="start" x="371.5" y="-193.5" font-family="Helvetica,sans-Serif" font-size="10.00">AProjectileBase::OnLifeSpan</text>
<text xml:space="preserve" text-anchor="middle" x="434.88" y="-181.5" font-family="Helvetica,sans-Serif" font-size="10.00">Expired</text>
</a>
</g>
</g>
<!-- Node2&#45;&gt;Node4 -->
<g id="edge4_Node000002_Node000004" class="edge">
<title>Node2&#45;&gt;Node4</title>
<g id="a_edge4_Node000002_Node000004"><a xlink:title=" ">
<path fill="none" stroke="#63b8ff" d="M314.77,-207.33C326.75,-205.69 339.43,-203.95 351.88,-202.24"/>
<polygon fill="#63b8ff" stroke="#63b8ff" points="352.29,-205.72 361.73,-200.89 351.34,-198.78 352.29,-205.72"/>
</a>
</g>
</g>
<!-- Node3&#45;&gt;Node3 -->
<g id="edge3_Node000003_Node000003" class="edge">
<title>Node3&#45;&gt;Node3</title>
<g id="a_edge3_Node000003_Node000003"><a xlink:title=" ">
<path fill="none" stroke="#63b8ff" d="M401.96,-257.44C395.81,-266.58 406.79,-275 434.88,-275 450.24,-275 460.48,-272.48 465.6,-268.71"/>
<polygon fill="#63b8ff" stroke="#63b8ff" points="469.03,-269.41 467.5,-258.93 462.16,-268.08 469.03,-269.41"/>
</a>
</g>
</g>
<!-- Node5 -->
<g id="Node000005" class="node">
<title>Node5</title>
<g id="a_Node000005"><a xlink:href="class_a_projectile_base.html#a2276af661735f8971f6af66c6db7633d" target="_top" xlink:title=" ">
<polygon fill="white" stroke="#666666" points="701.5,-201 550.5,-201 550.5,-181 701.5,-181 701.5,-201"/>
<text xml:space="preserve" text-anchor="middle" x="626" y="-187.5" font-family="Helvetica,sans-Serif" font-size="10.00">AProjectileBase::ReturnToPool</text>
</a>
</g>
</g>
<!-- Node4&#45;&gt;Node5 -->
<g id="edge5_Node000004_Node000005" class="edge">
<title>Node4&#45;&gt;Node5</title>
<g id="a_edge5_Node000004_Node000005"><a xlink:title=" ">
<path fill="none" stroke="#63b8ff" d="M506.57,-191C517.16,-191 528.17,-191 539.04,-191"/>
<polygon fill="#63b8ff" stroke="#63b8ff" points="538.77,-194.5 548.77,-191 538.77,-187.5 538.77,-194.5"/>
</a>
</g>
</g>
<!-- Node6 -->
<g id="Node000006" class="node">
<title>Node6</title>
<g id="a_Node000006"><a xlink:href="class_a_projectile_base.html#a56f85c58a5c516ddd3e66fbb115eb20d" target="_top" xlink:title=" ">
<polygon fill="white" stroke="#666666" points="876.5,-207 737.5,-207 737.5,-175 876.5,-175 876.5,-207"/>
<text xml:space="preserve" text-anchor="start" x="745.5" y="-193.5" font-family="Helvetica,sans-Serif" font-size="10.00">AProjectileBase::Deactivate</text>
<text xml:space="preserve" text-anchor="middle" x="807" y="-181.5" font-family="Helvetica,sans-Serif" font-size="10.00">Projectile</text>
</a>
</g>
</g>
<!-- Node5&#45;&gt;Node6 -->
<g id="edge6_Node000005_Node000006" class="edge">
<title>Node5&#45;&gt;Node6</title>
<g id="a_edge6_Node000005_Node000006"><a xlink:title=" ">
<path fill="none" stroke="#63b8ff" d="M701.87,-191C709.73,-191 717.73,-191 725.65,-191"/>
<polygon fill="#63b8ff" stroke="#63b8ff" points="725.62,-194.5 735.62,-191 725.62,-187.5 725.62,-194.5"/>
</a>
</g>
</g>
<!-- Node7 -->
<g id="Node000007" class="node">
<title>Node7</title>
<g id="a_Node000007"><a xlink:href="class_a_projectile_base.html#a76b21edb2d7e6427f03a3be58488ef52" target="_top" xlink:title=" ">
<polygon fill="white" stroke="#666666" points="1044,-207 912.5,-207 912.5,-175 1044,-175 1044,-207"/>
<text xml:space="preserve" text-anchor="start" x="920.5" y="-193.5" font-family="Helvetica,sans-Serif" font-size="10.00">AProjectileBase::Multicast</text>
<text xml:space="preserve" text-anchor="middle" x="978.25" y="-181.5" font-family="Helvetica,sans-Serif" font-size="10.00">_Deactivate</text>
</a>
</g>
</g>
<!-- Node6&#45;&gt;Node7 -->
<g id="edge7_Node000006_Node000007" class="edge">
<title>Node6&#45;&gt;Node7</title>
<g id="a_edge7_Node000006_Node000007"><a xlink:title=" ">
<path fill="none" stroke="#63b8ff" d="M876.84,-191C884.65,-191 892.64,-191 900.55,-191"/>
<polygon fill="#63b8ff" stroke="#63b8ff" points="900.51,-194.5 910.51,-191 900.51,-187.5 900.51,-194.5"/>
</a>
</g>
</g>
<!-- Node7&#45;&gt;Node7 -->
<g id="edge8_Node000007_Node000007" class="edge">
<title>Node7&#45;&gt;Node7</title>
<g id="a_edge8_Node000007_Node000007"><a xlink:title=" ">
<path fill="none" stroke="#63b8ff" d="M947.68,-207.44C941.97,-216.58 952.16,-225 978.25,-225 992.52,-225 1002.03,-222.48 1006.79,-218.71"/>
<polygon fill="#63b8ff" stroke="#63b8ff" points="1010.22,-219.4 1008.55,-208.93 1003.33,-218.15 1010.22,-219.4"/>
</a>
</g>
</g>
<!-- Node12 -->
<g id="Node000012" class="node">
<title>Node12</title>
<g id="a_Node000012"><a xlink:href="class_a_projectile_base.html#aed98ae66bdee935c0599c6b220123111" target="_top" xlink:title=" ">
<polygon fill="white" stroke="#666666" points="514.5,-26 355.25,-26 355.25,-6 514.5,-6 514.5,-26"/>
<text xml:space="preserve" text-anchor="middle" x="434.88" y="-12.5" font-family="Helvetica,sans-Serif" font-size="10.00">AProjectileBase::SetOwningPool</text>
</a>
</g>
</g>
<!-- Node11&#45;&gt;Node12 -->
<g id="edge13_Node000011_Node000012" class="edge">
<title>Node11&#45;&gt;Node12</title>
<g id="a_edge13_Node000011_Node000012"><a xlink:title=" ">
<path fill="none" stroke="#63b8ff" d="M317.34,-16C325.78,-16 334.54,-16 343.29,-16"/>
<polygon fill="#63b8ff" stroke="#63b8ff" points="343.25,-19.5 353.25,-16 343.25,-12.5 343.25,-19.5"/>
</a>
</g>
</g>
</g>
</svg>

<g id="navigator" transform="translate(0 0)" fill="#404254">
  <rect fill="#f2f5e9" fill-opacity="0.5" stroke="#606060" stroke-width=".5" x="0" y="0" width="60" height="60"/>
  <use id="zoomplus" xlink:href="#zoomPlus" x="17" y="9" onmousedown="handleZoom(evt,'in')"/>
  <use id="zoomminus" xlink:href="#zoomMin" x="42" y="9" onmousedown="handleZoom(evt,'out')"/>
  <use id="reset" xlink:href="#resetDef" x="30" y="36" onmousedown="handleReset()"/>
   <use id="arrowup" xlink:href="#arrowUp" x="0" y="0" onmousedown="handlePan(0,-1)"/>
  <use id="arrowright" xlink:href="#arrowRight" x="0" y="0" onmousedown="handlePan(1,0)"/>
  <use id="arrowdown" xlink:href="#arrowDown" x="0" y="0" onmousedown="handlePan(0,1)"/>
  <use id="arrowleft" xlink:href="#arrowLeft" x="0" y="0" onmousedown="handlePan(-1,0)"/>
</g>
<svg viewBox="0 0 15 15" width="100%" height="30px" preserveAspectRatio="xMaxYMin meet">
 <g id="arrow_out" transform="scale(0.3 0.3)">
  <a xlink:href="class_u_straight_seq_skill_ability_a207d39125f09d62a172614e0490a0f14_cgraph_org.svg" target="_base">
   <rect id="button" ry="5" rx="5" y="6" x="6" height="38" width="38"
        fill="#f2f5e9" fill-opacity="0.5" stroke="#606060" stroke-width="1.0"/>
   <path id="arrow"
     d="M 11.500037,31.436501 C 11.940474,20.09759 22.043105,11.32322 32.158766,21.979434 L 37.068811,17.246167 C 37.068811,17.246167 37.088388,32 37.088388,32 L 22.160133,31.978069 C 22.160133,31.978069 26.997745,27.140456 26.997745,27.140456 C 18.528582,18.264221 13.291696,25.230495 11.500037,31.436501 z"
     style="fill:#404040;"/>
  </a>
 </g>
</svg>

<style type='text/css'>
<![CDATA[
[data-mouse-over-selected='false'] { opacity: 0.7; }
[data-mouse-over-selected='true']  { opacity: 1.0; }
]]>
</style>
<script type="application/ecmascript"><![CDATA[
document.addEventListener('DOMContentLoaded', (event) => {
  highlightEdges();
  highlightAdjacentNodes();
});
]]></script>
</svg>
