<?xml version="1.0" encoding="UTF-8" standalone="no"?>
<!DOCTYPE svg PUBLIC "-//W3C//DTD SVG 1.1//EN"
 "http://www.w3.org/Graphics/SVG/1.1/DTD/svg11.dtd">
<!-- Generated by graphviz version 13.1.1 (20250719.2154)
 -->
<!-- Title: UEventUI::UpdateGrayscaleFade Pages: 1 -->
<svg width="532pt" height="28pt"
 viewBox="0.00 0.00 532.00 28.00" xmlns="http://www.w3.org/2000/svg" xmlns:xlink="http://www.w3.org/1999/xlink">
<g id="graph0" class="graph" transform="scale(1 1) rotate(0) translate(4 24)">
<title>UEventUI::UpdateGrayscaleFade</title>
<!-- Node1 -->
<g id="Node000001" class="node">
<title>Node1</title>
<g id="a_Node000001"><a xlink:title=" ">
<polygon fill="#999999" stroke="#666666" points="524.25,-20 361.25,-20 361.25,0 524.25,0 524.25,-20"/>
<text xml:space="preserve" text-anchor="middle" x="442.75" y="-6.5" font-family="Helvetica,sans-Serif" font-size="10.00">UEventUI::UpdateGrayscaleFade</text>
</a>
</g>
</g>
<!-- Node2 -->
<g id="Node000002" class="node">
<title>Node2</title>
<g id="a_Node000002"><a xlink:href="class_u_event_u_i.html#a65c4055c60a8b4072d2c96441706130c" target="_top" xlink:title=" ">
<polygon fill="white" stroke="#666666" points="325.25,-20 172.75,-20 172.75,0 325.25,0 325.25,-20"/>
<text xml:space="preserve" text-anchor="middle" x="249" y="-6.5" font-family="Helvetica,sans-Serif" font-size="10.00">UEventUI::StartGrayscaleFade</text>
</a>
</g>
</g>
<!-- Node1&#45;&gt;Node2 -->
<g id="edge1_Node000001_Node000002" class="edge">
<title>Node1&#45;&gt;Node2</title>
<g id="a_edge1_Node000001_Node000002"><a xlink:title=" ">
<path fill="none" stroke="#63b8ff" d="M349.6,-10C341.52,-10 333.4,-10 325.47,-10"/>
<polygon fill="#63b8ff" stroke="#63b8ff" points="349.47,-13.5 359.47,-10 349.47,-6.5 349.47,-13.5"/>
</a>
</g>
</g>
<!-- Node3 -->
<g id="Node000003" class="node">
<title>Node3</title>
<g id="a_Node000003"><a xlink:href="class_u_event_u_i.html#a2db747ee882054417d31fc45410dc7d9" target="_top" xlink:title=" ">
<polygon fill="white" stroke="#666666" points="136.75,-20 0,-20 0,0 136.75,0 136.75,-20"/>
<text xml:space="preserve" text-anchor="middle" x="68.38" y="-6.5" font-family="Helvetica,sans-Serif" font-size="10.00">UEventUI::NativeConstruct</text>
</a>
</g>
</g>
<!-- Node2&#45;&gt;Node3 -->
<g id="edge2_Node000002_Node000003" class="edge">
<title>Node2&#45;&gt;Node3</title>
<g id="a_edge2_Node000002_Node000003"><a xlink:title=" ">
<path fill="none" stroke="#63b8ff" d="M161.18,-10C153.14,-10 145.06,-10 137.23,-10"/>
<polygon fill="#63b8ff" stroke="#63b8ff" points="160.99,-13.5 170.99,-10 160.99,-6.5 160.99,-13.5"/>
</a>
</g>
</g>
</g>
</svg>
