<?xml version="1.0" encoding="UTF-8" standalone="no"?>
<!DOCTYPE svg PUBLIC "-//W3C//DTD SVG 1.1//EN"
 "http://www.w3.org/Graphics/SVG/1.1/DTD/svg11.dtd">
<!-- Generated by graphviz version 13.1.1 (20250719.2154)
 -->
<!-- Title: UPlayerWalletComponent::OnRep_Gold Pages: 1 -->
<!--zoomable 159 -->

<svg id="main" version="1.1" xmlns="http://www.w3.org/2000/svg" xmlns:xlink="http://www.w3.org/1999/xlink" xml:space="preserve" onload="init(evt)">

<style type="text/css"><![CDATA[
.node, .edge {opacity: 0.7;}
.node.selected, .edge.selected {opacity: 1;}
.edge:hover path { stroke: red; }
.edge:hover polygon { stroke: red; fill: red; }
]]></style>

<defs>
  <circle id="rim" cx="0" cy="0" r="7"/>
  <circle id="rim2" cx="0" cy="0" r="3.5"/>
  <g id="zoomPlus">
    <use xlink:href="#rim" fill="#404040"><set attributeName="fill" to="#808080" begin="zoomplus.mouseover" end="zoomplus.mouseout"/></use>
    <path d="M-4,0h8M0,-4v8" fill="none" stroke="white" stroke-width="1.5" pointer-events="none"/>
  </g>
  <g id="zoomMin">
    <use xlink:href="#rim" fill="#404040"><set attributeName="fill" to="#808080" begin="zoomminus.mouseover" end="zoomminus.mouseout"/></use>
    <path d="M-4,0h8" fill="none" stroke="white" stroke-width="1.5" pointer-events="none"/>
  </g>
  <g id="arrowUp" transform="translate(30 24)">
    <use xlink:href="#rim"/>
    <path pointer-events="none" fill="none" stroke="white" stroke-width="1.5" d="M0,-3.0v7 M-2.5,-0.5L0,-3.0L2.5,-0.5"/>
  </g>
  <g id="arrowRight" transform="rotate(90) translate(36 -43)">
    <use xlink:href="#rim"/>
    <path pointer-events="none" fill="none" stroke="white" stroke-width="1.5" d="M0,-3.0v7 M-2.5,-0.5L0,-3.0L2.5,-0.5"/>
  </g>
  <g id="arrowDown" transform="rotate(180) translate(-30 -48)">
    <use xlink:href="#rim"/>
    <path pointer-events="none" fill="none" stroke="white" stroke-width="1.5" d="M0,-3.0v7 M-2.5,-0.5L0,-3.0L2.5,-0.5"/>
  </g>
  <g id="arrowLeft" transform="rotate(270) translate(-36 17)">
    <use xlink:href="#rim"/>
    <path pointer-events="none" fill="none" stroke="white" stroke-width="1.5" d="M0,-3.0v7 M-2.5,-0.5L0,-3.0L2.5,-0.5"/>
  </g>
  <g id="resetDef">
    <use xlink:href="#rim2" fill="#404040"><set attributeName="fill" to="#808080" begin="reset.mouseover" end="reset.mouseout"/></use>
  </g>
</defs>
<script type="application/ecmascript">
var viewWidth = 2044;
var viewHeight = 159;
var sectionId = 'dynsection-11';
</script>
<script type="application/ecmascript" xlink:href="svg.min.js"/>
<svg id="graph" class="graph">
<g id="viewport">
<title>UPlayerWalletComponent::OnRep_Gold</title>
<!-- Node1 -->
<g id="Node000001" class="node">
<title>Node1</title>
<g id="a_Node000001"><a xlink:title=" ">
<polygon fill="#999999" stroke="#666666" points="2036,-104 1907.5,-104 1907.5,-72 2036,-72 2036,-104"/>
<text xml:space="preserve" text-anchor="start" x="1915.5" y="-90.5" font-family="Helvetica,sans-Serif" font-size="10.00">UPlayerWalletComponent</text>
<text xml:space="preserve" text-anchor="middle" x="1971.75" y="-78.5" font-family="Helvetica,sans-Serif" font-size="10.00">::OnRep_Gold</text>
</a>
</g>
</g>
<!-- Node2 -->
<g id="Node000002" class="node">
<title>Node2</title>
<g id="a_Node000002"><a xlink:href="class_u_player_wallet_component.html#a7cab4a8e3b21d6b74891e61dd0dbf95c" target="_top" xlink:title=" ">
<polygon fill="white" stroke="#666666" points="1871.5,-129 1743,-129 1743,-97 1871.5,-97 1871.5,-129"/>
<text xml:space="preserve" text-anchor="start" x="1751" y="-115.5" font-family="Helvetica,sans-Serif" font-size="10.00">UPlayerWalletComponent</text>
<text xml:space="preserve" text-anchor="middle" x="1807.25" y="-103.5" font-family="Helvetica,sans-Serif" font-size="10.00">::AddGold</text>
</a>
</g>
</g>
<!-- Node1&#45;&gt;Node2 -->
<g id="edge1_Node000001_Node000002" class="edge">
<title>Node1&#45;&gt;Node2</title>
<g id="a_edge1_Node000001_Node000002"><a xlink:title=" ">
<path fill="none" stroke="#63b8ff" d="M1896.11,-99.48C1888.02,-100.73 1879.85,-101.99 1871.9,-103.21"/>
<polygon fill="#63b8ff" stroke="#63b8ff" points="1896.61,-102.95 1905.96,-97.97 1895.55,-96.03 1896.61,-102.95"/>
</a>
</g>
</g>
<!-- Node13 -->
<g id="Node000013" class="node">
<title>Node13</title>
<g id="a_Node000013"><a xlink:href="class_u_player_wallet_component.html#aba92f9e5375ec0f2dfa312175ab6ee61" target="_top" xlink:title=" ">
<polygon fill="white" stroke="#666666" points="1871.5,-79 1743,-79 1743,-47 1871.5,-47 1871.5,-79"/>
<text xml:space="preserve" text-anchor="start" x="1751" y="-65.5" font-family="Helvetica,sans-Serif" font-size="10.00">UPlayerWalletComponent</text>
<text xml:space="preserve" text-anchor="middle" x="1807.25" y="-53.5" font-family="Helvetica,sans-Serif" font-size="10.00">::SpendGold</text>
</a>
</g>
</g>
<!-- Node1&#45;&gt;Node13 -->
<g id="edge16_Node000001_Node000013" class="edge">
<title>Node1&#45;&gt;Node13</title>
<g id="a_edge16_Node000001_Node000013"><a xlink:title=" ">
<path fill="none" stroke="#63b8ff" d="M1896.11,-76.52C1888.02,-75.27 1879.85,-74.01 1871.9,-72.79"/>
<polygon fill="#63b8ff" stroke="#63b8ff" points="1895.55,-79.97 1905.96,-78.03 1896.61,-73.05 1895.55,-79.97"/>
</a>
</g>
</g>
<!-- Node3 -->
<g id="Node000003" class="node">
<title>Node3</title>
<g id="a_Node000003"><a xlink:href="class_a_k_p_t_in_game_mode.html#a6855178c3536314307a454f02abe0c82" target="_top" xlink:title=" ">
<polygon fill="white" stroke="#666666" points="1707,-123 1530.5,-123 1530.5,-103 1707,-103 1707,-123"/>
<text xml:space="preserve" text-anchor="middle" x="1618.75" y="-109.5" font-family="Helvetica,sans-Serif" font-size="10.00">AKPTInGameMode::ShareTeamGold</text>
</a>
</g>
</g>
<!-- Node2&#45;&gt;Node3 -->
<g id="edge2_Node000002_Node000003" class="edge">
<title>Node2&#45;&gt;Node3</title>
<g id="a_edge2_Node000002_Node000003"><a xlink:title=" ">
<path fill="none" stroke="#63b8ff" d="M1731.19,-113C1723.3,-113 1715.22,-113 1707.21,-113"/>
<polygon fill="#63b8ff" stroke="#63b8ff" points="1731.08,-116.5 1741.08,-113 1731.08,-109.5 1731.08,-116.5"/>
</a>
</g>
</g>
<!-- Node4 -->
<g id="Node000004" class="node">
<title>Node4</title>
<g id="a_Node000004"><a xlink:href="class_a_k_p_t_in_game_mode.html#a0e1dec85eeba3835d463238c88f8904b" target="_top" xlink:title="야간 페이즈를 종료하고, 게임 종료 조건을 확인하거나 새 라운드를 시작합니다.">
<polygon fill="white" stroke="#666666" points="1494.5,-129 1347.25,-129 1347.25,-97 1494.5,-97 1494.5,-129"/>
<text xml:space="preserve" text-anchor="start" x="1355.25" y="-115.5" font-family="Helvetica,sans-Serif" font-size="10.00">AKPTInGameMode::EndNight</text>
<text xml:space="preserve" text-anchor="middle" x="1420.88" y="-103.5" font-family="Helvetica,sans-Serif" font-size="10.00">Phase</text>
</a>
</g>
</g>
<!-- Node3&#45;&gt;Node4 -->
<g id="edge3_Node000003_Node000004" class="edge">
<title>Node3&#45;&gt;Node4</title>
<g id="a_edge3_Node000003_Node000004"><a xlink:title=" ">
<path fill="none" stroke="#63b8ff" d="M1518.73,-113C1510.66,-113 1502.6,-113 1494.77,-113"/>
<polygon fill="#63b8ff" stroke="#63b8ff" points="1518.61,-116.5 1528.61,-113 1518.61,-109.5 1518.61,-116.5"/>
</a>
</g>
</g>
<!-- Node5 -->
<g id="Node000005" class="node">
<title>Node5</title>
<g id="a_Node000005"><a xlink:href="class_a_k_p_t_in_game_mode.html#acd0b193dd9ce700d2a4cb3953565584c" target="_top" xlink:title="야간 페이즈의 핵심 로직을 실행합니다.">
<polygon fill="white" stroke="#666666" points="1311.25,-151 1160.25,-151 1160.25,-119 1311.25,-119 1311.25,-151"/>
<text xml:space="preserve" text-anchor="start" x="1168.25" y="-137.5" font-family="Helvetica,sans-Serif" font-size="10.00">AKPTInGameMode::StartNight</text>
<text xml:space="preserve" text-anchor="middle" x="1235.75" y="-125.5" font-family="Helvetica,sans-Serif" font-size="10.00">Phase</text>
</a>
</g>
</g>
<!-- Node4&#45;&gt;Node5 -->
<g id="edge4_Node000004_Node000005" class="edge">
<title>Node4&#45;&gt;Node5</title>
<g id="a_edge4_Node000004_Node000005"><a xlink:title=" ">
<path fill="none" stroke="#63b8ff" d="M1335.66,-123.12C1327.6,-124.09 1319.46,-125.06 1311.5,-126.02"/>
<polygon fill="#63b8ff" stroke="#63b8ff" points="1335.96,-126.61 1345.47,-121.94 1335.12,-119.66 1335.96,-126.61"/>
</a>
</g>
</g>
<!-- Node6 -->
<g id="Node000006" class="node">
<title>Node6</title>
<g id="a_Node000006"><a xlink:href="class_a_k_p_t_in_game_mode.html#a84edc1df98161132b7b803669c9299a0" target="_top" xlink:title="야간 페이즈를 시작하기 위한 준비 및 전환을 시작합니다.">
<polygon fill="white" stroke="#666666" points="1124.25,-151 969.5,-151 969.5,-119 1124.25,-119 1124.25,-151"/>
<text xml:space="preserve" text-anchor="start" x="977.5" y="-137.5" font-family="Helvetica,sans-Serif" font-size="10.00">AKPTInGameMode::BeginNight</text>
<text xml:space="preserve" text-anchor="middle" x="1046.88" y="-125.5" font-family="Helvetica,sans-Serif" font-size="10.00">PhaseLogic</text>
</a>
</g>
</g>
<!-- Node5&#45;&gt;Node6 -->
<g id="edge5_Node000005_Node000006" class="edge">
<title>Node5&#45;&gt;Node6</title>
<g id="a_edge5_Node000005_Node000006"><a xlink:title=" ">
<path fill="none" stroke="#63b8ff" d="M1148.32,-135C1140.42,-135 1132.46,-135 1124.66,-135"/>
<polygon fill="#63b8ff" stroke="#63b8ff" points="1148.3,-138.5 1158.3,-135 1148.3,-131.5 1148.3,-138.5"/>
</a>
</g>
</g>
<!-- Node7 -->
<g id="Node000007" class="node">
<title>Node7</title>
<g id="a_Node000007"><a xlink:href="class_a_k_p_t_in_game_mode.html#a410acd626df9144d7ebb63b535dbc37b" target="_top" xlink:title=" ">
<polygon fill="white" stroke="#666666" points="933.5,-151 784.75,-151 784.75,-119 933.5,-119 933.5,-151"/>
<text xml:space="preserve" text-anchor="start" x="792.75" y="-137.5" font-family="Helvetica,sans-Serif" font-size="10.00">AKPTInGameMode::Complete</text>
<text xml:space="preserve" text-anchor="middle" x="859.12" y="-125.5" font-family="Helvetica,sans-Serif" font-size="10.00">PhaseTransition</text>
</a>
</g>
</g>
<!-- Node6&#45;&gt;Node7 -->
<g id="edge6_Node000006_Node000007" class="edge">
<title>Node6&#45;&gt;Node7</title>
<g id="a_edge6_Node000006_Node000007"><a xlink:title=" ">
<path fill="none" stroke="#63b8ff" d="M957.93,-135C949.88,-135 941.79,-135 933.88,-135"/>
<polygon fill="#63b8ff" stroke="#63b8ff" points="957.74,-138.5 967.74,-135 957.74,-131.5 957.74,-138.5"/>
</a>
</g>
</g>
<!-- Node8 -->
<g id="Node000008" class="node">
<title>Node8</title>
<g id="a_Node000008"><a xlink:href="class_a_k_p_t_in_game_mode.html#a1c856c37dce7343a381723b5d842ecf7" target="_top" xlink:title="모든 플레이어가 사망했는지 확인합니다.">
<polygon fill="white" stroke="#666666" points="748.75,-123 559.5,-123 559.5,-103 748.75,-103 748.75,-123"/>
<text xml:space="preserve" text-anchor="middle" x="654.12" y="-109.5" font-family="Helvetica,sans-Serif" font-size="10.00">AKPTInGameMode::AreAllPlayersDead</text>
</a>
</g>
</g>
<!-- Node7&#45;&gt;Node8 -->
<g id="edge7_Node000007_Node000008" class="edge">
<title>Node7&#45;&gt;Node8</title>
<g id="a_edge7_Node000007_Node000008"><a xlink:title=" ">
<path fill="none" stroke="#63b8ff" d="M772.85,-125.76C764.98,-124.91 756.98,-124.04 749.04,-123.18"/>
<polygon fill="#63b8ff" stroke="#63b8ff" points="772.44,-129.23 782.76,-126.83 773.19,-122.28 772.44,-129.23"/>
</a>
</g>
</g>
<!-- Node8&#45;&gt;Node4 -->
<g id="edge9_Node000008_Node000004" class="edge">
<title>Node8&#45;&gt;Node4</title>
<g id="a_edge9_Node000008_Node000004"><a xlink:title=" ">
<path fill="none" stroke="#63b8ff" d="M760.24,-110.36C768.54,-110.22 776.78,-110.09 784.75,-110 1018.73,-107.29 1077.27,-106.77 1311.25,-110 1322.76,-110.16 1334.95,-110.41 1346.84,-110.71"/>
<polygon fill="#63b8ff" stroke="#63b8ff" points="760.38,-106.86 750.44,-110.54 760.51,-113.86 760.38,-106.86"/>
</a>
</g>
</g>
<!-- Node8&#45;&gt;Node8 -->
<g id="edge8_Node000008_Node000008" class="edge">
<title>Node8&#45;&gt;Node8</title>
<g id="a_edge8_Node000008_Node000008"><a xlink:title=" ">
<path fill="none" stroke="#63b8ff" d="M690.74,-134.11C686.37,-138.14 674.17,-141 654.12,-141 618.49,-141 607.63,-131.98 621.55,-123.34"/>
<polygon fill="#63b8ff" stroke="#63b8ff" points="694.02,-132.89 687.23,-124.76 687.47,-135.35 694.02,-132.89"/>
</a>
</g>
</g>
<!-- Node9 -->
<g id="Node000009" class="node">
<title>Node9</title>
<g id="a_Node000009"><a xlink:href="class_a_k_p_t_in_game_mode.html#a3a63b6ea26b3ef6a916ca7b5fed4813f" target="_top" xlink:title="플레이어가 사망했을 때 호출됩니다.">
<polygon fill="white" stroke="#666666" points="523.5,-123 356,-123 356,-103 523.5,-103 523.5,-123"/>
<text xml:space="preserve" text-anchor="middle" x="439.75" y="-109.5" font-family="Helvetica,sans-Serif" font-size="10.00">AKPTInGameMode::OnPlayerDied</text>
</a>
</g>
</g>
<!-- Node8&#45;&gt;Node9 -->
<g id="edge10_Node000008_Node000009" class="edge">
<title>Node8&#45;&gt;Node9</title>
<g id="a_edge10_Node000008_Node000009"><a xlink:title=" ">
<path fill="none" stroke="#63b8ff" d="M547.7,-113C539.66,-113 531.62,-113 523.75,-113"/>
<polygon fill="#63b8ff" stroke="#63b8ff" points="547.53,-116.5 557.53,-113 547.53,-109.5 547.53,-116.5"/>
</a>
</g>
</g>
<!-- Node10 -->
<g id="Node000010" class="node">
<title>Node10</title>
<g id="a_Node000010"><a xlink:href="class_a_player_character.html#aa38c751d8495a3e3d999eafad23d7a88" target="_top" xlink:title=" ">
<polygon fill="white" stroke="#666666" points="301.62,-142 187.38,-142 187.38,-122 301.62,-122 301.62,-142"/>
<text xml:space="preserve" text-anchor="middle" x="244.5" y="-128.5" font-family="Helvetica,sans-Serif" font-size="10.00">APlayerCharacter::Die</text>
</a>
</g>
</g>
<!-- Node9&#45;&gt;Node10 -->
<g id="edge11_Node000009_Node000010" class="edge">
<title>Node9&#45;&gt;Node10</title>
<g id="a_edge11_Node000009_Node000010"><a xlink:title=" ">
<path fill="none" stroke="#63b8ff" d="M344.58,-122.26C330.03,-123.69 315.4,-125.13 302.02,-126.44"/>
<polygon fill="#63b8ff" stroke="#63b8ff" points="344.56,-125.78 354.17,-121.32 343.87,-118.81 344.56,-125.78"/>
</a>
</g>
</g>
<!-- Node11 -->
<g id="Node000011" class="node">
<title>Node11</title>
<g id="a_Node000011"><a xlink:href="class_a_character_base.html#af4c20a0d4ddeb41b0eb305b807bcfc9d" target="_top" xlink:title=" ">
<polygon fill="white" stroke="#666666" points="320,-104 169,-104 169,-84 320,-84 320,-104"/>
<text xml:space="preserve" text-anchor="middle" x="244.5" y="-90.5" font-family="Helvetica,sans-Serif" font-size="10.00">ACharacterBase::HandleDeath</text>
</a>
</g>
</g>
<!-- Node9&#45;&gt;Node11 -->
<g id="edge12_Node000009_Node000011" class="edge">
<title>Node9&#45;&gt;Node11</title>
<g id="a_edge12_Node000009_Node000011"><a xlink:title=" ">
<path fill="none" stroke="#63b8ff" d="M344.31,-103.71C336.24,-102.92 328.16,-102.13 320.28,-101.35"/>
<polygon fill="#63b8ff" stroke="#63b8ff" points="343.87,-107.19 354.17,-104.68 344.56,-100.22 343.87,-107.19"/>
</a>
</g>
</g>
<!-- Node12 -->
<g id="Node000012" class="node">
<title>Node12</title>
<g id="a_Node000012"><a xlink:href="class_a_character_base.html#af3460531018611a7b3b2c59779c65ead" target="_top" xlink:title=" ">
<polygon fill="white" stroke="#666666" points="133,-104 0,-104 0,-84 133,-84 133,-104"/>
<text xml:space="preserve" text-anchor="middle" x="66.5" y="-90.5" font-family="Helvetica,sans-Serif" font-size="10.00">ACharacterBase::OnDeath</text>
</a>
</g>
</g>
<!-- Node11&#45;&gt;Node12 -->
<g id="edge13_Node000011_Node000012" class="edge">
<title>Node11&#45;&gt;Node12</title>
<g id="a_edge13_Node000011_Node000012"><a xlink:title=" ">
<path fill="none" stroke="#63b8ff" d="M157.3,-87.25C149.27,-87.24 141.22,-87.3 133.42,-87.44"/>
<polygon fill="#63b8ff" stroke="#63b8ff" points="157.07,-90.75 167.09,-87.31 157.11,-83.75 157.07,-90.75"/>
</a>
</g>
</g>
<!-- Node12&#45;&gt;Node11 -->
<g id="edge14_Node000012_Node000011" class="edge">
<title>Node12&#45;&gt;Node11</title>
<g id="a_edge14_Node000012_Node000011"><a xlink:title=" ">
<path fill="none" stroke="#63b8ff" d="M144.86,-100.71C152.75,-100.77 160.75,-100.76 168.6,-100.68"/>
<polygon fill="#63b8ff" stroke="#63b8ff" points="144.98,-97.21 134.94,-100.58 144.89,-104.21 144.98,-97.21"/>
</a>
</g>
</g>
<!-- Node12&#45;&gt;Node12 -->
<g id="edge15_Node000012_Node000012" class="edge">
<title>Node12&#45;&gt;Node12</title>
<g id="a_edge15_Node000012_Node000012"><a xlink:title=" ">
<path fill="none" stroke="#63b8ff" d="M98.29,-115.11C94.5,-119.14 83.9,-122 66.5,-122 35.56,-122 26.13,-112.98 38.22,-104.34"/>
<polygon fill="#63b8ff" stroke="#63b8ff" points="101.68,-114.2 95.25,-105.78 95.02,-116.37 101.68,-114.2"/>
</a>
</g>
</g>
<!-- Node14 -->
<g id="Node000014" class="node">
<title>Node14</title>
<g id="a_Node000014"><a xlink:href="class_u_shop_manager_subsystem.html#aab60cace693da061856579c41401dd4a" target="_top" xlink:title=" ">
<polygon fill="white" stroke="#666666" points="1686.75,-82 1550.75,-82 1550.75,-50 1686.75,-50 1686.75,-82"/>
<text xml:space="preserve" text-anchor="start" x="1558.75" y="-68.5" font-family="Helvetica,sans-Serif" font-size="10.00">UShopManagerSubsystem</text>
<text xml:space="preserve" text-anchor="middle" x="1618.75" y="-56.5" font-family="Helvetica,sans-Serif" font-size="10.00">::ProcessPurchaseRequest</text>
</a>
</g>
</g>
<!-- Node13&#45;&gt;Node14 -->
<g id="edge17_Node000013_Node000014" class="edge">
<title>Node13&#45;&gt;Node14</title>
<g id="a_edge17_Node000013_Node000014"><a xlink:title=" ">
<path fill="none" stroke="#63b8ff" d="M1731.48,-64.2C1716.76,-64.44 1701.4,-64.69 1686.94,-64.92"/>
<polygon fill="#63b8ff" stroke="#63b8ff" points="1731.13,-67.71 1741.08,-64.05 1731.02,-60.71 1731.13,-67.71"/>
</a>
</g>
</g>
<!-- Node15 -->
<g id="Node000015" class="node">
<title>Node15</title>
<g id="a_Node000015"><a xlink:href="class_u_shop_manager_subsystem.html#abf50df538a16d17ff421caa8ba5417ae" target="_top" xlink:title=" ">
<polygon fill="white" stroke="#666666" points="1685.25,-32 1552.25,-32 1552.25,0 1685.25,0 1685.25,-32"/>
<text xml:space="preserve" text-anchor="start" x="1560.25" y="-18.5" font-family="Helvetica,sans-Serif" font-size="10.00">UShopManagerSubsystem</text>
<text xml:space="preserve" text-anchor="middle" x="1618.75" y="-6.5" font-family="Helvetica,sans-Serif" font-size="10.00">::ProcessRerollRequest</text>
</a>
</g>
</g>
<!-- Node13&#45;&gt;Node15 -->
<g id="edge18_Node000013_Node000015" class="edge">
<title>Node13&#45;&gt;Node15</title>
<g id="a_edge18_Node000013_Node000015"><a xlink:title=" ">
<path fill="none" stroke="#63b8ff" d="M1731.53,-44.17C1716.14,-40.29 1700.05,-36.24 1685.03,-32.45"/>
<polygon fill="#63b8ff" stroke="#63b8ff" points="1730.57,-47.54 1741.12,-46.59 1732.28,-40.75 1730.57,-47.54"/>
</a>
</g>
</g>
</g>
</svg>

<g id="navigator" transform="translate(0 0)" fill="#404254">
  <rect fill="#f2f5e9" fill-opacity="0.5" stroke="#606060" stroke-width=".5" x="0" y="0" width="60" height="60"/>
  <use id="zoomplus" xlink:href="#zoomPlus" x="17" y="9" onmousedown="handleZoom(evt,'in')"/>
  <use id="zoomminus" xlink:href="#zoomMin" x="42" y="9" onmousedown="handleZoom(evt,'out')"/>
  <use id="reset" xlink:href="#resetDef" x="30" y="36" onmousedown="handleReset()"/>
   <use id="arrowup" xlink:href="#arrowUp" x="0" y="0" onmousedown="handlePan(0,-1)"/>
  <use id="arrowright" xlink:href="#arrowRight" x="0" y="0" onmousedown="handlePan(1,0)"/>
  <use id="arrowdown" xlink:href="#arrowDown" x="0" y="0" onmousedown="handlePan(0,1)"/>
  <use id="arrowleft" xlink:href="#arrowLeft" x="0" y="0" onmousedown="handlePan(-1,0)"/>
</g>
<svg viewBox="0 0 15 15" width="100%" height="30px" preserveAspectRatio="xMaxYMin meet">
 <g id="arrow_out" transform="scale(0.3 0.3)">
  <a xlink:href="class_u_player_wallet_component_ab679569285e7f915b08ffb945b2e2c3a_icgraph_org.svg" target="_base">
   <rect id="button" ry="5" rx="5" y="6" x="6" height="38" width="38"
        fill="#f2f5e9" fill-opacity="0.5" stroke="#606060" stroke-width="1.0"/>
   <path id="arrow"
     d="M 11.500037,31.436501 C 11.940474,20.09759 22.043105,11.32322 32.158766,21.979434 L 37.068811,17.246167 C 37.068811,17.246167 37.088388,32 37.088388,32 L 22.160133,31.978069 C 22.160133,31.978069 26.997745,27.140456 26.997745,27.140456 C 18.528582,18.264221 13.291696,25.230495 11.500037,31.436501 z"
     style="fill:#404040;"/>
  </a>
 </g>
</svg>

<style type='text/css'>
<![CDATA[
[data-mouse-over-selected='false'] { opacity: 0.7; }
[data-mouse-over-selected='true']  { opacity: 1.0; }
]]>
</style>
<script type="application/ecmascript"><![CDATA[
document.addEventListener('DOMContentLoaded', (event) => {
  highlightEdges();
  highlightAdjacentNodes();
});
]]></script>
</svg>
