<?xml version="1.0" encoding="UTF-8" standalone="no"?>
<!DOCTYPE svg PUBLIC "-//W3C//DTD SVG 1.1//EN"
 "http://www.w3.org/Graphics/SVG/1.1/DTD/svg11.dtd">
<!-- Generated by graphviz version 13.1.1 (20250719.2154)
 -->
<!-- Title: UAnimNotifyState_MotionTrail::SpawnTrailActorAtLocation Pages: 1 -->
<svg width="429pt" height="58pt"
 viewBox="0.00 0.00 429.00 58.00" xmlns="http://www.w3.org/2000/svg" xmlns:xlink="http://www.w3.org/1999/xlink">
<g id="graph0" class="graph" transform="scale(1 1) rotate(0) translate(4 54)">
<title>UAnimNotifyState_MotionTrail::SpawnTrailActorAtLocation</title>
<!-- Node1 -->
<g id="Node000001" class="node">
<title>Node1</title>
<g id="a_Node000001"><a xlink:title=" ">
<polygon fill="#999999" stroke="#666666" points="148.75,-32 0,-32 0,0 148.75,0 148.75,-32"/>
<text xml:space="preserve" text-anchor="start" x="8" y="-18.5" font-family="Helvetica,sans-Serif" font-size="10.00">UAnimNotifyState_MotionTrail</text>
<text xml:space="preserve" text-anchor="middle" x="74.38" y="-6.5" font-family="Helvetica,sans-Serif" font-size="10.00">::SpawnTrailActorAtLocation</text>
</a>
</g>
</g>
<!-- Node2 -->
<g id="Node000002" class="node">
<title>Node2</title>
<g id="a_Node000002"><a xlink:href="class_a_motion_trail_actor.html#add2e53c2e4bcf588d4cd824fb0c9e4c4" target="_top" xlink:title=" ">
<polygon fill="white" stroke="#666666" points="284.75,-32 184.75,-32 184.75,0 284.75,0 284.75,-32"/>
<text xml:space="preserve" text-anchor="start" x="192.75" y="-18.5" font-family="Helvetica,sans-Serif" font-size="10.00">AMotionTrailActor::</text>
<text xml:space="preserve" text-anchor="middle" x="234.75" y="-6.5" font-family="Helvetica,sans-Serif" font-size="10.00">SetTrailLifeSpan</text>
</a>
</g>
</g>
<!-- Node1&#45;&gt;Node2 -->
<g id="edge1_Node000001_Node000002" class="edge">
<title>Node1&#45;&gt;Node2</title>
<g id="a_edge1_Node000001_Node000002"><a xlink:title=" ">
<path fill="none" stroke="#63b8ff" d="M149,-16C157.03,-16 165.14,-16 172.99,-16"/>
<polygon fill="#63b8ff" stroke="#63b8ff" points="172.76,-19.5 182.76,-16 172.76,-12.5 172.76,-19.5"/>
</a>
</g>
</g>
<!-- Node2&#45;&gt;Node2 -->
<g id="edge3_Node000002_Node000002" class="edge">
<title>Node2&#45;&gt;Node2</title>
<g id="a_edge3_Node000002_Node000002"><a xlink:title=" ">
<path fill="none" stroke="#63b8ff" d="M210.47,-32.44C205.94,-41.58 214.03,-50 234.75,-50 246.08,-50 253.64,-47.48 257.41,-43.71"/>
<polygon fill="#63b8ff" stroke="#63b8ff" points="260.86,-44.34 258.81,-33.94 253.93,-43.34 260.86,-44.34"/>
</a>
</g>
</g>
<!-- Node3 -->
<g id="Node000003" class="node">
<title>Node3</title>
<g id="a_Node000003"><a xlink:href="class_a_motion_trail_actor.html#a613f3db2c8ef77cfdb7105937cd1a422" target="_top" xlink:title=" ">
<polygon fill="white" stroke="#666666" points="420.75,-32 320.75,-32 320.75,0 420.75,0 420.75,-32"/>
<text xml:space="preserve" text-anchor="start" x="328.75" y="-18.5" font-family="Helvetica,sans-Serif" font-size="10.00">AMotionTrailActor::</text>
<text xml:space="preserve" text-anchor="middle" x="370.75" y="-6.5" font-family="Helvetica,sans-Serif" font-size="10.00">BeginPlay</text>
</a>
</g>
</g>
<!-- Node2&#45;&gt;Node3 -->
<g id="edge2_Node000002_Node000003" class="edge">
<title>Node2&#45;&gt;Node3</title>
<g id="a_edge2_Node000002_Node000003"><a xlink:title=" ">
<path fill="none" stroke="#63b8ff" d="M284.89,-16C292.81,-16 301.08,-16 309.23,-16"/>
<polygon fill="#63b8ff" stroke="#63b8ff" points="309.11,-19.5 319.11,-16 309.11,-12.5 309.11,-19.5"/>
</a>
</g>
</g>
</g>
</svg>
