<?xml version="1.0" encoding="UTF-8" standalone="no"?>
<!DOCTYPE svg PUBLIC "-//W3C//DTD SVG 1.1//EN"
 "http://www.w3.org/Graphics/SVG/1.1/DTD/svg11.dtd">
<!-- Generated by graphviz version 13.1.1 (20250719.2154)
 -->
<!-- Title: AKPTLobbyDisplayPawn::BeginPlay Pages: 1 -->
<svg width="629pt" height="62pt"
 viewBox="0.00 0.00 629.00 62.00" xmlns="http://www.w3.org/2000/svg" xmlns:xlink="http://www.w3.org/1999/xlink">
<g id="graph0" class="graph" transform="scale(1 1) rotate(0) translate(4 58)">
<title>AKPTLobbyDisplayPawn::BeginPlay</title>
<!-- Node1 -->
<g id="Node000001" class="node">
<title>Node1</title>
<g id="a_Node000001"><a xlink:title=" ">
<polygon fill="#999999" stroke="#666666" points="126.25,-32 0,-32 0,0 126.25,0 126.25,-32"/>
<text xml:space="preserve" text-anchor="start" x="8" y="-18.5" font-family="Helvetica,sans-Serif" font-size="10.00">AKPTLobbyDisplayPawn</text>
<text xml:space="preserve" text-anchor="middle" x="63.12" y="-6.5" font-family="Helvetica,sans-Serif" font-size="10.00">::BeginPlay</text>
</a>
</g>
</g>
<!-- Node2 -->
<g id="Node000002" class="node">
<title>Node2</title>
<g id="a_Node000002"><a xlink:href="class_a_k_p_t_lobby_display_pawn.html#a4aa3e5cab874b72a1ea1b4b0ba8a82f0" target="_top" xlink:title=" ">
<polygon fill="white" stroke="#666666" points="296.75,-54 162.25,-54 162.25,-22 296.75,-22 296.75,-54"/>
<text xml:space="preserve" text-anchor="start" x="170.25" y="-40.5" font-family="Helvetica,sans-Serif" font-size="10.00">AKPTLobbyDisplayPawn</text>
<text xml:space="preserve" text-anchor="middle" x="229.5" y="-28.5" font-family="Helvetica,sans-Serif" font-size="10.00">::AttemptInitialStateUpdate</text>
</a>
</g>
</g>
<!-- Node1&#45;&gt;Node2 -->
<g id="edge1_Node000001_Node000002" class="edge">
<title>Node1&#45;&gt;Node2</title>
<g id="a_edge1_Node000001_Node000002"><a xlink:title=" ">
<path fill="none" stroke="#63b8ff" d="M126.74,-24.38C134.57,-25.43 142.65,-26.51 150.68,-27.58"/>
<polygon fill="#63b8ff" stroke="#63b8ff" points="150.08,-31.04 160.46,-28.89 151.01,-24.1 150.08,-31.04"/>
</a>
</g>
</g>
<!-- Node3 -->
<g id="Node000003" class="node">
<title>Node3</title>
<g id="a_Node000003"><a xlink:href="class_a_k_p_t_lobby_display_pawn.html#a99b017ba0c3fea7929d9cc297577a5c0" target="_top" xlink:title=" ">
<polygon fill="white" stroke="#666666" points="459,-32 332.75,-32 332.75,0 459,0 459,-32"/>
<text xml:space="preserve" text-anchor="start" x="340.75" y="-18.5" font-family="Helvetica,sans-Serif" font-size="10.00">AKPTLobbyDisplayPawn</text>
<text xml:space="preserve" text-anchor="middle" x="395.88" y="-6.5" font-family="Helvetica,sans-Serif" font-size="10.00">::OnLobbyStateUpdated</text>
</a>
</g>
</g>
<!-- Node1&#45;&gt;Node3 -->
<g id="edge5_Node000001_Node000003" class="edge">
<title>Node1&#45;&gt;Node3</title>
<g id="a_edge5_Node000001_Node000003"><a xlink:title=" ">
<path fill="none" stroke="#63b8ff" d="M126.67,-13.8C138.49,-13.47 150.75,-13.18 162.25,-13 222.02,-12.09 236.98,-12.09 296.75,-13 304.57,-13.12 312.74,-13.29 320.88,-13.5"/>
<polygon fill="#63b8ff" stroke="#63b8ff" points="320.73,-16.99 330.82,-13.76 320.91,-10 320.73,-16.99"/>
</a>
</g>
</g>
<!-- Node2&#45;&gt;Node3 -->
<g id="edge2_Node000002_Node000003" class="edge">
<title>Node2&#45;&gt;Node3</title>
<g id="a_edge2_Node000002_Node000003"><a xlink:title=" ">
<path fill="none" stroke="#63b8ff" d="M296.88,-29.12C304.88,-28.05 313.08,-26.95 321.17,-25.86"/>
<polygon fill="#63b8ff" stroke="#63b8ff" points="321.55,-29.34 331,-24.55 320.63,-22.41 321.55,-29.34"/>
</a>
</g>
</g>
<!-- Node4 -->
<g id="Node000004" class="node">
<title>Node4</title>
<g id="a_Node000004"><a xlink:href="class_a_k_p_t_lobby_display_pawn.html#aaa058e9fa56e4945087903743b1b792f" target="_top" xlink:title=" ">
<polygon fill="white" stroke="#666666" points="621.25,-32 495,-32 495,0 621.25,0 621.25,-32"/>
<text xml:space="preserve" text-anchor="start" x="503" y="-18.5" font-family="Helvetica,sans-Serif" font-size="10.00">AKPTLobbyDisplayPawn</text>
<text xml:space="preserve" text-anchor="middle" x="558.12" y="-6.5" font-family="Helvetica,sans-Serif" font-size="10.00">::UpdateDisplay</text>
</a>
</g>
</g>
<!-- Node3&#45;&gt;Node4 -->
<g id="edge3_Node000003_Node000004" class="edge">
<title>Node3&#45;&gt;Node4</title>
<g id="a_edge3_Node000003_Node000004"><a xlink:title=" ">
<path fill="none" stroke="#63b8ff" d="M459.29,-16C467.18,-16 475.3,-16 483.34,-16"/>
<polygon fill="#63b8ff" stroke="#63b8ff" points="483.1,-19.5 493.1,-16 483.1,-12.5 483.1,-19.5"/>
</a>
</g>
</g>
<!-- Node4&#45;&gt;Node4 -->
<g id="edge4_Node000004_Node000004" class="edge">
<title>Node4&#45;&gt;Node4</title>
<g id="a_edge4_Node000004_Node000004"><a xlink:title=" ">
<path fill="none" stroke="#63b8ff" d="M529.16,-32.44C523.75,-41.58 533.41,-50 558.12,-50 571.64,-50 580.66,-47.48 585.16,-43.71"/>
<polygon fill="#63b8ff" stroke="#63b8ff" points="588.6,-44.38 586.84,-33.93 581.7,-43.2 588.6,-44.38"/>
</a>
</g>
</g>
</g>
</svg>
