<?xml version="1.0" encoding="UTF-8" standalone="no"?>
<!DOCTYPE svg PUBLIC "-//W3C//DTD SVG 1.1//EN"
 "http://www.w3.org/Graphics/SVG/1.1/DTD/svg11.dtd">
<!-- Generated by graphviz version 13.1.1 (20250719.2154)
 -->
<!-- Title: AKPTPlayerState::GetWalletComponent Pages: 1 -->
<svg width="322pt" height="90pt"
 viewBox="0.00 0.00 322.00 90.00" xmlns="http://www.w3.org/2000/svg" xmlns:xlink="http://www.w3.org/1999/xlink">
<g id="graph0" class="graph" transform="scale(1 1) rotate(0) translate(4 86)">
<title>AKPTPlayerState::GetWalletComponent</title>
<!-- Node1 -->
<g id="Node000001" class="node">
<title>Node1</title>
<g id="a_Node000001"><a xlink:title=" ">
<polygon fill="#999999" stroke="#666666" points="314,-57 172,-57 172,-25 314,-25 314,-57"/>
<text xml:space="preserve" text-anchor="start" x="180" y="-43.5" font-family="Helvetica,sans-Serif" font-size="10.00">AKPTPlayerState::GetWallet</text>
<text xml:space="preserve" text-anchor="middle" x="243" y="-31.5" font-family="Helvetica,sans-Serif" font-size="10.00">Component</text>
</a>
</g>
</g>
<!-- Node1&#45;&gt;Node1 -->
<g id="edge1_Node000001_Node000001" class="edge">
<title>Node1&#45;&gt;Node1</title>
<g id="a_edge1_Node000001_Node000001"><a xlink:title=" ">
<path fill="none" stroke="#63b8ff" d="M272.16,-68.71C267.3,-72.48 257.58,-75 243,-75 216.34,-75 205.93,-66.58 211.76,-57.44"/>
<polygon fill="#63b8ff" stroke="#63b8ff" points="275.59,-69.4 273.97,-58.93 268.71,-68.13 275.59,-69.4"/>
</a>
</g>
</g>
<!-- Node2 -->
<g id="Node000002" class="node">
<title>Node2</title>
<g id="a_Node000002"><a xlink:href="class_u_shop_manager_subsystem.html#aab60cace693da061856579c41401dd4a" target="_top" xlink:title=" ">
<polygon fill="white" stroke="#666666" points="136,-82 0,-82 0,-50 136,-50 136,-82"/>
<text xml:space="preserve" text-anchor="start" x="8" y="-68.5" font-family="Helvetica,sans-Serif" font-size="10.00">UShopManagerSubsystem</text>
<text xml:space="preserve" text-anchor="middle" x="68" y="-56.5" font-family="Helvetica,sans-Serif" font-size="10.00">::ProcessPurchaseRequest</text>
</a>
</g>
</g>
<!-- Node1&#45;&gt;Node2 -->
<g id="edge2_Node000001_Node000002" class="edge">
<title>Node1&#45;&gt;Node2</title>
<g id="a_edge2_Node000001_Node000002"><a xlink:title=" ">
<path fill="none" stroke="#63b8ff" d="M160.3,-52.81C152.24,-53.97 144.12,-55.14 136.23,-56.29"/>
<polygon fill="#63b8ff" stroke="#63b8ff" points="160.74,-56.28 170.14,-51.38 159.74,-49.35 160.74,-56.28"/>
</a>
</g>
</g>
<!-- Node3 -->
<g id="Node000003" class="node">
<title>Node3</title>
<g id="a_Node000003"><a xlink:href="class_u_shop_manager_subsystem.html#abf50df538a16d17ff421caa8ba5417ae" target="_top" xlink:title=" ">
<polygon fill="white" stroke="#666666" points="134.5,-32 1.5,-32 1.5,0 134.5,0 134.5,-32"/>
<text xml:space="preserve" text-anchor="start" x="9.5" y="-18.5" font-family="Helvetica,sans-Serif" font-size="10.00">UShopManagerSubsystem</text>
<text xml:space="preserve" text-anchor="middle" x="68" y="-6.5" font-family="Helvetica,sans-Serif" font-size="10.00">::ProcessRerollRequest</text>
</a>
</g>
</g>
<!-- Node1&#45;&gt;Node3 -->
<g id="edge3_Node000001_Node000003" class="edge">
<title>Node1&#45;&gt;Node3</title>
<g id="a_edge3_Node000001_Node000003"><a xlink:title=" ">
<path fill="none" stroke="#63b8ff" d="M160.42,-29.21C151.85,-27.97 143.2,-26.72 134.84,-25.51"/>
<polygon fill="#63b8ff" stroke="#63b8ff" points="159.74,-32.65 170.14,-30.62 160.74,-25.72 159.74,-32.65"/>
</a>
</g>
</g>
</g>
</svg>
