<?xml version="1.0" encoding="UTF-8" standalone="no"?>
<!DOCTYPE svg PUBLIC "-//W3C//DTD SVG 1.1//EN"
 "http://www.w3.org/Graphics/SVG/1.1/DTD/svg11.dtd">
<!-- Generated by graphviz version 13.1.1 (20250719.2154)
 -->
<!-- Title: UStageManagerSubsystem::StartStage Pages: 1 -->
<svg width="660pt" height="178pt"
 viewBox="0.00 0.00 660.00 178.00" xmlns="http://www.w3.org/2000/svg" xmlns:xlink="http://www.w3.org/1999/xlink">
<g id="graph0" class="graph" transform="scale(1 1) rotate(0) translate(4 174)">
<title>UStageManagerSubsystem::StartStage</title>
<!-- Node1 -->
<g id="Node000001" class="node">
<title>Node1</title>
<g id="a_Node000001"><a xlink:title=" ">
<polygon fill="#999999" stroke="#666666" points="136,-57 0,-57 0,-25 136,-25 136,-57"/>
<text xml:space="preserve" text-anchor="start" x="8" y="-43.5" font-family="Helvetica,sans-Serif" font-size="10.00">UStageManagerSubsystem</text>
<text xml:space="preserve" text-anchor="middle" x="68" y="-31.5" font-family="Helvetica,sans-Serif" font-size="10.00">::StartStage</text>
</a>
</g>
</g>
<!-- Node2 -->
<g id="Node000002" class="node">
<title>Node2</title>
<g id="a_Node000002"><a xlink:href="class_u_stage_manager_subsystem.html#a10be946619661f166108878489139489" target="_top" xlink:title=" ">
<polygon fill="white" stroke="#666666" points="308,-82 172,-82 172,-50 308,-50 308,-82"/>
<text xml:space="preserve" text-anchor="start" x="180" y="-68.5" font-family="Helvetica,sans-Serif" font-size="10.00">UStageManagerSubsystem</text>
<text xml:space="preserve" text-anchor="middle" x="240" y="-56.5" font-family="Helvetica,sans-Serif" font-size="10.00">::SetStageDataToSpawner</text>
</a>
</g>
</g>
<!-- Node1&#45;&gt;Node2 -->
<g id="edge1_Node000001_Node000002" class="edge">
<title>Node1&#45;&gt;Node2</title>
<g id="a_edge1_Node000001_Node000002"><a xlink:title=" ">
<path fill="none" stroke="#63b8ff" d="M136.19,-50.88C144.14,-52.05 152.3,-53.25 160.39,-54.44"/>
<polygon fill="#63b8ff" stroke="#63b8ff" points="159.84,-57.9 170.25,-55.89 160.86,-50.97 159.84,-57.9"/>
</a>
</g>
</g>
<!-- Node6 -->
<g id="Node000006" class="node">
<title>Node6</title>
<g id="a_Node000006"><a xlink:href="class_u_stage_manager_subsystem.html#a8a5a0fc89c9effbbb84cb8ea7729d1bc" target="_top" xlink:title=" ">
<polygon fill="white" stroke="#666666" points="480,-32 344,-32 344,0 480,0 480,-32"/>
<text xml:space="preserve" text-anchor="start" x="352" y="-18.5" font-family="Helvetica,sans-Serif" font-size="10.00">UStageManagerSubsystem</text>
<text xml:space="preserve" text-anchor="middle" x="412" y="-6.5" font-family="Helvetica,sans-Serif" font-size="10.00">::StartPhase</text>
</a>
</g>
</g>
<!-- Node1&#45;&gt;Node6 -->
<g id="edge8_Node000001_Node000006" class="edge">
<title>Node1&#45;&gt;Node6</title>
<g id="a_edge8_Node000001_Node000006"><a xlink:title=" ">
<path fill="none" stroke="#63b8ff" d="M136.16,-36.09C192.54,-31.97 273.16,-26.08 332.5,-21.74"/>
<polygon fill="#63b8ff" stroke="#63b8ff" points="332.47,-25.25 342.19,-21.03 331.96,-18.27 332.47,-25.25"/>
</a>
</g>
</g>
<!-- Node2&#45;&gt;Node2 -->
<g id="edge6_Node000002_Node000002" class="edge">
<title>Node2&#45;&gt;Node2</title>
<g id="a_edge6_Node000002_Node000002"><a xlink:title=" ">
<path fill="none" stroke="#63b8ff" d="M209.29,-82.44C203.56,-91.58 213.8,-100 240,-100 254.33,-100 263.88,-97.48 268.66,-93.71"/>
<polygon fill="#63b8ff" stroke="#63b8ff" points="272.1,-94.4 270.44,-83.93 265.21,-93.15 272.1,-94.4"/>
</a>
</g>
</g>
<!-- Node3 -->
<g id="Node000003" class="node">
<title>Node3</title>
<g id="a_Node000003"><a xlink:href="class_u_stage_manager_subsystem.html#a8386ea09d547e37b0110a5f62dd2fb9d" target="_top" xlink:title=" ">
<polygon fill="white" stroke="#666666" points="480,-170 344,-170 344,-138 480,-138 480,-170"/>
<text xml:space="preserve" text-anchor="start" x="352" y="-156.5" font-family="Helvetica,sans-Serif" font-size="10.00">UStageManagerSubsystem</text>
<text xml:space="preserve" text-anchor="middle" x="412" y="-144.5" font-family="Helvetica,sans-Serif" font-size="10.00">::GetCurrentStageData</text>
</a>
</g>
</g>
<!-- Node2&#45;&gt;Node3 -->
<g id="edge2_Node000002_Node000003" class="edge">
<title>Node2&#45;&gt;Node3</title>
<g id="a_edge2_Node000002_Node000003"><a xlink:title=" ">
<path fill="none" stroke="#63b8ff" d="M268.6,-82.46C289.13,-94.47 317.98,-110.88 344,-124 349.91,-126.98 356.17,-129.98 362.4,-132.88"/>
<polygon fill="#63b8ff" stroke="#63b8ff" points="360.87,-136.02 371.42,-137 363.78,-129.66 360.87,-136.02"/>
</a>
</g>
</g>
<!-- Node4 -->
<g id="Node000004" class="node">
<title>Node4</title>
<g id="a_Node000004"><a xlink:href="class_u_stage_manager_subsystem.html#a1b506743975f481d0cd15a1153f0820d" target="_top" xlink:title=" ">
<polygon fill="white" stroke="#666666" points="652,-104 516,-104 516,-72 652,-72 652,-104"/>
<text xml:space="preserve" text-anchor="start" x="524" y="-90.5" font-family="Helvetica,sans-Serif" font-size="10.00">UStageManagerSubsystem</text>
<text xml:space="preserve" text-anchor="middle" x="584" y="-78.5" font-family="Helvetica,sans-Serif" font-size="10.00">::GetMaxRoundCount</text>
</a>
</g>
</g>
<!-- Node2&#45;&gt;Node4 -->
<g id="edge3_Node000002_Node000004" class="edge">
<title>Node2&#45;&gt;Node4</title>
<g id="a_edge3_Node000002_Node000004"><a xlink:title=" ">
<path fill="none" stroke="#63b8ff" d="M298.3,-82.46C313.07,-86 329.02,-89.21 344,-91 397.19,-97.36 457.52,-96.55 504.26,-94.17"/>
<polygon fill="#63b8ff" stroke="#63b8ff" points="504.22,-97.68 514.02,-93.64 503.84,-90.69 504.22,-97.68"/>
</a>
</g>
</g>
<!-- Node5 -->
<g id="Node000005" class="node">
<title>Node5</title>
<g id="a_Node000005"><a xlink:href="class_u_stage_manager_subsystem.html#acee67f86b9c712f48829d333b472a58a" target="_top" xlink:title=" ">
<polygon fill="white" stroke="#666666" points="480,-82 344,-82 344,-50 480,-50 480,-82"/>
<text xml:space="preserve" text-anchor="start" x="352" y="-68.5" font-family="Helvetica,sans-Serif" font-size="10.00">UStageManagerSubsystem</text>
<text xml:space="preserve" text-anchor="middle" x="412" y="-56.5" font-family="Helvetica,sans-Serif" font-size="10.00">::IsMaxRound</text>
</a>
</g>
</g>
<!-- Node2&#45;&gt;Node5 -->
<g id="edge4_Node000002_Node000005" class="edge">
<title>Node2&#45;&gt;Node5</title>
<g id="a_edge4_Node000002_Node000005"><a xlink:title=" ">
<path fill="none" stroke="#63b8ff" d="M308.19,-66C316.14,-66 324.3,-66 332.39,-66"/>
<polygon fill="#63b8ff" stroke="#63b8ff" points="332.23,-69.5 342.23,-66 332.23,-62.5 332.23,-69.5"/>
</a>
</g>
</g>
<!-- Node2&#45;&gt;Node6 -->
<g id="edge7_Node000002_Node000006" class="edge">
<title>Node2&#45;&gt;Node6</title>
<g id="a_edge7_Node000002_Node000006"><a xlink:title=" ">
<path fill="none" stroke="#63b8ff" d="M296.66,-49.63C311.85,-45.16 328.46,-40.28 344.19,-35.65"/>
<polygon fill="#63b8ff" stroke="#63b8ff" points="344.86,-39.1 353.47,-32.92 342.89,-32.39 344.86,-39.1"/>
</a>
</g>
</g>
<!-- Node5&#45;&gt;Node4 -->
<g id="edge5_Node000005_Node000004" class="edge">
<title>Node5&#45;&gt;Node4</title>
<g id="a_edge5_Node000005_Node000004"><a xlink:title=" ">
<path fill="none" stroke="#63b8ff" d="M480.19,-74.69C488.14,-75.72 496.3,-76.78 504.39,-77.83"/>
<polygon fill="#63b8ff" stroke="#63b8ff" points="503.88,-81.29 514.24,-79.1 504.77,-74.35 503.88,-81.29"/>
</a>
</g>
</g>
</g>
</svg>
