<?xml version="1.0" encoding="UTF-8" standalone="no"?>
<!DOCTYPE svg PUBLIC "-//W3C//DTD SVG 1.1//EN"
 "http://www.w3.org/Graphics/SVG/1.1/DTD/svg11.dtd">
<!-- Generated by graphviz version 13.1.1 (20250719.2154)
 -->
<!-- Title: ABossMonsterBase::Die Pages: 1 -->
<!--zoomable 380 -->

<svg id="main" version="1.1" xmlns="http://www.w3.org/2000/svg" xmlns:xlink="http://www.w3.org/1999/xlink" xml:space="preserve" onload="init(evt)">

<style type="text/css"><![CDATA[
.node, .edge {opacity: 0.7;}
.node.selected, .edge.selected {opacity: 1;}
.edge:hover path { stroke: red; }
.edge:hover polygon { stroke: red; fill: red; }
]]></style>

<defs>
  <circle id="rim" cx="0" cy="0" r="7"/>
  <circle id="rim2" cx="0" cy="0" r="3.5"/>
  <g id="zoomPlus">
    <use xlink:href="#rim" fill="#404040"><set attributeName="fill" to="#808080" begin="zoomplus.mouseover" end="zoomplus.mouseout"/></use>
    <path d="M-4,0h8M0,-4v8" fill="none" stroke="white" stroke-width="1.5" pointer-events="none"/>
  </g>
  <g id="zoomMin">
    <use xlink:href="#rim" fill="#404040"><set attributeName="fill" to="#808080" begin="zoomminus.mouseover" end="zoomminus.mouseout"/></use>
    <path d="M-4,0h8" fill="none" stroke="white" stroke-width="1.5" pointer-events="none"/>
  </g>
  <g id="arrowUp" transform="translate(30 24)">
    <use xlink:href="#rim"/>
    <path pointer-events="none" fill="none" stroke="white" stroke-width="1.5" d="M0,-3.0v7 M-2.5,-0.5L0,-3.0L2.5,-0.5"/>
  </g>
  <g id="arrowRight" transform="rotate(90) translate(36 -43)">
    <use xlink:href="#rim"/>
    <path pointer-events="none" fill="none" stroke="white" stroke-width="1.5" d="M0,-3.0v7 M-2.5,-0.5L0,-3.0L2.5,-0.5"/>
  </g>
  <g id="arrowDown" transform="rotate(180) translate(-30 -48)">
    <use xlink:href="#rim"/>
    <path pointer-events="none" fill="none" stroke="white" stroke-width="1.5" d="M0,-3.0v7 M-2.5,-0.5L0,-3.0L2.5,-0.5"/>
  </g>
  <g id="arrowLeft" transform="rotate(270) translate(-36 17)">
    <use xlink:href="#rim"/>
    <path pointer-events="none" fill="none" stroke="white" stroke-width="1.5" d="M0,-3.0v7 M-2.5,-0.5L0,-3.0L2.5,-0.5"/>
  </g>
  <g id="resetDef">
    <use xlink:href="#rim2" fill="#404040"><set attributeName="fill" to="#808080" begin="reset.mouseover" end="reset.mouseout"/></use>
  </g>
</defs>
<script type="application/ecmascript">
var viewWidth = 722;
var viewHeight = 380;
var sectionId = 'dynsection-6';
</script>
<script type="application/ecmascript" xlink:href="svg.min.js"/>
<svg id="graph" class="graph">
<g id="viewport">
<title>ABossMonsterBase::Die</title>
<!-- Node1 -->
<g id="Node000001" class="node">
<title>Node1</title>
<g id="a_Node000001"><a xlink:title=" ">
<polygon fill="#999999" stroke="#666666" points="124,-208 0,-208 0,-188 124,-188 124,-208"/>
<text xml:space="preserve" text-anchor="middle" x="62" y="-194.5" font-family="Helvetica,sans-Serif" font-size="10.00">ABossMonsterBase::Die</text>
</a>
</g>
</g>
<!-- Node2 -->
<g id="Node000002" class="node">
<title>Node2</title>
<g id="a_Node000002"><a xlink:href="class_a_boss_monster_base.html#a148ab71c8d5d40090cc9f63fe81065b3" target="_top" xlink:title=" ">
<polygon fill="white" stroke="#666666" points="308.75,-214 160,-214 160,-182 308.75,-182 308.75,-214"/>
<text xml:space="preserve" text-anchor="start" x="168" y="-200.5" font-family="Helvetica,sans-Serif" font-size="10.00">ABossMonsterBase::Multicast</text>
<text xml:space="preserve" text-anchor="middle" x="234.38" y="-188.5" font-family="Helvetica,sans-Serif" font-size="10.00">_StartDissolveEffect</text>
</a>
</g>
</g>
<!-- Node1&#45;&gt;Node2 -->
<g id="edge1_Node000001_Node000002" class="edge">
<title>Node1&#45;&gt;Node2</title>
<g id="a_edge1_Node000001_Node000002"><a xlink:title=" ">
<path fill="none" stroke="#63b8ff" d="M124.03,-198C131.88,-198 140.03,-198 148.18,-198"/>
<polygon fill="#63b8ff" stroke="#63b8ff" points="148.16,-201.5 158.16,-198 148.16,-194.5 148.16,-201.5"/>
</a>
</g>
</g>
<!-- Node2&#45;&gt;Node2 -->
<g id="edge7_Node000002_Node000002" class="edge">
<title>Node2&#45;&gt;Node2</title>
<g id="a_edge7_Node000002_Node000002"><a xlink:title=" ">
<path fill="none" stroke="#63b8ff" d="M203.6,-214.44C197.86,-223.58 208.11,-232 234.38,-232 248.74,-232 258.31,-229.48 263.1,-225.71"/>
<polygon fill="#63b8ff" stroke="#63b8ff" points="266.53,-226.4 264.88,-215.93 259.65,-225.14 266.53,-226.4"/>
</a>
</g>
</g>
<!-- Node3 -->
<g id="Node000003" class="node">
<title>Node3</title>
<g id="a_Node000003"><a xlink:href="class_a_boss_monster_base.html#aad59c8c0ed3f6b9090cd0e29d35ae192" target="_top" xlink:title=" ">
<polygon fill="white" stroke="#666666" points="510.75,-372 348.5,-372 348.5,-340 510.75,-340 510.75,-372"/>
<text xml:space="preserve" text-anchor="start" x="356.5" y="-358.5" font-family="Helvetica,sans-Serif" font-size="10.00">ABossMonsterBase::AddStacked</text>
<text xml:space="preserve" text-anchor="middle" x="429.62" y="-346.5" font-family="Helvetica,sans-Serif" font-size="10.00">Damage</text>
</a>
</g>
</g>
<!-- Node2&#45;&gt;Node3 -->
<g id="edge2_Node000002_Node000003" class="edge">
<title>Node2&#45;&gt;Node3</title>
<g id="a_edge2_Node000002_Node000003"><a xlink:title=" ">
<path fill="none" stroke="#63b8ff" d="M245.12,-214.12C262.13,-240.98 299.75,-294.97 344.75,-326 349.48,-329.26 354.61,-332.21 359.92,-334.87"/>
<polygon fill="#63b8ff" stroke="#63b8ff" points="358.36,-338 368.91,-338.99 361.28,-331.64 358.36,-338"/>
</a>
</g>
</g>
<!-- Node4 -->
<g id="Node000004" class="node">
<title>Node4</title>
<g id="a_Node000004"><a xlink:href="class_a_boss_monster_base.html#a4b2b95b0be9b302d6d58c10635dc1cd0" target="_top" xlink:title=" ">
<polygon fill="white" stroke="#666666" points="506.25,-284 353,-284 353,-264 506.25,-264 506.25,-284"/>
<text xml:space="preserve" text-anchor="middle" x="429.62" y="-270.5" font-family="Helvetica,sans-Serif" font-size="10.00">ABossMonsterBase::BeginPlay</text>
</a>
</g>
</g>
<!-- Node2&#45;&gt;Node4 -->
<g id="edge3_Node000002_Node000004" class="edge">
<title>Node2&#45;&gt;Node4</title>
<g id="a_edge3_Node000002_Node000004"><a xlink:title=" ">
<path fill="none" stroke="#63b8ff" d="M266.37,-214.42C287.94,-225.44 317.61,-239.74 344.75,-250 354.85,-253.81 365.82,-257.36 376.4,-260.5"/>
<polygon fill="#63b8ff" stroke="#63b8ff" points="375.2,-263.8 385.77,-263.2 377.13,-257.07 375.2,-263.8"/>
</a>
</g>
</g>
<!-- Node5 -->
<g id="Node000005" class="node">
<title>Node5</title>
<g id="a_Node000005"><a xlink:href="class_a_boss_monster_base.html#a96aef28a337652697596cc5012797c78" target="_top" xlink:title=" ">
<polygon fill="white" stroke="#666666" points="704.5,-321 559.5,-321 559.5,-289 704.5,-289 704.5,-321"/>
<text xml:space="preserve" text-anchor="start" x="567.5" y="-307.5" font-family="Helvetica,sans-Serif" font-size="10.00">ABossMonsterBase::Initialize</text>
<text xml:space="preserve" text-anchor="middle" x="632" y="-295.5" font-family="Helvetica,sans-Serif" font-size="10.00">AbilitySystem</text>
</a>
</g>
</g>
<!-- Node2&#45;&gt;Node5 -->
<g id="edge6_Node000002_Node000005" class="edge">
<title>Node2&#45;&gt;Node5</title>
<g id="a_edge6_Node000002_Node000005"><a xlink:title=" ">
<path fill="none" stroke="#63b8ff" d="M248.06,-214.48C266.52,-236.99 303.15,-276.45 344.75,-293 409.42,-318.72 488.91,-319.91 547.7,-315.7"/>
<polygon fill="#63b8ff" stroke="#63b8ff" points="547.97,-319.19 557.66,-314.91 547.42,-312.21 547.97,-319.19"/>
</a>
</g>
</g>
<!-- Node6 -->
<g id="Node000006" class="node">
<title>Node6</title>
<g id="a_Node000006"><a xlink:href="class_a_boss_monster_base.html#ad00d7b706c434e7c530716da0af6e165" target="_top" xlink:title=" ">
<polygon fill="white" stroke="#666666" points="713.5,-265 550.5,-265 550.5,-233 713.5,-233 713.5,-265"/>
<text xml:space="preserve" text-anchor="start" x="558.5" y="-251.5" font-family="Helvetica,sans-Serif" font-size="10.00">ABossMonsterBase::SendUpdate</text>
<text xml:space="preserve" text-anchor="middle" x="632" y="-239.5" font-family="Helvetica,sans-Serif" font-size="10.00">EventToGameMode</text>
</a>
</g>
</g>
<!-- Node2&#45;&gt;Node6 -->
<g id="edge11_Node000002_Node000006" class="edge">
<title>Node2&#45;&gt;Node6</title>
<g id="a_edge11_Node000002_Node000006"><a xlink:title=" ">
<path fill="none" stroke="#63b8ff" d="M309.12,-211.44C321.01,-213.42 333.21,-215.35 344.75,-217 409.36,-226.21 482.49,-234.35 538.66,-240.11"/>
<polygon fill="#63b8ff" stroke="#63b8ff" points="538.21,-243.59 548.51,-241.12 538.92,-236.62 538.21,-243.59"/>
</a>
</g>
</g>
<!-- Node7 -->
<g id="Node000007" class="node">
<title>Node7</title>
<g id="a_Node000007"><a xlink:href="class_a_boss_monster_base.html#a3b52848f049e5ff80f0c8482db6b3b0f" target="_top" xlink:title=" ">
<polygon fill="white" stroke="#666666" points="514.5,-208 344.75,-208 344.75,-188 514.5,-188 514.5,-208"/>
<text xml:space="preserve" text-anchor="middle" x="429.62" y="-194.5" font-family="Helvetica,sans-Serif" font-size="10.00">ABossMonsterBase::PossessedBy</text>
</a>
</g>
</g>
<!-- Node2&#45;&gt;Node7 -->
<g id="edge8_Node000002_Node000007" class="edge">
<title>Node2&#45;&gt;Node7</title>
<g id="a_edge8_Node000002_Node000007"><a xlink:title=" ">
<path fill="none" stroke="#63b8ff" d="M308.99,-198C316.89,-198 325.01,-198 333.12,-198"/>
<polygon fill="#63b8ff" stroke="#63b8ff" points="333.04,-201.5 343.04,-198 333.04,-194.5 333.04,-201.5"/>
</a>
</g>
</g>
<!-- Node8 -->
<g id="Node000008" class="node">
<title>Node8</title>
<g id="a_Node000008"><a xlink:href="class_a_boss_monster_base.html#aef9ea8fef296e1bb0638775ce217b934" target="_top" xlink:title=" ">
<polygon fill="white" stroke="#666666" points="510,-170 349.25,-170 349.25,-138 510,-138 510,-170"/>
<text xml:space="preserve" text-anchor="start" x="357.25" y="-156.5" font-family="Helvetica,sans-Serif" font-size="10.00">ABossMonsterBase::SendDefeat</text>
<text xml:space="preserve" text-anchor="middle" x="429.62" y="-144.5" font-family="Helvetica,sans-Serif" font-size="10.00">EventToGameMode</text>
</a>
</g>
</g>
<!-- Node2&#45;&gt;Node8 -->
<g id="edge9_Node000002_Node000008" class="edge">
<title>Node2&#45;&gt;Node8</title>
<g id="a_edge9_Node000002_Node000008"><a xlink:title=" ">
<path fill="none" stroke="#63b8ff" d="M307.61,-181.55C319.88,-178.76 332.71,-175.84 345.24,-172.98"/>
<polygon fill="#63b8ff" stroke="#63b8ff" points="345.71,-176.47 354.68,-170.84 344.15,-169.64 345.71,-176.47"/>
</a>
</g>
</g>
<!-- Node9 -->
<g id="Node000009" class="node">
<title>Node9</title>
<g id="a_Node000009"><a xlink:href="class_a_boss_monster_base.html#a076ed5a106ae8e6ff87cafd69ce10793" target="_top" xlink:title=" ">
<polygon fill="white" stroke="#666666" points="510.38,-120 348.88,-120 348.88,-88 510.38,-88 510.38,-120"/>
<text xml:space="preserve" text-anchor="start" x="356.88" y="-106.5" font-family="Helvetica,sans-Serif" font-size="10.00">ABossMonsterBase::SendSpawn</text>
<text xml:space="preserve" text-anchor="middle" x="429.62" y="-94.5" font-family="Helvetica,sans-Serif" font-size="10.00">EventToGameMode</text>
</a>
</g>
</g>
<!-- Node2&#45;&gt;Node9 -->
<g id="edge10_Node000002_Node000009" class="edge">
<title>Node2&#45;&gt;Node9</title>
<g id="a_edge10_Node000002_Node000009"><a xlink:title=" ">
<path fill="none" stroke="#63b8ff" d="M257.4,-181.56C278.79,-166.22 312.65,-143.57 344.75,-129 348.32,-127.38 352.02,-125.83 355.78,-124.36"/>
<polygon fill="#63b8ff" stroke="#63b8ff" points="356.94,-127.67 365.12,-120.93 354.52,-121.1 356.94,-127.67"/>
</a>
</g>
</g>
<!-- Node10 -->
<g id="Node000010" class="node">
<title>Node10</title>
<g id="a_Node000010"><a xlink:href="class_a_boss_monster_base.html#afae75c91bcb32e406d8239386654a58b" target="_top" xlink:title=" ">
<polygon fill="white" stroke="#666666" points="513.75,-70 345.5,-70 345.5,-38 513.75,-38 513.75,-70"/>
<text xml:space="preserve" text-anchor="start" x="353.5" y="-56.5" font-family="Helvetica,sans-Serif" font-size="10.00">ABossMonsterBase::StartDissolve</text>
<text xml:space="preserve" text-anchor="middle" x="429.62" y="-44.5" font-family="Helvetica,sans-Serif" font-size="10.00">Effect</text>
</a>
</g>
</g>
<!-- Node2&#45;&gt;Node10 -->
<g id="edge12_Node000002_Node000010" class="edge">
<title>Node2&#45;&gt;Node10</title>
<g id="a_edge12_Node000002_Node000010"><a xlink:title=" ">
<path fill="none" stroke="#63b8ff" d="M246.07,-181.55C263.62,-155.87 300.97,-106.36 344.75,-79 346.76,-77.74 348.84,-76.54 350.97,-75.4"/>
<polygon fill="#63b8ff" stroke="#63b8ff" points="352.39,-78.61 359.9,-71.13 349.36,-72.29 352.39,-78.61"/>
</a>
</g>
</g>
<!-- Node11 -->
<g id="Node000011" class="node">
<title>Node11</title>
<g id="a_Node000011"><a xlink:href="class_a_boss_monster_base.html#ae9a85f58384f8e9789d540167cb9f59f" target="_top" xlink:title=" ">
<polygon fill="white" stroke="#666666" points="493.5,-20 365.75,-20 365.75,0 493.5,0 493.5,-20"/>
<text xml:space="preserve" text-anchor="middle" x="429.62" y="-6.5" font-family="Helvetica,sans-Serif" font-size="10.00">ABossMonsterBase::Tick</text>
</a>
</g>
</g>
<!-- Node2&#45;&gt;Node11 -->
<g id="edge13_Node000002_Node000011" class="edge">
<title>Node2&#45;&gt;Node11</title>
<g id="a_edge13_Node000002_Node000011"><a xlink:title=" ">
<path fill="none" stroke="#63b8ff" d="M241.03,-181.75C253.79,-147.65 288.16,-68.52 344.75,-29 347.97,-26.75 351.41,-24.77 355,-23.01"/>
<polygon fill="#63b8ff" stroke="#63b8ff" points="356.15,-26.32 364.02,-19.24 353.45,-19.87 356.15,-26.32"/>
</a>
</g>
</g>
<!-- Node4&#45;&gt;Node5 -->
<g id="edge4_Node000004_Node000005" class="edge">
<title>Node4&#45;&gt;Node5</title>
<g id="a_edge4_Node000004_Node000005"><a xlink:title=" ">
<path fill="none" stroke="#63b8ff" d="M498.46,-284.5C514.33,-286.95 531.41,-289.59 547.86,-292.14"/>
<polygon fill="#63b8ff" stroke="#63b8ff" points="547.21,-295.58 557.62,-293.65 548.28,-288.66 547.21,-295.58"/>
</a>
</g>
</g>
<!-- Node4&#45;&gt;Node6 -->
<g id="edge5_Node000004_Node000006" class="edge">
<title>Node4&#45;&gt;Node6</title>
<g id="a_edge5_Node000004_Node000006"><a xlink:title=" ">
<path fill="none" stroke="#63b8ff" d="M506.66,-264.51C517.18,-263.2 528.08,-261.84 538.85,-260.5"/>
<polygon fill="#63b8ff" stroke="#63b8ff" points="539.01,-264 548.5,-259.29 538.15,-257.06 539.01,-264"/>
</a>
</g>
</g>
</g>
</svg>

<g id="navigator" transform="translate(0 0)" fill="#404254">
  <rect fill="#f2f5e9" fill-opacity="0.5" stroke="#606060" stroke-width=".5" x="0" y="0" width="60" height="60"/>
  <use id="zoomplus" xlink:href="#zoomPlus" x="17" y="9" onmousedown="handleZoom(evt,'in')"/>
  <use id="zoomminus" xlink:href="#zoomMin" x="42" y="9" onmousedown="handleZoom(evt,'out')"/>
  <use id="reset" xlink:href="#resetDef" x="30" y="36" onmousedown="handleReset()"/>
   <use id="arrowup" xlink:href="#arrowUp" x="0" y="0" onmousedown="handlePan(0,-1)"/>
  <use id="arrowright" xlink:href="#arrowRight" x="0" y="0" onmousedown="handlePan(1,0)"/>
  <use id="arrowdown" xlink:href="#arrowDown" x="0" y="0" onmousedown="handlePan(0,1)"/>
  <use id="arrowleft" xlink:href="#arrowLeft" x="0" y="0" onmousedown="handlePan(-1,0)"/>
</g>
<svg viewBox="0 0 15 15" width="100%" height="30px" preserveAspectRatio="xMaxYMin meet">
 <g id="arrow_out" transform="scale(0.3 0.3)">
  <a xlink:href="class_a_boss_monster_base_a3a77a8ea16e8085f13e426f1eab5c5c7_cgraph_org.svg" target="_base">
   <rect id="button" ry="5" rx="5" y="6" x="6" height="38" width="38"
        fill="#f2f5e9" fill-opacity="0.5" stroke="#606060" stroke-width="1.0"/>
   <path id="arrow"
     d="M 11.500037,31.436501 C 11.940474,20.09759 22.043105,11.32322 32.158766,21.979434 L 37.068811,17.246167 C 37.068811,17.246167 37.088388,32 37.088388,32 L 22.160133,31.978069 C 22.160133,31.978069 26.997745,27.140456 26.997745,27.140456 C 18.528582,18.264221 13.291696,25.230495 11.500037,31.436501 z"
     style="fill:#404040;"/>
  </a>
 </g>
</svg>

<style type='text/css'>
<![CDATA[
[data-mouse-over-selected='false'] { opacity: 0.7; }
[data-mouse-over-selected='true']  { opacity: 1.0; }
]]>
</style>
<script type="application/ecmascript"><![CDATA[
document.addEventListener('DOMContentLoaded', (event) => {
  highlightEdges();
  highlightAdjacentNodes();
});
]]></script>
</svg>
