<?xml version="1.0" encoding="UTF-8" standalone="no"?>
<!DOCTYPE svg PUBLIC "-//W3C//DTD SVG 1.1//EN"
 "http://www.w3.org/Graphics/SVG/1.1/DTD/svg11.dtd">
<!-- Generated by graphviz version 13.1.1 (20250719.2154)
 -->
<!-- Title: UInventoryManager::ServerRemoveItem Pages: 1 -->
<svg width="506pt" height="58pt"
 viewBox="0.00 0.00 506.00 58.00" xmlns="http://www.w3.org/2000/svg" xmlns:xlink="http://www.w3.org/1999/xlink">
<g id="graph0" class="graph" transform="scale(1 1) rotate(0) translate(4 54)">
<title>UInventoryManager::ServerRemoveItem</title>
<!-- Node1 -->
<g id="Node000001" class="node">
<title>Node1</title>
<g id="a_Node000001"><a xlink:title=" ">
<polygon fill="#999999" stroke="#666666" points="498,-32 390.5,-32 390.5,0 498,0 498,-32"/>
<text xml:space="preserve" text-anchor="start" x="398.5" y="-18.5" font-family="Helvetica,sans-Serif" font-size="10.00">UInventoryManager::</text>
<text xml:space="preserve" text-anchor="middle" x="444.25" y="-6.5" font-family="Helvetica,sans-Serif" font-size="10.00">ServerRemoveItem</text>
</a>
</g>
</g>
<!-- Node1&#45;&gt;Node1 -->
<g id="edge4_Node000001_Node000001" class="edge">
<title>Node1&#45;&gt;Node1</title>
<g id="a_edge4_Node000001_Node000001"><a xlink:title=" ">
<path fill="none" stroke="#63b8ff" d="M473.29,-43.71C468.45,-47.48 458.77,-50 444.25,-50 417.7,-50 407.33,-41.58 413.14,-32.44"/>
<polygon fill="#63b8ff" stroke="#63b8ff" points="476.72,-44.4 475.08,-33.93 469.83,-43.13 476.72,-44.4"/>
</a>
</g>
</g>
<!-- Node2 -->
<g id="Node000002" class="node">
<title>Node2</title>
<g id="a_Node000002"><a xlink:href="class_u_k_p_t_cheat_manager.html#ad680147373532691154ba6be8ce3aed3" target="_top" xlink:title=" ">
<polygon fill="white" stroke="#666666" points="354.5,-26 185.5,-26 185.5,-6 354.5,-6 354.5,-26"/>
<text xml:space="preserve" text-anchor="middle" x="270" y="-12.5" font-family="Helvetica,sans-Serif" font-size="10.00">UKPTCheatManager::RemoveItem</text>
</a>
</g>
</g>
<!-- Node1&#45;&gt;Node2 -->
<g id="edge1_Node000001_Node000002" class="edge">
<title>Node1&#45;&gt;Node2</title>
<g id="a_edge1_Node000001_Node000002"><a xlink:title=" ">
<path fill="none" stroke="#63b8ff" d="M378.92,-16C371.1,-16 363.02,-16 354.96,-16"/>
<polygon fill="#63b8ff" stroke="#63b8ff" points="378.65,-19.5 388.65,-16 378.65,-12.5 378.65,-19.5"/>
</a>
</g>
</g>
<!-- Node3 -->
<g id="Node000003" class="node">
<title>Node3</title>
<g id="a_Node000003"><a xlink:href="class_u_k_p_t_cheat_manager.html#a7aa3bbda542469d8c728c2548878cb4b" target="_top" xlink:title=" ">
<polygon fill="white" stroke="#666666" points="149.5,-26 0,-26 0,-6 149.5,-6 149.5,-26"/>
<text xml:space="preserve" text-anchor="middle" x="74.75" y="-12.5" font-family="Helvetica,sans-Serif" font-size="10.00">UKPTCheatManager::AddItem</text>
</a>
</g>
</g>
<!-- Node2&#45;&gt;Node3 -->
<g id="edge2_Node000002_Node000003" class="edge">
<title>Node2&#45;&gt;Node3</title>
<g id="a_edge2_Node000002_Node000003"><a xlink:title=" ">
<path fill="none" stroke="#63b8ff" d="M173.77,-16C165.75,-16 157.71,-16 149.88,-16"/>
<polygon fill="#63b8ff" stroke="#63b8ff" points="173.57,-19.5 183.57,-16 173.57,-12.5 173.57,-19.5"/>
</a>
</g>
</g>
<!-- Node3&#45;&gt;Node3 -->
<g id="edge3_Node000003_Node000003" class="edge">
<title>Node3&#45;&gt;Node3</title>
<g id="a_edge3_Node000003_Node000003"><a xlink:title=" ">
<path fill="none" stroke="#63b8ff" d="M109.62,-37.11C105.47,-41.14 93.84,-44 74.75,-44 40.81,-44 30.47,-34.98 43.73,-26.34"/>
<polygon fill="#63b8ff" stroke="#63b8ff" points="112.94,-36 106.28,-27.76 106.35,-38.36 112.94,-36"/>
</a>
</g>
</g>
</g>
</svg>
