<?xml version="1.0" encoding="UTF-8" standalone="no"?>
<!DOCTYPE svg PUBLIC "-//W3C//DTD SVG 1.1//EN"
 "http://www.w3.org/Graphics/SVG/1.1/DTD/svg11.dtd">
<!-- Generated by graphviz version 13.1.1 (20250719.2154)
 -->
<!-- Title: AMonsterBase Pages: 1 -->
<!--zoomable 640 -->

<svg id="main" version="1.1" xmlns="http://www.w3.org/2000/svg" xmlns:xlink="http://www.w3.org/1999/xlink" xml:space="preserve" onload="init(evt)">

<style type="text/css"><![CDATA[
.node, .edge {opacity: 0.7;}
.node.selected, .edge.selected {opacity: 1;}
.edge:hover path { stroke: red; }
.edge:hover polygon { stroke: red; fill: red; }
]]></style>

<defs>
  <circle id="rim" cx="0" cy="0" r="7"/>
  <circle id="rim2" cx="0" cy="0" r="3.5"/>
  <g id="zoomPlus">
    <use xlink:href="#rim" fill="#404040"><set attributeName="fill" to="#808080" begin="zoomplus.mouseover" end="zoomplus.mouseout"/></use>
    <path d="M-4,0h8M0,-4v8" fill="none" stroke="white" stroke-width="1.5" pointer-events="none"/>
  </g>
  <g id="zoomMin">
    <use xlink:href="#rim" fill="#404040"><set attributeName="fill" to="#808080" begin="zoomminus.mouseover" end="zoomminus.mouseout"/></use>
    <path d="M-4,0h8" fill="none" stroke="white" stroke-width="1.5" pointer-events="none"/>
  </g>
  <g id="arrowUp" transform="translate(30 24)">
    <use xlink:href="#rim"/>
    <path pointer-events="none" fill="none" stroke="white" stroke-width="1.5" d="M0,-3.0v7 M-2.5,-0.5L0,-3.0L2.5,-0.5"/>
  </g>
  <g id="arrowRight" transform="rotate(90) translate(36 -43)">
    <use xlink:href="#rim"/>
    <path pointer-events="none" fill="none" stroke="white" stroke-width="1.5" d="M0,-3.0v7 M-2.5,-0.5L0,-3.0L2.5,-0.5"/>
  </g>
  <g id="arrowDown" transform="rotate(180) translate(-30 -48)">
    <use xlink:href="#rim"/>
    <path pointer-events="none" fill="none" stroke="white" stroke-width="1.5" d="M0,-3.0v7 M-2.5,-0.5L0,-3.0L2.5,-0.5"/>
  </g>
  <g id="arrowLeft" transform="rotate(270) translate(-36 17)">
    <use xlink:href="#rim"/>
    <path pointer-events="none" fill="none" stroke="white" stroke-width="1.5" d="M0,-3.0v7 M-2.5,-0.5L0,-3.0L2.5,-0.5"/>
  </g>
  <g id="resetDef">
    <use xlink:href="#rim2" fill="#404040"><set attributeName="fill" to="#808080" begin="reset.mouseover" end="reset.mouseout"/></use>
  </g>
</defs>
<script type="application/ecmascript">
var viewWidth = 447;
var viewHeight = 640;
var sectionId = 'dynsection-1';
</script>
<script type="application/ecmascript" xlink:href="svg.min.js"/>
<svg id="graph" class="graph">
<g id="viewport">
<title>AMonsterBase</title>
<!-- Node1 -->
<g id="Node000001" class="node">
<title>Node1</title>
<g id="a_Node000001"><a xlink:title=" ">
<polygon fill="#999999" stroke="none" points="274.25,-476 83.75,-476 83.75,0 274.25,0 274.25,-476"/>
<text xml:space="preserve" text-anchor="start" x="146.75" y="-462.5" font-family="Helvetica,sans-Serif" font-size="10.00">AMonsterBase</text>
<text xml:space="preserve" text-anchor="start" x="88.12" y="-446.5" font-family="Helvetica,sans-Serif" font-size="10.00">#</text>
<text xml:space="preserve" text-anchor="start" x="97.75" y="-446.5" font-family="Helvetica,sans-Serif" font-size="10.00">TObjectPtr&lt; UKPTAbilitySystem</text>
<text xml:space="preserve" text-anchor="start" x="97.75" y="-434.5" font-family="Helvetica,sans-Serif" font-size="10.00">Component &gt; AbilitySystemComponent</text>
<text xml:space="preserve" text-anchor="start" x="88.12" y="-418.5" font-family="Helvetica,sans-Serif" font-size="10.00">#</text>
<text xml:space="preserve" text-anchor="start" x="97.75" y="-418.5" font-family="Helvetica,sans-Serif" font-size="10.00">TArray&lt; TSubclassOf</text>
<text xml:space="preserve" text-anchor="start" x="97.75" y="-406.5" font-family="Helvetica,sans-Serif" font-size="10.00">&lt; UGameplayEffect &gt;</text>
<text xml:space="preserve" text-anchor="start" x="97.75" y="-394.5" font-family="Helvetica,sans-Serif" font-size="10.00"> &gt; DefaultAttributeEffect</text>
<text xml:space="preserve" text-anchor="start" x="88.12" y="-378.5" font-family="Helvetica,sans-Serif" font-size="10.00">#</text>
<text xml:space="preserve" text-anchor="start" x="97.75" y="-378.5" font-family="Helvetica,sans-Serif" font-size="10.00">TObjectPtr&lt; UKPTBaseAttribute</text>
<text xml:space="preserve" text-anchor="start" x="97.75" y="-366.5" font-family="Helvetica,sans-Serif" font-size="10.00">Set &gt; MonsterAttributeSet</text>
<text xml:space="preserve" text-anchor="start" x="88.12" y="-350.5" font-family="Helvetica,sans-Serif" font-size="10.00">#</text>
<text xml:space="preserve" text-anchor="start" x="97.75" y="-350.5" font-family="Helvetica,sans-Serif" font-size="10.00">TObjectPtr&lt; USkeletalMesh</text>
<text xml:space="preserve" text-anchor="start" x="97.75" y="-338.5" font-family="Helvetica,sans-Serif" font-size="10.00">Component &gt; SkeletalMesh</text>
<text xml:space="preserve" text-anchor="start" x="88.12" y="-322.5" font-family="Helvetica,sans-Serif" font-size="10.00">#</text>
<text xml:space="preserve" text-anchor="start" x="97.75" y="-322.5" font-family="Helvetica,sans-Serif" font-size="10.00">TObjectPtr&lt; USphereComponent</text>
<text xml:space="preserve" text-anchor="start" x="97.75" y="-310.5" font-family="Helvetica,sans-Serif" font-size="10.00"> &gt; SphereComponent</text>
<text xml:space="preserve" text-anchor="start" x="88.12" y="-294.5" font-family="Helvetica,sans-Serif" font-size="10.00">#</text>
<text xml:space="preserve" text-anchor="start" x="97.75" y="-294.5" font-family="Helvetica,sans-Serif" font-size="10.00">TArray&lt; TSubclassOf</text>
<text xml:space="preserve" text-anchor="start" x="97.75" y="-282.5" font-family="Helvetica,sans-Serif" font-size="10.00">&lt; UGameplayAbility &gt;</text>
<text xml:space="preserve" text-anchor="start" x="97.75" y="-270.5" font-family="Helvetica,sans-Serif" font-size="10.00"> &gt; StartUpAbilities</text>
<text xml:space="preserve" text-anchor="start" x="87.75" y="-254.5" font-family="Helvetica,sans-Serif" font-size="10.00">+</text>
<text xml:space="preserve" text-anchor="start" x="97.75" y="-254.5" font-family="Helvetica,sans-Serif" font-size="10.00">AMonsterBase()</text>
<text xml:space="preserve" text-anchor="start" x="87.75" y="-238.5" font-family="Helvetica,sans-Serif" font-size="10.00">+</text>
<text xml:space="preserve" text-anchor="start" x="97.75" y="-238.5" font-family="Helvetica,sans-Serif" font-size="10.00">virtual void Damaged</text>
<text xml:space="preserve" text-anchor="start" x="97.75" y="-226.5" font-family="Helvetica,sans-Serif" font-size="10.00">() override</text>
<text xml:space="preserve" text-anchor="start" x="87.75" y="-210.5" font-family="Helvetica,sans-Serif" font-size="10.00">+</text>
<text xml:space="preserve" text-anchor="start" x="97.75" y="-210.5" font-family="Helvetica,sans-Serif" font-size="10.00">virtual void Damaged</text>
<text xml:space="preserve" text-anchor="start" x="97.75" y="-198.5" font-family="Helvetica,sans-Serif" font-size="10.00">(float DamageAmount,</text>
<text xml:space="preserve" text-anchor="start" x="97.75" y="-186.5" font-family="Helvetica,sans-Serif" font-size="10.00"> bool IsCritical) override</text>
<text xml:space="preserve" text-anchor="start" x="87.75" y="-170.5" font-family="Helvetica,sans-Serif" font-size="10.00">+</text>
<text xml:space="preserve" text-anchor="start" x="97.75" y="-170.5" font-family="Helvetica,sans-Serif" font-size="10.00">virtual void Deactivate()</text>
<text xml:space="preserve" text-anchor="start" x="87.75" y="-154.5" font-family="Helvetica,sans-Serif" font-size="10.00">+</text>
<text xml:space="preserve" text-anchor="start" x="97.75" y="-154.5" font-family="Helvetica,sans-Serif" font-size="10.00">virtual void Die(bool</text>
<text xml:space="preserve" text-anchor="start" x="97.75" y="-142.5" font-family="Helvetica,sans-Serif" font-size="10.00"> bStageEnded=false) override</text>
<text xml:space="preserve" text-anchor="start" x="87.75" y="-126.5" font-family="Helvetica,sans-Serif" font-size="10.00">+</text>
<text xml:space="preserve" text-anchor="start" x="97.75" y="-126.5" font-family="Helvetica,sans-Serif" font-size="10.00">virtual UAbilitySystemComponent</text>
<text xml:space="preserve" text-anchor="start" x="97.75" y="-114.5" font-family="Helvetica,sans-Serif" font-size="10.00"> * GetAbilitySystemComponent</text>
<text xml:space="preserve" text-anchor="start" x="97.75" y="-102.5" font-family="Helvetica,sans-Serif" font-size="10.00">() const override</text>
<text xml:space="preserve" text-anchor="start" x="87.75" y="-86.5" font-family="Helvetica,sans-Serif" font-size="10.00">+</text>
<text xml:space="preserve" text-anchor="start" x="97.75" y="-86.5" font-family="Helvetica,sans-Serif" font-size="10.00">virtual void Tick(float</text>
<text xml:space="preserve" text-anchor="start" x="97.75" y="-74.5" font-family="Helvetica,sans-Serif" font-size="10.00"> DeltaTime) override</text>
<text xml:space="preserve" text-anchor="start" x="88.12" y="-58.5" font-family="Helvetica,sans-Serif" font-size="10.00">#</text>
<text xml:space="preserve" text-anchor="start" x="97.75" y="-58.5" font-family="Helvetica,sans-Serif" font-size="10.00">virtual void BeginPlay</text>
<text xml:space="preserve" text-anchor="start" x="97.75" y="-46.5" font-family="Helvetica,sans-Serif" font-size="10.00">() override</text>
<text xml:space="preserve" text-anchor="start" x="88.12" y="-30.5" font-family="Helvetica,sans-Serif" font-size="10.00">#</text>
<text xml:space="preserve" text-anchor="start" x="97.75" y="-30.5" font-family="Helvetica,sans-Serif" font-size="10.00">virtual void ServerLogic</text>
<text xml:space="preserve" text-anchor="start" x="97.75" y="-18.5" font-family="Helvetica,sans-Serif" font-size="10.00">(float DeltaTime) PURE</text>
<text xml:space="preserve" text-anchor="start" x="97.75" y="-6.5" font-family="Helvetica,sans-Serif" font-size="10.00">_VIRTUAL()</text>
<polygon fill="#666666" stroke="#666666" points="83.75,-458 83.75,-458 274.25,-458 274.25,-458 83.75,-458"/>
<polygon fill="#666666" stroke="#666666" points="83.75,-266 83.75,-266 95.75,-266 95.75,-266 83.75,-266"/>
<polygon fill="#666666" stroke="#666666" points="95.75,-266 95.75,-266 274.25,-266 274.25,-266 95.75,-266"/>
<polygon fill="none" stroke="#666666" points="83.75,0 83.75,-476 274.25,-476 274.25,0 83.75,0"/>
</a>
</g>
</g>
<!-- Node2 -->
<g id="Node000002" class="node">
<title>Node2</title>
<g id="a_Node000002"><a xlink:title=" ">
<polygon fill="white" stroke="none" points="38,-598 0,-598 0,-546 38,-546 38,-598"/>
<text xml:space="preserve" text-anchor="start" x="4" y="-584.5" font-family="Helvetica,sans-Serif" font-size="10.00">AActor</text>
<text xml:space="preserve" text-anchor="start" x="17.5" y="-568.5" font-family="Helvetica,sans-Serif" font-size="10.00"> </text>
<text xml:space="preserve" text-anchor="start" x="17.5" y="-552.5" font-family="Helvetica,sans-Serif" font-size="10.00"> </text>
<polygon fill="#666666" stroke="#666666" points="0,-580 0,-580 38,-580 38,-580 0,-580"/>
<polygon fill="#666666" stroke="#666666" points="0,-564 0,-564 38,-564 38,-564 0,-564"/>
<polygon fill="none" stroke="#666666" points="0,-546 0,-598 38,-598 38,-546 0,-546"/>
</a>
</g>
</g>
<!-- Node2&#45;&gt;Node1 -->
<g id="edge1_Node000001_Node000002" class="edge">
<title>Node2&#45;&gt;Node1</title>
<g id="a_edge1_Node000001_Node000002"><a xlink:title=" ">
<path fill="none" stroke="#63b8ff" d="M35.7,-535.71C39.41,-527.89 43.33,-519.66 47,-512 58.88,-487.19 71.42,-461.14 83.84,-435.38"/>
<polygon fill="none" stroke="#63b8ff" points="32.59,-534.1 31.46,-544.64 38.91,-537.1 32.59,-534.1"/>
</a>
</g>
</g>
<!-- Node3 -->
<g id="Node000003" class="node">
<title>Node3</title>
<g id="a_Node000003"><a xlink:title=" ">
<polygon fill="white" stroke="none" points="166,-598 56,-598 56,-546 166,-546 166,-598"/>
<text xml:space="preserve" text-anchor="start" x="60" y="-584.5" font-family="Helvetica,sans-Serif" font-size="10.00">IAbilitySystemInterface</text>
<text xml:space="preserve" text-anchor="start" x="109.5" y="-568.5" font-family="Helvetica,sans-Serif" font-size="10.00"> </text>
<text xml:space="preserve" text-anchor="start" x="109.5" y="-552.5" font-family="Helvetica,sans-Serif" font-size="10.00"> </text>
<polygon fill="#666666" stroke="#666666" points="56,-580 56,-580 166,-580 166,-580 56,-580"/>
<polygon fill="#666666" stroke="#666666" points="56,-564 56,-564 166,-564 166,-564 56,-564"/>
<polygon fill="none" stroke="#666666" points="56,-546 56,-598 166,-598 166,-546 56,-546"/>
</a>
</g>
</g>
<!-- Node3&#45;&gt;Node1 -->
<g id="edge2_Node000001_Node000003" class="edge">
<title>Node3&#45;&gt;Node1</title>
<g id="a_edge2_Node000001_Node000003"><a xlink:title=" ">
<path fill="none" stroke="#63b8ff" d="M118.35,-535.14C121.64,-519.06 125.83,-498.61 130.46,-475.99"/>
<polygon fill="none" stroke="#63b8ff" points="114.99,-534.06 116.41,-544.56 121.85,-535.47 114.99,-534.06"/>
</a>
</g>
</g>
<!-- Node4 -->
<g id="Node000004" class="node">
<title>Node4</title>
<g id="a_Node000004"><a xlink:href="class_i_combat_interface.html" target="_top" xlink:title=" ">
<polygon fill="white" stroke="none" points="311.75,-632 184.25,-632 184.25,-512 311.75,-512 311.75,-632"/>
<text xml:space="preserve" text-anchor="start" x="210.12" y="-618.5" font-family="Helvetica,sans-Serif" font-size="10.00">ICombatInterface</text>
<text xml:space="preserve" text-anchor="start" x="246.5" y="-602.5" font-family="Helvetica,sans-Serif" font-size="10.00"> </text>
<text xml:space="preserve" text-anchor="start" x="188.25" y="-586.5" font-family="Helvetica,sans-Serif" font-size="10.00">+</text>
<text xml:space="preserve" text-anchor="start" x="198.25" y="-586.5" font-family="Helvetica,sans-Serif" font-size="10.00">virtual void Damaged()=0</text>
<text xml:space="preserve" text-anchor="start" x="188.25" y="-570.5" font-family="Helvetica,sans-Serif" font-size="10.00">+</text>
<text xml:space="preserve" text-anchor="start" x="198.25" y="-570.5" font-family="Helvetica,sans-Serif" font-size="10.00">virtual void Damaged</text>
<text xml:space="preserve" text-anchor="start" x="198.25" y="-558.5" font-family="Helvetica,sans-Serif" font-size="10.00">(float DamageAmount,</text>
<text xml:space="preserve" text-anchor="start" x="198.25" y="-546.5" font-family="Helvetica,sans-Serif" font-size="10.00"> bool IsCritical)=0</text>
<text xml:space="preserve" text-anchor="start" x="188.25" y="-530.5" font-family="Helvetica,sans-Serif" font-size="10.00">+</text>
<text xml:space="preserve" text-anchor="start" x="198.25" y="-530.5" font-family="Helvetica,sans-Serif" font-size="10.00">virtual void Die(bool</text>
<text xml:space="preserve" text-anchor="start" x="198.25" y="-518.5" font-family="Helvetica,sans-Serif" font-size="10.00"> bStageEnded=false)=0</text>
<polygon fill="#666666" stroke="#666666" points="184.25,-614 184.25,-614 311.75,-614 311.75,-614 184.25,-614"/>
<polygon fill="#666666" stroke="#666666" points="184.25,-598 184.25,-598 311.75,-598 311.75,-598 184.25,-598"/>
<polygon fill="none" stroke="#666666" points="184.25,-512 184.25,-632 311.75,-632 311.75,-512 184.25,-512"/>
</a>
</g>
</g>
<!-- Node4&#45;&gt;Node1 -->
<g id="edge3_Node000001_Node000004" class="edge">
<title>Node4&#45;&gt;Node1</title>
<g id="a_edge3_Node000001_Node000004"><a xlink:title=" ">
<path fill="none" stroke="#63b8ff" d="M233.4,-500.77C231.76,-492.86 230.02,-484.51 228.22,-475.84"/>
<polygon fill="none" stroke="#63b8ff" points="229.97,-501.47 235.44,-510.55 236.83,-500.04 229.97,-501.47"/>
</a>
</g>
</g>
<!-- Node5 -->
<g id="Node000005" class="node">
<title>Node5</title>
<g id="a_Node000005"><a xlink:href="class_i_k_p_t_pausable_interface.html" target="_top" xlink:title=" ">
<polygon fill="white" stroke="none" points="438.62,-598 329.38,-598 329.38,-546 438.62,-546 438.62,-598"/>
<text xml:space="preserve" text-anchor="start" x="333.38" y="-584.5" font-family="Helvetica,sans-Serif" font-size="10.00">IKPTPausableInterface</text>
<text xml:space="preserve" text-anchor="start" x="382.5" y="-568.5" font-family="Helvetica,sans-Serif" font-size="10.00"> </text>
<text xml:space="preserve" text-anchor="start" x="382.5" y="-552.5" font-family="Helvetica,sans-Serif" font-size="10.00"> </text>
<polygon fill="#666666" stroke="#666666" points="329.38,-580 329.38,-580 438.62,-580 438.62,-580 329.38,-580"/>
<polygon fill="#666666" stroke="#666666" points="329.38,-564 329.38,-564 438.62,-564 438.62,-564 329.38,-564"/>
<polygon fill="none" stroke="#666666" points="329.38,-546 329.38,-598 438.62,-598 438.62,-546 329.38,-546"/>
</a>
</g>
</g>
<!-- Node5&#45;&gt;Node1 -->
<g id="edge4_Node000001_Node000005" class="edge">
<title>Node5&#45;&gt;Node1</title>
<g id="a_edge4_Node000001_Node000005"><a xlink:title=" ">
<path fill="none" stroke="#63b8ff" d="M362.69,-536.49C341.45,-502.08 307.3,-446.78 274.17,-393.13"/>
<polygon fill="none" stroke="#63b8ff" points="359.56,-538.09 367.8,-544.76 365.52,-534.41 359.56,-538.09"/>
</a>
</g>
</g>
</g>
</svg>

<g id="navigator" transform="translate(0 0)" fill="#404254">
  <rect fill="#f2f5e9" fill-opacity="0.5" stroke="#606060" stroke-width=".5" x="0" y="0" width="60" height="60"/>
  <use id="zoomplus" xlink:href="#zoomPlus" x="17" y="9" onmousedown="handleZoom(evt,'in')"/>
  <use id="zoomminus" xlink:href="#zoomMin" x="42" y="9" onmousedown="handleZoom(evt,'out')"/>
  <use id="reset" xlink:href="#resetDef" x="30" y="36" onmousedown="handleReset()"/>
   <use id="arrowup" xlink:href="#arrowUp" x="0" y="0" onmousedown="handlePan(0,-1)"/>
  <use id="arrowright" xlink:href="#arrowRight" x="0" y="0" onmousedown="handlePan(1,0)"/>
  <use id="arrowdown" xlink:href="#arrowDown" x="0" y="0" onmousedown="handlePan(0,1)"/>
  <use id="arrowleft" xlink:href="#arrowLeft" x="0" y="0" onmousedown="handlePan(-1,0)"/>
</g>
<svg viewBox="0 0 15 15" width="100%" height="30px" preserveAspectRatio="xMaxYMin meet">
 <g id="arrow_out" transform="scale(0.3 0.3)">
  <a xlink:href="class_a_monster_base__coll__graph_org.svg" target="_base">
   <rect id="button" ry="5" rx="5" y="6" x="6" height="38" width="38"
        fill="#f2f5e9" fill-opacity="0.5" stroke="#606060" stroke-width="1.0"/>
   <path id="arrow"
     d="M 11.500037,31.436501 C 11.940474,20.09759 22.043105,11.32322 32.158766,21.979434 L 37.068811,17.246167 C 37.068811,17.246167 37.088388,32 37.088388,32 L 22.160133,31.978069 C 22.160133,31.978069 26.997745,27.140456 26.997745,27.140456 C 18.528582,18.264221 13.291696,25.230495 11.500037,31.436501 z"
     style="fill:#404040;"/>
  </a>
 </g>
</svg>

<style type='text/css'>
<![CDATA[
[data-mouse-over-selected='false'] { opacity: 0.7; }
[data-mouse-over-selected='true']  { opacity: 1.0; }
]]>
</style>
<script type="application/ecmascript"><![CDATA[
document.addEventListener('DOMContentLoaded', (event) => {
  highlightEdges();
  highlightAdjacentNodes();
});
]]></script>
</svg>
