<?xml version="1.0" encoding="UTF-8" standalone="no"?>
<!DOCTYPE svg PUBLIC "-//W3C//DTD SVG 1.1//EN"
 "http://www.w3.org/Graphics/SVG/1.1/DTD/svg11.dtd">
<!-- Generated by graphviz version 13.1.1 (20250719.2154)
 -->
<!-- Title: UMMC_ItemModifier Pages: 1 -->
<svg width="180pt" height="184pt"
 viewBox="0.00 0.00 180.00 184.00" xmlns="http://www.w3.org/2000/svg" xmlns:xlink="http://www.w3.org/1999/xlink">

<svg id="main" version="1.1" xmlns="http://www.w3.org/2000/svg" xmlns:xlink="http://www.w3.org/1999/xlink" xml:space="preserve">

<style type="text/css"><![CDATA[
.node, .edge {opacity: 0.7;}
.node.selected, .edge.selected {opacity: 1;}
.edge:hover path { stroke: red; }
.edge:hover polygon { stroke: red; fill: red; }
]]></style>
<script type="application/ecmascript" xlink:href="svg.min.js"/>
<svg id="graph" class="graph">
<g id="graph0" class="graph" transform="scale(1 1) rotate(0) translate(4 180)">
<title>UMMC_ItemModifier</title>
<!-- Node1 -->
<g id="Node000001" class="node">
<title>Node1</title>
<g id="a_Node000001"><a xlink:title=" ">
<polygon fill="#999999" stroke="none" points="159.25,-88 13,-88 13,0 159.25,0 159.25,-88"/>
<text xml:space="preserve" text-anchor="start" x="40.75" y="-74.5" font-family="Helvetica,sans-Serif" font-size="10.00">UMMC_ItemModifier</text>
<text xml:space="preserve" text-anchor="start" x="84.62" y="-58.5" font-family="Helvetica,sans-Serif" font-size="10.00"> </text>
<text xml:space="preserve" text-anchor="start" x="17" y="-42.5" font-family="Helvetica,sans-Serif" font-size="10.00">+</text>
<text xml:space="preserve" text-anchor="start" x="27" y="-42.5" font-family="Helvetica,sans-Serif" font-size="10.00">virtual float CalculateBase</text>
<text xml:space="preserve" text-anchor="start" x="27" y="-30.5" font-family="Helvetica,sans-Serif" font-size="10.00">Magnitude_Implementation</text>
<text xml:space="preserve" text-anchor="start" x="27" y="-18.5" font-family="Helvetica,sans-Serif" font-size="10.00">(const FGameplayEffectSpec</text>
<text xml:space="preserve" text-anchor="start" x="27" y="-6.5" font-family="Helvetica,sans-Serif" font-size="10.00"> &amp;Spec) const override</text>
<polygon fill="#666666" stroke="#666666" points="13,-70 13,-70 159.25,-70 159.25,-70 13,-70"/>
<polygon fill="#666666" stroke="#666666" points="13,-54 13,-54 159.25,-54 159.25,-54 13,-54"/>
<polygon fill="none" stroke="#666666" points="13,0 13,-88 159.25,-88 159.25,0 13,0"/>
</a>
</g>
</g>
<!-- Node2 -->
<g id="Node000002" class="node">
<title>Node2</title>
<g id="a_Node000002"><a xlink:title=" ">
<polygon fill="white" stroke="none" points="172.25,-176 0,-176 0,-124 172.25,-124 172.25,-176"/>
<text xml:space="preserve" text-anchor="start" x="4" y="-162.5" font-family="Helvetica,sans-Serif" font-size="10.00">UGameplayModMagnitudeCalculation</text>
<text xml:space="preserve" text-anchor="start" x="84.62" y="-146.5" font-family="Helvetica,sans-Serif" font-size="10.00"> </text>
<text xml:space="preserve" text-anchor="start" x="84.62" y="-130.5" font-family="Helvetica,sans-Serif" font-size="10.00"> </text>
<polygon fill="#666666" stroke="#666666" points="0,-158 0,-158 172.25,-158 172.25,-158 0,-158"/>
<polygon fill="#666666" stroke="#666666" points="0,-142 0,-142 172.25,-142 172.25,-142 0,-142"/>
<polygon fill="none" stroke="#666666" points="0,-124 0,-176 172.25,-176 172.25,-124 0,-124"/>
</a>
</g>
</g>
<!-- Node2&#45;&gt;Node1 -->
<g id="edge1_Node000001_Node000002" class="edge">
<title>Node2&#45;&gt;Node1</title>
<g id="a_edge1_Node000001_Node000002"><a xlink:title=" ">
<path fill="none" stroke="#63b8ff" d="M86.12,-112.84C86.12,-104.83 86.12,-96.25 86.12,-87.99"/>
<polygon fill="none" stroke="#63b8ff" points="82.63,-112.58 86.13,-122.58 89.63,-112.58 82.63,-112.58"/>
</a>
</g>
</g>
</g>
</svg>
</svg>

<style type='text/css'>
<![CDATA[
[data-mouse-over-selected='false'] { opacity: 0.7; }
[data-mouse-over-selected='true']  { opacity: 1.0; }
]]>
</style>
<script type="application/ecmascript"><![CDATA[
document.addEventListener('DOMContentLoaded', (event) => {
  highlightEdges();
  highlightAdjacentNodes();
});
]]></script>
</svg>
