<?xml version="1.0" encoding="UTF-8" standalone="no"?>
<!DOCTYPE svg PUBLIC "-//W3C//DTD SVG 1.1//EN"
 "http://www.w3.org/Graphics/SVG/1.1/DTD/svg11.dtd">
<!-- Generated by graphviz version 13.1.1 (20250719.2154)
 -->
<!-- Title: USessionManagerSubsystem::DestroySession Pages: 1 -->
<svg width="337pt" height="108pt"
 viewBox="0.00 0.00 337.00 108.00" xmlns="http://www.w3.org/2000/svg" xmlns:xlink="http://www.w3.org/1999/xlink">
<g id="graph0" class="graph" transform="scale(1 1) rotate(0) translate(4 104)">
<title>USessionManagerSubsystem::DestroySession</title>
<!-- Node1 -->
<g id="Node000001" class="node">
<title>Node1</title>
<g id="a_Node000001"><a xlink:title=" ">
<polygon fill="#999999" stroke="#666666" points="329,-66 183.25,-66 183.25,-34 329,-34 329,-66"/>
<text xml:space="preserve" text-anchor="start" x="191.25" y="-52.5" font-family="Helvetica,sans-Serif" font-size="10.00">USessionManagerSubsystem</text>
<text xml:space="preserve" text-anchor="middle" x="256.12" y="-40.5" font-family="Helvetica,sans-Serif" font-size="10.00">::DestroySession</text>
</a>
</g>
</g>
<!-- Node2 -->
<g id="Node000002" class="node">
<title>Node2</title>
<g id="a_Node000002"><a xlink:href="class_u_k_p_t_game_instance.html#a247b843612f63e0a1d617dfb6e93aa9a" target="_top" xlink:title=" ">
<polygon fill="white" stroke="#666666" points="147.25,-100 0,-100 0,-68 147.25,-68 147.25,-100"/>
<text xml:space="preserve" text-anchor="start" x="8" y="-86.5" font-family="Helvetica,sans-Serif" font-size="10.00">UKPTGameInstance::Destroy</text>
<text xml:space="preserve" text-anchor="middle" x="73.62" y="-74.5" font-family="Helvetica,sans-Serif" font-size="10.00">Session</text>
</a>
</g>
</g>
<!-- Node1&#45;&gt;Node2 -->
<g id="edge1_Node000001_Node000002" class="edge">
<title>Node1&#45;&gt;Node2</title>
<g id="a_edge1_Node000001_Node000002"><a xlink:title=" ">
<path fill="none" stroke="#63b8ff" d="M171.95,-65.67C163.79,-67.2 155.56,-68.76 147.51,-70.27"/>
<polygon fill="#63b8ff" stroke="#63b8ff" points="172.34,-69.16 181.52,-63.86 171.05,-62.28 172.34,-69.16"/>
</a>
</g>
</g>
<!-- Node3 -->
<g id="Node000003" class="node">
<title>Node3</title>
<g id="a_Node000003"><a xlink:href="class_u_session_manager_subsystem.html#a1fd21ef6dd10342bfccc3db126ed5c4b" target="_top" xlink:title=" ">
<polygon fill="white" stroke="#666666" points="146.5,-32 0.75,-32 0.75,0 146.5,0 146.5,-32"/>
<text xml:space="preserve" text-anchor="start" x="8.75" y="-18.5" font-family="Helvetica,sans-Serif" font-size="10.00">USessionManagerSubsystem</text>
<text xml:space="preserve" text-anchor="middle" x="73.62" y="-6.5" font-family="Helvetica,sans-Serif" font-size="10.00">::KptCreateSession</text>
</a>
</g>
</g>
<!-- Node1&#45;&gt;Node3 -->
<g id="edge2_Node000001_Node000003" class="edge">
<title>Node1&#45;&gt;Node3</title>
<g id="a_edge2_Node000001_Node000003"><a xlink:title=" ">
<path fill="none" stroke="#63b8ff" d="M171.77,-34.3C163.47,-32.74 155.09,-31.16 146.92,-29.62"/>
<polygon fill="#63b8ff" stroke="#63b8ff" points="171.05,-37.72 181.52,-36.14 172.34,-30.84 171.05,-37.72"/>
</a>
</g>
</g>
<!-- Node3&#45;&gt;Node3 -->
<g id="edge3_Node000003_Node000003" class="edge">
<title>Node3&#45;&gt;Node3</title>
<g id="a_edge3_Node000003_Node000003"><a xlink:title=" ">
<path fill="none" stroke="#63b8ff" d="M104.04,-43.71C98.97,-47.48 88.83,-50 73.62,-50 45.82,-50 34.96,-41.58 41.04,-32.44"/>
<polygon fill="#63b8ff" stroke="#63b8ff" points="107.47,-44.41 105.92,-33.93 100.59,-43.09 107.47,-44.41"/>
</a>
</g>
</g>
</g>
</svg>
