<?xml version="1.0" encoding="UTF-8" standalone="no"?>
<!DOCTYPE svg PUBLIC "-//W3C//DTD SVG 1.1//EN"
 "http://www.w3.org/Graphics/SVG/1.1/DTD/svg11.dtd">
<!-- Generated by graphviz version 13.1.1 (20250719.2154)
 -->
<!-- Title: AGCN_SkillVFXManager Pages: 1 -->
<svg width="177pt" height="268pt"
 viewBox="0.00 0.00 177.00 268.00" xmlns="http://www.w3.org/2000/svg" xmlns:xlink="http://www.w3.org/1999/xlink">
<g id="graph0" class="graph" transform="scale(1 1) rotate(0) translate(4 264)">
<title>AGCN_SkillVFXManager</title>
<!-- Node1 -->
<g id="Node000001" class="node">
<title>Node1</title>
<g id="a_Node000001"><a xlink:title=" ">
<polygon fill="#999999" stroke="none" points="168.75,-160 0,-160 0,0 168.75,0 168.75,-160"/>
<text xml:space="preserve" text-anchor="start" x="29.25" y="-146.5" font-family="Helvetica,sans-Serif" font-size="10.00">AGCN_SkillVFXManager</text>
<text xml:space="preserve" text-anchor="start" x="4.38" y="-130.5" font-family="Helvetica,sans-Serif" font-size="10.00">#</text>
<text xml:space="preserve" text-anchor="start" x="14" y="-130.5" font-family="Helvetica,sans-Serif" font-size="10.00">TObjectPtr&lt; UDataTable</text>
<text xml:space="preserve" text-anchor="start" x="14" y="-118.5" font-family="Helvetica,sans-Serif" font-size="10.00"> &gt; VFXDataTable</text>
<text xml:space="preserve" text-anchor="start" x="4" y="-102.5" font-family="Helvetica,sans-Serif" font-size="10.00">+</text>
<text xml:space="preserve" text-anchor="start" x="14" y="-102.5" font-family="Helvetica,sans-Serif" font-size="10.00">AGCN_SkillVFXManager()</text>
<text xml:space="preserve" text-anchor="start" x="4" y="-86.5" font-family="Helvetica,sans-Serif" font-size="10.00">+</text>
<text xml:space="preserve" text-anchor="start" x="14" y="-86.5" font-family="Helvetica,sans-Serif" font-size="10.00">virtual void BeginPlay</text>
<text xml:space="preserve" text-anchor="start" x="14" y="-74.5" font-family="Helvetica,sans-Serif" font-size="10.00">() override</text>
<text xml:space="preserve" text-anchor="start" x="4.38" y="-58.5" font-family="Helvetica,sans-Serif" font-size="10.00">#</text>
<text xml:space="preserve" text-anchor="start" x="14" y="-58.5" font-family="Helvetica,sans-Serif" font-size="10.00">void LoadAsset()</text>
<text xml:space="preserve" text-anchor="start" x="4.38" y="-42.5" font-family="Helvetica,sans-Serif" font-size="10.00">#</text>
<text xml:space="preserve" text-anchor="start" x="14" y="-42.5" font-family="Helvetica,sans-Serif" font-size="10.00">virtual bool OnExecute</text>
<text xml:space="preserve" text-anchor="start" x="14" y="-30.5" font-family="Helvetica,sans-Serif" font-size="10.00">_Implementation(AActor</text>
<text xml:space="preserve" text-anchor="start" x="14" y="-18.5" font-family="Helvetica,sans-Serif" font-size="10.00"> *MyTarget, const FGameplayCue</text>
<text xml:space="preserve" text-anchor="start" x="14" y="-6.5" font-family="Helvetica,sans-Serif" font-size="10.00">Parameters &amp;Parameters) override</text>
<polygon fill="#666666" stroke="#666666" points="0,-142 0,-142 168.75,-142 168.75,-142 0,-142"/>
<polygon fill="#666666" stroke="#666666" points="0,-114 0,-114 12,-114 12,-114 0,-114"/>
<polygon fill="#666666" stroke="#666666" points="12,-114 12,-114 168.75,-114 168.75,-114 12,-114"/>
<polygon fill="none" stroke="#666666" points="0,0 0,-160 168.75,-160 168.75,0 0,0"/>
</a>
</g>
</g>
<!-- Node2 -->
<g id="Node000002" class="node">
<title>Node2</title>
<g id="a_Node000002"><a xlink:title=" ">
<polygon fill="white" stroke="none" points="136,-260 32.75,-260 32.75,-196 136,-196 136,-260"/>
<text xml:space="preserve" text-anchor="start" x="36.75" y="-246.5" font-family="Helvetica,sans-Serif" font-size="10.00">AGameplayCueNotify</text>
<text xml:space="preserve" text-anchor="start" x="70.12" y="-234.5" font-family="Helvetica,sans-Serif" font-size="10.00">_Actor</text>
<text xml:space="preserve" text-anchor="start" x="82.88" y="-218.5" font-family="Helvetica,sans-Serif" font-size="10.00"> </text>
<text xml:space="preserve" text-anchor="start" x="82.88" y="-202.5" font-family="Helvetica,sans-Serif" font-size="10.00"> </text>
<polygon fill="#666666" stroke="#666666" points="32.75,-230 32.75,-230 136,-230 136,-230 32.75,-230"/>
<polygon fill="#666666" stroke="#666666" points="32.75,-214 32.75,-214 136,-214 136,-214 32.75,-214"/>
<polygon fill="none" stroke="#666666" points="32.75,-196 32.75,-260 136,-260 136,-196 32.75,-196"/>
</a>
</g>
</g>
<!-- Node2&#45;&gt;Node1 -->
<g id="edge1_Node000001_Node000002" class="edge">
<title>Node2&#45;&gt;Node1</title>
<g id="a_edge1_Node000001_Node000002"><a xlink:title=" ">
<path fill="none" stroke="#63b8ff" d="M84.38,-184.68C84.38,-176.87 84.38,-168.48 84.38,-159.98"/>
<polygon fill="none" stroke="#63b8ff" points="80.88,-184.52 84.38,-194.52 87.88,-184.52 80.88,-184.52"/>
</a>
</g>
</g>
</g>
</svg>
