<?xml version="1.0" encoding="UTF-8" standalone="no"?>
<!DOCTYPE svg PUBLIC "-//W3C//DTD SVG 1.1//EN"
 "http://www.w3.org/Graphics/SVG/1.1/DTD/svg11.dtd">
<!-- Generated by graphviz version 13.1.1 (20250719.2154)
 -->
<!-- Title: UKPTCheatManager::RemoveItem Pages: 1 -->
<svg width="321pt" height="58pt"
 viewBox="0.00 0.00 321.00 58.00" xmlns="http://www.w3.org/2000/svg" xmlns:xlink="http://www.w3.org/1999/xlink">
<g id="graph0" class="graph" transform="scale(1 1) rotate(0) translate(4 54)">
<title>UKPTCheatManager::RemoveItem</title>
<!-- Node1 -->
<g id="Node000001" class="node">
<title>Node1</title>
<g id="a_Node000001"><a xlink:title=" ">
<polygon fill="#999999" stroke="#666666" points="169,-26 0,-26 0,-6 169,-6 169,-26"/>
<text xml:space="preserve" text-anchor="middle" x="84.5" y="-12.5" font-family="Helvetica,sans-Serif" font-size="10.00">UKPTCheatManager::RemoveItem</text>
</a>
</g>
</g>
<!-- Node2 -->
<g id="Node000002" class="node">
<title>Node2</title>
<g id="a_Node000002"><a xlink:href="class_u_inventory_manager.html#a3b3f70075ad63d4e9a454068ac6d26b9" target="_top" xlink:title=" ">
<polygon fill="white" stroke="#666666" points="312.5,-32 205,-32 205,0 312.5,0 312.5,-32"/>
<text xml:space="preserve" text-anchor="start" x="213" y="-18.5" font-family="Helvetica,sans-Serif" font-size="10.00">UInventoryManager::</text>
<text xml:space="preserve" text-anchor="middle" x="258.75" y="-6.5" font-family="Helvetica,sans-Serif" font-size="10.00">ServerRemoveItem</text>
</a>
</g>
</g>
<!-- Node1&#45;&gt;Node2 -->
<g id="edge1_Node000001_Node000002" class="edge">
<title>Node1&#45;&gt;Node2</title>
<g id="a_edge1_Node000001_Node000002"><a xlink:title=" ">
<path fill="none" stroke="#63b8ff" d="M169.35,-16C177.4,-16 185.48,-16 193.3,-16"/>
<polygon fill="#63b8ff" stroke="#63b8ff" points="193.02,-19.5 203.02,-16 193.02,-12.5 193.02,-19.5"/>
</a>
</g>
</g>
<!-- Node2&#45;&gt;Node2 -->
<g id="edge2_Node000002_Node000002" class="edge">
<title>Node2&#45;&gt;Node2</title>
<g id="a_edge2_Node000002_Node000002"><a xlink:title=" ">
<path fill="none" stroke="#63b8ff" d="M227.64,-32.44C221.83,-41.58 232.2,-50 258.75,-50 273.27,-50 282.95,-47.48 287.79,-43.71"/>
<polygon fill="#63b8ff" stroke="#63b8ff" points="291.22,-44.4 289.58,-33.93 284.33,-43.13 291.22,-44.4"/>
</a>
</g>
</g>
</g>
</svg>
