<?xml version="1.0" encoding="UTF-8" standalone="no"?>
<!DOCTYPE svg PUBLIC "-//W3C//DTD SVG 1.1//EN"
 "http://www.w3.org/Graphics/SVG/1.1/DTD/svg11.dtd">
<!-- Generated by graphviz version 13.1.1 (20250719.2154)
 -->
<!-- Title: UPauseUI::HandleClickedResume Pages: 1 -->
<svg width="725pt" height="128pt"
 viewBox="0.00 0.00 725.00 128.00" xmlns="http://www.w3.org/2000/svg" xmlns:xlink="http://www.w3.org/1999/xlink">
<g id="graph0" class="graph" transform="scale(1 1) rotate(0) translate(4 124)">
<title>UPauseUI::HandleClickedResume</title>
<!-- Node1 -->
<g id="Node000001" class="node">
<title>Node1</title>
<g id="a_Node000001"><a xlink:title=" ">
<polygon fill="#999999" stroke="#666666" points="168.25,-70 0,-70 0,-50 168.25,-50 168.25,-70"/>
<text xml:space="preserve" text-anchor="middle" x="84.12" y="-56.5" font-family="Helvetica,sans-Serif" font-size="10.00">UPauseUI::HandleClickedResume</text>
</a>
</g>
</g>
<!-- Node2 -->
<g id="Node000002" class="node">
<title>Node2</title>
<g id="a_Node000002"><a xlink:href="class_u_u_i_manager_subsystem.html#aed4b9c08eec4848386a3a89108827ffd" target="_top" xlink:title=" ">
<polygon fill="white" stroke="#666666" points="369.5,-120 214.75,-120 214.75,-88 369.5,-88 369.5,-120"/>
<text xml:space="preserve" text-anchor="start" x="222.75" y="-106.5" font-family="Helvetica,sans-Serif" font-size="10.00">UUIManagerSubsystem</text>
<text xml:space="preserve" text-anchor="middle" x="292.12" y="-94.5" font-family="Helvetica,sans-Serif" font-size="10.00">::GetSingletonWidgetInstanceId</text>
</a>
</g>
</g>
<!-- Node1&#45;&gt;Node2 -->
<g id="edge1_Node000001_Node000002" class="edge">
<title>Node1&#45;&gt;Node2</title>
<g id="a_edge1_Node000001_Node000002"><a xlink:title=" ">
<path fill="none" stroke="#63b8ff" d="M134.21,-70.48C154.96,-74.92 179.78,-80.22 203.49,-85.28"/>
<polygon fill="#63b8ff" stroke="#63b8ff" points="202.66,-88.68 213.17,-87.35 204.12,-81.84 202.66,-88.68"/>
</a>
</g>
</g>
<!-- Node3 -->
<g id="Node000003" class="node">
<title>Node3</title>
<g id="a_Node000003"><a xlink:href="class_u_u_i_base.html#a7db928b8721c8dede4954eed8695c0e4" target="_top" xlink:title=" ">
<polygon fill="white" stroke="#666666" points="380,-70 204.25,-70 204.25,-50 380,-50 380,-70"/>
<text xml:space="preserve" text-anchor="middle" x="292.12" y="-56.5" font-family="Helvetica,sans-Serif" font-size="10.00">UUIBase::GetUIManagerSubsystem</text>
</a>
</g>
</g>
<!-- Node1&#45;&gt;Node3 -->
<g id="edge2_Node000001_Node000003" class="edge">
<title>Node1&#45;&gt;Node3</title>
<g id="a_edge2_Node000001_Node000003"><a xlink:title=" ">
<path fill="none" stroke="#63b8ff" d="M168.62,-60C176.5,-60 184.54,-60 192.55,-60"/>
<polygon fill="#63b8ff" stroke="#63b8ff" points="192.31,-63.5 202.31,-60 192.31,-56.5 192.31,-63.5"/>
</a>
</g>
</g>
<!-- Node4 -->
<g id="Node000004" class="node">
<title>Node4</title>
<g id="a_Node000004"><a xlink:href="class_u_u_i_manager_subsystem.html#a1e0415f5fab1f4658e1aee52f1ee1a0b" target="_top" xlink:title="지정된 인스턴스 ID의 위젯을 화면에서 숨깁니다.">
<polygon fill="white" stroke="#666666" points="352.62,-32 231.62,-32 231.62,0 352.62,0 352.62,-32"/>
<text xml:space="preserve" text-anchor="start" x="239.62" y="-18.5" font-family="Helvetica,sans-Serif" font-size="10.00">UUIManagerSubsystem</text>
<text xml:space="preserve" text-anchor="middle" x="292.12" y="-6.5" font-family="Helvetica,sans-Serif" font-size="10.00">::HideWidget</text>
</a>
</g>
</g>
<!-- Node1&#45;&gt;Node4 -->
<g id="edge3_Node000001_Node000004" class="edge">
<title>Node1&#45;&gt;Node4</title>
<g id="a_edge3_Node000001_Node000004"><a xlink:title=" ">
<path fill="none" stroke="#63b8ff" d="M134.21,-49.52C159.94,-44.02 191.94,-37.18 220.31,-31.12"/>
<polygon fill="#63b8ff" stroke="#63b8ff" points="220.87,-34.59 229.92,-29.07 219.41,-27.74 220.87,-34.59"/>
</a>
</g>
</g>
<!-- Node5 -->
<g id="Node000005" class="node">
<title>Node5</title>
<g id="a_Node000005"><a xlink:href="class_u_u_i_manager_subsystem.html#acaac8367f6b3ad4c0509900d7f01b65a" target="_top" xlink:title=" ">
<polygon fill="white" stroke="#666666" points="559.5,-32 416,-32 416,0 559.5,0 559.5,-32"/>
<text xml:space="preserve" text-anchor="start" x="424" y="-18.5" font-family="Helvetica,sans-Serif" font-size="10.00">UUIManagerSubsystem</text>
<text xml:space="preserve" text-anchor="middle" x="487.75" y="-6.5" font-family="Helvetica,sans-Serif" font-size="10.00">::UpdateInputModeAndFocus</text>
</a>
</g>
</g>
<!-- Node4&#45;&gt;Node5 -->
<g id="edge4_Node000004_Node000005" class="edge">
<title>Node4&#45;&gt;Node5</title>
<g id="a_edge4_Node000004_Node000005"><a xlink:title=" ">
<path fill="none" stroke="#63b8ff" d="M353.06,-16C369.28,-16 387.12,-16 404.34,-16"/>
<polygon fill="#63b8ff" stroke="#63b8ff" points="404.03,-19.5 414.03,-16 404.03,-12.5 404.03,-19.5"/>
</a>
</g>
</g>
<!-- Node6 -->
<g id="Node000006" class="node">
<title>Node6</title>
<g id="a_Node000006"><a xlink:href="class_u_u_i_manager_subsystem.html#a6c815ab68107e8e616ddb62dd3391d2c" target="_top" xlink:title=" ">
<polygon fill="white" stroke="#666666" points="716.5,-32 595.5,-32 595.5,0 716.5,0 716.5,-32"/>
<text xml:space="preserve" text-anchor="start" x="603.5" y="-18.5" font-family="Helvetica,sans-Serif" font-size="10.00">UUIManagerSubsystem</text>
<text xml:space="preserve" text-anchor="middle" x="656" y="-6.5" font-family="Helvetica,sans-Serif" font-size="10.00">::SetUIInputMode</text>
</a>
</g>
</g>
<!-- Node5&#45;&gt;Node6 -->
<g id="edge5_Node000005_Node000006" class="edge">
<title>Node5&#45;&gt;Node6</title>
<g id="a_edge5_Node000005_Node000006"><a xlink:title=" ">
<path fill="none" stroke="#63b8ff" d="M559.74,-16C567.68,-16 575.78,-16 583.73,-16"/>
<polygon fill="#63b8ff" stroke="#63b8ff" points="583.72,-19.5 593.72,-16 583.72,-12.5 583.72,-19.5"/>
</a>
</g>
</g>
</g>
</svg>
