<?xml version="1.0" encoding="UTF-8" standalone="no"?>
<!DOCTYPE svg PUBLIC "-//W3C//DTD SVG 1.1//EN"
 "http://www.w3.org/Graphics/SVG/1.1/DTD/svg11.dtd">
<!-- Generated by graphviz version 13.1.1 (20250719.2154)
 -->
<!-- Title: UUIManagerSubsystem::BindPlayerStateAndGameState Pages: 1 -->
<svg width="481pt" height="90pt"
 viewBox="0.00 0.00 481.00 90.00" xmlns="http://www.w3.org/2000/svg" xmlns:xlink="http://www.w3.org/1999/xlink">
<g id="graph0" class="graph" transform="scale(1 1) rotate(0) translate(4 86)">
<title>UUIManagerSubsystem::BindPlayerStateAndGameState</title>
<!-- Node1 -->
<g id="Node000001" class="node">
<title>Node1</title>
<g id="a_Node000001"><a xlink:title=" ">
<polygon fill="#999999" stroke="#666666" points="473.25,-57 314,-57 314,-25 473.25,-25 473.25,-57"/>
<text xml:space="preserve" text-anchor="start" x="322" y="-43.5" font-family="Helvetica,sans-Serif" font-size="10.00">UUIManagerSubsystem</text>
<text xml:space="preserve" text-anchor="middle" x="393.62" y="-31.5" font-family="Helvetica,sans-Serif" font-size="10.00">::BindPlayerStateAndGameState</text>
</a>
</g>
</g>
<!-- Node2 -->
<g id="Node000002" class="node">
<title>Node2</title>
<g id="a_Node000002"><a xlink:href="class_u_u_i_manager_subsystem.html#ae786dee1d051999eb3e98960d96a39d4" target="_top" xlink:title=" ">
<polygon fill="white" stroke="#666666" points="278,-82 157,-82 157,-50 278,-50 278,-82"/>
<text xml:space="preserve" text-anchor="start" x="165" y="-68.5" font-family="Helvetica,sans-Serif" font-size="10.00">UUIManagerSubsystem</text>
<text xml:space="preserve" text-anchor="middle" x="217.5" y="-56.5" font-family="Helvetica,sans-Serif" font-size="10.00">::InitializeForPlayer</text>
</a>
</g>
</g>
<!-- Node1&#45;&gt;Node2 -->
<g id="edge1_Node000001_Node000002" class="edge">
<title>Node1&#45;&gt;Node2</title>
<g id="a_edge1_Node000001_Node000002"><a xlink:title=" ">
<path fill="none" stroke="#63b8ff" d="M302.55,-53.93C294.35,-55.11 286.19,-56.28 278.36,-57.41"/>
<polygon fill="#63b8ff" stroke="#63b8ff" points="302.81,-57.43 312.22,-52.54 301.82,-50.5 302.81,-57.43"/>
</a>
</g>
</g>
<!-- Node3 -->
<g id="Node000003" class="node">
<title>Node3</title>
<g id="a_Node000003"><a xlink:href="class_u_u_i_manager_subsystem.html#a8199a73ecef396d77dc15b4049ad7491" target="_top" xlink:title=" ">
<polygon fill="white" stroke="#666666" points="278,-32 157,-32 157,0 278,0 278,-32"/>
<text xml:space="preserve" text-anchor="start" x="165" y="-18.5" font-family="Helvetica,sans-Serif" font-size="10.00">UUIManagerSubsystem</text>
<text xml:space="preserve" text-anchor="middle" x="217.5" y="-6.5" font-family="Helvetica,sans-Serif" font-size="10.00">::OnChangeLevel</text>
</a>
</g>
</g>
<!-- Node1&#45;&gt;Node3 -->
<g id="edge2_Node000001_Node000003" class="edge">
<title>Node1&#45;&gt;Node3</title>
<g id="a_edge2_Node000001_Node000003"><a xlink:title=" ">
<path fill="none" stroke="#63b8ff" d="M302.55,-28.07C294.35,-26.89 286.19,-25.72 278.36,-24.59"/>
<polygon fill="#63b8ff" stroke="#63b8ff" points="301.82,-31.5 312.22,-29.46 302.81,-24.57 301.82,-31.5"/>
</a>
</g>
</g>
<!-- Node4 -->
<g id="Node000004" class="node">
<title>Node4</title>
<g id="a_Node000004"><a xlink:href="class_u_u_i_manager_subsystem.html#a0ece8b5888a4cfe5b70f308dcfb28478" target="_top" xlink:title=" ">
<polygon fill="white" stroke="#666666" points="121,-32 0,-32 0,0 121,0 121,-32"/>
<text xml:space="preserve" text-anchor="start" x="8" y="-18.5" font-family="Helvetica,sans-Serif" font-size="10.00">UUIManagerSubsystem</text>
<text xml:space="preserve" text-anchor="middle" x="60.5" y="-6.5" font-family="Helvetica,sans-Serif" font-size="10.00">::SetupInitialUI</text>
</a>
</g>
</g>
<!-- Node3&#45;&gt;Node4 -->
<g id="edge3_Node000003_Node000004" class="edge">
<title>Node3&#45;&gt;Node4</title>
<g id="a_edge3_Node000003_Node000004"><a xlink:title=" ">
<path fill="none" stroke="#63b8ff" d="M145.31,-16C137.27,-16 129.14,-16 121.27,-16"/>
<polygon fill="#63b8ff" stroke="#63b8ff" points="145.06,-19.5 155.06,-16 145.06,-12.5 145.06,-19.5"/>
</a>
</g>
</g>
</g>
</svg>
