<?xml version="1.0" encoding="UTF-8" standalone="no"?>
<!DOCTYPE svg PUBLIC "-//W3C//DTD SVG 1.1//EN"
 "http://www.w3.org/Graphics/SVG/1.1/DTD/svg11.dtd">
<!-- Generated by graphviz version 13.1.1 (20250719.2154)
 -->
<!-- Title: AKPTGameMode Pages: 1 -->
<svg width="109pt" height="148pt"
 viewBox="0.00 0.00 109.00 148.00" xmlns="http://www.w3.org/2000/svg" xmlns:xlink="http://www.w3.org/1999/xlink">
<g id="graph0" class="graph" transform="scale(1 1) rotate(0) translate(4 144)">
<title>AKPTGameMode</title>
<!-- Node1 -->
<g id="Node000001" class="node">
<title>Node1</title>
<g id="a_Node000001"><a xlink:title=" ">
<polygon fill="#999999" stroke="none" points="100.5,-52 0,-52 0,0 100.5,0 100.5,-52"/>
<text xml:space="preserve" text-anchor="start" x="12" y="-38.5" font-family="Helvetica,sans-Serif" font-size="10.00">AKPTGameMode</text>
<text xml:space="preserve" text-anchor="start" x="48.75" y="-22.5" font-family="Helvetica,sans-Serif" font-size="10.00"> </text>
<text xml:space="preserve" text-anchor="start" x="4" y="-6.5" font-family="Helvetica,sans-Serif" font-size="10.00">+</text>
<text xml:space="preserve" text-anchor="start" x="14" y="-6.5" font-family="Helvetica,sans-Serif" font-size="10.00">AKPTGameMode()</text>
<polygon fill="#666666" stroke="#666666" points="0,-34 0,-34 100.5,-34 100.5,-34 0,-34"/>
<polygon fill="#666666" stroke="#666666" points="0,-18 0,-18 100.5,-18 100.5,-18 0,-18"/>
<polygon fill="none" stroke="#666666" points="0,0 0,-52 100.5,-52 100.5,0 0,0"/>
</a>
</g>
</g>
<!-- Node2 -->
<g id="Node000002" class="node">
<title>Node2</title>
<g id="a_Node000002"><a xlink:title=" ">
<polygon fill="white" stroke="none" points="94,-140 6.5,-140 6.5,-88 94,-88 94,-140"/>
<text xml:space="preserve" text-anchor="start" x="10.5" y="-126.5" font-family="Helvetica,sans-Serif" font-size="10.00">AGameModeBase</text>
<text xml:space="preserve" text-anchor="start" x="48.75" y="-110.5" font-family="Helvetica,sans-Serif" font-size="10.00"> </text>
<text xml:space="preserve" text-anchor="start" x="48.75" y="-94.5" font-family="Helvetica,sans-Serif" font-size="10.00"> </text>
<polygon fill="#666666" stroke="#666666" points="6.5,-122 6.5,-122 94,-122 94,-122 6.5,-122"/>
<polygon fill="#666666" stroke="#666666" points="6.5,-106 6.5,-106 94,-106 94,-106 6.5,-106"/>
<polygon fill="none" stroke="#666666" points="6.5,-88 6.5,-140 94,-140 94,-88 6.5,-88"/>
</a>
</g>
</g>
<!-- Node2&#45;&gt;Node1 -->
<g id="edge1_Node000001_Node000002" class="edge">
<title>Node2&#45;&gt;Node1</title>
<g id="a_edge1_Node000001_Node000002"><a xlink:title=" ">
<path fill="none" stroke="#63b8ff" d="M50.25,-76.66C50.25,-68.29 50.25,-59.57 50.25,-51.82"/>
<polygon fill="none" stroke="#63b8ff" points="46.75,-76.61 50.25,-86.61 53.75,-76.61 46.75,-76.61"/>
</a>
</g>
</g>
</g>
</svg>
