<?xml version="1.0" encoding="UTF-8" standalone="no"?>
<!DOCTYPE svg PUBLIC "-//W3C//DTD SVG 1.1//EN"
 "http://www.w3.org/Graphics/SVG/1.1/DTD/svg11.dtd">
<!-- Generated by graphviz version 13.1.1 (20250719.2154)
 -->
<!-- Title: APlayerCharacter::Server_UpdateRotation Pages: 1 -->
<svg width="290pt" height="58pt"
 viewBox="0.00 0.00 290.00 58.00" xmlns="http://www.w3.org/2000/svg" xmlns:xlink="http://www.w3.org/1999/xlink">
<g id="graph0" class="graph" transform="scale(1 1) rotate(0) translate(4 54)">
<title>APlayerCharacter::Server_UpdateRotation</title>
<!-- Node1 -->
<g id="Node000001" class="node">
<title>Node1</title>
<g id="a_Node000001"><a xlink:title=" ">
<polygon fill="#999999" stroke="#666666" points="281.75,-32 154,-32 154,0 281.75,0 281.75,-32"/>
<text xml:space="preserve" text-anchor="start" x="162" y="-18.5" font-family="Helvetica,sans-Serif" font-size="10.00">APlayerCharacter::Server</text>
<text xml:space="preserve" text-anchor="middle" x="217.88" y="-6.5" font-family="Helvetica,sans-Serif" font-size="10.00">_UpdateRotation</text>
</a>
</g>
</g>
<!-- Node1&#45;&gt;Node1 -->
<g id="edge1_Node000001_Node000001" class="edge">
<title>Node1&#45;&gt;Node1</title>
<g id="a_edge1_Node000001_Node000001"><a xlink:title=" ">
<path fill="none" stroke="#63b8ff" d="M244.35,-43.71C239.94,-47.48 231.11,-50 217.88,-50 193.67,-50 184.22,-41.58 189.51,-32.44"/>
<polygon fill="#63b8ff" stroke="#63b8ff" points="247.79,-44.38 245.99,-33.94 240.88,-43.22 247.79,-44.38"/>
</a>
</g>
</g>
<!-- Node2 -->
<g id="Node000002" class="node">
<title>Node2</title>
<g id="a_Node000002"><a xlink:href="class_a_player_character.html#aa004cab44548a13b86956fd2d922160a" target="_top" xlink:title=" ">
<polygon fill="white" stroke="#666666" points="118,-26 0,-26 0,-6 118,-6 118,-26"/>
<text xml:space="preserve" text-anchor="middle" x="59" y="-12.5" font-family="Helvetica,sans-Serif" font-size="10.00">APlayerCharacter::Tick</text>
</a>
</g>
</g>
<!-- Node1&#45;&gt;Node2 -->
<g id="edge2_Node000001_Node000002" class="edge">
<title>Node1&#45;&gt;Node2</title>
<g id="a_edge2_Node000001_Node000002"><a xlink:title=" ">
<path fill="none" stroke="#63b8ff" d="M142.22,-16C134.17,-16 126.08,-16 118.27,-16"/>
<polygon fill="#63b8ff" stroke="#63b8ff" points="142.01,-19.5 152.01,-16 142.01,-12.5 142.01,-19.5"/>
</a>
</g>
</g>
</g>
</svg>
