<?xml version="1.0" encoding="UTF-8" standalone="no"?>
<!DOCTYPE svg PUBLIC "-//W3C//DTD SVG 1.1//EN"
 "http://www.w3.org/Graphics/SVG/1.1/DTD/svg11.dtd">
<!-- Generated by graphviz version 13.1.1 (20250719.2154)
 -->
<!-- Title: AKPTPlayerState::GetRewardStateComponent Pages: 1 -->
<!--zoomable 310 -->

<svg id="main" version="1.1" xmlns="http://www.w3.org/2000/svg" xmlns:xlink="http://www.w3.org/1999/xlink" xml:space="preserve" onload="init(evt)">

<style type="text/css"><![CDATA[
.node, .edge {opacity: 0.7;}
.node.selected, .edge.selected {opacity: 1;}
.edge:hover path { stroke: red; }
.edge:hover polygon { stroke: red; fill: red; }
]]></style>

<defs>
  <circle id="rim" cx="0" cy="0" r="7"/>
  <circle id="rim2" cx="0" cy="0" r="3.5"/>
  <g id="zoomPlus">
    <use xlink:href="#rim" fill="#404040"><set attributeName="fill" to="#808080" begin="zoomplus.mouseover" end="zoomplus.mouseout"/></use>
    <path d="M-4,0h8M0,-4v8" fill="none" stroke="white" stroke-width="1.5" pointer-events="none"/>
  </g>
  <g id="zoomMin">
    <use xlink:href="#rim" fill="#404040"><set attributeName="fill" to="#808080" begin="zoomminus.mouseover" end="zoomminus.mouseout"/></use>
    <path d="M-4,0h8" fill="none" stroke="white" stroke-width="1.5" pointer-events="none"/>
  </g>
  <g id="arrowUp" transform="translate(30 24)">
    <use xlink:href="#rim"/>
    <path pointer-events="none" fill="none" stroke="white" stroke-width="1.5" d="M0,-3.0v7 M-2.5,-0.5L0,-3.0L2.5,-0.5"/>
  </g>
  <g id="arrowRight" transform="rotate(90) translate(36 -43)">
    <use xlink:href="#rim"/>
    <path pointer-events="none" fill="none" stroke="white" stroke-width="1.5" d="M0,-3.0v7 M-2.5,-0.5L0,-3.0L2.5,-0.5"/>
  </g>
  <g id="arrowDown" transform="rotate(180) translate(-30 -48)">
    <use xlink:href="#rim"/>
    <path pointer-events="none" fill="none" stroke="white" stroke-width="1.5" d="M0,-3.0v7 M-2.5,-0.5L0,-3.0L2.5,-0.5"/>
  </g>
  <g id="arrowLeft" transform="rotate(270) translate(-36 17)">
    <use xlink:href="#rim"/>
    <path pointer-events="none" fill="none" stroke="white" stroke-width="1.5" d="M0,-3.0v7 M-2.5,-0.5L0,-3.0L2.5,-0.5"/>
  </g>
  <g id="resetDef">
    <use xlink:href="#rim2" fill="#404040"><set attributeName="fill" to="#808080" begin="reset.mouseover" end="reset.mouseout"/></use>
  </g>
</defs>
<script type="application/ecmascript">
var viewWidth = 1764;
var viewHeight = 310;
var sectionId = 'dynsection-14';
</script>
<script type="application/ecmascript" xlink:href="svg.min.js"/>
<svg id="graph" class="graph">
<g id="viewport">
<title>AKPTPlayerState::GetRewardStateComponent</title>
<!-- Node1 -->
<g id="Node000001" class="node">
<title>Node1</title>
<g id="a_Node000001"><a xlink:title=" ">
<polygon fill="#999999" stroke="#666666" points="1755.75,-107 1607,-107 1607,-75 1755.75,-75 1755.75,-107"/>
<text xml:space="preserve" text-anchor="start" x="1615" y="-93.5" font-family="Helvetica,sans-Serif" font-size="10.00">AKPTPlayerState::GetReward</text>
<text xml:space="preserve" text-anchor="middle" x="1681.38" y="-81.5" font-family="Helvetica,sans-Serif" font-size="10.00">StateComponent</text>
</a>
</g>
</g>
<!-- Node1&#45;&gt;Node1 -->
<g id="edge1_Node000001_Node000001" class="edge">
<title>Node1&#45;&gt;Node1</title>
<g id="a_edge1_Node000001_Node000001"><a xlink:title=" ">
<path fill="none" stroke="#63b8ff" d="M1713.98,-118.71C1708.54,-122.48 1697.67,-125 1681.38,-125 1651.57,-125 1639.93,-116.58 1646.45,-107.44"/>
<polygon fill="#63b8ff" stroke="#63b8ff" points="1717.4,-119.43 1715.99,-108.92 1710.54,-118.01 1717.4,-119.43"/>
</a>
</g>
</g>
<!-- Node2 -->
<g id="Node000002" class="node">
<title>Node2</title>
<g id="a_Node000002"><a xlink:href="class_u_skill_slot_u_i.html#a767d282f328026f7c4ecf7df95201611" target="_top" xlink:title=" ">
<polygon fill="white" stroke="#666666" points="1557.5,-182 1414,-182 1414,-150 1557.5,-150 1557.5,-182"/>
<text xml:space="preserve" text-anchor="start" x="1422" y="-168.5" font-family="Helvetica,sans-Serif" font-size="10.00">USkillSlotUI::HandleFinished</text>
<text xml:space="preserve" text-anchor="middle" x="1485.75" y="-156.5" font-family="Helvetica,sans-Serif" font-size="10.00">OnClickedAnimation</text>
</a>
</g>
</g>
<!-- Node1&#45;&gt;Node2 -->
<g id="edge2_Node000001_Node000002" class="edge">
<title>Node1&#45;&gt;Node2</title>
<g id="a_edge2_Node000001_Node000002"><a xlink:title=" ">
<path fill="none" stroke="#63b8ff" d="M1637.55,-112.27C1617.6,-121.73 1593.37,-132.61 1571,-141 1563,-144 1554.47,-146.88 1546.02,-149.56"/>
<polygon fill="#63b8ff" stroke="#63b8ff" points="1638.99,-115.46 1646.49,-107.98 1635.96,-109.15 1638.99,-115.46"/>
</a>
</g>
</g>
<!-- Node3 -->
<g id="Node000003" class="node">
<title>Node3</title>
<g id="a_Node000003"><a xlink:href="class_a_k_p_t_in_game_mode.html#ad299e138b605334f03841982928f4e6e" target="_top" xlink:title="특정 플레이어를 현재 게임 페이즈에 맞게 초기화합니다.">
<polygon fill="white" stroke="#666666" points="1557.12,-132 1414.38,-132 1414.38,-100 1557.12,-100 1557.12,-132"/>
<text xml:space="preserve" text-anchor="start" x="1422.38" y="-118.5" font-family="Helvetica,sans-Serif" font-size="10.00">AKPTInGameMode::Initialize</text>
<text xml:space="preserve" text-anchor="middle" x="1485.75" y="-106.5" font-family="Helvetica,sans-Serif" font-size="10.00">PlayerForCurrentPhase</text>
</a>
</g>
</g>
<!-- Node1&#45;&gt;Node3 -->
<g id="edge3_Node000001_Node000003" class="edge">
<title>Node1&#45;&gt;Node3</title>
<g id="a_edge3_Node000001_Node000003"><a xlink:title=" ">
<path fill="none" stroke="#63b8ff" d="M1595.54,-101.95C1582.81,-103.6 1569.81,-105.28 1557.42,-106.87"/>
<polygon fill="#63b8ff" stroke="#63b8ff" points="1595.65,-105.47 1605.12,-100.72 1594.75,-98.53 1595.65,-105.47"/>
</a>
</g>
</g>
<!-- Node18 -->
<g id="Node000018" class="node">
<title>Node18</title>
<g id="a_Node000018"><a xlink:href="class_u_reward_manager_subsystem.html#ab36a11449d65837284bb99e810471770" target="_top" xlink:title=" ">
<polygon fill="white" stroke="#666666" points="1571,-82 1400.5,-82 1400.5,-50 1571,-50 1571,-82"/>
<text xml:space="preserve" text-anchor="start" x="1408.5" y="-68.5" font-family="Helvetica,sans-Serif" font-size="10.00">URewardManagerSubsystem</text>
<text xml:space="preserve" text-anchor="middle" x="1485.75" y="-56.5" font-family="Helvetica,sans-Serif" font-size="10.00">::InitiateRewardSequenceForPlayer</text>
</a>
</g>
</g>
<!-- Node1&#45;&gt;Node18 -->
<g id="edge22_Node000001_Node000018" class="edge">
<title>Node1&#45;&gt;Node18</title>
<g id="a_edge22_Node000001_Node000018"><a xlink:title=" ">
<path fill="none" stroke="#63b8ff" d="M1595.41,-80.03C1587.41,-79 1579.31,-77.95 1571.31,-76.92"/>
<polygon fill="#63b8ff" stroke="#63b8ff" points="1594.75,-83.47 1605.12,-81.28 1595.65,-76.53 1594.75,-83.47"/>
</a>
</g>
</g>
<!-- Node19 -->
<g id="Node000019" class="node">
<title>Node19</title>
<g id="a_Node000019"><a xlink:href="class_a_k_p_t_in_game_mode.html#a7759d3555460c0b82e18efc45f771445" target="_top" xlink:title="플레이어가 카드 보상 선택을 마쳤을 때 RewardManagerSubsystem이 호출합니다.">
<polygon fill="white" stroke="#666666" points="1559.38,-32 1412.12,-32 1412.12,0 1559.38,0 1559.38,-32"/>
<text xml:space="preserve" text-anchor="start" x="1420.12" y="-18.5" font-family="Helvetica,sans-Serif" font-size="10.00">AKPTInGameMode::OnPlayer</text>
<text xml:space="preserve" text-anchor="middle" x="1485.75" y="-6.5" font-family="Helvetica,sans-Serif" font-size="10.00">FinishedRewardChoice</text>
</a>
</g>
</g>
<!-- Node1&#45;&gt;Node19 -->
<g id="edge23_Node000001_Node000019" class="edge">
<title>Node1&#45;&gt;Node19</title>
<g id="a_edge23_Node000001_Node000019"><a xlink:title=" ">
<path fill="none" stroke="#63b8ff" d="M1637.55,-69.73C1617.6,-60.27 1593.37,-49.39 1571,-41 1563,-38 1554.47,-35.12 1546.02,-32.44"/>
<polygon fill="#63b8ff" stroke="#63b8ff" points="1635.96,-72.85 1646.49,-74.02 1638.99,-66.54 1635.96,-72.85"/>
</a>
</g>
</g>
<!-- Node4 -->
<g id="Node000004" class="node">
<title>Node4</title>
<g id="a_Node000004"><a xlink:href="class_a_k_p_t_in_game_mode.html#aa4f70056d702908efb82a3a085b2d832" target="_top" xlink:title="주간 페이즈의 시작을 처리합니다.">
<polygon fill="white" stroke="#666666" points="1351.75,-182 1196.25,-182 1196.25,-150 1351.75,-150 1351.75,-182"/>
<text xml:space="preserve" text-anchor="start" x="1204.25" y="-168.5" font-family="Helvetica,sans-Serif" font-size="10.00">AKPTInGameMode::HandleDay</text>
<text xml:space="preserve" text-anchor="middle" x="1274" y="-156.5" font-family="Helvetica,sans-Serif" font-size="10.00">Phase</text>
</a>
</g>
</g>
<!-- Node3&#45;&gt;Node4 -->
<g id="edge4_Node000003_Node000004" class="edge">
<title>Node3&#45;&gt;Node4</title>
<g id="a_edge4_Node000003_Node000004"><a xlink:title=" ">
<path fill="none" stroke="#63b8ff" d="M1404.8,-135.06C1384.78,-139.83 1363.46,-144.91 1344.01,-149.55"/>
<polygon fill="#63b8ff" stroke="#63b8ff" points="1405.39,-138.52 1414.31,-132.79 1403.77,-131.71 1405.39,-138.52"/>
</a>
</g>
</g>
<!-- Node16 -->
<g id="Node000016" class="node">
<title>Node16</title>
<g id="a_Node000016"><a xlink:href="class_a_k_p_t_in_game_mode.html#ac4cacdaa16686d29b0f27a2dd65da50a" target="_top" xlink:title=" ">
<polygon fill="white" stroke="#666666" points="1364.5,-132 1183.5,-132 1183.5,-100 1364.5,-100 1364.5,-132"/>
<text xml:space="preserve" text-anchor="start" x="1191.5" y="-118.5" font-family="Helvetica,sans-Serif" font-size="10.00">AKPTInGameMode::HandleSeamless</text>
<text xml:space="preserve" text-anchor="middle" x="1274" y="-106.5" font-family="Helvetica,sans-Serif" font-size="10.00">TravelPlayer</text>
</a>
</g>
</g>
<!-- Node3&#45;&gt;Node16 -->
<g id="edge20_Node000003_Node000016" class="edge">
<title>Node3&#45;&gt;Node16</title>
<g id="a_edge20_Node000003_Node000016"><a xlink:title=" ">
<path fill="none" stroke="#63b8ff" d="M1402.74,-116C1390.28,-116 1377.37,-116 1364.76,-116"/>
<polygon fill="#63b8ff" stroke="#63b8ff" points="1402.52,-119.5 1412.52,-116 1402.52,-112.5 1402.52,-119.5"/>
</a>
</g>
</g>
<!-- Node17 -->
<g id="Node000017" class="node">
<title>Node17</title>
<g id="a_Node000017"><a xlink:href="class_a_k_p_t_in_game_mode.html#a1e36de33cf04e0c3a9f6ac97910e3d5f" target="_top" xlink:title=" ">
<polygon fill="white" stroke="#666666" points="1355.5,-82 1192.5,-82 1192.5,-62 1355.5,-62 1355.5,-82"/>
<text xml:space="preserve" text-anchor="middle" x="1274" y="-68.5" font-family="Helvetica,sans-Serif" font-size="10.00">AKPTInGameMode::OnPostLogin</text>
</a>
</g>
</g>
<!-- Node3&#45;&gt;Node17 -->
<g id="edge21_Node000003_Node000017" class="edge">
<title>Node3&#45;&gt;Node17</title>
<g id="a_edge21_Node000003_Node000017"><a xlink:title=" ">
<path fill="none" stroke="#63b8ff" d="M1402.89,-98.83C1376.57,-93.31 1348.21,-87.36 1324.9,-82.47"/>
<polygon fill="#63b8ff" stroke="#63b8ff" points="1402.04,-102.23 1412.55,-100.85 1403.48,-95.38 1402.04,-102.23"/>
</a>
</g>
</g>
<!-- Node5 -->
<g id="Node000005" class="node">
<title>Node5</title>
<g id="a_Node000005"><a xlink:href="class_a_k_p_t_in_game_mode.html#a9f93e98963e67a4aec973d492c0b437a" target="_top" xlink:title="새 라운드를 시작합니다.">
<polygon fill="white" stroke="#666666" points="1147.5,-176 991.25,-176 991.25,-156 1147.5,-156 1147.5,-176"/>
<text xml:space="preserve" text-anchor="middle" x="1069.38" y="-162.5" font-family="Helvetica,sans-Serif" font-size="10.00">AKPTInGameMode::StartRound</text>
</a>
</g>
</g>
<!-- Node4&#45;&gt;Node5 -->
<g id="edge5_Node000004_Node000005" class="edge">
<title>Node4&#45;&gt;Node5</title>
<g id="a_edge5_Node000004_Node000005"><a xlink:title=" ">
<path fill="none" stroke="#63b8ff" d="M1184.62,-166C1172.31,-166 1159.75,-166 1147.68,-166"/>
<polygon fill="#63b8ff" stroke="#63b8ff" points="1184.3,-169.5 1194.3,-166 1184.3,-162.5 1184.3,-169.5"/>
</a>
</g>
</g>
<!-- Node6 -->
<g id="Node000006" class="node">
<title>Node6</title>
<g id="a_Node000006"><a xlink:href="class_a_k_p_t_in_game_mode.html#a410acd626df9144d7ebb63b535dbc37b" target="_top" xlink:title=" ">
<polygon fill="white" stroke="#666666" points="955.25,-204 806.5,-204 806.5,-172 955.25,-172 955.25,-204"/>
<text xml:space="preserve" text-anchor="start" x="814.5" y="-190.5" font-family="Helvetica,sans-Serif" font-size="10.00">AKPTInGameMode::Complete</text>
<text xml:space="preserve" text-anchor="middle" x="880.88" y="-178.5" font-family="Helvetica,sans-Serif" font-size="10.00">PhaseTransition</text>
</a>
</g>
</g>
<!-- Node5&#45;&gt;Node6 -->
<g id="edge6_Node000005_Node000006" class="edge">
<title>Node5&#45;&gt;Node6</title>
<g id="a_edge6_Node000005_Node000006"><a xlink:title=" ">
<path fill="none" stroke="#63b8ff" d="M979.57,-176.48C971.52,-177.43 963.42,-178.38 955.52,-179.31"/>
<polygon fill="#63b8ff" stroke="#63b8ff" points="979.88,-179.96 989.4,-175.32 979.06,-173.01 979.88,-179.96"/>
</a>
</g>
</g>
<!-- Node15 -->
<g id="Node000015" class="node">
<title>Node15</title>
<g id="a_Node000015"><a xlink:href="class_a_k_p_t_in_game_mode.html#a88de57fba9da892b172c9106affe14f3" target="_top" xlink:title=" ">
<polygon fill="white" stroke="#666666" points="954.5,-154 807.25,-154 807.25,-134 954.5,-134 954.5,-154"/>
<text xml:space="preserve" text-anchor="middle" x="880.88" y="-140.5" font-family="Helvetica,sans-Serif" font-size="10.00">AKPTInGameMode::StartPlay</text>
</a>
</g>
</g>
<!-- Node5&#45;&gt;Node15 -->
<g id="edge19_Node000005_Node000015" class="edge">
<title>Node5&#45;&gt;Node15</title>
<g id="a_edge19_Node000005_Node000015"><a xlink:title=" ">
<path fill="none" stroke="#63b8ff" d="M979.66,-155.53C971.37,-154.56 963.04,-153.57 954.92,-152.62"/>
<polygon fill="#63b8ff" stroke="#63b8ff" points="979.06,-158.99 989.4,-156.68 979.88,-152.04 979.06,-158.99"/>
</a>
</g>
</g>
<!-- Node7 -->
<g id="Node000007" class="node">
<title>Node7</title>
<g id="a_Node000007"><a xlink:href="class_a_k_p_t_in_game_mode.html#a1c856c37dce7343a381723b5d842ecf7" target="_top" xlink:title="모든 플레이어가 사망했는지 확인합니다.">
<polygon fill="white" stroke="#666666" points="770.5,-220 581.25,-220 581.25,-200 770.5,-200 770.5,-220"/>
<text xml:space="preserve" text-anchor="middle" x="675.88" y="-206.5" font-family="Helvetica,sans-Serif" font-size="10.00">AKPTInGameMode::AreAllPlayersDead</text>
</a>
</g>
</g>
<!-- Node6&#45;&gt;Node7 -->
<g id="edge7_Node000006_Node000007" class="edge">
<title>Node6&#45;&gt;Node7</title>
<g id="a_edge7_Node000006_Node000007"><a xlink:title=" ">
<path fill="none" stroke="#63b8ff" d="M794.6,-197.24C786.73,-198.09 778.73,-198.96 770.79,-199.82"/>
<polygon fill="#63b8ff" stroke="#63b8ff" points="794.94,-200.72 804.51,-196.17 794.19,-193.77 794.94,-200.72"/>
</a>
</g>
</g>
<!-- Node7&#45;&gt;Node7 -->
<g id="edge8_Node000007_Node000007" class="edge">
<title>Node7&#45;&gt;Node7</title>
<g id="a_edge8_Node000007_Node000007"><a xlink:title=" ">
<path fill="none" stroke="#63b8ff" d="M712.49,-231.11C708.12,-235.14 695.92,-238 675.88,-238 640.24,-238 629.38,-228.98 643.3,-220.34"/>
<polygon fill="#63b8ff" stroke="#63b8ff" points="715.77,-229.89 708.98,-221.76 709.22,-232.35 715.77,-229.89"/>
</a>
</g>
</g>
<!-- Node8 -->
<g id="Node000008" class="node">
<title>Node8</title>
<g id="a_Node000008"><a xlink:href="class_a_k_p_t_in_game_mode.html#a0e1dec85eeba3835d463238c88f8904b" target="_top" xlink:title="야간 페이즈를 종료하고, 게임 종료 조건을 확인하거나 새 라운드를 시작합니다.">
<polygon fill="white" stroke="#666666" points="535.12,-226 387.88,-226 387.88,-194 535.12,-194 535.12,-226"/>
<text xml:space="preserve" text-anchor="start" x="395.88" y="-212.5" font-family="Helvetica,sans-Serif" font-size="10.00">AKPTInGameMode::EndNight</text>
<text xml:space="preserve" text-anchor="middle" x="461.5" y="-200.5" font-family="Helvetica,sans-Serif" font-size="10.00">Phase</text>
</a>
</g>
</g>
<!-- Node7&#45;&gt;Node8 -->
<g id="edge9_Node000007_Node000008" class="edge">
<title>Node7&#45;&gt;Node8</title>
<g id="a_edge9_Node000007_Node000008"><a xlink:title=" ">
<path fill="none" stroke="#63b8ff" d="M569.35,-210C557.89,-210 546.41,-210 535.46,-210"/>
<polygon fill="#63b8ff" stroke="#63b8ff" points="569.28,-213.5 579.28,-210 569.28,-206.5 569.28,-213.5"/>
</a>
</g>
</g>
<!-- Node11 -->
<g id="Node000011" class="node">
<title>Node11</title>
<g id="a_Node000011"><a xlink:href="class_a_k_p_t_in_game_mode.html#a3a63b6ea26b3ef6a916ca7b5fed4813f" target="_top" xlink:title="플레이어가 사망했을 때 호출됩니다.">
<polygon fill="white" stroke="#666666" points="545.25,-264 377.75,-264 377.75,-244 545.25,-244 545.25,-264"/>
<text xml:space="preserve" text-anchor="middle" x="461.5" y="-250.5" font-family="Helvetica,sans-Serif" font-size="10.00">AKPTInGameMode::OnPlayerDied</text>
</a>
</g>
</g>
<!-- Node7&#45;&gt;Node11 -->
<g id="edge13_Node000007_Node000011" class="edge">
<title>Node7&#45;&gt;Node11</title>
<g id="a_edge13_Node000007_Node000011"><a xlink:title=" ">
<path fill="none" stroke="#63b8ff" d="M613.32,-222.75C581.5,-229.35 543.15,-237.29 513.08,-243.52"/>
<polygon fill="#63b8ff" stroke="#63b8ff" points="613.71,-226.25 622.79,-220.79 612.29,-219.39 613.71,-226.25"/>
</a>
</g>
</g>
<!-- Node9 -->
<g id="Node000009" class="node">
<title>Node9</title>
<g id="a_Node000009"><a xlink:href="class_a_k_p_t_in_game_mode.html#acd0b193dd9ce700d2a4cb3953565584c" target="_top" xlink:title="야간 페이즈의 핵심 로직을 실행합니다.">
<polygon fill="white" stroke="#666666" points="341.75,-226 190.75,-226 190.75,-194 341.75,-194 341.75,-226"/>
<text xml:space="preserve" text-anchor="start" x="198.75" y="-212.5" font-family="Helvetica,sans-Serif" font-size="10.00">AKPTInGameMode::StartNight</text>
<text xml:space="preserve" text-anchor="middle" x="266.25" y="-200.5" font-family="Helvetica,sans-Serif" font-size="10.00">Phase</text>
</a>
</g>
</g>
<!-- Node8&#45;&gt;Node9 -->
<g id="edge10_Node000008_Node000009" class="edge">
<title>Node8&#45;&gt;Node9</title>
<g id="a_edge10_Node000008_Node000009"><a xlink:title=" ">
<path fill="none" stroke="#63b8ff" d="M376.17,-210C364.81,-210 353.21,-210 342.02,-210"/>
<polygon fill="#63b8ff" stroke="#63b8ff" points="375.93,-213.5 385.93,-210 375.93,-206.5 375.93,-213.5"/>
</a>
</g>
</g>
<!-- Node10 -->
<g id="Node000010" class="node">
<title>Node10</title>
<g id="a_Node000010"><a xlink:href="class_a_k_p_t_in_game_mode.html#a84edc1df98161132b7b803669c9299a0" target="_top" xlink:title="야간 페이즈를 시작하기 위한 준비 및 전환을 시작합니다.">
<polygon fill="white" stroke="#666666" points="154.75,-204 0,-204 0,-172 154.75,-172 154.75,-204"/>
<text xml:space="preserve" text-anchor="start" x="8" y="-190.5" font-family="Helvetica,sans-Serif" font-size="10.00">AKPTInGameMode::BeginNight</text>
<text xml:space="preserve" text-anchor="middle" x="77.38" y="-178.5" font-family="Helvetica,sans-Serif" font-size="10.00">PhaseLogic</text>
</a>
</g>
</g>
<!-- Node9&#45;&gt;Node10 -->
<g id="edge11_Node000009_Node000010" class="edge">
<title>Node9&#45;&gt;Node10</title>
<g id="a_edge11_Node000009_Node000010"><a xlink:title=" ">
<path fill="none" stroke="#63b8ff" d="M179.1,-199.86C171.11,-198.92 163.05,-197.97 155.16,-197.04"/>
<polygon fill="#63b8ff" stroke="#63b8ff" points="178.47,-203.31 188.81,-201 179.29,-196.36 178.47,-203.31"/>
</a>
</g>
</g>
<!-- Node10&#45;&gt;Node6 -->
<g id="edge12_Node000010_Node000006" class="edge">
<title>Node10&#45;&gt;Node6</title>
<g id="a_edge12_Node000010_Node000006"><a xlink:title=" ">
<path fill="none" stroke="#63b8ff" d="M166.64,-185.42C174.79,-185.25 182.92,-185.1 190.75,-185 414.91,-182.01 680.11,-185 806.19,-186.82"/>
<polygon fill="#63b8ff" stroke="#63b8ff" points="166.57,-181.92 156.65,-185.64 166.73,-188.92 166.57,-181.92"/>
</a>
</g>
</g>
<!-- Node12 -->
<g id="Node000012" class="node">
<title>Node12</title>
<g id="a_Node000012"><a xlink:href="class_a_player_character.html#aa38c751d8495a3e3d999eafad23d7a88" target="_top" xlink:title=" ">
<polygon fill="white" stroke="#666666" points="323.38,-302 209.12,-302 209.12,-282 323.38,-282 323.38,-302"/>
<text xml:space="preserve" text-anchor="middle" x="266.25" y="-288.5" font-family="Helvetica,sans-Serif" font-size="10.00">APlayerCharacter::Die</text>
</a>
</g>
</g>
<!-- Node11&#45;&gt;Node12 -->
<g id="edge14_Node000011_Node000012" class="edge">
<title>Node11&#45;&gt;Node12</title>
<g id="a_edge14_Node000011_Node000012"><a xlink:title=" ">
<path fill="none" stroke="#63b8ff" d="M396.13,-266.66C371.55,-271.49 343.82,-276.94 320.39,-281.55"/>
<polygon fill="#63b8ff" stroke="#63b8ff" points="396.56,-270.14 405.7,-264.78 395.21,-263.27 396.56,-270.14"/>
</a>
</g>
</g>
<!-- Node13 -->
<g id="Node000013" class="node">
<title>Node13</title>
<g id="a_Node000013"><a xlink:href="class_a_character_base.html#af4c20a0d4ddeb41b0eb305b807bcfc9d" target="_top" xlink:title=" ">
<polygon fill="white" stroke="#666666" points="341.75,-264 190.75,-264 190.75,-244 341.75,-244 341.75,-264"/>
<text xml:space="preserve" text-anchor="middle" x="266.25" y="-250.5" font-family="Helvetica,sans-Serif" font-size="10.00">ACharacterBase::HandleDeath</text>
</a>
</g>
</g>
<!-- Node11&#45;&gt;Node13 -->
<g id="edge15_Node000011_Node000013" class="edge">
<title>Node11&#45;&gt;Node13</title>
<g id="a_edge15_Node000011_Node000013"><a xlink:title=" ">
<path fill="none" stroke="#63b8ff" d="M366.06,-254C357.99,-254 349.91,-254 342.03,-254"/>
<polygon fill="#63b8ff" stroke="#63b8ff" points="365.91,-257.5 375.91,-254 365.91,-250.5 365.91,-257.5"/>
</a>
</g>
</g>
<!-- Node14 -->
<g id="Node000014" class="node">
<title>Node14</title>
<g id="a_Node000014"><a xlink:href="class_a_character_base.html#af3460531018611a7b3b2c59779c65ead" target="_top" xlink:title=" ">
<polygon fill="white" stroke="#666666" points="143.88,-264 10.88,-264 10.88,-244 143.88,-244 143.88,-264"/>
<text xml:space="preserve" text-anchor="middle" x="77.38" y="-250.5" font-family="Helvetica,sans-Serif" font-size="10.00">ACharacterBase::OnDeath</text>
</a>
</g>
</g>
<!-- Node13&#45;&gt;Node14 -->
<g id="edge16_Node000013_Node000014" class="edge">
<title>Node13&#45;&gt;Node14</title>
<g id="a_edge16_Node000013_Node000014"><a xlink:title=" ">
<path fill="none" stroke="#63b8ff" d="M179.15,-247.27C167.44,-247.21 155.56,-247.29 144.28,-247.52"/>
<polygon fill="#63b8ff" stroke="#63b8ff" points="178.77,-250.77 188.8,-247.36 178.84,-243.77 178.77,-250.77"/>
</a>
</g>
</g>
<!-- Node14&#45;&gt;Node13 -->
<g id="edge17_Node000014_Node000013" class="edge">
<title>Node14&#45;&gt;Node13</title>
<g id="a_edge17_Node000014_Node000013"><a xlink:title=" ">
<path fill="none" stroke="#63b8ff" d="M155.61,-260.66C167.09,-260.79 178.89,-260.78 190.32,-260.63"/>
<polygon fill="#63b8ff" stroke="#63b8ff" points="155.85,-257.16 145.79,-260.51 155.74,-264.16 155.85,-257.16"/>
</a>
</g>
</g>
<!-- Node14&#45;&gt;Node14 -->
<g id="edge18_Node000014_Node000014" class="edge">
<title>Node14&#45;&gt;Node14</title>
<g id="a_edge18_Node000014_Node000014"><a xlink:title=" ">
<path fill="none" stroke="#63b8ff" d="M111.11,-275.11C107.09,-279.14 95.84,-282 77.38,-282 44.54,-282 34.54,-272.98 47.36,-264.34"/>
<polygon fill="#63b8ff" stroke="#63b8ff" points="114.46,-274.08 107.88,-265.77 107.84,-276.36 114.46,-274.08"/>
</a>
</g>
</g>
</g>
</svg>

<g id="navigator" transform="translate(0 0)" fill="#404254">
  <rect fill="#f2f5e9" fill-opacity="0.5" stroke="#606060" stroke-width=".5" x="0" y="0" width="60" height="60"/>
  <use id="zoomplus" xlink:href="#zoomPlus" x="17" y="9" onmousedown="handleZoom(evt,'in')"/>
  <use id="zoomminus" xlink:href="#zoomMin" x="42" y="9" onmousedown="handleZoom(evt,'out')"/>
  <use id="reset" xlink:href="#resetDef" x="30" y="36" onmousedown="handleReset()"/>
   <use id="arrowup" xlink:href="#arrowUp" x="0" y="0" onmousedown="handlePan(0,-1)"/>
  <use id="arrowright" xlink:href="#arrowRight" x="0" y="0" onmousedown="handlePan(1,0)"/>
  <use id="arrowdown" xlink:href="#arrowDown" x="0" y="0" onmousedown="handlePan(0,1)"/>
  <use id="arrowleft" xlink:href="#arrowLeft" x="0" y="0" onmousedown="handlePan(-1,0)"/>
</g>
<svg viewBox="0 0 15 15" width="100%" height="30px" preserveAspectRatio="xMaxYMin meet">
 <g id="arrow_out" transform="scale(0.3 0.3)">
  <a xlink:href="class_a_k_p_t_player_state_a6989c3ebb86791d3a7265d8f5dc90b93_icgraph_org.svg" target="_base">
   <rect id="button" ry="5" rx="5" y="6" x="6" height="38" width="38"
        fill="#f2f5e9" fill-opacity="0.5" stroke="#606060" stroke-width="1.0"/>
   <path id="arrow"
     d="M 11.500037,31.436501 C 11.940474,20.09759 22.043105,11.32322 32.158766,21.979434 L 37.068811,17.246167 C 37.068811,17.246167 37.088388,32 37.088388,32 L 22.160133,31.978069 C 22.160133,31.978069 26.997745,27.140456 26.997745,27.140456 C 18.528582,18.264221 13.291696,25.230495 11.500037,31.436501 z"
     style="fill:#404040;"/>
  </a>
 </g>
</svg>

<style type='text/css'>
<![CDATA[
[data-mouse-over-selected='false'] { opacity: 0.7; }
[data-mouse-over-selected='true']  { opacity: 1.0; }
]]>
</style>
<script type="application/ecmascript"><![CDATA[
document.addEventListener('DOMContentLoaded', (event) => {
  highlightEdges();
  highlightAdjacentNodes();
});
]]></script>
</svg>
