<?xml version="1.0" encoding="UTF-8" standalone="no"?>
<!DOCTYPE svg PUBLIC "-//W3C//DTD SVG 1.1//EN"
 "http://www.w3.org/Graphics/SVG/1.1/DTD/svg11.dtd">
<!-- Generated by graphviz version 13.1.1 (20250719.2154)
 -->
<!-- Title: ALaserBeam::SetLaserBeamEnd Pages: 1 -->
<svg width="550pt" height="192pt"
 viewBox="0.00 0.00 550.00 192.00" xmlns="http://www.w3.org/2000/svg" xmlns:xlink="http://www.w3.org/1999/xlink">
<g id="graph0" class="graph" transform="scale(1 1) rotate(0) translate(4 188)">
<title>ALaserBeam::SetLaserBeamEnd</title>
<!-- Node1 -->
<g id="Node000001" class="node">
<title>Node1</title>
<g id="a_Node000001"><a xlink:title=" ">
<polygon fill="#999999" stroke="#666666" points="160,-102 0,-102 0,-82 160,-82 160,-102"/>
<text xml:space="preserve" text-anchor="middle" x="80" y="-88.5" font-family="Helvetica,sans-Serif" font-size="10.00">ALaserBeam::SetLaserBeamEnd</text>
</a>
</g>
</g>
<!-- Node1&#45;&gt;Node1 -->
<g id="edge7_Node000001_Node000001" class="edge">
<title>Node1&#45;&gt;Node1</title>
<g id="a_edge7_Node000001_Node000001"><a xlink:title=" ">
<path fill="none" stroke="#63b8ff" d="M47.67,-102.34C33.85,-110.98 44.63,-120 80,-120 99.9,-120 112.01,-117.14 116.35,-113.11"/>
<polygon fill="#63b8ff" stroke="#63b8ff" points="119.63,-111.91 112.86,-103.76 113.07,-114.35 119.63,-111.91"/>
</a>
</g>
</g>
<!-- Node2 -->
<g id="Node000002" class="node">
<title>Node2</title>
<g id="a_Node000002"><a xlink:href="class_a_laser_beam.html#a6769e1b955b27da48560b5da262b00f1" target="_top" xlink:title=" ">
<polygon fill="white" stroke="#666666" points="344.75,-184 222.25,-184 222.25,-164 344.75,-164 344.75,-184"/>
<text xml:space="preserve" text-anchor="middle" x="283.5" y="-170.5" font-family="Helvetica,sans-Serif" font-size="10.00">ALaserBeam::BeginPlay</text>
</a>
</g>
</g>
<!-- Node1&#45;&gt;Node2 -->
<g id="edge1_Node000001_Node000002" class="edge">
<title>Node1&#45;&gt;Node2</title>
<g id="a_edge1_Node000001_Node000002"><a xlink:title=" ">
<path fill="none" stroke="#63b8ff" d="M96.68,-102.49C118.2,-116.43 158.48,-140.93 196,-155 201.58,-157.09 207.45,-158.99 213.4,-160.69"/>
<polygon fill="#63b8ff" stroke="#63b8ff" points="212.11,-163.97 222.68,-163.18 213.92,-157.21 212.11,-163.97"/>
</a>
</g>
</g>
<!-- Node3 -->
<g id="Node000003" class="node">
<title>Node3</title>
<g id="a_Node000003"><a xlink:href="class_a_laser_beam.html#a06d33ee7187f343e4549552bde6e39cd" target="_top" xlink:title=" ">
<polygon fill="white" stroke="#666666" points="341,-146 226,-146 226,-126 341,-126 341,-146"/>
<text xml:space="preserve" text-anchor="middle" x="283.5" y="-132.5" font-family="Helvetica,sans-Serif" font-size="10.00">ALaserBeam::EndPlay</text>
</a>
</g>
</g>
<!-- Node1&#45;&gt;Node3 -->
<g id="edge2_Node000001_Node000003" class="edge">
<title>Node1&#45;&gt;Node3</title>
<g id="a_edge2_Node000001_Node000003"><a xlink:title=" ">
<path fill="none" stroke="#63b8ff" d="M129.01,-102.48C157.29,-108.66 193.29,-116.52 223.32,-123.08"/>
<polygon fill="#63b8ff" stroke="#63b8ff" points="222.52,-126.48 233.03,-125.2 224.01,-119.65 222.52,-126.48"/>
</a>
</g>
</g>
<!-- Node4 -->
<g id="Node000004" class="node">
<title>Node4</title>
<g id="a_Node000004"><a xlink:href="class_a_laser_beam.html#a9b8586a019c38cf75c76f4fbd162b733" target="_top" xlink:title=" ">
<polygon fill="white" stroke="#666666" points="371,-108 196,-108 196,-76 371,-76 371,-108"/>
<text xml:space="preserve" text-anchor="start" x="204" y="-94.5" font-family="Helvetica,sans-Serif" font-size="10.00">ALaserBeam::GetLifetimeReplicated</text>
<text xml:space="preserve" text-anchor="middle" x="283.5" y="-82.5" font-family="Helvetica,sans-Serif" font-size="10.00">Props</text>
</a>
</g>
</g>
<!-- Node1&#45;&gt;Node4 -->
<g id="edge3_Node000001_Node000004" class="edge">
<title>Node1&#45;&gt;Node4</title>
<g id="a_edge3_Node000001_Node000004"><a xlink:title=" ">
<path fill="none" stroke="#63b8ff" d="M160.35,-92C168.21,-92 176.25,-92 184.27,-92"/>
<polygon fill="#63b8ff" stroke="#63b8ff" points="184.06,-95.5 194.06,-92 184.06,-88.5 184.06,-95.5"/>
</a>
</g>
</g>
<!-- Node6 -->
<g id="Node000006" class="node">
<title>Node6</title>
<g id="a_Node000006"><a xlink:href="class_a_laser_beam.html#ad8bdeaad72d677a90b75a369bb62320e" target="_top" xlink:title=" ">
<polygon fill="white" stroke="#666666" points="367.25,-58 199.75,-58 199.75,-38 367.25,-38 367.25,-58"/>
<text xml:space="preserve" text-anchor="middle" x="283.5" y="-44.5" font-family="Helvetica,sans-Serif" font-size="10.00">ALaserBeam::OnRep_LaserLength</text>
</a>
</g>
</g>
<!-- Node1&#45;&gt;Node6 -->
<g id="edge5_Node000001_Node000006" class="edge">
<title>Node1&#45;&gt;Node6</title>
<g id="a_edge5_Node000001_Node000006"><a xlink:title=" ">
<path fill="none" stroke="#63b8ff" d="M129.01,-81.52C157.29,-75.34 193.29,-67.48 223.32,-60.92"/>
<polygon fill="#63b8ff" stroke="#63b8ff" points="224.01,-64.35 233.03,-58.8 222.52,-57.52 224.01,-64.35"/>
</a>
</g>
</g>
<!-- Node7 -->
<g id="Node000007" class="node">
<title>Node7</title>
<g id="a_Node000007"><a xlink:href="class_a_laser_beam.html#a111ed739e94f25374d405dc8fc83edf9" target="_top" xlink:title=" ">
<polygon fill="white" stroke="#666666" points="365.38,-20 201.62,-20 201.62,0 365.38,0 365.38,-20"/>
<text xml:space="preserve" text-anchor="middle" x="283.5" y="-6.5" font-family="Helvetica,sans-Serif" font-size="10.00">ALaserBeam::OnRep_LaserWidth</text>
</a>
</g>
</g>
<!-- Node1&#45;&gt;Node7 -->
<g id="edge6_Node000001_Node000007" class="edge">
<title>Node1&#45;&gt;Node7</title>
<g id="a_edge6_Node000001_Node000007"><a xlink:title=" ">
<path fill="none" stroke="#63b8ff" d="M96.68,-81.51C118.2,-67.57 158.48,-43.07 196,-29 201.58,-26.91 207.45,-25.01 213.4,-23.31"/>
<polygon fill="#63b8ff" stroke="#63b8ff" points="213.92,-26.79 222.68,-20.82 212.11,-20.03 213.92,-26.79"/>
</a>
</g>
</g>
<!-- Node5 -->
<g id="Node000005" class="node">
<title>Node5</title>
<g id="a_Node000005"><a xlink:href="class_a_laser_beam.html#aaa6dcf969e8b56800ee9794dc278a856" target="_top" xlink:title=" ">
<polygon fill="white" stroke="#666666" points="541.5,-102 407,-102 407,-82 541.5,-82 541.5,-102"/>
<text xml:space="preserve" text-anchor="middle" x="474.25" y="-88.5" font-family="Helvetica,sans-Serif" font-size="10.00">ALaserBeam::ALaserBeam</text>
</a>
</g>
</g>
<!-- Node4&#45;&gt;Node5 -->
<g id="edge4_Node000004_Node000005" class="edge">
<title>Node4&#45;&gt;Node5</title>
<g id="a_edge4_Node000004_Node000005"><a xlink:title=" ">
<path fill="none" stroke="#63b8ff" d="M371.42,-92C379.35,-92 387.35,-92 395.2,-92"/>
<polygon fill="#63b8ff" stroke="#63b8ff" points="395.04,-95.5 405.04,-92 395.04,-88.5 395.04,-95.5"/>
</a>
</g>
</g>
</g>
</svg>
