<?xml version="1.0" encoding="UTF-8" standalone="no"?>
<!DOCTYPE svg PUBLIC "-//W3C//DTD SVG 1.1//EN"
 "http://www.w3.org/Graphics/SVG/1.1/DTD/svg11.dtd">
<!-- Generated by graphviz version 13.1.1 (20250719.2154)
 -->
<!-- Title: UMainUI::NativeDestruct Pages: 1 -->
<!--zoomable 157 -->

<svg id="main" version="1.1" xmlns="http://www.w3.org/2000/svg" xmlns:xlink="http://www.w3.org/1999/xlink" xml:space="preserve" onload="init(evt)">

<style type="text/css"><![CDATA[
.node, .edge {opacity: 0.7;}
.node.selected, .edge.selected {opacity: 1;}
.edge:hover path { stroke: red; }
.edge:hover polygon { stroke: red; fill: red; }
]]></style>

<defs>
  <circle id="rim" cx="0" cy="0" r="7"/>
  <circle id="rim2" cx="0" cy="0" r="3.5"/>
  <g id="zoomPlus">
    <use xlink:href="#rim" fill="#404040"><set attributeName="fill" to="#808080" begin="zoomplus.mouseover" end="zoomplus.mouseout"/></use>
    <path d="M-4,0h8M0,-4v8" fill="none" stroke="white" stroke-width="1.5" pointer-events="none"/>
  </g>
  <g id="zoomMin">
    <use xlink:href="#rim" fill="#404040"><set attributeName="fill" to="#808080" begin="zoomminus.mouseover" end="zoomminus.mouseout"/></use>
    <path d="M-4,0h8" fill="none" stroke="white" stroke-width="1.5" pointer-events="none"/>
  </g>
  <g id="arrowUp" transform="translate(30 24)">
    <use xlink:href="#rim"/>
    <path pointer-events="none" fill="none" stroke="white" stroke-width="1.5" d="M0,-3.0v7 M-2.5,-0.5L0,-3.0L2.5,-0.5"/>
  </g>
  <g id="arrowRight" transform="rotate(90) translate(36 -43)">
    <use xlink:href="#rim"/>
    <path pointer-events="none" fill="none" stroke="white" stroke-width="1.5" d="M0,-3.0v7 M-2.5,-0.5L0,-3.0L2.5,-0.5"/>
  </g>
  <g id="arrowDown" transform="rotate(180) translate(-30 -48)">
    <use xlink:href="#rim"/>
    <path pointer-events="none" fill="none" stroke="white" stroke-width="1.5" d="M0,-3.0v7 M-2.5,-0.5L0,-3.0L2.5,-0.5"/>
  </g>
  <g id="arrowLeft" transform="rotate(270) translate(-36 17)">
    <use xlink:href="#rim"/>
    <path pointer-events="none" fill="none" stroke="white" stroke-width="1.5" d="M0,-3.0v7 M-2.5,-0.5L0,-3.0L2.5,-0.5"/>
  </g>
  <g id="resetDef">
    <use xlink:href="#rim2" fill="#404040"><set attributeName="fill" to="#808080" begin="reset.mouseover" end="reset.mouseout"/></use>
  </g>
</defs>
<script type="application/ecmascript">
var viewWidth = 1030;
var viewHeight = 157;
var sectionId = 'dynsection-3';
</script>
<script type="application/ecmascript" xlink:href="svg.min.js"/>
<svg id="graph" class="graph">
<g id="viewport">
<title>UMainUI::NativeDestruct</title>
<!-- Node1 -->
<g id="Node000001" class="node">
<title>Node1</title>
<g id="a_Node000001"><a xlink:title=" ">
<polygon fill="#999999" stroke="#666666" points="127,-111 0,-111 0,-91 127,-91 127,-111"/>
<text xml:space="preserve" text-anchor="middle" x="63.5" y="-97.5" font-family="Helvetica,sans-Serif" font-size="10.00">UMainUI::NativeDestruct</text>
</a>
</g>
</g>
<!-- Node2 -->
<g id="Node000002" class="node">
<title>Node2</title>
<g id="a_Node000002"><a xlink:href="class_u_main_u_i.html#ad49ab3d178a8f9e6aa0bca8554ce520e" target="_top" xlink:title=" ">
<polygon fill="white" stroke="#666666" points="315.5,-149 164.5,-149 164.5,-129 315.5,-129 315.5,-149"/>
<text xml:space="preserve" text-anchor="middle" x="240" y="-135.5" font-family="Helvetica,sans-Serif" font-size="10.00">UMainUI::OnClickedGameQuit</text>
</a>
</g>
</g>
<!-- Node1&#45;&gt;Node2 -->
<g id="edge1_Node000001_Node000002" class="edge">
<title>Node1&#45;&gt;Node2</title>
<g id="a_edge1_Node000001_Node000002"><a xlink:title=" ">
<path fill="none" stroke="#63b8ff" d="M112.64,-111.48C133.43,-116.01 157.96,-121.35 179.84,-126.12"/>
<polygon fill="#63b8ff" stroke="#63b8ff" points="179.02,-129.52 189.53,-128.23 180.51,-122.68 179.02,-129.52"/>
</a>
</g>
</g>
<!-- Node3 -->
<g id="Node000003" class="node">
<title>Node3</title>
<g id="a_Node000003"><a xlink:href="class_u_main_u_i.html#a2fd6fdfa0f3d233fa4a5686c3e573674" target="_top" xlink:title=" ">
<polygon fill="white" stroke="#666666" points="317,-111 163,-111 163,-91 317,-91 317,-111"/>
<text xml:space="preserve" text-anchor="middle" x="240" y="-97.5" font-family="Helvetica,sans-Serif" font-size="10.00">UMainUI::OnClickedGameStart</text>
</a>
</g>
</g>
<!-- Node1&#45;&gt;Node3 -->
<g id="edge2_Node000001_Node000003" class="edge">
<title>Node1&#45;&gt;Node3</title>
<g id="a_edge2_Node000001_Node000003"><a xlink:title=" ">
<path fill="none" stroke="#63b8ff" d="M127.5,-101C135.26,-101 143.3,-101 151.35,-101"/>
<polygon fill="#63b8ff" stroke="#63b8ff" points="151.19,-104.5 161.19,-101 151.19,-97.5 151.19,-104.5"/>
</a>
</g>
</g>
<!-- Node4 -->
<g id="Node000004" class="node">
<title>Node4</title>
<g id="a_Node000004"><a xlink:href="class_u_main_u_i.html#a6158fd9774d8fbbe427df565301fe82a" target="_top" xlink:title=" ">
<polygon fill="white" stroke="#666666" points="308.75,-73 171.25,-73 171.25,-53 308.75,-53 308.75,-73"/>
<text xml:space="preserve" text-anchor="middle" x="240" y="-59.5" font-family="Helvetica,sans-Serif" font-size="10.00">UMainUI::OnClickedSetting</text>
</a>
</g>
</g>
<!-- Node1&#45;&gt;Node4 -->
<g id="edge3_Node000001_Node000004" class="edge">
<title>Node1&#45;&gt;Node4</title>
<g id="a_edge3_Node000001_Node000004"><a xlink:title=" ">
<path fill="none" stroke="#63b8ff" d="M112.64,-90.52C133.43,-85.99 157.96,-80.65 179.84,-75.88"/>
<polygon fill="#63b8ff" stroke="#63b8ff" points="180.51,-79.32 189.53,-73.77 179.02,-72.48 180.51,-79.32"/>
</a>
</g>
</g>
<!-- Node5 -->
<g id="Node000005" class="node">
<title>Node5</title>
<g id="a_Node000005"><a xlink:href="class_u_u_i_base.html#a7db928b8721c8dede4954eed8695c0e4" target="_top" xlink:title=" ">
<polygon fill="white" stroke="#666666" points="528.75,-95 353,-95 353,-75 528.75,-75 528.75,-95"/>
<text xml:space="preserve" text-anchor="middle" x="440.88" y="-81.5" font-family="Helvetica,sans-Serif" font-size="10.00">UUIBase::GetUIManagerSubsystem</text>
</a>
</g>
</g>
<!-- Node4&#45;&gt;Node5 -->
<g id="edge4_Node000004_Node000005" class="edge">
<title>Node4&#45;&gt;Node5</title>
<g id="a_edge4_Node000004_Node000005"><a xlink:title=" ">
<path fill="none" stroke="#63b8ff" d="M309.16,-70.54C319.59,-71.69 330.54,-72.9 341.46,-74.11"/>
<polygon fill="#63b8ff" stroke="#63b8ff" points="340.99,-77.58 351.32,-75.2 341.76,-70.63 340.99,-77.58"/>
</a>
</g>
</g>
<!-- Node6 -->
<g id="Node000006" class="node">
<title>Node6</title>
<g id="a_Node000006"><a xlink:href="class_u_u_i_manager_subsystem.html#a291d9552775bf1843f433b3e363b0543" target="_top" xlink:title=" ">
<polygon fill="white" stroke="#666666" points="501.38,-57 380.38,-57 380.38,-25 501.38,-25 501.38,-57"/>
<text xml:space="preserve" text-anchor="start" x="388.38" y="-43.5" font-family="Helvetica,sans-Serif" font-size="10.00">UUIManagerSubsystem</text>
<text xml:space="preserve" text-anchor="middle" x="440.88" y="-31.5" font-family="Helvetica,sans-Serif" font-size="10.00">::ShowWidget</text>
</a>
</g>
</g>
<!-- Node4&#45;&gt;Node6 -->
<g id="edge5_Node000004_Node000006" class="edge">
<title>Node4&#45;&gt;Node6</title>
<g id="a_edge5_Node000004_Node000006"><a xlink:title=" ">
<path fill="none" stroke="#63b8ff" d="M309.16,-55.46C328.43,-53.33 349.45,-51 368.88,-48.85"/>
<polygon fill="#63b8ff" stroke="#63b8ff" points="369.05,-52.36 378.61,-47.78 368.28,-45.4 369.05,-52.36"/>
</a>
</g>
</g>
<!-- Node7 -->
<g id="Node000007" class="node">
<title>Node7</title>
<g id="a_Node000007"><a xlink:href="class_u_u_i_manager_subsystem.html#ae6e92a8dab7f856443cfe5c4d00b25c9" target="_top" xlink:title=" ">
<polygon fill="white" stroke="#666666" points="685.75,-82 564.75,-82 564.75,-50 685.75,-50 685.75,-82"/>
<text xml:space="preserve" text-anchor="start" x="572.75" y="-68.5" font-family="Helvetica,sans-Serif" font-size="10.00">UUIManagerSubsystem</text>
<text xml:space="preserve" text-anchor="middle" x="625.25" y="-56.5" font-family="Helvetica,sans-Serif" font-size="10.00">::ActivateWidget</text>
</a>
</g>
</g>
<!-- Node6&#45;&gt;Node7 -->
<g id="edge6_Node000006_Node000007" class="edge">
<title>Node6&#45;&gt;Node7</title>
<g id="a_edge6_Node000006_Node000007"><a xlink:title=" ">
<path fill="none" stroke="#63b8ff" d="M501.84,-49.22C518.37,-51.49 536.44,-53.96 553.51,-56.3"/>
<polygon fill="#63b8ff" stroke="#63b8ff" points="552.67,-59.72 563.06,-57.61 553.62,-52.79 552.67,-59.72"/>
</a>
</g>
</g>
<!-- Node10 -->
<g id="Node000010" class="node">
<title>Node10</title>
<g id="a_Node000010"><a xlink:href="class_u_u_i_manager_subsystem.html#af61f694a539b5d427654903bc5944cf0" target="_top" xlink:title=" ">
<polygon fill="white" stroke="#666666" points="685.75,-32 564.75,-32 564.75,0 685.75,0 685.75,-32"/>
<text xml:space="preserve" text-anchor="start" x="572.75" y="-18.5" font-family="Helvetica,sans-Serif" font-size="10.00">UUIManagerSubsystem</text>
<text xml:space="preserve" text-anchor="middle" x="625.25" y="-6.5" font-family="Helvetica,sans-Serif" font-size="10.00">::GetOrCreateWidget</text>
</a>
</g>
</g>
<!-- Node6&#45;&gt;Node10 -->
<g id="edge9_Node000006_Node000010" class="edge">
<title>Node6&#45;&gt;Node10</title>
<g id="a_edge9_Node000006_Node000010"><a xlink:title=" ">
<path fill="none" stroke="#63b8ff" d="M501.84,-32.78C518.37,-30.51 536.44,-28.04 553.51,-25.7"/>
<polygon fill="#63b8ff" stroke="#63b8ff" points="553.62,-29.21 563.06,-24.39 552.67,-22.28 553.62,-29.21"/>
</a>
</g>
</g>
<!-- Node8 -->
<g id="Node000008" class="node">
<title>Node8</title>
<g id="a_Node000008"><a xlink:href="class_u_u_i_manager_subsystem.html#acaac8367f6b3ad4c0509900d7f01b65a" target="_top" xlink:title=" ">
<polygon fill="white" stroke="#666666" points="865.25,-82 721.75,-82 721.75,-50 865.25,-50 865.25,-82"/>
<text xml:space="preserve" text-anchor="start" x="729.75" y="-68.5" font-family="Helvetica,sans-Serif" font-size="10.00">UUIManagerSubsystem</text>
<text xml:space="preserve" text-anchor="middle" x="793.5" y="-56.5" font-family="Helvetica,sans-Serif" font-size="10.00">::UpdateInputModeAndFocus</text>
</a>
</g>
</g>
<!-- Node7&#45;&gt;Node8 -->
<g id="edge7_Node000007_Node000008" class="edge">
<title>Node7&#45;&gt;Node8</title>
<g id="a_edge7_Node000007_Node000008"><a xlink:title=" ">
<path fill="none" stroke="#63b8ff" d="M685.8,-66C693.65,-66 701.81,-66 709.96,-66"/>
<polygon fill="#63b8ff" stroke="#63b8ff" points="709.94,-69.5 719.94,-66 709.94,-62.5 709.94,-69.5"/>
</a>
</g>
</g>
<!-- Node9 -->
<g id="Node000009" class="node">
<title>Node9</title>
<g id="a_Node000009"><a xlink:href="class_u_u_i_manager_subsystem.html#a6c815ab68107e8e616ddb62dd3391d2c" target="_top" xlink:title=" ">
<polygon fill="white" stroke="#666666" points="1022.25,-82 901.25,-82 901.25,-50 1022.25,-50 1022.25,-82"/>
<text xml:space="preserve" text-anchor="start" x="909.25" y="-68.5" font-family="Helvetica,sans-Serif" font-size="10.00">UUIManagerSubsystem</text>
<text xml:space="preserve" text-anchor="middle" x="961.75" y="-56.5" font-family="Helvetica,sans-Serif" font-size="10.00">::SetUIInputMode</text>
</a>
</g>
</g>
<!-- Node8&#45;&gt;Node9 -->
<g id="edge8_Node000008_Node000009" class="edge">
<title>Node8&#45;&gt;Node9</title>
<g id="a_edge8_Node000008_Node000009"><a xlink:title=" ">
<path fill="none" stroke="#63b8ff" d="M865.49,-66C873.43,-66 881.53,-66 889.48,-66"/>
<polygon fill="#63b8ff" stroke="#63b8ff" points="889.47,-69.5 899.47,-66 889.47,-62.5 889.47,-69.5"/>
</a>
</g>
</g>
</g>
</svg>

<g id="navigator" transform="translate(0 0)" fill="#404254">
  <rect fill="#f2f5e9" fill-opacity="0.5" stroke="#606060" stroke-width=".5" x="0" y="0" width="60" height="60"/>
  <use id="zoomplus" xlink:href="#zoomPlus" x="17" y="9" onmousedown="handleZoom(evt,'in')"/>
  <use id="zoomminus" xlink:href="#zoomMin" x="42" y="9" onmousedown="handleZoom(evt,'out')"/>
  <use id="reset" xlink:href="#resetDef" x="30" y="36" onmousedown="handleReset()"/>
   <use id="arrowup" xlink:href="#arrowUp" x="0" y="0" onmousedown="handlePan(0,-1)"/>
  <use id="arrowright" xlink:href="#arrowRight" x="0" y="0" onmousedown="handlePan(1,0)"/>
  <use id="arrowdown" xlink:href="#arrowDown" x="0" y="0" onmousedown="handlePan(0,1)"/>
  <use id="arrowleft" xlink:href="#arrowLeft" x="0" y="0" onmousedown="handlePan(-1,0)"/>
</g>
<svg viewBox="0 0 15 15" width="100%" height="30px" preserveAspectRatio="xMaxYMin meet">
 <g id="arrow_out" transform="scale(0.3 0.3)">
  <a xlink:href="class_u_main_u_i_a2683c924b81eaceaaaa22fab1a07802f_cgraph_org.svg" target="_base">
   <rect id="button" ry="5" rx="5" y="6" x="6" height="38" width="38"
        fill="#f2f5e9" fill-opacity="0.5" stroke="#606060" stroke-width="1.0"/>
   <path id="arrow"
     d="M 11.500037,31.436501 C 11.940474,20.09759 22.043105,11.32322 32.158766,21.979434 L 37.068811,17.246167 C 37.068811,17.246167 37.088388,32 37.088388,32 L 22.160133,31.978069 C 22.160133,31.978069 26.997745,27.140456 26.997745,27.140456 C 18.528582,18.264221 13.291696,25.230495 11.500037,31.436501 z"
     style="fill:#404040;"/>
  </a>
 </g>
</svg>

<style type='text/css'>
<![CDATA[
[data-mouse-over-selected='false'] { opacity: 0.7; }
[data-mouse-over-selected='true']  { opacity: 1.0; }
]]>
</style>
<script type="application/ecmascript"><![CDATA[
document.addEventListener('DOMContentLoaded', (event) => {
  highlightEdges();
  highlightAdjacentNodes();
});
]]></script>
</svg>
