<?xml version="1.0" encoding="UTF-8" standalone="no"?>
<!DOCTYPE svg PUBLIC "-//W3C//DTD SVG 1.1//EN"
 "http://www.w3.org/Graphics/SVG/1.1/DTD/svg11.dtd">
<!-- Generated by graphviz version 13.1.1 (20250719.2154)
 -->
<!-- Title: UUIManagerSubsystem::ActivateWidget Pages: 1 -->
<!--zoomable 254 -->

<svg id="main" version="1.1" xmlns="http://www.w3.org/2000/svg" xmlns:xlink="http://www.w3.org/1999/xlink" xml:space="preserve" onload="init(evt)">

<style type="text/css"><![CDATA[
.node, .edge {opacity: 0.7;}
.node.selected, .edge.selected {opacity: 1;}
.edge:hover path { stroke: red; }
.edge:hover polygon { stroke: red; fill: red; }
]]></style>

<defs>
  <circle id="rim" cx="0" cy="0" r="7"/>
  <circle id="rim2" cx="0" cy="0" r="3.5"/>
  <g id="zoomPlus">
    <use xlink:href="#rim" fill="#404040"><set attributeName="fill" to="#808080" begin="zoomplus.mouseover" end="zoomplus.mouseout"/></use>
    <path d="M-4,0h8M0,-4v8" fill="none" stroke="white" stroke-width="1.5" pointer-events="none"/>
  </g>
  <g id="zoomMin">
    <use xlink:href="#rim" fill="#404040"><set attributeName="fill" to="#808080" begin="zoomminus.mouseover" end="zoomminus.mouseout"/></use>
    <path d="M-4,0h8" fill="none" stroke="white" stroke-width="1.5" pointer-events="none"/>
  </g>
  <g id="arrowUp" transform="translate(30 24)">
    <use xlink:href="#rim"/>
    <path pointer-events="none" fill="none" stroke="white" stroke-width="1.5" d="M0,-3.0v7 M-2.5,-0.5L0,-3.0L2.5,-0.5"/>
  </g>
  <g id="arrowRight" transform="rotate(90) translate(36 -43)">
    <use xlink:href="#rim"/>
    <path pointer-events="none" fill="none" stroke="white" stroke-width="1.5" d="M0,-3.0v7 M-2.5,-0.5L0,-3.0L2.5,-0.5"/>
  </g>
  <g id="arrowDown" transform="rotate(180) translate(-30 -48)">
    <use xlink:href="#rim"/>
    <path pointer-events="none" fill="none" stroke="white" stroke-width="1.5" d="M0,-3.0v7 M-2.5,-0.5L0,-3.0L2.5,-0.5"/>
  </g>
  <g id="arrowLeft" transform="rotate(270) translate(-36 17)">
    <use xlink:href="#rim"/>
    <path pointer-events="none" fill="none" stroke="white" stroke-width="1.5" d="M0,-3.0v7 M-2.5,-0.5L0,-3.0L2.5,-0.5"/>
  </g>
  <g id="resetDef">
    <use xlink:href="#rim2" fill="#404040"><set attributeName="fill" to="#808080" begin="reset.mouseover" end="reset.mouseout"/></use>
  </g>
</defs>
<script type="application/ecmascript">
var viewWidth = 969;
var viewHeight = 254;
var sectionId = 'dynsection-4';
</script>
<script type="application/ecmascript" xlink:href="svg.min.js"/>
<svg id="graph" class="graph">
<g id="viewport">
<title>UUIManagerSubsystem::ActivateWidget</title>
<!-- Node1 -->
<g id="Node000001" class="node">
<title>Node1</title>
<g id="a_Node000001"><a xlink:title=" ">
<polygon fill="#999999" stroke="#666666" points="960.75,-196 839.75,-196 839.75,-164 960.75,-164 960.75,-196"/>
<text xml:space="preserve" text-anchor="start" x="847.75" y="-182.5" font-family="Helvetica,sans-Serif" font-size="10.00">UUIManagerSubsystem</text>
<text xml:space="preserve" text-anchor="middle" x="900.25" y="-170.5" font-family="Helvetica,sans-Serif" font-size="10.00">::ActivateWidget</text>
</a>
</g>
</g>
<!-- Node2 -->
<g id="Node000002" class="node">
<title>Node2</title>
<g id="a_Node000002"><a xlink:href="class_u_u_i_manager_subsystem.html#a3d1d102db04c24f74872b749cc41e0cf" target="_top" xlink:title=" ">
<polygon fill="white" stroke="#666666" points="803.75,-246 682.75,-246 682.75,-214 803.75,-214 803.75,-246"/>
<text xml:space="preserve" text-anchor="start" x="690.75" y="-232.5" font-family="Helvetica,sans-Serif" font-size="10.00">UUIManagerSubsystem</text>
<text xml:space="preserve" text-anchor="middle" x="743.25" y="-220.5" font-family="Helvetica,sans-Serif" font-size="10.00">::ShowEventWidget</text>
</a>
</g>
</g>
<!-- Node1&#45;&gt;Node2 -->
<g id="edge1_Node000001_Node000002" class="edge">
<title>Node1&#45;&gt;Node2</title>
<g id="a_edge1_Node000001_Node000002"><a xlink:title=" ">
<path fill="none" stroke="#63b8ff" d="M837.9,-199.79C823.82,-204.33 808.98,-209.12 795.38,-213.51"/>
<polygon fill="#63b8ff" stroke="#63b8ff" points="838.61,-203.24 847.06,-196.84 836.47,-196.58 838.61,-203.24"/>
</a>
</g>
</g>
<!-- Node8 -->
<g id="Node000008" class="node">
<title>Node8</title>
<g id="a_Node000008"><a xlink:href="class_u_u_i_manager_subsystem.html#a066e62274dc1670d298997fa8f052b2d" target="_top" xlink:title=" ">
<polygon fill="white" stroke="#666666" points="803.75,-196 682.75,-196 682.75,-164 803.75,-164 803.75,-196"/>
<text xml:space="preserve" text-anchor="start" x="690.75" y="-182.5" font-family="Helvetica,sans-Serif" font-size="10.00">UUIManagerSubsystem</text>
<text xml:space="preserve" text-anchor="middle" x="743.25" y="-170.5" font-family="Helvetica,sans-Serif" font-size="10.00">::ShowStayWidget</text>
</a>
</g>
</g>
<!-- Node1&#45;&gt;Node8 -->
<g id="edge7_Node000001_Node000008" class="edge">
<title>Node1&#45;&gt;Node8</title>
<g id="a_edge7_Node000001_Node000008"><a xlink:title=" ">
<path fill="none" stroke="#63b8ff" d="M828.06,-180C820.02,-180 811.89,-180 804.02,-180"/>
<polygon fill="#63b8ff" stroke="#63b8ff" points="827.81,-183.5 837.81,-180 827.81,-176.5 827.81,-183.5"/>
</a>
</g>
</g>
<!-- Node9 -->
<g id="Node000009" class="node">
<title>Node9</title>
<g id="a_Node000009"><a xlink:href="class_u_u_i_manager_subsystem.html#a291d9552775bf1843f433b3e363b0543" target="_top" xlink:title=" ">
<polygon fill="white" stroke="#666666" points="803.75,-114 682.75,-114 682.75,-82 803.75,-82 803.75,-114"/>
<text xml:space="preserve" text-anchor="start" x="690.75" y="-100.5" font-family="Helvetica,sans-Serif" font-size="10.00">UUIManagerSubsystem</text>
<text xml:space="preserve" text-anchor="middle" x="743.25" y="-88.5" font-family="Helvetica,sans-Serif" font-size="10.00">::ShowWidget</text>
</a>
</g>
</g>
<!-- Node1&#45;&gt;Node9 -->
<g id="edge9_Node000001_Node000009" class="edge">
<title>Node1&#45;&gt;Node9</title>
<g id="a_edge9_Node000001_Node000009"><a xlink:title=" ">
<path fill="none" stroke="#63b8ff" d="M858.3,-158.33C832.24,-144.55 799.04,-126.99 775.19,-114.37"/>
<polygon fill="#63b8ff" stroke="#63b8ff" points="856.44,-161.31 866.92,-162.9 859.72,-155.13 856.44,-161.31"/>
</a>
</g>
</g>
<!-- Node3 -->
<g id="Node000003" class="node">
<title>Node3</title>
<g id="a_Node000003"><a xlink:href="class_u_u_i_manager_subsystem.html#ac0719470d72fdf3bd3d14b976ad44e33" target="_top" xlink:title=" ">
<polygon fill="white" stroke="#666666" points="644.88,-246 511.12,-246 511.12,-214 644.88,-214 644.88,-246"/>
<text xml:space="preserve" text-anchor="start" x="519.12" y="-232.5" font-family="Helvetica,sans-Serif" font-size="10.00">UUIManagerSubsystem</text>
<text xml:space="preserve" text-anchor="middle" x="578" y="-220.5" font-family="Helvetica,sans-Serif" font-size="10.00">::OnChangeGameStateTag</text>
</a>
</g>
</g>
<!-- Node2&#45;&gt;Node3 -->
<g id="edge2_Node000002_Node000003" class="edge">
<title>Node2&#45;&gt;Node3</title>
<g id="a_edge2_Node000002_Node000003"><a xlink:title=" ">
<path fill="none" stroke="#63b8ff" d="M670.88,-230C662.34,-230 653.65,-230 645.19,-230"/>
<polygon fill="#63b8ff" stroke="#63b8ff" points="670.88,-233.5 680.88,-230 670.88,-226.5 670.88,-233.5"/>
</a>
</g>
</g>
<!-- Node4 -->
<g id="Node000004" class="node">
<title>Node4</title>
<g id="a_Node000004"><a xlink:href="class_u_u_i_manager_subsystem.html#a246ae6eabb3d321cdc4abc2068ca1e61" target="_top" xlink:title=" ">
<polygon fill="white" stroke="#666666" points="473.25,-199 314,-199 314,-167 473.25,-167 473.25,-199"/>
<text xml:space="preserve" text-anchor="start" x="322" y="-185.5" font-family="Helvetica,sans-Serif" font-size="10.00">UUIManagerSubsystem</text>
<text xml:space="preserve" text-anchor="middle" x="393.62" y="-173.5" font-family="Helvetica,sans-Serif" font-size="10.00">::BindPlayerStateAndGameState</text>
</a>
</g>
</g>
<!-- Node3&#45;&gt;Node4 -->
<g id="edge3_Node000003_Node000004" class="edge">
<title>Node3&#45;&gt;Node4</title>
<g id="a_edge3_Node000003_Node000004"><a xlink:title=" ">
<path fill="none" stroke="#63b8ff" d="M502.22,-210.73C487.67,-206.98 472.53,-203.08 458.37,-199.43"/>
<polygon fill="#63b8ff" stroke="#63b8ff" points="501.19,-214.08 511.75,-213.18 502.94,-207.3 501.19,-214.08"/>
</a>
</g>
</g>
<!-- Node5 -->
<g id="Node000005" class="node">
<title>Node5</title>
<g id="a_Node000005"><a xlink:href="class_u_u_i_manager_subsystem.html#ae786dee1d051999eb3e98960d96a39d4" target="_top" xlink:title=" ">
<polygon fill="white" stroke="#666666" points="278,-199 157,-199 157,-167 278,-167 278,-199"/>
<text xml:space="preserve" text-anchor="start" x="165" y="-185.5" font-family="Helvetica,sans-Serif" font-size="10.00">UUIManagerSubsystem</text>
<text xml:space="preserve" text-anchor="middle" x="217.5" y="-173.5" font-family="Helvetica,sans-Serif" font-size="10.00">::InitializeForPlayer</text>
</a>
</g>
</g>
<!-- Node4&#45;&gt;Node5 -->
<g id="edge4_Node000004_Node000005" class="edge">
<title>Node4&#45;&gt;Node5</title>
<g id="a_edge4_Node000004_Node000005"><a xlink:title=" ">
<path fill="none" stroke="#63b8ff" d="M302.27,-183C294.17,-183 286.11,-183 278.36,-183"/>
<polygon fill="#63b8ff" stroke="#63b8ff" points="302.2,-186.5 312.2,-183 302.2,-179.5 302.2,-186.5"/>
</a>
</g>
</g>
<!-- Node6 -->
<g id="Node000006" class="node">
<title>Node6</title>
<g id="a_Node000006"><a xlink:href="class_u_u_i_manager_subsystem.html#a8199a73ecef396d77dc15b4049ad7491" target="_top" xlink:title=" ">
<polygon fill="white" stroke="#666666" points="278,-113 157,-113 157,-81 278,-81 278,-113"/>
<text xml:space="preserve" text-anchor="start" x="165" y="-99.5" font-family="Helvetica,sans-Serif" font-size="10.00">UUIManagerSubsystem</text>
<text xml:space="preserve" text-anchor="middle" x="217.5" y="-87.5" font-family="Helvetica,sans-Serif" font-size="10.00">::OnChangeLevel</text>
</a>
</g>
</g>
<!-- Node4&#45;&gt;Node6 -->
<g id="edge5_Node000004_Node000006" class="edge">
<title>Node4&#45;&gt;Node6</title>
<g id="a_edge5_Node000004_Node000006"><a xlink:title=" ">
<path fill="none" stroke="#63b8ff" d="M331.12,-162.47C325.27,-160.11 319.48,-157.61 314,-155 288.6,-142.92 261.34,-125.92 242.47,-113.44"/>
<polygon fill="#63b8ff" stroke="#63b8ff" points="329.67,-165.66 340.26,-166.02 332.21,-159.14 329.67,-165.66"/>
</a>
</g>
</g>
<!-- Node7 -->
<g id="Node000007" class="node">
<title>Node7</title>
<g id="a_Node000007"><a xlink:href="class_u_u_i_manager_subsystem.html#a0ece8b5888a4cfe5b70f308dcfb28478" target="_top" xlink:title=" ">
<polygon fill="white" stroke="#666666" points="121,-113 0,-113 0,-81 121,-81 121,-113"/>
<text xml:space="preserve" text-anchor="start" x="8" y="-99.5" font-family="Helvetica,sans-Serif" font-size="10.00">UUIManagerSubsystem</text>
<text xml:space="preserve" text-anchor="middle" x="60.5" y="-87.5" font-family="Helvetica,sans-Serif" font-size="10.00">::SetupInitialUI</text>
</a>
</g>
</g>
<!-- Node6&#45;&gt;Node7 -->
<g id="edge6_Node000006_Node000007" class="edge">
<title>Node6&#45;&gt;Node7</title>
<g id="a_edge6_Node000006_Node000007"><a xlink:title=" ">
<path fill="none" stroke="#63b8ff" d="M145.31,-97C137.27,-97 129.14,-97 121.27,-97"/>
<polygon fill="#63b8ff" stroke="#63b8ff" points="145.06,-100.5 155.06,-97 145.06,-93.5 145.06,-100.5"/>
</a>
</g>
</g>
<!-- Node8&#45;&gt;Node4 -->
<g id="edge8_Node000008_Node000004" class="edge">
<title>Node8&#45;&gt;Node4</title>
<g id="a_edge8_Node000008_Node000004"><a xlink:title=" ">
<path fill="none" stroke="#63b8ff" d="M671.32,-180.61C613.86,-181.11 532.94,-181.81 473.46,-182.32"/>
<polygon fill="#63b8ff" stroke="#63b8ff" points="671.01,-184.12 680.98,-180.53 670.95,-177.12 671.01,-184.12"/>
</a>
</g>
</g>
<!-- Node9&#45;&gt;Node6 -->
<g id="edge11_Node000009_Node000006" class="edge">
<title>Node9&#45;&gt;Node6</title>
<g id="a_edge11_Node000009_Node000006"><a xlink:title=" ">
<path fill="none" stroke="#63b8ff" d="M671.26,-82.28C663.03,-80.93 654.73,-79.79 646.75,-79 499.57,-64.5 461.25,-65.24 314,-79 302.41,-80.08 290.13,-81.89 278.37,-83.95"/>
<polygon fill="#63b8ff" stroke="#63b8ff" points="670.46,-85.69 680.91,-83.97 671.67,-78.8 670.46,-85.69"/>
</a>
</g>
</g>
<!-- Node10 -->
<g id="Node000010" class="node">
<title>Node10</title>
<g id="a_Node000010"><a xlink:href="class_u_u_i_manager_subsystem.html#ab97849a761dc09f79fcbf69c45fc0ae3" target="_top" xlink:title=" ">
<polygon fill="white" stroke="#666666" points="638.5,-32 517.5,-32 517.5,0 638.5,0 638.5,-32"/>
<text xml:space="preserve" text-anchor="start" x="525.5" y="-18.5" font-family="Helvetica,sans-Serif" font-size="10.00">UUIManagerSubsystem</text>
<text xml:space="preserve" text-anchor="middle" x="578" y="-6.5" font-family="Helvetica,sans-Serif" font-size="10.00">::HandleEscapeAction</text>
</a>
</g>
</g>
<!-- Node9&#45;&gt;Node10 -->
<g id="edge10_Node000009_Node000010" class="edge">
<title>Node9&#45;&gt;Node10</title>
<g id="a_edge10_Node000009_Node000010"><a xlink:title=" ">
<path fill="none" stroke="#63b8ff" d="M703.99,-76.24C686.68,-66.63 665.86,-55.41 646.75,-46 637.4,-41.4 627.19,-36.7 617.59,-32.44"/>
<polygon fill="#63b8ff" stroke="#63b8ff" points="701.98,-79.12 712.41,-80.94 705.39,-73.01 701.98,-79.12"/>
</a>
</g>
</g>
<!-- Node11 -->
<g id="Node000011" class="node">
<title>Node11</title>
<g id="a_Node000011"><a xlink:href="class_u_u_i_manager_subsystem.html#aec1290f1100ff3c1b7fa144daec04166" target="_top" xlink:title=" ">
<polygon fill="white" stroke="#666666" points="645.62,-158 510.38,-158 510.38,-126 645.62,-126 645.62,-158"/>
<text xml:space="preserve" text-anchor="start" x="518.38" y="-144.5" font-family="Helvetica,sans-Serif" font-size="10.00">UUIManagerSubsystem</text>
<text xml:space="preserve" text-anchor="middle" x="578" y="-132.5" font-family="Helvetica,sans-Serif" font-size="10.00">::OnChangePlayerStateTag</text>
</a>
</g>
</g>
<!-- Node9&#45;&gt;Node11 -->
<g id="edge12_Node000009_Node000011" class="edge">
<title>Node9&#45;&gt;Node11</title>
<g id="a_edge12_Node000009_Node000011"><a xlink:title=" ">
<path fill="none" stroke="#63b8ff" d="M671.54,-117.06C661.02,-119.89 650.25,-122.8 639.95,-125.57"/>
<polygon fill="#63b8ff" stroke="#63b8ff" points="672.18,-120.51 680.93,-114.53 670.36,-113.75 672.18,-120.51"/>
</a>
</g>
</g>
<!-- Node12 -->
<g id="Node000012" class="node">
<title>Node12</title>
<g id="a_Node000012"><a xlink:href="class_u_main_u_i.html#a6158fd9774d8fbbe427df565301fe82a" target="_top" xlink:title=" ">
<polygon fill="white" stroke="#666666" points="646.75,-108 509.25,-108 509.25,-88 646.75,-88 646.75,-108"/>
<text xml:space="preserve" text-anchor="middle" x="578" y="-94.5" font-family="Helvetica,sans-Serif" font-size="10.00">UMainUI::OnClickedSetting</text>
</a>
</g>
</g>
<!-- Node9&#45;&gt;Node12 -->
<g id="edge14_Node000009_Node000012" class="edge">
<title>Node9&#45;&gt;Node12</title>
<g id="a_edge14_Node000009_Node000012"><a xlink:title=" ">
<path fill="none" stroke="#63b8ff" d="M670.94,-98C663.03,-98 655,-98 647.14,-98"/>
<polygon fill="#63b8ff" stroke="#63b8ff" points="670.88,-101.5 680.88,-98 670.88,-94.5 670.88,-101.5"/>
</a>
</g>
</g>
<!-- Node11&#45;&gt;Node4 -->
<g id="edge13_Node000011_Node000004" class="edge">
<title>Node11&#45;&gt;Node4</title>
<g id="a_edge13_Node000011_Node000004"><a xlink:title=" ">
<path fill="none" stroke="#63b8ff" d="M499.05,-159.52C488.73,-161.84 478.18,-164.22 467.95,-166.52"/>
<polygon fill="#63b8ff" stroke="#63b8ff" points="499.66,-162.97 508.65,-157.37 498.12,-156.14 499.66,-162.97"/>
</a>
</g>
</g>
<!-- Node13 -->
<g id="Node000013" class="node">
<title>Node13</title>
<g id="a_Node000013"><a xlink:href="class_u_main_u_i.html#a64fc3061e4828b4d481930c7205a2a48" target="_top" xlink:title=" ">
<polygon fill="white" stroke="#666666" points="459.75,-146 327.5,-146 327.5,-126 459.75,-126 459.75,-146"/>
<text xml:space="preserve" text-anchor="middle" x="393.62" y="-132.5" font-family="Helvetica,sans-Serif" font-size="10.00">UMainUI::NativeConstruct</text>
</a>
</g>
</g>
<!-- Node12&#45;&gt;Node13 -->
<g id="edge15_Node000012_Node000013" class="edge">
<title>Node12&#45;&gt;Node13</title>
<g id="a_edge15_Node000012_Node000013"><a xlink:title=" ">
<path fill="none" stroke="#63b8ff" d="M515.63,-110.79C492.58,-115.59 466.69,-120.99 444.78,-125.55"/>
<polygon fill="#63b8ff" stroke="#63b8ff" points="516.12,-114.26 525.2,-108.79 514.7,-107.41 516.12,-114.26"/>
</a>
</g>
</g>
<!-- Node14 -->
<g id="Node000014" class="node">
<title>Node14</title>
<g id="a_Node000014"><a xlink:href="class_u_main_u_i.html#a2683c924b81eaceaaaa22fab1a07802f" target="_top" xlink:title=" ">
<polygon fill="white" stroke="#666666" points="457.12,-108 330.12,-108 330.12,-88 457.12,-88 457.12,-108"/>
<text xml:space="preserve" text-anchor="middle" x="393.62" y="-94.5" font-family="Helvetica,sans-Serif" font-size="10.00">UMainUI::NativeDestruct</text>
</a>
</g>
</g>
<!-- Node12&#45;&gt;Node14 -->
<g id="edge16_Node000012_Node000014" class="edge">
<title>Node12&#45;&gt;Node14</title>
<g id="a_edge16_Node000012_Node000014"><a xlink:title=" ">
<path fill="none" stroke="#63b8ff" d="M497.68,-98C484.27,-98 470.51,-98 457.59,-98"/>
<polygon fill="#63b8ff" stroke="#63b8ff" points="497.32,-101.5 507.32,-98 497.32,-94.5 497.32,-101.5"/>
</a>
</g>
</g>
</g>
</svg>

<g id="navigator" transform="translate(0 0)" fill="#404254">
  <rect fill="#f2f5e9" fill-opacity="0.5" stroke="#606060" stroke-width=".5" x="0" y="0" width="60" height="60"/>
  <use id="zoomplus" xlink:href="#zoomPlus" x="17" y="9" onmousedown="handleZoom(evt,'in')"/>
  <use id="zoomminus" xlink:href="#zoomMin" x="42" y="9" onmousedown="handleZoom(evt,'out')"/>
  <use id="reset" xlink:href="#resetDef" x="30" y="36" onmousedown="handleReset()"/>
   <use id="arrowup" xlink:href="#arrowUp" x="0" y="0" onmousedown="handlePan(0,-1)"/>
  <use id="arrowright" xlink:href="#arrowRight" x="0" y="0" onmousedown="handlePan(1,0)"/>
  <use id="arrowdown" xlink:href="#arrowDown" x="0" y="0" onmousedown="handlePan(0,1)"/>
  <use id="arrowleft" xlink:href="#arrowLeft" x="0" y="0" onmousedown="handlePan(-1,0)"/>
</g>
<svg viewBox="0 0 15 15" width="100%" height="30px" preserveAspectRatio="xMaxYMin meet">
 <g id="arrow_out" transform="scale(0.3 0.3)">
  <a xlink:href="class_u_u_i_manager_subsystem_ae6e92a8dab7f856443cfe5c4d00b25c9_icgraph_org.svg" target="_base">
   <rect id="button" ry="5" rx="5" y="6" x="6" height="38" width="38"
        fill="#f2f5e9" fill-opacity="0.5" stroke="#606060" stroke-width="1.0"/>
   <path id="arrow"
     d="M 11.500037,31.436501 C 11.940474,20.09759 22.043105,11.32322 32.158766,21.979434 L 37.068811,17.246167 C 37.068811,17.246167 37.088388,32 37.088388,32 L 22.160133,31.978069 C 22.160133,31.978069 26.997745,27.140456 26.997745,27.140456 C 18.528582,18.264221 13.291696,25.230495 11.500037,31.436501 z"
     style="fill:#404040;"/>
  </a>
 </g>
</svg>

<style type='text/css'>
<![CDATA[
[data-mouse-over-selected='false'] { opacity: 0.7; }
[data-mouse-over-selected='true']  { opacity: 1.0; }
]]>
</style>
<script type="application/ecmascript"><![CDATA[
document.addEventListener('DOMContentLoaded', (event) => {
  highlightEdges();
  highlightAdjacentNodes();
});
]]></script>
</svg>
