<?xml version="1.0" encoding="UTF-8" standalone="no"?>
<!DOCTYPE svg PUBLIC "-//W3C//DTD SVG 1.1//EN"
 "http://www.w3.org/Graphics/SVG/1.1/DTD/svg11.dtd">
<!-- Generated by graphviz version 13.1.1 (20250719.2154)
 -->
<!-- Title: AKPTInGameMode::HandleBossSpawned Pages: 1 -->
<svg width="1159pt" height="142pt"
 viewBox="0.00 0.00 1159.00 142.00" xmlns="http://www.w3.org/2000/svg" xmlns:xlink="http://www.w3.org/1999/xlink">
<g id="graph0" class="graph" transform="scale(1 1) rotate(0) translate(4 137.52)">
<title>AKPTInGameMode::HandleBossSpawned</title>
<!-- Node1 -->
<g id="Node000001" class="node">
<title>Node1</title>
<g id="a_Node000001"><a xlink:title=" ">
<polygon fill="#999999" stroke="#666666" points="1151.25,-51.52 991.25,-51.52 991.25,-19.52 1151.25,-19.52 1151.25,-51.52"/>
<text xml:space="preserve" text-anchor="start" x="999.25" y="-38.02" font-family="Helvetica,sans-Serif" font-size="10.00">AKPTInGameMode::HandleBoss</text>
<text xml:space="preserve" text-anchor="middle" x="1071.25" y="-26.02" font-family="Helvetica,sans-Serif" font-size="10.00">Spawned</text>
</a>
</g>
</g>
<!-- Node2 -->
<g id="Node000002" class="node">
<title>Node2</title>
<g id="a_Node000002"><a xlink:href="class_a_k_p_t_in_game_mode.html#a1c856c37dce7343a381723b5d842ecf7" target="_top" xlink:title="모든 플레이어가 사망했는지 확인합니다.">
<polygon fill="white" stroke="#666666" points="955.25,-64.52 766,-64.52 766,-44.52 955.25,-44.52 955.25,-64.52"/>
<text xml:space="preserve" text-anchor="middle" x="860.62" y="-51.02" font-family="Helvetica,sans-Serif" font-size="10.00">AKPTInGameMode::AreAllPlayersDead</text>
</a>
</g>
</g>
<!-- Node1&#45;&gt;Node2 -->
<g id="edge1_Node000001_Node000002" class="edge">
<title>Node1&#45;&gt;Node2</title>
<g id="a_edge1_Node000001_Node000002"><a xlink:title=" ">
<path fill="none" stroke="#63b8ff" d="M979.33,-43.8C971.45,-44.52 963.46,-45.25 955.56,-45.97"/>
<polygon fill="#63b8ff" stroke="#63b8ff" points="979.63,-47.29 989.28,-42.9 979,-40.32 979.63,-47.29"/>
</a>
</g>
</g>
<!-- Node11 -->
<g id="Node000011" class="node">
<title>Node11</title>
<g id="a_Node000011"><a xlink:href="class_a_k_p_t_in_game_mode.html#a88de57fba9da892b172c9106affe14f3" target="_top" xlink:title=" ">
<polygon fill="white" stroke="#666666" points="934.25,-26.52 787,-26.52 787,-6.52 934.25,-6.52 934.25,-26.52"/>
<text xml:space="preserve" text-anchor="middle" x="860.62" y="-13.02" font-family="Helvetica,sans-Serif" font-size="10.00">AKPTInGameMode::StartPlay</text>
</a>
</g>
</g>
<!-- Node1&#45;&gt;Node11 -->
<g id="edge14_Node000001_Node000011" class="edge">
<title>Node1&#45;&gt;Node11</title>
<g id="a_edge14_Node000001_Node000011"><a xlink:title=" ">
<path fill="none" stroke="#63b8ff" d="M979.44,-27.25C964.48,-25.89 949.15,-24.49 934.7,-23.18"/>
<polygon fill="#63b8ff" stroke="#63b8ff" points="979,-30.73 989.28,-28.15 979.63,-23.76 979,-30.73"/>
</a>
</g>
</g>
<!-- Node2&#45;&gt;Node2 -->
<g id="edge2_Node000002_Node000002" class="edge">
<title>Node2&#45;&gt;Node2</title>
<g id="a_edge2_Node000002_Node000002"><a xlink:title=" ">
<path fill="none" stroke="#63b8ff" d="M898.6,-75.29C894.45,-79.51 881.79,-82.52 860.62,-82.52 824.01,-82.52 812.86,-73.5 827.16,-64.86"/>
<polygon fill="#63b8ff" stroke="#63b8ff" points="901.87,-74.04 894.69,-66.25 895.45,-76.82 901.87,-74.04"/>
</a>
</g>
</g>
<!-- Node3 -->
<g id="Node000003" class="node">
<title>Node3</title>
<g id="a_Node000003"><a xlink:href="class_a_k_p_t_in_game_mode.html#a0e1dec85eeba3835d463238c88f8904b" target="_top" xlink:title="야간 페이즈를 종료하고, 게임 종료 조건을 확인하거나 새 라운드를 시작합니다.">
<polygon fill="white" stroke="#666666" points="719.88,-123.52 572.62,-123.52 572.62,-91.52 719.88,-91.52 719.88,-123.52"/>
<text xml:space="preserve" text-anchor="start" x="580.62" y="-110.02" font-family="Helvetica,sans-Serif" font-size="10.00">AKPTInGameMode::EndNight</text>
<text xml:space="preserve" text-anchor="middle" x="646.25" y="-98.02" font-family="Helvetica,sans-Serif" font-size="10.00">Phase</text>
</a>
</g>
</g>
<!-- Node2&#45;&gt;Node3 -->
<g id="edge3_Node000002_Node000003" class="edge">
<title>Node2&#45;&gt;Node3</title>
<g id="a_edge3_Node000002_Node000003"><a xlink:title=" ">
<path fill="none" stroke="#63b8ff" d="M806.75,-67.72C778.36,-74.8 743.1,-83.6 712.95,-91.13"/>
<polygon fill="#63b8ff" stroke="#63b8ff" points="807.34,-71.18 816.2,-65.36 805.65,-64.39 807.34,-71.18"/>
</a>
</g>
</g>
<!-- Node7 -->
<g id="Node000007" class="node">
<title>Node7</title>
<g id="a_Node000007"><a xlink:href="class_a_k_p_t_in_game_mode.html#a3a63b6ea26b3ef6a916ca7b5fed4813f" target="_top" xlink:title="플레이어가 사망했을 때 호출됩니다.">
<polygon fill="white" stroke="#666666" points="730,-64.52 562.5,-64.52 562.5,-44.52 730,-44.52 730,-64.52"/>
<text xml:space="preserve" text-anchor="middle" x="646.25" y="-51.02" font-family="Helvetica,sans-Serif" font-size="10.00">AKPTInGameMode::OnPlayerDied</text>
</a>
</g>
</g>
<!-- Node2&#45;&gt;Node7 -->
<g id="edge8_Node000002_Node000007" class="edge">
<title>Node2&#45;&gt;Node7</title>
<g id="a_edge8_Node000002_Node000007"><a xlink:title=" ">
<path fill="none" stroke="#63b8ff" d="M754.2,-54.52C746.16,-54.52 738.12,-54.52 730.25,-54.52"/>
<polygon fill="#63b8ff" stroke="#63b8ff" points="754.03,-58.02 764.03,-54.52 754.03,-51.02 754.03,-58.02"/>
</a>
</g>
</g>
<!-- Node4 -->
<g id="Node000004" class="node">
<title>Node4</title>
<g id="a_Node000004"><a xlink:href="class_a_k_p_t_in_game_mode.html#acd0b193dd9ce700d2a4cb3953565584c" target="_top" xlink:title="야간 페이즈의 핵심 로직을 실행합니다.">
<polygon fill="white" stroke="#666666" points="526.5,-133.52 375.5,-133.52 375.5,-101.52 526.5,-101.52 526.5,-133.52"/>
<text xml:space="preserve" text-anchor="start" x="383.5" y="-120.02" font-family="Helvetica,sans-Serif" font-size="10.00">AKPTInGameMode::StartNight</text>
<text xml:space="preserve" text-anchor="middle" x="451" y="-108.02" font-family="Helvetica,sans-Serif" font-size="10.00">Phase</text>
</a>
</g>
</g>
<!-- Node3&#45;&gt;Node4 -->
<g id="edge4_Node000003_Node000004" class="edge">
<title>Node3&#45;&gt;Node4</title>
<g id="a_edge4_Node000003_Node000004"><a xlink:title=" ">
<path fill="none" stroke="#63b8ff" d="M560.92,-111.89C549.56,-112.47 537.96,-113.07 526.77,-113.65"/>
<polygon fill="#63b8ff" stroke="#63b8ff" points="560.87,-115.39 570.68,-111.38 560.51,-108.4 560.87,-115.39"/>
</a>
</g>
</g>
<!-- Node5 -->
<g id="Node000005" class="node">
<title>Node5</title>
<g id="a_Node000005"><a xlink:href="class_a_k_p_t_in_game_mode.html#a84edc1df98161132b7b803669c9299a0" target="_top" xlink:title="야간 페이즈를 시작하기 위한 준비 및 전환을 시작합니다.">
<polygon fill="white" stroke="#666666" points="339.5,-123.52 184.75,-123.52 184.75,-91.52 339.5,-91.52 339.5,-123.52"/>
<text xml:space="preserve" text-anchor="start" x="192.75" y="-110.02" font-family="Helvetica,sans-Serif" font-size="10.00">AKPTInGameMode::BeginNight</text>
<text xml:space="preserve" text-anchor="middle" x="262.12" y="-98.02" font-family="Helvetica,sans-Serif" font-size="10.00">PhaseLogic</text>
</a>
</g>
</g>
<!-- Node4&#45;&gt;Node5 -->
<g id="edge5_Node000004_Node000005" class="edge">
<title>Node4&#45;&gt;Node5</title>
<g id="a_edge5_Node000004_Node000005"><a xlink:title=" ">
<path fill="none" stroke="#63b8ff" d="M363.57,-112.9C355.67,-112.47 347.71,-112.05 339.91,-111.63"/>
<polygon fill="#63b8ff" stroke="#63b8ff" points="363.38,-116.39 373.56,-113.43 363.76,-109.4 363.38,-116.39"/>
</a>
</g>
</g>
<!-- Node6 -->
<g id="Node000006" class="node">
<title>Node6</title>
<g id="a_Node000006"><a xlink:href="class_a_k_p_t_in_game_mode.html#a410acd626df9144d7ebb63b535dbc37b" target="_top" xlink:title=" ">
<polygon fill="white" stroke="#666666" points="148.75,-63.52 0,-63.52 0,-31.52 148.75,-31.52 148.75,-63.52"/>
<text xml:space="preserve" text-anchor="start" x="8" y="-50.02" font-family="Helvetica,sans-Serif" font-size="10.00">AKPTInGameMode::Complete</text>
<text xml:space="preserve" text-anchor="middle" x="74.38" y="-38.02" font-family="Helvetica,sans-Serif" font-size="10.00">PhaseTransition</text>
</a>
</g>
</g>
<!-- Node5&#45;&gt;Node6 -->
<g id="edge6_Node000005_Node000006" class="edge">
<title>Node5&#45;&gt;Node6</title>
<g id="a_edge6_Node000005_Node000006"><a xlink:title=" ">
<path fill="none" stroke="#63b8ff" d="M199.7,-87.68C175.94,-80 149.06,-71.32 126.39,-64"/>
<polygon fill="#63b8ff" stroke="#63b8ff" points="198.34,-90.92 208.93,-90.66 200.49,-84.26 198.34,-90.92"/>
</a>
</g>
</g>
<!-- Node6&#45;&gt;Node2 -->
<g id="edge7_Node000006_Node000002" class="edge">
<title>Node6&#45;&gt;Node2</title>
<g id="a_edge7_Node000006_Node000002"><a xlink:title=" ">
<path fill="none" stroke="#63b8ff" d="M133.7,-27.78C150.03,-23.14 167.91,-18.86 184.75,-16.52 424.92,16.86 489.24,-6.66 730,-35.52 750.44,-37.97 772.62,-41.07 792.77,-44.04"/>
<polygon fill="#63b8ff" stroke="#63b8ff" points="132.73,-24.42 124.13,-30.6 134.71,-31.13 132.73,-24.42"/>
</a>
</g>
</g>
<!-- Node8 -->
<g id="Node000008" class="node">
<title>Node8</title>
<g id="a_Node000008"><a xlink:href="class_a_player_character.html#aa38c751d8495a3e3d999eafad23d7a88" target="_top" xlink:title=" ">
<polygon fill="white" stroke="#666666" points="508.12,-83.52 393.88,-83.52 393.88,-63.52 508.12,-63.52 508.12,-83.52"/>
<text xml:space="preserve" text-anchor="middle" x="451" y="-70.02" font-family="Helvetica,sans-Serif" font-size="10.00">APlayerCharacter::Die</text>
</a>
</g>
</g>
<!-- Node7&#45;&gt;Node8 -->
<g id="edge9_Node000007_Node000008" class="edge">
<title>Node7&#45;&gt;Node8</title>
<g id="a_edge9_Node000007_Node000008"><a xlink:title=" ">
<path fill="none" stroke="#63b8ff" d="M551.08,-63.78C536.53,-65.21 521.9,-66.65 508.52,-67.97"/>
<polygon fill="#63b8ff" stroke="#63b8ff" points="551.06,-67.3 560.67,-62.84 550.37,-60.33 551.06,-67.3"/>
</a>
</g>
</g>
<!-- Node9 -->
<g id="Node000009" class="node">
<title>Node9</title>
<g id="a_Node000009"><a xlink:href="class_a_character_base.html#af4c20a0d4ddeb41b0eb305b807bcfc9d" target="_top" xlink:title=" ">
<polygon fill="white" stroke="#666666" points="526.5,-45.52 375.5,-45.52 375.5,-25.52 526.5,-25.52 526.5,-45.52"/>
<text xml:space="preserve" text-anchor="middle" x="451" y="-32.02" font-family="Helvetica,sans-Serif" font-size="10.00">ACharacterBase::HandleDeath</text>
</a>
</g>
</g>
<!-- Node7&#45;&gt;Node9 -->
<g id="edge10_Node000007_Node000009" class="edge">
<title>Node7&#45;&gt;Node9</title>
<g id="a_edge10_Node000007_Node000009"><a xlink:title=" ">
<path fill="none" stroke="#63b8ff" d="M550.81,-45.24C542.74,-44.44 534.66,-43.65 526.78,-42.87"/>
<polygon fill="#63b8ff" stroke="#63b8ff" points="550.37,-48.71 560.67,-46.21 551.06,-41.74 550.37,-48.71"/>
</a>
</g>
</g>
<!-- Node10 -->
<g id="Node000010" class="node">
<title>Node10</title>
<g id="a_Node000010"><a xlink:href="class_a_character_base.html#af3460531018611a7b3b2c59779c65ead" target="_top" xlink:title=" ">
<polygon fill="white" stroke="#666666" points="328.62,-45.52 195.62,-45.52 195.62,-25.52 328.62,-25.52 328.62,-45.52"/>
<text xml:space="preserve" text-anchor="middle" x="262.12" y="-32.02" font-family="Helvetica,sans-Serif" font-size="10.00">ACharacterBase::OnDeath</text>
</a>
</g>
</g>
<!-- Node9&#45;&gt;Node10 -->
<g id="edge11_Node000009_Node000010" class="edge">
<title>Node9&#45;&gt;Node10</title>
<g id="a_edge11_Node000009_Node000010"><a xlink:title=" ">
<path fill="none" stroke="#63b8ff" d="M363.9,-28.79C352.19,-28.73 340.31,-28.81 329.03,-29.04"/>
<polygon fill="#63b8ff" stroke="#63b8ff" points="363.52,-32.29 373.55,-28.88 363.59,-25.29 363.52,-32.29"/>
</a>
</g>
</g>
<!-- Node10&#45;&gt;Node9 -->
<g id="edge12_Node000010_Node000009" class="edge">
<title>Node10&#45;&gt;Node9</title>
<g id="a_edge12_Node000010_Node000009"><a xlink:title=" ">
<path fill="none" stroke="#63b8ff" d="M340.36,-42.18C351.84,-42.31 363.64,-42.3 375.07,-42.15"/>
<polygon fill="#63b8ff" stroke="#63b8ff" points="340.6,-38.68 330.54,-42.03 340.49,-45.68 340.6,-38.68"/>
</a>
</g>
</g>
<!-- Node10&#45;&gt;Node10 -->
<g id="edge13_Node000010_Node000010" class="edge">
<title>Node10&#45;&gt;Node10</title>
<g id="a_edge13_Node000010_Node000010"><a xlink:title=" ">
<path fill="none" stroke="#63b8ff" d="M295.66,-56.63C291.66,-60.67 280.48,-63.52 262.12,-63.52 229.49,-63.52 219.54,-54.5 232.29,-45.86"/>
<polygon fill="#63b8ff" stroke="#63b8ff" points="299.01,-55.61 292.45,-47.29 292.39,-57.89 299.01,-55.61"/>
</a>
</g>
</g>
</g>
</svg>
