<?xml version="1.0" encoding="UTF-8" standalone="no"?>
<!DOCTYPE svg PUBLIC "-//W3C//DTD SVG 1.1//EN"
 "http://www.w3.org/Graphics/SVG/1.1/DTD/svg11.dtd">
<!-- Generated by graphviz version 13.1.1 (20250719.2154)
 -->
<!-- Title: AKPTLobbyDisplayPawn Pages: 1 -->
<svg width="166pt" height="284pt"
 viewBox="0.00 0.00 166.00 284.00" xmlns="http://www.w3.org/2000/svg" xmlns:xlink="http://www.w3.org/1999/xlink">
<g id="graph0" class="graph" transform="scale(1 1) rotate(0) translate(4 280)">
<title>AKPTLobbyDisplayPawn</title>
<!-- Node1 -->
<g id="Node000001" class="node">
<title>Node1</title>
<g id="a_Node000001"><a xlink:title=" ">
<polygon fill="#999999" stroke="none" points="157.5,-188 0,-188 0,0 157.5,0 157.5,-188"/>
<text xml:space="preserve" text-anchor="start" x="23.62" y="-174.5" font-family="Helvetica,sans-Serif" font-size="10.00">AKPTLobbyDisplayPawn</text>
<text xml:space="preserve" text-anchor="start" x="4.38" y="-158.5" font-family="Helvetica,sans-Serif" font-size="10.00">#</text>
<text xml:space="preserve" text-anchor="start" x="14" y="-158.5" font-family="Helvetica,sans-Serif" font-size="10.00">FGameplayTag SlotIdentifierTag</text>
<text xml:space="preserve" text-anchor="start" x="4" y="-142.5" font-family="Helvetica,sans-Serif" font-size="10.00">+</text>
<text xml:space="preserve" text-anchor="start" x="14" y="-142.5" font-family="Helvetica,sans-Serif" font-size="10.00">AKPTLobbyDisplayPawn()</text>
<text xml:space="preserve" text-anchor="start" x="4.38" y="-126.5" font-family="Helvetica,sans-Serif" font-size="10.00">#</text>
<text xml:space="preserve" text-anchor="start" x="14" y="-126.5" font-family="Helvetica,sans-Serif" font-size="10.00">void AttemptInitialState</text>
<text xml:space="preserve" text-anchor="start" x="14" y="-114.5" font-family="Helvetica,sans-Serif" font-size="10.00">Update()</text>
<text xml:space="preserve" text-anchor="start" x="4.38" y="-98.5" font-family="Helvetica,sans-Serif" font-size="10.00">#</text>
<text xml:space="preserve" text-anchor="start" x="14" y="-98.5" font-family="Helvetica,sans-Serif" font-size="10.00">virtual void BeginPlay</text>
<text xml:space="preserve" text-anchor="start" x="14" y="-86.5" font-family="Helvetica,sans-Serif" font-size="10.00">() override</text>
<text xml:space="preserve" text-anchor="start" x="4.38" y="-70.5" font-family="Helvetica,sans-Serif" font-size="10.00">#</text>
<text xml:space="preserve" text-anchor="start" x="14" y="-70.5" font-family="Helvetica,sans-Serif" font-size="10.00">void OnLobbyStateUpdated</text>
<text xml:space="preserve" text-anchor="start" x="14" y="-58.5" font-family="Helvetica,sans-Serif" font-size="10.00">(const TArray&lt; FPlayerSlotInfo</text>
<text xml:space="preserve" text-anchor="start" x="14" y="-46.5" font-family="Helvetica,sans-Serif" font-size="10.00"> &gt; &amp;NewPlayerSlots)</text>
<text xml:space="preserve" text-anchor="start" x="4.38" y="-30.5" font-family="Helvetica,sans-Serif" font-size="10.00">#</text>
<text xml:space="preserve" text-anchor="start" x="14" y="-30.5" font-family="Helvetica,sans-Serif" font-size="10.00">void UpdateDisplay</text>
<text xml:space="preserve" text-anchor="start" x="14" y="-18.5" font-family="Helvetica,sans-Serif" font-size="10.00">(const FPlayerSlotInfo</text>
<text xml:space="preserve" text-anchor="start" x="14" y="-6.5" font-family="Helvetica,sans-Serif" font-size="10.00"> &amp;SlotInfo)</text>
<polygon fill="#666666" stroke="#666666" points="0,-170 0,-170 157.5,-170 157.5,-170 0,-170"/>
<polygon fill="#666666" stroke="#666666" points="0,-154 0,-154 12,-154 12,-154 0,-154"/>
<polygon fill="#666666" stroke="#666666" points="12,-154 12,-154 157.5,-154 157.5,-154 12,-154"/>
<polygon fill="none" stroke="#666666" points="0,0 0,-188 157.5,-188 157.5,0 0,0"/>
</a>
</g>
</g>
<!-- Node2 -->
<g id="Node000002" class="node">
<title>Node2</title>
<g id="a_Node000002"><a xlink:title=" ">
<polygon fill="white" stroke="none" points="98.5,-276 59,-276 59,-224 98.5,-224 98.5,-276"/>
<text xml:space="preserve" text-anchor="start" x="63" y="-262.5" font-family="Helvetica,sans-Serif" font-size="10.00">APawn</text>
<text xml:space="preserve" text-anchor="start" x="77.25" y="-246.5" font-family="Helvetica,sans-Serif" font-size="10.00"> </text>
<text xml:space="preserve" text-anchor="start" x="77.25" y="-230.5" font-family="Helvetica,sans-Serif" font-size="10.00"> </text>
<polygon fill="#666666" stroke="#666666" points="59,-258 59,-258 98.5,-258 98.5,-258 59,-258"/>
<polygon fill="#666666" stroke="#666666" points="59,-242 59,-242 98.5,-242 98.5,-242 59,-242"/>
<polygon fill="none" stroke="#666666" points="59,-224 59,-276 98.5,-276 98.5,-224 59,-224"/>
</a>
</g>
</g>
<!-- Node2&#45;&gt;Node1 -->
<g id="edge1_Node000001_Node000002" class="edge">
<title>Node2&#45;&gt;Node1</title>
<g id="a_edge1_Node000001_Node000002"><a xlink:title=" ">
<path fill="none" stroke="#63b8ff" d="M78.75,-212.78C78.75,-205.03 78.75,-196.5 78.75,-187.68"/>
<polygon fill="none" stroke="#63b8ff" points="75.25,-212.74 78.75,-222.74 82.25,-212.74 75.25,-212.74"/>
</a>
</g>
</g>
</g>
</svg>
