<?xml version="1.0" encoding="UTF-8" standalone="no"?>
<!DOCTYPE svg PUBLIC "-//W3C//DTD SVG 1.1//EN"
 "http://www.w3.org/Graphics/SVG/1.1/DTD/svg11.dtd">
<!-- Generated by graphviz version 13.1.1 (20250719.2154)
 -->
<!-- Title: UBaseSkillAbility Pages: 1 -->
<svg width="908pt" height="1076pt"
 viewBox="0.00 0.00 908.00 1076.00" xmlns="http://www.w3.org/2000/svg" xmlns:xlink="http://www.w3.org/1999/xlink">
<g id="graph0" class="graph" transform="scale(1 1) rotate(0) translate(4 1072)">
<title>UBaseSkillAbility</title>
<!-- Node1 -->
<g id="Node000001" class="node">
<title>Node1</title>
<g id="a_Node000001"><a xlink:title=" ">
<polygon fill="#999999" stroke="none" points="614.25,-980 280.5,-980 280.5,-412 614.25,-412 614.25,-980"/>
<text xml:space="preserve" text-anchor="start" x="409.5" y="-966.5" font-family="Helvetica,sans-Serif" font-size="10.00">UBaseSkillAbility</text>
<text xml:space="preserve" text-anchor="start" x="284.5" y="-950.5" font-family="Helvetica,sans-Serif" font-size="10.00">+</text>
<text xml:space="preserve" text-anchor="start" x="294.5" y="-950.5" font-family="Helvetica,sans-Serif" font-size="10.00">const UKPTPlayerAttribute</text>
<text xml:space="preserve" text-anchor="start" x="294.5" y="-938.5" font-family="Helvetica,sans-Serif" font-size="10.00">Set * Attributes</text>
<text xml:space="preserve" text-anchor="start" x="284.5" y="-922.5" font-family="Helvetica,sans-Serif" font-size="10.00">+</text>
<text xml:space="preserve" text-anchor="start" x="294.5" y="-922.5" font-family="Helvetica,sans-Serif" font-size="10.00">FSkillData BaseSkillData</text>
<text xml:space="preserve" text-anchor="start" x="284.5" y="-906.5" font-family="Helvetica,sans-Serif" font-size="10.00">+</text>
<text xml:space="preserve" text-anchor="start" x="294.5" y="-906.5" font-family="Helvetica,sans-Serif" font-size="10.00">FDetailedSkillData</text>
<text xml:space="preserve" text-anchor="start" x="294.5" y="-894.5" font-family="Helvetica,sans-Serif" font-size="10.00"> CalculatedStatusData</text>
<text xml:space="preserve" text-anchor="start" x="284.5" y="-878.5" font-family="Helvetica,sans-Serif" font-size="10.00">+</text>
<text xml:space="preserve" text-anchor="start" x="294.5" y="-878.5" font-family="Helvetica,sans-Serif" font-size="10.00">FName SkillDataRowName</text>
<text xml:space="preserve" text-anchor="start" x="284.5" y="-862.5" font-family="Helvetica,sans-Serif" font-size="10.00">+</text>
<text xml:space="preserve" text-anchor="start" x="294.5" y="-862.5" font-family="Helvetica,sans-Serif" font-size="10.00">FDetailedSkillData</text>
<text xml:space="preserve" text-anchor="start" x="294.5" y="-850.5" font-family="Helvetica,sans-Serif" font-size="10.00"> SkillDataTable</text>
<text xml:space="preserve" text-anchor="start" x="284.5" y="-834.5" font-family="Helvetica,sans-Serif" font-size="10.00">+</text>
<text xml:space="preserve" text-anchor="start" x="294.5" y="-834.5" font-family="Helvetica,sans-Serif" font-size="10.00">FDetailedSkillData</text>
<text xml:space="preserve" text-anchor="start" x="294.5" y="-822.5" font-family="Helvetica,sans-Serif" font-size="10.00"> StackedStatusData</text>
<text xml:space="preserve" text-anchor="start" x="284.88" y="-806.5" font-family="Helvetica,sans-Serif" font-size="10.00">#</text>
<text xml:space="preserve" text-anchor="start" x="294.5" y="-806.5" font-family="Helvetica,sans-Serif" font-size="10.00">FGameplayTag SkillTag</text>
<text xml:space="preserve" text-anchor="start" x="284.88" y="-790.5" font-family="Helvetica,sans-Serif" font-size="10.00">#</text>
<text xml:space="preserve" text-anchor="start" x="294.5" y="-790.5" font-family="Helvetica,sans-Serif" font-size="10.00">FGameplayTag VFXCueTag</text>
<text xml:space="preserve" text-anchor="start" x="284.5" y="-774.5" font-family="Helvetica,sans-Serif" font-size="10.00">+</text>
<text xml:space="preserve" text-anchor="start" x="294.5" y="-774.5" font-family="Helvetica,sans-Serif" font-size="10.00">UBaseSkillAbility()</text>
<text xml:space="preserve" text-anchor="start" x="284.5" y="-758.5" font-family="Helvetica,sans-Serif" font-size="10.00">+</text>
<text xml:space="preserve" text-anchor="start" x="294.5" y="-758.5" font-family="Helvetica,sans-Serif" font-size="10.00">virtual void ActivateAbility</text>
<text xml:space="preserve" text-anchor="start" x="294.5" y="-746.5" font-family="Helvetica,sans-Serif" font-size="10.00">(const FGameplayAbilitySpecHandle</text>
<text xml:space="preserve" text-anchor="start" x="294.5" y="-734.5" font-family="Helvetica,sans-Serif" font-size="10.00"> Handle, const FGameplayAbilityActorInfo</text>
<text xml:space="preserve" text-anchor="start" x="294.5" y="-722.5" font-family="Helvetica,sans-Serif" font-size="10.00"> *ActorInfo, const FGameplayAbilityActivationInfo</text>
<text xml:space="preserve" text-anchor="start" x="294.5" y="-710.5" font-family="Helvetica,sans-Serif" font-size="10.00"> ActivationInfo, const FGameplayEventData *TriggerEventData) override</text>
<text xml:space="preserve" text-anchor="start" x="284.5" y="-694.5" font-family="Helvetica,sans-Serif" font-size="10.00">+</text>
<text xml:space="preserve" text-anchor="start" x="294.5" y="-694.5" font-family="Helvetica,sans-Serif" font-size="10.00">virtual bool CalculateFinal</text>
<text xml:space="preserve" text-anchor="start" x="294.5" y="-682.5" font-family="Helvetica,sans-Serif" font-size="10.00">Status()</text>
<text xml:space="preserve" text-anchor="start" x="284.5" y="-666.5" font-family="Helvetica,sans-Serif" font-size="10.00">+</text>
<text xml:space="preserve" text-anchor="start" x="294.5" y="-666.5" font-family="Helvetica,sans-Serif" font-size="10.00">virtual void InitializeAbility</text>
<text xml:space="preserve" text-anchor="start" x="294.5" y="-654.5" font-family="Helvetica,sans-Serif" font-size="10.00">Table(FSkillData &amp;SkillInfo)</text>
<text xml:space="preserve" text-anchor="start" x="284.5" y="-638.5" font-family="Helvetica,sans-Serif" font-size="10.00">+</text>
<text xml:space="preserve" text-anchor="start" x="294.5" y="-638.5" font-family="Helvetica,sans-Serif" font-size="10.00">virtual void OnEndAbility</text>
<text xml:space="preserve" text-anchor="start" x="294.5" y="-626.5" font-family="Helvetica,sans-Serif" font-size="10.00">(const FGameplayAbilitySpecHandle</text>
<text xml:space="preserve" text-anchor="start" x="294.5" y="-614.5" font-family="Helvetica,sans-Serif" font-size="10.00"> Handle, const FGameplayAbilityActorInfo</text>
<text xml:space="preserve" text-anchor="start" x="294.5" y="-602.5" font-family="Helvetica,sans-Serif" font-size="10.00"> *ActorInfo, const FGameplayAbilityActivationInfo</text>
<text xml:space="preserve" text-anchor="start" x="294.5" y="-590.5" font-family="Helvetica,sans-Serif" font-size="10.00"> ActivationInfo, bool bReplicateEndAbility,</text>
<text xml:space="preserve" text-anchor="start" x="294.5" y="-578.5" font-family="Helvetica,sans-Serif" font-size="10.00"> bool bWasCancelled)</text>
<text xml:space="preserve" text-anchor="start" x="284.88" y="-562.5" font-family="Helvetica,sans-Serif" font-size="10.00">#</text>
<text xml:space="preserve" text-anchor="start" x="294.5" y="-562.5" font-family="Helvetica,sans-Serif" font-size="10.00">void ApplySkillCooldown()</text>
<text xml:space="preserve" text-anchor="start" x="284.88" y="-546.5" font-family="Helvetica,sans-Serif" font-size="10.00">#</text>
<text xml:space="preserve" text-anchor="start" x="294.5" y="-546.5" font-family="Helvetica,sans-Serif" font-size="10.00">TArray&lt; FTransform</text>
<text xml:space="preserve" text-anchor="start" x="294.5" y="-534.5" font-family="Helvetica,sans-Serif" font-size="10.00"> &gt; CalculateSpawnTransforms</text>
<text xml:space="preserve" text-anchor="start" x="294.5" y="-522.5" font-family="Helvetica,sans-Serif" font-size="10.00">(AActor *Caster, int32 SpawnCount)</text>
<text xml:space="preserve" text-anchor="start" x="284.88" y="-506.5" font-family="Helvetica,sans-Serif" font-size="10.00">#</text>
<text xml:space="preserve" text-anchor="start" x="294.5" y="-506.5" font-family="Helvetica,sans-Serif" font-size="10.00">virtual TArray&lt; FTransform</text>
<text xml:space="preserve" text-anchor="start" x="294.5" y="-494.5" font-family="Helvetica,sans-Serif" font-size="10.00"> &gt; CalculateSpawnTransforms</text>
<text xml:space="preserve" text-anchor="start" x="294.5" y="-482.5" font-family="Helvetica,sans-Serif" font-size="10.00">_Implementation(AActor *Caster,</text>
<text xml:space="preserve" text-anchor="start" x="294.5" y="-470.5" font-family="Helvetica,sans-Serif" font-size="10.00"> int32 SpawnCount)</text>
<text xml:space="preserve" text-anchor="start" x="284.88" y="-454.5" font-family="Helvetica,sans-Serif" font-size="10.00">#</text>
<text xml:space="preserve" text-anchor="start" x="294.5" y="-454.5" font-family="Helvetica,sans-Serif" font-size="10.00">virtual void SpawnAndInitialize</text>
<text xml:space="preserve" text-anchor="start" x="294.5" y="-442.5" font-family="Helvetica,sans-Serif" font-size="10.00">Projectile(const FTransform</text>
<text xml:space="preserve" text-anchor="start" x="294.5" y="-430.5" font-family="Helvetica,sans-Serif" font-size="10.00"> &amp;SpawnTransform, int32 Index,</text>
<text xml:space="preserve" text-anchor="start" x="294.5" y="-418.5" font-family="Helvetica,sans-Serif" font-size="10.00"> int32 TotalCount)</text>
<polygon fill="#666666" stroke="#666666" points="280.5,-962 280.5,-962 614.25,-962 614.25,-962 280.5,-962"/>
<polygon fill="#666666" stroke="#666666" points="280.5,-786 280.5,-786 292.5,-786 292.5,-786 280.5,-786"/>
<polygon fill="#666666" stroke="#666666" points="292.5,-786 292.5,-786 614.25,-786 614.25,-786 292.5,-786"/>
<polygon fill="none" stroke="#666666" points="280.5,-412 280.5,-980 614.25,-980 614.25,-412 280.5,-412"/>
</a>
</g>
</g>
<!-- Node3 -->
<g id="Node000003" class="node">
<title>Node3</title>
<g id="a_Node000003"><a xlink:href="class_u_garlic_skill_ability.html" target="_top" xlink:title=" ">
<polygon fill="white" stroke="none" points="86.75,-258 0,-258 0,-206 86.75,-206 86.75,-258"/>
<text xml:space="preserve" text-anchor="start" x="4" y="-244.5" font-family="Helvetica,sans-Serif" font-size="10.00">UGarlicSkillAbility</text>
<text xml:space="preserve" text-anchor="start" x="41.88" y="-228.5" font-family="Helvetica,sans-Serif" font-size="10.00"> </text>
<text xml:space="preserve" text-anchor="start" x="41.88" y="-212.5" font-family="Helvetica,sans-Serif" font-size="10.00"> </text>
<polygon fill="#666666" stroke="#666666" points="0,-240 0,-240 86.75,-240 86.75,-240 0,-240"/>
<polygon fill="#666666" stroke="#666666" points="0,-224 0,-224 86.75,-224 86.75,-224 0,-224"/>
<polygon fill="none" stroke="#666666" points="0,-206 0,-258 86.75,-258 86.75,-206 0,-206"/>
</a>
</g>
</g>
<!-- Node1&#45;&gt;Node3 -->
<g id="edge2_Node000001_Node000003" class="edge">
<title>Node1&#45;&gt;Node3</title>
<g id="a_edge2_Node000001_Node000003"><a xlink:title=" ">
<path fill="none" stroke="#63b8ff" d="M271.94,-565.52C209.49,-512.41 142.93,-446.77 95.38,-376 70.33,-338.72 55.62,-287.9 48.56,-257.95"/>
<polygon fill="none" stroke="#63b8ff" points="269.66,-568.18 279.56,-571.95 274.18,-562.83 269.66,-568.18"/>
</a>
</g>
</g>
<!-- Node4 -->
<g id="Node000004" class="node">
<title>Node4</title>
<g id="a_Node000004"><a xlink:href="class_u_orbit_skill_ability.html" target="_top" xlink:title=" ">
<polygon fill="white" stroke="none" points="438.25,-308 104.5,-308 104.5,-156 438.25,-156 438.25,-308"/>
<text xml:space="preserve" text-anchor="start" x="234.25" y="-294.5" font-family="Helvetica,sans-Serif" font-size="10.00">UOrbitSkillAbility</text>
<text xml:space="preserve" text-anchor="start" x="269.88" y="-278.5" font-family="Helvetica,sans-Serif" font-size="10.00"> </text>
<text xml:space="preserve" text-anchor="start" x="108.5" y="-262.5" font-family="Helvetica,sans-Serif" font-size="10.00">+</text>
<text xml:space="preserve" text-anchor="start" x="118.5" y="-262.5" font-family="Helvetica,sans-Serif" font-size="10.00">virtual void ActivateAbility</text>
<text xml:space="preserve" text-anchor="start" x="118.5" y="-250.5" font-family="Helvetica,sans-Serif" font-size="10.00">(const FGameplayAbilitySpecHandle</text>
<text xml:space="preserve" text-anchor="start" x="118.5" y="-238.5" font-family="Helvetica,sans-Serif" font-size="10.00"> Handle, const FGameplayAbilityActorInfo</text>
<text xml:space="preserve" text-anchor="start" x="118.5" y="-226.5" font-family="Helvetica,sans-Serif" font-size="10.00"> *ActorInfo, const FGameplayAbilityActivationInfo</text>
<text xml:space="preserve" text-anchor="start" x="118.5" y="-214.5" font-family="Helvetica,sans-Serif" font-size="10.00"> ActivationInfo, const FGameplayEventData *TriggerEventData) override</text>
<text xml:space="preserve" text-anchor="start" x="108.5" y="-198.5" font-family="Helvetica,sans-Serif" font-size="10.00">+</text>
<text xml:space="preserve" text-anchor="start" x="118.5" y="-198.5" font-family="Helvetica,sans-Serif" font-size="10.00">virtual TArray&lt; FTransform</text>
<text xml:space="preserve" text-anchor="start" x="118.5" y="-186.5" font-family="Helvetica,sans-Serif" font-size="10.00"> &gt; CalculateSpawnTransforms</text>
<text xml:space="preserve" text-anchor="start" x="118.5" y="-174.5" font-family="Helvetica,sans-Serif" font-size="10.00">_Implementation(AActor *Caster,</text>
<text xml:space="preserve" text-anchor="start" x="118.5" y="-162.5" font-family="Helvetica,sans-Serif" font-size="10.00"> int32 SpawnCount) override</text>
<polygon fill="#666666" stroke="#666666" points="104.5,-290 104.5,-290 438.25,-290 438.25,-290 104.5,-290"/>
<polygon fill="#666666" stroke="#666666" points="104.5,-274 104.5,-274 438.25,-274 438.25,-274 104.5,-274"/>
<polygon fill="none" stroke="#666666" points="104.5,-156 104.5,-308 438.25,-308 438.25,-156 104.5,-156"/>
</a>
</g>
</g>
<!-- Node1&#45;&gt;Node4 -->
<g id="edge3_Node000001_Node000004" class="edge">
<title>Node1&#45;&gt;Node4</title>
<g id="a_edge3_Node000001_Node000004"><a xlink:title=" ">
<path fill="none" stroke="#63b8ff" d="M335.58,-401.54C322.47,-367.12 310.11,-334.69 299.81,-307.65"/>
<polygon fill="none" stroke="#63b8ff" points="332.3,-402.77 339.13,-410.87 338.84,-400.28 332.3,-402.77"/>
</a>
</g>
</g>
<!-- Node5 -->
<g id="Node000005" class="node">
<title>Node5</title>
<g id="a_Node000005"><a xlink:href="class_u_straight_seq_skill_ability.html" target="_top" xlink:title=" ">
<polygon fill="white" stroke="none" points="790.25,-376 456.5,-376 456.5,-88 790.25,-88 790.25,-376"/>
<text xml:space="preserve" text-anchor="start" x="571.25" y="-362.5" font-family="Helvetica,sans-Serif" font-size="10.00">UStraightSeqSkillAbility</text>
<text xml:space="preserve" text-anchor="start" x="460.5" y="-346.5" font-family="Helvetica,sans-Serif" font-size="10.00">+</text>
<text xml:space="preserve" text-anchor="start" x="470.5" y="-346.5" font-family="Helvetica,sans-Serif" font-size="10.00">float SequenceInterval</text>
<text xml:space="preserve" text-anchor="start" x="460.88" y="-330.5" font-family="Helvetica,sans-Serif" font-size="10.00">#</text>
<text xml:space="preserve" text-anchor="start" x="470.5" y="-330.5" font-family="Helvetica,sans-Serif" font-size="10.00">int32 SpawnCount</text>
<text xml:space="preserve" text-anchor="start" x="460.88" y="-314.5" font-family="Helvetica,sans-Serif" font-size="10.00">#</text>
<text xml:space="preserve" text-anchor="start" x="470.5" y="-314.5" font-family="Helvetica,sans-Serif" font-size="10.00">FTimerHandle TimerHandle</text>
<text xml:space="preserve" text-anchor="start" x="460.5" y="-298.5" font-family="Helvetica,sans-Serif" font-size="10.00">+</text>
<text xml:space="preserve" text-anchor="start" x="470.5" y="-298.5" font-family="Helvetica,sans-Serif" font-size="10.00">virtual void ActivateAbility</text>
<text xml:space="preserve" text-anchor="start" x="470.5" y="-286.5" font-family="Helvetica,sans-Serif" font-size="10.00">(const FGameplayAbilitySpecHandle</text>
<text xml:space="preserve" text-anchor="start" x="470.5" y="-274.5" font-family="Helvetica,sans-Serif" font-size="10.00"> Handle, const FGameplayAbilityActorInfo</text>
<text xml:space="preserve" text-anchor="start" x="470.5" y="-262.5" font-family="Helvetica,sans-Serif" font-size="10.00"> *ActorInfo, const FGameplayAbilityActivationInfo</text>
<text xml:space="preserve" text-anchor="start" x="470.5" y="-250.5" font-family="Helvetica,sans-Serif" font-size="10.00"> ActivationInfo, const FGameplayEventData *TriggerEventData) override</text>
<text xml:space="preserve" text-anchor="start" x="460.5" y="-234.5" font-family="Helvetica,sans-Serif" font-size="10.00">+</text>
<text xml:space="preserve" text-anchor="start" x="470.5" y="-234.5" font-family="Helvetica,sans-Serif" font-size="10.00">virtual void OnEndAbility</text>
<text xml:space="preserve" text-anchor="start" x="470.5" y="-222.5" font-family="Helvetica,sans-Serif" font-size="10.00">(const FGameplayAbilitySpecHandle</text>
<text xml:space="preserve" text-anchor="start" x="470.5" y="-210.5" font-family="Helvetica,sans-Serif" font-size="10.00"> Handle, const FGameplayAbilityActorInfo</text>
<text xml:space="preserve" text-anchor="start" x="470.5" y="-198.5" font-family="Helvetica,sans-Serif" font-size="10.00"> *ActorInfo, const FGameplayAbilityActivationInfo</text>
<text xml:space="preserve" text-anchor="start" x="470.5" y="-186.5" font-family="Helvetica,sans-Serif" font-size="10.00"> ActivationInfo, bool bReplicateEndAbility,</text>
<text xml:space="preserve" text-anchor="start" x="470.5" y="-174.5" font-family="Helvetica,sans-Serif" font-size="10.00"> bool bWasCancelled) override</text>
<text xml:space="preserve" text-anchor="start" x="460.88" y="-158.5" font-family="Helvetica,sans-Serif" font-size="10.00">#</text>
<text xml:space="preserve" text-anchor="start" x="470.5" y="-158.5" font-family="Helvetica,sans-Serif" font-size="10.00">virtual FTransform</text>
<text xml:space="preserve" text-anchor="start" x="470.5" y="-146.5" font-family="Helvetica,sans-Serif" font-size="10.00"> CalculateSpawnTransform</text>
<text xml:space="preserve" text-anchor="start" x="470.5" y="-134.5" font-family="Helvetica,sans-Serif" font-size="10.00">(AActor *Caster, int32</text>
<text xml:space="preserve" text-anchor="start" x="470.5" y="-122.5" font-family="Helvetica,sans-Serif" font-size="10.00"> InSpawnCount)</text>
<text xml:space="preserve" text-anchor="start" x="460.88" y="-106.5" font-family="Helvetica,sans-Serif" font-size="10.00">#</text>
<text xml:space="preserve" text-anchor="start" x="470.5" y="-106.5" font-family="Helvetica,sans-Serif" font-size="10.00">virtual void SpawnAndInitialize</text>
<text xml:space="preserve" text-anchor="start" x="470.5" y="-94.5" font-family="Helvetica,sans-Serif" font-size="10.00">Projectile()</text>
<polygon fill="#666666" stroke="#666666" points="456.5,-358 456.5,-358 790.25,-358 790.25,-358 456.5,-358"/>
<polygon fill="#666666" stroke="#666666" points="456.5,-310 456.5,-310 468.5,-310 468.5,-310 456.5,-310"/>
<polygon fill="#666666" stroke="#666666" points="468.5,-310 468.5,-310 790.25,-310 790.25,-310 468.5,-310"/>
<polygon fill="none" stroke="#666666" points="456.5,-88 456.5,-376 790.25,-376 790.25,-88 456.5,-88"/>
</a>
</g>
</g>
<!-- Node1&#45;&gt;Node5 -->
<g id="edge4_Node000001_Node000005" class="edge">
<title>Node1&#45;&gt;Node5</title>
<g id="a_edge4_Node000001_Node000005"><a xlink:title=" ">
<path fill="none" stroke="#63b8ff" d="M559.14,-401.62C562.45,-392.92 565.72,-384.35 568.91,-375.97"/>
<polygon fill="none" stroke="#63b8ff" points="555.91,-400.28 555.62,-410.87 562.45,-402.77 555.91,-400.28"/>
</a>
</g>
</g>
<!-- Node7 -->
<g id="Node000007" class="node">
<title>Node7</title>
<g id="a_Node000007"><a xlink:href="class_u_switch_skill_ability.html" target="_top" xlink:title=" ">
<polygon fill="white" stroke="none" points="900,-258 808.75,-258 808.75,-206 900,-206 900,-258"/>
<text xml:space="preserve" text-anchor="start" x="812.75" y="-244.5" font-family="Helvetica,sans-Serif" font-size="10.00">USwitchSkillAbility</text>
<text xml:space="preserve" text-anchor="start" x="852.88" y="-228.5" font-family="Helvetica,sans-Serif" font-size="10.00"> </text>
<text xml:space="preserve" text-anchor="start" x="852.88" y="-212.5" font-family="Helvetica,sans-Serif" font-size="10.00"> </text>
<polygon fill="#666666" stroke="#666666" points="808.75,-240 808.75,-240 900,-240 900,-240 808.75,-240"/>
<polygon fill="#666666" stroke="#666666" points="808.75,-224 808.75,-224 900,-224 900,-224 808.75,-224"/>
<polygon fill="none" stroke="#666666" points="808.75,-206 808.75,-258 900,-258 900,-206 808.75,-206"/>
</a>
</g>
</g>
<!-- Node1&#45;&gt;Node7 -->
<g id="edge6_Node000001_Node000007" class="edge">
<title>Node1&#45;&gt;Node7</title>
<g id="a_edge6_Node000001_Node000007"><a xlink:title=" ">
<path fill="none" stroke="#63b8ff" d="M622.98,-564.31C685.11,-511.28 751.39,-446.01 799.38,-376 824.94,-338.7 840.8,-287.88 848.58,-257.94"/>
<polygon fill="none" stroke="#63b8ff" points="620.77,-561.6 615.4,-570.73 625.29,-566.94 620.77,-561.6"/>
</a>
</g>
</g>
<!-- Node2 -->
<g id="Node000002" class="node">
<title>Node2</title>
<g id="a_Node000002"><a xlink:title=" ">
<polygon fill="white" stroke="none" points="490.75,-1068 404,-1068 404,-1016 490.75,-1016 490.75,-1068"/>
<text xml:space="preserve" text-anchor="start" x="408" y="-1054.5" font-family="Helvetica,sans-Serif" font-size="10.00">UGameplayAbility</text>
<text xml:space="preserve" text-anchor="start" x="445.88" y="-1038.5" font-family="Helvetica,sans-Serif" font-size="10.00"> </text>
<text xml:space="preserve" text-anchor="start" x="445.88" y="-1022.5" font-family="Helvetica,sans-Serif" font-size="10.00"> </text>
<polygon fill="#666666" stroke="#666666" points="404,-1050 404,-1050 490.75,-1050 490.75,-1050 404,-1050"/>
<polygon fill="#666666" stroke="#666666" points="404,-1034 404,-1034 490.75,-1034 490.75,-1034 404,-1034"/>
<polygon fill="none" stroke="#666666" points="404,-1016 404,-1068 490.75,-1068 490.75,-1016 404,-1016"/>
</a>
</g>
</g>
<!-- Node2&#45;&gt;Node1 -->
<g id="edge1_Node000001_Node000002" class="edge">
<title>Node2&#45;&gt;Node1</title>
<g id="a_edge1_Node000001_Node000002"><a xlink:title=" ">
<path fill="none" stroke="#63b8ff" d="M447.38,-1004.96C447.38,-997.48 447.38,-989.05 447.38,-979.9"/>
<polygon fill="none" stroke="#63b8ff" points="443.88,-1004.75 447.38,-1014.75 450.88,-1004.75 443.88,-1004.75"/>
</a>
</g>
</g>
<!-- Node6 -->
<g id="Node000006" class="node">
<title>Node6</title>
<g id="a_Node000006"><a xlink:href="class_u_random_spawn_skill_ability.html" target="_top" xlink:title=" ">
<polygon fill="white" stroke="none" points="687.38,-52 559.38,-52 559.38,0 687.38,0 687.38,-52"/>
<text xml:space="preserve" text-anchor="start" x="563.38" y="-38.5" font-family="Helvetica,sans-Serif" font-size="10.00">URandomSpawnSkillAbility</text>
<text xml:space="preserve" text-anchor="start" x="621.88" y="-22.5" font-family="Helvetica,sans-Serif" font-size="10.00"> </text>
<text xml:space="preserve" text-anchor="start" x="621.88" y="-6.5" font-family="Helvetica,sans-Serif" font-size="10.00"> </text>
<polygon fill="#666666" stroke="#666666" points="559.38,-34 559.38,-34 687.38,-34 687.38,-34 559.38,-34"/>
<polygon fill="#666666" stroke="#666666" points="559.38,-18 559.38,-18 687.38,-18 687.38,-18 559.38,-18"/>
<polygon fill="none" stroke="#666666" points="559.38,0 559.38,-52 687.38,-52 687.38,0 559.38,0"/>
</a>
</g>
</g>
<!-- Node5&#45;&gt;Node6 -->
<g id="edge5_Node000005_Node000006" class="edge">
<title>Node5&#45;&gt;Node6</title>
<g id="a_edge5_Node000005_Node000006"><a xlink:title=" ">
<path fill="none" stroke="#63b8ff" d="M623.38,-76.99C623.38,-67.71 623.38,-59.22 623.38,-51.97"/>
<polygon fill="none" stroke="#63b8ff" points="619.88,-76.69 623.38,-86.69 626.88,-76.69 619.88,-76.69"/>
</a>
</g>
</g>
</g>
</svg>
