<?xml version="1.0" encoding="UTF-8" standalone="no"?>
<!DOCTYPE svg PUBLIC "-//W3C//DTD SVG 1.1//EN"
 "http://www.w3.org/Graphics/SVG/1.1/DTD/svg11.dtd">
<!-- Generated by graphviz version 13.1.1 (20250719.2154)
 -->
<!-- Title: UKPTCheatManager::RemoveItem Pages: 1 -->
<svg width="363pt" height="46pt"
 viewBox="0.00 0.00 363.00 46.00" xmlns="http://www.w3.org/2000/svg" xmlns:xlink="http://www.w3.org/1999/xlink">
<g id="graph0" class="graph" transform="scale(1 1) rotate(0) translate(4 42)">
<title>UKPTCheatManager::RemoveItem</title>
<!-- Node1 -->
<g id="Node000001" class="node">
<title>Node1</title>
<g id="a_Node000001"><a xlink:title=" ">
<polygon fill="#999999" stroke="#666666" points="354.5,-20 185.5,-20 185.5,0 354.5,0 354.5,-20"/>
<text xml:space="preserve" text-anchor="middle" x="270" y="-6.5" font-family="Helvetica,sans-Serif" font-size="10.00">UKPTCheatManager::RemoveItem</text>
</a>
</g>
</g>
<!-- Node2 -->
<g id="Node000002" class="node">
<title>Node2</title>
<g id="a_Node000002"><a xlink:href="class_u_k_p_t_cheat_manager.html#a7aa3bbda542469d8c728c2548878cb4b" target="_top" xlink:title=" ">
<polygon fill="white" stroke="#666666" points="149.5,-20 0,-20 0,0 149.5,0 149.5,-20"/>
<text xml:space="preserve" text-anchor="middle" x="74.75" y="-6.5" font-family="Helvetica,sans-Serif" font-size="10.00">UKPTCheatManager::AddItem</text>
</a>
</g>
</g>
<!-- Node1&#45;&gt;Node2 -->
<g id="edge1_Node000001_Node000002" class="edge">
<title>Node1&#45;&gt;Node2</title>
<g id="a_edge1_Node000001_Node000002"><a xlink:title=" ">
<path fill="none" stroke="#63b8ff" d="M173.77,-10C165.75,-10 157.71,-10 149.88,-10"/>
<polygon fill="#63b8ff" stroke="#63b8ff" points="173.57,-13.5 183.57,-10 173.57,-6.5 173.57,-13.5"/>
</a>
</g>
</g>
<!-- Node2&#45;&gt;Node2 -->
<g id="edge2_Node000002_Node000002" class="edge">
<title>Node2&#45;&gt;Node2</title>
<g id="a_edge2_Node000002_Node000002"><a xlink:title=" ">
<path fill="none" stroke="#63b8ff" d="M109.62,-31.11C105.47,-35.14 93.84,-38 74.75,-38 40.81,-38 30.47,-28.98 43.73,-20.34"/>
<polygon fill="#63b8ff" stroke="#63b8ff" points="112.94,-30 106.28,-21.76 106.35,-32.36 112.94,-30"/>
</a>
</g>
</g>
</g>
</svg>
