<?xml version="1.0" encoding="UTF-8" standalone="no"?>
<!DOCTYPE svg PUBLIC "-//W3C//DTD SVG 1.1//EN"
 "http://www.w3.org/Graphics/SVG/1.1/DTD/svg11.dtd">
<!-- Generated by graphviz version 13.1.1 (20250719.2154)
 -->
<!-- Title: ALaserBeam::OnRep_LaserWidth Pages: 1 -->
<svg width="529pt" height="90pt"
 viewBox="0.00 0.00 529.00 90.00" xmlns="http://www.w3.org/2000/svg" xmlns:xlink="http://www.w3.org/1999/xlink">
<g id="graph0" class="graph" transform="scale(1 1) rotate(0) translate(4 86)">
<title>ALaserBeam::OnRep_LaserWidth</title>
<!-- Node1 -->
<g id="Node000001" class="node">
<title>Node1</title>
<g id="a_Node000001"><a xlink:title=" ">
<polygon fill="#999999" stroke="#666666" points="521.25,-48 357.5,-48 357.5,-28 521.25,-28 521.25,-48"/>
<text xml:space="preserve" text-anchor="middle" x="439.38" y="-34.5" font-family="Helvetica,sans-Serif" font-size="10.00">ALaserBeam::OnRep_LaserWidth</text>
</a>
</g>
</g>
<!-- Node2 -->
<g id="Node000002" class="node">
<title>Node2</title>
<g id="a_Node000002"><a xlink:href="class_a_laser_beam.html#a11ecd803838b440840e791e3e9ecddab" target="_top" xlink:title=" ">
<polygon fill="white" stroke="#666666" points="311.75,-76 171.25,-76 171.25,-56 311.75,-56 311.75,-76"/>
<text xml:space="preserve" text-anchor="middle" x="241.5" y="-62.5" font-family="Helvetica,sans-Serif" font-size="10.00">ALaserBeam::InitiallizeLaser</text>
</a>
</g>
</g>
<!-- Node1&#45;&gt;Node2 -->
<g id="edge1_Node000001_Node000002" class="edge">
<title>Node1&#45;&gt;Node2</title>
<g id="a_edge1_Node000001_Node000002"><a xlink:title=" ">
<path fill="none" stroke="#63b8ff" d="M354.03,-50.06C340.03,-52.06 325.64,-54.11 312.06,-56.06"/>
<polygon fill="#63b8ff" stroke="#63b8ff" points="354.26,-53.56 363.66,-48.68 353.27,-46.63 354.26,-53.56"/>
</a>
</g>
</g>
<!-- Node4 -->
<g id="Node000004" class="node">
<title>Node4</title>
<g id="a_Node000004"><a xlink:href="class_a_laser_beam.html#a96f742b5a6217893cd4380c2900b1f9a" target="_top" xlink:title=" ">
<polygon fill="white" stroke="#666666" points="321.5,-20 161.5,-20 161.5,0 321.5,0 321.5,-20"/>
<text xml:space="preserve" text-anchor="middle" x="241.5" y="-6.5" font-family="Helvetica,sans-Serif" font-size="10.00">ALaserBeam::SetLaserBeamEnd</text>
</a>
</g>
</g>
<!-- Node1&#45;&gt;Node4 -->
<g id="edge3_Node000001_Node000004" class="edge">
<title>Node1&#45;&gt;Node4</title>
<g id="a_edge3_Node000001_Node000004"><a xlink:title=" ">
<path fill="none" stroke="#63b8ff" d="M354.1,-25.95C341.41,-24.14 328.4,-22.28 315.95,-20.5"/>
<polygon fill="#63b8ff" stroke="#63b8ff" points="353.27,-29.37 363.66,-27.32 354.26,-22.44 353.27,-29.37"/>
</a>
</g>
</g>
<!-- Node3 -->
<g id="Node000003" class="node">
<title>Node3</title>
<g id="a_Node000003"><a xlink:href="class_u_base_laser_attack_ability.html#ac49822a928fe96077caded42985e05d7" target="_top" xlink:title="Spawns the laser beams and starts their rotation and damage ticks.">
<polygon fill="white" stroke="#666666" points="125.5,-82 0,-82 0,-50 125.5,-50 125.5,-82"/>
<text xml:space="preserve" text-anchor="start" x="8" y="-68.5" font-family="Helvetica,sans-Serif" font-size="10.00">UBaseLaserAttackAbility</text>
<text xml:space="preserve" text-anchor="middle" x="62.75" y="-56.5" font-family="Helvetica,sans-Serif" font-size="10.00">::SpawnAndStartLasers</text>
</a>
</g>
</g>
<!-- Node2&#45;&gt;Node3 -->
<g id="edge2_Node000002_Node000003" class="edge">
<title>Node2&#45;&gt;Node3</title>
<g id="a_edge2_Node000002_Node000003"><a xlink:title=" ">
<path fill="none" stroke="#63b8ff" d="M159.63,-66C148.28,-66 136.76,-66 125.83,-66"/>
<polygon fill="#63b8ff" stroke="#63b8ff" points="159.38,-69.5 169.38,-66 159.38,-62.5 159.38,-69.5"/>
</a>
</g>
</g>
<!-- Node4&#45;&gt;Node4 -->
<g id="edge4_Node000004_Node000004" class="edge">
<title>Node4&#45;&gt;Node4</title>
<g id="a_edge4_Node000004_Node000004"><a xlink:title=" ">
<path fill="none" stroke="#63b8ff" d="M273.43,-31.11C269.62,-35.14 258.98,-38 241.5,-38 210.43,-38 200.96,-28.98 213.1,-20.34"/>
<polygon fill="#63b8ff" stroke="#63b8ff" points="276.81,-30.19 270.37,-21.78 270.16,-32.37 276.81,-30.19"/>
</a>
</g>
</g>
</g>
</svg>
