<?xml version="1.0" encoding="UTF-8" standalone="no"?>
<!DOCTYPE svg PUBLIC "-//W3C//DTD SVG 1.1//EN"
 "http://www.w3.org/Graphics/SVG/1.1/DTD/svg11.dtd">
<!-- Generated by graphviz version 13.1.1 (20250719.2154)
 -->
<!-- Title: UBaseLaserAttackAbility::ActivateAbility_BP Pages: 1 -->
<svg width="481pt" height="140pt"
 viewBox="0.00 0.00 481.00 140.00" xmlns="http://www.w3.org/2000/svg" xmlns:xlink="http://www.w3.org/1999/xlink">

<svg id="main" version="1.1" xmlns="http://www.w3.org/2000/svg" xmlns:xlink="http://www.w3.org/1999/xlink" xml:space="preserve">

<style type="text/css"><![CDATA[
.node, .edge {opacity: 0.7;}
.node.selected, .edge.selected {opacity: 1;}
.edge:hover path { stroke: red; }
.edge:hover polygon { stroke: red; fill: red; }
]]></style>
<script type="application/ecmascript" xlink:href="svg.min.js"/>
<svg id="graph" class="graph">
<g id="graph0" class="graph" transform="scale(1 1) rotate(0) translate(4 136)">
<title>UBaseLaserAttackAbility::ActivateAbility_BP</title>
<!-- Node1 -->
<g id="Node000001" class="node">
<title>Node1</title>
<g id="a_Node000001"><a xlink:title="This function is meant to be implemented in Blueprint to define the ability&#39;s activation flow.">
<polygon fill="#999999" stroke="#666666" points="125.5,-107 0,-107 0,-75 125.5,-75 125.5,-107"/>
<text xml:space="preserve" text-anchor="start" x="8" y="-93.5" font-family="Helvetica,sans-Serif" font-size="10.00">UBaseLaserAttackAbility</text>
<text xml:space="preserve" text-anchor="middle" x="62.75" y="-81.5" font-family="Helvetica,sans-Serif" font-size="10.00">::ActivateAbility_BP</text>
</a>
</g>
</g>
<!-- Node1&#45;&gt;Node1 -->
<g id="edge3_Node000001_Node000001" class="edge">
<title>Node1&#45;&gt;Node1</title>
<g id="a_edge3_Node000001_Node000001"><a xlink:title=" ">
<path fill="none" stroke="#63b8ff" d="M32.24,-107.44C26.55,-116.58 36.72,-125 62.75,-125 76.99,-125 86.48,-122.48 91.23,-118.71"/>
<polygon fill="#63b8ff" stroke="#63b8ff" points="94.66,-119.39 92.99,-108.93 87.77,-118.15 94.66,-119.39"/>
</a>
</g>
</g>
<!-- Node2 -->
<g id="Node000002" class="node">
<title>Node2</title>
<g id="a_Node000002"><a xlink:href="class_u_base_laser_attack_ability.html#a26ff67b6441cf3c270bb40024bb261f0" target="_top" xlink:title=" ">
<polygon fill="white" stroke="#666666" points="296.38,-132 170.88,-132 170.88,-100 296.38,-100 296.38,-132"/>
<text xml:space="preserve" text-anchor="start" x="178.88" y="-118.5" font-family="Helvetica,sans-Serif" font-size="10.00">UBaseLaserAttackAbility</text>
<text xml:space="preserve" text-anchor="middle" x="233.62" y="-106.5" font-family="Helvetica,sans-Serif" font-size="10.00">::ActivateAbility</text>
</a>
</g>
</g>
<!-- Node1&#45;&gt;Node2 -->
<g id="edge1_Node000001_Node000002" class="edge">
<title>Node1&#45;&gt;Node2</title>
<g id="a_edge1_Node000001_Node000002"><a xlink:title=" ">
<path fill="none" stroke="#63b8ff" d="M125.67,-93.64C136.62,-95.04 148.1,-96.68 159.32,-98.45"/>
<polygon fill="#63b8ff" stroke="#63b8ff" points="158.5,-101.86 168.93,-100.01 159.62,-94.95 158.5,-101.86"/>
</a>
</g>
</g>
<!-- Node3 -->
<g id="Node000003" class="node">
<title>Node3</title>
<g id="a_Node000003"><a xlink:href="class_u_base_laser_attack_ability.html#a872ab3f13348f056b6148f62cf3fffc7" target="_top" xlink:title=" ">
<polygon fill="white" stroke="#666666" points="296.38,-82 170.88,-82 170.88,-50 296.38,-50 296.38,-82"/>
<text xml:space="preserve" text-anchor="start" x="178.88" y="-68.5" font-family="Helvetica,sans-Serif" font-size="10.00">UBaseLaserAttackAbility</text>
<text xml:space="preserve" text-anchor="middle" x="233.62" y="-56.5" font-family="Helvetica,sans-Serif" font-size="10.00">::EndAbility</text>
</a>
</g>
</g>
<!-- Node1&#45;&gt;Node3 -->
<g id="edge4_Node000001_Node000003" class="edge">
<title>Node1&#45;&gt;Node3</title>
<g id="a_edge4_Node000001_Node000003"><a xlink:title=" ">
<path fill="none" stroke="#63b8ff" d="M125.67,-81.83C136.62,-80.21 148.1,-78.51 159.32,-76.85"/>
<polygon fill="#63b8ff" stroke="#63b8ff" points="159.55,-80.36 168.93,-75.43 158.52,-73.43 159.55,-80.36"/>
</a>
</g>
</g>
<!-- Node5 -->
<g id="Node000005" class="node">
<title>Node5</title>
<g id="a_Node000005"><a xlink:href="class_u_base_laser_attack_ability.html#aa398b1c8400be1004cc48ab88c2372a9" target="_top" xlink:title=" ">
<polygon fill="white" stroke="#666666" points="305.75,-32 161.5,-32 161.5,0 305.75,0 305.75,-32"/>
<text xml:space="preserve" text-anchor="start" x="169.5" y="-18.5" font-family="Helvetica,sans-Serif" font-size="10.00">UBaseLaserAttackAbility</text>
<text xml:space="preserve" text-anchor="middle" x="233.62" y="-6.5" font-family="Helvetica,sans-Serif" font-size="10.00">::GetLifetimeReplicatedProps</text>
</a>
</g>
</g>
<!-- Node1&#45;&gt;Node5 -->
<g id="edge7_Node000001_Node000005" class="edge">
<title>Node1&#45;&gt;Node5</title>
<g id="a_edge7_Node000001_Node000005"><a xlink:title=" ">
<path fill="none" stroke="#63b8ff" d="M93.2,-74.62C112.35,-64.3 138.03,-51.07 161.5,-41 165.04,-39.48 168.7,-37.98 172.41,-36.52"/>
<polygon fill="#63b8ff" stroke="#63b8ff" points="173.43,-39.88 181.52,-33.04 170.93,-33.34 173.43,-39.88"/>
</a>
</g>
</g>
<!-- Node2&#45;&gt;Node1 -->
<g id="edge2_Node000002_Node000001" class="edge">
<title>Node2&#45;&gt;Node1</title>
<g id="a_edge2_Node000002_Node000001"><a xlink:title=" ">
<path fill="none" stroke="#63b8ff" d="M170.43,-113.33C159.47,-111.92 147.98,-110.27 136.77,-108.5"/>
<polygon fill="#63b8ff" stroke="#63b8ff" points="137.6,-105.09 127.17,-106.94 136.48,-112 137.6,-105.09"/>
</a>
</g>
</g>
<!-- Node4 -->
<g id="Node000004" class="node">
<title>Node4</title>
<g id="a_Node000004"><a xlink:href="class_u_base_laser_attack_ability.html#a1f265f5b299f3057b632ab3d32970ea6" target="_top" xlink:title="Cleans up all spawned lasers and stops timers.">
<polygon fill="white" stroke="#666666" points="470.25,-82 344.75,-82 344.75,-50 470.25,-50 470.25,-82"/>
<text xml:space="preserve" text-anchor="start" x="352.75" y="-68.5" font-family="Helvetica,sans-Serif" font-size="10.00">UBaseLaserAttackAbility</text>
<text xml:space="preserve" text-anchor="middle" x="407.5" y="-56.5" font-family="Helvetica,sans-Serif" font-size="10.00">::FinishLaserAttack</text>
</a>
</g>
</g>
<!-- Node3&#45;&gt;Node4 -->
<g id="edge5_Node000003_Node000004" class="edge">
<title>Node3&#45;&gt;Node4</title>
<g id="a_edge5_Node000003_Node000004"><a xlink:title=" ">
<path fill="none" stroke="#63b8ff" d="M296.68,-59.49C308.41,-59.25 320.78,-59.19 332.83,-59.31"/>
<polygon fill="#63b8ff" stroke="#63b8ff" points="332.69,-62.81 342.74,-59.46 332.79,-55.81 332.69,-62.81"/>
</a>
</g>
</g>
<!-- Node4&#45;&gt;Node3 -->
<g id="edge6_Node000004_Node000003" class="edge">
<title>Node4&#45;&gt;Node3</title>
<g id="a_edge6_Node000004_Node000003"><a xlink:title=" ">
<path fill="none" stroke="#63b8ff" d="M344.25,-72.52C332.51,-72.75 320.13,-72.81 308.09,-72.69"/>
<polygon fill="#63b8ff" stroke="#63b8ff" points="308.24,-69.19 298.19,-72.54 308.13,-76.19 308.24,-69.19"/>
</a>
</g>
</g>
<!-- Node6 -->
<g id="Node000006" class="node">
<title>Node6</title>
<g id="a_Node000006"><a xlink:href="class_u_base_laser_attack_ability.html#abd26ecf6cee23237e9249ce68b42fa62" target="_top" xlink:title=" ">
<polygon fill="white" stroke="#666666" points="473.25,-32 341.75,-32 341.75,0 473.25,0 473.25,-32"/>
<text xml:space="preserve" text-anchor="start" x="349.75" y="-18.5" font-family="Helvetica,sans-Serif" font-size="10.00">UBaseLaserAttackAbility</text>
<text xml:space="preserve" text-anchor="middle" x="407.5" y="-6.5" font-family="Helvetica,sans-Serif" font-size="10.00">::UBaseLaserAttackAbility</text>
</a>
</g>
</g>
<!-- Node5&#45;&gt;Node6 -->
<g id="edge8_Node000005_Node000006" class="edge">
<title>Node5&#45;&gt;Node6</title>
<g id="a_edge8_Node000005_Node000006"><a xlink:title=" ">
<path fill="none" stroke="#63b8ff" d="M306.02,-16C313.89,-16 321.93,-16 329.86,-16"/>
<polygon fill="#63b8ff" stroke="#63b8ff" points="329.86,-19.5 339.86,-16 329.86,-12.5 329.86,-19.5"/>
</a>
</g>
</g>
</g>
</svg>
</svg>

<style type='text/css'>
<![CDATA[
[data-mouse-over-selected='false'] { opacity: 0.7; }
[data-mouse-over-selected='true']  { opacity: 1.0; }
]]>
</style>
<script type="application/ecmascript"><![CDATA[
document.addEventListener('DOMContentLoaded', (event) => {
  highlightEdges();
  highlightAdjacentNodes();
});
]]></script>
</svg>
