<?xml version="1.0" encoding="UTF-8" standalone="no"?>
<!DOCTYPE svg PUBLIC "-//W3C//DTD SVG 1.1//EN"
 "http://www.w3.org/Graphics/SVG/1.1/DTD/svg11.dtd">
<!-- Generated by graphviz version 13.1.1 (20250719.2154)
 -->
<!-- Title: AMissionActorBase::NotifyMissionFailed Pages: 1 -->
<svg width="269pt" height="90pt"
 viewBox="0.00 0.00 269.00 90.00" xmlns="http://www.w3.org/2000/svg" xmlns:xlink="http://www.w3.org/1999/xlink">
<g id="graph0" class="graph" transform="scale(1 1) rotate(0) translate(4 86)">
<title>AMissionActorBase::NotifyMissionFailed</title>
<!-- Node1 -->
<g id="Node000001" class="node">
<title>Node1</title>
<g id="a_Node000001"><a xlink:title=" ">
<polygon fill="#999999" stroke="#666666" points="260.75,-57 152.5,-57 152.5,-25 260.75,-25 260.75,-57"/>
<text xml:space="preserve" text-anchor="start" x="160.5" y="-43.5" font-family="Helvetica,sans-Serif" font-size="10.00">AMissionActorBase::</text>
<text xml:space="preserve" text-anchor="middle" x="206.62" y="-31.5" font-family="Helvetica,sans-Serif" font-size="10.00">NotifyMissionFailed</text>
</a>
</g>
</g>
<!-- Node2 -->
<g id="Node000002" class="node">
<title>Node2</title>
<g id="a_Node000002"><a xlink:href="class_a_mission___one_bound.html#a5b811c2a939b6b379919147b0365e273" target="_top" xlink:title=" ">
<polygon fill="white" stroke="#666666" points="116.5,-82 0,-82 0,-50 116.5,-50 116.5,-82"/>
<text xml:space="preserve" text-anchor="start" x="8" y="-68.5" font-family="Helvetica,sans-Serif" font-size="10.00">AMission_OneBound::</text>
<text xml:space="preserve" text-anchor="middle" x="58.25" y="-56.5" font-family="Helvetica,sans-Serif" font-size="10.00">OnBallEnteredIndicator</text>
</a>
</g>
</g>
<!-- Node1&#45;&gt;Node2 -->
<g id="edge1_Node000001_Node000002" class="edge">
<title>Node1&#45;&gt;Node2</title>
<g id="a_edge1_Node000001_Node000002"><a xlink:title=" ">
<path fill="none" stroke="#63b8ff" d="M141.03,-52.03C132.92,-53.42 124.66,-54.83 116.67,-56.19"/>
<polygon fill="#63b8ff" stroke="#63b8ff" points="141.61,-55.48 150.87,-50.35 140.43,-48.58 141.61,-55.48"/>
</a>
</g>
</g>
<!-- Node3 -->
<g id="Node000003" class="node">
<title>Node3</title>
<g id="a_Node000003"><a xlink:href="class_a_mission___one_bound.html#ae61a8a2513a358f4eaf23c0e94c7e59c" target="_top" xlink:title=" ">
<polygon fill="white" stroke="#666666" points="115,-32 1.5,-32 1.5,0 115,0 115,-32"/>
<text xml:space="preserve" text-anchor="start" x="9.5" y="-18.5" font-family="Helvetica,sans-Serif" font-size="10.00">AMission_OneBound::</text>
<text xml:space="preserve" text-anchor="middle" x="58.25" y="-6.5" font-family="Helvetica,sans-Serif" font-size="10.00">StartMission</text>
</a>
</g>
</g>
<!-- Node1&#45;&gt;Node3 -->
<g id="edge2_Node000001_Node000003" class="edge">
<title>Node1&#45;&gt;Node3</title>
<g id="a_edge2_Node000001_Node000003"><a xlink:title=" ">
<path fill="none" stroke="#63b8ff" d="M141.13,-29.98C132.48,-28.51 123.67,-27 115.18,-25.55"/>
<polygon fill="#63b8ff" stroke="#63b8ff" points="140.43,-33.42 150.87,-31.65 141.61,-26.52 140.43,-33.42"/>
</a>
</g>
</g>
</g>
</svg>
