<?xml version="1.0" encoding="UTF-8" standalone="no"?>
<!DOCTYPE svg PUBLIC "-//W3C//DTD SVG 1.1//EN"
 "http://www.w3.org/Graphics/SVG/1.1/DTD/svg11.dtd">
<!-- Generated by graphviz version 13.1.1 (20250719.2154)
 -->
<!-- Title: AKPTInGameMode::StartPlay Pages: 1 -->
<svg width="1294pt" height="409pt"
 viewBox="0.00 0.00 1294.00 409.00" xmlns="http://www.w3.org/2000/svg" xmlns:xlink="http://www.w3.org/1999/xlink">
<g id="graph0" class="graph" transform="scale(1 1) rotate(0) translate(4 405)">
<title>AKPTInGameMode::StartPlay</title>
<!-- Node1 -->
<g id="Node000001" class="node">
<title>Node1</title>
<g id="a_Node000001"><a xlink:title=" ">
<polygon fill="#999999" stroke="#666666" points="147.25,-270 0,-270 0,-250 147.25,-250 147.25,-270"/>
<text xml:space="preserve" text-anchor="middle" x="73.62" y="-256.5" font-family="Helvetica,sans-Serif" font-size="10.00">AKPTInGameMode::StartPlay</text>
</a>
</g>
</g>
<!-- Node2 -->
<g id="Node000002" class="node">
<title>Node2</title>
<g id="a_Node000002"><a xlink:href="class_a_k_p_t_in_game_mode.html#a334c0aa77939b7960e58785eff22e00e" target="_top" xlink:title=" ">
<polygon fill="white" stroke="#666666" points="346.62,-401 186.62,-401 186.62,-369 346.62,-369 346.62,-401"/>
<text xml:space="preserve" text-anchor="start" x="194.62" y="-387.5" font-family="Helvetica,sans-Serif" font-size="10.00">AKPTInGameMode::HandleBoss</text>
<text xml:space="preserve" text-anchor="middle" x="266.62" y="-375.5" font-family="Helvetica,sans-Serif" font-size="10.00">Defeated</text>
</a>
</g>
</g>
<!-- Node1&#45;&gt;Node2 -->
<g id="edge1_Node000001_Node000002" class="edge">
<title>Node1&#45;&gt;Node2</title>
<g id="a_edge1_Node000001_Node000002"><a xlink:title=" ">
<path fill="none" stroke="#63b8ff" d="M83.06,-270.41C99.96,-290.62 140.08,-335.32 183.25,-360 185.6,-361.35 188.04,-362.63 190.53,-363.84"/>
<polygon fill="#63b8ff" stroke="#63b8ff" points="189.08,-367.03 199.64,-367.89 191.92,-360.63 189.08,-367.03"/>
</a>
</g>
</g>
<!-- Node3 -->
<g id="Node000003" class="node">
<title>Node3</title>
<g id="a_Node000003"><a xlink:href="class_a_k_p_t_in_game_mode.html#a0368a48967da2d4e05b79760d325efd2" target="_top" xlink:title=" ">
<polygon fill="white" stroke="#666666" points="346.62,-351 186.62,-351 186.62,-319 346.62,-319 346.62,-351"/>
<text xml:space="preserve" text-anchor="start" x="194.62" y="-337.5" font-family="Helvetica,sans-Serif" font-size="10.00">AKPTInGameMode::HandleBoss</text>
<text xml:space="preserve" text-anchor="middle" x="266.62" y="-325.5" font-family="Helvetica,sans-Serif" font-size="10.00">HPChanged</text>
</a>
</g>
</g>
<!-- Node1&#45;&gt;Node3 -->
<g id="edge2_Node000001_Node000003" class="edge">
<title>Node1&#45;&gt;Node3</title>
<g id="a_edge2_Node000001_Node000003"><a xlink:title=" ">
<path fill="none" stroke="#63b8ff" d="M95.09,-270.44C116.66,-281.21 151.81,-298.06 183.25,-310 187.65,-311.67 192.22,-313.31 196.84,-314.9"/>
<polygon fill="#63b8ff" stroke="#63b8ff" points="195.65,-318.19 206.24,-318.03 197.86,-311.55 195.65,-318.19"/>
</a>
</g>
</g>
<!-- Node4 -->
<g id="Node000004" class="node">
<title>Node4</title>
<g id="a_Node000004"><a xlink:href="class_a_k_p_t_in_game_mode.html#a97f3e2361fae3fa048ea5c3c5f5c41b8" target="_top" xlink:title=" ">
<polygon fill="white" stroke="#666666" points="346.62,-301 186.62,-301 186.62,-269 346.62,-269 346.62,-301"/>
<text xml:space="preserve" text-anchor="start" x="194.62" y="-287.5" font-family="Helvetica,sans-Serif" font-size="10.00">AKPTInGameMode::HandleBoss</text>
<text xml:space="preserve" text-anchor="middle" x="266.62" y="-275.5" font-family="Helvetica,sans-Serif" font-size="10.00">Spawned</text>
</a>
</g>
</g>
<!-- Node1&#45;&gt;Node4 -->
<g id="edge3_Node000001_Node000004" class="edge">
<title>Node1&#45;&gt;Node4</title>
<g id="a_edge3_Node000001_Node000004"><a xlink:title=" ">
<path fill="none" stroke="#63b8ff" d="M147.65,-269.56C156.64,-270.73 165.9,-271.95 175.11,-273.15"/>
<polygon fill="#63b8ff" stroke="#63b8ff" points="174.41,-276.59 184.78,-274.42 175.32,-269.65 174.41,-276.59"/>
</a>
</g>
</g>
<!-- Node5 -->
<g id="Node000005" class="node">
<title>Node5</title>
<g id="a_Node000005"><a xlink:href="class_a_k_p_t_in_game_mode.html#a53520ef95b9f8a4c66bfbb5277630e59" target="_top" xlink:title=" ">
<polygon fill="white" stroke="#666666" points="343.62,-251 189.62,-251 189.62,-219 343.62,-219 343.62,-251"/>
<text xml:space="preserve" text-anchor="start" x="197.62" y="-237.5" font-family="Helvetica,sans-Serif" font-size="10.00">AKPTInGameMode::OnInGame</text>
<text xml:space="preserve" text-anchor="middle" x="266.62" y="-225.5" font-family="Helvetica,sans-Serif" font-size="10.00">PhaseManagerReady</text>
</a>
</g>
</g>
<!-- Node1&#45;&gt;Node5 -->
<g id="edge4_Node000001_Node000005" class="edge">
<title>Node1&#45;&gt;Node5</title>
<g id="a_edge4_Node000001_Node000005"><a xlink:title=" ">
<path fill="none" stroke="#63b8ff" d="M147.65,-250.44C157.52,-249.15 167.73,-247.81 177.83,-246.49"/>
<polygon fill="#63b8ff" stroke="#63b8ff" points="178.19,-249.97 187.65,-245.21 177.28,-243.03 178.19,-249.97"/>
</a>
</g>
</g>
<!-- Node6 -->
<g id="Node000006" class="node">
<title>Node6</title>
<g id="a_Node000006"><a xlink:href="class_a_k_p_t_in_game_mode.html#accedad98ce10e39419a3dbe21eb0286d" target="_top" xlink:title=" ">
<polygon fill="white" stroke="#666666" points="350,-201 183.25,-201 183.25,-169 350,-169 350,-201"/>
<text xml:space="preserve" text-anchor="start" x="191.25" y="-187.5" font-family="Helvetica,sans-Serif" font-size="10.00">AKPTInGameMode::OnTeamStats</text>
<text xml:space="preserve" text-anchor="middle" x="266.62" y="-175.5" font-family="Helvetica,sans-Serif" font-size="10.00">ComponentReady</text>
</a>
</g>
</g>
<!-- Node1&#45;&gt;Node6 -->
<g id="edge5_Node000001_Node000006" class="edge">
<title>Node1&#45;&gt;Node6</title>
<g id="a_edge5_Node000001_Node000006"><a xlink:title=" ">
<path fill="none" stroke="#63b8ff" d="M95.09,-249.56C116.66,-238.79 151.81,-221.94 183.25,-210 187.65,-208.33 192.22,-206.69 196.84,-205.1"/>
<polygon fill="#63b8ff" stroke="#63b8ff" points="197.86,-208.45 206.24,-201.97 195.65,-201.81 197.86,-208.45"/>
</a>
</g>
</g>
<!-- Node7 -->
<g id="Node000007" class="node">
<title>Node7</title>
<g id="a_Node000007"><a xlink:href="class_a_k_p_t_in_game_mode.html#a9f93e98963e67a4aec973d492c0b437a" target="_top" xlink:title="새 라운드를 시작합니다.">
<polygon fill="white" stroke="#666666" points="344.75,-151 188.5,-151 188.5,-131 344.75,-131 344.75,-151"/>
<text xml:space="preserve" text-anchor="middle" x="266.62" y="-137.5" font-family="Helvetica,sans-Serif" font-size="10.00">AKPTInGameMode::StartRound</text>
</a>
</g>
</g>
<!-- Node1&#45;&gt;Node7 -->
<g id="edge6_Node000001_Node000007" class="edge">
<title>Node1&#45;&gt;Node7</title>
<g id="a_edge6_Node000001_Node000007"><a xlink:title=" ">
<path fill="none" stroke="#63b8ff" d="M82.66,-249.64C99.15,-229.14 139.04,-183.32 183.25,-160 186.5,-158.29 189.89,-156.73 193.38,-155.31"/>
<polygon fill="#63b8ff" stroke="#63b8ff" points="194.42,-158.66 202.63,-151.97 192.04,-152.07 194.42,-158.66"/>
</a>
</g>
</g>
<!-- Node8 -->
<g id="Node000008" class="node">
<title>Node8</title>
<g id="a_Node000008"><a xlink:href="class_a_k_p_t_in_game_mode.html#aa4f70056d702908efb82a3a085b2d832" target="_top" xlink:title="주간 페이즈의 시작을 처리합니다.">
<polygon fill="white" stroke="#666666" points="541.5,-157 386,-157 386,-125 541.5,-125 541.5,-157"/>
<text xml:space="preserve" text-anchor="start" x="394" y="-143.5" font-family="Helvetica,sans-Serif" font-size="10.00">AKPTInGameMode::HandleDay</text>
<text xml:space="preserve" text-anchor="middle" x="463.75" y="-131.5" font-family="Helvetica,sans-Serif" font-size="10.00">Phase</text>
</a>
</g>
</g>
<!-- Node7&#45;&gt;Node8 -->
<g id="edge7_Node000007_Node000008" class="edge">
<title>Node7&#45;&gt;Node8</title>
<g id="a_edge7_Node000007_Node000008"><a xlink:title=" ">
<path fill="none" stroke="#63b8ff" d="M345.02,-141C354.66,-141 364.57,-141 374.36,-141"/>
<polygon fill="#63b8ff" stroke="#63b8ff" points="374.25,-144.5 384.25,-141 374.25,-137.5 374.25,-144.5"/>
</a>
</g>
</g>
<!-- Node9 -->
<g id="Node000009" class="node">
<title>Node9</title>
<g id="a_Node000009"><a xlink:href="class_a_k_p_t_in_game_mode.html#ad299e138b605334f03841982928f4e6e" target="_top" xlink:title="특정 플레이어를 현재 게임 페이즈에 맞게 초기화합니다.">
<polygon fill="white" stroke="#666666" points="720.25,-157 577.5,-157 577.5,-125 720.25,-125 720.25,-157"/>
<text xml:space="preserve" text-anchor="start" x="585.5" y="-143.5" font-family="Helvetica,sans-Serif" font-size="10.00">AKPTInGameMode::Initialize</text>
<text xml:space="preserve" text-anchor="middle" x="648.88" y="-131.5" font-family="Helvetica,sans-Serif" font-size="10.00">PlayerForCurrentPhase</text>
</a>
</g>
</g>
<!-- Node8&#45;&gt;Node9 -->
<g id="edge8_Node000008_Node000009" class="edge">
<title>Node8&#45;&gt;Node9</title>
<g id="a_edge8_Node000008_Node000009"><a xlink:title=" ">
<path fill="none" stroke="#63b8ff" d="M541.88,-141C549.85,-141 557.98,-141 566,-141"/>
<polygon fill="#63b8ff" stroke="#63b8ff" points="565.73,-144.5 575.73,-141 565.73,-137.5 565.73,-144.5"/>
</a>
</g>
</g>
<!-- Node10 -->
<g id="Node000010" class="node">
<title>Node10</title>
<g id="a_Node000010"><a xlink:href="class_a_k_p_t_player_state.html#a3f0fd46533843d108f4569bd68d9b233" target="_top" xlink:title=" ">
<polygon fill="white" stroke="#666666" points="1285.75,-243 1143.75,-243 1143.75,-211 1285.75,-211 1285.75,-243"/>
<text xml:space="preserve" text-anchor="start" x="1151.75" y="-229.5" font-family="Helvetica,sans-Serif" font-size="10.00">AKPTPlayerState::GetAbility</text>
<text xml:space="preserve" text-anchor="middle" x="1214.75" y="-217.5" font-family="Helvetica,sans-Serif" font-size="10.00">SystemComponent</text>
</a>
</g>
</g>
<!-- Node9&#45;&gt;Node10 -->
<g id="edge9_Node000009_Node000010" class="edge">
<title>Node9&#45;&gt;Node10</title>
<g id="a_edge9_Node000009_Node000010"><a xlink:title=" ">
<path fill="none" stroke="#63b8ff" d="M656.58,-157.05C670.19,-187.23 704.24,-251.65 756.25,-277 893.66,-343.97 1081.21,-282.92 1167.21,-247.79"/>
<polygon fill="#63b8ff" stroke="#63b8ff" points="1168.38,-251.09 1176.27,-244.02 1165.7,-244.63 1168.38,-251.09"/>
</a>
</g>
</g>
<!-- Node11 -->
<g id="Node000011" class="node">
<title>Node11</title>
<g id="a_Node000011"><a xlink:href="class_a_k_p_t_player_state.html#a6989c3ebb86791d3a7265d8f5dc90b93" target="_top" xlink:title=" ">
<polygon fill="white" stroke="#666666" points="913.62,-250 764.88,-250 764.88,-218 913.62,-218 913.62,-250"/>
<text xml:space="preserve" text-anchor="start" x="772.88" y="-236.5" font-family="Helvetica,sans-Serif" font-size="10.00">AKPTPlayerState::GetReward</text>
<text xml:space="preserve" text-anchor="middle" x="839.25" y="-224.5" font-family="Helvetica,sans-Serif" font-size="10.00">StateComponent</text>
</a>
</g>
</g>
<!-- Node9&#45;&gt;Node11 -->
<g id="edge10_Node000009_Node000011" class="edge">
<title>Node9&#45;&gt;Node11</title>
<g id="a_edge10_Node000009_Node000011"><a xlink:title=" ">
<path fill="none" stroke="#63b8ff" d="M671.68,-157.46C692.49,-172.56 725.2,-194.67 756.25,-209 759.73,-210.61 763.35,-212.15 767.03,-213.61"/>
<polygon fill="#63b8ff" stroke="#63b8ff" points="765.53,-216.79 776.12,-217.01 767.98,-210.23 765.53,-216.79"/>
</a>
</g>
</g>
<!-- Node12 -->
<g id="Node000012" class="node">
<title>Node12</title>
<g id="a_Node000012"><a xlink:href="class_u_player_reward_state_component.html#a13152160f317ee674b6c1dde2d1bb0e7" target="_top" xlink:title="처리해야 할 보상이 남아있는지 확인합니다.">
<polygon fill="white" stroke="#666666" points="918.5,-182 760,-182 760,-150 918.5,-150 918.5,-182"/>
<text xml:space="preserve" text-anchor="start" x="768" y="-168.5" font-family="Helvetica,sans-Serif" font-size="10.00">UPlayerRewardStateComponent</text>
<text xml:space="preserve" text-anchor="middle" x="839.25" y="-156.5" font-family="Helvetica,sans-Serif" font-size="10.00">::HasPendingRewards</text>
</a>
</g>
</g>
<!-- Node9&#45;&gt;Node12 -->
<g id="edge12_Node000009_Node000012" class="edge">
<title>Node9&#45;&gt;Node12</title>
<g id="a_edge12_Node000009_Node000012"><a xlink:title=" ">
<path fill="none" stroke="#63b8ff" d="M720.55,-150.38C729.61,-151.58 738.97,-152.82 748.28,-154.06"/>
<polygon fill="#63b8ff" stroke="#63b8ff" points="747.71,-157.52 758.09,-155.36 748.63,-150.58 747.71,-157.52"/>
</a>
</g>
</g>
<!-- Node13 -->
<g id="Node000013" class="node">
<title>Node13</title>
<g id="a_Node000013"><a xlink:href="class_a_k_p_t_in_game_mode.html#a1a9ee04a849c50e213574d166ea3eda5" target="_top" xlink:title="특정 플레이어에게 카드 선택 기회를 제공합니다.">
<polygon fill="white" stroke="#666666" points="907.25,-132 771.25,-132 771.25,-100 907.25,-100 907.25,-132"/>
<text xml:space="preserve" text-anchor="start" x="779.25" y="-118.5" font-family="Helvetica,sans-Serif" font-size="10.00">AKPTInGameMode::Initiate</text>
<text xml:space="preserve" text-anchor="middle" x="839.25" y="-106.5" font-family="Helvetica,sans-Serif" font-size="10.00">RewardPhaseForPlayer</text>
</a>
</g>
</g>
<!-- Node9&#45;&gt;Node13 -->
<g id="edge14_Node000009_Node000013" class="edge">
<title>Node9&#45;&gt;Node13</title>
<g id="a_edge14_Node000009_Node000013"><a xlink:title=" ">
<path fill="none" stroke="#63b8ff" d="M720.55,-131.62C733.31,-129.93 746.69,-128.15 759.65,-126.43"/>
<polygon fill="#63b8ff" stroke="#63b8ff" points="759.96,-129.92 769.42,-125.14 759.04,-122.98 759.96,-129.92"/>
</a>
</g>
</g>
<!-- Node14 -->
<g id="Node000014" class="node">
<title>Node14</title>
<g id="a_Node000014"><a xlink:href="class_a_k_p_t_in_game_mode.html#a23300b5648c661902a39ec934b2de357" target="_top" xlink:title=" ">
<polygon fill="white" stroke="#666666" points="922.25,-82 756.25,-82 756.25,-50 922.25,-50 922.25,-82"/>
<text xml:space="preserve" text-anchor="start" x="764.25" y="-68.5" font-family="Helvetica,sans-Serif" font-size="10.00">AKPTInGameMode::SetAllPlayers</text>
<text xml:space="preserve" text-anchor="middle" x="839.25" y="-56.5" font-family="Helvetica,sans-Serif" font-size="10.00">SkillEnabled</text>
</a>
</g>
</g>
<!-- Node9&#45;&gt;Node14 -->
<g id="edge15_Node000009_Node000014" class="edge">
<title>Node9&#45;&gt;Node14</title>
<g id="a_edge15_Node000009_Node000014"><a xlink:title=" ">
<path fill="none" stroke="#63b8ff" d="M681.47,-124.69C702.37,-114.26 730.54,-100.9 756.25,-91 760.62,-89.31 765.16,-87.67 769.76,-86.07"/>
<polygon fill="#63b8ff" stroke="#63b8ff" points="770.75,-89.43 779.11,-82.93 768.52,-82.8 770.75,-89.43"/>
</a>
</g>
</g>
<!-- Node16 -->
<g id="Node000016" class="node">
<title>Node16</title>
<g id="a_Node000016"><a xlink:href="class_a_k_p_t_player_state.html#ae76783471e033ac0ece5ebe988856b1b" target="_top" xlink:title="업그레이드 선택 기회를 추가합니다.">
<polygon fill="white" stroke="#666666" points="915.5,-32 763,-32 763,0 915.5,0 915.5,-32"/>
<text xml:space="preserve" text-anchor="start" x="771" y="-18.5" font-family="Helvetica,sans-Serif" font-size="10.00">AKPTPlayerState::SetPersonal</text>
<text xml:space="preserve" text-anchor="middle" x="839.25" y="-6.5" font-family="Helvetica,sans-Serif" font-size="10.00">StateTag</text>
</a>
</g>
</g>
<!-- Node9&#45;&gt;Node16 -->
<g id="edge18_Node000009_Node000016" class="edge">
<title>Node9&#45;&gt;Node16</title>
<g id="a_edge18_Node000009_Node000016"><a xlink:title=" ">
<path fill="none" stroke="#63b8ff" d="M662.92,-124.74C681.44,-102.69 717.43,-63.5 756.25,-41 758.59,-39.65 761,-38.36 763.48,-37.14"/>
<polygon fill="#63b8ff" stroke="#63b8ff" points="764.84,-40.36 772.53,-33.08 761.98,-33.97 764.84,-40.36"/>
</a>
</g>
</g>
<!-- Node11&#45;&gt;Node11 -->
<g id="edge11_Node000011_Node000011" class="edge">
<title>Node11&#45;&gt;Node11</title>
<g id="a_edge11_Node000011_Node000011"><a xlink:title=" ">
<path fill="none" stroke="#63b8ff" d="M805.26,-250.44C798.92,-259.58 810.25,-268 839.25,-268 855.11,-268 865.69,-265.48 870.98,-261.71"/>
<polygon fill="#63b8ff" stroke="#63b8ff" points="874.4,-262.42 872.94,-251.93 867.54,-261.04 874.4,-262.42"/>
</a>
</g>
</g>
<!-- Node12&#45;&gt;Node12 -->
<g id="edge13_Node000012_Node000012" class="edge">
<title>Node12&#45;&gt;Node12</title>
<g id="a_edge13_Node000012_Node000012"><a xlink:title=" ">
<path fill="none" stroke="#63b8ff" d="M805.26,-182.44C798.92,-191.58 810.25,-200 839.25,-200 855.11,-200 865.69,-197.48 870.98,-193.71"/>
<polygon fill="#63b8ff" stroke="#63b8ff" points="874.4,-194.42 872.94,-183.93 867.54,-193.04 874.4,-194.42"/>
</a>
</g>
</g>
<!-- Node15 -->
<g id="Node000015" class="node">
<title>Node15</title>
<g id="a_Node000015"><a xlink:href="class_a_k_p_t_in_game_mode.html#a4d83e6405b91bdefb43aeac062b7b099" target="_top" xlink:title=" ">
<polygon fill="white" stroke="#666666" points="1107.75,-175 958.25,-175 958.25,-143 1107.75,-143 1107.75,-175"/>
<text xml:space="preserve" text-anchor="start" x="966.25" y="-161.5" font-family="Helvetica,sans-Serif" font-size="10.00">AKPTInGameMode::SetPlayer</text>
<text xml:space="preserve" text-anchor="middle" x="1033" y="-149.5" font-family="Helvetica,sans-Serif" font-size="10.00">SkillEnabled</text>
</a>
</g>
</g>
<!-- Node14&#45;&gt;Node15 -->
<g id="edge16_Node000014_Node000015" class="edge">
<title>Node14&#45;&gt;Node15</title>
<g id="a_edge16_Node000014_Node000015"><a xlink:title=" ">
<path fill="none" stroke="#63b8ff" d="M900.48,-82.39C907.92,-84.99 915.34,-87.87 922.25,-91 949.87,-103.51 978.95,-121.79 1000.23,-136.24"/>
<polygon fill="#63b8ff" stroke="#63b8ff" points="997.96,-138.93 1008.18,-141.72 1001.93,-133.17 997.96,-138.93"/>
</a>
</g>
</g>
<!-- Node15&#45;&gt;Node10 -->
<g id="edge17_Node000015_Node000010" class="edge">
<title>Node15&#45;&gt;Node10</title>
<g id="a_edge17_Node000015_Node000010"><a xlink:title=" ">
<path fill="none" stroke="#63b8ff" d="M1077.51,-175.46C1102.26,-184.82 1133.47,-196.63 1159.77,-206.58"/>
<polygon fill="#63b8ff" stroke="#63b8ff" points="1158.32,-209.77 1168.91,-210.04 1160.8,-203.23 1158.32,-209.77"/>
</a>
</g>
</g>
<!-- Node17 -->
<g id="Node000017" class="node">
<title>Node17</title>
<g id="a_Node000017"><a xlink:href="class_a_k_p_t_player_state.html#aa41c46851e05f762ccd8c2fc98aa505a" target="_top" xlink:title=" ">
<polygon fill="white" stroke="#666666" points="1098,-32 968,-32 968,0 1098,0 1098,-32"/>
<text xml:space="preserve" text-anchor="start" x="976" y="-18.5" font-family="Helvetica,sans-Serif" font-size="10.00">AKPTPlayerState::OnRep</text>
<text xml:space="preserve" text-anchor="middle" x="1033" y="-6.5" font-family="Helvetica,sans-Serif" font-size="10.00">_PersonalStateTag</text>
</a>
</g>
</g>
<!-- Node16&#45;&gt;Node17 -->
<g id="edge19_Node000016_Node000017" class="edge">
<title>Node16&#45;&gt;Node17</title>
<g id="a_edge19_Node000016_Node000017"><a xlink:title=" ">
<path fill="none" stroke="#63b8ff" d="M915.76,-16C929.19,-16 943.17,-16 956.6,-16"/>
<polygon fill="#63b8ff" stroke="#63b8ff" points="956.21,-19.5 966.21,-16 956.21,-12.5 956.21,-19.5"/>
</a>
</g>
</g>
</g>
</svg>
