<?xml version="1.0" encoding="UTF-8" standalone="no"?>
<!DOCTYPE svg PUBLIC "-//W3C//DTD SVG 1.1//EN"
 "http://www.w3.org/Graphics/SVG/1.1/DTD/svg11.dtd">
<!-- Generated by graphviz version 13.1.1 (20250719.2154)
 -->
<!-- Title: USkillSelectUI::NativeConstruct Pages: 1 -->
<svg width="540pt" height="190pt"
 viewBox="0.00 0.00 540.00 190.00" xmlns="http://www.w3.org/2000/svg" xmlns:xlink="http://www.w3.org/1999/xlink">
<g id="graph0" class="graph" transform="scale(1 1) rotate(0) translate(4 186)">
<title>USkillSelectUI::NativeConstruct</title>
<!-- Node1 -->
<g id="Node000001" class="node">
<title>Node1</title>
<g id="a_Node000001"><a xlink:title=" ">
<polygon fill="#999999" stroke="#666666" points="157.75,-101 0,-101 0,-81 157.75,-81 157.75,-101"/>
<text xml:space="preserve" text-anchor="middle" x="78.88" y="-87.5" font-family="Helvetica,sans-Serif" font-size="10.00">USkillSelectUI::NativeConstruct</text>
</a>
</g>
</g>
<!-- Node2 -->
<g id="Node000002" class="node">
<title>Node2</title>
<g id="a_Node000002"><a xlink:href="class_u_skill_select_u_i.html#ac66292b71f8f26bd5d86766af1ffcbb7" target="_top" xlink:title=" ">
<polygon fill="white" stroke="#666666" points="343.25,-182 193.75,-182 193.75,-150 343.25,-150 343.25,-182"/>
<text xml:space="preserve" text-anchor="start" x="201.75" y="-168.5" font-family="Helvetica,sans-Serif" font-size="10.00">USkillSelectUI::UpdateHoverd</text>
<text xml:space="preserve" text-anchor="middle" x="268.5" y="-156.5" font-family="Helvetica,sans-Serif" font-size="10.00">SkillsVisual</text>
</a>
</g>
</g>
<!-- Node1&#45;&gt;Node2 -->
<g id="edge1_Node000001_Node000002" class="edge">
<title>Node1&#45;&gt;Node2</title>
<g id="a_edge1_Node000001_Node000002"><a xlink:title=" ">
<path fill="none" stroke="#63b8ff" d="M101.89,-101.35C124.66,-111.89 161.34,-128.42 193.75,-141 197.89,-142.61 202.17,-144.21 206.5,-145.79"/>
<polygon fill="#63b8ff" stroke="#63b8ff" points="205.28,-149.07 215.88,-149.13 207.63,-142.47 205.28,-149.07"/>
</a>
</g>
</g>
<!-- Node4 -->
<g id="Node000004" class="node">
<title>Node4</title>
<g id="a_Node000004"><a xlink:href="class_u_skill_select_u_i.html#afabf2cacb1a95212c537dc0cc72cc491" target="_top" xlink:title=" ">
<polygon fill="white" stroke="#666666" points="336.88,-132 200.12,-132 200.12,-100 336.88,-100 336.88,-132"/>
<text xml:space="preserve" text-anchor="start" x="208.12" y="-118.5" font-family="Helvetica,sans-Serif" font-size="10.00">USkillSelectUI::UpdateSkill</text>
<text xml:space="preserve" text-anchor="middle" x="268.5" y="-106.5" font-family="Helvetica,sans-Serif" font-size="10.00">SelectSlot</text>
</a>
</g>
</g>
<!-- Node1&#45;&gt;Node4 -->
<g id="edge4_Node000001_Node000004" class="edge">
<title>Node1&#45;&gt;Node4</title>
<g id="a_edge4_Node000001_Node000004"><a xlink:title=" ">
<path fill="none" stroke="#63b8ff" d="M158.09,-101.42C168.17,-102.76 178.5,-104.14 188.59,-105.49"/>
<polygon fill="#63b8ff" stroke="#63b8ff" points="187.98,-108.94 198.36,-106.79 188.91,-102 187.98,-108.94"/>
</a>
</g>
</g>
<!-- Node5 -->
<g id="Node000005" class="node">
<title>Node5</title>
<g id="a_Node000005"><a xlink:href="class_u_skill_select_u_i.html#ace839d7aa7d892c0dee8b9dde643efef" target="_top" xlink:title=" ">
<polygon fill="white" stroke="#666666" points="336.88,-82 200.12,-82 200.12,-50 336.88,-50 336.88,-82"/>
<text xml:space="preserve" text-anchor="start" x="208.12" y="-68.5" font-family="Helvetica,sans-Serif" font-size="10.00">USkillSelectUI::UpdateSkill</text>
<text xml:space="preserve" text-anchor="middle" x="268.5" y="-56.5" font-family="Helvetica,sans-Serif" font-size="10.00">SlotData</text>
</a>
</g>
</g>
<!-- Node1&#45;&gt;Node5 -->
<g id="edge5_Node000001_Node000005" class="edge">
<title>Node1&#45;&gt;Node5</title>
<g id="a_edge5_Node000001_Node000005"><a xlink:title=" ">
<path fill="none" stroke="#63b8ff" d="M158.09,-80.58C168.17,-79.24 178.5,-77.86 188.59,-76.51"/>
<polygon fill="#63b8ff" stroke="#63b8ff" points="188.91,-80 198.36,-75.21 187.98,-73.06 188.91,-80"/>
</a>
</g>
</g>
<!-- Node6 -->
<g id="Node000006" class="node">
<title>Node6</title>
<g id="a_Node000006"><a xlink:href="class_u_skill_select_u_i.html#a3880c41ee55fa76acb9f91d742f350e0" target="_top" xlink:title=" ">
<polygon fill="white" stroke="#666666" points="333.88,-32 203.12,-32 203.12,0 333.88,0 333.88,-32"/>
<text xml:space="preserve" text-anchor="start" x="211.12" y="-18.5" font-family="Helvetica,sans-Serif" font-size="10.00">USkillSelectUI::UpdateUn</text>
<text xml:space="preserve" text-anchor="middle" x="268.5" y="-6.5" font-family="Helvetica,sans-Serif" font-size="10.00">HoverdSkillsVisual</text>
</a>
</g>
</g>
<!-- Node1&#45;&gt;Node6 -->
<g id="edge6_Node000001_Node000006" class="edge">
<title>Node1&#45;&gt;Node6</title>
<g id="a_edge6_Node000001_Node000006"><a xlink:title=" ">
<path fill="none" stroke="#63b8ff" d="M101.89,-80.65C124.66,-70.11 161.34,-53.58 193.75,-41 197.89,-39.39 202.17,-37.79 206.5,-36.21"/>
<polygon fill="#63b8ff" stroke="#63b8ff" points="207.63,-39.53 215.88,-32.87 205.28,-32.93 207.63,-39.53"/>
</a>
</g>
</g>
<!-- Node3 -->
<g id="Node000003" class="node">
<title>Node3</title>
<g id="a_Node000003"><a xlink:href="class_u_skill_slot_u_i.html#af9bb6c6d104da52f0a3ccd902859e934" target="_top" xlink:title=" ">
<polygon fill="white" stroke="#666666" points="531.75,-101 379.25,-101 379.25,-81 531.75,-81 531.75,-101"/>
<text xml:space="preserve" text-anchor="middle" x="455.5" y="-87.5" font-family="Helvetica,sans-Serif" font-size="10.00">USkillSlotUI::GetCachedSkillId</text>
</a>
</g>
</g>
<!-- Node2&#45;&gt;Node3 -->
<g id="edge2_Node000002_Node000003" class="edge">
<title>Node2&#45;&gt;Node3</title>
<g id="a_edge2_Node000002_Node000003"><a xlink:title=" ">
<path fill="none" stroke="#63b8ff" d="M320.12,-149.56C327.91,-146.82 335.83,-143.92 343.25,-141 370.52,-130.28 400.81,-116.54 422.89,-106.18"/>
<polygon fill="#63b8ff" stroke="#63b8ff" points="424.1,-109.48 431.65,-102.04 421.11,-103.15 424.1,-109.48"/>
</a>
</g>
</g>
<!-- Node3&#45;&gt;Node3 -->
<g id="edge3_Node000003_Node000003" class="edge">
<title>Node3&#45;&gt;Node3</title>
<g id="a_edge3_Node000003_Node000003"><a xlink:title=" ">
<path fill="none" stroke="#63b8ff" d="M425.79,-101.34C413.09,-109.98 422.99,-119 455.5,-119 473.78,-119 484.92,-116.14 488.9,-112.11"/>
<polygon fill="#63b8ff" stroke="#63b8ff" points="492.25,-111.1 485.7,-102.77 485.63,-113.37 492.25,-111.1"/>
</a>
</g>
</g>
<!-- Node6&#45;&gt;Node3 -->
<g id="edge7_Node000006_Node000003" class="edge">
<title>Node6&#45;&gt;Node3</title>
<g id="a_edge7_Node000006_Node000003"><a xlink:title=" ">
<path fill="none" stroke="#63b8ff" d="M320.12,-32.44C327.91,-35.18 335.83,-38.08 343.25,-41 370.52,-51.72 400.81,-65.46 422.89,-75.82"/>
<polygon fill="#63b8ff" stroke="#63b8ff" points="421.11,-78.85 431.65,-79.96 424.1,-72.52 421.11,-78.85"/>
</a>
</g>
</g>
</g>
</svg>
