<?xml version="1.0" encoding="UTF-8" standalone="no"?>
<!DOCTYPE svg PUBLIC "-//W3C//DTD SVG 1.1//EN"
 "http://www.w3.org/Graphics/SVG/1.1/DTD/svg11.dtd">
<!-- Generated by graphviz version 13.1.1 (20250719.2154)
 -->
<!-- Title: AKPTInGameMode::EndNightPhase Pages: 1 -->
<svg width="1723pt" height="678pt"
 viewBox="0.00 0.00 1723.00 678.00" xmlns="http://www.w3.org/2000/svg" xmlns:xlink="http://www.w3.org/1999/xlink">
<g id="graph0" class="graph" transform="scale(1 1) rotate(0) translate(4 674)">
<title>AKPTInGameMode::EndNightPhase</title>
<!-- Node1 -->
<g id="Node000001" class="node">
<title>Node1</title>
<g id="a_Node000001"><a xlink:title="야간 페이즈를 종료하고, 게임 종료 조건을 확인하거나 새 라운드를 시작합니다.">
<polygon fill="#999999" stroke="#666666" points="147.25,-230 0,-230 0,-198 147.25,-198 147.25,-230"/>
<text xml:space="preserve" text-anchor="start" x="8" y="-216.5" font-family="Helvetica,sans-Serif" font-size="10.00">AKPTInGameMode::EndNight</text>
<text xml:space="preserve" text-anchor="middle" x="73.62" y="-204.5" font-family="Helvetica,sans-Serif" font-size="10.00">Phase</text>
</a>
</g>
</g>
<!-- Node2 -->
<g id="Node000002" class="node">
<title>Node2</title>
<g id="a_Node000002"><a xlink:href="class_a_k_p_t_in_game_mode.html#a1c856c37dce7343a381723b5d842ecf7" target="_top" xlink:title="모든 플레이어가 사망했는지 확인합니다.">
<polygon fill="white" stroke="#666666" points="372.5,-475 183.25,-475 183.25,-455 372.5,-455 372.5,-475"/>
<text xml:space="preserve" text-anchor="middle" x="277.88" y="-461.5" font-family="Helvetica,sans-Serif" font-size="10.00">AKPTInGameMode::AreAllPlayersDead</text>
</a>
</g>
</g>
<!-- Node1&#45;&gt;Node2 -->
<g id="edge1_Node000001_Node000002" class="edge">
<title>Node1&#45;&gt;Node2</title>
<g id="a_edge1_Node000001_Node000002"><a xlink:title=" ">
<path fill="none" stroke="#63b8ff" d="M87.9,-230.47C123.91,-275.16 223.32,-398.54 261.59,-446.03"/>
<polygon fill="#63b8ff" stroke="#63b8ff" points="258.64,-447.94 267.64,-453.53 264.09,-443.55 258.64,-447.94"/>
</a>
</g>
</g>
<!-- Node31 -->
<g id="Node000031" class="node">
<title>Node31</title>
<g id="a_Node000031"><a xlink:href="class_a_k_p_t_in_game_mode.html#a87cb6168b8662d3ba2ebc02f0695522c" target="_top" xlink:title=" ">
<polygon fill="white" stroke="#666666" points="556.5,-318 420.5,-318 420.5,-286 556.5,-286 556.5,-318"/>
<text xml:space="preserve" text-anchor="start" x="428.5" y="-304.5" font-family="Helvetica,sans-Serif" font-size="10.00">AKPTInGameMode::Initiate</text>
<text xml:space="preserve" text-anchor="middle" x="488.5" y="-292.5" font-family="Helvetica,sans-Serif" font-size="10.00">PhaseTransition</text>
</a>
</g>
</g>
<!-- Node1&#45;&gt;Node31 -->
<g id="edge50_Node000001_Node000031" class="edge">
<title>Node1&#45;&gt;Node31</title>
<g id="a_edge50_Node000001_Node000031"><a xlink:title=" ">
<path fill="none" stroke="#63b8ff" d="M98.44,-230.27C119.69,-243.89 152.15,-262.57 183.25,-272 257.61,-294.54 346.41,-301.11 408.83,-302.61"/>
<polygon fill="#63b8ff" stroke="#63b8ff" points="408.58,-306.1 418.65,-302.8 408.72,-299.11 408.58,-306.1"/>
</a>
</g>
</g>
<!-- Node32 -->
<g id="Node000032" class="node">
<title>Node32</title>
<g id="a_Node000032"><a xlink:href="class_a_k_p_t_in_game_mode.html#a447cf5f334247ed8640cee6ae43bc376" target="_top" xlink:title="팀의 경험치를 확인하고 레벨업을 처리합니다.">
<polygon fill="white" stroke="#666666" points="352.62,-230 203.12,-230 203.12,-198 352.62,-198 352.62,-230"/>
<text xml:space="preserve" text-anchor="start" x="211.12" y="-216.5" font-family="Helvetica,sans-Serif" font-size="10.00">AKPTInGameMode::CheckFor</text>
<text xml:space="preserve" text-anchor="middle" x="277.88" y="-204.5" font-family="Helvetica,sans-Serif" font-size="10.00">TeamLevelUp</text>
</a>
</g>
</g>
<!-- Node1&#45;&gt;Node32 -->
<g id="edge44_Node000001_Node000032" class="edge">
<title>Node1&#45;&gt;Node32</title>
<g id="a_edge44_Node000001_Node000032"><a xlink:title=" ">
<path fill="none" stroke="#63b8ff" d="M147.64,-214C161.98,-214 177.13,-214 191.82,-214"/>
<polygon fill="#63b8ff" stroke="#63b8ff" points="191.43,-217.5 201.43,-214 191.43,-210.5 191.43,-217.5"/>
</a>
</g>
</g>
<!-- Node34 -->
<g id="Node000034" class="node">
<title>Node34</title>
<g id="a_Node000034"><a xlink:href="class_a_k_p_t_in_game_mode.html#aab8a44dfe87df1106a9eecc225638148" target="_top" xlink:title="게임에서 패배했을 때 호출됩니다.">
<polygon fill="white" stroke="#666666" points="360.12,-142 195.62,-142 195.62,-110 360.12,-110 360.12,-142"/>
<text xml:space="preserve" text-anchor="start" x="203.62" y="-128.5" font-family="Helvetica,sans-Serif" font-size="10.00">AKPTInGameMode::HandleMatch</text>
<text xml:space="preserve" text-anchor="middle" x="277.88" y="-116.5" font-family="Helvetica,sans-Serif" font-size="10.00">Defeat</text>
</a>
</g>
</g>
<!-- Node1&#45;&gt;Node34 -->
<g id="edge46_Node000001_Node000034" class="edge">
<title>Node1&#45;&gt;Node34</title>
<g id="a_edge46_Node000001_Node000034"><a xlink:title=" ">
<path fill="none" stroke="#63b8ff" d="M98.69,-197.54C120.09,-183.53 152.64,-163.7 183.25,-151 187.37,-149.29 191.64,-147.67 195.99,-146.13"/>
<polygon fill="#63b8ff" stroke="#63b8ff" points="197.1,-149.45 205.48,-142.96 194.88,-142.81 197.1,-149.45"/>
</a>
</g>
</g>
<!-- Node35 -->
<g id="Node000035" class="node">
<title>Node35</title>
<g id="a_Node000035"><a xlink:href="class_a_k_p_t_in_game_mode.html#acde5763daa38af9c93badb25bf0f59d1" target="_top" xlink:title="게임에서 승리했을 때 호출됩니다.">
<polygon fill="white" stroke="#666666" points="360.12,-92 195.62,-92 195.62,-60 360.12,-60 360.12,-92"/>
<text xml:space="preserve" text-anchor="start" x="203.62" y="-78.5" font-family="Helvetica,sans-Serif" font-size="10.00">AKPTInGameMode::HandleMatch</text>
<text xml:space="preserve" text-anchor="middle" x="277.88" y="-66.5" font-family="Helvetica,sans-Serif" font-size="10.00">Victory</text>
</a>
</g>
</g>
<!-- Node1&#45;&gt;Node35 -->
<g id="edge48_Node000001_Node000035" class="edge">
<title>Node1&#45;&gt;Node35</title>
<g id="a_edge48_Node000001_Node000035"><a xlink:title=" ">
<path fill="none" stroke="#63b8ff" d="M85.62,-197.85C103.28,-173.18 140.36,-126.31 183.25,-101 185.57,-99.63 187.97,-98.33 190.43,-97.11"/>
<polygon fill="#63b8ff" stroke="#63b8ff" points="191.74,-100.35 199.42,-93.06 188.87,-93.97 191.74,-100.35"/>
</a>
</g>
</g>
<!-- Node36 -->
<g id="Node000036" class="node">
<title>Node36</title>
<g id="a_Node000036"><a xlink:href="class_a_k_p_t_in_game_mode.html#a6855178c3536314307a454f02abe0c82" target="_top" xlink:title=" ">
<polygon fill="white" stroke="#666666" points="366.12,-180 189.62,-180 189.62,-160 366.12,-160 366.12,-180"/>
<text xml:space="preserve" text-anchor="middle" x="277.88" y="-166.5" font-family="Helvetica,sans-Serif" font-size="10.00">AKPTInGameMode::ShareTeamGold</text>
</a>
</g>
</g>
<!-- Node1&#45;&gt;Node36 -->
<g id="edge51_Node000001_Node000036" class="edge">
<title>Node1&#45;&gt;Node36</title>
<g id="a_edge51_Node000001_Node000036"><a xlink:title=" ">
<path fill="none" stroke="#63b8ff" d="M144.98,-197.53C157.7,-194.63 170.86,-191.68 183.25,-189 192.91,-186.91 203.14,-184.76 213.16,-182.7"/>
<polygon fill="#63b8ff" stroke="#63b8ff" points="213.76,-186.15 222.85,-180.72 212.35,-179.29 213.76,-186.15"/>
</a>
</g>
</g>
<!-- Node2&#45;&gt;Node2 -->
<g id="edge2_Node000002_Node000002" class="edge">
<title>Node2&#45;&gt;Node2</title>
<g id="a_edge2_Node000002_Node000002"><a xlink:title=" ">
<path fill="none" stroke="#63b8ff" d="M245.42,-475.34C231.55,-483.98 242.37,-493 277.88,-493 297.85,-493 310.01,-490.14 314.36,-486.11"/>
<polygon fill="#63b8ff" stroke="#63b8ff" points="317.64,-484.9 310.86,-476.76 311.08,-487.35 317.64,-484.9"/>
</a>
</g>
</g>
<!-- Node3 -->
<g id="Node000003" class="node">
<title>Node3</title>
<g id="a_Node000003"><a xlink:href="class_a_k_p_t_in_game_mode.html#aa1438e6b6ee34fd792e397dedd825ff0" target="_top" xlink:title=" ">
<polygon fill="white" stroke="#666666" points="971,-582 805,-582 805,-550 971,-550 971,-582"/>
<text xml:space="preserve" text-anchor="start" x="813" y="-568.5" font-family="Helvetica,sans-Serif" font-size="10.00">AKPTInGameMode::AreAllPlayers</text>
<text xml:space="preserve" text-anchor="middle" x="888" y="-556.5" font-family="Helvetica,sans-Serif" font-size="10.00">Dead_Implementation</text>
</a>
</g>
</g>
<!-- Node2&#45;&gt;Node3 -->
<g id="edge3_Node000002_Node000003" class="edge">
<title>Node2&#45;&gt;Node3</title>
<g id="a_edge3_Node000002_Node000003"><a xlink:title=" ">
<path fill="none" stroke="#63b8ff" d="M292.73,-475.31C315.51,-491.6 362.9,-522.8 408.5,-536 538.09,-573.52 695.39,-575.56 793.37,-572"/>
<polygon fill="#63b8ff" stroke="#63b8ff" points="793.36,-575.5 803.21,-571.61 793.08,-568.51 793.36,-575.5"/>
</a>
</g>
</g>
<!-- Node5 -->
<g id="Node000005" class="node">
<title>Node5</title>
<g id="a_Node000005"><a xlink:href="class_a_k_p_t_in_game_mode.html#a410acd626df9144d7ebb63b535dbc37b" target="_top" xlink:title=" ">
<polygon fill="white" stroke="#666666" points="562.88,-418 414.12,-418 414.12,-386 562.88,-386 562.88,-418"/>
<text xml:space="preserve" text-anchor="start" x="422.12" y="-404.5" font-family="Helvetica,sans-Serif" font-size="10.00">AKPTInGameMode::Complete</text>
<text xml:space="preserve" text-anchor="middle" x="488.5" y="-392.5" font-family="Helvetica,sans-Serif" font-size="10.00">PhaseTransition</text>
</a>
</g>
</g>
<!-- Node2&#45;&gt;Node5 -->
<g id="edge5_Node000002_Node000005" class="edge">
<title>Node2&#45;&gt;Node5</title>
<g id="a_edge5_Node000002_Node000005"><a xlink:title=" ">
<path fill="none" stroke="#63b8ff" d="M313.33,-454.6C342.8,-445.7 386.04,-432.64 422.06,-421.76"/>
<polygon fill="#63b8ff" stroke="#63b8ff" points="422.98,-425.14 431.54,-418.9 420.95,-418.44 422.98,-425.14"/>
</a>
</g>
</g>
<!-- Node7 -->
<g id="Node000007" class="node">
<title>Node7</title>
<g id="a_Node000007"><a xlink:href="class_a_k_p_t_in_game_mode.html#a23300b5648c661902a39ec934b2de357" target="_top" xlink:title=" ">
<polygon fill="white" stroke="#666666" points="1351.75,-494 1185.75,-494 1185.75,-462 1351.75,-462 1351.75,-494"/>
<text xml:space="preserve" text-anchor="start" x="1193.75" y="-480.5" font-family="Helvetica,sans-Serif" font-size="10.00">AKPTInGameMode::SetAllPlayers</text>
<text xml:space="preserve" text-anchor="middle" x="1268.75" y="-468.5" font-family="Helvetica,sans-Serif" font-size="10.00">SkillEnabled</text>
</a>
</g>
</g>
<!-- Node2&#45;&gt;Node7 -->
<g id="edge41_Node000002_Node000007" class="edge">
<title>Node2&#45;&gt;Node7</title>
<g id="a_edge41_Node000002_Node000007"><a xlink:title=" ">
<path fill="none" stroke="#63b8ff" d="M372.95,-471.89C455.38,-477.32 578.44,-484 685.75,-484 685.75,-484 685.75,-484 889,-484 986.31,-484 1097.67,-482 1174.32,-480.3"/>
<polygon fill="#63b8ff" stroke="#63b8ff" points="1173.94,-483.81 1183.86,-480.09 1173.79,-476.81 1173.94,-483.81"/>
</a>
</g>
</g>
<!-- Node8 -->
<g id="Node000008" class="node">
<title>Node8</title>
<g id="a_Node000008"><a xlink:href="class_a_k_p_t_in_game_mode.html#a4d83e6405b91bdefb43aeac062b7b099" target="_top" xlink:title=" ">
<polygon fill="white" stroke="#666666" points="1537.25,-513 1387.75,-513 1387.75,-481 1537.25,-481 1537.25,-513"/>
<text xml:space="preserve" text-anchor="start" x="1395.75" y="-499.5" font-family="Helvetica,sans-Serif" font-size="10.00">AKPTInGameMode::SetPlayer</text>
<text xml:space="preserve" text-anchor="middle" x="1462.5" y="-487.5" font-family="Helvetica,sans-Serif" font-size="10.00">SkillEnabled</text>
</a>
</g>
</g>
<!-- Node2&#45;&gt;Node8 -->
<g id="edge42_Node000002_Node000008" class="edge">
<title>Node2&#45;&gt;Node8</title>
<g id="a_edge42_Node000002_Node000008"><a xlink:title=" ">
<path fill="none" stroke="#63b8ff" d="M323.74,-475.45C398.41,-491.91 553.08,-522 685.75,-522 685.75,-522 685.75,-522 1079.38,-522 1181.55,-522 1298.77,-512.99 1376.15,-505.79"/>
<polygon fill="#63b8ff" stroke="#63b8ff" points="1376.13,-509.3 1385.76,-504.88 1375.48,-502.33 1376.13,-509.3"/>
</a>
</g>
</g>
<!-- Node27 -->
<g id="Node000027" class="node">
<title>Node27</title>
<g id="a_Node000027"><a xlink:href="class_a_k_p_t_in_game_mode.html#aa8b93d6bdef1ef7d2ddd4d2018bc94cb" target="_top" xlink:title=" ">
<polygon fill="white" stroke="#666666" points="757.38,-456 616.12,-456 616.12,-424 757.38,-424 757.38,-456"/>
<text xml:space="preserve" text-anchor="start" x="624.12" y="-442.5" font-family="Helvetica,sans-Serif" font-size="10.00">AKPTInGameMode::Teleport</text>
<text xml:space="preserve" text-anchor="middle" x="686.75" y="-430.5" font-family="Helvetica,sans-Serif" font-size="10.00">PlayerToStart</text>
</a>
</g>
</g>
<!-- Node2&#45;&gt;Node27 -->
<g id="edge43_Node000002_Node000027" class="edge">
<title>Node2&#45;&gt;Node27</title>
<g id="a_edge43_Node000002_Node000027"><a xlink:title=" ">
<path fill="none" stroke="#63b8ff" d="M372.99,-459.22C442.99,-454.92 537.57,-449.1 604.33,-445"/>
<polygon fill="#63b8ff" stroke="#63b8ff" points="604.35,-448.51 614.12,-444.4 603.92,-441.52 604.35,-448.51"/>
</a>
</g>
</g>
<!-- Node28 -->
<g id="Node000028" class="node">
<title>Node28</title>
<g id="a_Node000028"><a xlink:href="class_a_k_p_t_in_game_mode.html#a334c0aa77939b7960e58785eff22e00e" target="_top" xlink:title=" ">
<polygon fill="white" stroke="#666666" points="568.5,-368 408.5,-368 408.5,-336 568.5,-336 568.5,-368"/>
<text xml:space="preserve" text-anchor="start" x="416.5" y="-354.5" font-family="Helvetica,sans-Serif" font-size="10.00">AKPTInGameMode::HandleBoss</text>
<text xml:space="preserve" text-anchor="middle" x="488.5" y="-342.5" font-family="Helvetica,sans-Serif" font-size="10.00">Defeated</text>
</a>
</g>
</g>
<!-- Node2&#45;&gt;Node28 -->
<g id="edge37_Node000002_Node000028" class="edge">
<title>Node2&#45;&gt;Node28</title>
<g id="a_edge37_Node000002_Node000028"><a xlink:title=" ">
<path fill="none" stroke="#63b8ff" d="M291.36,-454.68C313.63,-436.7 362.24,-399.43 408.5,-377 411.74,-375.43 415.09,-373.93 418.52,-372.5"/>
<polygon fill="#63b8ff" stroke="#63b8ff" points="419.49,-375.88 427.53,-368.97 416.94,-369.36 419.49,-375.88"/>
</a>
</g>
</g>
<!-- Node29 -->
<g id="Node000029" class="node">
<title>Node29</title>
<g id="a_Node000029"><a xlink:href="class_a_k_p_t_in_game_mode.html#a0368a48967da2d4e05b79760d325efd2" target="_top" xlink:title=" ">
<polygon fill="white" stroke="#666666" points="568.5,-670 408.5,-670 408.5,-638 568.5,-638 568.5,-670"/>
<text xml:space="preserve" text-anchor="start" x="416.5" y="-656.5" font-family="Helvetica,sans-Serif" font-size="10.00">AKPTInGameMode::HandleBoss</text>
<text xml:space="preserve" text-anchor="middle" x="488.5" y="-644.5" font-family="Helvetica,sans-Serif" font-size="10.00">HPChanged</text>
</a>
</g>
</g>
<!-- Node2&#45;&gt;Node29 -->
<g id="edge38_Node000002_Node000029" class="edge">
<title>Node2&#45;&gt;Node29</title>
<g id="a_edge38_Node000002_Node000029"><a xlink:title=" ">
<path fill="none" stroke="#63b8ff" d="M284.07,-475.2C299.18,-503.87 346.08,-585.91 408.5,-629 410.28,-630.23 412.11,-631.39 414,-632.51"/>
<polygon fill="#63b8ff" stroke="#63b8ff" points="411.97,-635.39 422.46,-636.92 415.21,-629.19 411.97,-635.39"/>
</a>
</g>
</g>
<!-- Node30 -->
<g id="Node000030" class="node">
<title>Node30</title>
<g id="a_Node000030"><a xlink:href="class_a_k_p_t_in_game_mode.html#a97f3e2361fae3fa048ea5c3c5f5c41b8" target="_top" xlink:title=" ">
<polygon fill="white" stroke="#666666" points="568.5,-620 408.5,-620 408.5,-588 568.5,-588 568.5,-620"/>
<text xml:space="preserve" text-anchor="start" x="416.5" y="-606.5" font-family="Helvetica,sans-Serif" font-size="10.00">AKPTInGameMode::HandleBoss</text>
<text xml:space="preserve" text-anchor="middle" x="488.5" y="-594.5" font-family="Helvetica,sans-Serif" font-size="10.00">Spawned</text>
</a>
</g>
</g>
<!-- Node2&#45;&gt;Node30 -->
<g id="edge39_Node000002_Node000030" class="edge">
<title>Node2&#45;&gt;Node30</title>
<g id="a_edge39_Node000002_Node000030"><a xlink:title=" ">
<path fill="none" stroke="#63b8ff" d="M288.71,-475.35C309.22,-496.43 358.81,-544.81 408.5,-574 414.09,-577.28 420.11,-580.33 426.24,-583.12"/>
<polygon fill="#63b8ff" stroke="#63b8ff" points="424.64,-586.24 435.21,-586.97 427.4,-579.81 424.64,-586.24"/>
</a>
</g>
</g>
<!-- Node2&#45;&gt;Node31 -->
<g id="edge40_Node000002_Node000031" class="edge">
<title>Node2&#45;&gt;Node31</title>
<g id="a_edge40_Node000002_Node000031"><a xlink:title=" ">
<path fill="none" stroke="#63b8ff" d="M285.72,-454.65C303.13,-429.14 351.74,-362.71 408.5,-327 410.5,-325.74 412.56,-324.54 414.68,-323.4"/>
<polygon fill="#63b8ff" stroke="#63b8ff" points="416.06,-326.62 423.54,-319.12 413.01,-320.32 416.06,-326.62"/>
</a>
</g>
</g>
<!-- Node4 -->
<g id="Node000004" class="node">
<title>Node4</title>
<g id="a_Node000004"><a xlink:href="class_a_k_p_t_player_state.html#a3f0fd46533843d108f4569bd68d9b233" target="_top" xlink:title=" ">
<polygon fill="white" stroke="#666666" points="1715.25,-513 1573.25,-513 1573.25,-481 1715.25,-481 1715.25,-513"/>
<text xml:space="preserve" text-anchor="start" x="1581.25" y="-499.5" font-family="Helvetica,sans-Serif" font-size="10.00">AKPTPlayerState::GetAbility</text>
<text xml:space="preserve" text-anchor="middle" x="1644.25" y="-487.5" font-family="Helvetica,sans-Serif" font-size="10.00">SystemComponent</text>
</a>
</g>
</g>
<!-- Node3&#45;&gt;Node4 -->
<g id="edge4_Node000003_Node000004" class="edge">
<title>Node3&#45;&gt;Node4</title>
<g id="a_edge4_Node000003_Node000004"><a xlink:title=" ">
<path fill="none" stroke="#63b8ff" d="M971.36,-564.92C1094.97,-562.28 1335.48,-553.21 1537.25,-522 1547.79,-520.37 1558.83,-518.24 1569.64,-515.92"/>
<polygon fill="#63b8ff" stroke="#63b8ff" points="1570.31,-519.36 1579.31,-513.77 1568.79,-512.52 1570.31,-519.36"/>
</a>
</g>
</g>
<!-- Node6 -->
<g id="Node000006" class="node">
<title>Node6</title>
<g id="a_Node000006"><a xlink:href="class_a_k_p_t_in_game_mode.html#a84edc1df98161132b7b803669c9299a0" target="_top" xlink:title="야간 페이즈를 시작하기 위한 준비 및 전환을 시작합니다.">
<polygon fill="white" stroke="#666666" points="764.12,-406 609.38,-406 609.38,-374 764.12,-374 764.12,-406"/>
<text xml:space="preserve" text-anchor="start" x="617.38" y="-392.5" font-family="Helvetica,sans-Serif" font-size="10.00">AKPTInGameMode::BeginNight</text>
<text xml:space="preserve" text-anchor="middle" x="686.75" y="-380.5" font-family="Helvetica,sans-Serif" font-size="10.00">PhaseLogic</text>
</a>
</g>
</g>
<!-- Node5&#45;&gt;Node6 -->
<g id="edge6_Node000005_Node000006" class="edge">
<title>Node5&#45;&gt;Node6</title>
<g id="a_edge6_Node000005_Node000006"><a xlink:title=" ">
<path fill="none" stroke="#63b8ff" d="M563.13,-397.5C574.39,-396.81 586.11,-396.09 597.64,-395.39"/>
<polygon fill="#63b8ff" stroke="#63b8ff" points="597.8,-398.88 607.57,-394.78 597.38,-391.9 597.8,-398.88"/>
</a>
</g>
</g>
<!-- Node17 -->
<g id="Node000017" class="node">
<title>Node17</title>
<g id="a_Node000017"><a xlink:href="class_a_k_p_t_in_game_mode.html#a2a532fe05b539d72cc039305ee771c40" target="_top" xlink:title=" ">
<polygon fill="white" stroke="#666666" points="769,-132 604.5,-132 604.5,-100 769,-100 769,-132"/>
<text xml:space="preserve" text-anchor="start" x="612.5" y="-118.5" font-family="Helvetica,sans-Serif" font-size="10.00">AKPTInGameMode::HandleMatch</text>
<text xml:space="preserve" text-anchor="middle" x="686.75" y="-106.5" font-family="Helvetica,sans-Serif" font-size="10.00">HasEnded</text>
</a>
</g>
</g>
<!-- Node5&#45;&gt;Node17 -->
<g id="edge22_Node000005_Node000017" class="edge">
<title>Node5&#45;&gt;Node17</title>
<g id="a_edge22_Node000005_Node000017"><a xlink:title=" ">
<path fill="none" stroke="#63b8ff" d="M558.94,-385.62C562.46,-383.13 565.69,-380.28 568.5,-377 637.49,-296.39 535.19,-221.34 604.5,-141 604.85,-140.59 605.21,-140.2 605.57,-139.8"/>
<polygon fill="#63b8ff" stroke="#63b8ff" points="607.61,-142.67 612.85,-133.46 603.01,-137.39 607.61,-142.67"/>
</a>
</g>
</g>
<!-- Node19 -->
<g id="Node000019" class="node">
<title>Node19</title>
<g id="a_Node000019"><a xlink:href="class_a_k_p_t_in_game_mode.html#a9f93e98963e67a4aec973d492c0b437a" target="_top" xlink:title="새 라운드를 시작합니다.">
<polygon fill="white" stroke="#666666" points="764.88,-356 608.62,-356 608.62,-336 764.88,-336 764.88,-356"/>
<text xml:space="preserve" text-anchor="middle" x="686.75" y="-342.5" font-family="Helvetica,sans-Serif" font-size="10.00">AKPTInGameMode::StartRound</text>
</a>
</g>
</g>
<!-- Node5&#45;&gt;Node19 -->
<g id="edge24_Node000005_Node000019" class="edge">
<title>Node5&#45;&gt;Node19</title>
<g id="a_edge24_Node000005_Node000019"><a xlink:title=" ">
<path fill="none" stroke="#63b8ff" d="M541.8,-385.57C550.72,-382.74 559.88,-379.8 568.5,-377 584.54,-371.79 588.27,-369.59 604.5,-365 611.71,-362.96 619.33,-360.97 626.89,-359.09"/>
<polygon fill="#63b8ff" stroke="#63b8ff" points="627.51,-362.54 636.4,-356.78 625.86,-355.74 627.51,-362.54"/>
</a>
</g>
</g>
<!-- Node5&#45;&gt;Node27 -->
<g id="edge36_Node000005_Node000027" class="edge">
<title>Node5&#45;&gt;Node27</title>
<g id="a_edge36_Node000005_Node000027"><a xlink:title=" ">
<path fill="none" stroke="#63b8ff" d="M563.13,-416.26C576.78,-418.9 591.1,-421.67 604.95,-424.35"/>
<polygon fill="#63b8ff" stroke="#63b8ff" points="603.96,-427.73 614.44,-426.19 605.29,-420.85 603.96,-427.73"/>
</a>
</g>
</g>
<!-- Node6&#45;&gt;Node7 -->
<g id="edge7_Node000006_Node000007" class="edge">
<title>Node6&#45;&gt;Node7</title>
<g id="a_edge7_Node000006_Node000007"><a xlink:title=" ">
<path fill="none" stroke="#63b8ff" d="M764.47,-401.64C870.24,-417.69 1060.67,-446.58 1174.52,-463.86"/>
<polygon fill="#63b8ff" stroke="#63b8ff" points="1173.73,-467.27 1184.14,-465.31 1174.78,-460.35 1173.73,-467.27"/>
</a>
</g>
</g>
<!-- Node9 -->
<g id="Node000009" class="node">
<title>Node9</title>
<g id="a_Node000009"><a xlink:href="class_a_k_p_t_in_game_mode.html#acd0b193dd9ce700d2a4cb3953565584c" target="_top" xlink:title="야간 페이즈의 핵심 로직을 실행합니다.">
<polygon fill="white" stroke="#666666" points="963.5,-274 812.5,-274 812.5,-242 963.5,-242 963.5,-274"/>
<text xml:space="preserve" text-anchor="start" x="820.5" y="-260.5" font-family="Helvetica,sans-Serif" font-size="10.00">AKPTInGameMode::StartNight</text>
<text xml:space="preserve" text-anchor="middle" x="888" y="-248.5" font-family="Helvetica,sans-Serif" font-size="10.00">Phase</text>
</a>
</g>
</g>
<!-- Node6&#45;&gt;Node9 -->
<g id="edge10_Node000006_Node000009" class="edge">
<title>Node6&#45;&gt;Node9</title>
<g id="a_edge10_Node000006_Node000009"><a xlink:title=" ">
<path fill="none" stroke="#63b8ff" d="M753.66,-373.54C759.05,-371.07 764.24,-368.24 769,-365 790.18,-350.6 786.64,-337.86 805,-320 819.62,-305.78 837.53,-291.9 852.87,-280.89"/>
<polygon fill="#63b8ff" stroke="#63b8ff" points="854.65,-283.92 860.81,-275.3 850.62,-278.2 854.65,-283.92"/>
</a>
</g>
</g>
<!-- Node7&#45;&gt;Node8 -->
<g id="edge8_Node000007_Node000008" class="edge">
<title>Node7&#45;&gt;Node8</title>
<g id="a_edge8_Node000007_Node000008"><a xlink:title=" ">
<path fill="none" stroke="#63b8ff" d="M1352.18,-486.17C1360.02,-486.95 1367.99,-487.73 1375.86,-488.51"/>
<polygon fill="#63b8ff" stroke="#63b8ff" points="1375.5,-492 1385.8,-489.5 1376.19,-485.03 1375.5,-492"/>
</a>
</g>
</g>
<!-- Node8&#45;&gt;Node4 -->
<g id="edge9_Node000008_Node000004" class="edge">
<title>Node8&#45;&gt;Node4</title>
<g id="a_edge9_Node000008_Node000004"><a xlink:title=" ">
<path fill="none" stroke="#63b8ff" d="M1537.65,-497C1545.6,-497 1553.73,-497 1561.76,-497"/>
<polygon fill="#63b8ff" stroke="#63b8ff" points="1561.51,-500.5 1571.51,-497 1561.51,-493.5 1561.51,-500.5"/>
</a>
</g>
</g>
<!-- Node9&#45;&gt;Node1 -->
<g id="edge11_Node000009_Node000001" class="edge">
<title>Node9&#45;&gt;Node1</title>
<g id="a_edge11_Node000009_Node000001"><a xlink:title=" ">
<path fill="none" stroke="#63b8ff" d="M812.15,-260.85C683.16,-264.67 410.89,-267.97 183.25,-239 171.68,-237.53 159.55,-235.36 147.75,-232.92"/>
<polygon fill="#63b8ff" stroke="#63b8ff" points="148.56,-229.51 138.05,-230.81 147.08,-236.35 148.56,-229.51"/>
</a>
</g>
</g>
<!-- Node10 -->
<g id="Node000010" class="node">
<title>Node10</title>
<g id="a_Node000010"><a xlink:href="class_u_stage_manager_subsystem.html#afc484834b3d364a92817a4e6475bc810" target="_top" xlink:title=" ">
<polygon fill="white" stroke="#666666" points="1146.38,-274 1010.38,-274 1010.38,-242 1146.38,-242 1146.38,-274"/>
<text xml:space="preserve" text-anchor="start" x="1018.38" y="-260.5" font-family="Helvetica,sans-Serif" font-size="10.00">UStageManagerSubsystem</text>
<text xml:space="preserve" text-anchor="middle" x="1078.38" y="-248.5" font-family="Helvetica,sans-Serif" font-size="10.00">::GetStageDuration</text>
</a>
</g>
</g>
<!-- Node9&#45;&gt;Node10 -->
<g id="edge12_Node000009_Node000010" class="edge">
<title>Node9&#45;&gt;Node10</title>
<g id="a_edge12_Node000009_Node000010"><a xlink:title=" ">
<path fill="none" stroke="#63b8ff" d="M963.99,-258C975.38,-258 987.16,-258 998.63,-258"/>
<polygon fill="#63b8ff" stroke="#63b8ff" points="998.45,-261.5 1008.45,-258 998.45,-254.5 998.45,-261.5"/>
</a>
</g>
</g>
<!-- Node11 -->
<g id="Node000011" class="node">
<title>Node11</title>
<g id="a_Node000011"><a xlink:href="class_u_stage_manager_subsystem.html#ad0af6446e32468e50889d617d579207f" target="_top" xlink:title=" ">
<polygon fill="white" stroke="#666666" points="1146.38,-114 1010.38,-114 1010.38,-82 1146.38,-82 1146.38,-114"/>
<text xml:space="preserve" text-anchor="start" x="1018.38" y="-100.5" font-family="Helvetica,sans-Serif" font-size="10.00">UStageManagerSubsystem</text>
<text xml:space="preserve" text-anchor="middle" x="1078.38" y="-88.5" font-family="Helvetica,sans-Serif" font-size="10.00">::StartStage</text>
</a>
</g>
</g>
<!-- Node9&#45;&gt;Node11 -->
<g id="edge13_Node000009_Node000011" class="edge">
<title>Node9&#45;&gt;Node11</title>
<g id="a_edge13_Node000009_Node000011"><a xlink:title=" ">
<path fill="none" stroke="#63b8ff" d="M908.1,-241.78C941.52,-213.39 1010.75,-154.59 1049.52,-121.66"/>
<polygon fill="#63b8ff" stroke="#63b8ff" points="1051.72,-124.39 1057.07,-115.24 1047.18,-119.05 1051.72,-124.39"/>
</a>
</g>
</g>
<!-- Node12 -->
<g id="Node000012" class="node">
<title>Node12</title>
<g id="a_Node000012"><a xlink:href="class_u_stage_manager_subsystem.html#a10be946619661f166108878489139489" target="_top" xlink:title=" ">
<polygon fill="white" stroke="#666666" points="1336.75,-114 1200.75,-114 1200.75,-82 1336.75,-82 1336.75,-114"/>
<text xml:space="preserve" text-anchor="start" x="1208.75" y="-100.5" font-family="Helvetica,sans-Serif" font-size="10.00">UStageManagerSubsystem</text>
<text xml:space="preserve" text-anchor="middle" x="1268.75" y="-88.5" font-family="Helvetica,sans-Serif" font-size="10.00">::SetStageDataToSpawner</text>
</a>
</g>
</g>
<!-- Node11&#45;&gt;Node12 -->
<g id="edge14_Node000011_Node000012" class="edge">
<title>Node11&#45;&gt;Node12</title>
<g id="a_edge14_Node000011_Node000012"><a xlink:title=" ">
<path fill="none" stroke="#63b8ff" d="M1146.85,-98C1160.6,-98 1175.17,-98 1189.26,-98"/>
<polygon fill="#63b8ff" stroke="#63b8ff" points="1188.92,-101.5 1198.92,-98 1188.92,-94.5 1188.92,-101.5"/>
</a>
</g>
</g>
<!-- Node16 -->
<g id="Node000016" class="node">
<title>Node16</title>
<g id="a_Node000016"><a xlink:href="class_u_stage_manager_subsystem.html#a8a5a0fc89c9effbbb84cb8ea7729d1bc" target="_top" xlink:title=" ">
<polygon fill="white" stroke="#666666" points="1530.5,-32 1394.5,-32 1394.5,0 1530.5,0 1530.5,-32"/>
<text xml:space="preserve" text-anchor="start" x="1402.5" y="-18.5" font-family="Helvetica,sans-Serif" font-size="10.00">UStageManagerSubsystem</text>
<text xml:space="preserve" text-anchor="middle" x="1462.5" y="-6.5" font-family="Helvetica,sans-Serif" font-size="10.00">::StartPhase</text>
</a>
</g>
</g>
<!-- Node11&#45;&gt;Node16 -->
<g id="edge21_Node000011_Node000016" class="edge">
<title>Node11&#45;&gt;Node16</title>
<g id="a_edge21_Node000011_Node000016"><a xlink:title=" ">
<path fill="none" stroke="#63b8ff" d="M1146.84,-81.86C1159.74,-78.85 1173.15,-75.78 1185.75,-73 1252.18,-58.33 1327.87,-42.77 1383.13,-31.61"/>
<polygon fill="#63b8ff" stroke="#63b8ff" points="1383.65,-35.08 1392.76,-29.67 1382.27,-28.22 1383.65,-35.08"/>
</a>
</g>
</g>
<!-- Node12&#45;&gt;Node12 -->
<g id="edge19_Node000012_Node000012" class="edge">
<title>Node12&#45;&gt;Node12</title>
<g id="a_edge19_Node000012_Node000012"><a xlink:title=" ">
<path fill="none" stroke="#63b8ff" d="M1234.76,-114.44C1228.42,-123.58 1239.75,-132 1268.75,-132 1284.61,-132 1295.19,-129.48 1300.48,-125.71"/>
<polygon fill="#63b8ff" stroke="#63b8ff" points="1303.9,-126.42 1302.44,-115.93 1297.04,-125.04 1303.9,-126.42"/>
</a>
</g>
</g>
<!-- Node13 -->
<g id="Node000013" class="node">
<title>Node13</title>
<g id="a_Node000013"><a xlink:href="class_u_stage_manager_subsystem.html#a8386ea09d547e37b0110a5f62dd2fb9d" target="_top" xlink:title=" ">
<polygon fill="white" stroke="#666666" points="1530.5,-170 1394.5,-170 1394.5,-138 1530.5,-138 1530.5,-170"/>
<text xml:space="preserve" text-anchor="start" x="1402.5" y="-156.5" font-family="Helvetica,sans-Serif" font-size="10.00">UStageManagerSubsystem</text>
<text xml:space="preserve" text-anchor="middle" x="1462.5" y="-144.5" font-family="Helvetica,sans-Serif" font-size="10.00">::GetCurrentStageData</text>
</a>
</g>
</g>
<!-- Node12&#45;&gt;Node13 -->
<g id="edge15_Node000012_Node000013" class="edge">
<title>Node12&#45;&gt;Node13</title>
<g id="a_edge15_Node000012_Node000013"><a xlink:title=" ">
<path fill="none" stroke="#63b8ff" d="M1326.24,-114.5C1347.51,-120.71 1371.9,-127.83 1394.06,-134.3"/>
<polygon fill="#63b8ff" stroke="#63b8ff" points="1393.05,-137.65 1403.63,-137.1 1395.01,-130.93 1393.05,-137.65"/>
</a>
</g>
</g>
<!-- Node14 -->
<g id="Node000014" class="node">
<title>Node14</title>
<g id="a_Node000014"><a xlink:href="class_u_stage_manager_subsystem.html#a1b506743975f481d0cd15a1153f0820d" target="_top" xlink:title=" ">
<polygon fill="white" stroke="#666666" points="1712.25,-104 1576.25,-104 1576.25,-72 1712.25,-72 1712.25,-104"/>
<text xml:space="preserve" text-anchor="start" x="1584.25" y="-90.5" font-family="Helvetica,sans-Serif" font-size="10.00">UStageManagerSubsystem</text>
<text xml:space="preserve" text-anchor="middle" x="1644.25" y="-78.5" font-family="Helvetica,sans-Serif" font-size="10.00">::GetMaxRoundCount</text>
</a>
</g>
</g>
<!-- Node12&#45;&gt;Node14 -->
<g id="edge16_Node000012_Node000014" class="edge">
<title>Node12&#45;&gt;Node14</title>
<g id="a_edge16_Node000012_Node000014"><a xlink:title=" ">
<path fill="none" stroke="#63b8ff" d="M1337.09,-96.28C1391.18,-94.88 1469.1,-92.86 1537.25,-91 1546.15,-90.76 1555.46,-90.5 1564.72,-90.24"/>
<polygon fill="#63b8ff" stroke="#63b8ff" points="1564.55,-93.75 1574.45,-89.97 1564.35,-86.75 1564.55,-93.75"/>
</a>
</g>
</g>
<!-- Node15 -->
<g id="Node000015" class="node">
<title>Node15</title>
<g id="a_Node000015"><a xlink:href="class_u_stage_manager_subsystem.html#acee67f86b9c712f48829d333b472a58a" target="_top" xlink:title=" ">
<polygon fill="white" stroke="#666666" points="1530.5,-82 1394.5,-82 1394.5,-50 1530.5,-50 1530.5,-82"/>
<text xml:space="preserve" text-anchor="start" x="1402.5" y="-68.5" font-family="Helvetica,sans-Serif" font-size="10.00">UStageManagerSubsystem</text>
<text xml:space="preserve" text-anchor="middle" x="1462.5" y="-56.5" font-family="Helvetica,sans-Serif" font-size="10.00">::IsMaxRound</text>
</a>
</g>
</g>
<!-- Node12&#45;&gt;Node15 -->
<g id="edge17_Node000012_Node000015" class="edge">
<title>Node12&#45;&gt;Node15</title>
<g id="a_edge17_Node000012_Node000015"><a xlink:title=" ">
<path fill="none" stroke="#63b8ff" d="M1337.08,-86.76C1351.93,-84.28 1367.79,-81.64 1383.03,-79.09"/>
<polygon fill="#63b8ff" stroke="#63b8ff" points="1383.22,-82.61 1392.51,-77.51 1382.07,-75.71 1383.22,-82.61"/>
</a>
</g>
</g>
<!-- Node12&#45;&gt;Node16 -->
<g id="edge20_Node000012_Node000016" class="edge">
<title>Node12&#45;&gt;Node16</title>
<g id="a_edge20_Node000012_Node000016"><a xlink:title=" ">
<path fill="none" stroke="#63b8ff" d="M1300.83,-81.69C1324.35,-69.66 1357.64,-53.32 1387.75,-41 1391.61,-39.42 1395.6,-37.86 1399.65,-36.34"/>
<polygon fill="#63b8ff" stroke="#63b8ff" points="1400.8,-39.64 1408.99,-32.92 1398.4,-33.07 1400.8,-39.64"/>
</a>
</g>
</g>
<!-- Node15&#45;&gt;Node14 -->
<g id="edge18_Node000015_Node000014" class="edge">
<title>Node15&#45;&gt;Node14</title>
<g id="a_edge18_Node000015_Node000014"><a xlink:title=" ">
<path fill="none" stroke="#63b8ff" d="M1530.94,-74.25C1542,-75.61 1553.54,-77.02 1564.84,-78.4"/>
<polygon fill="#63b8ff" stroke="#63b8ff" points="1564.17,-81.85 1574.52,-79.59 1565.02,-74.9 1564.17,-81.85"/>
</a>
</g>
</g>
<!-- Node18 -->
<g id="Node000018" class="node">
<title>Node18</title>
<g id="a_Node000018"><a xlink:href="class_a_k_p_t_in_game_mode.html#aa81ccab3f271d21f9a65bb8f42eb6f70" target="_top" xlink:title=" ">
<polygon fill="white" stroke="#666666" points="961.25,-132 814.75,-132 814.75,-100 961.25,-100 961.25,-132"/>
<text xml:space="preserve" text-anchor="start" x="822.75" y="-118.5" font-family="Helvetica,sans-Serif" font-size="10.00">AKPTInGameMode::ReturnTo</text>
<text xml:space="preserve" text-anchor="middle" x="888" y="-106.5" font-family="Helvetica,sans-Serif" font-size="10.00">Lobby</text>
</a>
</g>
</g>
<!-- Node17&#45;&gt;Node18 -->
<g id="edge23_Node000017_Node000018" class="edge">
<title>Node17&#45;&gt;Node18</title>
<g id="a_edge23_Node000017_Node000018"><a xlink:title=" ">
<path fill="none" stroke="#63b8ff" d="M769.37,-116C780.45,-116 791.85,-116 802.98,-116"/>
<polygon fill="#63b8ff" stroke="#63b8ff" points="802.94,-119.5 812.94,-116 802.94,-112.5 802.94,-119.5"/>
</a>
</g>
</g>
<!-- Node20 -->
<g id="Node000020" class="node">
<title>Node20</title>
<g id="a_Node000020"><a xlink:href="class_a_k_p_t_in_game_mode.html#aa4f70056d702908efb82a3a085b2d832" target="_top" xlink:title="주간 페이즈의 시작을 처리합니다.">
<polygon fill="white" stroke="#666666" points="965.75,-361 810.25,-361 810.25,-329 965.75,-329 965.75,-361"/>
<text xml:space="preserve" text-anchor="start" x="818.25" y="-347.5" font-family="Helvetica,sans-Serif" font-size="10.00">AKPTInGameMode::HandleDay</text>
<text xml:space="preserve" text-anchor="middle" x="888" y="-335.5" font-family="Helvetica,sans-Serif" font-size="10.00">Phase</text>
</a>
</g>
</g>
<!-- Node19&#45;&gt;Node20 -->
<g id="edge25_Node000019_Node000020" class="edge">
<title>Node19&#45;&gt;Node20</title>
<g id="a_edge25_Node000019_Node000020"><a xlink:title=" ">
<path fill="none" stroke="#63b8ff" d="M765.36,-345.61C776.22,-345.56 787.46,-345.5 798.51,-345.44"/>
<polygon fill="#63b8ff" stroke="#63b8ff" points="798.44,-348.94 808.42,-345.39 798.4,-341.94 798.44,-348.94"/>
</a>
</g>
</g>
<!-- Node21 -->
<g id="Node000021" class="node">
<title>Node21</title>
<g id="a_Node000021"><a xlink:href="class_a_k_p_t_in_game_mode.html#ad299e138b605334f03841982928f4e6e" target="_top" xlink:title="특정 플레이어를 현재 게임 페이즈에 맞게 초기화합니다.">
<polygon fill="white" stroke="#666666" points="1149.75,-358 1007,-358 1007,-326 1149.75,-326 1149.75,-358"/>
<text xml:space="preserve" text-anchor="start" x="1015" y="-344.5" font-family="Helvetica,sans-Serif" font-size="10.00">AKPTInGameMode::Initialize</text>
<text xml:space="preserve" text-anchor="middle" x="1078.38" y="-332.5" font-family="Helvetica,sans-Serif" font-size="10.00">PlayerForCurrentPhase</text>
</a>
</g>
</g>
<!-- Node20&#45;&gt;Node21 -->
<g id="edge26_Node000020_Node000021" class="edge">
<title>Node20&#45;&gt;Node21</title>
<g id="a_edge26_Node000020_Node000021"><a xlink:title=" ">
<path fill="none" stroke="#63b8ff" d="M966.16,-343.77C975.8,-343.62 985.69,-343.46 995.4,-343.31"/>
<polygon fill="#63b8ff" stroke="#63b8ff" points="995.23,-346.81 1005.18,-343.15 995.12,-339.81 995.23,-346.81"/>
</a>
</g>
</g>
<!-- Node21&#45;&gt;Node4 -->
<g id="edge27_Node000021_Node000004" class="edge">
<title>Node21&#45;&gt;Node4</title>
<g id="a_edge27_Node000021_Node000004"><a xlink:title=" ">
<path fill="none" stroke="#63b8ff" d="M1095.61,-325.57C1115.06,-307.19 1149.56,-278.47 1185.75,-267 1256.08,-244.7 1282.05,-242.81 1351.75,-267 1471.29,-308.48 1578.89,-421.56 1622.58,-472.06"/>
<polygon fill="#63b8ff" stroke="#63b8ff" points="1619.84,-474.25 1629,-479.58 1625.17,-469.71 1619.84,-474.25"/>
</a>
</g>
</g>
<!-- Node21&#45;&gt;Node7 -->
<g id="edge33_Node000021_Node000007" class="edge">
<title>Node21&#45;&gt;Node7</title>
<g id="a_edge33_Node000021_Node000007"><a xlink:title=" ">
<path fill="none" stroke="#63b8ff" d="M1123.69,-358.4C1133.09,-363.34 1142.39,-369.5 1149.75,-377 1175.92,-403.68 1157.46,-428.58 1185.75,-453 1186.71,-453.83 1187.69,-454.63 1188.7,-455.4"/>
<polygon fill="#63b8ff" stroke="#63b8ff" points="1186.78,-458.33 1197.08,-460.84 1190.6,-452.46 1186.78,-458.33"/>
</a>
</g>
</g>
<!-- Node22 -->
<g id="Node000022" class="node">
<title>Node22</title>
<g id="a_Node000022"><a xlink:href="class_a_k_p_t_player_state.html#a6989c3ebb86791d3a7265d8f5dc90b93" target="_top" xlink:title=" ">
<polygon fill="white" stroke="#666666" points="1343.12,-426 1194.38,-426 1194.38,-394 1343.12,-394 1343.12,-426"/>
<text xml:space="preserve" text-anchor="start" x="1202.38" y="-412.5" font-family="Helvetica,sans-Serif" font-size="10.00">AKPTPlayerState::GetReward</text>
<text xml:space="preserve" text-anchor="middle" x="1268.75" y="-400.5" font-family="Helvetica,sans-Serif" font-size="10.00">StateComponent</text>
</a>
</g>
</g>
<!-- Node21&#45;&gt;Node22 -->
<g id="edge28_Node000021_Node000022" class="edge">
<title>Node21&#45;&gt;Node22</title>
<g id="a_edge28_Node000021_Node000022"><a xlink:title=" ">
<path fill="none" stroke="#63b8ff" d="M1117.47,-358.35C1137.61,-366.75 1162.84,-376.89 1185.75,-385 1190.67,-386.74 1195.77,-388.47 1200.92,-390.16"/>
<polygon fill="#63b8ff" stroke="#63b8ff" points="1199.48,-393.38 1210.07,-393.11 1201.63,-386.71 1199.48,-393.38"/>
</a>
</g>
</g>
<!-- Node23 -->
<g id="Node000023" class="node">
<title>Node23</title>
<g id="a_Node000023"><a xlink:href="class_u_player_reward_state_component.html#a13152160f317ee674b6c1dde2d1bb0e7" target="_top" xlink:title="처리해야 할 보상이 남아있는지 확인합니다.">
<polygon fill="white" stroke="#666666" points="1348,-358 1189.5,-358 1189.5,-326 1348,-326 1348,-358"/>
<text xml:space="preserve" text-anchor="start" x="1197.5" y="-344.5" font-family="Helvetica,sans-Serif" font-size="10.00">UPlayerRewardStateComponent</text>
<text xml:space="preserve" text-anchor="middle" x="1268.75" y="-332.5" font-family="Helvetica,sans-Serif" font-size="10.00">::HasPendingRewards</text>
</a>
</g>
</g>
<!-- Node21&#45;&gt;Node23 -->
<g id="edge30_Node000021_Node000023" class="edge">
<title>Node21&#45;&gt;Node23</title>
<g id="a_edge30_Node000021_Node000023"><a xlink:title=" ">
<path fill="none" stroke="#63b8ff" d="M1150.05,-342C1159.11,-342 1168.47,-342 1177.78,-342"/>
<polygon fill="#63b8ff" stroke="#63b8ff" points="1177.57,-345.5 1187.57,-342 1177.57,-338.5 1177.57,-345.5"/>
</a>
</g>
</g>
<!-- Node24 -->
<g id="Node000024" class="node">
<title>Node24</title>
<g id="a_Node000024"><a xlink:href="class_a_k_p_t_in_game_mode.html#a1a9ee04a849c50e213574d166ea3eda5" target="_top" xlink:title="특정 플레이어에게 카드 선택 기회를 제공합니다.">
<polygon fill="white" stroke="#666666" points="1336.75,-308 1200.75,-308 1200.75,-276 1336.75,-276 1336.75,-308"/>
<text xml:space="preserve" text-anchor="start" x="1208.75" y="-294.5" font-family="Helvetica,sans-Serif" font-size="10.00">AKPTInGameMode::Initiate</text>
<text xml:space="preserve" text-anchor="middle" x="1268.75" y="-282.5" font-family="Helvetica,sans-Serif" font-size="10.00">RewardPhaseForPlayer</text>
</a>
</g>
</g>
<!-- Node21&#45;&gt;Node24 -->
<g id="edge32_Node000021_Node000024" class="edge">
<title>Node21&#45;&gt;Node24</title>
<g id="a_edge32_Node000021_Node000024"><a xlink:title=" ">
<path fill="none" stroke="#63b8ff" d="M1141.32,-325.56C1158.38,-321.03 1177.04,-316.08 1194.66,-311.4"/>
<polygon fill="#63b8ff" stroke="#63b8ff" points="1195.54,-314.79 1204.31,-308.84 1193.74,-308.02 1195.54,-314.79"/>
</a>
</g>
</g>
<!-- Node25 -->
<g id="Node000025" class="node">
<title>Node25</title>
<g id="a_Node000025"><a xlink:href="class_a_k_p_t_player_state.html#ae76783471e033ac0ece5ebe988856b1b" target="_top" xlink:title="업그레이드 선택 기회를 추가합니다.">
<polygon fill="white" stroke="#666666" points="1345,-220 1192.5,-220 1192.5,-188 1345,-188 1345,-220"/>
<text xml:space="preserve" text-anchor="start" x="1200.5" y="-206.5" font-family="Helvetica,sans-Serif" font-size="10.00">AKPTPlayerState::SetPersonal</text>
<text xml:space="preserve" text-anchor="middle" x="1268.75" y="-194.5" font-family="Helvetica,sans-Serif" font-size="10.00">StateTag</text>
</a>
</g>
</g>
<!-- Node21&#45;&gt;Node25 -->
<g id="edge34_Node000021_Node000025" class="edge">
<title>Node21&#45;&gt;Node25</title>
<g id="a_edge34_Node000021_Node000025"><a xlink:title=" ">
<path fill="none" stroke="#63b8ff" d="M1101.49,-325.69C1115.98,-314.48 1134.92,-298.82 1149.75,-283 1168.24,-263.29 1164.14,-250.22 1185.75,-234 1190,-230.81 1194.62,-227.93 1199.43,-225.34"/>
<polygon fill="#63b8ff" stroke="#63b8ff" points="1200.71,-228.61 1208.16,-221.08 1197.63,-222.32 1200.71,-228.61"/>
</a>
</g>
</g>
<!-- Node22&#45;&gt;Node22 -->
<g id="edge29_Node000022_Node000022" class="edge">
<title>Node22&#45;&gt;Node22</title>
<g id="a_edge29_Node000022_Node000022"><a xlink:title=" ">
<path fill="none" stroke="#63b8ff" d="M1234.76,-426.44C1228.42,-435.58 1239.75,-444 1268.75,-444 1284.61,-444 1295.19,-441.48 1300.48,-437.71"/>
<polygon fill="#63b8ff" stroke="#63b8ff" points="1303.9,-438.42 1302.44,-427.93 1297.04,-437.04 1303.9,-438.42"/>
</a>
</g>
</g>
<!-- Node23&#45;&gt;Node23 -->
<g id="edge31_Node000023_Node000023" class="edge">
<title>Node23&#45;&gt;Node23</title>
<g id="a_edge31_Node000023_Node000023"><a xlink:title=" ">
<path fill="none" stroke="#63b8ff" d="M1234.76,-358.44C1228.42,-367.58 1239.75,-376 1268.75,-376 1284.61,-376 1295.19,-373.48 1300.48,-369.71"/>
<polygon fill="#63b8ff" stroke="#63b8ff" points="1303.9,-370.42 1302.44,-359.93 1297.04,-369.04 1303.9,-370.42"/>
</a>
</g>
</g>
<!-- Node26 -->
<g id="Node000026" class="node">
<title>Node26</title>
<g id="a_Node000026"><a xlink:href="class_a_k_p_t_player_state.html#aa41c46851e05f762ccd8c2fc98aa505a" target="_top" xlink:title=" ">
<polygon fill="white" stroke="#666666" points="1527.5,-220 1397.5,-220 1397.5,-188 1527.5,-188 1527.5,-220"/>
<text xml:space="preserve" text-anchor="start" x="1405.5" y="-206.5" font-family="Helvetica,sans-Serif" font-size="10.00">AKPTPlayerState::OnRep</text>
<text xml:space="preserve" text-anchor="middle" x="1462.5" y="-194.5" font-family="Helvetica,sans-Serif" font-size="10.00">_PersonalStateTag</text>
</a>
</g>
</g>
<!-- Node25&#45;&gt;Node26 -->
<g id="edge35_Node000025_Node000026" class="edge">
<title>Node25&#45;&gt;Node26</title>
<g id="a_edge35_Node000025_Node000026"><a xlink:title=" ">
<path fill="none" stroke="#63b8ff" d="M1345.26,-204C1358.69,-204 1372.67,-204 1386.1,-204"/>
<polygon fill="#63b8ff" stroke="#63b8ff" points="1385.71,-207.5 1395.71,-204 1385.71,-200.5 1385.71,-207.5"/>
</a>
</g>
</g>
<!-- Node33 -->
<g id="Node000033" class="node">
<title>Node33</title>
<g id="a_Node000033"><a xlink:href="class_u_player_reward_state_component.html#a9707a634f494b85a8bc0875f09b08b48" target="_top" xlink:title="서버 전용: 처리해야 할 보상을 목록에 추가합니다.">
<polygon fill="white" stroke="#666666" points="567.75,-230 409.25,-230 409.25,-198 567.75,-198 567.75,-230"/>
<text xml:space="preserve" text-anchor="start" x="417.25" y="-216.5" font-family="Helvetica,sans-Serif" font-size="10.00">UPlayerRewardStateComponent</text>
<text xml:space="preserve" text-anchor="middle" x="488.5" y="-204.5" font-family="Helvetica,sans-Serif" font-size="10.00">::AddPendingReward</text>
</a>
</g>
</g>
<!-- Node32&#45;&gt;Node33 -->
<g id="edge45_Node000032_Node000033" class="edge">
<title>Node32&#45;&gt;Node33</title>
<g id="a_edge45_Node000032_Node000033"><a xlink:title=" ">
<path fill="none" stroke="#63b8ff" d="M353.02,-214C367.48,-214 382.79,-214 397.7,-214"/>
<polygon fill="#63b8ff" stroke="#63b8ff" points="397.49,-217.5 407.49,-214 397.49,-210.5 397.49,-217.5"/>
</a>
</g>
</g>
<!-- Node34&#45;&gt;Node17 -->
<g id="edge47_Node000034_Node000017" class="edge">
<title>Node34&#45;&gt;Node17</title>
<g id="a_edge47_Node000034_Node000017"><a xlink:title=" ">
<path fill="none" stroke="#63b8ff" d="M360.23,-124C427.35,-122.35 522.58,-120.01 592.71,-118.29"/>
<polygon fill="#63b8ff" stroke="#63b8ff" points="592.76,-121.79 602.67,-118.04 592.59,-114.79 592.76,-121.79"/>
</a>
</g>
</g>
<!-- Node35&#45;&gt;Node17 -->
<g id="edge49_Node000035_Node000017" class="edge">
<title>Node35&#45;&gt;Node17</title>
<g id="a_edge49_Node000035_Node000017"><a xlink:title=" ">
<path fill="none" stroke="#63b8ff" d="M360.23,-84C427.48,-90.61 522.98,-100 593.15,-106.9"/>
<polygon fill="#63b8ff" stroke="#63b8ff" points="592.38,-110.34 602.68,-107.83 593.07,-103.37 592.38,-110.34"/>
</a>
</g>
</g>
<!-- Node37 -->
<g id="Node000037" class="node">
<title>Node37</title>
<g id="a_Node000037"><a xlink:href="class_u_player_wallet_component.html#a7cab4a8e3b21d6b74891e61dd0dbf95c" target="_top" xlink:title=" ">
<polygon fill="white" stroke="#666666" points="552.75,-180 424.25,-180 424.25,-148 552.75,-148 552.75,-180"/>
<text xml:space="preserve" text-anchor="start" x="432.25" y="-166.5" font-family="Helvetica,sans-Serif" font-size="10.00">UPlayerWalletComponent</text>
<text xml:space="preserve" text-anchor="middle" x="488.5" y="-154.5" font-family="Helvetica,sans-Serif" font-size="10.00">::AddGold</text>
</a>
</g>
</g>
<!-- Node36&#45;&gt;Node37 -->
<g id="edge52_Node000036_Node000037" class="edge">
<title>Node36&#45;&gt;Node37</title>
<g id="a_edge52_Node000036_Node000037"><a xlink:title=" ">
<path fill="none" stroke="#63b8ff" d="M366.44,-167.48C381.82,-167.04 397.69,-166.58 412.67,-166.15"/>
<polygon fill="#63b8ff" stroke="#63b8ff" points="412.53,-169.66 422.42,-165.87 412.33,-162.66 412.53,-169.66"/>
</a>
</g>
</g>
<!-- Node38 -->
<g id="Node000038" class="node">
<title>Node38</title>
<g id="a_Node000038"><a xlink:href="class_u_player_wallet_component.html#ab679569285e7f915b08ffb945b2e2c3a" target="_top" xlink:title=" ">
<polygon fill="white" stroke="#666666" points="751,-182 622.5,-182 622.5,-150 751,-150 751,-182"/>
<text xml:space="preserve" text-anchor="start" x="630.5" y="-168.5" font-family="Helvetica,sans-Serif" font-size="10.00">UPlayerWalletComponent</text>
<text xml:space="preserve" text-anchor="middle" x="686.75" y="-156.5" font-family="Helvetica,sans-Serif" font-size="10.00">::OnRep_Gold</text>
</a>
</g>
</g>
<!-- Node37&#45;&gt;Node38 -->
<g id="edge53_Node000037_Node000038" class="edge">
<title>Node37&#45;&gt;Node38</title>
<g id="a_edge53_Node000037_Node000038"><a xlink:title=" ">
<path fill="none" stroke="#63b8ff" d="M553.22,-164.65C571.56,-164.84 591.74,-165.04 610.71,-165.24"/>
<polygon fill="#63b8ff" stroke="#63b8ff" points="610.47,-168.73 620.5,-165.34 610.54,-161.73 610.47,-168.73"/>
</a>
</g>
</g>
</g>
</svg>
