<?xml version="1.0" encoding="UTF-8" standalone="no"?>
<!DOCTYPE svg PUBLIC "-//W3C//DTD SVG 1.1//EN"
 "http://www.w3.org/Graphics/SVG/1.1/DTD/svg11.dtd">
<!-- Generated by graphviz version 13.1.1 (20250719.2154)
 -->
<!-- Title: UPauseUI::NativeDestruct Pages: 1 -->
<!--zoomable 211 -->

<svg id="main" version="1.1" xmlns="http://www.w3.org/2000/svg" xmlns:xlink="http://www.w3.org/1999/xlink" xml:space="preserve" onload="init(evt)">

<style type="text/css"><![CDATA[
.node, .edge {opacity: 0.7;}
.node.selected, .edge.selected {opacity: 1;}
.edge:hover path { stroke: red; }
.edge:hover polygon { stroke: red; fill: red; }
]]></style>

<defs>
  <circle id="rim" cx="0" cy="0" r="7"/>
  <circle id="rim2" cx="0" cy="0" r="3.5"/>
  <g id="zoomPlus">
    <use xlink:href="#rim" fill="#404040"><set attributeName="fill" to="#808080" begin="zoomplus.mouseover" end="zoomplus.mouseout"/></use>
    <path d="M-4,0h8M0,-4v8" fill="none" stroke="white" stroke-width="1.5" pointer-events="none"/>
  </g>
  <g id="zoomMin">
    <use xlink:href="#rim" fill="#404040"><set attributeName="fill" to="#808080" begin="zoomminus.mouseover" end="zoomminus.mouseout"/></use>
    <path d="M-4,0h8" fill="none" stroke="white" stroke-width="1.5" pointer-events="none"/>
  </g>
  <g id="arrowUp" transform="translate(30 24)">
    <use xlink:href="#rim"/>
    <path pointer-events="none" fill="none" stroke="white" stroke-width="1.5" d="M0,-3.0v7 M-2.5,-0.5L0,-3.0L2.5,-0.5"/>
  </g>
  <g id="arrowRight" transform="rotate(90) translate(36 -43)">
    <use xlink:href="#rim"/>
    <path pointer-events="none" fill="none" stroke="white" stroke-width="1.5" d="M0,-3.0v7 M-2.5,-0.5L0,-3.0L2.5,-0.5"/>
  </g>
  <g id="arrowDown" transform="rotate(180) translate(-30 -48)">
    <use xlink:href="#rim"/>
    <path pointer-events="none" fill="none" stroke="white" stroke-width="1.5" d="M0,-3.0v7 M-2.5,-0.5L0,-3.0L2.5,-0.5"/>
  </g>
  <g id="arrowLeft" transform="rotate(270) translate(-36 17)">
    <use xlink:href="#rim"/>
    <path pointer-events="none" fill="none" stroke="white" stroke-width="1.5" d="M0,-3.0v7 M-2.5,-0.5L0,-3.0L2.5,-0.5"/>
  </g>
  <g id="resetDef">
    <use xlink:href="#rim2" fill="#404040"><set attributeName="fill" to="#808080" begin="reset.mouseover" end="reset.mouseout"/></use>
  </g>
</defs>
<script type="application/ecmascript">
var viewWidth = 894;
var viewHeight = 211;
var sectionId = 'dynsection-10';
</script>
<script type="application/ecmascript" xlink:href="svg.min.js"/>
<svg id="graph" class="graph">
<g id="viewport">
<title>UPauseUI::NativeDestruct</title>
<!-- Node1 -->
<g id="Node000001" class="node">
<title>Node1</title>
<g id="a_Node000001"><a xlink:title=" ">
<polygon fill="#999999" stroke="#666666" points="133.75,-96 0,-96 0,-76 133.75,-76 133.75,-96"/>
<text xml:space="preserve" text-anchor="middle" x="66.88" y="-82.5" font-family="Helvetica,sans-Serif" font-size="10.00">UPauseUI::NativeDestruct</text>
</a>
</g>
</g>
<!-- Node2 -->
<g id="Node000002" class="node">
<title>Node2</title>
<g id="a_Node000002"><a xlink:href="class_u_pause_u_i.html#a5910729a1146468a2a5a445648d12fa0" target="_top" xlink:title=" ">
<polygon fill="white" stroke="#666666" points="332.38,-134 175.38,-134 175.38,-114 332.38,-114 332.38,-134"/>
<text xml:space="preserve" text-anchor="middle" x="253.88" y="-120.5" font-family="Helvetica,sans-Serif" font-size="10.00">UPauseUI::HandleClickedClose</text>
</a>
</g>
</g>
<!-- Node1&#45;&gt;Node2 -->
<g id="edge1_Node000001_Node000002" class="edge">
<title>Node1&#45;&gt;Node2</title>
<g id="a_edge1_Node000001_Node000002"><a xlink:title=" ">
<path fill="none" stroke="#63b8ff" d="M118.92,-96.48C141.16,-101.05 167.43,-106.45 190.8,-111.25"/>
<polygon fill="#63b8ff" stroke="#63b8ff" points="190.02,-114.66 200.52,-113.25 191.43,-107.8 190.02,-114.66"/>
</a>
</g>
</g>
<!-- Node8 -->
<g id="Node000008" class="node">
<title>Node8</title>
<g id="a_Node000008"><a xlink:href="class_u_pause_u_i.html#adabd322b8b6a7947e70f65047fc58ad6" target="_top" xlink:title=" ">
<polygon fill="white" stroke="#666666" points="328.62,-96 179.12,-96 179.12,-76 328.62,-76 328.62,-96"/>
<text xml:space="preserve" text-anchor="middle" x="253.88" y="-82.5" font-family="Helvetica,sans-Serif" font-size="10.00">UPauseUI::HandleClickedQuit</text>
</a>
</g>
</g>
<!-- Node1&#45;&gt;Node8 -->
<g id="edge7_Node000001_Node000008" class="edge">
<title>Node1&#45;&gt;Node8</title>
<g id="a_edge7_Node000001_Node000008"><a xlink:title=" ">
<path fill="none" stroke="#63b8ff" d="M134.14,-86C145.03,-86 156.44,-86 167.71,-86"/>
<polygon fill="#63b8ff" stroke="#63b8ff" points="167.39,-89.5 177.39,-86 167.39,-82.5 167.39,-89.5"/>
</a>
</g>
</g>
<!-- Node9 -->
<g id="Node000009" class="node">
<title>Node9</title>
<g id="a_Node000009"><a xlink:href="class_u_pause_u_i.html#a62bca9ade6ab183a9115ae315dcedd13" target="_top" xlink:title=" ">
<polygon fill="white" stroke="#666666" points="335.75,-58 172,-58 172,-38 335.75,-38 335.75,-58"/>
<text xml:space="preserve" text-anchor="middle" x="253.88" y="-44.5" font-family="Helvetica,sans-Serif" font-size="10.00">UPauseUI::HandleClickedRestart</text>
</a>
</g>
</g>
<!-- Node1&#45;&gt;Node9 -->
<g id="edge8_Node000001_Node000009" class="edge">
<title>Node1&#45;&gt;Node9</title>
<g id="a_edge8_Node000001_Node000009"><a xlink:title=" ">
<path fill="none" stroke="#63b8ff" d="M118.92,-75.52C141.16,-70.95 167.43,-65.55 190.8,-60.75"/>
<polygon fill="#63b8ff" stroke="#63b8ff" points="191.43,-64.2 200.52,-58.75 190.02,-57.34 191.43,-64.2"/>
</a>
</g>
</g>
<!-- Node10 -->
<g id="Node000010" class="node">
<title>Node10</title>
<g id="a_Node000010"><a xlink:href="class_u_pause_u_i.html#ad272156d61dc1a44318b188bf06d403e" target="_top" xlink:title=" ">
<polygon fill="white" stroke="#666666" points="338,-172 169.75,-172 169.75,-152 338,-152 338,-172"/>
<text xml:space="preserve" text-anchor="middle" x="253.88" y="-158.5" font-family="Helvetica,sans-Serif" font-size="10.00">UPauseUI::HandleClickedResume</text>
</a>
</g>
</g>
<!-- Node1&#45;&gt;Node10 -->
<g id="edge9_Node000001_Node000010" class="edge">
<title>Node1&#45;&gt;Node10</title>
<g id="a_edge9_Node000001_Node000010"><a xlink:title=" ">
<path fill="none" stroke="#63b8ff" d="M83.07,-96.34C102.41,-109.05 137.22,-130.48 169.75,-143 175.05,-145.04 180.64,-146.9 186.29,-148.58"/>
<polygon fill="#63b8ff" stroke="#63b8ff" points="185.19,-151.9 195.76,-151.19 187.05,-145.16 185.19,-151.9"/>
</a>
</g>
</g>
<!-- Node11 -->
<g id="Node000011" class="node">
<title>Node11</title>
<g id="a_Node000011"><a xlink:href="class_u_pause_u_i.html#ad4831c2e5374425482573c3e662ea4cc" target="_top" xlink:title=" ">
<polygon fill="white" stroke="#666666" points="335,-20 172.75,-20 172.75,0 335,0 335,-20"/>
<text xml:space="preserve" text-anchor="middle" x="253.88" y="-6.5" font-family="Helvetica,sans-Serif" font-size="10.00">UPauseUI::HandleClickedSetting</text>
</a>
</g>
</g>
<!-- Node1&#45;&gt;Node11 -->
<g id="edge13_Node000001_Node000011" class="edge">
<title>Node1&#45;&gt;Node11</title>
<g id="a_edge13_Node000001_Node000011"><a xlink:title=" ">
<path fill="none" stroke="#63b8ff" d="M83.07,-75.66C102.41,-62.95 137.22,-41.52 169.75,-29 175.05,-26.96 180.64,-25.1 186.29,-23.42"/>
<polygon fill="#63b8ff" stroke="#63b8ff" points="187.05,-26.84 195.76,-20.81 185.19,-20.1 187.05,-26.84"/>
</a>
</g>
</g>
<!-- Node3 -->
<g id="Node000003" class="node">
<title>Node3</title>
<g id="a_Node000003"><a xlink:href="class_u_u_i_manager_subsystem.html#aed4b9c08eec4848386a3a89108827ffd" target="_top" xlink:title=" ">
<polygon fill="white" stroke="#666666" points="539.25,-203 384.5,-203 384.5,-171 539.25,-171 539.25,-203"/>
<text xml:space="preserve" text-anchor="start" x="392.5" y="-189.5" font-family="Helvetica,sans-Serif" font-size="10.00">UUIManagerSubsystem</text>
<text xml:space="preserve" text-anchor="middle" x="461.88" y="-177.5" font-family="Helvetica,sans-Serif" font-size="10.00">::GetSingletonWidgetInstanceId</text>
</a>
</g>
</g>
<!-- Node2&#45;&gt;Node3 -->
<g id="edge2_Node000002_Node000003" class="edge">
<title>Node2&#45;&gt;Node3</title>
<g id="a_edge2_Node000002_Node000003"><a xlink:title=" ">
<path fill="none" stroke="#63b8ff" d="M310.02,-134.47C319.48,-136.87 329.12,-139.71 338,-143 354.96,-149.29 357.22,-155.24 374,-162 378.34,-163.75 382.85,-165.43 387.42,-167.03"/>
<polygon fill="#63b8ff" stroke="#63b8ff" points="386.15,-170.3 396.75,-170.15 388.38,-163.66 386.15,-170.3"/>
</a>
</g>
</g>
<!-- Node4 -->
<g id="Node000004" class="node">
<title>Node4</title>
<g id="a_Node000004"><a xlink:href="class_u_u_i_base.html#a7db928b8721c8dede4954eed8695c0e4" target="_top" xlink:title=" ">
<polygon fill="white" stroke="#666666" points="549.75,-153 374,-153 374,-133 549.75,-133 549.75,-153"/>
<text xml:space="preserve" text-anchor="middle" x="461.88" y="-139.5" font-family="Helvetica,sans-Serif" font-size="10.00">UUIBase::GetUIManagerSubsystem</text>
</a>
</g>
</g>
<!-- Node2&#45;&gt;Node4 -->
<g id="edge3_Node000002_Node000004" class="edge">
<title>Node2&#45;&gt;Node4</title>
<g id="a_edge3_Node000002_Node000004"><a xlink:title=" ">
<path fill="none" stroke="#63b8ff" d="M332.75,-131.18C342.44,-132.08 352.44,-133 362.39,-133.92"/>
<polygon fill="#63b8ff" stroke="#63b8ff" points="361.78,-137.38 372.06,-134.81 362.43,-130.4 361.78,-137.38"/>
</a>
</g>
</g>
<!-- Node5 -->
<g id="Node000005" class="node">
<title>Node5</title>
<g id="a_Node000005"><a xlink:href="class_u_u_i_manager_subsystem.html#a1e0415f5fab1f4658e1aee52f1ee1a0b" target="_top" xlink:title="지정된 인스턴스 ID의 위젯을 화면에서 숨깁니다.">
<polygon fill="white" stroke="#666666" points="522.38,-115 401.38,-115 401.38,-83 522.38,-83 522.38,-115"/>
<text xml:space="preserve" text-anchor="start" x="409.38" y="-101.5" font-family="Helvetica,sans-Serif" font-size="10.00">UUIManagerSubsystem</text>
<text xml:space="preserve" text-anchor="middle" x="461.88" y="-89.5" font-family="Helvetica,sans-Serif" font-size="10.00">::HideWidget</text>
</a>
</g>
</g>
<!-- Node2&#45;&gt;Node5 -->
<g id="edge4_Node000002_Node000005" class="edge">
<title>Node2&#45;&gt;Node5</title>
<g id="a_edge4_Node000002_Node000005"><a xlink:title=" ">
<path fill="none" stroke="#63b8ff" d="M332.75,-114.55C351.53,-112.27 371.49,-109.85 389.93,-107.61"/>
<polygon fill="#63b8ff" stroke="#63b8ff" points="390.19,-111.1 399.69,-106.43 389.34,-104.16 390.19,-111.1"/>
</a>
</g>
</g>
<!-- Node6 -->
<g id="Node000006" class="node">
<title>Node6</title>
<g id="a_Node000006"><a xlink:href="class_u_u_i_manager_subsystem.html#acaac8367f6b3ad4c0509900d7f01b65a" target="_top" xlink:title=" ">
<polygon fill="white" stroke="#666666" points="729.25,-115 585.75,-115 585.75,-83 729.25,-83 729.25,-115"/>
<text xml:space="preserve" text-anchor="start" x="593.75" y="-101.5" font-family="Helvetica,sans-Serif" font-size="10.00">UUIManagerSubsystem</text>
<text xml:space="preserve" text-anchor="middle" x="657.5" y="-89.5" font-family="Helvetica,sans-Serif" font-size="10.00">::UpdateInputModeAndFocus</text>
</a>
</g>
</g>
<!-- Node5&#45;&gt;Node6 -->
<g id="edge5_Node000005_Node000006" class="edge">
<title>Node5&#45;&gt;Node6</title>
<g id="a_edge5_Node000005_Node000006"><a xlink:title=" ">
<path fill="none" stroke="#63b8ff" d="M522.81,-99C539.03,-99 556.87,-99 574.09,-99"/>
<polygon fill="#63b8ff" stroke="#63b8ff" points="573.78,-102.5 583.78,-99 573.78,-95.5 573.78,-102.5"/>
</a>
</g>
</g>
<!-- Node7 -->
<g id="Node000007" class="node">
<title>Node7</title>
<g id="a_Node000007"><a xlink:href="class_u_u_i_manager_subsystem.html#a6c815ab68107e8e616ddb62dd3391d2c" target="_top" xlink:title=" ">
<polygon fill="white" stroke="#666666" points="886.25,-115 765.25,-115 765.25,-83 886.25,-83 886.25,-115"/>
<text xml:space="preserve" text-anchor="start" x="773.25" y="-101.5" font-family="Helvetica,sans-Serif" font-size="10.00">UUIManagerSubsystem</text>
<text xml:space="preserve" text-anchor="middle" x="825.75" y="-89.5" font-family="Helvetica,sans-Serif" font-size="10.00">::SetUIInputMode</text>
</a>
</g>
</g>
<!-- Node6&#45;&gt;Node7 -->
<g id="edge6_Node000006_Node000007" class="edge">
<title>Node6&#45;&gt;Node7</title>
<g id="a_edge6_Node000006_Node000007"><a xlink:title=" ">
<path fill="none" stroke="#63b8ff" d="M729.49,-99C737.43,-99 745.53,-99 753.48,-99"/>
<polygon fill="#63b8ff" stroke="#63b8ff" points="753.47,-102.5 763.47,-99 753.47,-95.5 753.47,-102.5"/>
</a>
</g>
</g>
<!-- Node10&#45;&gt;Node3 -->
<g id="edge10_Node000010_Node000003" class="edge">
<title>Node10&#45;&gt;Node3</title>
<g id="a_edge10_Node000010_Node000003"><a xlink:title=" ">
<path fill="none" stroke="#63b8ff" d="M338.37,-172.13C349.74,-173.51 361.45,-174.93 372.9,-176.32"/>
<polygon fill="#63b8ff" stroke="#63b8ff" points="372.39,-179.79 382.74,-177.52 373.24,-172.84 372.39,-179.79"/>
</a>
</g>
</g>
<!-- Node10&#45;&gt;Node4 -->
<g id="edge11_Node000010_Node000004" class="edge">
<title>Node10&#45;&gt;Node4</title>
<g id="a_edge11_Node000010_Node000004"><a xlink:title=" ">
<path fill="none" stroke="#63b8ff" d="M338.37,-154.3C346.25,-153.57 354.29,-152.83 362.3,-152.09"/>
<polygon fill="#63b8ff" stroke="#63b8ff" points="362.43,-155.59 372.07,-151.19 361.79,-148.62 362.43,-155.59"/>
</a>
</g>
</g>
<!-- Node10&#45;&gt;Node5 -->
<g id="edge12_Node000010_Node000005" class="edge">
<title>Node10&#45;&gt;Node5</title>
<g id="a_edge12_Node000010_Node000005"><a xlink:title=" ">
<path fill="none" stroke="#63b8ff" d="M310.02,-151.53C319.48,-149.13 329.12,-146.29 338,-143 354.96,-136.71 357.22,-130.76 374,-124 379.23,-121.89 384.71,-119.88 390.26,-117.99"/>
<polygon fill="#63b8ff" stroke="#63b8ff" points="391.12,-121.39 399.54,-114.95 388.94,-114.73 391.12,-121.39"/>
</a>
</g>
</g>
</g>
</svg>

<g id="navigator" transform="translate(0 0)" fill="#404254">
  <rect fill="#f2f5e9" fill-opacity="0.5" stroke="#606060" stroke-width=".5" x="0" y="0" width="60" height="60"/>
  <use id="zoomplus" xlink:href="#zoomPlus" x="17" y="9" onmousedown="handleZoom(evt,'in')"/>
  <use id="zoomminus" xlink:href="#zoomMin" x="42" y="9" onmousedown="handleZoom(evt,'out')"/>
  <use id="reset" xlink:href="#resetDef" x="30" y="36" onmousedown="handleReset()"/>
   <use id="arrowup" xlink:href="#arrowUp" x="0" y="0" onmousedown="handlePan(0,-1)"/>
  <use id="arrowright" xlink:href="#arrowRight" x="0" y="0" onmousedown="handlePan(1,0)"/>
  <use id="arrowdown" xlink:href="#arrowDown" x="0" y="0" onmousedown="handlePan(0,1)"/>
  <use id="arrowleft" xlink:href="#arrowLeft" x="0" y="0" onmousedown="handlePan(-1,0)"/>
</g>
<svg viewBox="0 0 15 15" width="100%" height="30px" preserveAspectRatio="xMaxYMin meet">
 <g id="arrow_out" transform="scale(0.3 0.3)">
  <a xlink:href="class_u_pause_u_i_a044a4b6a8ff4a00b6065ca292cb165a9_cgraph_org.svg" target="_base">
   <rect id="button" ry="5" rx="5" y="6" x="6" height="38" width="38"
        fill="#f2f5e9" fill-opacity="0.5" stroke="#606060" stroke-width="1.0"/>
   <path id="arrow"
     d="M 11.500037,31.436501 C 11.940474,20.09759 22.043105,11.32322 32.158766,21.979434 L 37.068811,17.246167 C 37.068811,17.246167 37.088388,32 37.088388,32 L 22.160133,31.978069 C 22.160133,31.978069 26.997745,27.140456 26.997745,27.140456 C 18.528582,18.264221 13.291696,25.230495 11.500037,31.436501 z"
     style="fill:#404040;"/>
  </a>
 </g>
</svg>

<style type='text/css'>
<![CDATA[
[data-mouse-over-selected='false'] { opacity: 0.7; }
[data-mouse-over-selected='true']  { opacity: 1.0; }
]]>
</style>
<script type="application/ecmascript"><![CDATA[
document.addEventListener('DOMContentLoaded', (event) => {
  highlightEdges();
  highlightAdjacentNodes();
});
]]></script>
</svg>
