<?xml version="1.0" encoding="UTF-8" standalone="no"?>
<!DOCTYPE svg PUBLIC "-//W3C//DTD SVG 1.1//EN"
 "http://www.w3.org/Graphics/SVG/1.1/DTD/svg11.dtd">
<!-- Generated by graphviz version 13.1.1 (20250719.2154)
 -->
<!-- Title: UGameplayAbility_BossRockDrop::SpawnRock Pages: 1 -->
<svg width="522pt" height="90pt"
 viewBox="0.00 0.00 522.00 90.00" xmlns="http://www.w3.org/2000/svg" xmlns:xlink="http://www.w3.org/1999/xlink">
<g id="graph0" class="graph" transform="scale(1 1) rotate(0) translate(4 86)">
<title>UGameplayAbility_BossRockDrop::SpawnRock</title>
<!-- Node1 -->
<g id="Node000001" class="node">
<title>Node1</title>
<g id="a_Node000001"><a xlink:title=" ">
<polygon fill="#999999" stroke="#666666" points="513.75,-32 368,-32 368,0 513.75,0 513.75,-32"/>
<text xml:space="preserve" text-anchor="start" x="376" y="-18.5" font-family="Helvetica,sans-Serif" font-size="10.00">UGameplayAbility_BossRock</text>
<text xml:space="preserve" text-anchor="middle" x="440.88" y="-6.5" font-family="Helvetica,sans-Serif" font-size="10.00">Drop::SpawnRock</text>
</a>
</g>
</g>
<!-- Node2 -->
<g id="Node000002" class="node">
<title>Node2</title>
<g id="a_Node000002"><a xlink:href="class_u_gameplay_ability___boss_rock_drop.html#af96f3d05b72995df2afa9a9a9963996f" target="_top" xlink:title=" ">
<polygon fill="white" stroke="#666666" points="332,-32 186.25,-32 186.25,0 332,0 332,-32"/>
<text xml:space="preserve" text-anchor="start" x="194.25" y="-18.5" font-family="Helvetica,sans-Serif" font-size="10.00">UGameplayAbility_BossRock</text>
<text xml:space="preserve" text-anchor="middle" x="259.12" y="-6.5" font-family="Helvetica,sans-Serif" font-size="10.00">Drop::StartSingleDropCycle</text>
</a>
</g>
</g>
<!-- Node1&#45;&gt;Node2 -->
<g id="edge1_Node000001_Node000002" class="edge">
<title>Node1&#45;&gt;Node2</title>
<g id="a_edge1_Node000001_Node000002"><a xlink:title=" ">
<path fill="none" stroke="#63b8ff" d="M356.29,-16C348.28,-16 340.2,-16 332.31,-16"/>
<polygon fill="#63b8ff" stroke="#63b8ff" points="356.03,-19.5 366.03,-16 356.03,-12.5 356.03,-19.5"/>
</a>
</g>
</g>
<!-- Node3 -->
<g id="Node000003" class="node">
<title>Node3</title>
<g id="a_Node000003"><a xlink:href="class_u_gameplay_ability___boss_rock_drop.html#ae20c146f70f4656b0bad279aee6ed5bd" target="_top" xlink:title=" ">
<polygon fill="white" stroke="#666666" points="148,-82 2.25,-82 2.25,-50 148,-50 148,-82"/>
<text xml:space="preserve" text-anchor="start" x="10.25" y="-68.5" font-family="Helvetica,sans-Serif" font-size="10.00">UGameplayAbility_BossRock</text>
<text xml:space="preserve" text-anchor="middle" x="75.12" y="-56.5" font-family="Helvetica,sans-Serif" font-size="10.00">Drop::ActivateAbility</text>
</a>
</g>
</g>
<!-- Node2&#45;&gt;Node3 -->
<g id="edge2_Node000002_Node000003" class="edge">
<title>Node2&#45;&gt;Node3</title>
<g id="a_edge2_Node000002_Node000003"><a xlink:title=" ">
<path fill="none" stroke="#63b8ff" d="M187.31,-35.46C170.35,-40.11 152.41,-45.04 136.01,-49.55"/>
<polygon fill="#63b8ff" stroke="#63b8ff" points="188.1,-38.87 196.82,-32.84 186.25,-32.12 188.1,-38.87"/>
</a>
</g>
</g>
<!-- Node4 -->
<g id="Node000004" class="node">
<title>Node4</title>
<g id="a_Node000004"><a xlink:href="class_u_gameplay_ability___boss_rock_drop.html#ae3ea23fe4ff008d87e87ee9fb09eb08f" target="_top" xlink:title=" ">
<polygon fill="white" stroke="#666666" points="150.25,-32 0,-32 0,0 150.25,0 150.25,-32"/>
<text xml:space="preserve" text-anchor="start" x="8" y="-18.5" font-family="Helvetica,sans-Serif" font-size="10.00">UGameplayAbility_BossRock</text>
<text xml:space="preserve" text-anchor="middle" x="75.12" y="-6.5" font-family="Helvetica,sans-Serif" font-size="10.00">Drop::ExecuteSingleRockDrop</text>
</a>
</g>
</g>
<!-- Node2&#45;&gt;Node4 -->
<g id="edge3_Node000002_Node000004" class="edge">
<title>Node2&#45;&gt;Node4</title>
<g id="a_edge3_Node000002_Node000004"><a xlink:title=" ">
<path fill="none" stroke="#63b8ff" d="M174.67,-9.27C166.65,-9.23 158.55,-9.25 150.62,-9.35"/>
<polygon fill="#63b8ff" stroke="#63b8ff" points="174.39,-12.77 184.42,-9.37 174.45,-5.77 174.39,-12.77"/>
</a>
</g>
</g>
<!-- Node4&#45;&gt;Node2 -->
<g id="edge4_Node000004_Node000002" class="edge">
<title>Node4&#45;&gt;Node2</title>
<g id="a_edge4_Node000004_Node000002"><a xlink:title=" ">
<path fill="none" stroke="#63b8ff" d="M161.92,-22.74C169.95,-22.77 178.04,-22.73 185.93,-22.62"/>
<polygon fill="#63b8ff" stroke="#63b8ff" points="162.16,-19.24 152.13,-22.66 162.1,-26.24 162.16,-19.24"/>
</a>
</g>
</g>
</g>
</svg>
