<?xml version="1.0" encoding="UTF-8" standalone="no"?>
<!DOCTYPE svg PUBLIC "-//W3C//DTD SVG 1.1//EN"
 "http://www.w3.org/Graphics/SVG/1.1/DTD/svg11.dtd">
<!-- Generated by graphviz version 13.1.1 (20250719.2154)
 -->
<!-- Title: USkillManagerComponent::InitializeGivenAbility Pages: 1 -->
<svg width="281pt" height="90pt"
 viewBox="0.00 0.00 281.00 90.00" xmlns="http://www.w3.org/2000/svg" xmlns:xlink="http://www.w3.org/1999/xlink">
<g id="graph0" class="graph" transform="scale(1 1) rotate(0) translate(4 86)">
<title>USkillManagerComponent::InitializeGivenAbility</title>
<!-- Node1 -->
<g id="Node000001" class="node">
<title>Node1</title>
<g id="a_Node000001"><a xlink:title=" ">
<polygon fill="#999999" stroke="#666666" points="130,-57 0,-57 0,-25 130,-25 130,-57"/>
<text xml:space="preserve" text-anchor="start" x="8" y="-43.5" font-family="Helvetica,sans-Serif" font-size="10.00">USkillManagerComponent</text>
<text xml:space="preserve" text-anchor="middle" x="65" y="-31.5" font-family="Helvetica,sans-Serif" font-size="10.00">::InitializeGivenAbility</text>
</a>
</g>
</g>
<!-- Node2 -->
<g id="Node000002" class="node">
<title>Node2</title>
<g id="a_Node000002"><a xlink:href="class_u_base_skill_ability.html#a8e1e476e767f4c1567a3ea52725b9fdd" target="_top" xlink:title=" ">
<polygon fill="white" stroke="#666666" points="272.75,-82 166,-82 166,-50 272.75,-50 272.75,-82"/>
<text xml:space="preserve" text-anchor="start" x="174" y="-68.5" font-family="Helvetica,sans-Serif" font-size="10.00">UBaseSkillAbility::</text>
<text xml:space="preserve" text-anchor="middle" x="219.38" y="-56.5" font-family="Helvetica,sans-Serif" font-size="10.00">CalculateFinalStatus</text>
</a>
</g>
</g>
<!-- Node1&#45;&gt;Node2 -->
<g id="edge1_Node000001_Node000002" class="edge">
<title>Node1&#45;&gt;Node2</title>
<g id="a_edge1_Node000001_Node000002"><a xlink:title=" ">
<path fill="none" stroke="#63b8ff" d="M130.18,-51.53C138.25,-52.85 146.51,-54.21 154.57,-55.53"/>
<polygon fill="#63b8ff" stroke="#63b8ff" points="153.88,-58.97 164.31,-57.13 155.01,-52.06 153.88,-58.97"/>
</a>
</g>
</g>
<!-- Node3 -->
<g id="Node000003" class="node">
<title>Node3</title>
<g id="a_Node000003"><a xlink:href="class_u_base_skill_ability.html#ac270dffb5b74e423d2892af6f5e510f8" target="_top" xlink:title=" ">
<polygon fill="white" stroke="#666666" points="270.5,-32 168.25,-32 168.25,0 270.5,0 270.5,-32"/>
<text xml:space="preserve" text-anchor="start" x="176.25" y="-18.5" font-family="Helvetica,sans-Serif" font-size="10.00">UBaseSkillAbility::</text>
<text xml:space="preserve" text-anchor="middle" x="219.38" y="-6.5" font-family="Helvetica,sans-Serif" font-size="10.00">InitializeAbilityTable</text>
</a>
</g>
</g>
<!-- Node1&#45;&gt;Node3 -->
<g id="edge2_Node000001_Node000003" class="edge">
<title>Node1&#45;&gt;Node3</title>
<g id="a_edge2_Node000001_Node000003"><a xlink:title=" ">
<path fill="none" stroke="#63b8ff" d="M130.18,-30.47C139,-29.02 148.04,-27.54 156.82,-26.1"/>
<polygon fill="#63b8ff" stroke="#63b8ff" points="157.36,-29.56 166.66,-24.48 156.23,-22.65 157.36,-29.56"/>
</a>
</g>
</g>
</g>
</svg>
