<?xml version="1.0" encoding="UTF-8" standalone="no"?>
<!DOCTYPE svg PUBLIC "-//W3C//DTD SVG 1.1//EN"
 "http://www.w3.org/Graphics/SVG/1.1/DTD/svg11.dtd">
<!-- Generated by graphviz version 13.1.1 (20250719.2154)
 -->
<!-- Title: AKPTLobbyDisplayPawn::OnLobbyStateUpdated Pages: 1 -->
<svg width="467pt" height="62pt"
 viewBox="0.00 0.00 467.00 62.00" xmlns="http://www.w3.org/2000/svg" xmlns:xlink="http://www.w3.org/1999/xlink">

<svg id="main" version="1.1" xmlns="http://www.w3.org/2000/svg" xmlns:xlink="http://www.w3.org/1999/xlink" xml:space="preserve">

<style type="text/css"><![CDATA[
.node, .edge {opacity: 0.7;}
.node.selected, .edge.selected {opacity: 1;}
.edge:hover path { stroke: red; }
.edge:hover polygon { stroke: red; fill: red; }
]]></style>
<script type="application/ecmascript" xlink:href="svg.min.js"/>
<svg id="graph" class="graph">
<g id="graph0" class="graph" transform="scale(1 1) rotate(0) translate(4 58)">
<title>AKPTLobbyDisplayPawn::OnLobbyStateUpdated</title>
<!-- Node1 -->
<g id="Node000001" class="node">
<title>Node1</title>
<g id="a_Node000001"><a xlink:title=" ">
<polygon fill="#999999" stroke="#666666" points="459,-32 332.75,-32 332.75,0 459,0 459,-32"/>
<text xml:space="preserve" text-anchor="start" x="340.75" y="-18.5" font-family="Helvetica,sans-Serif" font-size="10.00">AKPTLobbyDisplayPawn</text>
<text xml:space="preserve" text-anchor="middle" x="395.88" y="-6.5" font-family="Helvetica,sans-Serif" font-size="10.00">::OnLobbyStateUpdated</text>
</a>
</g>
</g>
<!-- Node2 -->
<g id="Node000002" class="node">
<title>Node2</title>
<g id="a_Node000002"><a xlink:href="class_a_k_p_t_lobby_display_pawn.html#a4aa3e5cab874b72a1ea1b4b0ba8a82f0" target="_top" xlink:title=" ">
<polygon fill="white" stroke="#666666" points="296.75,-54 162.25,-54 162.25,-22 296.75,-22 296.75,-54"/>
<text xml:space="preserve" text-anchor="start" x="170.25" y="-40.5" font-family="Helvetica,sans-Serif" font-size="10.00">AKPTLobbyDisplayPawn</text>
<text xml:space="preserve" text-anchor="middle" x="229.5" y="-28.5" font-family="Helvetica,sans-Serif" font-size="10.00">::AttemptInitialStateUpdate</text>
</a>
</g>
</g>
<!-- Node1&#45;&gt;Node2 -->
<g id="edge1_Node000001_Node000002" class="edge">
<title>Node1&#45;&gt;Node2</title>
<g id="a_edge1_Node000001_Node000002"><a xlink:title=" ">
<path fill="none" stroke="#63b8ff" d="M321.06,-25.88C313.05,-26.95 304.95,-28.04 297.04,-29.09"/>
<polygon fill="#63b8ff" stroke="#63b8ff" points="321.32,-29.38 330.76,-24.58 320.39,-22.44 321.32,-29.38"/>
</a>
</g>
</g>
<!-- Node3 -->
<g id="Node000003" class="node">
<title>Node3</title>
<g id="a_Node000003"><a xlink:href="class_a_k_p_t_lobby_display_pawn.html#a75b0e46e75c0076bb6dedb1fa2c70a74" target="_top" xlink:title=" ">
<polygon fill="white" stroke="#666666" points="126.25,-32 0,-32 0,0 126.25,0 126.25,-32"/>
<text xml:space="preserve" text-anchor="start" x="8" y="-18.5" font-family="Helvetica,sans-Serif" font-size="10.00">AKPTLobbyDisplayPawn</text>
<text xml:space="preserve" text-anchor="middle" x="63.12" y="-6.5" font-family="Helvetica,sans-Serif" font-size="10.00">::BeginPlay</text>
</a>
</g>
</g>
<!-- Node1&#45;&gt;Node3 -->
<g id="edge3_Node000001_Node000003" class="edge">
<title>Node1&#45;&gt;Node3</title>
<g id="a_edge3_Node000001_Node000003"><a xlink:title=" ">
<path fill="none" stroke="#63b8ff" d="M320.88,-13.5C312.74,-13.29 304.57,-13.12 296.75,-13 236.98,-12.09 222.02,-12.09 162.25,-13 150.75,-13.18 138.49,-13.47 126.67,-13.8"/>
<polygon fill="#63b8ff" stroke="#63b8ff" points="320.73,-16.99 330.82,-13.76 320.91,-10 320.73,-16.99"/>
</a>
</g>
</g>
<!-- Node2&#45;&gt;Node3 -->
<g id="edge2_Node000002_Node000003" class="edge">
<title>Node2&#45;&gt;Node3</title>
<g id="a_edge2_Node000002_Node000003"><a xlink:title=" ">
<path fill="none" stroke="#63b8ff" d="M150.71,-27.59C142.59,-26.5 134.41,-25.41 126.5,-24.35"/>
<polygon fill="#63b8ff" stroke="#63b8ff" points="150.24,-31.06 160.62,-28.91 151.17,-24.12 150.24,-31.06"/>
</a>
</g>
</g>
</g>
</svg>
</svg>

<style type='text/css'>
<![CDATA[
[data-mouse-over-selected='false'] { opacity: 0.7; }
[data-mouse-over-selected='true']  { opacity: 1.0; }
]]>
</style>
<script type="application/ecmascript"><![CDATA[
document.addEventListener('DOMContentLoaded', (event) => {
  highlightEdges();
  highlightAdjacentNodes();
});
]]></script>
</svg>
