<?xml version="1.0" encoding="UTF-8" standalone="no"?>
<!DOCTYPE svg PUBLIC "-//W3C//DTD SVG 1.1//EN"
 "http://www.w3.org/Graphics/SVG/1.1/DTD/svg11.dtd">
<!-- Generated by graphviz version 13.1.1 (20250719.2154)
 -->
<!-- Title: UKPTBaseAttributeSet::OnRep_DefensePower Pages: 1 -->
<svg width="313pt" height="90pt"
 viewBox="0.00 0.00 313.00 90.00" xmlns="http://www.w3.org/2000/svg" xmlns:xlink="http://www.w3.org/1999/xlink">
<g id="graph0" class="graph" transform="scale(1 1) rotate(0) translate(4 86)">
<title>UKPTBaseAttributeSet::OnRep_DefensePower</title>
<!-- Node1 -->
<g id="Node000001" class="node">
<title>Node1</title>
<g id="a_Node000001"><a xlink:title=" ">
<polygon fill="#999999" stroke="#666666" points="305,-57 182.5,-57 182.5,-25 305,-25 305,-57"/>
<text xml:space="preserve" text-anchor="start" x="190.5" y="-43.5" font-family="Helvetica,sans-Serif" font-size="10.00">UKPTBaseAttributeSet</text>
<text xml:space="preserve" text-anchor="middle" x="243.75" y="-31.5" font-family="Helvetica,sans-Serif" font-size="10.00">::OnRep_DefensePower</text>
</a>
</g>
</g>
<!-- Node2 -->
<g id="Node000002" class="node">
<title>Node2</title>
<g id="a_Node000002"><a xlink:href="class_u_k_p_t_base_attribute_set.html#a225f828fc9a99dbe8962a5fefb7518e6" target="_top" xlink:title=" ">
<polygon fill="white" stroke="#666666" points="146.5,-82 0,-82 0,-50 146.5,-50 146.5,-82"/>
<text xml:space="preserve" text-anchor="start" x="8" y="-68.5" font-family="Helvetica,sans-Serif" font-size="10.00">UKPTBaseAttributeSet</text>
<text xml:space="preserve" text-anchor="middle" x="73.25" y="-56.5" font-family="Helvetica,sans-Serif" font-size="10.00">::ATTRIBUTE_ACCESSORS</text>
</a>
</g>
</g>
<!-- Node1&#45;&gt;Node2 -->
<g id="edge1_Node000001_Node000002" class="edge">
<title>Node1&#45;&gt;Node2</title>
<g id="a_edge1_Node000001_Node000002"><a xlink:title=" ">
<path fill="none" stroke="#63b8ff" d="M171.15,-51.62C163.11,-52.82 154.9,-54.03 146.85,-55.23"/>
<polygon fill="#63b8ff" stroke="#63b8ff" points="171.52,-55.11 180.9,-50.18 170.49,-48.18 171.52,-55.11"/>
</a>
</g>
</g>
<!-- Node3 -->
<g id="Node000003" class="node">
<title>Node3</title>
<g id="a_Node000003"><a xlink:href="class_u_k_p_t_base_attribute_set.html#a4dfece0df7d554071feee1899bd701e9" target="_top" xlink:title=" ">
<polygon fill="white" stroke="#666666" points="146.5,-32 0,-32 0,0 146.5,0 146.5,-32"/>
<text xml:space="preserve" text-anchor="start" x="8" y="-18.5" font-family="Helvetica,sans-Serif" font-size="10.00">UKPTBaseAttributeSet</text>
<text xml:space="preserve" text-anchor="middle" x="73.25" y="-6.5" font-family="Helvetica,sans-Serif" font-size="10.00">::ATTRIBUTE_ACCESSORS</text>
</a>
</g>
</g>
<!-- Node1&#45;&gt;Node3 -->
<g id="edge2_Node000001_Node000003" class="edge">
<title>Node1&#45;&gt;Node3</title>
<g id="a_edge2_Node000001_Node000003"><a xlink:title=" ">
<path fill="none" stroke="#63b8ff" d="M171.15,-30.38C163.11,-29.18 154.9,-27.97 146.85,-26.77"/>
<polygon fill="#63b8ff" stroke="#63b8ff" points="170.49,-33.82 180.9,-31.82 171.52,-26.89 170.49,-33.82"/>
</a>
</g>
</g>
</g>
</svg>
