<?xml version="1.0" encoding="UTF-8" standalone="no"?>
<!DOCTYPE svg PUBLIC "-//W3C//DTD SVG 1.1//EN"
 "http://www.w3.org/Graphics/SVG/1.1/DTD/svg11.dtd">
<!-- Generated by graphviz version 13.1.1 (20250719.2154)
 -->
<!-- Title: UFollowMovementStrategy Pages: 1 -->
<svg width="209pt" height="624pt"
 viewBox="0.00 0.00 209.00 624.00" xmlns="http://www.w3.org/2000/svg" xmlns:xlink="http://www.w3.org/1999/xlink">
<g id="graph0" class="graph" transform="scale(1 1) rotate(0) translate(4 620)">
<title>UFollowMovementStrategy</title>
<!-- Node1 -->
<g id="Node000001" class="node">
<title>Node1</title>
<g id="a_Node000001"><a xlink:title=" ">
<polygon fill="#999999" stroke="none" points="176.62,-128 24.38,-128 24.38,0 176.62,0 176.62,-128"/>
<text xml:space="preserve" text-anchor="start" x="41.25" y="-114.5" font-family="Helvetica,sans-Serif" font-size="10.00">UFollowMovementStrategy</text>
<text xml:space="preserve" text-anchor="start" x="99" y="-98.5" font-family="Helvetica,sans-Serif" font-size="10.00"> </text>
<text xml:space="preserve" text-anchor="start" x="28.38" y="-82.5" font-family="Helvetica,sans-Serif" font-size="10.00">+</text>
<text xml:space="preserve" text-anchor="start" x="38.38" y="-82.5" font-family="Helvetica,sans-Serif" font-size="10.00">virtual void ActivateStrategy</text>
<text xml:space="preserve" text-anchor="start" x="38.38" y="-70.5" font-family="Helvetica,sans-Serif" font-size="10.00">(const FDetailedSkillData</text>
<text xml:space="preserve" text-anchor="start" x="38.38" y="-58.5" font-family="Helvetica,sans-Serif" font-size="10.00"> &amp;InCalculatedData, AActor</text>
<text xml:space="preserve" text-anchor="start" x="38.38" y="-46.5" font-family="Helvetica,sans-Serif" font-size="10.00"> *NewOwner, int32 InMyIndex,</text>
<text xml:space="preserve" text-anchor="start" x="38.38" y="-34.5" font-family="Helvetica,sans-Serif" font-size="10.00"> int32 InTotalCount) override</text>
<text xml:space="preserve" text-anchor="start" x="28.38" y="-18.5" font-family="Helvetica,sans-Serif" font-size="10.00">+</text>
<text xml:space="preserve" text-anchor="start" x="38.38" y="-18.5" font-family="Helvetica,sans-Serif" font-size="10.00">virtual void DeactivateStrategy</text>
<text xml:space="preserve" text-anchor="start" x="38.38" y="-6.5" font-family="Helvetica,sans-Serif" font-size="10.00">() override</text>
<polygon fill="#666666" stroke="#666666" points="24.38,-110 24.38,-110 176.62,-110 176.62,-110 24.38,-110"/>
<polygon fill="#666666" stroke="#666666" points="24.38,-94 24.38,-94 176.62,-94 176.62,-94 24.38,-94"/>
<polygon fill="none" stroke="#666666" points="24.38,0 24.38,-128 176.62,-128 176.62,0 24.38,0"/>
</a>
</g>
</g>
<!-- Node2 -->
<g id="Node000002" class="node">
<title>Node2</title>
<g id="a_Node000002"><a xlink:href="class_u_movement_strategy_base.html" target="_top" xlink:title=" ">
<polygon fill="white" stroke="none" points="201,-528 0,-528 0,-164 201,-164 201,-528"/>
<text xml:space="preserve" text-anchor="start" x="44.25" y="-514.5" font-family="Helvetica,sans-Serif" font-size="10.00">UMovementStrategyBase</text>
<text xml:space="preserve" text-anchor="start" x="4.38" y="-498.5" font-family="Helvetica,sans-Serif" font-size="10.00">#</text>
<text xml:space="preserve" text-anchor="start" x="14" y="-498.5" font-family="Helvetica,sans-Serif" font-size="10.00">FDetailedSkillData</text>
<text xml:space="preserve" text-anchor="start" x="14" y="-486.5" font-family="Helvetica,sans-Serif" font-size="10.00"> CalculatedData</text>
<text xml:space="preserve" text-anchor="start" x="4.38" y="-470.5" font-family="Helvetica,sans-Serif" font-size="10.00">#</text>
<text xml:space="preserve" text-anchor="start" x="14" y="-470.5" font-family="Helvetica,sans-Serif" font-size="10.00">int MyIndex</text>
<text xml:space="preserve" text-anchor="start" x="4.38" y="-454.5" font-family="Helvetica,sans-Serif" font-size="10.00">#</text>
<text xml:space="preserve" text-anchor="start" x="14" y="-454.5" font-family="Helvetica,sans-Serif" font-size="10.00">TObjectPtr&lt; AActor</text>
<text xml:space="preserve" text-anchor="start" x="14" y="-442.5" font-family="Helvetica,sans-Serif" font-size="10.00"> &gt; ProjectileOwner</text>
<text xml:space="preserve" text-anchor="start" x="4.38" y="-426.5" font-family="Helvetica,sans-Serif" font-size="10.00">#</text>
<text xml:space="preserve" text-anchor="start" x="14" y="-426.5" font-family="Helvetica,sans-Serif" font-size="10.00">int TotalCount</text>
<text xml:space="preserve" text-anchor="start" x="4" y="-410.5" font-family="Helvetica,sans-Serif" font-size="10.00">+</text>
<text xml:space="preserve" text-anchor="start" x="14" y="-410.5" font-family="Helvetica,sans-Serif" font-size="10.00">UMovementStrategyBase()</text>
<text xml:space="preserve" text-anchor="start" x="4" y="-394.5" font-family="Helvetica,sans-Serif" font-size="10.00">+</text>
<text xml:space="preserve" text-anchor="start" x="14" y="-394.5" font-family="Helvetica,sans-Serif" font-size="10.00">virtual void ActivateStrategy</text>
<text xml:space="preserve" text-anchor="start" x="14" y="-382.5" font-family="Helvetica,sans-Serif" font-size="10.00">(const FDetailedSkillData</text>
<text xml:space="preserve" text-anchor="start" x="14" y="-370.5" font-family="Helvetica,sans-Serif" font-size="10.00"> &amp;InCalculatedData, AActor</text>
<text xml:space="preserve" text-anchor="start" x="14" y="-358.5" font-family="Helvetica,sans-Serif" font-size="10.00"> *NewOwner, int32 InMyIndex,</text>
<text xml:space="preserve" text-anchor="start" x="14" y="-346.5" font-family="Helvetica,sans-Serif" font-size="10.00"> int32 InTotalCount)</text>
<text xml:space="preserve" text-anchor="start" x="4" y="-330.5" font-family="Helvetica,sans-Serif" font-size="10.00">+</text>
<text xml:space="preserve" text-anchor="start" x="14" y="-330.5" font-family="Helvetica,sans-Serif" font-size="10.00">virtual void DeactivateStrategy()</text>
<text xml:space="preserve" text-anchor="start" x="4" y="-314.5" font-family="Helvetica,sans-Serif" font-size="10.00">+</text>
<text xml:space="preserve" text-anchor="start" x="14" y="-314.5" font-family="Helvetica,sans-Serif" font-size="10.00">virtual void Multicast</text>
<text xml:space="preserve" text-anchor="start" x="14" y="-302.5" font-family="Helvetica,sans-Serif" font-size="10.00">_Activate(const FDetailedSkill</text>
<text xml:space="preserve" text-anchor="start" x="14" y="-290.5" font-family="Helvetica,sans-Serif" font-size="10.00">Data &amp;InCalculatedData, AActor</text>
<text xml:space="preserve" text-anchor="start" x="14" y="-278.5" font-family="Helvetica,sans-Serif" font-size="10.00"> *NewOwner, int32 InMyIndex, int32</text>
<text xml:space="preserve" text-anchor="start" x="14" y="-266.5" font-family="Helvetica,sans-Serif" font-size="10.00"> InTotalCount)</text>
<text xml:space="preserve" text-anchor="start" x="4" y="-250.5" font-family="Helvetica,sans-Serif" font-size="10.00">+</text>
<text xml:space="preserve" text-anchor="start" x="14" y="-250.5" font-family="Helvetica,sans-Serif" font-size="10.00">virtual void Multicast</text>
<text xml:space="preserve" text-anchor="start" x="14" y="-238.5" font-family="Helvetica,sans-Serif" font-size="10.00">_Deactivate()</text>
<text xml:space="preserve" text-anchor="start" x="4" y="-222.5" font-family="Helvetica,sans-Serif" font-size="10.00">+</text>
<text xml:space="preserve" text-anchor="start" x="14" y="-222.5" font-family="Helvetica,sans-Serif" font-size="10.00">virtual void TickComponent</text>
<text xml:space="preserve" text-anchor="start" x="14" y="-210.5" font-family="Helvetica,sans-Serif" font-size="10.00">(float DeltaTime, enum ELevelTick</text>
<text xml:space="preserve" text-anchor="start" x="14" y="-198.5" font-family="Helvetica,sans-Serif" font-size="10.00"> TickType, FActorComponentTickFunction</text>
<text xml:space="preserve" text-anchor="start" x="14" y="-186.5" font-family="Helvetica,sans-Serif" font-size="10.00"> *ThisTickFunction) override</text>
<text xml:space="preserve" text-anchor="start" x="4" y="-170.5" font-family="Helvetica,sans-Serif" font-size="10.00">+</text>
<text xml:space="preserve" text-anchor="start" x="14" y="-170.5" font-family="Helvetica,sans-Serif" font-size="10.00">virtual void TriggerFunction()</text>
<polygon fill="#666666" stroke="#666666" points="0,-510 0,-510 201,-510 201,-510 0,-510"/>
<polygon fill="#666666" stroke="#666666" points="0,-422 0,-422 12,-422 12,-422 0,-422"/>
<polygon fill="#666666" stroke="#666666" points="12,-422 12,-422 201,-422 201,-422 12,-422"/>
<polygon fill="none" stroke="#666666" points="0,-164 0,-528 201,-528 201,-164 0,-164"/>
</a>
</g>
</g>
<!-- Node2&#45;&gt;Node1 -->
<g id="edge1_Node000001_Node000002" class="edge">
<title>Node2&#45;&gt;Node1</title>
<g id="a_edge1_Node000001_Node000002"><a xlink:title=" ">
<path fill="none" stroke="#63b8ff" d="M100.5,-152.89C100.5,-144.15 100.5,-135.73 100.5,-127.79"/>
<polygon fill="none" stroke="#63b8ff" points="97,-152.6 100.5,-162.6 104,-152.6 97,-152.6"/>
</a>
</g>
</g>
<!-- Node3 -->
<g id="Node000003" class="node">
<title>Node3</title>
<g id="a_Node000003"><a xlink:title=" ">
<polygon fill="white" stroke="none" points="145,-616 56,-616 56,-564 145,-564 145,-616"/>
<text xml:space="preserve" text-anchor="start" x="60" y="-602.5" font-family="Helvetica,sans-Serif" font-size="10.00">UActorComponent</text>
<text xml:space="preserve" text-anchor="start" x="99" y="-586.5" font-family="Helvetica,sans-Serif" font-size="10.00"> </text>
<text xml:space="preserve" text-anchor="start" x="99" y="-570.5" font-family="Helvetica,sans-Serif" font-size="10.00"> </text>
<polygon fill="#666666" stroke="#666666" points="56,-598 56,-598 145,-598 145,-598 56,-598"/>
<polygon fill="#666666" stroke="#666666" points="56,-582 56,-582 145,-582 145,-582 56,-582"/>
<polygon fill="none" stroke="#666666" points="56,-564 56,-616 145,-616 145,-564 56,-564"/>
</a>
</g>
</g>
<!-- Node3&#45;&gt;Node2 -->
<g id="edge2_Node000002_Node000003" class="edge">
<title>Node3&#45;&gt;Node2</title>
<g id="a_edge2_Node000002_Node000003"><a xlink:title=" ">
<path fill="none" stroke="#63b8ff" d="M100.5,-552.65C100.5,-545.17 100.5,-536.82 100.5,-527.89"/>
<polygon fill="none" stroke="#63b8ff" points="97,-552.5 100.5,-562.5 104,-552.5 97,-552.5"/>
</a>
</g>
</g>
</g>
</svg>
