<?xml version="1.0" encoding="UTF-8" standalone="no"?>
<!DOCTYPE svg PUBLIC "-//W3C//DTD SVG 1.1//EN"
 "http://www.w3.org/Graphics/SVG/1.1/DTD/svg11.dtd">
<!-- Generated by graphviz version 13.1.1 (20250719.2154)
 -->
<!-- Title: AKPTPlayerState::GetShopStateComponent Pages: 1 -->
<svg width="486pt" height="90pt"
 viewBox="0.00 0.00 486.00 90.00" xmlns="http://www.w3.org/2000/svg" xmlns:xlink="http://www.w3.org/1999/xlink">
<g id="graph0" class="graph" transform="scale(1 1) rotate(0) translate(4 86)">
<title>AKPTPlayerState::GetShopStateComponent</title>
<!-- Node1 -->
<g id="Node000001" class="node">
<title>Node1</title>
<g id="a_Node000001"><a xlink:title=" ">
<polygon fill="#999999" stroke="#666666" points="477.75,-57 340.25,-57 340.25,-25 477.75,-25 477.75,-57"/>
<text xml:space="preserve" text-anchor="start" x="348.25" y="-43.5" font-family="Helvetica,sans-Serif" font-size="10.00">AKPTPlayerState::GetShop</text>
<text xml:space="preserve" text-anchor="middle" x="409" y="-31.5" font-family="Helvetica,sans-Serif" font-size="10.00">StateComponent</text>
</a>
</g>
</g>
<!-- Node1&#45;&gt;Node1 -->
<g id="edge1_Node000001_Node000001" class="edge">
<title>Node1&#45;&gt;Node1</title>
<g id="a_edge1_Node000001_Node000001"><a xlink:title=" ">
<path fill="none" stroke="#63b8ff" d="M437.54,-68.71C432.78,-72.48 423.27,-75 409,-75 382.91,-75 372.72,-66.58 378.43,-57.44"/>
<polygon fill="#63b8ff" stroke="#63b8ff" points="440.97,-69.4 439.3,-58.93 434.08,-68.15 440.97,-69.4"/>
</a>
</g>
</g>
<!-- Node2 -->
<g id="Node000002" class="node">
<title>Node2</title>
<g id="a_Node000002"><a xlink:href="class_u_shop_manager_subsystem.html#a93880afd9098aaf4d8dfb818852f2195" target="_top" xlink:title=" ">
<polygon fill="white" stroke="#666666" points="304.25,-82 171.25,-82 171.25,-50 304.25,-50 304.25,-82"/>
<text xml:space="preserve" text-anchor="start" x="179.25" y="-68.5" font-family="Helvetica,sans-Serif" font-size="10.00">UShopManagerSubsystem</text>
<text xml:space="preserve" text-anchor="middle" x="237.75" y="-56.5" font-family="Helvetica,sans-Serif" font-size="10.00">::InitializeShopForPlayer</text>
</a>
</g>
</g>
<!-- Node1&#45;&gt;Node2 -->
<g id="edge2_Node000001_Node000002" class="edge">
<title>Node1&#45;&gt;Node2</title>
<g id="a_edge2_Node000001_Node000002"><a xlink:title=" ">
<path fill="none" stroke="#63b8ff" d="M328.81,-52.7C320.74,-53.89 312.61,-55.09 304.7,-56.26"/>
<polygon fill="#63b8ff" stroke="#63b8ff" points="329.26,-56.17 338.64,-51.25 328.23,-49.24 329.26,-56.17"/>
</a>
</g>
</g>
<!-- Node4 -->
<g id="Node000004" class="node">
<title>Node4</title>
<g id="a_Node000004"><a xlink:href="class_u_shop_manager_subsystem.html#abf50df538a16d17ff421caa8ba5417ae" target="_top" xlink:title=" ">
<polygon fill="white" stroke="#666666" points="304.25,-32 171.25,-32 171.25,0 304.25,0 304.25,-32"/>
<text xml:space="preserve" text-anchor="start" x="179.25" y="-18.5" font-family="Helvetica,sans-Serif" font-size="10.00">UShopManagerSubsystem</text>
<text xml:space="preserve" text-anchor="middle" x="237.75" y="-6.5" font-family="Helvetica,sans-Serif" font-size="10.00">::ProcessRerollRequest</text>
</a>
</g>
</g>
<!-- Node1&#45;&gt;Node4 -->
<g id="edge4_Node000001_Node000004" class="edge">
<title>Node1&#45;&gt;Node4</title>
<g id="a_edge4_Node000001_Node000004"><a xlink:title=" ">
<path fill="none" stroke="#63b8ff" d="M328.81,-29.3C320.74,-28.11 312.61,-26.91 304.7,-25.74"/>
<polygon fill="#63b8ff" stroke="#63b8ff" points="328.23,-32.76 338.64,-30.75 329.26,-25.83 328.23,-32.76"/>
</a>
</g>
</g>
<!-- Node3 -->
<g id="Node000003" class="node">
<title>Node3</title>
<g id="a_Node000003"><a xlink:href="class_u_shop_manager_subsystem.html#adfffba542fd9bec1f6922339a6ffce11" target="_top" xlink:title=" ">
<polygon fill="white" stroke="#666666" points="135.25,-82 0,-82 0,-50 135.25,-50 135.25,-82"/>
<text xml:space="preserve" text-anchor="start" x="8" y="-68.5" font-family="Helvetica,sans-Serif" font-size="10.00">UShopManagerSubsystem</text>
<text xml:space="preserve" text-anchor="middle" x="67.62" y="-56.5" font-family="Helvetica,sans-Serif" font-size="10.00">::StartShopPhaseForPlayer</text>
</a>
</g>
</g>
<!-- Node2&#45;&gt;Node3 -->
<g id="edge3_Node000002_Node000003" class="edge">
<title>Node2&#45;&gt;Node3</title>
<g id="a_edge3_Node000002_Node000003"><a xlink:title=" ">
<path fill="none" stroke="#63b8ff" d="M159.53,-66C151.51,-66 143.4,-66 135.5,-66"/>
<polygon fill="#63b8ff" stroke="#63b8ff" points="159.27,-69.5 169.27,-66 159.27,-62.5 159.27,-69.5"/>
</a>
</g>
</g>
</g>
</svg>
