<?xml version="1.0" encoding="UTF-8" standalone="no"?>
<!DOCTYPE svg PUBLIC "-//W3C//DTD SVG 1.1//EN"
 "http://www.w3.org/Graphics/SVG/1.1/DTD/svg11.dtd">
<!-- Generated by graphviz version 13.1.1 (20250719.2154)
 -->
<!-- Title: UKPTCheatManager::ApplyBuff Pages: 1 -->
<svg width="482pt" height="58pt"
 viewBox="0.00 0.00 482.00 58.00" xmlns="http://www.w3.org/2000/svg" xmlns:xlink="http://www.w3.org/1999/xlink">
<g id="graph0" class="graph" transform="scale(1 1) rotate(0) translate(4 54)">
<title>UKPTCheatManager::ApplyBuff</title>
<!-- Node1 -->
<g id="Node000001" class="node">
<title>Node1</title>
<g id="a_Node000001"><a xlink:title=" ">
<polygon fill="#999999" stroke="#666666" points="154.75,-26 0,-26 0,-6 154.75,-6 154.75,-26"/>
<text xml:space="preserve" text-anchor="middle" x="77.38" y="-12.5" font-family="Helvetica,sans-Serif" font-size="10.00">UKPTCheatManager::ApplyBuff</text>
</a>
</g>
</g>
<!-- Node2 -->
<g id="Node000002" class="node">
<title>Node2</title>
<g id="a_Node000002"><a xlink:href="class_u_skill_buff_system_statics.html#a251cdb91c889fc43c1645ff6396ebd13" target="_top" xlink:title=" ">
<polygon fill="white" stroke="#666666" points="314.75,-32 190.75,-32 190.75,0 314.75,0 314.75,-32"/>
<text xml:space="preserve" text-anchor="start" x="198.75" y="-18.5" font-family="Helvetica,sans-Serif" font-size="10.00">USkillBuffSystemStatics</text>
<text xml:space="preserve" text-anchor="middle" x="252.75" y="-6.5" font-family="Helvetica,sans-Serif" font-size="10.00">::ApplyBuff</text>
</a>
</g>
</g>
<!-- Node1&#45;&gt;Node2 -->
<g id="edge1_Node000001_Node000002" class="edge">
<title>Node1&#45;&gt;Node2</title>
<g id="a_edge1_Node000001_Node000002"><a xlink:title=" ">
<path fill="none" stroke="#63b8ff" d="M155.18,-16C163.09,-16 171.11,-16 178.98,-16"/>
<polygon fill="#63b8ff" stroke="#63b8ff" points="178.84,-19.5 188.84,-16 178.84,-12.5 178.84,-19.5"/>
</a>
</g>
</g>
<!-- Node3 -->
<g id="Node000003" class="node">
<title>Node3</title>
<g id="a_Node000003"><a xlink:href="struct_f_magnitude_by_rarity.html#a0fc048b3197b409649ad98007b8189d6" target="_top" xlink:title=" ">
<polygon fill="white" stroke="#666666" points="474,-32 350.75,-32 350.75,0 474,0 474,-32"/>
<text xml:space="preserve" text-anchor="start" x="358.75" y="-18.5" font-family="Helvetica,sans-Serif" font-size="10.00">FMagnitudeByRarity</text>
<text xml:space="preserve" text-anchor="middle" x="412.38" y="-6.5" font-family="Helvetica,sans-Serif" font-size="10.00">::GetMagnitudeForRarity</text>
</a>
</g>
</g>
<!-- Node2&#45;&gt;Node3 -->
<g id="edge2_Node000002_Node000003" class="edge">
<title>Node2&#45;&gt;Node3</title>
<g id="a_edge2_Node000002_Node000003"><a xlink:title=" ">
<path fill="none" stroke="#63b8ff" d="M315.14,-16C323.02,-16 331.13,-16 339.16,-16"/>
<polygon fill="#63b8ff" stroke="#63b8ff" points="338.89,-19.5 348.89,-16 338.89,-12.5 338.89,-19.5"/>
</a>
</g>
</g>
<!-- Node3&#45;&gt;Node3 -->
<g id="edge3_Node000003_Node000003" class="edge">
<title>Node3&#45;&gt;Node3</title>
<g id="a_edge3_Node000003_Node000003"><a xlink:title=" ">
<path fill="none" stroke="#63b8ff" d="M383.88,-32.44C378.56,-41.58 388.06,-50 412.38,-50 425.67,-50 434.54,-47.48 438.98,-43.71"/>
<polygon fill="#63b8ff" stroke="#63b8ff" points="442.41,-44.38 440.62,-33.94 435.51,-43.22 442.41,-44.38"/>
</a>
</g>
</g>
</g>
</svg>
