<?xml version="1.0" encoding="UTF-8" standalone="no"?>
<!DOCTYPE svg PUBLIC "-//W3C//DTD SVG 1.1//EN"
 "http://www.w3.org/Graphics/SVG/1.1/DTD/svg11.dtd">
<!-- Generated by graphviz version 13.1.1 (20250719.2154)
 -->
<!-- Title: UKPTPlayerAttributeSet::ATTRIBUTE_ACCESSORS Pages: 1 -->
<svg width="478pt" height="80pt"
 viewBox="0.00 0.00 478.00 80.00" xmlns="http://www.w3.org/2000/svg" xmlns:xlink="http://www.w3.org/1999/xlink">

<svg id="main" version="1.1" xmlns="http://www.w3.org/2000/svg" xmlns:xlink="http://www.w3.org/1999/xlink" xml:space="preserve">

<style type="text/css"><![CDATA[
.node, .edge {opacity: 0.7;}
.node.selected, .edge.selected {opacity: 1;}
.edge:hover path { stroke: red; }
.edge:hover polygon { stroke: red; fill: red; }
]]></style>
<script type="application/ecmascript" xlink:href="svg.min.js"/>
<svg id="graph" class="graph">
<g id="graph0" class="graph" transform="scale(1 1) rotate(0) translate(4 76)">
<title>UKPTPlayerAttributeSet::ATTRIBUTE_ACCESSORS</title>
<!-- Node1 -->
<g id="Node000001" class="node">
<title>Node1</title>
<g id="a_Node000001"><a xlink:title=" ">
<polygon fill="#999999" stroke="#666666" points="146.5,-54 0,-54 0,-22 146.5,-22 146.5,-54"/>
<text xml:space="preserve" text-anchor="start" x="8" y="-40.5" font-family="Helvetica,sans-Serif" font-size="10.00">UKPTPlayerAttributeSet</text>
<text xml:space="preserve" text-anchor="middle" x="73.25" y="-28.5" font-family="Helvetica,sans-Serif" font-size="10.00">::ATTRIBUTE_ACCESSORS</text>
</a>
</g>
</g>
<!-- Node1&#45;&gt;Node1 -->
<g id="edge2_Node000001_Node000001" class="edge">
<title>Node1&#45;&gt;Node1</title>
<g id="a_edge2_Node000001_Node000001"><a xlink:title=" ">
<path fill="none" stroke="#63b8ff" d="M42.81,-54.44C37.13,-63.58 47.28,-72 73.25,-72 87.45,-72 96.93,-69.48 101.66,-65.71"/>
<polygon fill="#63b8ff" stroke="#63b8ff" points="105.1,-66.39 103.42,-55.93 98.21,-65.15 105.1,-66.39"/>
</a>
</g>
</g>
<!-- Node2 -->
<g id="Node000002" class="node">
<title>Node2</title>
<g id="a_Node000002"><a xlink:href="class_u_k_p_t_player_attribute_set.html#af399f8750813c91d7257190317812519" target="_top" xlink:title=" ">
<polygon fill="white" stroke="#666666" points="469.5,-54 341,-54 341,-22 469.5,-22 469.5,-54"/>
<text xml:space="preserve" text-anchor="start" x="349" y="-40.5" font-family="Helvetica,sans-Serif" font-size="10.00">UKPTPlayerAttributeSet</text>
<text xml:space="preserve" text-anchor="middle" x="405.25" y="-28.5" font-family="Helvetica,sans-Serif" font-size="10.00">::UKPTPlayerAttributeSet</text>
</a>
</g>
</g>
<!-- Node1&#45;&gt;Node2 -->
<g id="edge1_Node000001_Node000002" class="edge">
<title>Node1&#45;&gt;Node2</title>
<g id="a_edge1_Node000001_Node000002"><a xlink:title=" ">
<path fill="none" stroke="#63b8ff" d="M146.74,-40.29C158.68,-40.58 170.94,-40.84 182.5,-41 236.94,-41.75 250.56,-41.82 305,-41 312.85,-40.88 321.05,-40.71 329.22,-40.51"/>
<polygon fill="#63b8ff" stroke="#63b8ff" points="329.3,-44.01 339.21,-40.25 329.12,-37.01 329.3,-44.01"/>
</a>
</g>
</g>
<!-- Node3 -->
<g id="Node000003" class="node">
<title>Node3</title>
<g id="a_Node000003"><a xlink:href="class_u_k_p_t_player_attribute_set.html#af9342b340a141c31bf2eb00e34005551" target="_top" xlink:title=" ">
<polygon fill="white" stroke="#666666" points="305,-32 182.5,-32 182.5,0 305,0 305,-32"/>
<text xml:space="preserve" text-anchor="start" x="190.5" y="-18.5" font-family="Helvetica,sans-Serif" font-size="10.00">UKPTPlayerAttributeSet</text>
<text xml:space="preserve" text-anchor="middle" x="243.75" y="-6.5" font-family="Helvetica,sans-Serif" font-size="10.00">::OnRep_Luck</text>
</a>
</g>
</g>
<!-- Node1&#45;&gt;Node3 -->
<g id="edge3_Node000001_Node000003" class="edge">
<title>Node1&#45;&gt;Node3</title>
<g id="a_edge3_Node000001_Node000003"><a xlink:title=" ">
<path fill="none" stroke="#63b8ff" d="M146.69,-28.54C154.69,-27.5 162.84,-26.43 170.83,-25.39"/>
<polygon fill="#63b8ff" stroke="#63b8ff" points="171.04,-28.89 180.51,-24.13 170.14,-21.95 171.04,-28.89"/>
</a>
</g>
</g>
<!-- Node3&#45;&gt;Node2 -->
<g id="edge4_Node000003_Node000002" class="edge">
<title>Node3&#45;&gt;Node2</title>
<g id="a_edge4_Node000003_Node000002"><a xlink:title=" ">
<path fill="none" stroke="#63b8ff" d="M305.05,-24.32C312.96,-25.41 321.15,-26.54 329.27,-27.66"/>
<polygon fill="#63b8ff" stroke="#63b8ff" points="328.79,-31.12 339.17,-29.02 329.75,-24.19 328.79,-31.12"/>
</a>
</g>
</g>
</g>
</svg>
</svg>

<style type='text/css'>
<![CDATA[
[data-mouse-over-selected='false'] { opacity: 0.7; }
[data-mouse-over-selected='true']  { opacity: 1.0; }
]]>
</style>
<script type="application/ecmascript"><![CDATA[
document.addEventListener('DOMContentLoaded', (event) => {
  highlightEdges();
  highlightAdjacentNodes();
});
]]></script>
</svg>
