<?xml version="1.0" encoding="UTF-8" standalone="no"?>
<!DOCTYPE svg PUBLIC "-//W3C//DTD SVG 1.1//EN"
 "http://www.w3.org/Graphics/SVG/1.1/DTD/svg11.dtd">
<!-- Generated by graphviz version 13.1.1 (20250719.2154)
 -->
<!-- Title: USkillManagerComponent::GetOwnedSkillIDs Pages: 1 -->
<svg width="840pt" height="124pt"
 viewBox="0.00 0.00 840.00 124.00" xmlns="http://www.w3.org/2000/svg" xmlns:xlink="http://www.w3.org/1999/xlink">
<g id="graph0" class="graph" transform="scale(1 1) rotate(0) translate(4 120)">
<title>USkillManagerComponent::GetOwnedSkillIDs</title>
<!-- Node1 -->
<g id="Node000001" class="node">
<title>Node1</title>
<g id="a_Node000001"><a xlink:title=" ">
<polygon fill="#999999" stroke="#666666" points="832.25,-57 702.25,-57 702.25,-25 832.25,-25 832.25,-57"/>
<text xml:space="preserve" text-anchor="start" x="710.25" y="-43.5" font-family="Helvetica,sans-Serif" font-size="10.00">USkillManagerComponent</text>
<text xml:space="preserve" text-anchor="middle" x="767.25" y="-31.5" font-family="Helvetica,sans-Serif" font-size="10.00">::GetOwnedSkillIDs</text>
</a>
</g>
</g>
<!-- Node2 -->
<g id="Node000002" class="node">
<title>Node2</title>
<g id="a_Node000002"><a xlink:href="class_u_skill_manager_component.html#abd079bd1871419539a26030ab82b5cf4" target="_top" xlink:title=" ">
<polygon fill="white" stroke="#666666" points="666.25,-57 536.25,-57 536.25,-25 666.25,-25 666.25,-57"/>
<text xml:space="preserve" text-anchor="start" x="544.25" y="-43.5" font-family="Helvetica,sans-Serif" font-size="10.00">USkillManagerComponent</text>
<text xml:space="preserve" text-anchor="middle" x="601.25" y="-31.5" font-family="Helvetica,sans-Serif" font-size="10.00">::BroadcastSkillChanged</text>
</a>
</g>
</g>
<!-- Node1&#45;&gt;Node2 -->
<g id="edge1_Node000001_Node000002" class="edge">
<title>Node1&#45;&gt;Node2</title>
<g id="a_edge1_Node000001_Node000002"><a xlink:title=" ">
<path fill="none" stroke="#63b8ff" d="M690.66,-41C682.65,-41 674.55,-41 666.68,-41"/>
<polygon fill="#63b8ff" stroke="#63b8ff" points="690.39,-44.5 700.39,-41 690.39,-37.5 690.39,-44.5"/>
</a>
</g>
</g>
<!-- Node3 -->
<g id="Node000003" class="node">
<title>Node3</title>
<g id="a_Node000003"><a xlink:href="class_u_skill_manager_component.html#ade57574476c2faa9d7356406cdd70b40" target="_top" xlink:title=" ">
<polygon fill="white" stroke="#666666" points="500.25,-82 370.25,-82 370.25,-50 500.25,-50 500.25,-82"/>
<text xml:space="preserve" text-anchor="start" x="378.25" y="-68.5" font-family="Helvetica,sans-Serif" font-size="10.00">USkillManagerComponent</text>
<text xml:space="preserve" text-anchor="middle" x="435.25" y="-56.5" font-family="Helvetica,sans-Serif" font-size="10.00">::AddSkill</text>
</a>
</g>
</g>
<!-- Node2&#45;&gt;Node3 -->
<g id="edge2_Node000002_Node000003" class="edge">
<title>Node2&#45;&gt;Node3</title>
<g id="a_edge2_Node000002_Node000003"><a xlink:title=" ">
<path fill="none" stroke="#63b8ff" d="M524.66,-52.52C516.65,-53.74 508.55,-54.98 500.68,-56.18"/>
<polygon fill="#63b8ff" stroke="#63b8ff" points="525.05,-56 534.41,-51.04 523.99,-49.08 525.05,-56"/>
</a>
</g>
</g>
<!-- Node7 -->
<g id="Node000007" class="node">
<title>Node7</title>
<g id="a_Node000007"><a xlink:href="class_u_skill_manager_component.html#abda01272ba7d02fcefdb2722ab7433f3" target="_top" xlink:title=" ">
<polygon fill="white" stroke="#666666" points="500.25,-32 370.25,-32 370.25,0 500.25,0 500.25,-32"/>
<text xml:space="preserve" text-anchor="start" x="378.25" y="-18.5" font-family="Helvetica,sans-Serif" font-size="10.00">USkillManagerComponent</text>
<text xml:space="preserve" text-anchor="middle" x="435.25" y="-6.5" font-family="Helvetica,sans-Serif" font-size="10.00">::OnRep_OwnedSkills</text>
</a>
</g>
</g>
<!-- Node2&#45;&gt;Node7 -->
<g id="edge7_Node000002_Node000007" class="edge">
<title>Node2&#45;&gt;Node7</title>
<g id="a_edge7_Node000002_Node000007"><a xlink:title=" ">
<path fill="none" stroke="#63b8ff" d="M524.66,-29.48C516.65,-28.26 508.55,-27.02 500.68,-25.82"/>
<polygon fill="#63b8ff" stroke="#63b8ff" points="523.99,-32.92 534.41,-30.96 525.05,-26 523.99,-32.92"/>
</a>
</g>
</g>
<!-- Node4 -->
<g id="Node000004" class="node">
<title>Node4</title>
<g id="a_Node000004"><a xlink:href="class_u_k_p_t_cheat_manager.html#a87e7d4915411e1a1e0d5fa87372114a9" target="_top" xlink:title=" ">
<polygon fill="white" stroke="#666666" points="334.25,-98 185.5,-98 185.5,-78 334.25,-78 334.25,-98"/>
<text xml:space="preserve" text-anchor="middle" x="259.88" y="-84.5" font-family="Helvetica,sans-Serif" font-size="10.00">UKPTCheatManager::AddSkill</text>
</a>
</g>
</g>
<!-- Node3&#45;&gt;Node4 -->
<g id="edge3_Node000003_Node000004" class="edge">
<title>Node3&#45;&gt;Node4</title>
<g id="a_edge3_Node000003_Node000004"><a xlink:title=" ">
<path fill="none" stroke="#63b8ff" d="M358.91,-75.56C350.86,-76.58 342.67,-77.62 334.63,-78.64"/>
<polygon fill="#63b8ff" stroke="#63b8ff" points="359.2,-79.05 368.68,-74.32 358.32,-72.11 359.2,-79.05"/>
</a>
</g>
</g>
<!-- Node6 -->
<g id="Node000006" class="node">
<title>Node6</title>
<g id="a_Node000006"><a xlink:href="class_u_skill_manager_component.html#a06bd84589d9b8ada4d6eed065282c1e4" target="_top" xlink:title=" ">
<polygon fill="white" stroke="#666666" points="324.88,-60 194.88,-60 194.88,-28 324.88,-28 324.88,-60"/>
<text xml:space="preserve" text-anchor="start" x="202.88" y="-46.5" font-family="Helvetica,sans-Serif" font-size="10.00">USkillManagerComponent</text>
<text xml:space="preserve" text-anchor="middle" x="259.88" y="-34.5" font-family="Helvetica,sans-Serif" font-size="10.00">::InitializeClass</text>
</a>
</g>
</g>
<!-- Node3&#45;&gt;Node6 -->
<g id="edge6_Node000003_Node000006" class="edge">
<title>Node3&#45;&gt;Node6</title>
<g id="a_edge6_Node000003_Node000006"><a xlink:title=" ">
<path fill="none" stroke="#63b8ff" d="M359.04,-56.46C347.78,-55.03 336.26,-53.57 325.26,-52.17"/>
<polygon fill="#63b8ff" stroke="#63b8ff" points="358.32,-59.89 368.68,-57.68 359.2,-52.95 358.32,-59.89"/>
</a>
</g>
</g>
<!-- Node5 -->
<g id="Node000005" class="node">
<title>Node5</title>
<g id="a_Node000005"><a xlink:href="class_u_k_p_t_cheat_manager.html#a7aa3bbda542469d8c728c2548878cb4b" target="_top" xlink:title=" ">
<polygon fill="white" stroke="#666666" points="149.5,-98 0,-98 0,-78 149.5,-78 149.5,-98"/>
<text xml:space="preserve" text-anchor="middle" x="74.75" y="-84.5" font-family="Helvetica,sans-Serif" font-size="10.00">UKPTCheatManager::AddItem</text>
</a>
</g>
</g>
<!-- Node4&#45;&gt;Node5 -->
<g id="edge4_Node000004_Node000005" class="edge">
<title>Node4&#45;&gt;Node5</title>
<g id="a_edge4_Node000004_Node000005"><a xlink:title=" ">
<path fill="none" stroke="#63b8ff" d="M173.91,-88C165.89,-88 157.8,-88 149.89,-88"/>
<polygon fill="#63b8ff" stroke="#63b8ff" points="173.67,-91.5 183.67,-88 173.67,-84.5 173.67,-91.5"/>
</a>
</g>
</g>
<!-- Node5&#45;&gt;Node5 -->
<g id="edge5_Node000005_Node000005" class="edge">
<title>Node5&#45;&gt;Node5</title>
<g id="a_edge5_Node000005_Node000005"><a xlink:title=" ">
<path fill="none" stroke="#63b8ff" d="M107.81,-109.11C103.87,-113.14 92.85,-116 74.75,-116 42.57,-116 32.77,-106.98 45.34,-98.34"/>
<polygon fill="#63b8ff" stroke="#63b8ff" points="111.18,-108.12 104.65,-99.77 104.55,-110.37 111.18,-108.12"/>
</a>
</g>
</g>
</g>
</svg>
