<?xml version="1.0" encoding="UTF-8" standalone="no"?>
<!DOCTYPE svg PUBLIC "-//W3C//DTD SVG 1.1//EN"
 "http://www.w3.org/Graphics/SVG/1.1/DTD/svg11.dtd">
<!-- Generated by graphviz version 13.1.1 (20250719.2154)
 -->
<!-- Title: UActiveAbility_Dash Pages: 1 -->
<svg width="342pt" height="464pt"
 viewBox="0.00 0.00 342.00 464.00" xmlns="http://www.w3.org/2000/svg" xmlns:xlink="http://www.w3.org/1999/xlink">
<g id="graph0" class="graph" transform="scale(1 1) rotate(0) translate(4 460)">
<title>UActiveAbility_Dash</title>
<!-- Node1 -->
<g id="Node000001" class="node">
<title>Node1</title>
<g id="a_Node000001"><a xlink:title=" ">
<polygon fill="#999999" stroke="none" points="333.75,-184 0,-184 0,0 333.75,0 333.75,-184"/>
<text xml:space="preserve" text-anchor="start" x="121.5" y="-170.5" font-family="Helvetica,sans-Serif" font-size="10.00">UActiveAbility_Dash</text>
<text xml:space="preserve" text-anchor="start" x="4.38" y="-154.5" font-family="Helvetica,sans-Serif" font-size="10.00">#</text>
<text xml:space="preserve" text-anchor="start" x="14" y="-154.5" font-family="Helvetica,sans-Serif" font-size="10.00">float BaseDashDistance</text>
<text xml:space="preserve" text-anchor="start" x="4.38" y="-138.5" font-family="Helvetica,sans-Serif" font-size="10.00">#</text>
<text xml:space="preserve" text-anchor="start" x="14" y="-138.5" font-family="Helvetica,sans-Serif" font-size="10.00">TObjectPtr&lt; UCurveTable</text>
<text xml:space="preserve" text-anchor="start" x="14" y="-126.5" font-family="Helvetica,sans-Serif" font-size="10.00"> &gt; DashDistanceTable</text>
<text xml:space="preserve" text-anchor="start" x="4.38" y="-110.5" font-family="Helvetica,sans-Serif" font-size="10.00">#</text>
<text xml:space="preserve" text-anchor="start" x="14" y="-110.5" font-family="Helvetica,sans-Serif" font-size="10.00">TObjectPtr&lt; UNiagaraSystem</text>
<text xml:space="preserve" text-anchor="start" x="14" y="-98.5" font-family="Helvetica,sans-Serif" font-size="10.00"> &gt; DashEffect</text>
<text xml:space="preserve" text-anchor="start" x="4.38" y="-82.5" font-family="Helvetica,sans-Serif" font-size="10.00">#</text>
<text xml:space="preserve" text-anchor="start" x="14" y="-82.5" font-family="Helvetica,sans-Serif" font-size="10.00">TObjectPtr&lt; UAnimMontage</text>
<text xml:space="preserve" text-anchor="start" x="14" y="-70.5" font-family="Helvetica,sans-Serif" font-size="10.00"> &gt; DashMontage</text>
<text xml:space="preserve" text-anchor="start" x="4" y="-54.5" font-family="Helvetica,sans-Serif" font-size="10.00">+</text>
<text xml:space="preserve" text-anchor="start" x="14" y="-54.5" font-family="Helvetica,sans-Serif" font-size="10.00">virtual void ActivateAbility</text>
<text xml:space="preserve" text-anchor="start" x="14" y="-42.5" font-family="Helvetica,sans-Serif" font-size="10.00">(const FGameplayAbilitySpecHandle</text>
<text xml:space="preserve" text-anchor="start" x="14" y="-30.5" font-family="Helvetica,sans-Serif" font-size="10.00"> Handle, const FGameplayAbilityActorInfo</text>
<text xml:space="preserve" text-anchor="start" x="14" y="-18.5" font-family="Helvetica,sans-Serif" font-size="10.00"> *ActorInfo, const FGameplayAbilityActivationInfo</text>
<text xml:space="preserve" text-anchor="start" x="14" y="-6.5" font-family="Helvetica,sans-Serif" font-size="10.00"> ActivationInfo, const FGameplayEventData *TriggerEventData) override</text>
<polygon fill="#666666" stroke="#666666" points="0,-166 0,-166 333.75,-166 333.75,-166 0,-166"/>
<polygon fill="#666666" stroke="#666666" points="0,-66 0,-66 12,-66 12,-66 0,-66"/>
<polygon fill="#666666" stroke="#666666" points="12,-66 12,-66 333.75,-66 333.75,-66 12,-66"/>
<polygon fill="none" stroke="#666666" points="0,0 0,-184 333.75,-184 333.75,0 0,0"/>
</a>
</g>
</g>
<!-- Node2 -->
<g id="Node000002" class="node">
<title>Node2</title>
<g id="a_Node000002"><a xlink:href="class_u_active_ability_base.html" target="_top" xlink:title=" ">
<polygon fill="white" stroke="none" points="284.25,-368 49.5,-368 49.5,-220 284.25,-220 284.25,-368"/>
<text xml:space="preserve" text-anchor="start" x="124.5" y="-354.5" font-family="Helvetica,sans-Serif" font-size="10.00">UActiveAbilityBase</text>
<text xml:space="preserve" text-anchor="start" x="53.5" y="-338.5" font-family="Helvetica,sans-Serif" font-size="10.00">+</text>
<text xml:space="preserve" text-anchor="start" x="63.5" y="-338.5" font-family="Helvetica,sans-Serif" font-size="10.00">float Cooldown</text>
<text xml:space="preserve" text-anchor="start" x="53.5" y="-322.5" font-family="Helvetica,sans-Serif" font-size="10.00">+</text>
<text xml:space="preserve" text-anchor="start" x="63.5" y="-322.5" font-family="Helvetica,sans-Serif" font-size="10.00">FGameplayTag CooldownTag</text>
<text xml:space="preserve" text-anchor="start" x="53.5" y="-306.5" font-family="Helvetica,sans-Serif" font-size="10.00">+</text>
<text xml:space="preserve" text-anchor="start" x="63.5" y="-306.5" font-family="Helvetica,sans-Serif" font-size="10.00">FGameplayTag InputTag</text>
<text xml:space="preserve" text-anchor="start" x="53.5" y="-290.5" font-family="Helvetica,sans-Serif" font-size="10.00">+</text>
<text xml:space="preserve" text-anchor="start" x="63.5" y="-290.5" font-family="Helvetica,sans-Serif" font-size="10.00">FGameplayTag SkillTag</text>
<text xml:space="preserve" text-anchor="start" x="53.88" y="-274.5" font-family="Helvetica,sans-Serif" font-size="10.00">#</text>
<text xml:space="preserve" text-anchor="start" x="63.5" y="-274.5" font-family="Helvetica,sans-Serif" font-size="10.00">virtual void ApplyCooldown</text>
<text xml:space="preserve" text-anchor="start" x="63.5" y="-262.5" font-family="Helvetica,sans-Serif" font-size="10.00">(const FGameplayAbilitySpecHandle</text>
<text xml:space="preserve" text-anchor="start" x="63.5" y="-250.5" font-family="Helvetica,sans-Serif" font-size="10.00"> Handle, const FGameplayAbilityActorInfo</text>
<text xml:space="preserve" text-anchor="start" x="63.5" y="-238.5" font-family="Helvetica,sans-Serif" font-size="10.00"> *ActorInfo, const FGameplayAbilityActivationInfo</text>
<text xml:space="preserve" text-anchor="start" x="63.5" y="-226.5" font-family="Helvetica,sans-Serif" font-size="10.00"> ActivationInfo) const override</text>
<polygon fill="#666666" stroke="#666666" points="49.5,-350 49.5,-350 284.25,-350 284.25,-350 49.5,-350"/>
<polygon fill="#666666" stroke="#666666" points="49.5,-286 49.5,-286 61.5,-286 61.5,-286 49.5,-286"/>
<polygon fill="#666666" stroke="#666666" points="61.5,-286 61.5,-286 284.25,-286 284.25,-286 61.5,-286"/>
<polygon fill="none" stroke="#666666" points="49.5,-220 49.5,-368 284.25,-368 284.25,-220 49.5,-220"/>
</a>
</g>
</g>
<!-- Node2&#45;&gt;Node1 -->
<g id="edge1_Node000001_Node000002" class="edge">
<title>Node2&#45;&gt;Node1</title>
<g id="a_edge1_Node000001_Node000002"><a xlink:title=" ">
<path fill="none" stroke="#63b8ff" d="M166.88,-208.99C166.88,-200.66 166.88,-192.19 166.88,-183.79"/>
<polygon fill="none" stroke="#63b8ff" points="163.38,-208.72 166.88,-218.72 170.38,-208.72 163.38,-208.72"/>
</a>
</g>
</g>
<!-- Node3 -->
<g id="Node000003" class="node">
<title>Node3</title>
<g id="a_Node000003"><a xlink:title=" ">
<polygon fill="white" stroke="none" points="210.25,-456 123.5,-456 123.5,-404 210.25,-404 210.25,-456"/>
<text xml:space="preserve" text-anchor="start" x="127.5" y="-442.5" font-family="Helvetica,sans-Serif" font-size="10.00">UGameplayAbility</text>
<text xml:space="preserve" text-anchor="start" x="165.38" y="-426.5" font-family="Helvetica,sans-Serif" font-size="10.00"> </text>
<text xml:space="preserve" text-anchor="start" x="165.38" y="-410.5" font-family="Helvetica,sans-Serif" font-size="10.00"> </text>
<polygon fill="#666666" stroke="#666666" points="123.5,-438 123.5,-438 210.25,-438 210.25,-438 123.5,-438"/>
<polygon fill="#666666" stroke="#666666" points="123.5,-422 123.5,-422 210.25,-422 210.25,-422 123.5,-422"/>
<polygon fill="none" stroke="#666666" points="123.5,-404 123.5,-456 210.25,-456 210.25,-404 123.5,-404"/>
</a>
</g>
</g>
<!-- Node3&#45;&gt;Node2 -->
<g id="edge2_Node000002_Node000003" class="edge">
<title>Node3&#45;&gt;Node2</title>
<g id="a_edge2_Node000002_Node000003"><a xlink:title=" ">
<path fill="none" stroke="#63b8ff" d="M166.88,-392.61C166.88,-384.87 166.88,-376.44 166.88,-367.88"/>
<polygon fill="none" stroke="#63b8ff" points="163.38,-392.6 166.88,-402.6 170.38,-392.6 163.38,-392.6"/>
</a>
</g>
</g>
</g>
</svg>
