<?xml version="1.0" encoding="UTF-8" standalone="no"?>
<!DOCTYPE svg PUBLIC "-//W3C//DTD SVG 1.1//EN"
 "http://www.w3.org/Graphics/SVG/1.1/DTD/svg11.dtd">
<!-- Generated by graphviz version 13.1.1 (20250719.2154)
 -->
<!-- Title: APlayerControllerBase Pages: 1 -->
<svg width="174pt" height="216pt"
 viewBox="0.00 0.00 174.00 216.00" xmlns="http://www.w3.org/2000/svg" xmlns:xlink="http://www.w3.org/1999/xlink">
<g id="graph0" class="graph" transform="scale(1 1) rotate(0) translate(4 212)">
<title>APlayerControllerBase</title>
<!-- Node1 -->
<g id="Node000001" class="node">
<title>Node1</title>
<g id="a_Node000001"><a xlink:title=" ">
<polygon fill="#999999" stroke="none" points="165.75,-120 0,-120 0,0 165.75,0 165.75,-120"/>
<text xml:space="preserve" text-anchor="start" x="33.38" y="-106.5" font-family="Helvetica,sans-Serif" font-size="10.00">APlayerControllerBase</text>
<text xml:space="preserve" text-anchor="start" x="81.38" y="-90.5" font-family="Helvetica,sans-Serif" font-size="10.00"> </text>
<text xml:space="preserve" text-anchor="start" x="4" y="-74.5" font-family="Helvetica,sans-Serif" font-size="10.00">+</text>
<text xml:space="preserve" text-anchor="start" x="14" y="-74.5" font-family="Helvetica,sans-Serif" font-size="10.00">void Server_SetPawnInput</text>
<text xml:space="preserve" text-anchor="start" x="14" y="-62.5" font-family="Helvetica,sans-Serif" font-size="10.00">Enabled(bool bIsEnabled)</text>
<text xml:space="preserve" text-anchor="start" x="4.38" y="-46.5" font-family="Helvetica,sans-Serif" font-size="10.00">#</text>
<text xml:space="preserve" text-anchor="start" x="14" y="-46.5" font-family="Helvetica,sans-Serif" font-size="10.00">virtual void BeginPlay</text>
<text xml:space="preserve" text-anchor="start" x="14" y="-34.5" font-family="Helvetica,sans-Serif" font-size="10.00">() override</text>
<text xml:space="preserve" text-anchor="start" x="4.38" y="-18.5" font-family="Helvetica,sans-Serif" font-size="10.00">#</text>
<text xml:space="preserve" text-anchor="start" x="14" y="-18.5" font-family="Helvetica,sans-Serif" font-size="10.00">virtual void SetupInputComponent</text>
<text xml:space="preserve" text-anchor="start" x="14" y="-6.5" font-family="Helvetica,sans-Serif" font-size="10.00">() override</text>
<polygon fill="#666666" stroke="#666666" points="0,-102 0,-102 165.75,-102 165.75,-102 0,-102"/>
<polygon fill="#666666" stroke="#666666" points="0,-86 0,-86 165.75,-86 165.75,-86 0,-86"/>
<polygon fill="none" stroke="#666666" points="0,0 0,-120 165.75,-120 165.75,0 0,0"/>
</a>
</g>
</g>
<!-- Node2 -->
<g id="Node000002" class="node">
<title>Node2</title>
<g id="a_Node000002"><a xlink:title=" ">
<polygon fill="white" stroke="none" points="125.12,-208 40.62,-208 40.62,-156 125.12,-156 125.12,-208"/>
<text xml:space="preserve" text-anchor="start" x="44.62" y="-194.5" font-family="Helvetica,sans-Serif" font-size="10.00">APlayerController</text>
<text xml:space="preserve" text-anchor="start" x="81.38" y="-178.5" font-family="Helvetica,sans-Serif" font-size="10.00"> </text>
<text xml:space="preserve" text-anchor="start" x="81.38" y="-162.5" font-family="Helvetica,sans-Serif" font-size="10.00"> </text>
<polygon fill="#666666" stroke="#666666" points="40.62,-190 40.62,-190 125.12,-190 125.12,-190 40.62,-190"/>
<polygon fill="#666666" stroke="#666666" points="40.62,-174 40.62,-174 125.12,-174 125.12,-174 40.62,-174"/>
<polygon fill="none" stroke="#666666" points="40.62,-156 40.62,-208 125.12,-208 125.12,-156 40.62,-156"/>
</a>
</g>
</g>
<!-- Node2&#45;&gt;Node1 -->
<g id="edge1_Node000001_Node000002" class="edge">
<title>Node2&#45;&gt;Node1</title>
<g id="a_edge1_Node000001_Node000002"><a xlink:title=" ">
<path fill="none" stroke="#63b8ff" d="M82.88,-144.81C82.88,-136.96 82.88,-128.46 82.88,-119.99"/>
<polygon fill="none" stroke="#63b8ff" points="79.38,-144.62 82.88,-154.62 86.38,-144.62 79.38,-144.62"/>
</a>
</g>
</g>
</g>
</svg>
