<?xml version="1.0" encoding="UTF-8" standalone="no"?>
<!DOCTYPE svg PUBLIC "-//W3C//DTD SVG 1.1//EN"
 "http://www.w3.org/Graphics/SVG/1.1/DTD/svg11.dtd">
<!-- Generated by graphviz version 13.1.1 (20250719.2154)
 -->
<!-- Title: C:/Users/user/Perforce/alz7_CobaltbruWorkspace_00/KPT/Source/KPT/UI Pages: 1 -->
<svg width="1049pt" height="208pt"
 viewBox="0.00 0.00 1049.00 208.00" xmlns="http://www.w3.org/2000/svg" xmlns:xlink="http://www.w3.org/1999/xlink">
<g id="graph0" class="graph" transform="scale(1 1) rotate(0) translate(4 204)">
<title>C:/Users/user/Perforce/alz7_CobaltbruWorkspace_00/KPT/Source/KPT/UI</title>
<g id="clust1" class="cluster">
<title>clusterdir_def50d448366cfe38104feea5fe71f1d</title>
<g id="a_clust1"><a xlink:href="dir_def50d448366cfe38104feea5fe71f1d.html" target="_top" xlink:title="KPT">
<polygon fill="#edf0f7" stroke="#7f7f7f" stroke-dasharray="5,2" points="8,-8 8,-192 1033,-192 1033,-8 8,-8"/>
<text xml:space="preserve" text-anchor="middle" x="520.5" y="-178.5" font-family="Helvetica,sans-Serif" font-size="10.00">KPT</text>
</a>
</g>
</g>
<g id="clust2" class="cluster">
<title>clusterdir_03a35ccb76f34b0c5c973a49dad1c475</title>
<g id="a_clust2"><a xlink:href="dir_03a35ccb76f34b0c5c973a49dad1c475.html" target="_top">
<polygon fill="#edf0f7" stroke="#404040" stroke-width="2" points="82,-16 82,-164 819,-164 819,-16 82,-16"/>
</a>
</g>
</g>
<!-- dir_1eb36676b273c08f950c547eb5d7aef0 -->
<g id="node1" class="node">
<title>dir_1eb36676b273c08f950c547eb5d7aef0</title>
<g id="a_node1"><a xlink:href="dir_1eb36676b273c08f950c547eb5d7aef0.html" target="_top" xlink:title="Character">
<polygon fill="#a2b4d6" stroke="#404040" points="74.38,-44 15.62,-44 15.62,-24 74.38,-24 74.38,-44"/>
<text xml:space="preserve" text-anchor="middle" x="45" y="-30.5" font-family="Helvetica,sans-Serif" font-size="10.00">Character</text>
</a>
</g>
</g>
<!-- dir_835db7cc60e52a26a89059f64164cf8e -->
<g id="node2" class="node">
<title>dir_835db7cc60e52a26a89059f64164cf8e</title>
<g id="a_node2"><a xlink:href="dir_835db7cc60e52a26a89059f64164cf8e.html" target="_top" xlink:title="Skill">
<polygon fill="#a2b4d6" stroke="red" points="1025.38,-44 990.62,-44 990.62,-24 1025.38,-24 1025.38,-44"/>
<text xml:space="preserve" text-anchor="middle" x="1008" y="-30.5" font-family="Helvetica,sans-Serif" font-size="10.00">Skill</text>
</a>
</g>
</g>
<!-- dir_9d0f275b41fa002800a89310ba1ebe25 -->
<g id="node3" class="node">
<title>dir_9d0f275b41fa002800a89310ba1ebe25</title>
<g id="a_node3"><a xlink:href="dir_9d0f275b41fa002800a89310ba1ebe25.html" target="_top" xlink:title="Core">
<polygon fill="#a2b4d6" stroke="red" points="972.5,-44 935.5,-44 935.5,-24 972.5,-24 972.5,-44"/>
<text xml:space="preserve" text-anchor="middle" x="954" y="-30.5" font-family="Helvetica,sans-Serif" font-size="10.00">Core</text>
</a>
</g>
</g>
<!-- dir_9fbb650e8ad77b7a894cc27b2d30ac00 -->
<g id="node4" class="node">
<title>dir_9fbb650e8ad77b7a894cc27b2d30ac00</title>
<g id="a_node4"><a xlink:href="dir_9fbb650e8ad77b7a894cc27b2d30ac00.html" target="_top" xlink:title="Manager">
<polygon fill="#a2b4d6" stroke="#404040" points="73.75,-100 20.25,-100 20.25,-80 73.75,-80 73.75,-100"/>
<text xml:space="preserve" text-anchor="middle" x="47" y="-86.5" font-family="Helvetica,sans-Serif" font-size="10.00">Manager</text>
</a>
</g>
</g>
<!-- dir_ad35c7fc4aea2ef35443e05a44b4fdd0 -->
<g id="node5" class="node">
<title>dir_ad35c7fc4aea2ef35443e05a44b4fdd0</title>
<g id="a_node5"><a xlink:href="dir_ad35c7fc4aea2ef35443e05a44b4fdd0.html" target="_top" xlink:title="Item">
<polygon fill="#a2b4d6" stroke="red" points="917.75,-44 882.25,-44 882.25,-24 917.75,-24 917.75,-44"/>
<text xml:space="preserve" text-anchor="middle" x="900" y="-30.5" font-family="Helvetica,sans-Serif" font-size="10.00">Item</text>
</a>
</g>
</g>
<!-- dir_f22fd1b86d2ec4bdf99b8a7c93a2cb4b -->
<g id="node6" class="node">
<title>dir_f22fd1b86d2ec4bdf99b8a7c93a2cb4b</title>
<g id="a_node6"><a xlink:href="dir_f22fd1b86d2ec4bdf99b8a7c93a2cb4b.html" target="_top" xlink:title="Data">
<polygon fill="#a2b4d6" stroke="red" points="864.5,-44 827.5,-44 827.5,-24 864.5,-24 864.5,-44"/>
<text xml:space="preserve" text-anchor="middle" x="846" y="-30.5" font-family="Helvetica,sans-Serif" font-size="10.00">Data</text>
</a>
</g>
</g>
<!-- dir_03a35ccb76f34b0c5c973a49dad1c475 -->
<g id="node7" class="node">
<title>dir_03a35ccb76f34b0c5c973a49dad1c475</title>
<text xml:space="preserve" text-anchor="middle" x="104" y="-142.5" font-family="Helvetica,sans-Serif" font-size="10.00">UI</text>
</g>
<!-- dir_03a35ccb76f34b0c5c973a49dad1c475&#45;&gt;dir_9fbb650e8ad77b7a894cc27b2d30ac00 -->
<g id="edge1" class="edge">
<title>dir_03a35ccb76f34b0c5c973a49dad1c475&#45;&gt;dir_9fbb650e8ad77b7a894cc27b2d30ac00</title>
<g id="a_edge1"><a xlink:href="dir_000070_000041.html" target="_top">
<path fill="none" stroke="#63b8ff" d="M94.59,-136.08C86.65,-128.56 75.05,-117.57 65.29,-108.33"/>
<polygon fill="#63b8ff" stroke="#63b8ff" points="67.77,-105.85 58.1,-101.52 62.95,-110.93 67.77,-105.85"/>
</a>
</g>
<g id="a_edge1&#45;headlabel"><a xlink:href="dir_000070_000041.html" target="_top" xlink:title="1">
<text xml:space="preserve" text-anchor="middle" x="71.23" y="-101.72" font-family="Helvetica,sans-Serif" font-size="10.00" fill="#63b8ff">1</text>
</a>
</g>
</g>
<!-- dir_4b9e8485307bdaeea80929b56c1917b0 -->
<g id="node8" class="node">
<title>dir_4b9e8485307bdaeea80929b56c1917b0</title>
<g id="a_node8"><a xlink:href="dir_4b9e8485307bdaeea80929b56c1917b0.html" target="_top" xlink:title="Button">
<polygon fill="#a2b4d6" stroke="#404040" points="464.25,-44 419.75,-44 419.75,-24 464.25,-24 464.25,-44"/>
<text xml:space="preserve" text-anchor="middle" x="442" y="-30.5" font-family="Helvetica,sans-Serif" font-size="10.00">Button</text>
</a>
</g>
</g>
<!-- dir_8c345a8e8e6243e51f09724e9213bf1d -->
<g id="node9" class="node">
<title>dir_8c345a8e8e6243e51f09724e9213bf1d</title>
<g id="a_node9"><a xlink:href="dir_8c345a8e8e6243e51f09724e9213bf1d.html" target="_top" xlink:title="CountetText">
<polygon fill="#a2b4d6" stroke="#404040" points="205.62,-156 136.38,-156 136.38,-136 205.62,-136 205.62,-156"/>
<text xml:space="preserve" text-anchor="middle" x="171" y="-142.5" font-family="Helvetica,sans-Serif" font-size="10.00">CountetText</text>
</a>
</g>
</g>
<!-- dir_baee2781fb9bf6771fc22028559d2452 -->
<g id="node10" class="node">
<title>dir_baee2781fb9bf6771fc22028559d2452</title>
<g id="a_node10"><a xlink:href="dir_baee2781fb9bf6771fc22028559d2452.html" target="_top" xlink:title="DamageFloater">
<polygon fill="#a2b4d6" stroke="#404040" points="306.38,-156 223.62,-156 223.62,-136 306.38,-136 306.38,-156"/>
<text xml:space="preserve" text-anchor="middle" x="265" y="-142.5" font-family="Helvetica,sans-Serif" font-size="10.00">DamageFloater</text>
</a>
</g>
</g>
<!-- dir_9c389b2f4ef78f50645a5b7e3ec6e43c -->
<g id="node11" class="node">
<title>dir_9c389b2f4ef78f50645a5b7e3ec6e43c</title>
<g id="a_node11"><a xlink:href="dir_9c389b2f4ef78f50645a5b7e3ec6e43c.html" target="_top" xlink:title="Data">
<polygon fill="#a2b4d6" stroke="#404040" points="594.5,-100 557.5,-100 557.5,-80 594.5,-80 594.5,-100"/>
<text xml:space="preserve" text-anchor="middle" x="576" y="-86.5" font-family="Helvetica,sans-Serif" font-size="10.00">Data</text>
</a>
</g>
</g>
<!-- dir_f5872a2ea57811211db6659abcbff9aa -->
<g id="node12" class="node">
<title>dir_f5872a2ea57811211db6659abcbff9aa</title>
<g id="a_node12"><a xlink:href="dir_f5872a2ea57811211db6659abcbff9aa.html" target="_top" xlink:title="Event">
<polygon fill="#a2b4d6" stroke="#404040" points="365.75,-156 324.25,-156 324.25,-136 365.75,-136 365.75,-156"/>
<text xml:space="preserve" text-anchor="middle" x="345" y="-142.5" font-family="Helvetica,sans-Serif" font-size="10.00">Event</text>
</a>
</g>
</g>
<!-- dir_1858abd27ccffc99478330a4bd240044 -->
<g id="node13" class="node">
<title>dir_1858abd27ccffc99478330a4bd240044</title>
<g id="a_node13"><a xlink:href="dir_1858abd27ccffc99478330a4bd240044.html" target="_top" xlink:title="Flat">
<polygon fill="#a2b4d6" stroke="#404040" points="416.25,-156 383.75,-156 383.75,-136 416.25,-136 416.25,-156"/>
<text xml:space="preserve" text-anchor="middle" x="400" y="-142.5" font-family="Helvetica,sans-Serif" font-size="10.00">Flat</text>
</a>
</g>
</g>
<!-- dir_fb824ba87454e4eb2eaf965fb5e879a0 -->
<g id="node14" class="node">
<title>dir_fb824ba87454e4eb2eaf965fb5e879a0</title>
<g id="a_node14"><a xlink:href="dir_fb824ba87454e4eb2eaf965fb5e879a0.html" target="_top" xlink:title="InGame">
<polygon fill="#a2b4d6" stroke="#404040" points="485.25,-156 434.75,-156 434.75,-136 485.25,-136 485.25,-156"/>
<text xml:space="preserve" text-anchor="middle" x="460" y="-142.5" font-family="Helvetica,sans-Serif" font-size="10.00">InGame</text>
</a>
</g>
</g>
<!-- dir_fb824ba87454e4eb2eaf965fb5e879a0&#45;&gt;dir_1eb36676b273c08f950c547eb5d7aef0 -->
<g id="edge2" class="edge">
<title>dir_fb824ba87454e4eb2eaf965fb5e879a0&#45;&gt;dir_1eb36676b273c08f950c547eb5d7aef0</title>
<g id="a_edge2"><a xlink:href="dir_000029_000011.html" target="_top">
<path fill="none" stroke="#63b8ff" d="M434.5,-138.33C374.71,-122.68 220.58,-82.24 85.76,-46.08"/>
<polygon fill="#63b8ff" stroke="#63b8ff" points="86.88,-42.76 76.32,-43.55 85.07,-49.52 86.88,-42.76"/>
</a>
</g>
<g id="a_edge2&#45;headlabel"><a xlink:href="dir_000029_000011.html" target="_top" xlink:title="3">
<text xml:space="preserve" text-anchor="middle" x="89.63" y="-37.06" font-family="Helvetica,sans-Serif" font-size="10.00" fill="#63b8ff">3</text>
</a>
</g>
</g>
<!-- dir_fb824ba87454e4eb2eaf965fb5e879a0&#45;&gt;dir_835db7cc60e52a26a89059f64164cf8e -->
<g id="edge4" class="edge">
<title>dir_fb824ba87454e4eb2eaf965fb5e879a0&#45;&gt;dir_835db7cc60e52a26a89059f64164cf8e</title>
<g id="a_edge4"><a xlink:href="dir_000029_000056.html" target="_top">
<path fill="none" stroke="#63b8ff" d="M485.54,-137.89C488.38,-137.2 491.25,-136.56 494,-136 607.06,-113.2 637.71,-121.61 751,-100 851.22,-80.88 878.78,-74.21 979.23,-44.65"/>
<polygon fill="#63b8ff" stroke="#63b8ff" points="980.12,-48.04 988.72,-41.85 978.14,-41.32 980.12,-48.04"/>
</a>
</g>
<g id="a_edge4&#45;headlabel"><a xlink:href="dir_000029_000056.html" target="_top" xlink:title="1">
<text xml:space="preserve" text-anchor="middle" x="978.92" y="-47.85" font-family="Helvetica,sans-Serif" font-size="10.00" fill="#63b8ff">1</text>
</a>
</g>
</g>
<!-- dir_fb824ba87454e4eb2eaf965fb5e879a0&#45;&gt;dir_9d0f275b41fa002800a89310ba1ebe25 -->
<g id="edge5" class="edge">
<title>dir_fb824ba87454e4eb2eaf965fb5e879a0&#45;&gt;dir_9d0f275b41fa002800a89310ba1ebe25</title>
<g id="a_edge5"><a xlink:href="dir_000029_000014.html" target="_top">
<path fill="none" stroke="#63b8ff" d="M485.56,-137.98C488.4,-137.28 491.26,-136.6 494,-136 584.79,-116.09 609.05,-119.14 700,-100 798.21,-79.33 825.35,-73.31 924.39,-44.62"/>
<polygon fill="#63b8ff" stroke="#63b8ff" points="925.1,-48.06 933.72,-41.91 923.14,-41.34 925.1,-48.06"/>
</a>
</g>
<g id="a_edge5&#45;headlabel"><a xlink:href="dir_000029_000014.html" target="_top" xlink:title="4">
<text xml:space="preserve" text-anchor="middle" x="923.89" y="-47.87" font-family="Helvetica,sans-Serif" font-size="10.00" fill="#63b8ff">4</text>
</a>
</g>
</g>
<!-- dir_fb824ba87454e4eb2eaf965fb5e879a0&#45;&gt;dir_ad35c7fc4aea2ef35443e05a44b4fdd0 -->
<g id="edge6" class="edge">
<title>dir_fb824ba87454e4eb2eaf965fb5e879a0&#45;&gt;dir_ad35c7fc4aea2ef35443e05a44b4fdd0</title>
<g id="a_edge6"><a xlink:href="dir_000029_000033.html" target="_top">
<path fill="none" stroke="#63b8ff" d="M485.6,-138.16C488.44,-137.42 491.28,-136.69 494,-136 658.99,-94.2 705.37,-92.96 871.31,-44.62"/>
<polygon fill="#63b8ff" stroke="#63b8ff" points="871.82,-48.11 880.44,-41.94 869.85,-41.39 871.82,-48.11"/>
</a>
</g>
<g id="a_edge6&#45;headlabel"><a xlink:href="dir_000029_000033.html" target="_top" xlink:title="1">
<text xml:space="preserve" text-anchor="middle" x="870.62" y="-47.92" font-family="Helvetica,sans-Serif" font-size="10.00" fill="#63b8ff">1</text>
</a>
</g>
</g>
<!-- dir_31c033544f76abd38799b8398b31f1fe -->
<g id="node15" class="node">
<title>dir_31c033544f76abd38799b8398b31f1fe</title>
<g id="a_node15"><a xlink:href="dir_31c033544f76abd38799b8398b31f1fe.html" target="_top" xlink:title="Item">
<polygon fill="#a2b4d6" stroke="#404040" points="486.75,-100 451.25,-100 451.25,-80 486.75,-80 486.75,-100"/>
<text xml:space="preserve" text-anchor="middle" x="469" y="-86.5" font-family="Helvetica,sans-Serif" font-size="10.00">Item</text>
</a>
</g>
</g>
<!-- dir_fb824ba87454e4eb2eaf965fb5e879a0&#45;&gt;dir_31c033544f76abd38799b8398b31f1fe -->
<g id="edge3" class="edge">
<title>dir_fb824ba87454e4eb2eaf965fb5e879a0&#45;&gt;dir_31c033544f76abd38799b8398b31f1fe</title>
<g id="a_edge3"><a xlink:href="dir_000029_000034.html" target="_top">
<path fill="none" stroke="#63b8ff" d="M461.57,-135.59C462.68,-128.93 464.21,-119.75 465.59,-111.44"/>
<polygon fill="#63b8ff" stroke="#63b8ff" points="469.01,-112.23 467.2,-101.79 462.11,-111.08 469.01,-112.23"/>
</a>
</g>
<g id="a_edge3&#45;headlabel"><a xlink:href="dir_000029_000034.html" target="_top" xlink:title="1">
<text xml:space="preserve" text-anchor="middle" x="471.47" y="-111.25" font-family="Helvetica,sans-Serif" font-size="10.00" fill="#63b8ff">1</text>
</a>
</g>
</g>
<!-- dir_ff5db37e0cc6dd4146f872e37621551a -->
<g id="node20" class="node">
<title>dir_ff5db37e0cc6dd4146f872e37621551a</title>
<g id="a_node20"><a xlink:href="dir_ff5db37e0cc6dd4146f872e37621551a.html" target="_top" xlink:title="Skill">
<polygon fill="#a2b4d6" stroke="#404040" points="539.38,-100 504.62,-100 504.62,-80 539.38,-80 539.38,-100"/>
<text xml:space="preserve" text-anchor="middle" x="522" y="-86.5" font-family="Helvetica,sans-Serif" font-size="10.00">Skill</text>
</a>
</g>
</g>
<!-- dir_fb824ba87454e4eb2eaf965fb5e879a0&#45;&gt;dir_ff5db37e0cc6dd4146f872e37621551a -->
<g id="edge7" class="edge">
<title>dir_fb824ba87454e4eb2eaf965fb5e879a0&#45;&gt;dir_ff5db37e0cc6dd4146f872e37621551a</title>
<g id="a_edge7"><a xlink:href="dir_000029_000057.html" target="_top">
<path fill="none" stroke="#63b8ff" d="M470.8,-135.59C479.6,-127.93 492.25,-116.91 502.77,-107.75"/>
<polygon fill="#63b8ff" stroke="#63b8ff" points="504.94,-110.5 510.18,-101.29 500.34,-105.22 504.94,-110.5"/>
</a>
</g>
<g id="a_edge7&#45;headlabel"><a xlink:href="dir_000029_000057.html" target="_top" xlink:title="1">
<text xml:space="preserve" text-anchor="middle" x="505.24" y="-110.51" font-family="Helvetica,sans-Serif" font-size="10.00" fill="#63b8ff">1</text>
</a>
</g>
</g>
<!-- dir_31c033544f76abd38799b8398b31f1fe&#45;&gt;dir_1eb36676b273c08f950c547eb5d7aef0 -->
<g id="edge8" class="edge">
<title>dir_31c033544f76abd38799b8398b31f1fe&#45;&gt;dir_1eb36676b273c08f950c547eb5d7aef0</title>
<g id="a_edge8"><a xlink:href="dir_000034_000011.html" target="_top">
<path fill="none" stroke="#63b8ff" d="M450.97,-82.15C448.33,-81.33 445.61,-80.57 443,-80 287.5,-45.92 240.5,-72.25 86.11,-45.4"/>
<polygon fill="#63b8ff" stroke="#63b8ff" points="86.76,-41.96 76.3,-43.64 85.52,-48.85 86.76,-41.96"/>
</a>
</g>
<g id="a_edge8&#45;headlabel"><a xlink:href="dir_000034_000011.html" target="_top" xlink:title="2">
<text xml:space="preserve" text-anchor="middle" x="89.31" y="-36.03" font-family="Helvetica,sans-Serif" font-size="10.00" fill="#63b8ff">2</text>
</a>
</g>
</g>
<!-- dir_31c033544f76abd38799b8398b31f1fe&#45;&gt;dir_9d0f275b41fa002800a89310ba1ebe25 -->
<g id="edge10" class="edge">
<title>dir_31c033544f76abd38799b8398b31f1fe&#45;&gt;dir_9d0f275b41fa002800a89310ba1ebe25</title>
<g id="a_edge10"><a xlink:href="dir_000034_000014.html" target="_top">
<path fill="none" stroke="#63b8ff" d="M487.14,-82.3C490.07,-81.41 493.1,-80.6 496,-80 680.71,-42.07 736.59,-81.12 924.2,-44.12"/>
<polygon fill="#63b8ff" stroke="#63b8ff" points="924.68,-47.59 933.79,-42.18 923.29,-40.73 924.68,-47.59"/>
</a>
</g>
<g id="a_edge10&#45;headlabel"><a xlink:href="dir_000034_000014.html" target="_top" xlink:title="9">
<text xml:space="preserve" text-anchor="middle" x="923.21" y="-47.29" font-family="Helvetica,sans-Serif" font-size="10.00" fill="#63b8ff">9</text>
</a>
</g>
</g>
<!-- dir_31c033544f76abd38799b8398b31f1fe&#45;&gt;dir_ad35c7fc4aea2ef35443e05a44b4fdd0 -->
<g id="edge11" class="edge">
<title>dir_31c033544f76abd38799b8398b31f1fe&#45;&gt;dir_ad35c7fc4aea2ef35443e05a44b4fdd0</title>
<g id="a_edge11"><a xlink:href="dir_000034_000033.html" target="_top">
<path fill="none" stroke="#63b8ff" d="M487.15,-82.33C490.08,-81.43 493.1,-80.61 496,-80 657.56,-45.84 706.98,-78.39 871,-44.21"/>
<polygon fill="#63b8ff" stroke="#63b8ff" points="871.45,-47.69 880.49,-42.17 869.98,-40.84 871.45,-47.69"/>
</a>
</g>
<g id="a_edge11&#45;headlabel"><a xlink:href="dir_000034_000033.html" target="_top" xlink:title="4">
<text xml:space="preserve" text-anchor="middle" x="870.01" y="-47.4" font-family="Helvetica,sans-Serif" font-size="10.00" fill="#63b8ff">4</text>
</a>
</g>
</g>
<!-- dir_31c033544f76abd38799b8398b31f1fe&#45;&gt;dir_4b9e8485307bdaeea80929b56c1917b0 -->
<g id="edge9" class="edge">
<title>dir_31c033544f76abd38799b8398b31f1fe&#45;&gt;dir_4b9e8485307bdaeea80929b56c1917b0</title>
<g id="a_edge9"><a xlink:href="dir_000034_000009.html" target="_top">
<path fill="none" stroke="#63b8ff" d="M464.3,-79.59C460.85,-72.7 456.05,-63.1 451.79,-54.57"/>
<polygon fill="#63b8ff" stroke="#63b8ff" points="454.93,-53.03 447.33,-45.65 448.67,-56.16 454.93,-53.03"/>
</a>
</g>
<g id="a_edge9&#45;headlabel"><a xlink:href="dir_000034_000009.html" target="_top" xlink:title="2">
<text xml:space="preserve" text-anchor="middle" x="458.4" y="-50.12" font-family="Helvetica,sans-Serif" font-size="10.00" fill="#63b8ff">2</text>
</a>
</g>
</g>
<!-- dir_ebd7f299b9e7f8db0aacd42b37c836c7 -->
<g id="node16" class="node">
<title>dir_ebd7f299b9e7f8db0aacd42b37c836c7</title>
<g id="a_node16"><a xlink:href="dir_ebd7f299b9e7f8db0aacd42b37c836c7.html" target="_top" xlink:title="Lobby">
<polygon fill="#a2b4d6" stroke="#404040" points="545.12,-156 502.88,-156 502.88,-136 545.12,-136 545.12,-156"/>
<text xml:space="preserve" text-anchor="middle" x="524" y="-142.5" font-family="Helvetica,sans-Serif" font-size="10.00">Lobby</text>
</a>
</g>
</g>
<!-- dir_ebd7f299b9e7f8db0aacd42b37c836c7&#45;&gt;dir_9d0f275b41fa002800a89310ba1ebe25 -->
<g id="edge13" class="edge">
<title>dir_ebd7f299b9e7f8db0aacd42b37c836c7&#45;&gt;dir_9d0f275b41fa002800a89310ba1ebe25</title>
<g id="a_edge13"><a xlink:href="dir_000039_000014.html" target="_top">
<path fill="none" stroke="#63b8ff" d="M545.52,-138.06C548.35,-137.29 551.23,-136.58 554,-136 685.9,-108.54 728.44,-146.2 855,-100 885.26,-88.95 915.57,-67.08 934.53,-51.77"/>
<polygon fill="#63b8ff" stroke="#63b8ff" points="936.72,-54.5 942.18,-45.42 932.25,-49.11 936.72,-54.5"/>
</a>
</g>
<g id="a_edge13&#45;headlabel"><a xlink:href="dir_000039_000014.html" target="_top" xlink:title="1">
<text xml:space="preserve" text-anchor="middle" x="936.93" y="-54.51" font-family="Helvetica,sans-Serif" font-size="10.00" fill="#63b8ff">1</text>
</a>
</g>
</g>
<!-- dir_ebd7f299b9e7f8db0aacd42b37c836c7&#45;&gt;dir_9c389b2f4ef78f50645a5b7e3ec6e43c -->
<g id="edge12" class="edge">
<title>dir_ebd7f299b9e7f8db0aacd42b37c836c7&#45;&gt;dir_9c389b2f4ef78f50645a5b7e3ec6e43c</title>
<g id="a_edge12"><a xlink:href="dir_000039_000021.html" target="_top">
<path fill="none" stroke="#63b8ff" d="M533.06,-135.59C540.22,-128.16 550.41,-117.58 559.07,-108.58"/>
<polygon fill="#63b8ff" stroke="#63b8ff" points="561.58,-111.02 566,-101.39 556.54,-106.16 561.58,-111.02"/>
</a>
</g>
<g id="a_edge12&#45;headlabel"><a xlink:href="dir_000039_000021.html" target="_top" xlink:title="1">
<text xml:space="preserve" text-anchor="middle" x="562.18" y="-110.99" font-family="Helvetica,sans-Serif" font-size="10.00" fill="#63b8ff">1</text>
</a>
</g>
</g>
<!-- dir_3e8aba4f231014ce359e7f3ee19502f8 -->
<g id="node17" class="node">
<title>dir_3e8aba4f231014ce359e7f3ee19502f8</title>
<g id="a_node17"><a xlink:href="dir_3e8aba4f231014ce359e7f3ee19502f8.html" target="_top" xlink:title="Main">
<polygon fill="#a2b4d6" stroke="#404040" points="433.5,-100 396.5,-100 396.5,-80 433.5,-80 433.5,-100"/>
<text xml:space="preserve" text-anchor="middle" x="415" y="-86.5" font-family="Helvetica,sans-Serif" font-size="10.00">Main</text>
</a>
</g>
</g>
<!-- dir_3e8aba4f231014ce359e7f3ee19502f8&#45;&gt;dir_4b9e8485307bdaeea80929b56c1917b0 -->
<g id="edge14" class="edge">
<title>dir_3e8aba4f231014ce359e7f3ee19502f8&#45;&gt;dir_4b9e8485307bdaeea80929b56c1917b0</title>
<g id="a_edge14"><a xlink:href="dir_000040_000009.html" target="_top">
<path fill="none" stroke="#63b8ff" d="M419.7,-79.59C423.15,-72.7 427.95,-63.1 432.21,-54.57"/>
<polygon fill="#63b8ff" stroke="#63b8ff" points="435.33,-56.16 436.67,-45.65 429.07,-53.03 435.33,-56.16"/>
</a>
</g>
<g id="a_edge14&#45;headlabel"><a xlink:href="dir_000040_000009.html" target="_top" xlink:title="1">
<text xml:space="preserve" text-anchor="middle" x="436.94" y="-55.79" font-family="Helvetica,sans-Serif" font-size="10.00" fill="#63b8ff">1</text>
</a>
</g>
</g>
<!-- dir_9491642f6be453c51d086663b50a958d -->
<g id="node18" class="node">
<title>dir_9491642f6be453c51d086663b50a958d</title>
<g id="a_node18"><a xlink:href="dir_9491642f6be453c51d086663b50a958d.html" target="_top" xlink:title="Room">
<polygon fill="#a2b4d6" stroke="#404040" points="605.12,-156 562.88,-156 562.88,-136 605.12,-136 605.12,-156"/>
<text xml:space="preserve" text-anchor="middle" x="584" y="-142.5" font-family="Helvetica,sans-Serif" font-size="10.00">Room</text>
</a>
</g>
</g>
<!-- dir_204a340252dadac31c6422b578f1b992 -->
<g id="node19" class="node">
<title>dir_204a340252dadac31c6422b578f1b992</title>
<g id="a_node19"><a xlink:href="dir_204a340252dadac31c6422b578f1b992.html" target="_top" xlink:title="Settings">
<polygon fill="#a2b4d6" stroke="#404040" points="675,-156 623,-156 623,-136 675,-136 675,-156"/>
<text xml:space="preserve" text-anchor="middle" x="649" y="-142.5" font-family="Helvetica,sans-Serif" font-size="10.00">Settings</text>
</a>
</g>
</g>
<!-- dir_ff5db37e0cc6dd4146f872e37621551a&#45;&gt;dir_1eb36676b273c08f950c547eb5d7aef0 -->
<g id="edge15" class="edge">
<title>dir_ff5db37e0cc6dd4146f872e37621551a&#45;&gt;dir_1eb36676b273c08f950c547eb5d7aef0</title>
<g id="a_edge15"><a xlink:href="dir_000057_000011.html" target="_top">
<path fill="none" stroke="#63b8ff" d="M504.26,-82.21C501.53,-81.35 498.71,-80.58 496,-80 317.35,-42 263.77,-75.24 86.13,-45.35"/>
<polygon fill="#63b8ff" stroke="#63b8ff" points="86.75,-41.9 76.3,-43.65 85.55,-48.8 86.75,-41.9"/>
</a>
</g>
<g id="a_edge15&#45;headlabel"><a xlink:href="dir_000057_000011.html" target="_top" xlink:title="3">
<text xml:space="preserve" text-anchor="middle" x="89.28" y="-35.96" font-family="Helvetica,sans-Serif" font-size="10.00" fill="#63b8ff">3</text>
</a>
</g>
</g>
<!-- dir_ff5db37e0cc6dd4146f872e37621551a&#45;&gt;dir_835db7cc60e52a26a89059f64164cf8e -->
<g id="edge17" class="edge">
<title>dir_ff5db37e0cc6dd4146f872e37621551a&#45;&gt;dir_835db7cc60e52a26a89059f64164cf8e</title>
<g id="a_edge17"><a xlink:href="dir_000057_000056.html" target="_top">
<path fill="none" stroke="#63b8ff" d="M539.85,-82.39C542.87,-81.46 546,-80.62 549,-80 734.57,-41.93 790.92,-82.3 979.15,-44.11"/>
<polygon fill="#63b8ff" stroke="#63b8ff" points="979.71,-47.57 988.78,-42.1 978.28,-40.72 979.71,-47.57"/>
</a>
</g>
<g id="a_edge17&#45;headlabel"><a xlink:href="dir_000057_000056.html" target="_top" xlink:title="5">
<text xml:space="preserve" text-anchor="middle" x="978.25" y="-47.27" font-family="Helvetica,sans-Serif" font-size="10.00" fill="#63b8ff">5</text>
</a>
</g>
</g>
<!-- dir_ff5db37e0cc6dd4146f872e37621551a&#45;&gt;dir_9d0f275b41fa002800a89310ba1ebe25 -->
<g id="edge18" class="edge">
<title>dir_ff5db37e0cc6dd4146f872e37621551a&#45;&gt;dir_9d0f275b41fa002800a89310ba1ebe25</title>
<g id="a_edge18"><a xlink:href="dir_000057_000014.html" target="_top">
<path fill="none" stroke="#63b8ff" d="M539.85,-82.42C542.87,-81.49 546,-80.63 549,-80 710.56,-45.84 759.78,-77.49 924.26,-44.14"/>
<polygon fill="#63b8ff" stroke="#63b8ff" points="924.71,-47.62 933.79,-42.16 923.28,-40.77 924.71,-47.62"/>
</a>
</g>
<g id="a_edge18&#45;headlabel"><a xlink:href="dir_000057_000014.html" target="_top" xlink:title="4">
<text xml:space="preserve" text-anchor="middle" x="923.25" y="-47.33" font-family="Helvetica,sans-Serif" font-size="10.00" fill="#63b8ff">4</text>
</a>
</g>
</g>
<!-- dir_ff5db37e0cc6dd4146f872e37621551a&#45;&gt;dir_f22fd1b86d2ec4bdf99b8a7c93a2cb4b -->
<g id="edge19" class="edge">
<title>dir_ff5db37e0cc6dd4146f872e37621551a&#45;&gt;dir_f22fd1b86d2ec4bdf99b8a7c93a2cb4b</title>
<g id="a_edge19"><a xlink:href="dir_000057_000018.html" target="_top">
<path fill="none" stroke="#63b8ff" d="M539.87,-82.51C542.89,-81.57 546.01,-80.69 549,-80 665.07,-53.29 701.83,-73.31 816.11,-45.57"/>
<polygon fill="#63b8ff" stroke="#63b8ff" points="816.72,-49.02 825.57,-43.2 815.02,-42.23 816.72,-49.02"/>
</a>
</g>
<g id="a_edge19&#45;headlabel"><a xlink:href="dir_000057_000018.html" target="_top" xlink:title="1">
<text xml:space="preserve" text-anchor="middle" x="815.39" y="-48.78" font-family="Helvetica,sans-Serif" font-size="10.00" fill="#63b8ff">1</text>
</a>
</g>
</g>
<!-- dir_ff5db37e0cc6dd4146f872e37621551a&#45;&gt;dir_4b9e8485307bdaeea80929b56c1917b0 -->
<g id="edge16" class="edge">
<title>dir_ff5db37e0cc6dd4146f872e37621551a&#45;&gt;dir_4b9e8485307bdaeea80929b56c1917b0</title>
<g id="a_edge16"><a xlink:href="dir_000057_000009.html" target="_top">
<path fill="none" stroke="#63b8ff" d="M508.07,-79.59C496.32,-71.67 479.27,-60.16 465.43,-50.82"/>
<polygon fill="#63b8ff" stroke="#63b8ff" points="467.54,-48.02 457.3,-45.33 463.63,-53.82 467.54,-48.02"/>
</a>
</g>
<g id="a_edge16&#45;headlabel"><a xlink:href="dir_000057_000009.html" target="_top" xlink:title="1">
<text xml:space="preserve" text-anchor="middle" x="470.86" y="-43.33" font-family="Helvetica,sans-Serif" font-size="10.00" fill="#63b8ff">1</text>
</a>
</g>
</g>
<!-- dir_bcf02e71905462b10de62bf3feae0209 -->
<g id="node21" class="node">
<title>dir_bcf02e71905462b10de62bf3feae0209</title>
<g id="a_node21"><a xlink:href="dir_bcf02e71905462b10de62bf3feae0209.html" target="_top" xlink:title="Study">
<polygon fill="#a2b4d6" stroke="#404040" points="734.75,-156 693.25,-156 693.25,-136 734.75,-136 734.75,-156"/>
<text xml:space="preserve" text-anchor="middle" x="714" y="-142.5" font-family="Helvetica,sans-Serif" font-size="10.00">Study</text>
</a>
</g>
</g>
<!-- dir_fcc26ae33cd8ce2de6c16a57a38272b6 -->
<g id="node22" class="node">
<title>dir_fcc26ae33cd8ce2de6c16a57a38272b6</title>
<g id="a_node22"><a xlink:href="dir_fcc26ae33cd8ce2de6c16a57a38272b6.html" target="_top" xlink:title="System">
<polygon fill="#a2b4d6" stroke="#404040" points="378.88,-100 329.12,-100 329.12,-80 378.88,-80 378.88,-100"/>
<text xml:space="preserve" text-anchor="middle" x="354" y="-86.5" font-family="Helvetica,sans-Serif" font-size="10.00">System</text>
</a>
</g>
</g>
<!-- dir_fcc26ae33cd8ce2de6c16a57a38272b6&#45;&gt;dir_4b9e8485307bdaeea80929b56c1917b0 -->
<g id="edge20" class="edge">
<title>dir_fcc26ae33cd8ce2de6c16a57a38272b6&#45;&gt;dir_4b9e8485307bdaeea80929b56c1917b0</title>
<g id="a_edge20"><a xlink:href="dir_000064_000009.html" target="_top">
<path fill="none" stroke="#63b8ff" d="M369.33,-79.59C382.5,-71.51 401.73,-59.71 417.11,-50.27"/>
<polygon fill="#63b8ff" stroke="#63b8ff" points="418.57,-53.48 425.26,-45.27 414.91,-47.52 418.57,-53.48"/>
</a>
</g>
<g id="a_edge20&#45;headlabel"><a xlink:href="dir_000064_000009.html" target="_top" xlink:title="2">
<text xml:space="preserve" text-anchor="middle" x="418.28" y="-53.49" font-family="Helvetica,sans-Serif" font-size="10.00" fill="#63b8ff">2</text>
</a>
</g>
</g>
<!-- dir_a422f4d58be3a39b44850faafaaf7908 -->
<g id="node23" class="node">
<title>dir_a422f4d58be3a39b44850faafaaf7908</title>
<g id="a_node23"><a xlink:href="dir_a422f4d58be3a39b44850faafaaf7908.html" target="_top" xlink:title="Transition">
<polygon fill="#a2b4d6" stroke="#404040" points="811.38,-156 752.62,-156 752.62,-136 811.38,-136 811.38,-156"/>
<text xml:space="preserve" text-anchor="middle" x="782" y="-142.5" font-family="Helvetica,sans-Serif" font-size="10.00">Transition</text>
</a>
</g>
</g>
</g>
</svg>
