<?xml version="1.0" encoding="UTF-8" standalone="no"?>
<!DOCTYPE svg PUBLIC "-//W3C//DTD SVG 1.1//EN"
 "http://www.w3.org/Graphics/SVG/1.1/DTD/svg11.dtd">
<!-- Generated by graphviz version 13.1.1 (20250719.2154)
 -->
<!-- Title: C:/Users/user/Perforce/alz7_CobaltbruWorkspace_00/KPT/Source/KPT/Core/SubSystem Pages: 1 -->
<svg width="554pt" height="144pt"
 viewBox="0.00 0.00 554.00 144.00" xmlns="http://www.w3.org/2000/svg" xmlns:xlink="http://www.w3.org/1999/xlink">
<g id="graph0" class="graph" transform="scale(1 1) rotate(0) translate(4 140)">
<title>C:/Users/user/Perforce/alz7_CobaltbruWorkspace_00/KPT/Source/KPT/Core/SubSystem</title>
<g id="clust1" class="cluster">
<title>clusterdir_9d0f275b41fa002800a89310ba1ebe25</title>
<g id="a_clust1"><a xlink:href="dir_9d0f275b41fa002800a89310ba1ebe25.html" target="_top" xlink:title="Core">
<polygon fill="#edf0f7" stroke="#7f7f7f" stroke-dasharray="5,2" points="8,-8 8,-128 217,-128 217,-8 8,-8"/>
<text xml:space="preserve" text-anchor="middle" x="112.5" y="-114.5" font-family="Helvetica,sans-Serif" font-size="10.00">Core</text>
</a>
</g>
</g>
<g id="clust2" class="cluster">
<title>clusterdir_c5adcac0dad4fd3c0e6e6b5ea3efe6f7</title>
<g id="a_clust2"><a xlink:href="dir_c5adcac0dad4fd3c0e6e6b5ea3efe6f7.html" target="_top">
<polygon fill="#edf0f7" stroke="#404040" stroke-width="2" points="16,-64 16,-100 209,-100 209,-64 16,-64"/>
</a>
</g>
</g>
<!-- dir_642992c390f4111062490d0864235fba -->
<g id="node1" class="node">
<title>dir_642992c390f4111062490d0864235fba</title>
<g id="a_node1"><a xlink:href="dir_642992c390f4111062490d0864235fba.html" target="_top" xlink:title="Interface">
<polygon fill="#a2b4d6" stroke="red" points="77.12,-36 22.88,-36 22.88,-16 77.12,-16 77.12,-36"/>
<text xml:space="preserve" text-anchor="middle" x="50" y="-22.5" font-family="Helvetica,sans-Serif" font-size="10.00">Interface</text>
</a>
</g>
</g>
<!-- dir_c4b505f52885608e828b3baedebd7535 -->
<g id="node2" class="node">
<title>dir_c4b505f52885608e828b3baedebd7535</title>
<g id="a_node2"><a xlink:href="dir_c4b505f52885608e828b3baedebd7535.html" target="_top" xlink:title="Component">
<polygon fill="#a2b4d6" stroke="red" points="161.12,-36 94.88,-36 94.88,-16 161.12,-16 161.12,-36"/>
<text xml:space="preserve" text-anchor="middle" x="128" y="-22.5" font-family="Helvetica,sans-Serif" font-size="10.00">Component</text>
</a>
</g>
</g>
<!-- dir_c5adcac0dad4fd3c0e6e6b5ea3efe6f7 -->
<g id="node3" class="node">
<title>dir_c5adcac0dad4fd3c0e6e6b5ea3efe6f7</title>
<text xml:space="preserve" text-anchor="middle" x="58" y="-78.5" font-family="Helvetica,sans-Serif" font-size="10.00">SubSystem</text>
</g>
<!-- dir_c5adcac0dad4fd3c0e6e6b5ea3efe6f7&#45;&gt;dir_642992c390f4111062490d0864235fba -->
<g id="edge3" class="edge">
<title>dir_c5adcac0dad4fd3c0e6e6b5ea3efe6f7&#45;&gt;dir_642992c390f4111062490d0864235fba</title>
<g id="a_edge3"><a xlink:href="dir_000063_000031.html" target="_top">
<path fill="none" stroke="#63b8ff" d="M56.68,-72.08C55.7,-65.48 54.33,-56.21 53.08,-47.79"/>
<polygon fill="#63b8ff" stroke="#63b8ff" points="56.55,-47.35 51.63,-37.97 49.63,-48.38 56.55,-47.35"/>
</a>
</g>
<g id="a_edge3&#45;headlabel"><a xlink:href="dir_000063_000031.html" target="_top" xlink:title="1">
<text xml:space="preserve" text-anchor="middle" x="59.67" y="-45.49" font-family="Helvetica,sans-Serif" font-size="10.00" fill="#63b8ff">1</text>
</a>
</g>
</g>
<!-- dir_c5adcac0dad4fd3c0e6e6b5ea3efe6f7&#45;&gt;dir_c4b505f52885608e828b3baedebd7535 -->
<g id="edge6" class="edge">
<title>dir_c5adcac0dad4fd3c0e6e6b5ea3efe6f7&#45;&gt;dir_c4b505f52885608e828b3baedebd7535</title>
<g id="a_edge6"><a xlink:href="dir_000063_000013.html" target="_top">
<path fill="none" stroke="#63b8ff" d="M69.56,-72.08C79.61,-64.33 94.43,-52.9 106.63,-43.48"/>
<polygon fill="#63b8ff" stroke="#63b8ff" points="108.74,-46.28 114.52,-37.4 104.46,-40.74 108.74,-46.28"/>
</a>
</g>
<g id="a_edge6&#45;headlabel"><a xlink:href="dir_000063_000013.html" target="_top" xlink:title="5">
<text xml:space="preserve" text-anchor="middle" x="108.82" y="-46.3" font-family="Helvetica,sans-Serif" font-size="10.00" fill="#63b8ff">5</text>
</a>
</g>
</g>
<!-- dir_1eb36676b273c08f950c547eb5d7aef0 -->
<g id="node5" class="node">
<title>dir_1eb36676b273c08f950c547eb5d7aef0</title>
<g id="a_node5"><a xlink:href="dir_1eb36676b273c08f950c547eb5d7aef0.html" target="_top" xlink:title="Character">
<polygon fill="#edf0f7" stroke="#7f7f7f" points="283.38,-36 224.62,-36 224.62,-16 283.38,-16 283.38,-36"/>
<text xml:space="preserve" text-anchor="middle" x="254" y="-22.5" font-family="Helvetica,sans-Serif" font-size="10.00">Character</text>
</a>
</g>
</g>
<!-- dir_c5adcac0dad4fd3c0e6e6b5ea3efe6f7&#45;&gt;dir_1eb36676b273c08f950c547eb5d7aef0 -->
<g id="edge1" class="edge">
<title>dir_c5adcac0dad4fd3c0e6e6b5ea3efe6f7&#45;&gt;dir_1eb36676b273c08f950c547eb5d7aef0</title>
<g id="a_edge1"><a xlink:href="dir_000063_000011.html" target="_top">
<path fill="none" stroke="#63b8ff" d="M78.27,-72.04C85.09,-69.23 92.8,-66.27 100,-64 149.04,-48.51 165.27,-49.29 213.09,-37.91"/>
<polygon fill="#63b8ff" stroke="#63b8ff" points="213.81,-41.34 222.68,-35.56 212.14,-34.54 213.81,-41.34"/>
</a>
</g>
<g id="a_edge1&#45;headlabel"><a xlink:href="dir_000063_000011.html" target="_top" xlink:title="3">
<text xml:space="preserve" text-anchor="middle" x="212.46" y="-41.09" font-family="Helvetica,sans-Serif" font-size="10.00" fill="#63b8ff">3</text>
</a>
</g>
</g>
<!-- dir_3a34954697953f21966b9bd8f56c9d7d -->
<g id="node6" class="node">
<title>dir_3a34954697953f21966b9bd8f56c9d7d</title>
<g id="a_node6"><a xlink:href="dir_3a34954697953f21966b9bd8f56c9d7d.html" target="_top" xlink:title="GAS">
<polygon fill="#edf0f7" stroke="red" stroke-dasharray="5,2" points="338.5,-36 301.5,-36 301.5,-16 338.5,-16 338.5,-36"/>
<text xml:space="preserve" text-anchor="middle" x="320" y="-22.5" font-family="Helvetica,sans-Serif" font-size="10.00">GAS</text>
</a>
</g>
</g>
<!-- dir_c5adcac0dad4fd3c0e6e6b5ea3efe6f7&#45;&gt;dir_3a34954697953f21966b9bd8f56c9d7d -->
<g id="edge2" class="edge">
<title>dir_c5adcac0dad4fd3c0e6e6b5ea3efe6f7&#45;&gt;dir_3a34954697953f21966b9bd8f56c9d7d</title>
<g id="a_edge2"><a xlink:href="dir_000063_000027.html" target="_top">
<path fill="none" stroke="#63b8ff" d="M77.32,-72.05C84.34,-69.1 92.41,-66.06 100,-64 179.82,-42.36 205.86,-54.39 290.02,-36.06"/>
<polygon fill="#63b8ff" stroke="#63b8ff" points="290.69,-39.49 299.67,-33.87 289.14,-32.67 290.69,-39.49"/>
</a>
</g>
<g id="a_edge2&#45;headlabel"><a xlink:href="dir_000063_000027.html" target="_top" xlink:title="1">
<text xml:space="preserve" text-anchor="middle" x="289.29" y="-39.22" font-family="Helvetica,sans-Serif" font-size="10.00" fill="#63b8ff">1</text>
</a>
</g>
</g>
<!-- dir_835db7cc60e52a26a89059f64164cf8e -->
<g id="node7" class="node">
<title>dir_835db7cc60e52a26a89059f64164cf8e</title>
<g id="a_node7"><a xlink:href="dir_835db7cc60e52a26a89059f64164cf8e.html" target="_top" xlink:title="Skill">
<polygon fill="#edf0f7" stroke="red" stroke-dasharray="5,2" points="391.38,-36 356.62,-36 356.62,-16 391.38,-16 391.38,-36"/>
<text xml:space="preserve" text-anchor="middle" x="374" y="-22.5" font-family="Helvetica,sans-Serif" font-size="10.00">Skill</text>
</a>
</g>
</g>
<!-- dir_c5adcac0dad4fd3c0e6e6b5ea3efe6f7&#45;&gt;dir_835db7cc60e52a26a89059f64164cf8e -->
<g id="edge4" class="edge">
<title>dir_c5adcac0dad4fd3c0e6e6b5ea3efe6f7&#45;&gt;dir_835db7cc60e52a26a89059f64164cf8e</title>
<g id="a_edge4"><a xlink:href="dir_000063_000056.html" target="_top">
<path fill="none" stroke="#63b8ff" d="M76.87,-72.09C83.98,-69.07 92.22,-65.97 100,-64 204.05,-37.6 237.66,-59.03 345.25,-36.16"/>
<polygon fill="#63b8ff" stroke="#63b8ff" points="345.76,-39.63 354.77,-34.05 344.25,-32.8 345.76,-39.63"/>
</a>
</g>
<g id="a_edge4&#45;headlabel"><a xlink:href="dir_000063_000056.html" target="_top" xlink:title="2">
<text xml:space="preserve" text-anchor="middle" x="344.35" y="-39.35" font-family="Helvetica,sans-Serif" font-size="10.00" fill="#63b8ff">2</text>
</a>
</g>
</g>
<!-- dir_ad35c7fc4aea2ef35443e05a44b4fdd0 -->
<g id="node8" class="node">
<title>dir_ad35c7fc4aea2ef35443e05a44b4fdd0</title>
<g id="a_node8"><a xlink:href="dir_ad35c7fc4aea2ef35443e05a44b4fdd0.html" target="_top" xlink:title="Item">
<polygon fill="#edf0f7" stroke="red" stroke-dasharray="5,2" points="444.75,-36 409.25,-36 409.25,-16 444.75,-16 444.75,-36"/>
<text xml:space="preserve" text-anchor="middle" x="427" y="-22.5" font-family="Helvetica,sans-Serif" font-size="10.00">Item</text>
</a>
</g>
</g>
<!-- dir_c5adcac0dad4fd3c0e6e6b5ea3efe6f7&#45;&gt;dir_ad35c7fc4aea2ef35443e05a44b4fdd0 -->
<g id="edge5" class="edge">
<title>dir_c5adcac0dad4fd3c0e6e6b5ea3efe6f7&#45;&gt;dir_ad35c7fc4aea2ef35443e05a44b4fdd0</title>
<g id="a_edge5"><a xlink:href="dir_000063_000033.html" target="_top">
<path fill="none" stroke="#63b8ff" d="M76.85,-72.01C83.95,-68.98 92.2,-65.9 100,-64 226.55,-33.19 266.76,-61.91 397.6,-35.99"/>
<polygon fill="#63b8ff" stroke="#63b8ff" points="398.29,-39.43 407.37,-33.98 396.87,-32.57 398.29,-39.43"/>
</a>
</g>
<g id="a_edge5&#45;headlabel"><a xlink:href="dir_000063_000033.html" target="_top" xlink:title="2">
<text xml:space="preserve" text-anchor="middle" x="396.82" y="-39.13" font-family="Helvetica,sans-Serif" font-size="10.00" fill="#63b8ff">2</text>
</a>
</g>
</g>
<!-- dir_f22fd1b86d2ec4bdf99b8a7c93a2cb4b -->
<g id="node9" class="node">
<title>dir_f22fd1b86d2ec4bdf99b8a7c93a2cb4b</title>
<g id="a_node9"><a xlink:href="dir_f22fd1b86d2ec4bdf99b8a7c93a2cb4b.html" target="_top" xlink:title="Data">
<polygon fill="#edf0f7" stroke="red" stroke-dasharray="5,2" points="499.5,-36 462.5,-36 462.5,-16 499.5,-16 499.5,-36"/>
<text xml:space="preserve" text-anchor="middle" x="481" y="-22.5" font-family="Helvetica,sans-Serif" font-size="10.00">Data</text>
</a>
</g>
</g>
<!-- dir_c5adcac0dad4fd3c0e6e6b5ea3efe6f7&#45;&gt;dir_f22fd1b86d2ec4bdf99b8a7c93a2cb4b -->
<g id="edge7" class="edge">
<title>dir_c5adcac0dad4fd3c0e6e6b5ea3efe6f7&#45;&gt;dir_f22fd1b86d2ec4bdf99b8a7c93a2cb4b</title>
<g id="a_edge7"><a xlink:href="dir_000063_000018.html" target="_top">
<path fill="none" stroke="#63b8ff" d="M76.42,-72.12C83.61,-69.04 92.04,-65.88 100,-64 250,-28.6 297.13,-65.59 451.01,-36.13"/>
<polygon fill="#63b8ff" stroke="#63b8ff" points="451.67,-39.56 460.79,-34.18 450.3,-32.7 451.67,-39.56"/>
</a>
</g>
<g id="a_edge7&#45;headlabel"><a xlink:href="dir_000063_000018.html" target="_top" xlink:title="3">
<text xml:space="preserve" text-anchor="middle" x="450.18" y="-39.25" font-family="Helvetica,sans-Serif" font-size="10.00" fill="#63b8ff">3</text>
</a>
</g>
</g>
<!-- dir_4b05aa077c314c601ad645fc6abf864c -->
<g id="node4" class="node">
<title>dir_4b05aa077c314c601ad645fc6abf864c</title>
<g id="a_node4"><a xlink:href="dir_4b05aa077c314c601ad645fc6abf864c.html" target="_top" xlink:title="WorldSubSystem">
<polygon fill="#a2b4d6" stroke="#404040" points="200.88,-92 109.12,-92 109.12,-72 200.88,-72 200.88,-92"/>
<text xml:space="preserve" text-anchor="middle" x="155" y="-78.5" font-family="Helvetica,sans-Serif" font-size="10.00">WorldSubSystem</text>
</a>
</g>
</g>
<!-- dir_4b05aa077c314c601ad645fc6abf864c&#45;&gt;dir_f22fd1b86d2ec4bdf99b8a7c93a2cb4b -->
<g id="edge9" class="edge">
<title>dir_4b05aa077c314c601ad645fc6abf864c&#45;&gt;dir_f22fd1b86d2ec4bdf99b8a7c93a2cb4b</title>
<g id="a_edge9"><a xlink:href="dir_000072_000018.html" target="_top">
<path fill="none" stroke="#63b8ff" d="M201.32,-76.53C258.24,-70.5 357.86,-58.15 451.19,-36.35"/>
<polygon fill="#63b8ff" stroke="#63b8ff" points="451.85,-39.79 460.77,-34.06 450.23,-32.98 451.85,-39.79"/>
</a>
</g>
<g id="a_edge9&#45;headlabel"><a xlink:href="dir_000072_000018.html" target="_top" xlink:title="1">
<text xml:space="preserve" text-anchor="middle" x="450.48" y="-39.53" font-family="Helvetica,sans-Serif" font-size="10.00" fill="#63b8ff">1</text>
</a>
</g>
</g>
<!-- dir_afd4929045c9ece13bdaf7ce47ec67c0 -->
<g id="node10" class="node">
<title>dir_afd4929045c9ece13bdaf7ce47ec67c0</title>
<g id="a_node10"><a xlink:href="dir_afd4929045c9ece13bdaf7ce47ec67c0.html" target="_top" xlink:title="AI">
<polygon fill="#edf0f7" stroke="red" stroke-dasharray="5,2" points="546.4,-36 517.6,-36 517.6,-16 546.4,-16 546.4,-36"/>
<text xml:space="preserve" text-anchor="middle" x="532" y="-22.5" font-family="Helvetica,sans-Serif" font-size="10.00">AI</text>
</a>
</g>
</g>
<!-- dir_4b05aa077c314c601ad645fc6abf864c&#45;&gt;dir_afd4929045c9ece13bdaf7ce47ec67c0 -->
<g id="edge8" class="edge">
<title>dir_4b05aa077c314c601ad645fc6abf864c&#45;&gt;dir_afd4929045c9ece13bdaf7ce47ec67c0</title>
<g id="a_edge8"><a xlink:href="dir_000072_000005.html" target="_top">
<path fill="none" stroke="#63b8ff" d="M201.22,-78.76C267.33,-74.77 392.65,-64.28 506.59,-36.05"/>
<polygon fill="#63b8ff" stroke="#63b8ff" points="507.28,-39.49 516.11,-33.64 505.56,-32.7 507.28,-39.49"/>
</a>
</g>
<g id="a_edge8&#45;headlabel"><a xlink:href="dir_000072_000005.html" target="_top" xlink:title="1">
<text xml:space="preserve" text-anchor="middle" x="505.96" y="-39.25" font-family="Helvetica,sans-Serif" font-size="10.00" fill="#63b8ff">1</text>
</a>
</g>
</g>
</g>
</svg>
