<?xml version="1.0" encoding="UTF-8" standalone="no"?>
<!DOCTYPE svg PUBLIC "-//W3C//DTD SVG 1.1//EN"
 "http://www.w3.org/Graphics/SVG/1.1/DTD/svg11.dtd">
<!-- Generated by graphviz version 13.1.1 (20250719.2154)
 -->
<!-- Title: C:/Users/user/Perforce/alz7_CobaltbruWorkspace_00/KPT/Source/KPT/Core Pages: 1 -->
<svg width="583pt" height="320pt"
 viewBox="0.00 0.00 583.00 320.00" xmlns="http://www.w3.org/2000/svg" xmlns:xlink="http://www.w3.org/1999/xlink">
<g id="graph0" class="graph" transform="scale(1 1) rotate(0) translate(4 316)">
<title>C:/Users/user/Perforce/alz7_CobaltbruWorkspace_00/KPT/Source/KPT/Core</title>
<g id="clust1" class="cluster">
<title>clusterdir_def50d448366cfe38104feea5fe71f1d</title>
<g id="a_clust1"><a xlink:href="dir_def50d448366cfe38104feea5fe71f1d.html" target="_top" xlink:title="KPT">
<polygon fill="#edf0f7" stroke="#7f7f7f" stroke-dasharray="5,2" points="8,-8 8,-304 567,-304 567,-8 8,-8"/>
<text xml:space="preserve" text-anchor="middle" x="287.5" y="-290.5" font-family="Helvetica,sans-Serif" font-size="10.00">KPT</text>
</a>
</g>
</g>
<g id="clust2" class="cluster">
<title>clusterdir_9d0f275b41fa002800a89310ba1ebe25</title>
<g id="a_clust2"><a xlink:href="dir_9d0f275b41fa002800a89310ba1ebe25.html" target="_top">
<polygon fill="#edf0f7" stroke="#404040" stroke-width="2" points="158,-16 158,-276 332,-276 332,-16 158,-16"/>
</a>
</g>
</g>
<!-- dir_03a35ccb76f34b0c5c973a49dad1c475 -->
<g id="node1" class="node">
<title>dir_03a35ccb76f34b0c5c973a49dad1c475</title>
<g id="a_node1"><a xlink:href="dir_03a35ccb76f34b0c5c973a49dad1c475.html" target="_top" xlink:title="UI">
<polygon fill="#a2b4d6" stroke="red" points="371.4,-212 342.6,-212 342.6,-192 371.4,-192 371.4,-212"/>
<text xml:space="preserve" text-anchor="middle" x="357" y="-198.5" font-family="Helvetica,sans-Serif" font-size="10.00">UI</text>
</a>
</g>
</g>
<!-- dir_1eb36676b273c08f950c547eb5d7aef0 -->
<g id="node2" class="node">
<title>dir_1eb36676b273c08f950c547eb5d7aef0</title>
<g id="a_node2"><a xlink:href="dir_1eb36676b273c08f950c547eb5d7aef0.html" target="_top" xlink:title="Character">
<polygon fill="#a2b4d6" stroke="#404040" points="454.38,-44 395.62,-44 395.62,-24 454.38,-24 454.38,-44"/>
<text xml:space="preserve" text-anchor="middle" x="425" y="-30.5" font-family="Helvetica,sans-Serif" font-size="10.00">Character</text>
</a>
</g>
</g>
<!-- dir_3a34954697953f21966b9bd8f56c9d7d -->
<g id="node3" class="node">
<title>dir_3a34954697953f21966b9bd8f56c9d7d</title>
<g id="a_node3"><a xlink:href="dir_3a34954697953f21966b9bd8f56c9d7d.html" target="_top" xlink:title="GAS">
<polygon fill="#a2b4d6" stroke="red" points="509.5,-44 472.5,-44 472.5,-24 509.5,-24 509.5,-44"/>
<text xml:space="preserve" text-anchor="middle" x="491" y="-30.5" font-family="Helvetica,sans-Serif" font-size="10.00">GAS</text>
</a>
</g>
</g>
<!-- dir_7fe1f4c45c7382f0c55888ccca583677 -->
<g id="node4" class="node">
<title>dir_7fe1f4c45c7382f0c55888ccca583677</title>
<g id="a_node4"><a xlink:href="dir_7fe1f4c45c7382f0c55888ccca583677.html" target="_top" xlink:title="Input">
<polygon fill="#a2b4d6" stroke="#404040" points="466.88,-212 429.12,-212 429.12,-192 466.88,-192 466.88,-212"/>
<text xml:space="preserve" text-anchor="middle" x="448" y="-198.5" font-family="Helvetica,sans-Serif" font-size="10.00">Input</text>
</a>
</g>
</g>
<!-- dir_835db7cc60e52a26a89059f64164cf8e -->
<g id="node5" class="node">
<title>dir_835db7cc60e52a26a89059f64164cf8e</title>
<g id="a_node5"><a xlink:href="dir_835db7cc60e52a26a89059f64164cf8e.html" target="_top" xlink:title="Skill">
<polygon fill="#a2b4d6" stroke="red" points="50.38,-44 15.62,-44 15.62,-24 50.38,-24 50.38,-44"/>
<text xml:space="preserve" text-anchor="middle" x="33" y="-30.5" font-family="Helvetica,sans-Serif" font-size="10.00">Skill</text>
</a>
</g>
</g>
<!-- dir_9fbb650e8ad77b7a894cc27b2d30ac00 -->
<g id="node6" class="node">
<title>dir_9fbb650e8ad77b7a894cc27b2d30ac00</title>
<g id="a_node6"><a xlink:href="dir_9fbb650e8ad77b7a894cc27b2d30ac00.html" target="_top" xlink:title="Manager">
<polygon fill="#a2b4d6" stroke="#404040" points="538.75,-212 485.25,-212 485.25,-192 538.75,-192 538.75,-212"/>
<text xml:space="preserve" text-anchor="middle" x="512" y="-198.5" font-family="Helvetica,sans-Serif" font-size="10.00">Manager</text>
</a>
</g>
</g>
<!-- dir_ad35c7fc4aea2ef35443e05a44b4fdd0 -->
<g id="node7" class="node">
<title>dir_ad35c7fc4aea2ef35443e05a44b4fdd0</title>
<g id="a_node7"><a xlink:href="dir_ad35c7fc4aea2ef35443e05a44b4fdd0.html" target="_top" xlink:title="Item">
<polygon fill="#a2b4d6" stroke="red" points="103.75,-44 68.25,-44 68.25,-24 103.75,-24 103.75,-44"/>
<text xml:space="preserve" text-anchor="middle" x="86" y="-30.5" font-family="Helvetica,sans-Serif" font-size="10.00">Item</text>
</a>
</g>
</g>
<!-- dir_f22fd1b86d2ec4bdf99b8a7c93a2cb4b -->
<g id="node8" class="node">
<title>dir_f22fd1b86d2ec4bdf99b8a7c93a2cb4b</title>
<g id="a_node8"><a xlink:href="dir_f22fd1b86d2ec4bdf99b8a7c93a2cb4b.html" target="_top" xlink:title="Data">
<polygon fill="#a2b4d6" stroke="red" points="377.5,-44 340.5,-44 340.5,-24 377.5,-24 377.5,-44"/>
<text xml:space="preserve" text-anchor="middle" x="359" y="-30.5" font-family="Helvetica,sans-Serif" font-size="10.00">Data</text>
</a>
</g>
</g>
<!-- dir_afd4929045c9ece13bdaf7ce47ec67c0 -->
<g id="node9" class="node">
<title>dir_afd4929045c9ece13bdaf7ce47ec67c0</title>
<g id="a_node9"><a xlink:href="dir_afd4929045c9ece13bdaf7ce47ec67c0.html" target="_top" xlink:title="AI">
<polygon fill="#a2b4d6" stroke="red" points="150.4,-44 121.6,-44 121.6,-24 150.4,-24 150.4,-44"/>
<text xml:space="preserve" text-anchor="middle" x="136" y="-30.5" font-family="Helvetica,sans-Serif" font-size="10.00">AI</text>
</a>
</g>
</g>
<!-- dir_9d0f275b41fa002800a89310ba1ebe25 -->
<g id="node10" class="node">
<title>dir_9d0f275b41fa002800a89310ba1ebe25</title>
<text xml:space="preserve" text-anchor="middle" x="256" y="-254.5" font-family="Helvetica,sans-Serif" font-size="10.00">Core</text>
</g>
<!-- dir_9d0f275b41fa002800a89310ba1ebe25&#45;&gt;dir_03a35ccb76f34b0c5c973a49dad1c475 -->
<g id="edge1" class="edge">
<title>dir_9d0f275b41fa002800a89310ba1ebe25&#45;&gt;dir_03a35ccb76f34b0c5c973a49dad1c475</title>
<g id="a_edge1"><a xlink:href="dir_000014_000070.html" target="_top">
<path fill="none" stroke="#63b8ff" d="M272.68,-248.08C288.88,-239.42 313.69,-226.16 332.21,-216.26"/>
<polygon fill="#63b8ff" stroke="#63b8ff" points="333.77,-219.39 340.94,-211.59 330.47,-213.22 333.77,-219.39"/>
</a>
</g>
<g id="a_edge1&#45;headlabel"><a xlink:href="dir_000014_000070.html" target="_top" xlink:title="2">
<text xml:space="preserve" text-anchor="middle" x="333.27" y="-219.38" font-family="Helvetica,sans-Serif" font-size="10.00" fill="#63b8ff">2</text>
</a>
</g>
</g>
<!-- dir_9d0f275b41fa002800a89310ba1ebe25&#45;&gt;dir_1eb36676b273c08f950c547eb5d7aef0 -->
<g id="edge2" class="edge">
<title>dir_9d0f275b41fa002800a89310ba1ebe25&#45;&gt;dir_1eb36676b273c08f950c547eb5d7aef0</title>
<g id="a_edge2"><a xlink:href="dir_000014_000011.html" target="_top">
<path fill="none" stroke="#63b8ff" d="M274.31,-251.12C310.52,-239.44 388.02,-214.26 390,-212 429.21,-167.38 429.54,-91.74 427.07,-55.52"/>
<polygon fill="#63b8ff" stroke="#63b8ff" points="430.59,-55.65 426.27,-45.98 423.62,-56.23 430.59,-55.65"/>
</a>
</g>
<g id="a_edge2&#45;headlabel"><a xlink:href="dir_000014_000011.html" target="_top" xlink:title="13">
<text xml:space="preserve" text-anchor="middle" x="433.6" y="-53.98" font-family="Helvetica,sans-Serif" font-size="10.00" fill="#63b8ff">13</text>
</a>
</g>
</g>
<!-- dir_9d0f275b41fa002800a89310ba1ebe25&#45;&gt;dir_3a34954697953f21966b9bd8f56c9d7d -->
<g id="edge3" class="edge">
<title>dir_9d0f275b41fa002800a89310ba1ebe25&#45;&gt;dir_3a34954697953f21966b9bd8f56c9d7d</title>
<g id="a_edge3"><a xlink:href="dir_000014_000027.html" target="_top">
<path fill="none" stroke="#63b8ff" d="M274.25,-250.63C277.47,-249.65 280.81,-248.72 284,-248 341.74,-234.89 509.06,-256.61 548,-212 589.14,-164.87 535.34,-87.67 506.75,-52.93"/>
<polygon fill="#63b8ff" stroke="#63b8ff" points="509.57,-50.84 500.44,-45.47 504.23,-55.37 509.57,-50.84"/>
</a>
</g>
<g id="a_edge3&#45;headlabel"><a xlink:href="dir_000014_000027.html" target="_top" xlink:title="5">
<text xml:space="preserve" text-anchor="middle" x="513.08" y="-47.1" font-family="Helvetica,sans-Serif" font-size="10.00" fill="#63b8ff">5</text>
</a>
</g>
</g>
<!-- dir_9d0f275b41fa002800a89310ba1ebe25&#45;&gt;dir_7fe1f4c45c7382f0c55888ccca583677 -->
<g id="edge6" class="edge">
<title>dir_9d0f275b41fa002800a89310ba1ebe25&#45;&gt;dir_7fe1f4c45c7382f0c55888ccca583677</title>
<g id="a_edge6"><a xlink:href="dir_000014_000030.html" target="_top">
<path fill="none" stroke="#63b8ff" d="M274.34,-250.98C277.55,-249.96 280.87,-248.93 284,-248 290.51,-246.06 372.37,-223.67 417.91,-211.22"/>
<polygon fill="#63b8ff" stroke="#63b8ff" points="418.72,-214.63 427.45,-208.61 416.88,-207.87 418.72,-214.63"/>
</a>
</g>
<g id="a_edge6&#45;headlabel"><a xlink:href="dir_000014_000030.html" target="_top" xlink:title="2">
<text xml:space="preserve" text-anchor="middle" x="417.46" y="-214.41" font-family="Helvetica,sans-Serif" font-size="10.00" fill="#63b8ff">2</text>
</a>
</g>
</g>
<!-- dir_9d0f275b41fa002800a89310ba1ebe25&#45;&gt;dir_9fbb650e8ad77b7a894cc27b2d30ac00 -->
<g id="edge8" class="edge">
<title>dir_9d0f275b41fa002800a89310ba1ebe25&#45;&gt;dir_9fbb650e8ad77b7a894cc27b2d30ac00</title>
<g id="a_edge8"><a xlink:href="dir_000014_000041.html" target="_top">
<path fill="none" stroke="#63b8ff" d="M274.28,-250.76C277.5,-249.77 280.83,-248.8 284,-248 364.71,-227.55 389.19,-230.26 473.73,-212.37"/>
<polygon fill="#63b8ff" stroke="#63b8ff" points="474.4,-215.8 483.43,-210.27 472.92,-208.96 474.4,-215.8"/>
</a>
</g>
<g id="a_edge8&#45;headlabel"><a xlink:href="dir_000014_000041.html" target="_top" xlink:title="2">
<text xml:space="preserve" text-anchor="middle" x="472.96" y="-215.52" font-family="Helvetica,sans-Serif" font-size="10.00" fill="#63b8ff">2</text>
</a>
</g>
</g>
<!-- dir_9d0f275b41fa002800a89310ba1ebe25&#45;&gt;dir_f22fd1b86d2ec4bdf99b8a7c93a2cb4b -->
<g id="edge11" class="edge">
<title>dir_9d0f275b41fa002800a89310ba1ebe25&#45;&gt;dir_f22fd1b86d2ec4bdf99b8a7c93a2cb4b</title>
<g id="a_edge11"><a xlink:href="dir_000014_000018.html" target="_top">
<path fill="none" stroke="#63b8ff" d="M274.26,-250.99C307.96,-239.8 376.83,-216.52 380,-212 413.83,-163.74 385.69,-89.31 369.07,-54.37"/>
<polygon fill="#63b8ff" stroke="#63b8ff" points="372.24,-52.88 364.66,-45.48 365.97,-56 372.24,-52.88"/>
</a>
</g>
<g id="a_edge11&#45;headlabel"><a xlink:href="dir_000014_000018.html" target="_top" xlink:title="6">
<text xml:space="preserve" text-anchor="middle" x="375.71" y="-49.98" font-family="Helvetica,sans-Serif" font-size="10.00" fill="#63b8ff">6</text>
</a>
</g>
</g>
<!-- dir_6dfacbff760311bb6497920edb2da385 -->
<g id="node11" class="node">
<title>dir_6dfacbff760311bb6497920edb2da385</title>
<g id="a_node11"><a xlink:href="dir_6dfacbff760311bb6497920edb2da385.html" target="_top" xlink:title="Cheat">
<polygon fill="#a2b4d6" stroke="#404040" points="324.12,-212 281.88,-212 281.88,-192 324.12,-192 324.12,-212"/>
<text xml:space="preserve" text-anchor="middle" x="303" y="-198.5" font-family="Helvetica,sans-Serif" font-size="10.00">Cheat</text>
</a>
</g>
</g>
<!-- dir_9d0f275b41fa002800a89310ba1ebe25&#45;&gt;dir_6dfacbff760311bb6497920edb2da385 -->
<g id="edge5" class="edge">
<title>dir_9d0f275b41fa002800a89310ba1ebe25&#45;&gt;dir_6dfacbff760311bb6497920edb2da385</title>
<g id="a_edge5"><a xlink:href="dir_000014_000012.html" target="_top">
<path fill="none" stroke="#63b8ff" d="M263.76,-248.08C270.18,-240.71 279.48,-230.02 287.43,-220.89"/>
<polygon fill="#63b8ff" stroke="#63b8ff" points="289.83,-223.46 293.76,-213.62 284.55,-218.86 289.83,-223.46"/>
</a>
</g>
<g id="a_edge5&#45;headlabel"><a xlink:href="dir_000014_000012.html" target="_top" xlink:title="1">
<text xml:space="preserve" text-anchor="middle" x="290.61" y="-223.39" font-family="Helvetica,sans-Serif" font-size="10.00" fill="#63b8ff">1</text>
</a>
</g>
</g>
<!-- dir_c4b505f52885608e828b3baedebd7535 -->
<g id="node12" class="node">
<title>dir_c4b505f52885608e828b3baedebd7535</title>
<g id="a_node12"><a xlink:href="dir_c4b505f52885608e828b3baedebd7535.html" target="_top" xlink:title="Component">
<polygon fill="#a2b4d6" stroke="#404040" points="309.12,-156 242.88,-156 242.88,-136 309.12,-136 309.12,-156"/>
<text xml:space="preserve" text-anchor="middle" x="276" y="-142.5" font-family="Helvetica,sans-Serif" font-size="10.00">Component</text>
</a>
</g>
</g>
<!-- dir_9d0f275b41fa002800a89310ba1ebe25&#45;&gt;dir_c4b505f52885608e828b3baedebd7535 -->
<g id="edge9" class="edge">
<title>dir_9d0f275b41fa002800a89310ba1ebe25&#45;&gt;dir_c4b505f52885608e828b3baedebd7535</title>
<g id="a_edge9"><a xlink:href="dir_000014_000013.html" target="_top">
<path fill="none" stroke="#63b8ff" d="M243.94,-248.01C229.01,-235.7 206.73,-212.76 217,-192 223.19,-179.5 234.7,-169.52 245.92,-162.17"/>
<polygon fill="#63b8ff" stroke="#63b8ff" points="247.49,-165.31 254.27,-157.17 243.89,-159.31 247.49,-165.31"/>
</a>
</g>
<g id="a_edge9&#45;headlabel"><a xlink:href="dir_000014_000013.html" target="_top" xlink:title="19">
<text xml:space="preserve" text-anchor="middle" x="247.16" y="-165.32" font-family="Helvetica,sans-Serif" font-size="10.00" fill="#63b8ff">19</text>
</a>
</g>
</g>
<!-- dir_642992c390f4111062490d0864235fba -->
<g id="node13" class="node">
<title>dir_642992c390f4111062490d0864235fba</title>
<g id="a_node13"><a xlink:href="dir_642992c390f4111062490d0864235fba.html" target="_top" xlink:title="Interface">
<polygon fill="#a2b4d6" stroke="#404040" points="250.12,-44 195.88,-44 195.88,-24 250.12,-24 250.12,-44"/>
<text xml:space="preserve" text-anchor="middle" x="223" y="-30.5" font-family="Helvetica,sans-Serif" font-size="10.00">Interface</text>
</a>
</g>
</g>
<!-- dir_9d0f275b41fa002800a89310ba1ebe25&#45;&gt;dir_642992c390f4111062490d0864235fba -->
<g id="edge4" class="edge">
<title>dir_9d0f275b41fa002800a89310ba1ebe25&#45;&gt;dir_642992c390f4111062490d0864235fba</title>
<g id="a_edge4"><a xlink:href="dir_000014_000031.html" target="_top">
<path fill="none" stroke="#63b8ff" d="M239.83,-248.14C227.18,-240.33 210.24,-227.75 201,-212 175.4,-168.39 185.46,-150.37 181,-100 180.22,-91.15 177.74,-88.27 181,-80 185.26,-69.19 193.47,-59.45 201.51,-51.82"/>
<polygon fill="#63b8ff" stroke="#63b8ff" points="203.62,-54.63 208.84,-45.41 199.01,-49.36 203.62,-54.63"/>
</a>
</g>
<g id="a_edge4&#45;headlabel"><a xlink:href="dir_000014_000031.html" target="_top" xlink:title="8">
<text xml:space="preserve" text-anchor="middle" x="203.92" y="-54.64" font-family="Helvetica,sans-Serif" font-size="10.00" fill="#63b8ff">8</text>
</a>
</g>
</g>
<!-- dir_9273e90ec4cb183203c688288c4e7e67 -->
<g id="node14" class="node">
<title>dir_9273e90ec4cb183203c688288c4e7e67</title>
<g id="a_node14"><a xlink:href="dir_9273e90ec4cb183203c688288c4e7e67.html" target="_top" xlink:title="Save">
<polygon fill="#a2b4d6" stroke="#404040" points="264.25,-212 225.75,-212 225.75,-192 264.25,-192 264.25,-212"/>
<text xml:space="preserve" text-anchor="middle" x="245" y="-198.5" font-family="Helvetica,sans-Serif" font-size="10.00">Save</text>
</a>
</g>
</g>
<!-- dir_9d0f275b41fa002800a89310ba1ebe25&#45;&gt;dir_9273e90ec4cb183203c688288c4e7e67 -->
<g id="edge7" class="edge">
<title>dir_9d0f275b41fa002800a89310ba1ebe25&#45;&gt;dir_9273e90ec4cb183203c688288c4e7e67</title>
<g id="a_edge7"><a xlink:href="dir_000014_000053.html" target="_top">
<path fill="none" stroke="#63b8ff" d="M254.18,-248.08C252.82,-241.4 250.91,-231.99 249.18,-223.5"/>
<polygon fill="#63b8ff" stroke="#63b8ff" points="252.66,-223.06 247.23,-213.96 245.8,-224.46 252.66,-223.06"/>
</a>
</g>
<g id="a_edge7&#45;headlabel"><a xlink:href="dir_000014_000053.html" target="_top" xlink:title="1">
<text xml:space="preserve" text-anchor="middle" x="255.86" y="-221.03" font-family="Helvetica,sans-Serif" font-size="10.00" fill="#63b8ff">1</text>
</a>
</g>
</g>
<!-- dir_c5adcac0dad4fd3c0e6e6b5ea3efe6f7 -->
<g id="node15" class="node">
<title>dir_c5adcac0dad4fd3c0e6e6b5ea3efe6f7</title>
<g id="a_node15"><a xlink:href="dir_c5adcac0dad4fd3c0e6e6b5ea3efe6f7.html" target="_top" xlink:title="SubSystem">
<polygon fill="#a2b4d6" stroke="#404040" points="256.5,-100 189.5,-100 189.5,-80 256.5,-80 256.5,-100"/>
<text xml:space="preserve" text-anchor="middle" x="223" y="-86.5" font-family="Helvetica,sans-Serif" font-size="10.00">SubSystem</text>
</a>
</g>
</g>
<!-- dir_9d0f275b41fa002800a89310ba1ebe25&#45;&gt;dir_c5adcac0dad4fd3c0e6e6b5ea3efe6f7 -->
<g id="edge10" class="edge">
<title>dir_9d0f275b41fa002800a89310ba1ebe25&#45;&gt;dir_c5adcac0dad4fd3c0e6e6b5ea3efe6f7</title>
<g id="a_edge10"><a xlink:href="dir_000014_000063.html" target="_top">
<path fill="none" stroke="#63b8ff" d="M242.21,-248.19C231.17,-240.24 216.5,-227.45 210,-212 195.92,-178.53 206.61,-135.46 215.15,-110.77"/>
<polygon fill="#63b8ff" stroke="#63b8ff" points="218.33,-112.26 218.53,-101.66 211.77,-109.82 218.33,-112.26"/>
</a>
</g>
<g id="a_edge10&#45;headlabel"><a xlink:href="dir_000014_000063.html" target="_top" xlink:title="6">
<text xml:space="preserve" text-anchor="middle" x="220.27" y="-111.7" font-family="Helvetica,sans-Serif" font-size="10.00" fill="#63b8ff">6</text>
</a>
</g>
</g>
<!-- dir_6dfacbff760311bb6497920edb2da385&#45;&gt;dir_1eb36676b273c08f950c547eb5d7aef0 -->
<g id="edge12" class="edge">
<title>dir_6dfacbff760311bb6497920edb2da385&#45;&gt;dir_1eb36676b273c08f950c547eb5d7aef0</title>
<g id="a_edge12"><a xlink:href="dir_000012_000011.html" target="_top">
<path fill="none" stroke="#63b8ff" d="M309.91,-191.6C329.45,-165.01 385.4,-88.89 411.4,-53.5"/>
<polygon fill="#63b8ff" stroke="#63b8ff" points="414.17,-55.65 417.27,-45.52 408.53,-51.5 414.17,-55.65"/>
</a>
</g>
<g id="a_edge12&#45;headlabel"><a xlink:href="dir_000012_000011.html" target="_top" xlink:title="2">
<text xml:space="preserve" text-anchor="middle" x="415.22" y="-55.51" font-family="Helvetica,sans-Serif" font-size="10.00" fill="#63b8ff">2</text>
</a>
</g>
</g>
<!-- dir_6dfacbff760311bb6497920edb2da385&#45;&gt;dir_3a34954697953f21966b9bd8f56c9d7d -->
<g id="edge13" class="edge">
<title>dir_6dfacbff760311bb6497920edb2da385&#45;&gt;dir_3a34954697953f21966b9bd8f56c9d7d</title>
<g id="a_edge13"><a xlink:href="dir_000012_000027.html" target="_top">
<path fill="none" stroke="#63b8ff" d="M313.65,-191.6C344.28,-164.55 432.95,-86.26 472.07,-51.71"/>
<polygon fill="#63b8ff" stroke="#63b8ff" points="474.16,-54.54 479.34,-45.3 469.52,-49.29 474.16,-54.54"/>
</a>
</g>
<g id="a_edge13&#45;headlabel"><a xlink:href="dir_000012_000027.html" target="_top" xlink:title="1">
<text xml:space="preserve" text-anchor="middle" x="474.48" y="-54.55" font-family="Helvetica,sans-Serif" font-size="10.00" fill="#63b8ff">1</text>
</a>
</g>
</g>
<!-- dir_6dfacbff760311bb6497920edb2da385&#45;&gt;dir_835db7cc60e52a26a89059f64164cf8e -->
<g id="edge14" class="edge">
<title>dir_6dfacbff760311bb6497920edb2da385&#45;&gt;dir_835db7cc60e52a26a89059f64164cf8e</title>
<g id="a_edge14"><a xlink:href="dir_000012_000056.html" target="_top">
<path fill="none" stroke="#63b8ff" d="M281.5,-192.89C260.62,-184.68 228.32,-171.08 202,-156 145.21,-123.47 84.06,-76.3 53.23,-51.56"/>
<polygon fill="#63b8ff" stroke="#63b8ff" points="55.49,-48.88 45.51,-45.31 51.09,-54.32 55.49,-48.88"/>
</a>
</g>
<g id="a_edge14&#45;headlabel"><a xlink:href="dir_000012_000056.html" target="_top" xlink:title="3">
<text xml:space="preserve" text-anchor="middle" x="58.89" y="-44.48" font-family="Helvetica,sans-Serif" font-size="10.00" fill="#63b8ff">3</text>
</a>
</g>
</g>
<!-- dir_6dfacbff760311bb6497920edb2da385&#45;&gt;dir_ad35c7fc4aea2ef35443e05a44b4fdd0 -->
<g id="edge15" class="edge">
<title>dir_6dfacbff760311bb6497920edb2da385&#45;&gt;dir_ad35c7fc4aea2ef35443e05a44b4fdd0</title>
<g id="a_edge15"><a xlink:href="dir_000012_000033.html" target="_top">
<path fill="none" stroke="#63b8ff" d="M288.01,-191.61C273.91,-182.69 252.29,-168.77 234,-156 199.89,-132.18 191.23,-126.3 159,-100 139.62,-84.19 118.35,-65.03 103.8,-51.63"/>
<polygon fill="#63b8ff" stroke="#63b8ff" points="106.51,-49.36 96.79,-45.14 101.75,-54.5 106.51,-49.36"/>
</a>
</g>
<g id="a_edge15&#45;headlabel"><a xlink:href="dir_000012_000033.html" target="_top" xlink:title="1">
<text xml:space="preserve" text-anchor="middle" x="109.96" y="-45.2" font-family="Helvetica,sans-Serif" font-size="10.00" fill="#63b8ff">1</text>
</a>
</g>
</g>
<!-- dir_6dfacbff760311bb6497920edb2da385&#45;&gt;dir_c4b505f52885608e828b3baedebd7535 -->
<g id="edge16" class="edge">
<title>dir_6dfacbff760311bb6497920edb2da385&#45;&gt;dir_c4b505f52885608e828b3baedebd7535</title>
<g id="a_edge16"><a xlink:href="dir_000012_000013.html" target="_top">
<path fill="none" stroke="#63b8ff" d="M298.3,-191.59C294.85,-184.7 290.05,-175.1 285.79,-166.57"/>
<polygon fill="#63b8ff" stroke="#63b8ff" points="288.93,-165.03 281.33,-157.65 282.67,-168.16 288.93,-165.03"/>
</a>
</g>
<g id="a_edge16&#45;headlabel"><a xlink:href="dir_000012_000013.html" target="_top" xlink:title="1">
<text xml:space="preserve" text-anchor="middle" x="292.4" y="-162.12" font-family="Helvetica,sans-Serif" font-size="10.00" fill="#63b8ff">1</text>
</a>
</g>
</g>
<!-- dir_c4b505f52885608e828b3baedebd7535&#45;&gt;dir_1eb36676b273c08f950c547eb5d7aef0 -->
<g id="edge17" class="edge">
<title>dir_c4b505f52885608e828b3baedebd7535&#45;&gt;dir_1eb36676b273c08f950c547eb5d7aef0</title>
<g id="a_edge17"><a xlink:href="dir_000013_000011.html" target="_top">
<path fill="none" stroke="#63b8ff" d="M283.05,-135.64C293.62,-122.08 314.74,-96.75 337,-80 353.58,-67.53 374.13,-56.8 391.2,-48.95"/>
<polygon fill="#63b8ff" stroke="#63b8ff" points="392.22,-52.33 399.93,-45.06 389.37,-45.93 392.22,-52.33"/>
</a>
</g>
<g id="a_edge17&#45;headlabel"><a xlink:href="dir_000013_000011.html" target="_top" xlink:title="3">
<text xml:space="preserve" text-anchor="middle" x="391.47" y="-52.27" font-family="Helvetica,sans-Serif" font-size="10.00" fill="#63b8ff">3</text>
</a>
</g>
</g>
<!-- dir_c4b505f52885608e828b3baedebd7535&#45;&gt;dir_3a34954697953f21966b9bd8f56c9d7d -->
<g id="edge18" class="edge">
<title>dir_c4b505f52885608e828b3baedebd7535&#45;&gt;dir_3a34954697953f21966b9bd8f56c9d7d</title>
<g id="a_edge18"><a xlink:href="dir_000013_000027.html" target="_top">
<path fill="none" stroke="#63b8ff" d="M292.7,-135.71C315.93,-122.86 359.36,-99.1 397,-80 418.58,-69.05 443.27,-57.26 461.93,-48.49"/>
<polygon fill="#63b8ff" stroke="#63b8ff" points="463.2,-51.76 470.78,-44.35 460.24,-45.42 463.2,-51.76"/>
</a>
</g>
<g id="a_edge18&#45;headlabel"><a xlink:href="dir_000013_000027.html" target="_top" xlink:title="1">
<text xml:space="preserve" text-anchor="middle" x="462.52" y="-51.71" font-family="Helvetica,sans-Serif" font-size="10.00" fill="#63b8ff">1</text>
</a>
</g>
</g>
<!-- dir_c4b505f52885608e828b3baedebd7535&#45;&gt;dir_f22fd1b86d2ec4bdf99b8a7c93a2cb4b -->
<g id="edge21" class="edge">
<title>dir_c4b505f52885608e828b3baedebd7535&#45;&gt;dir_f22fd1b86d2ec4bdf99b8a7c93a2cb4b</title>
<g id="a_edge21"><a xlink:href="dir_000013_000018.html" target="_top">
<path fill="none" stroke="#63b8ff" d="M280.86,-135.77C287.88,-122.8 301.59,-98.67 316,-80 323.47,-70.32 332.73,-60.42 340.74,-52.37"/>
<polygon fill="#63b8ff" stroke="#63b8ff" points="343.03,-55.02 347.72,-45.52 338.13,-50.02 343.03,-55.02"/>
</a>
</g>
<g id="a_edge21&#45;headlabel"><a xlink:href="dir_000013_000018.html" target="_top" xlink:title="2">
<text xml:space="preserve" text-anchor="middle" x="343.53" y="-55.01" font-family="Helvetica,sans-Serif" font-size="10.00" fill="#63b8ff">2</text>
</a>
</g>
</g>
<!-- dir_c4b505f52885608e828b3baedebd7535&#45;&gt;dir_afd4929045c9ece13bdaf7ce47ec67c0 -->
<g id="edge19" class="edge">
<title>dir_c4b505f52885608e828b3baedebd7535&#45;&gt;dir_afd4929045c9ece13bdaf7ce47ec67c0</title>
<g id="a_edge19"><a xlink:href="dir_000013_000005.html" target="_top">
<path fill="none" stroke="#63b8ff" d="M246.29,-135.52C226.31,-128.1 200.2,-116.3 181,-100 165.97,-87.24 153.64,-68.35 145.72,-54.21"/>
<polygon fill="#63b8ff" stroke="#63b8ff" points="148.83,-52.62 141.04,-45.44 142.66,-55.91 148.83,-52.62"/>
</a>
</g>
<g id="a_edge19&#45;headlabel"><a xlink:href="dir_000013_000005.html" target="_top" xlink:title="1">
<text xml:space="preserve" text-anchor="middle" x="152.32" y="-49.62" font-family="Helvetica,sans-Serif" font-size="10.00" fill="#63b8ff">1</text>
</a>
</g>
</g>
<!-- dir_c4b505f52885608e828b3baedebd7535&#45;&gt;dir_642992c390f4111062490d0864235fba -->
<g id="edge20" class="edge">
<title>dir_c4b505f52885608e828b3baedebd7535&#45;&gt;dir_642992c390f4111062490d0864235fba</title>
<g id="a_edge20"><a xlink:href="dir_000013_000031.html" target="_top">
<path fill="none" stroke="#63b8ff" d="M276.28,-135.65C276.31,-122.53 274.98,-98.23 266,-80 260.74,-69.32 252.05,-59.5 243.85,-51.78"/>
<polygon fill="#63b8ff" stroke="#63b8ff" points="246.28,-49.26 236.46,-45.28 241.66,-54.51 246.28,-49.26"/>
</a>
</g>
<g id="a_edge20&#45;headlabel"><a xlink:href="dir_000013_000031.html" target="_top" xlink:title="5">
<text xml:space="preserve" text-anchor="middle" x="249.72" y="-45" font-family="Helvetica,sans-Serif" font-size="10.00" fill="#63b8ff">5</text>
</a>
</g>
</g>
<!-- dir_c4b505f52885608e828b3baedebd7535&#45;&gt;dir_c5adcac0dad4fd3c0e6e6b5ea3efe6f7 -->
<g id="edge22" class="edge">
<title>dir_c4b505f52885608e828b3baedebd7535&#45;&gt;dir_c5adcac0dad4fd3c0e6e6b5ea3efe6f7</title>
<g id="a_edge22"><a xlink:href="dir_000013_000063.html" target="_top">
<path fill="none" stroke="#63b8ff" d="M261.5,-135.59C252.81,-128.24 242.18,-117.8 234.14,-108.87"/>
<polygon fill="#63b8ff" stroke="#63b8ff" points="236.99,-106.82 227.86,-101.45 231.65,-111.35 236.99,-106.82"/>
</a>
</g>
<g id="a_edge22&#45;headlabel"><a xlink:href="dir_000013_000063.html" target="_top" xlink:title="2">
<text xml:space="preserve" text-anchor="middle" x="240.51" y="-103.07" font-family="Helvetica,sans-Serif" font-size="10.00" fill="#63b8ff">2</text>
</a>
</g>
</g>
<!-- dir_c5adcac0dad4fd3c0e6e6b5ea3efe6f7&#45;&gt;dir_1eb36676b273c08f950c547eb5d7aef0 -->
<g id="edge23" class="edge">
<title>dir_c5adcac0dad4fd3c0e6e6b5ea3efe6f7&#45;&gt;dir_1eb36676b273c08f950c547eb5d7aef0</title>
<g id="a_edge23"><a xlink:href="dir_000063_000011.html" target="_top">
<path fill="none" stroke="#63b8ff" d="M256.81,-79.96C291.93,-70.57 346.87,-55.89 384.34,-45.87"/>
<polygon fill="#63b8ff" stroke="#63b8ff" points="385.14,-49.28 393.9,-43.31 383.33,-42.52 385.14,-49.28"/>
</a>
</g>
<g id="a_edge23&#45;headlabel"><a xlink:href="dir_000063_000011.html" target="_top" xlink:title="3">
<text xml:space="preserve" text-anchor="middle" x="383.86" y="-49.06" font-family="Helvetica,sans-Serif" font-size="10.00" fill="#63b8ff">3</text>
</a>
</g>
</g>
<!-- dir_c5adcac0dad4fd3c0e6e6b5ea3efe6f7&#45;&gt;dir_3a34954697953f21966b9bd8f56c9d7d -->
<g id="edge24" class="edge">
<title>dir_c5adcac0dad4fd3c0e6e6b5ea3efe6f7&#45;&gt;dir_3a34954697953f21966b9bd8f56c9d7d</title>
<g id="a_edge24"><a xlink:href="dir_000063_000027.html" target="_top">
<path fill="none" stroke="#63b8ff" d="M256.96,-80.86C258.32,-80.56 259.67,-80.28 261,-80 346.8,-62.21 372.51,-65.68 461.01,-44.2"/>
<polygon fill="#63b8ff" stroke="#63b8ff" points="461.78,-47.61 470.65,-41.81 460.1,-40.81 461.78,-47.61"/>
</a>
</g>
<g id="a_edge24&#45;headlabel"><a xlink:href="dir_000063_000027.html" target="_top" xlink:title="1">
<text xml:space="preserve" text-anchor="middle" x="460.45" y="-47.37" font-family="Helvetica,sans-Serif" font-size="10.00" fill="#63b8ff">1</text>
</a>
</g>
</g>
<!-- dir_c5adcac0dad4fd3c0e6e6b5ea3efe6f7&#45;&gt;dir_835db7cc60e52a26a89059f64164cf8e -->
<g id="edge26" class="edge">
<title>dir_c5adcac0dad4fd3c0e6e6b5ea3efe6f7&#45;&gt;dir_835db7cc60e52a26a89059f64164cf8e</title>
<g id="a_edge26"><a xlink:href="dir_000063_000056.html" target="_top">
<path fill="none" stroke="#63b8ff" d="M189.21,-80.42C158.19,-72.39 110.75,-59.73 61.67,-44.7"/>
<polygon fill="#63b8ff" stroke="#63b8ff" points="62.89,-41.41 52.3,-41.8 60.82,-48.1 62.89,-41.41"/>
</a>
</g>
<g id="a_edge26&#45;headlabel"><a xlink:href="dir_000063_000056.html" target="_top" xlink:title="2">
<text xml:space="preserve" text-anchor="middle" x="65.71" y="-35.81" font-family="Helvetica,sans-Serif" font-size="10.00" fill="#63b8ff">2</text>
</a>
</g>
</g>
<!-- dir_c5adcac0dad4fd3c0e6e6b5ea3efe6f7&#45;&gt;dir_ad35c7fc4aea2ef35443e05a44b4fdd0 -->
<g id="edge27" class="edge">
<title>dir_c5adcac0dad4fd3c0e6e6b5ea3efe6f7&#45;&gt;dir_ad35c7fc4aea2ef35443e05a44b4fdd0</title>
<g id="a_edge27"><a xlink:href="dir_000063_000033.html" target="_top">
<path fill="none" stroke="#63b8ff" d="M199.14,-79.59C175.6,-70.32 139.62,-56.13 114.57,-46.26"/>
<polygon fill="#63b8ff" stroke="#63b8ff" points="115.91,-43.03 105.33,-42.62 113.35,-49.54 115.91,-43.03"/>
</a>
</g>
<g id="a_edge27&#45;headlabel"><a xlink:href="dir_000063_000033.html" target="_top" xlink:title="2">
<text xml:space="preserve" text-anchor="middle" x="118.89" y="-37.65" font-family="Helvetica,sans-Serif" font-size="10.00" fill="#63b8ff">2</text>
</a>
</g>
</g>
<!-- dir_c5adcac0dad4fd3c0e6e6b5ea3efe6f7&#45;&gt;dir_f22fd1b86d2ec4bdf99b8a7c93a2cb4b -->
<g id="edge29" class="edge">
<title>dir_c5adcac0dad4fd3c0e6e6b5ea3efe6f7&#45;&gt;dir_f22fd1b86d2ec4bdf99b8a7c93a2cb4b</title>
<g id="a_edge29"><a xlink:href="dir_000063_000018.html" target="_top">
<path fill="none" stroke="#63b8ff" d="M246.69,-79.59C269.79,-70.42 304.97,-56.45 329.79,-46.6"/>
<polygon fill="#63b8ff" stroke="#63b8ff" points="330.97,-49.89 338.98,-42.95 328.39,-43.39 330.97,-49.89"/>
</a>
</g>
<g id="a_edge29&#45;headlabel"><a xlink:href="dir_000063_000018.html" target="_top" xlink:title="3">
<text xml:space="preserve" text-anchor="middle" x="330.09" y="-49.8" font-family="Helvetica,sans-Serif" font-size="10.00" fill="#63b8ff">3</text>
</a>
</g>
</g>
<!-- dir_c5adcac0dad4fd3c0e6e6b5ea3efe6f7&#45;&gt;dir_afd4929045c9ece13bdaf7ce47ec67c0 -->
<g id="edge30" class="edge">
<title>dir_c5adcac0dad4fd3c0e6e6b5ea3efe6f7&#45;&gt;dir_afd4929045c9ece13bdaf7ce47ec67c0</title>
<g id="a_edge30"><a xlink:href="dir_000063_000005.html" target="_top">
<path fill="none" stroke="#63b8ff" d="M207.85,-79.59C194.67,-71.41 175.34,-59.42 160.05,-49.93"/>
<polygon fill="#63b8ff" stroke="#63b8ff" points="162.32,-47.22 151.98,-44.92 158.63,-53.16 162.32,-47.22"/>
</a>
</g>
<g id="a_edge30&#45;headlabel"><a xlink:href="dir_000063_000005.html" target="_top" xlink:title="1">
<text xml:space="preserve" text-anchor="middle" x="165.58" y="-42.4" font-family="Helvetica,sans-Serif" font-size="10.00" fill="#63b8ff">1</text>
</a>
</g>
</g>
<!-- dir_c5adcac0dad4fd3c0e6e6b5ea3efe6f7&#45;&gt;dir_c4b505f52885608e828b3baedebd7535 -->
<g id="edge28" class="edge">
<title>dir_c5adcac0dad4fd3c0e6e6b5ea3efe6f7&#45;&gt;dir_c4b505f52885608e828b3baedebd7535</title>
<g id="a_edge28"><a xlink:href="dir_000063_000013.html" target="_top">
<path fill="none" stroke="#63b8ff" d="M237.37,-100.3C246.05,-107.62 256.67,-118.06 264.74,-127"/>
<polygon fill="#63b8ff" stroke="#63b8ff" points="261.92,-129.08 271.06,-134.44 267.25,-124.55 261.92,-129.08"/>
</a>
</g>
<g id="a_edge28&#45;headlabel"><a xlink:href="dir_000063_000013.html" target="_top" xlink:title="5">
<text xml:space="preserve" text-anchor="middle" x="258.4" y="-125.83" font-family="Helvetica,sans-Serif" font-size="10.00" fill="#63b8ff">5</text>
</a>
</g>
</g>
<!-- dir_c5adcac0dad4fd3c0e6e6b5ea3efe6f7&#45;&gt;dir_642992c390f4111062490d0864235fba -->
<g id="edge25" class="edge">
<title>dir_c5adcac0dad4fd3c0e6e6b5ea3efe6f7&#45;&gt;dir_642992c390f4111062490d0864235fba</title>
<g id="a_edge25"><a xlink:href="dir_000063_000031.html" target="_top">
<path fill="none" stroke="#63b8ff" d="M223,-79.59C223,-73.01 223,-63.96 223,-55.73"/>
<polygon fill="#63b8ff" stroke="#63b8ff" points="226.5,-55.81 223,-45.81 219.5,-55.81 226.5,-55.81"/>
</a>
</g>
<g id="a_edge25&#45;headlabel"><a xlink:href="dir_000063_000031.html" target="_top" xlink:title="1">
<text xml:space="preserve" text-anchor="middle" x="229.34" y="-54.39" font-family="Helvetica,sans-Serif" font-size="10.00" fill="#63b8ff">1</text>
</a>
</g>
</g>
<!-- dir_a87536aaa381f6b8cf61c51808d6b209 -->
<g id="node16" class="node">
<title>dir_a87536aaa381f6b8cf61c51808d6b209</title>
<g id="a_node16"><a xlink:href="dir_a87536aaa381f6b8cf61c51808d6b209.html" target="_top" xlink:title="Util">
<polygon fill="#a2b4d6" stroke="#404040" points="323.5,-268 292.5,-268 292.5,-248 323.5,-248 323.5,-268"/>
<text xml:space="preserve" text-anchor="middle" x="308" y="-254.5" font-family="Helvetica,sans-Serif" font-size="10.00">Util</text>
</a>
</g>
</g>
</g>
</svg>
