<?xml version="1.0" encoding="UTF-8" standalone="no"?>
<!DOCTYPE svg PUBLIC "-//W3C//DTD SVG 1.1//EN"
 "http://www.w3.org/Graphics/SVG/1.1/DTD/svg11.dtd">
<!-- Generated by graphviz version 13.1.1 (20250719.2154)
 -->
<!-- Title: 그래픽컬한 클래스 계통도 Pages: 1 -->
<svg width="279pt" height="598pt"
 viewBox="0.00 0.00 279.00 598.00" xmlns="http://www.w3.org/2000/svg" xmlns:xlink="http://www.w3.org/1999/xlink">
<g id="graph0" class="graph" transform="scale(1 1) rotate(0) translate(4 594)">
<title>그래픽컬한 클래스 계통도</title>
<!-- Node0 -->
<g id="Node000000" class="node">
<title>Node0</title>
<g id="a_Node000000"><a xlink:title=" ">
<polygon fill="#e0e0e0" stroke="#999999" points="88,-305 0,-305 0,-285 88,-285 88,-305"/>
<text xml:space="preserve" text-anchor="middle" x="44" y="-291.5" font-family="Helvetica,sans-Serif" font-size="10.00">FTableRowBase</text>
</a>
</g>
</g>
<!-- Node1 -->
<g id="Node000001" class="node">
<title>Node1</title>
<g id="a_Node000001"><a xlink:href="struct_f_b_g_m_data.html" target="_top" xlink:title=" ">
<polygon fill="white" stroke="#666666" points="230.38,-590 164.88,-590 164.88,-570 230.38,-570 230.38,-590"/>
<text xml:space="preserve" text-anchor="middle" x="197.62" y="-576.5" font-family="Helvetica,sans-Serif" font-size="10.00">FBGMData</text>
</a>
</g>
</g>
<!-- Node0&#45;&gt;Node1 -->
<g id="edge64_Node000000_Node000001" class="edge">
<title>Node0&#45;&gt;Node1</title>
<g id="a_edge64_Node000000_Node000001"><a xlink:title=" ">
<path fill="none" stroke="#63b8ff" d="M44.73,-316.88C45.36,-367.51 54.26,-493.51 124,-561 134.77,-571.42 150.52,-576.32 164.6,-578.54"/>
<polygon fill="#63b8ff" stroke="#63b8ff" points="48.23,-316.98 44.72,-306.98 41.23,-316.98 48.23,-316.98"/>
</a>
</g>
</g>
<!-- Node2 -->
<g id="Node000002" class="node">
<title>Node2</title>
<g id="a_Node000002"><a xlink:href="struct_f_card_reward_data.html" target="_top" xlink:title=" ">
<polygon fill="white" stroke="#666666" points="246.5,-552 148.75,-552 148.75,-532 246.5,-532 246.5,-552"/>
<text xml:space="preserve" text-anchor="middle" x="197.62" y="-538.5" font-family="Helvetica,sans-Serif" font-size="10.00">FCardRewardData</text>
</a>
</g>
</g>
<!-- Node0&#45;&gt;Node2 -->
<g id="edge65_Node000000_Node000002" class="edge">
<title>Node0&#45;&gt;Node2</title>
<g id="a_edge65_Node000000_Node000002"><a xlink:title=" ">
<path fill="none" stroke="#63b8ff" d="M46,-316.81C49.29,-362.13 63.42,-466.95 124,-523 130.79,-529.28 139.4,-533.54 148.3,-536.42"/>
<polygon fill="#63b8ff" stroke="#63b8ff" points="49.5,-316.74 45.41,-306.97 42.52,-317.16 49.5,-316.74"/>
</a>
</g>
</g>
<!-- Node3 -->
<g id="Node000003" class="node">
<title>Node3</title>
<g id="a_Node000003"><a xlink:href="struct_f_character_data.html" target="_top" xlink:title=" ">
<polygon fill="white" stroke="#666666" points="240.5,-514 154.75,-514 154.75,-494 240.5,-494 240.5,-514"/>
<text xml:space="preserve" text-anchor="middle" x="197.62" y="-500.5" font-family="Helvetica,sans-Serif" font-size="10.00">FCharacterData</text>
</a>
</g>
</g>
<!-- Node0&#45;&gt;Node3 -->
<g id="edge66_Node000000_Node000003" class="edge">
<title>Node0&#45;&gt;Node3</title>
<g id="a_edge66_Node000000_Node000003"><a xlink:title=" ">
<path fill="none" stroke="#63b8ff" d="M47.66,-316.38C53.74,-355.8 72.33,-440.01 124,-485 132.45,-492.36 143.42,-496.92 154.26,-499.73"/>
<polygon fill="#63b8ff" stroke="#63b8ff" points="51.14,-315.97 46.29,-306.55 44.21,-316.94 51.14,-315.97"/>
</a>
</g>
</g>
<!-- Node4 -->
<g id="Node000004" class="node">
<title>Node4</title>
<g id="a_Node000004"><a xlink:href="struct_f_damage_attach_actor_info_row.html" target="_top" xlink:title=" ">
<polygon fill="white" stroke="#666666" points="271.25,-476 124,-476 124,-456 271.25,-456 271.25,-476"/>
<text xml:space="preserve" text-anchor="middle" x="197.62" y="-462.5" font-family="Helvetica,sans-Serif" font-size="10.00">FDamageAttachActorInfoRow</text>
</a>
</g>
</g>
<!-- Node0&#45;&gt;Node4 -->
<g id="edge67_Node000000_Node000004" class="edge">
<title>Node0&#45;&gt;Node4</title>
<g id="a_edge67_Node000000_Node000004"><a xlink:title=" ">
<path fill="none" stroke="#63b8ff" d="M50.15,-316.45C59.24,-349.58 81.34,-412.94 124,-447 128.28,-450.41 133.11,-453.22 138.19,-455.53"/>
<polygon fill="#63b8ff" stroke="#63b8ff" points="53.55,-315.63 47.66,-306.82 46.77,-317.38 53.55,-315.63"/>
</a>
</g>
</g>
<!-- Node5 -->
<g id="Node000005" class="node">
<title>Node5</title>
<g id="a_Node000005"><a xlink:href="struct_f_item_data_row.html" target="_top" xlink:title=" ">
<polygon fill="white" stroke="#666666" points="239,-438 156.25,-438 156.25,-418 239,-418 239,-438"/>
<text xml:space="preserve" text-anchor="middle" x="197.62" y="-424.5" font-family="Helvetica,sans-Serif" font-size="10.00">FItemDataRow</text>
</a>
</g>
</g>
<!-- Node0&#45;&gt;Node5 -->
<g id="edge68_Node000000_Node000005" class="edge">
<title>Node0&#45;&gt;Node5</title>
<g id="a_edge68_Node000000_Node000005"><a xlink:title=" ">
<path fill="none" stroke="#63b8ff" d="M53.85,-315.84C65.91,-341.67 89.95,-385.18 124,-409 133.4,-415.57 144.92,-419.87 155.99,-422.68"/>
<polygon fill="#63b8ff" stroke="#63b8ff" points="57.06,-314.44 49.78,-306.74 50.67,-317.29 57.06,-314.44"/>
</a>
</g>
</g>
<!-- Node6 -->
<g id="Node000006" class="node">
<title>Node6</title>
<g id="a_Node000006"><a xlink:href="struct_f_level_data_row.html" target="_top" xlink:title=" ">
<polygon fill="white" stroke="#666666" points="240.88,-400 154.38,-400 154.38,-380 240.88,-380 240.88,-400"/>
<text xml:space="preserve" text-anchor="middle" x="197.62" y="-386.5" font-family="Helvetica,sans-Serif" font-size="10.00">FLevelDataRow</text>
</a>
</g>
</g>
<!-- Node0&#45;&gt;Node6 -->
<g id="edge69_Node000000_Node000006" class="edge">
<title>Node0&#45;&gt;Node6</title>
<g id="a_edge69_Node000000_Node000006"><a xlink:title=" ">
<path fill="none" stroke="#63b8ff" d="M59.86,-314.05C74.4,-331.41 98.09,-356.47 124,-371 133.21,-376.16 143.86,-379.96 154.12,-382.74"/>
<polygon fill="#63b8ff" stroke="#63b8ff" points="62.75,-312.05 53.73,-306.5 57.32,-316.47 62.75,-312.05"/>
</a>
</g>
</g>
<!-- Node7 -->
<g id="Node000007" class="node">
<title>Node7</title>
<g id="a_Node000007"><a xlink:href="struct_f_mission_data_table_row.html" target="_top" xlink:title=" ">
<polygon fill="white" stroke="#666666" points="257.75,-362 137.5,-362 137.5,-342 257.75,-342 257.75,-362"/>
<text xml:space="preserve" text-anchor="middle" x="197.62" y="-348.5" font-family="Helvetica,sans-Serif" font-size="10.00">FMissionDataTableRow</text>
</a>
</g>
</g>
<!-- Node0&#45;&gt;Node7 -->
<g id="edge70_Node000000_Node000007" class="edge">
<title>Node0&#45;&gt;Node7</title>
<g id="a_edge70_Node000000_Node000007"><a xlink:title=" ">
<path fill="none" stroke="#63b8ff" d="M74.02,-310.62C88.71,-318.09 106.99,-326.75 124,-333 132.69,-336.19 142.14,-339.07 151.27,-341.57"/>
<polygon fill="#63b8ff" stroke="#63b8ff" points="75.86,-307.63 65.37,-306.13 72.64,-313.84 75.86,-307.63"/>
</a>
</g>
</g>
<!-- Node8 -->
<g id="Node000008" class="node">
<title>Node8</title>
<g id="a_Node000008"><a xlink:href="struct_f_mission_timeline_row.html" target="_top" xlink:title=" ">
<polygon fill="white" stroke="#666666" points="254,-324 141.25,-324 141.25,-304 254,-304 254,-324"/>
<text xml:space="preserve" text-anchor="middle" x="197.62" y="-310.5" font-family="Helvetica,sans-Serif" font-size="10.00">FMissionTimelineRow</text>
</a>
</g>
</g>
<!-- Node0&#45;&gt;Node8 -->
<g id="edge71_Node000000_Node000008" class="edge">
<title>Node0&#45;&gt;Node8</title>
<g id="a_edge71_Node000000_Node000008"><a xlink:title=" ">
<path fill="none" stroke="#63b8ff" d="M99.5,-301.83C112.98,-303.52 127.44,-305.33 140.98,-307.03"/>
<polygon fill="#63b8ff" stroke="#63b8ff" points="100.31,-298.4 89.95,-300.63 99.44,-305.35 100.31,-298.4"/>
</a>
</g>
</g>
<!-- Node9 -->
<g id="Node000009" class="node">
<title>Node9</title>
<g id="a_Node000009"><a xlink:href="struct_f_monster_data.html" target="_top" xlink:title=" ">
<polygon fill="white" stroke="#666666" points="236.75,-286 158.5,-286 158.5,-266 236.75,-266 236.75,-286"/>
<text xml:space="preserve" text-anchor="middle" x="197.62" y="-272.5" font-family="Helvetica,sans-Serif" font-size="10.00">FMonsterData</text>
</a>
</g>
</g>
<!-- Node0&#45;&gt;Node9 -->
<g id="edge72_Node000000_Node000009" class="edge">
<title>Node0&#45;&gt;Node9</title>
<g id="a_edge72_Node000000_Node000009"><a xlink:title=" ">
<path fill="none" stroke="#63b8ff" d="M99.85,-288.13C119.15,-285.71 140.41,-283.04 158.08,-280.83"/>
<polygon fill="#63b8ff" stroke="#63b8ff" points="99.44,-284.65 89.95,-289.37 100.31,-291.6 99.44,-284.65"/>
</a>
</g>
</g>
<!-- Node10 -->
<g id="Node000010" class="node">
<title>Node10</title>
<g id="a_Node000010"><a xlink:href="struct_f_skill_buff_data.html" target="_top" xlink:title=" ">
<polygon fill="white" stroke="#666666" points="237.12,-248 158.12,-248 158.12,-228 237.12,-228 237.12,-248"/>
<text xml:space="preserve" text-anchor="middle" x="197.62" y="-234.5" font-family="Helvetica,sans-Serif" font-size="10.00">FSkillBuffData</text>
</a>
</g>
</g>
<!-- Node0&#45;&gt;Node10 -->
<g id="edge73_Node000000_Node000010" class="edge">
<title>Node0&#45;&gt;Node10</title>
<g id="a_edge73_Node000000_Node000010"><a xlink:title=" ">
<path fill="none" stroke="#63b8ff" d="M74.02,-279.38C88.71,-271.91 106.99,-263.25 124,-257 134.77,-253.04 146.71,-249.56 157.75,-246.7"/>
<polygon fill="#63b8ff" stroke="#63b8ff" points="72.64,-276.16 65.37,-283.87 75.86,-282.37 72.64,-276.16"/>
</a>
</g>
</g>
<!-- Node11 -->
<g id="Node000011" class="node">
<title>Node11</title>
<g id="a_Node000011"><a xlink:href="struct_f_skill_data.html" target="_top" xlink:title=" ">
<polygon fill="white" stroke="#666666" points="228.5,-210 166.75,-210 166.75,-190 228.5,-190 228.5,-210"/>
<text xml:space="preserve" text-anchor="middle" x="197.62" y="-196.5" font-family="Helvetica,sans-Serif" font-size="10.00">FSkillData</text>
</a>
</g>
</g>
<!-- Node0&#45;&gt;Node11 -->
<g id="edge74_Node000000_Node000011" class="edge">
<title>Node0&#45;&gt;Node11</title>
<g id="a_edge74_Node000000_Node000011"><a xlink:title=" ">
<path fill="none" stroke="#63b8ff" d="M59.86,-275.95C74.4,-258.59 98.09,-233.53 124,-219 136.96,-211.73 152.78,-207.17 166.34,-204.35"/>
<polygon fill="#63b8ff" stroke="#63b8ff" points="57.32,-273.53 53.73,-283.5 62.75,-277.95 57.32,-273.53"/>
</a>
</g>
</g>
<!-- Node12 -->
<g id="Node000012" class="node">
<title>Node12</title>
<g id="a_Node000012"><a xlink:href="struct_f_skill_v_f_x_data_row.html" target="_top" xlink:title=" ">
<polygon fill="white" stroke="#666666" points="248.38,-172 146.88,-172 146.88,-152 248.38,-152 248.38,-172"/>
<text xml:space="preserve" text-anchor="middle" x="197.62" y="-158.5" font-family="Helvetica,sans-Serif" font-size="10.00">FSkillVFXDataRow</text>
</a>
</g>
</g>
<!-- Node0&#45;&gt;Node12 -->
<g id="edge75_Node000000_Node000012" class="edge">
<title>Node0&#45;&gt;Node12</title>
<g id="a_edge75_Node000000_Node000012"><a xlink:title=" ">
<path fill="none" stroke="#63b8ff" d="M53.85,-274.16C65.91,-248.33 89.95,-204.82 124,-181 130.73,-176.29 138.54,-172.75 146.5,-170.09"/>
<polygon fill="#63b8ff" stroke="#63b8ff" points="50.67,-272.71 49.78,-283.26 57.06,-275.56 50.67,-272.71"/>
</a>
</g>
</g>
<!-- Node13 -->
<g id="Node000013" class="node">
<title>Node13</title>
<g id="a_Node000013"><a xlink:href="struct_f_stage_data_row.html" target="_top" xlink:title=" ">
<polygon fill="white" stroke="#666666" points="242,-134 153.25,-134 153.25,-114 242,-114 242,-134"/>
<text xml:space="preserve" text-anchor="middle" x="197.62" y="-120.5" font-family="Helvetica,sans-Serif" font-size="10.00">FStageDataRow</text>
</a>
</g>
</g>
<!-- Node0&#45;&gt;Node13 -->
<g id="edge76_Node000000_Node000013" class="edge">
<title>Node0&#45;&gt;Node13</title>
<g id="a_edge76_Node000000_Node000013"><a xlink:title=" ">
<path fill="none" stroke="#63b8ff" d="M50.15,-273.55C59.24,-240.42 81.34,-177.06 124,-143 132.25,-136.41 142.55,-132.09 152.78,-129.26"/>
<polygon fill="#63b8ff" stroke="#63b8ff" points="46.77,-272.62 47.66,-283.18 53.55,-274.37 46.77,-272.62"/>
</a>
</g>
</g>
<!-- Node14 -->
<g id="Node000014" class="node">
<title>Node14</title>
<g id="a_Node000014"><a xlink:href="struct_f_team_level_up_data.html" target="_top" xlink:title="팀 레벨별 성장 데이터를 정의하는 구조체입니다.">
<polygon fill="white" stroke="#666666" points="249.12,-96 146.12,-96 146.12,-76 249.12,-76 249.12,-96"/>
<text xml:space="preserve" text-anchor="middle" x="197.62" y="-82.5" font-family="Helvetica,sans-Serif" font-size="10.00">FTeamLevelUpData</text>
</a>
</g>
</g>
<!-- Node0&#45;&gt;Node14 -->
<g id="edge77_Node000000_Node000014" class="edge">
<title>Node0&#45;&gt;Node14</title>
<g id="a_edge77_Node000000_Node000014"><a xlink:title=" ">
<path fill="none" stroke="#63b8ff" d="M47.66,-273.62C53.74,-234.2 72.33,-149.99 124,-105 130.29,-99.52 137.98,-95.6 145.96,-92.79"/>
<polygon fill="#63b8ff" stroke="#63b8ff" points="44.21,-273.06 46.29,-283.45 51.14,-274.03 44.21,-273.06"/>
</a>
</g>
</g>
<!-- Node15 -->
<g id="Node000015" class="node">
<title>Node15</title>
<g id="a_Node000015"><a xlink:href="struct_f_widget_info_row.html" target="_top" xlink:title=" ">
<polygon fill="white" stroke="#666666" points="242.38,-58 152.88,-58 152.88,-38 242.38,-38 242.38,-58"/>
<text xml:space="preserve" text-anchor="middle" x="197.62" y="-44.5" font-family="Helvetica,sans-Serif" font-size="10.00">FWidgetInfoRow</text>
</a>
</g>
</g>
<!-- Node0&#45;&gt;Node15 -->
<g id="edge78_Node000000_Node000015" class="edge">
<title>Node0&#45;&gt;Node15</title>
<g id="a_edge78_Node000000_Node000015"><a xlink:title=" ">
<path fill="none" stroke="#63b8ff" d="M46,-273.19C49.29,-227.87 63.42,-123.05 124,-67 131.84,-59.74 142.11,-55.18 152.45,-52.34"/>
<polygon fill="#63b8ff" stroke="#63b8ff" points="42.52,-272.84 45.41,-283.03 49.5,-273.26 42.52,-272.84"/>
</a>
</g>
</g>
<!-- Node16 -->
<g id="Node000016" class="node">
<title>Node16</title>
<g id="a_Node000016"><a xlink:href="struct_f_yong_character_data_info.html" target="_top" xlink:title=" ">
<polygon fill="white" stroke="#666666" points="259.62,-20 135.62,-20 135.62,0 259.62,0 259.62,-20"/>
<text xml:space="preserve" text-anchor="middle" x="197.62" y="-6.5" font-family="Helvetica,sans-Serif" font-size="10.00">FYongCharacterDataInfo</text>
</a>
</g>
</g>
<!-- Node0&#45;&gt;Node16 -->
<g id="edge79_Node000000_Node000016" class="edge">
<title>Node0&#45;&gt;Node16</title>
<g id="a_edge79_Node000000_Node000016"><a xlink:title=" ">
<path fill="none" stroke="#63b8ff" d="M44.73,-273.12C45.36,-222.49 54.26,-96.49 124,-29 127.56,-25.56 131.66,-22.72 136.07,-20.38"/>
<polygon fill="#63b8ff" stroke="#63b8ff" points="41.23,-273.02 44.72,-283.02 48.23,-273.02 41.23,-273.02"/>
</a>
</g>
</g>
</g>
</svg>
