<?xml version="1.0" encoding="UTF-8" standalone="no"?>
<!DOCTYPE svg PUBLIC "-//W3C//DTD SVG 1.1//EN"
 "http://www.w3.org/Graphics/SVG/1.1/DTD/svg11.dtd">
<!-- Generated by graphviz version 13.1.1 (20250719.2154)
 -->
<!-- Title: 그래픽컬한 클래스 계통도 Pages: 1 -->
<svg width="311pt" height="90pt"
 viewBox="0.00 0.00 311.00 90.00" xmlns="http://www.w3.org/2000/svg" xmlns:xlink="http://www.w3.org/1999/xlink">
<g id="graph0" class="graph" transform="scale(1 1) rotate(0) translate(4 86)">
<title>그래픽컬한 클래스 계통도</title>
<!-- Node0 -->
<g id="Node000000" class="node">
<title>Node0</title>
<g id="a_Node000000"><a xlink:title=" ">
<polygon fill="#e0e0e0" stroke="#999999" points="139.75,-51 0,-51 0,-31 139.75,-31 139.75,-51"/>
<text xml:space="preserve" text-anchor="middle" x="69.88" y="-37.5" font-family="Helvetica,sans-Serif" font-size="10.00">TStructOpsTypeTraitsBase2</text>
</a>
</g>
</g>
<!-- Node1 -->
<g id="Node000001" class="node">
<title>Node1</title>
<g id="a_Node000001"><a xlink:href="struct_t_struct_ops_type_traits_3_01_f_direction_target_data_01_4.html" target="_top" xlink:title=" ">
<polygon fill="white" stroke="#666666" points="302.75,-82 175.75,-82 175.75,-50 302.75,-50 302.75,-82"/>
<text xml:space="preserve" text-anchor="start" x="183.75" y="-68.5" font-family="Helvetica,sans-Serif" font-size="10.00">TStructOpsTypeTraits</text>
<text xml:space="preserve" text-anchor="middle" x="239.25" y="-56.5" font-family="Helvetica,sans-Serif" font-size="10.00">&lt; FDirectionTargetData &gt;</text>
</a>
</g>
</g>
<!-- Node0&#45;&gt;Node1 -->
<g id="edge83_Node000000_Node000001" class="edge">
<title>Node0&#45;&gt;Node1</title>
<g id="a_edge83_Node000000_Node000001"><a xlink:title=" ">
<path fill="none" stroke="#63b8ff" d="M151.26,-53.01C159.32,-54.21 167.42,-55.42 175.27,-56.59"/>
<polygon fill="#63b8ff" stroke="#63b8ff" points="151.82,-49.55 141.42,-51.54 150.79,-56.48 151.82,-49.55"/>
</a>
</g>
</g>
<!-- Node2 -->
<g id="Node000002" class="node">
<title>Node2</title>
<g id="a_Node000002"><a xlink:href="struct_t_struct_ops_type_traits_3_01_f_vector_quantized2_d_01_4.html" target="_top" xlink:title=" ">
<polygon fill="white" stroke="#666666" points="301.62,-32 176.88,-32 176.88,0 301.62,0 301.62,-32"/>
<text xml:space="preserve" text-anchor="start" x="184.88" y="-18.5" font-family="Helvetica,sans-Serif" font-size="10.00">TStructOpsTypeTraits</text>
<text xml:space="preserve" text-anchor="middle" x="239.25" y="-6.5" font-family="Helvetica,sans-Serif" font-size="10.00">&lt; FVectorQuantized2D &gt;</text>
</a>
</g>
</g>
<!-- Node0&#45;&gt;Node2 -->
<g id="edge84_Node000000_Node000002" class="edge">
<title>Node0&#45;&gt;Node2</title>
<g id="a_edge84_Node000000_Node000002"><a xlink:title=" ">
<path fill="none" stroke="#63b8ff" d="M151.12,-29.01C159.68,-27.74 168.3,-26.45 176.6,-25.21"/>
<polygon fill="#63b8ff" stroke="#63b8ff" points="150.79,-25.52 141.42,-30.46 151.82,-32.45 150.79,-25.52"/>
</a>
</g>
</g>
</g>
</svg>
