<?xml version="1.0" encoding="UTF-8" standalone="no"?>
<!DOCTYPE svg PUBLIC "-//W3C//DTD SVG 1.1//EN"
 "http://www.w3.org/Graphics/SVG/1.1/DTD/svg11.dtd">
<!-- Generated by graphviz version 13.1.1 (20250719.2154)
 -->
<!-- Title: 그래픽컬한 클래스 계통도 Pages: 1 -->
<svg width="246pt" height="256pt"
 viewBox="0.00 0.00 246.00 256.00" xmlns="http://www.w3.org/2000/svg" xmlns:xlink="http://www.w3.org/1999/xlink">
<g id="graph0" class="graph" transform="scale(1 1) rotate(0) translate(4 252)">
<title>그래픽컬한 클래스 계통도</title>
<!-- Node0 -->
<g id="Node000000" class="node">
<title>Node0</title>
<g id="a_Node000000"><a xlink:title=" ">
<polygon fill="#e0e0e0" stroke="#999999" points="61.75,-134 0,-134 0,-114 61.75,-114 61.75,-134"/>
<text xml:space="preserve" text-anchor="middle" x="30.88" y="-120.5" font-family="Helvetica,sans-Serif" font-size="10.00">UInterface</text>
</a>
</g>
</g>
<!-- Node1 -->
<g id="Node000001" class="node">
<title>Node1</title>
<g id="a_Node000001"><a xlink:href="class_u_combat_interface.html" target="_top" xlink:title=" ">
<polygon fill="white" stroke="#666666" points="216.12,-248 119.88,-248 119.88,-228 216.12,-228 216.12,-248"/>
<text xml:space="preserve" text-anchor="middle" x="168" y="-234.5" font-family="Helvetica,sans-Serif" font-size="10.00">UCombatInterface</text>
</a>
</g>
</g>
<!-- Node0&#45;&gt;Node1 -->
<g id="edge147_Node000000_Node000001" class="edge">
<title>Node0&#45;&gt;Node1</title>
<g id="a_edge147_Node000000_Node000001"><a xlink:title=" ">
<path fill="none" stroke="#63b8ff" d="M40.95,-144.78C51.5,-166.51 70.95,-200.03 97.75,-219 104.26,-223.61 111.85,-227.1 119.56,-229.75"/>
<polygon fill="#63b8ff" stroke="#63b8ff" points="44.15,-143.34 36.77,-135.74 37.79,-146.28 44.15,-143.34"/>
</a>
</g>
</g>
<!-- Node2 -->
<g id="Node000002" class="node">
<title>Node2</title>
<g id="a_Node000002"><a xlink:href="class_u_component_owner_interface.html" target="_top" xlink:title=" ">
<polygon fill="white" stroke="#666666" points="238.25,-210 97.75,-210 97.75,-190 238.25,-190 238.25,-210"/>
<text xml:space="preserve" text-anchor="middle" x="168" y="-196.5" font-family="Helvetica,sans-Serif" font-size="10.00">UComponentOwnerInterface</text>
</a>
</g>
</g>
<!-- Node0&#45;&gt;Node2 -->
<g id="edge148_Node000000_Node000002" class="edge">
<title>Node0&#45;&gt;Node2</title>
<g id="a_edge148_Node000000_Node000002"><a xlink:title=" ">
<path fill="none" stroke="#63b8ff" d="M48.76,-142.43C61.19,-154.97 79.11,-171.04 97.75,-181 104.13,-184.41 111.17,-187.24 118.25,-189.6"/>
<polygon fill="#63b8ff" stroke="#63b8ff" points="51.58,-140.32 42.13,-135.52 46.53,-145.16 51.58,-140.32"/>
</a>
</g>
</g>
<!-- Node3 -->
<g id="Node000003" class="node">
<title>Node3</title>
<g id="a_Node000003"><a xlink:href="class_u_damage_floater_interface.html" target="_top" xlink:title=" ">
<polygon fill="white" stroke="#666666" points="232.25,-172 103.75,-172 103.75,-152 232.25,-152 232.25,-172"/>
<text xml:space="preserve" text-anchor="middle" x="168" y="-158.5" font-family="Helvetica,sans-Serif" font-size="10.00">UDamageFloaterInterface</text>
</a>
</g>
</g>
<!-- Node0&#45;&gt;Node3 -->
<g id="edge149_Node000000_Node000003" class="edge">
<title>Node0&#45;&gt;Node3</title>
<g id="a_edge149_Node000000_Node000003"><a xlink:title=" ">
<path fill="none" stroke="#63b8ff" d="M72.92,-135.93C81.14,-138.29 89.72,-140.74 97.75,-143 107.71,-145.8 118.49,-148.79 128.51,-151.54"/>
<polygon fill="#63b8ff" stroke="#63b8ff" points="74.05,-132.61 63.48,-133.2 72.11,-139.34 74.05,-132.61"/>
</a>
</g>
</g>
<!-- Node4 -->
<g id="Node000004" class="node">
<title>Node4</title>
<g id="a_Node000004"><a xlink:href="class_u_k_p_t_pausable_interface.html" target="_top" xlink:title=" ">
<polygon fill="white" stroke="#666666" points="228.88,-134 107.12,-134 107.12,-114 228.88,-114 228.88,-134"/>
<text xml:space="preserve" text-anchor="middle" x="168" y="-120.5" font-family="Helvetica,sans-Serif" font-size="10.00">UKPTPausableInterface</text>
</a>
</g>
</g>
<!-- Node0&#45;&gt;Node4 -->
<g id="edge150_Node000000_Node000004" class="edge">
<title>Node0&#45;&gt;Node4</title>
<g id="a_edge150_Node000000_Node000004"><a xlink:title=" ">
<path fill="none" stroke="#63b8ff" d="M73.6,-124C84.14,-124 95.65,-124 106.89,-124"/>
<polygon fill="#63b8ff" stroke="#63b8ff" points="73.71,-120.5 63.71,-124 73.71,-127.5 73.71,-120.5"/>
</a>
</g>
</g>
<!-- Node5 -->
<g id="Node000005" class="node">
<title>Node5</title>
<g id="a_Node000005"><a xlink:href="class_u_mission_interface.html" target="_top" xlink:title=" ">
<polygon fill="white" stroke="#666666" points="215.75,-96 120.25,-96 120.25,-76 215.75,-76 215.75,-96"/>
<text xml:space="preserve" text-anchor="middle" x="168" y="-82.5" font-family="Helvetica,sans-Serif" font-size="10.00">UMissionInterface</text>
</a>
</g>
</g>
<!-- Node0&#45;&gt;Node5 -->
<g id="edge151_Node000000_Node000005" class="edge">
<title>Node0&#45;&gt;Node5</title>
<g id="a_edge151_Node000000_Node000005"><a xlink:title=" ">
<path fill="none" stroke="#63b8ff" d="M72.92,-112.07C81.14,-109.71 89.72,-107.26 97.75,-105 107.71,-102.2 118.49,-99.21 128.51,-96.46"/>
<polygon fill="#63b8ff" stroke="#63b8ff" points="72.11,-108.66 63.48,-114.8 74.05,-115.39 72.11,-108.66"/>
</a>
</g>
</g>
<!-- Node6 -->
<g id="Node000006" class="node">
<title>Node6</title>
<g id="a_Node000006"><a xlink:href="class_u_player_interact_interface.html" target="_top" xlink:title=" ">
<polygon fill="white" stroke="#666666" points="229.25,-58 106.75,-58 106.75,-38 229.25,-38 229.25,-58"/>
<text xml:space="preserve" text-anchor="middle" x="168" y="-44.5" font-family="Helvetica,sans-Serif" font-size="10.00">UPlayerInteractInterface</text>
</a>
</g>
</g>
<!-- Node0&#45;&gt;Node6 -->
<g id="edge152_Node000000_Node000006" class="edge">
<title>Node0&#45;&gt;Node6</title>
<g id="a_edge152_Node000000_Node000006"><a xlink:title=" ">
<path fill="none" stroke="#63b8ff" d="M48.76,-105.57C61.19,-93.03 79.11,-76.96 97.75,-67 104.13,-63.59 111.17,-60.76 118.25,-58.4"/>
<polygon fill="#63b8ff" stroke="#63b8ff" points="46.53,-102.84 42.13,-112.48 51.58,-107.68 46.53,-102.84"/>
</a>
</g>
</g>
<!-- Node7 -->
<g id="Node000007" class="node">
<title>Node7</title>
<g id="a_Node000007"><a xlink:href="class_u_poolable.html" target="_top" xlink:title=" ">
<polygon fill="white" stroke="#666666" points="198.5,-20 137.5,-20 137.5,0 198.5,0 198.5,-20"/>
<text xml:space="preserve" text-anchor="middle" x="168" y="-6.5" font-family="Helvetica,sans-Serif" font-size="10.00">UPoolable</text>
</a>
</g>
</g>
<!-- Node0&#45;&gt;Node7 -->
<g id="edge153_Node000000_Node000007" class="edge">
<title>Node0&#45;&gt;Node7</title>
<g id="a_edge153_Node000000_Node000007"><a xlink:title=" ">
<path fill="none" stroke="#63b8ff" d="M40.95,-103.22C51.5,-81.49 70.95,-47.97 97.75,-29 109.25,-20.86 124.09,-16.2 137.08,-13.54"/>
<polygon fill="#63b8ff" stroke="#63b8ff" points="37.79,-101.72 36.77,-112.26 44.15,-104.66 37.79,-101.72"/>
</a>
</g>
</g>
</g>
</svg>
