<?xml version="1.0" encoding="UTF-8" standalone="no"?>
<!DOCTYPE svg PUBLIC "-//W3C//DTD SVG 1.1//EN"
 "http://www.w3.org/Graphics/SVG/1.1/DTD/svg11.dtd">
<!-- Generated by graphviz version 13.1.1 (20250719.2154)
 -->
<!-- Title: 그래픽컬한 클래스 계통도 Pages: 1 -->
<svg width="236pt" height="66pt"
 viewBox="0.00 0.00 236.00 66.00" xmlns="http://www.w3.org/2000/svg" xmlns:xlink="http://www.w3.org/1999/xlink">
<g id="graph0" class="graph" transform="scale(1 1) rotate(0) translate(4 62)">
<title>그래픽컬한 클래스 계통도</title>
<!-- Node0 -->
<g id="Node000000" class="node">
<title>Node0</title>
<g id="a_Node000000"><a xlink:title=" ">
<polygon fill="#e0e0e0" stroke="#999999" points="73,-39 0,-39 0,-19 73,-19 73,-39"/>
<text xml:space="preserve" text-anchor="middle" x="36.5" y="-25.5" font-family="Helvetica,sans-Serif" font-size="10.00">AGameMode</text>
</a>
</g>
</g>
<!-- Node1 -->
<g id="Node000001" class="node">
<title>Node1</title>
<g id="a_Node000001"><a xlink:href="class_a_k_p_t_in_game_mode.html" target="_top" xlink:title=" ">
<polygon fill="white" stroke="#666666" points="218.75,-58 118,-58 118,-38 218.75,-38 218.75,-58"/>
<text xml:space="preserve" text-anchor="middle" x="168.38" y="-44.5" font-family="Helvetica,sans-Serif" font-size="10.00">AKPTInGameMode</text>
</a>
</g>
</g>
<!-- Node0&#45;&gt;Node1 -->
<g id="edge52_Node000000_Node000001" class="edge">
<title>Node0&#45;&gt;Node1</title>
<g id="a_edge52_Node000000_Node000001"><a xlink:title=" ">
<path fill="none" stroke="#63b8ff" d="M84.62,-35.89C95.33,-37.46 106.74,-39.13 117.56,-40.71"/>
<polygon fill="#63b8ff" stroke="#63b8ff" points="85.23,-32.45 74.83,-34.46 84.22,-39.37 85.23,-32.45"/>
</a>
</g>
</g>
<!-- Node2 -->
<g id="Node000002" class="node">
<title>Node2</title>
<g id="a_Node000002"><a xlink:href="class_a_k_p_t_lobby_game_mode.html" target="_top" xlink:title=" ">
<polygon fill="white" stroke="#666666" points="227.75,-20 109,-20 109,0 227.75,0 227.75,-20"/>
<text xml:space="preserve" text-anchor="middle" x="168.38" y="-6.5" font-family="Helvetica,sans-Serif" font-size="10.00">AKPTLobbyGameMode</text>
</a>
</g>
</g>
<!-- Node0&#45;&gt;Node2 -->
<g id="edge53_Node000000_Node000002" class="edge">
<title>Node0&#45;&gt;Node2</title>
<g id="a_edge53_Node000000_Node000002"><a xlink:title=" ">
<path fill="none" stroke="#63b8ff" d="M84.51,-22.12C92.37,-20.97 100.61,-19.77 108.72,-18.58"/>
<polygon fill="#63b8ff" stroke="#63b8ff" points="84.22,-18.63 74.83,-23.54 85.23,-25.55 84.22,-18.63"/>
</a>
</g>
</g>
</g>
</svg>
