<?xml version="1.0" encoding="UTF-8" standalone="no"?>
<!DOCTYPE svg PUBLIC "-//W3C//DTD SVG 1.1//EN"
 "http://www.w3.org/Graphics/SVG/1.1/DTD/svg11.dtd">
<!-- Generated by graphviz version 13.1.1 (20250719.2154)
 -->
<!-- Title: 그래픽컬한 클래스 계통도 Pages: 1 -->
<svg width="225pt" height="66pt"
 viewBox="0.00 0.00 225.00 66.00" xmlns="http://www.w3.org/2000/svg" xmlns:xlink="http://www.w3.org/1999/xlink">
<g id="graph0" class="graph" transform="scale(1 1) rotate(0) translate(4 62)">
<title>그래픽컬한 클래스 계통도</title>
<!-- Node0 -->
<g id="Node000000" class="node">
<title>Node0</title>
<g id="a_Node000000"><a xlink:title=" ">
<polygon fill="#e0e0e0" stroke="#999999" points="72.25,-39 0,-39 0,-19 72.25,-19 72.25,-39"/>
<text xml:space="preserve" text-anchor="middle" x="36.12" y="-25.5" font-family="Helvetica,sans-Serif" font-size="10.00">USaveGame</text>
</a>
</g>
</g>
<!-- Node1 -->
<g id="Node000001" class="node">
<title>Node1</title>
<g id="a_Node000001"><a xlink:href="class_u_k_p_t_save_game.html" target="_top" xlink:title=" ">
<polygon fill="white" stroke="#666666" points="208.25,-58 116.5,-58 116.5,-38 208.25,-38 208.25,-58"/>
<text xml:space="preserve" text-anchor="middle" x="162.38" y="-44.5" font-family="Helvetica,sans-Serif" font-size="10.00">UKPTSaveGame</text>
</a>
</g>
</g>
<!-- Node0&#45;&gt;Node1 -->
<g id="edge157_Node000000_Node000001" class="edge">
<title>Node0&#45;&gt;Node1</title>
<g id="a_edge157_Node000000_Node000001"><a xlink:title=" ">
<path fill="none" stroke="#63b8ff" d="M83.85,-36.14C94.37,-37.75 105.53,-39.46 116,-41.06"/>
<polygon fill="#63b8ff" stroke="#63b8ff" points="84.64,-32.73 74.23,-34.67 83.58,-39.64 84.64,-32.73"/>
</a>
</g>
</g>
<!-- Node2 -->
<g id="Node000002" class="node">
<title>Node2</title>
<g id="a_Node000002"><a xlink:href="class_u_settings_save_game.html" target="_top" xlink:title=" ">
<polygon fill="white" stroke="#666666" points="216.5,-20 108.25,-20 108.25,0 216.5,0 216.5,-20"/>
<text xml:space="preserve" text-anchor="middle" x="162.38" y="-6.5" font-family="Helvetica,sans-Serif" font-size="10.00">USettingsSaveGame</text>
</a>
</g>
</g>
<!-- Node0&#45;&gt;Node2 -->
<g id="edge158_Node000000_Node000002" class="edge">
<title>Node0&#45;&gt;Node2</title>
<g id="a_edge158_Node000000_Node000002"><a xlink:title=" ">
<path fill="none" stroke="#63b8ff" d="M83.98,-21.83C91.88,-20.63 100.12,-19.37 108.16,-18.14"/>
<polygon fill="#63b8ff" stroke="#63b8ff" points="83.58,-18.36 74.23,-23.33 84.64,-25.27 83.58,-18.36"/>
</a>
</g>
</g>
</g>
</svg>
