<?xml version="1.0" encoding="UTF-8" standalone="no"?>
<!DOCTYPE svg PUBLIC "-//W3C//DTD SVG 1.1//EN"
 "http://www.w3.org/Graphics/SVG/1.1/DTD/svg11.dtd">
<!-- Generated by graphviz version 13.1.1 (20250719.2154)
 -->
<!-- Title: 그래픽컬한 클래스 계통도 Pages: 1 -->
<svg width="302pt" height="66pt"
 viewBox="0.00 0.00 302.00 66.00" xmlns="http://www.w3.org/2000/svg" xmlns:xlink="http://www.w3.org/1999/xlink">
<g id="graph0" class="graph" transform="scale(1 1) rotate(0) translate(4 62)">
<title>그래픽컬한 클래스 계통도</title>
<!-- Node0 -->
<g id="Node000000" class="node">
<title>Node0</title>
<g id="a_Node000000"><a xlink:title=" ">
<polygon fill="#e0e0e0" stroke="#999999" points="128.5,-39 0,-39 0,-19 128.5,-19 128.5,-39"/>
<text xml:space="preserve" text-anchor="middle" x="64.25" y="-25.5" font-family="Helvetica,sans-Serif" font-size="10.00">UBlueprintFunctionLibrary</text>
</a>
</g>
</g>
<!-- Node1 -->
<g id="Node000001" class="node">
<title>Node1</title>
<g id="a_Node000001"><a xlink:href="class_u_get_level_function_library.html" target="_top" xlink:title=" ">
<polygon fill="white" stroke="#666666" points="293.75,-58 164.5,-58 164.5,-38 293.75,-38 293.75,-58"/>
<text xml:space="preserve" text-anchor="middle" x="229.12" y="-44.5" font-family="Helvetica,sans-Serif" font-size="10.00">UGetLevelFunctionLibrary</text>
</a>
</g>
</g>
<!-- Node0&#45;&gt;Node1 -->
<g id="edge112_Node000000_Node000001" class="edge">
<title>Node0&#45;&gt;Node1</title>
<g id="a_edge112_Node000000_Node000001"><a xlink:title=" ">
<path fill="none" stroke="#63b8ff" d="M139.97,-37.72C148.02,-38.66 156.15,-39.6 164.06,-40.53"/>
<polygon fill="#63b8ff" stroke="#63b8ff" points="140.53,-34.26 130.19,-36.58 139.72,-41.21 140.53,-34.26"/>
</a>
</g>
</g>
<!-- Node2 -->
<g id="Node000002" class="node">
<title>Node2</title>
<g id="a_Node000002"><a xlink:href="class_u_skill_buff_system_statics.html" target="_top" xlink:title=" ">
<polygon fill="white" stroke="#666666" points="291.12,-20 167.12,-20 167.12,0 291.12,0 291.12,-20"/>
<text xml:space="preserve" text-anchor="middle" x="229.12" y="-6.5" font-family="Helvetica,sans-Serif" font-size="10.00">USkillBuffSystemStatics</text>
</a>
</g>
</g>
<!-- Node0&#45;&gt;Node2 -->
<g id="edge113_Node000000_Node000002" class="edge">
<title>Node0&#45;&gt;Node2</title>
<g id="a_edge113_Node000000_Node000002"><a xlink:title=" ">
<path fill="none" stroke="#63b8ff" d="M139.95,-20.29C148.91,-19.24 157.99,-18.18 166.73,-17.16"/>
<polygon fill="#63b8ff" stroke="#63b8ff" points="139.72,-16.79 130.19,-21.42 140.53,-23.74 139.72,-16.79"/>
</a>
</g>
</g>
</g>
</svg>
