<?xml version="1.0" encoding="UTF-8" standalone="no"?>
<!DOCTYPE svg PUBLIC "-//W3C//DTD SVG 1.1//EN"
 "http://www.w3.org/Graphics/SVG/1.1/DTD/svg11.dtd">
<!-- Generated by graphviz version 13.1.1 (20250719.2154)
 -->
<!-- Title: FWidgetInfoRow Pages: 1 -->
<svg width="145pt" height="268pt"
 viewBox="0.00 0.00 145.00 268.00" xmlns="http://www.w3.org/2000/svg" xmlns:xlink="http://www.w3.org/1999/xlink">

<svg id="main" version="1.1" xmlns="http://www.w3.org/2000/svg" xmlns:xlink="http://www.w3.org/1999/xlink" xml:space="preserve">

<style type="text/css"><![CDATA[
.node, .edge {opacity: 0.7;}
.node.selected, .edge.selected {opacity: 1;}
.edge:hover path { stroke: red; }
.edge:hover polygon { stroke: red; fill: red; }
]]></style>
<script type="application/ecmascript" xlink:href="svg.min.js"/>
<svg id="graph" class="graph">
<g id="graph0" class="graph" transform="scale(1 1) rotate(0) translate(4 264)">
<title>FWidgetInfoRow</title>
<!-- Node1 -->
<g id="Node000001" class="node">
<title>Node1</title>
<g id="a_Node000001"><a xlink:title=" ">
<polygon fill="#999999" stroke="none" points="137.25,-172 0,-172 0,0 137.25,0 137.25,-172"/>
<text xml:space="preserve" text-anchor="start" x="31.88" y="-158.5" font-family="Helvetica,sans-Serif" font-size="10.00">FWidgetInfoRow</text>
<text xml:space="preserve" text-anchor="start" x="4" y="-142.5" font-family="Helvetica,sans-Serif" font-size="10.00">+</text>
<text xml:space="preserve" text-anchor="start" x="14" y="-142.5" font-family="Helvetica,sans-Serif" font-size="10.00">bool bIsActiveOnLevelStart</text>
<text xml:space="preserve" text-anchor="start" x="4" y="-126.5" font-family="Helvetica,sans-Serif" font-size="10.00">+</text>
<text xml:space="preserve" text-anchor="start" x="14" y="-126.5" font-family="Helvetica,sans-Serif" font-size="10.00">bool bIsEscapable</text>
<text xml:space="preserve" text-anchor="start" x="4" y="-110.5" font-family="Helvetica,sans-Serif" font-size="10.00">+</text>
<text xml:space="preserve" text-anchor="start" x="14" y="-110.5" font-family="Helvetica,sans-Serif" font-size="10.00">bool bIsSingle</text>
<text xml:space="preserve" text-anchor="start" x="4" y="-94.5" font-family="Helvetica,sans-Serif" font-size="10.00">+</text>
<text xml:space="preserve" text-anchor="start" x="14" y="-94.5" font-family="Helvetica,sans-Serif" font-size="10.00">EInputModeBehavior</text>
<text xml:space="preserve" text-anchor="start" x="14" y="-82.5" font-family="Helvetica,sans-Serif" font-size="10.00"> InputModeBehavior</text>
<text xml:space="preserve" text-anchor="start" x="4" y="-66.5" font-family="Helvetica,sans-Serif" font-size="10.00">+</text>
<text xml:space="preserve" text-anchor="start" x="14" y="-66.5" font-family="Helvetica,sans-Serif" font-size="10.00">ELayer Layer</text>
<text xml:space="preserve" text-anchor="start" x="4" y="-50.5" font-family="Helvetica,sans-Serif" font-size="10.00">+</text>
<text xml:space="preserve" text-anchor="start" x="14" y="-50.5" font-family="Helvetica,sans-Serif" font-size="10.00">TSoftClassPtr&lt; UUIBase</text>
<text xml:space="preserve" text-anchor="start" x="14" y="-38.5" font-family="Helvetica,sans-Serif" font-size="10.00"> &gt; WidgetClass</text>
<text xml:space="preserve" text-anchor="start" x="4" y="-22.5" font-family="Helvetica,sans-Serif" font-size="10.00">+</text>
<text xml:space="preserve" text-anchor="start" x="14" y="-22.5" font-family="Helvetica,sans-Serif" font-size="10.00">EWidgetId WidgetId</text>
<text xml:space="preserve" text-anchor="start" x="67.12" y="-6.5" font-family="Helvetica,sans-Serif" font-size="10.00"> </text>
<polygon fill="#666666" stroke="#666666" points="0,-154 0,-154 137.25,-154 137.25,-154 0,-154"/>
<polygon fill="#666666" stroke="#666666" points="0,-18 0,-18 12,-18 12,-18 0,-18"/>
<polygon fill="#666666" stroke="#666666" points="12,-18 12,-18 137.25,-18 137.25,-18 12,-18"/>
<polygon fill="none" stroke="#666666" points="0,0 0,-172 137.25,-172 137.25,0 0,0"/>
</a>
</g>
</g>
<!-- Node2 -->
<g id="Node000002" class="node">
<title>Node2</title>
<g id="a_Node000002"><a xlink:title=" ">
<polygon fill="white" stroke="none" points="108.62,-260 28.62,-260 28.62,-208 108.62,-208 108.62,-260"/>
<text xml:space="preserve" text-anchor="start" x="32.62" y="-246.5" font-family="Helvetica,sans-Serif" font-size="10.00">FTableRowBase</text>
<text xml:space="preserve" text-anchor="start" x="67.12" y="-230.5" font-family="Helvetica,sans-Serif" font-size="10.00"> </text>
<text xml:space="preserve" text-anchor="start" x="67.12" y="-214.5" font-family="Helvetica,sans-Serif" font-size="10.00"> </text>
<polygon fill="#666666" stroke="#666666" points="28.62,-242 28.62,-242 108.62,-242 108.62,-242 28.62,-242"/>
<polygon fill="#666666" stroke="#666666" points="28.62,-226 28.62,-226 108.62,-226 108.62,-226 28.62,-226"/>
<polygon fill="none" stroke="#666666" points="28.62,-208 28.62,-260 108.62,-260 108.62,-208 28.62,-208"/>
</a>
</g>
</g>
<!-- Node2&#45;&gt;Node1 -->
<g id="edge1_Node000001_Node000002" class="edge">
<title>Node2&#45;&gt;Node1</title>
<g id="a_edge1_Node000001_Node000002"><a xlink:title=" ">
<path fill="none" stroke="#63b8ff" d="M68.62,-196.73C68.62,-188.97 68.62,-180.46 68.62,-171.72"/>
<polygon fill="none" stroke="#63b8ff" points="65.13,-196.72 68.63,-206.72 72.13,-196.72 65.13,-196.72"/>
</a>
</g>
</g>
</g>
</svg>
</svg>

<style type='text/css'>
<![CDATA[
[data-mouse-over-selected='false'] { opacity: 0.7; }
[data-mouse-over-selected='true']  { opacity: 1.0; }
]]>
</style>
<script type="application/ecmascript"><![CDATA[
document.addEventListener('DOMContentLoaded', (event) => {
  highlightEdges();
  highlightAdjacentNodes();
});
]]></script>
</svg>
