<?xml version="1.0" encoding="UTF-8" standalone="no"?>
<!DOCTYPE svg PUBLIC "-//W3C//DTD SVG 1.1//EN"
 "http://www.w3.org/Graphics/SVG/1.1/DTD/svg11.dtd">
<!-- Generated by graphviz version 13.1.1 (20250719.2154)
 -->
<!-- Title: FItemInstance Pages: 1 -->
<!--zoomable 544 -->

<svg id="main" version="1.1" xmlns="http://www.w3.org/2000/svg" xmlns:xlink="http://www.w3.org/1999/xlink" xml:space="preserve" onload="init(evt)">

<style type="text/css"><![CDATA[
.node, .edge {opacity: 0.7;}
.node.selected, .edge.selected {opacity: 1;}
.edge:hover path { stroke: red; }
.edge:hover polygon { stroke: red; fill: red; }
]]></style>

<defs>
  <circle id="rim" cx="0" cy="0" r="7"/>
  <circle id="rim2" cx="0" cy="0" r="3.5"/>
  <g id="zoomPlus">
    <use xlink:href="#rim" fill="#404040"><set attributeName="fill" to="#808080" begin="zoomplus.mouseover" end="zoomplus.mouseout"/></use>
    <path d="M-4,0h8M0,-4v8" fill="none" stroke="white" stroke-width="1.5" pointer-events="none"/>
  </g>
  <g id="zoomMin">
    <use xlink:href="#rim" fill="#404040"><set attributeName="fill" to="#808080" begin="zoomminus.mouseover" end="zoomminus.mouseout"/></use>
    <path d="M-4,0h8" fill="none" stroke="white" stroke-width="1.5" pointer-events="none"/>
  </g>
  <g id="arrowUp" transform="translate(30 24)">
    <use xlink:href="#rim"/>
    <path pointer-events="none" fill="none" stroke="white" stroke-width="1.5" d="M0,-3.0v7 M-2.5,-0.5L0,-3.0L2.5,-0.5"/>
  </g>
  <g id="arrowRight" transform="rotate(90) translate(36 -43)">
    <use xlink:href="#rim"/>
    <path pointer-events="none" fill="none" stroke="white" stroke-width="1.5" d="M0,-3.0v7 M-2.5,-0.5L0,-3.0L2.5,-0.5"/>
  </g>
  <g id="arrowDown" transform="rotate(180) translate(-30 -48)">
    <use xlink:href="#rim"/>
    <path pointer-events="none" fill="none" stroke="white" stroke-width="1.5" d="M0,-3.0v7 M-2.5,-0.5L0,-3.0L2.5,-0.5"/>
  </g>
  <g id="arrowLeft" transform="rotate(270) translate(-36 17)">
    <use xlink:href="#rim"/>
    <path pointer-events="none" fill="none" stroke="white" stroke-width="1.5" d="M0,-3.0v7 M-2.5,-0.5L0,-3.0L2.5,-0.5"/>
  </g>
  <g id="resetDef">
    <use xlink:href="#rim2" fill="#404040"><set attributeName="fill" to="#808080" begin="reset.mouseover" end="reset.mouseout"/></use>
  </g>
</defs>
<script type="application/ecmascript">
var viewWidth = 232;
var viewHeight = 544;
var sectionId = 'dynsection-0';
</script>
<script type="application/ecmascript" xlink:href="svg.min.js"/>
<svg id="graph" class="graph">
<g id="viewport">
<title>FItemInstance</title>
<!-- Node1 -->
<g id="Node000001" class="node">
<title>Node1</title>
<g id="a_Node000001"><a xlink:title=" ">
<polygon fill="#999999" stroke="none" points="183.62,-116 16.38,-116 16.38,0 183.62,0 183.62,-116"/>
<text xml:space="preserve" text-anchor="start" x="68.5" y="-102.5" font-family="Helvetica,sans-Serif" font-size="10.00">FItemInstance</text>
<text xml:space="preserve" text-anchor="start" x="20.38" y="-86.5" font-family="Helvetica,sans-Serif" font-size="10.00">+</text>
<text xml:space="preserve" text-anchor="start" x="30.38" y="-86.5" font-family="Helvetica,sans-Serif" font-size="10.00">FGameplayAbilitySpecHandle</text>
<text xml:space="preserve" text-anchor="start" x="30.38" y="-74.5" font-family="Helvetica,sans-Serif" font-size="10.00"> GrantedAbilityHandle</text>
<text xml:space="preserve" text-anchor="start" x="20.38" y="-58.5" font-family="Helvetica,sans-Serif" font-size="10.00">+</text>
<text xml:space="preserve" text-anchor="start" x="30.38" y="-58.5" font-family="Helvetica,sans-Serif" font-size="10.00">FActiveGameplayEffectHandle</text>
<text xml:space="preserve" text-anchor="start" x="30.38" y="-46.5" font-family="Helvetica,sans-Serif" font-size="10.00"> GrantedEffectHandle</text>
<text xml:space="preserve" text-anchor="start" x="20.38" y="-30.5" font-family="Helvetica,sans-Serif" font-size="10.00">+</text>
<text xml:space="preserve" text-anchor="start" x="30.38" y="-30.5" font-family="Helvetica,sans-Serif" font-size="10.00">static FItemInstance</text>
<text xml:space="preserve" text-anchor="start" x="30.38" y="-18.5" font-family="Helvetica,sans-Serif" font-size="10.00"> CreateItemByDef(FItemDataRow</text>
<text xml:space="preserve" text-anchor="start" x="30.38" y="-6.5" font-family="Helvetica,sans-Serif" font-size="10.00"> *InItemRow)</text>
<polygon fill="#666666" stroke="#666666" points="16.38,-98 16.38,-98 183.62,-98 183.62,-98 16.38,-98"/>
<polygon fill="#666666" stroke="#666666" points="16.38,-42 16.38,-42 28.38,-42 28.38,-42 16.38,-42"/>
<polygon fill="#666666" stroke="#666666" points="28.38,-42 28.38,-42 183.62,-42 183.62,-42 28.38,-42"/>
<polygon fill="none" stroke="#666666" points="16.38,0 16.38,-116 183.62,-116 183.62,0 16.38,0"/>
</a>
</g>
</g>
<!-- Node2 -->
<g id="Node000002" class="node">
<title>Node2</title>
<g id="a_Node000002"><a xlink:href="struct_f_item_data_row.html" target="_top" xlink:title=" ">
<polygon fill="white" stroke="none" points="180.62,-386 19.38,-386 19.38,-170 180.62,-170 180.62,-386"/>
<text xml:space="preserve" text-anchor="start" x="66.62" y="-372.5" font-family="Helvetica,sans-Serif" font-size="10.00">FItemDataRow</text>
<text xml:space="preserve" text-anchor="start" x="23.38" y="-356.5" font-family="Helvetica,sans-Serif" font-size="10.00">+</text>
<text xml:space="preserve" text-anchor="start" x="33.38" y="-356.5" font-family="Helvetica,sans-Serif" font-size="10.00">FGameplayAttribute</text>
<text xml:space="preserve" text-anchor="start" x="33.38" y="-344.5" font-family="Helvetica,sans-Serif" font-size="10.00"> AffectedAttribute</text>
<text xml:space="preserve" text-anchor="start" x="23.38" y="-328.5" font-family="Helvetica,sans-Serif" font-size="10.00">+</text>
<text xml:space="preserve" text-anchor="start" x="33.38" y="-328.5" font-family="Helvetica,sans-Serif" font-size="10.00">FGameplayTag AttributeTag</text>
<text xml:space="preserve" text-anchor="start" x="23.38" y="-312.5" font-family="Helvetica,sans-Serif" font-size="10.00">+</text>
<text xml:space="preserve" text-anchor="start" x="33.38" y="-312.5" font-family="Helvetica,sans-Serif" font-size="10.00">TSubclassOf&lt; UGameplayEffect</text>
<text xml:space="preserve" text-anchor="start" x="33.38" y="-300.5" font-family="Helvetica,sans-Serif" font-size="10.00"> &gt; ItemBuffEffect</text>
<text xml:space="preserve" text-anchor="start" x="23.38" y="-284.5" font-family="Helvetica,sans-Serif" font-size="10.00">+</text>
<text xml:space="preserve" text-anchor="start" x="33.38" y="-284.5" font-family="Helvetica,sans-Serif" font-size="10.00">FName ItemId</text>
<text xml:space="preserve" text-anchor="start" x="23.38" y="-268.5" font-family="Helvetica,sans-Serif" font-size="10.00">+</text>
<text xml:space="preserve" text-anchor="start" x="33.38" y="-268.5" font-family="Helvetica,sans-Serif" font-size="10.00">EKPTItemType ItemType</text>
<text xml:space="preserve" text-anchor="start" x="23.38" y="-252.5" font-family="Helvetica,sans-Serif" font-size="10.00">+</text>
<text xml:space="preserve" text-anchor="start" x="33.38" y="-252.5" font-family="Helvetica,sans-Serif" font-size="10.00">float Multiplier</text>
<text xml:space="preserve" text-anchor="start" x="23.38" y="-236.5" font-family="Helvetica,sans-Serif" font-size="10.00">+</text>
<text xml:space="preserve" text-anchor="start" x="33.38" y="-236.5" font-family="Helvetica,sans-Serif" font-size="10.00">TSubclassOf&lt; UItemAbility</text>
<text xml:space="preserve" text-anchor="start" x="33.38" y="-224.5" font-family="Helvetica,sans-Serif" font-size="10.00"> &gt; PassiveAbilityClass</text>
<text xml:space="preserve" text-anchor="start" x="23.38" y="-208.5" font-family="Helvetica,sans-Serif" font-size="10.00">+</text>
<text xml:space="preserve" text-anchor="start" x="33.38" y="-208.5" font-family="Helvetica,sans-Serif" font-size="10.00">int32 Price</text>
<text xml:space="preserve" text-anchor="start" x="23.38" y="-192.5" font-family="Helvetica,sans-Serif" font-size="10.00">+</text>
<text xml:space="preserve" text-anchor="start" x="33.38" y="-192.5" font-family="Helvetica,sans-Serif" font-size="10.00">int32 Rarity</text>
<text xml:space="preserve" text-anchor="start" x="98.5" y="-176.5" font-family="Helvetica,sans-Serif" font-size="10.00"> </text>
<polygon fill="#666666" stroke="#666666" points="19.38,-368 19.38,-368 180.62,-368 180.62,-368 19.38,-368"/>
<polygon fill="#666666" stroke="#666666" points="19.38,-188 19.38,-188 31.38,-188 31.38,-188 19.38,-188"/>
<polygon fill="#666666" stroke="#666666" points="31.38,-188 31.38,-188 180.62,-188 180.62,-188 31.38,-188"/>
<polygon fill="none" stroke="#666666" points="19.38,-170 19.38,-386 180.62,-386 180.62,-170 19.38,-170"/>
</a>
</g>
</g>
<!-- Node2&#45;&gt;Node1 -->
<g id="edge1_Node000001_Node000002" class="edge">
<title>Node2&#45;&gt;Node1</title>
<g id="a_edge1_Node000001_Node000002"><a xlink:title=" ">
<path fill="none" stroke="#63b8ff" d="M100,-170.24C100,-156.16 100,-142.03 100,-128.79"/>
<polygon fill="none" stroke="#63b8ff" points="100,-128.79 96,-122.79 100,-116.79 104,-122.79 100,-128.79"/>
</a>
</g>
<text xml:space="preserve" text-anchor="start" x="103" y="-139.5" font-family="Helvetica,sans-Serif" font-size="10.00" fill="grey">+ItemDataRow</text>
</g>
<!-- Node3 -->
<g id="Node000003" class="node">
<title>Node3</title>
<g id="a_Node000003"><a xlink:title=" ">
<polygon fill="white" stroke="none" points="80,-514 0,-514 0,-462 80,-462 80,-514"/>
<text xml:space="preserve" text-anchor="start" x="4" y="-500.5" font-family="Helvetica,sans-Serif" font-size="10.00">FTableRowBase</text>
<text xml:space="preserve" text-anchor="start" x="38.5" y="-484.5" font-family="Helvetica,sans-Serif" font-size="10.00"> </text>
<text xml:space="preserve" text-anchor="start" x="38.5" y="-468.5" font-family="Helvetica,sans-Serif" font-size="10.00"> </text>
<polygon fill="#666666" stroke="#666666" points="0,-496 0,-496 80,-496 80,-496 0,-496"/>
<polygon fill="#666666" stroke="#666666" points="0,-480 0,-480 80,-480 80,-480 0,-480"/>
<polygon fill="none" stroke="#666666" points="0,-462 0,-514 80,-514 80,-462 0,-462"/>
</a>
</g>
</g>
<!-- Node3&#45;&gt;Node2 -->
<g id="edge2_Node000002_Node000003" class="edge">
<title>Node3&#45;&gt;Node2</title>
<g id="a_edge2_Node000002_Node000003"><a xlink:title=" ">
<path fill="none" stroke="#63b8ff" d="M50.29,-451.32C55.59,-432.96 62.36,-409.5 69.18,-385.85"/>
<polygon fill="none" stroke="#63b8ff" points="46.95,-450.29 47.54,-460.87 53.67,-452.23 46.95,-450.29"/>
</a>
</g>
</g>
<!-- Node4 -->
<g id="Node000004" class="node">
<title>Node4</title>
<g id="a_Node000004"><a xlink:href="struct_f_item_u_i_data.html" target="_top" xlink:title=" ">
<polygon fill="white" stroke="none" points="224.38,-536 97.62,-536 97.62,-440 224.38,-440 224.38,-536"/>
<text xml:space="preserve" text-anchor="start" x="132.5" y="-522.5" font-family="Helvetica,sans-Serif" font-size="10.00">FItemUIData</text>
<text xml:space="preserve" text-anchor="start" x="101.62" y="-506.5" font-family="Helvetica,sans-Serif" font-size="10.00">+</text>
<text xml:space="preserve" text-anchor="start" x="111.62" y="-506.5" font-family="Helvetica,sans-Serif" font-size="10.00">FText Description</text>
<text xml:space="preserve" text-anchor="start" x="101.62" y="-490.5" font-family="Helvetica,sans-Serif" font-size="10.00">+</text>
<text xml:space="preserve" text-anchor="start" x="111.62" y="-490.5" font-family="Helvetica,sans-Serif" font-size="10.00">FText DisplayName</text>
<text xml:space="preserve" text-anchor="start" x="101.62" y="-474.5" font-family="Helvetica,sans-Serif" font-size="10.00">+</text>
<text xml:space="preserve" text-anchor="start" x="111.62" y="-474.5" font-family="Helvetica,sans-Serif" font-size="10.00">TObjectPtr&lt; UTexture2D</text>
<text xml:space="preserve" text-anchor="start" x="111.62" y="-462.5" font-family="Helvetica,sans-Serif" font-size="10.00"> &gt; Icon</text>
<text xml:space="preserve" text-anchor="start" x="159.5" y="-446.5" font-family="Helvetica,sans-Serif" font-size="10.00"> </text>
<polygon fill="#666666" stroke="#666666" points="97.62,-518 97.62,-518 224.38,-518 224.38,-518 97.62,-518"/>
<polygon fill="#666666" stroke="#666666" points="97.62,-458 97.62,-458 109.62,-458 109.62,-458 97.62,-458"/>
<polygon fill="#666666" stroke="#666666" points="109.62,-458 109.62,-458 224.38,-458 224.38,-458 109.62,-458"/>
<polygon fill="none" stroke="#666666" points="97.62,-440 97.62,-536 224.38,-536 224.38,-440 97.62,-440"/>
</a>
</g>
</g>
<!-- Node4&#45;&gt;Node2 -->
<g id="edge3_Node000002_Node000004" class="edge">
<title>Node4&#45;&gt;Node2</title>
<g id="a_edge3_Node000002_Node000004"><a xlink:title=" ">
<path fill="none" stroke="#63b8ff" d="M147.23,-440.06C143.5,-427.33 139.28,-412.95 134.94,-398.15"/>
<polygon fill="none" stroke="#63b8ff" points="134.91,-398.02 129.38,-393.39 131.53,-386.51 137.06,-391.14 134.91,-398.02"/>
</a>
</g>
<text xml:space="preserve" text-anchor="start" x="144.27" y="-409.5" font-family="Helvetica,sans-Serif" font-size="10.00" fill="grey">+UIData</text>
</g>
</g>
</svg>

<g id="navigator" transform="translate(0 0)" fill="#404254">
  <rect fill="#f2f5e9" fill-opacity="0.5" stroke="#606060" stroke-width=".5" x="0" y="0" width="60" height="60"/>
  <use id="zoomplus" xlink:href="#zoomPlus" x="17" y="9" onmousedown="handleZoom(evt,'in')"/>
  <use id="zoomminus" xlink:href="#zoomMin" x="42" y="9" onmousedown="handleZoom(evt,'out')"/>
  <use id="reset" xlink:href="#resetDef" x="30" y="36" onmousedown="handleReset()"/>
   <use id="arrowup" xlink:href="#arrowUp" x="0" y="0" onmousedown="handlePan(0,-1)"/>
  <use id="arrowright" xlink:href="#arrowRight" x="0" y="0" onmousedown="handlePan(1,0)"/>
  <use id="arrowdown" xlink:href="#arrowDown" x="0" y="0" onmousedown="handlePan(0,1)"/>
  <use id="arrowleft" xlink:href="#arrowLeft" x="0" y="0" onmousedown="handlePan(-1,0)"/>
</g>
<svg viewBox="0 0 15 15" width="100%" height="30px" preserveAspectRatio="xMaxYMin meet">
 <g id="arrow_out" transform="scale(0.3 0.3)">
  <a xlink:href="struct_f_item_instance__coll__graph_org.svg" target="_base">
   <rect id="button" ry="5" rx="5" y="6" x="6" height="38" width="38"
        fill="#f2f5e9" fill-opacity="0.5" stroke="#606060" stroke-width="1.0"/>
   <path id="arrow"
     d="M 11.500037,31.436501 C 11.940474,20.09759 22.043105,11.32322 32.158766,21.979434 L 37.068811,17.246167 C 37.068811,17.246167 37.088388,32 37.088388,32 L 22.160133,31.978069 C 22.160133,31.978069 26.997745,27.140456 26.997745,27.140456 C 18.528582,18.264221 13.291696,25.230495 11.500037,31.436501 z"
     style="fill:#404040;"/>
  </a>
 </g>
</svg>

<style type='text/css'>
<![CDATA[
[data-mouse-over-selected='false'] { opacity: 0.7; }
[data-mouse-over-selected='true']  { opacity: 1.0; }
]]>
</style>
<script type="application/ecmascript"><![CDATA[
document.addEventListener('DOMContentLoaded', (event) => {
  highlightEdges();
  highlightAdjacentNodes();
});
]]></script>
</svg>
