<?xml version="1.0" encoding="UTF-8" standalone="no"?>
<!DOCTYPE svg PUBLIC "-//W3C//DTD SVG 1.1//EN"
 "http://www.w3.org/Graphics/SVG/1.1/DTD/svg11.dtd">
<!-- Generated by graphviz version 13.1.1 (20250719.2154)
 -->
<!-- Title: FItemDataRow Pages: 1 -->
<svg width="232pt" height="374pt"
 viewBox="0.00 0.00 232.00 374.00" xmlns="http://www.w3.org/2000/svg" xmlns:xlink="http://www.w3.org/1999/xlink">
<g id="graph0" class="graph" transform="scale(1 1) rotate(0) translate(4 370)">
<title>FItemDataRow</title>
<!-- Node1 -->
<g id="Node000001" class="node">
<title>Node1</title>
<g id="a_Node000001"><a xlink:title=" ">
<polygon fill="#999999" stroke="none" points="180.62,-216 19.38,-216 19.38,0 180.62,0 180.62,-216"/>
<text xml:space="preserve" text-anchor="start" x="66.62" y="-202.5" font-family="Helvetica,sans-Serif" font-size="10.00">FItemDataRow</text>
<text xml:space="preserve" text-anchor="start" x="23.38" y="-186.5" font-family="Helvetica,sans-Serif" font-size="10.00">+</text>
<text xml:space="preserve" text-anchor="start" x="33.38" y="-186.5" font-family="Helvetica,sans-Serif" font-size="10.00">FGameplayAttribute</text>
<text xml:space="preserve" text-anchor="start" x="33.38" y="-174.5" font-family="Helvetica,sans-Serif" font-size="10.00"> AffectedAttribute</text>
<text xml:space="preserve" text-anchor="start" x="23.38" y="-158.5" font-family="Helvetica,sans-Serif" font-size="10.00">+</text>
<text xml:space="preserve" text-anchor="start" x="33.38" y="-158.5" font-family="Helvetica,sans-Serif" font-size="10.00">FGameplayTag AttributeTag</text>
<text xml:space="preserve" text-anchor="start" x="23.38" y="-142.5" font-family="Helvetica,sans-Serif" font-size="10.00">+</text>
<text xml:space="preserve" text-anchor="start" x="33.38" y="-142.5" font-family="Helvetica,sans-Serif" font-size="10.00">TSubclassOf&lt; UGameplayEffect</text>
<text xml:space="preserve" text-anchor="start" x="33.38" y="-130.5" font-family="Helvetica,sans-Serif" font-size="10.00"> &gt; ItemBuffEffect</text>
<text xml:space="preserve" text-anchor="start" x="23.38" y="-114.5" font-family="Helvetica,sans-Serif" font-size="10.00">+</text>
<text xml:space="preserve" text-anchor="start" x="33.38" y="-114.5" font-family="Helvetica,sans-Serif" font-size="10.00">FName ItemId</text>
<text xml:space="preserve" text-anchor="start" x="23.38" y="-98.5" font-family="Helvetica,sans-Serif" font-size="10.00">+</text>
<text xml:space="preserve" text-anchor="start" x="33.38" y="-98.5" font-family="Helvetica,sans-Serif" font-size="10.00">EKPTItemType ItemType</text>
<text xml:space="preserve" text-anchor="start" x="23.38" y="-82.5" font-family="Helvetica,sans-Serif" font-size="10.00">+</text>
<text xml:space="preserve" text-anchor="start" x="33.38" y="-82.5" font-family="Helvetica,sans-Serif" font-size="10.00">float Multiplier</text>
<text xml:space="preserve" text-anchor="start" x="23.38" y="-66.5" font-family="Helvetica,sans-Serif" font-size="10.00">+</text>
<text xml:space="preserve" text-anchor="start" x="33.38" y="-66.5" font-family="Helvetica,sans-Serif" font-size="10.00">TSubclassOf&lt; UItemAbility</text>
<text xml:space="preserve" text-anchor="start" x="33.38" y="-54.5" font-family="Helvetica,sans-Serif" font-size="10.00"> &gt; PassiveAbilityClass</text>
<text xml:space="preserve" text-anchor="start" x="23.38" y="-38.5" font-family="Helvetica,sans-Serif" font-size="10.00">+</text>
<text xml:space="preserve" text-anchor="start" x="33.38" y="-38.5" font-family="Helvetica,sans-Serif" font-size="10.00">int32 Price</text>
<text xml:space="preserve" text-anchor="start" x="23.38" y="-22.5" font-family="Helvetica,sans-Serif" font-size="10.00">+</text>
<text xml:space="preserve" text-anchor="start" x="33.38" y="-22.5" font-family="Helvetica,sans-Serif" font-size="10.00">int32 Rarity</text>
<text xml:space="preserve" text-anchor="start" x="98.5" y="-6.5" font-family="Helvetica,sans-Serif" font-size="10.00"> </text>
<polygon fill="#666666" stroke="#666666" points="19.38,-198 19.38,-198 180.62,-198 180.62,-198 19.38,-198"/>
<polygon fill="#666666" stroke="#666666" points="19.38,-18 19.38,-18 31.38,-18 31.38,-18 19.38,-18"/>
<polygon fill="#666666" stroke="#666666" points="31.38,-18 31.38,-18 180.62,-18 180.62,-18 31.38,-18"/>
<polygon fill="none" stroke="#666666" points="19.38,0 19.38,-216 180.62,-216 180.62,0 19.38,0"/>
</a>
</g>
</g>
<!-- Node2 -->
<g id="Node000002" class="node">
<title>Node2</title>
<g id="a_Node000002"><a xlink:title=" ">
<polygon fill="white" stroke="none" points="80,-344 0,-344 0,-292 80,-292 80,-344"/>
<text xml:space="preserve" text-anchor="start" x="4" y="-330.5" font-family="Helvetica,sans-Serif" font-size="10.00">FTableRowBase</text>
<text xml:space="preserve" text-anchor="start" x="38.5" y="-314.5" font-family="Helvetica,sans-Serif" font-size="10.00"> </text>
<text xml:space="preserve" text-anchor="start" x="38.5" y="-298.5" font-family="Helvetica,sans-Serif" font-size="10.00"> </text>
<polygon fill="#666666" stroke="#666666" points="0,-326 0,-326 80,-326 80,-326 0,-326"/>
<polygon fill="#666666" stroke="#666666" points="0,-310 0,-310 80,-310 80,-310 0,-310"/>
<polygon fill="none" stroke="#666666" points="0,-292 0,-344 80,-344 80,-292 0,-292"/>
</a>
</g>
</g>
<!-- Node2&#45;&gt;Node1 -->
<g id="edge1_Node000001_Node000002" class="edge">
<title>Node2&#45;&gt;Node1</title>
<g id="a_edge1_Node000001_Node000002"><a xlink:title=" ">
<path fill="none" stroke="#63b8ff" d="M50.29,-281.32C55.59,-262.96 62.36,-239.5 69.18,-215.85"/>
<polygon fill="none" stroke="#63b8ff" points="46.95,-280.29 47.54,-290.87 53.67,-282.23 46.95,-280.29"/>
</a>
</g>
</g>
<!-- Node3 -->
<g id="Node000003" class="node">
<title>Node3</title>
<g id="a_Node000003"><a xlink:href="struct_f_item_u_i_data.html" target="_top" xlink:title=" ">
<polygon fill="white" stroke="none" points="224.38,-366 97.62,-366 97.62,-270 224.38,-270 224.38,-366"/>
<text xml:space="preserve" text-anchor="start" x="132.5" y="-352.5" font-family="Helvetica,sans-Serif" font-size="10.00">FItemUIData</text>
<text xml:space="preserve" text-anchor="start" x="101.62" y="-336.5" font-family="Helvetica,sans-Serif" font-size="10.00">+</text>
<text xml:space="preserve" text-anchor="start" x="111.62" y="-336.5" font-family="Helvetica,sans-Serif" font-size="10.00">FText Description</text>
<text xml:space="preserve" text-anchor="start" x="101.62" y="-320.5" font-family="Helvetica,sans-Serif" font-size="10.00">+</text>
<text xml:space="preserve" text-anchor="start" x="111.62" y="-320.5" font-family="Helvetica,sans-Serif" font-size="10.00">FText DisplayName</text>
<text xml:space="preserve" text-anchor="start" x="101.62" y="-304.5" font-family="Helvetica,sans-Serif" font-size="10.00">+</text>
<text xml:space="preserve" text-anchor="start" x="111.62" y="-304.5" font-family="Helvetica,sans-Serif" font-size="10.00">TObjectPtr&lt; UTexture2D</text>
<text xml:space="preserve" text-anchor="start" x="111.62" y="-292.5" font-family="Helvetica,sans-Serif" font-size="10.00"> &gt; Icon</text>
<text xml:space="preserve" text-anchor="start" x="159.5" y="-276.5" font-family="Helvetica,sans-Serif" font-size="10.00"> </text>
<polygon fill="#666666" stroke="#666666" points="97.62,-348 97.62,-348 224.38,-348 224.38,-348 97.62,-348"/>
<polygon fill="#666666" stroke="#666666" points="97.62,-288 97.62,-288 109.62,-288 109.62,-288 97.62,-288"/>
<polygon fill="#666666" stroke="#666666" points="109.62,-288 109.62,-288 224.38,-288 224.38,-288 109.62,-288"/>
<polygon fill="none" stroke="#666666" points="97.62,-270 97.62,-366 224.38,-366 224.38,-270 97.62,-270"/>
</a>
</g>
</g>
<!-- Node3&#45;&gt;Node1 -->
<g id="edge2_Node000001_Node000003" class="edge">
<title>Node3&#45;&gt;Node1</title>
<g id="a_edge2_Node000001_Node000003"><a xlink:title=" ">
<path fill="none" stroke="#63b8ff" d="M147.23,-270.06C143.5,-257.33 139.28,-242.95 134.94,-228.15"/>
<polygon fill="none" stroke="#63b8ff" points="134.91,-228.02 129.38,-223.39 131.53,-216.51 137.06,-221.14 134.91,-228.02"/>
</a>
</g>
<text xml:space="preserve" text-anchor="start" x="144.27" y="-239.5" font-family="Helvetica,sans-Serif" font-size="10.00" fill="grey">+UIData</text>
</g>
</g>
</svg>
