<?xml version="1.0" encoding="UTF-8" standalone="no"?>
<!DOCTYPE svg PUBLIC "-//W3C//DTD SVG 1.1//EN"
 "http://www.w3.org/Graphics/SVG/1.1/DTD/svg11.dtd">
<!-- Generated by graphviz version 13.1.1 (20250719.2154)
 -->
<!-- Title: FOfferedCardInfo Pages: 1 -->
<!--zoomable 455 -->

<svg id="main" version="1.1" xmlns="http://www.w3.org/2000/svg" xmlns:xlink="http://www.w3.org/1999/xlink" xml:space="preserve" onload="init(evt)">

<style type="text/css"><![CDATA[
.node, .edge {opacity: 0.7;}
.node.selected, .edge.selected {opacity: 1;}
.edge:hover path { stroke: red; }
.edge:hover polygon { stroke: red; fill: red; }
]]></style>

<defs>
  <circle id="rim" cx="0" cy="0" r="7"/>
  <circle id="rim2" cx="0" cy="0" r="3.5"/>
  <g id="zoomPlus">
    <use xlink:href="#rim" fill="#404040"><set attributeName="fill" to="#808080" begin="zoomplus.mouseover" end="zoomplus.mouseout"/></use>
    <path d="M-4,0h8M0,-4v8" fill="none" stroke="white" stroke-width="1.5" pointer-events="none"/>
  </g>
  <g id="zoomMin">
    <use xlink:href="#rim" fill="#404040"><set attributeName="fill" to="#808080" begin="zoomminus.mouseover" end="zoomminus.mouseout"/></use>
    <path d="M-4,0h8" fill="none" stroke="white" stroke-width="1.5" pointer-events="none"/>
  </g>
  <g id="arrowUp" transform="translate(30 24)">
    <use xlink:href="#rim"/>
    <path pointer-events="none" fill="none" stroke="white" stroke-width="1.5" d="M0,-3.0v7 M-2.5,-0.5L0,-3.0L2.5,-0.5"/>
  </g>
  <g id="arrowRight" transform="rotate(90) translate(36 -43)">
    <use xlink:href="#rim"/>
    <path pointer-events="none" fill="none" stroke="white" stroke-width="1.5" d="M0,-3.0v7 M-2.5,-0.5L0,-3.0L2.5,-0.5"/>
  </g>
  <g id="arrowDown" transform="rotate(180) translate(-30 -48)">
    <use xlink:href="#rim"/>
    <path pointer-events="none" fill="none" stroke="white" stroke-width="1.5" d="M0,-3.0v7 M-2.5,-0.5L0,-3.0L2.5,-0.5"/>
  </g>
  <g id="arrowLeft" transform="rotate(270) translate(-36 17)">
    <use xlink:href="#rim"/>
    <path pointer-events="none" fill="none" stroke="white" stroke-width="1.5" d="M0,-3.0v7 M-2.5,-0.5L0,-3.0L2.5,-0.5"/>
  </g>
  <g id="resetDef">
    <use xlink:href="#rim2" fill="#404040"><set attributeName="fill" to="#808080" begin="reset.mouseover" end="reset.mouseout"/></use>
  </g>
</defs>
<script type="application/ecmascript">
var viewWidth = 156;
var viewHeight = 455;
var sectionId = 'dynsection-0';
</script>
<script type="application/ecmascript" xlink:href="svg.min.js"/>
<svg id="graph" class="graph">
<g id="viewport">
<title>FOfferedCardInfo</title>
<!-- Node1 -->
<g id="Node000001" class="node">
<title>Node1</title>
<g id="a_Node000001"><a xlink:title=" ">
<polygon fill="#999999" stroke="none" points="123.75,-52 24,-52 24,0 123.75,0 123.75,-52"/>
<text xml:space="preserve" text-anchor="start" x="36.38" y="-38.5" font-family="Helvetica,sans-Serif" font-size="10.00">FOfferedCardInfo</text>
<text xml:space="preserve" text-anchor="start" x="28" y="-22.5" font-family="Helvetica,sans-Serif" font-size="10.00">+</text>
<text xml:space="preserve" text-anchor="start" x="38" y="-22.5" font-family="Helvetica,sans-Serif" font-size="10.00">FName RowName</text>
<text xml:space="preserve" text-anchor="start" x="72.38" y="-6.5" font-family="Helvetica,sans-Serif" font-size="10.00"> </text>
<polygon fill="#666666" stroke="#666666" points="24,-34 24,-34 123.75,-34 123.75,-34 24,-34"/>
<polygon fill="#666666" stroke="#666666" points="24,-18 24,-18 36,-18 36,-18 24,-18"/>
<polygon fill="#666666" stroke="#666666" points="36,-18 36,-18 123.75,-18 123.75,-18 36,-18"/>
<polygon fill="none" stroke="#666666" points="24,0 24,-52 123.75,-52 123.75,0 24,0"/>
</a>
</g>
</g>
<!-- Node2 -->
<g id="Node000002" class="node">
<title>Node2</title>
<g id="a_Node000002"><a xlink:href="struct_f_card_reward_data.html" target="_top" xlink:title=" ">
<polygon fill="white" stroke="none" points="147.75,-358 0,-358 0,-106 147.75,-106 147.75,-358"/>
<text xml:space="preserve" text-anchor="start" x="33" y="-344.5" font-family="Helvetica,sans-Serif" font-size="10.00">FCardRewardData</text>
<text xml:space="preserve" text-anchor="start" x="4" y="-328.5" font-family="Helvetica,sans-Serif" font-size="10.00">+</text>
<text xml:space="preserve" text-anchor="start" x="14" y="-328.5" font-family="Helvetica,sans-Serif" font-size="10.00">FGameplayAttribute</text>
<text xml:space="preserve" text-anchor="start" x="14" y="-316.5" font-family="Helvetica,sans-Serif" font-size="10.00"> AttributeToModify</text>
<text xml:space="preserve" text-anchor="start" x="4" y="-300.5" font-family="Helvetica,sans-Serif" font-size="10.00">+</text>
<text xml:space="preserve" text-anchor="start" x="14" y="-300.5" font-family="Helvetica,sans-Serif" font-size="10.00">FName BuffID</text>
<text xml:space="preserve" text-anchor="start" x="4" y="-284.5" font-family="Helvetica,sans-Serif" font-size="10.00">+</text>
<text xml:space="preserve" text-anchor="start" x="14" y="-284.5" font-family="Helvetica,sans-Serif" font-size="10.00">FText Description</text>
<text xml:space="preserve" text-anchor="start" x="4" y="-268.5" font-family="Helvetica,sans-Serif" font-size="10.00">+</text>
<text xml:space="preserve" text-anchor="start" x="14" y="-268.5" font-family="Helvetica,sans-Serif" font-size="10.00">FText DisplayName</text>
<text xml:space="preserve" text-anchor="start" x="4" y="-252.5" font-family="Helvetica,sans-Serif" font-size="10.00">+</text>
<text xml:space="preserve" text-anchor="start" x="14" y="-252.5" font-family="Helvetica,sans-Serif" font-size="10.00">TObjectPtr&lt; UTexture2D</text>
<text xml:space="preserve" text-anchor="start" x="14" y="-240.5" font-family="Helvetica,sans-Serif" font-size="10.00"> &gt; Icon</text>
<text xml:space="preserve" text-anchor="start" x="4" y="-224.5" font-family="Helvetica,sans-Serif" font-size="10.00">+</text>
<text xml:space="preserve" text-anchor="start" x="14" y="-224.5" font-family="Helvetica,sans-Serif" font-size="10.00">float ModificationValue</text>
<text xml:space="preserve" text-anchor="start" x="4" y="-208.5" font-family="Helvetica,sans-Serif" font-size="10.00">+</text>
<text xml:space="preserve" text-anchor="start" x="14" y="-208.5" font-family="Helvetica,sans-Serif" font-size="10.00">ECardRarity Rarity</text>
<text xml:space="preserve" text-anchor="start" x="4" y="-192.5" font-family="Helvetica,sans-Serif" font-size="10.00">+</text>
<text xml:space="preserve" text-anchor="start" x="14" y="-192.5" font-family="Helvetica,sans-Serif" font-size="10.00">int32 RequiredLevel</text>
<text xml:space="preserve" text-anchor="start" x="4" y="-176.5" font-family="Helvetica,sans-Serif" font-size="10.00">+</text>
<text xml:space="preserve" text-anchor="start" x="14" y="-176.5" font-family="Helvetica,sans-Serif" font-size="10.00">FName RequiredSkillID</text>
<text xml:space="preserve" text-anchor="start" x="4" y="-160.5" font-family="Helvetica,sans-Serif" font-size="10.00">+</text>
<text xml:space="preserve" text-anchor="start" x="14" y="-160.5" font-family="Helvetica,sans-Serif" font-size="10.00">ERewardType RewardType</text>
<text xml:space="preserve" text-anchor="start" x="4" y="-144.5" font-family="Helvetica,sans-Serif" font-size="10.00">+</text>
<text xml:space="preserve" text-anchor="start" x="14" y="-144.5" font-family="Helvetica,sans-Serif" font-size="10.00">FName SkillID</text>
<text xml:space="preserve" text-anchor="start" x="4" y="-128.5" font-family="Helvetica,sans-Serif" font-size="10.00">+</text>
<text xml:space="preserve" text-anchor="start" x="14" y="-128.5" font-family="Helvetica,sans-Serif" font-size="10.00">FGameplayTag TargetSkillTag</text>
<text xml:space="preserve" text-anchor="start" x="72.38" y="-112.5" font-family="Helvetica,sans-Serif" font-size="10.00"> </text>
<polygon fill="#666666" stroke="#666666" points="0,-340 0,-340 147.75,-340 147.75,-340 0,-340"/>
<polygon fill="#666666" stroke="#666666" points="0,-124 0,-124 12,-124 12,-124 0,-124"/>
<polygon fill="#666666" stroke="#666666" points="12,-124 12,-124 147.75,-124 147.75,-124 12,-124"/>
<polygon fill="none" stroke="#666666" points="0,-106 0,-358 147.75,-358 147.75,-106 0,-106"/>
</a>
</g>
</g>
<!-- Node2&#45;&gt;Node1 -->
<g id="edge1_Node000001_Node000002" class="edge">
<title>Node2&#45;&gt;Node1</title>
<g id="a_edge1_Node000001_Node000002"><a xlink:title=" ">
<path fill="none" stroke="#63b8ff" d="M73.88,-106.16C73.88,-91.14 73.88,-76.81 73.88,-64.58"/>
<polygon fill="none" stroke="#63b8ff" points="73.88,-64.63 69.88,-58.63 73.88,-52.63 77.88,-58.63 73.88,-64.63"/>
</a>
</g>
<text xml:space="preserve" text-anchor="start" x="76.88" y="-75.5" font-family="Helvetica,sans-Serif" font-size="10.00" fill="grey">+CardData</text>
</g>
<!-- Node3 -->
<g id="Node000003" class="node">
<title>Node3</title>
<g id="a_Node000003"><a xlink:title=" ">
<polygon fill="white" stroke="none" points="113.88,-447 33.88,-447 33.88,-395 113.88,-395 113.88,-447"/>
<text xml:space="preserve" text-anchor="start" x="37.88" y="-433.5" font-family="Helvetica,sans-Serif" font-size="10.00">FTableRowBase</text>
<text xml:space="preserve" text-anchor="start" x="72.38" y="-417.5" font-family="Helvetica,sans-Serif" font-size="10.00"> </text>
<text xml:space="preserve" text-anchor="start" x="72.38" y="-401.5" font-family="Helvetica,sans-Serif" font-size="10.00"> </text>
<polygon fill="#666666" stroke="#666666" points="33.88,-429 33.88,-429 113.88,-429 113.88,-429 33.88,-429"/>
<polygon fill="#666666" stroke="#666666" points="33.88,-413 33.88,-413 113.88,-413 113.88,-413 33.88,-413"/>
<polygon fill="none" stroke="#666666" points="33.88,-395 33.88,-447 113.88,-447 113.88,-395 33.88,-395"/>
</a>
</g>
</g>
<!-- Node3&#45;&gt;Node2 -->
<g id="edge2_Node000002_Node000003" class="edge">
<title>Node3&#45;&gt;Node2</title>
<g id="a_edge2_Node000002_Node000003"><a xlink:title=" ">
<path fill="none" stroke="#63b8ff" d="M73.88,-383.85C73.88,-375.9 73.88,-367.05 73.88,-357.73"/>
<polygon fill="none" stroke="#63b8ff" points="70.38,-383.65 73.88,-393.65 77.38,-383.65 70.38,-383.65"/>
</a>
</g>
</g>
</g>
</svg>

<g id="navigator" transform="translate(0 0)" fill="#404254">
  <rect fill="#f2f5e9" fill-opacity="0.5" stroke="#606060" stroke-width=".5" x="0" y="0" width="60" height="60"/>
  <use id="zoomplus" xlink:href="#zoomPlus" x="17" y="9" onmousedown="handleZoom(evt,'in')"/>
  <use id="zoomminus" xlink:href="#zoomMin" x="42" y="9" onmousedown="handleZoom(evt,'out')"/>
  <use id="reset" xlink:href="#resetDef" x="30" y="36" onmousedown="handleReset()"/>
   <use id="arrowup" xlink:href="#arrowUp" x="0" y="0" onmousedown="handlePan(0,-1)"/>
  <use id="arrowright" xlink:href="#arrowRight" x="0" y="0" onmousedown="handlePan(1,0)"/>
  <use id="arrowdown" xlink:href="#arrowDown" x="0" y="0" onmousedown="handlePan(0,1)"/>
  <use id="arrowleft" xlink:href="#arrowLeft" x="0" y="0" onmousedown="handlePan(-1,0)"/>
</g>
<svg viewBox="0 0 15 15" width="100%" height="30px" preserveAspectRatio="xMaxYMin meet">
 <g id="arrow_out" transform="scale(0.3 0.3)">
  <a xlink:href="struct_f_offered_card_info__coll__graph_org.svg" target="_base">
   <rect id="button" ry="5" rx="5" y="6" x="6" height="38" width="38"
        fill="#f2f5e9" fill-opacity="0.5" stroke="#606060" stroke-width="1.0"/>
   <path id="arrow"
     d="M 11.500037,31.436501 C 11.940474,20.09759 22.043105,11.32322 32.158766,21.979434 L 37.068811,17.246167 C 37.068811,17.246167 37.088388,32 37.088388,32 L 22.160133,31.978069 C 22.160133,31.978069 26.997745,27.140456 26.997745,27.140456 C 18.528582,18.264221 13.291696,25.230495 11.500037,31.436501 z"
     style="fill:#404040;"/>
  </a>
 </g>
</svg>

<style type='text/css'>
<![CDATA[
[data-mouse-over-selected='false'] { opacity: 0.7; }
[data-mouse-over-selected='true']  { opacity: 1.0; }
]]>
</style>
<script type="application/ecmascript"><![CDATA[
document.addEventListener('DOMContentLoaded', (event) => {
  highlightEdges();
  highlightAdjacentNodes();
});
]]></script>
</svg>
