<?xml version="1.0" encoding="UTF-8" standalone="no"?>
<!DOCTYPE svg PUBLIC "-//W3C//DTD SVG 1.1//EN"
 "http://www.w3.org/Graphics/SVG/1.1/DTD/svg11.dtd">
<!-- Generated by graphviz version 13.1.1 (20250719.2154)
 -->
<!-- Title: FPhaseActionData Pages: 1 -->
<svg width="160pt" height="194pt"
 viewBox="0.00 0.00 160.00 194.00" xmlns="http://www.w3.org/2000/svg" xmlns:xlink="http://www.w3.org/1999/xlink">
<g id="graph0" class="graph" transform="scale(1 1) rotate(0) translate(4 190)">
<title>FPhaseActionData</title>
<!-- Node1 -->
<g id="Node000001" class="node">
<title>Node1</title>
<g id="a_Node000001"><a xlink:title=" ">
<polygon fill="#999999" stroke="none" points="152.25,-68 0,-68 0,0 152.25,0 152.25,-68"/>
<text xml:space="preserve" text-anchor="start" x="34.88" y="-54.5" font-family="Helvetica,sans-Serif" font-size="10.00">FPhaseActionData</text>
<text xml:space="preserve" text-anchor="start" x="4" y="-38.5" font-family="Helvetica,sans-Serif" font-size="10.00">+</text>
<text xml:space="preserve" text-anchor="start" x="14" y="-38.5" font-family="Helvetica,sans-Serif" font-size="10.00">float ActionStartTime</text>
<text xml:space="preserve" text-anchor="start" x="4" y="-22.5" font-family="Helvetica,sans-Serif" font-size="10.00">+</text>
<text xml:space="preserve" text-anchor="start" x="14" y="-22.5" font-family="Helvetica,sans-Serif" font-size="10.00">EPhaseActionType ActionType</text>
<text xml:space="preserve" text-anchor="start" x="74.62" y="-6.5" font-family="Helvetica,sans-Serif" font-size="10.00"> </text>
<polygon fill="#666666" stroke="#666666" points="0,-50 0,-50 152.25,-50 152.25,-50 0,-50"/>
<polygon fill="#666666" stroke="#666666" points="0,-18 0,-18 12,-18 12,-18 0,-18"/>
<polygon fill="#666666" stroke="#666666" points="12,-18 12,-18 152.25,-18 152.25,-18 12,-18"/>
<polygon fill="none" stroke="#666666" points="0,0 0,-68 152.25,-68 152.25,0 0,0"/>
</a>
</g>
</g>
<!-- Node2 -->
<g id="Node000002" class="node">
<title>Node2</title>
<g id="a_Node000002"><a xlink:href="struct_f_boss_phase_data.html" target="_top" xlink:title=" ">
<polygon fill="white" stroke="none" points="132.75,-186 19.5,-186 19.5,-122 132.75,-122 132.75,-186"/>
<text xml:space="preserve" text-anchor="start" x="37.5" y="-172.5" font-family="Helvetica,sans-Serif" font-size="10.00">FBossPhaseData</text>
<text xml:space="preserve" text-anchor="start" x="23.5" y="-156.5" font-family="Helvetica,sans-Serif" font-size="10.00">+</text>
<text xml:space="preserve" text-anchor="start" x="33.5" y="-156.5" font-family="Helvetica,sans-Serif" font-size="10.00">TSubclassOf&lt; AActor</text>
<text xml:space="preserve" text-anchor="start" x="33.5" y="-144.5" font-family="Helvetica,sans-Serif" font-size="10.00"> &gt; BossClass</text>
<text xml:space="preserve" text-anchor="start" x="74.62" y="-128.5" font-family="Helvetica,sans-Serif" font-size="10.00"> </text>
<polygon fill="#666666" stroke="#666666" points="19.5,-168 19.5,-168 132.75,-168 132.75,-168 19.5,-168"/>
<polygon fill="#666666" stroke="#666666" points="19.5,-140 19.5,-140 31.5,-140 31.5,-140 19.5,-140"/>
<polygon fill="#666666" stroke="#666666" points="31.5,-140 31.5,-140 132.75,-140 132.75,-140 31.5,-140"/>
<polygon fill="none" stroke="#666666" points="19.5,-122 19.5,-186 132.75,-186 132.75,-122 19.5,-122"/>
</a>
</g>
</g>
<!-- Node2&#45;&gt;Node1 -->
<g id="edge1_Node000001_Node000002" class="edge">
<title>Node2&#45;&gt;Node1</title>
<g id="a_edge1_Node000001_Node000002"><a xlink:title=" ">
<path fill="none" stroke="#63b8ff" d="M76.12,-122.3C76.12,-109.57 76.12,-94.54 76.12,-80.57"/>
<polygon fill="none" stroke="#63b8ff" points="76.13,-80.51 72.13,-74.51 76.13,-68.51 80.13,-74.51 76.13,-80.51"/>
</a>
</g>
<text xml:space="preserve" text-anchor="start" x="79.12" y="-91.5" font-family="Helvetica,sans-Serif" font-size="10.00" fill="grey">+BossData</text>
</g>
</g>
</svg>
