<?xml version="1.0" encoding="UTF-8" standalone="no"?>
<!DOCTYPE svg PUBLIC "-//W3C//DTD SVG 1.1//EN"
 "http://www.w3.org/Graphics/SVG/1.1/DTD/svg11.dtd">
<!-- Generated by graphviz version 13.1.1 (20250719.2154)
 -->
<!-- Title: FBuffModifierData Pages: 1 -->
<svg width="149pt" height="226pt"
 viewBox="0.00 0.00 149.00 226.00" xmlns="http://www.w3.org/2000/svg" xmlns:xlink="http://www.w3.org/1999/xlink">

<svg id="main" version="1.1" xmlns="http://www.w3.org/2000/svg" xmlns:xlink="http://www.w3.org/1999/xlink" xml:space="preserve">

<style type="text/css"><![CDATA[
.node, .edge {opacity: 0.7;}
.node.selected, .edge.selected {opacity: 1;}
.edge:hover path { stroke: red; }
.edge:hover polygon { stroke: red; fill: red; }
]]></style>
<script type="application/ecmascript" xlink:href="svg.min.js"/>
<svg id="graph" class="graph">
<g id="graph0" class="graph" transform="scale(1 1) rotate(0) translate(4 222)">
<title>FBuffModifierData</title>
<!-- Node1 -->
<g id="Node000001" class="node">
<title>Node1</title>
<g id="a_Node000001"><a xlink:title=" ">
<polygon fill="#999999" stroke="none" points="132.38,-52 8.62,-52 8.62,0 132.38,0 132.38,-52"/>
<text xml:space="preserve" text-anchor="start" x="31.12" y="-38.5" font-family="Helvetica,sans-Serif" font-size="10.00">FBuffModifierData</text>
<text xml:space="preserve" text-anchor="start" x="12.62" y="-22.5" font-family="Helvetica,sans-Serif" font-size="10.00">+</text>
<text xml:space="preserve" text-anchor="start" x="22.62" y="-22.5" font-family="Helvetica,sans-Serif" font-size="10.00">FGameplayTag DataTag</text>
<text xml:space="preserve" text-anchor="start" x="69" y="-6.5" font-family="Helvetica,sans-Serif" font-size="10.00"> </text>
<polygon fill="#666666" stroke="#666666" points="8.62,-34 8.62,-34 132.38,-34 132.38,-34 8.62,-34"/>
<polygon fill="#666666" stroke="#666666" points="8.62,-18 8.62,-18 20.62,-18 20.62,-18 8.62,-18"/>
<polygon fill="#666666" stroke="#666666" points="20.62,-18 20.62,-18 132.38,-18 132.38,-18 20.62,-18"/>
<polygon fill="none" stroke="#666666" points="8.62,0 8.62,-52 132.38,-52 132.38,0 8.62,0"/>
</a>
</g>
</g>
<!-- Node2 -->
<g id="Node000002" class="node">
<title>Node2</title>
<g id="a_Node000002"><a xlink:href="struct_f_magnitude_by_rarity.html" target="_top" xlink:title=" ">
<polygon fill="white" stroke="none" points="141,-218 0,-218 0,-106 141,-106 141,-218"/>
<text xml:space="preserve" text-anchor="start" x="25.88" y="-204.5" font-family="Helvetica,sans-Serif" font-size="10.00">FMagnitudeByRarity</text>
<text xml:space="preserve" text-anchor="start" x="4" y="-188.5" font-family="Helvetica,sans-Serif" font-size="10.00">+</text>
<text xml:space="preserve" text-anchor="start" x="14" y="-188.5" font-family="Helvetica,sans-Serif" font-size="10.00">float Common</text>
<text xml:space="preserve" text-anchor="start" x="4" y="-172.5" font-family="Helvetica,sans-Serif" font-size="10.00">+</text>
<text xml:space="preserve" text-anchor="start" x="14" y="-172.5" font-family="Helvetica,sans-Serif" font-size="10.00">float Epic</text>
<text xml:space="preserve" text-anchor="start" x="4" y="-156.5" font-family="Helvetica,sans-Serif" font-size="10.00">+</text>
<text xml:space="preserve" text-anchor="start" x="14" y="-156.5" font-family="Helvetica,sans-Serif" font-size="10.00">float Legendary</text>
<text xml:space="preserve" text-anchor="start" x="4" y="-140.5" font-family="Helvetica,sans-Serif" font-size="10.00">+</text>
<text xml:space="preserve" text-anchor="start" x="14" y="-140.5" font-family="Helvetica,sans-Serif" font-size="10.00">float Rare</text>
<text xml:space="preserve" text-anchor="start" x="4" y="-124.5" font-family="Helvetica,sans-Serif" font-size="10.00">+</text>
<text xml:space="preserve" text-anchor="start" x="14" y="-124.5" font-family="Helvetica,sans-Serif" font-size="10.00">float GetMagnitudeForRarity</text>
<text xml:space="preserve" text-anchor="start" x="14" y="-112.5" font-family="Helvetica,sans-Serif" font-size="10.00">(ECardRarity Rarity) const</text>
<polygon fill="#666666" stroke="#666666" points="0,-200 0,-200 141,-200 141,-200 0,-200"/>
<polygon fill="#666666" stroke="#666666" points="0,-136 0,-136 12,-136 12,-136 0,-136"/>
<polygon fill="#666666" stroke="#666666" points="12,-136 12,-136 141,-136 141,-136 12,-136"/>
<polygon fill="none" stroke="#666666" points="0,-106 0,-218 141,-218 141,-106 0,-106"/>
</a>
</g>
</g>
<!-- Node2&#45;&gt;Node1 -->
<g id="edge1_Node000001_Node000002" class="edge">
<title>Node2&#45;&gt;Node1</title>
<g id="a_edge1_Node000001_Node000002"><a xlink:title=" ">
<path fill="none" stroke="#63b8ff" d="M70.5,-106.11C70.5,-92.16 70.5,-77.49 70.5,-64.62"/>
<polygon fill="none" stroke="#63b8ff" points="70.5,-64.87 66.5,-58.87 70.5,-52.87 74.5,-58.87 70.5,-64.87"/>
</a>
</g>
<text xml:space="preserve" text-anchor="start" x="73.5" y="-75.5" font-family="Helvetica,sans-Serif" font-size="10.00" fill="grey">+Magnitude</text>
</g>
</g>
</svg>
</svg>

<style type='text/css'>
<![CDATA[
[data-mouse-over-selected='false'] { opacity: 0.7; }
[data-mouse-over-selected='true']  { opacity: 1.0; }
]]>
</style>
<script type="application/ecmascript"><![CDATA[
document.addEventListener('DOMContentLoaded', (event) => {
  highlightEdges();
  highlightAdjacentNodes();
});
]]></script>
</svg>
